<svg width="72" height="72" fill="none" xmlns="http://www.w3.org/2000/svg"><path d="M31.399 5.376c1.823-3.17 6.38-3.17 8.202 0l26.656 46.358 4.102 7.132c1.822 3.17-.456 7.132-4.102 7.132H4.742c-3.645 0-5.923-3.962-4.1-7.132l30.757-53.49z" fill="#92C9EC"/><path fill="#103654" d="M34 19.998h3v29h-3zM37.94 55.998a2.44 2.44 0 11-4.88 0 2.44 2.44 0 014.88 0z"/><circle cx="58" cy="55.5" r="14" fill="#103654"/><path fill-rule="evenodd" clip-rule="evenodd" d="M60 57v-9.978L56 47v10h-3.247l5.206 7.09L63.16 57H60z" fill="#fff"/></svg>