<svg width="528" height="304" viewBox="0 0 528 304" fill="none" xmlns="http://www.w3.org/2000/svg">
<g clip-path="url(#clip0)">
<path d="M420.395 238.362C422.207 239.4 422.214 241.088 420.418 242.126C418.621 243.164 415.687 243.164 413.876 242.126C412.154 241.137 412.057 239.567 413.603 238.518L413.853 238.362C413.943 238.31 414.037 238.261 414.13 238.217C415.942 237.324 418.674 237.372 420.395 238.362Z" fill="#92C9EC"/>
<path d="M335.168 220.401L335.251 220.449C335.418 220.549 335.577 220.662 335.726 220.788C336.961 221.822 336.781 223.247 335.191 224.166C333.6 225.084 331.13 225.192 329.322 224.485C329.121 224.406 328.925 224.316 328.735 224.214L328.649 224.166C326.837 223.128 326.83 221.439 328.649 220.401C330.467 219.363 333.357 219.359 335.168 220.401Z" fill="#92C9EC"/>
<path d="M414.13 238.217C414.037 238.261 413.943 238.31 413.853 238.362L413.603 238.518L386.188 222.785L312.608 265.292C302.847 270.928 290.814 274.488 278.175 275.976C278.137 275.831 278.084 275.69 278.018 275.556C290.518 274.068 302.424 270.563 312.076 264.987L386.18 222.179L414.13 238.217Z" fill="#DBF2FF"/>
<path d="M446.212 114.331C447.335 114.964 447.372 115.972 446.373 116.638L446.231 116.727C446.099 116.803 445.961 116.869 445.819 116.924C445.216 117.151 444.571 117.251 443.927 117.217C443.283 117.183 442.653 117.016 442.077 116.727C441.055 116.14 440.935 115.239 441.702 114.566C441.81 114.477 441.925 114.398 442.047 114.328L442.2 114.246C442.832 113.96 443.521 113.819 444.216 113.833C444.911 113.848 445.593 114.018 446.212 114.331Z" fill="#92C9EC"/>
<path d="M276.386 273.949C277.081 274.308 277.65 274.869 278.018 275.556C278.084 275.69 278.137 275.831 278.175 275.976C278.467 277.092 277.883 278.238 276.416 279.082C273.961 280.5 269.968 280.5 267.497 279.082C266.375 278.439 265.757 277.594 265.652 276.768C265.637 276.625 265.637 276.48 265.652 276.337C265.72 275.466 266.33 274.611 267.479 273.949C269.923 272.531 273.912 272.531 276.386 273.949Z" fill="#92C9EC"/>
<path d="M216.676 264.983C230.176 272.732 247.968 276.515 265.641 276.337C265.626 276.48 265.626 276.625 265.641 276.768C247.774 276.947 229.787 273.123 216.137 265.288L216.676 264.983Z" fill="#DBF2FF"/>
<path d="M69.4933 122.311C71.3085 123.353 71.316 125.038 69.5158 126.076C68.1871 126.846 66.2447 127.047 64.5905 126.683C64.3551 126.629 64.1227 126.563 63.8943 126.485C63.5756 126.38 63.2684 126.243 62.9774 126.076C61.1659 125.038 61.151 123.353 62.9549 122.311C64.7589 121.27 67.6819 121.277 69.4933 122.311Z" fill="#92C9EC"/>
<path d="M24.8323 180.364C27.28 181.77 27.3137 184.043 24.9221 185.465L24.8622 185.498C24.7051 185.591 24.5404 185.677 24.372 185.755C21.9018 186.912 18.2565 186.826 15.9435 185.498C13.4734 184.081 13.4584 181.778 15.9136 180.364C15.9885 180.323 16.0633 180.279 16.1419 180.241C16.3314 180.14 16.5263 180.05 16.7258 179.97C19.1809 178.962 22.6167 179.096 24.8323 180.364Z" fill="#92C9EC"/>
<path d="M366.808 39.7238L366.281 40.0289L321.493 14.33C305.875 5.36447 285.152 0.431538 263.137 0.431538C241.123 0.431538 220.471 5.36446 204.939 14.3263L160.447 40.0289L159.919 39.7238L204.412 14.025C220.067 4.98129 240.925 0 263.137 0C285.35 0 306.264 4.97757 322.024 14.0213L366.808 39.7238Z" fill="#DBF2FF"/>
<path d="M314.322 37.4062C316.133 38.4441 316.144 40.1331 314.344 41.171C312.544 42.2089 309.613 42.2089 307.806 41.171C306.118 40.2038 305.994 38.6785 307.431 37.6331C307.544 37.5507 307.662 37.4749 307.783 37.4062L307.94 37.3169C309.748 36.3683 312.563 36.3943 314.322 37.4062Z" fill="#92C9EC"/>
<path d="M212.462 71.866C212.586 71.9367 212.702 72.0111 212.814 72.0855C214.928 73.5103 214.827 75.6531 212.492 77.0036C210.157 78.354 206.436 78.4172 203.951 77.2007C203.824 77.1375 203.697 77.0705 203.577 77.0036L203.412 76.9031C201.103 75.4783 201.144 73.2536 203.543 71.866C205.942 70.4784 209.812 70.4486 212.294 71.773L212.462 71.866Z" fill="#92C9EC"/>
<path d="M307.94 37.3169C307.764 37.4117 307.594 37.5173 307.431 37.6331C280.889 24.3224 240.528 24.925 215.4 39.4337L144.353 80.4819C144.23 80.3708 144.094 80.2735 143.949 80.1917L214.868 39.136C240.277 24.4563 281.102 23.8499 307.94 37.3169Z" fill="#DBF2FF"/>
<path d="M459.97 124.443C486.655 139.755 486.794 164.669 460.288 179.981L459.757 179.676C485.955 164.531 485.832 139.893 459.446 124.748L445.815 116.936C445.957 116.88 446.095 116.814 446.227 116.739L459.97 124.443Z" fill="#DBF2FF"/>
<path d="M24.7014 118.446C9.18817 127.408 0.6849 139.327 0.748525 152.002C0.804664 162.195 6.40739 171.897 16.7258 179.97C16.5237 180.052 16.3291 180.141 16.142 180.238C5.71875 172.091 0.0598795 162.296 -2.72712e-06 152.002C-0.0748555 139.212 8.50701 127.185 24.1662 118.149L68.6587 92.4497L69.1901 92.751L24.7014 118.446Z" fill="#DBF2FF"/>
<path d="M503.452 118.141C519.208 127.185 527.929 139.208 528 151.994C528.071 164.781 519.489 176.808 503.83 185.848L459.337 211.551L458.806 211.245L503.302 185.543C518.819 176.581 527.322 164.665 527.255 151.991C527.188 139.316 518.542 127.401 502.928 118.439L458.136 92.7435L458.664 92.4385L503.452 118.141Z" fill="#DBF2FF"/>
<path d="M416.683 130.544C437.503 142.489 437.615 161.931 416.93 173.88L335.714 220.788C335.567 220.66 335.408 220.547 335.239 220.449L416.383 173.575C436.777 161.793 436.672 142.627 416.144 130.849L300.343 64.3848C279.822 52.6068 246.527 52.6068 226.134 64.3848L212.81 72.0818L225.606 64.0798C246.292 52.1306 280.054 52.1306 300.871 64.0798L416.683 130.544Z" fill="#DBF2FF"/>
<path d="M143.972 221.394C145.124 222.056 145.132 223.131 143.972 223.79C143.373 224.091 142.717 224.259 142.047 224.284C141.377 224.309 140.71 224.19 140.091 223.935C139.993 223.89 139.9 223.842 139.81 223.79C139.72 223.738 139.638 223.685 139.559 223.63C138.687 222.982 138.739 222.052 139.724 221.438L139.799 221.394C139.958 221.301 140.126 221.224 140.3 221.163C140.896 220.952 141.529 220.864 142.16 220.904C142.791 220.943 143.407 221.11 143.972 221.394Z" fill="#92C9EC"/>
<path d="M139.825 223.79C139.915 223.842 140.008 223.89 140.106 223.935L111.605 240.397L111.074 240.092L139.574 223.63C139.653 223.686 139.735 223.738 139.825 223.79Z" fill="#DBF2FF"/>
<path d="M301.338 240.036L328.734 224.214C328.925 224.315 329.121 224.406 329.322 224.485L301.87 240.341C281.188 252.29 247.422 252.29 226.602 240.341L110.782 173.88C89.9654 161.935 89.8569 142.493 110.542 130.544L203.412 76.9031L111.078 130.845C90.6877 142.627 90.7963 161.793 111.321 173.571L227.133 240.036C247.658 251.817 280.945 251.817 301.338 240.036Z" fill="#DBF2FF"/>
<path d="M368.077 264.272L323.585 289.975C307.929 299.019 287.071 304 264.859 304C242.646 304 221.736 299.019 205.976 289.975L161.192 264.272L161.719 263.967L206.504 289.67C222.118 298.632 242.845 303.565 264.859 303.565C286.873 303.565 307.525 298.628 323.053 289.666L367.549 263.964L368.077 264.272Z" fill="#DBF2FF"/>
<path d="M25.0757 185.554L69.8601 211.253L69.3324 211.558L24.5517 185.859L24.3721 185.755C24.5405 185.673 24.7052 185.591 24.8624 185.498C24.9376 185.494 25.0124 185.513 25.0757 185.554Z" fill="#DBF2FF"/>
<path d="M68.0261 179.684L140.315 221.163C140.141 221.224 139.973 221.302 139.814 221.394L67.4983 179.981C41.9736 165.331 40.7385 141.894 63.8942 126.485C64.1225 126.563 64.3549 126.629 64.5903 126.683C41.5432 141.92 42.7333 165.175 68.0261 179.684Z" fill="#DBF2FF"/>
<path d="M111.377 63.585L140.064 80.0504C139.968 80.0915 139.874 80.1387 139.784 80.1917C139.698 80.2438 139.615 80.2959 139.537 80.3517L110.849 63.89L111.377 63.585Z" fill="#DBF2FF"/>
<path d="M442.208 114.246L442.054 114.328C441.933 114.398 441.818 114.477 441.71 114.566L389.751 84.749L420.762 66.8364L421.294 67.1378L390.806 84.749L442.208 114.246Z" fill="#DBF2FF"/>
<path d="M143.949 80.1918C144.095 80.2727 144.231 80.37 144.354 80.482C145.08 81.1367 144.949 82.0147 143.961 82.5876C143.316 82.9139 142.603 83.084 141.88 83.084C141.156 83.084 140.443 82.9139 139.799 82.5876C138.736 81.9775 138.646 81.0177 139.537 80.3555C139.616 80.2967 139.699 80.242 139.784 80.1918C139.874 80.1388 139.968 80.0916 140.064 80.0504C140.67 79.8006 141.322 79.6802 141.978 79.6968C142.634 79.7135 143.279 79.8669 143.871 80.1471L143.949 80.1918Z" fill="#92C9EC"/>
<path d="M138.743 141.92L138.785 157.084C138.785 162.631 142.467 168.17 149.795 172.403L149.754 157.24C142.426 153.006 138.758 147.467 138.743 141.92Z" fill="#7DC4F1"/>
<path d="M380.098 156.872L380.054 141.708C380.054 147.326 376.341 152.954 368.871 157.244L368.912 172.403C376.382 168.118 380.113 162.489 380.098 156.872Z" fill="#7DC4F1"/>
<path d="M149.754 157.24L149.795 172.403L232.294 220.055L232.249 204.895L149.754 157.24Z" fill="#7DC4F1"/>
<path d="M285.836 204.895L285.878 220.055L368.912 172.403L368.871 157.244L285.836 204.895Z" fill="#7DC4F1"/>
<path d="M368.871 157.244C383.714 148.721 383.792 134.923 369.043 126.389L286.547 78.7372C271.798 70.218 247.807 70.2143 232.96 78.7372L149.926 126.389C135.079 134.908 135.004 148.71 149.754 157.24L232.249 204.895C246.995 213.411 270.989 213.414 285.836 204.895L368.871 157.244Z" fill="#DBF2FF"/>
<path d="M232.249 204.895L232.294 220.055C247.04 228.574 271.031 228.578 285.878 220.055L285.836 204.895C270.989 213.414 247.014 213.41 232.249 204.895Z" fill="#7DC4F1"/>
<path d="M318.708 34.7388L318.944 117.185L300.328 127.865L300.092 45.4193L318.708 34.7388Z" fill="#D1E4FD"/>
<path d="M300.328 127.865L285.657 119.395L285.425 36.9448L300.092 45.4193L300.328 127.865Z" fill="#A2BADB"/>
<path d="M300.092 45.4192L285.425 36.9447L304.037 26.2642L318.708 34.7387L300.092 45.4192Z" fill="#EBF5FF"/>
<path d="M273.924 143.022L259.252 134.547L255.648 124.729L270.319 133.204L273.924 143.022Z" fill="#799CC6"/>
<path d="M246.782 128.137L232.111 119.666L250.51 109.108L265.177 117.579L246.782 128.137Z" fill="#EBF5FF"/>
<path d="M265.177 117.579L250.509 109.109L241.22 83.3613L255.891 91.8321L265.177 117.579Z" fill="#799CC6"/>
<path d="M267.52 64.1133L295.028 130.909L273.924 143.022L270.319 133.204L241.875 149.539L238.339 163.453L217.234 175.565L244.181 77.5282L267.52 64.1133ZM246.782 128.137L265.177 117.579L255.892 91.8359L246.782 128.137Z" fill="#D1E4FD"/>
<path d="M217.215 175.565L202.544 167.091L229.472 69.0535L244.143 77.528L217.215 175.565Z" fill="#A2BADB"/>
<path d="M244.143 77.528L229.472 69.0535L252.849 55.6387L267.52 64.1132L244.143 77.528Z" fill="#EBF5FF"/>
<path d="M372.613 219.753L372.392 215.687L370.379 217.175C367.898 215.494 366.292 214.076 363.309 212.823C357.643 210.446 356.198 215.375 357.407 216.439C363.324 221.948 369.383 222.681 371.322 221.554C372.168 221.059 372.561 220.535 372.606 219.991C372.617 219.913 372.619 219.833 372.613 219.753Z" fill="#1B7EB7"/>
<path d="M363.657 216.249C363.657 216.249 365.671 219.028 368.631 219.028C371.591 219.028 372.392 216.688 372.392 216.688V176.443L362.066 176.756L363.657 216.249Z" fill="#38A6E0"/>
<path d="M385.084 214.887C383.111 215.174 380.593 215.077 374.788 207.19C373.889 206.156 376.075 201.729 380.375 205.487C384.676 209.244 386.562 210.423 386.562 210.423C386.562 210.423 388.01 214.467 385.084 214.887Z" fill="#1B7EB7"/>
<path d="M383.807 173.311L373.141 176.678C373.706 179.244 378.332 197.042 378.556 201.603C378.781 206.163 378.493 207.8 378.493 207.8C378.744 208.544 382.041 211.468 386.622 210.285C386.484 197.913 385.544 185.563 383.807 173.311Z" fill="#38A6E0"/>
<path d="M358.051 109.849C361.389 104.402 376.764 101.772 376.015 101.586C385.776 99.6444 386.345 113.387 385.02 117.17C383.452 121.653 382.879 136.143 383.448 140.577C386.281 153.724 386.596 170.748 386.281 172.373C384.264 175.004 375.701 177.507 368.145 179.07C360.588 180.632 358.545 177.258 358.545 177.258C356.673 175.19 360.622 133.037 360.622 133.037" fill="#EDFAFF"/>
<path d="M364.821 117.263C364.821 117.263 365.944 129.841 365.689 131.72C365.476 133.401 367.097 140.998 360.154 138.379C360.301 137.42 360.277 136.442 360.083 135.492C360.083 135.492 357.631 117.058 360.131 115.868C362.632 114.678 364.821 117.263 364.821 117.263Z" fill="#DFEBEF"/>
<path d="M364.821 117.263C364.821 117.263 364.915 128.766 364.679 130.656C364.443 132.545 366.49 141.779 356.351 135.957C346.213 130.135 344.42 128.635 343.728 127.352C344.135 122.97 346.149 122.378 347.219 122.691C348.29 123.003 354.33 125.38 356.037 126.318C356.161 111.065 358.178 109.86 358.178 109.86" fill="#EDFAFF"/>
<path d="M364.087 105.448C367.692 106.914 378.01 108.275 375.996 101.586C373.642 101.103 367.381 102.978 364.087 105.448Z" fill="#7DC4F1"/>
<path d="M366.928 104.12C366.928 104.12 372.112 107.096 374.788 102.714C374.788 102.714 377.033 83.2794 364.492 88.6923C362.916 89.3507 361.31 90.2324 361.688 102.059C362.837 102.059 366.928 101.304 366.928 104.12Z" fill="#F7C8AC"/>
<path d="M362.287 87.7956C362.515 89.1386 366.209 101.363 373.515 101.363C380.821 101.363 379.256 91.3781 378.122 89.2055C376.865 86.7837 373.945 83.3723 368.859 83.3723C363.773 83.3723 361.748 84.4809 362.287 87.7956Z" fill="#3498D1"/>
<path d="M330.598 112.914L346.606 125.73L356.101 116.857L341.272 103.524L330.598 112.914Z" fill="#4DB9F8"/>
<path d="M333.005 112.539L346.624 123.193L353.675 116.653L341.272 105.5L333.005 112.539Z" fill="#3498D1"/>
<path d="M343.394 127.028C343.394 127.028 339.569 124.588 338.768 121.076C338.525 120.02 338.491 119.506 338.57 119.313C338.944 119.596 339.592 120.168 339.962 120.429C340.333 120.689 340.969 121.311 341.572 121.716C341.946 121.962 342.156 122.285 342.365 122.166C342.923 121.846 342.111 120.473 341.991 120.005C341.871 119.536 342.275 118.688 342.777 119.83C343.278 120.972 345.891 122.352 345.857 123.665C345.823 124.979 346.905 127.229 343.394 127.028Z" fill="#F7C8AC"/>
</g>
<defs>
<clipPath id="clip0">
<rect width="528" height="304" fill="white"/>
</clipPath>
</defs>
</svg>
