<svg width="57" height="49" viewBox="0 0 57 49" fill="none" xmlns="http://www.w3.org/2000/svg">
<path d="M49.3269 24.5C49.3269 38.031 38.2847 49 24.6635 49C11.0422 49 0 38.031 0 24.5C0 10.969 11.0422 0 24.6635 0C38.2847 0 49.3269 10.969 49.3269 24.5Z" fill="#92C9EC"/>
<path d="M26.6904 42.0132V38.8393C31.0815 38.1592 33.7717 34.7586 33.9808 30.6778C33.9808 21.8362 21.7483 22.6296 21.7483 17.9821C21.7483 15.9417 23.4211 14.5815 25.6167 14.5815C28.1259 14.5815 30.2169 16.0551 30.9488 16.7352C31.0533 16.9619 31.367 16.8486 31.4716 16.6219L33.1444 13.2212C33.2489 13.1079 33.1444 12.8812 33.0398 12.7678C32.4125 12.201 30.1372 10.4909 26.687 10.1509V6.98674C26.687 6.76003 26.4779 6.53333 26.2688 6.53333H24.1712C23.9621 6.53333 23.753 6.76003 23.753 6.98674V10.274C19.78 10.9541 16.8344 14.1281 16.8344 18.2088C16.8344 26.597 29.0669 26.1436 29.0669 30.9045C29.0669 33.1716 27.2895 34.3051 25.303 34.3051C22.3756 34.3051 19.9709 32.3781 19.1345 31.5846C19.03 31.4713 18.7163 31.4713 18.6118 31.698L16.5207 34.8719C16.4162 35.0986 16.4162 35.3253 16.5207 35.4387C17.2526 36.1188 19.8816 38.3859 23.75 38.8393V42.0132C23.75 42.2399 23.9591 42.4667 24.1682 42.4667H26.2722C26.4813 42.4667 26.6904 42.2399 26.6904 42.0132Z" fill="white"/>
<path fill-rule="evenodd" clip-rule="evenodd" d="M51.5192 37.0222L51.5192 20.6888L44.9423 20.6888L44.9423 37.0222L39.4615 37.0222L48.2308 48.9999L57 37.0222L51.5192 37.0222Z" fill="#103654"/>
</svg>
