<svg width="67" height="54" viewBox="0 0 67 54" fill="none" xmlns="http://www.w3.org/2000/svg">
<path d="M1.98822 35.8466L1.32544 3.28865L4.30795 0.986572H55.0106L57.9931 2.63091V38.1487L40.098 37.1621L19.8833 34.86L1.98822 35.8466Z" fill="white"/>
<path fill-rule="evenodd" clip-rule="evenodd" d="M59.6501 3.94642C59.6501 1.78289 57.8536 0 55.6735 0H3.97669C1.79658 0 1.52588e-05 1.78289 1.52588e-05 3.94642V40.7797C1.52588e-05 42.9432 1.79658 44.7261 3.97669 44.7261H55.6735C57.8536 44.7261 59.6501 42.9432 59.6501 40.7797V3.94642ZM3.97669 2.63095H55.6735C56.4307 2.63095 56.999 3.19493 56.999 3.94642V30.4688L41.1361 17.729C40.9365 17.5123 40.6618 17.365 40.3698 17.318C39.9308 17.2497 39.4617 17.4183 39.1685 17.7496L25.7034 32.7635L16.2174 22.7742C15.9873 22.532 15.6617 22.3815 15.3268 22.3631C14.9369 22.3366 14.5383 22.4917 14.2705 22.7742L2.65113 30.4688V3.94642C2.65113 3.19493 3.21944 2.63095 3.97669 2.63095Z" fill="#92C9EC"/>
<path d="M30.4879 13.1547C30.4879 10.2642 28.0983 7.89282 25.1857 7.89282C22.273 7.89282 19.8834 10.2642 19.8834 13.1547C19.8834 16.0452 22.273 18.4166 25.1857 18.4166C28.0983 18.4166 30.4879 16.0452 30.4879 13.1547Z" fill="#103654"/>
<path d="M55.6966 30.8683C55.6966 36.3138 51.2665 40.7365 45.7916 40.7365C40.3166 40.7365 35.8866 36.3138 35.8866 30.8683C35.8866 25.4227 40.3166 21 45.7916 21C51.2665 21 55.6966 25.4227 55.6966 30.8683Z" fill="white" stroke="#103654" stroke-width="3"/>
<path d="M51.4731 38.5762L65 52.0001" stroke="#103654" stroke-width="3"/>
</svg>
