<svg width="54" height="54" viewBox="0 0 54 54" fill="none" xmlns="http://www.w3.org/2000/svg">
<path d="M12.1562 3.5H13.6562V0.5H12.1562V3.5ZM2 2V0.5C1.17157 0.5 0.5 1.17157 0.5 2L2 2ZM0.5 12.1562L0.5 13.6562H3.5L3.5 12.1562H0.5ZM12.1562 0.5H2V3.5H12.1562V0.5ZM3.5 12.1562L3.5 2L0.5 2L0.5 12.1562H3.5Z" fill="#103654"/>
<path d="M12.1562 3.5H13.6562V0.5H12.1562V3.5ZM2 2V0.5C1.17157 0.5 0.5 1.17157 0.5 2L2 2ZM0.5 12.1562L0.5 13.6562H3.5L3.5 12.1562H0.5ZM12.1562 0.5H2V3.5H12.1562V0.5ZM3.5 12.1562L3.5 2L0.5 2L0.5 12.1562H3.5Z" fill="#103654"/>
<path d="M3.5 41.8437L3.5 40.3437L0.499999 40.3438L0.5 41.8438L3.5 41.8437ZM2 52L0.5 52C0.5 52.8284 1.17157 53.5 2 53.5L2 52ZM12.1563 53.5L13.6563 53.5L13.6563 50.5L12.1563 50.5L12.1563 53.5ZM0.5 41.8438L0.5 52L3.5 52L3.5 41.8437L0.5 41.8438ZM12.1563 50.5L2 50.5L2 53.5L12.1563 53.5L12.1563 50.5Z" fill="#103654"/>
<path d="M41.8438 3.5H40.3438V0.5H41.8438V3.5ZM52 2V0.5C52.8284 0.5 53.5 1.17157 53.5 2L52 2ZM53.5 12.1562L53.5 13.6562H50.5L50.5 12.1562H53.5ZM41.8438 0.5H52V3.5H41.8438V0.5ZM50.5 12.1562L50.5 2L53.5 2L53.5 12.1562H50.5Z" fill="#103654"/>
<path d="M50.5 41.8437L50.5 40.3437L53.5 40.3438L53.5 41.8438L50.5 41.8437ZM52 52L53.5 52C53.5 52.8284 52.8284 53.5 52 53.5L52 52ZM41.8437 53.5L40.3437 53.5L40.3438 50.5L41.8438 50.5L41.8437 53.5ZM53.5 41.8438L53.5 52L50.5 52L50.5 41.8437L53.5 41.8438ZM41.8438 50.5L52 50.5L52 53.5L41.8437 53.5L41.8438 50.5Z" fill="#103654"/>
<path d="M14.0352 34.0255C12.8946 33.9788 11.9614 33.6571 11.2317 33.0596C11.0924 32.9455 10.7606 32.6032 10.6493 32.4589C10.3534 32.0754 10.1522 31.7022 10.018 31.2881C9.60514 30.0133 9.81764 28.3406 10.6258 26.5048C11.3178 24.9332 12.3856 23.3744 14.2485 21.2155C14.5229 20.8978 15.3401 19.9688 15.3454 19.9688C15.3473 19.9688 15.3028 20.0483 15.2467 20.1451C14.7624 20.9814 14.3479 21.9664 14.1221 22.8192C13.7594 24.1875 13.8032 25.3618 14.2502 26.2723C14.5586 26.8996 15.0874 27.443 15.6819 27.7433C16.7227 28.2689 18.2465 28.3124 20.1075 27.8705C20.2356 27.8399 26.5844 26.1028 34.216 24.0101C41.8477 21.9173 48.0928 20.2063 48.0938 20.2077C48.0959 20.2095 30.3633 28.0306 21.1581 32.0881C19.7002 32.7305 19.3104 32.8927 18.625 33.1408C16.8731 33.7749 15.3038 34.0775 14.0352 34.0255Z" fill="#92C9EC"/>
</svg>
