<svg width="72" height="72" fill="none" xmlns="http://www.w3.org/2000/svg"><path d="M0 46.452l6.387 6.387a9.033 9.033 0 0 1 12.774 12.774L25.548 72l30.775-30.774-4.645-4.645L54 34.258l4.645 4.645L72 25.548l-6.387-6.387A9.033 9.033 0 0 1 52.839 6.387L46.452 0 33.097 13.355 37.742 18l-2.323 2.323-4.645-4.646L0 46.453zm37.742-23.807l2.323-2.322 4.645 4.645-2.323 2.322-4.645-4.645zm6.968 6.968l2.322-2.323 4.645 4.646-2.322 2.322-4.645-4.645z" fill="#92C9EC"/><path d="M19 45l16-16M23 49l13.769-13.769M27.5 53l12-12" stroke="#fff" stroke-width="2"/></svg>