<svg width="42" height="64" fill="none" xmlns="http://www.w3.org/2000/svg"><path d="M42 0H7v54l3.5-2.701L14 54l3.5-2.701L21 54l3.5-2.701L28 54l3.5-2.701L35 54h7V0z" fill="#92C9EC"/><path d="M38 5V4H1v57.035l1.611-1.243 2.889-2.23 2.889 2.23.611.471.611-.471 2.889-2.23 2.889 2.23.611.471.611-.471 2.889-2.23 2.889 2.23.611.471.611-.471 2.889-2.23 2.889 2.23.611.471.611-.471 2.889-2.23 2.889 2.23L38 61.035V5z" fill="#92C9EC" stroke="#fff" stroke-width="2"/><path d="M20.933 47.558v-3.091c4.257-.663 6.864-3.975 7.067-7.95 0-8.612-11.857-7.839-11.857-12.366 0-1.987 1.622-3.312 3.75-3.312 2.432 0 4.459 1.435 5.168 2.098.101.22.405.11.507-.11l1.621-3.313c.102-.11 0-.331-.101-.441-.608-.553-2.814-2.218-6.158-2.55v-3.081c0-.221-.203-.442-.405-.442h-2.033c-.203 0-.406.22-.406.442v3.201c-3.85.663-6.706 3.755-6.706 7.73 0 8.17 11.857 7.728 11.857 12.365 0 2.208-1.723 3.313-3.648 3.313-2.838 0-5.169-1.878-5.98-2.65-.1-.11-.405-.11-.506.11l-2.027 3.091c-.101.221-.101.442 0 .553.71.662 3.258 2.87 7.007 3.312v3.091c0 .221.203.442.406.442h2.039c.203 0 .405-.22.405-.442z" fill="#3D5C74"/></svg>