<svg width="71" height="49" fill="none" xmlns="http://www.w3.org/2000/svg"><rect width="71" height="49" rx="5" fill="#92C9EC"/><path stroke="#fff" stroke-width="2" d="M39 32h18M39 24h27M39 16h27"/><path fill="#fff" d="M8 11h24v27H8z"/><path d="M23.12 15.315l-.005.003a4.343 4.343 0 0 0-6.235 0 4.517 4.517 0 0 0-1.285 3.181c0 1.248.488 2.373 1.284 3.184a4.345 4.345 0 0 0 6.235 0l.006.003a4.552 4.552 0 0 0 1.285-3.187c0-1.246-.491-2.37-1.285-3.184zM20.002 38H8V11h24v27H20.001zm9.064-3v-.378c0-2.239-.997-4.469-2.694-6.099-1.587-1.526-3.789-2.525-6.37-2.525-2.58 0-4.785.999-6.372 2.525-1.697 1.63-2.697 3.86-2.697 6.1V35h18.133z" fill="#103654"/></svg>