<svg width="73" height="72" fill="none" xmlns="http://www.w3.org/2000/svg"><path d="M1 62V8h51v54l-8.5-8.5L35 62l-8.5-8.5L18 62l-8.5-8.5L1 62z" fill="#92C9EC"/><path stroke="#fff" stroke-width="2" d="M13 38h18M13 30h27M13 22h27"/><path d="M62.231 54c0 8.412-6.819 15.23-15.23 15.23-8.412 0-15.231-6.818-15.231-15.23S38.589 38.77 47 38.77c8.412 0 15.231 6.818 15.231 15.23z" fill="#103654"/><path fill-rule="evenodd" clip-rule="evenodd" d="M65 54c0 9.941-8.059 18-18 18s-18-8.059-18-18 8.059-18 18-18 18 8.059 18 18zM47 69.23c8.412 0 15.23-6.818 15.23-15.23S55.413 38.77 47 38.77 31.77 45.587 31.77 54 38.587 69.23 47 69.23z" fill="#fff"/><path d="M48.174 64.714v-1.96c2.712-.42 4.373-2.52 4.502-5.04 0-5.46-7.554-4.97-7.554-7.84 0-1.26 1.033-2.1 2.39-2.1 1.549 0 2.84.91 3.292 1.33.065.14.258.07.323-.07l1.033-2.1c.065-.07 0-.21-.065-.28-.387-.35-1.792-1.406-3.923-1.616v-1.954c0-.14-.129-.28-.258-.28h-1.295c-.13 0-.259.14-.259.28v2.03c-2.453.42-4.272 2.38-4.272 4.9 0 5.18 7.554 4.9 7.554 7.84 0 1.4-1.098 2.1-2.324 2.1-1.808 0-3.293-1.19-3.81-1.68-.064-.07-.258-.07-.323.07l-1.29 1.96c-.065.14-.065.28 0 .35.451.42 2.075 1.82 4.463 2.1v1.96c0 .14.13.28.259.28h1.3c.128 0 .257-.14.257-.28z" fill="#fff"/></svg>