<svg width="72" height="52" fill="none" xmlns="http://www.w3.org/2000/svg"><path fill="#103654" d="M4 28h63v9H4z"/><path fill-rule="evenodd" clip-rule="evenodd" d="M15.1 47.215v2.533c0 1.22-1.013 2.252-2.21 2.252H3.315c-1.197 0-2.118-1.032-2.118-2.252 0-6.567 0-13.135.092-19.702.092-7.88 3.315-10.133 3.96-10.883H1.38C.645 19.163 0 18.506 0 17.756v-1.783c0-.75.92-1.501 1.657-1.595l6.722-.938 4.419-8.444c.368-.563 2.762-3.19 5.708-3.66 11.325-1.782 23.57-1.782 34.988 0 2.854.47 5.248 3.097 5.616 3.66l4.511 8.444 6.722.938c.736.094 1.657.844 1.657 1.595v1.783c0 .75-.644 1.407-1.381 1.407h-3.96c.737.75 3.96 3.002 4.052 10.883 0 6.567.092 13.135.092 19.702 0 1.22-1.013 2.252-2.118 2.252h-9.667c-1.197 0-2.118-1.032-2.118-2.252v-2.533a345.235 345.235 0 0 1-41.8 0zm3.775-41.844c-1.105.282-2.118.75-3.039 2.158-1.289 2.533-2.578 5.16-3.867 7.693h48.062c-1.29-2.533-2.578-5.16-3.867-7.693-.921-1.407-1.934-1.876-3.039-2.158a139.458 139.458 0 0 0-34.25 0zm47.417 23.895c-4.42.844-8.747 1.407-12.983 2.345-1.012.563-1.749 1.501-2.393 2.627-.184.47-.184 1.22-.092 1.97 4.143-.656 8.286-1.313 12.337-2.064 1.381-.469 2.394-1.5 3.13-2.908.185-.938.185-1.595 0-1.97zm-60.584 0c4.328.844 8.655 1.407 12.89 2.345 1.013.563 1.842 1.501 2.486 2.627.093.47.093 1.22 0 1.97-4.143-.656-8.194-1.313-12.337-2.064-1.381-.469-2.394-1.5-3.13-2.908-.093-.938-.093-1.595.091-1.97z" fill="#92C9EC"/></svg>