<svg width="49" height="62" viewBox="0 0 49 62" fill="none" xmlns="http://www.w3.org/2000/svg">
<path fill-rule="evenodd" clip-rule="evenodd" d="M46.0234 41.3576C43.9814 38.2876 39.0457 35.9569 34.8478 34.7639C30.6499 33.5698 29.3034 30.9123 29.6013 29.6758C29.8993 28.4394 30.82 28.8237 31.7536 27.0595C32.5489 25.5562 33.0896 22.0443 33.0896 22.0443C33.0896 22.0443 35.0038 21.4049 35.2173 18.5065C35.4296 15.6069 35.2173 14.5409 34.4936 14.2C33.7699 13.8592 33.472 13.9015 33.472 13.9015C33.472 13.9015 33.9447 9.77719 33.9482 8.91331C33.9517 7.81906 34.0502 6.74479 33.7441 5.63056C32.6404 1.6238 28.066 -0.0816313 22.7562 0.00299378C17.4463 0.0887942 17.3642 1.70842 16.2617 2.90258C15.1591 4.09555 14.4237 3.15763 13.4431 4.99117C12.8508 6.09952 13.422 11.3439 13.422 11.3439C13.6003 12.7955 13.7997 13.9015 13.7997 13.9015C13.7997 13.9015 13.5018 13.8592 12.7781 14.2C12.0556 14.5409 11.8421 15.6069 12.0556 18.5065C12.2679 21.4049 14.1821 22.0443 14.1821 22.0443C14.1821 22.0443 14.7228 25.5562 15.5192 27.0595C16.4517 28.8237 17.3736 28.4394 17.6715 29.6758C17.9695 30.9123 16.6218 33.5698 12.4239 34.7639C8.22599 35.9569 3.29033 38.2876 1.24827 41.3576C-0.295298 43.6789 -0.0560218 47.594 0.152758 49.3641C0.214923 49.8883 8.54268 52.5046 23.8329 52.5046C39.1231 52.5046 47.0568 49.8883 47.1189 49.3641C47.3277 47.594 47.5682 43.6789 46.0234 41.3576Z" fill="#92C9EC"/>
<path fill-rule="evenodd" clip-rule="evenodd" d="M36.2998 26.7383L37.0563 26.2846C38.1999 25.6005 39.6813 26.1412 40.1177 27.4012L40.4062 28.2357C40.6595 28.9679 41.2941 29.5003 42.0565 29.6237L42.9268 29.7636C44.2416 29.9764 45.0299 31.3445 44.556 32.5903L44.2416 33.4166C43.9672 34.1394 44.1103 34.9563 44.6158 35.5428L45.1929 36.2104C46.0644 37.2188 45.7899 38.775 44.6275 39.425L43.8569 39.8552C43.1825 40.2324 42.7685 40.9506 42.7802 41.7251L42.7931 42.6078C42.813 43.9418 41.6049 44.9573 40.2983 44.7058L39.4327 44.5389C38.6726 44.3932 37.895 44.6776 37.4082 45.2782L36.8511 45.9634C36.0112 46.9977 34.4337 46.9977 33.5939 45.9634L33.0379 45.2782C32.55 44.6776 31.7723 44.3932 31.0134 44.5389L30.1478 44.7058C28.84 44.9573 27.6319 43.9418 27.6518 42.6078L27.6647 41.7251C27.6765 40.9506 27.2636 40.2324 26.588 39.8552L25.8185 39.425C24.655 38.775 24.3817 37.2188 25.252 36.2104L25.8291 35.5428C26.3346 34.9563 26.4789 34.1394 26.2033 33.4166L25.8889 32.5903C25.4151 31.3445 26.2033 29.9764 27.5181 29.7636L28.3884 29.6237C29.152 29.5003 29.7854 28.9679 30.0387 28.2357L30.3273 27.4012C30.7648 26.1412 32.2462 25.6005 33.3886 26.2846L34.1451 26.7383C34.809 27.1355 35.6359 27.1355 36.2998 26.7383Z" fill="#103654"/>
<path fill-rule="evenodd" clip-rule="evenodd" d="M37.7074 46.6248L37.0119 47.4816C35.9609 48.7745 33.9904 48.7745 32.9406 47.4816L32.2451 46.6248C31.8991 46.1993 31.4323 45.9184 30.9232 45.7739V53.0786L35.1856 49.8018L39.5477 53.1785V45.6646C38.8381 45.7174 38.1695 46.0571 37.7074 46.6248Z" fill="#103654"/>
<ellipse cx="35.192" cy="36.2674" rx="6.47009" ry="6.48346" fill="white"/>
</svg>
