<svg width="65" height="66" viewBox="0 0 65 66" fill="none" xmlns="http://www.w3.org/2000/svg">
<path d="M33.3828 19.969L6.7161 6.54034L33.3828 46.6166M33.3828 19.969L60.0494 33.3976L33.3828 46.6166M33.3828 19.969L6.7161 59.8357L33.3828 46.6166M33.3828 19.969L6.7161 33.3976L33.3828 46.6166" stroke="#103654" stroke-width="3"/>
<ellipse cx="58.8642" cy="33" rx="5.92593" ry="5.96386" fill="#92C9EC"/>
<ellipse cx="5.92593" cy="59.241" rx="5.92593" ry="5.96386" fill="#92C9EC"/>
<ellipse cx="5.92593" cy="6.75902" rx="5.92593" ry="5.96386" fill="#92C9EC"/>
<ellipse cx="5.92593" cy="33" rx="5.92593" ry="5.96386" fill="#92C9EC"/>
<ellipse cx="32.7902" cy="46.5181" rx="5.92593" ry="5.96386" fill="#92C9EC"/>
<path d="M38.7161 19.482C38.7161 22.7757 36.063 25.4458 32.7902 25.4458C29.5174 25.4458 26.8643 22.7757 26.8643 19.482C26.8643 16.1882 29.5174 13.5181 32.7902 13.5181C36.063 13.5181 38.7161 16.1882 38.7161 19.482Z" fill="#92C9EC"/>
</svg>
