<svg width="62" height="63" viewBox="0 0 62 63" fill="none" xmlns="http://www.w3.org/2000/svg">
<path d="M55.9 34.6141L53.6494 40.8048C53.4208 41.4203 52.8758 41.8775 52.2252 41.9478L51.5815 42.0346C50.66 41.096 49.7363 40.1572 48.8123 39.2232C47.8053 38.2059 46.8029 37.1974 45.8033 36.1916L45.8022 36.1905C44.3087 34.6879 42.8209 33.191 41.3311 31.6781L41.304 31.6506L41.2761 31.6237C40.762 31.1033 40.7643 30.3975 40.8297 30.1097C40.9417 29.423 41 28.7183 41 28C41 20.8632 35.249 15.0695 28.1284 15.0006C26.8537 14.9686 25.5561 15.1388 24.2752 15.5392C24.2319 15.5527 24.1812 15.5686 24.1245 15.5875C19.7931 16.9384 16.4344 20.4941 15.3619 24.9411L15.3576 24.9558L15.3387 25.0199L15.3226 25.0848C15.098 25.9928 14.9899 26.9255 15.0007 27.8603C15.0002 27.9068 15 27.9534 15 28C15 28.0584 15.0004 28.1168 15.0012 28.1751C15.0079 30.3972 15.5949 32.5813 16.7067 34.5082C17.6435 36.1318 18.9244 37.5232 20.4535 38.5866C22.5812 40.106 25.1862 41 28 41C28.4932 41 28.9801 40.9725 29.459 40.919C29.559 40.9443 29.6575 40.9765 29.7537 41.0155C30.0551 41.1377 30.328 41.3244 30.5532 41.5636L30.5795 41.5917L41.8378 52.9683L37.086 55.1908C36.4881 55.4723 35.7848 55.4021 35.2749 54.9976L28.9976 50.1962L23.1952 55.5427C22.8611 55.8418 22.4391 56 21.9995 56C21.8061 56 21.5951 55.9648 21.4016 55.8944L15.1948 53.661C14.5793 53.4321 14.1397 52.8871 14.0518 52.2363L13.0145 44.4102L5.1371 44.0759C4.46893 44.0407 3.88876 43.6539 3.60737 43.056L0.811684 37.0763C0.530292 36.496 0.618187 35.7923 1.00507 35.2648L5.80528 29.0039L0.459997 23.1825C0.0204151 22.7076 -0.120281 22.0219 0.10831 21.4062L2.35902 15.1979C2.58761 14.5824 3.13269 14.1427 3.78326 14.0549L11.6077 13.0171L11.9418 5.12057C11.9594 4.46986 12.3463 3.88957 12.9441 3.60811L18.9224 0.811832C19.5202 0.530379 20.206 0.600796 20.7335 1.00526L27.0107 5.80649L32.8132 0.460177C33.3056 0.020501 33.9913 -0.120333 34.6067 0.108307L40.8137 2.3595C41.429 2.57054 41.8686 3.13323 41.9565 3.78394L42.994 11.5927L50.8712 11.9268C51.5394 11.962 52.1197 12.349 52.401 12.9467L55.1968 18.9266C55.4605 19.5243 55.3902 20.2104 54.9858 20.7379L50.2031 26.9988L55.5309 32.8202C55.988 33.2951 56.111 33.981 55.9 34.6141Z" fill="#92C9EC"/>
<path d="M60.7128 55.5865C58.5652 53.4021 56.4175 51.2241 54.2699 49.0526L53.529 48.3014C51.2482 45.9832 48.9739 43.6519 46.6802 41.3337C44.1868 38.8147 41.6805 36.3086 39.1936 33.7831C38.5792 33.1907 38.1078 32.4649 37.8152 31.6613C37.5227 30.8577 37.4167 29.9976 37.5055 29.1465C37.5055 28.9134 37.5205 28.6825 37.5506 28.4537C37.5857 27.7684 37.5598 27.0815 37.4733 26.4009C36.713 20.6505 30.6503 16.6874 25.1674 18.4035C24.478 18.6172 24.4329 18.7726 24.9419 19.2842C26.1918 20.5534 27.4482 21.8205 28.711 23.0854C29.0352 23.3724 29.2956 23.7249 29.4754 24.1198C29.6552 24.5146 29.7503 24.9431 29.7546 25.3773C29.7588 25.8116 29.6721 26.2419 29.5001 26.6402C29.3281 27.0386 29.0746 27.3961 28.7561 27.6895C28.2729 28.1882 27.7896 28.6738 27.3064 29.1725C25.8117 30.7007 24.0077 30.6942 22.5129 29.1725C21.3446 27.9766 20.1677 26.7894 18.9822 25.6109C18.5441 25.177 18.4088 25.2158 18.2348 25.8051C18.0615 26.5058 17.9835 27.2268 18.0029 27.9486C17.9688 29.7233 18.4192 31.4734 19.3052 33.0089C20.1912 34.5444 21.4789 35.8066 23.0283 36.6583C24.6211 37.5371 26.4262 37.952 28.2406 37.8563H28.6659C29.4228 37.8211 30.1784 37.9504 30.8811 38.2354C31.5838 38.5204 32.2171 38.9543 32.7378 39.5075L37.3058 44.1182L48.2265 55.1591L54.6694 61.6736C55.0557 62.0884 55.522 62.4199 56.0398 62.6479C56.5576 62.8759 57.1161 62.9956 57.6814 62.9999C58.2467 63.0041 58.807 62.8928 59.3281 62.6725C59.8492 62.4523 60.3203 62.1279 60.7128 61.7189C61.1202 61.3201 61.4439 60.8433 61.665 60.3167C61.8861 59.7901 62 59.2243 62 58.6527C62 58.0812 61.8861 57.5154 61.665 56.9888C61.4439 56.4621 61.1202 55.9853 60.7128 55.5865Z" fill="#103654"/>
</svg>
