<svg width="37" height="71" viewBox="0 0 37 71" fill="none" xmlns="http://www.w3.org/2000/svg">
<path fill-rule="evenodd" clip-rule="evenodd" d="M32.234 25.9939C30.9813 24.0644 27.9534 22.5995 25.3781 21.8497C22.8028 21.0991 21.9768 19.4289 22.1596 18.6517C22.3423 17.8746 22.9072 18.1162 23.4799 17.0073C23.9678 16.0625 24.2995 13.8552 24.2995 13.8552C24.2995 13.8552 25.4738 13.4533 25.6048 11.6316C25.735 9.8092 25.6048 9.13917 25.1608 8.92494C24.7169 8.71071 24.5341 8.73731 24.5341 8.73731C24.5341 8.73731 24.8241 6.14512 24.8262 5.60216C24.8284 4.9144 24.8888 4.23921 24.701 3.5389C24.0239 1.02058 21.2177 -0.0513066 17.9602 0.00188164C14.7028 0.0558086 14.6525 1.07377 13.9761 1.82432C13.2997 2.57412 12.8485 1.98462 12.247 3.13703C11.8836 3.83365 12.234 7.12984 12.234 7.12984C12.3434 8.04217 12.4657 8.73731 12.4657 8.73731C12.4657 8.73731 12.283 8.71071 11.839 8.92494C11.3958 9.13917 11.2648 9.8092 11.3958 11.6316C11.526 13.4533 12.7003 13.8552 12.7003 13.8552C12.7003 13.8552 13.032 16.0625 13.5206 17.0073C14.0926 18.1162 14.6582 17.8746 14.841 18.6517C15.0237 19.4289 14.197 21.0991 11.6217 21.8497C9.04641 22.5995 6.01852 24.0644 4.76578 25.9939C3.81884 27.4529 3.96563 29.9136 4.09371 31.0261C4.13185 31.3556 9.24069 33 18.6208 33C28.0009 33 32.868 31.3556 32.9061 31.0261C33.0342 29.9136 33.1817 27.4529 32.234 25.9939Z" fill="#103654"/>
<rect x="3" y="29" width="31" height="8" fill="white"/>
<path d="M3 37L6.875 71H30.125L34 37H3Z" fill="#92C9EC"/>
<rect y="31" width="37" height="5" fill="#92C9EC"/>
<path fill-rule="evenodd" clip-rule="evenodd" d="M15 27.3508L18.7809 22.6247L17.2191 21.3753L13 26.6492V31H15V27.3508Z" fill="#92C9EC"/>
<circle cx="18" cy="22" r="2" fill="#92C9EC"/>
</svg>
