<svg id="svg60" fill="none" version="1.1" viewBox="0 0 700 231" xmlns="http://www.w3.org/2000/svg">
  <g id="g904" transform="translate(-20,-2)">
    <rect id="rect4" x="34" y="13" width="672" height="202" rx="8" fill="#fff" filter="url(#filter0_ddd)"/>
    <path id="path8" d="m77.8 47.2c2.58 0 3.57-2.42 3.57-4.82 0-2.51-0.91-4.83-3.43-4.83-1.99 0-3.14 1.46-3.14 2.98 0 1.99 1.33 2.97 3.01 2.97 1.26 0 2.34-0.924 2.74-1.57v0.434c0 1.96-0.7 4.1-2.76 4.1-1.02 0-1.6-0.434-2.04-1.04l-0.462 0.574c0.546 0.7 1.29 1.19 2.51 1.19zm0.154-4.42c-1.33 0-2.34-0.728-2.34-2.25 0-1.01 0.756-2.24 2.35-2.24 1.75 0 2.42 1.62 2.53 2.9-0.532 0.938-1.53 1.6-2.55 1.6zm7.85 4.44c1.99 0 3.15-1.13 3.15-2.67s-1.33-2.24-2.14-2.32c0.798-0.14 2-0.756 2-2.18 0-1.58-1.39-2.46-3.01-2.46-1.36 0-2.39 0.616-3.05 1.41l0.504 0.504c0.686-0.77 1.44-1.19 2.51-1.19 1.2 0 2.24 0.644 2.24 1.81 0 1.25-1.13 1.78-2.37 1.78-0.378 0-0.728 0-0.868-0.014v0.756c0.14-0.014 0.49-0.014 0.868-0.014 1.4 0 2.51 0.546 2.51 1.89 0 1.23-0.91 1.99-2.35 1.99-1.19 0-2.1-0.56-2.62-1.3l-0.546 0.476c0.532 0.84 1.65 1.55 3.18 1.55zm6.65-5.07c1.3 0 2.2-0.966 2.2-2.27 0-1.32-0.896-2.31-2.2-2.31-1.29 0-2.18 0.994-2.18 2.31 0 1.3 0.896 2.27 2.18 2.27zm-0.238 4.9 5.98-9.34h-0.644l-5.96 9.34h0.63zm5 0.168c1.29 0 2.2-0.98 2.2-2.28 0-1.32-0.91-2.31-2.2-2.31s-2.2 0.994-2.2 2.31c0 1.3 0.91 2.28 2.2 2.28zm-4.76-5.6c-0.91 0-1.54-0.798-1.54-1.74 0-0.98 0.63-1.76 1.54-1.76 0.924 0 1.55 0.784 1.55 1.76 0 0.938-0.63 1.74-1.55 1.74zm4.76 5.05c-0.924 0-1.55-0.784-1.55-1.74 0-0.966 0.63-1.76 1.55-1.76s1.54 0.798 1.54 1.76c0 0.952-0.616 1.74-1.54 1.74zm9.43 0.546c1.69 0 2.53-0.896 2.53-1.99 0-2.6-4.27-1.57-4.27-3.26 0-0.7 0.644-1.23 1.69-1.23 0.896 0 1.62 0.364 2.02 0.896l0.406-0.518c-0.49-0.546-1.26-0.994-2.42-0.994-1.53 0-2.41 0.84-2.41 1.88 0 2.42 4.27 1.39 4.27 3.23 0 0.784-0.672 1.37-1.81 1.37-0.952 0-1.75-0.448-2.18-0.994l-0.434 0.546c0.672 0.742 1.51 1.06 2.6 1.06zm9.44-0.168v-4.76c0-1.51-1.09-2.17-2.46-2.17-1.12 0-1.9 0.378-2.6 1.13l0.406 0.504c0.616-0.7 1.27-0.994 2.11-0.994 1.01 0 1.82 0.546 1.82 1.55v1.37c-0.588-0.658-1.36-0.966-2.3-0.966-1.18 0-2.37 0.77-2.37 2.24 0 1.46 1.2 2.25 2.37 2.25 0.938 0 1.69-0.308 2.3-0.966v0.798zm-2.77-0.406c-1.12 0-1.85-0.714-1.85-1.67 0-0.966 0.728-1.68 1.85-1.68 0.812 0 1.57 0.322 2.04 0.938v1.48c-0.476 0.616-1.23 0.924-2.04 0.924zm4.6 3.05c0.182 0.056 0.49 0.098 0.714 0.098 0.798 0 1.37-0.406 1.74-1.26l3.5-8.25h-0.826l-2.44 5.91-2.46-5.91h-0.812l2.86 6.82-0.532 1.2c-0.266 0.644-0.574 0.826-1.02 0.826-0.168 0-0.434-0.042-0.588-0.112zm11.6-2.65v-3.88h2.7c1.78 0 2.81-1.26 2.81-2.73s-1.02-2.73-2.81-2.73h-3.5v9.34zm2.62-4.61h-2.62v-4h2.62c1.23 0 2.06 0.826 2.06 2s-0.826 2-2.06 2zm5.28 4.61v-4.93c0.308-0.588 1.23-1.2 1.92-1.2 0.14 0 0.238 0 0.364 0.028v-0.798c-0.938 0-1.71 0.546-2.28 1.3v-1.16h-0.728v6.76zm6.71 0.168c1.12 0 1.97-0.392 2.65-1.09l-0.378-0.476c-0.574 0.616-1.36 0.938-2.21 0.938-1.6 0-2.58-1.22-2.65-2.69h5.66v-0.196c0-1.95-1.13-3.58-3.19-3.58-1.88 0-3.26 1.58-3.26 3.54 0 2.09 1.41 3.56 3.39 3.56zm2.32-3.89h-4.91c0.056-1.18 0.854-2.58 2.45-2.58 1.69 0 2.45 1.43 2.46 2.58zm8.35 3.72v-9.34h-0.742v3.67c-0.546-0.77-1.39-1.26-2.35-1.26-1.79 0-3.02 1.41-3.02 3.56 0 2.17 1.23 3.54 3.02 3.54a2.88 2.88 0 0 0 2.35-1.25v1.08zm-2.97-0.49c-1.5 0-2.37-1.25-2.37-2.88s0.868-2.9 2.37-2.9c0.952 0 1.83 0.574 2.23 1.23v3.35c-0.392 0.644-1.27 1.2-2.23 1.2zm5.6-7.34c0.308 0 0.56-0.252 0.56-0.56a0.55 0.55 0 0 0-0.56-0.546 0.559 0.559 0 0 0-0.56 0.546c0 0.308 0.266 0.56 0.56 0.56zm0.364 7.83v-6.76h-0.728v6.76zm5.16 0.168c1.18 0 1.85-0.462 2.39-1.16l-0.504-0.448c-0.49 0.672-1.11 0.952-1.85 0.952-1.58 0-2.55-1.27-2.55-2.9s0.966-2.88 2.55-2.88c0.742 0 1.36 0.266 1.85 0.938l0.504-0.448c-0.546-0.686-1.22-1.15-2.39-1.15-1.99 0-3.29 1.57-3.29 3.54s1.3 3.56 3.29 3.56zm5.49 0c0.56 0 0.882-0.168 1.15-0.42l-0.28-0.56a1.06 1.06 0 0 1-0.756 0.322c-0.476 0-0.7-0.378-0.7-0.924v-4.7h1.37v-0.644h-1.37v-1.85h-0.742v1.85h-1.12v0.644h1.12v4.82c0 0.924 0.434 1.47 1.33 1.47zm2.75-7.99c0.308 0 0.56-0.252 0.56-0.56a0.55 0.55 0 0 0-0.56-0.546 0.559 0.559 0 0 0-0.56 0.546c0 0.308 0.266 0.56 0.56 0.56zm0.364 7.83v-6.76h-0.728v6.76zm4.91 0 2.86-6.76h-0.826l-2.44 5.91-2.46-5.91h-0.812l2.86 6.76zm7.09 0.168c1.12 0 1.97-0.392 2.65-1.09l-0.378-0.476c-0.574 0.616-1.36 0.938-2.21 0.938-1.6 0-2.58-1.22-2.65-2.69h5.66v-0.196c0-1.95-1.13-3.58-3.19-3.58-1.88 0-3.26 1.58-3.26 3.54 0 2.09 1.41 3.56 3.39 3.56zm2.32-3.89h-4.91c0.056-1.18 0.854-2.58 2.45-2.58 1.69 0 2.45 1.43 2.46 2.58zm14 3.72-3.82-9.34h-0.994l-3.82 9.34h0.924l0.924-2.3h4.94l0.924 2.3zm-2.11-3.02h-4.41l2.2-5.46zm8.76 3.02v-4.73c0-1.53-0.756-2.2-2.13-2.2-0.98 0-1.95 0.602-2.44 1.19v-1.02h-0.728v6.76h0.728v-5.11c0.434-0.616 1.33-1.16 2.2-1.16 0.98 0 1.64 0.392 1.64 1.69v4.58zm7.29 0v-4.76c0-1.51-1.09-2.17-2.46-2.17-1.12 0-1.9 0.378-2.6 1.13l0.406 0.504c0.616-0.7 1.27-0.994 2.11-0.994 1.01 0 1.82 0.546 1.82 1.55v1.37c-0.588-0.658-1.36-0.966-2.3-0.966-1.18 0-2.37 0.77-2.37 2.24 0 1.46 1.2 2.25 2.37 2.25 0.938 0 1.69-0.308 2.3-0.966v0.798zm-2.77-0.406c-1.12 0-1.85-0.714-1.85-1.67 0-0.966 0.728-1.68 1.85-1.68 0.812 0 1.57 0.322 2.04 0.938v1.48c-0.476 0.616-1.23 0.924-2.04 0.924zm5.78 0.406v-9.34h-0.728v9.34zm1.82 2.65c0.182 0.056 0.49 0.098 0.714 0.098 0.798 0 1.37-0.406 1.74-1.26l3.5-8.25h-0.826l-2.44 5.91-2.46-5.91h-0.812l2.86 6.82-0.532 1.2c-0.266 0.644-0.574 0.826-1.02 0.826-0.168 0-0.434-0.042-0.588-0.112zm8.66-2.48c0.56 0 0.882-0.168 1.15-0.42l-0.28-0.56a1.06 1.06 0 0 1-0.756 0.322c-0.476 0-0.7-0.378-0.7-0.924v-4.7h1.37v-0.644h-1.37v-1.85h-0.742v1.85h-1.12v0.644h1.12v4.82c0 0.924 0.434 1.47 1.33 1.47zm2.75-7.99c0.308 0 0.56-0.252 0.56-0.56a0.55 0.55 0 0 0-0.56-0.546 0.559 0.559 0 0 0-0.56 0.546c0 0.308 0.266 0.56 0.56 0.56zm0.364 7.83v-6.76h-0.728v6.76zm5.16 0.168c1.18 0 1.85-0.462 2.39-1.16l-0.504-0.448c-0.49 0.672-1.11 0.952-1.85 0.952-1.58 0-2.55-1.27-2.55-2.9s0.966-2.88 2.55-2.88c0.742 0 1.36 0.266 1.85 0.938l0.504-0.448c-0.546-0.686-1.22-1.15-2.39-1.15-1.99 0-3.29 1.57-3.29 3.54s1.3 3.56 3.29 3.56zm6.04 0c1.69 0 2.53-0.896 2.53-1.99 0-2.6-4.27-1.57-4.27-3.26 0-0.7 0.644-1.23 1.69-1.23 0.896 0 1.62 0.364 2.02 0.896l0.406-0.518c-0.49-0.546-1.26-0.994-2.42-0.994-1.53 0-2.41 0.84-2.41 1.88 0 2.42 4.27 1.39 4.27 3.23 0 0.784-0.672 1.37-1.81 1.37-0.952 0-1.75-0.448-2.18-0.994l-0.434 0.546c0.672 0.742 1.51 1.06 2.6 1.06zm8.4-7.99c0.308 0 0.56-0.252 0.56-0.56a0.55 0.55 0 0 0-0.56-0.546 0.559 0.559 0 0 0-0.56 0.546c0 0.308 0.266 0.56 0.56 0.56zm0.364 7.83v-6.76h-0.728v6.76zm4.28 0.168c1.69 0 2.53-0.896 2.53-1.99 0-2.6-4.27-1.57-4.27-3.26 0-0.7 0.644-1.23 1.69-1.23 0.896 0 1.62 0.364 2.02 0.896l0.406-0.518c-0.49-0.546-1.26-0.994-2.42-0.994-1.53 0-2.41 0.84-2.41 1.88 0 2.42 4.27 1.39 4.27 3.23 0 0.784-0.672 1.37-1.81 1.37-0.952 0-1.75-0.448-2.18-0.994l-0.434 0.546c0.672 0.742 1.51 1.06 2.6 1.06zm8.4-7.99c0.308 0 0.56-0.252 0.56-0.56a0.55 0.55 0 0 0-0.56-0.546 0.559 0.559 0 0 0-0.56 0.546c0 0.308 0.266 0.56 0.56 0.56zm0.364 7.83v-6.76h-0.728v6.76zm11 0v-4.87c0-1.36-0.602-2.06-1.85-2.06-0.952 0-1.86 0.644-2.24 1.27-0.168-0.658-0.728-1.27-1.78-1.27-0.98 0-1.9 0.756-2.18 1.19v-1.02h-0.728v6.76h0.728v-5.11c0.406-0.616 1.22-1.16 1.93-1.16 0.966 0 1.36 0.588 1.36 1.54v4.73h0.742v-5.12c0.378-0.616 1.2-1.15 1.93-1.15 0.952 0 1.36 0.588 1.36 1.54v4.73zm5.35 0.168c1.81 0 3.02-1.4 3.02-3.56 0-2.17-1.22-3.54-3.02-3.54a2.91 2.91 0 0 0-2.35 1.23v-1.06h-0.728v9.34h0.728v-3.67c0.546 0.77 1.4 1.26 2.35 1.26zm-0.126-0.658c-0.938 0-1.83-0.588-2.23-1.23v-3.35c0.392-0.644 1.29-1.2 2.23-1.2 1.51 0 2.37 1.25 2.37 2.88s-0.854 2.9-2.37 2.9zm7.84 0.658c2 0 3.26-1.58 3.26-3.56s-1.26-3.54-3.26-3.54c-1.97 0-3.25 1.57-3.25 3.54s1.27 3.56 3.25 3.56zm0-0.658c-1.57 0-2.46-1.39-2.46-2.9 0-1.5 0.896-2.88 2.46-2.88 1.6 0 2.48 1.39 2.48 2.88 0 1.51-0.882 2.9-2.48 2.9zm5.87 0.49v-4.93c0.308-0.588 1.23-1.2 1.92-1.2 0.14 0 0.238 0 0.364 0.028v-0.798c-0.938 0-1.71 0.546-2.28 1.3v-1.16h-0.728v6.76zm5.19 0.168c0.56 0 0.882-0.168 1.15-0.42l-0.28-0.56a1.06 1.06 0 0 1-0.756 0.322c-0.476 0-0.7-0.378-0.7-0.924v-4.7h1.37v-0.644h-1.37v-1.85h-0.742v1.85h-1.12v0.644h1.12v4.82c0 0.924 0.434 1.47 1.33 1.47zm7.41-0.168v-4.76c0-1.51-1.09-2.17-2.46-2.17-1.12 0-1.9 0.378-2.6 1.13l0.406 0.504c0.616-0.7 1.27-0.994 2.11-0.994 1.01 0 1.82 0.546 1.82 1.55v1.37c-0.588-0.658-1.36-0.966-2.3-0.966-1.18 0-2.37 0.77-2.37 2.24 0 1.46 1.2 2.25 2.37 2.25 0.938 0 1.69-0.308 2.3-0.966v0.798zm-2.77-0.406c-1.12 0-1.85-0.714-1.85-1.67 0-0.966 0.728-1.68 1.85-1.68 0.812 0 1.57 0.322 2.04 0.938v1.48c-0.476 0.616-1.23 0.924-2.04 0.924zm10.3 0.406v-4.73c0-1.53-0.756-2.2-2.13-2.2-0.98 0-1.95 0.602-2.44 1.19v-1.02h-0.728v6.76h0.728v-5.11c0.434-0.616 1.33-1.16 2.2-1.16 0.98 0 1.64 0.392 1.64 1.69v4.58zm3.74 0.168c0.56 0 0.882-0.168 1.15-0.42l-0.28-0.56a1.06 1.06 0 0 1-0.756 0.322c-0.476 0-0.7-0.378-0.7-0.924v-4.7h1.37v-0.644h-1.37v-1.85h-0.742v1.85h-1.12v0.644h1.12v4.82c0 0.924 0.434 1.47 1.33 1.47zm7.48 0c0.56 0 0.882-0.168 1.15-0.42l-0.28-0.56a1.06 1.06 0 0 1-0.756 0.322c-0.476 0-0.7-0.378-0.7-0.924v-4.7h1.37v-0.644h-1.37v-1.85h-0.742v1.85h-1.12v0.644h1.12v4.82c0 0.924 0.434 1.47 1.33 1.47zm5.24 0c2 0 3.26-1.58 3.26-3.56s-1.26-3.54-3.26-3.54c-1.97 0-3.25 1.57-3.25 3.54s1.27 3.56 3.25 3.56zm0-0.658c-1.57 0-2.46-1.39-2.46-2.9 0-1.5 0.896-2.88 2.46-2.88 1.6 0 2.48 1.39 2.48 2.88 0 1.51-0.882 2.9-2.48 2.9zm10.2 0.658c0.56 0 0.882-0.168 1.15-0.42l-0.28-0.56a1.06 1.06 0 0 1-0.756 0.322c-0.476 0-0.7-0.378-0.7-0.924v-4.7h1.37v-0.644h-1.37v-1.85h-0.742v1.85h-1.12v0.644h1.12v4.82c0 0.924 0.434 1.47 1.33 1.47zm7.68-0.168v-4.76c0-1.53-0.756-2.17-2.13-2.17-0.98 0-1.95 0.602-2.44 1.19v-3.6h-0.728v9.34h0.728v-5.11c0.434-0.616 1.33-1.16 2.2-1.16 0.98 0 1.64 0.364 1.64 1.67v4.61zm5.26 0.168c1.12 0 1.97-0.392 2.65-1.09l-0.378-0.476c-0.574 0.616-1.36 0.938-2.21 0.938-1.6 0-2.58-1.22-2.65-2.69h5.66v-0.196c0-1.95-1.13-3.58-3.19-3.58-1.88 0-3.26 1.58-3.26 3.54 0 2.09 1.41 3.56 3.39 3.56zm2.32-3.89h-4.91c0.056-1.18 0.854-2.58 2.45-2.58 1.69 0 2.45 1.43 2.46 2.58zm2.99-4.1c0.308 0 0.56-0.252 0.56-0.56a0.55 0.55 0 0 0-0.56-0.546 0.559 0.559 0 0 0-0.56 0.546c0 0.308 0.266 0.56 0.56 0.56zm0.364 7.83v-6.76h-0.728v6.76zm2.99 0v-4.93c0.308-0.588 1.23-1.2 1.92-1.2 0.14 0 0.238 0 0.364 0.028v-0.798c-0.938 0-1.71 0.546-2.28 1.3v-1.16h-0.728v6.76zm8.07-1.69v-3.35c0.392-0.644 1.29-1.23 2.23-1.23 1.51 0 2.37 1.26 2.37 2.9s-0.854 2.88-2.37 2.88c-0.938 0-1.83-0.56-2.23-1.2zm0 1.69v-1.08a2.88 2.88 0 0 0 2.35 1.25c1.79 0 3.02-1.37 3.02-3.54 0-2.14-1.22-3.56-3.02-3.56-0.952 0-1.81 0.49-2.35 1.26v-3.67h-0.728v9.34zm12.6 0v-6.76h-0.728v5.15c-0.448 0.602-1.33 1.12-2.2 1.12-0.98 0-1.64-0.364-1.64-1.68v-4.59h-0.728v4.76c0 1.53 0.742 2.17 2.13 2.17 0.98 0 1.88-0.546 2.44-1.16v0.994zm4.28 0.168c1.69 0 2.53-0.896 2.53-1.99 0-2.6-4.27-1.57-4.27-3.26 0-0.7 0.644-1.23 1.69-1.23 0.896 0 1.62 0.364 2.02 0.896l0.406-0.518c-0.49-0.546-1.26-0.994-2.42-0.994-1.53 0-2.41 0.84-2.41 1.88 0 2.42 4.27 1.39 4.27 3.23 0 0.784-0.672 1.37-1.81 1.37-0.952 0-1.75-0.448-2.18-0.994l-0.434 0.546c0.672 0.742 1.51 1.06 2.6 1.06zm4.77-7.99c0.308 0 0.56-0.252 0.56-0.56a0.55 0.55 0 0 0-0.56-0.546 0.559 0.559 0 0 0-0.56 0.546c0 0.308 0.266 0.56 0.56 0.56zm0.364 7.83v-6.76h-0.728v6.76zm7.56 0v-4.73c0-1.53-0.756-2.2-2.13-2.2-0.98 0-1.95 0.602-2.44 1.19v-1.02h-0.728v6.76h0.728v-5.11c0.434-0.616 1.33-1.16 2.2-1.16 0.98 0 1.64 0.392 1.64 1.69v4.58zm5.26 0.168c1.12 0 1.97-0.392 2.65-1.09l-0.378-0.476c-0.574 0.616-1.36 0.938-2.21 0.938-1.6 0-2.58-1.22-2.65-2.69h5.66v-0.196c0-1.95-1.13-3.58-3.19-3.58-1.88 0-3.26 1.58-3.26 3.54 0 2.09 1.41 3.56 3.39 3.56zm2.32-3.89h-4.91c0.056-1.18 0.854-2.58 2.45-2.58 1.69 0 2.45 1.43 2.46 2.58zm4.64 3.89c1.69 0 2.53-0.896 2.53-1.99 0-2.6-4.27-1.57-4.27-3.26 0-0.7 0.644-1.23 1.69-1.23 0.896 0 1.62 0.364 2.02 0.896l0.406-0.518c-0.49-0.546-1.26-0.994-2.42-0.994-1.53 0-2.41 0.84-2.41 1.88 0 2.42 4.27 1.39 4.27 3.23 0 0.784-0.672 1.37-1.81 1.37-0.952 0-1.75-0.448-2.18-0.994l-0.434 0.546c0.672 0.742 1.51 1.06 2.6 1.06zm6.43 0c1.69 0 2.53-0.896 2.53-1.99 0-2.6-4.27-1.57-4.27-3.26 0-0.7 0.644-1.23 1.69-1.23 0.896 0 1.62 0.364 2.02 0.896l0.406-0.518c-0.49-0.546-1.26-0.994-2.42-0.994-1.53 0-2.41 0.84-2.41 1.88 0 2.42 4.27 1.39 4.27 3.23 0 0.784-0.672 1.37-1.81 1.37-0.952 0-1.75-0.448-2.18-0.994l-0.434 0.546c0.672 0.742 1.51 1.06 2.6 1.06zm9.84 2.3c-0.882-1.79-1.48-3.44-1.48-5.87 0-2.44 0.602-4.07 1.48-5.88l-0.434-0.308a11.1 11.1 0 0 0-1.86 6.19c0 2.25 0.658 4.37 1.86 6.19zm4.29-2.3c2.52 0 3.32-1.44 3.32-2.65 0-3.49-5.6-2.17-5.6-4.56 0-1.01 0.938-1.72 2.18-1.72 1.05 0 2 0.364 2.67 1.18l0.532-0.588c-0.728-0.826-1.76-1.32-3.16-1.32-1.69 0-3.07 0.966-3.07 2.49 0 3.26 5.6 1.83 5.6 4.58 0 0.798-0.546 1.86-2.46 1.86-1.33 0-2.31-0.658-2.91-1.36l-0.518 0.602c0.714 0.868 1.88 1.48 3.42 1.48zm8.06 0c2 0 3.26-1.58 3.26-3.56s-1.26-3.54-3.26-3.54c-1.97 0-3.25 1.57-3.25 3.54s1.27 3.56 3.25 3.56zm0-0.658c-1.57 0-2.46-1.39-2.46-2.9 0-1.5 0.896-2.88 2.46-2.88 1.6 0 2.48 1.39 2.48 2.88 0 1.51-0.882 2.9-2.48 2.9zm10.4 0.49v-6.76h-0.728v5.15c-0.448 0.602-1.33 1.12-2.2 1.12-0.98 0-1.64-0.364-1.64-1.68v-4.59h-0.728v4.76c0 1.53 0.742 2.17 2.13 2.17 0.98 0 1.88-0.546 2.44-1.16v0.994zm3 0v-4.93c0.308-0.588 1.23-1.2 1.92-1.2 0.14 0 0.238 0 0.364 0.028v-0.798c-0.938 0-1.71 0.546-2.28 1.3v-1.16h-0.728v6.76zm6.61 0.168c1.18 0 1.85-0.462 2.39-1.16l-0.504-0.448c-0.49 0.672-1.11 0.952-1.85 0.952-1.58 0-2.55-1.27-2.55-2.9s0.966-2.88 2.55-2.88c0.742 0 1.36 0.266 1.85 0.938l0.504-0.448c-0.546-0.686-1.22-1.15-2.39-1.15-1.99 0-3.29 1.57-3.29 3.54s1.3 3.56 3.29 3.56zm7.02 0c1.12 0 1.97-0.392 2.65-1.09l-0.378-0.476c-0.574 0.616-1.36 0.938-2.21 0.938-1.6 0-2.58-1.22-2.65-2.69h5.66v-0.196c0-1.95-1.13-3.58-3.19-3.58-1.88 0-3.26 1.58-3.26 3.54 0 2.09 1.41 3.56 3.39 3.56zm2.32-3.89h-4.91c0.056-1.18 0.854-2.58 2.45-2.58 1.69 0 2.45 1.43 2.46 2.58zm3.02-1.92c0.336 0 0.63-0.28 0.63-0.602a0.634 0.634 0 0 0-0.63-0.616 0.621 0.621 0 0 0-0.616 0.616c0 0.322 0.28 0.602 0.616 0.602zm0 5.78c0.336 0 0.63-0.294 0.63-0.63 0-0.322-0.294-0.602-0.63-0.602a0.619 0.619 0 0 0-0.616 0.602c0 0.336 0.28 0.63 0.616 0.63zm8.31 0.028c1.69 0 2.53-0.896 2.53-1.99 0-2.6-4.27-1.57-4.27-3.26 0-0.7 0.644-1.23 1.69-1.23 0.896 0 1.62 0.364 2.02 0.896l0.406-0.518c-0.49-0.546-1.26-0.994-2.42-0.994-1.53 0-2.41 0.84-2.41 1.88 0 2.42 4.27 1.39 4.27 3.23 0 0.784-0.672 1.37-1.81 1.37-0.952 0-1.75-0.448-2.18-0.994l-0.434 0.546c0.672 0.742 1.51 1.06 2.6 1.06zm7.27 0c2 0 3.26-1.58 3.26-3.56s-1.26-3.54-3.26-3.54c-1.97 0-3.25 1.57-3.25 3.54s1.27 3.56 3.25 3.56zm0-0.658c-1.57 0-2.46-1.39-2.46-2.9 0-1.5 0.896-2.88 2.46-2.88 1.6 0 2.48 1.39 2.48 2.88 0 1.51-0.882 2.9-2.48 2.9zm10.2 0.49v-4.76c0-1.51-1.09-2.17-2.46-2.17-1.12 0-1.9 0.378-2.6 1.13l0.406 0.504c0.616-0.7 1.27-0.994 2.11-0.994 1.01 0 1.82 0.546 1.82 1.55v1.37c-0.588-0.658-1.36-0.966-2.3-0.966-1.18 0-2.37 0.77-2.37 2.24 0 1.46 1.2 2.25 2.37 2.25 0.938 0 1.69-0.308 2.3-0.966v0.798zm-2.77-0.406c-1.12 0-1.85-0.714-1.85-1.67 0-0.966 0.728-1.68 1.85-1.68 0.812 0 1.57 0.322 2.04 0.938v1.48c-0.476 0.616-1.23 0.924-2.04 0.924zm5.44 0.546c0.336 0 0.63-0.294 0.63-0.63 0-0.322-0.294-0.602-0.63-0.602a0.619 0.619 0 0 0-0.616 0.602c0 0.336 0.28 0.63 0.616 0.63zm5.4 0.028c2 0 3.26-1.58 3.26-3.56s-1.26-3.54-3.26-3.54c-1.97 0-3.25 1.57-3.25 3.54s1.27 3.56 3.25 3.56zm0-0.658c-1.57 0-2.46-1.39-2.46-2.9 0-1.5 0.896-2.88 2.46-2.88 1.6 0 2.48 1.39 2.48 2.88 0 1.51-0.882 2.9-2.48 2.9zm5.87 0.49v-4.93c0.308-0.588 1.23-1.2 1.92-1.2 0.14 0 0.238 0 0.364 0.028v-0.798c-0.938 0-1.71 0.546-2.28 1.3v-1.16h-0.728v6.76zm6.39 2.74c1.65 0 3.05-0.742 3.05-2.81v-6.69h-0.742v1.09c-0.546-0.77-1.39-1.26-2.35-1.26-1.79 0-3.02 1.4-3.02 3.54 0 2.17 1.23 3.53 3.02 3.53 1.01 0 1.88-0.574 2.35-1.26v1.06c0 1.55-1.08 2.17-2.31 2.17-1.01 0-1.65-0.252-2.24-0.952l-0.42 0.56c0.798 0.812 1.53 1.02 2.66 1.02zm0.084-3.26c-1.5 0-2.37-1.23-2.37-2.87s0.868-2.88 2.37-2.88c0.938 0 1.83 0.574 2.23 1.23v3.29c-0.392 0.658-1.29 1.23-2.23 1.23zm4.76 3.3a11.1 11.1 0 0 0 0-12.4l-0.434 0.308c0.896 1.81 1.48 3.44 1.48 5.88 0 2.42-0.588 4.07-1.48 5.87zm-445 25.4c1.99 0 3.14-1.46 3.14-2.98 0-1.99-1.33-2.95-3.01-2.95-1.26 0-2.34 0.91-2.73 1.55-0.014-0.14-0.014-0.294-0.014-0.434 0-1.99 0.742-4.1 2.76-4.1 1.02 0 1.6 0.434 2.04 1.05l0.476-0.588c-0.56-0.7-1.3-1.19-2.52-1.19-2.58 0-3.57 2.42-3.57 4.82 0 2.51 0.91 4.83 3.43 4.83zm-0.028-0.728c-1.75 0-2.42-1.62-2.53-2.9 0.532-0.938 1.53-1.6 2.55-1.6 1.34 0 2.34 0.728 2.34 2.25 0 1.01-0.756 2.24-2.35 2.24zm8.23 0.728c2.49 0 3.44-2.62 3.44-4.83 0-2.23-0.952-4.82-3.44-4.82-2.52 0-3.46 2.59-3.46 4.82 0 2.21 0.938 4.83 3.46 4.83zm0-0.728c-1.97 0-2.62-2.18-2.62-4.1 0-1.93 0.644-4.09 2.62-4.09 1.96 0 2.59 2.16 2.59 4.09 0 1.92-0.644 4.1-2.59 4.1zm6.91-4.34c1.3 0 2.2-0.966 2.2-2.27 0-1.32-0.896-2.31-2.2-2.31-1.29 0-2.18 0.994-2.18 2.31 0 1.3 0.896 2.27 2.18 2.27zm-0.238 4.9 5.98-9.34h-0.644l-5.96 9.34zm5 0.168c1.29 0 2.2-0.98 2.2-2.28 0-1.32-0.91-2.31-2.2-2.31s-2.2 0.994-2.2 2.31c0 1.3 0.91 2.28 2.2 2.28zm-4.76-5.6c-0.91 0-1.54-0.798-1.54-1.74 0-0.98 0.63-1.76 1.54-1.76 0.924 0 1.55 0.784 1.55 1.76 0 0.938-0.63 1.74-1.55 1.74zm4.76 5.05c-0.924 0-1.55-0.784-1.55-1.74 0-0.966 0.63-1.76 1.55-1.76s1.54 0.798 1.54 1.76c0 0.952-0.616 1.74-1.54 1.74zm12.4 0.378v-4.76c0-1.51-1.09-2.17-2.46-2.17-1.12 0-1.9 0.378-2.6 1.13l0.406 0.504c0.616-0.7 1.27-0.994 2.11-0.994 1.01 0 1.82 0.546 1.82 1.55v1.37c-0.588-0.658-1.36-0.966-2.3-0.966-1.18 0-2.37 0.77-2.37 2.24 0 1.46 1.2 2.25 2.37 2.25 0.938 0 1.69-0.308 2.3-0.966v0.798zm-2.77-0.406c-1.12 0-1.85-0.714-1.85-1.67 0-0.966 0.728-1.68 1.85-1.68 0.812 0 1.57 0.322 2.04 0.938v1.48c-0.476 0.616-1.23 0.924-2.04 0.924zm10.8 0.406v-9.34h-0.742v3.67c-0.546-0.77-1.39-1.26-2.35-1.26-1.79 0-3.02 1.41-3.02 3.56 0 2.17 1.23 3.54 3.02 3.54a2.88 2.88 0 0 0 2.35-1.25v1.08zm-2.97-0.49c-1.5 0-2.37-1.25-2.37-2.88s0.868-2.9 2.37-2.9c0.952 0 1.83 0.574 2.23 1.23v3.35c-0.392 0.644-1.27 1.2-2.23 1.2zm8.1 0.658c2 0 3.26-1.58 3.26-3.56s-1.26-3.54-3.26-3.54c-1.97 0-3.25 1.57-3.25 3.54s1.27 3.56 3.25 3.56zm0-0.658c-1.57 0-2.46-1.39-2.46-2.9 0-1.5 0.896-2.88 2.46-2.88 1.6 0 2.48 1.39 2.48 2.88 0 1.51-0.882 2.9-2.48 2.9zm8.22 0.658c1.81 0 3.02-1.4 3.02-3.56 0-2.17-1.22-3.54-3.02-3.54a2.91 2.91 0 0 0-2.35 1.23v-1.06h-0.728v9.34h0.728v-3.67c0.546 0.77 1.4 1.26 2.35 1.26zm-0.126-0.658c-0.938 0-1.83-0.588-2.23-1.23v-3.35c0.392-0.644 1.29-1.2 2.23-1.2 1.51 0 2.37 1.25 2.37 2.88s-0.854 2.9-2.37 2.9zm6.46 0.658c0.56 0 0.882-0.168 1.15-0.42l-0.28-0.56a1.06 1.06 0 0 1-0.756 0.322c-0.476 0-0.7-0.378-0.7-0.924v-4.7h1.37v-0.644h-1.37v-1.85h-0.742v1.85h-1.12v0.644h1.12v4.82c0 0.924 0.434 1.47 1.33 1.47zm5.38 0c1.12 0 1.97-0.392 2.65-1.09l-0.378-0.476c-0.574 0.616-1.36 0.938-2.21 0.938-1.6 0-2.58-1.22-2.65-2.69h5.66v-0.196c0-1.95-1.13-3.58-3.19-3.58-1.88 0-3.26 1.58-3.26 3.54 0 2.09 1.41 3.56 3.39 3.56zm2.32-3.89h-4.91c0.056-1.18 0.854-2.58 2.45-2.58 1.69 0 2.45 1.43 2.46 2.58zm8.35 3.72v-9.34h-0.742v3.67c-0.546-0.77-1.39-1.26-2.35-1.26-1.79 0-3.02 1.41-3.02 3.56 0 2.17 1.23 3.54 3.02 3.54a2.88 2.88 0 0 0 2.35-1.25v1.08zm-2.97-0.49c-1.5 0-2.37-1.25-2.37-2.88s0.868-2.9 2.37-2.9c0.952 0 1.83 0.574 2.23 1.23v3.35c-0.392 0.644-1.27 1.2-2.23 1.2zm9.69 0.49v-3.88h2.7c1.78 0 2.81-1.26 2.81-2.73s-1.02-2.73-2.81-2.73h-3.5v9.34zm2.62-4.61h-2.62v-4h2.62c1.23 0 2.06 0.826 2.06 2s-0.826 2-2.06 2zm5.28 4.61v-4.93c0.308-0.588 1.23-1.2 1.92-1.2 0.14 0 0.238 0 0.364 0.028v-0.798c-0.938 0-1.71 0.546-2.28 1.3v-1.16h-0.728v6.76zm6.71 0.168c1.12 0 1.97-0.392 2.65-1.09l-0.378-0.476c-0.574 0.616-1.36 0.938-2.21 0.938-1.6 0-2.58-1.22-2.65-2.69h5.66v-0.196c0-1.95-1.13-3.58-3.19-3.58-1.88 0-3.26 1.58-3.26 3.54 0 2.09 1.41 3.56 3.39 3.56zm2.32-3.89h-4.91c0.056-1.18 0.854-2.58 2.45-2.58 1.69 0 2.45 1.43 2.46 2.58zm8.35 3.72v-9.34h-0.742v3.67c-0.546-0.77-1.39-1.26-2.35-1.26-1.79 0-3.02 1.41-3.02 3.56 0 2.17 1.23 3.54 3.02 3.54a2.88 2.88 0 0 0 2.35-1.25v1.08zm-2.97-0.49c-1.5 0-2.37-1.25-2.37-2.88s0.868-2.9 2.37-2.9c0.952 0 1.83 0.574 2.23 1.23v3.35c-0.392 0.644-1.27 1.2-2.23 1.2zm5.6-7.34c0.308 0 0.56-0.252 0.56-0.56a0.55 0.55 0 0 0-0.56-0.546 0.559 0.559 0 0 0-0.56 0.546c0 0.308 0.266 0.56 0.56 0.56zm0.364 7.83v-6.76h-0.728v6.76zm5.16 0.168c1.18 0 1.85-0.462 2.39-1.16l-0.504-0.448c-0.49 0.672-1.11 0.952-1.85 0.952-1.58 0-2.55-1.27-2.55-2.9s0.966-2.88 2.55-2.88c0.742 0 1.36 0.266 1.85 0.938l0.504-0.448c-0.546-0.686-1.22-1.15-2.39-1.15-1.99 0-3.29 1.57-3.29 3.54s1.3 3.56 3.29 3.56zm5.49 0c0.56 0 0.882-0.168 1.15-0.42l-0.28-0.56a1.06 1.06 0 0 1-0.756 0.322c-0.476 0-0.7-0.378-0.7-0.924v-4.7h1.37v-0.644h-1.37v-1.85h-0.742v1.85h-1.12v0.644h1.12v4.82c0 0.924 0.434 1.47 1.33 1.47zm2.75-7.99c0.308 0 0.56-0.252 0.56-0.56a0.55 0.55 0 0 0-0.56-0.546 0.559 0.559 0 0 0-0.56 0.546c0 0.308 0.266 0.56 0.56 0.56zm0.364 7.83v-6.76h-0.728v6.76zm4.91 0 2.86-6.76h-0.826l-2.44 5.91-2.46-5.91h-0.812l2.86 6.76zm7.09 0.168c1.12 0 1.97-0.392 2.65-1.09l-0.378-0.476c-0.574 0.616-1.36 0.938-2.21 0.938-1.6 0-2.58-1.22-2.65-2.69h5.66v-0.196c0-1.95-1.13-3.58-3.19-3.58-1.88 0-3.26 1.58-3.26 3.54 0 2.09 1.41 3.56 3.39 3.56zm2.32-3.89h-4.91c0.056-1.18 0.854-2.58 2.45-2.58 1.69 0 2.45 1.43 2.46 2.58zm14 3.72-3.82-9.34h-0.994l-3.82 9.34h0.924l0.924-2.3h4.94l0.924 2.3zm-2.11-3.02h-4.41l2.2-5.46zm8.76 3.02v-4.73c0-1.53-0.756-2.2-2.13-2.2-0.98 0-1.95 0.602-2.44 1.19v-1.02h-0.728v6.76h0.728v-5.11c0.434-0.616 1.33-1.16 2.2-1.16 0.98 0 1.64 0.392 1.64 1.69v4.58zm7.3 0v-4.76c0-1.51-1.09-2.17-2.46-2.17-1.12 0-1.9 0.378-2.6 1.13l0.406 0.504c0.616-0.7 1.27-0.994 2.11-0.994 1.01 0 1.82 0.546 1.82 1.55v1.37c-0.588-0.658-1.36-0.966-2.3-0.966-1.18 0-2.37 0.77-2.37 2.24 0 1.46 1.2 2.25 2.37 2.25 0.938 0 1.69-0.308 2.3-0.966v0.798zm-2.77-0.406c-1.12 0-1.85-0.714-1.85-1.67 0-0.966 0.728-1.68 1.85-1.68 0.812 0 1.57 0.322 2.04 0.938v1.48c-0.476 0.616-1.23 0.924-2.04 0.924zm5.78 0.406v-9.34h-0.728v9.34zm1.82 2.65c0.182 0.056 0.49 0.098 0.714 0.098 0.798 0 1.37-0.406 1.74-1.26l3.5-8.25h-0.826l-2.44 5.91-2.46-5.91h-0.812l2.86 6.82-0.532 1.2c-0.266 0.644-0.574 0.826-1.02 0.826-0.168 0-0.434-0.042-0.588-0.112zm8.66-2.48c0.56 0 0.882-0.168 1.15-0.42l-0.28-0.56a1.06 1.06 0 0 1-0.756 0.322c-0.476 0-0.7-0.378-0.7-0.924v-4.7h1.37v-0.644h-1.37v-1.85h-0.742v1.85h-1.12v0.644h1.12v4.82c0 0.924 0.434 1.47 1.33 1.47zm2.75-7.99c0.308 0 0.56-0.252 0.56-0.56a0.55 0.55 0 0 0-0.56-0.546 0.559 0.559 0 0 0-0.56 0.546c0 0.308 0.266 0.56 0.56 0.56zm0.364 7.83v-6.76h-0.728v6.76zm5.16 0.168c1.18 0 1.85-0.462 2.39-1.16l-0.504-0.448c-0.49 0.672-1.11 0.952-1.85 0.952-1.58 0-2.55-1.27-2.55-2.9s0.966-2.88 2.55-2.88c0.742 0 1.36 0.266 1.85 0.938l0.504-0.448c-0.546-0.686-1.22-1.15-2.39-1.15-1.99 0-3.29 1.57-3.29 3.54s1.3 3.56 3.29 3.56zm6.04 0c1.69 0 2.53-0.896 2.53-1.99 0-2.6-4.27-1.57-4.27-3.26 0-0.7 0.644-1.23 1.69-1.23 0.896 0 1.62 0.364 2.02 0.896l0.406-0.518c-0.49-0.546-1.26-0.994-2.42-0.994-1.53 0-2.41 0.84-2.41 1.88 0 2.42 4.27 1.39 4.27 3.23 0 0.784-0.672 1.37-1.81 1.37-0.952 0-1.75-0.448-2.18-0.994l-0.434 0.546c0.672 0.742 1.51 1.06 2.6 1.06zm8.4-7.99c0.308 0 0.56-0.252 0.56-0.56a0.55 0.55 0 0 0-0.56-0.546 0.559 0.559 0 0 0-0.56 0.546c0 0.308 0.266 0.56 0.56 0.56zm0.364 7.83v-6.76h-0.728v6.76zm7.56 0v-4.73c0-1.53-0.756-2.2-2.13-2.2-0.98 0-1.95 0.602-2.44 1.19v-1.02h-0.728v6.76h0.728v-5.11c0.434-0.616 1.33-1.16 2.2-1.16 0.98 0 1.64 0.392 1.64 1.69v4.58zm11.2 0v-4.76c0-1.53-0.756-2.17-2.13-2.17-0.98 0-1.95 0.602-2.44 1.19v-3.6h-0.728v9.34h0.728v-5.11c0.434-0.616 1.33-1.16 2.2-1.16 0.98 0 1.64 0.364 1.64 1.67v4.61zm5.26 0.168c1.12 0 1.97-0.392 2.65-1.09l-0.378-0.476c-0.574 0.616-1.36 0.938-2.21 0.938-1.6 0-2.58-1.22-2.65-2.69h5.66v-0.196c0-1.95-1.13-3.58-3.19-3.58-1.88 0-3.26 1.58-3.26 3.54 0 2.09 1.41 3.56 3.39 3.56zm2.32-3.89h-4.91c0.056-1.18 0.854-2.58 2.45-2.58 1.69 0 2.45 1.43 2.46 2.58zm7.65 3.72v-4.76c0-1.51-1.09-2.17-2.46-2.17-1.12 0-1.9 0.378-2.6 1.13l0.406 0.504c0.616-0.7 1.27-0.994 2.11-0.994 1.01 0 1.82 0.546 1.82 1.55v1.37c-0.588-0.658-1.36-0.966-2.3-0.966-1.18 0-2.37 0.77-2.37 2.24 0 1.46 1.2 2.25 2.37 2.25 0.938 0 1.69-0.308 2.3-0.966v0.798zm-2.77-0.406c-1.12 0-1.85-0.714-1.85-1.67 0-0.966 0.728-1.68 1.85-1.68 0.812 0 1.57 0.322 2.04 0.938v1.48c-0.476 0.616-1.23 0.924-2.04 0.924zm5.78 0.406v-9.34h-0.728v9.34zm3.74 0.168c0.56 0 0.882-0.168 1.15-0.42l-0.28-0.56a1.06 1.06 0 0 1-0.756 0.322c-0.476 0-0.7-0.378-0.7-0.924v-4.7h1.37v-0.644h-1.37v-1.85h-0.742v1.85h-1.12v0.644h1.12v4.82c0 0.924 0.434 1.47 1.33 1.47zm7.68-0.168v-4.76c0-1.53-0.756-2.17-2.13-2.17-0.98 0-1.95 0.602-2.44 1.19v-3.6h-0.728v9.34h0.728v-5.11c0.434-0.616 1.33-1.16 2.2-1.16 0.98 0 1.64 0.364 1.64 1.67v4.61zm5.17 0.168c1.18 0 1.85-0.462 2.39-1.16l-0.504-0.448c-0.49 0.672-1.11 0.952-1.85 0.952-1.58 0-2.55-1.27-2.55-2.9s0.966-2.88 2.55-2.88c0.742 0 1.36 0.266 1.85 0.938l0.504-0.448c-0.546-0.686-1.22-1.15-2.39-1.15-1.99 0-3.29 1.57-3.29 3.54s1.3 3.56 3.29 3.56zm9.05-0.168v-4.76c0-1.51-1.09-2.17-2.46-2.17-1.12 0-1.9 0.378-2.6 1.13l0.406 0.504c0.616-0.7 1.27-0.994 2.11-0.994 1.01 0 1.82 0.546 1.82 1.55v1.37c-0.588-0.658-1.36-0.966-2.3-0.966-1.18 0-2.37 0.77-2.37 2.24 0 1.46 1.2 2.25 2.37 2.25 0.938 0 1.69-0.308 2.3-0.966v0.798zm-2.77-0.406c-1.12 0-1.85-0.714-1.85-1.67 0-0.966 0.728-1.68 1.85-1.68 0.812 0 1.57 0.322 2.04 0.938v1.48c-0.476 0.616-1.23 0.924-2.04 0.924zm5.78 0.406v-4.93c0.308-0.588 1.23-1.2 1.92-1.2 0.14 0 0.238 0 0.364 0.028v-0.798c-0.938 0-1.71 0.546-2.28 1.3v-1.16h-0.728v6.76zm6.71 0.168c1.12 0 1.97-0.392 2.65-1.09l-0.378-0.476c-0.574 0.616-1.36 0.938-2.21 0.938-1.6 0-2.58-1.22-2.65-2.69h5.66v-0.196c0-1.95-1.13-3.58-3.19-3.58-1.88 0-3.26 1.58-3.26 3.54 0 2.09 1.41 3.56 3.39 3.56zm2.32-3.89h-4.91c0.056-1.18 0.854-2.58 2.45-2.58 1.69 0 2.45 1.43 2.46 2.58zm9.1 3.89c2 0 3.26-1.58 3.26-3.56s-1.26-3.54-3.26-3.54c-1.97 0-3.25 1.57-3.25 3.54s1.27 3.56 3.25 3.56zm0-0.658c-1.57 0-2.46-1.39-2.46-2.9 0-1.5 0.896-2.88 2.46-2.88 1.6 0 2.48 1.39 2.48 2.88 0 1.51-0.882 2.9-2.48 2.9zm5.87 0.49v-4.93c0.308-0.588 1.23-1.2 1.92-1.2 0.14 0 0.238 0 0.364 0.028v-0.798c-0.938 0-1.71 0.546-2.28 1.3v-1.16h-0.728v6.76zm6.39 2.74c1.65 0 3.05-0.742 3.05-2.81v-6.69h-0.742v1.09c-0.546-0.77-1.39-1.26-2.35-1.26-1.79 0-3.02 1.4-3.02 3.54 0 2.17 1.23 3.53 3.02 3.53 1.01 0 1.88-0.574 2.35-1.26v1.06c0 1.55-1.08 2.17-2.31 2.17-1.01 0-1.65-0.252-2.24-0.952l-0.42 0.56c0.798 0.812 1.53 1.02 2.66 1.02zm0.084-3.26c-1.5 0-2.37-1.23-2.37-2.87s0.868-2.88 2.37-2.88c0.938 0 1.83 0.574 2.23 1.23v3.29c-0.392 0.658-1.29 1.23-2.23 1.23zm10.3 0.518v-4.76c0-1.51-1.09-2.17-2.46-2.17-1.12 0-1.9 0.378-2.6 1.13l0.406 0.504c0.616-0.7 1.27-0.994 2.11-0.994 1.01 0 1.82 0.546 1.82 1.55v1.37c-0.588-0.658-1.36-0.966-2.3-0.966-1.18 0-2.37 0.77-2.37 2.24 0 1.46 1.2 2.25 2.37 2.25 0.938 0 1.69-0.308 2.3-0.966v0.798zm-2.77-0.406c-1.12 0-1.85-0.714-1.85-1.67 0-0.966 0.728-1.68 1.85-1.68 0.812 0 1.57 0.322 2.04 0.938v1.48c-0.476 0.616-1.23 0.924-2.04 0.924zm10.3 0.406v-4.73c0-1.53-0.756-2.2-2.13-2.2-0.98 0-1.95 0.602-2.44 1.19v-1.02h-0.728v6.76h0.728v-5.11c0.434-0.616 1.33-1.16 2.2-1.16 0.98 0 1.64 0.392 1.64 1.69v4.58zm2.63-7.83c0.308 0 0.56-0.252 0.56-0.56a0.55 0.55 0 0 0-0.56-0.546 0.559 0.559 0 0 0-0.56 0.546c0 0.308 0.266 0.56 0.56 0.56zm0.364 7.83v-6.76h-0.728v6.76zm6.91 0v-0.644h-4.1l4.05-5.53v-0.588h-4.94v0.644h4l-4 5.52v0.602zm6.94 0v-4.76c0-1.51-1.09-2.17-2.46-2.17-1.12 0-1.9 0.378-2.6 1.13l0.406 0.504c0.616-0.7 1.27-0.994 2.11-0.994 1.01 0 1.82 0.546 1.82 1.55v1.37c-0.588-0.658-1.36-0.966-2.3-0.966-1.18 0-2.37 0.77-2.37 2.24 0 1.46 1.2 2.25 2.37 2.25 0.938 0 1.69-0.308 2.3-0.966v0.798zm-2.77-0.406c-1.12 0-1.85-0.714-1.85-1.67 0-0.966 0.728-1.68 1.85-1.68 0.812 0 1.57 0.322 2.04 0.938v1.48c-0.476 0.616-1.23 0.924-2.04 0.924zm6.52 0.574c0.56 0 0.882-0.168 1.15-0.42l-0.28-0.56a1.06 1.06 0 0 1-0.756 0.322c-0.476 0-0.7-0.378-0.7-0.924v-4.7h1.37v-0.644h-1.37v-1.85h-0.742v1.85h-1.12v0.644h1.12v4.82c0 0.924 0.434 1.47 1.33 1.47zm2.75-7.99c0.308 0 0.56-0.252 0.56-0.56a0.55 0.55 0 0 0-0.56-0.546 0.559 0.559 0 0 0-0.56 0.546c0 0.308 0.266 0.56 0.56 0.56zm0.364 7.83v-6.76h-0.728v6.76zm5.12 0.168c2 0 3.26-1.58 3.26-3.56s-1.26-3.54-3.26-3.54c-1.97 0-3.25 1.57-3.25 3.54s1.27 3.56 3.25 3.56zm0-0.658c-1.57 0-2.46-1.39-2.46-2.9 0-1.5 0.896-2.88 2.46-2.88 1.6 0 2.48 1.39 2.48 2.88 0 1.51-0.882 2.9-2.48 2.9zm10.4 0.49v-4.73c0-1.53-0.756-2.2-2.13-2.2-0.98 0-1.95 0.602-2.44 1.19v-1.02h-0.728v6.76h0.728v-5.11c0.434-0.616 1.33-1.16 2.2-1.16 0.98 0 1.64 0.392 1.64 1.69v4.58zm4.28 0.168c1.69 0 2.53-0.896 2.53-1.99 0-2.6-4.27-1.57-4.27-3.26 0-0.7 0.644-1.23 1.69-1.23 0.896 0 1.62 0.364 2.02 0.896l0.406-0.518c-0.49-0.546-1.26-0.994-2.42-0.994-1.53 0-2.41 0.84-2.41 1.88 0 2.42 4.27 1.39 4.27 3.23 0 0.784-0.672 1.37-1.81 1.37-0.952 0-1.75-0.448-2.18-0.994l-0.434 0.546c0.672 0.742 1.51 1.06 2.6 1.06zm9.84 2.3c-0.882-1.79-1.48-3.44-1.48-5.87 0-2.44 0.602-4.07 1.48-5.88l-0.434-0.308a11.1 11.1 0 0 0-1.86 6.19c0 2.25 0.658 4.37 1.86 6.19zm4.29-2.3c2.52 0 3.32-1.44 3.32-2.65 0-3.49-5.6-2.17-5.6-4.56 0-1.01 0.938-1.72 2.18-1.72 1.05 0 2 0.364 2.67 1.18l0.532-0.588c-0.728-0.826-1.76-1.32-3.16-1.32-1.69 0-3.07 0.966-3.07 2.49 0 3.26 5.6 1.83 5.6 4.58 0 0.798-0.546 1.86-2.46 1.86-1.33 0-2.31-0.658-2.91-1.36l-0.518 0.602c0.714 0.868 1.88 1.48 3.42 1.48zm8.06 0c2 0 3.26-1.58 3.26-3.56s-1.26-3.54-3.26-3.54c-1.97 0-3.25 1.57-3.25 3.54s1.27 3.56 3.25 3.56zm0-0.658c-1.57 0-2.46-1.39-2.46-2.9 0-1.5 0.896-2.88 2.46-2.88 1.6 0 2.48 1.39 2.48 2.88 0 1.51-0.882 2.9-2.48 2.9zm10.4 0.49v-6.76h-0.728v5.15c-0.448 0.602-1.33 1.12-2.2 1.12-0.98 0-1.64-0.364-1.64-1.68v-4.59h-0.728v4.76c0 1.53 0.742 2.17 2.13 2.17 0.98 0 1.88-0.546 2.44-1.16v0.994zm3 0v-4.93c0.308-0.588 1.23-1.2 1.92-1.2 0.14 0 0.238 0 0.364 0.028v-0.798c-0.938 0-1.71 0.546-2.28 1.3v-1.16h-0.728v6.76zm6.61 0.168c1.18 0 1.85-0.462 2.39-1.16l-0.504-0.448c-0.49 0.672-1.11 0.952-1.85 0.952-1.58 0-2.55-1.27-2.55-2.9s0.966-2.88 2.55-2.88c0.742 0 1.36 0.266 1.85 0.938l0.504-0.448c-0.546-0.686-1.22-1.15-2.39-1.15-1.99 0-3.29 1.57-3.29 3.54s1.3 3.56 3.29 3.56zm7.02 0c1.12 0 1.97-0.392 2.65-1.09l-0.378-0.476c-0.574 0.616-1.36 0.938-2.21 0.938-1.6 0-2.58-1.22-2.65-2.69h5.66v-0.196c0-1.95-1.13-3.58-3.19-3.58-1.88 0-3.26 1.58-3.26 3.54 0 2.09 1.41 3.56 3.39 3.56zm2.32-3.89h-4.91c0.056-1.18 0.854-2.58 2.45-2.58 1.69 0 2.45 1.43 2.46 2.58zm3.02-1.92c0.336 0 0.63-0.28 0.63-0.602a0.634 0.634 0 0 0-0.63-0.616 0.621 0.621 0 0 0-0.616 0.616c0 0.322 0.28 0.602 0.616 0.602zm0 5.78c0.336 0 0.63-0.294 0.63-0.63 0-0.322-0.294-0.602-0.63-0.602a0.619 0.619 0 0 0-0.616 0.602c0 0.336 0.28 0.63 0.616 0.63zm9.22 0.028c2.52 0 3.32-1.44 3.32-2.65 0-3.49-5.6-2.17-5.6-4.56 0-1.01 0.938-1.72 2.18-1.72 1.05 0 2 0.364 2.67 1.18l0.532-0.588c-0.728-0.826-1.76-1.32-3.16-1.32-1.69 0-3.07 0.966-3.07 2.49 0 3.26 5.6 1.83 5.6 4.58 0 0.798-0.546 1.86-2.46 1.86-1.33 0-2.31-0.658-2.91-1.36l-0.518 0.602c0.714 0.868 1.88 1.48 3.42 1.48zm8.06 0c2 0 3.26-1.58 3.26-3.56s-1.26-3.54-3.26-3.54c-1.97 0-3.25 1.57-3.25 3.54s1.27 3.56 3.25 3.56zm0-0.658c-1.57 0-2.46-1.39-2.46-2.9 0-1.5 0.896-2.88 2.46-2.88 1.6 0 2.48 1.39 2.48 2.88 0 1.51-0.882 2.9-2.48 2.9zm8.04 0.658c1.18 0 1.85-0.462 2.39-1.16l-0.504-0.448c-0.49 0.672-1.11 0.952-1.85 0.952-1.58 0-2.55-1.27-2.55-2.9s0.966-2.88 2.55-2.88c0.742 0 1.36 0.266 1.85 0.938l0.504-0.448c-0.546-0.686-1.22-1.15-2.39-1.15-1.99 0-3.29 1.57-3.29 3.54s1.3 3.56 3.29 3.56zm4.38-7.99c0.308 0 0.56-0.252 0.56-0.56a0.55 0.55 0 0 0-0.56-0.546 0.559 0.559 0 0 0-0.56 0.546c0 0.308 0.266 0.56 0.56 0.56zm0.364 7.83v-6.76h-0.728v6.76zm5.26 0.168c1.12 0 1.97-0.392 2.65-1.09l-0.378-0.476c-0.574 0.616-1.36 0.938-2.21 0.938-1.6 0-2.58-1.22-2.65-2.69h5.66v-0.196c0-1.95-1.13-3.58-3.19-3.58-1.88 0-3.26 1.58-3.26 3.54 0 2.09 1.41 3.56 3.39 3.56zm2.32-3.89h-4.91c0.056-1.18 0.854-2.58 2.45-2.58 1.69 0 2.45 1.43 2.46 2.58zm4.09 3.89c0.56 0 0.882-0.168 1.15-0.42l-0.28-0.56a1.06 1.06 0 0 1-0.756 0.322c-0.476 0-0.7-0.378-0.7-0.924v-4.7h1.37v-0.644h-1.37v-1.85h-0.742v1.85h-1.12v0.644h1.12v4.82c0 0.924 0.434 1.47 1.33 1.47zm1.94 2.48c0.182 0.056 0.49 0.098 0.714 0.098 0.798 0 1.37-0.406 1.74-1.26l3.5-8.25h-0.826l-2.44 5.91-2.46-5.91h-0.812l2.86 6.82-0.532 1.2c-0.266 0.644-0.574 0.826-1.02 0.826-0.168 0-0.434-0.042-0.588-0.112zm13.7-2.48c2 0 3.26-1.58 3.26-3.56s-1.26-3.54-3.26-3.54c-1.97 0-3.25 1.57-3.25 3.54s1.27 3.56 3.25 3.56zm0-0.658c-1.57 0-2.46-1.39-2.46-2.9 0-1.5 0.896-2.88 2.46-2.88 1.6 0 2.48 1.39 2.48 2.88 0 1.51-0.882 2.9-2.48 2.9zm6.11 0.49v-6.12h1.37v-0.644h-1.37v-0.616c0-0.938 0.406-1.47 1.18-1.47 0.364 0 0.644 0.14 0.868 0.35l0.35-0.504c-0.434-0.378-0.812-0.476-1.29-0.476-1.13 0-1.83 0.784-1.83 2.1v0.616h-1.12v0.644h1.12v6.12zm14.1 0-3.82-9.34h-0.994l-3.82 9.34h0.924l0.924-2.3h4.94l0.924 2.3zm-2.11-3.02h-4.41l2.2-5.46zm6.36 3.19c1.18 0 1.85-0.462 2.39-1.16l-0.504-0.448c-0.49 0.672-1.11 0.952-1.85 0.952-1.58 0-2.55-1.27-2.55-2.9s0.966-2.88 2.55-2.88c0.742 0 1.36 0.266 1.85 0.938l0.504-0.448c-0.546-0.686-1.22-1.15-2.39-1.15-1.99 0-3.29 1.57-3.29 3.54s1.3 3.56 3.29 3.56zm5.49 0c0.56 0 0.882-0.168 1.15-0.42l-0.28-0.56a1.06 1.06 0 0 1-0.756 0.322c-0.476 0-0.7-0.378-0.7-0.924v-4.7h1.37v-0.644h-1.37v-1.85h-0.742v1.85h-1.12v0.644h1.12v4.82c0 0.924 0.434 1.47 1.33 1.47zm7.68-0.168v-6.76h-0.728v5.15c-0.448 0.602-1.33 1.12-2.2 1.12-0.98 0-1.64-0.364-1.64-1.68v-4.59h-0.728v4.76c0 1.53 0.742 2.17 2.13 2.17 0.98 0 1.88-0.546 2.44-1.16v0.994zm7.29 0v-4.76c0-1.51-1.09-2.17-2.46-2.17-1.12 0-1.9 0.378-2.6 1.13l0.406 0.504c0.616-0.7 1.27-0.994 2.11-0.994 1.01 0 1.82 0.546 1.82 1.55v1.37c-0.588-0.658-1.36-0.966-2.3-0.966-1.18 0-2.37 0.77-2.37 2.24 0 1.46 1.2 2.25 2.37 2.25 0.938 0 1.69-0.308 2.3-0.966v0.798zm-2.77-0.406c-1.12 0-1.85-0.714-1.85-1.67 0-0.966 0.728-1.68 1.85-1.68 0.812 0 1.57 0.322 2.04 0.938v1.48c-0.476 0.616-1.23 0.924-2.04 0.924zm5.78 0.406v-4.93c0.308-0.588 1.23-1.2 1.92-1.2 0.14 0 0.238 0 0.364 0.028v-0.798c-0.938 0-1.71 0.546-2.28 1.3v-1.16h-0.728v6.76zm4.08-7.83c0.308 0 0.56-0.252 0.56-0.56a0.55 0.55 0 0 0-0.56-0.546 0.559 0.559 0 0 0-0.56 0.546c0 0.308 0.266 0.56 0.56 0.56zm0.364 7.83v-6.76h-0.728v6.76zm5.26 0.168c1.12 0 1.97-0.392 2.65-1.09l-0.378-0.476c-0.574 0.616-1.36 0.938-2.21 0.938-1.6 0-2.58-1.22-2.65-2.69h5.66v-0.196c0-1.95-1.13-3.58-3.19-3.58-1.88 0-3.26 1.58-3.26 3.54 0 2.09 1.41 3.56 3.39 3.56zm2.32-3.89h-4.91c0.056-1.18 0.854-2.58 2.45-2.58 1.69 0 2.45 1.43 2.46 2.58zm4.64 3.89c1.69 0 2.53-0.896 2.53-1.99 0-2.6-4.27-1.57-4.27-3.26 0-0.7 0.644-1.23 1.69-1.23 0.896 0 1.62 0.364 2.02 0.896l0.406-0.518c-0.49-0.546-1.26-0.994-2.42-0.994-1.53 0-2.41 0.84-2.41 1.88 0 2.42 4.27 1.39 4.27 3.23 0 0.784-0.672 1.37-1.81 1.37-0.952 0-1.75-0.448-2.18-0.994l-0.434 0.546c0.672 0.742 1.51 1.06 2.6 1.06zm3.95 2.62a11.1 11.1 0 0 0 0-12.4l-0.434 0.308c0.896 1.81 1.48 3.44 1.48 5.88 0 2.42-0.588 4.07-1.48 5.87zm-541 25.2v-8.61h3.05v-0.728h-6.92v0.728h3.05v8.61zm9.97 0v-4.76c0-1.53-0.756-2.17-2.13-2.17-0.98 0-1.95 0.602-2.44 1.19v-3.6h-0.728v9.34h0.728v-5.11c0.434-0.616 1.33-1.16 2.2-1.16 0.98 0 1.64 0.364 1.64 1.67v4.61zm5.26 0.168c1.12 0 1.97-0.392 2.65-1.09l-0.378-0.476c-0.574 0.616-1.36 0.938-2.21 0.938-1.6 0-2.58-1.22-2.65-2.69h5.66v-0.196c0-1.95-1.13-3.58-3.19-3.58-1.88 0-3.26 1.58-3.26 3.54 0 2.09 1.41 3.56 3.39 3.56zm2.32-3.89h-4.91c0.056-1.18 0.854-2.58 2.45-2.58 1.69 0 2.45 1.43 2.46 2.58zm8.92 6.47c1.65 0 3.05-0.742 3.05-2.81v-6.69h-0.742v1.09c-0.546-0.77-1.39-1.26-2.35-1.26-1.79 0-3.02 1.4-3.02 3.54 0 2.17 1.23 3.53 3.02 3.53 1.01 0 1.88-0.574 2.35-1.26v1.06c0 1.55-1.08 2.17-2.31 2.17-1.01 0-1.65-0.252-2.24-0.952l-0.42 0.56c0.798 0.812 1.53 1.02 2.66 1.02zm0.084-3.26c-1.5 0-2.37-1.23-2.37-2.87s0.868-2.88 2.37-2.88c0.938 0 1.83 0.574 2.23 1.23v3.29c-0.392 0.658-1.29 1.23-2.23 1.23zm5.96 0.518v-9.34h-0.728v9.34zm5.12 0.168c2 0 3.26-1.58 3.26-3.56s-1.26-3.54-3.26-3.54c-1.97 0-3.25 1.57-3.25 3.54s1.27 3.56 3.25 3.56zm0-0.658c-1.57 0-2.46-1.39-2.46-2.9 0-1.5 0.896-2.88 2.46-2.88 1.6 0 2.48 1.39 2.48 2.88 0 1.51-0.882 2.9-2.48 2.9zm5.87-1.2v-3.35c0.392-0.644 1.29-1.23 2.23-1.23 1.51 0 2.37 1.26 2.37 2.9s-0.854 2.88-2.37 2.88c-0.938 0-1.83-0.56-2.23-1.2zm0 1.69v-1.08a2.88 2.88 0 0 0 2.35 1.25c1.79 0 3.02-1.37 3.02-3.54 0-2.14-1.22-3.56-3.02-3.56-0.952 0-1.81 0.49-2.35 1.26v-3.67h-0.728v9.34zm12.3 0v-4.76c0-1.51-1.09-2.17-2.46-2.17-1.12 0-1.9 0.378-2.6 1.13l0.406 0.504c0.616-0.7 1.27-0.994 2.11-0.994 1.01 0 1.82 0.546 1.82 1.55v1.37c-0.588-0.658-1.36-0.966-2.3-0.966-1.18 0-2.37 0.77-2.37 2.24 0 1.46 1.2 2.25 2.37 2.25 0.938 0 1.69-0.308 2.3-0.966v0.798zm-2.77-0.406c-1.12 0-1.85-0.714-1.85-1.67 0-0.966 0.728-1.68 1.85-1.68 0.812 0 1.57 0.322 2.04 0.938v1.48c-0.476 0.616-1.23 0.924-2.04 0.924zm5.78 0.406v-9.34h-0.728v9.34zm11.2 0v-4.76c0-1.53-0.756-2.17-2.13-2.17-0.98 0-1.95 0.602-2.44 1.19v-3.6h-0.728v9.34h0.728v-5.11c0.434-0.616 1.33-1.16 2.2-1.16 0.98 0 1.64 0.364 1.64 1.67v4.61zm5.26 0.168c1.12 0 1.97-0.392 2.65-1.09l-0.378-0.476c-0.574 0.616-1.36 0.938-2.21 0.938-1.6 0-2.58-1.22-2.65-2.69h5.66v-0.196c0-1.95-1.13-3.58-3.19-3.58-1.88 0-3.26 1.58-3.26 3.54 0 2.09 1.41 3.56 3.39 3.56zm2.32-3.89h-4.91c0.056-1.18 0.854-2.58 2.45-2.58 1.69 0 2.45 1.43 2.46 2.58zm7.65 3.72v-4.76c0-1.51-1.09-2.17-2.46-2.17-1.12 0-1.9 0.378-2.6 1.13l0.406 0.504c0.616-0.7 1.27-0.994 2.11-0.994 1.01 0 1.82 0.546 1.82 1.55v1.37c-0.588-0.658-1.36-0.966-2.3-0.966-1.18 0-2.37 0.77-2.37 2.24 0 1.46 1.2 2.25 2.37 2.25 0.938 0 1.69-0.308 2.3-0.966v0.798zm-2.77-0.406c-1.12 0-1.85-0.714-1.85-1.67 0-0.966 0.728-1.68 1.85-1.68 0.812 0 1.57 0.322 2.04 0.938v1.48c-0.476 0.616-1.23 0.924-2.04 0.924zm5.78 0.406v-9.34h-0.728v9.34zm3.74 0.168c0.56 0 0.882-0.168 1.15-0.42l-0.28-0.56a1.06 1.06 0 0 1-0.756 0.322c-0.476 0-0.7-0.378-0.7-0.924v-4.7h1.37v-0.644h-1.37v-1.85h-0.742v1.85h-1.12v0.644h1.12v4.82c0 0.924 0.434 1.47 1.33 1.47zm7.68-0.168v-4.76c0-1.53-0.756-2.17-2.13-2.17-0.98 0-1.95 0.602-2.44 1.19v-3.6h-0.728v9.34h0.728v-5.11c0.434-0.616 1.33-1.16 2.2-1.16 0.98 0 1.64 0.364 1.64 1.67v4.61zm5.17 0.168c1.18 0 1.85-0.462 2.39-1.16l-0.504-0.448c-0.49 0.672-1.11 0.952-1.85 0.952-1.58 0-2.55-1.27-2.55-2.9s0.966-2.88 2.55-2.88c0.742 0 1.36 0.266 1.85 0.938l0.504-0.448c-0.546-0.686-1.22-1.15-2.39-1.15-1.99 0-3.29 1.57-3.29 3.54s1.3 3.56 3.29 3.56zm9.05-0.168v-4.76c0-1.51-1.09-2.17-2.46-2.17-1.12 0-1.9 0.378-2.6 1.13l0.406 0.504c0.616-0.7 1.27-0.994 2.11-0.994 1.01 0 1.82 0.546 1.82 1.55v1.37c-0.588-0.658-1.36-0.966-2.3-0.966-1.18 0-2.37 0.77-2.37 2.24 0 1.46 1.2 2.25 2.37 2.25 0.938 0 1.69-0.308 2.3-0.966v0.798zm-2.77-0.406c-1.12 0-1.85-0.714-1.85-1.67 0-0.966 0.728-1.68 1.85-1.68 0.812 0 1.57 0.322 2.04 0.938v1.48c-0.476 0.616-1.23 0.924-2.04 0.924zm5.77 0.406v-4.93c0.308-0.588 1.23-1.2 1.92-1.2 0.14 0 0.238 0 0.364 0.028v-0.798c-0.938 0-1.71 0.546-2.28 1.3v-1.16h-0.728v6.76zm6.71 0.168c1.12 0 1.97-0.392 2.65-1.09l-0.378-0.476c-0.574 0.616-1.36 0.938-2.21 0.938-1.6 0-2.58-1.22-2.65-2.69h5.66v-0.196c0-1.95-1.13-3.58-3.19-3.58-1.88 0-3.26 1.58-3.26 3.54 0 2.09 1.41 3.56 3.39 3.56zm2.32-3.89h-4.91c0.056-1.18 0.854-2.58 2.45-2.58 1.69 0 2.45 1.43 2.46 2.58zm7.07 3.72v-3.88h2.7c1.78 0 2.81-1.26 2.81-2.73s-1.02-2.73-2.81-2.73h-3.5v9.34zm2.62-4.61h-2.62v-4h2.62c1.23 0 2.06 0.826 2.06 2s-0.826 2-2.06 2zm5.28 4.61v-4.93c0.308-0.588 1.23-1.2 1.92-1.2 0.14 0 0.238 0 0.364 0.028v-0.798c-0.938 0-1.71 0.546-2.28 1.3v-1.16h-0.728v6.76zm6.71 0.168c1.12 0 1.97-0.392 2.65-1.09l-0.378-0.476c-0.574 0.616-1.36 0.938-2.21 0.938-1.6 0-2.58-1.22-2.65-2.69h5.66v-0.196c0-1.95-1.13-3.58-3.19-3.58-1.88 0-3.26 1.58-3.26 3.54 0 2.09 1.41 3.56 3.39 3.56zm2.32-3.89h-4.91c0.056-1.18 0.854-2.58 2.45-2.58 1.69 0 2.45 1.43 2.46 2.58zm8.35 3.72v-9.34h-0.742v3.67c-0.546-0.77-1.39-1.26-2.35-1.26-1.79 0-3.02 1.41-3.02 3.56 0 2.17 1.23 3.54 3.02 3.54a2.88 2.88 0 0 0 2.35-1.25v1.08zm-2.97-0.49c-1.5 0-2.37-1.25-2.37-2.88s0.868-2.9 2.37-2.9c0.952 0 1.83 0.574 2.23 1.23v3.35c-0.392 0.644-1.27 1.2-2.23 1.2zm5.6-7.34c0.308 0 0.56-0.252 0.56-0.56a0.55 0.55 0 0 0-0.56-0.546 0.559 0.559 0 0 0-0.56 0.546c0 0.308 0.266 0.56 0.56 0.56zm0.364 7.83v-6.76h-0.728v6.76zm5.16 0.168c1.18 0 1.85-0.462 2.39-1.16l-0.504-0.448c-0.49 0.672-1.11 0.952-1.85 0.952-1.58 0-2.55-1.27-2.55-2.9s0.966-2.88 2.55-2.88c0.742 0 1.36 0.266 1.85 0.938l0.504-0.448c-0.546-0.686-1.22-1.15-2.39-1.15-1.99 0-3.29 1.57-3.29 3.54s1.3 3.56 3.29 3.56zm5.49 0c0.56 0 0.882-0.168 1.15-0.42l-0.28-0.56a1.06 1.06 0 0 1-0.756 0.322c-0.476 0-0.7-0.378-0.7-0.924v-4.7h1.37v-0.644h-1.37v-1.85h-0.742v1.85h-1.12v0.644h1.12v4.82c0 0.924 0.434 1.47 1.33 1.47zm2.75-7.99c0.308 0 0.56-0.252 0.56-0.56a0.55 0.55 0 0 0-0.56-0.546 0.559 0.559 0 0 0-0.56 0.546c0 0.308 0.266 0.56 0.56 0.56zm0.364 7.83v-6.76h-0.728v6.76zm4.91 0 2.86-6.76h-0.826l-2.44 5.91-2.46-5.91h-0.812l2.86 6.76zm7.09 0.168c1.12 0 1.97-0.392 2.65-1.09l-0.378-0.476c-0.574 0.616-1.36 0.938-2.21 0.938-1.6 0-2.58-1.22-2.65-2.69h5.66v-0.196c0-1.95-1.13-3.58-3.19-3.58-1.88 0-3.26 1.58-3.26 3.54 0 2.09 1.41 3.56 3.39 3.56zm2.32-3.89h-4.91c0.056-1.18 0.854-2.58 2.45-2.58 1.69 0 2.45 1.43 2.46 2.58zm14 3.72-3.82-9.34h-0.994l-3.82 9.34h0.924l0.924-2.3h4.94l0.924 2.3zm-2.11-3.02h-4.41l2.2-5.46zm8.76 3.02v-4.73c0-1.53-0.756-2.2-2.13-2.2-0.98 0-1.95 0.602-2.44 1.19v-1.02h-0.728v6.76h0.728v-5.11c0.434-0.616 1.33-1.16 2.2-1.16 0.98 0 1.64 0.392 1.64 1.69v4.58zm7.29 0v-4.76c0-1.51-1.09-2.17-2.46-2.17-1.12 0-1.9 0.378-2.6 1.13l0.406 0.504c0.616-0.7 1.27-0.994 2.11-0.994 1.01 0 1.82 0.546 1.82 1.55v1.37c-0.588-0.658-1.36-0.966-2.3-0.966-1.18 0-2.37 0.77-2.37 2.24 0 1.46 1.2 2.25 2.37 2.25 0.938 0 1.69-0.308 2.3-0.966v0.798zm-2.77-0.406c-1.12 0-1.85-0.714-1.85-1.67 0-0.966 0.728-1.68 1.85-1.68 0.812 0 1.57 0.322 2.04 0.938v1.48c-0.476 0.616-1.23 0.924-2.04 0.924zm5.78 0.406v-9.34h-0.728v9.34zm1.82 2.65c0.182 0.056 0.49 0.098 0.714 0.098 0.798 0 1.37-0.406 1.74-1.26l3.5-8.25h-0.826l-2.44 5.91-2.46-5.91h-0.812l2.86 6.82-0.532 1.2c-0.266 0.644-0.574 0.826-1.02 0.826-0.168 0-0.434-0.042-0.588-0.112zm8.66-2.48c0.56 0 0.882-0.168 1.15-0.42l-0.28-0.56a1.06 1.06 0 0 1-0.756 0.322c-0.476 0-0.7-0.378-0.7-0.924v-4.7h1.37v-0.644h-1.37v-1.85h-0.742v1.85h-1.12v0.644h1.12v4.82c0 0.924 0.434 1.47 1.33 1.47zm2.75-7.99c0.308 0 0.56-0.252 0.56-0.56a0.55 0.55 0 0 0-0.56-0.546 0.559 0.559 0 0 0-0.56 0.546c0 0.308 0.266 0.56 0.56 0.56zm0.364 7.83v-6.76h-0.728v6.76zm5.16 0.168c1.18 0 1.85-0.462 2.39-1.16l-0.504-0.448c-0.49 0.672-1.11 0.952-1.85 0.952-1.58 0-2.55-1.27-2.55-2.9s0.966-2.88 2.55-2.88c0.742 0 1.36 0.266 1.85 0.938l0.504-0.448c-0.546-0.686-1.22-1.15-2.39-1.15-1.99 0-3.29 1.57-3.29 3.54s1.3 3.56 3.29 3.56zm6.04 0c1.69 0 2.53-0.896 2.53-1.99 0-2.6-4.27-1.57-4.27-3.26 0-0.7 0.644-1.23 1.69-1.23 0.896 0 1.62 0.364 2.02 0.896l0.406-0.518c-0.49-0.546-1.26-0.994-2.42-0.994-1.53 0-2.41 0.84-2.41 1.88 0 2.42 4.27 1.39 4.27 3.23 0 0.784-0.672 1.37-1.81 1.37-0.952 0-1.75-0.448-2.18-0.994l-0.434 0.546c0.672 0.742 1.51 1.06 2.6 1.06zm16.8-0.168v-4.87c0-1.36-0.602-2.06-1.85-2.06-0.952 0-1.86 0.644-2.24 1.27-0.168-0.658-0.728-1.27-1.78-1.27-0.98 0-1.9 0.756-2.18 1.19v-1.02h-0.728v6.76h0.728v-5.11c0.406-0.616 1.22-1.16 1.93-1.16 0.966 0 1.36 0.588 1.36 1.54v4.73h0.742v-5.12c0.378-0.616 1.2-1.15 1.93-1.15 0.952 0 1.36 0.588 1.36 1.54v4.73zm7.3 0v-4.76c0-1.51-1.09-2.17-2.46-2.17-1.12 0-1.9 0.378-2.6 1.13l0.406 0.504c0.616-0.7 1.27-0.994 2.11-0.994 1.01 0 1.82 0.546 1.82 1.55v1.37c-0.588-0.658-1.36-0.966-2.3-0.966-1.18 0-2.37 0.77-2.37 2.24 0 1.46 1.2 2.25 2.37 2.25 0.938 0 1.69-0.308 2.3-0.966v0.798zm-2.77-0.406c-1.12 0-1.85-0.714-1.85-1.67 0-0.966 0.728-1.68 1.85-1.68 0.812 0 1.57 0.322 2.04 0.938v1.48c-0.476 0.616-1.23 0.924-2.04 0.924zm5.78 0.406v-4.93c0.308-0.588 1.23-1.2 1.92-1.2 0.14 0 0.238 0 0.364 0.028v-0.798c-0.938 0-1.71 0.546-2.28 1.3v-1.16h-0.728v6.76zm9.38 0-3.14-3.71 3.15-3.05h-0.966l-3.99 3.86v-6.44h-0.728v9.34h0.728v-2.03l1.26-1.19 2.7 3.22zm4.38 0.168c1.12 0 1.97-0.392 2.65-1.09l-0.378-0.476c-0.574 0.616-1.36 0.938-2.21 0.938-1.6 0-2.58-1.22-2.65-2.69h5.66v-0.196c0-1.95-1.13-3.58-3.19-3.58-1.88 0-3.26 1.58-3.26 3.54 0 2.09 1.41 3.56 3.39 3.56zm2.32-3.89h-4.91c0.056-1.18 0.854-2.58 2.45-2.58 1.69 0 2.45 1.43 2.46 2.58zm4.09 3.89c0.56 0 0.882-0.168 1.15-0.42l-0.28-0.56a1.06 1.06 0 0 1-0.756 0.322c-0.476 0-0.7-0.378-0.7-0.924v-4.7h1.37v-0.644h-1.37v-1.85h-0.742v1.85h-1.12v0.644h1.12v4.82c0 0.924 0.434 1.47 1.33 1.47zm12.5-0.168 2.2-6.76h-0.784l-1.79 5.74-1.9-5.74h-0.63l-1.9 5.74-1.79-5.74h-0.784l2.2 6.76h0.7l1.9-5.78 1.89 5.78zm8.59 0v-4.76c0-1.51-1.09-2.17-2.46-2.17-1.12 0-1.9 0.378-2.6 1.13l0.406 0.504c0.616-0.7 1.27-0.994 2.11-0.994 1.01 0 1.82 0.546 1.82 1.55v1.37c-0.588-0.658-1.36-0.966-2.3-0.966-1.18 0-2.37 0.77-2.37 2.24 0 1.46 1.2 2.25 2.37 2.25 0.938 0 1.69-0.308 2.3-0.966v0.798zm-2.77-0.406c-1.12 0-1.85-0.714-1.85-1.67 0-0.966 0.728-1.68 1.85-1.68 0.812 0 1.57 0.322 2.04 0.938v1.48c-0.476 0.616-1.23 0.924-2.04 0.924zm7.06 0.574c1.69 0 2.53-0.896 2.53-1.99 0-2.6-4.27-1.57-4.27-3.26 0-0.7 0.644-1.23 1.69-1.23 0.896 0 1.62 0.364 2.02 0.896l0.406-0.518c-0.49-0.546-1.26-0.994-2.42-0.994-1.53 0-2.41 0.84-2.41 1.88 0 2.42 4.27 1.39 4.27 3.23 0 0.784-0.672 1.37-1.81 1.37-0.952 0-1.75-0.448-2.18-0.994l-0.434 0.546c0.672 0.742 1.51 1.06 2.6 1.06zm10.7-0.168 2.86-6.76h-0.826l-2.44 5.91-2.46-5.91h-0.812l2.86 6.76zm9.12 0v-4.76c0-1.51-1.09-2.17-2.46-2.17-1.12 0-1.9 0.378-2.6 1.13l0.406 0.504c0.616-0.7 1.27-0.994 2.11-0.994 1.01 0 1.82 0.546 1.82 1.55v1.37c-0.588-0.658-1.36-0.966-2.3-0.966-1.18 0-2.37 0.77-2.37 2.24 0 1.46 1.2 2.25 2.37 2.25 0.938 0 1.69-0.308 2.3-0.966v0.798zm-2.77-0.406c-1.12 0-1.85-0.714-1.85-1.67 0-0.966 0.728-1.68 1.85-1.68 0.812 0 1.57 0.322 2.04 0.938v1.48c-0.476 0.616-1.23 0.924-2.04 0.924zm5.78 0.406v-9.34h-0.728v9.34zm7.56 0v-6.76h-0.728v5.15c-0.448 0.602-1.33 1.12-2.2 1.12-0.98 0-1.64-0.364-1.64-1.68v-4.59h-0.728v4.76c0 1.53 0.742 2.17 2.13 2.17 0.98 0 1.88-0.546 2.44-1.16v0.994zm5.26 0.168c1.12 0 1.97-0.392 2.65-1.09l-0.378-0.476c-0.574 0.616-1.36 0.938-2.21 0.938-1.6 0-2.58-1.22-2.65-2.69h5.66v-0.196c0-1.95-1.13-3.58-3.19-3.58-1.88 0-3.26 1.58-3.26 3.54 0 2.09 1.41 3.56 3.39 3.56zm2.32-3.89h-4.91c0.056-1.18 0.854-2.58 2.45-2.58 1.69 0 2.45 1.43 2.46 2.58zm8.35 3.72v-9.34h-0.742v3.67c-0.546-0.77-1.39-1.26-2.35-1.26-1.79 0-3.02 1.41-3.02 3.56 0 2.17 1.23 3.54 3.02 3.54a2.88 2.88 0 0 0 2.35-1.25v1.08zm-2.97-0.49c-1.5 0-2.37-1.25-2.37-2.88s0.868-2.9 2.37-2.9c0.952 0 1.83 0.574 2.23 1.23v3.35c-0.392 0.644-1.27 1.2-2.23 1.2zm13.9 0.49v-4.76c0-1.51-1.09-2.17-2.46-2.17-1.12 0-1.9 0.378-2.6 1.13l0.406 0.504c0.616-0.7 1.27-0.994 2.11-0.994 1.01 0 1.82 0.546 1.82 1.55v1.37c-0.588-0.658-1.36-0.966-2.3-0.966-1.18 0-2.37 0.77-2.37 2.24 0 1.46 1.2 2.25 2.37 2.25 0.938 0 1.69-0.308 2.3-0.966v0.798zm-2.77-0.406c-1.12 0-1.85-0.714-1.85-1.67 0-0.966 0.728-1.68 1.85-1.68 0.812 0 1.57 0.322 2.04 0.938v1.48c-0.476 0.616-1.23 0.924-2.04 0.924zm6.52 0.574c0.56 0 0.882-0.168 1.15-0.42l-0.28-0.56a1.06 1.06 0 0 1-0.756 0.322c-0.476 0-0.7-0.378-0.7-0.924v-4.7h1.37v-0.644h-1.37v-1.85h-0.742v1.85h-1.12v0.644h1.12v4.82c0 0.924 0.434 1.47 1.33 1.47zm9.68 0c2.41 0 3.64-1.44 3.64-3.75v-5.75h-0.812v5.74c0 1.89-0.98 3.04-2.83 3.04-1.83 0-2.83-1.15-2.83-3.04v-5.74h-0.812v5.75c0 2.3 1.25 3.75 3.64 3.75zm8.86 0c2.52 0 3.32-1.44 3.32-2.65 0-3.49-5.6-2.17-5.6-4.56 0-1.01 0.938-1.72 2.18-1.72 1.05 0 2 0.364 2.67 1.18l0.532-0.588c-0.728-0.826-1.76-1.32-3.16-1.32-1.69 0-3.07 0.966-3.07 2.49 0 3.26 5.6 1.83 5.6 4.58 0 0.798-0.546 1.86-2.46 1.86-1.33 0-2.31-0.658-2.91-1.36l-0.518 0.602c0.714 0.868 1.88 1.48 3.42 1.48zm8.22-0.168c2.9 0 4.72-2.07 4.72-4.66 0-2.56-1.82-4.68-4.72-4.68h-2.98v9.34zm0-0.728h-2.18v-7.88h2.18c2.48 0 3.88 1.76 3.88 3.95s-1.41 3.93-3.88 3.93zm12.3 0.728v-9.34h-0.728l-2.06 2.17 0.49 0.518 1.5-1.6v8.25zm2.68 0.14c0.336 0 0.63-0.294 0.63-0.63 0-0.322-0.294-0.602-0.63-0.602a0.619 0.619 0 0 0-0.616 0.602c0 0.336 0.28 0.63 0.616 0.63zm7.25-0.14v-2.55h1.37v-0.728h-1.37v-6.06h-1.08l-4.14 6.08v0.714h4.42v2.55zm-0.798-3.28h-3.6l3.6-5.26zm6.66 3.44c1.79 0 3.16-0.994 3.16-2.51 0-1.3-1.12-2.16-2.31-2.48 1.11-0.294 2.17-1.01 2.17-2.25 0-1.65-1.57-2.41-3.02-2.41-1.48 0-3.02 0.756-3.02 2.41 0 1.25 1.06 1.96 2.17 2.25-1.19 0.322-2.32 1.18-2.32 2.48 0 1.53 1.37 2.51 3.18 2.51zm0-5.32c-0.56-0.112-2.21-0.532-2.21-1.83 0-1.12 0.98-1.76 2.21-1.76 1.22 0 2.21 0.644 2.21 1.76 0 1.3-1.64 1.72-2.21 1.83zm0 4.59c-1.25 0-2.37-0.7-2.37-1.83 0-1.43 1.79-1.99 2.37-2.06 0.56 0.07 2.37 0.63 2.37 2.06 0 1.13-1.15 1.83-2.37 1.83zm9.48-1.13v-3.35c0.392-0.644 1.29-1.23 2.23-1.23 1.51 0 2.37 1.26 2.37 2.9s-0.854 2.88-2.37 2.88c-0.938 0-1.83-0.56-2.23-1.2zm0 1.69v-1.08a2.88 2.88 0 0 0 2.35 1.25c1.79 0 3.02-1.37 3.02-3.54 0-2.14-1.22-3.56-3.02-3.56-0.952 0-1.81 0.49-2.35 1.26v-3.67h-0.728v9.34zm7.63-7.83c0.308 0 0.56-0.252 0.56-0.56a0.55 0.55 0 0 0-0.56-0.546 0.559 0.559 0 0 0-0.56 0.546c0 0.308 0.266 0.56 0.56 0.56zm0.364 7.83v-6.76h-0.728v6.76zm3 0v-9.34h-0.728v9.34zm2.99 0v-9.34h-0.728v9.34zm2.63-7.83c0.308 0 0.56-0.252 0.56-0.56a0.55 0.55 0 0 0-0.56-0.546 0.559 0.559 0 0 0-0.56 0.546c0 0.308 0.266 0.56 0.56 0.56zm0.364 7.83v-6.76h-0.728v6.76zm5.12 0.168c2 0 3.26-1.58 3.26-3.56s-1.26-3.54-3.26-3.54c-1.97 0-3.25 1.57-3.25 3.54s1.27 3.56 3.25 3.56zm0-0.658c-1.57 0-2.46-1.39-2.46-2.9 0-1.5 0.896-2.88 2.46-2.88 1.6 0 2.48 1.39 2.48 2.88 0 1.51-0.882 2.9-2.48 2.9zm10.4 0.49v-4.73c0-1.53-0.756-2.2-2.13-2.2-0.98 0-1.95 0.602-2.44 1.19v-1.02h-0.728v6.76h0.728v-5.11c0.434-0.616 1.33-1.16 2.2-1.16 0.98 0 1.64 0.392 1.64 1.69v4.58zm6.26-7.83c0.308 0 0.56-0.252 0.56-0.56a0.55 0.55 0 0 0-0.56-0.546 0.559 0.559 0 0 0-0.56 0.546c0 0.308 0.266 0.56 0.56 0.56zm0.364 7.83v-6.76h-0.728v6.76zm7.56 0v-4.73c0-1.53-0.756-2.2-2.13-2.2-0.98 0-1.95 0.602-2.44 1.19v-1.02h-0.728v6.76h0.728v-5.11c0.434-0.616 1.33-1.16 2.2-1.16 0.98 0 1.64 0.392 1.64 1.69v4.58zm11.7 0v-0.728h-4.91c2.7-2.18 4.87-4.06 4.87-6.12 0-1.85-1.57-2.63-2.94-2.63-1.32 0-2.45 0.546-3.11 1.44l0.546 0.504c0.504-0.714 1.4-1.22 2.56-1.22 1.02 0 2.13 0.56 2.13 1.9 0 1.81-2.13 3.63-5.31 6.19v0.658zm5.48 0.168c2.49 0 3.44-2.62 3.44-4.83 0-2.23-0.952-4.82-3.44-4.82-2.52 0-3.46 2.59-3.46 4.82 0 2.21 0.938 4.83 3.46 4.83zm0-0.728c-1.97 0-2.62-2.18-2.62-4.1 0-1.93 0.644-4.09 2.62-4.09 1.96 0 2.59 2.16 2.59 4.09 0 1.92-0.644 4.1-2.59 4.1zm7.4 0.56v-9.34h-0.728l-2.06 2.17 0.49 0.518 1.5-1.6v8.25zm5.34 0.168c1.72 0 3.15-1.15 3.15-3.01 0-1.95-1.41-2.98-2.98-2.98-0.966 0-1.76 0.42-2.23 0.868v-3.65h4.59v-0.728h-5.39v4.9l0.602 0.252c0.686-0.63 1.41-0.91 2.27-0.91 1.34 0 2.32 0.868 2.32 2.28 0 1.27-0.994 2.25-2.34 2.25-1.2 0-2.02-0.476-2.62-1.33l-0.532 0.532c0.644 0.924 1.6 1.53 3.15 1.53zm13.7-0.168v-4.76c0-1.51-1.09-2.17-2.46-2.17-1.12 0-1.9 0.378-2.6 1.13l0.406 0.504c0.616-0.7 1.27-0.994 2.11-0.994 1.01 0 1.82 0.546 1.82 1.55v1.37c-0.588-0.658-1.36-0.966-2.3-0.966-1.18 0-2.37 0.77-2.37 2.24 0 1.46 1.2 2.25 2.37 2.25 0.938 0 1.69-0.308 2.3-0.966v0.798zm-2.77-0.406c-1.12 0-1.85-0.714-1.85-1.67 0-0.966 0.728-1.68 1.85-1.68 0.812 0 1.57 0.322 2.04 0.938v1.48c-0.476 0.616-1.23 0.924-2.04 0.924zm10.3 0.406v-4.73c0-1.53-0.756-2.2-2.13-2.2-0.98 0-1.95 0.602-2.44 1.19v-1.02h-0.728v6.76h0.728v-5.11c0.434-0.616 1.33-1.16 2.2-1.16 0.98 0 1.64 0.392 1.64 1.69v4.58zm8 0v-9.34h-0.742v3.67c-0.546-0.77-1.39-1.26-2.35-1.26-1.79 0-3.02 1.41-3.02 3.56 0 2.17 1.23 3.54 3.02 3.54a2.88 2.88 0 0 0 2.35-1.25v1.08zm-2.97-0.49c-1.5 0-2.37-1.25-2.37-2.88s0.868-2.9 2.37-2.9c0.952 0 1.83 0.574 2.23 1.23v3.35c-0.392 0.644-1.27 1.2-2.23 1.2zm9.23-7.34c0.308 0 0.56-0.252 0.56-0.56a0.55 0.55 0 0 0-0.56-0.546 0.559 0.559 0 0 0-0.56 0.546c0 0.308 0.266 0.56 0.56 0.56zm0.364 7.83v-6.76h-0.728v6.76zm4.28 0.168c1.69 0 2.53-0.896 2.53-1.99 0-2.6-4.27-1.57-4.27-3.26 0-0.7 0.644-1.23 1.69-1.23 0.896 0 1.62 0.364 2.02 0.896l0.406-0.518c-0.49-0.546-1.26-0.994-2.42-0.994-1.53 0-2.41 0.84-2.41 1.88 0 2.42 4.27 1.39 4.27 3.23 0 0.784-0.672 1.37-1.81 1.37-0.952 0-1.75-0.448-2.18-0.994l-0.434 0.546c0.672 0.742 1.51 1.06 2.6 1.06zm-560 27c1.12 0 1.97-0.392 2.65-1.09l-0.378-0.476c-0.574 0.616-1.36 0.938-2.21 0.938-1.6 0-2.58-1.22-2.65-2.69h5.66v-0.196c0-1.95-1.13-3.58-3.19-3.58-1.88 0-3.26 1.58-3.26 3.54 0 2.09 1.41 3.56 3.39 3.56zm2.32-3.89h-4.91c0.056-1.18 0.854-2.58 2.45-2.58 1.69 0 2.45 1.43 2.46 2.58zm7.96 3.72-2.67-3.47 2.52-3.29h-0.868l-2.09 2.79-2.1-2.79h-0.868l2.52 3.29-2.67 3.47h0.868l2.25-2.98 2.24 2.98zm4.45 0.168c1.81 0 3.02-1.4 3.02-3.56 0-2.17-1.22-3.54-3.02-3.54a2.91 2.91 0 0 0-2.35 1.23v-1.06h-0.728v9.34h0.728v-3.67c0.546 0.77 1.4 1.26 2.35 1.26zm-0.126-0.658c-0.938 0-1.83-0.588-2.23-1.23v-3.35c0.392-0.644 1.29-1.2 2.23-1.2 1.51 0 2.37 1.25 2.37 2.88s-0.854 2.9-2.37 2.9zm7.98 0.658c1.12 0 1.97-0.392 2.65-1.09l-0.378-0.476c-0.574 0.616-1.36 0.938-2.21 0.938-1.6 0-2.58-1.22-2.65-2.69h5.66v-0.196c0-1.95-1.13-3.58-3.19-3.58-1.88 0-3.26 1.58-3.26 3.54 0 2.09 1.41 3.56 3.39 3.56zm2.32-3.89h-4.91c0.056-1.18 0.854-2.58 2.45-2.58 1.69 0 2.45 1.43 2.46 2.58zm5.52 3.89c1.18 0 1.85-0.462 2.39-1.16l-0.504-0.448c-0.49 0.672-1.11 0.952-1.85 0.952-1.58 0-2.55-1.27-2.55-2.9s0.966-2.88 2.55-2.88c0.742 0 1.36 0.266 1.85 0.938l0.504-0.448c-0.546-0.686-1.22-1.15-2.39-1.15-1.99 0-3.29 1.57-3.29 3.54s1.3 3.56 3.29 3.56zm5.49 0c0.56 0 0.882-0.168 1.15-0.42l-0.28-0.56a1.06 1.06 0 0 1-0.756 0.322c-0.476 0-0.7-0.378-0.7-0.924v-4.7h1.37v-0.644h-1.37v-1.85h-0.742v1.85h-1.12v0.644h1.12v4.82c0 0.924 0.434 1.47 1.33 1.47zm5.38 0c1.12 0 1.97-0.392 2.65-1.09l-0.378-0.476c-0.574 0.616-1.36 0.938-2.21 0.938-1.6 0-2.58-1.22-2.65-2.69h5.66v-0.196c0-1.95-1.13-3.58-3.19-3.58-1.88 0-3.26 1.58-3.26 3.54 0 2.09 1.41 3.56 3.39 3.56zm2.32-3.89h-4.91c0.056-1.18 0.854-2.58 2.45-2.58 1.69 0 2.45 1.43 2.46 2.58zm8.35 3.72v-9.34h-0.742v3.67c-0.546-0.77-1.39-1.26-2.35-1.26-1.79 0-3.02 1.41-3.02 3.56 0 2.17 1.23 3.54 3.02 3.54a2.88 2.88 0 0 0 2.35-1.25v1.08zm-2.97-0.49c-1.5 0-2.37-1.25-2.37-2.88s0.868-2.9 2.37-2.9c0.952 0 1.83 0.574 2.23 1.23v3.35c-0.392 0.644-1.27 1.2-2.23 1.2zm10.3 0.658c0.56 0 0.882-0.168 1.15-0.42l-0.28-0.56a1.06 1.06 0 0 1-0.756 0.322c-0.476 0-0.7-0.378-0.7-0.924v-4.7h1.37v-0.644h-1.37v-1.85h-0.742v1.85h-1.12v0.644h1.12v4.82c0 0.924 0.434 1.47 1.33 1.47zm5.24 0c2 0 3.26-1.58 3.26-3.56s-1.26-3.54-3.26-3.54c-1.97 0-3.25 1.57-3.25 3.54s1.27 3.56 3.25 3.56zm0-0.658c-1.57 0-2.46-1.39-2.46-2.9 0-1.5 0.896-2.88 2.46-2.88 1.6 0 2.48 1.39 2.48 2.88 0 1.51-0.882 2.9-2.48 2.9zm11.4 3.23c1.65 0 3.05-0.742 3.05-2.81v-6.69h-0.742v1.09c-0.546-0.77-1.39-1.26-2.35-1.26-1.79 0-3.02 1.4-3.02 3.54 0 2.17 1.23 3.53 3.02 3.53 1.01 0 1.88-0.574 2.35-1.26v1.06c0 1.55-1.08 2.17-2.31 2.17-1.01 0-1.65-0.252-2.24-0.952l-0.42 0.56c0.798 0.812 1.53 1.02 2.66 1.02zm0.084-3.26c-1.5 0-2.37-1.23-2.37-2.87s0.868-2.88 2.37-2.88c0.938 0 1.83 0.574 2.23 1.23v3.29c-0.392 0.658-1.29 1.23-2.23 1.23zm5.95 0.518v-4.93c0.308-0.588 1.23-1.2 1.92-1.2 0.14 0 0.238 0 0.364 0.028v-0.798c-0.938 0-1.71 0.546-2.28 1.3v-1.16h-0.728v6.76zm6.57 0.168c2 0 3.26-1.58 3.26-3.56s-1.26-3.54-3.26-3.54c-1.97 0-3.25 1.57-3.25 3.54s1.27 3.56 3.25 3.56zm0-0.658c-1.57 0-2.46-1.39-2.46-2.9 0-1.5 0.896-2.88 2.46-2.88 1.6 0 2.48 1.39 2.48 2.88 0 1.51-0.882 2.9-2.48 2.9zm11.6 0.49 2.2-6.76h-0.784l-1.79 5.74-1.9-5.74h-0.63l-1.9 5.74-1.79-5.74h-0.784l2.2 6.76h0.7l1.9-5.78 1.89 5.78zm12.2 0v-4.76c0-1.51-1.09-2.17-2.46-2.17-1.12 0-1.9 0.378-2.6 1.13l0.406 0.504c0.616-0.7 1.27-0.994 2.11-0.994 1.01 0 1.82 0.546 1.82 1.55v1.37c-0.588-0.658-1.36-0.966-2.3-0.966-1.18 0-2.37 0.77-2.37 2.24 0 1.46 1.2 2.25 2.37 2.25 0.938 0 1.69-0.308 2.3-0.966v0.798zm-2.77-0.406c-1.12 0-1.85-0.714-1.85-1.67 0-0.966 0.728-1.68 1.85-1.68 0.812 0 1.57 0.322 2.04 0.938v1.48c-0.476 0.616-1.23 0.924-2.04 0.924zm6.52 0.574c0.56 0 0.882-0.168 1.15-0.42l-0.28-0.56a1.06 1.06 0 0 1-0.756 0.322c-0.476 0-0.7-0.378-0.7-0.924v-4.7h1.37v-0.644h-1.37v-1.85h-0.742v1.85h-1.12v0.644h1.12v4.82c0 0.924 0.434 1.47 1.33 1.47zm11-0.168v-4.76c0-1.51-1.09-2.17-2.46-2.17-1.12 0-1.9 0.378-2.6 1.13l0.406 0.504c0.616-0.7 1.27-0.994 2.11-0.994 1.01 0 1.82 0.546 1.82 1.55v1.37c-0.588-0.658-1.36-0.966-2.3-0.966-1.18 0-2.37 0.77-2.37 2.24 0 1.46 1.2 2.25 2.37 2.25 0.938 0 1.69-0.308 2.3-0.966v0.798zm-2.77-0.406c-1.12 0-1.85-0.714-1.85-1.67 0-0.966 0.728-1.68 1.85-1.68 0.812 0 1.57 0.322 2.04 0.938v1.48c-0.476 0.616-1.23 0.924-2.04 0.924zm13.1 0.574c1.48 0 2.58-0.644 3.4-1.67l-0.672-0.42c-0.588 0.812-1.61 1.36-2.73 1.36-2.2 0-3.89-1.69-3.89-4.1 0-2.44 1.69-4.1 3.89-4.1 1.12 0 2.14 0.546 2.73 1.36l0.672-0.434c-0.798-0.994-1.92-1.65-3.4-1.65-2.65 0-4.73 1.96-4.73 4.83s2.09 4.83 4.73 4.83zm12.7-0.168-3.82-9.34h-0.994l-3.82 9.34h0.924l0.924-2.3h4.94l0.924 2.3zm-2.11-3.02h-4.41l2.2-5.46zm7.33 3.21c1.47 0 2.72-0.63 3.54-1.55v-3.26h-4.33v0.714h3.53v2.24c-0.518 0.518-1.5 1.13-2.74 1.13-2.2 0-3.89-1.71-3.89-4.12 0-2.44 1.69-4.1 3.89-4.1 1.19 0 2.25 0.518 2.91 1.3l0.602-0.434c-0.854-0.98-1.97-1.6-3.51-1.6-2.62 0-4.73 1.95-4.73 4.83s2.11 4.84 4.73 4.84zm12-0.182-2.7-3.92c1.39-0.056 2.59-0.994 2.59-2.69 0-1.71-1.23-2.73-2.84-2.73h-3.49v9.34h0.798v-3.86h2.06l2.62 3.86zm-3.02-4.59h-2.62v-4.02h2.62c1.23 0 2.07 0.826 2.07 2s-0.84 2.02-2.07 2.02zm11.3 4.76c2 0 3.26-1.58 3.26-3.56s-1.26-3.54-3.26-3.54c-1.97 0-3.25 1.57-3.25 3.54s1.27 3.56 3.25 3.56zm0-0.658c-1.57 0-2.46-1.39-2.46-2.9 0-1.5 0.896-2.88 2.46-2.88 1.6 0 2.48 1.39 2.48 2.88 0 1.51-0.882 2.9-2.48 2.9zm6.11 0.49v-6.12h1.37v-0.644h-1.37v-0.616c0-0.938 0.406-1.47 1.18-1.47 0.364 0 0.644 0.14 0.868 0.35l0.35-0.504c-0.434-0.378-0.812-0.476-1.29-0.476-1.13 0-1.83 0.784-1.83 2.1v0.616h-1.12v0.644h1.12v6.12zm12.2 0v-0.728h-4.91c2.7-2.18 4.87-4.06 4.87-6.12 0-1.85-1.57-2.63-2.94-2.63-1.32 0-2.45 0.546-3.11 1.44l0.546 0.504c0.504-0.714 1.4-1.22 2.56-1.22 1.02 0 2.13 0.56 2.13 1.9 0 1.81-2.13 3.63-5.31 6.19v0.658zm5 0.154c2.58 0 3.57-2.42 3.57-4.82 0-2.51-0.91-4.83-3.43-4.83-1.99 0-3.14 1.46-3.14 2.98 0 1.99 1.33 2.97 3.01 2.97 1.26 0 2.34-0.924 2.74-1.57v0.434c0 1.96-0.7 4.1-2.76 4.1-1.02 0-1.6-0.434-2.04-1.04l-0.462 0.574c0.546 0.7 1.29 1.19 2.51 1.19zm0.154-4.42c-1.33 0-2.34-0.728-2.34-2.25 0-1.01 0.756-2.24 2.35-2.24 1.75 0 2.42 1.62 2.53 2.9-0.532 0.938-1.53 1.6-2.55 1.6zm5.25 4.41c0.336 0 0.63-0.294 0.63-0.63 0-0.322-0.294-0.602-0.63-0.602a0.619 0.619 0 0 0-0.616 0.602c0 0.336 0.28 0.63 0.616 0.63zm5.16 0.028c1.99 0 3.15-1.13 3.15-2.67s-1.33-2.24-2.14-2.32c0.798-0.14 2-0.756 2-2.18 0-1.58-1.39-2.46-3.01-2.46-1.36 0-2.39 0.616-3.05 1.41l0.504 0.504c0.686-0.77 1.44-1.19 2.51-1.19 1.2 0 2.24 0.644 2.24 1.81 0 1.25-1.13 1.78-2.37 1.78-0.378 0-0.728 0-0.868-0.014v0.756c0.14-0.014 0.49-0.014 0.868-0.014 1.4 0 2.51 0.546 2.51 1.89 0 1.23-0.91 1.99-2.35 1.99-1.19 0-2.1-0.56-2.62-1.3l-0.546 0.476c0.532 0.84 1.65 1.55 3.18 1.55zm6.65-5.07c1.3 0 2.2-0.966 2.2-2.27 0-1.32-0.896-2.31-2.2-2.31-1.29 0-2.18 0.994-2.18 2.31 0 1.3 0.896 2.27 2.18 2.27zm-0.238 4.9 5.98-9.34h-0.644l-5.96 9.34zm5 0.168c1.29 0 2.2-0.98 2.2-2.28 0-1.32-0.91-2.31-2.2-2.31s-2.2 0.994-2.2 2.31c0 1.3 0.91 2.28 2.2 2.28zm-4.76-5.6c-0.91 0-1.54-0.798-1.54-1.74 0-0.98 0.63-1.76 1.54-1.76 0.924 0 1.55 0.784 1.55 1.76 0 0.938-0.63 1.74-1.55 1.74zm4.76 5.05c-0.924 0-1.55-0.784-1.55-1.74 0-0.966 0.63-1.76 1.55-1.76s1.54 0.798 1.54 1.76c0 0.952-0.616 1.74-1.54 1.74zm8.88 0.546c0.56 0 0.882-0.168 1.15-0.42l-0.28-0.56a1.06 1.06 0 0 1-0.756 0.322c-0.476 0-0.7-0.378-0.7-0.924v-4.7h1.37v-0.644h-1.37v-1.85h-0.742v1.85h-1.12v0.644h1.12v4.82c0 0.924 0.434 1.47 1.33 1.47zm5.24 0c2 0 3.26-1.58 3.26-3.56s-1.26-3.54-3.26-3.54c-1.97 0-3.25 1.57-3.25 3.54s1.27 3.56 3.25 3.56zm0-0.658c-1.57 0-2.46-1.39-2.46-2.9 0-1.5 0.896-2.88 2.46-2.88 1.6 0 2.48 1.39 2.48 2.88 0 1.51-0.882 2.9-2.48 2.9zm14.6 0.49v-0.728h-4.91c2.7-2.18 4.87-4.06 4.87-6.12 0-1.85-1.57-2.63-2.94-2.63-1.32 0-2.45 0.546-3.11 1.44l0.546 0.504c0.504-0.714 1.4-1.22 2.56-1.22 1.02 0 2.13 0.56 2.13 1.9 0 1.81-2.13 3.63-5.31 6.19v0.658zm5.48 0.168c2.49 0 3.44-2.62 3.44-4.83 0-2.23-0.952-4.82-3.44-4.82-2.52 0-3.46 2.59-3.46 4.82 0 2.21 0.938 4.83 3.46 4.83zm0-0.728c-1.97 0-2.62-2.18-2.62-4.1 0-1.93 0.644-4.09 2.62-4.09 1.96 0 2.59 2.16 2.59 4.09 0 1.92-0.644 4.1-2.59 4.1zm11.2 0.56v-0.728h-4.91c2.7-2.18 4.87-4.06 4.87-6.12 0-1.85-1.57-2.63-2.94-2.63-1.32 0-2.45 0.546-3.11 1.44l0.546 0.504c0.504-0.714 1.4-1.22 2.56-1.22 1.02 0 2.13 0.56 2.13 1.9 0 1.81-2.13 3.63-5.31 6.19v0.658zm5.39 0.168c1.72 0 3.15-1.15 3.15-3.01 0-1.95-1.41-2.98-2.98-2.98-0.966 0-1.76 0.42-2.23 0.868v-3.65h4.59v-0.728h-5.39v4.9l0.602 0.252c0.686-0.63 1.41-0.91 2.27-0.91 1.34 0 2.32 0.868 2.32 2.28 0 1.27-0.994 2.25-2.34 2.25-1.2 0-2.02-0.476-2.62-1.33l-0.532 0.532c0.644 0.924 1.6 1.53 3.15 1.53zm10.5 2.3c-0.882-1.79-1.48-3.44-1.48-5.87 0-2.44 0.602-4.07 1.48-5.88l-0.434-0.308a11.1 11.1 0 0 0-1.86 6.19c0 2.25 0.658 4.37 1.86 6.19zm4.29-2.3c2.52 0 3.32-1.44 3.32-2.65 0-3.49-5.6-2.17-5.6-4.56 0-1.01 0.938-1.72 2.18-1.72 1.05 0 2 0.364 2.67 1.18l0.532-0.588c-0.728-0.826-1.76-1.32-3.16-1.32-1.69 0-3.07 0.966-3.07 2.49 0 3.26 5.6 1.83 5.6 4.58 0 0.798-0.546 1.86-2.46 1.86-1.33 0-2.31-0.658-2.91-1.36l-0.518 0.602c0.714 0.868 1.88 1.48 3.42 1.48zm8.06 0c2 0 3.26-1.58 3.26-3.56s-1.26-3.54-3.26-3.54c-1.97 0-3.25 1.57-3.25 3.54s1.27 3.56 3.25 3.56zm0-0.658c-1.57 0-2.46-1.39-2.46-2.9 0-1.5 0.896-2.88 2.46-2.88 1.6 0 2.48 1.39 2.48 2.88 0 1.51-0.882 2.9-2.48 2.9zm10.4 0.49v-6.76h-0.728v5.15c-0.448 0.602-1.33 1.12-2.2 1.12-0.98 0-1.64-0.364-1.64-1.68v-4.59h-0.728v4.76c0 1.53 0.742 2.17 2.13 2.17 0.98 0 1.88-0.546 2.44-1.16v0.994zm3 0v-4.93c0.308-0.588 1.23-1.2 1.92-1.2 0.14 0 0.238 0 0.364 0.028v-0.798c-0.938 0-1.71 0.546-2.28 1.3v-1.16h-0.728v6.76zm6.61 0.168c1.18 0 1.85-0.462 2.39-1.16l-0.504-0.448c-0.49 0.672-1.11 0.952-1.85 0.952-1.58 0-2.55-1.27-2.55-2.9s0.966-2.88 2.55-2.88c0.742 0 1.36 0.266 1.85 0.938l0.504-0.448c-0.546-0.686-1.22-1.15-2.39-1.15-1.99 0-3.29 1.57-3.29 3.54s1.3 3.56 3.29 3.56zm7.02 0c1.12 0 1.97-0.392 2.65-1.09l-0.378-0.476c-0.574 0.616-1.36 0.938-2.21 0.938-1.6 0-2.58-1.22-2.65-2.69h5.66v-0.196c0-1.95-1.13-3.58-3.19-3.58-1.88 0-3.26 1.58-3.26 3.54 0 2.09 1.41 3.56 3.39 3.56zm2.32-3.89h-4.91c0.056-1.18 0.854-2.58 2.45-2.58 1.69 0 2.45 1.43 2.46 2.58zm3.02-1.92c0.336 0 0.63-0.28 0.63-0.602a0.634 0.634 0 0 0-0.63-0.616 0.621 0.621 0 0 0-0.616 0.616c0 0.322 0.28 0.602 0.616 0.602zm0 5.78c0.336 0 0.63-0.294 0.63-0.63 0-0.322-0.294-0.602-0.63-0.602a0.619 0.619 0 0 0-0.616 0.602c0 0.336 0.28 0.63 0.616 0.63zm8.97 2.6c1.65 0 3.05-0.742 3.05-2.81v-6.69h-0.742v1.09c-0.546-0.77-1.39-1.26-2.35-1.26-1.79 0-3.02 1.4-3.02 3.54 0 2.17 1.23 3.53 3.02 3.53 1.01 0 1.88-0.574 2.35-1.26v1.06c0 1.55-1.08 2.17-2.31 2.17-1.01 0-1.65-0.252-2.24-0.952l-0.42 0.56c0.798 0.812 1.53 1.02 2.66 1.02zm0.084-3.26c-1.5 0-2.37-1.23-2.37-2.87s0.868-2.88 2.37-2.88c0.938 0 1.83 0.574 2.23 1.23v3.29c-0.392 0.658-1.29 1.23-2.23 1.23zm5.95 0.518v-4.93c0.308-0.588 1.23-1.2 1.92-1.2 0.14 0 0.238 0 0.364 0.028v-0.798c-0.938 0-1.71 0.546-2.28 1.3v-1.16h-0.728v6.76zm8.74 0v-4.76c0-1.51-1.09-2.17-2.46-2.17-1.12 0-1.9 0.378-2.6 1.13l0.406 0.504c0.616-0.7 1.27-0.994 2.11-0.994 1.01 0 1.82 0.546 1.82 1.55v1.37c-0.588-0.658-1.36-0.966-2.3-0.966-1.18 0-2.37 0.77-2.37 2.24 0 1.46 1.2 2.25 2.37 2.25 0.938 0 1.69-0.308 2.3-0.966v0.798zm-2.77-0.406c-1.12 0-1.85-0.714-1.85-1.67 0-0.966 0.728-1.68 1.85-1.68 0.812 0 1.57 0.322 2.04 0.938v1.48c-0.476 0.616-1.23 0.924-2.04 0.924zm10.3 0.406v-4.73c0-1.53-0.756-2.2-2.13-2.2-0.98 0-1.95 0.602-2.44 1.19v-1.02h-0.728v6.76h0.728v-5.11c0.434-0.616 1.33-1.16 2.2-1.16 0.98 0 1.64 0.392 1.64 1.69v4.58zm8 0v-9.34h-0.742v3.67c-0.546-0.77-1.39-1.26-2.35-1.26-1.79 0-3.02 1.41-3.02 3.56 0 2.17 1.23 3.54 3.02 3.54a2.88 2.88 0 0 0 2.35-1.25v1.08zm-2.97-0.49c-1.5 0-2.37-1.25-2.37-2.88s0.868-2.9 2.37-2.9c0.952 0 1.83 0.574 2.23 1.23v3.35c-0.392 0.644-1.27 1.2-2.23 1.2zm7.89 0.49 2.86-6.76h-0.826l-2.44 5.91-2.46-5.91h-0.812l2.86 6.76zm4.46-7.83c0.308 0 0.56-0.252 0.56-0.56a0.55 0.55 0 0 0-0.56-0.546 0.559 0.559 0 0 0-0.56 0.546c0 0.308 0.266 0.56 0.56 0.56zm0.364 7.83v-6.76h-0.728v6.76zm5.26 0.168c1.12 0 1.97-0.392 2.65-1.09l-0.378-0.476c-0.574 0.616-1.36 0.938-2.21 0.938-1.6 0-2.58-1.22-2.65-2.69h5.66v-0.196c0-1.95-1.13-3.58-3.19-3.58-1.88 0-3.26 1.58-3.26 3.54 0 2.09 1.41 3.56 3.39 3.56zm2.32-3.89h-4.91c0.056-1.18 0.854-2.58 2.45-2.58 1.69 0 2.45 1.43 2.46 2.58zm9.12 3.72 2.2-6.76h-0.784l-1.79 5.74-1.9-5.74h-0.63l-1.9 5.74-1.79-5.74h-0.784l2.2 6.76h0.7l1.9-5.78 1.89 5.78zm4.29 0v-4.93c0.308-0.588 1.23-1.2 1.92-1.2 0.14 0 0.238 0 0.364 0.028v-0.798c-0.938 0-1.71 0.546-2.28 1.3v-1.16h-0.728v6.76zm6.71 0.168c1.12 0 1.97-0.392 2.65-1.09l-0.378-0.476c-0.574 0.616-1.36 0.938-2.21 0.938-1.6 0-2.58-1.22-2.65-2.69h5.66v-0.196c0-1.95-1.13-3.58-3.19-3.58-1.88 0-3.26 1.58-3.26 3.54 0 2.09 1.41 3.56 3.39 3.56zm2.32-3.89h-4.91c0.056-1.18 0.854-2.58 2.45-2.58 1.69 0 2.45 1.43 2.46 2.58zm4.64 3.89c1.69 0 2.53-0.896 2.53-1.99 0-2.6-4.27-1.57-4.27-3.26 0-0.7 0.644-1.23 1.69-1.23 0.896 0 1.62 0.364 2.02 0.896l0.406-0.518c-0.49-0.546-1.26-0.994-2.42-0.994-1.53 0-2.41 0.84-2.41 1.88 0 2.42 4.27 1.39 4.27 3.23 0 0.784-0.672 1.37-1.81 1.37-0.952 0-1.75-0.448-2.18-0.994l-0.434 0.546c0.672 0.742 1.51 1.06 2.6 1.06zm7.41 0c1.12 0 1.97-0.392 2.65-1.09l-0.378-0.476c-0.574 0.616-1.36 0.938-2.21 0.938-1.6 0-2.58-1.22-2.65-2.69h5.66v-0.196c0-1.95-1.13-3.58-3.19-3.58-1.88 0-3.26 1.58-3.26 3.54 0 2.09 1.41 3.56 3.39 3.56zm2.32-3.89h-4.91c0.056-1.18 0.854-2.58 2.45-2.58 1.69 0 2.45 1.43 2.46 2.58zm7.65 3.72v-4.76c0-1.51-1.09-2.17-2.46-2.17-1.12 0-1.9 0.378-2.6 1.13l0.406 0.504c0.616-0.7 1.27-0.994 2.11-0.994 1.01 0 1.82 0.546 1.82 1.55v1.37c-0.588-0.658-1.36-0.966-2.3-0.966-1.18 0-2.37 0.77-2.37 2.24 0 1.46 1.2 2.25 2.37 2.25 0.938 0 1.69-0.308 2.3-0.966v0.798zm-2.77-0.406c-1.12 0-1.85-0.714-1.85-1.67 0-0.966 0.728-1.68 1.85-1.68 0.812 0 1.57 0.322 2.04 0.938v1.48c-0.476 0.616-1.23 0.924-2.04 0.924zm5.78 0.406v-4.93c0.308-0.588 1.23-1.2 1.92-1.2 0.14 0 0.238 0 0.364 0.028v-0.798c-0.938 0-1.71 0.546-2.28 1.3v-1.16h-0.728v6.76zm6.61 0.168c1.18 0 1.85-0.462 2.39-1.16l-0.504-0.448c-0.49 0.672-1.11 0.952-1.85 0.952-1.58 0-2.55-1.27-2.55-2.9s0.966-2.88 2.55-2.88c0.742 0 1.36 0.266 1.85 0.938l0.504-0.448c-0.546-0.686-1.22-1.15-2.39-1.15-1.99 0-3.29 1.57-3.29 3.54s1.3 3.56 3.29 3.56zm9.31-0.168v-4.76c0-1.53-0.756-2.17-2.13-2.17-0.98 0-1.95 0.602-2.44 1.19v-3.6h-0.728v9.34h0.728v-5.11c0.434-0.616 1.33-1.16 2.2-1.16 0.98 0 1.64 0.364 1.64 1.67v4.61zm2.66 0.14c0.336 0 0.63-0.294 0.63-0.63 0-0.322-0.294-0.602-0.63-0.602a0.619 0.619 0 0 0-0.616 0.602c0 0.336 0.28 0.63 0.616 0.63zm5.44 0.028c1.18 0 1.85-0.462 2.39-1.16l-0.504-0.448c-0.49 0.672-1.11 0.952-1.85 0.952-1.58 0-2.55-1.27-2.55-2.9s0.966-2.88 2.55-2.88c0.742 0 1.36 0.266 1.85 0.938l0.504-0.448c-0.546-0.686-1.22-1.15-2.39-1.15-1.99 0-3.29 1.57-3.29 3.54s1.3 3.56 3.29 3.56zm6.88 0c2 0 3.26-1.58 3.26-3.56s-1.26-3.54-3.26-3.54c-1.97 0-3.25 1.57-3.25 3.54s1.27 3.56 3.25 3.56zm0-0.658c-1.57 0-2.46-1.39-2.46-2.9 0-1.5 0.896-2.88 2.46-2.88 1.6 0 2.48 1.39 2.48 2.88 0 1.51-0.882 2.9-2.48 2.9zm13.9 0.49v-4.87c0-1.36-0.602-2.06-1.85-2.06-0.952 0-1.86 0.644-2.24 1.27-0.168-0.658-0.728-1.27-1.78-1.27-0.98 0-1.9 0.756-2.18 1.19v-1.02h-0.728v6.76h0.728v-5.11c0.406-0.616 1.22-1.16 1.93-1.16 0.966 0 1.36 0.588 1.36 1.54v4.73h0.742v-5.12c0.378-0.616 1.2-1.15 1.93-1.15 0.952 0 1.36 0.588 1.36 1.54v4.73zm1.81 2.79a11.1 11.1 0 0 0 0-12.4l-0.434 0.308c0.896 1.81 1.48 3.44 1.48 5.88 0 2.42-0.588 4.07-1.48 5.87zm-480 25.2v-3.88h2.7c1.78 0 2.81-1.26 2.81-2.73s-1.02-2.73-2.81-2.73h-3.5v9.34zm2.62-4.61h-2.62v-4h2.62c1.23 0 2.06 0.826 2.06 2s-0.826 2-2.06 2zm5.28 4.61v-4.93c0.308-0.588 1.23-1.2 1.92-1.2 0.14 0 0.238 0 0.364 0.028v-0.798c-0.938 0-1.71 0.546-2.28 1.3v-1.16h-0.728v6.76zm6.71 0.168c1.12 0 1.97-0.392 2.65-1.09l-0.378-0.476c-0.574 0.616-1.36 0.938-2.21 0.938-1.6 0-2.58-1.22-2.65-2.69h5.66v-0.196c0-1.95-1.13-3.58-3.19-3.58-1.88 0-3.26 1.58-3.26 3.54 0 2.09 1.41 3.56 3.39 3.56zm2.32-3.89h-4.91c0.056-1.18 0.854-2.58 2.45-2.58 1.69 0 2.45 1.43 2.46 2.58zm8.35 3.72v-9.34h-0.742v3.67c-0.546-0.77-1.39-1.26-2.35-1.26-1.79 0-3.02 1.41-3.02 3.56 0 2.17 1.23 3.54 3.02 3.54a2.88 2.88 0 0 0 2.35-1.25v1.08zm-2.97-0.49c-1.5 0-2.37-1.25-2.37-2.88s0.868-2.9 2.37-2.9c0.952 0 1.83 0.574 2.23 1.23v3.35c-0.392 0.644-1.27 1.2-2.23 1.2zm5.6-7.34c0.308 0 0.56-0.252 0.56-0.56a0.55 0.55 0 0 0-0.56-0.546 0.559 0.559 0 0 0-0.56 0.546c0 0.308 0.266 0.56 0.56 0.56zm0.364 7.83v-6.76h-0.728v6.76zm5.16 0.168c1.18 0 1.85-0.462 2.39-1.16l-0.504-0.448c-0.49 0.672-1.11 0.952-1.85 0.952-1.58 0-2.55-1.27-2.55-2.9s0.966-2.88 2.55-2.88c0.742 0 1.36 0.266 1.85 0.938l0.504-0.448c-0.546-0.686-1.22-1.15-2.39-1.15-1.99 0-3.29 1.57-3.29 3.54s1.3 3.56 3.29 3.56zm5.49 0c0.56 0 0.882-0.168 1.15-0.42l-0.28-0.56a1.06 1.06 0 0 1-0.756 0.322c-0.476 0-0.7-0.378-0.7-0.924v-4.7h1.37v-0.644h-1.37v-1.85h-0.742v1.85h-1.12v0.644h1.12v4.82c0 0.924 0.434 1.47 1.33 1.47zm2.75-7.99c0.308 0 0.56-0.252 0.56-0.56a0.55 0.55 0 0 0-0.56-0.546 0.559 0.559 0 0 0-0.56 0.546c0 0.308 0.266 0.56 0.56 0.56zm0.364 7.83v-6.76h-0.728v6.76zm4.91 0 2.86-6.76h-0.826l-2.44 5.91-2.46-5.91h-0.812l2.86 6.76zm7.09 0.168c1.12 0 1.97-0.392 2.65-1.09l-0.378-0.476c-0.574 0.616-1.36 0.938-2.21 0.938-1.6 0-2.58-1.22-2.65-2.69h5.66v-0.196c0-1.95-1.13-3.58-3.19-3.58-1.88 0-3.26 1.58-3.26 3.54 0 2.09 1.41 3.56 3.39 3.56zm2.32-3.89h-4.91c0.056-1.18 0.854-2.58 2.45-2.58 1.69 0 2.45 1.43 2.46 2.58zm14 3.72-3.82-9.34h-0.994l-3.82 9.34h0.924l0.924-2.3h4.94l0.924 2.3zm-2.11-3.02h-4.41l2.2-5.46zm8.76 3.02v-4.73c0-1.53-0.756-2.2-2.13-2.2-0.98 0-1.95 0.602-2.44 1.19v-1.02h-0.728v6.76h0.728v-5.11c0.434-0.616 1.33-1.16 2.2-1.16 0.98 0 1.64 0.392 1.64 1.69v4.58zm7.29 0v-4.76c0-1.51-1.09-2.17-2.46-2.17-1.12 0-1.9 0.378-2.6 1.13l0.406 0.504c0.616-0.7 1.27-0.994 2.11-0.994 1.01 0 1.82 0.546 1.82 1.55v1.37c-0.588-0.658-1.36-0.966-2.3-0.966-1.18 0-2.37 0.77-2.37 2.24 0 1.46 1.2 2.25 2.37 2.25 0.938 0 1.69-0.308 2.3-0.966v0.798zm-2.77-0.406c-1.12 0-1.85-0.714-1.85-1.67 0-0.966 0.728-1.68 1.85-1.68 0.812 0 1.57 0.322 2.04 0.938v1.48c-0.476 0.616-1.23 0.924-2.04 0.924zm5.78 0.406v-9.34h-0.728v9.34zm1.82 2.65c0.182 0.056 0.49 0.098 0.714 0.098 0.798 0 1.37-0.406 1.74-1.26l3.5-8.25h-0.826l-2.44 5.91-2.46-5.91h-0.812l2.86 6.82-0.532 1.2c-0.266 0.644-0.574 0.826-1.02 0.826-0.168 0-0.434-0.042-0.588-0.112zm8.66-2.48c0.56 0 0.882-0.168 1.15-0.42l-0.28-0.56a1.06 1.06 0 0 1-0.756 0.322c-0.476 0-0.7-0.378-0.7-0.924v-4.7h1.37v-0.644h-1.37v-1.85h-0.742v1.85h-1.12v0.644h1.12v4.82c0 0.924 0.434 1.47 1.33 1.47zm2.75-7.99c0.308 0 0.56-0.252 0.56-0.56a0.55 0.55 0 0 0-0.56-0.546 0.559 0.559 0 0 0-0.56 0.546c0 0.308 0.266 0.56 0.56 0.56zm0.364 7.83v-6.76h-0.728v6.76zm5.16 0.168c1.18 0 1.85-0.462 2.39-1.16l-0.504-0.448c-0.49 0.672-1.11 0.952-1.85 0.952-1.58 0-2.55-1.27-2.55-2.9s0.966-2.88 2.55-2.88c0.742 0 1.36 0.266 1.85 0.938l0.504-0.448c-0.546-0.686-1.22-1.15-2.39-1.15-1.99 0-3.29 1.57-3.29 3.54s1.3 3.56 3.29 3.56zm6.04 0c1.69 0 2.53-0.896 2.53-1.99 0-2.6-4.27-1.57-4.27-3.26 0-0.7 0.644-1.23 1.69-1.23 0.896 0 1.62 0.364 2.02 0.896l0.406-0.518c-0.49-0.546-1.26-0.994-2.42-0.994-1.53 0-2.41 0.84-2.41 1.88 0 2.42 4.27 1.39 4.27 3.23 0 0.784-0.672 1.37-1.81 1.37-0.952 0-1.75-0.448-2.18-0.994l-0.434 0.546c0.672 0.742 1.51 1.06 2.6 1.06zm13.1-0.168v-4.76c0-1.51-1.09-2.17-2.46-2.17-1.12 0-1.9 0.378-2.6 1.13l0.406 0.504c0.616-0.7 1.27-0.994 2.11-0.994 1.01 0 1.82 0.546 1.82 1.55v1.37c-0.588-0.658-1.36-0.966-2.3-0.966-1.18 0-2.37 0.77-2.37 2.24 0 1.46 1.2 2.25 2.37 2.25 0.938 0 1.69-0.308 2.3-0.966v0.798zm-2.77-0.406c-1.12 0-1.85-0.714-1.85-1.67 0-0.966 0.728-1.68 1.85-1.68 0.812 0 1.57 0.322 2.04 0.938v1.48c-0.476 0.616-1.23 0.924-2.04 0.924zm10.3 0.406v-4.73c0-1.53-0.756-2.2-2.13-2.2-0.98 0-1.95 0.602-2.44 1.19v-1.02h-0.728v6.76h0.728v-5.11c0.434-0.616 1.33-1.16 2.2-1.16 0.98 0 1.64 0.392 1.64 1.69v4.58zm7.99 0v-9.34h-0.742v3.67c-0.546-0.77-1.39-1.26-2.35-1.26-1.79 0-3.02 1.41-3.02 3.56 0 2.17 1.23 3.54 3.02 3.54a2.88 2.88 0 0 0 2.35-1.25v1.08zm-2.97-0.49c-1.5 0-2.37-1.25-2.37-2.88s0.868-2.9 2.37-2.9c0.952 0 1.83 0.574 2.23 1.23v3.35c-0.392 0.644-1.27 1.2-2.23 1.2zm11.8 0.658c1.18 0 1.85-0.462 2.39-1.16l-0.504-0.448c-0.49 0.672-1.11 0.952-1.85 0.952-1.58 0-2.55-1.27-2.55-2.9s0.966-2.88 2.55-2.88c0.742 0 1.36 0.266 1.85 0.938l0.504-0.448c-0.546-0.686-1.22-1.15-2.39-1.15-1.99 0-3.29 1.57-3.29 3.54s1.3 3.56 3.29 3.56zm4.75-0.168v-9.34h-0.728v9.34zm2.63-7.83c0.308 0 0.56-0.252 0.56-0.56a0.55 0.55 0 0 0-0.56-0.546 0.559 0.559 0 0 0-0.56 0.546c0 0.308 0.266 0.56 0.56 0.56zm0.364 7.83v-6.76h-0.728v6.76zm7.56 0v-4.73c0-1.53-0.756-2.2-2.13-2.2-0.98 0-1.95 0.602-2.44 1.19v-1.02h-0.728v6.76h0.728v-5.11c0.434-0.616 1.33-1.16 2.2-1.16 0.98 0 1.64 0.392 1.64 1.69v4.58zm2.63-7.83c0.308 0 0.56-0.252 0.56-0.56a0.55 0.55 0 0 0-0.56-0.546 0.559 0.559 0 0 0-0.56 0.546c0 0.308 0.266 0.56 0.56 0.56zm0.364 7.83v-6.76h-0.728v6.76zm5.16 0.168c1.18 0 1.85-0.462 2.39-1.16l-0.504-0.448c-0.49 0.672-1.11 0.952-1.85 0.952-1.58 0-2.55-1.27-2.55-2.9s0.966-2.88 2.55-2.88c0.742 0 1.36 0.266 1.85 0.938l0.504-0.448c-0.546-0.686-1.22-1.15-2.39-1.15-1.99 0-3.29 1.57-3.29 3.54s1.3 3.56 3.29 3.56zm9.05-0.168v-4.76c0-1.51-1.09-2.17-2.46-2.17-1.12 0-1.9 0.378-2.6 1.13l0.406 0.504c0.616-0.7 1.27-0.994 2.11-0.994 1.01 0 1.82 0.546 1.82 1.55v1.37c-0.588-0.658-1.36-0.966-2.3-0.966-1.18 0-2.37 0.77-2.37 2.24 0 1.46 1.2 2.25 2.37 2.25 0.938 0 1.69-0.308 2.3-0.966v0.798zm-2.77-0.406c-1.12 0-1.85-0.714-1.85-1.67 0-0.966 0.728-1.68 1.85-1.68 0.812 0 1.57 0.322 2.04 0.938v1.48c-0.476 0.616-1.23 0.924-2.04 0.924zm5.78 0.406v-9.34h-0.728v9.34zm11.6 0v-9.34h-0.742v3.67c-0.546-0.77-1.39-1.26-2.35-1.26-1.79 0-3.02 1.41-3.02 3.56 0 2.17 1.23 3.54 3.02 3.54a2.88 2.88 0 0 0 2.35-1.25v1.08zm-2.97-0.49c-1.5 0-2.37-1.25-2.37-2.88s0.868-2.9 2.37-2.9c0.952 0 1.83 0.574 2.23 1.23v3.35c-0.392 0.644-1.27 1.2-2.23 1.2zm8.24 0.658c1.12 0 1.97-0.392 2.65-1.09l-0.378-0.476c-0.574 0.616-1.36 0.938-2.21 0.938-1.6 0-2.58-1.22-2.65-2.69h5.66v-0.196c0-1.95-1.13-3.58-3.19-3.58-1.88 0-3.26 1.58-3.26 3.54 0 2.09 1.41 3.56 3.39 3.56zm2.32-3.89h-4.91c0.056-1.18 0.854-2.58 2.45-2.58 1.69 0 2.45 1.43 2.46 2.58zm5.52 3.89c1.18 0 1.85-0.462 2.39-1.16l-0.504-0.448c-0.49 0.672-1.11 0.952-1.85 0.952-1.58 0-2.55-1.27-2.55-2.9s0.966-2.88 2.55-2.88c0.742 0 1.36 0.266 1.85 0.938l0.504-0.448c-0.546-0.686-1.22-1.15-2.39-1.15-1.99 0-3.29 1.57-3.29 3.54s1.3 3.56 3.29 3.56zm4.38-7.99c0.308 0 0.56-0.252 0.56-0.56a0.55 0.55 0 0 0-0.56-0.546 0.559 0.559 0 0 0-0.56 0.546c0 0.308 0.266 0.56 0.56 0.56zm0.364 7.83v-6.76h-0.728v6.76zm4.28 0.168c1.69 0 2.53-0.896 2.53-1.99 0-2.6-4.27-1.57-4.27-3.26 0-0.7 0.644-1.23 1.69-1.23 0.896 0 1.62 0.364 2.02 0.896l0.406-0.518c-0.49-0.546-1.26-0.994-2.42-0.994-1.53 0-2.41 0.84-2.41 1.88 0 2.42 4.27 1.39 4.27 3.23 0 0.784-0.672 1.37-1.81 1.37-0.952 0-1.75-0.448-2.18-0.994l-0.434 0.546c0.672 0.742 1.51 1.06 2.6 1.06zm4.77-7.99c0.308 0 0.56-0.252 0.56-0.56a0.55 0.55 0 0 0-0.56-0.546 0.559 0.559 0 0 0-0.56 0.546c0 0.308 0.266 0.56 0.56 0.56zm0.364 7.83v-6.76h-0.728v6.76zm5.12 0.168c2 0 3.26-1.58 3.26-3.56s-1.26-3.54-3.26-3.54c-1.97 0-3.25 1.57-3.25 3.54s1.27 3.56 3.25 3.56zm0-0.658c-1.57 0-2.46-1.39-2.46-2.9 0-1.5 0.896-2.88 2.46-2.88 1.6 0 2.48 1.39 2.48 2.88 0 1.51-0.882 2.9-2.48 2.9zm10.4 0.49v-4.73c0-1.53-0.756-2.2-2.13-2.2-0.98 0-1.95 0.602-2.44 1.19v-1.02h-0.728v6.76h0.728v-5.11c0.434-0.616 1.33-1.16 2.2-1.16 0.98 0 1.64 0.392 1.64 1.69v4.58zm7.91 0.168c1.69 0 2.53-0.896 2.53-1.99 0-2.6-4.27-1.57-4.27-3.26 0-0.7 0.644-1.23 1.69-1.23 0.896 0 1.62 0.364 2.02 0.896l0.406-0.518c-0.49-0.546-1.26-0.994-2.42-0.994-1.53 0-2.41 0.84-2.41 1.88 0 2.42 4.27 1.39 4.27 3.23 0 0.784-0.672 1.37-1.81 1.37-0.952 0-1.75-0.448-2.18-0.994l-0.434 0.546c0.672 0.742 1.51 1.06 2.6 1.06zm9.7-0.168v-6.76h-0.728v5.15c-0.448 0.602-1.33 1.12-2.2 1.12-0.98 0-1.64-0.364-1.64-1.68v-4.59h-0.728v4.76c0 1.53 0.742 2.17 2.13 2.17 0.98 0 1.88-0.546 2.44-1.16v0.994zm5.35 0.168c1.81 0 3.02-1.4 3.02-3.56 0-2.17-1.22-3.54-3.02-3.54a2.91 2.91 0 0 0-2.35 1.23v-1.06h-0.728v9.34h0.728v-3.67c0.546 0.77 1.4 1.26 2.35 1.26zm-0.126-0.658c-0.938 0-1.83-0.588-2.23-1.23v-3.35c0.392-0.644 1.29-1.2 2.23-1.2 1.51 0 2.37 1.25 2.37 2.88s-0.854 2.9-2.37 2.9zm8.07 0.658c1.81 0 3.02-1.4 3.02-3.56 0-2.17-1.22-3.54-3.02-3.54a2.91 2.91 0 0 0-2.35 1.23v-1.06h-0.728v9.34h0.728v-3.67c0.546 0.77 1.4 1.26 2.35 1.26zm-0.126-0.658c-0.938 0-1.83-0.588-2.23-1.23v-3.35c0.392-0.644 1.29-1.2 2.23-1.2 1.51 0 2.37 1.25 2.37 2.88s-0.854 2.9-2.37 2.9zm7.84 0.658c2 0 3.26-1.58 3.26-3.56s-1.26-3.54-3.26-3.54c-1.97 0-3.25 1.57-3.25 3.54s1.27 3.56 3.25 3.56zm0-0.658c-1.57 0-2.46-1.39-2.46-2.9 0-1.5 0.896-2.88 2.46-2.88 1.6 0 2.48 1.39 2.48 2.88 0 1.51-0.882 2.9-2.48 2.9zm5.87 0.49v-4.93c0.308-0.588 1.23-1.2 1.92-1.2 0.14 0 0.238 0 0.364 0.028v-0.798c-0.938 0-1.71 0.546-2.28 1.3v-1.16h-0.728v6.76zm5.19 0.168c0.56 0 0.882-0.168 1.15-0.42l-0.28-0.56a1.06 1.06 0 0 1-0.756 0.322c-0.476 0-0.7-0.378-0.7-0.924v-4.7h1.37v-0.644h-1.37v-1.85h-0.742v1.85h-1.12v0.644h1.12v4.82c0 0.924 0.434 1.47 1.33 1.47zm7.48 0c0.56 0 0.882-0.168 1.15-0.42l-0.28-0.56a1.06 1.06 0 0 1-0.756 0.322c-0.476 0-0.7-0.378-0.7-0.924v-4.7h1.37v-0.644h-1.37v-1.85h-0.742v1.85h-1.12v0.644h1.12v4.82c0 0.924 0.434 1.47 1.33 1.47zm5.24 0c2 0 3.26-1.58 3.26-3.56s-1.26-3.54-3.26-3.54c-1.97 0-3.25 1.57-3.25 3.54s1.27 3.56 3.25 3.56zm0-0.658c-1.57 0-2.46-1.39-2.46-2.9 0-1.5 0.896-2.88 2.46-2.88 1.6 0 2.48 1.39 2.48 2.88 0 1.51-0.882 2.9-2.48 2.9zm8 0.658c2 0 3.26-1.58 3.26-3.56s-1.26-3.54-3.26-3.54c-1.97 0-3.25 1.57-3.25 3.54s1.27 3.56 3.25 3.56zm0-0.658c-1.57 0-2.46-1.39-2.46-2.9 0-1.5 0.896-2.88 2.46-2.88 1.6 0 2.48 1.39 2.48 2.88 0 1.51-0.882 2.9-2.48 2.9zm5.87 0.49v-9.34h-0.728v9.34zm4.28 0.168c1.69 0 2.53-0.896 2.53-1.99 0-2.6-4.27-1.57-4.27-3.26 0-0.7 0.644-1.23 1.69-1.23 0.896 0 1.62 0.364 2.02 0.896l0.406-0.518c-0.49-0.546-1.26-0.994-2.42-0.994-1.53 0-2.41 0.84-2.41 1.88 0 2.42 4.27 1.39 4.27 3.23 0 0.784-0.672 1.37-1.81 1.37-0.952 0-1.75-0.448-2.18-0.994l-0.434 0.546c0.672 0.742 1.51 1.06 2.6 1.06zm13.3-0.168v-4.76c0-1.53-0.756-2.17-2.13-2.17-0.98 0-1.95 0.602-2.44 1.19v-3.6h-0.728v9.34h0.728v-5.11c0.434-0.616 1.33-1.16 2.2-1.16 0.98 0 1.64 0.364 1.64 1.67v4.61zm5.26 0.168c1.12 0 1.97-0.392 2.65-1.09l-0.378-0.476c-0.574 0.616-1.36 0.938-2.21 0.938-1.6 0-2.58-1.22-2.65-2.69h5.66v-0.196c0-1.95-1.13-3.58-3.19-3.58-1.88 0-3.26 1.58-3.26 3.54 0 2.09 1.41 3.56 3.39 3.56zm2.32-3.89h-4.91c0.056-1.18 0.854-2.58 2.45-2.58 1.69 0 2.45 1.43 2.46 2.58zm3.35 3.72v-9.34h-0.728v9.34zm5.35 0.168c1.81 0 3.02-1.4 3.02-3.56 0-2.17-1.22-3.54-3.02-3.54a2.91 2.91 0 0 0-2.35 1.23v-1.06h-0.728v9.34h0.728v-3.67c0.546 0.77 1.4 1.26 2.35 1.26zm-0.126-0.658c-0.938 0-1.83-0.588-2.23-1.23v-3.35c0.392-0.644 1.29-1.2 2.23-1.2 1.51 0 2.37 1.25 2.37 2.88s-0.854 2.9-2.37 2.9zm9.34 0.49v-4.93c0.308-0.588 1.23-1.2 1.92-1.2 0.14 0 0.238 0 0.364 0.028v-0.798c-0.938 0-1.71 0.546-2.28 1.3v-1.16h-0.728v6.76zm6.71 0.168c1.12 0 1.97-0.392 2.65-1.09l-0.378-0.476c-0.574 0.616-1.36 0.938-2.21 0.938-1.6 0-2.58-1.22-2.65-2.69h5.66v-0.196c0-1.95-1.13-3.58-3.19-3.58-1.88 0-3.26 1.58-3.26 3.54 0 2.09 1.41 3.56 3.39 3.56zm2.32-3.89h-4.91c0.056-1.18 0.854-2.58 2.45-2.58 1.69 0 2.45 1.43 2.46 2.58zm8.35 3.72v-9.34h-0.742v3.67c-0.546-0.77-1.39-1.26-2.35-1.26-1.79 0-3.02 1.41-3.02 3.56 0 2.17 1.23 3.54 3.02 3.54a2.88 2.88 0 0 0 2.35-1.25v1.08zm-2.97-0.49c-1.5 0-2.37-1.25-2.37-2.88s0.868-2.9 2.37-2.9c0.952 0 1.83 0.574 2.23 1.23v3.35c-0.392 0.644-1.27 1.2-2.23 1.2zm10.5 0.49v-6.76h-0.728v5.15c-0.448 0.602-1.33 1.12-2.2 1.12-0.98 0-1.64-0.364-1.64-1.68v-4.59h-0.728v4.76c0 1.53 0.742 2.17 2.13 2.17 0.98 0 1.88-0.546 2.44-1.16v0.994zm5.17 0.168c1.18 0 1.85-0.462 2.39-1.16l-0.504-0.448c-0.49 0.672-1.11 0.952-1.85 0.952-1.58 0-2.55-1.27-2.55-2.9s0.966-2.88 2.55-2.88c0.742 0 1.36 0.266 1.85 0.938l0.504-0.448c-0.546-0.686-1.22-1.15-2.39-1.15-1.99 0-3.29 1.57-3.29 3.54s1.3 3.56 3.29 3.56zm7.02 0c1.12 0 1.97-0.392 2.65-1.09l-0.378-0.476c-0.574 0.616-1.36 0.938-2.21 0.938-1.6 0-2.58-1.22-2.65-2.69h5.66v-0.196c0-1.95-1.13-3.58-3.19-3.58-1.88 0-3.26 1.58-3.26 3.54 0 2.09 1.41 3.56 3.39 3.56zm2.32-3.89h-4.91c0.056-1.18 0.854-2.58 2.45-2.58 1.69 0 2.45 1.43 2.46 2.58zm7.72 3.89c0.56 0 0.882-0.168 1.15-0.42l-0.28-0.56a1.06 1.06 0 0 1-0.756 0.322c-0.476 0-0.7-0.378-0.7-0.924v-4.7h1.37v-0.644h-1.37v-1.85h-0.742v1.85h-1.12v0.644h1.12v4.82c0 0.924 0.434 1.47 1.33 1.47zm7.68-0.168v-4.76c0-1.53-0.756-2.17-2.13-2.17-0.98 0-1.95 0.602-2.44 1.19v-3.6h-0.728v9.34h0.728v-5.11c0.434-0.616 1.33-1.16 2.2-1.16 0.98 0 1.64 0.364 1.64 1.67v4.61zm5.26 0.168c1.12 0 1.97-0.392 2.65-1.09l-0.378-0.476c-0.574 0.616-1.36 0.938-2.21 0.938-1.6 0-2.58-1.22-2.65-2.69h5.66v-0.196c0-1.95-1.13-3.58-3.19-3.58-1.88 0-3.26 1.58-3.26 3.54 0 2.09 1.41 3.56 3.39 3.56zm2.32-3.89h-4.91c0.056-1.18 0.854-2.58 2.45-2.58 1.69 0 2.45 1.43 2.46 2.58zm15 3.72v-4.87c0-1.36-0.602-2.06-1.85-2.06-0.952 0-1.86 0.644-2.24 1.27-0.168-0.658-0.728-1.27-1.78-1.27-0.98 0-1.9 0.756-2.18 1.19v-1.02h-0.728v6.76h0.728v-5.11c0.406-0.616 1.22-1.16 1.93-1.16 0.966 0 1.36 0.588 1.36 1.54v4.73h0.742v-5.12c0.378-0.616 1.2-1.15 1.93-1.15 0.952 0 1.36 0.588 1.36 1.54v4.73zm5.12 0.168c2 0 3.26-1.58 3.26-3.56s-1.26-3.54-3.26-3.54c-1.97 0-3.25 1.57-3.25 3.54s1.27 3.56 3.25 3.56zm0-0.658c-1.57 0-2.46-1.39-2.46-2.9 0-1.5 0.896-2.88 2.46-2.88 1.6 0 2.48 1.39 2.48 2.88 0 1.51-0.882 2.9-2.48 2.9zm5.87 0.49v-4.93c0.308-0.588 1.23-1.2 1.92-1.2 0.14 0 0.238 0 0.364 0.028v-0.798c-0.938 0-1.71 0.546-2.28 1.3v-1.16h-0.728v6.76zm5.18 0.168c0.56 0 0.882-0.168 1.15-0.42l-0.28-0.56a1.06 1.06 0 0 1-0.756 0.322c-0.476 0-0.7-0.378-0.7-0.924v-4.7h1.37v-0.644h-1.37v-1.85h-0.742v1.85h-1.12v0.644h1.12v4.82c0 0.924 0.434 1.47 1.33 1.47zm7.41-0.168v-4.76c0-1.51-1.09-2.17-2.46-2.17-1.12 0-1.9 0.378-2.6 1.13l0.406 0.504c0.616-0.7 1.27-0.994 2.11-0.994 1.01 0 1.82 0.546 1.82 1.55v1.37c-0.588-0.658-1.36-0.966-2.3-0.966-1.18 0-2.37 0.77-2.37 2.24 0 1.46 1.2 2.25 2.37 2.25 0.938 0 1.69-0.308 2.3-0.966v0.798zm-2.77-0.406c-1.12 0-1.85-0.714-1.85-1.67 0-0.966 0.728-1.68 1.85-1.68 0.812 0 1.57 0.322 2.04 0.938v1.48c-0.476 0.616-1.23 0.924-2.04 0.924zm5.78 0.406v-9.34h-0.728v9.34zm2.63-7.83c0.308 0 0.56-0.252 0.56-0.56a0.55 0.55 0 0 0-0.56-0.546 0.559 0.559 0 0 0-0.56 0.546c0 0.308 0.266 0.56 0.56 0.56zm0.364 7.83v-6.76h-0.728v6.76zm3.74 0.168c0.56 0 0.882-0.168 1.15-0.42l-0.28-0.56a1.06 1.06 0 0 1-0.756 0.322c-0.476 0-0.7-0.378-0.7-0.924v-4.7h1.37v-0.644h-1.37v-1.85h-0.742v1.85h-1.12v0.644h1.12v4.82c0 0.924 0.434 1.47 1.33 1.47zm1.94 2.48c0.182 0.056 0.49 0.098 0.714 0.098 0.798 0 1.37-0.406 1.74-1.26l3.5-8.25h-0.826l-2.44 5.91-2.46-5.91h-0.812l2.86 6.82-0.532 1.2c-0.266 0.644-0.574 0.826-1.02 0.826-0.168 0-0.434-0.042-0.588-0.112zm13.7-2.48c2 0 3.26-1.58 3.26-3.56s-1.26-3.54-3.26-3.54c-1.97 0-3.25 1.57-3.25 3.54s1.27 3.56 3.25 3.56zm0-0.658c-1.57 0-2.46-1.39-2.46-2.9 0-1.5 0.896-2.88 2.46-2.88 1.6 0 2.48 1.39 2.48 2.88 0 1.51-0.882 2.9-2.48 2.9zm6.11 0.49v-6.12h1.37v-0.644h-1.37v-0.616c0-0.938 0.406-1.47 1.18-1.47 0.364 0 0.644 0.14 0.868 0.35l0.35-0.504c-0.434-0.378-0.812-0.476-1.29-0.476-1.13 0-1.83 0.784-1.83 2.1v0.616h-1.12v0.644h1.12v6.12zm8.38 0.168c1.69 0 2.53-0.896 2.53-1.99 0-2.6-4.27-1.57-4.27-3.26 0-0.7 0.644-1.23 1.69-1.23 0.896 0 1.62 0.364 2.02 0.896l0.406-0.518c-0.49-0.546-1.26-0.994-2.42-0.994-1.53 0-2.41 0.84-2.41 1.88 0 2.42 4.27 1.39 4.27 3.23 0 0.784-0.672 1.37-1.81 1.37-0.952 0-1.75-0.448-2.18-0.994l-0.434 0.546c0.672 0.742 1.51 1.06 2.6 1.06zm7.41 0c1.12 0 1.97-0.392 2.65-1.09l-0.378-0.476c-0.574 0.616-1.36 0.938-2.21 0.938-1.6 0-2.58-1.22-2.65-2.69h5.66v-0.196c0-1.95-1.13-3.58-3.19-3.58-1.88 0-3.26 1.58-3.26 3.54 0 2.09 1.41 3.56 3.39 3.56zm2.32-3.89h-4.91c0.056-1.18 0.854-2.58 2.45-2.58 1.69 0 2.45 1.43 2.46 2.58zm5.7 3.89c1.81 0 3.02-1.4 3.02-3.56 0-2.17-1.22-3.54-3.02-3.54a2.91 2.91 0 0 0-2.35 1.23v-1.06h-0.728v9.34h0.728v-3.67c0.546 0.77 1.4 1.26 2.35 1.26zm-0.126-0.658c-0.938 0-1.83-0.588-2.23-1.23v-3.35c0.392-0.644 1.29-1.2 2.23-1.2 1.51 0 2.37 1.25 2.37 2.88s-0.854 2.9-2.37 2.9zm7 0.658c1.69 0 2.53-0.896 2.53-1.99 0-2.6-4.27-1.57-4.27-3.26 0-0.7 0.644-1.23 1.69-1.23 0.896 0 1.62 0.364 2.02 0.896l0.406-0.518c-0.49-0.546-1.26-0.994-2.42-0.994-1.53 0-2.41 0.84-2.41 1.88 0 2.42 4.27 1.39 4.27 3.23 0 0.784-0.672 1.37-1.81 1.37-0.952 0-1.75-0.448-2.18-0.994l-0.434 0.546c0.672 0.742 1.51 1.06 2.6 1.06zm4.77-7.99c0.308 0 0.56-0.252 0.56-0.56a0.55 0.55 0 0 0-0.56-0.546 0.559 0.559 0 0 0-0.56 0.546c0 0.308 0.266 0.56 0.56 0.56zm0.364 7.83v-6.76h-0.728v6.76zm4.28 0.168c1.69 0 2.53-0.896 2.53-1.99 0-2.6-4.27-1.57-4.27-3.26 0-0.7 0.644-1.23 1.69-1.23 0.896 0 1.62 0.364 2.02 0.896l0.406-0.518c-0.49-0.546-1.26-0.994-2.42-0.994-1.53 0-2.41 0.84-2.41 1.88 0 2.42 4.27 1.39 4.27 3.23 0 0.784-0.672 1.37-1.81 1.37-0.952 0-1.75-0.448-2.18-0.994l-0.434 0.546c0.672 0.742 1.51 1.06 2.6 1.06zm8.76-1.86v-3.35c0.392-0.644 1.29-1.23 2.23-1.23 1.51 0 2.37 1.26 2.37 2.9s-0.854 2.88-2.37 2.88c-0.938 0-1.83-0.56-2.23-1.2zm0 1.69v-1.08a2.88 2.88 0 0 0 2.35 1.25c1.79 0 3.02-1.37 3.02-3.54 0-2.14-1.22-3.56-3.02-3.56-0.952 0-1.81 0.49-2.35 1.26v-3.67h-0.728v9.34zm6.82 2.65c0.182 0.056 0.49 0.098 0.714 0.098 0.798 0 1.37-0.406 1.74-1.26l3.5-8.25h-0.826l-2.44 5.91-2.46-5.91h-0.812l2.86 6.82-0.532 1.2c-0.266 0.644-0.574 0.826-1.02 0.826-0.168 0-0.434-0.042-0.588-0.112zm19.6-2.65v-4.87c0-1.36-0.602-2.06-1.85-2.06-0.952 0-1.86 0.644-2.24 1.27-0.168-0.658-0.728-1.27-1.78-1.27-0.98 0-1.9 0.756-2.18 1.19v-1.02h-0.728v6.76h0.728v-5.11c0.406-0.616 1.22-1.16 1.93-1.16 0.966 0 1.36 0.588 1.36 1.54v4.73h0.742v-5.12c0.378-0.616 1.2-1.15 1.93-1.15 0.952 0 1.36 0.588 1.36 1.54v4.73zm5.12 0.168c2 0 3.26-1.58 3.26-3.56s-1.26-3.54-3.26-3.54c-1.97 0-3.25 1.57-3.25 3.54s1.27 3.56 3.25 3.56zm0-0.658c-1.57 0-2.46-1.39-2.46-2.9 0-1.5 0.896-2.88 2.46-2.88 1.6 0 2.48 1.39 2.48 2.88 0 1.51-0.882 2.9-2.48 2.9zm5.87 0.49v-4.93c0.308-0.588 1.23-1.2 1.92-1.2 0.14 0 0.238 0 0.364 0.028v-0.798c-0.938 0-1.71 0.546-2.28 1.3v-1.16h-0.728v6.76zm6.71 0.168c1.12 0 1.97-0.392 2.65-1.09l-0.378-0.476c-0.574 0.616-1.36 0.938-2.21 0.938-1.6 0-2.58-1.22-2.65-2.69h5.66v-0.196c0-1.95-1.13-3.58-3.19-3.58-1.88 0-3.26 1.58-3.26 3.54 0 2.09 1.41 3.56 3.39 3.56zm2.32-3.89h-4.91c0.056-1.18 0.854-2.58 2.45-2.58 1.69 0 2.45 1.43 2.46 2.58zm-586 30.9c0.56 0 0.882-0.168 1.15-0.42l-0.28-0.56a1.06 1.06 0 0 1-0.756 0.322c-0.476 0-0.7-0.378-0.7-0.924v-4.7h1.37v-0.644h-1.37v-1.85h-0.742v1.85h-1.12v0.644h1.12v4.82c0 0.924 0.434 1.47 1.33 1.47zm7.68-0.168v-4.76c0-1.53-0.756-2.17-2.13-2.17-0.98 0-1.95 0.602-2.44 1.19v-3.6h-0.727v9.34h0.728v-5.11c0.433-0.616 1.33-1.16 2.2-1.16 0.98 0 1.64 0.364 1.64 1.67v4.61zm7.3 0v-4.76c0-1.51-1.09-2.17-2.46-2.17-1.12 0-1.9 0.378-2.6 1.13l0.406 0.504c0.616-0.7 1.27-0.994 2.11-0.994 1.01 0 1.82 0.546 1.82 1.55v1.37c-0.588-0.658-1.36-0.966-2.3-0.966-1.18 0-2.37 0.77-2.37 2.24 0 1.46 1.2 2.25 2.37 2.25 0.938 0 1.69-0.308 2.3-0.966v0.798zm-2.77-0.406c-1.12 0-1.85-0.714-1.85-1.67 0-0.966 0.728-1.68 1.85-1.68 0.812 0 1.57 0.322 2.04 0.938v1.48c-0.476 0.616-1.23 0.924-2.04 0.924zm10.3 0.406v-4.73c0-1.53-0.756-2.2-2.13-2.2-0.98 0-1.95 0.602-2.44 1.19v-1.02h-0.728v6.76h0.728v-5.11c0.434-0.616 1.33-1.16 2.2-1.16 0.98 0 1.64 0.392 1.64 1.69v4.58zm8.94 0.168c1.72 0 3.15-1.15 3.15-3.01 0-1.95-1.41-2.98-2.98-2.98-0.966 0-1.76 0.42-2.23 0.868v-3.65h4.59v-0.728h-5.39v4.9l0.602 0.252c0.686-0.63 1.41-0.91 2.27-0.91 1.34 0 2.32 0.868 2.32 2.28 0 1.27-0.994 2.25-2.34 2.25-1.2 0-2.02-0.476-2.62-1.33l-0.532 0.532c0.644 0.924 1.6 1.53 3.15 1.53zm8.23 0c2.49 0 3.44-2.62 3.44-4.83 0-2.23-0.952-4.82-3.44-4.82-2.52 0-3.46 2.59-3.46 4.82 0 2.21 0.938 4.83 3.46 4.83zm0-0.728c-1.97 0-2.62-2.18-2.62-4.1 0-1.93 0.644-4.09 2.62-4.09 1.96 0 2.59 2.16 2.59 4.09 0 1.92-0.644 4.1-2.59 4.1zm6.91-4.34c1.3 0 2.2-0.966 2.2-2.27 0-1.32-0.896-2.31-2.2-2.31-1.29 0-2.18 0.994-2.18 2.31 0 1.3 0.896 2.27 2.18 2.27zm-0.238 4.9 5.98-9.34h-0.644l-5.96 9.34zm5 0.168c1.29 0 2.2-0.98 2.2-2.28 0-1.32-0.91-2.31-2.2-2.31s-2.2 0.994-2.2 2.31c0 1.3 0.91 2.28 2.2 2.28zm-4.76-5.6c-0.91 0-1.54-0.798-1.54-1.74 0-0.98 0.63-1.76 1.54-1.76 0.924 0 1.55 0.784 1.55 1.76 0 0.938-0.63 1.74-1.55 1.74zm4.76 5.05c-0.924 0-1.55-0.784-1.55-1.74 0-0.966 0.63-1.76 1.55-1.76s1.54 0.798 1.54 1.76c0 0.952-0.616 1.74-1.54 1.74zm9.22 2.84c-0.882-1.79-1.48-3.44-1.48-5.87 0-2.44 0.602-4.07 1.48-5.88l-0.434-0.308a11.1 11.1 0 0 0-1.86 6.19c0 2.25 0.658 4.37 1.86 6.19zm4.29-2.3c2.52 0 3.32-1.44 3.32-2.65 0-3.49-5.6-2.17-5.6-4.56 0-1.01 0.938-1.72 2.18-1.72 1.05 0 2 0.364 2.67 1.18l0.532-0.588c-0.728-0.826-1.76-1.32-3.16-1.32-1.69 0-3.07 0.966-3.07 2.49 0 3.26 5.6 1.83 5.6 4.58 0 0.798-0.546 1.86-2.46 1.86-1.33 0-2.31-0.658-2.91-1.36l-0.518 0.602c0.714 0.868 1.88 1.48 3.42 1.48zm8.06 0c2 0 3.26-1.58 3.26-3.56s-1.26-3.54-3.26-3.54c-1.97 0-3.25 1.57-3.25 3.54s1.27 3.56 3.25 3.56zm0-0.658c-1.57 0-2.46-1.39-2.46-2.9 0-1.5 0.896-2.88 2.46-2.88 1.6 0 2.48 1.39 2.48 2.88 0 1.51-0.882 2.9-2.48 2.9zm10.4 0.49v-6.76h-0.728v5.15c-0.448 0.602-1.33 1.12-2.2 1.12-0.98 0-1.64-0.364-1.64-1.68v-4.59h-0.728v4.76c0 1.53 0.742 2.17 2.13 2.17 0.98 0 1.88-0.546 2.44-1.16v0.994zm3 0v-4.93c0.308-0.588 1.23-1.2 1.92-1.2 0.14 0 0.238 0 0.364 0.028v-0.798c-0.938 0-1.71 0.546-2.28 1.3v-1.16h-0.728v6.76zm6.61 0.168c1.18 0 1.85-0.462 2.39-1.16l-0.504-0.448c-0.49 0.672-1.11 0.952-1.85 0.952-1.58 0-2.55-1.27-2.55-2.9s0.966-2.88 2.55-2.88c0.742 0 1.36 0.266 1.85 0.938l0.504-0.448c-0.546-0.686-1.22-1.15-2.39-1.15-1.99 0-3.29 1.57-3.29 3.54s1.3 3.56 3.29 3.56zm7.02 0c1.12 0 1.97-0.392 2.65-1.09l-0.378-0.476c-0.574 0.616-1.36 0.938-2.21 0.938-1.6 0-2.58-1.22-2.65-2.69h5.66v-0.196c0-1.95-1.13-3.58-3.19-3.58-1.88 0-3.26 1.58-3.26 3.54 0 2.09 1.41 3.56 3.39 3.56zm2.32-3.89h-4.91c0.056-1.18 0.854-2.58 2.45-2.58 1.69 0 2.45 1.43 2.46 2.58zm3.02-1.92c0.336 0 0.63-0.28 0.63-0.602a0.634 0.634 0 0 0-0.63-0.616 0.621 0.621 0 0 0-0.616 0.616c0 0.322 0.28 0.602 0.616 0.602zm0 5.78c0.336 0 0.63-0.294 0.63-0.63 0-0.322-0.294-0.602-0.63-0.602a0.619 0.619 0 0 0-0.616 0.602c0 0.336 0.28 0.63 0.616 0.63zm9.15 0.028c2 0 3.26-1.58 3.26-3.56s-1.26-3.54-3.26-3.54c-1.97 0-3.25 1.57-3.25 3.54s1.27 3.56 3.25 3.56zm0-0.658c-1.57 0-2.46-1.39-2.46-2.9 0-1.5 0.896-2.88 2.46-2.88 1.6 0 2.48 1.39 2.48 2.88 0 1.51-0.882 2.9-2.48 2.9zm10.4 0.49v-4.73c0-1.53-0.756-2.2-2.13-2.2-0.98 0-1.95 0.602-2.44 1.19v-1.02h-0.728v6.76h0.728v-5.11c0.434-0.616 1.33-1.16 2.2-1.16 0.98 0 1.64 0.392 1.64 1.69v4.58zm3 0v-9.34h-0.728v9.34zm2.63-7.83c0.308 0 0.56-0.252 0.56-0.56a0.55 0.55 0 0 0-0.56-0.546 0.559 0.559 0 0 0-0.56 0.546c0 0.308 0.266 0.56 0.56 0.56zm0.364 7.83v-6.76h-0.728v6.76zm7.56 0v-4.73c0-1.53-0.756-2.2-2.13-2.2-0.98 0-1.95 0.602-2.44 1.19v-1.02h-0.728v6.76h0.728v-5.11c0.434-0.616 1.33-1.16 2.2-1.16 0.98 0 1.64 0.392 1.64 1.69v4.58zm5.26 0.168c1.12 0 1.97-0.392 2.65-1.09l-0.378-0.476c-0.574 0.616-1.36 0.938-2.21 0.938-1.6 0-2.58-1.22-2.65-2.69h5.66v-0.196c0-1.95-1.13-3.58-3.19-3.58-1.88 0-3.26 1.58-3.26 3.54 0 2.09 1.41 3.56 3.39 3.56zm2.32-3.89h-4.91c0.056-1.18 0.854-2.58 2.45-2.58 1.69 0 2.45 1.43 2.46 2.58zm2.89 3.86c0.336 0 0.63-0.294 0.63-0.63 0-0.322-0.294-0.602-0.63-0.602a0.619 0.619 0 0 0-0.616 0.602c0 0.336 0.28 0.63 0.616 0.63zm7.96-0.14v-4.76c0-1.53-0.756-2.17-2.13-2.17-0.98 0-1.95 0.602-2.44 1.19v-3.6h-0.728v9.34h0.728v-5.11c0.434-0.616 1.33-1.16 2.2-1.16 0.98 0 1.64 0.364 1.64 1.67v4.61zm7.56 0v-6.76h-0.728v5.15c-0.448 0.602-1.33 1.12-2.2 1.12-0.98 0-1.64-0.364-1.64-1.68v-4.59h-0.728v4.76c0 1.53 0.742 2.17 2.13 2.17 0.98 0 1.88-0.546 2.44-1.16v0.994zm4.28 0.168c1.69 0 2.53-0.896 2.53-1.99 0-2.6-4.27-1.57-4.27-3.26 0-0.7 0.644-1.23 1.69-1.23 0.896 0 1.62 0.364 2.02 0.896l0.406-0.518c-0.49-0.546-1.26-0.994-2.42-0.994-1.53 0-2.41 0.84-2.41 1.88 0 2.42 4.27 1.39 4.27 3.23 0 0.784-0.672 1.37-1.81 1.37-0.952 0-1.75-0.448-2.18-0.994l-0.434 0.546c0.672 0.742 1.51 1.06 2.6 1.06zm6.43 0c1.69 0 2.53-0.896 2.53-1.99 0-2.6-4.27-1.57-4.27-3.26 0-0.7 0.644-1.23 1.69-1.23 0.896 0 1.62 0.364 2.02 0.896l0.406-0.518c-0.49-0.546-1.26-0.994-2.42-0.994-1.53 0-2.41 0.84-2.41 1.88 0 2.42 4.27 1.39 4.27 3.23 0 0.784-0.672 1.37-1.81 1.37-0.952 0-1.75-0.448-2.18-0.994l-0.434 0.546c0.672 0.742 1.51 1.06 2.6 1.06zm7.27 0c2 0 3.26-1.58 3.26-3.56s-1.26-3.54-3.26-3.54c-1.97 0-3.25 1.57-3.25 3.54s1.27 3.56 3.25 3.56zm0-0.658c-1.57 0-2.46-1.39-2.46-2.9 0-1.5 0.896-2.88 2.46-2.88 1.6 0 2.48 1.39 2.48 2.88 0 1.51-0.882 2.9-2.48 2.9zm10.4 0.49v-4.73c0-1.53-0.756-2.2-2.13-2.2-0.98 0-1.95 0.602-2.44 1.19v-1.02h-0.728v6.76h0.728v-5.11c0.434-0.616 1.33-1.16 2.2-1.16 0.98 0 1.64 0.392 1.64 1.69v4.58zm2.66 0.14c0.336 0 0.63-0.294 0.63-0.63 0-0.322-0.294-0.602-0.63-0.602a0.619 0.619 0 0 0-0.616 0.602c0 0.336 0.28 0.63 0.616 0.63zm5.54 0.028c1.12 0 1.97-0.392 2.65-1.09l-0.378-0.476c-0.574 0.616-1.36 0.938-2.21 0.938-1.6 0-2.58-1.22-2.65-2.69h5.66v-0.196c0-1.95-1.13-3.58-3.19-3.58-1.88 0-3.26 1.58-3.26 3.54 0 2.09 1.41 3.56 3.39 3.56zm2.32-3.89h-4.91c0.056-1.18 0.854-2.58 2.45-2.58 1.69 0 2.45 1.43 2.46 2.58zm8.35 3.72v-9.34h-0.742v3.67c-0.546-0.77-1.39-1.26-2.35-1.26-1.79 0-3.02 1.41-3.02 3.56 0 2.17 1.23 3.54 3.02 3.54a2.88 2.88 0 0 0 2.35-1.25v1.08zm-2.97-0.49c-1.5 0-2.37-1.25-2.37-2.88s0.868-2.9 2.37-2.9c0.952 0 1.83 0.574 2.23 1.23v3.35c-0.392 0.644-1.27 1.2-2.23 1.2zm10.5 0.49v-6.76h-0.728v5.15c-0.448 0.602-1.33 1.12-2.2 1.12-0.98 0-1.64-0.364-1.64-1.68v-4.59h-0.728v4.76c0 1.53 0.742 2.17 2.13 2.17 0.98 0 1.88-0.546 2.44-1.16v0.994zm1.81 2.79a11.1 11.1 0 0 0 0-12.4l-0.434 0.308c0.896 1.81 1.48 3.44 1.48 5.88 0 2.42-0.588 4.07-1.48 5.87z" fill="#141414"/>
    <g fill="#77bce8">
      <circle id="circle10" cx="65" cy="154" r="2"/>
      <circle id="circle12" cx="65" cy="99" r="2"/>
      <circle id="circle14" cx="65" cy="71" r="2"/>
      <circle id="circle16" cx="65" cy="43" r="2"/>
    </g>
  </g>
  <defs id="defs58">
    <filter id="filter0_ddd" x="20" y="2" width="700" height="231" color-interpolation-filters="sRGB" filterUnits="userSpaceOnUse">
      <feFlood id="feFlood23" flood-opacity="0" result="BackgroundImageFix"/>
      <feColorMatrix id="feColorMatrix25" in="SourceAlpha" values="0 0 0 0 0 0 0 0 0 0 0 0 0 0 0 0 0 0 127 0"/>
      <feOffset id="feOffset27" dy="4"/>
      <feGaussianBlur id="feGaussianBlur29" stdDeviation="2.5"/>
      <feColorMatrix id="feColorMatrix31" values="0 0 0 0 0.317647 0 0 0 0 0.662745 0 0 0 0 0.882353 0 0 0 0.2 0"/>
      <feBlend id="feBlend33" in2="BackgroundImageFix" result="effect1_dropShadow"/>
      <feColorMatrix id="feColorMatrix35" in="SourceAlpha" values="0 0 0 0 0 0 0 0 0 0 0 0 0 0 0 0 0 0 127 0"/>
      <feOffset id="feOffset37" dy="3"/>
      <feGaussianBlur id="feGaussianBlur39" stdDeviation="7"/>
      <feColorMatrix id="feColorMatrix41" values="0 0 0 0 0.317647 0 0 0 0 0.662745 0 0 0 0 0.882353 0 0 0 0.12 0"/>
      <feBlend id="feBlend43" in2="effect1_dropShadow" result="effect2_dropShadow"/>
      <feColorMatrix id="feColorMatrix45" in="SourceAlpha" values="0 0 0 0 0 0 0 0 0 0 0 0 0 0 0 0 0 0 127 0"/>
      <feOffset id="feOffset47" dy="8"/>
      <feGaussianBlur id="feGaussianBlur49" stdDeviation="5"/>
      <feColorMatrix id="feColorMatrix51" values="0 0 0 0 0.317647 0 0 0 0 0.662745 0 0 0 0 0.882353 0 0 0 0.14 0"/>
      <feBlend id="feBlend53" in2="effect2_dropShadow" result="effect3_dropShadow"/>
      <feBlend id="feBlend55" in="SourceGraphic" in2="effect3_dropShadow" result="shape"/>
    </filter>
  </defs>
</svg>
