<svg width="73" height="72" fill="none" xmlns="http://www.w3.org/2000/svg"><g clip-path="url(#a)"><path d="M14.393 12.278c.67.95 1.239 1.893 1.945 2.72 2.111 2.475 4.849 3.7 8.08 3.82.876.032 1.762-.026 2.635-.126.796-.09 1.22-.619 1.155-1.264-.077-.744-.642-1.203-1.495-1.072a9.82 9.82 0 0 1-3.893-.163c-3.671-.899-5.725-3.402-6.883-6.868 1.675-3.908 4.508-6.443 8.716-7.143 4.28-.712 7.804.8 10.567 4.05v23.962c-2.214.548-4.39.651-6.56-.071-1.97-.655-3.327-1.974-4.104-3.896-.1-.247-.142-.478-.34-.715-.265-.318-.587-.498-.911-.54-.96-.125-1.502.684-1.159 1.733a8.69 8.69 0 0 0 1.849 3.161c.176.196.346.395.593.68-.292.1-.504.18-.719.245-1.829.545-3.32 1.569-4.44 3.122-.55.764-.508 1.47.092 1.906.584.424 1.345.24 1.845-.494 1.082-1.589 2.728-2.166 4.49-2.513a9.68 9.68 0 0 1 3.819 0c1.53.305 3.083.231 4.627.039.282-.036.571-.055.911-.084v33.39c-2.711 3.216-6.228 4.753-10.51 4.05-4.402-.725-7.316-3.376-8.914-7.528 1.066-2.619 2.898-4.31 5.603-4.99 1.46-.366 2.95-.469 4.454-.241.34.051.693.067 1.04.048.623-.035 1.04-.475 1.075-1.078.039-.616-.295-1.152-.902-1.236-3.973-.549-7.762-.25-10.882 2.657-.715.668-1.293 1.483-1.986 2.292-1.601-.286-3.09-.976-4.419-1.99-2.9-2.211-4.37-5.186-4.566-8.802-.03-.556.035-1.12.006-1.675-.074-1.419-.664-2.622-1.614-3.665-1.57-1.72-2.609-3.694-2.955-6.02-.482-3.235.253-6.149 2.246-8.745.276-.36.587-.693.882-1.04 1.06-1.235 1.544-2.676 1.477-4.287-.145-3.401 1.014-6.29 3.414-8.67 1.678-1.666 3.908-2.777 5.731-2.956v-.003Z" fill="#92C9EC"/><path d="M49.638 54.836c0-1.095-.02-2.215.003-3.331.058-2.564-1.784-5.311-4.73-6.03-.668-.164-1.37-.225-2.06-.238-1.656-.032-3.312-.01-5.042-.01V40.72c.292-.029.6 0 .905 0 4.252-.006 8.504-.01 12.756.003.61 0 1.245.016 1.83.177 1.694.465 2.701 1.636 2.89 3.363.132 1.21.026 2.448.026 3.642-2.32 1.691-2.971 3.071-2.346 4.916.524 1.54 1.997 2.593 3.604 2.577a3.786 3.786 0 0 0 3.553-2.64c.593-1.85-.065-3.223-2.41-4.878 0-1.079.019-2.224-.004-3.37-.05-2.622-1.633-4.894-4.104-5.76a7.601 7.601 0 0 0-2.43-.411c-4.386-.038-8.77-.02-13.156-.02h-1.114v-4.27c.321-.02.658.019.992.019 4.492-.003 8.985.032 13.478-.02 2.634-.028 4.608-1.277 5.747-3.667.343-.726.5-1.58.565-2.391.093-1.165.022-2.346.022-3.556 1.178-.584 2.186-1.338 2.423-2.644.135-.757.122-1.617-.1-2.349-.465-1.544-2.075-2.538-3.664-2.455a3.795 3.795 0 0 0-3.46 2.766c-.526 1.82.184 3.229 2.488 4.756-.058 1.287 0 2.686-.206 4.043-.256 1.714-1.73 2.93-3.465 3.033-1.2.074-2.404.077-3.607.08-3.395.01-6.794.007-10.189 0-.34 0-.645.03-1.024 0v-4.518c.302-.02.549.01.831.01 1.525-.007 3.049.019 4.573-.01 3.152-.055 5.639-2.038 6.3-5.045.125-.564.112-1.168.125-1.752.019-.934.006-1.867.006-2.84 1.194-.593 2.205-1.38 2.442-2.715.129-.734.096-1.569-.122-2.278-.49-1.585-2.044-2.522-3.745-2.442-1.598.074-2.971 1.213-3.408 2.82-.484 1.791.235 3.187 2.507 4.68-.055 1.29.006 2.689-.206 4.046-.285 1.813-1.874 3.042-3.697 3.058-1.841.016-3.687.003-5.606.003V6.306c1.887-3 6.588-4.936 10.622-4.118 5.327 1.082 8.25 4.573 9.374 9.836.417.09.882.177 1.344.295 4.657 1.181 8.013 5.035 8.53 9.826.08.738.029 1.49.058 2.234.06 1.588.66 2.942 1.739 4.114 1.521 1.65 2.503 3.578 2.862 5.811.524 3.26-.227 6.203-2.22 8.831-.24.318-.507.62-.777.918-1.09 1.207-1.672 2.622-1.572 4.246.34 5.657-3.572 11.097-9.97 12.069-1.076 5.346-4.108 8.921-9.65 9.845-4.191.7-7.638-.876-10.381-4.066V47.696c.31-.02.593 0 .876 0 1.524-.004 3.048-.007 4.573 0 2.143.01 3.76 1.357 3.995 3.491.131 1.21.022 2.449.022 3.642-2.314 1.66-2.962 3.04-2.346 4.92.52 1.585 2.045 2.618 3.771 2.55 1.598-.06 3.004-1.196 3.44-2.781.504-1.826-.244-3.309-2.461-4.686v.004Z" fill="#103654"/></g><defs><clipPath id="a"><path fill="#fff" transform="translate(.5)" d="M0 0h72v72H0z"/></clipPath></defs></svg>