<svg width="134" height="40" fill="none" xmlns="http://www.w3.org/2000/svg"><path d="M51.191 15.028h-1.815l-.908-2.51h-3.83l-.854 2.51H42l3.69-9.854h1.843l3.658 9.854Zm-3.113-3.84-1.362-3.93a4.66 4.66 0 0 1-.132-.618h-.045c-.03.209-.075.415-.136.617l-1.362 3.93h3.037ZM57.886 8.66l-3.799 5.124h3.8v1.244h-6.015v-.581l3.88-5.193h-3.508V8.011h5.642v.649ZM65.28 15.028h-1.593v-1.112h-.027a2.292 2.292 0 0 1-2.143 1.28c-1.66 0-2.493-.999-2.496-2.996V7.997h1.589v4.04c0 1.265.487 1.897 1.461 1.897a1.48 1.48 0 0 0 1.167-.522c.314-.382.476-.867.453-1.362V8.002h1.594l-.005 7.026ZM71.235 9.513a1.316 1.316 0 0 0-.83-.227 1.42 1.42 0 0 0-1.171.622 2.855 2.855 0 0 0-.454 1.738v3.368h-1.625V7.98h1.593v1.475h.032c.124-.446.373-.847.717-1.157a1.62 1.62 0 0 1 1.08-.418c.227-.012.453.034.658.132v1.502ZM78.284 11.946h-4.793a2.027 2.027 0 0 0 .6 1.507c.436.377 1.002.57 1.579.54a3.476 3.476 0 0 0 2.07-.672v1.285a4.726 4.726 0 0 1-2.542.604 3.15 3.15 0 0 1-2.438-.958 3.835 3.835 0 0 1-.88-2.696 3.749 3.749 0 0 1 .985-2.692 3.177 3.177 0 0 1 2.414-1.035 2.773 2.773 0 0 1 2.233.908c.566.736.846 1.652.79 2.578l-.018.631Zm-1.539-1.13a2.052 2.052 0 0 0-.404-1.335 1.362 1.362 0 0 0-1.098-.48 1.548 1.548 0 0 0-1.166.503 2.269 2.269 0 0 0-.586 1.312h3.254ZM83.4 14.638v-1.684c.163.146.345.271.54.372.212.11.434.204.662.277.229.075.462.134.7.177.212.04.427.06.644.063a2.76 2.76 0 0 0 1.534-.345 1.13 1.13 0 0 0 .504-.998 1.09 1.09 0 0 0-.168-.608 1.785 1.785 0 0 0-.454-.454 4.994 4.994 0 0 0-.713-.409l-.876-.408a14.69 14.69 0 0 1-.935-.545 4.047 4.047 0 0 1-.762-.622c-.21-.22-.38-.474-.5-.753a2.447 2.447 0 0 1-.181-.98 2.27 2.27 0 0 1 .313-1.208c.208-.34.49-.629.826-.844a3.78 3.78 0 0 1 1.167-.495 5.55 5.55 0 0 1 1.334-.163 5.37 5.37 0 0 1 2.27.349v1.616a3.6 3.6 0 0 0-2.156-.604c-.244 0-.487.023-.727.068a2.16 2.16 0 0 0-.644.227 1.4 1.4 0 0 0-.454.404.995.995 0 0 0-.177.6c-.006.199.041.396.136.571.102.178.24.333.404.454.202.15.418.28.645.39.254.128.547.264.88.409.333.145.657.333.971.563.292.187.562.406.804.653.227.232.412.5.55.795.14.312.21.651.203.994a2.328 2.328 0 0 1-1.116 2.101c-.364.22-.763.373-1.18.454a6.62 6.62 0 0 1-1.407.145 7.565 7.565 0 0 1-1.37-.154 6.95 6.95 0 0 1-.714-.177 2.27 2.27 0 0 1-.553-.231ZM96.92 7.993l-3.176 8.17c-.66 1.455-1.586 2.183-2.778 2.183a3.338 3.338 0 0 1-.84-.09V16.93c.22.076.452.118.685.122a1.416 1.416 0 0 0 1.335-.88l.454-1.153-2.796-7.022h1.766l1.72 5.088c.018.064.059.233.122.509h.037a21 21 0 0 1 .122-.495l1.761-5.125 1.589.019ZM104.238 15.028h-1.594v-3.963c0-1.313-.464-1.97-1.393-1.97a1.524 1.524 0 0 0-1.203.545 2.03 2.03 0 0 0-.454 1.362v4.012h-1.602V7.98h1.602v1.166h.028a2.505 2.505 0 0 1 2.269-1.334 2.123 2.123 0 0 1 1.752.744c.443.628.656 1.39.604 2.156l-.009 4.317ZM111.486 15.028h-1.548v-1.099h-.027a2.321 2.321 0 0 1-2.138 1.267 2.27 2.27 0 0 1-1.625-.563 1.974 1.974 0 0 1-.585-1.489c0-1.328.765-2.103 2.297-2.324l2.087-.295c0-1.001-.476-1.502-1.429-1.502-.838 0-1.646.308-2.27.867V8.496a4.945 4.945 0 0 1 2.569-.658c1.777 0 2.665.875 2.665 2.624l.004 4.566Zm-1.539-3.454-1.475.204c-.366.028-.72.142-1.035.331a.976.976 0 0 0-.344.854.941.941 0 0 0 .317.73c.238.205.545.312.858.3a1.585 1.585 0 0 0 1.207-.513c.324-.355.494-.823.472-1.303v-.603ZM114.909 13.993h-.028v4.271h-1.593V7.993h1.593v1.234h.028a2.612 2.612 0 0 1 2.392-1.402 2.515 2.515 0 0 1 2.088.94 3.95 3.95 0 0 1 .748 2.527 4.38 4.38 0 0 1-.844 2.82 2.79 2.79 0 0 1-2.31 1.057 2.308 2.308 0 0 1-2.074-1.176Zm-.041-2.778v.872c-.013.482.163.951.49 1.307a1.736 1.736 0 0 0 2.637-.154 3.214 3.214 0 0 0 .504-1.93 2.53 2.53 0 0 0-.454-1.624 1.543 1.543 0 0 0-1.275-.586 1.717 1.717 0 0 0-1.362.604c-.361.42-.553.958-.54 1.511ZM121.263 14.81v-1.475a3.178 3.178 0 0 0 1.984.658c.962 0 1.443-.284 1.443-.853a.664.664 0 0 0-.123-.409 1.167 1.167 0 0 0-.331-.3 2.608 2.608 0 0 0-.495-.235l-.635-.232a6.767 6.767 0 0 1-.781-.363 2.338 2.338 0 0 1-.576-.454 1.647 1.647 0 0 1-.345-.554 2.016 2.016 0 0 1-.118-.721c-.009-.32.075-.635.24-.908a2.09 2.09 0 0 1 .645-.654c.279-.18.586-.315.908-.4.348-.088.707-.132 1.066-.13.594-.01 1.185.09 1.743.294v1.394a2.94 2.94 0 0 0-1.702-.509 2.211 2.211 0 0 0-.545.064 1.402 1.402 0 0 0-.417.172.838.838 0 0 0-.268.264.63.63 0 0 0-.095.34.724.724 0 0 0 .095.386.879.879 0 0 0 .286.277c.143.088.296.16.454.218l.608.218a8.9 8.9 0 0 1 .813.376c.224.122.43.275.612.454.167.16.3.351.391.563.096.24.142.499.136.758.008.329-.077.653-.245.935a2.076 2.076 0 0 1-.658.658c-.294.181-.617.311-.954.386a4.94 4.94 0 0 1-1.134.127 4.79 4.79 0 0 1-2.002-.345ZM133.654 11.946h-4.793a2.032 2.032 0 0 0 .599 1.507 2.24 2.24 0 0 0 1.575.53 3.481 3.481 0 0 0 2.07-.67v1.284a4.727 4.727 0 0 1-2.542.603 3.146 3.146 0 0 1-2.437-.957 3.832 3.832 0 0 1-.885-2.697 3.743 3.743 0 0 1 .971-2.677 3.186 3.186 0 0 1 2.415-1.035 2.771 2.771 0 0 1 2.233.908c.565.736.846 1.651.79 2.578l.004.626Zm-1.538-1.13a2.06 2.06 0 0 0-.404-1.335 1.368 1.368 0 0 0-1.099-.476 1.546 1.546 0 0 0-1.166.504 2.27 2.27 0 0 0-.586 1.311l3.255-.004ZM51.191 31.913h-1.815l-.908-2.51h-3.83l-.854 2.51H42l3.69-9.854h1.843l3.658 9.854Zm-3.113-3.85-1.362-3.93c-.062-.2-.11-.402-.145-.608a4.01 4.01 0 0 1-.136.617l-1.362 3.93 3.005-.008ZM58.549 31.913h-1.593V27.95c0-1.313-.465-1.97-1.394-1.97a1.526 1.526 0 0 0-1.203.545 2.03 2.03 0 0 0-.453 1.362v4.012h-1.62v-7.013h1.601v1.167h.028a2.506 2.506 0 0 1 2.27-1.335 2.124 2.124 0 0 1 1.751.745 3.35 3.35 0 0 1 .613 2.147v4.303ZM65.798 31.913h-1.526v-1.099h-.045a2.329 2.329 0 0 1-2.138 1.267 2.27 2.27 0 0 1-1.625-.563 1.971 1.971 0 0 1-.585-1.489c0-1.328.765-2.103 2.297-2.324l2.087-.295c0-1.001-.476-1.502-1.43-1.502-.837-.001-1.645.308-2.269.867V25.38a4.943 4.943 0 0 1 2.57-.658c1.775 0 2.664.875 2.664 2.624v4.566Zm-1.526-3.454-1.475.204a2.35 2.35 0 0 0-1.034.331.975.975 0 0 0-.346.854.937.937 0 0 0 .318.73c.239.2.543.301.854.286a1.58 1.58 0 0 0 1.207-.513c.32-.348.49-.807.476-1.28v-.612ZM69.206 31.913h-1.602V21.5h1.602v10.413ZM77.34 24.886l-3.177 8.17c-.66 1.456-1.586 2.184-2.778 2.184a3.33 3.33 0 0 1-.84-.091v-1.325c.22.076.452.117.686.122a1.417 1.417 0 0 0 1.334-.88l.454-1.153-2.769-7.027h1.766l1.675 5.111c.018.064.059.233.122.509h.037c.02-.106.062-.271.122-.495l1.761-5.125h1.607ZM82.464 31.84c-.386.17-.807.25-1.23.231-1.364 0-2.047-.655-2.047-1.965V26.13h-1.175v-1.244h1.175v-1.63l1.594-.453v2.083h1.683v1.248h-1.683v3.518c-.033.32.048.64.226.908a.94.94 0 0 0 .758.268c.253.005.5-.076.7-.232v1.244ZM84.452 23.402a.957.957 0 0 1-.671-.254.835.835 0 0 1-.277-.645.856.856 0 0 1 .277-.653.944.944 0 0 1 .671-.259c.254-.006.5.087.686.259a.854.854 0 0 1 .281.653.843.843 0 0 1-.281.636.967.967 0 0 1-.686.263Zm.79 8.51H83.65v-7.025h1.593v7.026ZM92.191 31.59a3.93 3.93 0 0 1-1.997.486 3.387 3.387 0 0 1-2.528-.98 3.468 3.468 0 0 1-.962-2.538 3.816 3.816 0 0 1 1.035-2.791 3.698 3.698 0 0 1 2.764-1.053 4.034 4.034 0 0 1 1.697.336v1.484a2.569 2.569 0 0 0-1.566-.55 2.179 2.179 0 0 0-1.656.686 2.501 2.501 0 0 0-.645 1.788 2.382 2.382 0 0 0 .608 1.725 2.157 2.157 0 0 0 1.63.631 2.551 2.551 0 0 0 1.62-.613v1.39ZM93.322 31.695V30.22a3.177 3.177 0 0 0 1.97.68c.962 0 1.443-.284 1.443-.853a.672.672 0 0 0-.123-.408 1.175 1.175 0 0 0-.331-.3 2.62 2.62 0 0 0-.495-.236l-.635-.231a6.793 6.793 0 0 1-.781-.363 2.365 2.365 0 0 1-.577-.454 1.642 1.642 0 0 1-.344-.554 2.032 2.032 0 0 1-.118-.722c-.009-.32.075-.634.24-.908.164-.263.384-.486.645-.653.279-.181.585-.316.907-.4.349-.089.707-.133 1.067-.131.594-.01 1.185.09 1.743.295v1.393a2.942 2.942 0 0 0-1.702-.508 2.202 2.202 0 0 0-.545.063 1.4 1.4 0 0 0-.417.173.839.839 0 0 0-.268.263.63.63 0 0 0-.095.34.725.725 0 0 0 .095.386c.073.114.17.208.286.277.143.088.295.161.454.218l.608.218c.277.112.548.237.812.377.226.121.434.274.618.454.166.159.3.35.39.562.096.241.143.5.136.758.009.329-.076.653-.245.936a2.064 2.064 0 0 1-.658.658c-.294.18-.616.31-.953.385a4.947 4.947 0 0 1-1.135.128 4.788 4.788 0 0 1-1.992-.368Z" fill="#465154"/><path d="M17.473 0 0 10v19.962l17.473 10.107 17.473-10V10.04L17.473 0Zm14.23 27.98-14.23 8.235-14.246-8.138v-16.1l14.23-8.235L31.69 12l.015 15.98Z" fill="#0078D4"/><path d="M25.8 23.32a1.627 1.627 0 0 0-.72-.628 12.989 12.989 0 0 0-9.96-7.457l14.418-8.331-3.353-1.923-16.427 9.488a1.669 1.669 0 0 0 .838 3.116c.068-.013.135-.03.2-.05l.277 1.153a9.616 9.616 0 0 1 10.77 5L5.48 33.135l3.338 1.923 16.37-9.462c.218-.13.402-.311.538-.527l.165-.038c0-.066-.038-.123-.053-.189a1.636 1.636 0 0 0-.039-1.523Z" fill="#50E6FF"/><path d="M24.35 20.065a4.12 4.12 0 1 0 0 8.239 4.12 4.12 0 0 0 0-8.239Zm-13.758-8.342a4.12 4.12 0 1 0 0 8.239 4.12 4.12 0 0 0 0-8.239Z" fill="url(#a)"/><defs><linearGradient id="a" x1="17.473" y1="28.3" x2="17.473" y2="11.769" gradientUnits="userSpaceOnUse"><stop stop-color="#198AB3"/><stop offset=".17" stop-color="#32BEDD"/><stop offset=".5" stop-color="#198AB3"/><stop offset=".66" stop-color="#32BEDD"/><stop offset=".97" stop-color="#50E6FF"/></linearGradient></defs></svg>