<svg width="1200" height="368" fill="none" xmlns="http://www.w3.org/2000/svg">
  <g filter="url(#a)">
    <rect x="14" y="98" width="226" height="234" rx="8" fill="#fff"/>
  </g>
  <g filter="url(#b)">
    <rect x="329" y="98" width="225" height="234" rx="8" fill="#fff"/>
  </g>
  <g filter="url(#c)">
    <rect x="643" y="98" width="225" height="234" rx="8" fill="#fff"/>
  </g>
  <g filter="url(#d)">
    <rect x="957" y="98" width="226" height="234" rx="8" fill="#fff"/>
  </g>
  <path d="M482.945 54.025c-2.24 2.263-5.098 3.395-8.575 3.395-3.477 0-6.335-1.132-8.575-3.395-2.24-2.287-3.36-5.18-3.36-8.68s1.12-6.382 3.36-8.645c2.24-2.287 5.098-3.43 8.575-3.43 3.477 0 6.335 1.143 8.575 3.43 2.24 2.263 3.36 5.145 3.36 8.645s-1.12 6.393-3.36 8.68Zm-8.575-.245c2.31 0 4.177-.793 5.6-2.38 1.423-1.61 2.135-3.628 2.135-6.055 0-2.45-.712-4.468-2.135-6.055-1.423-1.587-3.29-2.38-5.6-2.38-2.333 0-4.212.793-5.635 2.38-1.4 1.587-2.1 3.605-2.1 6.055 0 2.45.7 4.468 2.1 6.055 1.423 1.587 3.302 2.38 5.635 2.38Zm25.993 3.64c-3.314 0-5.834-.863-7.56-2.59-1.704-1.727-2.555-4.072-2.555-7.035v-14.14h4.13v14c0 1.89.513 3.383 1.54 4.48 1.05 1.097 2.531 1.645 4.445 1.645 1.913 0 3.383-.548 4.41-1.645 1.026-1.097 1.54-2.59 1.54-4.48v-14h4.13V47.76c0 2.987-.864 5.343-2.59 7.07-1.704 1.727-4.2 2.59-7.49 2.59Zm33.101-.42h-4.725l-5.18-8.715h-4.06V57h-4.095V33.655h10.255c2.287 0 4.13.677 5.53 2.03 1.4 1.353 2.1 3.115 2.1 5.285 0 1.96-.537 3.535-1.61 4.725-1.073 1.167-2.38 1.878-3.92 2.135l5.705 9.17Zm-8.365-12.32c1.167 0 2.123-.338 2.87-1.015.747-.677 1.12-1.575 1.12-2.695 0-1.12-.373-2.018-1.12-2.695-.747-.677-1.703-1.015-2.87-1.015h-5.6v7.42h5.6ZM567.371 57h-4.655l-1.715-4.48h-10.71L548.576 57h-4.655l9.17-23.345h5.11L567.371 57Zm-7.525-8.085-4.2-11.13-4.2 11.13h8.4ZM574.016 57h-4.095V33.655h10.255c2.356 0 4.211.7 5.565 2.1 1.376 1.4 2.065 3.138 2.065 5.215 0 2.053-.689 3.792-2.065 5.215-1.354 1.4-3.209 2.1-5.565 2.1h-6.16V57Zm5.6-12.32c1.166 0 2.123-.338 2.87-1.015.746-.677 1.12-1.575 1.12-2.695 0-1.12-.374-2.018-1.12-2.695-.747-.677-1.704-1.015-2.87-1.015h-5.6v7.42h5.6ZM595.309 57h-4.095V33.655h10.255c2.357 0 4.212.7 5.565 2.1 1.377 1.4 2.065 3.138 2.065 5.215 0 2.053-.688 3.792-2.065 5.215-1.353 1.4-3.208 2.1-5.565 2.1h-6.16V57Zm5.6-12.32c1.167 0 2.124-.338 2.87-1.015.747-.677 1.12-1.575 1.12-2.695 0-1.12-.373-2.018-1.12-2.695-.746-.677-1.703-1.015-2.87-1.015h-5.6v7.42h5.6ZM630.568 57h-4.725l-5.18-8.715h-4.06V57h-4.095V33.655h10.255c2.287 0 4.13.677 5.53 2.03 1.4 1.353 2.1 3.115 2.1 5.285 0 1.96-.536 3.535-1.61 4.725-1.073 1.167-2.38 1.878-3.92 2.135l5.705 9.17Zm-8.365-12.32c1.167 0 2.124-.338 2.87-1.015.747-.677 1.12-1.575 1.12-2.695 0-1.12-.373-2.018-1.12-2.695-.746-.677-1.703-1.015-2.87-1.015h-5.6v7.42h5.6Zm31.743 9.345c-2.24 2.263-5.098 3.395-8.575 3.395-3.477 0-6.335-1.132-8.575-3.395-2.24-2.287-3.36-5.18-3.36-8.68s1.12-6.382 3.36-8.645c2.24-2.287 5.098-3.43 8.575-3.43 3.477 0 6.335 1.143 8.575 3.43 2.24 2.263 3.36 5.145 3.36 8.645s-1.12 6.393-3.36 8.68Zm-8.575-.245c2.31 0 4.177-.793 5.6-2.38 1.423-1.61 2.135-3.628 2.135-6.055 0-2.45-.712-4.468-2.135-6.055-1.423-1.587-3.29-2.38-5.6-2.38-2.333 0-4.212.793-5.635 2.38-1.4 1.587-2.1 3.605-2.1 6.055 0 2.45.7 4.468 2.1 6.055 1.423 1.587 3.302 2.38 5.635 2.38ZM681.018 57h-4.655l-1.715-4.48h-10.71L662.223 57h-4.655l9.17-23.345h5.11L681.018 57Zm-7.525-8.085-4.2-11.13-4.2 11.13h8.4Zm20.045 8.505c-3.5 0-6.417-1.12-8.75-3.36-2.334-2.263-3.5-5.168-3.5-8.715 0-3.547 1.166-6.44 3.5-8.68 2.333-2.263 5.25-3.395 8.75-3.395 4.06 0 7.186 1.75 9.38 5.25l-3.5 1.785c-.584-1.003-1.412-1.82-2.485-2.45a6.484 6.484 0 0 0-3.395-.945c-2.31 0-4.235.793-5.775 2.38-1.517 1.587-2.275 3.605-2.275 6.055 0 2.45.758 4.468 2.275 6.055 1.54 1.587 3.465 2.38 5.775 2.38 1.236 0 2.38-.315 3.43-.945 1.05-.63 1.866-1.447 2.45-2.45l3.5 1.785c-2.24 3.5-5.367 5.25-9.38 5.25ZM726.53 57h-4.095V46.815H710.29V57h-4.095V33.655h4.095v9.555h12.145v-9.555h4.095V57Zm8.458-12.985c-.49.49-1.062.735-1.715.735s-1.225-.245-1.715-.735-.735-1.062-.735-1.715.245-1.225.735-1.715 1.062-.735 1.715-.735 1.225.245 1.715.735.735 1.062.735 1.715-.245 1.225-.735 1.715Zm0 12.67c-.49.467-1.062.7-1.715.7s-1.225-.233-1.715-.7c-.49-.49-.735-1.073-.735-1.75s.245-1.248.735-1.715c.49-.49 1.062-.735 1.715-.735s1.225.245 1.715.735c.49.467.735 1.038.735 1.715s-.245 1.26-.735 1.75Z" fill="#103654"/>
  <rect x="98" y="147" width="58" height="37" rx="2" fill="#92C9EC"/>
  <rect x="99" y="185" width="56" height="33" rx="1" stroke="#103654" stroke-width="2" stroke-miterlimit="3.864" stroke-dasharray="5 4"/>
  <path stroke="#fff" stroke-width="2" d="M107 162h15M107 169h15M107 155h15M107 184h41M107 177h41"/>
  <path fill="#fff" d="M127 154h21v16h-21z"/>
  <path d="m91 184 72 .055" stroke="#103654" stroke-width="4"/>
  <path stroke="#103654" stroke-width="2" d="M107 206h5M116 206h5M125 206h5M134 206h7M107 199h5M116 199h7M127 199h6M107 192h5M116 192h5M125 192h5M134 192h9"/>
  <path d="M61.937 271c4.992 0 8.304-3.36 8.304-7.992 0-4.608-3.312-8.016-8.304-8.016h-5.712V271h5.712Zm-3.312-13.896h3.312c3.768 0 5.832 2.616 5.832 5.904 0 3.24-2.136 5.88-5.832 5.88h-3.312v-11.784ZM82.411 271v-7.824c0-2.952-2.136-4.056-4.656-4.056-1.872 0-3.456.624-4.752 1.896l.936 1.488c1.032-1.032 2.16-1.536 3.48-1.536 1.656 0 2.832.864 2.832 2.304v1.92c-.888-1.032-2.232-1.536-3.792-1.536-1.944 0-4.032 1.152-4.032 3.792 0 2.544 2.112 3.84 4.032 3.84 1.56 0 2.88-.552 3.792-1.56V271h2.16Zm-2.16-2.544c-.648.864-1.776 1.32-2.976 1.32-1.56 0-2.664-.936-2.664-2.304 0-1.368 1.104-2.304 2.664-2.304 1.2 0 2.328.456 2.976 1.32v1.968Zm8.813 2.832c1.129 0 1.8-.312 2.257-.744l-.552-1.632c-.217.24-.672.456-1.177.456-.743 0-1.127-.6-1.127-1.416v-6.648h2.352v-1.896h-2.352v-3.168h-2.16v3.168h-1.92v1.896h1.92v7.128c0 1.824.935 2.856 2.76 2.856ZM102.52 271v-7.824c0-2.952-2.136-4.056-4.655-4.056-1.872 0-3.456.624-4.752 1.896l.936 1.488c1.031-1.032 2.16-1.536 3.48-1.536 1.656 0 2.831.864 2.831 2.304v1.92c-.888-1.032-2.231-1.536-3.791-1.536-1.945 0-4.032 1.152-4.032 3.792 0 2.544 2.111 3.84 4.031 3.84 1.56 0 2.88-.552 3.792-1.56V271h2.16Zm-2.16-2.544c-.647.864-1.775 1.32-2.975 1.32-1.56 0-2.665-.936-2.665-2.304 0-1.368 1.105-2.304 2.665-2.304 1.2 0 2.328.456 2.975 1.32v1.968Zm11.089-3.264c0 3.48 2.4 6.096 5.904 6.096 2.184 0 3.504-.912 4.344-2.04l-1.44-1.32c-.696.96-1.632 1.44-2.808 1.44-2.28 0-3.744-1.776-3.744-4.176 0-2.4 1.464-4.152 3.744-4.152 1.176 0 2.112.456 2.808 1.44l1.44-1.32c-.84-1.128-2.16-2.04-4.344-2.04-3.504 0-5.904 2.592-5.904 6.072ZM126.236 271v-8.064c.504-.864 1.968-1.68 3.048-1.68.288 0 .528.024.744.072v-2.184c-1.536 0-2.904.888-3.792 2.04v-1.776h-2.16V271h2.16Zm15.261 0v-7.824c0-2.952-2.136-4.056-4.656-4.056-1.872 0-3.456.624-4.752 1.896l.936 1.488c1.032-1.032 2.16-1.536 3.48-1.536 1.656 0 2.832.864 2.832 2.304v1.92c-.888-1.032-2.232-1.536-3.792-1.536-1.944 0-4.032 1.152-4.032 3.792 0 2.544 2.112 3.84 4.032 3.84 1.56 0 2.88-.552 3.792-1.56V271h2.16Zm-2.16-2.544c-.648.864-1.776 1.32-2.976 1.32-1.56 0-2.664-.936-2.664-2.304 0-1.368 1.104-2.304 2.664-2.304 1.2 0 2.328.456 2.976 1.32v1.968ZM157.246 271l3.648-11.592h-2.256l-2.64 8.832-2.904-8.832h-1.872l-2.904 8.832-2.64-8.832h-2.256L147.07 271h2.232l2.856-8.904 2.856 8.904h2.232Zm7.732 0v-16.008h-2.16V271h2.16Zm4.497-13.536c.768 0 1.392-.6 1.392-1.368 0-.768-.624-1.392-1.392-1.392-.744 0-1.392.624-1.392 1.392 0 .768.648 1.368 1.392 1.368ZM170.579 271v-11.592h-2.16V271h2.16Zm13.426 0v-8.136c0-2.448-1.272-3.744-3.72-3.744-1.8 0-3.336.984-4.104 1.92v-1.632h-2.16V271h2.16v-8.28c.624-.864 1.848-1.68 3.192-1.68 1.488 0 2.472.624 2.472 2.544V271h2.16Zm3.326 2.976c1.392 1.32 2.808 1.728 4.752 1.728 2.856 0 5.76-1.176 5.76-5.16v-11.136h-2.16v1.68c-.936-1.248-2.304-1.968-3.816-1.968-3 0-5.16 2.256-5.16 5.976 0 3.792 2.16 6 5.16 6 1.56 0 2.928-.84 3.816-1.992v1.512c0 2.448-1.8 3.312-3.6 3.312-1.584 0-2.76-.432-3.72-1.536l-1.032 1.584Zm8.352-6.528c-.6.936-1.92 1.728-3.216 1.728-2.16 0-3.504-1.68-3.504-4.08 0-2.376 1.344-4.056 3.504-4.056 1.296 0 2.616.768 3.216 1.704v4.704Z" fill="#103654"/>
  <g clip-path="url(#e)" fill="#92C9EC">
    <path d="m476.184 198.848-3.659-1.905 1.24-3.945a1.517 1.517 0 0 0-.378-1.527l-2.676-2.676a1.517 1.517 0 0 0-1.527-.378l-3.945 1.24-1.905-3.659a1.507 1.507 0 0 0-1.346-.816h-3.794c-.56 0-1.089.317-1.346.816l-1.905 3.659-3.945-1.24a1.483 1.483 0 0 0-1.512.378l-2.691 2.676a1.517 1.517 0 0 0-.378 1.527l1.24 3.945-3.659 1.905a1.507 1.507 0 0 0-.816 1.346v3.794c0 .56.317 1.089.816 1.346l3.659 1.904-1.24 3.931a1.501 1.501 0 0 0 .378 1.527l2.691 2.691c.393.408.983.544 1.512.378l3.945-1.24 1.905 3.659c.257.498.786.816 1.346.816h3.794c.575 0 1.089-.318 1.346-.816l1.905-3.659 3.945 1.24c.529.166 1.119.03 1.527-.378l2.676-2.691c.408-.393.544-.983.378-1.527l-1.24-3.931 3.659-1.904c.499-.257.816-.786.816-1.346v-3.794c0-.575-.318-1.089-.816-1.346Zm-16.086 10.114a6.884 6.884 0 0 1-6.878-6.879c0-3.779 3.084-6.863 6.878-6.863 3.78 0 6.864 3.084 6.864 6.863 0 3.795-3.084 6.879-6.864 6.879ZM450.985 181.976l1.929-5.307c.181-.542.076-1.13-.316-1.537l-4.567-4.99 4.1-5.367c.346-.452.407-1.04.181-1.552l-2.397-5.126a1.524 1.524 0 0 0-1.311-.874l-6.752-.286-.889-6.694a1.5 1.5 0 0 0-.98-1.221l-5.32-1.929a1.515 1.515 0 0 0-1.537.301l-4.974 4.583-5.38-4.115a1.487 1.487 0 0 0-1.553-.166l-5.124 2.397a1.478 1.478 0 0 0-.859 1.296l-.287 6.769-6.706.889a1.518 1.518 0 0 0-1.221.98l-1.929 5.321a1.482 1.482 0 0 0 .301 1.523l4.582 4.99-4.115 5.366c-.331.452-.406 1.055-.165 1.553l2.396 5.125c.241.513.739.844 1.311.874l6.752.287.889 6.708c.076.558.453 1.025.98 1.221l5.32 1.914a1.517 1.517 0 0 0 1.538-.301l4.973-4.583 5.381 4.116a1.48 1.48 0 0 0 1.552.165l5.124-2.396c.498-.227.844-.739.859-1.297l.287-6.753 6.706-.905c.558-.06 1.025-.452 1.221-.979Zm-17.965-2.382a9.477 9.477 0 0 1-4.009.889 9.523 9.523 0 0 1-8.591-5.457 9.456 9.456 0 0 1-.331-7.251 9.446 9.446 0 0 1 4.898-5.351 9.273 9.273 0 0 1 4.009-.905c3.662 0 7.038 2.156 8.591 5.472 2.215 4.734.166 10.387-4.567 12.603Z"/>
  </g>
  <path d="M352.014 271c4.992 0 8.304-3.36 8.304-7.992 0-4.608-3.312-8.016-8.304-8.016h-5.712V271h5.712Zm-3.312-13.896h3.312c3.768 0 5.832 2.616 5.832 5.904 0 3.24-2.136 5.88-5.832 5.88h-3.312v-11.784ZM372.248 271v-7.824c0-2.952-2.136-4.056-4.656-4.056-1.872 0-3.456.624-4.752 1.896l.936 1.488c1.032-1.032 2.16-1.536 3.48-1.536 1.656 0 2.832.864 2.832 2.304v1.92c-.888-1.032-2.232-1.536-3.792-1.536-1.944 0-4.032 1.152-4.032 3.792 0 2.544 2.112 3.84 4.032 3.84 1.56 0 2.88-.552 3.792-1.56V271h2.16Zm-2.16-2.544c-.648.864-1.776 1.32-2.976 1.32-1.56 0-2.664-.936-2.664-2.304 0-1.368 1.104-2.304 2.664-2.304 1.2 0 2.328.456 2.976 1.32v1.968Zm8.573 2.832c1.128 0 1.8-.312 2.256-.744l-.552-1.632c-.216.24-.672.456-1.176.456-.744 0-1.128-.6-1.128-1.416v-6.648h2.352v-1.896h-2.352v-3.168h-2.16v3.168h-1.92v1.896h1.92v7.128c0 1.824.936 2.856 2.76 2.856Zm13.216-.288v-7.824c0-2.952-2.136-4.056-4.656-4.056-1.872 0-3.456.624-4.752 1.896l.936 1.488c1.032-1.032 2.16-1.536 3.48-1.536 1.656 0 2.832.864 2.832 2.304v1.92c-.888-1.032-2.232-1.536-3.792-1.536-1.944 0-4.032 1.152-4.032 3.792 0 2.544 2.112 3.84 4.032 3.84 1.56 0 2.88-.552 3.792-1.56V271h2.16Zm-2.16-2.544c-.648.864-1.776 1.32-2.976 1.32-1.56 0-2.664-.936-2.664-2.304 0-1.368 1.104-2.304 2.664-2.304 1.2 0 2.328.456 2.976 1.32v1.968Zm10.609-3.264c0 3.48 2.4 6.096 5.904 6.096 2.184 0 3.504-.912 4.344-2.04l-1.44-1.32c-.696.96-1.632 1.44-2.808 1.44-2.28 0-3.744-1.776-3.744-4.176 0-2.4 1.464-4.152 3.744-4.152 1.176 0 2.112.456 2.808 1.44l1.44-1.32c-.84-1.128-2.16-2.04-4.344-2.04-3.504 0-5.904 2.592-5.904 6.072ZM414.873 271v-16.008h-2.16V271h2.16Zm12.513 0v-7.824c0-2.952-2.136-4.056-4.656-4.056-1.872 0-3.456.624-4.752 1.896l.936 1.488c1.032-1.032 2.16-1.536 3.48-1.536 1.656 0 2.832.864 2.832 2.304v1.92c-.888-1.032-2.232-1.536-3.792-1.536-1.944 0-4.032 1.152-4.032 3.792 0 2.544 2.112 3.84 4.032 3.84 1.56 0 2.88-.552 3.792-1.56V271h2.16Zm-2.16-2.544c-.648.864-1.776 1.32-2.976 1.32-1.56 0-2.664-.936-2.664-2.304 0-1.368 1.104-2.304 2.664-2.304 1.2 0 2.328.456 2.976 1.32v1.968Zm4.374 1.032c1.176 1.2 2.88 1.8 4.824 1.8 3.048 0 4.68-1.56 4.68-3.552 0-2.664-2.4-3.216-4.416-3.672-1.44-.336-2.688-.672-2.688-1.68 0-.936.912-1.512 2.376-1.512s2.76.6 3.432 1.416l.96-1.512c-.984-.936-2.424-1.656-4.416-1.656-2.832 0-4.416 1.584-4.416 3.432 0 2.496 2.304 3.024 4.272 3.48 1.488.336 2.808.72 2.808 1.872 0 .984-.864 1.656-2.496 1.656-1.56 0-3.096-.792-3.888-1.656l-1.032 1.584Zm10.986 0c1.176 1.2 2.88 1.8 4.824 1.8 3.048 0 4.68-1.56 4.68-3.552 0-2.664-2.4-3.216-4.416-3.672-1.44-.336-2.688-.672-2.688-1.68 0-.936.912-1.512 2.376-1.512s2.76.6 3.432 1.416l.96-1.512c-.984-.936-2.424-1.656-4.416-1.656-2.832 0-4.416 1.584-4.416 3.432 0 2.496 2.304 3.024 4.272 3.48 1.488.336 2.808.72 2.808 1.872 0 .984-.864 1.656-2.496 1.656-1.56 0-3.096-.792-3.888-1.656l-1.032 1.584Zm13.051-12.024c.768 0 1.392-.6 1.392-1.368 0-.768-.624-1.392-1.392-1.392-.744 0-1.392.624-1.392 1.392 0 .768.648 1.368 1.392 1.368ZM454.741 271v-11.592h-2.16V271h2.16Zm11.361-13.536c.768 0 1.392-.6 1.392-1.368 0-.768-.624-1.392-1.392-1.392-.744 0-1.392.624-1.392 1.392 0 .768.648 1.368 1.392 1.368Zm-5.472 3.84h2.352v-1.896h-2.352v-.768c0-1.392.648-2.112 1.728-2.112.432 0 .768.096 1.032.264l.504-1.608c-.504-.288-1.152-.432-1.896-.432-2.064 0-3.528 1.392-3.528 3.888v.768h-1.92v1.896h1.92V271h2.16v-9.696Zm6.576 9.696v-11.592h-2.16V271h2.16Zm2.479-5.808c0 3.48 2.4 6.096 5.904 6.096 2.184 0 3.504-.912 4.344-2.04l-1.44-1.32c-.696.96-1.632 1.44-2.808 1.44-2.28 0-3.744-1.776-3.744-4.176 0-2.4 1.464-4.152 3.744-4.152 1.176 0 2.112.456 2.808 1.44l1.44-1.32c-.84-1.128-2.16-2.04-4.344-2.04-3.504 0-5.904 2.592-5.904 6.072ZM491.384 271v-7.824c0-2.952-2.136-4.056-4.656-4.056-1.872 0-3.456.624-4.752 1.896l.936 1.488c1.032-1.032 2.16-1.536 3.48-1.536 1.656 0 2.832.864 2.832 2.304v1.92c-.888-1.032-2.232-1.536-3.792-1.536-1.944 0-4.032 1.152-4.032 3.792 0 2.544 2.112 3.84 4.032 3.84 1.56 0 2.88-.552 3.792-1.56V271h2.16Zm-2.16-2.544c-.648.864-1.776 1.32-2.976 1.32-1.56 0-2.664-.936-2.664-2.304 0-1.368 1.104-2.304 2.664-2.304 1.2 0 2.328.456 2.976 1.32v1.968Zm8.573 2.832c1.128 0 1.8-.312 2.256-.744l-.552-1.632c-.216.24-.672.456-1.176.456-.744 0-1.128-.6-1.128-1.416v-6.648h2.352v-1.896h-2.352v-3.168h-2.16v3.168h-1.92v1.896h1.92v7.128c0 1.824.936 2.856 2.76 2.856Zm4.96-13.824c.768 0 1.392-.6 1.392-1.368 0-.768-.624-1.392-1.392-1.392-.744 0-1.392.624-1.392 1.392 0 .768.648 1.368 1.392 1.368ZM503.861 271v-11.592h-2.16V271h2.16Zm8.338.288c3.624 0 5.856-2.736 5.856-6.096 0-3.336-2.232-6.072-5.856-6.072-3.6 0-5.856 2.736-5.856 6.072 0 3.36 2.256 6.096 5.856 6.096Zm0-1.92c-2.304 0-3.6-1.968-3.6-4.176 0-2.184 1.296-4.152 3.6-4.152 2.328 0 3.6 1.968 3.6 4.152 0 2.208-1.272 4.176-3.6 4.176ZM530.541 271v-8.136c0-2.448-1.272-3.744-3.72-3.744-1.8 0-3.336.984-4.104 1.92v-1.632h-2.16V271h2.16v-8.28c.624-.864 1.848-1.68 3.192-1.68 1.488 0 2.472.624 2.472 2.544V271h2.16Zm3.83 3.12c1.224-.864 2.112-2.304 2.112-3.864 0-1.272-.792-1.992-1.68-1.992-.816 0-1.464.648-1.464 1.464 0 .792.552 1.368 1.296 1.368.12 0 .312-.048.36-.048-.12.792-.864 1.752-1.632 2.232l1.008.84Zm-191.919 20.072c0 3.648 2.544 6.096 6 6.096 1.872 0 3.504-.6 4.656-1.728l-1.008-1.416c-.864.888-2.208 1.368-3.432 1.368-2.328 0-3.768-1.632-3.936-3.6h9.168v-.528c0-3.552-2.16-6.264-5.64-6.264-3.384 0-5.808 2.712-5.808 6.072Zm5.808-4.296c2.448 0 3.48 1.92 3.528 3.456h-7.08c.12-1.584 1.224-3.456 3.552-3.456ZM366.346 300v-8.136c0-2.448-1.272-3.744-3.72-3.744-1.8 0-3.336.984-4.104 1.92v-1.632h-2.16V300h2.16v-8.28c.624-.864 1.848-1.68 3.192-1.68 1.488 0 2.472.624 2.472 2.544V300h2.16Zm6.374.288c1.128 0 1.8-.312 2.256-.744l-.552-1.632c-.216.24-.672.456-1.176.456-.744 0-1.128-.6-1.128-1.416v-6.648h2.352v-1.896h-2.352v-3.168h-2.16v3.168h-1.92v1.896h1.92v7.128c0 1.824.936 2.856 2.76 2.856Zm4.96-13.824c.768 0 1.392-.6 1.392-1.368 0-.768-.624-1.392-1.392-1.392-.744 0-1.392.624-1.392 1.392 0 .768.648 1.368 1.392 1.368ZM378.784 300v-11.592h-2.16V300h2.16Zm6.394.288c1.127 0 1.799-.312 2.256-.744l-.552-1.632c-.216.24-.673.456-1.176.456-.745 0-1.129-.6-1.129-1.416v-6.648h2.353v-1.896h-2.353v-3.168h-2.16v3.168h-1.92v1.896h1.92v7.128c0 1.824.936 2.856 2.761 2.856Zm4.959-13.824c.768 0 1.392-.6 1.392-1.368 0-.768-.624-1.392-1.392-1.392-.744 0-1.392.624-1.392 1.392 0 .768.648 1.368 1.392 1.368ZM391.241 300v-11.592h-2.16V300h2.16Zm2.482-5.808c0 3.648 2.544 6.096 6 6.096 1.872 0 3.504-.6 4.656-1.728l-1.008-1.416c-.864.888-2.208 1.368-3.432 1.368-2.328 0-3.768-1.632-3.936-3.6h9.168v-.528c0-3.552-2.16-6.264-5.64-6.264-3.384 0-5.808 2.712-5.808 6.072Zm5.808-4.296c2.448 0 3.48 1.92 3.528 3.456h-7.08c.12-1.584 1.224-3.456 3.552-3.456Zm7.094 8.592c1.176 1.2 2.88 1.8 4.824 1.8 3.048 0 4.68-1.56 4.68-3.552 0-2.664-2.4-3.216-4.416-3.672-1.44-.336-2.688-.672-2.688-1.68 0-.936.912-1.512 2.376-1.512s2.76.6 3.432 1.416l.96-1.512c-.984-.936-2.424-1.656-4.416-1.656-2.832 0-4.416 1.584-4.416 3.432 0 2.496 2.304 3.024 4.272 3.48 1.488.336 2.808.72 2.808 1.872 0 .984-.864 1.656-2.496 1.656-1.56 0-3.096-.792-3.888-1.656l-1.032 1.584ZM426.727 300v-8.064c.504-.864 1.968-1.68 3.048-1.68.288 0 .528.024.744.072v-2.184c-1.536 0-2.904.888-3.792 2.04v-1.776h-2.16V300h2.16Zm4.989-5.808c0 3.648 2.544 6.096 6 6.096 1.872 0 3.504-.6 4.656-1.728l-1.008-1.416c-.864.888-2.208 1.368-3.432 1.368-2.328 0-3.768-1.632-3.936-3.6h9.168v-.528c0-3.552-2.16-6.264-5.64-6.264-3.384 0-5.808 2.712-5.808 6.072Zm5.808-4.296c2.448 0 3.48 1.92 3.528 3.456h-7.08c.12-1.584 1.224-3.456 3.552-3.456Zm7.382 4.296c0 3.48 2.4 6.096 5.904 6.096 2.184 0 3.504-.912 4.344-2.04l-1.44-1.32c-.696.96-1.632 1.44-2.808 1.44-2.28 0-3.744-1.776-3.744-4.176 0-2.4 1.464-4.152 3.744-4.152 1.176 0 2.112.456 2.808 1.44l1.44-1.32c-.84-1.128-2.16-2.04-4.344-2.04-3.504 0-5.904 2.592-5.904 6.072Zm17.522 6.096c3.624 0 5.856-2.736 5.856-6.096 0-3.336-2.232-6.072-5.856-6.072-3.6 0-5.856 2.736-5.856 6.072 0 3.36 2.256 6.096 5.856 6.096Zm0-1.92c-2.304 0-3.6-1.968-3.6-4.176 0-2.184 1.296-4.152 3.6-4.152 2.328 0 3.6 1.968 3.6 4.152 0 2.208-1.272 4.176-3.6 4.176Zm8.262 4.608c1.392 1.32 2.808 1.728 4.752 1.728 2.856 0 5.76-1.176 5.76-5.16v-11.136h-2.16v1.68c-.936-1.248-2.304-1.968-3.816-1.968-3 0-5.16 2.256-5.16 5.976 0 3.792 2.16 6 5.16 6 1.56 0 2.928-.84 3.816-1.992v1.512c0 2.448-1.8 3.312-3.6 3.312-1.584 0-2.76-.432-3.72-1.536l-1.032 1.584Zm8.352-6.528c-.6.936-1.92 1.728-3.216 1.728-2.16 0-3.504-1.68-3.504-4.08 0-2.376 1.344-4.056 3.504-4.056 1.296 0 2.616.768 3.216 1.704v4.704Zm15.34 3.552v-8.136c0-2.448-1.272-3.744-3.72-3.744-1.8 0-3.336.984-4.104 1.92v-1.632h-2.16V300h2.16v-8.28c.624-.864 1.848-1.68 3.192-1.68 1.488 0 2.472.624 2.472 2.544V300h2.16Zm4.238-13.536c.768 0 1.392-.6 1.392-1.368 0-.768-.624-1.392-1.392-1.392-.744 0-1.392.624-1.392 1.392 0 .768.648 1.368 1.392 1.368ZM499.724 300v-11.592h-2.16V300h2.16Zm6.394.288c1.128 0 1.8-.312 2.256-.744l-.552-1.632c-.216.24-.672.456-1.176.456-.744 0-1.128-.6-1.128-1.416v-6.648h2.352v-1.896h-2.352v-3.168h-2.16v3.168h-1.92v1.896h1.92v7.128c0 1.824.936 2.856 2.76 2.856Zm4.96-13.824c.768 0 1.392-.6 1.392-1.368 0-.768-.624-1.392-1.392-1.392-.744 0-1.392.624-1.392 1.392 0 .768.648 1.368 1.392 1.368ZM512.182 300v-11.592h-2.16V300h2.16Zm8.337.288c3.624 0 5.856-2.736 5.856-6.096 0-3.336-2.232-6.072-5.856-6.072-3.6 0-5.856 2.736-5.856 6.072 0 3.36 2.256 6.096 5.856 6.096Zm0-1.92c-2.304 0-3.6-1.968-3.6-4.176 0-2.184 1.296-4.152 3.6-4.152 2.328 0 3.6 1.968 3.6 4.152 0 2.208-1.272 4.176-3.6 4.176ZM538.862 300v-8.136c0-2.448-1.272-3.744-3.72-3.744-1.8 0-3.336.984-4.104 1.92v-1.632h-2.16V300h2.16v-8.28c.624-.864 1.848-1.68 3.192-1.68 1.488 0 2.472.624 2.472 2.544V300h2.16Z" fill="#103654"/>
  <path fill-rule="evenodd" clip-rule="evenodd" d="M786 147h-60c-3.308 0-6 2.692-6 6v45c0 3.308 2.692 6 6 6h60c3.308 0 6-2.692 6-6v-45c0-3.308-2.692-6-6-6Zm-63.6 6c0-1.985 1.615-3.6 3.6-3.6h60c1.985 0 3.6 1.615 3.6 3.6v42h-67.2v-42Z" fill="#92C9EC"/>
  <path d="M759 207h-6v6h-10.2a3.604 3.604 0 0 0-3.6 3.6v1.2c0 .664.536 1.2 1.2 1.2h31.2c.664 0 1.2-.536 1.2-1.2v-1.2c0-1.985-1.615-3.6-3.6-3.6H759v-6Z" fill="#92C9EC"/>
  <rect x="740" y="153" width="32" height="4" rx="2" fill="#103654"/>
  <path d="M746.727 167.296a9.503 9.503 0 0 0-13.942 5.828 9.504 9.504 0 0 0 3.829 10.24 9.501 9.501 0 0 0 14.346-4.749l-8.983-3.092 4.75-8.227Z" fill="#92C9EC"/>
  <path d="M750.204 180.273a9.503 9.503 0 0 0-.69-10.533 9.473 9.473 0 0 0-2.787-2.444l-4.75 8.227 8.227 4.75ZM762.075 180.89a9.502 9.502 0 0 0 17.722-2.439 9.495 9.495 0 0 0-2.509-8.598 9.5 9.5 0 0 0-3.935-2.414L770.5 176.5l-8.425 4.39Z" fill="#EAF5FB"/>
  <path d="M762.656 171.141a9.493 9.493 0 0 0-1.107 8.54 9.503 9.503 0 0 0 10.671 6.162 9.506 9.506 0 0 0 6.843-5.229 9.511 9.511 0 0 0 .935-4.328l-9.498.214-7.844-5.359Z" fill="#92C9EC"/>
  <path d="M774.106 167.711a9.498 9.498 0 0 0-11.603 3.661l7.997 5.128 3.606-8.789Z" fill="#6E93AA"/>
  <path d="M690.3 271c4.992 0 8.304-3.36 8.304-7.992 0-4.608-3.312-8.016-8.304-8.016h-5.712V271h5.712Zm-3.312-13.896h3.312c3.768 0 5.832 2.616 5.832 5.904 0 3.24-2.136 5.88-5.832 5.88h-3.312v-11.784ZM710.534 271v-7.824c0-2.952-2.136-4.056-4.656-4.056-1.872 0-3.456.624-4.752 1.896l.936 1.488c1.032-1.032 2.16-1.536 3.48-1.536 1.656 0 2.832.864 2.832 2.304v1.92c-.888-1.032-2.232-1.536-3.792-1.536-1.944 0-4.032 1.152-4.032 3.792 0 2.544 2.112 3.84 4.032 3.84 1.56 0 2.88-.552 3.792-1.56V271h2.16Zm-2.16-2.544c-.648.864-1.776 1.32-2.976 1.32-1.56 0-2.664-.936-2.664-2.304 0-1.368 1.104-2.304 2.664-2.304 1.2 0 2.328.456 2.976 1.32v1.968Zm8.574 2.832c1.128 0 1.8-.312 2.256-.744l-.552-1.632c-.216.24-.672.456-1.176.456-.744 0-1.128-.6-1.128-1.416v-6.648h2.352v-1.896h-2.352v-3.168h-2.16v3.168h-1.92v1.896h1.92v7.128c0 1.824.936 2.856 2.76 2.856Zm13.215-.288v-7.824c0-2.952-2.136-4.056-4.656-4.056-1.872 0-3.456.624-4.752 1.896l.936 1.488c1.032-1.032 2.16-1.536 3.48-1.536 1.656 0 2.832.864 2.832 2.304v1.92c-.888-1.032-2.232-1.536-3.792-1.536-1.944 0-4.032 1.152-4.032 3.792 0 2.544 2.112 3.84 4.032 3.84 1.56 0 2.88-.552 3.792-1.56V271h2.16Zm-2.16-2.544c-.648.864-1.776 1.32-2.976 1.32-1.56 0-2.664-.936-2.664-2.304 0-1.368 1.104-2.304 2.664-2.304 1.2 0 2.328.456 2.976 1.32v1.968ZM755.58 271v-8.376c0-2.328-1.152-3.504-3.288-3.504-1.704 0-3.24 1.08-3.912 2.16-.36-1.248-1.392-2.16-3.144-2.16-1.728 0-3.264 1.2-3.744 1.92v-1.632h-2.16V271h2.16v-8.28c.576-.84 1.704-1.68 2.832-1.68 1.464 0 2.04.888 2.04 2.232V271h2.16v-8.304c.552-.84 1.704-1.656 2.88-1.656 1.416 0 2.016.888 2.016 2.232V271h2.16Zm12.512 0v-7.824c0-2.952-2.136-4.056-4.656-4.056-1.872 0-3.456.624-4.752 1.896l.936 1.488c1.032-1.032 2.16-1.536 3.48-1.536 1.656 0 2.832.864 2.832 2.304v1.92c-.888-1.032-2.232-1.536-3.792-1.536-1.944 0-4.032 1.152-4.032 3.792 0 2.544 2.112 3.84 4.032 3.84 1.56 0 2.88-.552 3.792-1.56V271h2.16Zm-2.16-2.544c-.648.864-1.776 1.32-2.976 1.32-1.56 0-2.664-.936-2.664-2.304 0-1.368 1.104-2.304 2.664-2.304 1.2 0 2.328.456 2.976 1.32v1.968Zm7.541.864c.936 1.272 2.28 1.968 3.792 1.968 3.024 0 5.16-2.304 5.16-6.096 0-3.792-2.136-6.072-5.16-6.072-1.56 0-2.952.792-3.792 1.944v-1.656h-2.16v16.008h2.16v-6.096Zm6.696-4.128c0 2.424-1.32 4.176-3.48 4.176-1.32 0-2.64-.792-3.216-1.704v-4.92c.576-.936 1.896-1.704 3.216-1.704 2.16 0 3.48 1.752 3.48 4.152Zm6.916 4.128c.936 1.272 2.28 1.968 3.792 1.968 3.024 0 5.16-2.304 5.16-6.096 0-3.792-2.136-6.072-5.16-6.072-1.56 0-2.952.792-3.792 1.944v-1.656h-2.16v16.008h2.16v-6.096Zm6.696-4.128c0 2.424-1.32 4.176-3.48 4.176-1.32 0-2.64-.792-3.216-1.704v-4.92c.576-.936 1.896-1.704 3.216-1.704 2.16 0 3.48 1.752 3.48 4.152Zm5.811-7.728c.768 0 1.392-.6 1.392-1.368 0-.768-.624-1.392-1.392-1.392-.744 0-1.392.624-1.392 1.392 0 .768.648 1.368 1.392 1.368ZM800.696 271v-11.592h-2.16V271h2.16Zm13.186 0v-8.136c0-2.448-1.272-3.744-3.72-3.744-1.8 0-3.336.984-4.104 1.92v-1.632h-2.16V271h2.16v-8.28c.624-.864 1.848-1.68 3.192-1.68 1.488 0 2.472.624 2.472 2.544V271h2.16Zm3.086 2.976c1.392 1.32 2.808 1.728 4.752 1.728 2.856 0 5.76-1.176 5.76-5.16v-11.136h-2.16v1.68c-.936-1.248-2.304-1.968-3.816-1.968-3 0-5.16 2.256-5.16 5.976 0 3.792 2.16 6 5.16 6 1.56 0 2.928-.84 3.816-1.992v1.512c0 2.448-1.8 3.312-3.6 3.312-1.584 0-2.76-.432-3.72-1.536l-1.032 1.584Zm8.352-6.528c-.6.936-1.92 1.728-3.216 1.728-2.16 0-3.504-1.68-3.504-4.08 0-2.376 1.344-4.056 3.504-4.056 1.296 0 2.616.768 3.216 1.704v4.704Z" fill="#103654"/>
  <rect x="1034" y="159" width="70" height="48" rx="4" fill="#92C9EC"/>
  <path d="M1067 186v13h18.85m-18.85-5.2 5.35-2.6 4.5 2.6 5.5-5.2 2.25 2.6M1067 166v7.2m29.85 4.8H1067v-4.8m0 0 4.85-1.92 5.5 1.92 4.5-6.72 5 6.72 5-4.32 5 4.32" stroke="#283B48" stroke-width="2" stroke-linejoin="round"/>
  <path d="M1062 199h-6M1054 199h-14M1040 194h6M1049 194h13" stroke="#283B48" stroke-width="2"/>
  <circle cx="1051.5" cy="177.5" r="11.5" stroke="#283B48" stroke-width="2"/>
  <path d="M1058.78 186.284a11.566 11.566 0 0 1-5.18 2.495c-2.23.444-4.54.216-6.65-.654a11.544 11.544 0 0 1-5.16-4.236c-1.05-1.579-1.62-3.799-1.76-5.889h11.03l7.72 8.284Z" fill="#fff" stroke="#283B48" stroke-width="2"/>
  <circle cx="1089" cy="197" r="8" fill="#fff" stroke="#283B48" stroke-width="2"/>
  <path d="m1094.09 203.546 10.69 10.687" stroke="#283B48" stroke-width="2"/>
  <path d="m1015.4 271-4.11-6.408c2.04-.264 3.99-1.8 3.99-4.68 0-2.952-2.09-4.92-5.14-4.92h-6.74V271h2.4v-6.168h3l3.81 6.168h2.79Zm-2.6-11.088c0 1.68-1.24 2.808-2.97 2.808h-4.03v-5.616h4.03c1.73 0 2.97 1.128 2.97 2.808Zm3.7 5.28c0 3.648 2.54 6.096 6 6.096 1.87 0 3.5-.6 4.65-1.728l-1-1.416c-.87.888-2.21 1.368-3.44 1.368-2.32 0-3.76-1.632-3.93-3.6h9.17v-.528c0-3.552-2.16-6.264-5.64-6.264-3.39 0-5.81 2.712-5.81 6.072Zm5.81-4.296c2.44 0 3.48 1.92 3.52 3.456h-7.08c.12-1.584 1.23-3.456 3.56-3.456ZM1039.72 271v-7.824c0-2.952-2.14-4.056-4.66-4.056-1.87 0-3.45.624-4.75 1.896l.94 1.488c1.03-1.032 2.16-1.536 3.48-1.536 1.65 0 2.83.864 2.83 2.304v1.92c-.89-1.032-2.23-1.536-3.79-1.536-1.95 0-4.04 1.152-4.04 3.792 0 2.544 2.12 3.84 4.04 3.84 1.56 0 2.88-.552 3.79-1.56V271h2.16Zm-2.16-2.544c-.65.864-1.78 1.32-2.98 1.32-1.56 0-2.66-.936-2.66-2.304 0-1.368 1.1-2.304 2.66-2.304 1.2 0 2.33.456 2.98 1.32v1.968Zm15.8 2.544v-16.008h-2.16v6.096c-.94-1.248-2.31-1.968-3.8-1.968-3.02 0-5.18 2.376-5.18 6.096 0 3.792 2.16 6.072 5.18 6.072 1.54 0 2.93-.792 3.8-1.944V271h2.16Zm-2.16-3.312c-.6.936-1.9 1.68-3.22 1.68-2.16 0-3.5-1.752-3.5-4.152 0-2.424 1.34-4.176 3.5-4.176 1.32 0 2.62.768 3.22 1.704v4.944Zm4.8 7.848c.34.096.98.168 1.34.168 1.68-.024 2.96-.672 3.7-2.496l5.71-13.8h-2.33l-3.62 9.096-3.62-9.096h-2.31l4.78 11.712-.67 1.536c-.36.864-.89 1.128-1.68 1.128-.29 0-.7-.072-.96-.192l-.34 1.944Zm17.02-9.408v-1.872h-5.76v1.872h5.76Zm5.39 5.16c1.13 0 1.8-.312 2.26-.744l-.55-1.632c-.22.24-.68.456-1.18.456-.74 0-1.13-.6-1.13-1.416v-6.648h2.35v-1.896h-2.35v-3.168h-2.16v3.168h-1.92v1.896h1.92v7.128c0 1.824.94 2.856 2.76 2.856Zm9.04 0c3.63 0 5.86-2.736 5.86-6.096 0-3.336-2.23-6.072-5.86-6.072-3.6 0-5.85 2.736-5.85 6.072 0 3.36 2.25 6.096 5.85 6.096Zm0-1.92c-2.3 0-3.6-1.968-3.6-4.176 0-2.184 1.3-4.152 3.6-4.152 2.33 0 3.6 1.968 3.6 4.152 0 2.208-1.27 4.176-3.6 4.176Zm13.11-3.24v-1.872h-5.76v1.872h5.76Zm12.19 4.872v-11.592h-2.16v8.328c-.65.864-1.87 1.632-3.22 1.632-1.48 0-2.44-.576-2.44-2.496v-7.464h-2.16v8.184c0 2.448 1.22 3.696 3.69 3.696 1.78 0 3.24-.912 4.13-1.872V271h2.16Zm2.17-1.512c1.18 1.2 2.88 1.8 4.83 1.8 3.05 0 4.68-1.56 4.68-3.552 0-2.664-2.4-3.216-4.42-3.672-1.44-.336-2.69-.672-2.69-1.68 0-.936.92-1.512 2.38-1.512s2.76.6 3.43 1.416l.96-1.512c-.98-.936-2.42-1.656-4.41-1.656-2.84 0-4.42 1.584-4.42 3.432 0 2.496 2.3 3.024 4.27 3.48 1.49.336 2.81.72 2.81 1.872 0 .984-.86 1.656-2.5 1.656-1.56 0-3.09-.792-3.88-1.656l-1.04 1.584Zm11.28-4.296c0 3.648 2.54 6.096 6 6.096 1.87 0 3.5-.6 4.65-1.728l-1-1.416c-.87.888-2.21 1.368-3.44 1.368-2.32 0-3.76-1.632-3.93-3.6h9.17v-.528c0-3.552-2.16-6.264-5.64-6.264-3.39 0-5.81 2.712-5.81 6.072Zm5.81-4.296c2.44 0 3.48 1.92 3.52 3.456h-7.08c.12-1.584 1.23-3.456 3.56-3.456ZM988.231 300v-7.824c0-2.952-2.136-4.056-4.656-4.056-1.872 0-3.456.624-4.752 1.896l.936 1.488c1.032-1.032 2.16-1.536 3.48-1.536 1.656 0 2.832.864 2.832 2.304v1.92c-.888-1.032-2.232-1.536-3.792-1.536-1.944 0-4.032 1.152-4.032 3.792 0 2.544 2.112 3.84 4.032 3.84 1.56 0 2.88-.552 3.792-1.56V300h2.16Zm-2.16-2.544c-.648.864-1.776 1.32-2.976 1.32-1.56 0-2.664-.936-2.664-2.304 0-1.368 1.104-2.304 2.664-2.304 1.2 0 2.328.456 2.976 1.32v1.968ZM1001.44 300v-8.136c0-2.448-1.28-3.744-3.723-3.744-1.8 0-3.336.984-4.104 1.92v-1.632h-2.16V300h2.16v-8.28c.624-.864 1.848-1.68 3.192-1.68 1.488 0 2.472.624 2.472 2.544V300h2.163Zm12.49 0v-7.824c0-2.952-2.14-4.056-4.66-4.056-1.87 0-3.45.624-4.75 1.896l.94 1.488c1.03-1.032 2.16-1.536 3.48-1.536 1.65 0 2.83.864 2.83 2.304v1.92c-.89-1.032-2.23-1.536-3.79-1.536-1.95 0-4.03 1.152-4.03 3.792 0 2.544 2.11 3.84 4.03 3.84 1.56 0 2.88-.552 3.79-1.56V300h2.16Zm-2.16-2.544c-.65.864-1.78 1.32-2.98 1.32-1.56 0-2.66-.936-2.66-2.304 0-1.368 1.1-2.304 2.66-2.304 1.2 0 2.33.456 2.98 1.32v1.968Zm7.54 2.544v-16.008h-2.16V300h2.16Zm2.63 4.536c.33.096.98.168 1.34.168 1.68-.024 2.95-.672 3.7-2.496l5.71-13.8h-2.33l-3.62 9.096-3.63-9.096h-2.3l4.78 11.712-.68 1.536c-.36.864-.88 1.128-1.68 1.128-.28 0-.69-.072-.96-.192l-.33 1.944Zm15.46-4.248c1.12 0 1.8-.312 2.25-.744l-.55-1.632c-.22.24-.67.456-1.18.456-.74 0-1.12-.6-1.12-1.416v-6.648h2.35v-1.896h-2.35v-3.168h-2.16v3.168h-1.92v1.896h1.92v7.128c0 1.824.93 2.856 2.76 2.856Zm4.96-13.824c.76 0 1.39-.6 1.39-1.368 0-.768-.63-1.392-1.39-1.392-.75 0-1.4.624-1.4 1.392 0 .768.65 1.368 1.4 1.368Zm1.1 13.536v-11.592h-2.16V300h2.16Zm2.48-5.808c0 3.48 2.4 6.096 5.91 6.096 2.18 0 3.5-.912 4.34-2.04l-1.44-1.32c-.7.96-1.63 1.44-2.81 1.44-2.28 0-3.74-1.776-3.74-4.176 0-2.4 1.46-4.152 3.74-4.152 1.18 0 2.11.456 2.81 1.44l1.44-1.32c-.84-1.128-2.16-2.04-4.34-2.04-3.51 0-5.91 2.592-5.91 6.072Zm21.7 5.808v-7.824c0-2.952-2.14-4.056-4.66-4.056-1.87 0-3.45.624-4.75 1.896l.94 1.488c1.03-1.032 2.16-1.536 3.48-1.536 1.65 0 2.83.864 2.83 2.304v1.92c-.89-1.032-2.23-1.536-3.79-1.536-1.95 0-4.03 1.152-4.03 3.792 0 2.544 2.11 3.84 4.03 3.84 1.56 0 2.88-.552 3.79-1.56V300h2.16Zm-2.16-2.544c-.65.864-1.78 1.32-2.98 1.32-1.56 0-2.66-.936-2.66-2.304 0-1.368 1.1-2.304 2.66-2.304 1.2 0 2.33.456 2.98 1.32v1.968Zm7.54 2.544v-16.008h-2.16V300h2.16Zm8.14-1.512c1.18 1.2 2.88 1.8 4.83 1.8 3.04 0 4.68-1.56 4.68-3.552 0-2.664-2.4-3.216-4.42-3.672-1.44-.336-2.69-.672-2.69-1.68 0-.936.91-1.512 2.38-1.512 1.46 0 2.76.6 3.43 1.416l.96-1.512c-.98-.936-2.42-1.656-4.42-1.656-2.83 0-4.41 1.584-4.41 3.432 0 2.496 2.3 3.024 4.27 3.48 1.49.336 2.81.72 2.81 1.872 0 .984-.87 1.656-2.5 1.656-1.56 0-3.09-.792-3.89-1.656l-1.03 1.584Zm17.13 1.8c3.63 0 5.86-2.736 5.86-6.096 0-3.336-2.23-6.072-5.86-6.072-3.6 0-5.85 2.736-5.85 6.072 0 3.36 2.25 6.096 5.85 6.096Zm0-1.92c-2.3 0-3.6-1.968-3.6-4.176 0-2.184 1.3-4.152 3.6-4.152 2.33 0 3.6 1.968 3.6 4.152 0 2.208-1.27 4.176-3.6 4.176Zm10.52 1.632v-16.008h-2.16V300h2.16Zm13.19 0v-11.592h-2.16v8.328c-.65.864-1.88 1.632-3.22 1.632-1.49 0-2.45-.576-2.45-2.496v-7.464h-2.16v8.184c0 2.448 1.23 3.696 3.7 3.696 1.77 0 3.24-.912 4.13-1.872V300h2.16Zm6.37.288c1.13 0 1.8-.312 2.26-.744l-.56-1.632c-.21.24-.67.456-1.17.456-.75 0-1.13-.6-1.13-1.416v-6.648h2.35v-1.896h-2.35v-3.168h-2.16v3.168h-1.92v1.896h1.92v7.128c0 1.824.94 2.856 2.76 2.856Zm4.96-13.824c.77 0 1.39-.6 1.39-1.368a1.39 1.39 0 0 0-1.39-1.392c-.74 0-1.39.624-1.39 1.392 0 .768.65 1.368 1.39 1.368Zm1.1 13.536v-11.592h-2.16V300h2.16Zm8.34.288c3.63 0 5.86-2.736 5.86-6.096 0-3.336-2.23-6.072-5.86-6.072-3.6 0-5.85 2.736-5.85 6.072 0 3.36 2.25 6.096 5.85 6.096Zm0-1.92c-2.3 0-3.6-1.968-3.6-4.176 0-2.184 1.3-4.152 3.6-4.152 2.33 0 3.6 1.968 3.6 4.152 0 2.208-1.27 4.176-3.6 4.176Zm18.34 1.632v-8.136c0-2.448-1.27-3.744-3.72-3.744-1.8 0-3.33.984-4.1 1.92v-1.632h-2.16V300h2.16v-8.28c.62-.864 1.85-1.68 3.19-1.68 1.49 0 2.47.624 2.47 2.544V300h2.16Z" fill="#103654"/>
  <path d="M234.667 215a5.332 5.332 0 0 0 5.333 5.333 5.332 5.332 0 0 0 5.333-5.333 5.332 5.332 0 0 0-5.333-5.333 5.332 5.332 0 0 0-5.333 5.333ZM329 215l-10-5.773v11.547L329 215Zm-89 1h2.023v-2H240v2Zm6.068 0h4.046v-2h-4.046v2Zm8.091 0h4.046v-2h-4.046v2Zm8.091 0h4.045v-2h-4.045v2Zm8.091 0h4.045v-2h-4.045v2Zm8.091 0h4.045v-2h-4.045v2Zm8.091 0h4.045v-2h-4.045v2Zm8.091 0h4.045v-2h-4.045v2Zm8.091 0h4.045v-2h-4.045v2Zm8.09 0h4.046v-2h-4.046v2Zm8.091 0h4.046v-2h-4.046v2ZM548.667 215a5.332 5.332 0 0 0 5.333 5.333 5.332 5.332 0 0 0 5.333-5.333 5.332 5.332 0 0 0-5.333-5.333 5.332 5.332 0 0 0-5.333 5.333ZM643 215l-10-5.773v11.547L643 215Zm-89 1h2.023v-2H554v2Zm6.068 0h4.046v-2h-4.046v2Zm8.091 0h4.046v-2h-4.046v2Zm8.091 0h4.045v-2h-4.045v2Zm8.091 0h4.045v-2h-4.045v2Zm8.091 0h4.045v-2h-4.045v2Zm8.091 0h4.045v-2h-4.045v2Zm8.091 0h4.045v-2h-4.045v2Zm8.091 0h4.045v-2h-4.045v2Zm8.09 0h4.046v-2h-4.046v2Zm8.091 0h4.046v-2h-4.046v2ZM862.667 215a5.332 5.332 0 0 0 5.333 5.333 5.332 5.332 0 0 0 5.333-5.333 5.332 5.332 0 0 0-5.333-5.333 5.332 5.332 0 0 0-5.333 5.333ZM957 215l-10-5.773v11.547L957 215Zm-89 1h2.023v-2H868v2Zm6.068 0h4.046v-2h-4.046v2Zm8.091 0h4.046v-2h-4.046v2Zm8.091 0h4.045v-2h-4.045v2Zm8.091 0h4.045v-2h-4.045v2Zm8.091 0h4.045v-2h-4.045v2Zm8.091 0h4.045v-2h-4.045v2Zm8.091 0h4.045v-2h-4.045v2Zm8.091 0h4.045v-2h-4.045v2Zm8.09 0h4.046v-2h-4.046v2Zm8.091 0h4.046v-2h-4.046v2Z" fill="#FF9C00"/>
  <defs>
    <filter id="a" x="0" y="87" width="254" height="263" filterUnits="userSpaceOnUse" color-interpolation-filters="sRGB">
      <feFlood flood-opacity="0" result="BackgroundImageFix"/>
      <feColorMatrix in="SourceAlpha" values="0 0 0 0 0 0 0 0 0 0 0 0 0 0 0 0 0 0 127 0" result="hardAlpha"/>
      <feOffset dy="4"/>
      <feGaussianBlur stdDeviation="2.5"/>
      <feColorMatrix values="0 0 0 0 0.317647 0 0 0 0 0.662745 0 0 0 0 0.882353 0 0 0 0.2 0"/>
      <feBlend in2="BackgroundImageFix" result="effect1_dropShadow_580_297"/>
      <feColorMatrix in="SourceAlpha" values="0 0 0 0 0 0 0 0 0 0 0 0 0 0 0 0 0 0 127 0" result="hardAlpha"/>
      <feOffset dy="3"/>
      <feGaussianBlur stdDeviation="7"/>
      <feColorMatrix values="0 0 0 0 0.317647 0 0 0 0 0.662745 0 0 0 0 0.882353 0 0 0 0.12 0"/>
      <feBlend in2="effect1_dropShadow_580_297" result="effect2_dropShadow_580_297"/>
      <feColorMatrix in="SourceAlpha" values="0 0 0 0 0 0 0 0 0 0 0 0 0 0 0 0 0 0 127 0" result="hardAlpha"/>
      <feOffset dy="8"/>
      <feGaussianBlur stdDeviation="5"/>
      <feColorMatrix values="0 0 0 0 0.317647 0 0 0 0 0.662745 0 0 0 0 0.882353 0 0 0 0.14 0"/>
      <feBlend in2="effect2_dropShadow_580_297" result="effect3_dropShadow_580_297"/>
      <feBlend in="SourceGraphic" in2="effect3_dropShadow_580_297" result="shape"/>
    </filter>
    <filter id="b" x="315" y="87" width="253" height="263" filterUnits="userSpaceOnUse" color-interpolation-filters="sRGB">
      <feFlood flood-opacity="0" result="BackgroundImageFix"/>
      <feColorMatrix in="SourceAlpha" values="0 0 0 0 0 0 0 0 0 0 0 0 0 0 0 0 0 0 127 0" result="hardAlpha"/>
      <feOffset dy="4"/>
      <feGaussianBlur stdDeviation="2.5"/>
      <feColorMatrix values="0 0 0 0 0.317647 0 0 0 0 0.662745 0 0 0 0 0.882353 0 0 0 0.2 0"/>
      <feBlend in2="BackgroundImageFix" result="effect1_dropShadow_580_297"/>
      <feColorMatrix in="SourceAlpha" values="0 0 0 0 0 0 0 0 0 0 0 0 0 0 0 0 0 0 127 0" result="hardAlpha"/>
      <feOffset dy="3"/>
      <feGaussianBlur stdDeviation="7"/>
      <feColorMatrix values="0 0 0 0 0.317647 0 0 0 0 0.662745 0 0 0 0 0.882353 0 0 0 0.12 0"/>
      <feBlend in2="effect1_dropShadow_580_297" result="effect2_dropShadow_580_297"/>
      <feColorMatrix in="SourceAlpha" values="0 0 0 0 0 0 0 0 0 0 0 0 0 0 0 0 0 0 127 0" result="hardAlpha"/>
      <feOffset dy="8"/>
      <feGaussianBlur stdDeviation="5"/>
      <feColorMatrix values="0 0 0 0 0.317647 0 0 0 0 0.662745 0 0 0 0 0.882353 0 0 0 0.14 0"/>
      <feBlend in2="effect2_dropShadow_580_297" result="effect3_dropShadow_580_297"/>
      <feBlend in="SourceGraphic" in2="effect3_dropShadow_580_297" result="shape"/>
    </filter>
    <filter id="c" x="629" y="87" width="253" height="263" filterUnits="userSpaceOnUse" color-interpolation-filters="sRGB">
      <feFlood flood-opacity="0" result="BackgroundImageFix"/>
      <feColorMatrix in="SourceAlpha" values="0 0 0 0 0 0 0 0 0 0 0 0 0 0 0 0 0 0 127 0" result="hardAlpha"/>
      <feOffset dy="4"/>
      <feGaussianBlur stdDeviation="2.5"/>
      <feColorMatrix values="0 0 0 0 0.317647 0 0 0 0 0.662745 0 0 0 0 0.882353 0 0 0 0.2 0"/>
      <feBlend in2="BackgroundImageFix" result="effect1_dropShadow_580_297"/>
      <feColorMatrix in="SourceAlpha" values="0 0 0 0 0 0 0 0 0 0 0 0 0 0 0 0 0 0 127 0" result="hardAlpha"/>
      <feOffset dy="3"/>
      <feGaussianBlur stdDeviation="7"/>
      <feColorMatrix values="0 0 0 0 0.317647 0 0 0 0 0.662745 0 0 0 0 0.882353 0 0 0 0.12 0"/>
      <feBlend in2="effect1_dropShadow_580_297" result="effect2_dropShadow_580_297"/>
      <feColorMatrix in="SourceAlpha" values="0 0 0 0 0 0 0 0 0 0 0 0 0 0 0 0 0 0 127 0" result="hardAlpha"/>
      <feOffset dy="8"/>
      <feGaussianBlur stdDeviation="5"/>
      <feColorMatrix values="0 0 0 0 0.317647 0 0 0 0 0.662745 0 0 0 0 0.882353 0 0 0 0.14 0"/>
      <feBlend in2="effect2_dropShadow_580_297" result="effect3_dropShadow_580_297"/>
      <feBlend in="SourceGraphic" in2="effect3_dropShadow_580_297" result="shape"/>
    </filter>
    <filter id="d" x="943" y="87" width="254" height="263" filterUnits="userSpaceOnUse" color-interpolation-filters="sRGB">
      <feFlood flood-opacity="0" result="BackgroundImageFix"/>
      <feColorMatrix in="SourceAlpha" values="0 0 0 0 0 0 0 0 0 0 0 0 0 0 0 0 0 0 127 0" result="hardAlpha"/>
      <feOffset dy="4"/>
      <feGaussianBlur stdDeviation="2.5"/>
      <feColorMatrix values="0 0 0 0 0.317647 0 0 0 0 0.662745 0 0 0 0 0.882353 0 0 0 0.2 0"/>
      <feBlend in2="BackgroundImageFix" result="effect1_dropShadow_580_297"/>
      <feColorMatrix in="SourceAlpha" values="0 0 0 0 0 0 0 0 0 0 0 0 0 0 0 0 0 0 127 0" result="hardAlpha"/>
      <feOffset dy="3"/>
      <feGaussianBlur stdDeviation="7"/>
      <feColorMatrix values="0 0 0 0 0.317647 0 0 0 0 0.662745 0 0 0 0 0.882353 0 0 0 0.12 0"/>
      <feBlend in2="effect1_dropShadow_580_297" result="effect2_dropShadow_580_297"/>
      <feColorMatrix in="SourceAlpha" values="0 0 0 0 0 0 0 0 0 0 0 0 0 0 0 0 0 0 127 0" result="hardAlpha"/>
      <feOffset dy="8"/>
      <feGaussianBlur stdDeviation="5"/>
      <feColorMatrix values="0 0 0 0 0.317647 0 0 0 0 0.662745 0 0 0 0 0.882353 0 0 0 0.14 0"/>
      <feBlend in2="effect2_dropShadow_580_297" result="effect3_dropShadow_580_297"/>
      <feBlend in="SourceGraphic" in2="effect3_dropShadow_580_297" result="shape"/>
    </filter>
    <clipPath id="e">
      <path fill="#fff" transform="translate(405 147)" d="M0 0h72v72H0z"/>
    </clipPath>
  </defs>
</svg>
