<svg width="82" height="83" viewBox="0 0 82 83" fill="none" xmlns="http://www.w3.org/2000/svg">
<path d="M42.25 25.1126L8.5 8.22509L42.25 58.6241M42.25 25.1126L76 42.0001L42.25 58.6241M42.25 25.1126L8.5 75.248L42.25 58.6241M42.25 25.1126L8.5 42.0001L42.25 58.6241" stroke="#103654" stroke-width="3"/>
<circle cx="74.5" cy="41.5" r="7.5" fill="#92C9EC"/>
<circle cx="7.5" cy="74.5" r="7.5" fill="#92C9EC"/>
<circle cx="7.5" cy="8.5" r="7.5" fill="#92C9EC"/>
<circle cx="7.5" cy="41.5" r="7.5" fill="#92C9EC"/>
<circle cx="41.5" cy="58.5" r="7.5" fill="#92C9EC"/>
<path d="M49 24.5C49 28.6422 45.6421 32 41.5 32C37.3579 32 34 28.6422 34 24.5C34 20.3579 37.3579 17 41.5 17C45.6421 17 49 20.3579 49 24.5Z" fill="#92C9EC"/>
</svg>
