<svg width="674" height="288" fill="none" xmlns="http://www.w3.org/2000/svg"><rect width="674" height="288" rx="7" fill="#fff"/><path d="M571.136 198.7c30.399 0 55.042-24.644 55.042-55.043s-24.643-55.042-55.042-55.042-55.042 24.643-55.042 55.042 24.643 55.043 55.042 55.043z" fill="#77BCE8" stroke="#77BCE8" stroke-width="1.643"/><path d="M303.317 41.788c57.741 0 145.449 5.47 205.383 69.008" stroke="url(#paint0_linear)" stroke-width="1.643" stroke-dasharray="16.43 6.57"/><path d="M303.317 242.241c57.183 0 145.449-5.47 205.383-69.009" stroke="url(#paint1_linear)" stroke-width="1.643" stroke-dasharray="16.43 6.57"/><path d="M324.677 107.244c41.898 0 111.955-3.895 170.878 21.626" stroke="url(#paint2_linear)" stroke-width="1.643" stroke-dasharray="16.43 6.57"/><path d="M305 175.5c47.5 0 133.5-1 190.555-20.341" stroke="url(#paint3_linear)" stroke-width="1.643" stroke-dasharray="16.43 6.57"/><rect x="64.5" y="30.5" width="219" height="30" rx="3.5" stroke="#77BCE8"/><path d="M86.38 52V40.661h-.969V52h.969zm6.25.204c2.431 0 3.961-1.921 3.961-4.318 0-2.397-1.53-4.301-3.96-4.301-2.398 0-3.945 1.904-3.945 4.301 0 2.397 1.547 4.318 3.944 4.318zm0-.799c-1.904 0-2.992-1.683-2.992-3.519 0-1.819 1.088-3.502 2.992-3.502 1.938 0 3.01 1.683 3.01 3.502 0 1.836-1.072 3.519-3.01 3.519zm8.062.595V41.545h3.706v-.884H96v.884h3.706V52h.986zm17.973 0l2.669-8.211h-.952l-2.176 6.97-2.312-6.97h-.765l-2.312 6.97-2.176-6.97h-.952L112.358 52h.85l2.312-7.021L117.815 52h.85zm7.969.204c1.36 0 2.397-.476 3.213-1.326l-.459-.578c-.697.748-1.649 1.139-2.686 1.139-1.938 0-3.128-1.479-3.213-3.264h6.868v-.238c0-2.363-1.377-4.352-3.876-4.352-2.278 0-3.961 1.921-3.961 4.301 0 2.533 1.717 4.318 4.114 4.318zm2.822-4.726h-5.967c.068-1.428 1.037-3.128 2.975-3.128 2.057 0 2.975 1.734 2.992 3.128zM138.745 52v-5.78c0-1.836-1.326-2.635-2.992-2.635-1.36 0-2.312.459-3.162 1.377l.493.612c.748-.85 1.547-1.207 2.567-1.207 1.224 0 2.21.663 2.21 1.887v1.666c-.714-.799-1.649-1.173-2.788-1.173-1.428 0-2.873.935-2.873 2.72 0 1.768 1.462 2.737 2.873 2.737 1.139 0 2.057-.374 2.788-1.173V52h.884zm-3.366-.493c-1.36 0-2.244-.867-2.244-2.023 0-1.173.884-2.04 2.244-2.04.986 0 1.904.391 2.482 1.139v1.802c-.578.748-1.496 1.122-2.482 1.122zm7.012.493v-5.984c.374-.714 1.496-1.462 2.329-1.462.17 0 .289 0 .442.034v-.969c-1.139 0-2.074.663-2.771 1.581v-1.411h-.884V52h.884zm10.614 0v-5.78c0-1.836-1.326-2.635-2.992-2.635-1.36 0-2.312.459-3.162 1.377l.493.612c.748-.85 1.547-1.207 2.567-1.207 1.224 0 2.21.663 2.21 1.887v1.666c-.714-.799-1.649-1.173-2.788-1.173-1.428 0-2.873.935-2.873 2.72 0 1.768 1.462 2.737 2.873 2.737 1.139 0 2.057-.374 2.788-1.173V52h.884zm-3.366-.493c-1.36 0-2.244-.867-2.244-2.023 0-1.173.884-2.04 2.244-2.04.986 0 1.904.391 2.482 1.139v1.802c-.578.748-1.496 1.122-2.482 1.122zm7.013-1.564V45.88c.476-.782 1.564-1.496 2.703-1.496 1.836 0 2.873 1.53 2.873 3.519s-1.037 3.502-2.873 3.502c-1.139 0-2.227-.68-2.703-1.462zm0 2.057v-1.309a3.498 3.498 0 002.856 1.513c2.176 0 3.672-1.666 3.672-4.301 0-2.601-1.479-4.318-3.672-4.318-1.156 0-2.193.595-2.856 1.53v-4.454h-.884V52h.884zm9.712 0V40.661h-.884V52h.884zm6.389.204c1.36 0 2.397-.476 3.213-1.326l-.459-.578c-.697.748-1.649 1.139-2.686 1.139-1.938 0-3.128-1.479-3.213-3.264h6.868v-.238c0-2.363-1.377-4.352-3.876-4.352-2.278 0-3.961 1.921-3.961 4.301 0 2.533 1.717 4.318 4.114 4.318zm2.822-4.726h-5.967c.068-1.428 1.037-3.128 2.975-3.128 2.057 0 2.975 1.734 2.992 3.128zm5.634 4.726c2.057 0 3.077-1.088 3.077-2.414 0-3.162-5.185-1.904-5.185-3.961 0-.85.782-1.496 2.057-1.496 1.088 0 1.972.442 2.448 1.088l.493-.629c-.595-.663-1.53-1.207-2.941-1.207-1.853 0-2.924 1.02-2.924 2.278 0 2.941 5.185 1.683 5.185 3.927 0 .952-.816 1.666-2.193 1.666-1.156 0-2.125-.544-2.652-1.207l-.527.663c.816.901 1.836 1.292 3.162 1.292zM192.136 52v-7.429h1.666v-.782h-1.666v-.748c0-1.139.493-1.785 1.428-1.785.442 0 .782.17 1.054.425l.425-.612c-.527-.459-.986-.578-1.564-.578-1.377 0-2.227.952-2.227 2.55v.748h-1.36v.782h1.36V52h.884zm6.794.204c2.431 0 3.961-1.921 3.961-4.318 0-2.397-1.53-4.301-3.961-4.301-2.397 0-3.944 1.904-3.944 4.301 0 2.397 1.547 4.318 3.944 4.318zm0-.799c-1.904 0-2.992-1.683-2.992-3.519 0-1.819 1.088-3.502 2.992-3.502 1.938 0 3.009 1.683 3.009 3.502 0 1.836-1.071 3.519-3.009 3.519zm7.128.595v-5.984c.374-.714 1.496-1.462 2.329-1.462.17 0 .289 0 .442.034v-.969c-1.139 0-2.074.663-2.771 1.581v-1.411h-.884V52h.884zm15.864 0V40.661h-.901v4.454c-.663-.935-1.683-1.53-2.856-1.53-2.176 0-3.672 1.717-3.672 4.318 0 2.635 1.496 4.301 3.672 4.301a3.498 3.498 0 002.856-1.513V52h.901zm-3.604-.595c-1.819 0-2.873-1.513-2.873-3.502 0-1.989 1.054-3.519 2.873-3.519 1.156 0 2.227.697 2.703 1.496v4.063c-.476.782-1.547 1.462-2.703 1.462zm7.247.595v-5.984c.374-.714 1.496-1.462 2.329-1.462.17 0 .289 0 .442.034v-.969c-1.139 0-2.074.663-2.771 1.581v-1.411h-.884V52h.884zm4.953-9.503c.374 0 .68-.306.68-.68a.668.668 0 00-.68-.663c-.357 0-.68.289-.68.663 0 .374.323.68.68.68zM230.96 52v-8.211h-.884V52h.884zm5.965 0l3.468-8.211h-1.003l-2.958 7.174-2.992-7.174h-.986L235.922 52h1.003zm8.61.204c1.36 0 2.397-.476 3.213-1.326l-.459-.578c-.697.748-1.649 1.139-2.686 1.139-1.938 0-3.128-1.479-3.213-3.264h6.868v-.238c0-2.363-1.377-4.352-3.876-4.352-2.278 0-3.961 1.921-3.961 4.301 0 2.533 1.717 4.318 4.114 4.318zm2.822-4.726h-5.967c.068-1.428 1.037-3.128 2.975-3.128 2.057 0 2.975 1.734 2.992 3.128zM252.426 52v-5.984c.374-.714 1.496-1.462 2.329-1.462.17 0 .289 0 .442.034v-.969c-1.139 0-2.074.663-2.771 1.581v-1.411h-.884V52h.884zm6.96.204c2.057 0 3.077-1.088 3.077-2.414 0-3.162-5.185-1.904-5.185-3.961 0-.85.782-1.496 2.057-1.496 1.088 0 1.972.442 2.448 1.088l.493-.629c-.595-.663-1.53-1.207-2.941-1.207-1.853 0-2.924 1.02-2.924 2.278 0 2.941 5.185 1.683 5.185 3.927 0 .952-.816 1.666-2.193 1.666-1.156 0-2.125-.544-2.652-1.207l-.527.663c.816.901 1.836 1.292 3.162 1.292z" fill="#000"/><rect x="34.5" y="94.5" width="280" height="30" rx="3.5" stroke="#77BCE8"/><path d="M57.732 115.221c1.785 0 3.298-.765 4.301-1.887v-3.961H56.78v.867h4.284v2.72c-.629.629-1.819 1.377-3.332 1.377-2.669 0-4.726-2.074-4.726-4.998 0-2.958 2.057-4.981 4.726-4.981 1.445 0 2.737.629 3.536 1.581l.731-.527c-1.037-1.19-2.397-1.938-4.267-1.938-3.179 0-5.746 2.363-5.746 5.865 0 3.502 2.567 5.882 5.746 5.882zm10.369-.017c1.36 0 2.397-.476 3.213-1.326l-.46-.578c-.696.748-1.648 1.139-2.685 1.139-1.938 0-3.128-1.479-3.213-3.264h6.868v-.238c0-2.363-1.377-4.352-3.876-4.352-2.278 0-3.961 1.921-3.961 4.301 0 2.533 1.717 4.318 4.114 4.318zm2.822-4.726h-5.967c.068-1.428 1.037-3.128 2.975-3.128 2.057 0 2.975 1.734 2.992 3.128zM80.534 115v-5.746c0-1.853-.918-2.669-2.584-2.669-1.19 0-2.363.731-2.958 1.445v-1.241h-.884V115h.884v-6.205c.527-.748 1.615-1.411 2.67-1.411 1.19 0 1.988.476 1.988 2.057V115h.884zm6.393.204c1.36 0 2.397-.476 3.213-1.326l-.459-.578c-.697.748-1.649 1.139-2.686 1.139-1.938 0-3.128-1.479-3.213-3.264h6.868v-.238c0-2.363-1.377-4.352-3.876-4.352-2.278 0-3.96 1.921-3.96 4.301 0 2.533 1.716 4.318 4.113 4.318zm2.822-4.726h-5.967c.068-1.428 1.037-3.128 2.975-3.128 2.057 0 2.975 1.734 2.992 3.128zM93.82 115v-5.984c.374-.714 1.496-1.462 2.329-1.462.17 0 .289 0 .442.034v-.969c-1.14 0-2.074.663-2.771 1.581v-1.411h-.884V115h.884zm10.614 0v-5.78c0-1.836-1.326-2.635-2.992-2.635-1.36 0-2.312.459-3.162 1.377l.493.612c.748-.85 1.547-1.207 2.567-1.207 1.224 0 2.21.663 2.21 1.887v1.666c-.714-.799-1.649-1.173-2.788-1.173-1.428 0-2.873.935-2.873 2.72 0 1.768 1.462 2.737 2.873 2.737 1.139 0 2.057-.374 2.788-1.173V115h.884zm-3.366-.493c-1.36 0-2.244-.867-2.244-2.023 0-1.173.884-2.04 2.244-2.04.986 0 1.904.391 2.482 1.139v1.802c-.578.748-1.496 1.122-2.482 1.122zm7.012.493v-11.339h-.884V115h.884zm7.594-9.503c.374 0 .68-.306.68-.68a.668.668 0 00-.68-.663c-.357 0-.68.289-.68.663 0 .374.323.68.68.68zm.442 9.503v-8.211h-.884V115h.884zm9.177 0v-5.746c0-1.853-.918-2.669-2.584-2.669-1.19 0-2.363.731-2.958 1.445v-1.241h-.884V115h.884v-6.205c.527-.748 1.615-1.411 2.669-1.411 1.19 0 1.989.476 1.989 2.057V115h.884zm3.928 0v-7.429h1.666v-.782h-1.666v-.748c0-1.139.493-1.785 1.428-1.785.442 0 .782.17 1.054.425l.425-.612c-.527-.459-.986-.578-1.564-.578-1.377 0-2.227.952-2.227 2.55v.748h-1.36v.782h1.36V115h.884zm6.794.204c2.431 0 3.961-1.921 3.961-4.318 0-2.397-1.53-4.301-3.961-4.301-2.397 0-3.944 1.904-3.944 4.301 0 2.397 1.547 4.318 3.944 4.318zm0-.799c-1.904 0-2.992-1.683-2.992-3.519 0-1.819 1.088-3.502 2.992-3.502 1.938 0 3.009 1.683 3.009 3.502 0 1.836-1.071 3.519-3.009 3.519zm7.128.595v-5.984c.374-.714 1.496-1.462 2.329-1.462.17 0 .289 0 .442.034v-.969c-1.139 0-2.074.663-2.771 1.581v-1.411h-.884V115h.884zm15.17 0v-5.916c0-1.649-.731-2.499-2.244-2.499-1.156 0-2.261.782-2.72 1.547-.204-.799-.884-1.547-2.159-1.547-1.19 0-2.312.918-2.652 1.445v-1.241h-.884V115h.884v-6.205c.493-.748 1.479-1.411 2.346-1.411 1.173 0 1.649.714 1.649 1.87V115h.901v-6.222c.459-.748 1.462-1.394 2.346-1.394 1.156 0 1.649.714 1.649 1.87V115h.884zm8.858 0v-5.78c0-1.836-1.326-2.635-2.992-2.635-1.36 0-2.312.459-3.162 1.377l.493.612c.748-.85 1.547-1.207 2.567-1.207 1.224 0 2.21.663 2.21 1.887v1.666c-.714-.799-1.649-1.173-2.788-1.173-1.428 0-2.873.935-2.873 2.72 0 1.768 1.462 2.737 2.873 2.737 1.139 0 2.057-.374 2.788-1.173V115h.884zm-3.366-.493c-1.36 0-2.244-.867-2.244-2.023 0-1.173.884-2.04 2.244-2.04.986 0 1.904.391 2.482 1.139v1.802c-.578.748-1.496 1.122-2.482 1.122zm7.914.697c.68 0 1.071-.204 1.394-.51l-.34-.68a1.283 1.283 0 01-.918.391c-.578 0-.85-.459-.85-1.122v-5.712h1.666v-.782h-1.666v-2.244h-.901v2.244h-1.36v.782h1.36v5.848c0 1.122.527 1.785 1.615 1.785zm3.338-9.707c.374 0 .68-.306.68-.68a.668.668 0 00-.68-.663c-.357 0-.68.289-.68.663 0 .374.323.68.68.68zm.442 9.503v-8.211h-.884V115h.884zm6.22.204c2.431 0 3.961-1.921 3.961-4.318 0-2.397-1.53-4.301-3.961-4.301-2.397 0-3.944 1.904-3.944 4.301 0 2.397 1.547 4.318 3.944 4.318zm0-.799c-1.904 0-2.992-1.683-2.992-3.519 0-1.819 1.088-3.502 2.992-3.502 1.938 0 3.009 1.683 3.009 3.502 0 1.836-1.071 3.519-3.009 3.519zm12.67.595v-5.746c0-1.853-.918-2.669-2.584-2.669-1.19 0-2.363.731-2.958 1.445v-1.241h-.884V115h.884v-6.205c.527-.748 1.615-1.411 2.669-1.411 1.19 0 1.989.476 1.989 2.057V115h.884zm13.257 0v-5.78c0-1.836-1.326-2.635-2.992-2.635-1.36 0-2.312.459-3.162 1.377l.493.612c.748-.85 1.547-1.207 2.567-1.207 1.224 0 2.21.663 2.21 1.887v1.666c-.714-.799-1.649-1.173-2.788-1.173-1.428 0-2.873.935-2.873 2.72 0 1.768 1.462 2.737 2.873 2.737 1.139 0 2.057-.374 2.788-1.173V115h.884zm-3.366-.493c-1.36 0-2.244-.867-2.244-2.023 0-1.173.884-2.04 2.244-2.04.986 0 1.904.391 2.482 1.139v1.802c-.578.748-1.496 1.122-2.482 1.122zm7.012-1.564v-4.063c.476-.782 1.564-1.496 2.703-1.496 1.836 0 2.873 1.53 2.873 3.519s-1.037 3.502-2.873 3.502c-1.139 0-2.227-.68-2.703-1.462zm0 2.057v-1.309a3.498 3.498 0 002.856 1.513c2.176 0 3.672-1.666 3.672-4.301 0-2.601-1.479-4.318-3.672-4.318-1.156 0-2.193.595-2.856 1.53v-4.454h-.884V115h.884zm12.296.204c2.431 0 3.961-1.921 3.961-4.318 0-2.397-1.53-4.301-3.961-4.301-2.397 0-3.944 1.904-3.944 4.301 0 2.397 1.547 4.318 3.944 4.318zm0-.799c-1.904 0-2.992-1.683-2.992-3.519 0-1.819 1.088-3.502 2.992-3.502 1.938 0 3.009 1.683 3.009 3.502 0 1.836-1.071 3.519-3.009 3.519zm12.67.595v-8.211h-.884v6.256c-.544.731-1.615 1.36-2.669 1.36-1.19 0-1.989-.442-1.989-2.04v-5.576h-.884v5.78c0 1.853.901 2.635 2.584 2.635 1.19 0 2.278-.663 2.958-1.411V115h.884zm4.54.204c.68 0 1.071-.204 1.394-.51l-.34-.68a1.283 1.283 0 01-.918.391c-.578 0-.85-.459-.85-1.122v-5.712h1.666v-.782h-1.666v-2.244h-.901v2.244h-1.36v.782h1.36v5.848c0 1.122.527 1.785 1.615 1.785zm14.249-.204v-11.339h-.901v4.454c-.663-.935-1.683-1.53-2.856-1.53-2.176 0-3.672 1.717-3.672 4.318 0 2.635 1.496 4.301 3.672 4.301a3.498 3.498 0 002.856-1.513V115h.901zm-3.604-.595c-1.819 0-2.873-1.513-2.873-3.502 0-1.989 1.054-3.519 2.873-3.519 1.156 0 2.227.697 2.703 1.496v4.063c-.476.782-1.547 1.462-2.703 1.462zm7.247.595v-5.984c.374-.714 1.496-1.462 2.329-1.462.17 0 .289 0 .442.034v-.969c-1.139 0-2.074.663-2.771 1.581v-1.411h-.884V115h.884zm4.953-9.503c.374 0 .68-.306.68-.68a.668.668 0 00-.68-.663c-.357 0-.68.289-.68.663 0 .374.323.68.68.68zm.442 9.503v-8.211h-.884V115h.884zm5.965 0l3.468-8.211h-1.003l-2.958 7.174-2.992-7.174h-.986l3.468 8.211h1.003zm8.61.204c1.36 0 2.397-.476 3.213-1.326l-.459-.578c-.697.748-1.649 1.139-2.686 1.139-1.938 0-3.128-1.479-3.213-3.264h6.868v-.238c0-2.363-1.377-4.352-3.876-4.352-2.278 0-3.961 1.921-3.961 4.301 0 2.533 1.717 4.318 4.114 4.318zm2.822-4.726h-5.967c.068-1.428 1.037-3.128 2.975-3.128 2.057 0 2.975 1.734 2.992 3.128zM285.55 115v-5.984c.374-.714 1.496-1.462 2.329-1.462.17 0 .289 0 .442.034v-.969c-1.139 0-2.074.663-2.771 1.581v-1.411h-.884V115h.884zm6.96.204c2.057 0 3.077-1.088 3.077-2.414 0-3.162-5.185-1.904-5.185-3.961 0-.85.782-1.496 2.057-1.496 1.088 0 1.972.442 2.448 1.088l.493-.629c-.595-.663-1.53-1.207-2.941-1.207-1.853 0-2.924 1.02-2.924 2.278 0 2.941 5.185 1.683 5.185 3.927 0 .952-.816 1.666-2.193 1.666-1.156 0-2.125-.544-2.652-1.207l-.527.663c.816.901 1.836 1.292 3.162 1.292z" fill="#000"/><rect x="58.5" y="161.5" width="232" height="30" rx="3.5" stroke="#77BCE8"/><path d="M92.557 182v-11.339h-.986v5.066H84.38v-5.066h-.969V182h.969v-5.389h7.191V182h.986zm3.215-9.503c.374 0 .68-.306.68-.68a.668.668 0 00-.68-.663c-.357 0-.68.289-.68.663 0 .374.323.68.68.68zm.442 9.503v-8.211h-.884V182h.884zm5.2.204c2.057 0 3.077-1.088 3.077-2.414 0-3.162-5.185-1.904-5.185-3.961 0-.85.782-1.496 2.057-1.496 1.088 0 1.972.442 2.448 1.088l.493-.629c-.595-.663-1.53-1.207-2.941-1.207-1.853 0-2.924 1.02-2.924 2.278 0 2.941 5.185 1.683 5.185 3.927 0 .952-.816 1.666-2.193 1.666-1.156 0-2.125-.544-2.652-1.207l-.527.663c.816.901 1.836 1.292 3.162 1.292zm7.14 0c.68 0 1.071-.204 1.394-.51l-.34-.68a1.283 1.283 0 01-.918.391c-.578 0-.85-.459-.85-1.122v-5.712h1.666v-.782h-1.666v-2.244h-.901v2.244h-1.36v.782h1.36v5.848c0 1.122.527 1.785 1.615 1.785zm6.364 0c2.431 0 3.961-1.921 3.961-4.318 0-2.397-1.53-4.301-3.961-4.301-2.397 0-3.944 1.904-3.944 4.301 0 2.397 1.547 4.318 3.944 4.318zm0-.799c-1.904 0-2.992-1.683-2.992-3.519 0-1.819 1.088-3.502 2.992-3.502 1.938 0 3.009 1.683 3.009 3.502 0 1.836-1.071 3.519-3.009 3.519zm7.128.595v-5.984c.374-.714 1.496-1.462 2.329-1.462.17 0 .289 0 .442.034v-.969c-1.139 0-2.074.663-2.771 1.581v-1.411h-.884V182h.884zm4.954-9.503c.374 0 .68-.306.68-.68a.668.668 0 00-.68-.663c-.357 0-.68.289-.68.663 0 .374.323.68.68.68zm.442 9.503v-8.211h-.884V182h.884zm6.27.204c1.428 0 2.244-.561 2.907-1.411l-.612-.544c-.595.816-1.343 1.156-2.244 1.156-1.921 0-3.094-1.547-3.094-3.519 0-1.972 1.173-3.502 3.094-3.502.901 0 1.649.323 2.244 1.139l.612-.544c-.663-.833-1.479-1.394-2.907-1.394-2.414 0-3.995 1.904-3.995 4.301 0 2.397 1.581 4.318 3.995 4.318zm10.985-.204v-5.78c0-1.836-1.326-2.635-2.992-2.635-1.36 0-2.312.459-3.162 1.377l.493.612c.748-.85 1.547-1.207 2.567-1.207 1.224 0 2.21.663 2.21 1.887v1.666c-.714-.799-1.649-1.173-2.788-1.173-1.428 0-2.873.935-2.873 2.72 0 1.768 1.462 2.737 2.873 2.737 1.139 0 2.057-.374 2.788-1.173V182h.884zm-3.366-.493c-1.36 0-2.244-.867-2.244-2.023 0-1.173.884-2.04 2.244-2.04.986 0 1.904.391 2.482 1.139v1.802c-.578.748-1.496 1.122-2.482 1.122zm7.012.493v-11.339h-.884V182h.884zm13.577 0v-5.78c0-1.853-.918-2.635-2.584-2.635-1.19 0-2.363.731-2.958 1.445v-4.369h-.884V182h.884v-6.205c.527-.748 1.615-1.411 2.669-1.411 1.19 0 1.989.442 1.989 2.023V182h.884zm6.393.204c1.36 0 2.397-.476 3.213-1.326l-.459-.578c-.697.748-1.649 1.139-2.686 1.139-1.938 0-3.128-1.479-3.213-3.264h6.868v-.238c0-2.363-1.377-4.352-3.876-4.352-2.278 0-3.961 1.921-3.961 4.301 0 2.533 1.717 4.318 4.114 4.318zm2.822-4.726h-5.967c.068-1.428 1.037-3.128 2.975-3.128 2.057 0 2.975 1.734 2.992 3.128zm9.288 4.522v-5.78c0-1.836-1.326-2.635-2.992-2.635-1.36 0-2.312.459-3.162 1.377l.493.612c.748-.85 1.547-1.207 2.567-1.207 1.224 0 2.21.663 2.21 1.887v1.666c-.714-.799-1.649-1.173-2.788-1.173-1.428 0-2.873.935-2.873 2.72 0 1.768 1.462 2.737 2.873 2.737 1.139 0 2.057-.374 2.788-1.173V182h.884zm-3.366-.493c-1.36 0-2.244-.867-2.244-2.023 0-1.173.884-2.04 2.244-2.04.986 0 1.904.391 2.482 1.139v1.802c-.578.748-1.496 1.122-2.482 1.122zm7.013.493v-11.339h-.884V182h.884zm4.536.204c.68 0 1.071-.204 1.394-.51l-.34-.68a1.283 1.283 0 01-.918.391c-.578 0-.85-.459-.85-1.122v-5.712h1.666v-.782h-1.666v-2.244h-.901v2.244h-1.36v.782h1.36v5.848c0 1.122.527 1.785 1.615 1.785zm9.323-.204v-5.78c0-1.853-.918-2.635-2.584-2.635-1.19 0-2.363.731-2.958 1.445v-4.369h-.884V182h.884v-6.205c.527-.748 1.615-1.411 2.669-1.411 1.19 0 1.989.442 1.989 2.023V182h.884zm9.602.204c2.057 0 3.077-1.088 3.077-2.414 0-3.162-5.185-1.904-5.185-3.961 0-.85.782-1.496 2.057-1.496 1.088 0 1.972.442 2.448 1.088l.493-.629c-.595-.663-1.53-1.207-2.941-1.207-1.853 0-2.924 1.02-2.924 2.278 0 2.941 5.185 1.683 5.185 3.927 0 .952-.816 1.666-2.193 1.666-1.156 0-2.125-.544-2.652-1.207l-.527.663c.816.901 1.836 1.292 3.162 1.292zm7.14 0c.68 0 1.071-.204 1.394-.51l-.34-.68a1.283 1.283 0 01-.918.391c-.578 0-.85-.459-.85-1.122v-5.712h1.666v-.782h-1.666v-2.244h-.901v2.244h-1.36v.782h1.36v5.848c0 1.122.527 1.785 1.615 1.785zm8.999-.204v-5.78c0-1.836-1.326-2.635-2.992-2.635-1.36 0-2.312.459-3.162 1.377l.493.612c.748-.85 1.547-1.207 2.567-1.207 1.224 0 2.21.663 2.21 1.887v1.666c-.714-.799-1.649-1.173-2.788-1.173-1.428 0-2.873.935-2.873 2.72 0 1.768 1.462 2.737 2.873 2.737 1.139 0 2.057-.374 2.788-1.173V182h.884zm-3.366-.493c-1.36 0-2.244-.867-2.244-2.023 0-1.173.884-2.04 2.244-2.04.986 0 1.904.391 2.482 1.139v1.802c-.578.748-1.496 1.122-2.482 1.122zm7.914.697c.68 0 1.071-.204 1.394-.51l-.34-.68a1.283 1.283 0 01-.918.391c-.578 0-.85-.459-.85-1.122v-5.712h1.666v-.782h-1.666v-2.244h-.901v2.244h-1.36v.782h1.36v5.848c0 1.122.527 1.785 1.615 1.785zm3.338-9.707c.374 0 .68-.306.68-.68a.668.668 0 00-.68-.663c-.357 0-.68.289-.68.663 0 .374.323.68.68.68zm.442 9.503v-8.211h-.884V182h.884zm5.2.204c2.057 0 3.077-1.088 3.077-2.414 0-3.162-5.185-1.904-5.185-3.961 0-.85.782-1.496 2.057-1.496 1.088 0 1.972.442 2.448 1.088l.493-.629c-.595-.663-1.53-1.207-2.941-1.207-1.853 0-2.924 1.02-2.924 2.278 0 2.941 5.185 1.683 5.185 3.927 0 .952-.816 1.666-2.193 1.666-1.156 0-2.125-.544-2.652-1.207l-.527.663c.816.901 1.836 1.292 3.162 1.292zm7.14 0c.68 0 1.071-.204 1.394-.51l-.34-.68a1.283 1.283 0 01-.918.391c-.578 0-.85-.459-.85-1.122v-5.712h1.666v-.782h-1.666v-2.244h-.901v2.244h-1.36v.782h1.36v5.848c0 1.122.527 1.785 1.615 1.785zm3.338-9.707c.374 0 .68-.306.68-.68a.668.668 0 00-.68-.663c-.357 0-.68.289-.68.663 0 .374.323.68.68.68zm.442 9.503v-8.211h-.884V182h.884zm6.271.204c1.428 0 2.244-.561 2.907-1.411l-.612-.544c-.595.816-1.343 1.156-2.244 1.156-1.921 0-3.094-1.547-3.094-3.519 0-1.972 1.173-3.502 3.094-3.502.901 0 1.649.323 2.244 1.139l.612-.544c-.663-.833-1.479-1.394-2.907-1.394-2.414 0-3.995 1.904-3.995 4.301 0 2.397 1.581 4.318 3.995 4.318zm7.33 0c2.057 0 3.077-1.088 3.077-2.414 0-3.162-5.185-1.904-5.185-3.961 0-.85.782-1.496 2.057-1.496 1.088 0 1.972.442 2.448 1.088l.493-.629c-.595-.663-1.53-1.207-2.941-1.207-1.853 0-2.924 1.02-2.924 2.278 0 2.941 5.185 1.683 5.185 3.927 0 .952-.816 1.666-2.193 1.666-1.156 0-2.125-.544-2.652-1.207l-.527.663c.816.901 1.836 1.292 3.162 1.292z" fill="#000"/><rect x="60.5" y="226.5" width="227" height="30" rx="3.5" stroke="#77BCE8"/><path d="M90.287 247v-10.455h3.706v-.884h-8.398v.884h3.706V247h.986zm4.993 0v-5.984c.374-.714 1.496-1.462 2.329-1.462.17 0 .289 0 .442.034v-.969c-1.14 0-2.074.663-2.771 1.581v-1.411h-.884V247h.884zm4.953-9.503c.374 0 .68-.306.68-.68a.668.668 0 00-.68-.663c-.357 0-.68.289-.68.663 0 .374.323.68.68.68zm.442 9.503v-8.211h-.884V247h.884zm6.492.204c2.193 0 3.672-1.7 3.672-4.318 0-2.635-1.479-4.301-3.672-4.301a3.528 3.528 0 00-2.856 1.496v-1.292h-.884v11.339h.884v-4.454c.663.935 1.7 1.53 2.856 1.53zm-.153-.799c-1.139 0-2.227-.714-2.703-1.496v-4.063c.476-.782 1.564-1.462 2.703-1.462 1.836 0 2.873 1.513 2.873 3.502 0 1.989-1.037 3.519-2.873 3.519zm5.446.935l4.029-12.019h-.765l-4.029 12.019h.765zm13.298-.34l2.669-8.211h-.952l-2.176 6.97-2.312-6.97h-.765l-2.312 6.97-2.176-6.97h-.952l2.669 8.211h.85l2.312-7.021 2.295 7.021h.85zm7.969.204c1.36 0 2.397-.476 3.213-1.326l-.459-.578c-.697.748-1.649 1.139-2.686 1.139-1.938 0-3.128-1.479-3.213-3.264h6.868v-.238c0-2.363-1.377-4.352-3.876-4.352-2.278 0-3.961 1.921-3.961 4.301 0 2.533 1.717 4.318 4.114 4.318zm2.822-4.726h-5.967c.068-1.428 1.037-3.128 2.975-3.128 2.057 0 2.975 1.734 2.992 3.128zm9.288 4.522v-5.78c0-1.836-1.326-2.635-2.992-2.635-1.36 0-2.312.459-3.162 1.377l.493.612c.748-.85 1.547-1.207 2.567-1.207 1.224 0 2.21.663 2.21 1.887v1.666c-.714-.799-1.649-1.173-2.788-1.173-1.428 0-2.873.935-2.873 2.72 0 1.768 1.462 2.737 2.873 2.737 1.139 0 2.057-.374 2.788-1.173V247h.884zm-3.366-.493c-1.36 0-2.244-.867-2.244-2.023 0-1.173.884-2.04 2.244-2.04.986 0 1.904.391 2.482 1.139v1.802c-.578.748-1.496 1.122-2.482 1.122zm7.914.697c.68 0 1.071-.204 1.394-.51l-.34-.68a1.283 1.283 0 01-.918.391c-.578 0-.85-.459-.85-1.122v-5.712h1.666v-.782h-1.666v-2.244h-.901v2.244h-1.36v.782h1.36v5.848c0 1.122.527 1.785 1.615 1.785zm9.322-.204v-5.78c0-1.853-.918-2.635-2.584-2.635-1.19 0-2.363.731-2.958 1.445v-4.369h-.884V247h.884v-6.205c.527-.748 1.615-1.411 2.669-1.411 1.19 0 1.989.442 1.989 2.023V247h.884zm6.393.204c1.36 0 2.397-.476 3.213-1.326l-.459-.578c-.697.748-1.649 1.139-2.686 1.139-1.938 0-3.128-1.479-3.213-3.264h6.868v-.238c0-2.363-1.377-4.352-3.876-4.352-2.278 0-3.961 1.921-3.961 4.301 0 2.533 1.717 4.318 4.114 4.318zm2.822-4.726h-5.967c.068-1.428 1.037-3.128 2.975-3.128 2.057 0 2.975 1.734 2.992 3.128zm4.069 4.522v-5.984c.374-.714 1.496-1.462 2.329-1.462.17 0 .289 0 .442.034v-.969c-1.139 0-2.074.663-2.771 1.581v-1.411h-.884V247h.884zm9.353-9.503c.374 0 .68-.306.68-.68a.668.668 0 00-.68-.663c-.357 0-.68.289-.68.663 0 .374.323.68.68.68zm.442 9.503v-8.211h-.884V247h.884zm9.178 0v-5.746c0-1.853-.918-2.669-2.584-2.669-1.19 0-2.363.731-2.958 1.445v-1.241h-.884V247h.884v-6.205c.527-.748 1.615-1.411 2.669-1.411 1.19 0 1.989.476 1.989 2.057V247h.884zm3.928 0v-7.429h1.666v-.782h-1.666v-.748c0-1.139.493-1.785 1.428-1.785.442 0 .782.17 1.054.425l.425-.612c-.527-.459-.986-.578-1.564-.578-1.377 0-2.227.952-2.227 2.55v.748h-1.36v.782h1.36V247h.884zm6.794.204c2.431 0 3.961-1.921 3.961-4.318 0-2.397-1.53-4.301-3.961-4.301-2.397 0-3.944 1.904-3.944 4.301 0 2.397 1.547 4.318 3.944 4.318zm0-.799c-1.904 0-2.992-1.683-2.992-3.519 0-1.819 1.088-3.502 2.992-3.502 1.938 0 3.009 1.683 3.009 3.502 0 1.836-1.071 3.519-3.009 3.519zm7.128.595v-5.984c.374-.714 1.496-1.462 2.329-1.462.17 0 .289 0 .442.034v-.969c-1.139 0-2.074.663-2.771 1.581v-1.411h-.884V247h.884zm15.17 0v-5.916c0-1.649-.731-2.499-2.244-2.499-1.156 0-2.261.782-2.72 1.547-.204-.799-.884-1.547-2.159-1.547-1.19 0-2.312.918-2.652 1.445v-1.241h-.884V247h.884v-6.205c.493-.748 1.479-1.411 2.346-1.411 1.173 0 1.649.714 1.649 1.87V247h.901v-6.222c.459-.748 1.462-1.394 2.346-1.394 1.156 0 1.649.714 1.649 1.87V247h.884zm8.858 0v-5.78c0-1.836-1.326-2.635-2.992-2.635-1.36 0-2.312.459-3.162 1.377l.493.612c.748-.85 1.547-1.207 2.567-1.207 1.224 0 2.21.663 2.21 1.887v1.666c-.714-.799-1.649-1.173-2.788-1.173-1.428 0-2.873.935-2.873 2.72 0 1.768 1.462 2.737 2.873 2.737 1.139 0 2.057-.374 2.788-1.173V247h.884zm-3.366-.493c-1.36 0-2.244-.867-2.244-2.023 0-1.173.884-2.04 2.244-2.04.986 0 1.904.391 2.482 1.139v1.802c-.578.748-1.496 1.122-2.482 1.122zm7.914.697c.68 0 1.071-.204 1.394-.51l-.34-.68a1.283 1.283 0 01-.918.391c-.578 0-.85-.459-.85-1.122v-5.712h1.666v-.782h-1.666v-2.244h-.901v2.244h-1.36v.782h1.36v5.848c0 1.122.527 1.785 1.615 1.785zm3.338-9.707c.374 0 .68-.306.68-.68a.668.668 0 00-.68-.663c-.357 0-.68.289-.68.663 0 .374.323.68.68.68zm.442 9.503v-8.211h-.884V247h.884zm6.22.204c2.431 0 3.961-1.921 3.961-4.318 0-2.397-1.53-4.301-3.961-4.301-2.397 0-3.944 1.904-3.944 4.301 0 2.397 1.547 4.318 3.944 4.318zm0-.799c-1.904 0-2.992-1.683-2.992-3.519 0-1.819 1.088-3.502 2.992-3.502 1.938 0 3.009 1.683 3.009 3.502 0 1.836-1.071 3.519-3.009 3.519zm12.67.595v-5.746c0-1.853-.918-2.669-2.584-2.669-1.19 0-2.363.731-2.958 1.445v-1.241h-.884V247h.884v-6.205c.527-.748 1.615-1.411 2.669-1.411 1.19 0 1.989.476 1.989 2.057V247h.884z" fill="#000"/><path d="M534.036 141v-9.024h3.232v-1.648h-8.336v1.648h3.232V141h1.872zm11.683 0v-5.472c0-1.584-.832-2.448-2.496-2.448-1.216 0-2.224.64-2.736 1.248v-4h-1.68V141h1.68v-5.392c.4-.528 1.136-1.04 1.984-1.04.944 0 1.568.368 1.568 1.568V141h1.68zm5.75.192c1.232 0 2.368-.384 3.136-1.12l-.768-1.104c-.544.544-1.44.848-2.192.848-1.456 0-2.336-.96-2.464-2.128h5.968v-.4c0-2.432-1.488-4.208-3.808-4.208-2.288 0-3.92 1.808-3.92 4.048 0 2.448 1.728 4.064 4.048 4.064zm2.048-4.688h-4.353c.081-.944.737-2.048 2.177-2.048 1.52 0 2.144 1.136 2.176 2.048zm12.567 4.688c2.16 0 3.472-1.12 4.288-2.4l-1.6-.816a3.134 3.134 0 01-2.688 1.552c-2.112 0-3.68-1.616-3.68-3.856 0-2.24 1.568-3.856 3.68-3.856 1.152 0 2.176.672 2.688 1.552l1.6-.816c-.8-1.28-2.128-2.4-4.288-2.4-3.152 0-5.6 2.24-5.6 5.52 0 3.28 2.448 5.52 5.6 5.52zm7.418-.192v-10.672h-1.68V141h1.68zm3.012-8.672c.576 0 1.04-.464 1.04-1.04 0-.576-.464-1.04-1.04-1.04-.56 0-1.04.464-1.04 1.04 0 .576.48 1.04 1.04 1.04zm.848 8.672v-7.728h-1.68V141h1.68zm5.747.192c1.232 0 2.368-.384 3.136-1.12l-.768-1.104c-.544.544-1.44.848-2.192.848-1.456 0-2.336-.96-2.464-2.128h5.968v-.4c0-2.432-1.488-4.208-3.808-4.208-2.288 0-3.92 1.808-3.92 4.048 0 2.448 1.728 4.064 4.048 4.064zm2.048-4.688h-4.352c.08-.944.736-2.048 2.176-2.048 1.52 0 2.144 1.136 2.176 2.048zM595.343 141v-5.44c0-1.584-.832-2.48-2.496-2.48-1.216 0-2.208.64-2.72 1.248v-1.056h-1.68V141h1.68v-5.392c.384-.528 1.12-1.04 1.984-1.04.944 0 1.552.4 1.552 1.6V141h1.68zm4.503.192c.784 0 1.28-.208 1.584-.496l-.4-1.264c-.128.144-.432.272-.752.272-.48 0-.736-.384-.736-.912v-4.048h1.568v-1.472h-1.568v-2.112h-1.68v2.112h-1.28v1.472h1.28v4.464c0 1.28.687 1.984 1.984 1.984zm4.869-9.568c0-.928-.592-1.456-1.248-1.456-.592 0-1.088.496-1.088 1.104 0 .592.416 1.008.96 1.008.096 0 .224-.032.272-.048-.112.544-.64 1.2-1.152 1.504l.752.624c.88-.624 1.504-1.632 1.504-2.736zm3.982 9.568c2.08 0 3.216-1.04 3.216-2.4 0-3.072-4.672-2.048-4.672-3.424 0-.544.56-.944 1.44-.944.96 0 1.824.4 2.288.928l.704-1.184c-.704-.624-1.696-1.088-3.008-1.088-1.952 0-3.04 1.088-3.04 2.352 0 2.96 4.672 1.872 4.672 3.392 0 .608-.512 1.04-1.52 1.04s-2.08-.528-2.624-1.088l-.768 1.216c.8.784 2 1.2 3.312 1.2zM545.763 163v-10.672h-1.68v4.016c-.624-.816-1.52-1.264-2.48-1.264-2 0-3.44 1.568-3.44 4.064 0 2.544 1.456 4.048 3.44 4.048.992 0 1.888-.48 2.48-1.248V163h1.68zm-3.68-1.296c-1.328 0-2.176-1.072-2.176-2.56 0-1.504.848-2.576 2.176-2.576.8 0 1.616.464 2 1.04v3.072c-.384.576-1.2 1.024-2 1.024zM554.34 163v-5.12c0-2.08-1.504-2.8-3.216-2.8-1.232 0-2.352.4-3.248 1.248l.688 1.168c.672-.656 1.424-.976 2.288-.976 1.072 0 1.808.544 1.808 1.44v1.152c-.56-.656-1.456-.992-2.496-.992-1.264 0-2.688.736-2.688 2.512 0 1.712 1.424 2.56 2.688 2.56 1.024 0 1.92-.368 2.496-1.024V163h1.68zm-3.52-.96c-.944 0-1.648-.544-1.648-1.376 0-.848.704-1.392 1.648-1.392.736 0 1.456.272 1.84.8v1.168c-.384.528-1.104.8-1.84.8zm8.018 1.152c.784 0 1.28-.208 1.584-.496l-.4-1.264c-.128.144-.432.272-.752.272-.48 0-.736-.384-.736-.912v-4.048h1.568v-1.472h-1.568v-2.112h-1.68v2.112h-1.28v1.472h1.28v4.464c0 1.28.688 1.984 1.984 1.984zm9.189-.192v-5.12c0-2.08-1.504-2.8-3.216-2.8-1.232 0-2.352.4-3.248 1.248l.688 1.168c.672-.656 1.424-.976 2.288-.976 1.072 0 1.808.544 1.808 1.44v1.152c-.56-.656-1.456-.992-2.496-.992-1.264 0-2.688.736-2.688 2.512 0 1.712 1.424 2.56 2.688 2.56 1.024 0 1.92-.368 2.496-1.024V163h1.68zm-3.52-.96c-.944 0-1.648-.544-1.648-1.376 0-.848.704-1.392 1.648-1.392.736 0 1.456.272 1.84.8v1.168c-.384.528-1.104.8-1.84.8zm7.378-1.36v-3.056c.368-.576 1.2-1.056 1.984-1.056 1.344 0 2.192 1.072 2.192 2.576s-.848 2.56-2.192 2.56c-.784 0-1.616-.448-1.984-1.024zm0 2.32v-1.056c.592.768 1.472 1.248 2.48 1.248 1.968 0 3.424-1.504 3.424-4.048 0-2.496-1.44-4.064-3.424-4.064-.976 0-1.872.448-2.48 1.264v-4.016h-1.68V163h1.68zm14.017 0v-5.12c0-2.08-1.504-2.8-3.216-2.8-1.232 0-2.352.4-3.248 1.248l.688 1.168c.672-.656 1.424-.976 2.288-.976 1.072 0 1.808.544 1.808 1.44v1.152c-.56-.656-1.456-.992-2.496-.992-1.264 0-2.688.736-2.688 2.512 0 1.712 1.424 2.56 2.688 2.56 1.024 0 1.92-.368 2.496-1.024V163h1.68zm-3.52-.96c-.944 0-1.648-.544-1.648-1.376 0-.848.704-1.392 1.648-1.392.736 0 1.456.272 1.84.8v1.168c-.384.528-1.104.8-1.84.8zm8.338 1.152c2.08 0 3.216-1.04 3.216-2.4 0-3.072-4.672-2.048-4.672-3.424 0-.544.56-.944 1.44-.944.96 0 1.824.4 2.288.928l.704-1.184c-.704-.624-1.696-1.088-3.008-1.088-1.952 0-3.04 1.088-3.04 2.352 0 2.96 4.672 1.872 4.672 3.392 0 .608-.512 1.04-1.52 1.04s-2.08-.528-2.624-1.088l-.768 1.216c.8.784 2 1.2 3.312 1.2zm8.475 0c1.232 0 2.368-.384 3.136-1.12l-.768-1.104c-.544.544-1.44.848-2.192.848-1.456 0-2.336-.96-2.464-2.128h5.968v-.4c0-2.432-1.488-4.208-3.808-4.208-2.288 0-3.92 1.808-3.92 4.048 0 2.448 1.728 4.064 4.048 4.064zm2.048-4.688h-4.352c.08-.944.736-2.048 2.176-2.048 1.52 0 2.144 1.136 2.176 2.048z" fill="#fff"/><defs><linearGradient id="paint0_linear" x1="309.896" y1="41.164" x2="520.637" y2="91.368" gradientUnits="userSpaceOnUse"><stop stop-color="#77BCE8"/><stop offset=".314" stop-color="#77BCE8"/><stop offset=".447" stop-color="#77BCE8"/><stop offset=".63" stop-color="#77BCE8"/><stop offset="1" stop-color="#77BCE8" stop-opacity="0"/></linearGradient><linearGradient id="paint1_linear" x1="309.896" y1="242.864" x2="520.637" y2="192.661" gradientUnits="userSpaceOnUse"><stop stop-color="#77BCE8"/><stop offset=".314" stop-color="#77BCE8"/><stop offset=".447" stop-color="#77BCE8"/><stop offset=".63" stop-color="#77BCE8"/><stop offset="1" stop-color="#77BCE8" stop-opacity="0"/></linearGradient><linearGradient id="paint2_linear" x1="330.15" y1="106.834" x2="463.235" y2="190.185" gradientUnits="userSpaceOnUse"><stop stop-color="#77BCE8"/><stop offset=".314" stop-color="#77BCE8"/><stop offset=".447" stop-color="#77BCE8"/><stop offset=".63" stop-color="#77BCE8"/><stop offset="1" stop-color="#77BCE8" stop-opacity="0"/></linearGradient><linearGradient id="paint3_linear" x1="330.15" y1="177.195" x2="463.235" y2="93.844" gradientUnits="userSpaceOnUse"><stop stop-color="#77BCE8"/><stop offset=".314" stop-color="#77BCE8"/><stop offset=".447" stop-color="#77BCE8"/><stop offset=".63" stop-color="#77BCE8"/><stop offset="1" stop-color="#77BCE8" stop-opacity="0"/></linearGradient></defs></svg>