<svg width="740" height="196" fill="none" xmlns="http://www.w3.org/2000/svg"><path fill="#fff" d="M0 0h740v196H0z"/><g filter="url(#filter0_ddd)"><rect x="33" y="13" width="674" height="170" rx="7" fill="#fff"/></g><path d="M70.912 70v-4.872c0-1.358-.602-2.058-1.848-2.058-.952 0-1.862.644-2.24 1.274-.168-.658-.728-1.274-1.778-1.274-.98 0-1.904.756-2.184 1.19v-1.022h-.728V70h.728v-5.11c.406-.616 1.218-1.162 1.932-1.162.966 0 1.358.588 1.358 1.54V70h.742v-5.124c.378-.616 1.204-1.148 1.932-1.148.952 0 1.358.588 1.358 1.54V70h.728zm5.125.168c2.002 0 3.262-1.582 3.262-3.556s-1.26-3.542-3.262-3.542c-1.974 0-3.248 1.568-3.248 3.542 0 1.974 1.274 3.556 3.248 3.556zm0-.658c-1.568 0-2.464-1.386-2.464-2.898 0-1.498.896-2.884 2.464-2.884 1.596 0 2.478 1.386 2.478 2.884 0 1.512-.882 2.898-2.478 2.898zm5.87.49v-4.928c.308-.588 1.232-1.204 1.918-1.204.14 0 .238 0 .364.028v-.798c-.938 0-1.708.546-2.282 1.302v-1.162h-.728V70h.728zm6.711.168c1.12 0 1.974-.392 2.646-1.092l-.378-.476c-.574.616-1.358.938-2.212.938-1.596 0-2.576-1.218-2.646-2.688h5.656v-.196c0-1.946-1.134-3.584-3.192-3.584-1.876 0-3.262 1.582-3.262 3.542 0 2.086 1.414 3.556 3.388 3.556zm2.324-3.892h-4.914c.056-1.176.854-2.576 2.45-2.576 1.694 0 2.45 1.428 2.464 2.576zM98.155 70v-6.118h1.372v-.644h-1.372v-.616c0-.938.406-1.47 1.176-1.47.364 0 .644.14.868.35l.35-.504c-.434-.378-.812-.476-1.288-.476-1.134 0-1.834.784-1.834 2.1v.616h-1.12v.644h1.12V70h.728zm7.765 0v-4.76c0-1.512-1.092-2.17-2.464-2.17-1.12 0-1.904.378-2.604 1.134l.406.504c.616-.7 1.274-.994 2.114-.994 1.008 0 1.82.546 1.82 1.554v1.372c-.588-.658-1.358-.966-2.296-.966-1.176 0-2.366.77-2.366 2.24 0 1.456 1.204 2.254 2.366 2.254.938 0 1.694-.308 2.296-.966V70h.728zm-2.772-.406c-1.12 0-1.848-.714-1.848-1.666 0-.966.728-1.68 1.848-1.68.812 0 1.568.322 2.044.938v1.484c-.476.616-1.232.924-2.044.924zm5.775.406v-9.338h-.728V70h.728zm4.282.168c1.694 0 2.534-.896 2.534-1.988 0-2.604-4.27-1.568-4.27-3.262 0-.7.644-1.232 1.694-1.232.896 0 1.624.364 2.016.896l.406-.518c-.49-.546-1.26-.994-2.422-.994-1.526 0-2.408.84-2.408 1.876 0 2.422 4.27 1.386 4.27 3.234 0 .784-.672 1.372-1.806 1.372-.952 0-1.75-.448-2.184-.994l-.434.546c.672.742 1.512 1.064 2.604 1.064zm7.405 0c1.12 0 1.974-.392 2.646-1.092l-.378-.476c-.574.616-1.358.938-2.212.938-1.596 0-2.576-1.218-2.646-2.688h5.656v-.196c0-1.946-1.134-3.584-3.192-3.584-1.876 0-3.262 1.582-3.262 3.542 0 2.086 1.414 3.556 3.388 3.556zm2.324-3.892h-4.914c.056-1.176.854-2.576 2.45-2.576 1.694 0 2.45 1.428 2.464 2.576zm9.327 3.892c1.806 0 3.024-1.4 3.024-3.556 0-2.17-1.218-3.542-3.024-3.542a2.906 2.906 0 00-2.352 1.232v-1.064h-.728v9.338h.728v-3.668c.546.77 1.4 1.26 2.352 1.26zm-.126-.658c-.938 0-1.834-.588-2.226-1.232v-3.346c.392-.644 1.288-1.204 2.226-1.204 1.512 0 2.366 1.246 2.366 2.884s-.854 2.898-2.366 2.898zm7.845.658c2.002 0 3.262-1.582 3.262-3.556s-1.26-3.542-3.262-3.542c-1.974 0-3.248 1.568-3.248 3.542 0 1.974 1.274 3.556 3.248 3.556zm0-.658c-1.568 0-2.464-1.386-2.464-2.898 0-1.498.896-2.884 2.464-2.884 1.596 0 2.478 1.386 2.478 2.884 0 1.512-.882 2.898-2.478 2.898zm7.158.658c1.694 0 2.534-.896 2.534-1.988 0-2.604-4.27-1.568-4.27-3.262 0-.7.644-1.232 1.694-1.232.896 0 1.624.364 2.016.896l.406-.518c-.49-.546-1.26-.994-2.422-.994-1.526 0-2.408.84-2.408 1.876 0 2.422 4.27 1.386 4.27 3.234 0 .784-.672 1.372-1.806 1.372-.952 0-1.75-.448-2.184-.994l-.434.546c.672.742 1.512 1.064 2.604 1.064zm4.774-7.994c.308 0 .56-.252.56-.56a.55.55 0 00-.56-.546.559.559 0 00-.56.546c0 .308.266.56.56.56zm.364 7.826v-6.762h-.728V70h.728zm3.736.168c.56 0 .882-.168 1.148-.42l-.28-.56a1.056 1.056 0 01-.756.322c-.476 0-.7-.378-.7-.924v-4.704h1.372v-.644h-1.372V61.39h-.742v1.848h-1.12v.644h1.12v4.816c0 .924.434 1.47 1.33 1.47zm2.75-7.994c.308 0 .56-.252.56-.56a.55.55 0 00-.56-.546.559.559 0 00-.56.546c0 .308.266.56.56.56zm.364 7.826v-6.762h-.728V70h.728zm4.912 0l2.856-6.762h-.826l-2.436 5.908-2.464-5.908h-.812L163.212 70h.826zm7.09.168c1.12 0 1.974-.392 2.646-1.092l-.378-.476c-.574.616-1.358.938-2.212.938-1.596 0-2.576-1.218-2.646-2.688h5.656v-.196c0-1.946-1.134-3.584-3.192-3.584-1.876 0-3.262 1.582-3.262 3.542 0 2.086 1.414 3.556 3.388 3.556zm2.324-3.892h-4.914c.056-1.176.854-2.576 2.45-2.576 1.694 0 2.45 1.428 2.464 2.576zm4.639 3.892c1.694 0 2.534-.896 2.534-1.988 0-2.604-4.27-1.568-4.27-3.262 0-.7.644-1.232 1.694-1.232.896 0 1.624.364 2.016.896l.406-.518c-.49-.546-1.26-.994-2.422-.994-1.526 0-2.408.84-2.408 1.876 0 2.422 4.27 1.386 4.27 3.234 0 .784-.672 1.372-1.806 1.372-.952 0-1.75-.448-2.184-.994l-.434.546c.672.742 1.512 1.064 2.604 1.064zM187.09 70v-6.118h1.372v-.644h-1.372v-.616c0-.938.406-1.47 1.176-1.47.364 0 .644.14.868.35l.35-.504c-.434-.378-.812-.476-1.288-.476-1.134 0-1.834.784-1.834 2.1v.616h-1.12v.644h1.12V70h.728zm5.595.168c2.002 0 3.262-1.582 3.262-3.556s-1.26-3.542-3.262-3.542c-1.974 0-3.248 1.568-3.248 3.542 0 1.974 1.274 3.556 3.248 3.556zm0-.658c-1.568 0-2.464-1.386-2.464-2.898 0-1.498.896-2.884 2.464-2.884 1.596 0 2.478 1.386 2.478 2.884 0 1.512-.882 2.898-2.478 2.898zm5.87.49v-4.928c.308-.588 1.232-1.204 1.918-1.204.14 0 .238 0 .364.028v-.798c-.938 0-1.708.546-2.282 1.302v-1.162h-.728V70h.728zm15.053 0l-3.822-9.338h-.994L204.97 70h.924l.924-2.296h4.942l.924 2.296h.924zm-2.114-3.024h-4.41l2.198-5.46 2.212 5.46zm5.48 3.192c1.694 0 2.534-.896 2.534-1.988 0-2.604-4.27-1.568-4.27-3.262 0-.7.644-1.232 1.694-1.232.896 0 1.624.364 2.016.896l.406-.518c-.49-.546-1.26-.994-2.422-.994-1.526 0-2.408.84-2.408 1.876 0 2.422 4.27 1.386 4.27 3.234 0 .784-.672 1.372-1.806 1.372-.952 0-1.75-.448-2.184-.994l-.434.546c.672.742 1.512 1.064 2.604 1.064zm4.774-7.994c.308 0 .56-.252.56-.56a.55.55 0 00-.56-.546.559.559 0 00-.56.546c0 .308.266.56.56.56zm.364 7.826v-6.762h-.728V70h.728zm7.292 0v-4.76c0-1.512-1.092-2.17-2.464-2.17-1.12 0-1.904.378-2.604 1.134l.406.504c.616-.7 1.274-.994 2.114-.994 1.008 0 1.82.546 1.82 1.554v1.372c-.588-.658-1.358-.966-2.296-.966-1.176 0-2.366.77-2.366 2.24 0 1.456 1.204 2.254 2.366 2.254.938 0 1.694-.308 2.296-.966V70h.728zm-2.772-.406c-1.12 0-1.848-.714-1.848-1.666 0-.966.728-1.68 1.848-1.68.812 0 1.568.322 2.044.938v1.484c-.476.616-1.232.924-2.044.924zm10.339.406v-4.732c0-1.526-.756-2.198-2.128-2.198-.98 0-1.946.602-2.436 1.19v-1.022h-.728V70h.728v-5.11c.434-.616 1.33-1.162 2.198-1.162.98 0 1.638.392 1.638 1.694V70h.728zm4.284.168c1.694 0 2.534-.896 2.534-1.988 0-2.604-4.27-1.568-4.27-3.262 0-.7.644-1.232 1.694-1.232.896 0 1.624.364 2.016.896l.406-.518c-.49-.546-1.26-.994-2.422-.994-1.526 0-2.408.84-2.408 1.876 0 2.422 4.27 1.386 4.27 3.234 0 .784-.672 1.372-1.806 1.372-.952 0-1.75-.448-2.184-.994l-.434.546c.672.742 1.512 1.064 2.604 1.064zM254.314 70v-4.76c0-1.512-1.092-2.17-2.464-2.17-1.12 0-1.904.378-2.604 1.134l.406.504c.616-.7 1.274-.994 2.114-.994 1.008 0 1.82.546 1.82 1.554v1.372c-.588-.658-1.358-.966-2.296-.966-1.176 0-2.366.77-2.366 2.24 0 1.456 1.204 2.254 2.366 2.254.938 0 1.694-.308 2.296-.966V70h.728zm-2.772-.406c-1.12 0-1.848-.714-1.848-1.666 0-.966.728-1.68 1.848-1.68.812 0 1.568.322 2.044.938v1.484c-.476.616-1.232.924-2.044.924zm10.339.406v-4.732c0-1.526-.756-2.198-2.128-2.198-.98 0-1.946.602-2.436 1.19v-1.022h-.728V70h.728v-5.11c.434-.616 1.33-1.162 2.198-1.162.98 0 1.638.392 1.638 1.694V70h.728zm7.995 0v-9.338h-.742v3.668c-.546-.77-1.386-1.26-2.352-1.26-1.792 0-3.024 1.414-3.024 3.556 0 2.17 1.232 3.542 3.024 3.542a2.88 2.88 0 002.352-1.246V70h.742zm-2.968-.49c-1.498 0-2.366-1.246-2.366-2.884s.868-2.898 2.366-2.898c.952 0 1.834.574 2.226 1.232v3.346c-.392.644-1.274 1.204-2.226 1.204zm16.577.49l-3.822-9.338h-.994L274.847 70h.924l.924-2.296h4.942l.924 2.296h.924zm-2.114-3.024h-4.41l2.198-5.46 2.212 5.46zM285.733 70v-6.118h1.372v-.644h-1.372v-.616c0-.938.406-1.47 1.176-1.47.364 0 .644.14.868.35l.35-.504c-.434-.378-.812-.476-1.288-.476-1.134 0-1.834.784-1.834 2.1v.616h-1.12v.644h1.12V70h.728zm3.467 0v-4.928c.308-.588 1.232-1.204 1.918-1.204.14 0 .238 0 .364.028v-.798c-.938 0-1.708.546-2.282 1.302v-1.162h-.728V70h.728zm4.079-7.826c.308 0 .56-.252.56-.56a.55.55 0 00-.56-.546.559.559 0 00-.56.546c0 .308.266.56.56.56zm.364 7.826v-6.762h-.728V70h.728zm5.164.168c1.176 0 1.848-.462 2.394-1.162l-.504-.448c-.49.672-1.106.952-1.848.952-1.582 0-2.548-1.274-2.548-2.898s.966-2.884 2.548-2.884c.742 0 1.358.266 1.848.938l.504-.448c-.546-.686-1.218-1.148-2.394-1.148-1.988 0-3.29 1.568-3.29 3.542 0 1.974 1.302 3.556 3.29 3.556zm9.046-.168v-4.76c0-1.512-1.092-2.17-2.464-2.17-1.12 0-1.904.378-2.604 1.134l.406.504c.616-.7 1.274-.994 2.114-.994 1.008 0 1.82.546 1.82 1.554v1.372c-.588-.658-1.358-.966-2.296-.966-1.176 0-2.366.77-2.366 2.24 0 1.456 1.204 2.254 2.366 2.254.938 0 1.694-.308 2.296-.966V70h.728zm-2.772-.406c-1.12 0-1.848-.714-1.848-1.666 0-.966.728-1.68 1.848-1.68.812 0 1.568.322 2.044.938v1.484c-.476.616-1.232.924-2.044.924zM315.42 70v-4.732c0-1.526-.756-2.198-2.128-2.198-.98 0-1.946.602-2.436 1.19v-1.022h-.728V70h.728v-5.11c.434-.616 1.33-1.162 2.198-1.162.98 0 1.638.392 1.638 1.694V70h.728zm13.606 0l-3.822-9.338h-.994L320.388 70h.924l.924-2.296h4.942l.924 2.296h.924zm-2.114-3.024h-4.41l2.198-5.46 2.212 5.46zM339.154 70v-4.872c0-1.358-.602-2.058-1.848-2.058-.952 0-1.862.644-2.24 1.274-.168-.658-.728-1.274-1.778-1.274-.98 0-1.904.756-2.184 1.19v-1.022h-.728V70h.728v-5.11c.406-.616 1.218-1.162 1.932-1.162.966 0 1.358.588 1.358 1.54V70h.742v-5.124c.378-.616 1.204-1.148 1.932-1.148.952 0 1.358.588 1.358 1.54V70h.728zm5.265.168c1.12 0 1.974-.392 2.646-1.092l-.378-.476c-.574.616-1.358.938-2.212.938-1.596 0-2.576-1.218-2.646-2.688h5.656v-.196c0-1.946-1.134-3.584-3.192-3.584-1.876 0-3.262 1.582-3.262 3.542 0 2.086 1.414 3.556 3.388 3.556zm2.324-3.892h-4.914c.056-1.176.854-2.576 2.45-2.576 1.694 0 2.45 1.428 2.464 2.576zM350.094 70v-4.928c.308-.588 1.232-1.204 1.918-1.204.14 0 .238 0 .364.028v-.798c-.938 0-1.708.546-2.282 1.302v-1.162h-.728V70h.728zm4.08-7.826c.308 0 .56-.252.56-.56a.55.55 0 00-.56-.546.559.559 0 00-.56.546c0 .308.266.56.56.56zm.364 7.826v-6.762h-.728V70h.728zm5.164.168c1.176 0 1.848-.462 2.394-1.162l-.504-.448c-.49.672-1.106.952-1.848.952-1.582 0-2.548-1.274-2.548-2.898s.966-2.884 2.548-2.884c.742 0 1.358.266 1.848.938l.504-.448c-.546-.686-1.218-1.148-2.394-1.148-1.988 0-3.29 1.568-3.29 3.542 0 1.974 1.302 3.556 3.29 3.556zm9.046-.168v-4.76c0-1.512-1.092-2.17-2.464-2.17-1.12 0-1.904.378-2.604 1.134l.406.504c.616-.7 1.274-.994 2.114-.994 1.008 0 1.82.546 1.82 1.554v1.372c-.588-.658-1.358-.966-2.296-.966-1.176 0-2.366.77-2.366 2.24 0 1.456 1.204 2.254 2.366 2.254.938 0 1.694-.308 2.296-.966V70h.728zm-2.772-.406c-1.12 0-1.848-.714-1.848-1.666 0-.966.728-1.68 1.848-1.68.812 0 1.568.322 2.044.938v1.484c-.476.616-1.232.924-2.044.924zm10.339.406v-4.732c0-1.526-.756-2.198-2.128-2.198-.98 0-1.946.602-2.436 1.19v-1.022h-.728V70h.728v-5.11c.434-.616 1.33-1.162 2.198-1.162.98 0 1.638.392 1.638 1.694V70h.728zm4.284.168c1.694 0 2.534-.896 2.534-1.988 0-2.604-4.27-1.568-4.27-3.262 0-.7.644-1.232 1.694-1.232.896 0 1.624.364 2.016.896l.406-.518c-.49-.546-1.26-.994-2.422-.994-1.526 0-2.408.84-2.408 1.876 0 2.422 4.27 1.386 4.27 3.234 0 .784-.672 1.372-1.806 1.372-.952 0-1.75-.448-2.184-.994l-.434.546c.672.742 1.512 1.064 2.604 1.064zM389.36 70v-4.928c.308-.588 1.232-1.204 1.918-1.204.14 0 .238 0 .364.028v-.798c-.938 0-1.708.546-2.282 1.302v-1.162h-.728V70h.728zm6.711.168c1.12 0 1.974-.392 2.646-1.092l-.378-.476c-.574.616-1.358.938-2.212.938-1.596 0-2.576-1.218-2.646-2.688h5.656v-.196c0-1.946-1.134-3.584-3.192-3.584-1.876 0-3.262 1.582-3.262 3.542 0 2.086 1.414 3.556 3.388 3.556zm2.324-3.892h-4.914c.056-1.176.854-2.576 2.45-2.576 1.694 0 2.45 1.428 2.464 2.576zM401.747 70v-9.338h-.728V70h.728zm7.292 0v-4.76c0-1.512-1.092-2.17-2.464-2.17-1.12 0-1.904.378-2.604 1.134l.406.504c.616-.7 1.274-.994 2.114-.994 1.008 0 1.82.546 1.82 1.554v1.372c-.588-.658-1.358-.966-2.296-.966-1.176 0-2.366.77-2.366 2.24 0 1.456 1.204 2.254 2.366 2.254.938 0 1.694-.308 2.296-.966V70h.728zm-2.772-.406c-1.12 0-1.848-.714-1.848-1.666 0-.966.728-1.68 1.848-1.68.812 0 1.568.322 2.044.938v1.484c-.476.616-1.232.924-2.044.924zm6.517.574c.56 0 .882-.168 1.148-.42l-.28-.56a1.056 1.056 0 01-.756.322c-.476 0-.7-.378-.7-.924v-4.704h1.372v-.644h-1.372V61.39h-.742v1.848h-1.12v.644h1.12v4.816c0 .924.434 1.47 1.33 1.47zm2.749-7.994c.308 0 .56-.252.56-.56a.55.55 0 00-.56-.546.559.559 0 00-.56.546c0 .308.266.56.56.56zm.364 7.826v-6.762h-.728V70h.728zm4.912 0l2.856-6.762h-.826l-2.436 5.908-2.464-5.908h-.812L419.983 70h.826zm7.091.168c1.12 0 1.974-.392 2.646-1.092l-.378-.476c-.574.616-1.358.938-2.212.938-1.596 0-2.576-1.218-2.646-2.688h5.656v-.196c0-1.946-1.134-3.584-3.192-3.584-1.876 0-3.262 1.582-3.262 3.542 0 2.086 1.414 3.556 3.388 3.556zm2.324-3.892h-4.914c.056-1.176.854-2.576 2.45-2.576 1.694 0 2.45 1.428 2.464 2.576zm7.716 3.892c.56 0 .882-.168 1.148-.42l-.28-.56a1.056 1.056 0 01-.756.322c-.476 0-.7-.378-.7-.924v-4.704h1.372v-.644h-1.372V61.39h-.742v1.848h-1.12v.644h1.12v4.816c0 .924.434 1.47 1.33 1.47zm5.241 0c2.002 0 3.262-1.582 3.262-3.556s-1.26-3.542-3.262-3.542c-1.974 0-3.248 1.568-3.248 3.542 0 1.974 1.274 3.556 3.248 3.556zm0-.658c-1.568 0-2.464-1.386-2.464-2.898 0-1.498.896-2.884 2.464-2.884 1.596 0 2.478 1.386 2.478 2.884 0 1.512-.882 2.898-2.478 2.898zm13.176.658c1.484 0 2.576-.644 3.402-1.666l-.672-.42c-.588.812-1.61 1.358-2.73 1.358-2.198 0-3.892-1.694-3.892-4.102 0-2.436 1.694-4.102 3.892-4.102 1.12 0 2.142.546 2.73 1.358l.672-.434c-.798-.994-1.918-1.652-3.402-1.652-2.646 0-4.732 1.96-4.732 4.83s2.086 4.83 4.732 4.83zM466.379 70v-4.76c0-1.512-1.092-2.17-2.464-2.17-1.12 0-1.904.378-2.604 1.134l.406.504c.616-.7 1.274-.994 2.114-.994 1.008 0 1.82.546 1.82 1.554v1.372c-.588-.658-1.358-.966-2.296-.966-1.176 0-2.366.77-2.366 2.24 0 1.456 1.204 2.254 2.366 2.254.938 0 1.694-.308 2.296-.966V70h.728zm-2.772-.406c-1.12 0-1.848-.714-1.848-1.666 0-.966.728-1.68 1.848-1.68.812 0 1.568.322 2.044.938v1.484c-.476.616-1.232.924-2.044.924zm10.339.406v-6.762h-.728v5.152c-.448.602-1.33 1.12-2.198 1.12-.98 0-1.638-.364-1.638-1.68v-4.592h-.728v4.76c0 1.526.742 2.17 2.128 2.17.98 0 1.876-.546 2.436-1.162V70h.728zm5.166.168c1.176 0 1.848-.462 2.394-1.162l-.504-.448c-.49.672-1.106.952-1.848.952-1.582 0-2.548-1.274-2.548-2.898s.966-2.884 2.548-2.884c.742 0 1.358.266 1.848.938l.504-.448c-.546-.686-1.218-1.148-2.394-1.148-1.988 0-3.29 1.568-3.29 3.542 0 1.974 1.302 3.556 3.29 3.556zm9.046-.168v-4.76c0-1.512-1.092-2.17-2.464-2.17-1.12 0-1.904.378-2.604 1.134l.406.504c.616-.7 1.274-.994 2.114-.994 1.008 0 1.82.546 1.82 1.554v1.372c-.588-.658-1.358-.966-2.296-.966-1.176 0-2.366.77-2.366 2.24 0 1.456 1.204 2.254 2.366 2.254.938 0 1.694-.308 2.296-.966V70h.728zm-2.772-.406c-1.12 0-1.848-.714-1.848-1.666 0-.966.728-1.68 1.848-1.68.812 0 1.568.322 2.044.938v1.484c-.476.616-1.232.924-2.044.924zm7.063.574c1.694 0 2.534-.896 2.534-1.988 0-2.604-4.27-1.568-4.27-3.262 0-.7.644-1.232 1.694-1.232.896 0 1.624.364 2.016.896l.406-.518c-.49-.546-1.26-.994-2.422-.994-1.526 0-2.408.84-2.408 1.876 0 2.422 4.27 1.386 4.27 3.234 0 .784-.672 1.372-1.806 1.372-.952 0-1.75-.448-2.184-.994l-.434.546c.672.742 1.512 1.064 2.604 1.064zm4.774-7.994c.308 0 .56-.252.56-.56a.55.55 0 00-.56-.546.559.559 0 00-.56.546c0 .308.266.56.56.56zm.364 7.826v-6.762h-.728V70h.728zm7.292 0v-4.76c0-1.512-1.092-2.17-2.464-2.17-1.12 0-1.904.378-2.604 1.134l.406.504c.616-.7 1.274-.994 2.114-.994 1.008 0 1.82.546 1.82 1.554v1.372c-.588-.658-1.358-.966-2.296-.966-1.176 0-2.366.77-2.366 2.24 0 1.456 1.204 2.254 2.366 2.254.938 0 1.694-.308 2.296-.966V70h.728zm-2.772-.406c-1.12 0-1.848-.714-1.848-1.666 0-.966.728-1.68 1.848-1.68.812 0 1.568.322 2.044.938v1.484c-.476.616-1.232.924-2.044.924zm10.339.406v-4.732c0-1.526-.756-2.198-2.128-2.198-.98 0-1.946.602-2.436 1.19v-1.022h-.728V70h.728v-5.11c.434-.616 1.33-1.162 2.198-1.162.98 0 1.638.392 1.638 1.694V70h.728zm4.284.168c1.694 0 2.534-.896 2.534-1.988 0-2.604-4.27-1.568-4.27-3.262 0-.7.644-1.232 1.694-1.232.896 0 1.624.364 2.016.896l.406-.518c-.49-.546-1.26-.994-2.422-.994-1.526 0-2.408.84-2.408 1.876 0 2.422 4.27 1.386 4.27 3.234 0 .784-.672 1.372-1.806 1.372-.952 0-1.75-.448-2.184-.994l-.434.546c.672.742 1.512 1.064 2.604 1.064zm4.802-.028c.336 0 .63-.294.63-.63 0-.322-.294-.602-.63-.602a.619.619 0 00-.616.602c0 .336.28.63.616.63zM70.912 98v-4.872c0-1.358-.602-2.058-1.848-2.058-.952 0-1.862.644-2.24 1.274-.168-.658-.728-1.274-1.778-1.274-.98 0-1.904.756-2.184 1.19v-1.022h-.728V98h.728v-5.11c.406-.616 1.218-1.162 1.932-1.162.966 0 1.358.588 1.358 1.54V98h.742v-5.124c.378-.616 1.204-1.148 1.932-1.148.952 0 1.358.588 1.358 1.54V98h.728zm5.125.168c2.002 0 3.262-1.582 3.262-3.556s-1.26-3.542-3.262-3.542c-1.974 0-3.248 1.568-3.248 3.542 0 1.974 1.274 3.556 3.248 3.556zm0-.658c-1.568 0-2.464-1.386-2.464-2.898 0-1.498.896-2.884 2.464-2.884 1.596 0 2.478 1.386 2.478 2.884 0 1.512-.882 2.898-2.478 2.898zm5.87.49v-4.928c.308-.588 1.232-1.204 1.918-1.204.14 0 .238 0 .364.028v-.798c-.938 0-1.708.546-2.282 1.302v-1.162h-.728V98h.728zm6.711.168c1.12 0 1.974-.392 2.646-1.092l-.378-.476c-.574.616-1.358.938-2.212.938-1.596 0-2.576-1.218-2.646-2.688h5.656v-.196c0-1.946-1.134-3.584-3.192-3.584-1.876 0-3.262 1.582-3.262 3.542 0 2.086 1.414 3.556 3.388 3.556zm2.324-3.892h-4.914c.056-1.176.854-2.576 2.45-2.576 1.694 0 2.45 1.428 2.464 2.576zM98.155 98v-6.118h1.372v-.644h-1.372v-.616c0-.938.406-1.47 1.176-1.47.364 0 .644.14.868.35l.35-.504c-.434-.378-.812-.476-1.288-.476-1.134 0-1.834.784-1.834 2.1v.616h-1.12v.644h1.12V98h.728zm7.765 0v-4.76c0-1.512-1.092-2.17-2.464-2.17-1.12 0-1.904.378-2.604 1.134l.406.504c.616-.7 1.274-.994 2.114-.994 1.008 0 1.82.546 1.82 1.554v1.372c-.588-.658-1.358-.966-2.296-.966-1.176 0-2.366.77-2.366 2.24 0 1.456 1.204 2.254 2.366 2.254.938 0 1.694-.308 2.296-.966V98h.728zm-2.772-.406c-1.12 0-1.848-.714-1.848-1.666 0-.966.728-1.68 1.848-1.68.812 0 1.568.322 2.044.938v1.484c-.476.616-1.232.924-2.044.924zm5.775.406v-9.338h-.728V98h.728zm4.282.168c1.694 0 2.534-.896 2.534-1.988 0-2.604-4.27-1.568-4.27-3.262 0-.7.644-1.232 1.694-1.232.896 0 1.624.364 2.016.896l.406-.518c-.49-.546-1.26-.994-2.422-.994-1.526 0-2.408.84-2.408 1.876 0 2.422 4.27 1.386 4.27 3.234 0 .784-.672 1.372-1.806 1.372-.952 0-1.75-.448-2.184-.994l-.434.546c.672.742 1.512 1.064 2.604 1.064zm7.405 0c1.12 0 1.974-.392 2.646-1.092l-.378-.476c-.574.616-1.358.938-2.212.938-1.596 0-2.576-1.218-2.646-2.688h5.656v-.196c0-1.946-1.134-3.584-3.192-3.584-1.876 0-3.262 1.582-3.262 3.542 0 2.086 1.414 3.556 3.388 3.556zm2.324-3.892h-4.914c.056-1.176.854-2.576 2.45-2.576 1.694 0 2.45 1.428 2.464 2.576zm9.327 3.892c1.806 0 3.024-1.4 3.024-3.556 0-2.17-1.218-3.542-3.024-3.542a2.906 2.906 0 00-2.352 1.232v-1.064h-.728v9.338h.728v-3.668c.546.77 1.4 1.26 2.352 1.26zm-.126-.658c-.938 0-1.834-.588-2.226-1.232v-3.346c.392-.644 1.288-1.204 2.226-1.204 1.512 0 2.366 1.246 2.366 2.884s-.854 2.898-2.366 2.898zm7.845.658c2.002 0 3.262-1.582 3.262-3.556s-1.26-3.542-3.262-3.542c-1.974 0-3.248 1.568-3.248 3.542 0 1.974 1.274 3.556 3.248 3.556zm0-.658c-1.568 0-2.464-1.386-2.464-2.898 0-1.498.896-2.884 2.464-2.884 1.596 0 2.478 1.386 2.478 2.884 0 1.512-.882 2.898-2.478 2.898zm7.158.658c1.694 0 2.534-.896 2.534-1.988 0-2.604-4.27-1.568-4.27-3.262 0-.7.644-1.232 1.694-1.232.896 0 1.624.364 2.016.896l.406-.518c-.49-.546-1.26-.994-2.422-.994-1.526 0-2.408.84-2.408 1.876 0 2.422 4.27 1.386 4.27 3.234 0 .784-.672 1.372-1.806 1.372-.952 0-1.75-.448-2.184-.994l-.434.546c.672.742 1.512 1.064 2.604 1.064zm4.774-7.994c.308 0 .56-.252.56-.56a.55.55 0 00-.56-.546.559.559 0 00-.56.546c0 .308.266.56.56.56zm.364 7.826v-6.762h-.728V98h.728zm3.736.168c.56 0 .882-.168 1.148-.42l-.28-.56a1.056 1.056 0 01-.756.322c-.476 0-.7-.378-.7-.924v-4.704h1.372v-.644h-1.372V89.39h-.742v1.848h-1.12v.644h1.12v4.816c0 .924.434 1.47 1.33 1.47zm2.75-7.994c.308 0 .56-.252.56-.56a.55.55 0 00-.56-.546.559.559 0 00-.56.546c0 .308.266.56.56.56zm.364 7.826v-6.762h-.728V98h.728zm4.912 0l2.856-6.762h-.826l-2.436 5.908-2.464-5.908h-.812L163.212 98h.826zm7.09.168c1.12 0 1.974-.392 2.646-1.092l-.378-.476c-.574.616-1.358.938-2.212.938-1.596 0-2.576-1.218-2.646-2.688h5.656v-.196c0-1.946-1.134-3.584-3.192-3.584-1.876 0-3.262 1.582-3.262 3.542 0 2.086 1.414 3.556 3.388 3.556zm2.324-3.892h-4.914c.056-1.176.854-2.576 2.45-2.576 1.694 0 2.45 1.428 2.464 2.576zm4.639 3.892c1.694 0 2.534-.896 2.534-1.988 0-2.604-4.27-1.568-4.27-3.262 0-.7.644-1.232 1.694-1.232.896 0 1.624.364 2.016.896l.406-.518c-.49-.546-1.26-.994-2.422-.994-1.526 0-2.408.84-2.408 1.876 0 2.422 4.27 1.386 4.27 3.234 0 .784-.672 1.372-1.806 1.372-.952 0-1.75-.448-2.184-.994l-.434.546c.672.742 1.512 1.064 2.604 1.064zM187.09 98v-6.118h1.372v-.644h-1.372v-.616c0-.938.406-1.47 1.176-1.47.364 0 .644.14.868.35l.35-.504c-.434-.378-.812-.476-1.288-.476-1.134 0-1.834.784-1.834 2.1v.616h-1.12v.644h1.12V98h.728zm5.595.168c2.002 0 3.262-1.582 3.262-3.556s-1.26-3.542-3.262-3.542c-1.974 0-3.248 1.568-3.248 3.542 0 1.974 1.274 3.556 3.248 3.556zm0-.658c-1.568 0-2.464-1.386-2.464-2.898 0-1.498.896-2.884 2.464-2.884 1.596 0 2.478 1.386 2.478 2.884 0 1.512-.882 2.898-2.478 2.898zm5.87.49v-4.928c.308-.588 1.232-1.204 1.918-1.204.14 0 .238 0 .364.028v-.798c-.938 0-1.708.546-2.282 1.302v-1.162h-.728V98h.728zm14.829 0v-9.338h-.798v7.91l-5.852-7.91h-.812V98h.798v-8.022L212.6 98h.784zm7.325 0v-4.76c0-1.512-1.092-2.17-2.464-2.17-1.12 0-1.904.378-2.604 1.134l.406.504c.616-.7 1.274-.994 2.114-.994 1.008 0 1.82.546 1.82 1.554v1.372c-.588-.658-1.358-.966-2.296-.966-1.176 0-2.366.77-2.366 2.24 0 1.456 1.204 2.254 2.366 2.254.938 0 1.694-.308 2.296-.966V98h.728zm-2.772-.406c-1.12 0-1.848-.714-1.848-1.666 0-.966.728-1.68 1.848-1.68.812 0 1.568.322 2.044.938v1.484c-.476.616-1.232.924-2.044.924zm6.517.574c.56 0 .882-.168 1.148-.42l-.28-.56a1.056 1.056 0 01-.756.322c-.476 0-.7-.378-.7-.924v-4.704h1.372v-.644h-1.372V89.39h-.742v1.848h-1.12v.644h1.12v4.816c0 .924.434 1.47 1.33 1.47zm2.749-7.994c.308 0 .56-.252.56-.56a.55.55 0 00-.56-.546.559.559 0 00-.56.546c0 .308.266.56.56.56zm.364 7.826v-6.762h-.728V98h.728zm4.912 0l2.856-6.762h-.826l-2.436 5.908-2.464-5.908h-.812L231.653 98h.826zm7.09.168c1.12 0 1.974-.392 2.646-1.092l-.378-.476c-.574.616-1.358.938-2.212.938-1.596 0-2.576-1.218-2.646-2.688h5.656v-.196c0-1.946-1.134-3.584-3.192-3.584-1.876 0-3.262 1.582-3.262 3.542 0 2.086 1.414 3.556 3.388 3.556zm2.324-3.892h-4.914c.056-1.176.854-2.576 2.45-2.576 1.694 0 2.45 1.428 2.464 2.576zm10.657 3.906c1.47 0 2.716-.63 3.542-1.554v-3.262h-4.326v.714h3.528v2.24c-.518.518-1.498 1.134-2.744 1.134-2.198 0-3.892-1.708-3.892-4.116 0-2.436 1.694-4.102 3.892-4.102 1.19 0 2.254.518 2.912 1.302l.602-.434c-.854-.98-1.974-1.596-3.514-1.596-2.618 0-4.732 1.946-4.732 4.83 0 2.884 2.114 4.844 4.732 4.844zm6.271-.182v-4.928c.308-.588 1.232-1.204 1.918-1.204.14 0 .238 0 .364.028v-.798c-.938 0-1.708.546-2.282 1.302v-1.162h-.728V98h.728zm6.571.168c2.002 0 3.262-1.582 3.262-3.556s-1.26-3.542-3.262-3.542c-1.974 0-3.248 1.568-3.248 3.542 0 1.974 1.274 3.556 3.248 3.556zm0-.658c-1.568 0-2.464-1.386-2.464-2.898 0-1.498.896-2.884 2.464-2.884 1.596 0 2.478 1.386 2.478 2.884 0 1.512-.882 2.898-2.478 2.898zm10.434.49v-6.762h-.728v5.152c-.448.602-1.33 1.12-2.198 1.12-.98 0-1.638-.364-1.638-1.68v-4.592h-.728v4.76c0 1.526.742 2.17 2.128 2.17.98 0 1.876-.546 2.436-1.162V98h.728zm5.349.168c1.806 0 3.024-1.4 3.024-3.556 0-2.17-1.218-3.542-3.024-3.542a2.906 2.906 0 00-2.352 1.232v-1.064h-.728v9.338h.728v-3.668c.546.77 1.4 1.26 2.352 1.26zm-.126-.658c-.938 0-1.834-.588-2.226-1.232v-3.346c.392-.644 1.288-1.204 2.226-1.204 1.512 0 2.366 1.246 2.366 2.884s-.854 2.898-2.366 2.898zm7.005.658c1.694 0 2.534-.896 2.534-1.988 0-2.604-4.27-1.568-4.27-3.262 0-.7.644-1.232 1.694-1.232.896 0 1.624.364 2.016.896l.406-.518c-.49-.546-1.26-.994-2.422-.994-1.526 0-2.408.84-2.408 1.876 0 2.422 4.27 1.386 4.27 3.234 0 .784-.672 1.372-1.806 1.372-.952 0-1.75-.448-2.184-.994l-.434.546c.672.742 1.512 1.064 2.604 1.064zm9.839 2.296c-.882-1.792-1.484-3.444-1.484-5.866 0-2.436.602-4.074 1.484-5.88l-.434-.308a11.13 11.13 0 00-1.862 6.188c0 2.254.658 4.368 1.862 6.188l.434-.322zm9.08-2.464l-3.822-9.338h-.994L298.335 98h.924l.924-2.296h4.942l.924 2.296h.924zm-2.114-3.024h-4.41l2.198-5.46 2.212 5.46zM309.051 98v-9.338h-.728V98h.728zm7.293 0v-4.76c0-1.512-1.092-2.17-2.464-2.17-1.12 0-1.904.378-2.604 1.134l.406.504c.616-.7 1.274-.994 2.114-.994 1.008 0 1.82.546 1.82 1.554v1.372c-.588-.658-1.358-.966-2.296-.966-1.176 0-2.366.77-2.366 2.24 0 1.456 1.204 2.254 2.366 2.254.938 0 1.694-.308 2.296-.966V98h.728zm-2.772-.406c-1.12 0-1.848-.714-1.848-1.666 0-.966.728-1.68 1.848-1.68.812 0 1.568.322 2.044.938v1.484c-.476.616-1.232.924-2.044.924zm7.062.574c1.694 0 2.534-.896 2.534-1.988 0-2.604-4.27-1.568-4.27-3.262 0-.7.644-1.232 1.694-1.232.896 0 1.624.364 2.016.896l.406-.518c-.49-.546-1.26-.994-2.422-.994-1.526 0-2.408.84-2.408 1.876 0 2.422 4.27 1.386 4.27 3.234 0 .784-.672 1.372-1.806 1.372-.952 0-1.75-.448-2.184-.994l-.434.546c.672.742 1.512 1.064 2.604 1.064zm10.08-.168l-3.136-3.71 3.15-3.052h-.966l-3.99 3.864v-6.44h-.728V98h.728v-2.03l1.26-1.19 2.702 3.22h.98zm6.425 0v-4.76c0-1.512-1.092-2.17-2.464-2.17-1.12 0-1.904.378-2.604 1.134l.406.504c.616-.7 1.274-.994 2.114-.994 1.008 0 1.82.546 1.82 1.554v1.372c-.588-.658-1.358-.966-2.296-.966-1.176 0-2.366.77-2.366 2.24 0 1.456 1.204 2.254 2.366 2.254.938 0 1.694-.308 2.296-.966V98h.728zm-2.772-.406c-1.12 0-1.848-.714-1.848-1.666 0-.966.728-1.68 1.848-1.68.812 0 1.568.322 2.044.938v1.484c-.476.616-1.232.924-2.044.924zm9.495.406v-9.338h-.798V98h.798zm7.584 0v-4.732c0-1.526-.756-2.198-2.128-2.198-.98 0-1.946.602-2.436 1.19v-1.022h-.728V98h.728v-5.11c.434-.616 1.33-1.162 2.198-1.162.98 0 1.638.392 1.638 1.694V98h.728zm7.994 0v-9.338h-.742v3.668c-.546-.77-1.386-1.26-2.352-1.26-1.792 0-3.024 1.414-3.024 3.556 0 2.17 1.232 3.542 3.024 3.542a2.88 2.88 0 002.352-1.246V98h.742zm-2.968-.49c-1.498 0-2.366-1.246-2.366-2.884s.868-2.898 2.366-2.898c.952 0 1.834.574 2.226 1.232v3.346c-.392.644-1.274 1.204-2.226 1.204zm5.604-7.336c.308 0 .56-.252.56-.56a.55.55 0 00-.56-.546.559.559 0 00-.56.546c0 .308.266.56.56.56zM362.44 98v-6.762h-.728V98h.728zm7.292 0v-4.76c0-1.512-1.092-2.17-2.464-2.17-1.12 0-1.904.378-2.604 1.134l.406.504c.616-.7 1.274-.994 2.114-.994 1.008 0 1.82.546 1.82 1.554v1.372c-.588-.658-1.358-.966-2.296-.966-1.176 0-2.366.77-2.366 2.24 0 1.456 1.204 2.254 2.366 2.254.938 0 1.694-.308 2.296-.966V98h.728zm-2.772-.406c-1.12 0-1.848-.714-1.848-1.666 0-.966.728-1.68 1.848-1.68.812 0 1.568.322 2.044.938v1.484c-.476.616-1.232.924-2.044.924zm10.339.406v-4.732c0-1.526-.756-2.198-2.128-2.198-.98 0-1.946.602-2.436 1.19v-1.022h-.728V98h.728v-5.11c.434-.616 1.33-1.162 2.198-1.162.98 0 1.638.392 1.638 1.694V98h.728zm3.361-.196c0-.574-.336-.896-.714-.896a.606.606 0 00-.602.602c0 .336.238.588.574.588.042 0 .14-.014.14-.014-.028.434-.364.98-.812 1.288l.406.35c.546-.392 1.008-1.134 1.008-1.918zm6.419.196v-3.878h2.702c1.778 0 2.814-1.26 2.814-2.73s-1.022-2.73-2.814-2.73h-3.5V98h.798zm2.618-4.606h-2.618V89.39h2.618c1.232 0 2.058.826 2.058 2.002 0 1.176-.826 2.002-2.058 2.002zM399.004 98v-4.76c0-1.512-1.092-2.17-2.464-2.17-1.12 0-1.904.378-2.604 1.134l.406.504c.616-.7 1.274-.994 2.114-.994 1.008 0 1.82.546 1.82 1.554v1.372c-.588-.658-1.358-.966-2.296-.966-1.176 0-2.366.77-2.366 2.24 0 1.456 1.204 2.254 2.366 2.254.938 0 1.694-.308 2.296-.966V98h.728zm-2.772-.406c-1.12 0-1.848-.714-1.848-1.666 0-.966.728-1.68 1.848-1.68.812 0 1.568.322 2.044.938v1.484c-.476.616-1.232.924-2.044.924zm7.945.574c1.176 0 1.848-.462 2.394-1.162l-.504-.448c-.49.672-1.106.952-1.848.952-1.582 0-2.548-1.274-2.548-2.898s.966-2.884 2.548-2.884c.742 0 1.358.266 1.848.938l.504-.448c-.546-.686-1.218-1.148-2.394-1.148-1.988 0-3.29 1.568-3.29 3.542 0 1.974 1.302 3.556 3.29 3.556zm4.384-7.994a.56.56 0 00.559-.56.549.549 0 00-.559-.546.559.559 0 00-.56.546c0 .308.266.56.56.56zm.364 7.826v-6.762h-.728V98h.728zm3.232 0v-6.118h1.372v-.644h-1.372v-.616c0-.938.406-1.47 1.176-1.47.266 0 .448.056.616.154l.224-.574c-.266-.154-.574-.21-.91-.21-1.12 0-1.834.77-1.834 2.1v.616h-1.12v.644h1.12V98h.728zm3.108-7.826c.308 0 .56-.252.56-.56a.55.55 0 00-.56-.546.559.559 0 00-.56.546c0 .308.266.56.56.56zm.364 7.826v-6.762h-.728V98h.728zm5.145.168c1.176 0 1.848-.462 2.394-1.162l-.504-.448c-.49.672-1.106.952-1.848.952-1.582 0-2.548-1.274-2.548-2.898s.966-2.884 2.548-2.884c.742 0 1.358.266 1.848.938l.504-.448c-.546-.686-1.218-1.148-2.394-1.148-1.988 0-3.29 1.568-3.29 3.542 0 1.974 1.302 3.556 3.29 3.556zm8.469-.168v-9.338h-.798V98h.798zm4.307.168c1.694 0 2.534-.896 2.534-1.988 0-2.604-4.27-1.568-4.27-3.262 0-.7.644-1.232 1.694-1.232.896 0 1.624.364 2.016.896l.406-.518c-.49-.546-1.26-.994-2.422-.994-1.526 0-2.408.84-2.408 1.876 0 2.422 4.27 1.386 4.27 3.234 0 .784-.672 1.372-1.806 1.372-.952 0-1.75-.448-2.184-.994l-.434.546c.672.742 1.512 1.064 2.604 1.064zm5.138-.168v-9.338h-.728V98h.728zm7.292 0v-4.76c0-1.512-1.092-2.17-2.464-2.17-1.12 0-1.904.378-2.604 1.134l.406.504c.616-.7 1.274-.994 2.114-.994 1.008 0 1.82.546 1.82 1.554v1.372c-.588-.658-1.358-.966-2.296-.966-1.176 0-2.366.77-2.366 2.24 0 1.456 1.204 2.254 2.366 2.254.938 0 1.694-.308 2.296-.966V98h.728zm-2.772-.406c-1.12 0-1.848-.714-1.848-1.666 0-.966.728-1.68 1.848-1.68.812 0 1.568.322 2.044.938v1.484c-.476.616-1.232.924-2.044.924zm10.339.406v-4.732c0-1.526-.756-2.198-2.128-2.198-.98 0-1.946.602-2.436 1.19v-1.022h-.728V98h.728v-5.11c.434-.616 1.33-1.162 2.198-1.162.98 0 1.638.392 1.638 1.694V98h.728zm7.995 0v-9.338h-.742v3.668c-.546-.77-1.386-1.26-2.352-1.26-1.792 0-3.024 1.414-3.024 3.556 0 2.17 1.232 3.542 3.024 3.542a2.88 2.88 0 002.352-1.246V98h.742zm-2.968-.49c-1.498 0-2.366-1.246-2.366-2.884s.868-2.898 2.366-2.898c.952 0 1.834.574 2.226 1.232v3.346c-.392.644-1.274 1.204-2.226 1.204zm8.236.658c1.12 0 1.974-.392 2.646-1.092l-.378-.476c-.574.616-1.358.938-2.212.938-1.596 0-2.576-1.218-2.646-2.688h5.656v-.196c0-1.946-1.134-3.584-3.192-3.584-1.876 0-3.262 1.582-3.262 3.542 0 2.086 1.414 3.556 3.388 3.556zm2.324-3.892h-4.914c.056-1.176.854-2.576 2.45-2.576 1.694 0 2.45 1.428 2.464 2.576zM472.485 98v-4.928c.308-.588 1.232-1.204 1.918-1.204.14 0 .238 0 .364.028v-.798c-.938 0-1.708.546-2.282 1.302v-1.162h-.728V98h.728zm5.731.168c1.694 0 2.534-.896 2.534-1.988 0-2.604-4.27-1.568-4.27-3.262 0-.7.644-1.232 1.694-1.232.896 0 1.624.364 2.016.896l.406-.518c-.49-.546-1.26-.994-2.422-.994-1.526 0-2.408.84-2.408 1.876 0 2.422 4.27 1.386 4.27 3.234 0 .784-.672 1.372-1.806 1.372-.952 0-1.75-.448-2.184-.994l-.434.546c.672.742 1.512 1.064 2.604 1.064zm5.502-.364c0-.574-.336-.896-.714-.896a.606.606 0 00-.602.602c0 .336.238.588.574.588.042 0 .14-.014.14-.014-.028.434-.364.98-.812 1.288l.406.35c.546-.392 1.008-1.134 1.008-1.918zm13.308.196l-3.822-9.338h-.994L488.388 98h.924l.924-2.296h4.942l.924 2.296h.924zm-2.114-3.024h-4.41l2.198-5.46 2.212 5.46zM507.154 98v-4.872c0-1.358-.602-2.058-1.848-2.058-.952 0-1.862.644-2.24 1.274-.168-.658-.728-1.274-1.778-1.274-.98 0-1.904.756-2.184 1.19v-1.022h-.728V98h.728v-5.11c.406-.616 1.218-1.162 1.932-1.162.966 0 1.358.588 1.358 1.54V98h.742v-5.124c.378-.616 1.204-1.148 1.932-1.148.952 0 1.358.588 1.358 1.54V98h.728zm5.265.168c1.12 0 1.974-.392 2.646-1.092l-.378-.476c-.574.616-1.358.938-2.212.938-1.596 0-2.576-1.218-2.646-2.688h5.656v-.196c0-1.946-1.134-3.584-3.192-3.584-1.876 0-3.262 1.582-3.262 3.542 0 2.086 1.414 3.556 3.388 3.556zm2.324-3.892h-4.914c.056-1.176.854-2.576 2.45-2.576 1.694 0 2.45 1.428 2.464 2.576zM518.094 98v-4.928c.308-.588 1.232-1.204 1.918-1.204.14 0 .238 0 .364.028v-.798c-.938 0-1.708.546-2.282 1.302v-1.162h-.728V98h.728zm4.08-7.826c.308 0 .56-.252.56-.56a.55.55 0 00-.56-.546.559.559 0 00-.56.546c0 .308.266.56.56.56zm.364 7.826v-6.762h-.728V98h.728zm5.164.168c1.176 0 1.848-.462 2.394-1.162l-.504-.448c-.49.672-1.106.952-1.848.952-1.582 0-2.548-1.274-2.548-2.898s.966-2.884 2.548-2.884c.742 0 1.358.266 1.848.938l.504-.448c-.546-.686-1.218-1.148-2.394-1.148-1.988 0-3.29 1.568-3.29 3.542 0 1.974 1.302 3.556 3.29 3.556zm9.046-.168v-4.76c0-1.512-1.092-2.17-2.464-2.17-1.12 0-1.904.378-2.604 1.134l.406.504c.616-.7 1.274-.994 2.114-.994 1.008 0 1.82.546 1.82 1.554v1.372c-.588-.658-1.358-.966-2.296-.966-1.176 0-2.366.77-2.366 2.24 0 1.456 1.204 2.254 2.366 2.254.938 0 1.694-.308 2.296-.966V98h.728zm-2.772-.406c-1.12 0-1.848-.714-1.848-1.666 0-.966.728-1.68 1.848-1.68.812 0 1.568.322 2.044.938v1.484c-.476.616-1.232.924-2.044.924zm10.339.406v-4.732c0-1.526-.756-2.198-2.128-2.198-.98 0-1.946.602-2.436 1.19v-1.022h-.728V98h.728v-5.11c.434-.616 1.33-1.162 2.198-1.162.98 0 1.638.392 1.638 1.694V98h.728zm6.717 0v-9.338h-.798V98h.798zm7.583 0v-4.732c0-1.526-.756-2.198-2.128-2.198-.98 0-1.946.602-2.436 1.19v-1.022h-.728V98h.728v-5.11c.434-.616 1.33-1.162 2.198-1.162.98 0 1.638.392 1.638 1.694V98h.728zm7.995 0v-9.338h-.742v3.668c-.546-.77-1.386-1.26-2.352-1.26-1.792 0-3.024 1.414-3.024 3.556 0 2.17 1.232 3.542 3.024 3.542a2.88 2.88 0 002.352-1.246V98h.742zm-2.968-.49c-1.498 0-2.366-1.246-2.366-2.884s.868-2.898 2.366-2.898c.952 0 1.834.574 2.226 1.232v3.346c-.392.644-1.274 1.204-2.226 1.204zm5.604-7.336c.308 0 .56-.252.56-.56a.55.55 0 00-.56-.546.559.559 0 00-.56.546c0 .308.266.56.56.56zM569.61 98v-6.762h-.728V98h.728zm7.292 0v-4.76c0-1.512-1.092-2.17-2.464-2.17-1.12 0-1.904.378-2.604 1.134l.406.504c.616-.7 1.274-.994 2.114-.994 1.008 0 1.82.546 1.82 1.554v1.372c-.588-.658-1.358-.966-2.296-.966-1.176 0-2.366.77-2.366 2.24 0 1.456 1.204 2.254 2.366 2.254.938 0 1.694-.308 2.296-.966V98h.728zm-2.772-.406c-1.12 0-1.848-.714-1.848-1.666 0-.966.728-1.68 1.848-1.68.812 0 1.568.322 2.044.938v1.484c-.476.616-1.232.924-2.044.924zm10.339.406v-4.732c0-1.526-.756-2.198-2.128-2.198-.98 0-1.946.602-2.436 1.19v-1.022h-.728V98h.728v-5.11c.434-.616 1.33-1.162 2.198-1.162.98 0 1.638.392 1.638 1.694V98h.728zm3.361-.196c0-.574-.336-.896-.714-.896a.606.606 0 00-.602.602c0 .336.238.588.574.588.042 0 .14-.014.14-.014-.028.434-.364.98-.812 1.288l.406.35c.546-.392 1.008-1.134 1.008-1.918zm13.083.196v-9.338h-.798v7.91l-5.852-7.91h-.812V98h.798v-8.022l5.88 8.022h.784zm7.325 0v-4.76c0-1.512-1.092-2.17-2.464-2.17-1.12 0-1.904.378-2.604 1.134l.406.504c.616-.7 1.274-.994 2.114-.994 1.008 0 1.82.546 1.82 1.554v1.372c-.588-.658-1.358-.966-2.296-.966-1.176 0-2.366.77-2.366 2.24 0 1.456 1.204 2.254 2.366 2.254.938 0 1.694-.308 2.296-.966V98h.728zm-2.772-.406c-1.12 0-1.848-.714-1.848-1.666 0-.966.728-1.68 1.848-1.68.812 0 1.568.322 2.044.938v1.484c-.476.616-1.232.924-2.044.924zm6.517.574c.56 0 .882-.168 1.148-.42l-.28-.56a1.056 1.056 0 01-.756.322c-.476 0-.7-.378-.7-.924v-4.704h1.372v-.644h-1.372V89.39h-.742v1.848h-1.12v.644h1.12v4.816c0 .924.434 1.47 1.33 1.47zm2.749-7.994c.308 0 .56-.252.56-.56a.55.55 0 00-.56-.546.559.559 0 00-.56.546c0 .308.266.56.56.56zm.364 7.826v-6.762h-.728V98h.728zm4.913 0l2.856-6.762h-.826l-2.436 5.908-2.464-5.908h-.812L619.183 98h.826zm7.09.168c1.12 0 1.974-.392 2.646-1.092l-.378-.476c-.574.616-1.358.938-2.212.938-1.596 0-2.576-1.218-2.646-2.688h5.656v-.196c0-1.946-1.134-3.584-3.192-3.584-1.876 0-3.262 1.582-3.262 3.542 0 2.086 1.414 3.556 3.388 3.556zm2.324-3.892h-4.914c.056-1.176.854-2.576 2.45-2.576 1.694 0 2.45 1.428 2.464 2.576zM643.383 98l-3.822-9.338h-.994L634.745 98h.924l.924-2.296h4.942l.924 2.296h.924zm-2.114-3.024h-4.41l2.198-5.46 2.212 5.46zM653.512 98v-4.872c0-1.358-.602-2.058-1.848-2.058-.952 0-1.862.644-2.24 1.274-.168-.658-.728-1.274-1.778-1.274-.98 0-1.904.756-2.184 1.19v-1.022h-.728V98h.728v-5.11c.406-.616 1.218-1.162 1.932-1.162.966 0 1.358.588 1.358 1.54V98h.742v-5.124c.378-.616 1.204-1.148 1.932-1.148.952 0 1.358.588 1.358 1.54V98h.728zm5.264.168c1.12 0 1.974-.392 2.646-1.092l-.378-.476c-.574.616-1.358.938-2.212.938-1.596 0-2.576-1.218-2.646-2.688h5.656v-.196c0-1.946-1.134-3.584-3.192-3.584-1.876 0-3.262 1.582-3.262 3.542 0 2.086 1.414 3.556 3.388 3.556zm2.324-3.892h-4.914c.056-1.176.854-2.576 2.45-2.576 1.694 0 2.45 1.428 2.464 2.576zM664.452 98v-4.928c.308-.588 1.232-1.204 1.918-1.204.14 0 .238 0 .364.028v-.798c-.938 0-1.708.546-2.282 1.302v-1.162h-.728V98h.728zm4.079-7.826c.308 0 .56-.252.56-.56a.55.55 0 00-.56-.546.559.559 0 00-.56.546c0 .308.266.56.56.56zm.364 7.826v-6.762h-.728V98h.728zm5.164.168c1.176 0 1.848-.462 2.394-1.162l-.504-.448c-.49.672-1.106.952-1.848.952-1.582 0-2.548-1.274-2.548-2.898s.966-2.884 2.548-2.884c.742 0 1.358.266 1.848.938l.504-.448c-.546-.686-1.218-1.148-2.394-1.148-1.988 0-3.29 1.568-3.29 3.542 0 1.974 1.302 3.556 3.29 3.556zm9.046-.168v-4.76c0-1.512-1.092-2.17-2.464-2.17-1.12 0-1.904.378-2.604 1.134l.406.504c.616-.7 1.274-.994 2.114-.994 1.008 0 1.82.546 1.82 1.554v1.372c-.588-.658-1.358-.966-2.296-.966-1.176 0-2.366.77-2.366 2.24 0 1.456 1.204 2.254 2.366 2.254.938 0 1.694-.308 2.296-.966V98h.728zm-2.772-.406c-1.12 0-1.848-.714-1.848-1.666 0-.966.728-1.68 1.848-1.68.812 0 1.568.322 2.044.938v1.484c-.476.616-1.232.924-2.044.924zm10.339.406v-4.732c0-1.526-.756-2.198-2.128-2.198-.98 0-1.946.602-2.436 1.19v-1.022h-.728V98h.728v-5.11c.434-.616 1.33-1.162 2.198-1.162.98 0 1.638.392 1.638 1.694V98h.728zm1.807 2.786a11.143 11.143 0 000-12.376l-.434.308c.896 1.806 1.484 3.444 1.484 5.88 0 2.422-.588 4.074-1.484 5.866l.434.322zm4.026-2.646c.336 0 .63-.294.63-.63 0-.322-.294-.602-.63-.602a.619.619 0 00-.616.602c0 .336.28.63.616.63zM67.426 126v-4.732c0-1.526-.756-2.198-2.128-2.198-.98 0-1.946.602-2.436 1.19v-1.022h-.728V126h.728v-5.11c.434-.616 1.33-1.162 2.198-1.162.98 0 1.638.392 1.638 1.694V126h.728zm5.124.168c2.002 0 3.263-1.582 3.263-3.556s-1.26-3.542-3.263-3.542c-1.974 0-3.248 1.568-3.248 3.542 0 1.974 1.274 3.556 3.248 3.556zm0-.658c-1.567 0-2.463-1.386-2.463-2.898 0-1.498.895-2.884 2.463-2.884 1.597 0 2.478 1.386 2.478 2.884 0 1.512-.882 2.898-2.478 2.898zm9.494-1.204v-3.346c.392-.644 1.288-1.232 2.226-1.232 1.512 0 2.366 1.26 2.366 2.898 0 1.638-.854 2.884-2.366 2.884-.938 0-1.834-.56-2.226-1.204zm0 1.694v-1.078a2.88 2.88 0 002.352 1.246c1.792 0 3.024-1.372 3.024-3.542 0-2.142-1.218-3.556-3.024-3.556-.952 0-1.806.49-2.352 1.26v-3.668h-.728V126h.728zm7.634-7.826c.308 0 .56-.252.56-.56a.55.55 0 00-.56-.546.559.559 0 00-.56.546c0 .308.266.56.56.56zm.364 7.826v-6.762h-.728V126h.728zm4.94 2.744c1.652 0 3.052-.742 3.052-2.814v-6.692h-.742v1.092c-.546-.77-1.386-1.26-2.352-1.26-1.792 0-3.024 1.4-3.024 3.542 0 2.17 1.232 3.528 3.024 3.528 1.008 0 1.876-.574 2.352-1.26v1.064c0 1.554-1.078 2.17-2.31 2.17-1.008 0-1.652-.252-2.24-.952l-.42.56c.798.812 1.526 1.022 2.66 1.022zm.084-3.262c-1.498 0-2.366-1.232-2.366-2.87 0-1.638.868-2.884 2.366-2.884.938 0 1.834.574 2.226 1.232v3.29c-.392.658-1.288 1.232-2.226 1.232zm14.575.518v-9.338h-.742v3.668c-.546-.77-1.386-1.26-2.352-1.26-1.792 0-3.024 1.414-3.024 3.556 0 2.17 1.232 3.542 3.024 3.542a2.88 2.88 0 002.352-1.246V126h.742zm-2.968-.49c-1.498 0-2.366-1.246-2.366-2.884s.868-2.898 2.366-2.898c.952 0 1.834.574 2.226 1.232v3.346c-.392.644-1.274 1.204-2.226 1.204zm5.604-7.336c.308 0 .56-.252.56-.56a.55.55 0 00-.56-.546.559.559 0 00-.56.546c0 .308.266.56.56.56zm.364 7.826v-6.762h-.728V126h.728zm3.232 0v-6.118h1.372v-.644h-1.372v-.616c0-.938.406-1.47 1.176-1.47.364 0 .644.14.868.35l.35-.504c-.434-.378-.812-.476-1.288-.476-1.134 0-1.834.784-1.834 2.1v.616h-1.12v.644h1.12V126h.728zm3.71 0v-6.118h1.372v-.644h-1.372v-.616c0-.938.406-1.47 1.176-1.47.364 0 .644.14.868.35l.35-.504c-.434-.378-.812-.476-1.288-.476-1.134 0-1.834.784-1.834 2.1v.616h-1.12v.644h1.12V126h.728zm5.744.168c1.12 0 1.974-.392 2.646-1.092l-.378-.476c-.574.616-1.358.938-2.212.938-1.596 0-2.576-1.218-2.646-2.688h5.656v-.196c0-1.946-1.134-3.584-3.192-3.584-1.876 0-3.262 1.582-3.262 3.542 0 2.086 1.414 3.556 3.388 3.556zm2.324-3.892h-4.914c.056-1.176.854-2.576 2.45-2.576 1.694 0 2.45 1.428 2.464 2.576zm3.352 3.724v-4.928c.308-.588 1.232-1.204 1.918-1.204.14 0 .238 0 .364.028v-.798c-.938 0-1.708.546-2.282 1.302v-1.162h-.728V126h.728zm6.711.168c1.12 0 1.974-.392 2.646-1.092l-.378-.476c-.574.616-1.358.938-2.212.938-1.596 0-2.576-1.218-2.646-2.688h5.656v-.196c0-1.946-1.134-3.584-3.192-3.584-1.876 0-3.262 1.582-3.262 3.542 0 2.086 1.414 3.556 3.388 3.556zm2.324-3.892h-4.914c.056-1.176.854-2.576 2.45-2.576 1.694 0 2.45 1.428 2.464 2.576zm7.915 3.724v-4.732c0-1.526-.756-2.198-2.128-2.198-.98 0-1.946.602-2.436 1.19v-1.022h-.728V126h.728v-5.11c.434-.616 1.33-1.162 2.198-1.162.98 0 1.638.392 1.638 1.694V126h.728zm5.167.168c1.176 0 1.848-.462 2.394-1.162l-.504-.448c-.49.672-1.106.952-1.848.952-1.582 0-2.548-1.274-2.548-2.898s.966-2.884 2.548-2.884c.742 0 1.358.266 1.848.938l.504-.448c-.546-.686-1.218-1.148-2.394-1.148-1.988 0-3.29 1.568-3.29 3.542 0 1.974 1.302 3.556 3.29 3.556zm7.016 0c1.12 0 1.974-.392 2.646-1.092l-.378-.476c-.574.616-1.358.938-2.212.938-1.596 0-2.576-1.218-2.646-2.688h5.656v-.196c0-1.946-1.134-3.584-3.192-3.584-1.876 0-3.262 1.582-3.262 3.542 0 2.086 1.414 3.556 3.388 3.556zm2.324-3.892h-4.914c.056-1.176.854-2.576 2.45-2.576 1.694 0 2.45 1.428 2.464 2.576zm6.974 2.03v-3.346c.392-.644 1.288-1.232 2.226-1.232 1.512 0 2.366 1.26 2.366 2.898 0 1.638-.854 2.884-2.366 2.884-.938 0-1.834-.56-2.226-1.204zm0 1.694v-1.078a2.88 2.88 0 002.352 1.246c1.792 0 3.024-1.372 3.024-3.542 0-2.142-1.218-3.556-3.024-3.556-.952 0-1.806.49-2.352 1.26v-3.668h-.728V126h.728zm10.266.168c1.12 0 1.974-.392 2.646-1.092l-.378-.476c-.574.616-1.358.938-2.212.938-1.596 0-2.576-1.218-2.646-2.688h5.656v-.196c0-1.946-1.134-3.584-3.192-3.584-1.876 0-3.262 1.582-3.262 3.542 0 2.086 1.414 3.556 3.388 3.556zm2.324-3.892h-4.914c.056-1.176.854-2.576 2.45-2.576 1.694 0 2.45 1.428 2.464 2.576zm4.094 3.892c.56 0 .882-.168 1.148-.42l-.28-.56a1.056 1.056 0 01-.756.322c-.476 0-.7-.378-.7-.924v-4.704h1.372v-.644h-1.372v-1.848h-.742v1.848h-1.12v.644h1.12v4.816c0 .924.434 1.47 1.33 1.47zm8.881-.168l2.198-6.762h-.784l-1.792 5.74-1.904-5.74h-.63l-1.904 5.74-1.792-5.74h-.784l2.198 6.762h.7l1.904-5.782 1.89 5.782h.7zm6.563.168c1.12 0 1.974-.392 2.646-1.092l-.378-.476c-.574.616-1.358.938-2.212.938-1.596 0-2.576-1.218-2.646-2.688h5.656v-.196c0-1.946-1.134-3.584-3.192-3.584-1.876 0-3.262 1.582-3.262 3.542 0 2.086 1.414 3.556 3.388 3.556zm2.324-3.892h-4.914c.056-1.176.854-2.576 2.45-2.576 1.694 0 2.45 1.428 2.464 2.576zm5.619 3.892c1.12 0 1.974-.392 2.646-1.092l-.378-.476c-.574.616-1.358.938-2.212.938-1.596 0-2.576-1.218-2.646-2.688h5.656v-.196c0-1.946-1.134-3.584-3.192-3.584-1.876 0-3.262 1.582-3.262 3.542 0 2.086 1.414 3.556 3.388 3.556zm2.324-3.892h-4.914c.056-1.176.854-2.576 2.45-2.576 1.694 0 2.45 1.428 2.464 2.576zm7.915 3.724v-4.732c0-1.526-.756-2.198-2.128-2.198-.98 0-1.946.602-2.436 1.19v-1.022h-.728V126h.728v-5.11c.434-.616 1.33-1.162 2.198-1.162.98 0 1.638.392 1.638 1.694V126h.728zm13.606 0l-3.822-9.338h-.994L224.712 126h.924l.924-2.296h4.942l.924 2.296h.924zm-2.114-3.024h-4.41l2.198-5.46 2.212 5.46zm5.48 3.192c1.694 0 2.534-.896 2.534-1.988 0-2.604-4.27-1.568-4.27-3.262 0-.7.644-1.232 1.694-1.232.896 0 1.624.364 2.016.896l.406-.518c-.49-.546-1.26-.994-2.422-.994-1.526 0-2.408.84-2.408 1.876 0 2.422 4.27 1.386 4.27 3.234 0 .784-.672 1.372-1.806 1.372-.952 0-1.75-.448-2.184-.994l-.434.546c.672.742 1.512 1.064 2.604 1.064zm4.774-7.994c.308 0 .56-.252.56-.56a.55.55 0 00-.56-.546.559.559 0 00-.56.546c0 .308.266.56.56.56zm.364 7.826v-6.762h-.728V126h.728zm7.292 0v-4.76c0-1.512-1.092-2.17-2.464-2.17-1.12 0-1.904.378-2.604 1.134l.406.504c.616-.7 1.274-.994 2.114-.994 1.008 0 1.82.546 1.82 1.554v1.372c-.588-.658-1.358-.966-2.296-.966-1.176 0-2.366.77-2.366 2.24 0 1.456 1.204 2.254 2.366 2.254.938 0 1.694-.308 2.296-.966V126h.728zm-2.772-.406c-1.12 0-1.848-.714-1.848-1.666 0-.966.728-1.68 1.848-1.68.812 0 1.568.322 2.044.938v1.484c-.476.616-1.232.924-2.044.924zm10.339.406v-4.732c0-1.526-.756-2.198-2.128-2.198-.98 0-1.946.602-2.436 1.19v-1.022h-.728V126h.728v-5.11c.434-.616 1.33-1.162 2.198-1.162.98 0 1.638.392 1.638 1.694V126h.728zm10.918 0v-4.76c0-1.512-1.092-2.17-2.464-2.17-1.12 0-1.904.378-2.604 1.134l.406.504c.616-.7 1.274-.994 2.114-.994 1.008 0 1.82.546 1.82 1.554v1.372c-.588-.658-1.358-.966-2.296-.966-1.176 0-2.366.77-2.366 2.24 0 1.456 1.204 2.254 2.366 2.254.938 0 1.694-.308 2.296-.966V126h.728zm-2.772-.406c-1.12 0-1.848-.714-1.848-1.666 0-.966.728-1.68 1.848-1.68.812 0 1.568.322 2.044.938v1.484c-.476.616-1.232.924-2.044.924zm10.338.406v-4.732c0-1.526-.756-2.198-2.128-2.198-.98 0-1.946.602-2.436 1.19v-1.022h-.728V126h.728v-5.11c.434-.616 1.33-1.162 2.198-1.162.98 0 1.638.392 1.638 1.694V126h.728zm7.995 0v-9.338h-.742v3.668c-.546-.77-1.386-1.26-2.352-1.26-1.792 0-3.024 1.414-3.024 3.556 0 2.17 1.232 3.542 3.024 3.542a2.88 2.88 0 002.352-1.246V126h.742zm-2.968-.49c-1.498 0-2.366-1.246-2.366-2.884s.868-2.898 2.366-2.898c.952 0 1.834.574 2.226 1.232v3.346c-.392.644-1.274 1.204-2.226 1.204zm13.273.658c1.484 0 2.576-.644 3.402-1.666l-.672-.42c-.588.812-1.61 1.358-2.73 1.358-2.198 0-3.892-1.694-3.892-4.102 0-2.436 1.694-4.102 3.892-4.102 1.12 0 2.142.546 2.73 1.358l.672-.434c-.798-.994-1.918-1.652-3.402-1.652-2.646 0-4.732 1.96-4.732 4.83s2.086 4.83 4.732 4.83zm10.022-.168v-4.76c0-1.512-1.092-2.17-2.464-2.17-1.12 0-1.904.378-2.604 1.134l.406.504c.616-.7 1.274-.994 2.114-.994 1.008 0 1.82.546 1.82 1.554v1.372c-.588-.658-1.358-.966-2.296-.966-1.176 0-2.366.77-2.366 2.24 0 1.456 1.204 2.254 2.366 2.254.938 0 1.694-.308 2.296-.966V126h.728zm-2.772-.406c-1.12 0-1.848-.714-1.848-1.666 0-.966.728-1.68 1.848-1.68.812 0 1.568.322 2.044.938v1.484c-.476.616-1.232.924-2.044.924zm10.339.406v-6.762h-.728v5.152c-.448.602-1.33 1.12-2.198 1.12-.98 0-1.638-.364-1.638-1.68v-4.592h-.728v4.76c0 1.526.742 2.17 2.128 2.17.98 0 1.876-.546 2.436-1.162V126h.728zm5.167.168c1.176 0 1.848-.462 2.394-1.162l-.504-.448c-.49.672-1.106.952-1.848.952-1.582 0-2.548-1.274-2.548-2.898s.966-2.884 2.548-2.884c.742 0 1.358.266 1.848.938l.504-.448c-.546-.686-1.218-1.148-2.394-1.148-1.988 0-3.29 1.568-3.29 3.542 0 1.974 1.302 3.556 3.29 3.556zm9.046-.168v-4.76c0-1.512-1.092-2.17-2.464-2.17-1.12 0-1.904.378-2.604 1.134l.406.504c.616-.7 1.274-.994 2.114-.994 1.008 0 1.82.546 1.82 1.554v1.372c-.588-.658-1.358-.966-2.296-.966-1.176 0-2.366.77-2.366 2.24 0 1.456 1.204 2.254 2.366 2.254.938 0 1.694-.308 2.296-.966V126h.728zm-2.772-.406c-1.12 0-1.848-.714-1.848-1.666 0-.966.728-1.68 1.848-1.68.812 0 1.568.322 2.044.938v1.484c-.476.616-1.232.924-2.044.924zm7.062.574c1.694 0 2.534-.896 2.534-1.988 0-2.604-4.27-1.568-4.27-3.262 0-.7.644-1.232 1.694-1.232.896 0 1.624.364 2.016.896l.406-.518c-.49-.546-1.26-.994-2.422-.994-1.526 0-2.408.84-2.408 1.876 0 2.422 4.27 1.386 4.27 3.234 0 .784-.672 1.372-1.806 1.372-.952 0-1.75-.448-2.184-.994l-.434.546c.672.742 1.512 1.064 2.604 1.064zm4.774-7.994c.308 0 .56-.252.56-.56a.55.55 0 00-.56-.546.559.559 0 00-.56.546c0 .308.266.56.56.56zm.364 7.826v-6.762h-.728V126h.728zm7.292 0v-4.76c0-1.512-1.092-2.17-2.464-2.17-1.12 0-1.904.378-2.604 1.134l.406.504c.616-.7 1.274-.994 2.114-.994 1.008 0 1.82.546 1.82 1.554v1.372c-.588-.658-1.358-.966-2.296-.966-1.176 0-2.366.77-2.366 2.24 0 1.456 1.204 2.254 2.366 2.254.938 0 1.694-.308 2.296-.966V126h.728zm-2.772-.406c-1.12 0-1.848-.714-1.848-1.666 0-.966.728-1.68 1.848-1.68.812 0 1.568.322 2.044.938v1.484c-.476.616-1.232.924-2.044.924zm10.339.406v-4.732c0-1.526-.756-2.198-2.128-2.198-.98 0-1.946.602-2.436 1.19v-1.022h-.728V126h.728v-5.11c.434-.616 1.33-1.162 2.198-1.162.98 0 1.638.392 1.638 1.694V126h.728zm6.858 0v-6.118h1.372v-.644h-1.372v-.616c0-.938.406-1.47 1.176-1.47.364 0 .644.14.868.35l.35-.504c-.434-.378-.812-.476-1.288-.476-1.134 0-1.834.784-1.834 2.1v.616h-1.12v.644h1.12V126h.728zm7.765 0v-4.76c0-1.512-1.092-2.17-2.464-2.17-1.12 0-1.904.378-2.604 1.134l.406.504c.616-.7 1.274-.994 2.114-.994 1.008 0 1.82.546 1.82 1.554v1.372c-.588-.658-1.358-.966-2.296-.966-1.176 0-2.366.77-2.366 2.24 0 1.456 1.204 2.254 2.366 2.254.938 0 1.694-.308 2.296-.966V126h.728zm-2.772-.406c-1.12 0-1.848-.714-1.848-1.666 0-.966.728-1.68 1.848-1.68.812 0 1.568.322 2.044.938v1.484c-.476.616-1.232.924-2.044.924zm7.945.574c1.176 0 1.848-.462 2.394-1.162l-.504-.448c-.49.672-1.106.952-1.848.952-1.582 0-2.548-1.274-2.548-2.898s.966-2.884 2.548-2.884c.742 0 1.358.266 1.848.938l.504-.448c-.546-.686-1.218-1.148-2.394-1.148-1.988 0-3.29 1.568-3.29 3.542 0 1.974 1.302 3.556 3.29 3.556zm7.016 0c1.12 0 1.974-.392 2.646-1.092l-.378-.476c-.574.616-1.358.938-2.212.938-1.596 0-2.576-1.218-2.646-2.688h5.656v-.196c0-1.946-1.134-3.584-3.192-3.584-1.876 0-3.262 1.582-3.262 3.542 0 2.086 1.414 3.556 3.388 3.556zm2.324-3.892h-4.914c.056-1.176.854-2.576 2.45-2.576 1.694 0 2.45 1.428 2.464 2.576zm4.639 3.892c1.694 0 2.534-.896 2.534-1.988 0-2.604-4.27-1.568-4.27-3.262 0-.7.644-1.232 1.694-1.232.896 0 1.624.364 2.016.896l.406-.518c-.49-.546-1.26-.994-2.422-.994-1.526 0-2.408.84-2.408 1.876 0 2.422 4.27 1.386 4.27 3.234 0 .784-.672 1.372-1.806 1.372-.952 0-1.75-.448-2.184-.994l-.434.546c.672.742 1.512 1.064 2.604 1.064zm8.999-.168v-6.118h1.372v-.644h-1.372v-.616c0-.938.406-1.47 1.176-1.47.364 0 .644.14.868.35l.35-.504c-.434-.378-.812-.476-1.288-.476-1.134 0-1.834.784-1.834 2.1v.616h-1.12v.644h1.12V126h.728zm5.595.168c2.002 0 3.262-1.582 3.262-3.556s-1.26-3.542-3.262-3.542c-1.974 0-3.248 1.568-3.248 3.542 0 1.974 1.274 3.556 3.248 3.556zm0-.658c-1.568 0-2.464-1.386-2.464-2.898 0-1.498.896-2.884 2.464-2.884 1.596 0 2.478 1.386 2.478 2.884 0 1.512-.882 2.898-2.478 2.898zm5.87.49v-4.928c.308-.588 1.232-1.204 1.918-1.204.14 0 .238 0 .364.028v-.798c-.938 0-1.708.546-2.282 1.302v-1.162h-.728V126h.728zm9.354.168c1.694 0 2.534-.896 2.534-1.988 0-2.604-4.27-1.568-4.27-3.262 0-.7.644-1.232 1.694-1.232.896 0 1.624.364 2.016.896l.406-.518c-.49-.546-1.26-.994-2.422-.994-1.526 0-2.408.84-2.408 1.876 0 2.422 4.27 1.386 4.27 3.234 0 .784-.672 1.372-1.806 1.372-.952 0-1.75-.448-2.184-.994l-.434.546c.672.742 1.512 1.064 2.604 1.064zm7.266 0c2.002 0 3.262-1.582 3.262-3.556s-1.26-3.542-3.262-3.542c-1.974 0-3.248 1.568-3.248 3.542 0 1.974 1.274 3.556 3.248 3.556zm0-.658c-1.568 0-2.464-1.386-2.464-2.898 0-1.498.896-2.884 2.464-2.884 1.596 0 2.478 1.386 2.478 2.884 0 1.512-.882 2.898-2.478 2.898zm6.108.49v-6.118h1.372v-.644h-1.372v-.616c0-.938.406-1.47 1.176-1.47.364 0 .644.14.868.35l.35-.504c-.434-.378-.812-.476-1.288-.476-1.134 0-1.834.784-1.834 2.1v.616h-1.12v.644h1.12V126h.728zm4.209.168c.56 0 .882-.168 1.148-.42l-.28-.56a1.056 1.056 0 01-.756.322c-.476 0-.7-.378-.7-.924v-4.704h1.372v-.644h-1.372v-1.848h-.742v1.848h-1.12v.644h1.12v4.816c0 .924.434 1.47 1.33 1.47zm8.882-.168l2.198-6.762h-.784l-1.792 5.74-1.904-5.74h-.63l-1.904 5.74-1.792-5.74h-.784L434.45 126h.7l1.904-5.782 1.89 5.782h.7zm8.592 0v-4.76c0-1.512-1.092-2.17-2.464-2.17-1.12 0-1.904.378-2.604 1.134l.406.504c.616-.7 1.274-.994 2.114-.994 1.008 0 1.82.546 1.82 1.554v1.372c-.588-.658-1.358-.966-2.296-.966-1.176 0-2.366.77-2.366 2.24 0 1.456 1.204 2.254 2.366 2.254.938 0 1.694-.308 2.296-.966V126h.728zm-2.772-.406c-1.12 0-1.848-.714-1.848-1.666 0-.966.728-1.68 1.848-1.68.812 0 1.568.322 2.044.938v1.484c-.476.616-1.232.924-2.044.924zm5.775.406v-4.928c.308-.588 1.232-1.204 1.918-1.204.14 0 .238 0 .364.028v-.798c-.938 0-1.708.546-2.282 1.302v-1.162h-.728V126h.728zm6.711.168c1.12 0 1.974-.392 2.646-1.092l-.378-.476c-.574.616-1.358.938-2.212.938-1.596 0-2.576-1.218-2.646-2.688h5.656v-.196c0-1.946-1.134-3.584-3.192-3.584-1.876 0-3.262 1.582-3.262 3.542 0 2.086 1.414 3.556 3.388 3.556zm2.324-3.892h-4.914c.056-1.176.854-2.576 2.45-2.576 1.694 0 2.45 1.428 2.464 2.576zM472.247 126v-9.338h-.742v3.668c-.546-.77-1.386-1.26-2.352-1.26-1.792 0-3.024 1.414-3.024 3.556 0 2.17 1.232 3.542 3.024 3.542a2.88 2.88 0 002.352-1.246V126h.742zm-2.968-.49c-1.498 0-2.366-1.246-2.366-2.884s.868-2.898 2.366-2.898c.952 0 1.834.574 2.226 1.232v3.346c-.392.644-1.274 1.204-2.226 1.204zm8.236.658c1.12 0 1.974-.392 2.646-1.092l-.378-.476c-.574.616-1.358.938-2.212.938-1.596 0-2.576-1.218-2.646-2.688h5.656v-.196c0-1.946-1.134-3.584-3.192-3.584-1.876 0-3.262 1.582-3.262 3.542 0 2.086 1.414 3.556 3.388 3.556zm2.324-3.892h-4.914c.056-1.176.854-2.576 2.45-2.576 1.694 0 2.45 1.428 2.464 2.576zm5.269 3.724l2.856-6.762h-.826l-2.436 5.908-2.464-5.908h-.812l2.856 6.762h.826zm7.09.168c1.12 0 1.974-.392 2.646-1.092l-.378-.476c-.574.616-1.358.938-2.212.938-1.596 0-2.576-1.218-2.646-2.688h5.656v-.196c0-1.946-1.134-3.584-3.192-3.584-1.876 0-3.262 1.582-3.262 3.542 0 2.086 1.414 3.556 3.388 3.556zm2.324-3.892h-4.914c.056-1.176.854-2.576 2.45-2.576 1.694 0 2.45 1.428 2.464 2.576zm3.352 3.724v-9.338h-.728V126h.728zm5.122.168c2.002 0 3.262-1.582 3.262-3.556s-1.26-3.542-3.262-3.542c-1.974 0-3.248 1.568-3.248 3.542 0 1.974 1.274 3.556 3.248 3.556zm0-.658c-1.568 0-2.464-1.386-2.464-2.898 0-1.498.896-2.884 2.464-2.884 1.596 0 2.478 1.386 2.478 2.884 0 1.512-.882 2.898-2.478 2.898zm8.222.658c1.806 0 3.024-1.4 3.024-3.556 0-2.17-1.218-3.542-3.024-3.542a2.906 2.906 0 00-2.352 1.232v-1.064h-.728v9.338h.728v-3.668c.546.77 1.4 1.26 2.352 1.26zm-.126-.658c-.938 0-1.834-.588-2.226-1.232v-3.346c.392-.644 1.288-1.204 2.226-1.204 1.512 0 2.366 1.246 2.366 2.884s-.854 2.898-2.366 2.898zm7.985.658c1.12 0 1.974-.392 2.646-1.092l-.378-.476c-.574.616-1.358.938-2.212.938-1.596 0-2.576-1.218-2.646-2.688h5.656v-.196c0-1.946-1.134-3.584-3.192-3.584-1.876 0-3.262 1.582-3.262 3.542 0 2.086 1.414 3.556 3.388 3.556zm2.324-3.892h-4.914c.056-1.176.854-2.576 2.45-2.576 1.694 0 2.45 1.428 2.464 2.576zm8.35 3.724v-9.338h-.742v3.668c-.546-.77-1.386-1.26-2.352-1.26-1.792 0-3.024 1.414-3.024 3.556 0 2.17 1.232 3.542 3.024 3.542a2.88 2.88 0 002.352-1.246V126h.742zm-2.968-.49c-1.498 0-2.366-1.246-2.366-2.884s.868-2.898 2.366-2.898c.952 0 1.834.574 2.226 1.232v3.346c-.392.644-1.274 1.204-2.226 1.204zm9.591-1.204v-3.346c.392-.644 1.288-1.232 2.226-1.232 1.512 0 2.366 1.26 2.366 2.898 0 1.638-.854 2.884-2.366 2.884-.938 0-1.834-.56-2.226-1.204zm0 1.694v-1.078a2.88 2.88 0 002.352 1.246c1.792 0 3.024-1.372 3.024-3.542 0-2.142-1.218-3.556-3.024-3.556-.952 0-1.806.49-2.352 1.26v-3.668h-.728V126h.728zm6.822 2.646c.182.056.49.098.714.098.798 0 1.372-.406 1.736-1.26l3.5-8.246h-.826l-2.436 5.908-2.464-5.908h-.812l2.856 6.818-.532 1.204c-.266.644-.574.826-1.022.826-.168 0-.434-.042-.588-.112l-.126.672zM561.721 126l-3.822-9.338h-.994L553.083 126h.924l.924-2.296h4.942l.924 2.296h.924zm-2.114-3.024h-4.41l2.198-5.46 2.212 5.46zm5.481 3.192c1.694 0 2.534-.896 2.534-1.988 0-2.604-4.27-1.568-4.27-3.262 0-.7.643-1.232 1.694-1.232.896 0 1.624.364 2.016.896l.406-.518c-.49-.546-1.26-.994-2.422-.994-1.526 0-2.408.84-2.408 1.876 0 2.422 4.27 1.386 4.27 3.234 0 .784-.672 1.372-1.806 1.372-.952 0-1.75-.448-2.184-.994l-.434.546c.672.742 1.511 1.064 2.604 1.064zm4.773-7.994c.308 0 .56-.252.56-.56a.55.55 0 00-.56-.546.559.559 0 00-.56.546c0 .308.266.56.56.56zm.364 7.826v-6.762h-.728V126h.728zm7.292 0v-4.76c0-1.512-1.092-2.17-2.464-2.17-1.12 0-1.904.378-2.604 1.134l.406.504c.616-.7 1.274-.994 2.114-.994 1.008 0 1.82.546 1.82 1.554v1.372c-.588-.658-1.358-.966-2.296-.966-1.176 0-2.366.77-2.366 2.24 0 1.456 1.204 2.254 2.366 2.254.938 0 1.694-.308 2.296-.966V126h.728zm-2.772-.406c-1.12 0-1.848-.714-1.848-1.666 0-.966.728-1.68 1.848-1.68.812 0 1.568.322 2.044.938v1.484c-.476.616-1.232.924-2.044.924zm10.339.406v-4.732c0-1.526-.756-2.198-2.128-2.198-.98 0-1.946.602-2.436 1.19v-1.022h-.728V126h.728v-5.11c.434-.616 1.33-1.162 2.198-1.162.98 0 1.638.392 1.638 1.694V126h.728zm8.79.168c1.176 0 1.848-.462 2.394-1.162l-.504-.448c-.49.672-1.106.952-1.848.952-1.582 0-2.548-1.274-2.548-2.898s.966-2.884 2.548-2.884c.742 0 1.358.266 1.848.938l.504-.448c-.546-.686-1.218-1.148-2.394-1.148-1.988 0-3.29 1.568-3.29 3.542 0 1.974 1.302 3.556 3.29 3.556zm6.876 0c2.002 0 3.262-1.582 3.262-3.556s-1.26-3.542-3.262-3.542c-1.974 0-3.248 1.568-3.248 3.542 0 1.974 1.274 3.556 3.248 3.556zm0-.658c-1.568 0-2.464-1.386-2.464-2.898 0-1.498.896-2.884 2.464-2.884 1.596 0 2.478 1.386 2.478 2.884 0 1.512-.882 2.898-2.478 2.898zm13.92.49v-4.872c0-1.358-.602-2.058-1.848-2.058-.952 0-1.862.644-2.24 1.274-.168-.658-.728-1.274-1.778-1.274-.98 0-1.904.756-2.184 1.19v-1.022h-.728V126h.728v-5.11c.406-.616 1.218-1.162 1.932-1.162.966 0 1.358.588 1.358 1.54V126h.742v-5.124c.378-.616 1.204-1.148 1.932-1.148.952 0 1.358.588 1.358 1.54V126h.728zm5.349.168c1.806 0 3.024-1.4 3.024-3.556 0-2.17-1.218-3.542-3.024-3.542a2.906 2.906 0 00-2.352 1.232v-1.064h-.728v9.338h.728v-3.668c.546.77 1.4 1.26 2.352 1.26zm-.126-.658c-.938 0-1.834-.588-2.226-1.232v-3.346c.392-.644 1.288-1.204 2.226-1.204 1.512 0 2.366 1.246 2.366 2.884s-.854 2.898-2.366 2.898zm10.015.49v-4.76c0-1.512-1.092-2.17-2.464-2.17-1.12 0-1.904.378-2.604 1.134l.406.504c.616-.7 1.274-.994 2.114-.994 1.008 0 1.82.546 1.82 1.554v1.372c-.588-.658-1.358-.966-2.296-.966-1.176 0-2.366.77-2.366 2.24 0 1.456 1.204 2.254 2.366 2.254.938 0 1.694-.308 2.296-.966V126h.728zm-2.772-.406c-1.12 0-1.848-.714-1.848-1.666 0-.966.728-1.68 1.848-1.68.812 0 1.568.322 2.044.938v1.484c-.476.616-1.232.924-2.044.924zm10.339.406v-4.732c0-1.526-.756-2.198-2.128-2.198-.98 0-1.946.602-2.436 1.19v-1.022h-.728V126h.728v-5.11c.434-.616 1.33-1.162 2.198-1.162.98 0 1.638.392 1.638 1.694V126h.728zm2.632-7.826c.308 0 .56-.252.56-.56a.55.55 0 00-.56-.546.559.559 0 00-.56.546c0 .308.266.56.56.56zm.364 7.826v-6.762h-.728V126h.728zm5.263.168c1.12 0 1.974-.392 2.646-1.092l-.378-.476c-.574.616-1.358.938-2.212.938-1.596 0-2.576-1.218-2.646-2.688h5.656v-.196c0-1.946-1.134-3.584-3.192-3.584-1.876 0-3.262 1.582-3.262 3.542 0 2.086 1.414 3.556 3.388 3.556zm2.324-3.892h-4.914c.056-1.176.854-2.576 2.45-2.576 1.694 0 2.45 1.428 2.464 2.576zm4.639 3.892c1.694 0 2.534-.896 2.534-1.988 0-2.604-4.27-1.568-4.27-3.262 0-.7.644-1.232 1.694-1.232.896 0 1.624.364 2.016.896l.406-.518c-.49-.546-1.26-.994-2.422-.994-1.526 0-2.408.84-2.408 1.876 0 2.422 4.27 1.386 4.27 3.234 0 .784-.672 1.372-1.806 1.372-.952 0-1.75-.448-2.184-.994l-.434.546c.672.742 1.512 1.064 2.604 1.064zm4.802-.028c.336 0 .63-.294.63-.63 0-.322-.294-.602-.63-.602a.619.619 0 00-.616.602c0 .336.28.63.616.63zM70.912 154v-4.872c0-1.358-.602-2.058-1.848-2.058-.952 0-1.862.644-2.24 1.274-.168-.658-.728-1.274-1.778-1.274-.98 0-1.904.756-2.184 1.19v-1.022h-.728V154h.728v-5.11c.406-.616 1.218-1.162 1.932-1.162.966 0 1.358.588 1.358 1.54V154h.742v-5.124c.378-.616 1.204-1.148 1.932-1.148.952 0 1.358.588 1.358 1.54V154h.728zm5.125.168c2.002 0 3.262-1.582 3.262-3.556s-1.26-3.542-3.262-3.542c-1.974 0-3.248 1.568-3.248 3.542 0 1.974 1.274 3.556 3.248 3.556zm0-.658c-1.568 0-2.464-1.386-2.464-2.898 0-1.498.896-2.884 2.464-2.884 1.596 0 2.478 1.386 2.478 2.884 0 1.512-.882 2.898-2.478 2.898zm5.87.49v-4.928c.308-.588 1.232-1.204 1.918-1.204.14 0 .238 0 .364.028v-.798c-.938 0-1.708.546-2.282 1.302v-1.162h-.728V154h.728zm6.711.168c1.12 0 1.974-.392 2.646-1.092l-.378-.476c-.574.616-1.358.938-2.212.938-1.596 0-2.576-1.218-2.646-2.688h5.656v-.196c0-1.946-1.134-3.584-3.192-3.584-1.876 0-3.262 1.582-3.262 3.542 0 2.086 1.414 3.556 3.388 3.556zm2.324-3.892h-4.914c.056-1.176.854-2.576 2.45-2.576 1.694 0 2.45 1.428 2.464 2.576zM98.155 154v-6.118h1.372v-.644h-1.372v-.616c0-.938.406-1.47 1.176-1.47.364 0 .644.14.868.35l.35-.504c-.434-.378-.812-.476-1.288-.476-1.134 0-1.834.784-1.834 2.1v.616h-1.12v.644h1.12V154h.728zm7.765 0v-4.76c0-1.512-1.092-2.17-2.464-2.17-1.12 0-1.904.378-2.604 1.134l.406.504c.616-.7 1.274-.994 2.114-.994 1.008 0 1.82.546 1.82 1.554v1.372c-.588-.658-1.358-.966-2.296-.966-1.176 0-2.366.77-2.366 2.24 0 1.456 1.204 2.254 2.366 2.254.938 0 1.694-.308 2.296-.966V154h.728zm-2.772-.406c-1.12 0-1.848-.714-1.848-1.666 0-.966.728-1.68 1.848-1.68.812 0 1.568.322 2.044.938v1.484c-.476.616-1.232.924-2.044.924zm5.775.406v-9.338h-.728V154h.728zm4.282.168c1.694 0 2.534-.896 2.534-1.988 0-2.604-4.27-1.568-4.27-3.262 0-.7.644-1.232 1.694-1.232.896 0 1.624.364 2.016.896l.406-.518c-.49-.546-1.26-.994-2.422-.994-1.526 0-2.408.84-2.408 1.876 0 2.422 4.27 1.386 4.27 3.234 0 .784-.672 1.372-1.806 1.372-.952 0-1.75-.448-2.184-.994l-.434.546c.672.742 1.512 1.064 2.604 1.064zm7.405 0c1.12 0 1.974-.392 2.646-1.092l-.378-.476c-.574.616-1.358.938-2.212.938-1.596 0-2.576-1.218-2.646-2.688h5.656v-.196c0-1.946-1.134-3.584-3.192-3.584-1.876 0-3.262 1.582-3.262 3.542 0 2.086 1.414 3.556 3.388 3.556zm2.324-3.892h-4.914c.056-1.176.854-2.576 2.45-2.576 1.694 0 2.45 1.428 2.464 2.576zm9.327 3.892c1.806 0 3.024-1.4 3.024-3.556 0-2.17-1.218-3.542-3.024-3.542a2.906 2.906 0 00-2.352 1.232v-1.064h-.728v9.338h.728v-3.668c.546.77 1.4 1.26 2.352 1.26zm-.126-.658c-.938 0-1.834-.588-2.226-1.232v-3.346c.392-.644 1.288-1.204 2.226-1.204 1.512 0 2.366 1.246 2.366 2.884s-.854 2.898-2.366 2.898zm7.845.658c2.002 0 3.262-1.582 3.262-3.556s-1.26-3.542-3.262-3.542c-1.974 0-3.248 1.568-3.248 3.542 0 1.974 1.274 3.556 3.248 3.556zm0-.658c-1.568 0-2.464-1.386-2.464-2.898 0-1.498.896-2.884 2.464-2.884 1.596 0 2.478 1.386 2.478 2.884 0 1.512-.882 2.898-2.478 2.898zm7.158.658c1.694 0 2.534-.896 2.534-1.988 0-2.604-4.27-1.568-4.27-3.262 0-.7.644-1.232 1.694-1.232.896 0 1.624.364 2.016.896l.406-.518c-.49-.546-1.26-.994-2.422-.994-1.526 0-2.408.84-2.408 1.876 0 2.422 4.27 1.386 4.27 3.234 0 .784-.672 1.372-1.806 1.372-.952 0-1.75-.448-2.184-.994l-.434.546c.672.742 1.512 1.064 2.604 1.064zm4.774-7.994c.308 0 .56-.252.56-.56a.55.55 0 00-.56-.546.559.559 0 00-.56.546c0 .308.266.56.56.56zm.364 7.826v-6.762h-.728V154h.728zm3.736.168c.56 0 .882-.168 1.148-.42l-.28-.56a1.056 1.056 0 01-.756.322c-.476 0-.7-.378-.7-.924v-4.704h1.372v-.644h-1.372v-1.848h-.742v1.848h-1.12v.644h1.12v4.816c0 .924.434 1.47 1.33 1.47zm2.75-7.994c.308 0 .56-.252.56-.56a.55.55 0 00-.56-.546.559.559 0 00-.56.546c0 .308.266.56.56.56zm.364 7.826v-6.762h-.728V154h.728zm4.912 0l2.856-6.762h-.826l-2.436 5.908-2.464-5.908h-.812l2.856 6.762h.826zm7.09.168c1.12 0 1.974-.392 2.646-1.092l-.378-.476c-.574.616-1.358.938-2.212.938-1.596 0-2.576-1.218-2.646-2.688h5.656v-.196c0-1.946-1.134-3.584-3.192-3.584-1.876 0-3.262 1.582-3.262 3.542 0 2.086 1.414 3.556 3.388 3.556zm2.324-3.892h-4.914c.056-1.176.854-2.576 2.45-2.576 1.694 0 2.45 1.428 2.464 2.576zm4.639 3.892c1.694 0 2.534-.896 2.534-1.988 0-2.604-4.27-1.568-4.27-3.262 0-.7.644-1.232 1.694-1.232.896 0 1.624.364 2.016.896l.406-.518c-.49-.546-1.26-.994-2.422-.994-1.526 0-2.408.84-2.408 1.876 0 2.422 4.27 1.386 4.27 3.234 0 .784-.672 1.372-1.806 1.372-.952 0-1.75-.448-2.184-.994l-.434.546c.672.742 1.512 1.064 2.604 1.064zm8.999-.168v-6.118h1.372v-.644h-1.372v-.616c0-.938.406-1.47 1.176-1.47.364 0 .644.14.868.35l.35-.504c-.434-.378-.812-.476-1.288-.476-1.134 0-1.834.784-1.834 2.1v.616h-1.12v.644h1.12V154h.728zm5.595.168c2.002 0 3.262-1.582 3.262-3.556s-1.26-3.542-3.262-3.542c-1.974 0-3.248 1.568-3.248 3.542 0 1.974 1.274 3.556 3.248 3.556zm0-.658c-1.568 0-2.464-1.386-2.464-2.898 0-1.498.896-2.884 2.464-2.884 1.596 0 2.478 1.386 2.478 2.884 0 1.512-.882 2.898-2.478 2.898zm5.87.49v-4.928c.308-.588 1.232-1.204 1.918-1.204.14 0 .238 0 .364.028v-.798c-.938 0-1.708.546-2.282 1.302v-1.162h-.728V154h.728zm15.053 0l-3.822-9.338h-.994L204.97 154h.924l.924-2.296h4.942l.924 2.296h.924zm-2.114-3.024h-4.41l2.198-5.46 2.212 5.46zm4.362 3.024v-6.118h1.372v-.644h-1.372v-.616c0-.938.406-1.47 1.176-1.47.364 0 .644.14.868.35l.35-.504c-.434-.378-.812-.476-1.288-.476-1.134 0-1.834.784-1.834 2.1v.616h-1.12v.644h1.12V154h.728zm3.467 0v-4.928c.308-.588 1.232-1.204 1.918-1.204.14 0 .238 0 .364.028v-.798c-.938 0-1.708.546-2.282 1.302v-1.162h-.728V154h.728zm4.079-7.826c.308 0 .56-.252.56-.56a.55.55 0 00-.56-.546.559.559 0 00-.56.546c0 .308.266.56.56.56zm.364 7.826v-6.762h-.728V154h.728zm5.164.168c1.176 0 1.848-.462 2.394-1.162l-.504-.448c-.49.672-1.106.952-1.848.952-1.582 0-2.548-1.274-2.548-2.898s.966-2.884 2.548-2.884c.742 0 1.358.266 1.848.938l.504-.448c-.546-.686-1.218-1.148-2.394-1.148-1.988 0-3.29 1.568-3.29 3.542 0 1.974 1.302 3.556 3.29 3.556zm9.046-.168v-4.76c0-1.512-1.092-2.17-2.464-2.17-1.12 0-1.904.378-2.604 1.134l.406.504c.616-.7 1.274-.994 2.114-.994 1.008 0 1.82.546 1.82 1.554v1.372c-.588-.658-1.358-.966-2.296-.966-1.176 0-2.366.77-2.366 2.24 0 1.456 1.204 2.254 2.366 2.254.938 0 1.694-.308 2.296-.966V154h.728zm-2.772-.406c-1.12 0-1.848-.714-1.848-1.666 0-.966.728-1.68 1.848-1.68.812 0 1.568.322 2.044.938v1.484c-.476.616-1.232.924-2.044.924zm10.339.406v-4.732c0-1.526-.756-2.198-2.128-2.198-.98 0-1.946.602-2.436 1.19v-1.022h-.728V154h.728v-5.11c.434-.616 1.33-1.162 2.198-1.162.98 0 1.638.392 1.638 1.694V154h.728zm13.606 0l-3.822-9.338h-.994L250.511 154h.924l.924-2.296h4.942l.924 2.296h.924zm-2.114-3.024h-4.41l2.198-5.46 2.212 5.46zM269.277 154v-4.872c0-1.358-.602-2.058-1.848-2.058-.952 0-1.862.644-2.24 1.274-.168-.658-.728-1.274-1.778-1.274-.98 0-1.904.756-2.184 1.19v-1.022h-.728V154h.728v-5.11c.406-.616 1.218-1.162 1.932-1.162.966 0 1.358.588 1.358 1.54V154h.742v-5.124c.378-.616 1.204-1.148 1.932-1.148.952 0 1.358.588 1.358 1.54V154h.728zm5.265.168c1.12 0 1.974-.392 2.646-1.092l-.378-.476c-.574.616-1.358.938-2.212.938-1.596 0-2.576-1.218-2.646-2.688h5.656v-.196c0-1.946-1.134-3.584-3.192-3.584-1.876 0-3.262 1.582-3.262 3.542 0 2.086 1.414 3.556 3.388 3.556zm2.324-3.892h-4.914c.056-1.176.854-2.576 2.45-2.576 1.694 0 2.45 1.428 2.464 2.576zm3.351 3.724v-4.928c.308-.588 1.232-1.204 1.918-1.204.14 0 .238 0 .364.028v-.798c-.938 0-1.708.546-2.282 1.302v-1.162h-.728V154h.728zm4.08-7.826c.308 0 .56-.252.56-.56a.55.55 0 00-.56-.546.559.559 0 00-.56.546c0 .308.266.56.56.56zm.364 7.826v-6.762h-.728V154h.728zm5.164.168c1.176 0 1.848-.462 2.394-1.162l-.504-.448c-.49.672-1.106.952-1.848.952-1.582 0-2.548-1.274-2.548-2.898s.966-2.884 2.548-2.884c.742 0 1.358.266 1.848.938l.504-.448c-.546-.686-1.218-1.148-2.394-1.148-1.988 0-3.29 1.568-3.29 3.542 0 1.974 1.302 3.556 3.29 3.556zm9.046-.168v-4.76c0-1.512-1.092-2.17-2.464-2.17-1.12 0-1.904.378-2.604 1.134l.406.504c.616-.7 1.274-.994 2.114-.994 1.008 0 1.82.546 1.82 1.554v1.372c-.588-.658-1.358-.966-2.296-.966-1.176 0-2.366.77-2.366 2.24 0 1.456 1.204 2.254 2.366 2.254.938 0 1.694-.308 2.296-.966V154h.728zm-2.772-.406c-1.12 0-1.848-.714-1.848-1.666 0-.966.728-1.68 1.848-1.68.812 0 1.568.322 2.044.938v1.484c-.476.616-1.232.924-2.044.924zm10.339.406v-4.732c0-1.526-.756-2.198-2.128-2.198-.98 0-1.946.602-2.436 1.19v-1.022h-.728V154h.728v-5.11c.434-.616 1.33-1.162 2.198-1.162.98 0 1.638.392 1.638 1.694V154h.728zm6.857 0v-6.118h1.372v-.644h-1.372v-.616c0-.938.406-1.47 1.176-1.47.364 0 .644.14.868.35l.35-.504c-.434-.378-.812-.476-1.288-.476-1.134 0-1.834.784-1.834 2.1v.616h-1.12v.644h1.12V154h.728zm5.735.168c1.12 0 1.974-.392 2.646-1.092l-.378-.476c-.574.616-1.358.938-2.212.938-1.596 0-2.576-1.218-2.646-2.688h5.656v-.196c0-1.946-1.134-3.584-3.192-3.584-1.876 0-3.262 1.582-3.262 3.542 0 2.086 1.414 3.556 3.388 3.556zm2.324-3.892h-4.914c.056-1.176.854-2.576 2.45-2.576 1.694 0 2.45 1.428 2.464 2.576zM332.756 154v-4.872c0-1.358-.602-2.058-1.848-2.058-.952 0-1.862.644-2.24 1.274-.168-.658-.728-1.274-1.778-1.274-.98 0-1.904.756-2.184 1.19v-1.022h-.728V154h.728v-5.11c.406-.616 1.218-1.162 1.932-1.162.966 0 1.358.588 1.358 1.54V154h.742v-5.124c.378-.616 1.204-1.148 1.932-1.148.952 0 1.358.588 1.358 1.54V154h.728zm7.295 0v-4.76c0-1.512-1.092-2.17-2.464-2.17-1.12 0-1.904.378-2.604 1.134l.406.504c.616-.7 1.274-.994 2.114-.994 1.008 0 1.82.546 1.82 1.554v1.372c-.588-.658-1.358-.966-2.296-.966-1.176 0-2.366.77-2.366 2.24 0 1.456 1.204 2.254 2.366 2.254.938 0 1.694-.308 2.296-.966V154h.728zm-2.772-.406c-1.12 0-1.848-.714-1.848-1.666 0-.966.728-1.68 1.848-1.68.812 0 1.568.322 2.044.938v1.484c-.476.616-1.232.924-2.044.924zm5.774.406v-9.338h-.728V154h.728zm5.263.168c1.12 0 1.974-.392 2.646-1.092l-.378-.476c-.574.616-1.358.938-2.212.938-1.596 0-2.576-1.218-2.646-2.688h5.656v-.196c0-1.946-1.134-3.584-3.192-3.584-1.876 0-3.262 1.582-3.262 3.542 0 2.086 1.414 3.556 3.388 3.556zm2.324-3.892h-4.914c.056-1.176.854-2.576 2.45-2.576 1.694 0 2.45 1.428 2.464 2.576zm4.639 3.892c1.694 0 2.534-.896 2.534-1.988 0-2.604-4.27-1.568-4.27-3.262 0-.7.644-1.232 1.694-1.232.896 0 1.624.364 2.016.896l.406-.518c-.49-.546-1.26-.994-2.422-.994-1.526 0-2.408.84-2.408 1.876 0 2.422 4.27 1.386 4.27 3.234 0 .784-.672 1.372-1.806 1.372-.952 0-1.75-.448-2.184-.994l-.434.546c.672.742 1.512 1.064 2.604 1.064zm4.802-.028c.336 0 .63-.294.63-.63 0-.322-.294-.602-.63-.602a.619.619 0 00-.616.602c0 .336.28.63.616.63zM67.876 42.216c3.636 0 6.282-2.592 6.282-6.21s-2.646-6.21-6.282-6.21c-3.618 0-6.264 2.592-6.264 6.21s2.646 6.21 6.264 6.21zm0-2.268c-2.214 0-3.636-1.71-3.636-3.942 0-2.25 1.422-3.942 3.636-3.942 2.214 0 3.654 1.692 3.654 3.942 0 2.232-1.44 3.942-3.654 3.942zM84.052 42v-6.138c0-1.692-.918-2.772-2.826-2.772-1.422 0-2.484.684-3.042 1.35v-1.134h-2.286V42h2.286v-5.85c.378-.522 1.08-1.026 1.98-1.026.972 0 1.602.414 1.602 1.62V42h2.286zm6.355.216c1.35 0 2.719-.414 3.583-1.206l-1.008-1.476c-.558.54-1.585.864-2.323.864-1.476 0-2.358-.918-2.502-2.016h6.463v-.504c0-2.844-1.764-4.788-4.357-4.788-2.645 0-4.5 2.034-4.5 4.554 0 2.79 1.998 4.572 4.644 4.572zm1.999-5.382H88.12c.109-.864.72-1.926 2.142-1.926 1.512 0 2.088 1.098 2.142 1.926zm7.59 1.782v-1.944h-4.32v1.944h4.32zm4.587 3.6c.954 0 1.566-.252 1.908-.558l-.486-1.728c-.126.126-.45.252-.792.252-.504 0-.792-.414-.792-.954v-3.924h1.764v-1.998h-1.764V30.93h-2.304v2.376h-1.44v1.998h1.44v4.536c0 1.548.864 2.376 2.466 2.376zm7.198 0c2.88 0 4.608-2.088 4.608-4.572 0-2.466-1.728-4.554-4.608-4.554-2.862 0-4.59 2.088-4.59 4.554 0 2.484 1.728 4.572 4.59 4.572zm0-2.034c-1.422 0-2.214-1.17-2.214-2.538 0-1.35.792-2.52 2.214-2.52s2.232 1.17 2.232 2.52c0 1.368-.81 2.538-2.232 2.538zm10.03-1.566v-1.944h-4.32v1.944h4.32zm5.703 3.6c2.88 0 4.608-2.088 4.608-4.572 0-2.466-1.728-4.554-4.608-4.554-2.862 0-4.59 2.088-4.59 4.554 0 2.484 1.728 4.572 4.59 4.572zm0-2.034c-1.422 0-2.214-1.17-2.214-2.538 0-1.35.792-2.52 2.214-2.52s2.232 1.17 2.232 2.52c0 1.368-.81 2.538-2.232 2.538zM141.972 42v-6.138c0-1.692-.918-2.772-2.826-2.772-1.422 0-2.484.684-3.042 1.35v-1.134h-2.286V42h2.286v-5.85c.378-.522 1.08-1.026 1.98-1.026.972 0 1.602.414 1.602 1.62V42h2.286zm6.355.216c1.35 0 2.718-.414 3.582-1.206l-1.008-1.476c-.558.54-1.584.864-2.322.864-1.476 0-2.358-.918-2.502-2.016h6.462v-.504c0-2.844-1.764-4.788-4.356-4.788-2.646 0-4.5 2.034-4.5 4.554 0 2.79 1.998 4.572 4.644 4.572zm1.998-5.382h-4.284c.108-.864.72-1.926 2.142-1.926 1.512 0 2.088 1.098 2.142 1.926zM171.882 42v-6.282c0-1.782-.954-2.628-2.556-2.628-1.332 0-2.484.792-2.988 1.584-.324-.99-1.134-1.584-2.412-1.584-1.332 0-2.484.828-2.844 1.35v-1.134h-2.286V42h2.286v-5.85c.342-.486 1.008-1.026 1.8-1.026.936 0 1.296.576 1.296 1.386V42h2.304v-5.868c.324-.468.99-1.008 1.8-1.008.936 0 1.296.576 1.296 1.386V42h2.304zm9.748 0v-5.616c0-2.502-1.818-3.294-3.798-3.294-1.368 0-2.736.432-3.798 1.368l.864 1.53c.738-.684 1.602-1.026 2.538-1.026 1.152 0 1.908.576 1.908 1.458v1.17c-.576-.684-1.602-1.062-2.754-1.062-1.386 0-3.024.774-3.024 2.808 0 1.944 1.638 2.88 3.024 2.88 1.134 0 2.16-.414 2.754-1.116v.9h2.286zm-4.122-1.332c-.9 0-1.638-.468-1.638-1.278 0-.846.738-1.314 1.638-1.314.738 0 1.458.252 1.836.756v1.08c-.378.504-1.098.756-1.836.756zm9.306 1.548c.954 0 1.566-.252 1.908-.558l-.486-1.728c-.126.126-.45.252-.792.252-.504 0-.792-.414-.792-.954v-3.924h1.764v-1.998h-1.764V30.93h-2.304v2.376h-1.44v1.998h1.44v4.536c0 1.548.864 2.376 2.466 2.376zm7.216 0c1.782 0 2.862-.774 3.438-1.584l-1.494-1.386a2.194 2.194 0 01-1.836.936c-1.386 0-2.358-1.026-2.358-2.538 0-1.512.972-2.52 2.358-2.52.792 0 1.422.324 1.836.936l1.494-1.404c-.576-.792-1.656-1.566-3.438-1.566-2.682 0-4.608 1.89-4.608 4.554 0 2.682 1.926 4.572 4.608 4.572zM207.134 42v-6.174c0-1.692-.918-2.736-2.826-2.736-1.422 0-2.502.684-3.06 1.35v-4.446h-2.286V42h2.286v-5.85c.396-.522 1.098-1.026 1.98-1.026.99 0 1.62.378 1.62 1.584V42h2.286z" fill="#000"/><circle cx="51.997" cy="67" r="2" fill="#77BCE8"/><circle cx="51.997" cy="95" r="2" fill="#77BCE8"/><circle cx="51.997" cy="123" r="2" fill="#77BCE8"/><circle cx="51.997" cy="151" r="2" fill="#77BCE8"/><defs><filter id="filter0_ddd" x="23" y="4" width="694" height="190" filterUnits="userSpaceOnUse" color-interpolation-filters="sRGB"><feFlood flood-opacity="0" result="BackgroundImageFix"/><feColorMatrix in="SourceAlpha" values="0 0 0 0 0 0 0 0 0 0 0 0 0 0 0 0 0 0 127 0"/><feOffset dy="1"/><feGaussianBlur stdDeviation="5"/><feColorMatrix values="0 0 0 0 0.317647 0 0 0 0 0.662745 0 0 0 0 0.882353 0 0 0 0.2 0"/><feBlend in2="BackgroundImageFix" result="effect1_dropShadow"/><feColorMatrix in="SourceAlpha" values="0 0 0 0 0 0 0 0 0 0 0 0 0 0 0 0 0 0 127 0"/><feOffset dy="4"/><feGaussianBlur stdDeviation="2.5"/><feColorMatrix values="0 0 0 0 0.317647 0 0 0 0 0.662745 0 0 0 0 0.882353 0 0 0 0.12 0"/><feBlend in2="effect1_dropShadow" result="effect2_dropShadow"/><feColorMatrix in="SourceAlpha" values="0 0 0 0 0 0 0 0 0 0 0 0 0 0 0 0 0 0 127 0"/><feOffset dy="2"/><feGaussianBlur stdDeviation="2"/><feColorMatrix values="0 0 0 0 0.317647 0 0 0 0 0.662745 0 0 0 0 0.882353 0 0 0 0.14 0"/><feBlend in2="effect2_dropShadow" result="effect3_dropShadow"/><feBlend in="SourceGraphic" in2="effect3_dropShadow" result="shape"/></filter></defs></svg>