<svg width="674" height="199" fill="none" xmlns="http://www.w3.org/2000/svg"><rect width="674" height="199" rx="7" fill="#fff"/><rect x="45" y="22" width="195" height="41" rx="8" fill="#1CBB3F"/><path d="M97.78 48.26c2.42 0 4.32-1 5.68-2.52v-5.12H97.1v2.48h3.52v1.6c-.54.5-1.66 1.02-2.84 1.02-2.42 0-4.18-1.86-4.18-4.38 0-2.52 1.76-4.38 4.18-4.38 1.42 0 2.56.8 3.16 1.74l2.36-1.28c-1-1.58-2.74-2.98-5.52-2.98-3.9 0-7.1 2.68-7.1 6.9 0 4.2 3.2 6.92 7.1 6.92zm10.415-.26v-6.38c.42-.62 1.54-1.1 2.38-1.1.28 0 .52.02.7.06V38.1c-1.2 0-2.4.7-3.08 1.56v-1.32h-2.54V48h2.54zm9.207.24c1.5 0 3.02-.46 3.98-1.34l-1.12-1.64c-.62.6-1.76.96-2.58.96-1.64 0-2.62-1.02-2.78-2.24h7.18v-.56c0-3.16-1.96-5.32-4.84-5.32-2.94 0-5 2.26-5 5.06 0 3.1 2.22 5.08 5.16 5.08zm2.22-5.98h-4.76c.12-.96.8-2.14 2.38-2.14 1.68 0 2.32 1.22 2.38 2.14zm8.834 5.98c1.5 0 3.02-.46 3.98-1.34l-1.12-1.64c-.62.6-1.76.96-2.58.96-1.64 0-2.62-1.02-2.78-2.24h7.18v-.56c0-3.16-1.96-5.32-4.84-5.32-2.94 0-5 2.26-5 5.06 0 3.1 2.22 5.08 5.16 5.08zm2.22-5.98h-4.76c.12-.96.8-2.14 2.38-2.14 1.68 0 2.32 1.22 2.38 2.14zM144.031 48v-6.82c0-1.88-1.02-3.08-3.14-3.08-1.58 0-2.76.76-3.38 1.5v-1.26h-2.54V48h2.54v-6.5c.42-.58 1.2-1.14 2.2-1.14 1.08 0 1.78.46 1.78 1.8V48h2.54zm15.099 0v-2.22h-4.5l4.42-5.6v-1.84h-7.8v2.22h4.36l-4.36 5.54V48h7.88zm6.59.24c3.2 0 5.12-2.32 5.12-5.08 0-2.74-1.92-5.06-5.12-5.06-3.18 0-5.1 2.32-5.1 5.06 0 2.76 1.92 5.08 5.1 5.08zm0-2.26c-1.58 0-2.46-1.3-2.46-2.82 0-1.5.88-2.8 2.46-2.8s2.48 1.3 2.48 2.8c0 1.52-.9 2.82-2.48 2.82zM181.785 48v-6.82c0-1.88-1.02-3.08-3.14-3.08-1.58 0-2.76.76-3.38 1.5v-1.26h-2.54V48h2.54v-6.5c.42-.58 1.2-1.14 2.2-1.14 1.08 0 1.78.46 1.78 1.8V48h2.54zm7.062.24c1.5 0 3.02-.46 3.98-1.34l-1.12-1.64c-.62.6-1.76.96-2.58.96-1.64 0-2.62-1.02-2.78-2.24h7.18v-.56c0-3.16-1.96-5.32-4.84-5.32-2.94 0-5 2.26-5 5.06 0 3.1 2.22 5.08 5.16 5.08zm2.22-5.98h-4.76c.12-.96.8-2.14 2.38-2.14 1.68 0 2.32 1.22 2.38 2.14z" fill="#fff"/><path d="M287.602 45v-.884h-6.222v-4.488h6.103v-.884h-6.103v-4.199h6.222v-.884h-7.191V45h7.191zm5.584 0l3.468-8.211h-1.003l-2.958 7.174-2.992-7.174h-.986L292.183 45h1.003zm8.609.204c1.36 0 2.397-.476 3.213-1.326l-.459-.578c-.697.748-1.649 1.139-2.686 1.139-1.938 0-3.128-1.479-3.213-3.264h6.868v-.238c0-2.363-1.377-4.352-3.876-4.352-2.278 0-3.961 1.921-3.961 4.301 0 2.533 1.717 4.318 4.114 4.318zm2.822-4.726h-5.967c.068-1.428 1.037-3.128 2.975-3.128 2.057 0 2.975 1.734 2.992 3.128zm4.07 4.522v-5.984c.374-.714 1.496-1.462 2.329-1.462.17 0 .289 0 .442.034v-.969c-1.139 0-2.074.663-2.771 1.581v-1.411h-.884V45h.884zm3.967 3.213c.221.068.595.119.867.119.969 0 1.666-.493 2.108-1.53l4.25-10.013h-1.003l-2.958 7.174-2.992-7.174h-.986l3.468 8.279-.646 1.462c-.323.782-.697 1.003-1.241 1.003-.204 0-.527-.051-.714-.136l-.153.816zm10.514-3.009c.68 0 1.071-.204 1.394-.51l-.34-.68a1.283 1.283 0 01-.918.391c-.578 0-.85-.459-.85-1.122v-5.712h1.666v-.782h-1.666v-2.244h-.901v2.244h-1.36v.782h1.36v5.848c0 1.122.527 1.785 1.615 1.785zm9.323-.204v-5.78c0-1.853-.918-2.635-2.584-2.635-1.19 0-2.363.731-2.958 1.445v-4.369h-.884V45h.884v-6.205c.527-.748 1.615-1.411 2.669-1.411 1.19 0 1.989.442 1.989 2.023V45h.884zm3.196-9.503c.374 0 .68-.306.68-.68a.668.668 0 00-.68-.663c-.357 0-.68.289-.68.663 0 .374.323.68.68.68zm.442 9.503v-8.211h-.884V45h.884zm9.178 0v-5.746c0-1.853-.918-2.669-2.584-2.669-1.19 0-2.363.731-2.958 1.445v-1.241h-.884V45h.884v-6.205c.527-.748 1.615-1.411 2.669-1.411 1.19 0 1.989.476 1.989 2.057V45h.884zm6.002 3.332c2.006 0 3.706-.901 3.706-3.417v-8.126h-.901v1.326c-.663-.935-1.683-1.53-2.856-1.53-2.176 0-3.672 1.7-3.672 4.301 0 2.635 1.496 4.284 3.672 4.284 1.224 0 2.278-.697 2.856-1.53v1.292c0 1.887-1.309 2.635-2.805 2.635-1.224 0-2.006-.306-2.72-1.156l-.51.68c.969.986 1.853 1.241 3.23 1.241zm.102-3.961c-1.819 0-2.873-1.496-2.873-3.485 0-1.989 1.054-3.502 2.873-3.502 1.139 0 2.227.697 2.703 1.496v3.995c-.476.799-1.564 1.496-2.703 1.496zm7.672-9.792c0-.697-.408-1.088-.867-1.088a.736.736 0 00-.731.731c0 .408.289.714.697.714.051 0 .17-.017.17-.034-.034.544-.442 1.207-.986 1.581l.493.408c.663-.459 1.224-1.36 1.224-2.312zm4.326 10.625c2.057 0 3.077-1.088 3.077-2.414 0-3.162-5.185-1.904-5.185-3.961 0-.85.782-1.496 2.057-1.496 1.088 0 1.972.442 2.448 1.088l.493-.629c-.595-.663-1.53-1.207-2.941-1.207-1.853 0-2.924 1.02-2.924 2.278 0 2.941 5.185 1.683 5.185 3.927 0 .952-.816 1.666-2.193 1.666-1.156 0-2.125-.544-2.652-1.207l-.527.663c.816.901 1.836 1.292 3.162 1.292zM374.336 45v-7.429h1.666v-.782h-1.666v-.748c0-1.139.493-1.785 1.428-1.785.323 0 .544.068.748.187l.272-.697c-.323-.187-.697-.255-1.105-.255-1.36 0-2.227.935-2.227 2.55v.748h-1.36v.782h1.36V45h.884zm3.774-9.503c.374 0 .68-.306.68-.68a.668.668 0 00-.68-.663c-.357 0-.68.289-.68.663 0 .374.323.68.68.68zm.442 9.503v-8.211h-.884V45h.884zm9.155 0v-5.746c0-1.853-.918-2.669-2.584-2.669-1.19 0-2.363.731-2.958 1.445v-1.241h-.884V45h.884v-6.205c.527-.748 1.615-1.411 2.669-1.411 1.19 0 1.989.476 1.989 2.057V45h.884zm6.393.204c1.36 0 2.397-.476 3.213-1.326l-.459-.578c-.697.748-1.649 1.139-2.686 1.139-1.938 0-3.128-1.479-3.213-3.264h6.868v-.238c0-2.363-1.377-4.352-3.876-4.352-2.278 0-3.961 1.921-3.961 4.301 0 2.533 1.717 4.318 4.114 4.318zm2.822-4.726h-5.967c.068-1.428 1.037-3.128 2.975-3.128 2.057 0 2.975 1.734 2.992 3.128z" fill="#000"/><rect x="45" y="79" width="195" height="41" rx="8" fill="#FAE31A"/><path d="M95.88 105v-5.46l5.1-7.88h-3.24l-3.28 5.36-3.32-5.36H87.9l5.14 7.88V105h2.84zm8.33.24c1.5 0 3.02-.46 3.98-1.34l-1.12-1.64c-.62.6-1.76.96-2.58.96-1.64 0-2.62-1.02-2.78-2.24h7.18v-.56c0-3.16-1.96-5.32-4.84-5.32-2.94 0-5 2.26-5 5.06 0 3.1 2.22 5.08 5.16 5.08zm2.22-5.98h-4.76c.12-.96.8-2.14 2.38-2.14 1.68 0 2.32 1.22 2.38 2.14zm6.835 5.74V91.66h-2.54V105h2.54zm5.058 0V91.66h-2.54V105h2.54zm6.999.24c3.2 0 5.12-2.32 5.12-5.08 0-2.74-1.92-5.06-5.12-5.06-3.18 0-5.1 2.32-5.1 5.06 0 2.76 1.92 5.08 5.1 5.08zm0-2.26c-1.58 0-2.46-1.3-2.46-2.82 0-1.5.88-2.8 2.46-2.8s2.48 1.3 2.48 2.8c0 1.52-.9 2.82-2.48 2.82zm18.184 2.02l2.94-9.66h-2.64l-1.8 6.5-2.12-6.5h-2.26l-2.12 6.5-1.8-6.5h-2.64l2.94 9.66h2.72l2.04-6.58 2.04 6.58h2.7zm16.769 0v-2.22h-4.5l4.42-5.6v-1.84h-7.8v2.22h4.36l-4.36 5.54v1.9h7.88zm6.59.24c3.2 0 5.12-2.32 5.12-5.08 0-2.74-1.92-5.06-5.12-5.06-3.18 0-5.1 2.32-5.1 5.06 0 2.76 1.92 5.08 5.1 5.08zm0-2.26c-1.58 0-2.46-1.3-2.46-2.82 0-1.5.88-2.8 2.46-2.8s2.48 1.3 2.48 2.8c0 1.52-.9 2.82-2.48 2.82zm16.064 2.02v-6.82c0-1.88-1.02-3.08-3.14-3.08-1.58 0-2.76.76-3.38 1.5v-1.26h-2.54V105h2.54v-6.5c.42-.58 1.2-1.14 2.2-1.14 1.08 0 1.78.46 1.78 1.8V105h2.54zm7.062.24c1.5 0 3.02-.46 3.98-1.34l-1.12-1.64c-.62.6-1.76.96-2.58.96-1.64 0-2.62-1.02-2.78-2.24h7.18v-.56c0-3.16-1.96-5.32-4.84-5.32-2.94 0-5 2.26-5 5.06 0 3.1 2.22 5.08 5.16 5.08zm2.22-5.98h-4.76c.12-.96.8-2.14 2.38-2.14 1.68 0 2.32 1.22 2.38 2.14z" fill="#fff"/><path d="M289.472 102V90.661h-.969v9.605l-7.106-9.605h-.986V102h.969v-9.741l7.14 9.741h.952zm6.43.204c1.36 0 2.397-.476 3.213-1.326l-.459-.578c-.697.748-1.649 1.139-2.686 1.139-1.938 0-3.128-1.479-3.213-3.264h6.868v-.238c0-2.363-1.377-4.352-3.876-4.352-2.278 0-3.961 1.921-3.961 4.301 0 2.533 1.717 4.318 4.114 4.318zm2.822-4.726h-5.967c.068-1.428 1.037-3.128 2.975-3.128 2.057 0 2.975 1.734 2.992 3.128zm6.823 4.726c1.36 0 2.397-.476 3.213-1.326l-.459-.578c-.697.748-1.649 1.139-2.686 1.139-1.938 0-3.128-1.479-3.213-3.264h6.868v-.238c0-2.363-1.377-4.352-3.876-4.352-2.278 0-3.961 1.921-3.961 4.301 0 2.533 1.717 4.318 4.114 4.318zm2.822-4.726h-5.967c.068-1.428 1.037-3.128 2.975-3.128 2.057 0 2.975 1.734 2.992 3.128zM318.508 102V90.661h-.901v4.454c-.663-.935-1.683-1.53-2.856-1.53-2.176 0-3.672 1.717-3.672 4.318 0 2.635 1.496 4.301 3.672 4.301a3.498 3.498 0 002.856-1.513V102h.901zm-3.604-.595c-1.819 0-2.873-1.513-2.873-3.502 0-1.989 1.054-3.519 2.873-3.519 1.156 0 2.227.697 2.703 1.496v4.063c-.476.782-1.547 1.462-2.703 1.462zm13.21.799c2.057 0 3.077-1.088 3.077-2.414 0-3.162-5.185-1.904-5.185-3.961 0-.85.782-1.496 2.057-1.496 1.088 0 1.972.442 2.448 1.088l.493-.629c-.595-.663-1.53-1.207-2.941-1.207-1.853 0-2.924 1.02-2.924 2.278 0 2.941 5.185 1.683 5.185 3.927 0 .952-.816 1.666-2.193 1.666-1.156 0-2.125-.544-2.652-1.207l-.527.663c.816.901 1.836 1.292 3.162 1.292zm8.823 0c2.431 0 3.961-1.921 3.961-4.318 0-2.397-1.53-4.301-3.961-4.301-2.397 0-3.944 1.904-3.944 4.301 0 2.397 1.547 4.318 3.944 4.318zm0-.799c-1.904 0-2.992-1.683-2.992-3.519 0-1.819 1.088-3.502 2.992-3.502 1.938 0 3.009 1.683 3.009 3.502 0 1.836-1.071 3.519-3.009 3.519zm16.903.595v-5.916c0-1.649-.731-2.499-2.244-2.499-1.156 0-2.261.782-2.72 1.547-.204-.799-.884-1.547-2.159-1.547-1.19 0-2.312.918-2.652 1.445v-1.241h-.884V102h.884v-6.205c.493-.748 1.479-1.411 2.346-1.411 1.173 0 1.649.714 1.649 1.87V102h.901v-6.222c.459-.748 1.462-1.394 2.346-1.394 1.156 0 1.649.714 1.649 1.87V102h.884zm6.393.204c1.36 0 2.397-.476 3.213-1.326l-.459-.578c-.697.748-1.649 1.139-2.686 1.139-1.938 0-3.128-1.479-3.213-3.264h6.868v-.238c0-2.363-1.377-4.352-3.876-4.352-2.278 0-3.961 1.921-3.961 4.301 0 2.533 1.717 4.318 4.114 4.318zm2.822-4.726h-5.967c.068-1.428 1.037-3.128 2.975-3.128 2.057 0 2.975 1.734 2.992 3.128zm8.469 4.522v-5.984c.374-.714 1.496-1.462 2.329-1.462.17 0 .289 0 .442.034v-.969c-1.139 0-2.074.663-2.771 1.581v-1.411h-.884V102h.884zm8.149.204c1.36 0 2.397-.476 3.213-1.326l-.459-.578c-.697.748-1.649 1.139-2.686 1.139-1.938 0-3.128-1.479-3.213-3.264h6.868v-.238c0-2.363-1.377-4.352-3.876-4.352-2.278 0-3.961 1.921-3.961 4.301 0 2.533 1.717 4.318 4.114 4.318zm2.822-4.726h-5.967c.068-1.428 1.037-3.128 2.975-3.128 2.057 0 2.975 1.734 2.992 3.128zm5.634 4.726c2.057 0 3.077-1.088 3.077-2.414 0-3.162-5.185-1.904-5.185-3.961 0-.85.782-1.496 2.057-1.496 1.088 0 1.972.442 2.448 1.088l.493-.629c-.595-.663-1.53-1.207-2.941-1.207-1.853 0-2.924 1.02-2.924 2.278 0 2.941 5.185 1.683 5.185 3.927 0 .952-.816 1.666-2.193 1.666-1.156 0-2.125-.544-2.652-1.207l-.527.663c.816.901 1.836 1.292 3.162 1.292zm7.139 0c.68 0 1.071-.204 1.394-.51l-.34-.68a1.283 1.283 0 01-.918.391c-.578 0-.85-.459-.85-1.122v-5.712h1.666v-.782h-1.666v-2.244h-.901v2.244h-1.36v.782h1.36v5.848c0 1.122.527 1.785 1.615 1.785zm2.285.136l4.029-12.019h-.765l-4.029 12.019h.765zm6.413-.34v-4.709h3.281c2.159 0 3.417-1.53 3.417-3.315s-1.241-3.315-3.417-3.315h-4.25V102h.969zm3.179-5.593h-3.179v-4.862h3.179c1.496 0 2.499 1.003 2.499 2.431 0 1.428-1.003 2.431-2.499 2.431zm8.799 5.797c2.431 0 3.961-1.921 3.961-4.318 0-2.397-1.53-4.301-3.961-4.301-2.397 0-3.944 1.904-3.944 4.301 0 2.397 1.547 4.318 3.944 4.318zm0-.799c-1.904 0-2.992-1.683-2.992-3.519 0-1.819 1.088-3.502 2.992-3.502 1.938 0 3.009 1.683 3.009 3.502 0 1.836-1.071 3.519-3.009 3.519zm9.712.799c2.431 0 3.961-1.921 3.961-4.318 0-2.397-1.53-4.301-3.961-4.301-2.397 0-3.944 1.904-3.944 4.301 0 2.397 1.547 4.318 3.944 4.318zm0-.799c-1.904 0-2.992-1.683-2.992-3.519 0-1.819 1.088-3.502 2.992-3.502 1.938 0 3.009 1.683 3.009 3.502 0 1.836-1.071 3.519-3.009 3.519zm7.127.595v-5.984c.374-.714 1.496-1.462 2.329-1.462.17 0 .289 0 .442.034v-.969c-1.139 0-2.074.663-2.771 1.581v-1.411h-.884V102h.884zm16.799 0l2.669-8.211h-.952l-2.176 6.97-2.312-6.97h-.765l-2.312 6.97-2.176-6.97h-.952l2.669 8.211h.85l2.312-7.021 2.295 7.021h.85zm7.969.204c1.36 0 2.397-.476 3.213-1.326l-.459-.578c-.697.748-1.649 1.139-2.686 1.139-1.938 0-3.128-1.479-3.213-3.264h6.868v-.238c0-2.363-1.377-4.352-3.876-4.352-2.278 0-3.961 1.921-3.961 4.301 0 2.533 1.717 4.318 4.114 4.318zm2.822-4.726h-5.967c.068-1.428 1.037-3.128 2.975-3.128 2.057 0 2.975 1.734 2.992 3.128zm9.289 4.522v-5.78c0-1.836-1.326-2.635-2.992-2.635-1.36 0-2.312.459-3.162 1.377l.493.612c.748-.85 1.547-1.207 2.567-1.207 1.224 0 2.21.663 2.21 1.887v1.666c-.714-.799-1.649-1.173-2.788-1.173-1.428 0-2.873.935-2.873 2.72 0 1.768 1.462 2.737 2.873 2.737 1.139 0 2.057-.374 2.788-1.173V102h.884zm-3.366-.493c-1.36 0-2.244-.867-2.244-2.023 0-1.173.884-2.04 2.244-2.04.986 0 1.904.391 2.482 1.139v1.802c-.578.748-1.496 1.122-2.482 1.122zm7.913.697c.68 0 1.071-.204 1.394-.51l-.34-.68a1.283 1.283 0 01-.918.391c-.578 0-.85-.459-.85-1.122v-5.712h1.666v-.782h-1.666v-2.244h-.901v2.244h-1.36v.782h1.36v5.848c0 1.122.527 1.785 1.615 1.785zm9.323-.204v-5.78c0-1.853-.918-2.635-2.584-2.635-1.19 0-2.363.731-2.958 1.445v-4.369h-.884V102h.884v-6.205c.527-.748 1.615-1.411 2.669-1.411 1.19 0 1.989.442 1.989 2.023V102h.884zm6.392.204c1.36 0 2.397-.476 3.213-1.326l-.459-.578c-.697.748-1.649 1.139-2.686 1.139-1.938 0-3.128-1.479-3.213-3.264h6.868v-.238c0-2.363-1.377-4.352-3.876-4.352-2.278 0-3.961 1.921-3.961 4.301 0 2.533 1.717 4.318 4.114 4.318zm2.822-4.726h-5.967c.068-1.428 1.037-3.128 2.975-3.128 2.057 0 2.975 1.734 2.992 3.128zm4.07 4.522v-5.984c.374-.714 1.496-1.462 2.329-1.462.17 0 .289 0 .442.034v-.969c-1.139 0-2.074.663-2.771 1.581v-1.411h-.884V102h.884zm12.43.204c1.428 0 2.244-.561 2.907-1.411l-.612-.544c-.595.816-1.343 1.156-2.244 1.156-1.921 0-3.094-1.547-3.094-3.519 0-1.972 1.173-3.502 3.094-3.502.901 0 1.649.323 2.244 1.139l.612-.544c-.663-.833-1.479-1.394-2.907-1.394-2.414 0-3.995 1.904-3.995 4.301 0 2.397 1.581 4.318 3.995 4.318zm8.349 0c2.431 0 3.961-1.921 3.961-4.318 0-2.397-1.53-4.301-3.961-4.301-2.397 0-3.944 1.904-3.944 4.301 0 2.397 1.547 4.318 3.944 4.318zm0-.799c-1.904 0-2.992-1.683-2.992-3.519 0-1.819 1.088-3.502 2.992-3.502 1.938 0 3.009 1.683 3.009 3.502 0 1.836-1.071 3.519-3.009 3.519zm12.67.595v-5.746c0-1.853-.918-2.669-2.584-2.669-1.19 0-2.363.731-2.958 1.445v-1.241h-.884V102h.884v-6.205c.527-.748 1.615-1.411 2.669-1.411 1.19 0 1.989.476 1.989 2.057V102h.884zm9.708 0V90.661h-.901v4.454c-.663-.935-1.683-1.53-2.856-1.53-2.176 0-3.672 1.717-3.672 4.318 0 2.635 1.496 4.301 3.672 4.301a3.498 3.498 0 002.856-1.513V102h.901zm-3.604-.595c-1.819 0-2.873-1.513-2.873-3.502 0-1.989 1.054-3.519 2.873-3.519 1.156 0 2.227.697 2.703 1.496v4.063c-.476.782-1.547 1.462-2.703 1.462zm6.804-8.908c.374 0 .68-.306.68-.68a.668.668 0 00-.68-.663c-.357 0-.68.289-.68.663 0 .374.323.68.68.68zm.442 9.503v-8.211h-.884V102h.884zm4.537.204c.68 0 1.071-.204 1.394-.51l-.34-.68a1.283 1.283 0 01-.918.391c-.578 0-.85-.459-.85-1.122v-5.712h1.666v-.782h-1.666v-2.244h-.901v2.244h-1.36v.782h1.36v5.848c0 1.122.527 1.785 1.615 1.785zm3.339-9.707c.374 0 .68-.306.68-.68a.668.668 0 00-.68-.663c-.357 0-.68.289-.68.663 0 .374.323.68.68.68zm.442 9.503v-8.211h-.884V102h.884zm6.22.204c2.431 0 3.961-1.921 3.961-4.318 0-2.397-1.53-4.301-3.961-4.301-2.397 0-3.944 1.904-3.944 4.301 0 2.397 1.547 4.318 3.944 4.318zm0-.799c-1.904 0-2.992-1.683-2.992-3.519 0-1.819 1.088-3.502 2.992-3.502 1.938 0 3.009 1.683 3.009 3.502 0 1.836-1.071 3.519-3.009 3.519zm12.67.595v-5.746c0-1.853-.918-2.669-2.584-2.669-1.19 0-2.363.731-2.958 1.445v-1.241h-.884V102h.884v-6.205c.527-.748 1.615-1.411 2.669-1.411 1.19 0 1.989.476 1.989 2.057V102h.884zm5.202.204c2.057 0 3.077-1.088 3.077-2.414 0-3.162-5.185-1.904-5.185-3.961 0-.85.782-1.496 2.057-1.496 1.088 0 1.972.442 2.448 1.088l.493-.629c-.595-.663-1.53-1.207-2.941-1.207-1.853 0-2.924 1.02-2.924 2.278 0 2.941 5.185 1.683 5.185 3.927 0 .952-.816 1.666-2.193 1.666-1.156 0-2.125-.544-2.652-1.207l-.527.663c.816.901 1.836 1.292 3.162 1.292z" fill="#000"/><rect x="45" y="136" width="195" height="41" rx="8" fill="#E87777"/><path d="M112.12 162l-3-5.08c1.44-.34 2.92-1.6 2.92-3.96 0-2.48-1.7-4.3-4.48-4.3h-6.24V162h2.84v-4.74h2.08l2.62 4.74h3.26zm-4.98-7.24h-2.98v-3.6h2.98c1.14 0 2 .68 2 1.8s-.86 1.8-2 1.8zm10.906 7.48c1.5 0 3.02-.46 3.98-1.34l-1.12-1.64c-.62.6-1.76.96-2.58.96-1.64 0-2.62-1.02-2.78-2.24h7.18v-.56c0-3.16-1.96-5.32-4.84-5.32-2.94 0-5 2.26-5 5.06 0 3.1 2.22 5.08 5.16 5.08zm2.22-5.98h-4.76c.12-.96.8-2.14 2.38-2.14 1.68 0 2.32 1.22 2.38 2.14zm13.495 5.74v-13.34h-2.56v4.92c-.76-.98-1.84-1.48-2.98-1.48-2.46 0-4.28 1.92-4.28 5.08 0 3.22 1.84 5.06 4.28 5.06 1.16 0 2.22-.52 2.98-1.48V162h2.56zm-4.76-2.02c-1.44 0-2.44-1.14-2.44-2.8 0-1.68 1-2.82 2.44-2.82.86 0 1.78.46 2.2 1.1v3.42c-.42.64-1.34 1.1-2.2 1.1zm19.856 2.02v-2.22h-4.5l4.42-5.6v-1.84h-7.8v2.22h4.36l-4.36 5.54v1.9h7.88zm6.59.24c3.2 0 5.12-2.32 5.12-5.08 0-2.74-1.92-5.06-5.12-5.06-3.18 0-5.1 2.32-5.1 5.06 0 2.76 1.92 5.08 5.1 5.08zm0-2.26c-1.58 0-2.46-1.3-2.46-2.82 0-1.5.88-2.8 2.46-2.8s2.48 1.3 2.48 2.8c0 1.52-.9 2.82-2.48 2.82zm16.064 2.02v-6.82c0-1.88-1.02-3.08-3.14-3.08-1.58 0-2.76.76-3.38 1.5v-1.26h-2.54V162h2.54v-6.5c.42-.58 1.2-1.14 2.2-1.14 1.08 0 1.78.46 1.78 1.8V162h2.54zm7.062.24c1.5 0 3.02-.46 3.98-1.34l-1.12-1.64c-.62.6-1.76.96-2.58.96-1.64 0-2.62-1.02-2.78-2.24h7.18v-.56c0-3.16-1.96-5.32-4.84-5.32-2.94 0-5 2.26-5 5.06 0 3.1 2.22 5.08 5.16 5.08zm2.22-5.98h-4.76c.12-.96.8-2.14 2.38-2.14 1.68 0 2.32 1.22 2.38 2.14z" fill="#fff"/><path d="M289.557 159v-11.339h-.986v5.066h-7.191v-5.066h-.969V159h.969v-5.389h7.191V159h.986zm6.411.204c1.36 0 2.397-.476 3.213-1.326l-.459-.578c-.697.748-1.649 1.139-2.686 1.139-1.938 0-3.128-1.479-3.213-3.264h6.868v-.238c0-2.363-1.377-4.352-3.876-4.352-2.278 0-3.961 1.921-3.961 4.301 0 2.533 1.717 4.318 4.114 4.318zm2.822-4.726h-5.967c.068-1.428 1.037-3.128 2.975-3.128 2.057 0 2.975 1.734 2.992 3.128zm9.289 4.522v-5.78c0-1.836-1.326-2.635-2.992-2.635-1.36 0-2.312.459-3.162 1.377l.493.612c.748-.85 1.547-1.207 2.567-1.207 1.224 0 2.21.663 2.21 1.887v1.666c-.714-.799-1.649-1.173-2.788-1.173-1.428 0-2.873.935-2.873 2.72 0 1.768 1.462 2.737 2.873 2.737 1.139 0 2.057-.374 2.788-1.173V159h.884zm-3.366-.493c-1.36 0-2.244-.867-2.244-2.023 0-1.173.884-2.04 2.244-2.04.986 0 1.904.391 2.482 1.139v1.802c-.578.748-1.496 1.122-2.482 1.122zm7.012.493v-5.984c.374-.714 1.496-1.462 2.329-1.462.17 0 .289 0 .442.034v-.969c-1.139 0-2.074.663-2.771 1.581v-1.411h-.884V159h.884zm6.296.204c.68 0 1.071-.204 1.394-.51l-.34-.68a1.283 1.283 0 01-.918.391c-.578 0-.85-.459-.85-1.122v-5.712h1.666v-.782h-1.666v-2.244h-.901v2.244h-1.36v.782h1.36v5.848c0 1.122.527 1.785 1.615 1.785zm8.18-.204v-5.984c.374-.714 1.496-1.462 2.329-1.462.17 0 .289 0 .442.034v-.969c-1.139 0-2.074.663-2.771 1.581v-1.411h-.884V159h.884zm10.615 0v-5.78c0-1.836-1.326-2.635-2.992-2.635-1.36 0-2.312.459-3.162 1.377l.493.612c.748-.85 1.547-1.207 2.567-1.207 1.224 0 2.21.663 2.21 1.887v1.666c-.714-.799-1.649-1.173-2.788-1.173-1.428 0-2.873.935-2.873 2.72 0 1.768 1.462 2.737 2.873 2.737 1.139 0 2.057-.374 2.788-1.173V159h.884zm-3.366-.493c-1.36 0-2.244-.867-2.244-2.023 0-1.173.884-2.04 2.244-2.04.986 0 1.904.391 2.482 1.139v1.802c-.578.748-1.496 1.122-2.482 1.122zm7.913.697c.68 0 1.071-.204 1.394-.51l-.34-.68a1.283 1.283 0 01-.918.391c-.578 0-.85-.459-.85-1.122v-5.712h1.666v-.782h-1.666v-2.244h-.901v2.244h-1.36v.782h1.36v5.848c0 1.122.527 1.785 1.615 1.785zm6.535 0c1.36 0 2.397-.476 3.213-1.326l-.459-.578c-.697.748-1.649 1.139-2.686 1.139-1.938 0-3.128-1.479-3.213-3.264h6.868v-.238c0-2.363-1.377-4.352-3.876-4.352-2.278 0-3.961 1.921-3.961 4.301 0 2.533 1.717 4.318 4.114 4.318zm2.822-4.726h-5.967c.068-1.428 1.037-3.128 2.975-3.128 2.057 0 2.975 1.734 2.992 3.128zm8.027-4.981c.374 0 .68-.306.68-.68a.668.668 0 00-.68-.663c-.357 0-.68.289-.68.663 0 .374.323.68.68.68zm.442 9.503v-8.211h-.884V159h.884zm5.199.204c2.057 0 3.077-1.088 3.077-2.414 0-3.162-5.185-1.904-5.185-3.961 0-.85.782-1.496 2.057-1.496 1.088 0 1.972.442 2.448 1.088l.493-.629c-.595-.663-1.53-1.207-2.941-1.207-1.853 0-2.924 1.02-2.924 2.278 0 2.941 5.185 1.683 5.185 3.927 0 .952-.816 1.666-2.193 1.666-1.156 0-2.125-.544-2.652-1.207l-.527.663c.816.901 1.836 1.292 3.162 1.292zm15.858-.204v-5.78c0-1.836-1.326-2.635-2.992-2.635-1.36 0-2.312.459-3.162 1.377l.493.612c.748-.85 1.547-1.207 2.567-1.207 1.224 0 2.21.663 2.21 1.887v1.666c-.714-.799-1.649-1.173-2.788-1.173-1.428 0-2.873.935-2.873 2.72 0 1.768 1.462 2.737 2.873 2.737 1.139 0 2.057-.374 2.788-1.173V159h.884zm-3.366-.493c-1.36 0-2.244-.867-2.244-2.023 0-1.173.884-2.04 2.244-2.04.986 0 1.904.391 2.482 1.139v1.802c-.578.748-1.496 1.122-2.482 1.122zm7.012-1.564v-4.063c.476-.782 1.564-1.496 2.703-1.496 1.836 0 2.873 1.53 2.873 3.519s-1.037 3.502-2.873 3.502c-1.139 0-2.227-.68-2.703-1.462zm0 2.057v-1.309a3.498 3.498 0 002.856 1.513c2.176 0 3.672-1.666 3.672-4.301 0-2.601-1.479-4.318-3.672-4.318-1.156 0-2.193.595-2.856 1.53v-4.454h-.884V159h.884zm12.296.204c2.431 0 3.961-1.921 3.961-4.318 0-2.397-1.53-4.301-3.961-4.301-2.397 0-3.944 1.904-3.944 4.301 0 2.397 1.547 4.318 3.944 4.318zm0-.799c-1.904 0-2.992-1.683-2.992-3.519 0-1.819 1.088-3.502 2.992-3.502 1.938 0 3.009 1.683 3.009 3.502 0 1.836-1.071 3.519-3.009 3.519zm9.457.595l3.468-8.211h-1.003l-2.958 7.174-2.992-7.174h-.986l3.468 8.211h1.003zm8.609.204c1.36 0 2.397-.476 3.213-1.326l-.459-.578c-.697.748-1.649 1.139-2.686 1.139-1.938 0-3.128-1.479-3.213-3.264h6.868v-.238c0-2.363-1.377-4.352-3.876-4.352-2.278 0-3.961 1.921-3.961 4.301 0 2.533 1.717 4.318 4.114 4.318zm2.822-4.726h-5.967c.068-1.428 1.037-3.128 2.975-3.128 2.057 0 2.975 1.734 2.992 3.128zM431.087 159v-5.746c0-1.853-.918-2.669-2.584-2.669-1.19 0-2.363.731-2.958 1.445v-1.241h-.884V159h.884v-6.205c.527-.748 1.615-1.411 2.669-1.411 1.19 0 1.989.476 1.989 2.057V159h.884zm6.223.204c2.431 0 3.961-1.921 3.961-4.318 0-2.397-1.53-4.301-3.961-4.301-2.397 0-3.944 1.904-3.944 4.301 0 2.397 1.547 4.318 3.944 4.318zm0-.799c-1.904 0-2.992-1.683-2.992-3.519 0-1.819 1.088-3.502 2.992-3.502 1.938 0 3.009 1.683 3.009 3.502 0 1.836-1.071 3.519-3.009 3.519zm7.128.595v-5.984c.374-.714 1.496-1.462 2.329-1.462.17 0 .289 0 .442.034v-.969c-1.139 0-2.074.663-2.771 1.581v-1.411h-.884V159h.884zm15.17 0v-5.916c0-1.649-.731-2.499-2.244-2.499-1.156 0-2.261.782-2.72 1.547-.204-.799-.884-1.547-2.159-1.547-1.19 0-2.312.918-2.652 1.445v-1.241h-.884V159h.884v-6.205c.493-.748 1.479-1.411 2.346-1.411 1.173 0 1.649.714 1.649 1.87V159h.901v-6.222c.459-.748 1.462-1.394 2.346-1.394 1.156 0 1.649.714 1.649 1.87V159h.884zm8.858 0v-5.78c0-1.836-1.326-2.635-2.992-2.635-1.36 0-2.312.459-3.162 1.377l.493.612c.748-.85 1.547-1.207 2.567-1.207 1.224 0 2.21.663 2.21 1.887v1.666c-.714-.799-1.649-1.173-2.788-1.173-1.428 0-2.873.935-2.873 2.72 0 1.768 1.462 2.737 2.873 2.737 1.139 0 2.057-.374 2.788-1.173V159h.884zm-3.366-.493c-1.36 0-2.244-.867-2.244-2.023 0-1.173.884-2.04 2.244-2.04.986 0 1.904.391 2.482 1.139v1.802c-.578.748-1.496 1.122-2.482 1.122zm7.013.493v-11.339h-.884V159h.884zm2.139.34l4.029-12.019h-.765l-4.029 12.019h.765zm16.052-.34v-11.339h-1.462l-3.842 9.35-3.859-9.35h-1.445V159h.969v-10.013L484.813 159h.374l4.131-10.013V159h.986zm8.892 0v-5.78c0-1.836-1.326-2.635-2.992-2.635-1.36 0-2.312.459-3.162 1.377l.493.612c.748-.85 1.547-1.207 2.567-1.207 1.224 0 2.21.663 2.21 1.887v1.666c-.714-.799-1.649-1.173-2.788-1.173-1.428 0-2.873.935-2.873 2.72 0 1.768 1.462 2.737 2.873 2.737 1.139 0 2.057-.374 2.788-1.173V159h.884zm-3.366-.493c-1.36 0-2.244-.867-2.244-2.023 0-1.173.884-2.04 2.244-2.04.986 0 1.904.391 2.482 1.139v1.802c-.578.748-1.496 1.122-2.482 1.122zm13.013.493l-3.808-4.505 3.825-3.706h-1.173l-4.845 4.692v-7.82h-.884V159h.884v-2.465l1.53-1.445 3.281 3.91h1.19zm5.319.204c1.36 0 2.397-.476 3.213-1.326l-.459-.578c-.697.748-1.649 1.139-2.686 1.139-1.938 0-3.128-1.479-3.213-3.264h6.868v-.238c0-2.363-1.377-4.352-3.876-4.352-2.278 0-3.961 1.921-3.961 4.301 0 2.533 1.717 4.318 4.114 4.318zm2.822-4.726h-5.967c.068-1.428 1.037-3.128 2.975-3.128 2.057 0 2.975 1.734 2.992 3.128zM530.672 159v-5.78c0-1.836-1.326-2.635-2.992-2.635-1.36 0-2.312.459-3.162 1.377l.493.612c.748-.85 1.547-1.207 2.567-1.207 1.224 0 2.21.663 2.21 1.887v1.666c-.714-.799-1.649-1.173-2.788-1.173-1.428 0-2.873.935-2.873 2.72 0 1.768 1.462 2.737 2.873 2.737 1.139 0 2.057-.374 2.788-1.173V159h.884zm-3.366-.493c-1.36 0-2.244-.867-2.244-2.023 0-1.173.884-2.04 2.244-2.04.986 0 1.904.391 2.482 1.139v1.802c-.578.748-1.496 1.122-2.482 1.122zm12.976.697c2.057 0 3.077-1.088 3.077-2.414 0-3.162-5.185-1.904-5.185-3.961 0-.85.782-1.496 2.057-1.496 1.088 0 1.972.442 2.448 1.088l.493-.629c-.595-.663-1.53-1.207-2.941-1.207-1.853 0-2.924 1.02-2.924 2.278 0 2.941 5.185 1.683 5.185 3.927 0 .952-.816 1.666-2.193 1.666-1.156 0-2.125-.544-2.652-1.207l-.527.663c.816.901 1.836 1.292 3.162 1.292zm7.14 0c.68 0 1.071-.204 1.394-.51l-.34-.68a1.283 1.283 0 01-.918.391c-.578 0-.85-.459-.85-1.122v-5.712h1.666v-.782h-1.666v-2.244h-.901v2.244h-1.36v.782h1.36v5.848c0 1.122.527 1.785 1.615 1.785zm6.364 0c2.431 0 3.961-1.921 3.961-4.318 0-2.397-1.53-4.301-3.961-4.301-2.397 0-3.944 1.904-3.944 4.301 0 2.397 1.547 4.318 3.944 4.318zm0-.799c-1.904 0-2.992-1.683-2.992-3.519 0-1.819 1.088-3.502 2.992-3.502 1.938 0 3.009 1.683 3.009 3.502 0 1.836-1.071 3.519-3.009 3.519zm9.984.799c2.193 0 3.672-1.7 3.672-4.318 0-2.635-1.479-4.301-3.672-4.301a3.528 3.528 0 00-2.856 1.496v-1.292h-.884v11.339h.884v-4.454c.663.935 1.7 1.53 2.856 1.53zm-.153-.799c-1.139 0-2.227-.714-2.703-1.496v-4.063c.476-.782 1.564-1.462 2.703-1.462 1.836 0 2.873 1.513 2.873 3.502 0 1.989-1.037 3.519-2.873 3.519z" fill="#000"/></svg>