<svg width="740" height="233" fill="none" xmlns="http://www.w3.org/2000/svg"><g clip-path="url(#clip0)"><g filter="url(#filter0_ddd)"><path d="M17.62 10h702.76a7.62 7.62 0 017.62 7.62v199.76a7.629 7.629 0 01-7.63 7.63H17.62a7.612 7.612 0 01-5.392-2.235A7.622 7.622 0 0110 217.38V17.63A7.619 7.619 0 0117.62 10z" fill="#fff"/></g><path d="M55.43 148.34v-14h4.79a6.999 6.999 0 014.95 11.95 7.003 7.003 0 01-4.95 2.05h-4.79zm10.16-7a5.122 5.122 0 00-5.37-5.46h-3v10.89h3a5.15 5.15 0 003.889-1.517 5.142 5.142 0 001.48-3.903v-.01zM69.79 135.7a1.062 1.062 0 011.81-.75 1.062 1.062 0 01-.75 1.81 1.06 1.06 0 01-1.06-1.06zm.28 12.64V138.2h1.57v10.14h-1.57zM81.13 148.34v-1.16a4.37 4.37 0 01-3.36 1.41 3.385 3.385 0 01-3.272-2.032 3.385 3.385 0 01-.011-2.66 3.324 3.324 0 013.283-2.008 4.218 4.218 0 013.36 1.39v-1.83c0-1.36-1.09-2.14-2.56-2.14a4.045 4.045 0 00-3.11 1.4l-.73-1.09a5.3 5.3 0 014-1.68c2.14 0 3.93 1 3.93 3.43v7l-1.53-.03zm0-2.14v-1.91a3.397 3.397 0 00-2.79-1.29 2.231 2.231 0 00-2.293 3.128 2.24 2.24 0 001.364 1.214c.3.094.616.124.929.088a3.399 3.399 0 002.79-1.23zM85.84 150.939l.79-1.18a3.88 3.88 0 003.3 1.39c1.68 0 3.26-.82 3.26-3v-1.45a4.238 4.238 0 01-1.49 1.309 4.235 4.235 0 01-1.92.491c-2.64 0-4.51-2-4.51-5.25s1.85-5.27 4.51-5.27a4.231 4.231 0 013.41 1.791v-1.571h1.57v9.8c0 3.36-2.35 4.411-4.83 4.411a5.163 5.163 0 01-4.09-1.471zm7.35-5.52v-4.42a3.757 3.757 0 00-3-1.64c-2 0-3.25 1.62-3.25 3.86 0 2.24 1.22 3.87 3.25 3.87a3.773 3.773 0 003-1.67zM104.759 148.339v-6.64c0-1.78-.91-2.35-2.27-2.35a3.91 3.91 0 00-3 1.58v7.41h-1.58v-10.14h1.58v1.47a5.011 5.011 0 013.61-1.73c2.12 0 3.23 1.07 3.23 3.28v7.12h-1.57zM108.889 143.259a5.006 5.006 0 013.01-4.911 5.006 5.006 0 011.99-.409c3.09 0 5 2.38 5 5.32 0 2.94-1.93 5.33-5 5.33-3.07 0-5-2.39-5-5.33zm8.38 0c0-2.06-1.19-3.91-3.36-3.91s-3.38 1.85-3.38 3.91 1.22 3.92 3.38 3.92 3.36-1.85 3.36-3.92zM120.609 147l.82-1.13a4.583 4.583 0 003.34 1.45c1.55 0 2.39-.74 2.39-1.74 0-2.46-6.27-.95-6.27-4.71 0-1.57 1.36-2.92 3.77-2.92a5.106 5.106 0 012.031.349 5.1 5.1 0 011.729 1.121l-.73 1.1a3.92 3.92 0 00-1.36-.97 3.928 3.928 0 00-1.64-.32c-1.38 0-2.24.7-2.24 1.6 0 2.23 6.28.76 6.28 4.7 0 1.7-1.37 3.07-4 3.07a5.41 5.41 0 01-4.12-1.6zM130.999 135.699a1.065 1.065 0 01.663-.991 1.063 1.063 0 011.165.252 1.065 1.065 0 01.194 1.176 1.062 1.062 0 01-1.022.613 1.006 1.006 0 01-.725-.31.998.998 0 01-.275-.74zm.27 12.64v-10.14h1.57v10.14h-1.57zM135.1 147l.82-1.13a4.579 4.579 0 003.34 1.45c1.55 0 2.39-.74 2.39-1.74 0-2.46-6.27-.95-6.27-4.71 0-1.57 1.36-2.92 3.77-2.92a5.112 5.112 0 013.76 1.47l-.73 1.1a3.939 3.939 0 00-3-1.29c-1.38 0-2.24.7-2.24 1.6 0 2.23 6.28.76 6.28 4.7 0 1.7-1.37 3.07-4 3.07a5.412 5.412 0 01-4.12-1.6zM157.51 148.34v-1.16a4.381 4.381 0 01-3.36 1.41 3.38 3.38 0 01-3.283-4.692 3.315 3.315 0 013.283-2.008 4.242 4.242 0 013.36 1.39v-1.83c0-1.36-1.09-2.14-2.56-2.14a4.006 4.006 0 00-3.11 1.4l-.74-1.09a5.356 5.356 0 014.06-1.68c2.14 0 3.92 1 3.92 3.43v7l-1.57-.03zm0-2.14v-1.91a3.4 3.4 0 00-2.79-1.26 2.235 2.235 0 00-2.488 2.215 2.226 2.226 0 001.558 2.127c.301.094.617.124.93.088a3.396 3.396 0 002.79-1.26zM169.079 148.339v-6.64c0-1.78-.9-2.35-2.27-2.35a3.931 3.931 0 00-1.68.448c-.519.274-.97.661-1.32 1.132v7.41h-1.58v-10.14h1.58v1.47a5.025 5.025 0 011.625-1.242 5.024 5.024 0 011.985-.488c2.12 0 3.23 1.07 3.23 3.28v7.12h-1.57zM181.15 148.34v-1.51a4.272 4.272 0 01-3.42 1.76c-2.64 0-4.51-2-4.51-5.31 0-3.31 1.84-5.34 4.51-5.34a4.246 4.246 0 013.42 1.79v-5.4h1.58v14l-1.58.01zm0-2.75V141a3.789 3.789 0 00-3-1.64c-2 0-3.26 1.68-3.26 3.93s1.22 3.9 3.26 3.9a3.742 3.742 0 003-1.6zM43 173.34v-1.51a4.31 4.31 0 01-3.43 1.76c-2.64 0-4.51-2-4.51-5.31 0-3.31 1.85-5.34 4.51-5.34a4.268 4.268 0 013.43 1.79v-5.4h1.57v14l-1.57.01zm0-2.75V166a3.827 3.827 0 00-3.05-1.64c-2 0-3.25 1.68-3.25 3.93s1.22 3.9 3.25 3.9a3.792 3.792 0 003.05-1.6zM47.44 160.7a1.061 1.061 0 011.809-.75 1.063 1.063 0 01.31.75 1.06 1.06 0 01-2.12 0zm.27 12.64V163.2h1.58v10.14h-1.58zM51.56 172l.81-1.13a4.612 4.612 0 003.34 1.45c1.56 0 2.4-.74 2.4-1.74 0-2.46-6.28-.95-6.28-4.71 0-1.57 1.36-2.92 3.78-2.92a5.123 5.123 0 013.76 1.47l-.74 1.1a3.948 3.948 0 00-3-1.29c-1.39 0-2.25.7-2.25 1.6 0 2.23 6.28.76 6.28 4.7 0 1.7-1.37 3.07-4 3.07a5.383 5.383 0 01-4.1-1.6zM61.61 168.259a5.079 5.079 0 015-5.32c3.07 0 4.87 2.4 4.87 5.44v.4h-8.21a3.586 3.586 0 001.1 2.515 3.587 3.587 0 002.56.995 4.435 4.435 0 003.13-1.29l.75 1a5.528 5.528 0 01-4 1.55 4.995 4.995 0 01-5.2-5.29zm5-4a3.39 3.39 0 00-3.32 3.38h6.66a3.284 3.284 0 00-2.055-3.154 3.297 3.297 0 00-1.306-.236l.02.01zM80.37 173.34v-1.16a4.392 4.392 0 01-3.37 1.41 3.384 3.384 0 01-3.272-2.033 3.376 3.376 0 01-.012-2.66A3.32 3.32 0 0177 166.89a4.246 4.246 0 013.36 1.39v-1.83c0-1.36-1.1-2.14-2.57-2.14a3.997 3.997 0 00-3.1 1.4l-.69-1.09a5.338 5.338 0 014-1.68c2.15 0 3.93 1 3.93 3.43v7l-1.56-.03zm0-2.14v-1.91a3.4 3.4 0 00-2.8-1.26 2.215 2.215 0 00-1.742.549 2.23 2.23 0 001.741 3.881 3.403 3.403 0 002.8-1.26zM84.21 171.999l.82-1.13a4.58 4.58 0 003.34 1.45c1.55 0 2.39-.74 2.39-1.74 0-2.46-6.28-.95-6.28-4.71 0-1.57 1.37-2.92 3.78-2.92a5.138 5.138 0 013.74 1.46l-.73 1.1a4.01 4.01 0 00-3-1.29c-1.38 0-2.24.7-2.24 1.6 0 2.23 6.27.76 6.27 4.7 0 1.7-1.36 3.07-4 3.07a5.397 5.397 0 01-4.09-1.59zM94.27 168.259a5.08 5.08 0 015-5.32c3.06 0 4.87 2.4 4.87 5.44v.4h-8.21a3.574 3.574 0 002.273 3.268 3.56 3.56 0 001.377.242 4.428 4.428 0 003.13-1.28l.76 1a5.557 5.557 0 01-4 1.55 4.993 4.993 0 01-4.893-3.246 4.998 4.998 0 01-.307-2.054zm5-4a3.373 3.373 0 00-3.32 3.38h6.65a3.26 3.26 0 00-.942-2.419 3.267 3.267 0 00-2.408-.971l.02.01zM113.67 171.799v5.4h-1.57v-14h1.57v1.51a4.254 4.254 0 013.43-1.77c2.66 0 4.51 2 4.51 5.32 0 3.32-1.85 5.33-4.51 5.33a4.145 4.145 0 01-3.43-1.79zm6.28-3.54c0-2.25-1.22-3.91-3.25-3.91a3.77 3.77 0 00-3 1.62v4.57a3.754 3.754 0 003 1.64c2.03 0 3.3-1.68 3.3-3.92h-.05zM124.109 173.339v-10.14h1.57v1.63a4.317 4.317 0 013.38-1.84v1.61a2.798 2.798 0 00-.62-.06 3.746 3.746 0 00-2.76 1.62v7.18h-1.57zM130.45 168.259a5.062 5.062 0 011.372-3.719 5.093 5.093 0 013.628-1.601c3.06 0 4.87 2.4 4.87 5.44v.4h-8.21a3.576 3.576 0 003.65 3.51 4.43 4.43 0 003.13-1.28l.76 1a5.534 5.534 0 01-4 1.55 4.993 4.993 0 01-4.893-3.246 4.99 4.99 0 01-.307-2.054zm5-4a3.381 3.381 0 00-3.32 3.38h6.66a3.272 3.272 0 00-.949-2.42 3.288 3.288 0 00-2.411-.97l.02.01zM145.57 173.339l-4.22-10.14h1.7l3.38 8.31 3.36-8.31h1.72l-4.22 10.14h-1.72zM152.559 168.259a5.081 5.081 0 015-5.32c3.07 0 4.87 2.4 4.87 5.44v.4h-8.21a3.582 3.582 0 003.66 3.51 4.404 4.404 0 003.12-1.29l.76 1a5.53 5.53 0 01-4 1.55 4.996 4.996 0 01-5.2-5.29zm5-4a3.395 3.395 0 00-3.32 3.38h6.66a3.271 3.271 0 00-.948-2.42 3.292 3.292 0 00-2.412-.97l.02.01zM171.82 173.339v-6.64c0-1.78-.9-2.35-2.27-2.35a3.924 3.924 0 00-3 1.58v7.41H165v-10.14h1.58v1.47a5.01 5.01 0 013.61-1.73c2.12 0 3.23 1.07 3.23 3.28v7.12h-1.6zM176.86 171.22v-6.64h-1.68v-1.38h1.68v-2.78h1.58v2.78h2.05v1.38h-2.05v6.3c0 .76.33 1.3 1 1.3a1.52 1.52 0 001.07-.42l.47 1.18a2.563 2.563 0 01-1.89.65 2.077 2.077 0 01-2.23-2.37zM182.45 160.7a1.057 1.057 0 011.264-1.05 1.056 1.056 0 01.836.836 1.06 1.06 0 01-1.05 1.264c-.14.007-.28-.015-.411-.065a1.018 1.018 0 01-.574-.575.99.99 0 01-.065-.41zm.27 12.64V163.2h1.57v10.14h-1.57zM186.859 168.259c0-2.94 1.93-5.32 5-5.32 3.07 0 5 2.38 5 5.32 0 2.94-1.93 5.33-5 5.33-3.07 0-5-2.39-5-5.33zm8.37 0c0-2.06-1.19-3.91-3.36-3.91s-3.38 1.85-3.38 3.91 1.22 3.92 3.38 3.92 3.36-1.85 3.36-3.92zM206.3 173.339v-6.64c0-1.78-.9-2.35-2.27-2.35a3.924 3.924 0 00-3 1.58v7.41h-1.57v-10.14H201v1.47a5.01 5.01 0 013.61-1.73c2.12 0 3.24 1.07 3.24 3.28v7.12h-1.55zM248.31 148.34v-14h5.63a4.219 4.219 0 110 8.44h-3.89v5.57l-1.74-.01zm8.21-9.79a2.604 2.604 0 00-2.79-2.66h-3.68v5.33h3.68a2.597 2.597 0 002.79-2.67zM260 143.259a5.062 5.062 0 011.372-3.719 5.093 5.093 0 013.628-1.601c3.07 0 4.87 2.4 4.87 5.44v.4h-8.21a3.584 3.584 0 002.281 3.268 3.57 3.57 0 001.379.242 4.44 4.44 0 003.13-1.28l.75 1a5.544 5.544 0 01-4 1.55 4.993 4.993 0 01-4.894-3.246 4.989 4.989 0 01-.306-2.054zm5-4a3.39 3.39 0 00-3.32 3.38h6.66a3.278 3.278 0 00-3.34-3.39v.01zM272.399 148.339v-10.14h1.6v1.63a4.317 4.317 0 013.38-1.84v1.61a2.957 2.957 0 00-.63-.06 3.725 3.725 0 00-2.75 1.62v7.18h-1.6zM278.439 147l.82-1.13a4.616 4.616 0 003.34 1.45c1.56 0 2.4-.74 2.4-1.74 0-2.46-6.28-.95-6.28-4.71 0-1.57 1.36-2.92 3.78-2.92a5.093 5.093 0 013.75 1.47l-.73 1.1a3.92 3.92 0 00-1.36-.97 3.928 3.928 0 00-1.64-.32c-1.39 0-2.25.7-2.25 1.6 0 2.23 6.28.76 6.28 4.7 0 1.7-1.37 3.07-4 3.07a5.418 5.418 0 01-4.11-1.6zM288.5 143.259a5.002 5.002 0 013.009-4.911 5.011 5.011 0 011.991-.409c3.09 0 5 2.38 5 5.32 0 2.94-1.93 5.33-5 5.33-3.07 0-5-2.39-5-5.33zm8.38 0c0-2.06-1.201-3.91-3.361-3.91s-3.379 1.85-3.379 3.91 1.219 3.92 3.379 3.92 3.361-1.85 3.361-3.92zM308 148.339v-6.64c0-1.78-.91-2.35-2.27-2.35a3.919 3.919 0 00-3 1.58v7.41h-1.63v-10.14h1.58v1.47a5.01 5.01 0 013.61-1.73c2.12 0 3.23 1.07 3.23 3.28v7.12H308zM319 148.339v-1.16a4.348 4.348 0 01-3.35 1.41 3.377 3.377 0 01-3.283-4.692 3.33 3.33 0 013.283-2.008 4.213 4.213 0 013.35 1.39v-1.83c0-1.36-1.09-2.14-2.56-2.14a4.002 4.002 0 00-3.1 1.4l-.74-1.09a5.3 5.3 0 014.05-1.68c2.14 0 3.93 1 3.93 3.43v7l-1.58-.03zm0-2.14v-1.91a3.386 3.386 0 00-2.79-1.26 2.236 2.236 0 00-2.293 1.303 2.226 2.226 0 001.363 3.039c.301.095.617.125.93.088a3.373 3.373 0 002.79-1.26zM323.739 148.34v-14h1.58v14h-1.58zM328.189 135.7a1.061 1.061 0 011.81-.75 1.06 1.06 0 11-1.81.75zm.28 12.64V138.2h1.53v10.14h-1.53zM332.71 148.339v-1.22l5.58-7.54h-5.58v-1.38h7.64v1.19l-5.63 7.61h5.71v1.37l-7.72-.03zM342.51 143.259a5.08 5.08 0 015-5.32c3.07 0 4.87 2.4 4.87 5.44v.4h-8.21a3.584 3.584 0 002.281 3.268 3.57 3.57 0 001.379.242 4.392 4.392 0 003.17-1.29l.76 1a5.524 5.524 0 01-4 1.55 4.99 4.99 0 01-3.808-1.471 5.005 5.005 0 01-1.442-3.819zm5-4a3.39 3.39 0 00-3.32 3.38h6.66a3.272 3.272 0 00-.949-2.42 3.288 3.288 0 00-2.411-.97l.02.01zM362.27 148.34v-1.51a4.272 4.272 0 01-3.42 1.76c-2.64 0-4.51-2-4.51-5.31 0-3.31 1.84-5.34 4.51-5.34a4.246 4.246 0 013.42 1.79v-5.4h1.58v14l-1.58.01zm0-2.75V141a3.789 3.789 0 00-3-1.64c-2 0-3.26 1.68-3.26 3.93s1.22 3.9 3.26 3.9a3.746 3.746 0 003-1.6zM289.639 168.259a5.007 5.007 0 011.367-3.766 4.983 4.983 0 011.684-1.163c.636-.267 1.32-.4 2.009-.391a4.316 4.316 0 013.71 1.77l-1.05 1a2.998 2.998 0 00-2.58-1.32c-2.16 0-3.5 1.66-3.5 3.91s1.34 3.92 3.5 3.92a3.049 3.049 0 002.58-1.32l1.05 1a4.328 4.328 0 01-3.71 1.76 4.992 4.992 0 01-3.724-1.58 4.998 4.998 0 01-1.336-3.82zM307 173.339v-1.16a4.348 4.348 0 01-3.36 1.41 3.366 3.366 0 01-2.493-.921 3.386 3.386 0 01-1.057-2.439 3.316 3.316 0 011.045-2.446 3.33 3.33 0 012.505-.894 4.217 4.217 0 013.36 1.39v-1.83c0-1.36-1.09-2.14-2.56-2.14a4.05 4.05 0 00-3.11 1.4l-.73-1.09a5.3 5.3 0 014.05-1.68c2.14 0 3.93 1 3.93 3.43v7l-1.58-.03zm0-2.14v-1.91a3.398 3.398 0 00-2.79-1.26 2.23 2.23 0 100 4.43 3.396 3.396 0 002.79-1.26zM311.689 173.339v-10.14h1.57v1.63a4.317 4.317 0 013.38-1.84v1.61a2.957 2.957 0 00-.63-.06 3.725 3.725 0 00-2.75 1.62v7.18h-1.57zM318 168.259a5.062 5.062 0 011.372-3.719 5.093 5.093 0 013.628-1.601c3.06 0 4.87 2.4 4.87 5.44v.4h-8.21a3.557 3.557 0 001.094 2.515 3.581 3.581 0 002.556.995 4.432 4.432 0 003.13-1.28l.76 1a5.55 5.55 0 01-4 1.55 4.993 4.993 0 01-4.894-3.246 4.989 4.989 0 01-.306-2.054zm5-4a3.368 3.368 0 00-3.32 3.38h6.649a3.28 3.28 0 00-3.329-3.39v.01zM410.739 141.35c0-4.14 2.8-7.25 6.95-7.25s6.95 3.11 6.95 7.25c0 4.14-2.81 7.24-6.95 7.24-4.14 0-6.95-3.11-6.95-7.24zm12.1 0c0-3.28-2-5.69-5.15-5.69-3.15 0-5.14 2.41-5.14 5.69 0 3.28 2 5.69 5.14 5.69 3.14 0 5.15-2.44 5.15-5.69zM428.89 146.799v5.4h-1.58v-14h1.58v1.51a4.226 4.226 0 013.42-1.77c2.67 0 4.51 2 4.51 5.32 0 3.32-1.84 5.33-4.51 5.33a4.139 4.139 0 01-3.42-1.79zm6.28-3.54c0-2.25-1.22-3.91-3.26-3.91a3.74 3.74 0 00-3 1.62v4.57a3.723 3.723 0 003 1.64c2.09 0 3.26-1.68 3.26-3.92zM438.74 143.259a5.062 5.062 0 011.372-3.719 5.093 5.093 0 013.628-1.601c3.07 0 4.88 2.4 4.88 5.44v.4h-8.22a3.575 3.575 0 001.095 2.515 3.567 3.567 0 002.555.995 4.44 4.44 0 003.13-1.28l.75 1a5.513 5.513 0 01-4 1.55 4.998 4.998 0 01-5.19-5.3zm5-4a3.373 3.373 0 00-3.31 3.38h6.65a3.272 3.272 0 00-2.061-3.157 3.295 3.295 0 00-1.309-.233l.03.01zM451.149 148.34V138.2h1.57v1.63a4.324 4.324 0 011.475-1.313 4.323 4.323 0 011.905-.517v1.61a2.894 2.894 0 00-.63-.06 3.725 3.725 0 00-2.75 1.62v7.18l-1.57-.01zM464.42 148.34v-1.16a4.381 4.381 0 01-3.36 1.41 3.384 3.384 0 01-3.272-2.032 3.388 3.388 0 01-.011-2.66 3.315 3.315 0 013.283-2.008 4.234 4.234 0 013.36 1.39v-1.83c0-1.36-1.09-2.14-2.56-2.14a4.006 4.006 0 00-3.11 1.4l-.74-1.09a5.353 5.353 0 014.06-1.68c2.14 0 3.92 1 3.92 3.43v7l-1.57-.03zm0-2.14v-1.91a3.4 3.4 0 00-2.79-1.26 2.24 2.24 0 00-2.293 1.302 2.226 2.226 0 000 1.826 2.242 2.242 0 001.364 1.214c.3.094.616.124.929.088a3.396 3.396 0 002.79-1.26zM469.459 146.22v-6.64h-1.68v-1.38h1.68v-2.78h1.54v2.78h2.06v1.38h-2.06v6.3c0 .76.34 1.3 1 1.3a1.52 1.52 0 001.07-.42l.47 1.18a2.571 2.571 0 01-1.89.65 2.077 2.077 0 01-1.663-.66 2.07 2.07 0 01-.527-1.71zM474.999 135.7a1.074 1.074 0 011.065-1.174 1.075 1.075 0 011.016.734 1.073 1.073 0 01-1.016 1.406 1.072 1.072 0 01-1.065-.966zm.28 12.64V138.2h1.57v10.14h-1.57zM479.46 143.259c0-2.94 1.93-5.32 5-5.32 3.07 0 5 2.38 5 5.32 0 2.94-1.93 5.33-5 5.33-3.07 0-5-2.39-5-5.33zm8.37 0c0-2.06-1.2-3.91-3.36-3.91s-3.38 1.85-3.38 3.91 1.22 3.92 3.38 3.92 3.36-1.85 3.36-3.92zM498.9 148.339v-6.64c0-1.78-.9-2.35-2.27-2.35a3.924 3.924 0 00-3 1.58v7.41h-1.58v-10.14h1.58v1.47a5.01 5.01 0 013.61-1.73c2.12 0 3.23 1.07 3.23 3.28v7.12h-1.57zM510 148.34v-1.16a4.387 4.387 0 01-3.36 1.41 3.384 3.384 0 01-3.272-2.032 3.388 3.388 0 01-.011-2.66 3.317 3.317 0 013.283-2.008 4.236 4.236 0 013.36 1.39v-1.83c0-1.36-1.1-2.14-2.57-2.14a3.996 3.996 0 00-3.1 1.4l-.74-1.09a5.337 5.337 0 014.05-1.68c2.15 0 3.93 1 3.93 3.43v7l-1.57-.03zm0-2.14v-1.91a3.395 3.395 0 00-2.8-1.26 2.24 2.24 0 00-2.293 1.302 2.226 2.226 0 000 1.826 2.242 2.242 0 001.364 1.214c.3.094.616.124.929.088a3.4 3.4 0 002.8-1.26zM514.689 148.34v-14h1.58v14h-1.58zM420.919 168.259a5.081 5.081 0 015-5.32c3.06 0 4.87 2.4 4.87 5.44v.4h-8.21a3.576 3.576 0 002.273 3.268c.439.171.907.253 1.377.242a4.437 4.437 0 003.13-1.28l.76 1a5.537 5.537 0 01-4 1.55 4.99 4.99 0 01-3.778-1.493 5.008 5.008 0 01-1.422-3.807zm5-4a3.371 3.371 0 00-3.31 3.38h6.65a3.261 3.261 0 00-.225-1.31 3.28 3.28 0 00-3.145-2.08l.03.01zM433.77 173.34v-8.76h-1.68v-1.38h1.68v-.78c0-2.08 1.13-3.3 2.94-3.3a2.934 2.934 0 012.14.78l-.65 1a1.85 1.85 0 00-1.26-.51c-1 0-1.6.72-1.6 2v.78h2.06v1.38h-2.06v8.76l-1.57.03zm5.94 0v-8.76H438v-1.38h1.68v-.78c0-2.1 1.18-3.3 2.94-3.3a2.888 2.888 0 011.53.36l-.39 1.2a1.607 1.607 0 00-.91-.26c-1 0-1.59.72-1.59 2v.78h2v1.38h-2v8.76h-1.55zM445 160.7a1.06 1.06 0 112.118 0 1.06 1.06 0 01-2.118 0zm.27 12.64V163.2h1.58v10.14h-1.58zM449.37 168.26a4.989 4.989 0 011.366-3.767 5.008 5.008 0 013.694-1.553 4.338 4.338 0 012.082.417c.65.308 1.212.773 1.638 1.353l-1 1a2.997 2.997 0 00-2.58-1.32c-2.17 0-3.51 1.66-3.51 3.91s1.34 3.92 3.51 3.92a3.068 3.068 0 002.58-1.32l1 1a4.373 4.373 0 01-3.72 1.76 4.989 4.989 0 01-4.796-3.349 5 5 0 01-.264-2.051zM460.079 160.7a1.061 1.061 0 011.81-.75 1.065 1.065 0 010 1.499 1.061 1.061 0 01-1.81-.749zm.28 12.64V163.2h1.57v10.14h-1.57zM464.49 168.259a5.062 5.062 0 011.372-3.719 5.093 5.093 0 013.628-1.601c3.06 0 4.87 2.4 4.87 5.44v.4h-8.21a3.583 3.583 0 002.274 3.265c.438.171.906.255 1.376.245a4.43 4.43 0 003.13-1.28l.76 1a5.524 5.524 0 01-4 1.55 4.993 4.993 0 01-4.893-3.246 4.99 4.99 0 01-.307-2.054zm5-4a3.39 3.39 0 00-3.32 3.38h6.66a3.272 3.272 0 00-.949-2.42 3.288 3.288 0 00-2.411-.97l.02.01zM483.749 173.339v-6.64c0-1.78-.9-2.35-2.27-2.35a3.931 3.931 0 00-1.68.448c-.519.274-.97.661-1.32 1.132v7.41h-1.58v-10.14h1.58v1.47a5.025 5.025 0 011.625-1.242 5.024 5.024 0 011.985-.488c2.12 0 3.23 1.07 3.23 3.28v7.12h-1.57zM487.889 168.26a5.007 5.007 0 011.367-3.767 4.994 4.994 0 013.693-1.553 4.326 4.326 0 013.71 1.77l-1.05 1a2.995 2.995 0 00-2.58-1.32c-2.16 0-3.51 1.66-3.51 3.91s1.35 3.92 3.51 3.92a3.065 3.065 0 002.58-1.32l1.05 1a4.354 4.354 0 01-3.71 1.76 5.01 5.01 0 01-3.724-1.581 4.994 4.994 0 01-1.336-3.819zM498.549 175.879c.279.103.573.157.87.16a1.46 1.46 0 001.51-1.07l.67-1.53-4.24-10.24h1.7l3.38 8.31 3.36-8.31h1.72l-5.08 12.19a2.997 2.997 0 01-3 2.06 4.837 4.837 0 01-1.16-.15l.27-1.42zM595.169 148.34v-11.53l-4.77 11.53h-.71l-4.75-11.53v11.53h-1.74v-14h2.5l4.3 10.53 4.37-10.54h2.5v14l-1.7.01zM599.54 143.259a5.072 5.072 0 013.024-4.888 5.078 5.078 0 011.976-.432c3.06 0 4.87 2.4 4.87 5.44v.4h-8.21c.008.471.109.935.296 1.367a3.577 3.577 0 003.354 2.143 4.419 4.419 0 001.703-.331 4.422 4.422 0 001.447-.959l.75 1a5.51 5.51 0 01-4 1.55 5 5 0 01-5.21-5.29zm5-4a3.369 3.369 0 00-3.31 3.38h6.65a3.279 3.279 0 00-3.37-3.39l.03.01zM619.299 148.34v-1.51a4.296 4.296 0 01-3.42 1.76c-2.65 0-4.52-2-4.52-5.31 0-3.31 1.85-5.34 4.52-5.34a4.264 4.264 0 013.42 1.79v-5.4h1.57v14l-1.57.01zm0-2.75V141a3.819 3.819 0 00-3-1.64c-2 0-3.25 1.68-3.25 3.93s1.22 3.9 3.25 3.9a3.795 3.795 0 003-1.6zM623.75 135.7a1.06 1.06 0 112.118 0 1.06 1.06 0 01-2.118 0zm.27 12.64V138.2h1.58v10.14h-1.58zM628.16 143.26a4.989 4.989 0 011.366-3.767 5.008 5.008 0 013.694-1.553 4.338 4.338 0 012.082.417c.65.308 1.212.773 1.638 1.353l-1.05 1a3.004 3.004 0 00-2.59-1.32c-2.16 0-3.5 1.66-3.5 3.91s1.34 3.92 3.5 3.92a3.086 3.086 0 002.59-1.32l1.05 1a4.373 4.373 0 01-3.72 1.76 4.998 4.998 0 01-5.06-5.4zM645.479 148.34v-1.16a4.358 4.358 0 01-3.35 1.41 3.386 3.386 0 01-2.493-.921 3.369 3.369 0 01-1.057-2.439 3.313 3.313 0 011.045-2.446 3.315 3.315 0 012.505-.894 4.2 4.2 0 013.35 1.39v-1.83c0-1.36-1.09-2.14-2.56-2.14a3.996 3.996 0 00-3.1 1.4l-.74-1.09a5.306 5.306 0 014-1.68c2.14 0 3.93 1 3.93 3.43v7l-1.53-.03zm0-2.14v-1.91a3.375 3.375 0 00-2.79-1.26 2.231 2.231 0 00-.929 4.342c.3.094.617.124.929.088a3.383 3.383 0 002.79-1.26zM650.53 146.22v-6.64h-1.68v-1.38h1.68v-2.78h1.57v2.78h2.06v1.38h-2.06v6.3c0 .76.34 1.3 1 1.3a1.52 1.52 0 001.07-.42l.46 1.18a2.555 2.555 0 01-1.89.65 2.074 2.074 0 01-1.677-.652 2.063 2.063 0 01-.533-1.718zM656.109 135.7a1.061 1.061 0 011.81-.75 1.06 1.06 0 11-1.81.75zm.27 12.64V138.2h1.62v10.14h-1.62zM660.52 143.259c0-2.94 1.93-5.32 5-5.32 3.07 0 5 2.38 5 5.32 0 2.94-1.93 5.33-5 5.33-3.07 0-5-2.39-5-5.33zm8.38 0c0-2.06-1.201-3.91-3.361-3.91s-3.38 1.85-3.38 3.91 1.22 3.92 3.38 3.92 3.361-1.85 3.361-3.92zM679.999 148.339v-6.64c0-1.78-.9-2.35-2.26-2.35a3.909 3.909 0 00-3 1.58v7.41h-1.58v-10.14h1.58v1.47a5.004 5.004 0 013.61-1.73c2.12 0 3.23 1.07 3.23 3.28v7.12h-1.58zM573.6 173.339v-6.64c0-1.78-.9-2.35-2.27-2.35a3.936 3.936 0 00-3 1.58v7.41h-1.57v-10.14h1.57v1.47a5.01 5.01 0 013.61-1.73c2.12 0 3.24 1.07 3.24 3.28v7.12h-1.58zM577.74 168.259a5.062 5.062 0 011.372-3.719 5.093 5.093 0 013.628-1.601c3.06 0 4.87 2.4 4.87 5.44v.4h-8.21a3.576 3.576 0 003.65 3.51 4.43 4.43 0 003.13-1.28l.76 1a5.553 5.553 0 01-4 1.55 4.993 4.993 0 01-4.893-3.246 4.99 4.99 0 01-.307-2.054zm5-4a3.372 3.372 0 00-3.32 3.38h6.65a3.279 3.279 0 00-.942-2.419 3.271 3.271 0 00-2.408-.971l.02.01zM589.559 168.259a5.081 5.081 0 015-5.32c3.07 0 4.87 2.4 4.87 5.44v.4h-8.21a3.582 3.582 0 003.66 3.51 4.404 4.404 0 003.12-1.29l.76 1a5.53 5.53 0 01-4 1.55 4.996 4.996 0 01-5.2-5.29zm5-4a3.395 3.395 0 00-3.32 3.38h6.66a3.271 3.271 0 00-.948-2.42 3.292 3.292 0 00-2.412-.97l.02.01zM609.32 173.34v-1.51a4.272 4.272 0 01-3.42 1.76c-2.65 0-4.51-2-4.51-5.31 0-3.31 1.84-5.34 4.51-5.34a4.246 4.246 0 013.42 1.79v-5.4h1.58v14l-1.58.01zm0-2.75V166a3.789 3.789 0 00-3-1.64c-2 0-3.26 1.68-3.26 3.93s1.22 3.9 3.26 3.9a3.742 3.742 0 003-1.6zM621 171.799v5.4h-1.57v-14H621v1.51a4.262 4.262 0 013.42-1.77c2.67 0 4.52 2 4.52 5.32 0 3.32-1.85 5.33-4.52 5.33a4.148 4.148 0 01-3.42-1.79zm6.28-3.54c0-2.25-1.22-3.91-3.25-3.91a3.773 3.773 0 00-3 1.62v4.57a3.757 3.757 0 003 1.64c2.07 0 3.29-1.68 3.29-3.92h-.04zM631.479 173.339v-10.14h1.57v1.63a4.317 4.317 0 013.381-1.84v1.61a2.848 2.848 0 00-.631-.06 3.74 3.74 0 00-2.75 1.62v7.18h-1.57zM637.82 168.259a5.08 5.08 0 015-5.32c3.06 0 4.87 2.4 4.87 5.44v.4h-8.21a3.583 3.583 0 002.274 3.265c.438.171.906.255 1.376.245a4.43 4.43 0 003.13-1.28l.76 1a5.553 5.553 0 01-4 1.55 4.996 4.996 0 01-5.2-5.3zm5-4a3.372 3.372 0 00-3.32 3.38h6.65a3.279 3.279 0 00-.942-2.419 3.262 3.262 0 00-2.408-.971l.02.01zM657.58 173.34v-1.51a4.3 4.3 0 01-3.42 1.76c-2.65 0-4.52-2-4.52-5.31 0-3.31 1.85-5.34 4.52-5.34a4.26 4.26 0 013.42 1.79v-5.4h1.57v14l-1.57.01zm0-2.75V166a3.831 3.831 0 00-3-1.64c-2 0-3.26 1.68-3.26 3.93s1.22 3.9 3.26 3.9a3.781 3.781 0 003-1.6zM662 160.7a1.06 1.06 0 112.118 0 1.06 1.06 0 01-2.118 0zm.28 12.64V163.2h1.57v10.14h-1.57zM666.44 168.26a4.993 4.993 0 015.06-5.32 4.341 4.341 0 013.72 1.77l-1.05 1a2.997 2.997 0 00-2.58-1.32c-2.17 0-3.51 1.66-3.51 3.91s1.34 3.92 3.51 3.92a3.065 3.065 0 002.58-1.32l1.05 1a4.373 4.373 0 01-3.72 1.76 5.01 5.01 0 01-3.725-1.581 5.006 5.006 0 01-1.335-3.819zM677.74 171.22v-6.64h-1.68v-1.38h1.68v-2.78h1.58v2.78h2v1.38h-2v6.3c0 .76.33 1.3 1 1.3.401.007.789-.144 1.08-.42l.46 1.18a2.563 2.563 0 01-1.89.65 2.075 2.075 0 01-2.155-1.447 2.076 2.076 0 01-.075-.923zM683.329 160.699a1.065 1.065 0 01.663-.991 1.063 1.063 0 011.165.252 1.065 1.065 0 01.194 1.176 1.062 1.062 0 01-1.022.613 1.006 1.006 0 01-.725-.31.998.998 0 01-.275-.74zm.27 12.64v-10.14h1.57v10.14h-1.57zM687.739 168.259c0-2.94 1.93-5.32 5-5.32 3.07 0 5 2.38 5 5.32 0 2.94-1.93 5.33-5 5.33-3.07 0-5-2.39-5-5.33zm8.37 0c0-2.06-1.19-3.91-3.36-3.91s-3.37 1.85-3.37 3.91 1.21 3.92 3.37 3.92 3.36-1.85 3.36-3.92zM707.18 173.339v-6.64c0-1.78-.9-2.35-2.27-2.35a3.924 3.924 0 00-3 1.58v7.41h-1.57v-10.14h1.57v1.47a5.01 5.01 0 013.61-1.73c2.12 0 3.24 1.07 3.24 3.28v7.12h-1.58z" fill="#000"/><path d="M504.24 70.22a3.318 3.318 0 00-4.64-.63 66.654 66.654 0 00-15.34 15.56 99.093 99.093 0 00-8.74 15.9 25.416 25.416 0 00-7.5-9 3.328 3.328 0 00-4.66.5 3.33 3.33 0 00.5 4.66c4.28 3.45 6.65 6.59 7.78 14.15a3.32 3.32 0 00.963 1.884 3.322 3.322 0 001.907.916h.4a3.326 3.326 0 003.07-2.06c8.31-20.26 13.81-28.26 25.62-37.23a3.305 3.305 0 00.64-4.65z" fill="#20313B"/><path d="M462.66 98.66a5.155 5.155 0 01-1.91-3.51 5.206 5.206 0 012.683-5.156 5.209 5.209 0 015.787.536 32.463 32.463 0 014.62 4.47h2.47a90.105 90.105 0 016.38-10.9 63.824 63.824 0 014.12-5.32v-2.47a3.091 3.091 0 00-.904-2.198 3.098 3.098 0 00-2.196-.912h-16.1V57.1a3.097 3.097 0 00-3.1-3.1H449a3.098 3.098 0 00-3.1 3.1v16.1h-16.1a3.094 3.094 0 00-2.195.912 3.11 3.11 0 00-.905 2.198v15.53a3.11 3.11 0 00.905 2.198 3.098 3.098 0 002.195.912h16.1V111a3.106 3.106 0 00.905 2.199 3.104 3.104 0 002.195.911h15.54a3.11 3.11 0 002.196-.911 3.093 3.093 0 00.904-2.199v-6.77a17.555 17.555 0 00-4.98-5.57zM140.81 61.1a7.997 7.997 0 00-7-4h-.63V60h.65a5.13 5.13 0 014.49 2.56 4.998 4.998 0 010 5L134.6 74l-.37-.21a.44.44 0 00-.59.15l-7.88 13.66a4.18 4.18 0 01-7.25 0L110.62 74a.435.435 0 00-.264-.197.425.425 0 00-.326.047l-.37.21-3.66-6.41a5.157 5.157 0 010-5.17 5.003 5.003 0 014.31-2.48h2.28v-2.86h-2.15a8.003 8.003 0 00-7 4 7.833 7.833 0 000 7.9l3.72 6.44-.37.22a.426.426 0 00-.196.258.42.42 0 00.046.322l7.88 13.66a8.688 8.688 0 005.3 4.09v10.77a5.57 5.57 0 01-5.44 5.62 5.502 5.502 0 01-4.85-2.78 8.34 8.34 0 10-4.81.37 10.085 10.085 0 004.342 5.531 10.081 10.081 0 0015.338-8.781V94a8.693 8.693 0 005.3-4.09l7.89-13.66a.42.42 0 00-.16-.58l-.37-.22L140.8 69a7.831 7.831 0 00.01-7.9zm-38 38.76a3.771 3.771 0 017.468-.736 3.77 3.77 0 01-3.698 4.506 3.778 3.778 0 01-2.692-1.09 3.779 3.779 0 01-1.118-2.68h.04z" fill="#92C9EC"/><path d="M128.63 63.17l3.28-1.9v-5.41L128.63 54a2.23 2.23 0 00-3.35 1.93v5.33a2.24 2.24 0 003.35 1.91zM120.51 61.23V55.9a2.232 2.232 0 00-2.241-2.202 2.23 2.23 0 00-1.109.302l-3.28 1.89v5.41l3.28 1.9a2.238 2.238 0 003.06-.844c.194-.343.294-.732.29-1.126zM327.28 86.2a1.263 1.263 0 00.371.912 1.29 1.29 0 00.909.378H335a1.278 1.278 0 001.28-1.29v-6.65h6.66a1.28 1.28 0 001.28-1.29v-6.42a1.282 1.282 0 00-1.28-1.29h-6.66V63.9a1.282 1.282 0 00-1.28-1.29h-6.43a1.283 1.283 0 00-1.186.797 1.263 1.263 0 00-.094.493v6.65h-6.66a1.283 1.283 0 00-1.186.797 1.262 1.262 0 00-.094.493v6.42a1.262 1.262 0 00.371.912 1.29 1.29 0 00.909.378h6.66l-.01 6.65z" fill="#20313B"/><path d="M347.22 54h-30.89a5.612 5.612 0 00-5.61 5.6v19.77c.749.29 1.48.623 2.19 1 .31.16.62.34.91.52V59.6a2.505 2.505 0 011.55-2.313c.304-.125.631-.188.96-.187h30.89a2.505 2.505 0 011.774.729 2.498 2.498 0 01.736 1.771v30.9a2.514 2.514 0 01-2.51 2.5h-26.36c.16 1 .3 2 .43 3.09h25.93a5.61 5.61 0 005.61-5.6V59.6a5.61 5.61 0 00-5.61-5.6zM296.02 81.15h-1.99a.98.98 0 00-.98.98v1.99c0 .542.439.98.98.98h1.99a.98.98 0 00.98-.98v-1.99a.98.98 0 00-.98-.98zM304.629 73.39c3.854-5.31 2.675-12.739-2.635-16.594-5.309-3.854-12.738-2.675-16.593 2.634-3.854 5.31-2.675 12.739 2.634 16.593 5.31 3.855 12.739 2.676 16.594-2.633z" fill="#92C9EC"/><path d="M303.51 80.35l-3.95 8.05h-2.14l-.42-1.79a.631.631 0 00-.59-.5h-2.77a.62.62 0 00-.58.5l-.42 1.79h-2.16l-4-8.05c-5.54 1-11.45 3.21-13.25 8-2.87 7.68-2.37 26.611-2.37 26.611h48.23s.5-18.93-2.37-26.61c-1.72-4.79-7.66-7.02-13.21-8z" fill="#92C9EC"/><path d="M647.91 87.64a6.495 6.495 0 00-4.26-5.46 7.17 7.17 0 00-3.9-.3 7.874 7.874 0 00-3.21 1.47 7.826 7.826 0 00-3.2-1.47 7.22 7.22 0 00-3.91.3 6.525 6.525 0 00-4.26 5.46 8.615 8.615 0 00.2 2.88h2a6.604 6.604 0 01-.29-2.66 4.665 4.665 0 013.05-3.92 5.223 5.223 0 011.82-.33 5.94 5.94 0 014 1.65.94.94 0 001.27 0 5.624 5.624 0 015.78-1.32 4.67 4.67 0 013 3.92c.21 1.84-.32 6.74-9.51 13a29.273 29.273 0 01-7.31-6.65H627l.3.47a30.955 30.955 0 008.76 8.09.924.924 0 001 0 30.811 30.811 0 008.76-8.09 10.652 10.652 0 002.09-7.04z" fill="#20313B"/><path d="M631.831 92.69l.81-2.08 1.42 5.7a.994.994 0 00.81.71h.1a.927.927 0 00.84-.51l1.65-3.22h3.19a.938.938 0 00.664-1.605.938.938 0 00-.664-.275h-3.76a.938.938 0 00-.84.51l-.77 1.5-1.53-6.14a.93.93 0 00-1.78-.11l-1.65 4.24h-7.32a.939.939 0 100 1.88h8a.933.933 0 00.83-.6zM627.2 67h15.6a2.64 2.64 0 002.64-2.64v-2.6a2.64 2.64 0 00-2.64-2.64H641a2.64 2.64 0 01-2.64-2.64 2.64 2.64 0 00-2.64-2.63h-1.4a2.637 2.637 0 00-2.64 2.63 2.645 2.645 0 01-.802 1.855 2.636 2.636 0 01-1.878.745h-1.8a2.641 2.641 0 00-2.64 2.64v2.6a2.65 2.65 0 00.759 1.892A2.641 2.641 0 00627.2 67zm7.8-11.81a1.658 1.658 0 011.627 1.987 1.662 1.662 0 01-1.309 1.302 1.66 1.66 0 11-.318-3.29z" fill="#92C9EC"/><path d="M652.11 64h-5.23v.29a4.089 4.089 0 01-4.08 4.09h-15.6a4.091 4.091 0 01-4.08-4.09V64h-5.23a2.896 2.896 0 00-2.676 1.806A2.892 2.892 0 00615 66.92v45c.003.766.308 1.499.849 2.041a2.904 2.904 0 002.041.849h34.2a2.91 2.91 0 002.91-2.91V66.92a2.892 2.892 0 00-.839-2.06 2.895 2.895 0 00-2.051-.86zm-1.84 45.46a1.2 1.2 0 01-1.19 1.2h-28.16a1.202 1.202 0 01-1.19-1.2v-34.3a1.2 1.2 0 011.19-1.2h28.16a1.199 1.199 0 011.19 1.2v34.3z" fill="#92C9EC"/></g><defs><clipPath id="clip0"><path fill="#fff" d="M0 0h740v233H0z"/></clipPath><filter id="filter0_ddd" x="0" y="1" width="738" height="235.01" filterUnits="userSpaceOnUse" color-interpolation-filters="sRGB"><feFlood flood-opacity="0" result="BackgroundImageFix"/><feColorMatrix in="SourceAlpha" values="0 0 0 0 0 0 0 0 0 0 0 0 0 0 0 0 0 0 127 0"/><feOffset dy="1"/><feGaussianBlur stdDeviation="5"/><feColorMatrix values="0 0 0 0 0.317647 0 0 0 0 0.662745 0 0 0 0 0.882353 0 0 0 0.2 0"/><feBlend in2="BackgroundImageFix" result="effect1_dropShadow"/><feColorMatrix in="SourceAlpha" values="0 0 0 0 0 0 0 0 0 0 0 0 0 0 0 0 0 0 127 0"/><feOffset dy="4"/><feGaussianBlur stdDeviation="2.5"/><feColorMatrix values="0 0 0 0 0.317647 0 0 0 0 0.662745 0 0 0 0 0.882353 0 0 0 0.12 0"/><feBlend in2="effect1_dropShadow" result="effect2_dropShadow"/><feColorMatrix in="SourceAlpha" values="0 0 0 0 0 0 0 0 0 0 0 0 0 0 0 0 0 0 127 0"/><feOffset dy="2"/><feGaussianBlur stdDeviation="2"/><feColorMatrix values="0 0 0 0 0.317647 0 0 0 0 0.662745 0 0 0 0 0.882353 0 0 0 0.14 0"/><feBlend in2="effect2_dropShadow" result="effect3_dropShadow"/><feBlend in="SourceGraphic" in2="effect3_dropShadow" result="shape"/></filter></defs></svg>