<svg width="73" height="72" fill="none" xmlns="http://www.w3.org/2000/svg"><rect x=".5" y="11" width="72" height="50" rx="4" fill="#92C9EC"/><path stroke="#fff" stroke-width="2" d="M40.5 44h18M40.5 36h27M40.05 27.326h27.38"/><path fill="#fff" d="M8.5 22h24v28h-24z"/><path d="M23.946 26.627l-.005.003a4.39 4.39 0 00-6.323 0 4.624 4.624 0 00-1.304 3.247 4.63 4.63 0 001.303 3.249 4.402 4.402 0 003.166 1.345c1.234 0 2.35-.515 3.158-1.345l.005.003a4.66 4.66 0 001.303-3.252 4.653 4.653 0 00-1.303-3.25zm-3.163 23.149H8.613V22.224H32.95v27.551H20.784zm9.191-3.06v-.387c0-2.285-1.01-4.56-2.731-6.224-1.61-1.557-3.842-2.576-6.46-2.576-2.617 0-4.853 1.019-6.462 2.576-1.721 1.663-2.735 3.94-2.735 6.224v.386h18.388z" fill="#103654"/></svg>