<svg width="73" height="72" fill="none" xmlns="http://www.w3.org/2000/svg"><path fill-rule="evenodd" clip-rule="evenodd" d="M64.915 57.988c-2.592-3.86-8.856-6.789-14.184-8.289-5.329-1.5-7.038-4.841-6.66-6.395.379-1.555 1.547-1.072 2.732-3.29 1.01-1.889 1.696-6.304 1.696-6.304s2.43-.803 2.7-4.447c.27-3.645 0-4.985-.918-5.413-.919-.429-1.297-.375-1.297-.375s.6-5.185.605-6.27c.004-1.376.13-2.727-.26-4.127-1.4-5.037-7.206-7.18-13.946-7.074-6.74.108-6.843 2.144-8.243 3.645-1.4 1.5-2.333.32-3.577 2.625-.752 1.393-.027 7.986-.027 7.986.226 1.824.48 3.215.48 3.215s-.379-.054-1.297.375c-.917.428-1.188 1.768-.917 5.413.269 3.644 2.699 4.447 2.699 4.447s.686 4.415 1.697 6.305c1.183 2.217 2.354 1.734 2.732 3.288.378 1.555-1.333 4.895-6.661 6.396-5.328 1.5-11.593 4.43-14.185 8.289-1.959 2.918-1.655 7.84-1.39 10.064C6.773 68.712 17.343 72 36.75 72c19.407 0 29.477-3.289 29.556-3.948.265-2.225.57-7.146-1.39-10.064z" fill="#92C9EC"/><path d="M21.5 4h2V0h-2v4zm-10-2V0a2 2 0 00-2 2h2zm-2 10v2h4v-2h-4zm12-12h-10v4h10V0zm-8 12V2h-4v10h4zM13.5 43v-2h-4v2h4zm-2 10h-2a2 2 0 002 2v-2zm10 2h2v-4h-2v4zm-12-12v10h4V43h-4zm12 8h-10v4h10v-4zM51.5 4h-2V0h2v4zm10-2V0a2 2 0 012 2h-2zm2 10v2h-4v-2h4zm-12-12h10v4h-10V0zm8 12V2h4v10h-4zM59.5 43v-2h4v2h-4zm2 10h2a2 2 0 01-2 2v-2zm-10 2h-2v-4h2v4zm12-12v10h-4V43h4zm-12 8h10v4h-10v-4z" fill="#103654"/><path d="M36.492 26.233c-3.879 0-4.804 2.9-10.01 2.9 0 2.133.88 6.148.88 8.83 1.381 1.478 4.583 2.237 9.13 2.237 4.547 0 7.748-.76 9.13-2.236 0-2.683.88-6.698.88-8.83-5.207 0-6.132-2.9-10.01-2.9z" fill="#fff"/><path d="M26.482 29.134c5.206 0 6.131-2.9 10.01-2.9 3.878 0 4.803 2.9 10.01 2.9m-20.02 0c0 2.132.88 6.147.88 8.83m-.88-8.83l-2.94-6.138m3.82 14.968c1.381 1.477 4.583 2.236 9.13 2.236 4.547 0 7.748-.76 9.13-2.236m-18.26 0l-1.625.86m20.764-9.69c0 2.132-.88 6.147-.88 8.83m.88-8.83l2.94-6.138m-3.82 14.968l1.625.86" stroke="#fff" stroke-width="1.5"/></svg>