<svg id="Illustration" xmlns="http://www.w3.org/2000/svg" xmlns:xlink="http://www.w3.org/1999/xlink" viewBox="0 0 2218.12 1341.93"><defs><style>.clc-1{fill:url(#linear-gradients);}.clc-2{fill:#bdd0fb;}.clc-3{fill:#dce5fe;}.clc-4{fill:#91b3fa;}.clc-5{fill:url(#linear-gradients-2);}.clc-6{fill:url(#linear-gradients-3);}.clc-7{fill:#7d97f4;}.clc-8{fill:url(#linear-gradients-4);}.clc-9{fill:url(#linear-gradients-5);}.clc-10{fill:url(#linear-gradients-6);}.clc-11{fill:url(#linear-gradients-7);}.clc-12{fill:url(#linear-gradients-8);}.clc-13{fill:url(#linear-gradients-9);}.clc-14{fill:url(#linear-gradients-10);}.clc-15{fill:url(#linear-gradients-11);}.clc-16{fill:url(#linear-gradients-12);}.clc-17{fill:url(#linear-gradients-13);}.clc-18{fill:url(#linear-gradients-14);}.clc-19{fill:url(#linear-gradients-15);}.clc-20{fill:url(#linear-gradients-16);}.clc-21{fill:url(#linear-gradients-17);}.clc-22{fill:url(#linear-gradients-18);}.clc-23{fill:#e9effe;}.clc-24{fill:url(#linear-gradients-19);}.clc-25{fill:url(#linear-gradients-20);}.clc-26{opacity:0.64;}.clc-27{fill:url(#linear-gradients-21);}.clc-28{fill:url(#linear-gradients-22);}.clc-29{fill:url(#linear-gradients-23);}.clc-30{fill:url(#linear-gradients-24);}.clc-31{fill:url(#linear-gradients-25);}.clc-32{fill:url(#linear-gradients-26);}.clc-33{fill:url(#linear-gradients-27);}.clc-34{fill:url(#linear-gradients-28);}.clc-35{fill:url(#linear-gradients-29);}.clc-36{fill:url(#linear-gradients-30);}.clc-37{fill:url(#linear-gradients-31);}.clc-38{fill:url(#linear-gradients-32);}.clc-39{fill:url(#linear-gradients-33);}.clc-40{fill:url(#linear-gradients-34);}.clc-41{fill:url(#linear-gradients-35);}.clc-42{fill:url(#linear-gradients-36);}.clc-43{fill:url(#linear-gradients-37);}.clc-44{fill:url(#linear-gradients-38);}.clc-45{fill:url(#linear-gradients-39);}.clc-46{fill:url(#linear-gradients-40);}.clc-47{fill:url(#linear-gradients-41);}.clc-48{fill:url(#linear-gradients-42);}.clc-49{fill:url(#linear-gradients-43);}.clc-50{fill:url(#linear-gradients-44);}.clc-51{fill:url(#linear-gradients-45);}.clc-52{fill:url(#linear-gradients-46);}.clc-53{fill:url(#linear-gradients-47);}.clc-54{fill:url(#linear-gradients-48);}.clc-55{fill:url(#linear-gradients-49);}.clc-56{fill:url(#linear-gradients-50);}.clc-57{fill:url(#linear-gradients-51);}.clc-58{fill:url(#linear-gradients-52);}.clc-59{fill:url(#linear-gradients-53);}.clc-60{fill:url(#linear-gradients-54);}.clc-61{fill:url(#linear-gradients-55);}.clc-62{fill:url(#linear-gradients-56);}.clc-63{fill:url(#linear-gradients-57);}.clc-64{fill:url(#linear-gradients-58);}.clc-65{fill:url(#linear-gradients-59);}.clc-66{fill:url(#linear-gradients-60);}.clc-67{fill:url(#linear-gradients-61);}.clc-68{fill:url(#linear-gradients-62);}.clc-69{fill:url(#linear-gradients-63);}.clc-70{fill:url(#linear-gradients-64);}.clc-71{fill:url(#linear-gradients-65);}.clc-72{fill:url(#linear-gradients-66);}.clc-73{fill:url(#linear-gradients-67);}.clc-74{fill:url(#linear-gradients-68);}.clc-75{fill:url(#linear-gradients-69);}.clc-76{fill:url(#linear-gradients-70);}.clc-77{fill:url(#linear-gradients-71);}.clc-78{fill:url(#linear-gradients-72);}.clc-79{fill:url(#linear-gradients-73);}.clc-80{fill:url(#linear-gradients-74);}.clc-81{fill:url(#linear-gradients-75);}.clc-82{fill:url(#linear-gradients-76);}.clc-83{fill:url(#linear-gradients-77);}</style><linearGradient id="linear-gradients" x1="128.44" y1="822.68" x2="2289.81" y2="822.68" gradientUnits="userSpaceOnUse"><stop offset="0" stop-color="#dae3fe"/><stop offset="1" stop-color="#e9effd"/></linearGradient><linearGradient id="linear-gradients-2" x1="1794.37" y1="1468.81" x2="1788.61" y2="1126.29" gradientUnits="userSpaceOnUse"><stop offset="0" stop-color="#fe7062"/><stop offset="1" stop-color="#ff928e"/></linearGradient><linearGradient id="linear-gradients-3" x1="1809.79" y1="1137.55" x2="1803.98" y2="1373.05" gradientTransform="translate(3612.88 2546.78) rotate(-180)" gradientUnits="userSpaceOnUse"><stop offset="0" stop-color="#4042e2"/><stop offset="1" stop-color="#4f52ff"/></linearGradient><linearGradient id="linear-gradients-4" x1="1138.01" y1="1222.53" x2="1339.21" y2="1549.86" gradientTransform="matrix(1, 0, 0, 1, 0, 0)" xlink:href="#linear-gradients-3"/><linearGradient id="linear-gradients-5" x1="1167.4" y1="1224.52" x2="1354.67" y2="1529.2" gradientTransform="translate(112.45 -95.61) rotate(4.61)" xlink:href="#linear-gradients-3"/><linearGradient id="linear-gradients-6" x1="1185.84" y1="1213.19" x2="1373.11" y2="1517.86" gradientTransform="translate(109.13 -95.75) rotate(4.61)" xlink:href="#linear-gradients-3"/><linearGradient id="linear-gradients-7" x1="1204.29" y1="1201.85" x2="1391.56" y2="1506.52" gradientTransform="translate(105.81 -95.88) rotate(4.61)" xlink:href="#linear-gradients-3"/><linearGradient id="linear-gradients-8" x1="1222.73" y1="1190.51" x2="1410" y2="1495.19" gradientTransform="translate(102.49 -96.02) rotate(4.61)" xlink:href="#linear-gradients-3"/><linearGradient id="linear-gradients-9" x1="1228.09" y1="1416.62" x2="1086.92" y2="1930.89" gradientUnits="userSpaceOnUse"><stop offset="0" stop-color="#09005d"/><stop offset="1" stop-color="#1a0f91"/></linearGradient><linearGradient id="linear-gradients-10" x1="1222.87" y1="1415.18" x2="1081.7" y2="1929.46" xlink:href="#linear-gradients-9"/><linearGradient id="linear-gradients-11" x1="1209.74" y1="1411.58" x2="1068.57" y2="1925.85" xlink:href="#linear-gradients-9"/><linearGradient id="linear-gradients-12" x1="1206.23" y1="1410.62" x2="1065.06" y2="1924.89" xlink:href="#linear-gradients-9"/><linearGradient id="linear-gradients-13" x1="1182.64" y1="1215.03" x2="1263.22" y2="347.79" xlink:href="#linear-gradients-2"/><linearGradient id="linear-gradients-14" x1="1325.92" y1="839.02" x2="1357.61" y2="1845.96" gradientUnits="userSpaceOnUse"><stop offset="0" stop-color="#e1473d"/><stop offset="1" stop-color="#e9605a"/></linearGradient><linearGradient id="linear-gradients-15" x1="1151.34" y1="844.51" x2="1183.03" y2="1851.46" xlink:href="#linear-gradients-14"/><linearGradient id="linear-gradients-16" x1="1241.62" y1="253.39" x2="1244.5" y2="526.83" gradientUnits="userSpaceOnUse"><stop offset="0" stop-color="#ff928e"/><stop offset="1" stop-color="#feb3b1"/></linearGradient><linearGradient id="linear-gradients-17" x1="1624.17" y1="-41.87" x2="1578.17" y2="378.13" xlink:href="#linear-gradients-16"/><linearGradient id="linear-gradients-18" x1="1656.94" y1="-38.28" x2="1610.94" y2="381.71" xlink:href="#linear-gradients-16"/><linearGradient id="linear-gradients-19" x1="752.55" y1="832.86" x2="943.68" y2="78.07" gradientTransform="matrix(1, 0, 0, 1, 0, 0)" xlink:href="#linear-gradients-3"/><linearGradient id="linear-gradients-20" x1="468.04" y1="86.19" x2="482.07" y2="588.87" gradientTransform="translate(965.95 47.5) rotate(16.72)" xlink:href="#linear-gradients-3"/><linearGradient id="linear-gradients-21" x1="-230.43" y1="577.52" x2="-414.35" y2="884.58" gradientTransform="translate(965.95 47.5) rotate(16.72)" xlink:href="#linear-gradients-3"/><linearGradient id="linear-gradients-22" x1="918.46" y1="249.54" x2="1142.47" y2="38.98" gradientTransform="translate(965.95 47.5) rotate(16.72)" xlink:href="#linear-gradients-3"/><linearGradient id="linear-gradients-23" x1="126.86" y1="448.85" x2="221.94" y2="222.84" gradientTransform="translate(965.95 47.5) rotate(16.72)" xlink:href="#linear-gradients-3"/><linearGradient id="linear-gradients-24" x1="-985.92" y1="1025.28" x2="-1153.16" y2="1207.18" gradientTransform="matrix(-1, 0, 0, 1, 1003.68, 0)" xlink:href="#linear-gradients-3"/><linearGradient id="linear-gradients-25" x1="-1040.2" y1="1038.79" x2="-1025.35" y2="1038.79" gradientTransform="matrix(-1, 0, 0, 1, 1003.68, 0)" gradientUnits="userSpaceOnUse"><stop offset="0" stop-color="#f9b776"/><stop offset="1" stop-color="#f47960"/></linearGradient><linearGradient id="linear-gradients-26" x1="-1075.43" y1="925.2" x2="-1026.31" y2="925.2" gradientTransform="matrix(-1, 0, 0, 1, 1003.68, 0)" xlink:href="#linear-gradients-9"/><linearGradient id="linear-gradients-27" x1="-1023.44" y1="990.79" x2="-1190.67" y2="1172.69" gradientTransform="matrix(-1, 0, 0, 1, 1003.68, 0)" xlink:href="#linear-gradients-3"/><linearGradient id="linear-gradients-28" x1="-1093.74" y1="1038.03" x2="-1080.92" y2="1038.03" xlink:href="#linear-gradients-25"/><linearGradient id="linear-gradients-29" x1="-1107.56" y1="923.6" x2="-1037.83" y2="923.6" gradientTransform="matrix(-1, 0, 0, 1, 1003.68, 0)" xlink:href="#linear-gradients-9"/><linearGradient id="linear-gradients-30" x1="-1127.39" y1="789.87" x2="-893.65" y2="621.66" gradientTransform="matrix(-1, 0, 0, 1, 1003.68, 0)" xlink:href="#linear-gradients-3"/><linearGradient id="linear-gradients-31" x1="1907.38" y1="579.98" x2="1949.59" y2="651.45" xlink:href="#linear-gradients-16"/><linearGradient id="linear-gradients-32" x1="1898.66" y1="585.13" x2="1940.87" y2="656.6" xlink:href="#linear-gradients-16"/><linearGradient id="linear-gradients-33" x1="-903.55" y1="599.94" x2="-882.3" y2="567.27" gradientTransform="matrix(-1, 0, 0, 1, 1003.68, 0)" xlink:href="#linear-gradients-16"/><linearGradient id="linear-gradients-34" x1="-1158.19" y1="747.07" x2="-924.46" y2="578.86" gradientTransform="matrix(-1, 0, 0, 1, 1003.68, 0)" xlink:href="#linear-gradients-3"/><linearGradient id="linear-gradients-35" x1="-1145.14" y1="758.74" x2="-1049.1" y2="758.74" gradientTransform="matrix(-1, 0, 0, 1, 1003.68, 0)" xlink:href="#linear-gradients-16"/><linearGradient id="linear-gradients-36" x1="-1020.05" y1="690.46" x2="-967.24" y2="910.5" gradientTransform="matrix(-1, 0, 0, 1, 1003.68, 0)" xlink:href="#linear-gradients-2"/><linearGradient id="linear-gradients-37" x1="-1056.23" y1="748.67" x2="-1026.31" y2="748.67" gradientTransform="matrix(-1, 0, 0, 1, 1003.68, 0)" xlink:href="#linear-gradients-16"/><linearGradient id="linear-gradients-38" x1="2055.71" y1="648.01" x2="2059.55" y2="707" xlink:href="#linear-gradients-16"/><linearGradient id="linear-gradients-39" x1="2027.98" y1="625.37" x2="2060.6" y2="620.58" xlink:href="#linear-gradients-16"/><linearGradient id="linear-gradients-40" x1="-6400.07" y1="-2956.94" x2="-6388.2" y2="-2889.24" gradientTransform="matrix(-0.75, -0.67, -0.67, 0.75, -4651.56, -1476.32)" xlink:href="#linear-gradients-9"/><linearGradient id="linear-gradients-41" x1="2029.13" y1="633.2" x2="2061.75" y2="628.41" xlink:href="#linear-gradients-16"/><linearGradient id="linear-gradients-42" x1="-707.66" y1="1467.87" x2="-663.03" y2="1467.87" gradientTransform="matrix(-1, 0, 0, 1, 179.73, 0)" gradientUnits="userSpaceOnUse"><stop offset="0" stop-color="#2b3582"/><stop offset="1" stop-color="#150e42"/></linearGradient><linearGradient id="linear-gradients-43" x1="-595.94" y1="1415.22" x2="-758.3" y2="1542.71" gradientTransform="matrix(-1, 0, 0, 1, 179.73, 0)" xlink:href="#linear-gradients-3"/><linearGradient id="linear-gradients-44" x1="-695.25" y1="1417.06" x2="-703.78" y2="1491.46" gradientTransform="matrix(-1, 0, 0, 1, 179.73, 0)" xlink:href="#linear-gradients-16"/><linearGradient id="linear-gradients-45" x1="-567.09" y1="1451.9" x2="-729.46" y2="1579.39" gradientTransform="matrix(-1, 0, 0, 1, 179.73, 0)" xlink:href="#linear-gradients-3"/><linearGradient id="linear-gradients-46" x1="-639.71" y1="1469" x2="-575.46" y2="1469" xlink:href="#linear-gradients-42"/><linearGradient id="linear-gradients-47" x1="-480.93" y1="1372.58" x2="-489.45" y2="1446.98" gradientTransform="matrix(-1, -0.06, -0.06, 1, 413.08, 24.83)" xlink:href="#linear-gradients-16"/><linearGradient id="linear-gradients-48" x1="815.29" y1="1355.75" x2="1301.21" y2="759.69" xlink:href="#linear-gradients-9"/><linearGradient id="linear-gradients-49" x1="603.37" y1="1055.48" x2="684.6" y2="1048.45" xlink:href="#linear-gradients-16"/><linearGradient id="linear-gradients-50" x1="-399.69" y1="976.69" x2="-394.1" y2="1119.35" gradientTransform="matrix(-1, 0, 0, 1, 179.73, 0)" xlink:href="#linear-gradients-3"/><linearGradient id="linear-gradients-51" x1="-594.92" y1="966.23" x2="-644.68" y2="1017" gradientTransform="matrix(-1, 0, 0, 1, 179.73, 0)" xlink:href="#linear-gradients-3"/><linearGradient id="linear-gradients-52" x1="-2905.59" y1="1296.53" x2="-2982.33" y2="1306.12" gradientTransform="matrix(-1, 0, 0, 1, 179.73, 0)" xlink:href="#linear-gradients-16"/><linearGradient id="linear-gradients-53" x1="-470.99" y1="941.68" x2="-492.97" y2="964.63" gradientTransform="matrix(-1, 0, 0, 1, 179.73, 0)" xlink:href="#linear-gradients-16"/><linearGradient id="linear-gradients-54" x1="-2908.58" y1="1272.54" x2="-2985.33" y2="1282.13" gradientTransform="matrix(-1, 0, 0, 1, 179.73, 0)" xlink:href="#linear-gradients-16"/><linearGradient id="linear-gradients-55" x1="-232.11" y1="837.87" x2="-484.34" y2="1170.55" gradientTransform="matrix(-0.99, -0.13, -0.13, 0.99, 646.88, 65.79)" xlink:href="#linear-gradients-3"/><linearGradient id="linear-gradients-56" x1="823.36" y1="936.02" x2="855.34" y2="1007.65" xlink:href="#linear-gradients-16"/><linearGradient id="linear-gradients-57" x1="686.44" y1="1085.16" x2="766.39" y2="1050.62" xlink:href="#linear-gradients-16"/><linearGradient id="linear-gradients-58" x1="780.6" y1="912.68" x2="813.86" y2="917.15" xlink:href="#linear-gradients-16"/><linearGradient id="linear-gradients-59" x1="-658.12" y1="871.4" x2="-604.05" y2="941.02" gradientTransform="matrix(-1, 0, 0, 1, 179.73, 0)" xlink:href="#linear-gradients-9"/><linearGradient id="linear-gradients-60" x1="780.74" y1="911.66" x2="814" y2="916.14" xlink:href="#linear-gradients-16"/><linearGradient id="linear-gradients-61" x1="679.74" y1="1026.69" x2="694.45" y2="1067.62" xlink:href="#linear-gradients-16"/><linearGradient id="linear-gradients-62" x1="-356.75" y1="1025.49" x2="-159.84" y2="1130.32" gradientTransform="matrix(-1, 0, 0, 1, 179.73, 0)" xlink:href="#linear-gradients-3"/><linearGradient id="linear-gradients-63" x1="-315.23" y1="956.27" x2="-330.47" y2="910.58" gradientTransform="matrix(-1, 0, 0, 1, 179.73, 0)" xlink:href="#linear-gradients-16"/><linearGradient id="linear-gradients-64" x1="-232.2" y1="1073.14" x2="-199.71" y2="1218.85" gradientTransform="matrix(-1, 0, 0, 1, 179.73, 0)" xlink:href="#linear-gradients-2"/><linearGradient id="linear-gradients-65" x1="-328.65" y1="977.43" x2="-116.95" y2="1090.13" gradientTransform="matrix(-1, 0, 0, 1, 179.73, 0)" xlink:href="#linear-gradients-3"/><linearGradient id="linear-gradients-66" x1="430.49" y1="932.81" x2="435.6" y2="999.32" gradientTransform="matrix(1, 0, 0, 1, 0, 0)" xlink:href="#linear-gradients-3"/><linearGradient id="linear-gradients-67" x1="446.01" y1="1181.04" x2="421.71" y2="1126.68" xlink:href="#linear-gradients-16"/><linearGradient id="linear-gradients-68" x1="4569.03" y1="5358.28" x2="4514.28" y2="5430.7" gradientTransform="translate(-6526.02 544.78) rotate(-46.73)" xlink:href="#linear-gradients-16"/><linearGradient id="linear-gradients-69" x1="4527.22" y1="5375.67" x2="4592.61" y2="5375.67" gradientTransform="translate(-6526.02 544.78) rotate(-46.73)" xlink:href="#linear-gradients-9"/><linearGradient id="linear-gradients-70" x1="4488.85" y1="5415.63" x2="4532.76" y2="5370.58" gradientTransform="translate(-6526.02 544.78) rotate(-46.73)" xlink:href="#linear-gradients-16"/><linearGradient id="linear-gradients-71" x1="2474.51" y1="1485.77" x2="2542.55" y2="1485.77" gradientTransform="translate(-2047.92)" xlink:href="#linear-gradients-3"/><linearGradient id="linear-gradients-72" x1="2474.51" y1="1472.43" x2="2540.62" y2="1472.43" gradientTransform="translate(-2047.92)" xlink:href="#linear-gradients-42"/><linearGradient id="linear-gradients-73" x1="2480.79" y1="1453.82" x2="2499.96" y2="1453.82" gradientTransform="translate(-2047.92)" xlink:href="#linear-gradients-16"/><linearGradient id="linear-gradients-74" x1="2338.88" y1="1484.3" x2="2364.96" y2="1484.3" gradientTransform="translate(-2047.92)" xlink:href="#linear-gradients-3"/><linearGradient id="linear-gradients-75" x1="2339.07" y1="1464.22" x2="2377.34" y2="1464.22" gradientTransform="translate(-2047.92)" xlink:href="#linear-gradients-42"/><linearGradient id="linear-gradients-76" x1="2358.96" y1="1437.84" x2="2381.87" y2="1437.84" gradientTransform="translate(-2047.92)" xlink:href="#linear-gradients-16"/><linearGradient id="linear-gradients-77" x1="34.05" y1="1455.83" x2="383.51" y2="972.67" gradientTransform="translate(285.08)" xlink:href="#linear-gradients-9"/></defs><path class="clc-1" d="M2121.51,997.21c-24.78-96.29,52.27-184.77,103-270.25,75.18-126.54,94.43-297.16,9.38-417.29C2156.25,199.93,2010.26,156.88,1876,164.42s-261.92,57.15-389.78,98.75S1222.8,339.1,1090.5,315.08C946.79,289,820.27,196.19,675.13,179.8c-131.94-14.91-269.78,39.87-355.5,141.27s-116.8,246.44-80.14,374.06c19.52,68,55.84,144.51,17.61,204-20.1,31.27-56.23,48-82.44,74.37-50.65,51-57.73,134.55-30.71,201.12s82.5,117.92,143.07,156.56c211.19,134.73,478.68,132,729.08,124.87l-37.68-2.51,457.18,21.19c206.39,9.56,417.22,18.63,615.61-39.06,51.38-14.94,102.7-35,142.69-70.55s67.11-89.19,59.34-142.13C2240.45,1135.8,2143.48,1082.55,2121.51,997.21Z" transform="translate(-128.44 -154.03)"/><path class="clc-2" d="M2078.81,554.36c8.2-2.29,14,7.95,7.84,13.8-59.73,56.49-211.72,209.52-262,348.49-81.87,226.28-287.15,456.13-467.82,433.74C1356.83,1350.39,1186.28,803,2078.81,554.36Z" transform="translate(-128.44 -154.03)"/><path class="clc-3" d="M1987.24,623c-1.68,1.15-3.54,2.61-5.33,3.95l-5.36,4.18-10.64,8.48q-10.61,8.52-21.1,17.19-21,17.37-41.52,35.21-41.19,35.58-81,72.73c-53,49.61-104.43,100.84-153.13,154.61-24.23,27-48.24,54.17-71.13,82.29s-45.12,56.78-66.15,86.32c-2.71,3.63-5.3,7.35-7.86,11.09l-7.73,11.18-7.74,11.17c-2.53,3.76-5,7.59-7.45,11.38-4.9,7.61-10,15.12-14.74,22.83l-14.14,23.22a1040.61,1040.61,0,0,0-50.59,96.24h0a1,1,0,0,1-1.39.52,1.07,1.07,0,0,1-.53-1.37,960.89,960.89,0,0,1,48.77-97.59l13.92-23.48c4.68-7.8,9.69-15.39,14.53-23.1,2.45-3.84,4.84-7.7,7.34-11.51l7.63-11.31,7.63-11.32c2.53-3.78,5.09-7.54,7.76-11.22,42-59.45,88.2-115.85,137.19-169.62,24.44-26.94,49.76-53.07,75.43-78.82s51.93-50.92,78.81-75.4,54.09-48.59,81.94-72q20.91-17.51,42.17-34.56c7.11-5.66,14.23-11.31,21.42-16.86l10.86-8.26,5.47-4.07c1.88-1.34,3.61-2.67,5.72-4a1,1,0,0,1,1.15,1.74Z" transform="translate(-128.44 -154.03)"/><path class="clc-4" d="M1488.42,1384.59s-172.18-210.51-65.4-348.83c85.81-111.16,42.35,58.51,52.45,209.46.79,11.85,18.39,11.41,18.58-.46,2-116.63,15.67-293,79.84-314.37,96.86-32.29,61,7.71,27.19,145s-3.47,169.29,31.55,81.6,9.28-239.39,58.37-266.48,139.28-32.43,178.89-40.23,68.09,187.41,11.17,230.52-173.24,67.63-202.32,124.54,78,7,134.28-25.18,96-42.37,72.12,35.23S1758.08,1320.49,1684.49,1318s-118.23,19.46-82.26,23.55,147.67,7.53,184.46-12.92S1756.11,1483.36,1488.42,1384.59Z" transform="translate(-128.44 -154.03)"/><path class="clc-2" d="M1504,1469h551.26V1358.7H1504C1515.77,1358.71,1515.77,1469,1504,1469Z" transform="translate(-128.44 -154.03)"/><path class="clc-5" d="M2055.23,1441.43v-50.49c0-17.8-10.89-32.23-24.33-32.23H1506.3a19.14,19.14,0,0,1-19.14-19.14h0a5.81,5.81,0,0,1,5.82-5.81h573.35c13.15,0,34,20.67,34,46.17v70.52c0,24-20.26,43.54-32.66,43.54H1496a8.83,8.83,0,0,1-8.83-8.83h0a16.12,16.12,0,0,1,16.12-16.12h531.11C2045.9,1469,2055.23,1456.68,2055.23,1441.43Z" transform="translate(-128.44 -154.03)"/><path class="clc-4" d="M2039.94,1383.44H1523.06a2.1,2.1,0,1,1,0-4.2h516.88a2.1,2.1,0,1,1,0,4.2Z" transform="translate(-128.44 -154.03)"/><path class="clc-4" d="M2039.94,1399.82H1523.06a2.1,2.1,0,0,1,0-4.2h516.88a2.1,2.1,0,0,1,0,4.2Z" transform="translate(-128.44 -154.03)"/><path class="clc-4" d="M2039.94,1416.2H1523.06a2.1,2.1,0,1,1,0-4.2h516.88a2.1,2.1,0,1,1,0,4.2Z" transform="translate(-128.44 -154.03)"/><path class="clc-4" d="M2039.94,1432.58H1523.06a2.1,2.1,0,0,1,0-4.2h516.88a2.1,2.1,0,0,1,0,4.2Z" transform="translate(-128.44 -154.03)"/><path class="clc-4" d="M2039.94,1449H1523.06a2.1,2.1,0,1,1,0-4.2h516.88a2.1,2.1,0,1,1,0,4.2Z" transform="translate(-128.44 -154.03)"/><rect class="clc-6" x="1558.42" y="1213.52" width="496.03" height="119.73" rx="20.09" transform="translate(3484.44 2392.74) rotate(180)"/><rect class="clc-4" x="1940.12" y="1227.28" width="58.27" height="92.21" rx="7.24" transform="translate(3810.08 2392.74) rotate(180)"/><rect class="clc-4" x="1909.69" y="1227.28" width="21.86" height="92.21" rx="3.67" transform="translate(3712.8 2392.74) rotate(180)"/><path class="clc-2" d="M432,619.15c-8.19-2.28-14,8-7.83,13.8,59.73,56.49,211.71,209.52,262,348.49C768,1207.72,973.31,1437.58,1154,1415.19,1154,1415.19,1324.53,867.81,432,619.15Z" transform="translate(-128.44 -154.03)"/><path class="clc-3" d="M524.53,685.87c2.11,1.35,3.84,2.68,5.72,4l5.47,4.07,10.86,8.26c7.19,5.55,14.31,11.2,21.43,16.86q21.27,17,42.17,34.56c27.84,23.37,55.08,47.46,81.93,72s53.12,49.68,78.82,75.4,51,51.88,75.42,78.82c49,53.77,95.19,110.17,137.19,169.62,2.68,3.68,5.23,7.44,7.76,11.23l7.63,11.31,7.63,11.31c2.5,3.81,4.89,7.68,7.34,11.51,4.84,7.71,9.85,15.3,14.54,23.1l13.92,23.48a960.81,960.81,0,0,1,48.76,97.59,1.05,1.05,0,0,1-.56,1.38,1,1,0,0,1-1.36-.53h0a1036.75,1036.75,0,0,0-50.59-96.23l-14.14-23.22c-4.75-7.72-9.84-15.22-14.74-22.84-2.49-3.79-4.92-7.62-7.45-11.37L994.54,1175l-7.74-11.18c-2.56-3.74-5.15-7.46-7.86-11.09-21-29.53-43.28-58.18-66.15-86.31s-46.9-55.32-71.13-82.3c-48.7-53.77-100.17-105-153.13-154.61q-39.79-37.14-81-72.73-20.58-17.81-41.52-35.2-10.5-8.65-21.1-17.2l-10.64-8.48-5.36-4.18c-1.79-1.34-3.65-2.8-5.33-4l-.19-.13a1,1,0,0,1,1.15-1.74Z" transform="translate(-128.44 -154.03)"/><path class="clc-2" d="M894.72,1331.79s-76.36,23.21-178.11-28.06c-94.4-47.56-316.13-167.85-420.5-178.16a4.29,4.29,0,0,1-1-8.33c47.21-16,168.58-46.68,313.37-3.42C795.2,1169.6,894.72,1331.79,894.72,1331.79Z" transform="translate(-128.44 -154.03)"/><path class="clc-3" d="M389.93,1125.43a178.11,178.11,0,0,1,32.92-3.28c2.77-.12,5.53-.11,8.29-.06l8.3.11c5.51.34,11.06.47,16.57,1a373.62,373.62,0,0,1,65.32,11.82c5.41,1.25,10.65,3.06,15.95,4.68s10.64,3.16,15.8,5.18l15.62,5.72c2.62.89,5.13,2.07,7.69,3.14l7.64,3.28,7.64,3.28,3.81,1.65,3.73,1.83,14.93,7.3c2.48,1.23,5,2.39,7.44,3.69l7.29,3.9,14.59,7.79c19.35,10.56,38.64,21.24,57.61,32.46,9.53,5.52,19,11.2,28.44,16.83L757.68,1253c18.75,11.52,37.49,23,56.5,34q14.22,8.28,29,15.46c5,2.21,9.92,4.61,15,6.49,5,2.16,10.26,3.66,15.47,5.34l.06,0a1,1,0,0,1-.56,2,190,190,0,0,1-31.53-10.5q-15.21-6.66-29.87-14.43c-19.53-10.31-38.47-21.58-57.52-32.61l-28.53-16.57c-9.5-5.51-19-11.09-28.54-16.5q-28.6-16.37-57.56-32.08l-14.54-7.75c-4.84-2.59-9.69-5.18-14.59-7.57L595.83,1171l-3.67-1.83-3.74-1.66-7.5-3.3a493,493,0,0,0-61.37-22.81c-5.25-1.48-10.49-3.07-15.76-4.47l-16-3.78c-5.34-1.15-10.72-2.11-16.08-3.18s-10.81-1.67-16.21-2.53-10.87-1.23-16.31-1.87l-8.19-.56c-2.74-.21-5.47-.38-8.21-.41s-5.48-.2-8.22-.18l-8.22.11a161,161,0,0,0-16.42,1.19.13.13,0,0,1-.15-.1A.12.12,0,0,1,389.93,1125.43Z" transform="translate(-128.44 -154.03)"/><path class="clc-7" d="M1340.29,1422.06s-45.65-158.71,47.07-210.31c74.52-41.47,9.61,42.79-20.91,129.44-2.4,6.8,7.52,10.78,10.48,4.2,29-64.62,78.93-159.74,119.86-156.3,61.79,5.19,32.21,18.93-19.57,87.44s-42.49,93.63-1.94,53.09,62.53-131.35,96.41-134.71,85.49,15.27,109.46,20.41-6.91,120.89-49,131.31-112.87-3.77-142.74,21,41.86,22.62,81,18.12,63.72-.65,31.8,36.94-96.08,28.19-136.55,9.19-70.64-17.47-51.54-6.57,80.59,39.58,106,37S1466,1541.31,1340.29,1422.06Z" transform="translate(-128.44 -154.03)"/><path class="clc-8" d="M1359.55,1399.52c-.63,43.47-56.43,89.79-120.89,89.79s-113.21-34-116.73-77.31c-8.4-103.36,52.26-102.28,116.73-102.28S1361.12,1292.08,1359.55,1399.52Z" transform="translate(-128.44 -154.03)"/><ellipse class="clc-9" cx="1244.03" cy="1349.2" rx="163.43" ry="42.72" transform="translate(-232.84 -49.69) rotate(-4.61)"/><ellipse class="clc-10" cx="1244.03" cy="1307.85" rx="163.43" ry="42.72" transform="translate(-229.52 -49.82) rotate(-4.61)"/><ellipse class="clc-11" cx="1244.03" cy="1266.51" rx="163.43" ry="42.72" transform="translate(-226.2 -49.96) rotate(-4.61)"/><ellipse class="clc-12" cx="1244.03" cy="1225.17" rx="163.43" ry="42.72" transform="translate(-222.88 -50.09) rotate(-4.61)"/><path class="clc-13" d="M1199,1396c-26.72,0-51.17-2-71.37-5.83a2.16,2.16,0,0,1,.81-4.25c31.61,6.06,73.83,7.39,118.88,3.76,36.87-3,71.34-8.92,99.7-17.2a2.16,2.16,0,0,1,1.21,4.15c-28.63,8.36-63.41,14.36-100.56,17.35C1230.91,1395.28,1214.55,1396,1199,1396Z" transform="translate(-128.44 -154.03)"/><path class="clc-14" d="M1199.42,1354.57c-34.72,0-65.74-3.27-87.63-9.5a2.16,2.16,0,0,1,1.19-4.16c31.18,8.88,81.39,11.64,134.31,7.37,52.35-4.22,101.17-14.84,130.6-28.42a2.16,2.16,0,0,1,1.81,3.93c-29.86,13.77-79.23,24.54-132.06,28.8C1231.15,1353.92,1214.92,1354.57,1199.42,1354.57Z" transform="translate(-128.44 -154.03)"/><path class="clc-15" d="M1199,1313.25c-37.48,0-70.28-3.83-92.36-11.11a2.16,2.16,0,1,1,1.35-4.1c30.73,10.13,82.81,13.45,139.33,8.9,52.35-4.22,101.17-14.85,130.6-28.42a2.16,2.16,0,1,1,1.81,3.92c-29.87,13.78-79.24,24.55-132.06,28.8C1230.9,1312.59,1214.53,1313.25,1199,1313.25Z" transform="translate(-128.44 -154.03)"/><path class="clc-16" d="M1199.26,1271.89c-29.73,0-56.78-2.4-77.8-7.08a2.16,2.16,0,1,1,.94-4.21c31.61,7,77.14,8.84,124.89,5,51.88-4.18,100.45-14.69,129.93-28.11a2.16,2.16,0,1,1,1.79,3.93c-29.91,13.62-79,24.27-131.37,28.49C1231.1,1271.23,1214.81,1271.89,1199.26,1271.89Z" transform="translate(-128.44 -154.03)"/><path class="clc-17" d="M1020.74,1044.67A304.35,304.35,0,0,0,966.26,938.3c-53.56-67.51-140.94-204.79-151.7-392.15-15.64-272.53,226.06-409,446.62-390.45S1699.37,338.44,1675.55,592c-14.66,156-102,274.33-167,342.28-41.28,43.16-70.73,96-86.67,153.56-19.51,70.44-65.94,158.23-176.3,163.58C1102.79,1258.32,1043.48,1125.22,1020.74,1044.67Z" transform="translate(-128.44 -154.03)"/><path class="clc-18" d="M1282.07,1197.05l77.17-501.94c1.6-10.37,6.7-17.33,11.4-15.55s7.22,11.62,5.62,22c0,.28-.09.62-.14.89l-87.91,497.28c-.66,3.74-2.56,6.1-4.24,5.27S1281.51,1200.67,1282.07,1197.05Z" transform="translate(-128.44 -154.03)"/><path class="clc-19" d="M1202,1201,1124.79,699.1c-1.6-10.37-6.7-17.34-11.4-15.56s-7.22,11.63-5.63,22c0,.28.1.62.15.89l87.91,497.27c.66,3.74,2.56,6.11,4.24,5.28S1202.51,1204.66,1202,1201Z" transform="translate(-128.44 -154.03)"/><path class="clc-20" d="M1358.69,652c-2-3.15-6.5-4.33-10.13-2.63l-43,20.08L1290.67,627a9.13,9.13,0,0,0-5.23-5.26c-4.94-2-10.85-.21-13.2,4.07l-.08.14-35.34,64.44L1204,598.62l0-.15a10.52,10.52,0,0,0-5-5.6c-5.5-3-12.76-1.57-16.22,3.2l-49.41,68a6,6,0,0,0,1.74,8.58,8.29,8.29,0,0,0,10.51-1.14l43.5-48.52,39.16,87.25,0,.07a6.89,6.89,0,0,0,3.45,3.38c3.68,1.72,8.27.54,10.25-2.65l37.8-60.65L1294,681.08l.13.27a5.84,5.84,0,0,0,.35.65c2,3.15,6.49,4.33,10.13,2.63l51-23.83C1359.29,659.1,1360.65,655.17,1358.69,652Z" transform="translate(-128.44 -154.03)"/><path class="clc-21" d="M1510.24,862.91a3.11,3.11,0,0,1-1.87-.62,3.15,3.15,0,0,1-.65-4.41,578.66,578.66,0,0,0,36.22-55,3.15,3.15,0,1,1,5.45,3.15,582.49,582.49,0,0,1-36.62,55.62A3.14,3.14,0,0,1,1510.24,862.91Z" transform="translate(-128.44 -154.03)"/><path class="clc-22" d="M1573.73,754a3.08,3.08,0,0,1-1.25-.26,3.15,3.15,0,0,1-1.64-4.14,478.09,478.09,0,0,0,36.59-248.35c-7.74-63.34-26-103.68-26.14-104.08a3.15,3.15,0,1,1,5.72-2.62c.19.41,18.75,41.44,26.64,105.68a484.41,484.41,0,0,1-37,251.88A3.13,3.13,0,0,1,1573.73,754Z" transform="translate(-128.44 -154.03)"/><g id="gear9"><path class="clc-4" d="M481.4,620.12h0a5.26,5.26,0,0,1-5.22-5.28q0-4.27.17-8.53a5.25,5.25,0,1,1,10.49.33q-.13,4.14-.16,8.26A5.25,5.25,0,0,1,481.4,620.12Z" transform="translate(-128.44 -154.03)"/><path class="clc-4" d="M483.63,584.25a4.4,4.4,0,0,1-.62,0,5.25,5.25,0,0,1-4.6-5.83c.67-5.67,1.51-11.41,2.47-17.06a5.25,5.25,0,0,1,10.35,1.78c-.94,5.47-1.74,11-2.39,16.51A5.26,5.26,0,0,1,483.63,584.25Zm8.25-43.73a5.06,5.06,0,0,1-1.33-.17,5.25,5.25,0,0,1-3.76-6.4c1.44-5.52,3-11.09,4.78-16.56a5.25,5.25,0,0,1,10,3.17c-1.68,5.3-3.24,10.7-4.63,16A5.25,5.25,0,0,1,491.88,540.52Zm14.1-42.2a5.26,5.26,0,0,1-4.86-7.25c2.18-5.3,4.52-10.61,7-15.76a5.25,5.25,0,0,1,9.49,4.49c-2.36,5-4.63,10.12-6.74,15.26A5.24,5.24,0,0,1,506,498.32Zm19.66-39.91a5.25,5.25,0,0,1-4.53-7.89c2.87-4.95,5.91-9.88,9-14.67a5.25,5.25,0,0,1,8.79,5.74c-3,4.63-6,9.41-8.76,14.21A5.23,5.23,0,0,1,525.64,458.41Zm24.94-36.86a5.24,5.24,0,0,1-4.13-8.48c3.53-4.51,7.22-9,11-13.31a5.25,5.25,0,0,1,7.92,6.89c-3.65,4.19-7.23,8.52-10.64,12.89A5.25,5.25,0,0,1,550.58,421.55Zm486.95-29a5.26,5.26,0,0,1-3.72-1.55c-3.91-3.93-8-7.81-12.07-11.52a5.25,5.25,0,1,1,7-7.78c4.24,3.83,8.44,7.84,12.47,11.9a5.25,5.25,0,0,1-3.72,8.95Zm-457.16-4.07a5.25,5.25,0,0,1-3.65-9c4.11-4,8.38-7.9,12.7-11.67a5.25,5.25,0,0,1,6.9,7.92c-4.18,3.64-8.32,7.44-12.3,11.29A5.23,5.23,0,0,1,580.37,388.46Zm423.68-25.25a5.25,5.25,0,0,1-3.17-1.07c-4.42-3.36-9-6.64-13.55-9.75a5.25,5.25,0,0,1,5.91-8.68c4.72,3.21,9.43,6.6,14,10.07a5.25,5.25,0,0,1-3.18,9.43ZM614.4,359.77a5.25,5.25,0,0,1-3.1-9.48c4.6-3.37,9.36-6.67,14.17-9.82a5.25,5.25,0,1,1,5.76,8.78c-4.66,3.05-9.28,6.25-13.73,9.51A5.24,5.24,0,0,1,614.4,359.77Zm352.46-21a5.19,5.19,0,0,1-2.57-.67c-4.83-2.72-9.79-5.35-14.76-7.81a5.25,5.25,0,1,1,4.67-9.4c5.12,2.54,10.25,5.25,15.24,8.06a5.25,5.25,0,0,1-2.58,9.82ZM652,336a5.25,5.25,0,0,1-2.5-9.87c5.05-2.72,10.22-5.35,15.37-7.8a5.25,5.25,0,1,1,4.51,9.48c-5,2.38-10,4.92-14.88,7.56A5.24,5.24,0,0,1,652,336Zm274.66-16.36a5.27,5.27,0,0,1-1.93-.36q-2.4-1-4.84-1.87c-3.55-1.35-7.2-2.65-10.84-3.88a5.25,5.25,0,1,1,3.35-9.95c3.76,1.27,7.53,2.62,11.2,4q2.5.94,5,1.92a5.25,5.25,0,0,1-1.92,10.13Zm-234.17-2.09a5.25,5.25,0,0,1-1.85-10.16c5.36-2,10.84-3.91,16.29-5.65a5.25,5.25,0,0,1,3.18,10c-5.28,1.68-10.59,3.51-15.77,5.46A5.21,5.21,0,0,1,692.51,317.54Zm191.78-11.45a5,5,0,0,1-1.26-.16c-5.39-1.32-10.88-2.52-16.3-3.56a5.25,5.25,0,0,1,2-10.31c5.6,1.07,11.27,2.31,16.84,3.68a5.25,5.25,0,0,1-1.25,10.35Zm-149.17-1.33A5.25,5.25,0,0,1,734,294.39c5.55-1.26,11.23-2.4,16.89-3.38a5.25,5.25,0,1,1,1.79,10.35c-5.48.94-11,2.05-16.35,3.27A5.31,5.31,0,0,1,735.12,304.76Zm105.34-6.32a5.07,5.07,0,0,1-.55,0c-5.52-.58-11.12-1-16.64-1.3a5.25,5.25,0,1,1,.54-10.48c5.7.29,11.48.74,17.19,1.34a5.25,5.25,0,0,1-.54,10.47Zm-61.4-.54a5.25,5.25,0,0,1-.44-10.48c5.69-.5,11.48-.84,17.19-1a5.25,5.25,0,0,1,.35,10.5c-5.53.18-11.13.52-16.64,1Z" transform="translate(-128.44 -154.03)"/><path class="clc-4" d="M1061.52,419.5a5.26,5.26,0,0,1-4.11-2c-1.71-2.15-3.45-4.29-5.22-6.4a5.25,5.25,0,0,1,8-6.74q2.74,3.27,5.39,6.61a5.24,5.24,0,0,1-4.11,8.51Z" transform="translate(-128.44 -154.03)"/><path class="clc-23" d="M1130.15,660.09a4.4,4.4,0,0,1-.62,0,5.23,5.23,0,0,1-4.59-5.82q.48-4.11.86-8.22a5.25,5.25,0,0,1,10.45,1c-.26,2.83-.55,5.66-.89,8.49A5.24,5.24,0,0,1,1130.15,660.09Z" transform="translate(-128.44 -154.03)"/><path class="clc-23" d="M807.06,947.67c-3.06,0-6.13,0-9.21-.12a5.24,5.24,0,0,1-5.1-5.39,5.16,5.16,0,0,1,5.39-5.1c3,.08,6,.14,8.92.11q3.75,0,7.5-.09a5.19,5.19,0,0,1,5.37,5.12,5.25,5.25,0,0,1-5.12,5.38Q810.94,947.67,807.06,947.67Zm34.68-1.89a5.25,5.25,0,0,1-.56-10.47c5.41-.58,10.89-1.32,16.26-2.18a5.25,5.25,0,1,1,1.67,10.36c-5.55.89-11.21,1.65-16.8,2.26Zm-70.8-.11-.59,0c-5.59-.63-11.24-1.41-16.8-2.32a5.25,5.25,0,0,1,1.7-10.36c5.38.88,10.86,1.64,16.27,2.25a5.25,5.25,0,0,1-.58,10.46Zm113.9-7.53a5.25,5.25,0,0,1-1.26-10.35c5.28-1.3,10.61-2.77,15.84-4.35a5.25,5.25,0,0,1,3,10c-5.4,1.63-10.9,3.15-16.35,4.49A5.08,5.08,0,0,1,884.84,938.14Zm-157-.27a5.16,5.16,0,0,1-1.28-.16c-5.46-1.37-11-2.9-16.34-4.56a5.25,5.25,0,1,1,3.08-10c5.22,1.6,10.54,3.08,15.82,4.41a5.25,5.25,0,0,1-1.28,10.34Zm198.69-13.08a5.25,5.25,0,0,1-1.93-10.13c5.07-2,10.16-4.17,15.11-6.43a5.25,5.25,0,1,1,4.36,9.55c-5.12,2.33-10.37,4.57-15.61,6.64A5.21,5.21,0,0,1,926.54,924.79Zm-240.36-.42a5.16,5.16,0,0,1-1.95-.38c-5.23-2.08-10.47-4.33-15.59-6.68a5.25,5.25,0,1,1,4.37-9.54c5,2.27,10,4.45,15.11,6.47a5.25,5.25,0,0,1-1.94,10.13ZM966.1,906a5.24,5.24,0,0,1-2.57-9.82c4.77-2.68,9.52-5.5,14.12-8.4a5.25,5.25,0,1,1,5.59,8.89c-4.75,3-9.65,5.9-14.58,8.66A5.16,5.16,0,0,1,966.1,906Zm-319.45-.52a5.21,5.21,0,0,1-2.57-.68c-4.91-2.77-9.81-5.7-14.56-8.72a5.25,5.25,0,1,1,5.62-8.86c4.6,2.92,9.34,5.76,14.1,8.44a5.25,5.25,0,0,1-2.59,9.82Zm356.13-23.4a5.25,5.25,0,0,1-3.15-9.44c4.35-3.27,8.68-6.71,12.87-10.21a5.25,5.25,0,0,1,6.73,8.05c-4.33,3.62-8.8,7.17-13.3,10.55A5.21,5.21,0,0,1,1002.78,882.06ZM610,881.4a5.23,5.23,0,0,1-3.17-1.06c-4.49-3.42-9-7-13.25-10.61a5.25,5.25,0,0,1,6.77-8c4.16,3.51,8.48,7,12.83,10.26A5.25,5.25,0,0,1,610,881.4Zm425.89-28a5.25,5.25,0,0,1-3.69-9c3.88-3.84,7.71-7.83,11.38-11.86a5.25,5.25,0,0,1,7.76,7.07c-3.79,4.17-7.75,8.29-11.76,12.25A5.18,5.18,0,0,1,1035.93,853.43ZM577,852.62a5.22,5.22,0,0,1-3.71-1.53c-4-4-7.91-8.11-11.7-12.3a5.25,5.25,0,0,1,7.79-7c3.67,4,7.48,8.06,11.33,11.9a5.25,5.25,0,0,1-3.71,9Zm487.89-32a5.18,5.18,0,0,1-3.2-1.09,5.24,5.24,0,0,1-1-7.36c3.31-4.31,6.57-8.78,9.68-13.29a5.25,5.25,0,1,1,8.64,5.95c-3.21,4.66-6.57,9.28-10,13.74A5.25,5.25,0,0,1,1064.92,820.58Zm24.27-36.48a5.25,5.25,0,0,1-4.55-7.86c2.7-4.72,5.32-9.58,7.79-14.45a5.25,5.25,0,1,1,9.37,4.73c-2.55,5-5.25,10.06-8,14.94A5.26,5.26,0,0,1,1089.19,784.1Zm19.15-39.38a5.33,5.33,0,0,1-2-.39,5.26,5.26,0,0,1-2.89-6.84q1.53-3.74,3-7.53t2.85-7.84a5.25,5.25,0,0,1,9.91,3.45q-1.41,4.06-2.94,8.1c-1,2.61-2,5.2-3,7.77A5.25,5.25,0,0,1,1108.34,744.72Zm13.75-41.58a5.5,5.5,0,0,1-1.32-.17,5.26,5.26,0,0,1-3.77-6.4c1.37-5.28,2.61-10.66,3.7-16a5.25,5.25,0,0,1,10.29,2.1c-1.13,5.51-2.41,11.07-3.82,16.53A5.26,5.26,0,0,1,1122.09,703.14Z" transform="translate(-128.44 -154.03)"/><path class="clc-23" d="M548.15,819.58a5.22,5.22,0,0,1-4.18-2.07q-2.6-3.39-5.08-6.85a5.25,5.25,0,1,1,8.51-6.14q2.42,3.35,4.92,6.63a5.25,5.25,0,0,1-4.17,8.43Z" transform="translate(-128.44 -154.03)"/><path class="clc-24" d="M587.45,736.68a3.91,3.91,0,0,0,3.85,2.4l47.44-2.88a207.35,207.35,0,0,0,47.42,47.46l-2.88,47.41a3.92,3.92,0,0,0,2.41,3.85l52.67,21.82a3.93,3.93,0,0,0,4.42-1l31.5-35.57a206.82,206.82,0,0,0,67.08,0l31.52,35.59a3.88,3.88,0,0,0,4.41,1L930,834.92a3.89,3.89,0,0,0,2.4-3.84l-2.88-47.45A207.15,207.15,0,0,0,977,736.21l47.42,2.88a3.91,3.91,0,0,0,3.84-2.41L1050,684a3.9,3.9,0,0,0-1-4.42l-35.56-31.49a207.16,207.16,0,0,0,0-67.09L1049,549.5a3.9,3.9,0,0,0,1-4.42l-21.82-52.68a3.89,3.89,0,0,0-3.84-2.4l-47.45,2.88a207.15,207.15,0,0,0-47.42-47.46L932.38,398a3.91,3.91,0,0,0-2.4-3.85L877.3,372.34a3.9,3.9,0,0,0-4.42,1l-31.49,35.56a207.16,207.16,0,0,0-67.09,0l-31.51-35.59a3.9,3.9,0,0,0-4.42-1L685.7,394.16a3.91,3.91,0,0,0-2.41,3.84l2.88,47.45a207.11,207.11,0,0,0-47.45,47.42L591.3,490a3.89,3.89,0,0,0-3.84,2.4l-21.82,52.68a3.91,3.91,0,0,0,1,4.42L602.22,581a207.16,207.16,0,0,0,0,67.09l-35.59,31.51a3.93,3.93,0,0,0-1,4.42Z" transform="translate(-128.44 -154.03)"/><path class="clc-4" d="M807.87,669.37a55.34,55.34,0,0,1-8-.58,54.81,54.81,0,1,1,8,.58Zm-.07-101.26a46.43,46.43,0,1,0,6.76.49A47,47,0,0,0,807.8,568.11Z" transform="translate(-128.44 -154.03)"/><path class="clc-4" d="M808.91,753.74A139.42,139.42,0,0,1,755.46,743h0q-4.63-1.92-9.13-4.16h0l-.07,0-.15-.08-.05,0q-6.25-3.15-12.16-6.89l-.12-.08-1.43-.92-.72-.48-.94-.63-1.34-.91a2.1,2.1,0,1,1,2.38-3.46,137.08,137.08,0,0,0,25.34,13.79,134.68,134.68,0,0,0,70.59,9.07,136.24,136.24,0,0,0,33.11-9.07,135.48,135.48,0,0,0,0-250.33c-69-28.59-148.43,4.3-177,73.32a135,135,0,0,0-8.88,71.62,1.62,1.62,0,0,1,0,.31,2.1,2.1,0,0,1-4.17.3,136.5,136.5,0,0,1-1.5-20.37,139.72,139.72,0,0,1,10.65-53.47c29.48-71.16,111.35-105.07,182.51-75.59a139.76,139.76,0,0,1-53.46,268.8Z" transform="translate(-128.44 -154.03)"/></g><g id="gear8"><path class="clc-25" d="M1246.05,447.25l26.38-3.71a116,116,0,0,0,28.59,24.4l.5,26.61a2.18,2.18,0,0,0,1.51,2l30.39,9.85a2.19,2.19,0,0,0,2.42-.77l16-21.26a116.14,116.14,0,0,0,37.47-3l19.18,18.47a2.2,2.2,0,0,0,2.52.38l28.45-14.53a2.18,2.18,0,0,0,1.17-2.25l-3.72-26.38a115.82,115.82,0,0,0,24.4-28.59l26.61-.5a2.18,2.18,0,0,0,2-1.51l9.84-30.39a2.19,2.19,0,0,0-.76-2.42l-21.26-16a115.86,115.86,0,0,0-3-37.47L1493.28,321a2.19,2.19,0,0,0,.38-2.51l-14.53-28.46a2.18,2.18,0,0,0-2.25-1.17l-26.38,3.72a115.82,115.82,0,0,0-28.59-24.4l-.5-26.61a2.16,2.16,0,0,0-1.51-2l-30.39-9.85a2.19,2.19,0,0,0-2.42.76l-16,21.27a115.86,115.86,0,0,0-37.47,3l-19.18-18.48a2.19,2.19,0,0,0-2.52-.37l-28.45,14.52a2.2,2.2,0,0,0-1.17,2.26L1286,279a116.18,116.18,0,0,0-24.39,28.59l-26.62.5a2.19,2.19,0,0,0-2,1.51L1223.11,340a2.19,2.19,0,0,0,.76,2.42l21.26,16a116.1,116.1,0,0,0,3,37.46l-18.47,19.18a2.21,2.21,0,0,0-.38,2.52l14.53,28.45A2.18,2.18,0,0,0,1246.05,447.25Z" transform="translate(-128.44 -154.03)"/><path class="clc-4" d="M1361.51,398.54c-.68,0-1.37,0-2.06-.06h0a30.74,30.74,0,1,1,2.06.06Zm-.06-56.73a26.26,26.26,0,0,0-1.72,52.47h0a26.26,26.26,0,0,0,3.47-52.41C1362.61,341.83,1362,341.81,1361.45,341.81Z" transform="translate(-128.44 -154.03)"/><g class="clc-26"><path class="clc-23" d="M1197.23,422a5.25,5.25,0,0,1-5-3.75c-.81-2.76-1.57-5.57-2.25-8.36a5.25,5.25,0,1,1,10.2-2.48c.64,2.62,1.35,5.26,2.12,7.85a5.26,5.26,0,0,1-3.54,6.53A5.54,5.54,0,0,1,1197.23,422Z" transform="translate(-128.44 -154.03)"/><path class="clc-23" d="M1190.83,388.24a5.24,5.24,0,0,1-5.22-4.8c-.44-5-.66-10.14-.66-15.2v-1.31a5.25,5.25,0,0,1,5.25-5.21h0a5.26,5.26,0,0,1,5.21,5.29v1.23c0,4.76.21,9.57.62,14.3a5.26,5.26,0,0,1-4.78,5.68A3.62,3.62,0,0,1,1190.83,388.24Zm1.52-42a4.73,4.73,0,0,1-.83-.07,5.25,5.25,0,0,1-4.36-6c.86-5.43,2-10.87,3.35-16.18a5.25,5.25,0,1,1,10.17,2.61c-1.28,5-2.34,10.11-3.15,15.21A5.25,5.25,0,0,1,1192.35,346.28ZM1204,305.92a5.18,5.18,0,0,1-2.06-.43,5.24,5.24,0,0,1-2.76-6.89c2.16-5,4.58-10,7.21-14.86a5.25,5.25,0,0,1,9.22,5c-2.47,4.53-4.75,9.23-6.78,14A5.25,5.25,0,0,1,1204,305.92Zm21.16-36.28a5.24,5.24,0,0,1-4.17-8.43c3.32-4.36,6.89-8.62,10.61-12.66a5.25,5.25,0,0,1,7.72,7.11c-3.5,3.8-6.86,7.81-10,11.91A5.24,5.24,0,0,1,1225.14,269.64Zm29.34-30a5.25,5.25,0,0,1-3.28-9.35c4.28-3.43,8.78-6.69,13.36-9.71a5.25,5.25,0,0,1,5.78,8.77c-4.32,2.84-8.55,5.91-12.58,9.14A5.27,5.27,0,0,1,1254.48,239.6Zm35.74-22a5.25,5.25,0,0,1-2.19-10c5-2.29,10.16-4.37,15.33-6.17a5.25,5.25,0,0,1,3.45,9.91c-4.85,1.69-9.7,3.65-14.41,5.8A5.15,5.15,0,0,1,1290.22,217.56Zm138.26-1.88a5.15,5.15,0,0,1-2-.42c-4.75-2-9.65-3.83-14.57-5.4a5.25,5.25,0,1,1,3.18-10c5.23,1.66,10.45,3.59,15.5,5.74a5.25,5.25,0,0,1-2.06,10.08Zm-98.24-10.78a5.25,5.25,0,0,1-1-10.41c5.4-1,10.91-1.75,16.38-2.23a5.25,5.25,0,1,1,.92,10.45c-5.14.46-10.32,1.17-15.39,2.1A5.2,5.2,0,0,1,1330.24,204.9Zm57.87-.76a5.76,5.76,0,0,1-.82-.06c-4.89-.77-9.89-1.32-14.86-1.65l-.58,0a5.24,5.24,0,1,1,.63-10.47l.66,0c5.26.35,10.57.93,15.77,1.75a5.25,5.25,0,0,1-.8,10.43Z" transform="translate(-128.44 -154.03)"/><path class="clc-23" d="M1458.71,232.33a5.22,5.22,0,0,1-3-.93c-2.21-1.53-4.5-3-6.8-4.46a5.25,5.25,0,1,1,5.53-8.92c2.45,1.52,4.89,3.11,7.24,4.74a5.25,5.25,0,0,1-3,9.57Z" transform="translate(-128.44 -154.03)"/></g><g class="clc-26"><path class="clc-23" d="M1530.7,346.92a5.26,5.26,0,0,1-5.18-4.44c-.41-2.66-.89-5.35-1.44-8a5.25,5.25,0,1,1,10.28-2.12c.58,2.83,1.1,5.69,1.54,8.52a5.26,5.26,0,0,1-4.38,6A5.76,5.76,0,0,1,1530.7,346.92Z" transform="translate(-128.44 -154.03)"/><path class="clc-23" d="M1351.09,544.27h-.32l-.93-.06c-5.75-.38-11.49-1-17.11-2a5.25,5.25,0,0,1,1.7-10.36c5.29.87,10.69,1.49,16.07,1.84l.9.06a5.25,5.25,0,0,1-.31,10.49Zm28.56-.63a5.25,5.25,0,0,1-.55-10.47,166.85,166.85,0,0,0,16.85-2.66,5.24,5.24,0,1,1,2.17,10.26,176.55,176.55,0,0,1-17.91,2.84Zm-73.79-8.29a5.31,5.31,0,0,1-1.7-.28,175.06,175.06,0,0,1-16.84-6.77,5.25,5.25,0,1,1,4.41-9.52,163.81,163.81,0,0,0,15.83,6.35,5.25,5.25,0,0,1-1.7,10.22Zm118.54-2.71a5.25,5.25,0,0,1-1.94-10.13,166.83,166.83,0,0,0,15.52-7.08,5.25,5.25,0,1,1,4.84,9.31,175,175,0,0,1-16.49,7.53A5.29,5.29,0,0,1,1424.4,532.64Zm40.17-22.56a5.25,5.25,0,0,1-3.17-9.44,166.51,166.51,0,0,0,13.08-11,5.25,5.25,0,1,1,7.14,7.7,177.78,177.78,0,0,1-13.9,11.65A5.22,5.22,0,0,1,1464.57,510.08Zm32.73-32.44a5.2,5.2,0,0,1-3.2-1.09,5.26,5.26,0,0,1-1-7.36,163.73,163.73,0,0,0,9.7-14,5.25,5.25,0,1,1,8.93,5.52,174.33,174.33,0,0,1-10.31,14.92A5.22,5.22,0,0,1,1497.3,477.64Zm22.93-40a5.25,5.25,0,0,1-4.87-7.22,165.05,165.05,0,0,0,5.58-16.12,5.25,5.25,0,1,1,10.08,2.91,173.68,173.68,0,0,1-5.93,17.15A5.24,5.24,0,0,1,1520.23,437.66ZM1531.6,393l-.6,0a5.24,5.24,0,0,1-4.62-5.81c.31-2.7.55-5.44.73-8.12.2-3,.32-6,.35-8.92a5.25,5.25,0,0,1,5.25-5.18h.07a5.25,5.25,0,0,1,5.18,5.32c0,3.14-.17,6.33-.38,9.47-.18,2.85-.45,5.75-.77,8.62A5.25,5.25,0,0,1,1531.6,393Z" transform="translate(-128.44 -154.03)"/><path class="clc-23" d="M1264.59,514.58a5.25,5.25,0,0,1-3-.92c-2.37-1.63-4.73-3.34-7-5.07a5.25,5.25,0,0,1,6.36-8.36c2.14,1.64,4.36,3.24,6.59,4.77a5.25,5.25,0,0,1-3,9.58Z" transform="translate(-128.44 -154.03)"/></g><path class="clc-4" d="M1361.41,447.27a79.11,79.11,0,0,1-24.35-3.86h0a79.73,79.73,0,0,1-15.4-6.87,2.08,2.08,0,0,1-1.05-1.82,2.09,2.09,0,0,1,3.15-1.81,75.46,75.46,0,0,0,14.59,6.5h0a75.07,75.07,0,0,0,93.69-46c.26-.73.52-1.48.76-2.22a74.49,74.49,0,0,0-4.55-57.21,75,75,0,0,0-139.88,50.89,1.84,1.84,0,0,1,.06.47,2.1,2.1,0,0,1-4.15.47,79.19,79.19,0,1,1,77.13,61.46Z" transform="translate(-128.44 -154.03)"/></g><g id="gear7"><path class="clc-7" d="M261,697.74h0a2.08,2.08,0,0,1-2.08-2.11c0-1.77.05-3.54.13-5.32a2.14,2.14,0,0,1,2.19-2,2.09,2.09,0,0,1,2,2.19c-.07,1.73-.11,3.45-.12,5.17A2.1,2.1,0,0,1,261,697.74Z" transform="translate(-128.44 -154.03)"/><path class="clc-7" d="M261.92,682.33h-.25a2.1,2.1,0,0,1-1.84-2.33c.4-3.41.93-6.85,1.58-10.24a2.1,2.1,0,0,1,4.12.79c-.63,3.29-1.14,6.63-1.53,9.94A2.1,2.1,0,0,1,261.92,682.33Zm3.83-20a2.05,2.05,0,0,1-.54-.07,2.1,2.1,0,0,1-1.48-2.57c.89-3.32,1.91-6.65,3-9.9a2.1,2.1,0,1,1,4,1.38c-1.09,3.15-2.08,6.38-3,9.61A2.1,2.1,0,0,1,265.75,662.3ZM272.42,643a2,2,0,0,1-.82-.17,2.08,2.08,0,0,1-1.1-2.75c1.35-3.17,2.84-6.32,4.41-9.37a2.1,2.1,0,1,1,3.73,1.93c-1.53,3-3,6-4.28,9.09A2.12,2.12,0,0,1,272.42,643Zm9.36-18.11a2.1,2.1,0,0,1-1.79-3.2c1.79-2.94,3.72-5.84,5.72-8.63a2.1,2.1,0,1,1,3.41,2.45c-1.94,2.7-3.81,5.52-5.55,8.37A2.11,2.11,0,0,1,281.78,624.92Zm11.88-16.58A2.1,2.1,0,0,1,292,604.9c2.2-2.64,4.53-5.24,6.92-7.71a2.1,2.1,0,1,1,3,2.91c-2.32,2.41-4.58,4.92-6.71,7.49A2.12,2.12,0,0,1,293.66,608.34ZM502,599.19a2.08,2.08,0,0,1-1.49-.62c-2.35-2.37-4.82-4.68-7.33-6.87a2.09,2.09,0,1,1,2.75-3.16c2.59,2.25,5.14,4.63,7.56,7.07a2.1,2.1,0,0,1-1.49,3.58Zm-194.22-5.53a2.1,2.1,0,0,1-1.4-3.66c2.56-2.3,5.24-4.52,8-6.63a2.1,2.1,0,0,1,2.57,3.32c-2.64,2-5.24,4.21-7.73,6.44A2.13,2.13,0,0,1,307.82,593.66Zm178.83-7.85a2.09,2.09,0,0,1-1.25-.42c-2.67-2-5.45-3.93-8.26-5.74a2.1,2.1,0,1,1,2.26-3.53c2.9,1.86,5.77,3.84,8.52,5.91a2.1,2.1,0,0,1-1.27,3.78ZM324,581.19a2.1,2.1,0,0,1-1.16-3.85c2.86-1.9,5.83-3.72,8.83-5.41a2.1,2.1,0,0,1,2.07,3.66c-2.91,1.64-5.8,3.41-8.58,5.25A2,2,0,0,1,324,581.19Zm145.53-6.4a2.15,2.15,0,0,1-1-.25c-2.93-1.59-6-3.1-9-4.48a2.1,2.1,0,1,1,1.74-3.82c3.13,1.42,6.25,3,9.27,4.61a2.1,2.1,0,0,1-1,3.94Zm-127.76-3.62a2.1,2.1,0,0,1-.9-4c3.09-1.46,6.29-2.84,9.51-4.09a2.1,2.1,0,0,1,1.52,3.92c-3.12,1.21-6.23,2.55-9.24,4A2,2,0,0,1,341.72,571.17Zm109.19-4.8a2.08,2.08,0,0,1-.73-.13c-3.14-1.16-6.35-2.22-9.55-3.15a2.1,2.1,0,0,1,1.17-4c3.29,1,6.6,2,9.84,3.24a2.1,2.1,0,0,1-.73,4.07Zm-90.18-2.57a2.1,2.1,0,0,1-.62-4.11c3.3-1,6.66-1.91,10-2.68a2.1,2.1,0,0,1,.94,4.1c-3.24.74-6.51,1.62-9.71,2.6A2.15,2.15,0,0,1,360.73,563.8Zm70.59-3.12a2.25,2.25,0,0,1-.44,0c-3.26-.7-6.59-1.29-9.89-1.75a2.11,2.11,0,0,1-1.8-2.36,2.08,2.08,0,0,1,2.37-1.79c3.4.47,6.83,1.07,10.2,1.79a2.1,2.1,0,0,1-.44,4.15Zm-50.72-1.44a2.1,2.1,0,0,1-.32-4.18c3.4-.52,6.86-.93,10.29-1.21a2.1,2.1,0,1,1,.33,4.19c-3.32.27-6.68.66-10,1.17A1.73,1.73,0,0,1,380.6,559.24Zm30.53-1.36H411c-3-.19-6-.29-8.95-.29h-1.12a2.1,2.1,0,0,1,0-4.2H402c3.06,0,6.16.1,9.23.3a2.1,2.1,0,0,1-.13,4.19Z" transform="translate(-128.44 -154.03)"/><path class="clc-7" d="M512.37,610.81a2.09,2.09,0,0,1-1.65-.8c-1.07-1.34-2.16-2.67-3.29-4a2.1,2.1,0,0,1,3.19-2.73q1.74,2,3.39,4.1a2.1,2.1,0,0,1-.34,3A2.07,2.07,0,0,1,512.37,610.81Z" transform="translate(-128.44 -154.03)"/><path class="clc-7" d="M541.91,716.67l-.27,0a2.11,2.11,0,0,1-1.81-2.36q.33-2.56.57-5.13a2.09,2.09,0,0,1,2.28-1.9,2.11,2.11,0,0,1,1.9,2.28c-.16,1.77-.36,3.53-.59,5.3A2.11,2.11,0,0,1,541.91,716.67Z" transform="translate(-128.44 -154.03)"/><path class="clc-7" d="M402,839.69c-3.51,0-7-.13-10.48-.38a2.1,2.1,0,0,1,.31-4.19c3.36.25,6.77.37,10.15.37h.38a2.1,2.1,0,0,1,0,4.2H402Zm11-.43a2.1,2.1,0,0,1-.16-4.2c3.49-.27,7-.68,10.46-1.22A2.1,2.1,0,0,1,424,838c-3.56.55-7.18,1-10.78,1.26Zm-32-1.14-.32,0c-3.55-.54-7.13-1.22-10.65-2a2.1,2.1,0,1,1,.94-4.09c3.41.78,6.89,1.44,10.34,2a2.1,2.1,0,0,1-.31,4.18ZM434.16,836a2.1,2.1,0,0,1-.48-4.15c3.39-.79,6.8-1.73,10.15-2.79a2.1,2.1,0,0,1,1.27,4c-3.45,1.09-7,2.06-10.46,2.88A2,2,0,0,1,434.16,836Zm-73.89-2.62a2,2,0,0,1-.63-.1c-2.71-.84-5.46-1.78-8.15-2.8l-2.08-.8a2.1,2.1,0,0,1,1.54-3.91c.67.27,1.35.53,2,.78,2.61,1,5.27,1.9,7.91,2.72a2.1,2.1,0,0,1-.62,4.11Zm94.25-3.83a2.09,2.09,0,0,1-.78-4c3.24-1.3,6.48-2.75,9.62-4.29a2.1,2.1,0,1,1,1.85,3.77c-3.23,1.59-6.57,3.07-9.91,4.41A1.93,1.93,0,0,1,454.52,829.51Zm-114.13-4a2.09,2.09,0,0,1-.91-.21c-3.26-1.58-6.49-3.3-9.58-5.1a2.1,2.1,0,0,1,2.11-3.63c3,1.75,6.13,3.42,9.3,5a2.1,2.1,0,0,1-.92,4Zm133.3-5.4a2.1,2.1,0,0,1-1.07-3.91c3-1.77,6-3.68,8.87-5.68a2.1,2.1,0,1,1,2.4,3.44c-3,2.07-6,4-9.14,5.86A2.14,2.14,0,0,1,473.69,820.09Zm-151.77-5.35a2.11,2.11,0,0,1-1.19-.37c-3-2-5.88-4.22-8.69-6.49a2.1,2.1,0,1,1,2.63-3.27c2.73,2.2,5.57,4.32,8.44,6.3a2.1,2.1,0,0,1-1.19,3.83Zm169.3-6.85a2.13,2.13,0,0,1-1.63-.77,2.11,2.11,0,0,1,.3-3c2.72-2.22,5.38-4.56,7.91-6.95a2.1,2.1,0,0,1,2.89,3c-2.6,2.47-5.34,4.88-8.14,7.17A2.14,2.14,0,0,1,491.22,807.89ZM305.3,801.32a2.09,2.09,0,0,1-1.44-.58c-2.62-2.47-5.18-5.07-7.6-7.73a2.1,2.1,0,1,1,3.1-2.83c2.36,2.58,4.84,5.11,7.38,7.51a2.1,2.1,0,0,1-1.44,3.63Zm201.4-8.15a2,2,0,0,1-1.4-.54,2.09,2.09,0,0,1-.15-3c2.34-2.6,4.62-5.32,6.75-8.08a2.1,2.1,0,0,1,3.32,2.57c-2.2,2.85-4.54,5.64-7,8.32A2.07,2.07,0,0,1,506.7,793.17Zm13.07-16.89A2.09,2.09,0,0,1,518,773c1.92-2.92,3.75-5.95,5.45-9a2.1,2.1,0,1,1,3.67,2c-1.75,3.16-3.64,6.28-5.61,9.29A2.12,2.12,0,0,1,519.77,776.28Zm10.35-18.68a2.09,2.09,0,0,1-1.9-3c1.35-3,2.62-6,3.77-9l.26-.68a2.1,2.1,0,1,1,3.93,1.46l-.26.7c-1.19,3.15-2.49,6.28-3.89,9.32A2.09,2.09,0,0,1,530.12,757.6Zm7.44-20a2.32,2.32,0,0,1-.58-.08,2.1,2.1,0,0,1-1.44-2.6c1-3.36,1.82-6.8,2.54-10.22a2.1,2.1,0,0,1,4.11.85c-.74,3.53-1.61,7.07-2.61,10.53A2.11,2.11,0,0,1,537.56,737.58Z" transform="translate(-128.44 -154.03)"/><path class="clc-7" d="M290.87,785.46a2.09,2.09,0,0,1-1.65-.81c-1.1-1.4-2.16-2.82-3.2-4.26a2.1,2.1,0,1,1,3.41-2.45c1,1.39,2,2.77,3.09,4.13a2.1,2.1,0,0,1-1.65,3.39Z" transform="translate(-128.44 -154.03)"/><path class="clc-27" d="M306.92,748.43a1.71,1.71,0,0,0,1.67,1.05l20.56-1.25a89.7,89.7,0,0,0,20.55,20.56l-1.25,20.55A1.71,1.71,0,0,0,349.5,791l22.82,9.45a1.69,1.69,0,0,0,1.92-.44l13.65-15.41a89.73,89.73,0,0,0,29.07,0L430.61,800a1.69,1.69,0,0,0,1.92.44L455.36,791a1.7,1.7,0,0,0,1-1.67l-1.25-20.56a89.74,89.74,0,0,0,20.57-20.55l20.54,1.25a1.71,1.71,0,0,0,1.67-1l9.46-22.83a1.71,1.71,0,0,0-.44-1.92l-15.42-13.64a89.51,89.51,0,0,0,0-29.08L507,667.32a1.71,1.71,0,0,0,.44-1.92l-9.46-22.83a1.69,1.69,0,0,0-1.66-1l-20.57,1.25a89.5,89.5,0,0,0-20.55-20.56l1.25-20.55a1.69,1.69,0,0,0-1-1.67l-22.83-9.46a1.7,1.7,0,0,0-1.91.45L417,606.4a89.73,89.73,0,0,0-29.07,0L374.24,591a1.69,1.69,0,0,0-1.91-.45L349.5,600a1.68,1.68,0,0,0-1,1.67l1.24,20.56a89.7,89.7,0,0,0-20.56,20.55l-20.55-1.25a1.68,1.68,0,0,0-1.66,1l-9.46,22.83a1.68,1.68,0,0,0,.44,1.91L313.32,681a89.73,89.73,0,0,0,0,29.07l-15.42,13.66a1.69,1.69,0,0,0-.44,1.92Z" transform="translate(-128.44 -154.03)"/><path class="clc-4" d="M402.44,719.55a24.57,24.57,0,0,1-3.5-.26h0a24,24,0,1,1,22.77-38.14,23.81,23.81,0,0,1,4.5,17.84A24.07,24.07,0,0,1,402.44,719.55Zm-2.89-4.41a19.87,19.87,0,0,0,22.51-16.76,19.84,19.84,0,1,0-39.26-5.75,19.87,19.87,0,0,0,16.75,22.51Z" transform="translate(-128.44 -154.03)"/><path class="clc-4" d="M402.81,757a61.41,61.41,0,0,1-23.54-4.7,62.26,62.26,0,0,1-10.77-5.77l-.77-.51a2.1,2.1,0,0,1,2.39-3.46,57.57,57.57,0,0,0,85.32-23.88c.07-.16.14-.33.22-.49l.38-.9A57.54,57.54,0,1,0,346,703.66a1.62,1.62,0,0,1,0,.31,2.1,2.1,0,0,1-4.17.3,60.29,60.29,0,0,1-.67-9A61.73,61.73,0,1,1,402.81,757Z" transform="translate(-128.44 -154.03)"/></g><g id="gear6"><path class="clc-4" d="M1532.89,567.28h0a5.24,5.24,0,0,1-5.21-5.28c0-2.85.09-5.74.22-8.6a5.25,5.25,0,0,1,10.48.48c-.12,2.72-.19,5.47-.21,8.18A5.25,5.25,0,0,1,1532.89,567.28Z" transform="translate(-128.44 -154.03)"/><path class="clc-4" d="M1536.12,531.38a5.58,5.58,0,0,1-.91-.07,5.25,5.25,0,0,1-4.27-6.08c1-5.7,2.24-11.44,3.68-17.05a5.25,5.25,0,1,1,10.17,2.61c-1.38,5.34-2.56,10.81-3.51,16.25A5.24,5.24,0,0,1,1536.12,531.38Zm12.14-43a5.25,5.25,0,0,1-4.88-7.18c2.13-5.4,4.5-10.76,7-15.95a5.25,5.25,0,1,1,9.43,4.6c-2.42,4.95-4.67,10.07-6.71,15.21A5.26,5.26,0,0,1,1548.26,488.42Zm20.56-39.62a5.24,5.24,0,0,1-4.38-8.13c3.19-4.86,6.61-9.63,10.16-14.19a5.24,5.24,0,0,1,8.28,6.44c-3.38,4.35-6.63,8.89-9.67,13.52A5.25,5.25,0,0,1,1568.82,448.8Zm28.26-34.57a5.25,5.25,0,0,1-3.7-9c4.1-4.07,8.42-8,12.85-11.8a5.25,5.25,0,1,1,6.79,8c-4.21,3.57-8.33,7.36-12.24,11.24A5.22,5.22,0,0,1,1597.08,414.23Zm299.36-7.57a5.19,5.19,0,0,1-3.51-1.35c-4.11-3.69-8.41-7.27-12.79-10.62a5.25,5.25,0,1,1,6.39-8.33c4.59,3.52,9.1,7.27,13.42,11.15a5.25,5.25,0,0,1-3.51,9.15Zm-264.62-20.49a5.25,5.25,0,0,1-2.87-9.65c4.86-3.16,9.9-6.17,15-8.93a5.25,5.25,0,0,1,5,9.22c-4.85,2.63-9.65,5.5-14.28,8.51A5.21,5.21,0,0,1,1631.82,386.17Zm228.51-5.78a5.25,5.25,0,0,1-2.63-.71c-4.76-2.77-9.7-5.38-14.69-7.78a5.25,5.25,0,0,1,4.55-9.47c5.23,2.52,10.42,5.27,15.42,8.17a5.25,5.25,0,0,1-2.65,9.79Zm-188.8-14.62a5.25,5.25,0,0,1-1.91-10.14c5.39-2.11,10.94-4,16.48-5.71a5.25,5.25,0,0,1,3,10c-5.28,1.6-10.56,3.44-15.7,5.45A5.38,5.38,0,0,1,1671.53,365.77ZM1819.64,362a5.13,5.13,0,0,1-1.67-.28c-5.24-1.75-10.61-3.31-16-4.65a5.25,5.25,0,0,1,2.55-10.19c5.61,1.41,11.24,3,16.74,4.89a5.25,5.25,0,0,1-1.66,10.23Zm-105.1-8.19a5.25,5.25,0,0,1-.87-10.42c5.69-1,11.51-1.72,17.29-2.24a5.25,5.25,0,1,1,.94,10.46c-5.5.49-11.05,1.21-16.48,2.13A5.3,5.3,0,0,1,1714.54,353.84Zm61.54-1.57c-.21,0-.41,0-.62,0-5.46-.65-11-1.08-16.57-1.3a5.25,5.25,0,0,1,.4-10.49c5.81.23,11.66.68,17.4,1.36a5.25,5.25,0,0,1-.61,10.46Z" transform="translate(-128.44 -154.03)"/><path class="clc-4" d="M1921.2,433a5.27,5.27,0,0,1-4.11-2c-1.68-2.11-3.43-4.24-5.22-6.31a5.25,5.25,0,1,1,8-6.84c1.87,2.18,3.71,4.41,5.47,6.62a5.26,5.26,0,0,1-4.11,8.52Z" transform="translate(-128.44 -154.03)"/><path class="clc-23" d="M1966.8,596.79a5.32,5.32,0,0,1-.69,0,5.25,5.25,0,0,1-4.52-5.89c.35-2.69.66-5.43.91-8.14a5.25,5.25,0,0,1,10.45,1c-.26,2.84-.58,5.72-1,8.55A5.25,5.25,0,0,1,1966.8,596.79Z" transform="translate(-128.44 -154.03)"/><path class="clc-23" d="M1756.68,786.45a5.25,5.25,0,0,1-.14-10.49c5.43-.15,10.92-.51,16.32-1.08a5.25,5.25,0,1,1,1.1,10.44c-5.67.59-11.43,1-17.13,1.13Zm-27.2-1-.52,0c-5.65-.56-11.37-1.35-17-2.35a5.25,5.25,0,0,1,1.83-10.34c5.36,1,10.81,1.71,16.2,2.24a5.25,5.25,0,0,1-.51,10.47Zm70.75-4.69a5.25,5.25,0,0,1-1.19-10.36c5.27-1.23,10.58-2.69,15.77-4.33a5.25,5.25,0,0,1,3.17,10c-5.45,1.72-11,3.25-16.55,4.55A5.44,5.44,0,0,1,1800.23,780.8Zm-113.81-4a5.26,5.26,0,0,1-1.55-.24c-4.32-1.34-8.65-2.82-12.87-4.41-1.11-.43-2.22-.85-3.32-1.29a5.25,5.25,0,1,1,3.86-9.76c1,.42,2.11.82,3.17,1.22,4,1.52,8.15,2.94,12.27,4.22a5.25,5.25,0,0,1-1.56,10.26Zm155.37-10.22a5.25,5.25,0,0,1-2.2-10c4.94-2.28,9.85-4.76,14.59-7.4a5.25,5.25,0,0,1,5.11,9.17c-5,2.77-10.13,5.38-15.31,7.76A5.2,5.2,0,0,1,1841.79,766.55ZM1646,759.64a5.29,5.29,0,0,1-2.51-.64c-5-2.74-10-5.71-14.74-8.82a5.25,5.25,0,1,1,5.74-8.79c4.54,3,9.27,5.79,14,8.4a5.25,5.25,0,0,1-2.53,9.85Zm233.71-15.37a5.25,5.25,0,0,1-3.11-9.48c4.4-3.22,8.71-6.64,12.82-10.17a5.25,5.25,0,0,1,6.84,8c-4.32,3.7-8.84,7.29-13.45,10.67A5.24,5.24,0,0,1,1879.66,744.27Zm-269.92-9.51a5.21,5.21,0,0,1-3.39-1.25c-4.35-3.69-8.6-7.6-12.65-11.61a5.25,5.25,0,1,1,7.4-7.45c3.85,3.82,7.9,7.54,12,11.06a5.25,5.25,0,0,1-3.4,9.25Zm302.56-19.9a5.25,5.25,0,0,1-3.89-8.78c3.64-4,7.17-8.23,10.49-12.53a5.25,5.25,0,0,1,8.31,6.42c-3.49,4.52-7.2,8.94-11,13.16A5.22,5.22,0,0,1,1912.3,714.86Zm26-35.4a5.26,5.26,0,0,1-4.51-7.92c2.75-4.67,5.36-9.51,7.75-14.4a5.25,5.25,0,0,1,9.43,4.62c-2.52,5.13-5.25,10.21-8.14,15.11A5.26,5.26,0,0,1,1938.32,679.46Zm18.39-39.9a5.12,5.12,0,0,1-1.71-.29,5.24,5.24,0,0,1-3.25-6.67c1.77-5.15,3.37-10.41,4.74-15.66a5.25,5.25,0,1,1,10.16,2.66c-1.44,5.5-3.12,11-5,16.42A5.24,5.24,0,0,1,1956.71,639.56Z" transform="translate(-128.44 -154.03)"/><path class="clc-23" d="M1579.26,703a5.25,5.25,0,0,1-4.14-2c-1.77-2.27-3.51-4.58-5.16-6.88a5.24,5.24,0,1,1,8.51-6.13c1.58,2.18,3.23,4.38,4.92,6.54a5.26,5.26,0,0,1-4.13,8.49Z" transform="translate(-128.44 -154.03)"/><path class="clc-28" d="M1603.87,643.57a2.61,2.61,0,0,0,2.57,1.61l31.76-1.93A138.69,138.69,0,0,0,1670,675L1668,706.75a2.62,2.62,0,0,0,1.61,2.58l35.26,14.6a2.6,2.6,0,0,0,3-.68l21.08-23.8a138.61,138.61,0,0,0,44.9,0l21.1,23.82a2.59,2.59,0,0,0,3,.68l35.26-14.6a2.6,2.6,0,0,0,1.61-2.57L1832.83,675a138.49,138.49,0,0,0,31.76-31.75l31.74,1.93a2.6,2.6,0,0,0,2.57-1.61l14.61-35.26a2.62,2.62,0,0,0-.68-3L1889,584.27a138.61,138.61,0,0,0,0-44.9l23.82-21.1a2.6,2.6,0,0,0,.68-2.95l-14.6-35.26a2.62,2.62,0,0,0-2.58-1.61l-31.76,1.93a138.49,138.49,0,0,0-31.74-31.77l1.93-31.74a2.6,2.6,0,0,0-1.61-2.57l-35.26-14.61a2.62,2.62,0,0,0-3,.68l-21.08,23.81a138.67,138.67,0,0,0-44.91,0l-21.09-23.82a2.62,2.62,0,0,0-3-.68l-35.26,14.6a2.64,2.64,0,0,0-1.61,2.58l1.93,31.76a138.64,138.64,0,0,0-31.76,31.74l-31.74-1.93a2.62,2.62,0,0,0-2.58,1.61l-14.6,35.26a2.6,2.6,0,0,0,.68,3l23.8,21.08a138.67,138.67,0,0,0,0,44.91L1590,605.35a2.6,2.6,0,0,0-.68,3Z" transform="translate(-128.44 -154.03)"/><path class="clc-4" d="M1751.41,602a41.53,41.53,0,0,1-5.85-.42,40.22,40.22,0,1,1,5.85.42Zm0-67.78a27.56,27.56,0,1,0,4,.29A27.63,27.63,0,0,0,1751.37,534.22Z" transform="translate(-128.44 -154.03)"/><path class="clc-4" d="M1752,655.63a93.63,93.63,0,0,1-35.93-7.17q-3.16-1.31-6.21-2.84a93.52,93.52,0,0,1-8.83-5l0,0-.1-.06-.76-.5-1.66-1.12a2.1,2.1,0,0,1-.91-1.73,2.11,2.11,0,0,1,3.3-1.73,89.78,89.78,0,0,0,16.83,9.16h0A90.09,90.09,0,0,0,1835.19,596l.06-.15a90,90,0,1,0-173.15-34.43,88.82,88.82,0,0,0,1,13.12c0,.11,0,.21,0,.32a2.1,2.1,0,0,1-4.18.3A94.2,94.2,0,1,1,1752,655.63Z" transform="translate(-128.44 -154.03)"/></g><g id="gear5"><path class="clc-4" d="M1908.87,419.7h0a5.25,5.25,0,0,1-5.22-5.28c0-2.92.15-5.87.38-8.77a5.25,5.25,0,1,1,10.46.83c-.21,2.65-.32,5.34-.34,8A5.26,5.26,0,0,1,1908.87,419.7Z" transform="translate(-128.44 -154.03)"/><path class="clc-4" d="M1914,386.46a5.41,5.41,0,0,1-1.53-.23,5.24,5.24,0,0,1-3.49-6.55c.77-2.54,1.64-5.1,2.59-7.61s2-5.13,3.17-7.61a5.25,5.25,0,1,1,9.55,4.35c-1,2.27-2,4.62-2.9,7s-1.66,4.63-2.37,7A5.26,5.26,0,0,1,1914,386.46Zm18.43-36.33a5.25,5.25,0,0,1-4.19-8.41,121.25,121.25,0,0,1,10.64-12.33,5.25,5.25,0,0,1,7.47,7.38,112.06,112.06,0,0,0-9.73,11.26A5.21,5.21,0,0,1,1932.38,350.13Zm160.27-25.58a5.24,5.24,0,0,1-3-.94,111.44,111.44,0,0,0-12.76-7.67,5.25,5.25,0,1,1,4.79-9.34,123.19,123.19,0,0,1,14,8.39,5.25,5.25,0,0,1-3,9.56Zm-130.45-2.18a5.25,5.25,0,0,1-2.86-9.66,123.47,123.47,0,0,1,14.23-7.92,5.25,5.25,0,1,1,4.48,9.49,112.2,112.2,0,0,0-13,7.24A5.29,5.29,0,0,1,1962.2,322.37Zm93.48-14.93a4.87,4.87,0,0,1-1.35-.18,112.19,112.19,0,0,0-14.61-2.85A5.25,5.25,0,0,1,2041,294a123.4,123.4,0,0,1,16,3.13,5.25,5.25,0,0,1-1.35,10.32Zm-56-.94a5.25,5.25,0,0,1-1.17-10.37,123.19,123.19,0,0,1,16.08-2.58,5.25,5.25,0,1,1,1,10.45,112.48,112.48,0,0,0-14.7,2.36A5.28,5.28,0,0,1,1999.7,306.5Z" transform="translate(-128.44 -154.03)"/><path class="clc-4" d="M2117.25,347.64a5.23,5.23,0,0,1-4.11-2c-1.66-2.08-3.41-4.13-5.21-6.1a5.25,5.25,0,0,1,7.73-7.1c2,2.15,3.88,4.39,5.69,6.67a5.24,5.24,0,0,1-4.1,8.51Z" transform="translate(-128.44 -154.03)"/><path class="clc-4" d="M2141.15,439.39a5.1,5.1,0,0,1-.87-.07,5.25,5.25,0,0,1-4.32-6c.44-2.63.78-5.3,1-7.95a5.25,5.25,0,0,1,10.46,1c-.27,2.9-.64,5.83-1.12,8.71A5.25,5.25,0,0,1,2141.15,439.39Z" transform="translate(-128.44 -154.03)"/><path class="clc-4" d="M2018.71,537.14h-.33a122.92,122.92,0,0,1-18.68-2.6,5.25,5.25,0,1,1,2.25-10.26,110.94,110.94,0,0,0,17.07,2.38,5.25,5.25,0,0,1-.31,10.49Zm29.21-1.92a5.25,5.25,0,0,1-1-10.4,111.54,111.54,0,0,0,16.62-4.57,5.25,5.25,0,0,1,3.55,9.88,123,123,0,0,1-18.18,5A5.72,5.72,0,0,1,2047.92,535.22Zm-74.71-10.37a5.23,5.23,0,0,1-2.35-.56,123.08,123.08,0,0,1-16.16-9.74,5.25,5.25,0,1,1,6.11-8.54,111.41,111.41,0,0,0,14.76,8.9,5.25,5.25,0,0,1-2.36,9.94Zm118.23-7.69a5.25,5.25,0,0,1-3-9.59A112.67,112.67,0,0,0,2102,496.82a5.25,5.25,0,1,1,7.16,7.68,122.89,122.89,0,0,1-14.75,11.76A5.26,5.26,0,0,1,2091.44,517.16Zm32.84-33.76a5.32,5.32,0,0,1-2.82-.82,5.25,5.25,0,0,1-1.6-7.25,111.36,111.36,0,0,0,8.12-15.21,5.25,5.25,0,1,1,9.61,4.21,120.53,120.53,0,0,1-8.88,16.64A5.25,5.25,0,0,1,2124.28,483.4Z" transform="translate(-128.44 -154.03)"/><path class="clc-4" d="M1936.2,495.55a5.25,5.25,0,0,1-4-1.88c-1.87-2.23-3.68-4.57-5.38-6.92a5.25,5.25,0,1,1,8.52-6.14c1.55,2.15,3.21,4.28,4.92,6.32a5.25,5.25,0,0,1-4,8.62Z" transform="translate(-128.44 -154.03)"/><path class="clc-7" d="M1947,458.21a1.4,1.4,0,0,0,1.38.86l17.05-1a74.27,74.27,0,0,0,17,17.05l-1,17a1.4,1.4,0,0,0,.86,1.38l18.92,7.84a1.41,1.41,0,0,0,1.59-.37l11.31-12.77a74.38,74.38,0,0,0,24.1,0L2049.48,501a1.42,1.42,0,0,0,1.59.36l18.92-7.84a1.4,1.4,0,0,0,.87-1.38l-1-17a74.47,74.47,0,0,0,17-17l17,1a1.4,1.4,0,0,0,1.38-.86l7.84-18.92a1.4,1.4,0,0,0-.37-1.59L2100,426.39a74.38,74.38,0,0,0,0-24.1L2112.75,391a1.39,1.39,0,0,0,.37-1.58l-7.84-18.93a1.4,1.4,0,0,0-1.38-.86l-17,1a74.32,74.32,0,0,0-17-17.05l1-17a1.4,1.4,0,0,0-.86-1.38l-18.93-7.84a1.39,1.39,0,0,0-1.58.37l-11.31,12.77a74.38,74.38,0,0,0-24.1,0l-11.32-12.79a1.42,1.42,0,0,0-1.59-.36l-18.92,7.84a1.4,1.4,0,0,0-.86,1.38l1,17a74.43,74.43,0,0,0-17,17l-17-1a1.41,1.41,0,0,0-1.39.86l-7.83,18.92a1.4,1.4,0,0,0,.36,1.59l12.78,11.31a74.38,74.38,0,0,0,0,24.1l-12.78,11.32a1.38,1.38,0,0,0-.36,1.58Z" transform="translate(-128.44 -154.03)"/><path class="clc-2" d="M2026.17,438.82a24.19,24.19,0,0,1-3.59-.26h0a24.42,24.42,0,1,1,3.59.26Zm-.06-36.37a11.91,11.91,0,0,0-11.75,10.16,11.89,11.89,0,0,0,10,13.48h0a11.89,11.89,0,1,0,3.44-23.52A12.58,12.58,0,0,0,2026.11,402.45Z" transform="translate(-128.44 -154.03)"/><path class="clc-2" d="M2026.51,465.68a51.53,51.53,0,0,1-19.72-3.95h0c-.55-.23-1.11-.47-1.65-.72a52.17,52.17,0,0,1-6.88-3.78l-1.1-.74a2.09,2.09,0,0,1-.9-1.73,2,2,0,0,1,.37-1.19,2.09,2.09,0,0,1,2.92-.53,47.59,47.59,0,0,0,8.85,4.81h0c.6.25,1.21.49,1.82.71a47,47,0,0,0,23.34,2.39h0a47.54,47.54,0,0,0,11-3.09A47.34,47.34,0,1,0,1979.69,421a1.62,1.62,0,0,1,0,.31,2.1,2.1,0,0,1-4.17.31,51.45,51.45,0,1,1,51,44Z" transform="translate(-128.44 -154.03)"/></g><g id="gear4"><path class="clc-23" d="M975.45,370.46h0a2.11,2.11,0,0,1-2.09-2.11c0-1.78.07-3.57.17-5.35a2.1,2.1,0,0,1,4.2.24c-.1,1.71-.16,3.43-.17,5.13A2.09,2.09,0,0,1,975.45,370.46Z" transform="translate(-128.44 -154.03)"/><path class="clc-23" d="M976.78,354.74a1.87,1.87,0,0,1-.34,0,2.09,2.09,0,0,1-1.74-2.4A104.57,104.57,0,0,1,977,341.8a2.1,2.1,0,1,1,4,1.09A103,103,0,0,0,978.84,353,2.08,2.08,0,0,1,976.78,354.74Zm5.48-20.32a2,2,0,0,1-.75-.14,2.08,2.08,0,0,1-1.21-2.71,104.78,104.78,0,0,1,4.34-9.83,2.1,2.1,0,0,1,3.75,1.89,101.7,101.7,0,0,0-4.17,9.44A2.1,2.1,0,0,1,982.26,334.42Zm9.46-18.79a2.06,2.06,0,0,1-1.13-.33,2.1,2.1,0,0,1-.63-2.9,103.79,103.79,0,0,1,6.26-8.75,2.1,2.1,0,1,1,3.28,2.62c-2.13,2.68-4.15,5.51-6,8.4A2.09,2.09,0,0,1,991.72,315.63Zm13.13-16.46a2.1,2.1,0,0,1-1.5-3.57,104.9,104.9,0,0,1,7.92-7.28,2.1,2.1,0,1,1,2.68,3.24,98.5,98.5,0,0,0-7.6,7A2.11,2.11,0,0,1,1004.85,299.17Zm142.92-3.66a2.13,2.13,0,0,1-1.42-.56,100.14,100.14,0,0,0-7.94-6.59,2.1,2.1,0,1,1,2.51-3.36,104.22,104.22,0,0,1,8.28,6.86,2.1,2.1,0,0,1-1.43,3.65Zm-126.71-9.77a2.1,2.1,0,0,1-1.17-3.84,105.18,105.18,0,0,1,9.24-5.51,2.1,2.1,0,0,1,2,3.71,99.09,99.09,0,0,0-8.86,5.29A2.1,2.1,0,0,1,1021.06,285.74Zm109.84-2.81a2.12,2.12,0,0,1-1.07-.3,101.77,101.77,0,0,0-9.13-4.82,2.1,2.1,0,0,1,1.77-3.81,106.3,106.3,0,0,1,9.51,5,2.1,2.1,0,0,1-1.08,3.91Zm-91.24-7a2.1,2.1,0,0,1-.79-4,107,107,0,0,1,10.16-3.52,2.1,2.1,0,0,1,1.17,4c-3.29,1-6.57,2.1-9.75,3.38A2,2,0,0,1,1039.66,275.9Zm72.16-1.85a2.37,2.37,0,0,1-.69-.11,102.72,102.72,0,0,0-9.91-2.89,2.09,2.09,0,0,1-1.56-2.52,2.11,2.11,0,0,1,2.53-1.57,106.36,106.36,0,0,1,10.32,3,2.1,2.1,0,0,1-.69,4.08Zm-52-4a2.1,2.1,0,0,1-.37-4.16,105.49,105.49,0,0,1,10.65-1.39,2.08,2.08,0,0,1,2.26,1.93,2.1,2.1,0,0,1-1.93,2.26,97.67,97.67,0,0,0-10.23,1.33Zm31.48-.82h-.27a101.6,101.6,0,0,0-10.29-.8,2.09,2.09,0,0,1-2-2.15,2.06,2.06,0,0,1,2.15-2.05,104.53,104.53,0,0,1,10.72.83,2.1,2.1,0,0,1-.27,4.18Z" transform="translate(-128.44 -154.03)"/><path class="clc-23" d="M1158.58,307.13a2.08,2.08,0,0,1-1.64-.79q-1.61-2-3.3-3.94a2.1,2.1,0,0,1,3.15-2.78c1.18,1.34,2.33,2.71,3.43,4.11a2.1,2.1,0,0,1-.33,2.95A2.14,2.14,0,0,1,1158.58,307.13Z" transform="translate(-128.44 -154.03)"/><path class="clc-23" d="M1179.91,385.66l-.3,0a2.1,2.1,0,0,1-1.78-2.38c.24-1.71.44-3.41.6-5.11a2.1,2.1,0,1,1,4.18.39c-.16,1.77-.37,3.54-.63,5.32A2.1,2.1,0,0,1,1179.91,385.66Z" transform="translate(-128.44 -154.03)"/><path class="clc-23" d="M1079.8,473.85a2.1,2.1,0,0,1,0-4.2,101,101,0,0,0,10.13-.68,2.1,2.1,0,1,1,.49,4.17c-3.49.41-7,.65-10.55.71Zm-10.36-.37h-.18a102.7,102.7,0,0,1-10.48-1.44,2.1,2.1,0,1,1,.78-4.12c3.32.62,6.7,1.09,10.06,1.38a2.1,2.1,0,0,1-.18,4.19Zm30.91-2.05a2.1,2.1,0,0,1-.45-4.15,100.38,100.38,0,0,0,9.78-2.7,2.1,2.1,0,1,1,1.32,4,105.17,105.17,0,0,1-10.19,2.81A2.4,2.4,0,0,1,1100.35,471.43Zm-51.25-1.8a2.08,2.08,0,0,1-.6-.09c-2.43-.72-4.89-1.55-7.3-2.46-.9-.34-1.79-.69-2.68-1.05a2.1,2.1,0,1,1,1.59-3.88c.85.34,1.7.68,2.57,1,2.31.87,4.68,1.67,7,2.36a2.11,2.11,0,0,1-.6,4.12Zm70.91-4.69a2.1,2.1,0,0,1-.86-4,99.89,99.89,0,0,0,9.06-4.59,2.1,2.1,0,1,1,2.09,3.64c-3,1.74-6.22,3.35-9.44,4.79A2.09,2.09,0,0,1,1120,464.94Zm-90.08-3.14a2.08,2.08,0,0,1-1-.25,105.07,105.07,0,0,1-9.08-5.42,2.12,2.12,0,0,1-.58-2.92,2.1,2.1,0,0,1,2.91-.57,100.75,100.75,0,0,0,8.72,5.2,2.1,2.1,0,0,1-1,4Zm108-7.14a2.1,2.1,0,0,1-1.22-3.81c2.75-2,5.43-4.09,8-6.31a2.1,2.1,0,1,1,2.77,3.15,101.28,101.28,0,0,1-8.29,6.57A2,2,0,0,1,1138,454.66Zm-125.27-4.37a2.09,2.09,0,0,1-1.34-.49c-2.7-2.23-5.32-4.64-7.8-7.14a2.1,2.1,0,0,1,3-3c2.38,2.41,4.9,4.71,7.49,6.86a2.1,2.1,0,0,1-1.34,3.72ZM1153.53,441a2.13,2.13,0,0,1-1.43-.56,2.11,2.11,0,0,1-.11-3,101,101,0,0,0,6.53-7.78,2.1,2.1,0,0,1,3.35,2.53c-2.12,2.8-4.41,5.53-6.8,8.11A2.1,2.1,0,0,1,1153.53,441ZM1166,424.45a2.08,2.08,0,0,1-1.09-.31,2.1,2.1,0,0,1-.71-2.88,101.2,101.2,0,0,0,4.82-8.94,2.1,2.1,0,0,1,3.79,1.8,104.06,104.06,0,0,1-5,9.31A2.12,2.12,0,0,1,1166,424.45Zm8.89-18.7a2.15,2.15,0,0,1-.7-.12,2.1,2.1,0,0,1-1.27-2.68c1.14-3.2,2.13-6.47,2.94-9.73a2.1,2.1,0,0,1,4.08,1c-.85,3.39-1.88,6.8-3.07,10.12A2.09,2.09,0,0,1,1174.9,405.75Z" transform="translate(-128.44 -154.03)"/><path class="clc-23" d="M998.12,435.47a2.13,2.13,0,0,1-1.64-.78c-1.11-1.4-2.2-2.82-3.24-4.26a2.1,2.1,0,0,1,3.41-2.46c1,1.38,2,2.75,3.11,4.09a2.09,2.09,0,0,1-1.64,3.41Z" transform="translate(-128.44 -154.03)"/><path class="clc-29" d="M1008.93,406.81a1.23,1.23,0,0,0,1.21.76l15-.91a65.28,65.28,0,0,0,15,15l-.91,15a1.22,1.22,0,0,0,.76,1.21l16.63,6.89a1.23,1.23,0,0,0,1.39-.32l10-11.23a65.38,65.38,0,0,0,21.17,0l10,11.23a1.24,1.24,0,0,0,1.39.32l16.63-6.88a1.24,1.24,0,0,0,.76-1.22l-.91-15a65.08,65.08,0,0,0,15-15l15,.91a1.21,1.21,0,0,0,1.21-.75l6.89-16.63a1.25,1.25,0,0,0-.32-1.4l-11.23-9.94a65.44,65.44,0,0,0,0-21.18l11.23-9.94a1.23,1.23,0,0,0,.32-1.4l-6.88-16.63a1.26,1.26,0,0,0-1.22-.76l-15,.91a65.43,65.43,0,0,0-15-15l.9-15a1.22,1.22,0,0,0-.75-1.21l-16.63-6.89a1.25,1.25,0,0,0-1.4.32l-9.94,11.23a65.16,65.16,0,0,0-21.18,0L1058,292.12a1.25,1.25,0,0,0-1.4-.32l-16.63,6.89a1.24,1.24,0,0,0-.76,1.21l.91,15a65.48,65.48,0,0,0-15,15l-15-.91a1.23,1.23,0,0,0-1.22.76L1002,346.33a1.22,1.22,0,0,0,.33,1.39l11.22,9.94a65.16,65.16,0,0,0,0,21.18l-11.24,10a1.24,1.24,0,0,0-.32,1.39Z" transform="translate(-128.44 -154.03)"/><path class="clc-4" d="M1078.51,386.34a18.08,18.08,0,1,1,17.88-15.46A18,18,0,0,1,1078.51,386.34Zm0-32a13.88,13.88,0,0,0-2,27.62h0a13.88,13.88,0,1,0,2-27.62Z" transform="translate(-128.44 -154.03)"/><path class="clc-4" d="M1078.84,413.64a45.61,45.61,0,0,1-17.43-3.49h0a46.34,46.34,0,0,1-7.6-4l-.06,0-.85-.58a2.07,2.07,0,0,1-.9-1.72,2,2,0,0,1,.37-1.2,2.1,2.1,0,0,1,2.92-.53,41.87,41.87,0,0,0,7.73,4.21h0a41.11,41.11,0,0,0,21.69,2.74h0a41.55,41.55,0,0,0,9.24-2.47l.14-.06.34-.13.19-.08a41.33,41.33,0,1,0-54-54,41.48,41.48,0,0,0-3.15,15.81,42,42,0,0,0,.44,6,1.71,1.71,0,0,1,0,.31,2.1,2.1,0,0,1-4.18.31,45,45,0,0,1-.49-6.64,45.49,45.49,0,1,1,45.54,45.55Z" transform="translate(-128.44 -154.03)"/></g><path class="clc-30" d="M2042.47,1038.83s1.73,9.8,2.58,19.51a6.69,6.69,0,0,1-6.4,7.24c-12.92.54-40.57,1.59-50.49,1.15a2.18,2.18,0,0,1-1.92-3h0a4.88,4.88,0,0,1,2.5-2.63l45.66-21Z" transform="translate(-128.44 -154.03)"/><path class="clc-31" d="M2043.89,1033.07l-1.39,11.72s-8,3.73-13.47-.46l3.32-13.07Z" transform="translate(-128.44 -154.03)"/><path class="clc-32" d="M2042.84,812.58c.6,3.06,3.23,152.83-12.78,219.95a2.27,2.27,0,0,0,1.33,2.65,39.68,39.68,0,0,0,13,2.65,3.91,3.91,0,0,0,3.89-2.82c4.58-15.57,26.51-93.59,29.37-168.12,3.2-83.28,0-2.84,0-2.84l-1.87-51.47Z" transform="translate(-128.44 -154.03)"/><path class="clc-33" d="M2095,1043.94s2.76,5,5.43,18.11a4.08,4.08,0,0,1-3.59,4.88c-4.27.42-10.84,1-16.1.92a4.06,4.06,0,0,1-4-4.53c.58-4.8,2.4-12.68,8-18.82Z" transform="translate(-128.44 -154.03)"/><path class="clc-34" d="M2097.42,1028.86l-3.25,17.73s-3.21,2.4-9.57.66l1.55-19.08Z" transform="translate(-128.44 -154.03)"/><path class="clc-35" d="M2106.21,817.18c13.09,79-2.84,195.3-8.22,218.06a3.56,3.56,0,0,1-2.86,2.7,24,24,0,0,1-10.24-.41,3.24,3.24,0,0,1-2.34-3c-.72-18.4.57-131.36-11.63-176a10.18,10.18,0,0,0-3.91-5.6l-23.68-16.83-1.81-27.21Z" transform="translate(-128.44 -154.03)"/><path class="clc-36" d="M2022.77,667.45c39.24-.65,82.54,10.3,82.54,10.3,11.69,68.25,2,147,2,147-30.37,8-64.64-4.87-64.64-4.87-5-28.53-28.61-108.81-28.61-108.81-19.17-2.38-35-7.91-48-15.22,9.92-11.5,14.6-26.13,16.63-34.78C1996.63,665.35,2010.67,667.65,2022.77,667.45Z" transform="translate(-128.44 -154.03)"/><path class="clc-37" d="M1906.87,609.65a7.51,7.51,0,0,1,8.73-2.45c5.78,24.39,36.05,44.17,67.16,53.84-2,8.65-6.71,23.28-16.63,34.78C1914.51,666.79,1906.87,609.65,1906.87,609.65Z" transform="translate(-128.44 -154.03)"/><path class="clc-38" d="M1907.81,610.84c-.41,1.28,4.26,3.23,7-2,.1-2.51,1.63-13.28.13-15.33-8-10.9-23.51-24.57-23.51-24.57a3.68,3.68,0,0,0-.46,5.12l7.52,7.84c-1.57,2.84-3.49,5.24-4.39,8.68a10.53,10.53,0,0,0,1.05,7.76,91.53,91.53,0,0,0,4.83,7.89A10.42,10.42,0,0,0,1907.81,610.84Z" transform="translate(-128.44 -154.03)"/><path class="clc-39" d="M1901.79,587l6.86,5.82,2.15,5.78-6.11,6.78s-2.06-11.48-3.59-14S1900.37,587.7,1901.79,587Z" transform="translate(-128.44 -154.03)"/><path class="clc-40" d="M2090.26,715.75l15-38S2142,702.66,2148,734.23a86.65,86.65,0,0,0-31.86,8.54C2113.41,727.86,2090.26,715.75,2090.26,715.75Z" transform="translate(-128.44 -154.03)"/><path class="clc-41" d="M2058.23,751.5s41.15,23.26,55,3.4a15.59,15.59,0,0,0,2.87-12.13,86.65,86.65,0,0,1,31.86-8.54,43.63,43.63,0,0,1-4.74,29.87c-24.32,44.49-90.47-2.46-90.47-2.46Z" transform="translate(-128.44 -154.03)"/><path class="clc-42" d="M2063.17,780.92l-22.45-78.43a2.31,2.31,0,0,0-1.94-1.65c-4.07-.47-15.86-1.8-29.47-3-16.4-1.39-35.44-2.51-46.82-1.56a2.3,2.3,0,0,0-1.88,3.3c6.47,13.09,33.09,66.35,46.42,83.79a2.28,2.28,0,0,0,1.85.91l52.11-.48A2.3,2.3,0,0,0,2063.17,780.92Z" transform="translate(-128.44 -154.03)"/><path class="clc-4" d="M2007,691.09l-16.28-2.72a1.18,1.18,0,0,0-1.31,1.52l1.62,4.89a1.17,1.17,0,0,0,1,.79l15.67,2.09a1.16,1.16,0,0,0,1.29-1.42l-1-4.27A1.14,1.14,0,0,0,2007,691.09Z" transform="translate(-128.44 -154.03)"/><path class="clc-4" d="M2019.17,704.87l-1.34-7a1.61,1.61,0,0,0-1.42-1.3l-32.89-3.34a1.62,1.62,0,0,0-1.73,2l2.09,8.7a1.61,1.61,0,0,0,1.49,1.24l32.13,1.62A1.62,1.62,0,0,0,2019.17,704.87Z" transform="translate(-128.44 -154.03)"/><path class="clc-43" d="M2057.75,762s3.13-12.86,1.86-17.43-3.7-10.43-11.85-9.12a119.32,119.32,0,0,0-17.77,4.73s.49,6,6.68,4l-3.84,3s.55,4.76,5.78,2.22l-3.57,3.94s2.25,3.91,6.1,1.4S2046.83,763.52,2057.75,762Z" transform="translate(-128.44 -154.03)"/><path class="clc-44" d="M2062.52,635.59,2075,671.7a1.29,1.29,0,0,1-.59,1.57c-3.4,1.88-15.66,7.32-30.44-2a6.12,6.12,0,0,1-2.82-4.38l-4-31.25Z" transform="translate(-128.44 -154.03)"/><path class="clc-45" d="M2035.35,602.16s-13.71,25.81-11.95,36.23,18.75,9.68,33.59,1.21l10.37-27.86Z" transform="translate(-128.44 -154.03)"/><path class="clc-46" d="M2056.33,625.92a1.07,1.07,0,0,1-.46-1.56,27.81,27.81,0,0,0,3.81-8.1s2.47-1.58-6.27-3.67-21.77-5.34-24.51-12.77c-2.67-7.25,4.35-25.49,15.54-11a1.07,1.07,0,0,0,1.69,0c1.83-2.39,6.66-7.34,13.35-4.34,6.27,2.81,7,7.41,6.89,9.72a1.05,1.05,0,0,0,1.25,1.08c3.17-.6,10.78-1.12,14.33,6.68,2.92,6.43,1,10.06-.71,11.84a1.06,1.06,0,0,0,.45,1.76c2.09.64,4.78,2.41,4.51,7.29-.38,6.74-7.92,6.15-10.06,5.84a1.08,1.08,0,0,0-.95.33c-1.84,2-10.14,10.69-19.11,11.74a1.08,1.08,0,0,1-1.13-1.42l3.89-11.3a1.06,1.06,0,0,0-.58-1.32Z" transform="translate(-128.44 -154.03)"/><path class="clc-47" d="M2054.77,627.52s9.76-6.7,10.47-1.06-8.79,8.17-13.49,6.07Z" transform="translate(-128.44 -154.03)"/><path class="clc-7" d="M1969.12,1491.35a3.76,3.76,0,0,0,4-3.49V1071.35a4,4,0,0,0-8,0v416.51A3.76,3.76,0,0,0,1969.12,1491.35Z" transform="translate(-128.44 -154.03)"/><path class="clc-7" d="M2077.15,1491.35a3.77,3.77,0,0,0,4-3.49V1071.35a4,4,0,0,0-8,0v416.51A3.77,3.77,0,0,0,2077.15,1491.35Z" transform="translate(-128.44 -154.03)"/><path class="clc-7" d="M2342.58,1494a4.42,4.42,0,0,0,1.55-.28,3.34,3.34,0,0,0,2.11-4.57L2142.38,1070a4.21,4.21,0,0,0-5.23-1.85,3.35,3.35,0,0,0-2.11,4.57l203.87,419.16A4,4,0,0,0,2342.58,1494Z" transform="translate(-128.44 -154.03)"/><path class="clc-7" d="M2216.65,1494a4.47,4.47,0,0,0,1.56-.28,3.34,3.34,0,0,0,2.11-4.57L2016.46,1070a4.22,4.22,0,0,0-5.23-1.85,3.34,3.34,0,0,0-2.11,4.57L2213,1491.87A4.06,4.06,0,0,0,2216.65,1494Z" transform="translate(-128.44 -154.03)"/><path class="clc-7" d="M1961.12,1075.18h190.36c2.1,0,3.81-2.2,3.81-4.91h0c0-2.71-1.71-4.91-3.81-4.91H1961.12c-2.11,0-3.81,2.2-3.81,4.91h0C1957.31,1073,1959,1075.18,1961.12,1075.18Z" transform="translate(-128.44 -154.03)"/><path class="clc-7" d="M2043.59,1138.93h126.29a3.52,3.52,0,1,0,0-7H2043.59a3.52,3.52,0,1,0,0,7Z" transform="translate(-128.44 -154.03)"/><rect class="clc-7" x="1953.9" y="1057.2" width="126.3" height="6.97"/><rect class="clc-7" x="1991.42" y="1136.47" width="126.3" height="6.97"/><path class="clc-7" d="M2159.2,1376.74h126.29a3.52,3.52,0,1,0,0-7H2159.2a3.52,3.52,0,1,0,0,7Z" transform="translate(-128.44 -154.03)"/><path class="clc-7" d="M2197.23,1456h126.3a3.52,3.52,0,1,0,0-7h-126.3a3.52,3.52,0,1,0,0,7Z" transform="translate(-128.44 -154.03)"/><path class="clc-4" d="M1141.87,1424.91c-49.47-59.23-250.31-291-437.72-382.79-13.38-6.55-28.7,4.39-26.68,19.15,12.73,93.32,81.93,356.85,457.83,376.83A8,8,0,0,0,1141.87,1424.91Z" transform="translate(-128.44 -154.03)"/><path class="clc-3" d="M1131,1432.23a4.13,4.13,0,0,1-1.89-.45c-143.33-72.29-238.3-150.88-292.73-204.09-59.13-57.79-83.91-97.87-84.94-99.55a4.2,4.2,0,0,1,7.16-4.38c.25.4,25.44,41.08,83.93,98.2,54,52.71,148.17,130.61,290.36,202.32a4.2,4.2,0,0,1-1.89,8Z" transform="translate(-128.44 -154.03)"/><path class="clc-4" d="M1142.44,1481.67c12-2,18.2-12.82,11.87-20.62-35-43.06-148.41-157.22-378.25-171.54-194.1-12.1-296.83-33.09-342.43-45.18-9.64-2.55-18.57,6.15-13.09,12.76C481,1330,706.58,1554.35,1142.44,1481.67Z" transform="translate(-128.44 -154.03)"/><path class="clc-3" d="M1142.26,1470.72a4.15,4.15,0,0,1-1.78-.39C1138,1469.17,890.37,1354.2,623.87,1328a4.2,4.2,0,1,1,.82-8.35c268,26.33,516.87,141.9,519.35,143.06a4.2,4.2,0,0,1-1.78,8Z" transform="translate(-128.44 -154.03)"/><path class="clc-48" d="M842.77,1483.76a3.89,3.89,0,0,1,.1-1c5-19.93,30-32.34,30-32.34l9.88.78c5.69,17.56,5,28.33,4,33.13,0,.14-.07.27-.11.4A235.32,235.32,0,0,1,842.77,1483.76Z" transform="translate(-128.44 -154.03)"/><path class="clc-49" d="M886.67,1484.72a4.28,4.28,0,0,1-3.13,3.16c-11.61,2.44-30,.48-37.79-.53a3.62,3.62,0,0,1-3-3.59A235.32,235.32,0,0,0,886.67,1484.72Z" transform="translate(-128.44 -154.03)"/><path class="clc-50" d="M886.71,1436.46l-4.19,20.16a3.28,3.28,0,0,1-2.81,2.71,28,28,0,0,1-6.49-.1,4.14,4.14,0,0,1-3.28-4.87l2.91-17.9Z" transform="translate(-128.44 -154.03)"/><path class="clc-51" d="M800,1484.46c10.92-.31,16.57-1.59,19.49-2.78q0,1.62,0,3.33a2.16,2.16,0,0,1-2.06,2.19l-60-.38a2.74,2.74,0,0,1-2.2-4C763.06,1483.48,783.08,1484.93,800,1484.46Z" transform="translate(-128.44 -154.03)"/><path class="clc-52" d="M755.2,1482.83a2.73,2.73,0,0,1,.23-.45c5.3-7.4,18.78-22.13,45.43-28.52l12.78-.4s5.69,9.89,5.8,28.22c-2.92,1.19-8.57,2.47-19.49,2.78C783.08,1484.93,763.06,1483.48,755.2,1482.83Z" transform="translate(-128.44 -154.03)"/><path class="clc-53" d="M816.58,1434.68c-.2.94-2.86,15.28-3.89,20.84a2.77,2.77,0,0,1-2.5,2.36,29.18,29.18,0,0,1-8.76-.68,3.81,3.81,0,0,1-2.62-4l1.43-22.69Z" transform="translate(-128.44 -154.03)"/><path class="clc-54" d="M826.27,1169.86S808.68,1290.69,796,1434.47a5.48,5.48,0,0,0,4.53,5.56,66.47,66.47,0,0,0,14.29,1.66,5.3,5.3,0,0,0,5.05-4.42c4.32-25.36,35.17-161.42,43.27-191.36,0,0,9.3,127.2,6.32,193.19a3.14,3.14,0,0,0,2.76,3.26,52.81,52.81,0,0,0,11.48,0,4.19,4.19,0,0,0,3.73-3.55c3.08-21.46,20.8-149.17,20.05-241.17-.05-5.19-6.09-47.81-6.09-47.81Z" transform="translate(-128.44 -154.03)"/><path class="clc-55" d="M675.54,1054.33s4.92-12.95,10.67-11.77,12,5.61,12,5.61l9.24,12.49s-25.93,10.21-35,4.36c0,0-26.49,4.58-59.93-.91a131.51,131.51,0,0,0,9.42-28.4C638.87,1045.3,657.11,1052.46,675.54,1054.33Z" transform="translate(-128.44 -154.03)"/><path class="clc-56" d="M535.24,960.34s37.92,47.77,86.69,75.37a131.51,131.51,0,0,1-9.42,28.4c-25.3-4.15-54.58-14.06-79.4-36.07Z" transform="translate(-128.44 -154.03)"/><path class="clc-57" d="M819.45,966.66l-2.35,63.23a175.21,175.21,0,0,1-19.12,5.43c-3.79-12.21-12.14-27.2-19-38.34C804.12,988.1,819.45,966.66,819.45,966.66Z" transform="translate(-128.44 -154.03)"/><path class="clc-58" d="M694,965.58c34.46,37.21,62.35,39.4,85,31.4,6.84,11.14,15.19,26.13,19,38.34C706,1055.6,684.29,971,684.29,971Z" transform="translate(-128.44 -154.03)"/><path class="clc-59" d="M687.05,961.63s-4-4.26-11.32-2.92-13.88,3.89-18.46,0-6.19,1.33-6.19,1.33l13.71,10.42Z" transform="translate(-128.44 -154.03)"/><path class="clc-60" d="M695.25,968.92s-2.72-11.37-10.92-9.81-26.8,11.67-31.6,9.81-10.93-6.33-14.07-4.75l5.54,6.89s-14.25-8.22-16.7-3.17l23.71,13.34S685.89,977.76,695.25,968.92Z" transform="translate(-128.44 -154.03)"/><path class="clc-61" d="M904,1176.82a5,5,0,0,0,3.27-4.19c2.33-22.69,13.66-163.35-57.82-221.21,0,0-4.1-10.73-37.79,15.64s-15.66,54-7.59,92.11c9.76,46.12,26.89,83.81,19.31,112.2a3.94,3.94,0,0,0,2.41,4.71C852,1185.73,878.05,1186.05,904,1176.82Z" transform="translate(-128.44 -154.03)"/><path class="clc-62" d="M821.59,909.27c0,2,28.56,42.54,28.56,42.54S845,961.9,820.57,970.09l-21.11-43.4Z" transform="translate(-128.44 -154.03)"/><path class="clc-63" d="M832.81,1048.46s-54.15,45.35-112.63,25.56a13.93,13.93,0,0,0-11,.83l-16.81,8.88a15,15,0,0,1-19.89-5.57c-2.34-3.91-4.33-8.37-4.73-12.64l32.9-13.32-2.43-4s16.06-1.36,20.26,10.15c0,0,30.6,12.72,82.18-44C800.69,1014.3,824.1,1034.2,832.81,1048.46Z" transform="translate(-128.44 -154.03)"/><path class="clc-7" d="M835.73,1048a.88.88,0,0,0,.51-.16c22.81-15.4,33.53-40.27,33.64-40.52a.93.93,0,0,0-1.71-.72c-.1.24-10.63,24.62-33,39.71a.92.92,0,0,0,.52,1.69Z" transform="translate(-128.44 -154.03)"/><path class="clc-7" d="M801.76,1013.53a.9.9,0,0,0,.78-.43c.07-.1,7-11,20.31-34.71,4.08-7.3,9.44-11.93,15.93-13.74,10.76-3,21.12,2.76,21.23,2.82a.93.93,0,0,0,.91-1.62c-.44-.25-11.11-6.22-22.62-3-7,1.95-12.74,6.87-17.07,14.63C808,1001.19,801.05,1012,801,1012.1a.93.93,0,0,0,.78,1.43Z" transform="translate(-128.44 -154.03)"/><path class="clc-64" d="M799.11,886S789,909.37,788.28,921.62s-3.32,20.19,10.83,22.65,26.09-4.59,32.55-16.78c0,0,10.13-18.8,7.85-26.49S799.11,886,799.11,886Z" transform="translate(-128.44 -154.03)"/><path class="clc-65" d="M826.82,918.72l-.8-.36a1.94,1.94,0,0,1-.95-2.67c2-3.86,5.89-12.7.86-14.76-6.48-2.65-32.15-7.89-37.69-17-5.32-8.75-.6-20,6.48-23.26a1,1,0,0,1,1.28.41l.59,1.12a1,1,0,0,0,1.78-.18h0a1,1,0,0,1,1.73-.25c1.7,2.72,6.3,7.14,18.59,9.41,17.46,3.22,29,10.29,29.3,22.36a1,1,0,0,0,1.49.8c1.29-.79,3.35-1.16,6.11,1.16,4.8,4,2.83,14.5-7.68,23.1a1,1,0,0,0,0,1.54c1.91,1.25,4.75,4.2-2.61,8.13-7.62,4.08-13.31,3.74-15.5,3.38a1,1,0,0,1-.77-1.16l2.33-10.6a1,1,0,0,0-.94-1.17Z" transform="translate(-128.44 -154.03)"/><path class="clc-66" d="M826.38,921s3.88-14.91,10.56-10.73-3.47,16.7-8.84,17.26Z" transform="translate(-128.44 -154.03)"/><path class="clc-67" d="M709.21,1074.85s-13.76,13.46-16.42,11.5a48.9,48.9,0,0,1-5.64-6,5.91,5.91,0,0,1-.4-7l3.24-5a9.39,9.39,0,0,1,14-2A17.1,17.1,0,0,1,709.21,1074.85Z" transform="translate(-128.44 -154.03)"/><path class="clc-68" d="M488,1172c7.42-35.22,14.83-55.61,39.66-122.38,7.82-21,14.91-42.27,11.49-64.42l-3.86-24.89S487,944,433.5,959.66c0,0-73,31.7-23.41,188.27C432.43,1172.93,458.58,1180.06,488,1172Z" transform="translate(-128.44 -154.03)"/><path class="clc-69" d="M527,928.59l-12.51,30.06a6,6,0,0,1-4.53,3.6c-7.21,1.24-24.66,3.17-36.12-4.37a2.91,2.91,0,0,1-.78-4.09l23.12-33.19Z" transform="translate(-128.44 -154.03)"/><path class="clc-2" d="M496.17,1069.86a2.78,2.78,0,0,1,1.75,4l-36.2,69.42a2.77,2.77,0,0,1-3.23,1.38l-118.41-34.19a2.77,2.77,0,0,1-1.9-3.44l20.39-70.61a2.79,2.79,0,0,1,3.38-1.92Z" transform="translate(-128.44 -154.03)"/><path class="clc-4" d="M488.53,1061.71a2.9,2.9,0,0,1,2.05,3.83l-29,78.71a2.9,2.9,0,0,1-3.54,1.79L340,1112a2.91,2.91,0,0,1-2-3.41l16.36-75.76a2.91,2.91,0,0,1,3.52-2.21Z" transform="translate(-128.44 -154.03)"/><path class="clc-70" d="M478.25,1053.76a3.6,3.6,0,0,1,3,4.37l-19.68,85a3.6,3.6,0,0,1-4.5,2.64l-116.27-33.57a3.58,3.58,0,0,1-2.48-4.35l17.88-69.36a3.6,3.6,0,0,1,4-2.66Z" transform="translate(-128.44 -154.03)"/><path class="clc-71" d="M384.13,1086.17c-9-68.17,43.51-120.59,43.51-120.59L458.89,1002c-23.73,29.58-35,56.68-40.16,78C411.9,1078,395.44,1074.85,384.13,1086.17Z" transform="translate(-128.44 -154.03)"/><path class="clc-72" d="M418.73,1082.09a2.05,2.05,0,0,1-.49-.06,2.1,2.1,0,0,1-1.55-2.53c6.49-26.83,20.14-53.33,40.56-78.79a2.1,2.1,0,1,1,3.28,2.63c-20,25-33.41,50.93-39.76,77.14A2.09,2.09,0,0,1,418.73,1082.09Z" transform="translate(-128.44 -154.03)"/><path class="clc-73" d="M418.73,1080c-4.79,19.78-4.28,34.54-3.56,41.59a5.49,5.49,0,0,0,5.08,4.92c3,.21,7.15.49,10.83.7,4,.24,8.53-2.32,11.54-4.46a1.81,1.81,0,0,1,2.66,2.28c-2.24,4.39-7.93,8.29-11.85,10.59a1.87,1.87,0,0,0,.43,3.42l16.77,4.75c-27.56,26-45.75-3.08-45.75-3.08-12.16-18.8-18.45-37.18-20.75-54.53C395.44,1074.85,411.9,1078,418.73,1080Z" transform="translate(-128.44 -154.03)"/><path class="clc-74" d="M514.09,882.6c.52.49,22.18,43,22.18,43l-24.55,11.85-26.51-37.25S505.29,874.31,514.09,882.6Z" transform="translate(-128.44 -154.03)"/><path class="clc-75" d="M496.37,904.68l12.24,20.4a3.59,3.59,0,0,0,.67.84c1.46,1.35,6.44,5.3,10.3-.07,3.28-4.58,6.36-8.74,9.67-10.46a3.92,3.92,0,0,1,5.28,1.74A146.5,146.5,0,0,1,542.9,937a3.89,3.89,0,0,1-2.26,4.78c-5,2-14.8,5.65-23.51,6.86a3.93,3.93,0,0,1-3.7-1.58c-3.75-5.13-14.32-19.49-17.93-23.08-3.35-3.34-9.53-2.08-12.32-1.28a4,4,0,0,1-3.13-.41c-2.82-1.7-7.76-5.95-3.25-13.13a3.91,3.91,0,0,0-1.21-5.32c-3.15-2.08-6.58-6-3.32-12.29s9.21-7,13.23-6.47a4.05,4.05,0,0,0,4.26-2.37,2.59,2.59,0,0,1,2-1.59,3.8,3.8,0,0,0,3.08-4.46c-.71-3.62-.18-8.32,5.6-11.49,10.58-5.82,19.86,3.66,22.22,11.67s-9.48,13.67-16.93,14.61c-5.47.7-8.47,6.67-9.68,9.79A3.94,3.94,0,0,0,496.37,904.68Z" transform="translate(-128.44 -154.03)"/><path class="clc-76" d="M500.1,931.47s-4.71-13.78-10.74-13.27-10.77,6.51-3.3,13.26C495.35,939.85,500.1,931.47,500.1,931.47Z" transform="translate(-128.44 -154.03)"/><path class="clc-77" d="M492.7,1482.48c-11.65,1-31.88,2.64-47.83,3.34-9.58.42-15.1-.52-18.28-1.79,0,.36,0,.7,0,1a3.31,3.31,0,0,0,3.13,3.12,560.25,560.25,0,0,0,62.63.06,2.34,2.34,0,0,0,1.91-3.53A17.76,17.76,0,0,0,492.7,1482.48Z" transform="translate(-128.44 -154.03)"/><path class="clc-78" d="M444.87,1485.82c15.95-.7,36.18-2.34,47.83-3.34-11.46-14.06-47.83-23.54-47.83-23.54H434.6a43.11,43.11,0,0,0-8,25.09C429.77,1485.3,435.29,1486.24,444.87,1485.82Z" transform="translate(-128.44 -154.03)"/><path class="clc-79" d="M432.87,1442.17l1,19a4.36,4.36,0,0,0,3.71,4.09,17,17,0,0,0,7.72-.64,5.15,5.15,0,0,0,3.45-4l3.33-18.52Z" transform="translate(-128.44 -154.03)"/><path class="clc-80" d="M299.45,1485.68c-5.05-.71-7.34-3.33-8.3-6.14l0,.08c-.74,3,1,6,4.43,7.49a28.92,28.92,0,0,0,12.26,1.91c3.79-.15,7.27-1.72,9.19-4.23l0,0C313.23,1486.63,307.88,1486.85,299.45,1485.68Z" transform="translate(-128.44 -154.03)"/><path class="clc-81" d="M323.28,1442.05h-8.47c-12.9-.26-21,27-23.66,37.49,1,2.81,3.25,5.43,8.3,6.14,8.43,1.17,13.78,1,17.58-.93,7-9.18,10.43-22.61,12.09-30.45A10.69,10.69,0,0,0,323.28,1442.05Z" transform="translate(-128.44 -154.03)"/><path class="clc-82" d="M315.9,1424.39l-4.7,18.71a5.08,5.08,0,0,0,2.64,5.76c2.63,1.35,6.33,2.77,9.74,2.36a4.25,4.25,0,0,0,3.46-2.83L334,1428.7Z" transform="translate(-128.44 -154.03)"/><path class="clc-83" d="M310.29,1429.8c5.85,5.19,24.89,5.88,24.89,5.88,68.57-164.58,97.15-209.88,97.15-209.88-9.9,62.12-2.13,221.56-2.13,221.56,11.32,5,25.9,0,25.9,0,.92-101.69,15.24-211,33.71-280.89-46.35-1-71.54-11.14-79.58-17.51C371.6,1211.24,310.29,1429.8,310.29,1429.8Z" transform="translate(-128.44 -154.03)"/></svg>