<svg width="740" height="642" fill="none" xmlns="http://www.w3.org/2000/svg"><path fill="#103654" d="M0 0h740v642H0z"/><path d="M46.138 63.78c-6.587 0-12.09-2.08-16.51-6.24-4.377-4.203-6.565-9.598-6.565-16.185 0-6.587 2.188-11.96 6.565-16.12 4.42-4.203 9.923-6.305 16.51-6.305 8.103 0 14.148 3.532 18.135 10.595l-7.93 3.9c-.954-1.82-2.362-3.315-4.225-4.485-1.82-1.213-3.814-1.82-5.98-1.82-3.944 0-7.194 1.343-9.75 4.03-2.557 2.687-3.835 6.088-3.835 10.205s1.278 7.518 3.835 10.205c2.556 2.687 5.806 4.03 9.75 4.03 2.166 0 4.16-.585 5.98-1.755 1.863-1.17 3.271-2.687 4.225-4.55l7.93 3.835c-4.117 7.107-10.162 10.66-18.135 10.66zm44.169 0c-6.544 0-11.96-2.102-16.25-6.305-4.247-4.247-6.37-9.62-6.37-16.12 0-6.5 2.123-11.852 6.37-16.055 4.29-4.247 9.706-6.37 16.25-6.37 6.587 0 12.003 2.102 16.25 6.305 4.29 4.203 6.435 9.577 6.435 16.12 0 6.543-2.145 11.917-6.435 16.12-4.247 4.203-9.663 6.305-16.25 6.305zm-9.555-12.22c2.427 2.687 5.612 4.03 9.555 4.03 3.943 0 7.128-1.343 9.555-4.03 2.426-2.687 3.64-6.088 3.64-10.205s-1.214-7.518-3.64-10.205c-2.427-2.687-5.612-4.03-9.555-4.03-3.944 0-7.129 1.343-9.555 4.03-2.383 2.687-3.575 6.088-3.575 10.205s1.191 7.518 3.575 10.205zM154.569 63h-10.595l-8.515-15.405h-6.76V63h-9.23V19.645h20.28c4.463 0 7.995 1.3 10.595 3.9 2.643 2.6 3.965 5.958 3.965 10.075 0 3.553-.932 6.435-2.795 8.645-1.82 2.21-4.052 3.618-6.695 4.225l9.75 16.51zm-16.185-23.53c1.907 0 3.467-.52 4.68-1.56 1.213-1.083 1.82-2.513 1.82-4.29 0-1.777-.607-3.185-1.82-4.225-1.213-1.083-2.773-1.625-4.68-1.625h-9.685v11.7h9.685zM196.337 63h-10.595l-8.515-15.405h-6.76V63h-9.23V19.645h20.28c4.463 0 7.995 1.3 10.595 3.9 2.643 2.6 3.965 5.958 3.965 10.075 0 3.553-.932 6.435-2.795 8.645-1.82 2.21-4.052 3.618-6.695 4.225l9.75 16.51zm-16.185-23.53c1.906 0 3.466-.52 4.68-1.56 1.213-1.083 1.82-2.513 1.82-4.29 0-1.777-.607-3.185-1.82-4.225-1.214-1.083-2.774-1.625-4.68-1.625h-9.685v11.7h9.685zM233.684 63h-30.68V19.645h30.68v8.125h-21.45v9.165h20.995v8.125h-20.995v9.815h21.45V63zm28.211.78c-6.587 0-12.09-2.08-16.51-6.24-4.377-4.203-6.565-9.598-6.565-16.185 0-6.587 2.188-11.96 6.565-16.12 4.42-4.203 9.923-6.305 16.51-6.305 8.103 0 14.148 3.532 18.135 10.595l-7.93 3.9c-.954-1.82-2.362-3.315-4.225-4.485-1.82-1.213-3.814-1.82-5.98-1.82-3.944 0-7.194 1.343-9.75 4.03-2.557 2.687-3.835 6.088-3.835 10.205s1.278 7.518 3.835 10.205c2.556 2.687 5.806 4.03 9.75 4.03 2.166 0 4.16-.585 5.98-1.755 1.863-1.17 3.271-2.687 4.225-4.55l7.93 3.835c-4.117 7.107-10.162 10.66-18.135 10.66zm42.934-.78h-9.295V27.77h-12.675v-8.125h34.58v8.125h-12.61V63zM60.243 129H49.648l-8.515-15.405h-6.76V129h-9.23V85.645h20.28c4.463 0 7.995 1.3 10.595 3.9 2.643 2.6 3.965 5.958 3.965 10.075 0 3.553-.932 6.435-2.795 8.645-1.82 2.21-4.052 3.618-6.695 4.225l9.75 16.51zm-16.185-23.53c1.907 0 3.467-.52 4.68-1.56 1.213-1.083 1.82-2.513 1.82-4.29 0-1.777-.607-3.185-1.82-4.225-1.213-1.083-2.773-1.625-4.68-1.625h-9.685v11.7h9.685zM97.59 129H66.91V85.645h30.68v8.125H76.14v9.165h20.995v8.125H76.14v9.815h21.45V129zm16.446 0h-9.23V85.645h20.28c4.55 0 8.103 1.343 10.66 4.03 2.6 2.643 3.9 5.958 3.9 9.945 0 3.943-1.3 7.258-3.9 9.945-2.6 2.687-6.153 4.03-10.66 4.03h-11.05V129zm9.815-23.53c1.863 0 3.38-.52 4.55-1.56 1.213-1.083 1.82-2.513 1.82-4.29 0-1.777-.607-3.185-1.82-4.225-1.17-1.083-2.687-1.625-4.55-1.625h-9.815v11.7h9.815zM176.047 129h-30.68V85.645h30.68v8.125h-21.45v9.165h20.995v8.125h-20.995v9.815h21.45V129zm26.521 0h-9.295V93.77h-12.675v-8.125h34.58v8.125h-12.61V129zm27.757 0h-9.23V85.645h9.23V129zm27.912 0h-9.295V93.77h-12.675v-8.125h34.58v8.125h-12.61V129zm27.757 0h-9.23V85.645h9.23V129zm29.147.78c-6.544 0-11.96-2.102-16.25-6.305-4.247-4.247-6.37-9.62-6.37-16.12 0-6.5 2.123-11.852 6.37-16.055 4.29-4.247 9.706-6.37 16.25-6.37 6.586 0 12.003 2.102 16.25 6.305 4.29 4.203 6.435 9.577 6.435 16.12 0 6.543-2.145 11.917-6.435 16.12-4.247 4.203-9.664 6.305-16.25 6.305zm-9.555-12.22c2.426 2.687 5.611 4.03 9.555 4.03 3.943 0 7.128-1.343 9.555-4.03 2.426-2.687 3.64-6.088 3.64-10.205s-1.214-7.518-3.64-10.205c-2.427-2.687-5.612-4.03-9.555-4.03-3.944 0-7.129 1.343-9.555 4.03-2.384 2.687-3.575 6.088-3.575 10.205s1.191 7.518 3.575 10.205zM383.108 129h-8.905l-20.67-28.275V129h-9.23V85.645h9.49l20.085 27.235V85.645h9.23V129zm23.953.78c-7.713 0-13.823-2.297-18.33-6.89l5.005-7.02c3.727 3.9 8.32 5.85 13.78 5.85 2.384 0 4.225-.455 5.525-1.365 1.344-.953 2.015-2.102 2.015-3.445 0-1.17-.628-2.145-1.885-2.925-1.213-.78-2.751-1.343-4.615-1.69-1.82-.347-3.813-.845-5.98-1.495a51.892 51.892 0 01-6.045-2.21c-1.82-.823-3.358-2.123-4.615-3.9-1.213-1.777-1.82-3.943-1.82-6.5 0-3.727 1.495-6.847 4.485-9.36 2.99-2.557 6.977-3.835 11.96-3.835 6.89 0 12.524 2.015 16.9 6.045l-5.135 6.76c-3.423-3.163-7.626-4.745-12.61-4.745-1.95 0-3.466.39-4.55 1.17-1.083.78-1.625 1.842-1.625 3.185 0 1.04.607 1.928 1.82 2.665 1.257.693 2.795 1.213 4.615 1.56 1.864.347 3.857.867 5.98 1.56 2.167.65 4.16 1.408 5.98 2.275 1.864.823 3.402 2.145 4.615 3.965 1.257 1.777 1.885 3.922 1.885 6.435 0 4.16-1.495 7.518-4.485 10.075-2.946 2.557-7.236 3.835-12.87 3.835zM20 154h700v7H20z" fill="#fff"/><path stroke="#215681" d="M89.337 215.009V549M119.337 215.009V549M149.337 215.009V549M179.337 215.009V549M209.337 215.009V549M239.337 215.009V549M269.337 215.009V549M299.337 215.009V549M329.337 215.009V549M359.337 215.009V549M389.337 215.009V549M419.337 215.009V549M449.337 215.009V549M479.337 215.009V549M509.337 215.009V549M539.337 215.009V549M569.337 215.009V549M599.337 215.009V549M629.337 215.009V549M659.337 215.009V549M54 454.509h665.6M54 514.853h665.6M54 394.509h665.6M54 334.509h665.6M54 274.509h665.6M54 214.509h665.6"/><path stroke="#3F8CCB" stroke-width="2" d="M58.6 544.801l661 .026M59.6 545.827V214.001M718.837 545.827V214.001"/><path d="M36.403 458.148c-.44 0-.83-.1-1.17-.3-.333-.207-.6-.48-.8-.82a4.42 4.42 0 01-.44-1.1 5.32 5.32 0 01-.14-1.23c0-.427.047-.837.14-1.23.1-.394.247-.757.44-1.09.2-.34.467-.61.8-.81.34-.207.73-.31 1.17-.31.433 0 .82.103 1.16.31.34.2.607.47.8.81.2.333.347.696.44 1.09.1.393.15.803.15 1.23 0 .426-.05.836-.15 1.23-.093.393-.24.76-.44 1.1-.193.34-.46.613-.8.82-.34.2-.727.3-1.16.3zm-1-1.15c.267.273.6.41 1 .41s.733-.137 1-.41c.267-.28.45-.614.55-1 .1-.387.15-.82.15-1.3 0-.48-.05-.914-.15-1.3a2.164 2.164 0 00-.55-.99c-.267-.274-.6-.41-1-.41s-.733.136-1 .41c-.267.273-.45.603-.55.99-.1.386-.15.82-.15 1.3 0 .48.05.913.15 1.3.1.386.283.72.55 1zm5.29.97a.533.533 0 01-.39.16.533.533 0 01-.39-.16.532.532 0 01-.16-.39c0-.154.054-.284.16-.39a.53.53 0 01.39-.16.53.53 0 01.39.16c.107.106.16.236.16.39a.532.532 0 01-.16.39zm5.885.06h-4.58v-.66c.694-.547 1.23-.98 1.61-1.3.387-.327.757-.67 1.11-1.03.36-.367.614-.69.76-.97.147-.287.22-.57.22-.85 0-.4-.136-.704-.41-.91-.273-.207-.6-.31-.98-.31-.766 0-1.37.28-1.81.84l-.51-.53a2.47 2.47 0 01.99-.77c.414-.187.857-.28 1.33-.28.607 0 1.13.17 1.57.51.447.34.67.823.67 1.45 0 .62-.266 1.24-.8 1.86-.533.613-1.346 1.35-2.44 2.21h3.27v.74zM36.471 518.093c-.44 0-.83-.1-1.17-.3-.333-.207-.6-.48-.8-.82a4.417 4.417 0 01-.44-1.1 5.315 5.315 0 01-.14-1.23c0-.427.047-.837.14-1.23.1-.394.247-.757.44-1.09.2-.34.467-.61.8-.81.34-.207.73-.31 1.17-.31.434 0 .82.103 1.16.31.34.2.607.47.8.81.2.333.347.696.44 1.09.1.393.15.803.15 1.23 0 .426-.05.836-.15 1.23-.093.393-.24.76-.44 1.1-.193.34-.46.613-.8.82-.34.2-.726.3-1.16.3zm-1-1.15c.267.273.6.41 1 .41s.734-.137 1-.41c.267-.28.45-.614.55-1 .1-.387.15-.82.15-1.3 0-.48-.05-.914-.15-1.3a2.164 2.164 0 00-.55-.99c-.266-.274-.6-.41-1-.41s-.733.136-1 .41c-.266.273-.45.603-.55.99-.1.386-.15.82-.15 1.3 0 .48.05.913.15 1.3.1.386.284.72.55 1zm5.29.97a.533.533 0 01-.39.16.533.533 0 01-.39-.16.532.532 0 01-.16-.39c0-.154.054-.284.16-.39a.53.53 0 01.39-.16.53.53 0 01.39.16c.108.106.16.236.16.39a.532.532 0 01-.16.39zm3.513.18c-.44 0-.83-.1-1.17-.3-.333-.207-.6-.48-.8-.82a4.42 4.42 0 01-.44-1.1 5.32 5.32 0 01-.14-1.23c0-.427.047-.837.14-1.23.1-.394.247-.757.44-1.09.2-.34.467-.61.8-.81.34-.207.73-.31 1.17-.31.433 0 .82.103 1.16.31.34.2.607.47.8.81.2.333.347.696.44 1.09.1.393.15.803.15 1.23 0 .426-.05.836-.15 1.23-.093.393-.24.76-.44 1.1-.193.34-.46.613-.8.82-.34.2-.727.3-1.16.3zm-1-1.15c.267.273.6.41 1 .41s.733-.137 1-.41c.267-.28.45-.614.55-1 .1-.387.15-.82.15-1.3 0-.48-.05-.914-.15-1.3a2.164 2.164 0 00-.55-.99c-.267-.274-.6-.41-1-.41s-.733.136-1 .41c-.267.273-.45.603-.55.99-.1.386-.15.82-.15 1.3 0 .48.05.913.15 1.3.1.386.283.72.55 1zM36.706 398.203c-.44 0-.83-.1-1.17-.3-.334-.207-.6-.48-.8-.82a4.417 4.417 0 01-.44-1.1 5.303 5.303 0 01-.14-1.23c0-.427.046-.837.14-1.23.1-.393.246-.757.44-1.09.2-.34.466-.61.8-.81.34-.207.73-.31 1.17-.31.433 0 .82.103 1.16.31.34.2.606.47.8.81.2.333.346.697.44 1.09.1.393.15.803.15 1.23 0 .427-.05.837-.15 1.23-.094.393-.24.76-.44 1.1-.194.34-.46.613-.8.82-.34.2-.727.3-1.16.3zm-1-1.15c.266.273.6.41 1 .41s.733-.137 1-.41c.266-.28.45-.613.55-1 .1-.387.15-.82.15-1.3 0-.48-.05-.913-.15-1.3a2.164 2.164 0 00-.55-.99c-.267-.273-.6-.41-1-.41s-.734.137-1 .41c-.267.273-.45.603-.55.99-.1.387-.15.82-.15 1.3 0 .48.05.913.15 1.3.1.387.283.72.55 1zm5.29.97a.53.53 0 01-.39.16.53.53 0 01-.39-.16.532.532 0 01-.16-.39c0-.153.054-.283.16-.39a.53.53 0 01.39-.16.53.53 0 01.39.16c.107.107.16.237.16.39a.532.532 0 01-.16.39zm5.085.06h-.83v-1.69h-3.17v-.69l2.86-4.29h1.14v4.25h.94v.73h-.94v1.69zm-.83-2.42v-3.48l-2.34 3.48h2.34zM36.686 338.258c-.44 0-.83-.1-1.17-.3-.333-.207-.6-.48-.8-.82a4.42 4.42 0 01-.44-1.1 5.308 5.308 0 01-.14-1.23c0-.427.047-.837.14-1.23.1-.393.247-.757.44-1.09.2-.34.467-.61.8-.81.34-.207.73-.31 1.17-.31.434 0 .82.103 1.16.31.34.2.607.47.8.81.2.333.347.697.44 1.09.1.393.15.803.15 1.23 0 .427-.05.837-.15 1.23-.093.393-.24.76-.44 1.1-.193.34-.46.613-.8.82-.34.2-.726.3-1.16.3zm-1-1.15c.267.273.6.41 1 .41s.734-.137 1-.41c.267-.28.45-.613.55-1 .1-.387.15-.82.15-1.3 0-.48-.05-.913-.15-1.3a2.164 2.164 0 00-.55-.99 1.34 1.34 0 00-1-.41c-.4 0-.733.137-1 .41-.266.273-.45.603-.55.99-.1.387-.15.82-.15 1.3 0 .48.05.913.15 1.3.1.387.284.72.55 1zm5.29.97a.53.53 0 01-.39.16.53.53 0 01-.39-.16.532.532 0 01-.16-.39c0-.153.054-.283.16-.39a.53.53 0 01.39-.16.53.53 0 01.39.16c.107.107.16.237.16.39a.532.532 0 01-.16.39zm3.533.18c-.447 0-.84-.093-1.18-.28a2.17 2.17 0 01-.81-.76 4.062 4.062 0 01-.44-1.09 5.844 5.844 0 01-.14-1.31c0-.627.093-1.193.28-1.7.187-.507.487-.923.9-1.25.42-.333.93-.5 1.53-.5.767 0 1.383.267 1.85.8l-.42.62c-.387-.453-.863-.68-1.43-.68-.413 0-.767.13-1.06.39a2.29 2.29 0 00-.63.97 3.965 3.965 0 00-.18 1.52c.167-.267.423-.507.77-.72.353-.213.727-.32 1.12-.32.633 0 1.153.187 1.56.56.413.367.62.89.62 1.57 0 .607-.213 1.123-.64 1.55-.427.42-.993.63-1.7.63zm-.03-.74c.48 0 .853-.143 1.12-.43.273-.293.41-.62.41-.98 0-.467-.143-.823-.43-1.07-.287-.247-.657-.37-1.11-.37-.327 0-.64.093-.94.28-.3.18-.543.42-.73.72.047.493.207.927.48 1.3.273.367.673.55 1.2.55zM36.471 278.313c-.44 0-.83-.1-1.17-.3-.333-.207-.6-.48-.8-.82a4.417 4.417 0 01-.44-1.1 5.303 5.303 0 01-.14-1.23c0-.427.047-.837.14-1.23.1-.393.247-.757.44-1.09.2-.34.467-.61.8-.81.34-.207.73-.31 1.17-.31.434 0 .82.103 1.16.31.34.2.607.47.8.81.2.333.347.697.44 1.09.1.393.15.803.15 1.23 0 .427-.05.837-.15 1.23-.093.393-.24.76-.44 1.1-.193.34-.46.613-.8.82-.34.2-.726.3-1.16.3zm-1-1.15c.267.273.6.41 1 .41s.734-.137 1-.41c.267-.28.45-.613.55-1 .1-.387.15-.82.15-1.3 0-.48-.05-.913-.15-1.3a2.164 2.164 0 00-.55-.99c-.266-.273-.6-.41-1-.41s-.733.137-1 .41c-.266.273-.45.603-.55.99-.1.387-.15.82-.15 1.3 0 .48.05.913.15 1.3.1.387.284.72.55 1zm5.29.97a.53.53 0 01-.39.16.53.53 0 01-.39-.16.532.532 0 01-.16-.39c0-.153.054-.283.16-.39a.53.53 0 01.39-.16.53.53 0 01.39.16c.108.107.16.237.16.39a.532.532 0 01-.16.39zm5.376-.31c-.454.327-1.02.49-1.7.49-.68 0-1.25-.163-1.71-.49-.454-.327-.68-.767-.68-1.32 0-.42.15-.783.45-1.09a2.622 2.622 0 011.14-.66 2.475 2.475 0 01-1.06-.58 1.367 1.367 0 01-.42-1.02c0-.56.226-.987.68-1.28.453-.3.986-.45 1.6-.45.613 0 1.146.15 1.6.45.46.293.69.72.69 1.28 0 .407-.14.747-.42 1.02-.28.267-.637.46-1.07.58.453.133.83.353 1.13.66.306.307.46.67.46 1.09 0 .547-.23.987-.69 1.32zm-1.7-3.41c.133-.02.266-.053.4-.1.14-.047.296-.11.47-.19a1.14 1.14 0 00.42-.35.871.871 0 00.16-.51c0-.333-.14-.6-.42-.8-.274-.2-.617-.3-1.03-.3-.42 0-.767.1-1.04.3a.943.943 0 00-.41.8c0 .187.053.357.16.51.106.147.246.263.42.35.173.08.326.143.46.19.14.04.276.073.41.1zm0 3.16c.426 0 .79-.107 1.09-.32.306-.213.46-.493.46-.84 0-.267-.107-.5-.32-.7a1.772 1.772 0 00-.64-.43 2.229 2.229 0 00-.59-.16c-.18.02-.38.073-.6.16a1.89 1.89 0 00-.64.43.931.931 0 00-.32.7c0 .347.15.627.45.84.306.213.676.32 1.11.32zM38.443 218.248h-.83v-5.57l-1.07 1.13-.5-.51 1.67-1.72h.73v6.67zm2.319-.06a.53.53 0 01-.39.16.53.53 0 01-.39-.16.532.532 0 01-.16-.39c0-.153.053-.283.16-.39a.53.53 0 01.39-.16.53.53 0 01.39.16c.107.107.16.237.16.39a.532.532 0 01-.16.39zm3.512.18c-.44 0-.83-.1-1.17-.3-.333-.207-.6-.48-.8-.82a4.42 4.42 0 01-.44-1.1 5.308 5.308 0 01-.14-1.23c0-.427.047-.837.14-1.23.1-.393.247-.757.44-1.09.2-.34.467-.61.8-.81.34-.207.73-.31 1.17-.31.433 0 .82.103 1.16.31.34.2.607.47.8.81.2.333.347.697.44 1.09.1.393.15.803.15 1.23 0 .427-.05.837-.15 1.23-.093.393-.24.76-.44 1.1-.193.34-.46.613-.8.82-.34.2-.727.3-1.16.3zm-1-1.15c.267.273.6.41 1 .41s.733-.137 1-.41c.267-.28.45-.613.55-1 .1-.387.15-.82.15-1.3 0-.48-.05-.913-.15-1.3a2.164 2.164 0 00-.55-.99c-.267-.273-.6-.41-1-.41s-.733.137-1 .41c-.267.273-.45.603-.55.99-.1.387-.15.82-.15 1.3 0 .48.05.913.15 1.3.1.387.283.72.55 1zM89.253 563.297c-.44 0-.83-.1-1.17-.3-.334-.207-.6-.48-.8-.82a4.42 4.42 0 01-.44-1.1 5.308 5.308 0 01-.14-1.23c0-.427.046-.837.14-1.23.1-.393.246-.757.44-1.09.2-.34.466-.61.8-.81.34-.207.73-.31 1.17-.31.433 0 .82.103 1.16.31.34.2.606.47.8.81.2.333.346.697.44 1.09.1.393.15.803.15 1.23 0 .427-.05.837-.15 1.23-.094.393-.24.76-.44 1.1-.194.34-.46.613-.8.82-.34.2-.727.3-1.16.3zm-1-1.15c.266.273.6.41 1 .41s.733-.137 1-.41c.266-.28.45-.613.55-1 .1-.387.15-.82.15-1.3 0-.48-.05-.913-.15-1.3a2.164 2.164 0 00-.55-.99 1.34 1.34 0 00-1-.41c-.4 0-.734.137-1 .41-.267.273-.45.603-.55.99-.1.387-.15.82-.15 1.3 0 .48.05.913.15 1.3.1.387.283.72.55 1zM143.547 563.177h-.83v-5.57l-1.07 1.13-.5-.51 1.67-1.72h.73v6.67zm3.838.12c-.44 0-.83-.1-1.17-.3-.333-.207-.6-.48-.8-.82a4.432 4.432 0 01-.44-1.1 5.324 5.324 0 01-.14-1.23c0-.427.047-.837.14-1.23.1-.393.247-.757.44-1.09.2-.34.467-.61.8-.81.34-.207.73-.31 1.17-.31.434 0 .82.103 1.16.31.34.2.607.47.8.81.2.333.347.697.44 1.09.1.393.15.803.15 1.23 0 .427-.05.837-.15 1.23-.093.393-.24.76-.44 1.1-.193.34-.46.613-.8.82-.34.2-.726.3-1.16.3zm-1-1.15c.267.273.6.41 1 .41s.734-.137 1-.41c.267-.28.45-.613.55-1 .1-.387.15-.82.15-1.3 0-.48-.05-.913-.15-1.3a2.16 2.16 0 00-.55-.99 1.34 1.34 0 00-1-.41c-.4 0-.733.137-1 .41a2.17 2.17 0 00-.55.99c-.1.387-.15.82-.15 1.3 0 .48.05.913.15 1.3.1.387.284.72.55 1zm7.123 1.15c-.44 0-.83-.1-1.17-.3-.333-.207-.6-.48-.8-.82a4.432 4.432 0 01-.44-1.1 5.324 5.324 0 01-.14-1.23c0-.427.047-.837.14-1.23.1-.393.247-.757.44-1.09.2-.34.467-.61.8-.81.34-.207.73-.31 1.17-.31.434 0 .82.103 1.16.31.34.2.607.47.8.81.2.333.347.697.44 1.09.1.393.15.803.15 1.23 0 .427-.05.837-.15 1.23-.093.393-.24.76-.44 1.1-.193.34-.46.613-.8.82-.34.2-.726.3-1.16.3zm-1-1.15c.267.273.6.41 1 .41s.734-.137 1-.41c.267-.28.45-.613.55-1 .1-.387.15-.82.15-1.3 0-.48-.05-.913-.15-1.3a2.16 2.16 0 00-.55-.99 1.34 1.34 0 00-1-.41c-.4 0-.733.137-1 .41a2.17 2.17 0 00-.55.99c-.1.387-.15.82-.15 1.3 0 .48.05.913.15 1.3.1.387.284.72.55 1zM174.659 563.177h-.83v-5.57l-1.07 1.13-.5-.51 1.67-1.72h.73v6.67zm3.789.12c-1.027 0-1.81-.357-2.35-1.07l.51-.55c.46.587 1.073.88 1.84.88.453 0 .823-.137 1.11-.41.286-.273.43-.613.43-1.02 0-.433-.144-.78-.43-1.04-.28-.267-.647-.4-1.1-.4-.6 0-1.114.21-1.54.63l-.61-.21v-3.6h4.08v.74h-3.25v2.32c.4-.4.92-.6 1.56-.6.586 0 1.086.193 1.5.58.413.38.62.897.62 1.55 0 .667-.224 1.2-.67 1.6-.447.4-1.014.6-1.7.6zm5.948 0c-.44 0-.83-.1-1.17-.3-.333-.207-.6-.48-.8-.82a4.432 4.432 0 01-.44-1.1 5.324 5.324 0 01-.14-1.23c0-.427.047-.837.14-1.23.1-.393.247-.757.44-1.09.2-.34.467-.61.8-.81.34-.207.73-.31 1.17-.31.433 0 .82.103 1.16.31.34.2.607.47.8.81.2.333.347.697.44 1.09.1.393.15.803.15 1.23 0 .427-.05.837-.15 1.23-.093.393-.24.76-.44 1.1-.193.34-.46.613-.8.82-.34.2-.727.3-1.16.3zm-1-1.15c.267.273.6.41 1 .41s.733-.137 1-.41c.267-.28.45-.613.55-1 .1-.387.15-.82.15-1.3 0-.48-.05-.913-.15-1.3a2.16 2.16 0 00-.55-.99c-.267-.273-.6-.41-1-.41s-.733.137-1 .41a2.16 2.16 0 00-.55.99c-.1.387-.15.82-.15 1.3 0 .48.05.913.15 1.3.1.387.283.72.55 1zM205.312 563.177h-4.58v-.66a69.9 69.9 0 001.61-1.3c.386-.327.756-.67 1.11-1.03.36-.367.613-.69.76-.97.146-.287.22-.57.22-.85 0-.4-.137-.703-.41-.91-.274-.207-.6-.31-.98-.31-.767 0-1.37.28-1.81.84l-.51-.53c.253-.333.583-.59.99-.77.413-.187.856-.28 1.33-.28.606 0 1.13.17 1.57.51.446.34.67.823.67 1.45 0 .62-.267 1.24-.8 1.86-.534.613-1.347 1.35-2.44 2.21h3.27v.74zm3.818.12c-.44 0-.83-.1-1.17-.3-.333-.207-.6-.48-.8-.82a4.432 4.432 0 01-.44-1.1 5.324 5.324 0 01-.14-1.23c0-.427.047-.837.14-1.23.1-.393.247-.757.44-1.09.2-.34.467-.61.8-.81.34-.207.73-.31 1.17-.31.434 0 .82.103 1.16.31.34.2.607.47.8.81.2.333.347.697.44 1.09.1.393.15.803.15 1.23 0 .427-.05.837-.15 1.23-.093.393-.24.76-.44 1.1-.193.34-.46.613-.8.82-.34.2-.726.3-1.16.3zm-1-1.15c.267.273.6.41 1 .41s.734-.137 1-.41c.267-.28.45-.613.55-1 .1-.387.15-.82.15-1.3 0-.48-.05-.913-.15-1.3a2.16 2.16 0 00-.55-.99 1.34 1.34 0 00-1-.41c-.4 0-.733.137-1 .41a2.17 2.17 0 00-.55.99c-.1.387-.15.82-.15 1.3 0 .48.05.913.15 1.3.1.387.284.72.55 1zm7.124 1.15c-.44 0-.83-.1-1.17-.3-.334-.207-.6-.48-.8-.82a4.394 4.394 0 01-.44-1.1 5.27 5.27 0 01-.14-1.23c0-.427.046-.837.14-1.23.1-.393.246-.757.44-1.09.2-.34.466-.61.8-.81.34-.207.73-.31 1.17-.31.433 0 .82.103 1.16.31.34.2.606.47.8.81.2.333.346.697.44 1.09.1.393.15.803.15 1.23 0 .427-.05.837-.15 1.23-.094.393-.24.76-.44 1.1-.194.34-.46.613-.8.82-.34.2-.727.3-1.16.3zm-1-1.15c.266.273.6.41 1 .41s.733-.137 1-.41c.266-.28.45-.613.55-1 .1-.387.15-.82.15-1.3 0-.48-.05-.913-.15-1.3a2.17 2.17 0 00-.55-.99c-.267-.273-.6-.41-1-.41s-.734.137-1 .41a2.16 2.16 0 00-.55.99c-.1.387-.15.82-.15 1.3 0 .48.05.913.15 1.3.1.387.283.72.55 1zM234.924 563.177h-4.58v-.66a69.9 69.9 0 001.61-1.3c.387-.327.757-.67 1.11-1.03.36-.367.613-.69.76-.97.147-.287.22-.57.22-.85 0-.4-.137-.703-.41-.91-.273-.207-.6-.31-.98-.31-.767 0-1.37.28-1.81.84l-.51-.53c.253-.333.583-.59.99-.77.413-.187.857-.28 1.33-.28.607 0 1.13.17 1.57.51.447.34.67.823.67 1.45 0 .62-.267 1.24-.8 1.86-.533.613-1.347 1.35-2.44 2.21h3.27v.74zm3.769.12c-1.027 0-1.81-.357-2.35-1.07l.51-.55c.46.587 1.073.88 1.84.88.453 0 .823-.137 1.11-.41.286-.273.43-.613.43-1.02 0-.433-.144-.78-.43-1.04-.28-.267-.647-.4-1.1-.4-.6 0-1.114.21-1.54.63l-.61-.21v-3.6h4.08v.74h-3.25v2.32c.4-.4.92-.6 1.56-.6.586 0 1.086.193 1.5.58.413.38.62.897.62 1.55 0 .667-.224 1.2-.67 1.6-.447.4-1.014.6-1.7.6zm5.948 0c-.44 0-.83-.1-1.17-.3-.333-.207-.6-.48-.8-.82a4.432 4.432 0 01-.44-1.1 5.324 5.324 0 01-.14-1.23c0-.427.047-.837.14-1.23.1-.393.247-.757.44-1.09.2-.34.467-.61.8-.81.34-.207.73-.31 1.17-.31.434 0 .82.103 1.16.31.34.2.607.47.8.81.2.333.347.697.44 1.09.1.393.15.803.15 1.23 0 .427-.05.837-.15 1.23-.093.393-.24.76-.44 1.1-.193.34-.46.613-.8.82-.34.2-.726.3-1.16.3zm-1-1.15c.267.273.6.41 1 .41s.734-.137 1-.41c.267-.28.45-.613.55-1 .1-.387.15-.82.15-1.3 0-.48-.05-.913-.15-1.3a2.16 2.16 0 00-.55-.99 1.34 1.34 0 00-1-.41c-.4 0-.733.137-1 .41a2.17 2.17 0 00-.55.99c-.1.387-.15.82-.15 1.3 0 .48.05.913.15 1.3.1.387.284.72.55 1zM263.508 563.297c-.533 0-1.007-.103-1.42-.31-.413-.207-.73-.47-.95-.79l.49-.52c.2.267.463.48.79.64a2.4 2.4 0 001.07.24c.487 0 .867-.11 1.14-.33.28-.227.42-.533.42-.92 0-.4-.15-.697-.45-.89-.293-.193-.697-.29-1.21-.29-.393 0-.623.003-.69.01v-.76c.073.007.303.01.69.01.453 0 .823-.09 1.11-.27.293-.187.44-.463.44-.83a.957.957 0 00-.43-.83c-.28-.207-.633-.31-1.06-.31-.673 0-1.26.27-1.76.81l-.46-.52c.567-.687 1.327-1.03 2.28-1.03.66 0 1.2.16 1.62.48.427.313.64.747.64 1.3 0 .44-.147.793-.44 1.06-.293.26-.627.423-1 .49.367.033.713.193 1.04.48.333.287.5.673.5 1.16 0 .567-.213 1.03-.64 1.39-.427.353-1 .53-1.72.53zm5.966 0c-.44 0-.83-.1-1.17-.3-.333-.207-.6-.48-.8-.82a4.432 4.432 0 01-.44-1.1 5.324 5.324 0 01-.14-1.23c0-.427.047-.837.14-1.23.1-.393.247-.757.44-1.09.2-.34.467-.61.8-.81.34-.207.73-.31 1.17-.31.434 0 .82.103 1.16.31.34.2.607.47.8.81.2.333.347.697.44 1.09.1.393.15.803.15 1.23 0 .427-.05.837-.15 1.23-.093.393-.24.76-.44 1.1-.193.34-.46.613-.8.82-.34.2-.726.3-1.16.3zm-1-1.15c.267.273.6.41 1 .41s.734-.137 1-.41c.267-.28.45-.613.55-1 .1-.387.15-.82.15-1.3 0-.48-.05-.913-.15-1.3a2.16 2.16 0 00-.55-.99 1.34 1.34 0 00-1-.41c-.4 0-.733.137-1 .41a2.17 2.17 0 00-.55.99c-.1.387-.15.82-.15 1.3 0 .48.05.913.15 1.3.1.387.284.72.55 1zm7.123 1.15c-.44 0-.83-.1-1.17-.3-.333-.207-.6-.48-.8-.82a4.432 4.432 0 01-.44-1.1 5.324 5.324 0 01-.14-1.23c0-.427.047-.837.14-1.23.1-.393.247-.757.44-1.09.2-.34.467-.61.8-.81.34-.207.73-.31 1.17-.31.434 0 .82.103 1.16.31.34.2.607.47.8.81.2.333.347.697.44 1.09.1.393.15.803.15 1.23 0 .427-.05.837-.15 1.23-.093.393-.24.76-.44 1.1-.193.34-.46.613-.8.82-.34.2-.726.3-1.16.3zm-1-1.15c.267.273.6.41 1 .41s.734-.137 1-.41c.267-.28.45-.613.55-1 .1-.387.15-.82.15-1.3 0-.48-.05-.913-.15-1.3a2.16 2.16 0 00-.55-.99 1.34 1.34 0 00-1-.41c-.4 0-.733.137-1 .41a2.17 2.17 0 00-.55.99c-.1.387-.15.82-.15 1.3 0 .48.05.913.15 1.3.1.387.284.72.55 1zM293.62 563.297c-.533 0-1.007-.103-1.42-.31-.413-.207-.73-.47-.95-.79l.49-.52c.2.267.463.48.79.64a2.4 2.4 0 001.07.24c.487 0 .867-.11 1.14-.33.28-.227.42-.533.42-.92 0-.4-.15-.697-.45-.89-.293-.193-.697-.29-1.21-.29-.393 0-.623.003-.69.01v-.76c.073.007.303.01.69.01.453 0 .823-.09 1.11-.27.293-.187.44-.463.44-.83a.957.957 0 00-.43-.83c-.28-.207-.633-.31-1.06-.31-.673 0-1.26.27-1.76.81l-.46-.52c.567-.687 1.327-1.03 2.28-1.03.66 0 1.2.16 1.62.48.427.313.64.747.64 1.3 0 .44-.147.793-.44 1.06-.293.26-.627.423-1 .49.367.033.713.193 1.04.48.333.287.5.673.5 1.16 0 .567-.213 1.03-.64 1.39-.427.353-1 .53-1.72.53zm5.917 0c-1.027 0-1.81-.357-2.35-1.07l.51-.55c.46.587 1.073.88 1.84.88.453 0 .823-.137 1.11-.41.286-.273.43-.613.43-1.02 0-.433-.144-.78-.43-1.04-.28-.267-.647-.4-1.1-.4-.6 0-1.114.21-1.54.63l-.61-.21v-3.6h4.08v.74h-3.25v2.32c.4-.4.92-.6 1.56-.6.586 0 1.086.193 1.5.58.413.38.62.897.62 1.55 0 .667-.224 1.2-.67 1.6-.447.4-1.014.6-1.7.6zm5.948 0c-.44 0-.83-.1-1.17-.3-.333-.207-.6-.48-.8-.82a4.432 4.432 0 01-.44-1.1 5.324 5.324 0 01-.14-1.23c0-.427.047-.837.14-1.23.1-.393.247-.757.44-1.09.2-.34.467-.61.8-.81.34-.207.73-.31 1.17-.31.433 0 .82.103 1.16.31.34.2.607.47.8.81.2.333.347.697.44 1.09.1.393.15.803.15 1.23 0 .427-.05.837-.15 1.23-.093.393-.24.76-.44 1.1-.193.34-.46.613-.8.82-.34.2-.727.3-1.16.3zm-1-1.15c.267.273.6.41 1 .41s.733-.137 1-.41c.267-.28.45-.613.55-1 .1-.387.15-.82.15-1.3 0-.48-.05-.913-.15-1.3a2.16 2.16 0 00-.55-.99c-.267-.273-.6-.41-1-.41s-.733.137-1 .41a2.16 2.16 0 00-.55.99c-.1.387-.15.82-.15 1.3 0 .48.05.913.15 1.3.1.387.283.72.55 1zM325.163 563.177h-.83v-1.69h-3.17v-.69l2.86-4.29h1.14v4.25h.94v.73h-.94v1.69zm-.83-2.42v-3.48l-2.34 3.48h2.34zm5.146 2.54c-.44 0-.83-.1-1.17-.3-.333-.207-.6-.48-.8-.82a4.432 4.432 0 01-.44-1.1 5.324 5.324 0 01-.14-1.23c0-.427.047-.837.14-1.23.1-.393.247-.757.44-1.09.2-.34.467-.61.8-.81.34-.207.73-.31 1.17-.31.433 0 .82.103 1.16.31.34.2.607.47.8.81.2.333.347.697.44 1.09.1.393.15.803.15 1.23 0 .427-.05.837-.15 1.23-.093.393-.24.76-.44 1.1-.193.34-.46.613-.8.82-.34.2-.727.3-1.16.3zm-1-1.15c.267.273.6.41 1 .41s.733-.137 1-.41c.267-.28.45-.613.55-1 .1-.387.15-.82.15-1.3 0-.48-.05-.913-.15-1.3a2.16 2.16 0 00-.55-.99c-.267-.273-.6-.41-1-.41s-.733.137-1 .41a2.16 2.16 0 00-.55.99c-.1.387-.15.82-.15 1.3 0 .48.05.913.15 1.3.1.387.283.72.55 1zm7.123 1.15c-.44 0-.83-.1-1.17-.3-.333-.207-.6-.48-.8-.82a4.432 4.432 0 01-.44-1.1 5.324 5.324 0 01-.14-1.23c0-.427.047-.837.14-1.23.1-.393.247-.757.44-1.09.2-.34.467-.61.8-.81.34-.207.73-.31 1.17-.31.434 0 .82.103 1.16.31.34.2.607.47.8.81.2.333.347.697.44 1.09.1.393.15.803.15 1.23 0 .427-.05.837-.15 1.23-.093.393-.24.76-.44 1.1-.193.34-.46.613-.8.82-.34.2-.726.3-1.16.3zm-1-1.15c.267.273.6.41 1 .41s.734-.137 1-.41c.267-.28.45-.613.55-1 .1-.387.15-.82.15-1.3 0-.48-.05-.913-.15-1.3a2.16 2.16 0 00-.55-.99 1.34 1.34 0 00-1-.41c-.4 0-.733.137-1 .41a2.17 2.17 0 00-.55.99c-.1.387-.15.82-.15 1.3 0 .48.05.913.15 1.3.1.387.284.72.55 1zM355.275 563.177h-.83v-1.69h-3.17v-.69l2.86-4.29h1.14v4.25h.94v.73h-.94v1.69zm-.83-2.42v-3.48l-2.34 3.48h2.34zm5.096 2.54c-1.026 0-1.81-.357-2.35-1.07l.51-.55c.46.587 1.074.88 1.84.88.454 0 .824-.137 1.11-.41a1.35 1.35 0 00.43-1.02c0-.433-.143-.78-.43-1.04-.28-.267-.646-.4-1.1-.4-.6 0-1.113.21-1.54.63l-.61-.21v-3.6h4.08v.74h-3.25v2.32c.4-.4.92-.6 1.56-.6.587 0 1.087.193 1.5.58.414.38.62.897.62 1.55 0 .667-.223 1.2-.67 1.6-.446.4-1.013.6-1.7.6zm5.949 0c-.44 0-.83-.1-1.17-.3-.333-.207-.6-.48-.8-.82a4.432 4.432 0 01-.44-1.1 5.324 5.324 0 01-.14-1.23c0-.427.047-.837.14-1.23.1-.393.247-.757.44-1.09.2-.34.467-.61.8-.81.34-.207.73-.31 1.17-.31.433 0 .82.103 1.16.31.34.2.607.47.8.81.2.333.347.697.44 1.09.1.393.15.803.15 1.23 0 .427-.05.837-.15 1.23-.093.393-.24.76-.44 1.1-.193.34-.46.613-.8.82-.34.2-.727.3-1.16.3zm-1-1.15c.267.273.6.41 1 .41s.733-.137 1-.41c.267-.28.45-.613.55-1 .1-.387.15-.82.15-1.3 0-.48-.05-.913-.15-1.3a2.16 2.16 0 00-.55-.99c-.267-.273-.6-.41-1-.41s-.733.137-1 .41a2.16 2.16 0 00-.55.99c-.1.387-.15.82-.15 1.3 0 .48.05.913.15 1.3.1.387.283.72.55 1zM383.192 563.297c-1.027 0-1.81-.357-2.35-1.07l.51-.55c.46.587 1.073.88 1.84.88.453 0 .823-.137 1.11-.41.286-.273.43-.613.43-1.02 0-.433-.144-.78-.43-1.04-.28-.267-.647-.4-1.1-.4-.6 0-1.114.21-1.54.63l-.61-.21v-3.6h4.08v.74h-3.25v2.32c.4-.4.92-.6 1.56-.6.586 0 1.086.193 1.5.58.413.38.62.897.62 1.55 0 .667-.224 1.2-.67 1.6-.447.4-1.014.6-1.7.6zm5.948 0c-.44 0-.83-.1-1.17-.3-.333-.207-.6-.48-.8-.82a4.432 4.432 0 01-.44-1.1 5.324 5.324 0 01-.14-1.23c0-.427.047-.837.14-1.23.1-.393.247-.757.44-1.09.2-.34.467-.61.8-.81.34-.207.73-.31 1.17-.31.434 0 .82.103 1.16.31.34.2.607.47.8.81.2.333.347.697.44 1.09.1.393.15.803.15 1.23 0 .427-.05.837-.15 1.23-.093.393-.24.76-.44 1.1-.193.34-.46.613-.8.82-.34.2-.726.3-1.16.3zm-1-1.15c.267.273.6.41 1 .41s.734-.137 1-.41c.267-.28.45-.613.55-1 .1-.387.15-.82.15-1.3 0-.48-.05-.913-.15-1.3a2.16 2.16 0 00-.55-.99 1.34 1.34 0 00-1-.41c-.4 0-.733.137-1 .41a2.17 2.17 0 00-.55.99c-.1.387-.15.82-.15 1.3 0 .48.05.913.15 1.3.1.387.284.72.55 1zm7.123 1.15c-.44 0-.83-.1-1.17-.3-.333-.207-.6-.48-.8-.82a4.432 4.432 0 01-.44-1.1 5.324 5.324 0 01-.14-1.23c0-.427.047-.837.14-1.23.1-.393.247-.757.44-1.09.2-.34.467-.61.8-.81.34-.207.73-.31 1.17-.31.434 0 .82.103 1.16.31.34.2.607.47.8.81.2.333.347.697.44 1.09.1.393.15.803.15 1.23 0 .427-.05.837-.15 1.23-.093.393-.24.76-.44 1.1-.193.34-.46.613-.8.82-.34.2-.726.3-1.16.3zm-1-1.15c.267.273.6.41 1 .41s.734-.137 1-.41c.267-.28.45-.613.55-1 .1-.387.15-.82.15-1.3 0-.48-.05-.913-.15-1.3a2.16 2.16 0 00-.55-.99 1.34 1.34 0 00-1-.41c-.4 0-.733.137-1 .41a2.17 2.17 0 00-.55.99c-.1.387-.15.82-.15 1.3 0 .48.05.913.15 1.3.1.387.284.72.55 1zM413.804 563.297c-1.027 0-1.81-.357-2.35-1.07l.51-.55c.46.587 1.073.88 1.84.88.453 0 .823-.137 1.11-.41a1.35 1.35 0 00.43-1.02c0-.433-.143-.78-.43-1.04-.28-.267-.647-.4-1.1-.4-.6 0-1.113.21-1.54.63l-.61-.21v-3.6h4.08v.74h-3.25v2.32c.4-.4.92-.6 1.56-.6.587 0 1.087.193 1.5.58.413.38.62.897.62 1.55 0 .667-.223 1.2-.67 1.6-.447.4-1.013.6-1.7.6zm5.899 0c-1.027 0-1.81-.357-2.35-1.07l.51-.55c.46.587 1.073.88 1.84.88.453 0 .823-.137 1.11-.41.286-.273.43-.613.43-1.02 0-.433-.144-.78-.43-1.04-.28-.267-.647-.4-1.1-.4-.6 0-1.114.21-1.54.63l-.61-.21v-3.6h4.08v.74h-3.25v2.32c.4-.4.92-.6 1.56-.6.586 0 1.086.193 1.5.58.413.38.62.897.62 1.55 0 .667-.224 1.2-.67 1.6-.447.4-1.014.6-1.7.6zm5.948 0c-.44 0-.83-.1-1.17-.3-.333-.207-.6-.48-.8-.82a4.432 4.432 0 01-.44-1.1 5.324 5.324 0 01-.14-1.23c0-.427.047-.837.14-1.23.1-.393.247-.757.44-1.09.2-.34.467-.61.8-.81.34-.207.73-.31 1.17-.31.433 0 .82.103 1.16.31.34.2.607.47.8.81.2.333.347.697.44 1.09.1.393.15.803.15 1.23 0 .427-.05.837-.15 1.23-.093.393-.24.76-.44 1.1-.193.34-.46.613-.8.82-.34.2-.727.3-1.16.3zm-1-1.15c.267.273.6.41 1 .41s.733-.137 1-.41c.267-.28.45-.613.55-1 .1-.387.15-.82.15-1.3 0-.48-.05-.913-.15-1.3a2.16 2.16 0 00-.55-.99c-.267-.273-.6-.41-1-.41s-.733.137-1 .41a2.16 2.16 0 00-.55.99c-.1.387-.15.82-.15 1.3 0 .48.05.913.15 1.3.1.387.283.72.55 1zM443.257 563.297c-.447 0-.84-.093-1.18-.28a2.17 2.17 0 01-.81-.76 4.075 4.075 0 01-.44-1.09 5.867 5.867 0 01-.14-1.31c0-.627.093-1.193.28-1.7.187-.507.487-.923.9-1.25.42-.333.93-.5 1.53-.5.767 0 1.383.267 1.85.8l-.42.62c-.387-.453-.863-.68-1.43-.68-.413 0-.767.13-1.06.39-.287.26-.497.583-.63.97-.127.38-.19.8-.19 1.26 0 .113.003.2.01.26.167-.267.423-.507.77-.72.353-.213.727-.32 1.12-.32.633 0 1.153.187 1.56.56.413.367.62.89.62 1.57a2.11 2.11 0 01-.64 1.55c-.427.42-.993.63-1.7.63zm-.03-.74c.48 0 .853-.143 1.12-.43.273-.293.41-.62.41-.98 0-.467-.143-.823-.43-1.07-.287-.247-.657-.37-1.11-.37-.327 0-.64.093-.94.28-.3.18-.543.42-.73.72.047.493.207.927.48 1.3.273.367.673.55 1.2.55zm5.918.74c-.44 0-.83-.1-1.17-.3-.333-.207-.6-.48-.8-.82a4.432 4.432 0 01-.44-1.1 5.324 5.324 0 01-.14-1.23c0-.427.047-.837.14-1.23.1-.393.247-.757.44-1.09.2-.34.467-.61.8-.81.34-.207.73-.31 1.17-.31.433 0 .82.103 1.16.31.34.2.607.47.8.81.2.333.347.697.44 1.09.1.393.15.803.15 1.23 0 .427-.05.837-.15 1.23-.093.393-.24.76-.44 1.1-.193.34-.46.613-.8.82-.34.2-.727.3-1.16.3zm-1-1.15c.267.273.6.41 1 .41s.733-.137 1-.41c.267-.28.45-.613.55-1 .1-.387.15-.82.15-1.3 0-.48-.05-.913-.15-1.3a2.16 2.16 0 00-.55-.99c-.267-.273-.6-.41-1-.41s-.733.137-1 .41a2.16 2.16 0 00-.55.99c-.1.387-.15.82-.15 1.3 0 .48.05.913.15 1.3.1.387.283.72.55 1zm7.123 1.15c-.44 0-.83-.1-1.17-.3-.333-.207-.6-.48-.8-.82a4.432 4.432 0 01-.44-1.1 5.324 5.324 0 01-.14-1.23c0-.427.047-.837.14-1.23.1-.393.247-.757.44-1.09.2-.34.467-.61.8-.81.34-.207.73-.31 1.17-.31.434 0 .82.103 1.16.31.34.2.607.47.8.81.2.333.347.697.44 1.09.1.393.15.803.15 1.23 0 .427-.05.837-.15 1.23-.093.393-.24.76-.44 1.1-.193.34-.46.613-.8.82-.34.2-.726.3-1.16.3zm-1-1.15c.267.273.6.41 1 .41s.734-.137 1-.41c.267-.28.45-.613.55-1 .1-.387.15-.82.15-1.3 0-.48-.05-.913-.15-1.3a2.16 2.16 0 00-.55-.99 1.34 1.34 0 00-1-.41c-.4 0-.733.137-1 .41a2.17 2.17 0 00-.55.99c-.1.387-.15.82-.15 1.3 0 .48.05.913.15 1.3.1.387.284.72.55 1zM472.869 563.297a2.41 2.41 0 01-1.18-.28 2.17 2.17 0 01-.81-.76 4.075 4.075 0 01-.44-1.09 5.867 5.867 0 01-.14-1.31c0-.627.094-1.193.28-1.7.187-.507.487-.923.9-1.25.42-.333.93-.5 1.53-.5.767 0 1.384.267 1.85.8l-.42.62c-.386-.453-.863-.68-1.43-.68-.413 0-.766.13-1.06.39-.286.26-.496.583-.63.97a3.985 3.985 0 00-.18 1.52c.167-.267.424-.507.77-.72.354-.213.727-.32 1.12-.32.634 0 1.154.187 1.56.56.414.367.62.89.62 1.57a2.11 2.11 0 01-.64 1.55c-.426.42-.993.63-1.7.63zm-.03-.74c.48 0 .854-.143 1.12-.43.274-.293.41-.62.41-.98 0-.467-.143-.823-.43-1.07-.286-.247-.656-.37-1.11-.37-.326 0-.64.093-.94.28-.3.18-.543.42-.73.72.047.493.207.927.48 1.3.274.367.674.55 1.2.55zm5.869.74c-1.027 0-1.81-.357-2.35-1.07l.51-.55c.46.587 1.073.88 1.84.88.453 0 .823-.137 1.11-.41.286-.273.43-.613.43-1.02 0-.433-.144-.78-.43-1.04-.28-.267-.647-.4-1.1-.4-.6 0-1.114.21-1.54.63l-.61-.21v-3.6h4.08v.74h-3.25v2.32c.4-.4.92-.6 1.56-.6.586 0 1.086.193 1.5.58.413.38.62.897.62 1.55 0 .667-.224 1.2-.67 1.6-.447.4-1.014.6-1.7.6zm5.948 0c-.44 0-.83-.1-1.17-.3-.333-.207-.6-.48-.8-.82a4.432 4.432 0 01-.44-1.1 5.324 5.324 0 01-.14-1.23c0-.427.047-.837.14-1.23.1-.393.247-.757.44-1.09.2-.34.467-.61.8-.81.34-.207.73-.31 1.17-.31.433 0 .82.103 1.16.31.34.2.607.47.8.81.2.333.347.697.44 1.09.1.393.15.803.15 1.23 0 .427-.05.837-.15 1.23-.093.393-.24.76-.44 1.1-.193.34-.46.613-.8.82-.34.2-.727.3-1.16.3zm-1-1.15c.267.273.6.41 1 .41s.733-.137 1-.41c.267-.28.45-.613.55-1 .1-.387.15-.82.15-1.3 0-.48-.05-.913-.15-1.3a2.16 2.16 0 00-.55-.99c-.267-.273-.6-.41-1-.41s-.733.137-1 .41a2.16 2.16 0 00-.55.99c-.1.387-.15.82-.15 1.3 0 .48.05.913.15 1.3.1.387.283.72.55 1zM503.188 563.177h-.92l2.69-5.93h-3.59v-.74h4.55v.57l-2.73 6.1zm6.076.12c-.44 0-.83-.1-1.17-.3-.333-.207-.6-.48-.8-.82a4.432 4.432 0 01-.44-1.1 5.324 5.324 0 01-.14-1.23c0-.427.047-.837.14-1.23.1-.393.247-.757.44-1.09.2-.34.467-.61.8-.81.34-.207.73-.31 1.17-.31.434 0 .82.103 1.16.31.34.2.607.47.8.81.2.333.347.697.44 1.09.1.393.15.803.15 1.23 0 .427-.05.837-.15 1.23-.093.393-.24.76-.44 1.1-.193.34-.46.613-.8.82-.34.2-.726.3-1.16.3zm-1-1.15c.267.273.6.41 1 .41s.734-.137 1-.41c.267-.28.45-.613.55-1 .1-.387.15-.82.15-1.3 0-.48-.05-.913-.15-1.3a2.16 2.16 0 00-.55-.99 1.34 1.34 0 00-1-.41c-.4 0-.733.137-1 .41a2.17 2.17 0 00-.55.99c-.1.387-.15.82-.15 1.3 0 .48.05.913.15 1.3.1.387.284.72.55 1zm7.123 1.15c-.44 0-.83-.1-1.17-.3-.333-.207-.6-.48-.8-.82a4.432 4.432 0 01-.44-1.1 5.324 5.324 0 01-.14-1.23c0-.427.047-.837.14-1.23.1-.393.247-.757.44-1.09.2-.34.467-.61.8-.81.34-.207.73-.31 1.17-.31.434 0 .82.103 1.16.31.34.2.607.47.8.81.2.333.347.697.44 1.09.1.393.15.803.15 1.23 0 .427-.05.837-.15 1.23-.093.393-.24.76-.44 1.1-.193.34-.46.613-.8.82-.34.2-.726.3-1.16.3zm-1-1.15c.267.273.6.41 1 .41s.734-.137 1-.41c.267-.28.45-.613.55-1 .1-.387.15-.82.15-1.3 0-.48-.05-.913-.15-1.3a2.16 2.16 0 00-.55-.99 1.34 1.34 0 00-1-.41c-.4 0-.733.137-1 .41a2.17 2.17 0 00-.55.99c-.1.387-.15.82-.15 1.3 0 .48.05.913.15 1.3.1.387.284.72.55 1zM533.3 563.177h-.92l2.69-5.93h-3.59v-.74h4.55v.57l-2.73 6.1zm6.027.12c-1.027 0-1.81-.357-2.35-1.07l.51-.55c.46.587 1.073.88 1.84.88.453 0 .823-.137 1.11-.41.286-.273.43-.613.43-1.02 0-.433-.144-.78-.43-1.04-.28-.267-.647-.4-1.1-.4-.6 0-1.114.21-1.54.63l-.61-.21v-3.6h4.08v.74h-3.25v2.32c.4-.4.92-.6 1.56-.6.586 0 1.086.193 1.5.58.413.38.62.897.62 1.55 0 .667-.224 1.2-.67 1.6-.447.4-1.014.6-1.7.6zm5.948 0c-.44 0-.83-.1-1.17-.3-.333-.207-.6-.48-.8-.82a4.432 4.432 0 01-.44-1.1 5.324 5.324 0 01-.14-1.23c0-.427.047-.837.14-1.23.1-.393.247-.757.44-1.09.2-.34.467-.61.8-.81.34-.207.73-.31 1.17-.31.433 0 .82.103 1.16.31.34.2.607.47.8.81.2.333.347.697.44 1.09.1.393.15.803.15 1.23 0 .427-.05.837-.15 1.23-.093.393-.24.76-.44 1.1-.193.34-.46.613-.8.82-.34.2-.727.3-1.16.3zm-1-1.15c.267.273.6.41 1 .41s.733-.137 1-.41c.267-.28.45-.613.55-1 .1-.387.15-.82.15-1.3 0-.48-.05-.913-.15-1.3a2.16 2.16 0 00-.55-.99c-.267-.273-.6-.41-1-.41s-.733.137-1 .41a2.16 2.16 0 00-.55.99c-.1.387-.15.82-.15 1.3 0 .48.05.913.15 1.3.1.387.283.72.55 1zM564.836 562.807c-.454.327-1.02.49-1.7.49-.68 0-1.25-.163-1.71-.49-.454-.327-.68-.767-.68-1.32 0-.42.15-.783.45-1.09a2.614 2.614 0 011.14-.66 2.473 2.473 0 01-1.06-.58 1.367 1.367 0 01-.42-1.02c0-.56.226-.987.68-1.28.453-.3.986-.45 1.6-.45.613 0 1.146.15 1.6.45.46.293.69.72.69 1.28 0 .407-.14.747-.42 1.02-.28.267-.637.46-1.07.58.453.133.83.353 1.13.66.306.307.46.67.46 1.09 0 .547-.23.987-.69 1.32zm-1.7-3.41c.133-.02.266-.053.4-.1.14-.047.296-.11.47-.19.173-.087.313-.203.42-.35a.876.876 0 00.16-.51c0-.333-.14-.6-.42-.8-.274-.2-.617-.3-1.03-.3-.42 0-.767.1-1.04.3a.942.942 0 00-.41.8.87.87 0 00.16.51c.106.147.246.263.42.35.173.08.326.143.46.19.14.04.276.073.41.1zm0 3.16c.426 0 .79-.107 1.09-.32.306-.213.46-.493.46-.84 0-.267-.107-.5-.32-.7a1.774 1.774 0 00-.64-.43 2.236 2.236 0 00-.59-.16c-.18.02-.38.073-.6.16-.214.08-.427.223-.64.43a.929.929 0 00-.32.7c0 .347.15.627.45.84.306.213.676.32 1.11.32zm5.96.74c-.44 0-.83-.1-1.17-.3-.333-.207-.6-.48-.8-.82a4.432 4.432 0 01-.44-1.1 5.324 5.324 0 01-.14-1.23c0-.427.047-.837.14-1.23.1-.393.247-.757.44-1.09.2-.34.467-.61.8-.81.34-.207.73-.31 1.17-.31.434 0 .82.103 1.16.31.34.2.607.47.8.81.2.333.347.697.44 1.09.1.393.15.803.15 1.23 0 .427-.05.837-.15 1.23-.093.393-.24.76-.44 1.1-.193.34-.46.613-.8.82-.34.2-.726.3-1.16.3zm-1-1.15c.267.273.6.41 1 .41s.734-.137 1-.41c.267-.28.45-.613.55-1 .1-.387.15-.82.15-1.3 0-.48-.05-.913-.15-1.3a2.16 2.16 0 00-.55-.99 1.34 1.34 0 00-1-.41c-.4 0-.733.137-1 .41a2.17 2.17 0 00-.55.99c-.1.387-.15.82-.15 1.3 0 .48.05.913.15 1.3.1.387.284.72.55 1zm7.123 1.15c-.44 0-.83-.1-1.17-.3-.333-.207-.6-.48-.8-.82a4.432 4.432 0 01-.44-1.1 5.324 5.324 0 01-.14-1.23c0-.427.047-.837.14-1.23.1-.393.247-.757.44-1.09.2-.34.467-.61.8-.81.34-.207.73-.31 1.17-.31.434 0 .82.103 1.16.31.34.2.607.47.8.81.2.333.347.697.44 1.09.1.393.15.803.15 1.23 0 .427-.05.837-.15 1.23-.093.393-.24.76-.44 1.1-.193.34-.46.613-.8.82-.34.2-.726.3-1.16.3zm-1-1.15c.267.273.6.41 1 .41s.734-.137 1-.41c.267-.28.45-.613.55-1 .1-.387.15-.82.15-1.3 0-.48-.05-.913-.15-1.3a2.16 2.16 0 00-.55-.99 1.34 1.34 0 00-1-.41c-.4 0-.733.137-1 .41a2.17 2.17 0 00-.55.99c-.1.387-.15.82-.15 1.3 0 .48.05.913.15 1.3.1.387.284.72.55 1zM594.448 562.807c-.453.327-1.02.49-1.7.49-.68 0-1.25-.163-1.71-.49-.453-.327-.68-.767-.68-1.32 0-.42.15-.783.45-1.09a2.626 2.626 0 011.14-.66 2.473 2.473 0 01-1.06-.58 1.367 1.367 0 01-.42-1.02c0-.56.227-.987.68-1.28.453-.3.987-.45 1.6-.45.613 0 1.147.15 1.6.45.46.293.69.72.69 1.28 0 .407-.14.747-.42 1.02-.28.267-.637.46-1.07.58.453.133.83.353 1.13.66.307.307.46.67.46 1.09 0 .547-.23.987-.69 1.32zm-1.7-3.41c.133-.02.267-.053.4-.1.14-.047.297-.11.47-.19.173-.087.313-.203.42-.35a.87.87 0 00.16-.51c0-.333-.14-.6-.42-.8-.273-.2-.617-.3-1.03-.3-.42 0-.767.1-1.04.3a.944.944 0 00-.41.8.87.87 0 00.16.51c.107.147.247.263.42.35.173.08.327.143.46.19.14.04.277.073.41.1zm0 3.16c.427 0 .79-.107 1.09-.32.307-.213.46-.493.46-.84 0-.267-.107-.5-.32-.7a1.774 1.774 0 00-.64-.43 2.226 2.226 0 00-.59-.16c-.18.02-.38.073-.6.16a1.89 1.89 0 00-.64.43.932.932 0 00-.32.7c0 .347.15.627.45.84.307.213.677.32 1.11.32zm5.911.74c-1.027 0-1.81-.357-2.35-1.07l.51-.55c.46.587 1.073.88 1.84.88.453 0 .823-.137 1.11-.41.286-.273.43-.613.43-1.02 0-.433-.144-.78-.43-1.04-.28-.267-.647-.4-1.1-.4-.6 0-1.114.21-1.54.63l-.61-.21v-3.6h4.08v.74h-3.25v2.32c.4-.4.92-.6 1.56-.6.586 0 1.086.193 1.5.58.413.38.62.897.62 1.55 0 .667-.224 1.2-.67 1.6-.447.4-1.014.6-1.7.6zm5.948 0c-.44 0-.83-.1-1.17-.3-.333-.207-.6-.48-.8-.82a4.432 4.432 0 01-.44-1.1 5.324 5.324 0 01-.14-1.23c0-.427.047-.837.14-1.23.1-.393.247-.757.44-1.09.2-.34.467-.61.8-.81.34-.207.73-.31 1.17-.31.433 0 .82.103 1.16.31.34.2.607.47.8.81.2.333.347.697.44 1.09.1.393.15.803.15 1.23 0 .427-.05.837-.15 1.23-.093.393-.24.76-.44 1.1-.193.34-.46.613-.8.82-.34.2-.727.3-1.16.3zm-1-1.15c.267.273.6.41 1 .41s.733-.137 1-.41c.267-.28.45-.613.55-1 .1-.387.15-.82.15-1.3 0-.48-.05-.913-.15-1.3a2.16 2.16 0 00-.55-.99c-.267-.273-.6-.41-1-.41s-.733.137-1 .41a2.16 2.16 0 00-.55.99c-.1.387-.15.82-.15 1.3 0 .48.05.913.15 1.3.1.387.283.72.55 1zM622.867 563.287c-.767 0-1.383-.267-1.85-.8l.42-.62c.387.453.863.68 1.43.68.427 0 .787-.133 1.08-.4.293-.267.5-.59.62-.97a4.097 4.097 0 00.17-1.51c-.167.267-.423.507-.77.72-.347.213-.717.32-1.11.32-.633 0-1.157-.183-1.57-.55-.413-.373-.62-.9-.62-1.58 0-.6.213-1.113.64-1.54.427-.427.99-.64 1.69-.64.453 0 .85.093 1.19.28.34.187.607.443.8.77.2.327.347.69.44 1.09.1.4.15.837.15 1.31 0 .627-.093 1.193-.28 1.7-.187.5-.49.917-.91 1.25-.413.327-.92.49-1.52.49zm.18-3.3c.327 0 .64-.09.94-.27.307-.18.547-.42.72-.72a2.499 2.499 0 00-.47-1.3c-.273-.373-.673-.56-1.2-.56-.473 0-.847.147-1.12.44-.273.293-.41.617-.41.97 0 .467.143.823.43 1.07.287.247.657.37 1.11.37zm6.098 3.31c-.44 0-.83-.1-1.17-.3-.333-.207-.6-.48-.8-.82a4.432 4.432 0 01-.44-1.1 5.324 5.324 0 01-.14-1.23c0-.427.047-.837.14-1.23.1-.393.247-.757.44-1.09.2-.34.467-.61.8-.81.34-.207.73-.31 1.17-.31.434 0 .82.103 1.16.31.34.2.607.47.8.81.2.333.347.697.44 1.09.1.393.15.803.15 1.23 0 .427-.05.837-.15 1.23-.093.393-.24.76-.44 1.1-.193.34-.46.613-.8.82-.34.2-.726.3-1.16.3zm-1-1.15c.267.273.6.41 1 .41s.734-.137 1-.41c.267-.28.45-.613.55-1 .1-.387.15-.82.15-1.3 0-.48-.05-.913-.15-1.3a2.16 2.16 0 00-.55-.99 1.34 1.34 0 00-1-.41c-.4 0-.733.137-1 .41a2.17 2.17 0 00-.55.99c-.1.387-.15.82-.15 1.3 0 .48.05.913.15 1.3.1.387.284.72.55 1zm7.123 1.15c-.44 0-.83-.1-1.17-.3-.333-.207-.6-.48-.8-.82a4.432 4.432 0 01-.44-1.1 5.324 5.324 0 01-.14-1.23c0-.427.047-.837.14-1.23.1-.393.247-.757.44-1.09.2-.34.467-.61.8-.81.34-.207.73-.31 1.17-.31.434 0 .82.103 1.16.31.34.2.607.47.8.81.2.333.347.697.44 1.09.1.393.15.803.15 1.23 0 .427-.05.837-.15 1.23-.093.393-.24.76-.44 1.1-.193.34-.46.613-.8.82-.34.2-.726.3-1.16.3zm-1-1.15c.267.273.6.41 1 .41s.734-.137 1-.41c.267-.28.45-.613.55-1 .1-.387.15-.82.15-1.3 0-.48-.05-.913-.15-1.3a2.16 2.16 0 00-.55-.99 1.34 1.34 0 00-1-.41c-.4 0-.733.137-1 .41a2.17 2.17 0 00-.55.99c-.1.387-.15.82-.15 1.3 0 .48.05.913.15 1.3.1.387.284.72.55 1zM653.479 563.287c-.766 0-1.383-.267-1.85-.8l.42-.62c.387.453.864.68 1.43.68.427 0 .787-.133 1.08-.4.294-.267.5-.59.62-.97a4.097 4.097 0 00.17-1.51c-.166.267-.423.507-.77.72-.346.213-.716.32-1.11.32-.633 0-1.156-.183-1.57-.55-.413-.373-.62-.9-.62-1.58 0-.6.214-1.113.64-1.54.427-.427.99-.64 1.69-.64.454 0 .85.093 1.19.28.34.187.607.443.8.77.2.327.347.69.44 1.09.1.4.15.837.15 1.31 0 .627-.093 1.193-.28 1.7-.186.5-.49.917-.91 1.25-.413.327-.92.49-1.52.49zm.18-3.3c.327 0 .64-.09.94-.27.307-.18.547-.42.72-.72a2.49 2.49 0 00-.47-1.3c-.273-.373-.673-.56-1.2-.56-.473 0-.846.147-1.12.44-.273.293-.41.617-.41.97 0 .467.144.823.43 1.07.287.247.657.37 1.11.37zm6.049 3.31c-1.027 0-1.81-.357-2.35-1.07l.51-.55c.46.587 1.073.88 1.84.88.453 0 .823-.137 1.11-.41.286-.273.43-.613.43-1.02 0-.433-.144-.78-.43-1.04-.28-.267-.647-.4-1.1-.4-.6 0-1.114.21-1.54.63l-.61-.21v-3.6h4.08v.74h-3.25v2.32c.4-.4.92-.6 1.56-.6.586 0 1.086.193 1.5.58.413.38.62.897.62 1.55 0 .667-.224 1.2-.67 1.6-.447.4-1.014.6-1.7.6zm5.948 0c-.44 0-.83-.1-1.17-.3-.333-.207-.6-.48-.8-.82a4.432 4.432 0 01-.44-1.1 5.324 5.324 0 01-.14-1.23c0-.427.047-.837.14-1.23.1-.393.247-.757.44-1.09.2-.34.467-.61.8-.81.34-.207.73-.31 1.17-.31.433 0 .82.103 1.16.31.34.2.607.47.8.81.2.333.347.697.44 1.09.1.393.15.803.15 1.23 0 .427-.05.837-.15 1.23-.093.393-.24.76-.44 1.1-.193.34-.46.613-.8.82-.34.2-.727.3-1.16.3zm-1-1.15c.267.273.6.41 1 .41s.733-.137 1-.41c.267-.28.45-.613.55-1 .1-.387.15-.82.15-1.3 0-.48-.05-.913-.15-1.3a2.16 2.16 0 00-.55-.99c-.267-.273-.6-.41-1-.41s-.733.137-1 .41a2.16 2.16 0 00-.55.99c-.1.387-.15.82-.15 1.3 0 .48.05.913.15 1.3.1.387.283.72.55 1zM116.253 563.297c-1.026 0-1.81-.357-2.35-1.07l.51-.55c.46.587 1.074.88 1.84.88.454 0 .824-.137 1.11-.41a1.35 1.35 0 00.43-1.02c0-.433-.143-.78-.43-1.04-.28-.267-.646-.4-1.1-.4-.6 0-1.113.21-1.54.63l-.61-.21v-3.6h4.08v.74h-3.25v2.32c.4-.4.92-.6 1.56-.6.587 0 1.087.193 1.5.58.414.38.62.897.62 1.55 0 .667-.223 1.2-.67 1.6-.446.4-1.013.6-1.7.6zm5.949 0c-.44 0-.83-.1-1.17-.3-.333-.207-.6-.48-.8-.82a4.432 4.432 0 01-.44-1.1 5.324 5.324 0 01-.14-1.23c0-.427.047-.837.14-1.23.1-.393.247-.757.44-1.09.2-.34.467-.61.8-.81.34-.207.73-.31 1.17-.31.433 0 .82.103 1.16.31.34.2.607.47.8.81.2.333.347.697.44 1.09.1.393.15.803.15 1.23 0 .427-.05.837-.15 1.23-.093.393-.24.76-.44 1.1-.193.34-.46.613-.8.82-.34.2-.727.3-1.16.3zm-1-1.15c.267.273.6.41 1 .41s.733-.137 1-.41c.267-.28.45-.613.55-1 .1-.387.15-.82.15-1.3 0-.48-.05-.913-.15-1.3a2.16 2.16 0 00-.55-.99c-.267-.273-.6-.41-1-.41s-.733.137-1 .41a2.16 2.16 0 00-.55.99c-.1.387-.15.82-.15 1.3 0 .48.05.913.15 1.3.1.387.283.72.55 1z" fill="#92C9EC"/><path d="M27.787 413.633v5.484h-8.004v-5.484h1.236v4.08h2.076v-3.996h1.236v3.996h2.22v-4.08h1.236zm0-6.482v1.416l-2.136 1.5 2.136 1.512v1.404l-2.976-2.124-2.82 2.004v-1.416l1.968-1.38-1.968-1.368v-1.416l2.82 2.004 2.976-2.136zm.144-3.132c0 .88-.28 1.608-.84 2.184-.568.568-1.304.852-2.208.852-.848 0-1.564-.276-2.148-.828-.592-.56-.888-1.264-.888-2.112 0-.856.296-1.544.888-2.064.592-.528 1.348-.792 2.268-.792h.3v4.476a1.753 1.753 0 001.14-.564c.304-.328.456-.756.456-1.284 0-.296-.056-.592-.168-.888a2.056 2.056 0 00-.468-.756l.828-.576c.56.584.84 1.368.84 2.352zm-3.516-1.536c-.4.016-.756.164-1.068.444-.312.272-.468.668-.468 1.188 0 .496.156.884.468 1.164.304.28.66.436 1.068.468v-3.264zm3.372-3.727v1.26H21.99v-1.26h.852a2.68 2.68 0 01-.708-.84 2.146 2.146 0 01-.276-1.044h1.248a1.91 1.91 0 00-.036.396c0 .264.08.548.24.852.152.296.328.508.528.636h3.948zm.144-5.54c0 .88-.284 1.6-.852 2.16-.576.56-1.308.84-2.196.84-.88 0-1.604-.28-2.172-.84-.576-.56-.864-1.28-.864-2.16 0-.968.344-1.708 1.032-2.22l.768.828c-.456.32-.684.764-.684 1.332 0 .528.18.952.54 1.272.352.32.812.48 1.38.48.568 0 1.032-.16 1.392-.48.36-.32.54-.744.54-1.272 0-.552-.228-.996-.684-1.332l.768-.828c.688.512 1.032 1.252 1.032 2.22zm-6.648-3.949a.778.778 0 01-.78.78.778.778 0 01-.78-.78c0-.216.076-.4.228-.552a.752.752 0 01.552-.228c.216 0 .4.076.552.228a.752.752 0 01.228.552zm6.504-.636v1.26H21.99v-1.26h5.796zm.144-3.615c0 1.04-.3 1.868-.9 2.484l-.912-.576c.224-.216.416-.508.576-.876.16-.368.24-.732.24-1.092 0-.368-.072-.648-.216-.84a.665.665 0 00-.564-.3c-.208 0-.368.12-.48.36-.12.24-.212.532-.276.876-.072.344-.156.688-.252 1.032a1.953 1.953 0 01-.54.876c-.256.24-.588.36-.996.36-.496 0-.912-.204-1.248-.612-.344-.408-.516-.964-.516-1.668 0-.888.272-1.64.816-2.256l.888.528a1.987 1.987 0 00-.504.732 2.51 2.51 0 00-.192.984c0 .328.068.592.204.792.128.192.296.288.504.288.16 0 .292-.084.396-.252a2.2 2.2 0 00.216-.648c.048-.264.116-.548.204-.852.08-.304.176-.584.288-.84.112-.264.296-.48.552-.648.248-.176.552-.264.912-.264.528 0 .96.212 1.296.636.336.424.504 1.016.504 1.776zm0-6.356c0 .88-.28 1.608-.84 2.184-.568.568-1.304.852-2.208.852-.848 0-1.564-.276-2.148-.828-.592-.56-.888-1.264-.888-2.112 0-.856.296-1.544.888-2.064.592-.528 1.348-.792 2.268-.792h.3v4.476a1.753 1.753 0 001.14-.564c.304-.328.456-.756.456-1.284 0-.296-.056-.592-.168-.888a2.056 2.056 0 00-.468-.756l.828-.576c.56.584.84 1.368.84 2.352zm-3.516-1.536c-.4.016-.756.164-1.068.444-.312.272-.468.668-.468 1.188 0 .496.156.884.468 1.164.304.28.66.436 1.068.468v-3.264zm3.516-8.67c0 .768-.316 1.388-.948 1.86h3.012v1.26H21.99v-1.26h.792c-.624-.464-.936-1.084-.936-1.86 0-.76.272-1.376.816-1.848.544-.48 1.284-.72 2.22-.72.936 0 1.68.24 2.232.72.544.472.816 1.088.816 1.848zm-1.116.372c0-.496-.18-.892-.54-1.188-.36-.296-.824-.444-1.392-.444s-1.028.148-1.38.444c-.36.296-.54.692-.54 1.188 0 .288.076.572.228.852.152.28.336.492.552.636h2.292c.216-.144.4-.356.552-.636.152-.28.228-.564.228-.852zm.972-9.373v1.26h-3.648c-.424 0-.724.104-.9.312-.184.2-.276.488-.276.864 0 .296.076.576.228.84.152.264.336.48.552.648h4.044v1.26h-8.004v-1.26h3a2.745 2.745 0 01-.66-.864 2.62 2.62 0 01-.276-1.188c0-1.248.612-1.872 1.836-1.872h4.104zm0-6.436v1.26h-.624c.512.448.768 1.072.768 1.872 0 .528-.168.996-.504 1.404-.344.408-.816.612-1.416.612-.616 0-1.084-.2-1.404-.6a2.23 2.23 0 01-.48-1.416c0-.824.248-1.448.744-1.872h-.864c-.336 0-.6.124-.792.372-.192.248-.288.576-.288.984 0 .648.244 1.22.732 1.716l-.876.516c-.624-.656-.936-1.468-.936-2.436 0-.712.168-1.292.504-1.74.336-.448.868-.672 1.596-.672h3.84zm-.72 2.64c0-.632-.2-1.092-.6-1.38h-.876c-.4.288-.6.748-.6 1.38 0 .36.096.656.288.888a.934.934 0 00.756.348.934.934 0 00.756-.348c.184-.232.276-.528.276-.888zm.864-6.254c0 1.04-.3 1.868-.9 2.484l-.912-.576c.224-.216.416-.508.576-.876.16-.368.24-.732.24-1.092 0-.368-.072-.648-.216-.84a.665.665 0 00-.564-.3c-.208 0-.368.12-.48.36-.12.24-.212.532-.276.876-.072.344-.156.688-.252 1.032a1.953 1.953 0 01-.54.876c-.256.24-.588.36-.996.36-.496 0-.912-.204-1.248-.612-.344-.408-.516-.964-.516-1.668 0-.888.272-1.64.816-2.256l.888.528a1.987 1.987 0 00-.504.732 2.51 2.51 0 00-.192.984c0 .328.068.592.204.792.128.192.296.288.504.288.16 0 .292-.084.396-.252a2.2 2.2 0 00.216-.648c.048-.264.116-.548.204-.852.08-.304.176-.584.288-.84.112-.264.296-.48.552-.648.248-.176.552-.264.912-.264.528 0 .96.212 1.296.636.336.424.504 1.016.504 1.776zm0-6.356c0 .88-.28 1.608-.84 2.184-.568.568-1.304.852-2.208.852-.848 0-1.564-.276-2.148-.828-.592-.56-.888-1.264-.888-2.112 0-.856.296-1.544.888-2.064.592-.528 1.348-.792 2.268-.792h.3v4.476a1.753 1.753 0 001.14-.564c.304-.328.456-.756.456-1.284 0-.296-.056-.592-.168-.888a2.056 2.056 0 00-.468-.756l.828-.576c.56.584.84 1.368.84 2.352zm-3.516-1.536c-.4.016-.756.164-1.068.444-.312.272-.468.668-.468 1.188 0 .496.156.884.468 1.164.304.28.66.436 1.068.468v-3.264z" fill="#4679A4"/><path d="M349.924 596.177h-1.988v-9.338h6.608v1.75h-4.62v1.974h4.522v1.75h-4.522v3.864zm7.746 0h-1.778v-6.762h1.778v.924c.252-.317.574-.579.966-.784a2.542 2.542 0 011.19-.308v1.736a2.354 2.354 0 00-1.442.182c-.336.149-.574.331-.714.546v4.466zm9.105 0h-1.778v-.7c-.486.579-1.2.868-2.142.868a2.538 2.538 0 01-1.638-.588c-.476-.401-.714-.952-.714-1.652 0-.728.233-1.274.7-1.638a2.643 2.643 0 011.652-.546c.961 0 1.675.275 2.142.826v-.91a.986.986 0 00-.406-.826c-.271-.205-.63-.308-1.078-.308-.738 0-1.396.266-1.974.798l-.672-1.19c.802-.709 1.787-1.064 2.954-1.064.868 0 1.577.201 2.128.602.55.401.826 1.055.826 1.96v4.368zm-3.206-1.036c.662 0 1.138-.196 1.428-.588v-.84c-.29-.392-.766-.588-1.428-.588-.364 0-.668.093-.91.28-.243.177-.364.425-.364.742 0 .308.121.551.364.728.242.177.546.266.91.266zm15.147 1.036h-1.792v-4.27c0-.719-.336-1.078-1.008-1.078-.289 0-.56.079-.812.238a2.244 2.244 0 00-.588.546v4.564h-1.792v-4.27c0-.719-.336-1.078-1.008-1.078-.28 0-.546.079-.798.238a2.058 2.058 0 00-.602.56v4.55h-1.778v-6.762h1.778v.882c.168-.243.462-.476.882-.7.42-.233.864-.35 1.33-.35.98 0 1.606.411 1.876 1.232.215-.336.532-.625.952-.868.43-.243.887-.364 1.372-.364.635 0 1.125.173 1.47.518.346.336.518.845.518 1.526v4.886zm4.922.168c-1.045 0-1.909-.327-2.59-.98-.681-.653-1.022-1.512-1.022-2.576 0-.999.327-1.839.98-2.52.663-.681 1.503-1.022 2.52-1.022 1.008 0 1.825.345 2.45 1.036.625.681.938 1.577.938 2.688v.392h-5.026c.056.448.257.821.602 1.12.345.299.793.448 1.344.448.299 0 .621-.061.966-.182.355-.121.635-.285.84-.49l.784 1.148c-.681.625-1.61.938-2.786.938zm1.554-4.186a1.693 1.693 0 00-.462-1.036c-.271-.308-.672-.462-1.204-.462-.504 0-.896.154-1.176.462-.28.299-.443.644-.49 1.036h3.332zm5.442 4.186a5.154 5.154 0 01-1.694-.28c-.532-.187-.975-.443-1.33-.77l.77-1.246c.262.243.616.457 1.064.644.448.187.873.28 1.274.28.374 0 .654-.065.84-.196a.61.61 0 00.294-.532c0-.168-.102-.303-.308-.406a2.174 2.174 0 00-.742-.238 10.504 10.504 0 01-.966-.21 6.843 6.843 0 01-.966-.336 1.88 1.88 0 01-.742-.616c-.196-.289-.294-.644-.294-1.064 0-.597.248-1.101.742-1.512.495-.411 1.172-.616 2.03-.616 1.046 0 1.956.308 2.73.924l-.714 1.218c-.214-.224-.504-.411-.868-.56a2.893 2.893 0 00-1.134-.224c-.317 0-.574.065-.77.196-.196.121-.294.28-.294.476 0 .149.098.275.294.378.196.093.444.163.742.21.299.047.621.121.966.224.346.093.668.21.966.35.299.131.546.345.742.644.196.299.294.663.294 1.092 0 .635-.261 1.157-.784 1.568-.513.401-1.227.602-2.142.602z" fill="#fff"/><path fill="#F1446E" fill-opacity=".7" d="M468 510.77h100.837v9.166H468z"/><circle cx="467.583" cy="515.353" r="4.583" fill="#F1446E"/><circle cx="567.754" cy="515.353" r="4.583" fill="#F1446E"/><path d="M339.797 618.75h-1.162v-8.302h-2.954v-1.036h7.084v1.036h-2.968v8.302zm4.331 0h-1.05v-6.762h1.05v1.092c.626-.821 1.377-1.232 2.254-1.232v1.078a1.993 1.993 0 00-.42-.042c-.317 0-.662.112-1.036.336-.373.224-.639.471-.798.742v4.788zm9.185 0h-1.05v-.952c-.28.317-.634.583-1.064.798-.42.215-.868.322-1.344.322-1.437 0-2.156-.719-2.156-2.156v-4.774h1.05v4.452c0 .56.126.957.378 1.19.262.233.64.35 1.134.35.392 0 .77-.098 1.134-.294.374-.196.663-.439.868-.728v-4.97h1.05v6.762zm5.149.168c-1.008 0-1.834-.327-2.478-.98-.644-.663-.966-1.521-.966-2.576 0-.989.318-1.825.952-2.506.635-.691 1.428-1.036 2.38-1.036.999 0 1.788.345 2.366 1.036.588.681.882 1.545.882 2.59v.266h-5.474c.047.663.29 1.218.728 1.666.439.448 1.008.672 1.708.672.84 0 1.536-.285 2.086-.854l.504.686c-.69.691-1.586 1.036-2.688 1.036zm2.1-3.976a2.415 2.415 0 00-.588-1.554c-.382-.467-.928-.7-1.638-.7-.672 0-1.204.229-1.596.686-.382.457-.588.98-.616 1.568h4.438zm7.396 3.808h-1.05v-6.762h1.05v1.092c.626-.821 1.377-1.232 2.254-1.232v1.078a1.993 1.993 0 00-.42-.042c-.317 0-.662.112-1.036.336-.373.224-.639.471-.798.742v4.788zm6.623.168c-1.008 0-1.834-.327-2.478-.98-.644-.663-.966-1.521-.966-2.576 0-.989.318-1.825.952-2.506.635-.691 1.428-1.036 2.38-1.036.999 0 1.788.345 2.366 1.036.588.681.882 1.545.882 2.59v.266h-5.474c.047.663.29 1.218.728 1.666.439.448 1.008.672 1.708.672.84 0 1.536-.285 2.086-.854l.504.686c-.69.691-1.586 1.036-2.688 1.036zm2.1-3.976a2.415 2.415 0 00-.588-1.554c-.382-.467-.928-.7-1.638-.7-.672 0-1.204.229-1.596.686-.382.457-.588.98-.616 1.568h4.438zm6.069 3.976c-.952 0-1.713-.397-2.282-1.19v3.598h-1.05v-9.338h1.05v1.008c.252-.355.579-.639.98-.854a2.712 2.712 0 011.302-.322c.896 0 1.619.322 2.17.966.56.635.84 1.493.84 2.576s-.28 1.946-.84 2.59c-.551.644-1.274.966-2.17.966zm-.266-.938c.663 0 1.19-.243 1.582-.728.392-.495.588-1.125.588-1.89 0-.765-.196-1.391-.588-1.876-.392-.485-.919-.728-1.582-.728-.401 0-.793.107-1.176.322-.373.205-.653.457-.84.756v3.052c.187.308.467.569.84.784.383.205.775.308 1.176.308zm7.998.938c-1.008 0-1.834-.327-2.478-.98-.644-.663-.966-1.521-.966-2.576 0-.989.317-1.825.952-2.506.635-.691 1.428-1.036 2.38-1.036.999 0 1.787.345 2.366 1.036.588.681.882 1.545.882 2.59v.266h-5.474c.047.663.289 1.218.728 1.666.439.448 1.008.672 1.708.672.84 0 1.535-.285 2.086-.854l.504.686c-.691.691-1.587 1.036-2.688 1.036zm2.1-3.976a2.415 2.415 0 00-.588-1.554c-.383-.467-.929-.7-1.638-.7-.672 0-1.204.229-1.596.686-.383.457-.588.98-.616 1.568h4.438zm8.015 3.808h-1.05v-.77c-.57.625-1.316.938-2.24.938a2.487 2.487 0 01-1.652-.602c-.476-.401-.714-.947-.714-1.638 0-.709.233-1.255.7-1.638a2.541 2.541 0 011.666-.588c.961 0 1.708.308 2.24.924v-1.218c0-.448-.159-.798-.476-1.05-.318-.252-.728-.378-1.232-.378-.794 0-1.484.313-2.072.938l-.49-.728c.718-.747 1.619-1.12 2.702-1.12.774 0 1.404.187 1.89.56.485.373.728.947.728 1.722v4.648zm-2.912-.588c.84 0 1.46-.28 1.862-.84v-1.274c-.402-.56-1.022-.84-1.862-.84-.486 0-.887.14-1.204.42-.308.271-.462.625-.462 1.064 0 .429.154.784.462 1.064.317.271.718.406 1.204.406zm6.724.756c-.494 0-.868-.135-1.12-.406-.252-.271-.378-.663-.378-1.176v-4.424h-1.12v-.924h1.12v-1.848h1.05v1.848h1.372v.924h-1.372v4.2c0 .261.056.471.168.63.122.159.294.238.518.238.308 0 .546-.093.714-.28l.308.784c-.308.289-.728.434-1.26.434z" fill="#fff"/><path fill="#F1446E" d="M300 607.25h30v15h-30z"/><path d="M468.539 618.75h-1.162v-9.338h3.752c.905 0 1.619.271 2.142.812.523.541.784 1.209.784 2.002 0 .793-.266 1.461-.798 2.002-.523.541-1.232.812-2.128.812h-2.59v3.71zm2.45-4.746c.551 0 .999-.163 1.344-.49.345-.336.518-.765.518-1.288s-.173-.947-.518-1.274c-.345-.336-.793-.504-1.344-.504h-2.45v3.556h2.45zm5.613 4.746h-1.05v-6.762h1.05v1.092c.625-.821 1.377-1.232 2.254-1.232v1.078a2.007 2.007 0 00-.42-.042c-.317 0-.663.112-1.036.336-.373.224-.639.471-.798.742v4.788zm6.623.168c-1.008 0-1.834-.327-2.478-.98-.644-.663-.966-1.521-.966-2.576 0-.989.317-1.825.952-2.506.635-.691 1.428-1.036 2.38-1.036.999 0 1.787.345 2.366 1.036.588.681.882 1.545.882 2.59v.266h-5.474c.047.663.289 1.218.728 1.666.439.448 1.008.672 1.708.672.84 0 1.535-.285 2.086-.854l.504.686c-.691.691-1.587 1.036-2.688 1.036zm2.1-3.976a2.415 2.415 0 00-.588-1.554c-.383-.467-.929-.7-1.638-.7-.672 0-1.204.229-1.596.686-.383.457-.588.98-.616 1.568h4.438zm8.687 3.808h-1.05v-1.008c-.579.784-1.34 1.176-2.282 1.176-.896 0-1.624-.317-2.184-.952-.551-.644-.826-1.507-.826-2.59 0-1.073.275-1.932.826-2.576.56-.653 1.288-.98 2.184-.98.933 0 1.694.397 2.282 1.19v-3.598h1.05v9.338zm-3.08-.77c.41 0 .802-.103 1.176-.308.373-.205.658-.457.854-.756v-3.066c-.196-.308-.486-.565-.868-.77a2.3 2.3 0 00-1.162-.322c-.663 0-1.19.247-1.582.742-.392.485-.588 1.111-.588 1.876 0 .765.196 1.391.588 1.876.392.485.919.728 1.582.728zm5.7-6.958a.695.695 0 01-.7-.7c0-.196.07-.364.21-.504.14-.14.304-.21.49-.21.196 0 .364.07.504.21.14.14.21.308.21.504s-.07.364-.21.504a.711.711 0 01-.504.196zm.532 7.728h-1.05v-6.762h1.05v6.762zm5.077.168c-.999 0-1.811-.336-2.436-1.008-.625-.681-.938-1.531-.938-2.548 0-1.017.313-1.862.938-2.534.625-.672 1.437-1.008 2.436-1.008 1.045 0 1.871.392 2.478 1.176l-.7.644c-.429-.588-1.003-.882-1.722-.882-.709 0-1.279.243-1.708.728-.42.485-.63 1.111-.63 1.876 0 .765.21 1.395.63 1.89.429.485.999.728 1.708.728s1.283-.294 1.722-.882l.7.644c-.607.784-1.433 1.176-2.478 1.176zm5.658 0c-.495 0-.868-.135-1.12-.406-.252-.271-.378-.663-.378-1.176v-4.424h-1.12v-.924h1.12v-1.848h1.05v1.848h1.372v.924h-1.372v4.2c0 .261.056.471.168.63.121.159.294.238.518.238.308 0 .546-.093.714-.28l.308.784c-.308.289-.728.434-1.26.434zm5.459 0c-1.008 0-1.834-.327-2.478-.98-.644-.663-.966-1.521-.966-2.576 0-.989.317-1.825.952-2.506.635-.691 1.428-1.036 2.38-1.036.999 0 1.787.345 2.366 1.036.588.681.882 1.545.882 2.59v.266h-5.474c.047.663.289 1.218.728 1.666.439.448 1.008.672 1.708.672.84 0 1.535-.285 2.086-.854l.504.686c-.691.691-1.587 1.036-2.688 1.036zm2.1-3.976a2.415 2.415 0 00-.588-1.554c-.383-.467-.929-.7-1.638-.7-.672 0-1.204.229-1.596.686-.383.457-.588.98-.616 1.568h4.438zm8.687 3.808h-1.05v-1.008c-.579.784-1.34 1.176-2.282 1.176-.896 0-1.624-.317-2.184-.952-.551-.644-.826-1.507-.826-2.59 0-1.073.275-1.932.826-2.576.56-.653 1.288-.98 2.184-.98.933 0 1.694.397 2.282 1.19v-3.598h1.05v9.338zm-3.08-.77c.41 0 .802-.103 1.176-.308.373-.205.658-.457.854-.756v-3.066c-.196-.308-.486-.565-.868-.77a2.3 2.3 0 00-1.162-.322c-.663 0-1.19.247-1.582.742-.392.485-.588 1.111-.588 1.876 0 .765.196 1.391.588 1.876.392.485.919.728 1.582.728zm9.842.77h-1.05v-6.762h1.05v1.092c.625-.821 1.376-1.232 2.254-1.232v1.078a2.007 2.007 0 00-.42-.042c-.318 0-.663.112-1.036.336-.374.224-.64.471-.798.742v4.788zm6.623.168c-1.008 0-1.834-.327-2.478-.98-.644-.663-.966-1.521-.966-2.576 0-.989.317-1.825.952-2.506.634-.691 1.428-1.036 2.38-1.036.998 0 1.787.345 2.366 1.036.588.681.882 1.545.882 2.59v.266h-5.474c.046.663.289 1.218.728 1.666.438.448 1.008.672 1.708.672.84 0 1.535-.285 2.086-.854l.504.686c-.691.691-1.587 1.036-2.688 1.036zm2.1-3.976a2.426 2.426 0 00-.588-1.554c-.383-.467-.929-.7-1.638-.7-.672 0-1.204.229-1.596.686-.383.457-.588.98-.616 1.568h4.438zm6.068 3.976c-.952 0-1.712-.397-2.282-1.19v3.598h-1.05v-9.338h1.05v1.008c.252-.355.579-.639.98-.854a2.718 2.718 0 011.302-.322c.896 0 1.62.322 2.17.966.56.635.84 1.493.84 2.576s-.28 1.946-.84 2.59c-.55.644-1.274.966-2.17.966zm-.266-.938c.663 0 1.19-.243 1.582-.728.392-.495.588-1.125.588-1.89 0-.765-.196-1.391-.588-1.876-.392-.485-.919-.728-1.582-.728-.401 0-.793.107-1.176.322-.373.205-.653.457-.84.756v3.052c.187.308.467.569.84.784.383.205.775.308 1.176.308zm7.998.938c-1.008 0-1.834-.327-2.478-.98-.644-.663-.966-1.521-.966-2.576 0-.989.317-1.825.952-2.506.635-.691 1.428-1.036 2.38-1.036.999 0 1.787.345 2.366 1.036.588.681.882 1.545.882 2.59v.266h-5.474c.047.663.289 1.218.728 1.666.439.448 1.008.672 1.708.672.84 0 1.535-.285 2.086-.854l.504.686c-.691.691-1.587 1.036-2.688 1.036zm2.1-3.976a2.415 2.415 0 00-.588-1.554c-.383-.467-.929-.7-1.638-.7-.672 0-1.204.229-1.596.686-.383.457-.588.98-.616 1.568h4.438zm8.015 3.808h-1.05v-.77c-.57.625-1.316.938-2.24.938a2.487 2.487 0 01-1.652-.602c-.476-.401-.714-.947-.714-1.638 0-.709.233-1.255.7-1.638a2.541 2.541 0 011.666-.588c.961 0 1.708.308 2.24.924v-1.218c0-.448-.159-.798-.476-1.05-.318-.252-.728-.378-1.232-.378-.794 0-1.484.313-2.072.938l-.49-.728c.718-.747 1.619-1.12 2.702-1.12.774 0 1.404.187 1.89.56.485.373.728.947.728 1.722v4.648zm-2.912-.588c.84 0 1.46-.28 1.862-.84v-1.274c-.402-.56-1.022-.84-1.862-.84-.486 0-.887.14-1.204.42-.308.271-.462.625-.462 1.064 0 .429.154.784.462 1.064.317.271.718.406 1.204.406zm6.725.756c-.495 0-.868-.135-1.12-.406-.252-.271-.378-.663-.378-1.176v-4.424h-1.12v-.924h1.12v-1.848h1.05v1.848h1.372v.924h-1.372v4.2c0 .261.056.471.168.63.121.159.294.238.518.238.308 0 .546-.093.714-.28l.308.784c-.308.289-.728.434-1.26.434z" fill="#fff"/><path fill="#42C0E8" d="M431 607.25h30v15h-30z"/><path d="M208.581 618.75h-1.162v-9.338h3.752c.905 0 1.619.271 2.142.812.523.541.784 1.209.784 2.002 0 .793-.266 1.461-.798 2.002-.523.541-1.232.812-2.128.812h-2.59v3.71zm2.45-4.746c.551 0 .999-.163 1.344-.49.345-.336.518-.765.518-1.288s-.173-.947-.518-1.274c-.345-.336-.793-.504-1.344-.504h-2.45v3.556h2.45zm5.613 4.746h-1.05v-6.762h1.05v1.092c.625-.821 1.377-1.232 2.254-1.232v1.078a2.007 2.007 0 00-.42-.042c-.317 0-.663.112-1.036.336-.373.224-.639.471-.798.742v4.788zm6.623.168c-1.008 0-1.834-.327-2.478-.98-.644-.663-.966-1.521-.966-2.576 0-.989.317-1.825.952-2.506.635-.691 1.428-1.036 2.38-1.036.999 0 1.787.345 2.366 1.036.588.681.882 1.545.882 2.59v.266h-5.474c.047.663.289 1.218.728 1.666.439.448 1.008.672 1.708.672.84 0 1.535-.285 2.086-.854l.504.686c-.691.691-1.587 1.036-2.688 1.036zm2.1-3.976a2.415 2.415 0 00-.588-1.554c-.383-.467-.929-.7-1.638-.7-.672 0-1.204.229-1.596.686-.383.457-.588.98-.616 1.568h4.438zm8.687 3.808h-1.05v-1.008c-.579.784-1.34 1.176-2.282 1.176-.896 0-1.624-.317-2.184-.952-.551-.644-.826-1.507-.826-2.59 0-1.073.275-1.932.826-2.576.56-.653 1.288-.98 2.184-.98.933 0 1.694.397 2.282 1.19v-3.598h1.05v9.338zm-3.08-.77c.41 0 .802-.103 1.176-.308.373-.205.658-.457.854-.756v-3.066c-.196-.308-.486-.565-.868-.77a2.3 2.3 0 00-1.162-.322c-.663 0-1.19.247-1.582.742-.392.485-.588 1.111-.588 1.876 0 .765.196 1.391.588 1.876.392.485.919.728 1.582.728zm5.7-6.958a.695.695 0 01-.7-.7c0-.196.07-.364.21-.504.14-.14.304-.21.49-.21.196 0 .364.07.504.21.14.14.21.308.21.504s-.07.364-.21.504a.711.711 0 01-.504.196zm.532 7.728h-1.05v-6.762h1.05v6.762zm5.077.168c-.999 0-1.811-.336-2.436-1.008-.625-.681-.938-1.531-.938-2.548 0-1.017.313-1.862.938-2.534.625-.672 1.437-1.008 2.436-1.008 1.045 0 1.871.392 2.478 1.176l-.7.644c-.429-.588-1.003-.882-1.722-.882-.709 0-1.279.243-1.708.728-.42.485-.63 1.111-.63 1.876 0 .765.21 1.395.63 1.89.429.485.999.728 1.708.728s1.283-.294 1.722-.882l.7.644c-.607.784-1.433 1.176-2.478 1.176zm5.658 0c-.495 0-.868-.135-1.12-.406-.252-.271-.378-.663-.378-1.176v-4.424h-1.12v-.924h1.12v-1.848h1.05v1.848h1.372v.924h-1.372v4.2c0 .261.056.471.168.63.121.159.294.238.518.238.308 0 .546-.093.714-.28l.308.784c-.308.289-.728.434-1.26.434zm2.925-7.896a.694.694 0 01-.7-.7c0-.196.07-.364.21-.504.14-.14.303-.21.49-.21.196 0 .364.07.504.21.14.14.21.308.21.504s-.07.364-.21.504a.711.711 0 01-.504.196zm.532 7.728h-1.05v-6.762h1.05v6.762zm7.47-.854c-.606.681-1.414 1.022-2.422 1.022-1.008 0-1.82-.341-2.436-1.022-.606-.681-.91-1.526-.91-2.534 0-1.008.304-1.848.91-2.52.616-.681 1.428-1.022 2.436-1.022s1.816.341 2.422 1.022c.616.672.924 1.512.924 2.52s-.308 1.853-.924 2.534zm-4.074-.672c.411.504.962.756 1.652.756.691 0 1.237-.252 1.638-.756.402-.513.602-1.134.602-1.862 0-.728-.2-1.344-.602-1.848-.401-.504-.947-.756-1.638-.756-.69 0-1.241.257-1.652.77-.401.504-.602 1.115-.602 1.834 0 .728.201 1.349.602 1.862zm12.324 1.526h-1.05v-4.424c0-.569-.131-.971-.392-1.204-.261-.243-.635-.364-1.12-.364-.392 0-.775.103-1.148.308a2.57 2.57 0 00-.854.742v4.942h-1.05v-6.762h1.05v.98c.261-.308.611-.574 1.05-.798.439-.233.891-.35 1.358-.35 1.437 0 2.156.728 2.156 2.184v4.746zm4.239.168c-1.148 0-2.058-.355-2.73-1.064l.546-.756c.233.271.551.499.952.686.411.187.835.28 1.274.28.504 0 .896-.107 1.176-.322.28-.215.42-.495.42-.84 0-.299-.145-.532-.434-.7a3.24 3.24 0 00-1.05-.392 32.948 32.948 0 01-1.218-.308 2.495 2.495 0 01-1.05-.602c-.289-.289-.434-.667-.434-1.134 0-.551.224-1.013.672-1.386.457-.373 1.073-.56 1.848-.56 1.017 0 1.853.327 2.506.98l-.49.728c-.476-.569-1.148-.854-2.016-.854-.457 0-.821.103-1.092.308-.271.196-.406.448-.406.756 0 .271.145.485.434.644.289.149.635.271 1.036.364.411.084.821.187 1.232.308.411.121.761.336 1.05.644.289.299.434.691.434 1.176 0 .597-.233 1.087-.7 1.47-.467.383-1.12.574-1.96.574z" fill="#fff"/><path stroke="#FF9C00" stroke-width="2" d="M171 613.75h30"/><path d="M87.333 493.579S88 493.24 100 492.22c12-1.021 0 8.706 17 8.706 12.546-.986 15.747-13.003 17-47.75l9.333-87.542L150 309.041l4.667-7.074 6.666-41.56s6.705-10.589 12-24.759c5.296-14.171 9.827-16.973 15.334 0l6.666 24.759 8 36.255L210 365.634l8 64.551 8 61.014c3.536 12.032 5.396 14.345 8.667 16.801h10c6 0 9.333-7.074 9.333-7.074 4.755-14.627 6.309-30.29 8-65.435l9.333-80.468 7.334-45.982L284 287.819l3.333-40.676c6.56-31.203 12-28.296 16.667-11.495 4.667 16.801 6.667 38.907 6.667 38.907l6 43.329 8.666 70.741 6 46.866 7.334 55.708S338 499.975 346 503.988c8 4.012 14.667.95 14.667.95l6-13.739 8-102.574 16-70.741 4-8.843L402 247.143c2.734-14.403 4.659-20.987 10.667-22.991 6.451 7.937 7.978 18.074 10.666 36.255L428 309.041l11.333 79.584c6.28 30.489 8.238 46.33 8 71.625 1.205 25.923 3.667 36.2 9.2 40.676 9.467 0 9.467 6.124 17.467 3.062 8-3.062 8-12.789 8-12.789l4.667-66.32 6.666-29.18L502 309.041l4-7.074 10-66.319s6-11.496 12.667 5.305L538 283.398l5.333 34.486 6.667 47.75 7.333 64.551s1.334 51.287 6 61.014C568 500.926 578 503.988 578 503.988c11.717-1.324 14.618-4.53 16-12.789l5.333-55.708 7.334-80.468 6-45.982 4.666-7.074s2.334-54.824 10-66.319C635 224.152 640 264.828 640 264.828l5.333 37.139 7.334 34.486 4 35.371 4 23.875 6 29.18 4 35.371L674 491.199c2.982 6.8 4.874 8.913 8.667 9.727" stroke="#FF9C00" stroke-width="1.5"/><circle cx="119.254" cy="515.353" r="4.583" fill="#F1446E"/><circle cx="229.754" cy="515.353" r="4.583" fill="#F1446E"/><path fill="#F1446E" fill-opacity=".7" d="M118.837 510.77h110.917v9.166H118.837z"/><circle cx="252.183" cy="515.353" r="4.583" fill="#F1446E"/><circle cx="339.583" cy="515.353" r="4.583" fill="#F1446E"/><path fill="#F1446E" fill-opacity=".7" d="M252.183 510.77H340.5v9.166h-88.317z"/><circle cx="359.754" cy="515.39" r="4.583" fill="#F1446E"/><circle cx="456.337" cy="515.39" r="4.583" fill="#F1446E"/><path fill="#F1446E" fill-opacity=".7" d="M360.5 510.807h96.25v9.166H360.5z"/><circle cx="583.337" cy="515.353" r="4.583" fill="#F1446E"/><circle cx="677.012" cy="515.353" r="4.583" fill="#F1446E"/><path fill="#F1446E" fill-opacity=".7" d="M583.25 510.77h94.25v9.166h-94.25z"/><circle cx="138.171" cy="515.39" r="4.583" fill="#42C0E8"/><circle cx="232.171" cy="515.39" r="4.583" fill="#42C0E8"/><path fill="#42C0E8" fill-opacity=".5" d="M138.171 509.103h94.579v12.5h-94.579z"/><circle cx="262.254" cy="515.39" r="4.583" fill="#42C0E8"/><circle cx="348.749" cy="515.39" r="4.583" fill="#42C0E8"/><path fill="#42C0E8" fill-opacity=".5" d="M262.25 509.103h86.5v12.5h-86.5z"/><circle cx="375.171" cy="515.39" r="4.583" fill="#42C0E8"/><circle cx="457.92" cy="515.39" r="4.583" fill="#42C0E8"/><path fill="#42C0E8" fill-opacity=".5" d="M375.5 509.103h82.831v12.5H375.5z"/><circle cx="489.337" cy="515.39" r="4.583" fill="#42C0E8"/><circle cx="570.491" cy="515.39" r="4.583" fill="#42C0E8"/><path fill="#42C0E8" fill-opacity=".5" d="M489.5 509.103h81v12.5h-81z"/><circle cx="599.17" cy="515.39" r="4.583" fill="#42C0E8"/><circle cx="682.083" cy="515.39" r="4.583" fill="#42C0E8"/><path fill="#42C0E8" fill-opacity=".5" d="M598.837 509.103h83.758v12.5h-83.758z"/></svg>