<svg width="740" height="240" fill="none" xmlns="http://www.w3.org/2000/svg"><path fill="#fff" d="M0 0h740v240H0z"/><g filter="url(#filter0_ddd)"><rect x="33" y="13" width="674" height="205" rx="7" fill="#fff"/></g><path d="M59.806 38.442c0 .576.324.864.756.864.45 0 .864-.378.864-.846 0-.378-.288-.666-.63-.666h-.126c.162-.558.756-1.17 1.404-1.512l-.432-.468c-.954.504-1.836 1.602-1.836 2.628zm-2.538 0c0 .576.342.864.756.864.45 0 .864-.378.864-.846 0-.378-.288-.666-.612-.666h-.126c.162-.558.738-1.17 1.404-1.512l-.45-.468c-.954.504-1.836 1.602-1.836 2.628zm9.24 9.774c2.79 0 4.248-1.872 4.248-3.672 0-3.42-6.012-3.096-6.012-5.508 0-1.188 1.26-2.304 2.844-2.304 1.35 0 2.7.54 3.456 1.656l.774-.72c-.738-1.116-2.304-1.872-4.14-1.872-2.286 0-4.05 1.53-4.05 3.348 0 3.348 5.994 2.88 5.994 5.526 0 1.17-.882 2.61-3.024 2.61-1.71 0-3.096-.738-3.924-1.908l-.756.738c.738 1.188 2.538 2.106 4.59 2.106zm7.821 0a1.98 1.98 0 001.242-.414l-.18-.756c-.216.162-.576.324-.918.324-.576 0-.882-.306-.882-.828 0-.162.018-.288.036-.378l1.332-6.03h1.764l.198-.828h-1.764l.522-2.376h-.954l-.522 2.376h-1.44l-.18.828h1.44l-1.368 6.156c-.036.18-.054.396-.054.468 0 1.008.648 1.458 1.728 1.458zm6.883 0c2.754 0 4.788-2.556 4.788-5.31 0-2.304-1.494-3.816-3.834-3.816-2.754 0-4.788 2.556-4.788 5.31 0 2.304 1.494 3.816 3.834 3.816zm.018-.846c-1.782 0-2.826-1.188-2.826-3.006 0-2.25 1.566-4.428 3.744-4.428 1.782 0 2.826 1.188 2.826 3.006 0 2.25-1.566 4.428-3.744 4.428zm7.044.63l1.404-6.336c.558-.792 1.584-1.584 2.646-1.584.306 0 .522.036.63.054l.216-1.008c-1.548 0-2.394.54-3.294 1.584l.324-1.404h-.936L87.338 48h.936zm7.53-10.062c.379 0 .81-.306.81-.792a.63.63 0 00-.648-.63c-.377 0-.81.306-.81.792 0 .342.288.63.648.63zM93.988 48l1.925-8.694h-.936L93.052 48h.936zm7.395.216c1.134 0 2.25-.468 3.024-1.062l-.36-.684c-.756.63-1.746.936-2.628.936-2.124 0-3.186-1.35-3.186-2.952 0-.162.018-.396.036-.504h7.344c.054-.216.144-.72.144-1.098 0-2.124-1.368-3.762-3.69-3.762-2.7 0-4.824 2.394-4.824 5.292 0 2.268 1.53 3.834 4.14 3.834zm-3.024-5.004c.306-1.782 1.854-3.312 3.6-3.312 1.872 0 2.898 1.224 2.898 2.916 0 .108 0 .306-.018.396h-6.48zm11.905 5.004c2.106 0 3.276-1.35 3.276-2.79 0-2.484-4.644-2.214-4.644-3.978 0-.882.828-1.566 2.142-1.566 1.152 0 2.25.558 2.628 1.242l.612-.612c-.486-.756-1.674-1.422-3.168-1.422-2.016 0-3.168 1.17-3.168 2.574 0 2.34 4.644 2.106 4.644 3.96 0 .936-.864 1.8-2.304 1.8-1.332 0-2.394-.666-2.844-1.386l-.666.648c.72 1.008 1.926 1.53 3.492 1.53zm14.666-9.126c-2.754 0-4.572 2.628-4.572 5.562 0 2.25 1.404 3.564 3.402 3.564 1.242 0 2.268-.612 2.988-1.53L126.441 48h.954l1.926-8.694h-.954l-.306 1.476c-.594-.99-1.71-1.692-3.132-1.692zm.072.846c1.404 0 2.448.72 2.88 1.584l-.918 4.176c-.594.9-1.728 1.674-2.952 1.674-1.584 0-2.628-1.098-2.628-2.88 0-2.304 1.44-4.554 3.618-4.554zm9.707 8.28c2.736 0 4.554-2.646 4.554-5.544 0-2.25-1.404-3.582-3.384-3.582-1.242 0-2.286.612-2.988 1.53l1.008-4.626h-.936L130.316 48h.936l.324-1.476c.594.99 1.692 1.692 3.132 1.692zm-.09-.846c-1.404 0-2.448-.72-2.88-1.584l.918-4.176c.612-.9 1.728-1.674 2.952-1.674 1.584 0 2.628 1.116 2.628 2.898 0 2.286-1.422 4.536-3.618 4.536zm10.139.846c2.754 0 4.788-2.556 4.788-5.31 0-2.304-1.494-3.816-3.834-3.816-2.754 0-4.788 2.556-4.788 5.31 0 2.304 1.494 3.816 3.834 3.816zm.018-.846c-1.782 0-2.826-1.188-2.826-3.006 0-2.25 1.566-4.428 3.744-4.428 1.782 0 2.826 1.188 2.826 3.006 0 2.25-1.566 4.428-3.744 4.428zm8.033-8.064l-1.332 6.048a3.656 3.656 0 00-.108.738c0 1.422 1.062 2.124 2.538 2.124 1.224 0 2.358-.774 3.132-1.53L156.75 48h.936l1.926-8.694h-.936l-1.458 6.534c-.738.774-1.854 1.53-2.952 1.53-1.098 0-1.926-.45-1.926-1.53 0-.216.072-.468.108-.648l1.296-5.886h-.936zm10.027 8.91a1.98 1.98 0 001.242-.414l-.18-.756c-.216.162-.576.324-.918.324-.576 0-.882-.306-.882-.828 0-.162.018-.288.036-.378l1.332-6.03h1.764l.198-.828h-1.764l.522-2.376h-.954l-.522 2.376h-1.44l-.18.828h1.44l-1.368 6.156c-.036.18-.054.396-.054.468 0 1.008.648 1.458 1.728 1.458zm9.615 0a1.98 1.98 0 001.242-.414l-.18-.756c-.216.162-.576.324-.918.324-.576 0-.882-.306-.882-.828 0-.162.018-.288.036-.378l1.332-6.03h1.764l.198-.828h-1.764l.522-2.376h-.954l-.522 2.376h-1.44l-.18.828h1.44l-1.368 6.156c-.036.18-.054.396-.054.468 0 1.008.648 1.458 1.728 1.458zm9.529-.216l1.332-6.048c.054-.198.108-.594.108-.738 0-1.422-1.062-2.124-2.538-2.124-1.224 0-2.358.774-3.132 1.53l1.008-4.626h-.936L175.175 48h.936l1.44-6.534c.756-.774 1.872-1.53 2.952-1.53 1.116 0 1.944.45 1.944 1.53 0 .144-.072.468-.108.63L181.043 48h.936zm7.399.216c1.134 0 2.25-.468 3.024-1.062l-.36-.684c-.756.63-1.746.936-2.628.936-2.124 0-3.186-1.35-3.186-2.952 0-.162.018-.396.036-.504h7.344c.054-.216.144-.72.144-1.098 0-2.124-1.368-3.762-3.69-3.762-2.7 0-4.824 2.394-4.824 5.292 0 2.268 1.53 3.834 4.14 3.834zm-3.024-5.004c.306-1.782 1.854-3.312 3.6-3.312 1.872 0 2.898 1.224 2.898 2.916 0 .108 0 .306-.018.396h-6.48zm17.625 5.004c1.314 0 2.232-.522 2.988-1.314l-.54-.648a3.056 3.056 0 01-2.358 1.116c-1.692 0-2.97-1.008-2.97-2.988 0-2.286 1.476-4.446 3.87-4.446.954 0 1.854.396 2.358 1.278l.72-.54c-.594-1.008-1.62-1.584-3.114-1.584-2.718 0-4.824 2.412-4.824 5.274 0 2.466 1.638 3.852 3.87 3.852zm5.619-.216l1.404-6.336c.558-.792 1.584-1.584 2.646-1.584.306 0 .522.036.63.054l.216-1.008c-1.548 0-2.394.54-3.294 1.584l.324-1.404h-.936L208.662 48h.936zm9.259.216c1.134 0 2.25-.468 3.024-1.062l-.36-.684c-.756.63-1.746.936-2.628.936-2.124 0-3.186-1.35-3.186-2.952 0-.162.018-.396.036-.504h7.344c.054-.216.144-.72.144-1.098 0-2.124-1.368-3.762-3.69-3.762-2.7 0-4.824 2.394-4.824 5.292 0 2.268 1.53 3.834 4.14 3.834zm-3.024-5.004c.306-1.782 1.854-3.312 3.6-3.312 1.872 0 2.898 1.224 2.898 2.916 0 .108 0 .306-.018.396h-6.48zm13.651-4.122c-2.754 0-4.572 2.628-4.572 5.562 0 2.25 1.404 3.564 3.402 3.564 1.242 0 2.268-.612 2.988-1.53L230.996 48h.954l1.926-8.694h-.954l-.306 1.476c-.594-.99-1.71-1.692-3.132-1.692zm.072.846c1.404 0 2.448.72 2.88 1.584l-.918 4.176c-.594.9-1.728 1.674-2.952 1.674-1.584 0-2.628-1.098-2.628-2.88 0-2.304 1.44-4.554 3.618-4.554zm7.547 8.28a1.98 1.98 0 001.242-.414l-.18-.756c-.216.162-.576.324-.918.324-.576 0-.882-.306-.882-.828 0-.162.018-.288.036-.378l1.332-6.03h1.764l.198-.828h-1.764l.522-2.376h-.954l-.522 2.376h-1.44l-.18.828h1.44l-1.368 6.156c-.036.18-.054.396-.054.468 0 1.008.648 1.458 1.728 1.458zm5.479-10.278c.378 0 .81-.306.81-.792a.63.63 0 00-.648-.63c-.378 0-.81.306-.81.792 0 .342.288.63.648.63zM240.764 48l1.926-8.694h-.936L239.828 48h.936zm7.071.216c2.754 0 4.788-2.556 4.788-5.31 0-2.304-1.494-3.816-3.834-3.816-2.754 0-4.788 2.556-4.788 5.31 0 2.304 1.494 3.816 3.834 3.816zm.018-.846c-1.782 0-2.826-1.188-2.826-3.006 0-2.25 1.566-4.428 3.744-4.428 1.782 0 2.826 1.188 2.826 3.006 0 2.25-1.566 4.428-3.744 4.428zm12.912.63l1.332-6.048c.054-.198.108-.576.108-.738 0-1.422-1.062-2.124-2.538-2.124-1.224 0-2.358.774-3.132 1.53l.288-1.314h-.936L253.961 48h.936l1.44-6.552c.756-.774 1.872-1.512 3.006-1.512 1.062 0 1.89.45 1.89 1.53 0 .216-.072.468-.108.63L259.829 48h.936zm11.733.216c2.754 0 4.788-2.556 4.788-5.31 0-2.304-1.494-3.816-3.834-3.816-2.754 0-4.788 2.556-4.788 5.31 0 2.304 1.494 3.816 3.834 3.816zm.018-.846c-1.782 0-2.826-1.188-2.826-3.006 0-2.25 1.566-4.428 3.744-4.428 1.782 0 2.826 1.188 2.826 3.006 0 2.25-1.566 4.428-3.744 4.428zm7.367.63l1.728-7.866h1.764l.198-.828h-1.782l.18-.792c.27-1.206.756-1.89 1.764-1.89.54 0 .9.162 1.17.45l.54-.594c-.486-.486-.99-.666-1.71-.666-1.512 0-2.34 1.08-2.718 2.7l-.162.792h-1.44l-.18.828h1.44L278.929 48h.954zm19.448 0l1.332-6.048c.054-.252.108-.558.108-.738 0-1.386-1.026-2.124-2.196-2.124-1.242 0-2.322.846-3.006 1.71v-.036c0-.63-.72-1.674-2.178-1.674-1.26 0-2.286.972-2.772 1.53l.288-1.314h-.936L288.045 48h.936l1.44-6.552c.702-.792 1.692-1.512 2.592-1.512 1.044 0 1.602.612 1.62 1.386 0 .27-.036.36-.072.63L293.211 48h.954l1.44-6.552c.666-.792 1.692-1.512 2.61-1.512.846 0 1.584.54 1.584 1.494 0 .216-.054.45-.072.522L298.395 48h.936zm7.813-8.91c-2.754 0-4.572 2.628-4.572 5.562 0 2.25 1.404 3.564 3.402 3.564 1.242 0 2.268-.612 2.988-1.53L308.656 48h.954l1.926-8.694h-.954l-.306 1.476c-.594-.99-1.71-1.692-3.132-1.692zm.072.846c1.404 0 2.448.72 2.88 1.584l-.918 4.176c-.594.9-1.728 1.674-2.952 1.674-1.584 0-2.628-1.098-2.628-2.88 0-2.304 1.44-4.554 3.618-4.554zm9.527 8.28c1.314 0 2.232-.522 2.988-1.314l-.54-.648a3.056 3.056 0 01-2.358 1.116c-1.692 0-2.97-1.008-2.97-2.988 0-2.286 1.476-4.446 3.87-4.446.954 0 1.854.396 2.358 1.278l.72-.54c-.594-1.008-1.62-1.584-3.114-1.584-2.718 0-4.824 2.412-4.824 5.274 0 2.466 1.638 3.852 3.87 3.852zM328.229 48l1.332-6.048c.054-.198.108-.594.108-.738 0-1.422-1.062-2.124-2.538-2.124-1.224 0-2.358.774-3.132 1.53l1.008-4.626h-.936L321.425 48h.936l1.44-6.534c.756-.774 1.872-1.53 2.952-1.53 1.116 0 1.944.45 1.944 1.53 0 .144-.072.468-.108.63L327.293 48h.936zm5.671-10.062c.378 0 .81-.306.81-.792a.63.63 0 00-.648-.63c-.378 0-.81.306-.81.792 0 .342.288.63.648.63zM332.082 48l1.926-8.694h-.936L331.146 48h.936zm9.718 0l1.332-6.048c.054-.198.108-.576.108-.738 0-1.422-1.062-2.124-2.538-2.124-1.224 0-2.358.774-3.132 1.53l.288-1.314h-.936L334.996 48h.936l1.44-6.552c.756-.774 1.872-1.512 3.006-1.512 1.062 0 1.89.45 1.89 1.53 0 .216-.072.468-.108.63L340.864 48h.936zm7.398.216c1.134 0 2.25-.468 3.024-1.062l-.36-.684c-.756.63-1.746.936-2.628.936-2.124 0-3.186-1.35-3.186-2.952 0-.162.018-.396.036-.504h7.344c.054-.216.144-.72.144-1.098 0-2.124-1.368-3.762-3.69-3.762-2.7 0-4.824 2.394-4.824 5.292 0 2.268 1.53 3.834 4.14 3.834zm-3.024-5.004c.306-1.782 1.854-3.312 3.6-3.312 1.872 0 2.898 1.224 2.898 2.916 0 .108 0 .306-.018.396h-6.48zm11.905 5.004c2.106 0 3.276-1.35 3.276-2.79 0-2.484-4.644-2.214-4.644-3.978 0-.882.828-1.566 2.142-1.566 1.152 0 2.25.558 2.628 1.242l.612-.612c-.486-.756-1.674-1.422-3.168-1.422-2.016 0-3.168 1.17-3.168 2.574 0 2.34 4.644 2.106 4.644 3.96 0 .936-.864 1.8-2.304 1.8-1.332 0-2.394-.666-2.844-1.386l-.666.648c.72 1.008 1.926 1.53 3.492 1.53zM374.653 48l1.332-6.048c.054-.198.108-.594.108-.738 0-1.422-1.062-2.124-2.538-2.124-1.224 0-2.358.774-3.132 1.53l1.008-4.626h-.936L367.849 48h.936l1.44-6.534c.756-.774 1.872-1.53 2.952-1.53 1.116 0 1.944.45 1.944 1.53 0 .144-.072.468-.108.63L373.717 48h.936zm7.813-8.91c-2.754 0-4.572 2.628-4.572 5.562 0 2.25 1.404 3.564 3.402 3.564 1.242 0 2.268-.612 2.988-1.53L383.978 48h.954l1.926-8.694h-.954l-.306 1.476c-.594-.99-1.71-1.692-3.132-1.692zm.072.846c1.404 0 2.448.72 2.88 1.584l-.918 4.176c-.594.9-1.728 1.674-2.952 1.674-1.584 0-2.628-1.098-2.628-2.88 0-2.304 1.44-4.554 3.618-4.554zM391.255 48l5.598-8.694h-1.098l-4.842 7.596-1.458-7.596h-1.008L390.193 48h1.062zm8.018-10.062c.378 0 .81-.306.81-.792a.63.63 0 00-.648-.63c-.378 0-.81.306-.81.792 0 .342.288.63.648.63zM397.455 48l1.926-8.694h-.936L396.519 48h.936zm9.718 0l1.332-6.048c.054-.198.108-.576.108-.738 0-1.422-1.062-2.124-2.538-2.124-1.224 0-2.358.774-3.132 1.53l.288-1.314h-.936L400.369 48h.936l1.44-6.552c.756-.774 1.872-1.512 3.006-1.512 1.062 0 1.89.45 1.89 1.53 0 .216-.072.468-.108.63L406.237 48h.936zm6.247 3.528c1.872 0 3.456-.954 4.032-3.618l1.926-8.604h-.954l-.342 1.476c-.63-.954-1.908-1.692-3.15-1.692-2.79 0-4.518 2.646-4.518 5.436 0 2.448 1.458 3.618 3.294 3.618 1.296 0 2.376-.63 3.078-1.53l-.27 1.296c-.468 2.07-1.71 2.808-3.114 2.808s-2.448-.396-3.06-1.332l-.666.666c.882 1.152 2.124 1.476 3.744 1.476zm.63-4.212c-1.602 0-2.646-1.098-2.646-2.916 0-2.16 1.368-4.464 3.564-4.464 1.242 0 2.448.63 2.97 1.602l-.954 4.212c-.666.828-1.818 1.566-2.934 1.566zm17.767.684l1.332-6.048c.054-.198.108-.594.108-.738 0-1.422-1.062-2.124-2.538-2.124-1.224 0-2.358.774-3.132 1.53l1.008-4.626h-.936L425.013 48h.936l1.44-6.534c.756-.774 1.872-1.53 2.952-1.53 1.116 0 1.944.45 1.944 1.53 0 .144-.072.468-.108.63L430.881 48h.936zm4.843-8.694l-1.332 6.048a3.656 3.656 0 00-.108.738c0 1.422 1.062 2.124 2.538 2.124 1.224 0 2.358-.774 3.132-1.53L440.602 48h.936l1.926-8.694h-.936l-1.458 6.534c-.738.774-1.854 1.53-2.952 1.53-1.098 0-1.926-.45-1.926-1.53 0-.216.072-.468.108-.648l1.296-5.886h-.936zM455.741 48l1.332-6.048c.054-.252.108-.558.108-.738 0-1.386-1.026-2.124-2.196-2.124-1.242 0-2.322.846-3.006 1.71v-.036c0-.63-.72-1.674-2.178-1.674-1.26 0-2.286.972-2.772 1.53l.288-1.314h-.936L444.455 48h.936l1.44-6.552c.702-.792 1.692-1.512 2.592-1.512 1.044 0 1.602.612 1.62 1.386 0 .27-.036.36-.072.63L449.621 48h.954l1.44-6.552c.666-.792 1.692-1.512 2.61-1.512.846 0 1.584.54 1.584 1.494 0 .216-.054.45-.072.522L454.805 48h.936zm7.813-8.91c-2.754 0-4.572 2.628-4.572 5.562 0 2.25 1.404 3.564 3.402 3.564 1.242 0 2.268-.612 2.988-1.53L465.066 48h.954l1.926-8.694h-.954l-.306 1.476c-.594-.99-1.71-1.692-3.132-1.692zm.072.846c1.404 0 2.448.72 2.88 1.584l-.918 4.176c-.594.9-1.728 1.674-2.952 1.674-1.584 0-2.628-1.098-2.628-2.88 0-2.304 1.44-4.554 3.618-4.554zM475.745 48l1.332-6.048c.054-.198.108-.576.108-.738 0-1.422-1.062-2.124-2.538-2.124-1.224 0-2.358.774-3.132 1.53l.288-1.314h-.936L468.941 48h.936l1.44-6.552c.756-.774 1.872-1.512 3.006-1.512 1.062 0 1.89.45 1.89 1.53 0 .216-.072.468-.108.63L474.809 48h.936zm12.471-8.91c-2.754 0-4.572 2.628-4.572 5.562 0 2.25 1.404 3.564 3.402 3.564 1.242 0 2.268-.612 2.988-1.53l-1.044 4.626h.954l2.664-12.006h-.954l-.306 1.476c-.594-.99-1.71-1.692-3.132-1.692zm.072.846c1.404 0 2.448.72 2.88 1.584l-.918 4.176c-.594.9-1.728 1.674-2.952 1.674-1.584 0-2.628-1.098-2.628-2.88 0-2.304 1.44-4.554 3.618-4.554zm7.171-.63l-1.332 6.048a3.656 3.656 0 00-.108.738c0 1.422 1.062 2.124 2.538 2.124 1.224 0 2.358-.774 3.132-1.53L499.401 48h.936l1.926-8.694h-.936l-1.458 6.534c-.738.774-1.854 1.53-2.952 1.53-1.098 0-1.926-.45-1.926-1.53 0-.216.072-.468.108-.648l1.296-5.886h-.936zm12.691-.216c-2.754 0-4.572 2.628-4.572 5.562 0 2.25 1.404 3.564 3.402 3.564 1.242 0 2.268-.612 2.988-1.53L509.662 48h.954l1.926-8.694h-.954l-.306 1.476c-.594-.99-1.71-1.692-3.132-1.692zm.072.846c1.404 0 2.448.72 2.88 1.584l-.918 4.176c-.594.9-1.728 1.674-2.952 1.674-1.584 0-2.628-1.098-2.628-2.88 0-2.304 1.44-4.554 3.618-4.554zM514.473 48l2.646-12.006h-.936L513.537 48h.936zm5.667-10.062c.378 0 .81-.306.81-.792a.63.63 0 00-.648-.63c-.378 0-.81.306-.81.792 0 .342.288.63.648.63zM518.322 48l1.926-8.694h-.936L517.386 48h.936zm5.146.216a1.98 1.98 0 001.242-.414l-.18-.756c-.216.162-.576.324-.918.324-.576 0-.882-.306-.882-.828 0-.162.018-.288.036-.378l1.332-6.03h1.764l.198-.828h-1.764l.522-2.376h-.954l-.522 2.376h-1.44l-.18.828h1.44l-1.368 6.156c-.036.18-.054.396-.054.468 0 1.008.648 1.458 1.728 1.458zm5.479-10.278c.378 0 .81-.306.81-.792a.63.63 0 00-.648-.63c-.378 0-.81.306-.81.792 0 .342.288.63.648.63zM527.129 48l1.926-8.694h-.936L526.193 48h.936zm7.396.216c1.134 0 2.25-.468 3.024-1.062l-.36-.684c-.756.63-1.746.936-2.628.936-2.124 0-3.186-1.35-3.186-2.952 0-.162.018-.396.036-.504h7.344c.054-.216.144-.72.144-1.098 0-2.124-1.368-3.762-3.69-3.762-2.7 0-4.824 2.394-4.824 5.292 0 2.268 1.53 3.834 4.14 3.834zm-3.024-5.004c.306-1.782 1.854-3.312 3.6-3.312 1.872 0 2.898 1.224 2.898 2.916 0 .108 0 .306-.018.396h-6.48zm11.905 5.004c2.106 0 3.276-1.35 3.276-2.79 0-2.484-4.644-2.214-4.644-3.978 0-.882.828-1.566 2.142-1.566 1.152 0 2.25.558 2.628 1.242l.612-.612c-.486-.756-1.674-1.422-3.168-1.422-2.016 0-3.168 1.17-3.168 2.574 0 2.34 4.644 2.106 4.644 3.96 0 .936-.864 1.8-2.304 1.8-1.332 0-2.394-.666-2.844-1.386l-.666.648c.72 1.008 1.926 1.53 3.492 1.53zM559.979 48l1.332-6.048c.054-.198.108-.594.108-.738 0-1.422-1.062-2.124-2.538-2.124-1.224 0-2.358.774-3.132 1.53l1.008-4.626h-.936L553.175 48h.936l1.44-6.534c.756-.774 1.872-1.53 2.952-1.53 1.116 0 1.944.45 1.944 1.53 0 .144-.072.468-.108.63L559.043 48h.936zm7.813-8.91c-2.754 0-4.572 2.628-4.572 5.562 0 2.25 1.404 3.564 3.402 3.564 1.242 0 2.268-.612 2.988-1.53L569.304 48h.954l1.926-8.694h-.954l-.306 1.476c-.594-.99-1.71-1.692-3.132-1.692zm.072.846c1.404 0 2.448.72 2.88 1.584l-.918 4.176c-.594.9-1.728 1.674-2.952 1.674-1.584 0-2.628-1.098-2.628-2.88 0-2.304 1.44-4.554 3.618-4.554zM576.581 48l5.598-8.694h-1.098l-4.842 7.596-1.458-7.596h-1.008L575.519 48h1.062zm9.746.216c1.134 0 2.25-.468 3.024-1.062l-.36-.684c-.756.63-1.746.936-2.628.936-2.124 0-3.186-1.35-3.186-2.952 0-.162.018-.396.036-.504h7.344c.054-.216.144-.72.144-1.098 0-2.124-1.368-3.762-3.69-3.762-2.7 0-4.824 2.394-4.824 5.292 0 2.268 1.53 3.834 4.14 3.834zm-3.024-5.004c.306-1.782 1.854-3.312 3.6-3.312 1.872 0 2.898 1.224 2.898 2.916 0 .108 0 .306-.018.396h-6.48zM597.652 48l2.646-12.006h-.936L596.716 48h.936zm7.072.216c2.754 0 4.788-2.556 4.788-5.31 0-2.304-1.494-3.816-3.834-3.816-2.754 0-4.788 2.556-4.788 5.31 0 2.304 1.494 3.816 3.834 3.816zm.018-.846c-1.782 0-2.826-1.188-2.826-3.006 0-2.25 1.566-4.428 3.744-4.428 1.782 0 2.826 1.188 2.826 3.006 0 2.25-1.566 4.428-3.744 4.428zm12.911.63l1.332-6.048c.054-.198.108-.576.108-.738 0-1.422-1.062-2.124-2.538-2.124-1.224 0-2.358.774-3.132 1.53l.288-1.314h-.936L610.849 48h.936l1.44-6.552c.756-.774 1.872-1.512 3.006-1.512 1.062 0 1.89.45 1.89 1.53 0 .216-.072.468-.108.63L616.717 48h.936zm6.247 3.528c1.872 0 3.456-.954 4.032-3.618l1.926-8.604h-.954l-.342 1.476c-.63-.954-1.908-1.692-3.15-1.692-2.79 0-4.518 2.646-4.518 5.436 0 2.448 1.458 3.618 3.294 3.618 1.296 0 2.376-.63 3.078-1.53l-.27 1.296c-.468 2.07-1.71 2.808-3.114 2.808s-2.448-.396-3.06-1.332l-.666.666c.882 1.152 2.124 1.476 3.744 1.476zm.63-4.212c-1.602 0-2.646-1.098-2.646-2.916 0-2.16 1.368-4.464 3.564-4.464 1.242 0 2.448.63 2.97 1.602l-.954 4.212c-.666.828-1.818 1.566-2.934 1.566zm15.356.9c2.736 0 4.554-2.646 4.554-5.544 0-2.25-1.404-3.582-3.384-3.582-1.242 0-2.286.612-2.988 1.53l1.008-4.626h-.936L635.494 48h.936l.324-1.476c.594.99 1.692 1.692 3.132 1.692zm-.09-.846c-1.404 0-2.448-.72-2.88-1.584l.918-4.176c.612-.9 1.728-1.674 2.952-1.674 1.584 0 2.628 1.116 2.628 2.898 0 2.286-1.422 4.536-3.618 4.536zm10.463.846c1.134 0 2.25-.468 3.024-1.062l-.36-.684c-.756.63-1.746.936-2.628.936-2.124 0-3.186-1.35-3.186-2.952 0-.162.018-.396.036-.504h7.344c.054-.216.144-.72.144-1.098 0-2.124-1.368-3.762-3.69-3.762-2.7 0-4.824 2.394-4.824 5.292 0 2.268 1.53 3.834 4.14 3.834zm-3.024-5.004c.306-1.782 1.854-3.312 3.6-3.312 1.872 0 2.898 1.224 2.898 2.916 0 .108 0 .306-.018.396h-6.48zm13.237 5.004c1.134 0 2.25-.468 3.024-1.062l-.36-.684c-.756.63-1.746.936-2.628.936-2.124 0-3.186-1.35-3.186-2.952 0-.162.018-.396.036-.504h7.344c.054-.216.144-.72.144-1.098 0-2.124-1.368-3.762-3.69-3.762-2.7 0-4.824 2.394-4.824 5.292 0 2.268 1.53 3.834 4.14 3.834zm-3.024-5.004c.306-1.782 1.854-3.312 3.6-3.312 1.872 0 2.898 1.224 2.898 2.916 0 .108 0 .306-.018.396h-6.48zM673.007 48l1.332-6.048c.054-.198.108-.576.108-.738 0-1.422-1.062-2.124-2.538-2.124-1.224 0-2.358.774-3.132 1.53l.288-1.314h-.936L666.203 48h.936l1.44-6.552c.756-.774 1.872-1.512 3.006-1.512 1.062 0 1.89.45 1.89 1.53 0 .216-.072.468-.108.63L672.071 48h.936zM60.382 75.09c-2.754 0-4.572 2.628-4.572 5.562 0 2.25 1.404 3.564 3.402 3.564 1.242 0 2.268-.612 2.988-1.53L61.894 84h.954l1.926-8.694h-.954l-.306 1.476c-.594-.99-1.71-1.692-3.132-1.692zm.072.846c1.404 0 2.448.72 2.88 1.584l-.918 4.176c-.594.9-1.728 1.674-2.952 1.674-1.584 0-2.628-1.098-2.628-2.88 0-2.304 1.44-4.554 3.618-4.554zM71.687 84l1.728-7.866h1.764l.198-.828h-1.782l.18-.792c.27-1.206.756-1.89 1.764-1.89.54 0 .9.162 1.17.45l.54-.594c-.486-.486-.99-.666-1.71-.666-1.512 0-2.34 1.08-2.718 2.7l-.162.792h-1.44l-.18.828h1.44L70.733 84h.954zm8.4-8.91c-2.754 0-4.572 2.628-4.572 5.562 0 2.25 1.404 3.564 3.402 3.564 1.242 0 2.268-.612 2.988-1.53L81.6 84h.954l1.926-8.694h-.954l-.306 1.476c-.594-.99-1.71-1.692-3.132-1.692zm.072.846c1.404 0 2.448.72 2.88 1.584l-.918 4.176c-.594.9-1.728 1.674-2.952 1.674-1.584 0-2.628-1.098-2.628-2.88 0-2.304 1.44-4.554 3.618-4.554zm8.465 8.28c2.106 0 3.276-1.35 3.276-2.79 0-2.484-4.644-2.214-4.644-3.978 0-.882.828-1.566 2.142-1.566 1.152 0 2.25.558 2.628 1.242l.612-.612c-.486-.756-1.674-1.422-3.168-1.422-2.016 0-3.168 1.17-3.168 2.574 0 2.34 4.644 2.106 4.644 3.96 0 .936-.864 1.8-2.304 1.8-1.332 0-2.394-.666-2.844-1.386l-.666.648c.72 1.008 1.926 1.53 3.492 1.53zm9.324 0c1.314 0 2.232-.522 2.988-1.314l-.54-.648a3.056 3.056 0 01-2.358 1.116c-1.692 0-2.97-1.008-2.97-2.988 0-2.286 1.476-4.446 3.87-4.446.954 0 1.854.396 2.358 1.278l.72-.54c-.594-1.008-1.62-1.584-3.114-1.584-2.718 0-4.824 2.412-4.824 5.274 0 2.466 1.638 3.852 3.87 3.852zm7.437-10.278c.378 0 .81-.306.81-.792a.63.63 0 00-.648-.63c-.378 0-.81.306-.81.792 0 .342.288.63.648.63zM103.567 84l1.926-8.694h-.936L102.631 84h.936zm9.717 0l1.332-6.048c.054-.198.108-.576.108-.738 0-1.422-1.062-2.124-2.538-2.124-1.224 0-2.358.774-3.132 1.53l.288-1.314h-.936L106.48 84h.936l1.44-6.552c.756-.774 1.872-1.512 3.006-1.512 1.062 0 1.89.45 1.89 1.53 0 .216-.072.468-.108.63L112.348 84h.936zm7.813-8.91c-2.754 0-4.572 2.628-4.572 5.562 0 2.25 1.404 3.564 3.402 3.564 1.242 0 2.268-.612 2.988-1.53L122.609 84h.954l1.926-8.694h-.954l-.306 1.476c-.594-.99-1.71-1.692-3.132-1.692zm.072.846c1.404 0 2.448.72 2.88 1.584l-.918 4.176c-.594.9-1.728 1.674-2.952 1.674-1.584 0-2.628-1.098-2.628-2.88 0-2.304 1.44-4.554 3.618-4.554zm7.547 8.28a1.98 1.98 0 001.242-.414l-.18-.756c-.216.162-.576.324-.918.324-.576 0-.882-.306-.882-.828 0-.162.018-.288.036-.378l1.332-6.03h1.764l.198-.828h-1.764l.522-2.376h-.954l-.522 2.376h-1.44l-.18.828h1.44l-1.368 6.156c-.036.18-.054.396-.054.468 0 1.008.648 1.458 1.728 1.458zm5.479-10.278c.378 0 .81-.306.81-.792a.63.63 0 00-.648-.63c-.378 0-.81.306-.81.792 0 .342.288.63.648.63zM132.377 84l1.926-8.694h-.936L131.441 84h.936zm9.718 0l1.332-6.048c.054-.198.108-.576.108-.738 0-1.422-1.062-2.124-2.538-2.124-1.224 0-2.358.774-3.132 1.53l.288-1.314h-.936L135.291 84h.936l1.44-6.552c.756-.774 1.872-1.512 3.006-1.512 1.062 0 1.89.45 1.89 1.53 0 .216-.072.468-.108.63L141.159 84h.936zm6.246 3.528c1.872 0 3.456-.954 4.032-3.618l1.926-8.604h-.954l-.342 1.476c-.63-.954-1.908-1.692-3.15-1.692-2.79 0-4.518 2.646-4.518 5.436 0 2.448 1.458 3.618 3.294 3.618 1.296 0 2.376-.63 3.078-1.53l-.27 1.296c-.468 2.07-1.71 2.808-3.114 2.808s-2.448-.396-3.06-1.332l-.666.666c.882 1.152 2.124 1.476 3.744 1.476zm.63-4.212c-1.602 0-2.646-1.098-2.646-2.916 0-2.16 1.368-4.464 3.564-4.464 1.242 0 2.448.63 2.97 1.602l-.954 4.212c-.666.828-1.818 1.566-2.934 1.566zm15.356.9c2.736 0 4.554-2.646 4.554-5.544 0-2.25-1.404-3.582-3.384-3.582-1.242 0-2.286.612-2.988 1.53l.288-1.314h-.936l-2.664 12.006h.936l1.062-4.788c.594.99 1.692 1.692 3.132 1.692zm-.09-.846c-1.404 0-2.448-.72-2.88-1.584l.918-4.176c.612-.9 1.728-1.674 2.952-1.674 1.584 0 2.628 1.116 2.628 2.898 0 2.286-1.422 4.536-3.618 4.536zm6.847.63l1.404-6.336c.558-.792 1.584-1.584 2.646-1.584.306 0 .522.036.63.054l.216-1.008c-1.548 0-2.394.54-3.294 1.584l.324-1.404h-.936L170.148 84h.936zm8.935.216c2.754 0 4.788-2.556 4.788-5.31 0-2.304-1.494-3.816-3.834-3.816-2.754 0-4.788 2.556-4.788 5.31 0 2.304 1.494 3.816 3.834 3.816zm.018-.846c-1.782 0-2.826-1.188-2.826-3.006 0-2.25 1.566-4.428 3.744-4.428 1.782 0 2.826 1.188 2.826 3.006 0 2.25-1.566 4.428-3.744 4.428zm9.509.63l5.598-8.694h-1.098l-4.842 7.596-1.458-7.596h-1.008L188.484 84h1.062zm8.018-10.062c.378 0 .81-.306.81-.792a.63.63 0 00-.648-.63c-.378 0-.81.306-.81.792 0 .342.288.63.648.63zM195.746 84l1.926-8.694h-.936L194.81 84h.936zm9.718 0l1.332-6.048c.054-.198.108-.576.108-.738 0-1.422-1.062-2.124-2.538-2.124-1.224 0-2.358.774-3.132 1.53l.288-1.314h-.936L198.66 84h.936l1.44-6.552c.756-.774 1.872-1.512 3.006-1.512 1.062 0 1.89.45 1.89 1.53 0 .216-.072.468-.108.63L204.528 84h.936zm7.129.216c1.314 0 2.232-.522 2.988-1.314l-.54-.648a3.056 3.056 0 01-2.358 1.116c-1.692 0-2.97-1.008-2.97-2.988 0-2.286 1.476-4.446 3.87-4.446.954 0 1.854.396 2.358 1.278l.72-.54c-.594-1.008-1.62-1.584-3.114-1.584-2.718 0-4.824 2.412-4.824 5.274 0 2.466 1.638 3.852 3.87 3.852zm9.164 0c1.134 0 2.25-.468 3.024-1.062l-.36-.684c-.756.63-1.746.936-2.628.936-2.124 0-3.186-1.35-3.186-2.952 0-.162.018-.396.036-.504h7.344c.054-.216.144-.72.144-1.098 0-2.124-1.368-3.762-3.69-3.762-2.7 0-4.824 2.394-4.824 5.292 0 2.268 1.53 3.834 4.14 3.834zm-3.024-5.004c.306-1.782 1.854-3.312 3.6-3.312 1.872 0 2.898 1.224 2.898 2.916 0 .108 0 .306-.018.396h-6.48zm16.167-5.274c.378 0 .81-.306.81-.792a.63.63 0 00-.648-.63c-.378 0-.81.306-.81.792 0 .342.288.63.648.63zM233.082 84l1.926-8.694h-.936L232.146 84h.936zm9.718 0l1.332-6.048c.054-.198.108-.576.108-.738 0-1.422-1.062-2.124-2.538-2.124-1.224 0-2.358.774-3.132 1.53l.288-1.314h-.936L235.996 84h.936l1.44-6.552c.756-.774 1.872-1.512 3.006-1.512 1.062 0 1.89.45 1.89 1.53 0 .216-.072.468-.108.63L241.864 84h.936zm9.807.216a1.98 1.98 0 001.242-.414l-.18-.756c-.216.162-.576.324-.918.324-.576 0-.882-.306-.882-.828 0-.162.018-.288.036-.378l1.332-6.03h1.764l.198-.828h-1.764l.522-2.376h-.954l-.522 2.376h-1.44l-.18.828h1.44l-1.368 6.156c-.036.18-.054.396-.054.468 0 1.008.648 1.458 1.728 1.458zm9.529-.216l1.332-6.048c.054-.198.108-.594.108-.738 0-1.422-1.062-2.124-2.538-2.124-1.224 0-2.358.774-3.132 1.53l1.008-4.626h-.936L255.332 84h.936l1.44-6.534c.756-.774 1.872-1.53 2.952-1.53 1.116 0 1.944.45 1.944 1.53 0 .144-.072.468-.108.63L261.2 84h.936zm7.398.216c1.134 0 2.25-.468 3.024-1.062l-.36-.684c-.756.63-1.746.936-2.628.936-2.124 0-3.186-1.35-3.186-2.952 0-.162.018-.396.036-.504h7.344c.054-.216.144-.72.144-1.098 0-2.124-1.368-3.762-3.69-3.762-2.7 0-4.824 2.394-4.824 5.292 0 2.268 1.53 3.834 4.14 3.834zm-3.024-5.004c.306-1.782 1.854-3.312 3.6-3.312 1.872 0 2.898 1.224 2.898 2.916 0 .108 0 .306-.018.396h-6.48zM280.86 84l1.404-6.336c.558-.792 1.584-1.584 2.646-1.584.306 0 .522.036.63.054l.216-1.008c-1.548 0-2.394.54-3.294 1.584l.324-1.404h-.936L279.924 84h.936zm9.258.216c1.134 0 2.25-.468 3.024-1.062l-.36-.684c-.756.63-1.746.936-2.628.936-2.124 0-3.186-1.35-3.186-2.952 0-.162.018-.396.036-.504h7.344c.054-.216.144-.72.144-1.098 0-2.124-1.368-3.762-3.69-3.762-2.7 0-4.824 2.394-4.824 5.292 0 2.268 1.53 3.834 4.14 3.834zm-3.024-5.004c.306-1.782 1.854-3.312 3.6-3.312 1.872 0 2.898 1.224 2.898 2.916 0 .108 0 .306-.018.396h-6.48zm13.651-4.122c-2.754 0-4.572 2.628-4.572 5.562 0 2.25 1.404 3.564 3.402 3.564 1.242 0 2.268-.612 2.988-1.53L302.257 84h.954l1.926-8.694h-.954l-.306 1.476c-.594-.99-1.71-1.692-3.132-1.692zm.072.846c1.404 0 2.448.72 2.88 1.584l-.918 4.176c-.594.9-1.728 1.674-2.952 1.674-1.584 0-2.628-1.098-2.628-2.88 0-2.304 1.44-4.554 3.618-4.554zM307.068 84l2.646-12.006h-.936L306.132 84h.936zm14.2 0l1.332-6.048c.054-.252.108-.558.108-.738 0-1.386-1.026-2.124-2.196-2.124-1.242 0-2.322.846-3.006 1.71v-.036c0-.63-.72-1.674-2.178-1.674-1.26 0-2.286.972-2.772 1.53l.288-1.314h-.936L309.982 84h.936l1.44-6.552c.702-.792 1.692-1.512 2.592-1.512 1.044 0 1.602.612 1.62 1.386 0 .27-.036.36-.072.63L315.148 84h.954l1.44-6.552c.666-.792 1.692-1.512 2.61-1.512.846 0 1.584.54 1.584 1.494 0 .216-.054.45-.072.522L320.332 84h.936zm11.733.216c2.754 0 4.788-2.556 4.788-5.31 0-2.304-1.494-3.816-3.834-3.816-2.754 0-4.788 2.556-4.788 5.31 0 2.304 1.494 3.816 3.834 3.816zm.018-.846c-1.782 0-2.826-1.188-2.826-3.006 0-2.25 1.566-4.428 3.744-4.428 1.782 0 2.826 1.188 2.826 3.006 0 2.25-1.566 4.428-3.744 4.428zm7.368.63l1.728-7.866h1.764l.198-.828h-1.782l.18-.792c.27-1.206.756-1.89 1.764-1.89.54 0 .9.162 1.17.45l.54-.594c-.486-.486-.99-.666-1.71-.666-1.512 0-2.34 1.08-2.718 2.7l-.162.792h-1.44l-.18.828h1.44L339.433 84h.954zm11.312.216c2.106 0 3.276-1.35 3.276-2.79 0-2.484-4.644-2.214-4.644-3.978 0-.882.828-1.566 2.142-1.566 1.152 0 2.25.558 2.628 1.242l.612-.612c-.486-.756-1.674-1.422-3.168-1.422-2.016 0-3.168 1.17-3.168 2.574 0 2.34 4.644 2.106 4.644 3.96 0 .936-.864 1.8-2.304 1.8-1.332 0-2.394-.666-2.844-1.386l-.666.648c.72 1.008 1.926 1.53 3.492 1.53zm9.323 0c1.314 0 2.232-.522 2.988-1.314l-.54-.648a3.056 3.056 0 01-2.358 1.116c-1.692 0-2.97-1.008-2.97-2.988 0-2.286 1.476-4.446 3.87-4.446.954 0 1.854.396 2.358 1.278l.72-.54c-.594-1.008-1.62-1.584-3.114-1.584-2.718 0-4.824 2.412-4.824 5.274 0 2.466 1.638 3.852 3.87 3.852zm7.437-10.278c.378 0 .81-.306.81-.792a.63.63 0 00-.648-.63c-.378 0-.81.306-.81.792 0 .342.288.63.648.63zM366.641 84l1.926-8.694h-.936L365.705 84h.936zm7.395.216c1.134 0 2.25-.468 3.024-1.062l-.36-.684c-.756.63-1.746.936-2.628.936-2.124 0-3.186-1.35-3.186-2.952 0-.162.018-.396.036-.504h7.344c.054-.216.144-.72.144-1.098 0-2.124-1.368-3.762-3.69-3.762-2.7 0-4.824 2.394-4.824 5.292 0 2.268 1.53 3.834 4.14 3.834zm-3.024-5.004c.306-1.782 1.854-3.312 3.6-3.312 1.872 0 2.898 1.224 2.898 2.916 0 .108 0 .306-.018.396h-6.48zM386.571 84l1.332-6.048c.054-.198.108-.576.108-.738 0-1.422-1.062-2.124-2.538-2.124-1.224 0-2.358.774-3.132 1.53l.288-1.314h-.936L379.767 84h.936l1.44-6.552c.756-.774 1.872-1.512 3.006-1.512 1.062 0 1.89.45 1.89 1.53 0 .216-.072.468-.108.63L385.635 84h.936zm7.129.216c1.314 0 2.232-.522 2.988-1.314l-.54-.648a3.056 3.056 0 01-2.358 1.116c-1.692 0-2.97-1.008-2.97-2.988 0-2.286 1.476-4.446 3.87-4.446.954 0 1.854.396 2.358 1.278l.72-.54c-.594-1.008-1.62-1.584-3.114-1.584-2.718 0-4.824 2.412-4.824 5.274 0 2.466 1.638 3.852 3.87 3.852zm9.164 0c1.134 0 2.25-.468 3.024-1.062l-.36-.684c-.756.63-1.746.936-2.628.936-2.124 0-3.186-1.35-3.186-2.952 0-.162.018-.396.036-.504h7.344c.054-.216.144-.72.144-1.098 0-2.124-1.368-3.762-3.69-3.762-2.7 0-4.824 2.394-4.824 5.292 0 2.268 1.53 3.834 4.14 3.834zm-3.024-5.004c.306-1.782 1.854-3.312 3.6-3.312 1.872 0 2.898 1.224 2.898 2.916 0 .108 0 .306-.018.396h-6.48zM414.496 84l1.746-7.866h1.764l.18-.828h-1.764l.18-.792c.27-1.206.774-1.89 1.764-1.89.342 0 .684.054.954.252l.396-.684c-.432-.288-.846-.378-1.368-.378-1.458 0-2.322.99-2.7 2.7l-.162.792h-1.44l-.18.828h1.44L413.56 84h.936zm6.282-10.062c.378 0 .81-.306.81-.792a.63.63 0 00-.648-.63c-.378 0-.81.306-.81.792 0 .342.288.63.648.63zM418.96 84l1.926-8.694h-.936L418.024 84h.936zm7.101.216c1.314 0 2.232-.522 2.988-1.314l-.54-.648a3.056 3.056 0 01-2.358 1.116c-1.692 0-2.97-1.008-2.97-2.988 0-2.286 1.476-4.446 3.87-4.446.954 0 1.854.396 2.358 1.278l.72-.54c-.594-1.008-1.62-1.584-3.114-1.584-2.718 0-4.824 2.412-4.824 5.274 0 2.466 1.638 3.852 3.87 3.852zm6.915 0a1.98 1.98 0 001.242-.414l-.18-.756c-.216.162-.576.324-.918.324-.576 0-.882-.306-.882-.828 0-.162.018-.288.036-.378l1.332-6.03h1.764l.198-.828h-1.764l.522-2.376h-.954l-.522 2.376h-1.44l-.18.828h1.44l-1.368 6.156c-.036.18-.054.396-.054.468 0 1.008.648 1.458 1.728 1.458zm5.479-10.278c.378 0 .81-.306.81-.792a.63.63 0 00-.648-.63c-.378 0-.81.306-.81.792 0 .342.288.63.648.63zM436.637 84l1.926-8.694h-.936L435.701 84h.936zm7.071.216c2.754 0 4.788-2.556 4.788-5.31 0-2.304-1.494-3.816-3.834-3.816-2.754 0-4.788 2.556-4.788 5.31 0 2.304 1.494 3.816 3.834 3.816zm.018-.846c-1.782 0-2.826-1.188-2.826-3.006 0-2.25 1.566-4.428 3.744-4.428 1.782 0 2.826 1.188 2.826 3.006 0 2.25-1.566 4.428-3.744 4.428zm12.912.63l1.332-6.048c.054-.198.108-.576.108-.738 0-1.422-1.062-2.124-2.538-2.124-1.224 0-2.358.774-3.132 1.53l.288-1.314h-.936L449.834 84h.936l1.44-6.552c.756-.774 1.872-1.512 3.006-1.512 1.062 0 1.89.45 1.89 1.53 0 .216-.072.468-.108.63L455.702 84h.936zm3.492.18a.86.86 0 00.864-.846.726.726 0 00-.72-.738.85.85 0 00-.864.846c0 .414.306.738.72.738zm12.646-.18l1.134-5.13 6.282-6.876h-1.332l-5.346 5.904-2.754-5.904h-1.152l3.258 6.876-1.134 5.13h1.044zm8.663.216c1.134 0 2.25-.468 3.024-1.062l-.36-.684c-.756.63-1.746.936-2.628.936-2.124 0-3.186-1.35-3.186-2.952 0-.162.018-.396.036-.504h7.344c.054-.216.144-.72.144-1.098 0-2.124-1.368-3.762-3.69-3.762-2.7 0-4.824 2.394-4.824 5.292 0 2.268 1.53 3.834 4.14 3.834zm-3.024-5.004c.306-1.782 1.854-3.312 3.6-3.312 1.872 0 2.898 1.224 2.898 2.916 0 .108 0 .306-.018.396h-6.48zm10.987 5.004a1.98 1.98 0 001.242-.414l-.18-.756c-.216.162-.576.324-.918.324-.576 0-.882-.306-.882-.828 0-.162.018-.288.036-.378l1.332-6.03h1.764l.198-.828h-1.764l.522-2.376h-.954l-.522 2.376h-1.44l-.18.828h1.44l-1.368 6.156c-.036.18-.054.396-.054.468 0 1.008.648 1.458 1.728 1.458zM505.137 84l4.752-8.694h-1.044l-3.96 7.38-.81-7.38h-.792l-4.104 7.38-.666-7.38h-.954l.9 8.694h.9l4.086-7.434.792 7.434h.9zm9.067.216c1.134 0 2.25-.468 3.024-1.062l-.36-.684c-.756.63-1.746.936-2.628.936-2.124 0-3.186-1.35-3.186-2.952 0-.162.018-.396.036-.504h7.344c.054-.216.144-.72.144-1.098 0-2.124-1.368-3.762-3.69-3.762-2.7 0-4.824 2.394-4.824 5.292 0 2.268 1.53 3.834 4.14 3.834zm-3.024-5.004c.306-1.782 1.854-3.312 3.6-3.312 1.872 0 2.898 1.224 2.898 2.916 0 .108 0 .306-.018.396h-6.48zm18.309-4.122c-2.754 0-4.572 2.628-4.572 5.562 0 2.25 1.404 3.564 3.402 3.564 1.242 0 2.268-.612 2.988-1.53L531.001 84h.954l1.926-8.694h-.954l-.306 1.476c-.594-.99-1.71-1.692-3.132-1.692zm.072.846c1.404 0 2.448.72 2.88 1.584l-.918 4.176c-.594.9-1.728 1.674-2.952 1.674-1.584 0-2.628-1.098-2.628-2.88 0-2.304 1.44-4.554 3.618-4.554zM535.813 84l1.404-6.336c.558-.792 1.584-1.584 2.646-1.584.306 0 .522.036.63.054l.216-1.008c-1.548 0-2.394.54-3.294 1.584l.324-1.404h-.936L534.877 84h.936zm9.259.216c1.134 0 2.25-.468 3.024-1.062l-.36-.684c-.756.63-1.746.936-2.628.936-2.124 0-3.186-1.35-3.186-2.952 0-.162.018-.396.036-.504h7.344c.054-.216.144-.72.144-1.098 0-2.124-1.368-3.762-3.69-3.762-2.7 0-4.824 2.394-4.824 5.292 0 2.268 1.53 3.834 4.14 3.834zm-3.024-5.004c.306-1.782 1.854-3.312 3.6-3.312 1.872 0 2.898 1.224 2.898 2.916 0 .108 0 .306-.018.396h-6.48zm18.309-4.122c-2.754 0-4.572 2.628-4.572 5.562 0 2.25 1.404 3.564 3.402 3.564 1.242 0 2.268-.612 2.988-1.53L561.869 84h.954l1.926-8.694h-.954l-.306 1.476c-.594-.99-1.71-1.692-3.132-1.692zm.072.846c1.404 0 2.448.72 2.88 1.584l-.918 4.176c-.594.9-1.728 1.674-2.952 1.674-1.584 0-2.628-1.098-2.628-2.88 0-2.304 1.44-4.554 3.618-4.554zm9.707 8.28c2.736 0 4.554-2.646 4.554-5.544 0-2.25-1.404-3.582-3.384-3.582-1.242 0-2.286.612-2.988 1.53l1.008-4.626h-.936L565.744 84h.936l.324-1.476c.594.99 1.692 1.692 3.132 1.692zm-.09-.846c-1.404 0-2.448-.72-2.88-1.584l.918-4.176c.612-.9 1.728-1.674 2.952-1.674 1.584 0 2.628 1.116 2.628 2.898 0 2.286-1.422 4.536-3.618 4.536zm10.139.846c2.754 0 4.788-2.556 4.788-5.31 0-2.304-1.494-3.816-3.834-3.816-2.754 0-4.788 2.556-4.788 5.31 0 2.304 1.494 3.816 3.834 3.816zm.018-.846c-1.782 0-2.826-1.188-2.826-3.006 0-2.25 1.566-4.428 3.744-4.428 1.782 0 2.826 1.188 2.826 3.006 0 2.25-1.566 4.428-3.744 4.428zm8.033-8.064l-1.332 6.048a3.656 3.656 0 00-.108.738c0 1.422 1.062 2.124 2.538 2.124 1.224 0 2.358-.774 3.132-1.53L592.178 84h.936l1.926-8.694h-.936l-1.458 6.534c-.738.774-1.854 1.53-2.952 1.53-1.098 0-1.926-.45-1.926-1.53 0-.216.072-.468.108-.648l1.296-5.886h-.936zm10.027 8.91a1.98 1.98 0 001.242-.414l-.18-.756c-.216.162-.576.324-.918.324-.576 0-.882-.306-.882-.828 0-.162.018-.288.036-.378l1.332-6.03h1.764l.198-.828h-1.764l.522-2.376h-.954l-.522 2.376h-1.44l-.18.828h1.44l-1.368 6.156c-.036.18-.054.396-.054.468 0 1.008.648 1.458 1.728 1.458zm9.615 0a1.98 1.98 0 001.242-.414l-.18-.756c-.216.162-.576.324-.918.324-.576 0-.882-.306-.882-.828 0-.162.018-.288.036-.378l1.332-6.03h1.764l.198-.828h-1.764l.522-2.376h-.954l-.522 2.376h-1.44l-.18.828h1.44l-1.368 6.156c-.036.18-.054.396-.054.468 0 1.008.648 1.458 1.728 1.458zm6.883 0c2.754 0 4.788-2.556 4.788-5.31 0-2.304-1.494-3.816-3.834-3.816-2.754 0-4.788 2.556-4.788 5.31 0 2.304 1.494 3.816 3.834 3.816zm.018-.846c-1.782 0-2.826-1.188-2.826-3.006 0-2.25 1.566-4.428 3.744-4.428 1.782 0 2.826 1.188 2.826 3.006 0 2.25-1.566 4.428-3.744 4.428zm19.118.63l4.752-8.694h-1.044l-3.96 7.38-.81-7.38h-.792l-4.104 7.38-.666-7.38h-.954l.9 8.694h.9l4.086-7.434.792 7.434h.9zm7.339-10.062c.378 0 .81-.306.81-.792a.63.63 0 00-.648-.63c-.378 0-.81.306-.81.792 0 .342.288.63.648.63zM639.418 84l1.926-8.694h-.936L638.482 84h.936zm5.146.216a1.98 1.98 0 001.242-.414l-.18-.756c-.216.162-.576.324-.918.324-.576 0-.882-.306-.882-.828 0-.162.018-.288.036-.378l1.332-6.03h1.764l.198-.828h-1.764l.522-2.376h-.954l-.522 2.376h-1.44l-.18.828h1.44l-1.368 6.156c-.036.18-.054.396-.054.468 0 1.008.648 1.458 1.728 1.458zm9.529-.216l1.332-6.048c.054-.198.108-.576.108-.738 0-1.422-1.062-2.124-2.538-2.124-1.224 0-2.358.774-3.132 1.53l.288-1.314h-.936L647.289 84h.936l1.44-6.552c.756-.774 1.872-1.512 3.006-1.512 1.062 0 1.89.45 1.89 1.53 0 .216-.072.468-.108.63L653.157 84h.936zm7.398.216c1.134 0 2.25-.468 3.024-1.062l-.36-.684c-.756.63-1.746.936-2.628.936-2.124 0-3.186-1.35-3.186-2.952 0-.162.018-.396.036-.504h7.344c.054-.216.144-.72.144-1.098 0-2.124-1.368-3.762-3.69-3.762-2.7 0-4.824 2.394-4.824 5.292 0 2.268 1.53 3.834 4.14 3.834zm-3.024-5.004c.306-1.782 1.854-3.312 3.6-3.312 1.872 0 2.898 1.224 2.898 2.916 0 .108 0 .306-.018.396h-6.48zm11.905 5.004c2.106 0 3.276-1.35 3.276-2.79 0-2.484-4.644-2.214-4.644-3.978 0-.882.828-1.566 2.142-1.566 1.152 0 2.25.558 2.628 1.242l.612-.612c-.486-.756-1.674-1.422-3.168-1.422-2.016 0-3.168 1.17-3.168 2.574 0 2.34 4.644 2.106 4.644 3.96 0 .936-.864 1.8-2.304 1.8-1.332 0-2.394-.666-2.844-1.386l-.666.648c.72 1.008 1.926 1.53 3.492 1.53zm8.262 0c2.106 0 3.276-1.35 3.276-2.79 0-2.484-4.644-2.214-4.644-3.978 0-.882.828-1.566 2.142-1.566 1.152 0 2.25.558 2.628 1.242l.612-.612c-.486-.756-1.674-1.422-3.168-1.422-2.016 0-3.168 1.17-3.168 2.574 0 2.34 4.644 2.106 4.644 3.96 0 .936-.864 1.8-2.304 1.8-1.332 0-2.394-.666-2.844-1.386l-.666.648c.72 1.008 1.926 1.53 3.492 1.53zm-620.916 36a1.98 1.98 0 001.242-.414l-.18-.756c-.216.162-.576.324-.918.324-.576 0-.882-.306-.882-.828 0-.162.018-.288.036-.378l1.332-6.03h1.764l.198-.828h-1.764l.522-2.376h-.954l-.522 2.376h-1.44l-.18.828h1.44l-1.368 6.156c-.036.18-.054.396-.054.468 0 1.008.648 1.458 1.728 1.458zm9.529-.216l1.332-6.048c.054-.198.108-.594.108-.738 0-1.422-1.062-2.124-2.538-2.124-1.224 0-2.358.774-3.132 1.53l1.008-4.626h-.936L60.443 120h.936l1.44-6.534c.756-.774 1.872-1.53 2.952-1.53 1.116 0 1.944.45 1.944 1.53 0 .144-.072.468-.108.63L66.311 120h.936zm7.399.216c1.134 0 2.25-.468 3.024-1.062l-.36-.684c-.756.63-1.746.936-2.628.936-2.124 0-3.186-1.35-3.186-2.952 0-.162.018-.396.036-.504h7.344c.054-.216.144-.72.144-1.098 0-2.124-1.368-3.762-3.69-3.762-2.7 0-4.824 2.394-4.824 5.292 0 2.268 1.53 3.834 4.14 3.834zm-3.024-5.004c.306-1.782 1.854-3.312 3.6-3.312 1.872 0 2.898 1.224 2.898 2.916 0 .108 0 .306-.018.396h-6.48zm17.805 5.004c2.736 0 4.554-2.646 4.554-5.544 0-2.25-1.404-3.582-3.384-3.582-1.242 0-2.286.612-2.988 1.53l1.008-4.626h-.936L85.035 120h.936l.324-1.476c.594.99 1.692 1.692 3.132 1.692zm-.09-.846c-1.404 0-2.448-.72-2.88-1.584l.918-4.176c.612-.9 1.728-1.674 2.952-1.674 1.584 0 2.628 1.116 2.628 2.898 0 2.286-1.422 4.536-3.618 4.536zm8.735-9.432c.378 0 .81-.306.81-.792a.63.63 0 00-.648-.63c-.378 0-.81.306-.81.792 0 .342.288.63.648.63zM96.254 120l1.926-8.694h-.936L95.318 120h.936zm3.85 0l1.404-6.336c.558-.792 1.584-1.584 2.646-1.584.306 0 .522.036.63.054l.216-1.008c-1.548 0-2.394.54-3.294 1.584l.324-1.404h-.936L99.168 120h.936zm7.009.216a1.98 1.98 0 001.242-.414l-.18-.756c-.216.162-.576.324-.918.324-.576 0-.882-.306-.882-.828 0-.162.018-.288.036-.378l1.332-6.03h1.764l.198-.828h-1.764l.522-2.376h-.954l-.522 2.376h-1.44l-.18.828h1.44l-1.368 6.156c-.036.18-.054.396-.054.468 0 1.008.648 1.458 1.728 1.458zm9.529-.216l1.332-6.048c.054-.198.108-.594.108-.738 0-1.422-1.062-2.124-2.538-2.124-1.224 0-2.358.774-3.132 1.53l1.008-4.626h-.936L109.838 120h.936l1.44-6.534c.756-.774 1.872-1.53 2.952-1.53 1.116 0 1.944.45 1.944 1.53 0 .144-.072.468-.108.63L115.706 120h.936zm11.732.216c2.754 0 4.788-2.556 4.788-5.31 0-2.304-1.494-3.816-3.834-3.816-2.754 0-4.788 2.556-4.788 5.31 0 2.304 1.494 3.816 3.834 3.816zm.018-.846c-1.782 0-2.826-1.188-2.826-3.006 0-2.25 1.566-4.428 3.744-4.428 1.782 0 2.826 1.188 2.826 3.006 0 2.25-1.566 4.428-3.744 4.428zm7.368.63l1.728-7.866h1.764l.198-.828h-1.782l.18-.792c.27-1.206.756-1.89 1.764-1.89.54 0 .9.162 1.17.45l.54-.594c-.486-.486-.99-.666-1.71-.666-1.512 0-2.34 1.08-2.718 2.7l-.162.792h-1.44l-.18.828h1.44L134.806 120h.954zm11.312.216c2.106 0 3.276-1.35 3.276-2.79 0-2.484-4.644-2.214-4.644-3.978 0-.882.828-1.566 2.142-1.566 1.152 0 2.25.558 2.628 1.242l.612-.612c-.486-.756-1.674-1.422-3.168-1.422-2.016 0-3.168 1.17-3.168 2.574 0 2.34 4.644 2.106 4.644 3.96 0 .936-.864 1.8-2.304 1.8-1.332 0-2.394-.666-2.844-1.386l-.666.648c.72 1.008 1.926 1.53 3.492 1.53zm7.037-8.91l-1.332 6.048a3.656 3.656 0 00-.108.738c0 1.422 1.062 2.124 2.538 2.124 1.224 0 2.358-.774 3.132-1.53l-.288 1.314h.936l1.926-8.694h-.936l-1.458 6.534c-.738.774-1.854 1.53-2.952 1.53-1.098 0-1.926-.45-1.926-1.53 0-.216.072-.468.108-.648l1.296-5.886h-.936zm12.007 8.91c1.314 0 2.232-.522 2.988-1.314l-.54-.648a3.056 3.056 0 01-2.358 1.116c-1.692 0-2.97-1.008-2.97-2.988 0-2.286 1.476-4.446 3.87-4.446.954 0 1.854.396 2.358 1.278l.72-.54c-.594-1.008-1.62-1.584-3.114-1.584-2.718 0-4.824 2.412-4.824 5.274 0 2.466 1.638 3.852 3.87 3.852zm11.487-.216l1.332-6.048c.054-.198.108-.594.108-.738 0-1.422-1.062-2.124-2.538-2.124-1.224 0-2.358.774-3.132 1.53l1.008-4.626h-.936L170.799 120h.936l1.44-6.534c.756-.774 1.872-1.53 2.952-1.53 1.116 0 1.944.45 1.944 1.53 0 .144-.072.468-.108.63L176.667 120h.936zm12.47-8.91c-2.754 0-4.572 2.628-4.572 5.562 0 2.25 1.404 3.564 3.402 3.564 1.242 0 2.268-.612 2.988-1.53l-.306 1.314h.954l1.926-8.694h-.954l-.306 1.476c-.594-.99-1.71-1.692-3.132-1.692zm.072.846c1.404 0 2.448.72 2.88 1.584l-.918 4.176c-.594.9-1.728 1.674-2.952 1.674-1.584 0-2.628-1.098-2.628-2.88 0-2.304 1.44-4.554 3.618-4.554zm21.26 8.064l1.332-6.048c.054-.252.108-.558.108-.738 0-1.386-1.026-2.124-2.196-2.124-1.242 0-2.322.846-3.006 1.71v-.036c0-.63-.72-1.674-2.178-1.674-1.26 0-2.286.972-2.772 1.53l.288-1.314h-.936L200.119 120h.936l1.44-6.552c.702-.792 1.692-1.512 2.592-1.512 1.044 0 1.602.612 1.62 1.386 0 .27-.036.36-.072.63l-1.35 6.048h.954l1.44-6.552c.666-.792 1.692-1.512 2.61-1.512.846 0 1.584.54 1.584 1.494 0 .216-.054.45-.072.522L210.469 120h.936zm7.813-8.91c-2.754 0-4.572 2.628-4.572 5.562 0 2.25 1.404 3.564 3.402 3.564 1.242 0 2.268-.612 2.988-1.53L220.73 120h.954l1.926-8.694h-.954l-.306 1.476c-.594-.99-1.71-1.692-3.132-1.692zm.072.846c1.404 0 2.448.72 2.88 1.584l-.918 4.176c-.594.9-1.728 1.674-2.952 1.674-1.584 0-2.628-1.098-2.628-2.88 0-2.304 1.44-4.554 3.618-4.554zm9.527 8.28c1.314 0 2.232-.522 2.988-1.314l-.54-.648a3.056 3.056 0 01-2.358 1.116c-1.692 0-2.97-1.008-2.97-2.988 0-2.286 1.476-4.446 3.87-4.446.954 0 1.854.396 2.358 1.278l.72-.54c-.594-1.008-1.62-1.584-3.114-1.584-2.718 0-4.824 2.412-4.824 5.274 0 2.466 1.638 3.852 3.87 3.852zm11.487-.216l1.332-6.048c.054-.198.108-.594.108-.738 0-1.422-1.062-2.124-2.538-2.124-1.224 0-2.358.774-3.132 1.53l1.008-4.626h-.936L233.5 120h.936l1.44-6.534c.756-.774 1.872-1.53 2.952-1.53 1.116 0 1.944.45 1.944 1.53 0 .144-.072.468-.108.63L239.368 120h.936zm5.67-10.062c.378 0 .81-.306.81-.792a.63.63 0 00-.648-.63c-.378 0-.81.306-.81.792 0 .342.288.63.648.63zM244.156 120l1.926-8.694h-.936L243.22 120h.936zm9.718 0l1.332-6.048c.054-.198.108-.576.108-.738 0-1.422-1.062-2.124-2.538-2.124-1.224 0-2.358.774-3.132 1.53l.288-1.314h-.936L247.07 120h.936l1.44-6.552c.756-.774 1.872-1.512 3.006-1.512 1.062 0 1.89.45 1.89 1.53 0 .216-.072.468-.108.63L252.938 120h.936zm7.399.216c1.134 0 2.25-.468 3.024-1.062l-.36-.684c-.756.63-1.746.936-2.628.936-2.124 0-3.186-1.35-3.186-2.952 0-.162.018-.396.036-.504h7.344c.054-.216.144-.72.144-1.098 0-2.124-1.368-3.762-3.69-3.762-2.7 0-4.824 2.394-4.824 5.292 0 2.268 1.53 3.834 4.14 3.834zm-3.024-5.004c.306-1.782 1.854-3.312 3.6-3.312 1.872 0 2.898 1.224 2.898 2.916 0 .108 0 .306-.018.396h-6.48zm22.953.864l.18-.864h-9.594l-.18.864h9.594zm10.684-4.986c-2.754 0-4.572 2.628-4.572 5.562 0 2.25 1.404 3.564 3.402 3.564 1.242 0 2.268-.612 2.988-1.53l-.306 1.314h.954l1.926-8.694h-.954l-.306 1.476c-.594-.99-1.71-1.692-3.132-1.692zm.072.846c1.404 0 2.448.72 2.88 1.584l-.918 4.176c-.594.9-1.728 1.674-2.952 1.674-1.584 0-2.628-1.098-2.628-2.88 0-2.304 1.44-4.554 3.618-4.554zM313.217 120l1.332-6.048c.054-.252.108-.558.108-.738 0-1.386-1.026-2.124-2.196-2.124-1.242 0-2.322.846-3.006 1.71v-.036c0-.63-.72-1.674-2.178-1.674-1.26 0-2.286.972-2.772 1.53l.288-1.314h-.936L301.931 120h.936l1.44-6.552c.702-.792 1.692-1.512 2.592-1.512 1.044 0 1.602.612 1.62 1.386 0 .27-.036.36-.072.63l-1.35 6.048h.954l1.44-6.552c.666-.792 1.692-1.512 2.61-1.512.846 0 1.584.54 1.584 1.494 0 .216-.054.45-.072.522L312.281 120h.936zm7.813-8.91c-2.754 0-4.572 2.628-4.572 5.562 0 2.25 1.404 3.564 3.402 3.564 1.242 0 2.268-.612 2.988-1.53l-.306 1.314h.954l1.926-8.694h-.954l-.306 1.476c-.594-.99-1.71-1.692-3.132-1.692zm.072.846c1.404 0 2.448.72 2.88 1.584l-.918 4.176c-.594.9-1.728 1.674-2.952 1.674-1.584 0-2.628-1.098-2.628-2.88 0-2.304 1.44-4.554 3.618-4.554zm9.528 8.28c1.314 0 2.232-.522 2.988-1.314l-.54-.648a3.056 3.056 0 01-2.358 1.116c-1.692 0-2.97-1.008-2.97-2.988 0-2.286 1.476-4.446 3.87-4.446.954 0 1.854.396 2.358 1.278l.72-.54c-.594-1.008-1.62-1.584-3.114-1.584-2.718 0-4.824 2.412-4.824 5.274 0 2.466 1.638 3.852 3.87 3.852zm11.486-.216l1.332-6.048c.054-.198.108-.594.108-.738 0-1.422-1.062-2.124-2.538-2.124-1.224 0-2.358.774-3.132 1.53l1.008-4.626h-.936L335.312 120h.936l1.44-6.534c.756-.774 1.872-1.53 2.952-1.53 1.116 0 1.944.45 1.944 1.53 0 .144-.072.468-.108.63L341.18 120h.936zm5.671-10.062c.378 0 .81-.306.81-.792a.63.63 0 00-.648-.63c-.378 0-.81.306-.81.792 0 .342.288.63.648.63zM345.969 120l1.926-8.694h-.936L345.033 120h.936zm9.717 0l1.332-6.048c.054-.198.108-.576.108-.738 0-1.422-1.062-2.124-2.538-2.124-1.224 0-2.358.774-3.132 1.53l.288-1.314h-.936L348.882 120h.936l1.44-6.552c.756-.774 1.872-1.512 3.006-1.512 1.062 0 1.89.45 1.89 1.53 0 .216-.072.468-.108.63L354.75 120h.936zm7.399.216c1.134 0 2.25-.468 3.024-1.062l-.36-.684c-.756.63-1.746.936-2.628.936-2.124 0-3.186-1.35-3.186-2.952 0-.162.018-.396.036-.504h7.344c.054-.216.144-.72.144-1.098 0-2.124-1.368-3.762-3.69-3.762-2.7 0-4.824 2.394-4.824 5.292 0 2.268 1.53 3.834 4.14 3.834zm-3.024-5.004c.306-1.782 1.854-3.312 3.6-3.312 1.872 0 2.898 1.224 2.898 2.916 0 .108 0 .306-.018.396h-6.48zm17.625 5.004c1.314 0 2.232-.522 2.988-1.314l-.54-.648a3.056 3.056 0 01-2.358 1.116c-1.692 0-2.97-1.008-2.97-2.988 0-2.286 1.476-4.446 3.87-4.446.954 0 1.854.396 2.358 1.278l.72-.54c-.594-1.008-1.62-1.584-3.114-1.584-2.718 0-4.824 2.412-4.824 5.274 0 2.466 1.638 3.852 3.87 3.852zm9.579-9.126c-2.754 0-4.572 2.628-4.572 5.562 0 2.25 1.404 3.564 3.402 3.564 1.242 0 2.268-.612 2.988-1.53l-.306 1.314h.954l1.926-8.694h-.954l-.306 1.476c-.594-.99-1.71-1.692-3.132-1.692zm.072.846c1.404 0 2.448.72 2.88 1.584l-.918 4.176c-.594.9-1.728 1.674-2.952 1.674-1.584 0-2.628-1.098-2.628-2.88 0-2.304 1.44-4.554 3.618-4.554zm9.707 8.28c2.736 0 4.554-2.646 4.554-5.544 0-2.25-1.404-3.582-3.384-3.582-1.242 0-2.286.612-2.988 1.53l.288-1.314h-.936l-2.664 12.006h.936l1.062-4.788c.594.99 1.692 1.692 3.132 1.692zm-.09-.846c-1.404 0-2.448-.72-2.88-1.584l.918-4.176c.612-.9 1.728-1.674 2.952-1.674 1.584 0 2.628 1.116 2.628 2.898 0 2.286-1.422 4.536-3.618 4.536zm10.807-8.28c-2.754 0-4.572 2.628-4.572 5.562 0 2.25 1.404 3.564 3.402 3.564 1.242 0 2.268-.612 2.988-1.53l-.306 1.314h.954l1.926-8.694h-.954l-.306 1.476c-.594-.99-1.71-1.692-3.132-1.692zm.072.846c1.404 0 2.448.72 2.88 1.584l-.918 4.176c-.594.9-1.728 1.674-2.952 1.674-1.584 0-2.628-1.098-2.628-2.88 0-2.304 1.44-4.554 3.618-4.554zm9.707 8.28c2.736 0 4.554-2.646 4.554-5.544 0-2.25-1.404-3.582-3.384-3.582-1.242 0-2.286.612-2.988 1.53l1.008-4.626h-.936L413.148 120h.936l.324-1.476c.594.99 1.692 1.692 3.132 1.692zm-.09-.846c-1.404 0-2.448-.72-2.88-1.584l.918-4.176c.612-.9 1.728-1.674 2.952-1.674 1.584 0 2.628 1.116 2.628 2.898 0 2.286-1.422 4.536-3.618 4.536zm6.917.63l2.646-12.006h-.936L423.431 120h.936zm7.396.216c1.134 0 2.25-.468 3.024-1.062l-.36-.684c-.756.63-1.746.936-2.628.936-2.124 0-3.186-1.35-3.186-2.952 0-.162.018-.396.036-.504h7.344c.054-.216.144-.72.144-1.098 0-2.124-1.368-3.762-3.69-3.762-2.7 0-4.824 2.394-4.824 5.292 0 2.268 1.53 3.834 4.14 3.834zm-3.024-5.004c.306-1.782 1.854-3.312 3.6-3.312 1.872 0 2.898 1.224 2.898 2.916 0 .108 0 .306-.018.396h-6.48zm17.571 5.004c2.754 0 4.788-2.556 4.788-5.31 0-2.304-1.494-3.816-3.834-3.816-2.754 0-4.788 2.556-4.788 5.31 0 2.304 1.494 3.816 3.834 3.816zm.018-.846c-1.782 0-2.826-1.188-2.826-3.006 0-2.25 1.566-4.428 3.744-4.428 1.782 0 2.826 1.188 2.826 3.006 0 2.25-1.566 4.428-3.744 4.428zm7.367.63l1.728-7.866h1.764l.198-.828h-1.782l.18-.792c.27-1.206.756-1.89 1.764-1.89.54 0 .9.162 1.17.45l.54-.594c-.486-.486-.99-.666-1.71-.666-1.512 0-2.34 1.08-2.718 2.7l-.162.792h-1.44l-.18.828h1.44L452.741 120h.954zm12.554.216c2.736 0 4.554-2.646 4.554-5.544 0-2.25-1.404-3.582-3.384-3.582-1.242 0-2.286.612-2.988 1.53l.288-1.314h-.936l-2.664 12.006h.936l1.062-4.788c.594.99 1.692 1.692 3.132 1.692zm-.09-.846c-1.404 0-2.448-.72-2.88-1.584l.918-4.176c.612-.9 1.728-1.674 2.952-1.674 1.584 0 2.628 1.116 2.628 2.898 0 2.286-1.422 4.536-3.618 4.536zm10.393.846c1.134 0 2.25-.468 3.024-1.062l-.36-.684c-.756.63-1.746.936-2.628.936-2.124 0-3.186-1.35-3.186-2.952 0-.162.018-.396.036-.504h7.344c.054-.216.144-.72.144-1.098 0-2.124-1.368-3.762-3.69-3.762-2.7 0-4.824 2.394-4.824 5.292 0 2.268 1.53 3.834 4.14 3.834zm-3.024-5.004c.306-1.782 1.854-3.312 3.6-3.312 1.872 0 2.898 1.224 2.898 2.916 0 .108 0 .306-.018.396h-6.48zm9.691 4.788l1.404-6.336c.558-.792 1.584-1.584 2.646-1.584.306 0 .522.036.63.054l.216-1.008c-1.548 0-2.394.54-3.294 1.584l.324-1.404h-.936L482.283 120h.936zm8.989.216c1.314 0 2.232-.522 2.988-1.314l-.54-.648a3.056 3.056 0 01-2.358 1.116c-1.692 0-2.97-1.008-2.97-2.988 0-2.286 1.476-4.446 3.87-4.446.954 0 1.854.396 2.358 1.278l.72-.54c-.594-1.008-1.62-1.584-3.114-1.584-2.718 0-4.824 2.412-4.824 5.274 0 2.466 1.638 3.852 3.87 3.852zm9.164 0c1.134 0 2.25-.468 3.024-1.062l-.36-.684c-.756.63-1.746.936-2.628.936-2.124 0-3.186-1.35-3.186-2.952 0-.162.018-.396.036-.504h7.344c.054-.216.144-.72.144-1.098 0-2.124-1.368-3.762-3.69-3.762-2.7 0-4.824 2.394-4.824 5.292 0 2.268 1.53 3.834 4.14 3.834zm-3.024-5.004c.306-1.782 1.854-3.312 3.6-3.312 1.872 0 2.898 1.224 2.898 2.916 0 .108 0 .306-.018.396h-6.48zm11.509-5.274c.378 0 .81-.306.81-.792a.63.63 0 00-.648-.63c-.378 0-.81.306-.81.792 0 .342.288.63.648.63zM508.039 120l1.926-8.694h-.936L507.103 120h.936zm6.316 0l5.598-8.694h-1.098l-4.842 7.596-1.458-7.596h-1.008l1.746 8.694h1.062zm8.018-10.062c.378 0 .81-.306.81-.792a.63.63 0 00-.648-.63c-.378 0-.81.306-.81.792 0 .342.288.63.648.63zM520.555 120l1.926-8.694h-.936L519.619 120h.936zm9.717 0l1.332-6.048c.054-.198.108-.576.108-.738 0-1.422-1.062-2.124-2.538-2.124-1.224 0-2.358.774-3.132 1.53l.288-1.314h-.936L523.468 120h.936l1.44-6.552c.756-.774 1.872-1.512 3.006-1.512 1.062 0 1.89.45 1.89 1.53 0 .216-.072.468-.108.63L529.336 120h.936zm6.247 3.528c1.872 0 3.456-.954 4.032-3.618l1.926-8.604h-.954l-.342 1.476c-.63-.954-1.908-1.692-3.15-1.692-2.79 0-4.518 2.646-4.518 5.436 0 2.448 1.458 3.618 3.294 3.618 1.296 0 2.376-.63 3.078-1.53l-.27 1.296c-.468 2.07-1.71 2.808-3.114 2.808s-2.448-.396-3.06-1.332l-.666.666c.882 1.152 2.124 1.476 3.744 1.476zm.63-4.212c-1.602 0-2.646-1.098-2.646-2.916 0-2.16 1.368-4.464 3.564-4.464 1.242 0 2.448.63 2.97 1.602l-.954 4.212c-.666.828-1.818 1.566-2.934 1.566zm7.782.144c0-.558-.342-.864-.774-.864a.86.86 0 00-.846.864c0 .36.288.648.612.648h.126c-.162.558-.738 1.17-1.404 1.512l.432.486c.954-.504 1.854-1.62 1.854-2.646zm8.055.54l1.404-6.336c.558-.792 1.584-1.584 2.646-1.584.306 0 .522.036.63.054l.216-1.008c-1.548 0-2.394.54-3.294 1.584l.324-1.404h-.936L552.05 120h.936zm9.259.216c1.134 0 2.25-.468 3.024-1.062l-.36-.684c-.756.63-1.746.936-2.628.936-2.124 0-3.186-1.35-3.186-2.952 0-.162.018-.396.036-.504h7.344c.054-.216.144-.72.144-1.098 0-2.124-1.368-3.762-3.69-3.762-2.7 0-4.824 2.394-4.824 5.292 0 2.268 1.53 3.834 4.14 3.834zm-3.024-5.004c.306-1.782 1.854-3.312 3.6-3.312 1.872 0 2.898 1.224 2.898 2.916 0 .108 0 .306-.018.396h-6.48zm12.967 5.004c1.314 0 2.232-.522 2.988-1.314l-.54-.648a3.056 3.056 0 01-2.358 1.116c-1.692 0-2.97-1.008-2.97-2.988 0-2.286 1.476-4.446 3.87-4.446.954 0 1.854.396 2.358 1.278l.72-.54c-.594-1.008-1.62-1.584-3.114-1.584-2.718 0-4.824 2.412-4.824 5.274 0 2.466 1.638 3.852 3.87 3.852zm8.841 0c2.754 0 4.788-2.556 4.788-5.31 0-2.304-1.494-3.816-3.834-3.816-2.754 0-4.788 2.556-4.788 5.31 0 2.304 1.494 3.816 3.834 3.816zm.018-.846c-1.782 0-2.826-1.188-2.826-3.006 0-2.25 1.566-4.428 3.744-4.428 1.782 0 2.826 1.188 2.826 3.006 0 2.25-1.566 4.428-3.744 4.428zm9.437 4.158c1.872 0 3.456-.954 4.032-3.618l1.926-8.604h-.954l-.342 1.476c-.63-.954-1.908-1.692-3.15-1.692-2.79 0-4.518 2.646-4.518 5.436 0 2.448 1.458 3.618 3.294 3.618 1.296 0 2.376-.63 3.078-1.53l-.27 1.296c-.468 2.07-1.71 2.808-3.114 2.808s-2.448-.396-3.06-1.332l-.666.666c.882 1.152 2.124 1.476 3.744 1.476zm.63-4.212c-1.602 0-2.646-1.098-2.646-2.916 0-2.16 1.368-4.464 3.564-4.464 1.242 0 2.448.63 2.97 1.602l-.954 4.212c-.666.828-1.818 1.566-2.934 1.566zm13.11.684l1.332-6.048c.054-.198.108-.576.108-.738 0-1.422-1.062-2.124-2.538-2.124-1.224 0-2.358.774-3.132 1.53l.288-1.314h-.936L597.42 120h.936l1.44-6.552c.756-.774 1.872-1.512 3.006-1.512 1.062 0 1.89.45 1.89 1.53 0 .216-.072.468-.108.63L603.288 120h.936zm5.67-10.062c.378 0 .81-.306.81-.792a.63.63 0 00-.648-.63c-.378 0-.81.306-.81.792 0 .342.288.63.648.63zM608.076 120l1.926-8.694h-.936L607.14 120h.936zm8.89 0l.162-.828h-5.184l6.714-7.11.162-.756h-6.354l-.18.828h5.076l-6.678 7.092-.144.774h6.426zm5.215-10.062c.378 0 .81-.306.81-.792a.63.63 0 00-.648-.63c-.378 0-.81.306-.81.792 0 .342.288.63.648.63zM620.363 120l1.926-8.694h-.936L619.427 120h.936zm9.718 0l1.332-6.048c.054-.198.108-.576.108-.738 0-1.422-1.062-2.124-2.538-2.124-1.224 0-2.358.774-3.132 1.53l.288-1.314h-.936L623.277 120h.936l1.44-6.552c.756-.774 1.872-1.512 3.006-1.512 1.062 0 1.89.45 1.89 1.53 0 .216-.072.468-.108.63L629.145 120h.936zm6.247 3.528c1.872 0 3.456-.954 4.032-3.618l1.926-8.604h-.954l-.342 1.476c-.63-.954-1.908-1.692-3.15-1.692-2.79 0-4.518 2.646-4.518 5.436 0 2.448 1.458 3.618 3.294 3.618 1.296 0 2.376-.63 3.078-1.53l-.27 1.296c-.468 2.07-1.71 2.808-3.114 2.808s-2.448-.396-3.06-1.332l-.666.666c.882 1.152 2.124 1.476 3.744 1.476zm.63-4.212c-1.602 0-2.646-1.098-2.646-2.916 0-2.16 1.368-4.464 3.564-4.464 1.242 0 2.448.63 2.97 1.602l-.954 4.212c-.666.828-1.818 1.566-2.934 1.566zm15.86-8.226c-2.754 0-4.572 2.628-4.572 5.562 0 2.25 1.404 3.564 3.402 3.564 1.242 0 2.268-.612 2.988-1.53L654.33 120h.954l1.926-8.694h-.954l-.306 1.476c-.594-.99-1.71-1.692-3.132-1.692zm.072.846c1.404 0 2.448.72 2.88 1.584l-.918 4.176c-.594.9-1.728 1.674-2.952 1.674-1.584 0-2.628-1.098-2.628-2.88 0-2.304 1.44-4.554 3.618-4.554zM665.009 120l1.332-6.048c.054-.198.108-.576.108-.738 0-1.422-1.062-2.124-2.538-2.124-1.224 0-2.358.774-3.132 1.53l.288-1.314h-.936L658.205 120h.936l1.44-6.552c.756-.774 1.872-1.512 3.006-1.512 1.062 0 1.89.45 1.89 1.53 0 .216-.072.468-.108.63L664.073 120h.936zm7.812-8.91c-2.754 0-4.572 2.628-4.572 5.562 0 2.25 1.404 3.564 3.402 3.564 1.242 0 2.268-.612 2.988-1.53l-.306 1.314h.954l2.664-12.006h-.954l-1.044 4.788c-.594-.99-1.71-1.692-3.132-1.692zm.072.846c1.404 0 2.448.72 2.88 1.584l-.918 4.176c-.594.9-1.728 1.674-2.952 1.674-1.584 0-2.628-1.098-2.628-2.88 0-2.304 1.44-4.554 3.618-4.554zM58.24 145.938c.378 0 .81-.306.81-.792a.63.63 0 00-.648-.63c-.378 0-.81.306-.81.792 0 .342.288.63.648.63zM56.422 156l1.926-8.694h-.936L55.486 156h.936zm7.81-8.91c-2.754 0-4.572 2.628-4.572 5.562 0 2.25 1.404 3.564 3.402 3.564 1.242 0 2.268-.612 2.988-1.53L65.744 156h.954l2.664-12.006h-.954l-1.044 4.788c-.594-.99-1.71-1.692-3.132-1.692zm.072.846c1.404 0 2.448.72 2.88 1.584l-.918 4.176c-.594.9-1.728 1.674-2.952 1.674-1.584 0-2.628-1.098-2.628-2.88 0-2.304 1.44-4.554 3.618-4.554zm9.797 8.28c1.134 0 2.25-.468 3.024-1.062l-.36-.684c-.756.63-1.746.936-2.628.936-2.124 0-3.186-1.35-3.186-2.952 0-.162.018-.396.036-.504h7.344c.054-.216.144-.72.144-1.098 0-2.124-1.368-3.762-3.69-3.762-2.7 0-4.824 2.394-4.824 5.292 0 2.268 1.53 3.834 4.14 3.834zm-3.024-5.004c.306-1.782 1.854-3.312 3.6-3.312 1.872 0 2.898 1.224 2.898 2.916 0 .108 0 .306-.018.396h-6.48zM86.636 156l1.332-6.048c.054-.198.108-.576.108-.738 0-1.422-1.062-2.124-2.538-2.124-1.224 0-2.358.774-3.132 1.53l.288-1.314h-.936L79.832 156h.936l1.44-6.552c.756-.774 1.872-1.512 3.006-1.512 1.062 0 1.89.45 1.89 1.53 0 .216-.072.468-.108.63L85.7 156h.936zm5.148.216a1.98 1.98 0 001.242-.414l-.18-.756c-.216.162-.576.324-.918.324-.576 0-.882-.306-.882-.828 0-.162.018-.288.036-.378l1.332-6.03h1.764l.198-.828h-1.764l.522-2.376h-.954l-.522 2.376h-1.44l-.18.828h1.44l-1.368 6.156c-.036.18-.054.396-.054.468 0 1.008.648 1.458 1.728 1.458zm5.48-10.278c.377 0 .81-.306.81-.792a.63.63 0 00-.649-.63c-.378 0-.81.306-.81.792 0 .342.288.63.648.63zM95.444 156l1.926-8.694h-.936L94.51 156h.936zm4.174 0l1.728-7.866h1.764l.198-.828h-1.782l.18-.792c.27-1.206.756-1.89 1.764-1.89.54 0 .9.162 1.17.45l.54-.594c-.486-.486-.99-.666-1.71-.666-1.512 0-2.34 1.08-2.718 2.7l-.162.792h-1.44l-.18.828h1.44L98.665 156h.954zm2.19 3.348c.27.108.666.18 1.026.18.99 0 1.746-.54 2.43-1.62l6.858-10.602h-1.098l-4.842 7.596-1.458-7.596h-1.008l1.692 8.748-1.026 1.566c-.522.774-.9.99-1.368.99-.342 0-.666-.072-.846-.162l-.36.9zm12.734-13.41c.378 0 .81-.306.81-.792a.63.63 0 00-.648-.63c-.378 0-.81.306-.81.792 0 .342.288.63.648.63zM112.725 156l1.926-8.694h-.936L111.789 156h.936zm9.717 0l1.332-6.048c.054-.198.108-.576.108-.738 0-1.422-1.062-2.124-2.538-2.124-1.224 0-2.358.774-3.132 1.53l.288-1.314h-.936L115.638 156h.936l1.44-6.552c.756-.774 1.872-1.512 3.006-1.512 1.062 0 1.89.45 1.89 1.53 0 .216-.072.468-.108.63L121.506 156h.936zm6.247 3.528c1.872 0 3.456-.954 4.032-3.618l1.926-8.604h-.954l-.342 1.476c-.63-.954-1.908-1.692-3.15-1.692-2.79 0-4.518 2.646-4.518 5.436 0 2.448 1.458 3.618 3.294 3.618 1.296 0 2.376-.63 3.078-1.53l-.27 1.296c-.468 2.07-1.71 2.808-3.114 2.808s-2.448-.396-3.06-1.332l-.666.666c.882 1.152 2.124 1.476 3.744 1.476zm.63-4.212c-1.602 0-2.646-1.098-2.646-2.916 0-2.16 1.368-4.464 3.564-4.464 1.242 0 2.448.63 2.97 1.602l-.954 4.212c-.666.828-1.818 1.566-2.934 1.566zm13.718-9.378c.378 0 .81-.306.81-.792a.63.63 0 00-.648-.63c-.378 0-.81.306-.81.792 0 .342.288.63.648.63zM141.219 156l1.926-8.694h-.936L140.283 156h.936zm5.145.216a1.98 1.98 0 001.242-.414l-.18-.756c-.216.162-.576.324-.918.324-.576 0-.882-.306-.882-.828 0-.162.018-.288.036-.378l1.332-6.03h1.764l.198-.828h-1.764l.522-2.376h-.954l-.522 2.376h-1.44l-.18.828h1.44l-1.368 6.156c-.036.18-.054.396-.054.468 0 1.008.648 1.458 1.728 1.458zm5.876 0c2.106 0 3.276-1.35 3.276-2.79 0-2.484-4.644-2.214-4.644-3.978 0-.882.828-1.566 2.142-1.566 1.152 0 2.25.558 2.628 1.242l.612-.612c-.486-.756-1.674-1.422-3.168-1.422-2.016 0-3.168 1.17-3.168 2.574 0 2.34 4.644 2.106 4.644 3.96 0 .936-.864 1.8-2.304 1.8-1.332 0-2.394-.666-2.844-1.386l-.666.648c.72 1.008 1.926 1.53 3.492 1.53zm12.919 0c2.106 0 3.276-1.35 3.276-2.79 0-2.484-4.644-2.214-4.644-3.978 0-.882.828-1.566 2.142-1.566 1.152 0 2.25.558 2.628 1.242l.612-.612c-.486-.756-1.674-1.422-3.168-1.422-2.016 0-3.168 1.17-3.168 2.574 0 2.34 4.644 2.106 4.644 3.96 0 .936-.864 1.8-2.304 1.8-1.332 0-2.394-.666-2.844-1.386l-.666.648c.72 1.008 1.926 1.53 3.492 1.53zm7.038-8.91l-1.332 6.048a3.656 3.656 0 00-.108.738c0 1.422 1.062 2.124 2.538 2.124 1.224 0 2.358-.774 3.132-1.53l-.288 1.314h.936l1.926-8.694h-.936l-1.458 6.534c-.738.774-1.854 1.53-2.952 1.53-1.098 0-1.926-.45-1.926-1.53 0-.216.072-.468.108-.648l1.296-5.886h-.936zm8.731 8.694l1.404-6.336c.558-.792 1.584-1.584 2.646-1.584.306 0 .522.036.63.054l.216-1.008c-1.548 0-2.394.54-3.294 1.584l.324-1.404h-.936L179.992 156h.936zm5.713 0l1.404-6.336c.558-.792 1.584-1.584 2.646-1.584.306 0 .522.036.63.054l.216-1.008c-1.548 0-2.394.54-3.294 1.584l.324-1.404h-.936L185.705 156h.936zm8.935.216c2.754 0 4.788-2.556 4.788-5.31 0-2.304-1.494-3.816-3.834-3.816-2.754 0-4.788 2.556-4.788 5.31 0 2.304 1.494 3.816 3.834 3.816zm.018-.846c-1.782 0-2.826-1.188-2.826-3.006 0-2.25 1.566-4.428 3.744-4.428 1.782 0 2.826 1.188 2.826 3.006 0 2.25-1.566 4.428-3.744 4.428zm8.033-8.064l-1.332 6.048a3.656 3.656 0 00-.108.738c0 1.422 1.062 2.124 2.538 2.124 1.224 0 2.358-.774 3.132-1.53l-.288 1.314h.936l1.926-8.694h-.936l-1.458 6.534c-.738.774-1.854 1.53-2.952 1.53-1.098 0-1.926-.45-1.926-1.53 0-.216.072-.468.108-.648l1.296-5.886h-.936zM218.226 156l1.332-6.048c.054-.198.108-.576.108-.738 0-1.422-1.062-2.124-2.538-2.124-1.224 0-2.358.774-3.132 1.53l.288-1.314h-.936L211.422 156h.936l1.44-6.552c.756-.774 1.872-1.512 3.006-1.512 1.062 0 1.89.45 1.89 1.53 0 .216-.072.468-.108.63L217.29 156h.936zm7.812-8.91c-2.754 0-4.572 2.628-4.572 5.562 0 2.25 1.404 3.564 3.402 3.564 1.242 0 2.268-.612 2.988-1.53L227.55 156h.954l2.664-12.006h-.954l-1.044 4.788c-.594-.99-1.71-1.692-3.132-1.692zm.072.846c1.404 0 2.448.72 2.88 1.584l-.918 4.176c-.594.9-1.728 1.674-2.952 1.674-1.584 0-2.628-1.098-2.628-2.88 0-2.304 1.44-4.554 3.618-4.554zm8.069-1.998c.378 0 .81-.306.81-.792a.63.63 0 00-.648-.63c-.378 0-.81.306-.81.792 0 .342.288.63.648.63zM232.361 156l1.926-8.694h-.936L231.425 156h.936zm9.718 0l1.332-6.048c.054-.198.108-.576.108-.738 0-1.422-1.062-2.124-2.538-2.124-1.224 0-2.358.774-3.132 1.53l.288-1.314h-.936L235.275 156h.936l1.44-6.552c.756-.774 1.872-1.512 3.006-1.512 1.062 0 1.89.45 1.89 1.53 0 .216-.072.468-.108.63L241.143 156h.936zm6.247 3.528c1.872 0 3.456-.954 4.032-3.618l1.926-8.604h-.954l-.342 1.476c-.63-.954-1.908-1.692-3.15-1.692-2.79 0-4.518 2.646-4.518 5.436 0 2.448 1.458 3.618 3.294 3.618 1.296 0 2.376-.63 3.078-1.53l-.27 1.296c-.468 2.07-1.71 2.808-3.114 2.808s-2.448-.396-3.06-1.332l-.666.666c.882 1.152 2.124 1.476 3.744 1.476zm.63-4.212c-1.602 0-2.646-1.098-2.646-2.916 0-2.16 1.368-4.464 3.564-4.464 1.242 0 2.448.63 2.97 1.602l-.954 4.212c-.666.828-1.818 1.566-2.934 1.566zm9.455.9c2.106 0 3.276-1.35 3.276-2.79 0-2.484-4.644-2.214-4.644-3.978 0-.882.828-1.566 2.142-1.566 1.152 0 2.25.558 2.628 1.242l.612-.612c-.486-.756-1.674-1.422-3.168-1.422-2.016 0-3.168 1.17-3.168 2.574 0 2.34 4.644 2.106 4.644 3.96 0 .936-.864 1.8-2.304 1.8-1.332 0-2.394-.666-2.844-1.386l-.666.648c.72 1.008 1.926 1.53 3.492 1.53zm18.122-.216l4.752-8.694h-1.044l-3.96 7.38-.81-7.38h-.792l-4.104 7.38-.666-7.38h-.954l.9 8.694h.9l4.086-7.434.792 7.434h.9zm7.34-10.062c.378 0 .81-.306.81-.792a.63.63 0 00-.648-.63c-.378 0-.81.306-.81.792 0 .342.288.63.648.63zM282.055 156l1.926-8.694h-.936L281.119 156h.936zm5.145.216a1.98 1.98 0 001.242-.414l-.18-.756c-.216.162-.576.324-.918.324-.576 0-.882-.306-.882-.828 0-.162.018-.288.036-.378l1.332-6.03h1.764l.198-.828h-1.764l.522-2.376h-.954l-.522 2.376h-1.44l-.18.828h1.44l-1.368 6.156c-.036.18-.054.396-.054.468 0 1.008.648 1.458 1.728 1.458zm9.529-.216l1.332-6.048c.054-.198.108-.594.108-.738 0-1.422-1.062-2.124-2.538-2.124-1.224 0-2.358.774-3.132 1.53l1.008-4.626h-.936L289.925 156h.936l1.44-6.534c.756-.774 1.872-1.53 2.952-1.53 1.116 0 1.944.45 1.944 1.53 0 .144-.072.468-.108.63L295.793 156h.936zm7.075.216c2.754 0 4.788-2.556 4.788-5.31 0-2.304-1.494-3.816-3.834-3.816-2.754 0-4.788 2.556-4.788 5.31 0 2.304 1.494 3.816 3.834 3.816zm.018-.846c-1.782 0-2.826-1.188-2.826-3.006 0-2.25 1.566-4.428 3.744-4.428 1.782 0 2.826 1.188 2.826 3.006 0 2.25-1.566 4.428-3.744 4.428zm8.033-8.064l-1.332 6.048a3.656 3.656 0 00-.108.738c0 1.422 1.062 2.124 2.538 2.124 1.224 0 2.358-.774 3.132-1.53l-.288 1.314h.936l1.926-8.694h-.936l-1.458 6.534c-.738.774-1.854 1.53-2.952 1.53-1.098 0-1.926-.45-1.926-1.53 0-.216.072-.468.108-.648l1.296-5.886h-.936zm10.027 8.91a1.98 1.98 0 001.242-.414l-.18-.756c-.216.162-.576.324-.918.324-.576 0-.882-.306-.882-.828 0-.162.018-.288.036-.378l1.332-6.03h1.764l.198-.828h-1.764l.522-2.376h-.954l-.522 2.376h-1.44l-.18.828h1.44l-1.368 6.156c-.036.18-.054.396-.054.468 0 1.008.648 1.458 1.728 1.458zm12.279-9.126c-2.754 0-4.572 2.628-4.572 5.562 0 2.25 1.404 3.564 3.402 3.564 1.242 0 2.268-.612 2.988-1.53l-.306 1.314h.954l1.926-8.694h-.954l-.306 1.476c-.594-.99-1.71-1.692-3.132-1.692zm.072.846c1.404 0 2.448.72 2.88 1.584l-.918 4.176c-.594.9-1.728 1.674-2.952 1.674-1.584 0-2.628-1.098-2.628-2.88 0-2.304 1.44-4.554 3.618-4.554zm12.12 8.064l1.332-6.048c.054-.198.108-.576.108-.738 0-1.422-1.062-2.124-2.538-2.124-1.224 0-2.358.774-3.132 1.53l.288-1.314h-.936L339.549 156h.936l1.44-6.552c.756-.774 1.872-1.512 3.006-1.512 1.062 0 1.89.45 1.89 1.53 0 .216-.072.468-.108.63L345.417 156h.936zm1.602 3.348c.27.108.666.18 1.026.18.99 0 1.746-.54 2.43-1.62l6.858-10.602h-1.098l-4.842 7.596-1.458-7.596h-1.008l1.692 8.748-1.026 1.566c-.522.774-.9.99-1.368.99-.342 0-.666-.072-.846-.162l-.36.9zM369.397 156l1.332-6.048c.054-.198.108-.594.108-.738 0-1.422-1.062-2.124-2.538-2.124-1.224 0-2.358.774-3.132 1.53l1.008-4.626h-.936L362.593 156h.936l1.44-6.534c.756-.774 1.872-1.53 2.952-1.53 1.116 0 1.944.45 1.944 1.53 0 .144-.072.468-.108.63L368.461 156h.936zm4.843-8.694l-1.332 6.048a3.656 3.656 0 00-.108.738c0 1.422 1.062 2.124 2.538 2.124 1.224 0 2.358-.774 3.132-1.53l-.288 1.314h.936l1.926-8.694h-.936l-1.458 6.534c-.738.774-1.854 1.53-2.952 1.53-1.098 0-1.926-.45-1.926-1.53 0-.216.072-.468.108-.648l1.296-5.886h-.936zM393.321 156l1.332-6.048c.054-.252.108-.558.108-.738 0-1.386-1.026-2.124-2.196-2.124-1.242 0-2.322.846-3.006 1.71v-.036c0-.63-.72-1.674-2.178-1.674-1.26 0-2.286.972-2.772 1.53l.288-1.314h-.936L382.035 156h.936l1.44-6.552c.702-.792 1.692-1.512 2.592-1.512 1.044 0 1.602.612 1.62 1.386 0 .27-.036.36-.072.63l-1.35 6.048h.954l1.44-6.552c.666-.792 1.692-1.512 2.61-1.512.846 0 1.584.54 1.584 1.494 0 .216-.054.45-.072.522L392.385 156h.936zm7.813-8.91c-2.754 0-4.572 2.628-4.572 5.562 0 2.25 1.404 3.564 3.402 3.564 1.242 0 2.268-.612 2.988-1.53l-.306 1.314h.954l1.926-8.694h-.954l-.306 1.476c-.594-.99-1.71-1.692-3.132-1.692zm.072.846c1.404 0 2.448.72 2.88 1.584l-.918 4.176c-.594.9-1.728 1.674-2.952 1.674-1.584 0-2.628-1.098-2.628-2.88 0-2.304 1.44-4.554 3.618-4.554zM413.325 156l1.332-6.048c.054-.198.108-.576.108-.738 0-1.422-1.062-2.124-2.538-2.124-1.224 0-2.358.774-3.132 1.53l.288-1.314h-.936L406.521 156h.936l1.44-6.552c.756-.774 1.872-1.512 3.006-1.512 1.062 0 1.89.45 1.89 1.53 0 .216-.072.468-.108.63L412.389 156h.936zm9.807.216a1.98 1.98 0 001.242-.414l-.18-.756c-.216.162-.576.324-.918.324-.576 0-.882-.306-.882-.828 0-.162.018-.288.036-.378l1.332-6.03h1.764l.198-.828h-1.764l.522-2.376h-.954l-.522 2.376h-1.44l-.18.828h1.44l-1.368 6.156c-.036.18-.054.396-.054.468 0 1.008.648 1.458 1.728 1.458zm3.661-.216l1.404-6.336c.558-.792 1.584-1.584 2.646-1.584.306 0 .522.036.63.054l.216-1.008c-1.548 0-2.394.54-3.294 1.584l.324-1.404h-.936L425.857 156h.936zm9.673-8.91c-2.754 0-4.572 2.628-4.572 5.562 0 2.25 1.404 3.564 3.402 3.564 1.242 0 2.268-.612 2.988-1.53l-.306 1.314h.954l1.926-8.694h-.954l-.306 1.476c-.594-.99-1.71-1.692-3.132-1.692zm.072.846c1.404 0 2.448.72 2.88 1.584l-.918 4.176c-.594.9-1.728 1.674-2.952 1.674-1.584 0-2.628-1.098-2.628-2.88 0-2.304 1.44-4.554 3.618-4.554zm8.069-1.998c.378 0 .81-.306.81-.792a.63.63 0 00-.648-.63c-.378 0-.81.306-.81.792 0 .342.288.63.648.63zM442.789 156l1.926-8.694h-.936L441.853 156h.936zm9.718 0l1.332-6.048c.054-.198.108-.576.108-.738 0-1.422-1.062-2.124-2.538-2.124-1.224 0-2.358.774-3.132 1.53l.288-1.314h-.936L445.703 156h.936l1.44-6.552c.756-.774 1.872-1.512 3.006-1.512 1.062 0 1.89.45 1.89 1.53 0 .216-.072.468-.108.63L451.571 156h.936zm5.671-10.062c.378 0 .81-.306.81-.792a.63.63 0 00-.648-.63c-.378 0-.81.306-.81.792 0 .342.288.63.648.63zM456.36 156l1.926-8.694h-.936L455.424 156h.936zm9.717 0l1.332-6.048c.054-.198.108-.576.108-.738 0-1.422-1.062-2.124-2.538-2.124-1.224 0-2.358.774-3.132 1.53l.288-1.314h-.936L459.273 156h.936l1.44-6.552c.756-.774 1.872-1.512 3.006-1.512 1.062 0 1.89.45 1.89 1.53 0 .216-.072.468-.108.63L465.141 156h.936zm6.247 3.528c1.872 0 3.456-.954 4.032-3.618l1.926-8.604h-.954l-.342 1.476c-.63-.954-1.908-1.692-3.15-1.692-2.79 0-4.518 2.646-4.518 5.436 0 2.448 1.458 3.618 3.294 3.618 1.296 0 2.376-.63 3.078-1.53l-.27 1.296c-.468 2.07-1.71 2.808-3.114 2.808s-2.448-.396-3.06-1.332l-.666.666c.882 1.152 2.124 1.476 3.744 1.476zm.63-4.212c-1.602 0-2.646-1.098-2.646-2.916 0-2.16 1.368-4.464 3.564-4.464 1.242 0 2.448.63 2.97 1.602l-.954 4.212c-.666.828-1.818 1.566-2.934 1.566zm15.122.9c2.754 0 4.788-2.556 4.788-5.31 0-2.304-1.494-3.816-3.834-3.816-2.754 0-4.788 2.556-4.788 5.31 0 2.304 1.494 3.816 3.834 3.816zm.018-.846c-1.782 0-2.826-1.188-2.826-3.006 0-2.25 1.566-4.428 3.744-4.428 1.782 0 2.826 1.188 2.826 3.006 0 2.25-1.566 4.428-3.744 4.428zm7.043.63l1.404-6.336c.558-.792 1.584-1.584 2.646-1.584.306 0 .522.036.63.054l.216-1.008c-1.548 0-2.394.54-3.294 1.584l.324-1.404h-.936L494.201 156h.936zm13.647.216c1.314 0 2.232-.522 2.988-1.314l-.54-.648a3.056 3.056 0 01-2.358 1.116c-1.692 0-2.97-1.008-2.97-2.988 0-2.286 1.476-4.446 3.87-4.446.954 0 1.854.396 2.358 1.278l.72-.54c-.594-1.008-1.62-1.584-3.114-1.584-2.718 0-4.824 2.412-4.824 5.274 0 2.466 1.638 3.852 3.87 3.852zm8.84 0c2.754 0 4.788-2.556 4.788-5.31 0-2.304-1.494-3.816-3.834-3.816-2.754 0-4.788 2.556-4.788 5.31 0 2.304 1.494 3.816 3.834 3.816zm.018-.846c-1.782 0-2.826-1.188-2.826-3.006 0-2.25 1.566-4.428 3.744-4.428 1.782 0 2.826 1.188 2.826 3.006 0 2.25-1.566 4.428-3.744 4.428zm12.912.63l1.332-6.048c.054-.198.108-.576.108-.738 0-1.422-1.062-2.124-2.538-2.124-1.224 0-2.358.774-3.132 1.53l.288-1.314h-.936L523.75 156h.936l1.44-6.552c.756-.774 1.872-1.512 3.006-1.512 1.062 0 1.89.45 1.89 1.53 0 .216-.072.468-.108.63L529.618 156h.936zm5.148.216a1.98 1.98 0 001.242-.414l-.18-.756c-.216.162-.576.324-.918.324-.576 0-.882-.306-.882-.828 0-.162.018-.288.036-.378l1.332-6.03h1.764l.198-.828h-1.764l.522-2.376h-.954l-.522 2.376h-1.44l-.18.828h1.44l-1.368 6.156c-.036.18-.054.396-.054.468 0 1.008.648 1.458 1.728 1.458zm3.661-.216l1.404-6.336c.558-.792 1.584-1.584 2.646-1.584.306 0 .522.036.63.054l.216-1.008c-1.548 0-2.394.54-3.294 1.584l.324-1.404h-.936L538.427 156h.936zm8.935.216c2.754 0 4.788-2.556 4.788-5.31 0-2.304-1.494-3.816-3.834-3.816-2.754 0-4.788 2.556-4.788 5.31 0 2.304 1.494 3.816 3.834 3.816zm.018-.846c-1.782 0-2.826-1.188-2.826-3.006 0-2.25 1.566-4.428 3.744-4.428 1.782 0 2.826 1.188 2.826 3.006 0 2.25-1.566 4.428-3.744 4.428zm7.044.63l2.646-12.006h-.936L554.424 156h.936zm3.489.18a.86.86 0 00.864-.846.726.726 0 00-.72-.738.85.85 0 00-.864.846c0 .414.306.738.72.738zm5.913-11.502c0-.558-.342-.864-.774-.864a.86.86 0 00-.846.864c0 .36.288.648.612.648h.126c-.162.558-.738 1.17-1.404 1.512l.432.468c.954-.504 1.854-1.602 1.854-2.628zm2.52 0c0-.558-.324-.864-.756-.864a.86.86 0 00-.846.864c0 .36.27.648.612.648h.126c-.162.558-.738 1.17-1.404 1.512l.432.468c.954-.504 1.836-1.602 1.836-2.628zM314.52 195l-2.288-4.608c2.368 0 3.84-1.472 3.84-3.472 0-1.664-1.424-2.592-2.784-2.592h-3.392L307.544 195h.512l1.008-4.608h2.624l2.24 4.608h.592zm-2.224-5.088h-3.12l1.136-5.104h2.976c1.104 0 2.208.864 2.208 2.112 0 1.584-1.088 2.992-3.152 2.992h-.048zm7.581 5.28c2.384 0 4.176-2.288 4.176-4.752 0-2.064-1.312-3.36-3.28-3.36-2.384 0-4.176 2.288-4.176 4.752 0 2.064 1.312 3.36 3.28 3.36zm0-.432c-1.728 0-2.736-1.168-2.736-2.928 0-2.192 1.536-4.32 3.632-4.32 1.728 0 2.736 1.168 2.736 2.928 0 2.192-1.536 4.32-3.632 4.32zm8.181.432c1.792 0 2.784-1.184 2.784-2.416 0-2.16-4.192-1.92-4.192-3.664 0-.896.848-1.6 2.144-1.6 1.04 0 2.032.496 2.352 1.136l.4-.304c-.352-.64-1.36-1.264-2.688-1.264-1.712 0-2.704.976-2.704 2.192 0 2 4.192 1.808 4.192 3.648 0 .944-.88 1.84-2.336 1.84-1.2 0-2.08-.576-2.464-1.232l-.432.32c.576.88 1.552 1.344 2.944 1.344zm8.514 0c1.024 0 2.016-.448 2.688-.992l-.24-.352a3.88 3.88 0 01-2.448.912c-2.016 0-3.04-1.296-3.04-2.96 0-.16.016-.416.032-.512h6.768c.048-.192.112-.592.112-.896 0-1.808-1.12-3.312-3.216-3.312-2.336 0-4.24 2.128-4.24 4.72 0 1.968 1.296 3.392 3.584 3.392zm-2.96-4.336c.304-1.808 1.84-3.344 3.536-3.344 1.792 0 2.816 1.2 2.816 2.928 0 .112-.016.32-.032.416h-6.32zM347.521 195l1.184-5.392c.048-.192.096-.512.096-.672 0-1.28-.944-1.856-2.208-1.856-1.072 0-2.128.704-2.848 1.408l.272-1.216h-.48L341.825 195h.48l1.328-6c.72-.768 1.808-1.488 2.864-1.488 1.056 0 1.84.432 1.84 1.472 0 .208-.064.448-.096.608l-1.2 5.408h.48zm6.421.192c2.384 0 4.048-2.272 4.048-4.944 0-1.984-1.264-3.168-3.04-3.168-1.152 0-2.128.592-2.752 1.424l.912-4.176h-.48L350.278 195h.48l.304-1.392c.528.912 1.536 1.584 2.88 1.584zm0-.432c-1.376 0-2.384-.72-2.784-1.568l.88-4.016c.576-.88 1.68-1.664 2.88-1.664 1.536 0 2.528 1.072 2.528 2.8 0 2.224-1.376 4.448-3.504 4.448zm5.878.24l2.352-10.672h-.48L359.34 195h.48zm7.107-7.92c-2.384 0-4.048 2.272-4.048 4.944 0 1.984 1.264 3.168 3.04 3.168 1.152 0 2.128-.592 2.752-1.424l-.272 1.232h.48l1.712-7.728h-.48l-.304 1.392c-.528-.912-1.536-1.584-2.88-1.584zm0 .432c1.376 0 2.384.72 2.784 1.568l-.88 4.016c-.576.88-1.68 1.664-2.88 1.664-1.537 0-2.528-1.072-2.528-2.8 0-2.224 1.376-4.448 3.504-4.448zm6.358 7.68c.432 0 .768-.16 1.056-.384l-.192-.384a1.445 1.445 0 01-.88.336c-.528 0-.8-.272-.8-.768 0-.144.016-.256.032-.352l1.328-5.936h1.568l.096-.432h-1.568l.464-2.112h-.48l-.464 2.112h-1.28l-.096.432h1.28l-1.328 5.936c-.032.144-.048.32-.048.384 0 .8.48 1.168 1.312 1.168zm4.094 0c.432 0 .768-.16 1.056-.384l-.192-.384a1.445 1.445 0 01-.88.336c-.528 0-.8-.272-.8-.768 0-.144.016-.256.032-.352l1.328-5.936h1.568l.096-.432h-1.568l.464-2.112h-.48l-.464 2.112h-1.28l-.096.432h1.28l-1.328 5.936c-.032.144-.048.32-.048.384 0 .8.48 1.168 1.312 1.168zm3.358-.48c0-.4-.208-.608-.512-.608a.57.57 0 00-.56.576c0 .224.192.448.416.448h.096c-.112.48-.56 1.024-1.153 1.344l.288.32c.705-.384 1.425-1.264 1.425-2.08zm7.052.288l1.28-5.792c.512-.768 1.488-1.552 2.496-1.552.24 0 .416.016.496.032l.128-.56c-1.424 0-2.16.48-2.992 1.456l.304-1.312h-.48L387.309 195h.48zm8.267.192c1.024 0 2.016-.448 2.688-.992l-.24-.352a3.88 3.88 0 01-2.448.912c-2.016 0-3.04-1.296-3.04-2.96 0-.16.016-.416.032-.512h6.768c.048-.192.112-.592.112-.896 0-1.808-1.12-3.312-3.216-3.312-2.336 0-4.24 2.128-4.24 4.72 0 1.968 1.296 3.392 3.584 3.392zm-2.96-4.336c.304-1.808 1.84-3.344 3.536-3.344 1.792 0 2.816 1.2 2.816 2.928 0 .112-.016.32-.032.416h-6.32zm10.853 4.336c1.792 0 2.784-1.184 2.784-2.416 0-2.16-4.192-1.92-4.192-3.664 0-.896.848-1.6 2.144-1.6 1.04 0 2.032.496 2.352 1.136l.4-.304c-.352-.64-1.36-1.264-2.688-1.264-1.712 0-2.704.976-2.704 2.192 0 2 4.192 1.808 4.192 3.648 0 .944-.88 1.84-2.336 1.84-1.2 0-2.08-.576-2.464-1.232l-.432.32c.576.88 1.552 1.344 2.944 1.344zm8.514 0c1.024 0 2.016-.448 2.688-.992l-.24-.352a3.88 3.88 0 01-2.448.912c-2.016 0-3.04-1.296-3.04-2.96 0-.16.016-.416.032-.512h6.768c.048-.192.112-.592.112-.896 0-1.808-1.12-3.312-3.216-3.312-2.336 0-4.24 2.128-4.24 4.72 0 1.968 1.295 3.392 3.584 3.392zm-2.96-4.336c.304-1.808 1.84-3.344 3.536-3.344 1.792 0 2.816 1.2 2.816 2.928 0 .112-.016.32-.032.416h-6.32zm12.564-3.776c-2.384 0-4.048 2.272-4.048 4.944 0 1.984 1.264 3.168 3.04 3.168 1.152 0 2.128-.592 2.752-1.424l-.272 1.232h.48l1.712-7.728h-.48l-.304 1.392c-.528-.912-1.536-1.584-2.88-1.584zm0 .432c1.376 0 2.384.72 2.784 1.568l-.88 4.016c-.576.88-1.68 1.664-2.88 1.664-1.536 0-2.528-1.072-2.528-2.8 0-2.224 1.376-4.448 3.504-4.448zm5.191 7.488l1.28-5.792c.512-.768 1.488-1.552 2.496-1.552.24 0 .416.016.496.032l.128-.56c-1.424 0-2.16.48-2.992 1.456l.304-1.312h-.48L426.778 195h.48zm8.027.192c1.104 0 1.872-.432 2.576-1.152l-.304-.336a2.917 2.917 0 01-2.24 1.056c-1.616 0-2.848-.976-2.848-2.912 0-2.208 1.408-4.336 3.744-4.336.896 0 1.76.368 2.24 1.216l.384-.272c-.528-.896-1.408-1.376-2.672-1.376-2.368 0-4.224 2.176-4.224 4.72 0 2.208 1.456 3.392 3.344 3.392zm9.939-.192l1.184-5.392c.048-.176.096-.544.096-.672 0-1.28-.944-1.856-2.208-1.856-1.072 0-2.128.704-2.848 1.408l.912-4.16h-.48L439.528 195h.48l1.328-5.984c.72-.768 1.808-1.504 2.864-1.504 1.056 0 1.84.432 1.84 1.472 0 .144-.064.448-.096.592l-1.2 5.424h.48zm10.577.192c2.384 0 4.048-2.272 4.048-4.944 0-1.984-1.264-3.168-3.04-3.168-1.152 0-2.128.592-2.752 1.424l.272-1.232h-.48l-2.368 10.672h.48l.96-4.336c.528.912 1.536 1.584 2.88 1.584zm0-.432c-1.376 0-2.384-.72-2.784-1.568l.88-4.016c.576-.88 1.68-1.664 2.88-1.664 1.536 0 2.528 1.072 2.528 2.8 0 2.224-1.376 4.448-3.504 4.448zm7.96.432c1.792 0 2.784-1.184 2.784-2.416 0-2.16-4.192-1.92-4.192-3.664 0-.896.848-1.6 2.144-1.6 1.04 0 2.032.496 2.352 1.136l.4-.304c-.352-.64-1.36-1.264-2.688-1.264-1.712 0-2.704.976-2.704 2.192 0 2 4.192 1.808 4.192 3.648 0 .944-.88 1.84-2.336 1.84-1.2 0-2.08-.576-2.464-1.232l-.432.32c.576.88 1.552 1.344 2.944 1.344zm3.394 2.784c.208.096.512.16.784.16.768 0 1.376-.48 1.92-1.312l6.224-9.552h-.592l-4.624 7.168-1.44-7.168h-.528l1.552 7.776-1.056 1.6c-.512.768-.864.976-1.296.976-.304 0-.576-.064-.736-.144l-.208.496zm12.411-2.784c1.104 0 1.872-.432 2.576-1.152l-.304-.336a2.917 2.917 0 01-2.24 1.056c-1.616 0-2.848-.976-2.848-2.912 0-2.208 1.408-4.336 3.744-4.336.896 0 1.76.368 2.24 1.216l.384-.272c-.528-.896-1.408-1.376-2.672-1.376-2.368 0-4.224 2.176-4.224 4.72 0 2.208 1.456 3.392 3.344 3.392zm9.939-.192l1.184-5.392c.048-.176.096-.544.096-.672 0-1.28-.944-1.856-2.208-1.856-1.072 0-2.128.704-2.848 1.408l.912-4.16h-.48L483.809 195h.48l1.328-5.984c.72-.768 1.808-1.504 2.864-1.504 1.056 0 1.84.432 1.84 1.472 0 .144-.064.448-.096.592l-1.2 5.424h.48zm6.341.192c2.384 0 4.176-2.288 4.176-4.752 0-2.064-1.312-3.36-3.28-3.36-2.384 0-4.176 2.288-4.176 4.752 0 2.064 1.312 3.36 3.28 3.36zm0-.432c-1.728 0-2.736-1.168-2.736-2.928 0-2.192 1.536-4.32 3.632-4.32 1.728 0 2.736 1.168 2.736 2.928 0 2.192-1.536 4.32-3.632 4.32zm6.021.24l2.352-10.672h-.48L501.387 195h.48zm6.338.192c2.384 0 4.176-2.288 4.176-4.752 0-2.064-1.312-3.36-3.28-3.36-2.384 0-4.176 2.288-4.176 4.752 0 2.064 1.312 3.36 3.28 3.36zm0-.432c-1.728 0-2.736-1.168-2.736-2.928 0-2.192 1.536-4.32 3.632-4.32 1.728 0 2.736 1.168 2.736 2.928 0 2.192-1.536 4.32-3.632 4.32zm8.421 3.376c1.664 0 2.912-.88 3.408-3.088l1.728-7.776h-.48l-.32 1.392c-.576-.88-1.744-1.584-2.896-1.584-2.464 0-4.032 2.352-4.032 4.864 0 2.16 1.28 3.248 2.944 3.248 1.216 0 2.208-.592 2.848-1.424l-.272 1.28c-.432 1.92-1.6 2.656-2.928 2.656-1.328 0-2.24-.368-2.8-1.232l-.416.368c.752 1.024 1.808 1.296 3.216 1.296zm.448-3.376c-1.536 0-2.512-1.056-2.512-2.832 0-2.096 1.296-4.416 3.456-4.416 1.2 0 2.368.624 2.864 1.568l-.928 4.144c-.656.816-1.792 1.536-2.88 1.536zm8.023-8.816c.24 0 .528-.208.528-.512a.427.427 0 00-.432-.416c-.24 0-.528.208-.528.512 0 .224.192.416.432.416zM523.289 195l1.712-7.728h-.48L522.809 195h.48zm5.394.192c1.792 0 2.784-1.184 2.784-2.416 0-2.16-4.192-1.92-4.192-3.664 0-.896.848-1.6 2.144-1.6 1.04 0 2.032.496 2.352 1.136l.4-.304c-.352-.64-1.36-1.264-2.688-1.264-1.712 0-2.704.976-2.704 2.192 0 2 4.192 1.808 4.192 3.648 0 .944-.88 1.84-2.336 1.84-1.2 0-2.08-.576-2.464-1.232l-.432.32c.576.88 1.552 1.344 2.944 1.344zm6.274 0c.432 0 .768-.16 1.056-.384l-.192-.384a1.445 1.445 0 01-.88.336c-.528 0-.8-.272-.8-.768 0-.144.016-.256.032-.352l1.328-5.936h1.568l.096-.432h-1.568l.464-2.112h-.48l-.464 2.112h-1.28l-.096.432h1.28l-1.328 5.936c-.032.144-.048.32-.048.384 0 .8.48 1.168 1.312 1.168zm10.954-8.112c-2.384 0-4.048 2.272-4.048 4.944 0 1.984 1.264 3.168 3.04 3.168 1.152 0 2.128-.592 2.752-1.424l-.272 1.232h.48l1.712-7.728h-.48l-.304 1.392c-.528-.912-1.536-1.584-2.88-1.584zm0 .432c1.376 0 2.384.72 2.784 1.568l-.88 4.016c-.576.88-1.68 1.664-2.88 1.664-1.536 0-2.528-1.072-2.528-2.8 0-2.224 1.376-4.448 3.504-4.448zM556.317 195l1.184-5.392c.048-.192.096-.512.096-.672 0-1.28-.944-1.856-2.208-1.856-1.072 0-2.128.704-2.848 1.408l.272-1.216h-.48L550.621 195h.48l1.328-6c.72-.768 1.808-1.488 2.864-1.488 1.056 0 1.84.432 1.84 1.472 0 .208-.064.448-.096.608l-1.2 5.408h.48zm7.11-7.92c-2.384 0-4.048 2.272-4.048 4.944 0 1.984 1.264 3.168 3.04 3.168 1.152 0 2.128-.592 2.752-1.424l-.272 1.232h.48l2.368-10.672h-.48l-.96 4.336c-.528-.912-1.536-1.584-2.88-1.584zm0 .432c1.376 0 2.384.72 2.784 1.568l-.88 4.016c-.576.88-1.68 1.664-2.88 1.664-1.537 0-2.528-1.072-2.528-2.8 0-2.224 1.376-4.448 3.504-4.448zm12.53 7.68c2.384 0 4.048-2.272 4.048-4.944 0-1.984-1.264-3.168-3.04-3.168-1.152 0-2.128.592-2.752 1.424l.272-1.232h-.48l-2.368 10.672h.48l.96-4.336c.528.912 1.536 1.584 2.88 1.584zm0-.432c-1.376 0-2.384-.72-2.784-1.568l.88-4.016c.576-.88 1.68-1.664 2.88-1.664 1.536 0 2.528 1.072 2.528 2.8 0 2.224-1.376 4.448-3.504 4.448zm5.801.24l1.28-5.792c.512-.768 1.488-1.552 2.496-1.552.24 0 .416.016.496.032l.128-.56c-1.424 0-2.16.48-2.992 1.456l.304-1.312h-.48L581.278 195h.48zm7.963.192c2.384 0 4.176-2.288 4.176-4.752 0-2.064-1.312-3.36-3.28-3.36-2.384 0-4.176 2.288-4.176 4.752 0 2.064 1.312 3.36 3.28 3.36zm0-.432c-1.728 0-2.736-1.168-2.736-2.928 0-2.192 1.536-4.32 3.632-4.32 1.728 0 2.736 1.168 2.736 2.928 0 2.192-1.536 4.32-3.632 4.32zm3.749 3.376c1.072 0 1.696-.592 2-1.92l1.984-8.944h-.48l-1.984 8.944c-.24 1.056-.784 1.488-1.568 1.488-.496 0-.96-.272-1.2-.608l-.336.352c.336.464.944.688 1.584.688zm4.08-12.192c.24 0 .528-.208.528-.512a.427.427 0 00-.432-.416c-.24 0-.528.208-.528.512 0 .224.192.416.432.416zm4.834 9.248c1.024 0 2.016-.448 2.688-.992l-.24-.352a3.88 3.88 0 01-2.448.912c-2.016 0-3.04-1.296-3.04-2.96 0-.16.016-.416.032-.512h6.768c.048-.192.112-.592.112-.896 0-1.808-1.12-3.312-3.216-3.312-2.336 0-4.24 2.128-4.24 4.72 0 1.968 1.296 3.392 3.584 3.392zm-2.96-4.336c.304-1.808 1.84-3.344 3.536-3.344 1.792 0 2.816 1.2 2.816 2.928 0 .112-.016.32-.032.416h-6.32zm11.861 4.336c1.104 0 1.872-.432 2.576-1.152l-.304-.336a2.917 2.917 0 01-2.24 1.056c-1.616 0-2.848-.976-2.848-2.912 0-2.208 1.408-4.336 3.744-4.336.896 0 1.76.368 2.24 1.216l.384-.272c-.528-.896-1.408-1.376-2.672-1.376-2.368 0-4.224 2.176-4.224 4.72 0 2.208 1.456 3.392 3.344 3.392zm5.891 0c.432 0 .768-.16 1.056-.384l-.192-.384a1.445 1.445 0 01-.88.336c-.528 0-.8-.272-.8-.768 0-.144.016-.256.032-.352l1.328-5.936h1.568l.096-.432h-1.568l.464-2.112h-.48l-.464 2.112h-1.28l-.096.432h1.28l-1.328 5.936c-.032.144-.048.32-.048.384 0 .8.48 1.168 1.312 1.168zm10.49 0c1.024 0 2.016-.448 2.688-.992l-.24-.352a3.88 3.88 0 01-2.448.912c-2.016 0-3.04-1.296-3.04-2.96 0-.16.016-.416.032-.512h6.768c.048-.192.112-.592.112-.896 0-1.808-1.12-3.312-3.216-3.312-2.336 0-4.24 2.128-4.24 4.72 0 1.968 1.296 3.392 3.584 3.392zm-2.96-4.336c.304-1.808 1.84-3.344 3.536-3.344 1.792 0 2.816 1.2 2.816 2.928 0 .112-.016.32-.032.416h-6.32zM638.614 195l1.184-5.392c.048-.192.096-.512.096-.672 0-1.28-.944-1.856-2.208-1.856-1.072 0-2.128.704-2.848 1.408l.272-1.216h-.48L632.918 195h.48l1.328-6c.72-.768 1.808-1.488 2.864-1.488 1.056 0 1.84.432 1.84 1.472 0 .208-.064.448-.096.608l-1.2 5.408h.48zm5.637 3.136c1.664 0 2.912-.88 3.408-3.088l1.728-7.776h-.48l-.32 1.392c-.576-.88-1.744-1.584-2.896-1.584-2.464 0-4.032 2.352-4.032 4.864 0 2.16 1.28 3.248 2.944 3.248 1.216 0 2.208-.592 2.848-1.424l-.272 1.28c-.432 1.92-1.6 2.656-2.928 2.656-1.328 0-2.24-.368-2.8-1.232l-.416.368c.752 1.024 1.808 1.296 3.216 1.296zm.448-3.376c-1.536 0-2.512-1.056-2.512-2.832 0-2.096 1.296-4.416 3.456-4.416 1.2 0 2.368.624 2.864 1.568l-.928 4.144c-.656.816-1.792 1.536-2.88 1.536zm8.023-8.816c.24 0 .528-.208.528-.512a.427.427 0 00-.432-.416c-.24 0-.528.208-.528.512 0 .224.192.416.432.416zM650.914 195l1.712-7.728h-.48L650.434 195h.48zm8.45 0l1.184-5.392c.048-.192.096-.512.096-.672 0-1.28-.944-1.856-2.208-1.856-1.072 0-2.128.704-2.848 1.408l.272-1.216h-.48L653.668 195h.48l1.328-6c.72-.768 1.808-1.488 2.864-1.488 1.056 0 1.84.432 1.84 1.472 0 .208-.064.448-.096.608l-1.2 5.408h.48zm6.645.192c1.024 0 2.016-.448 2.688-.992l-.24-.352a3.88 3.88 0 01-2.448.912c-2.016 0-3.04-1.296-3.04-2.96 0-.16.016-.416.032-.512h6.768c.048-.192.112-.592.112-.896 0-1.808-1.12-3.312-3.216-3.312-2.336 0-4.24 2.128-4.24 4.72 0 1.968 1.296 3.392 3.584 3.392zm-2.96-4.336c.304-1.808 1.84-3.344 3.536-3.344 1.792 0 2.816 1.2 2.816 2.928 0 .112-.016.32-.032.416h-6.32zm12.101 4.336c1.024 0 2.016-.448 2.688-.992l-.24-.352a3.88 3.88 0 01-2.448.912c-2.016 0-3.04-1.296-3.04-2.96 0-.16.016-.416.032-.512h6.768c.048-.192.112-.592.112-.896 0-1.808-1.12-3.312-3.216-3.312-2.336 0-4.24 2.128-4.24 4.72 0 1.968 1.296 3.392 3.584 3.392zm-2.96-4.336c.304-1.808 1.84-3.344 3.536-3.344 1.792 0 2.816 1.2 2.816 2.928 0 .112-.016.32-.032.416h-6.32zm8.693 4.144l1.28-5.792c.512-.768 1.488-1.552 2.496-1.552.24 0 .416.016.496.032l.128-.56c-1.424 0-2.16.48-2.992 1.456l.304-1.312h-.48L680.403 195h.48z" fill="#000"/><defs><filter id="filter0_ddd" x="23" y="4" width="694" height="225" filterUnits="userSpaceOnUse" color-interpolation-filters="sRGB"><feFlood flood-opacity="0" result="BackgroundImageFix"/><feColorMatrix in="SourceAlpha" values="0 0 0 0 0 0 0 0 0 0 0 0 0 0 0 0 0 0 127 0"/><feOffset dy="1"/><feGaussianBlur stdDeviation="5"/><feColorMatrix values="0 0 0 0 0.317647 0 0 0 0 0.662745 0 0 0 0 0.882353 0 0 0 0.2 0"/><feBlend in2="BackgroundImageFix" result="effect1_dropShadow"/><feColorMatrix in="SourceAlpha" values="0 0 0 0 0 0 0 0 0 0 0 0 0 0 0 0 0 0 127 0"/><feOffset dy="4"/><feGaussianBlur stdDeviation="2.5"/><feColorMatrix values="0 0 0 0 0.317647 0 0 0 0 0.662745 0 0 0 0 0.882353 0 0 0 0.12 0"/><feBlend in2="effect1_dropShadow" result="effect2_dropShadow"/><feColorMatrix in="SourceAlpha" values="0 0 0 0 0 0 0 0 0 0 0 0 0 0 0 0 0 0 127 0"/><feOffset dy="2"/><feGaussianBlur stdDeviation="2"/><feColorMatrix values="0 0 0 0 0.317647 0 0 0 0 0.662745 0 0 0 0 0.882353 0 0 0 0.14 0"/><feBlend in2="effect2_dropShadow" result="effect3_dropShadow"/><feBlend in="SourceGraphic" in2="effect3_dropShadow" result="shape"/></filter></defs></svg>