<svg width="638" height="430" fill="none" xmlns="http://www.w3.org/2000/svg"><path fill="#fff" d="M0 0h638v430H0z"/><path d="M26.15 49v-9.338h-.728l-2.058 2.17.49.518 1.498-1.596V49h.798zm2.683.14c.336 0 .63-.294.63-.63 0-.322-.294-.602-.63-.602a.619.619 0 00-.616.602c0 .336.28.63.616.63zm10.507.028c2.73 0 4.536-2.1 4.536-4.83s-1.806-4.83-4.536-4.83c-2.744 0-4.536 2.1-4.536 4.83s1.792 4.83 4.536 4.83zm0-.728c-2.268 0-3.696-1.75-3.696-4.102 0-2.38 1.428-4.102 3.696-4.102 2.24 0 3.696 1.722 3.696 4.102 0 2.352-1.456 4.102-3.696 4.102zm11.812.56l-2.674-3.472 2.52-3.29h-.868l-2.086 2.786-2.1-2.786h-.868l2.52 3.29L44.922 49h.868l2.254-2.982L50.284 49h.868zm6.39 0v-4.76c0-1.512-1.091-2.17-2.463-2.17-1.12 0-1.904.378-2.604 1.134l.406.504c.616-.7 1.274-.994 2.114-.994 1.008 0 1.82.546 1.82 1.554v1.372c-.588-.658-1.358-.966-2.296-.966-1.176 0-2.366.77-2.366 2.24 0 1.456 1.204 2.254 2.366 2.254.938 0 1.694-.308 2.296-.966V49h.728zm-2.771-.406c-1.12 0-1.848-.714-1.848-1.666 0-.966.728-1.68 1.848-1.68.812 0 1.568.322 2.044.938v1.484c-.476.616-1.232.924-2.044.924zm7.72 3.15c1.653 0 3.053-.742 3.053-2.814v-6.692h-.742v1.092c-.546-.77-1.386-1.26-2.352-1.26-1.792 0-3.024 1.4-3.024 3.542 0 2.17 1.232 3.528 3.024 3.528 1.008 0 1.876-.574 2.352-1.26v1.064c0 1.554-1.078 2.17-2.31 2.17-1.008 0-1.652-.252-2.24-.952l-.42.56c.798.812 1.526 1.022 2.66 1.022zm.085-3.262c-1.498 0-2.366-1.232-2.366-2.87 0-1.638.868-2.884 2.366-2.884.938 0 1.834.574 2.226 1.232v3.29c-.392.658-1.288 1.232-2.226 1.232zm5.59-7.308c.308 0 .56-.252.56-.56a.55.55 0 00-.56-.546.559.559 0 00-.56.546c0 .308.266.56.56.56zM68.53 49v-6.762h-.728V49h.728zm2.994 0v-9.338h-.728V49h.728zm5.262.168c1.12 0 1.974-.392 2.646-1.092l-.378-.476c-.574.616-1.358.938-2.212.938-1.596 0-2.576-1.218-2.646-2.688h5.656v-.196c0-1.946-1.134-3.584-3.192-3.584-1.876 0-3.262 1.582-3.262 3.542 0 2.086 1.414 3.556 3.388 3.556zm2.324-3.892h-4.914c.056-1.176.854-2.576 2.45-2.576 1.694 0 2.45 1.428 2.464 2.576zM28.712 134v-2.548h1.372v-.728h-1.372v-6.062h-1.078l-4.144 6.076v.714h4.424V134h.798zm-.798-3.276h-3.598l3.598-5.264v5.264zm4.186 3.416c.336 0 .63-.294.63-.63 0-.322-.294-.602-.63-.602a.619.619 0 00-.616.602c0 .336.28.63.616.63zm9.514-.14v-8.61h3.052v-.728H37.75v.728h3.052V134h.812zm9.974 0v-4.76c0-1.526-.756-2.17-2.128-2.17-.98 0-1.946.602-2.436 1.19v-3.598h-.728V134h.728v-5.11c.434-.616 1.33-1.162 2.198-1.162.98 0 1.638.364 1.638 1.666V134h.728zm2.633-7.826c.308 0 .56-.252.56-.56a.55.55 0 00-.56-.546.559.559 0 00-.56.546c0 .308.266.56.56.56zm.364 7.826v-6.762h-.728V134h.728zm2.994 0v-4.928c.308-.588 1.232-1.204 1.918-1.204.14 0 .238 0 .364.028v-.798c-.938 0-1.708.546-2.282 1.302v-1.162h-.728V134h.728zm9.441 0v-9.338h-.742v3.668c-.546-.77-1.386-1.26-2.352-1.26-1.792 0-3.024 1.414-3.024 3.556 0 2.17 1.232 3.542 3.024 3.542a2.88 2.88 0 002.352-1.246V134h.742zm-2.968-.49c-1.498 0-2.366-1.246-2.366-2.884s.868-2.898 2.366-2.898c.952 0 1.834.574 2.226 1.232v3.346c-.392.644-1.274 1.204-2.226 1.204zm11.19.49v-.728h-5.124v-3.696h5.026v-.728h-5.026v-3.458h5.124v-.728H69.32V134h5.922zm1.504 2.646c.183.056.49.098.715.098.797 0 1.371-.406 1.736-1.26l3.5-8.246h-.826l-2.436 5.908-2.465-5.908h-.811l2.855 6.818-.531 1.204c-.267.644-.575.826-1.023.826-.167 0-.433-.042-.587-.112l-.127.672zm10.185-2.478c1.12 0 1.974-.392 2.646-1.092l-.378-.476c-.574.616-1.358.938-2.212.938-1.596 0-2.576-1.218-2.646-2.688h5.656v-.196c0-1.946-1.134-3.584-3.192-3.584-1.876 0-3.262 1.582-3.262 3.542 0 2.086 1.414 3.556 3.388 3.556zm2.324-3.892H84.34c.056-1.176.854-2.576 2.45-2.576 1.694 0 2.45 1.428 2.464 2.576zM98.51 134c2.898 0 4.718-2.072 4.718-4.662 0-2.562-1.82-4.676-4.718-4.676H95.53V134h2.982zm0-.728h-2.184v-7.882h2.184c2.478 0 3.878 1.764 3.878 3.948s-1.414 3.934-3.878 3.934zm11.71.728v-4.76c0-1.512-1.092-2.17-2.464-2.17-1.12 0-1.904.378-2.604 1.134l.406.504c.616-.7 1.274-.994 2.114-.994 1.008 0 1.82.546 1.82 1.554v1.372c-.588-.658-1.358-.966-2.296-.966-1.176 0-2.366.77-2.366 2.24 0 1.456 1.204 2.254 2.366 2.254.938 0 1.694-.308 2.296-.966V134h.728zm-2.772-.406c-1.12 0-1.848-.714-1.848-1.666 0-.966.728-1.68 1.848-1.68.812 0 1.568.322 2.044.938v1.484c-.476.616-1.232.924-2.044.924zm6.516.574c.56 0 .882-.168 1.148-.42l-.28-.56a1.056 1.056 0 01-.756.322c-.476 0-.7-.378-.7-.924v-4.704h1.372v-.644h-1.372v-1.848h-.742v1.848h-1.12v.644h1.12v4.816c0 .924.434 1.47 1.33 1.47zm7.412-.168v-4.76c0-1.512-1.092-2.17-2.464-2.17-1.12 0-1.904.378-2.604 1.134l.406.504c.616-.7 1.274-.994 2.114-.994 1.008 0 1.82.546 1.82 1.554v1.372c-.588-.658-1.358-.966-2.296-.966-1.176 0-2.366.77-2.366 2.24 0 1.456 1.204 2.254 2.366 2.254.938 0 1.694-.308 2.296-.966V134h.728zm-2.772-.406c-1.12 0-1.848-.714-1.848-1.666 0-.966.728-1.68 1.848-1.68.812 0 1.568.322 2.044.938v1.484c-.476.616-1.232.924-2.044.924zM25.59 219l3.99-8.778v-.56h-6.118v.728h5.166l-3.92 8.61h.882zm4.582.14c.337 0 .63-.294.63-.63 0-.322-.293-.602-.63-.602a.619.619 0 00-.616.602c0 .336.28.63.616.63zm9.514-.14v-8.61h3.052v-.728h-6.916v.728h3.052V219h.812zm8.273 0v-4.76c0-1.512-1.092-2.17-2.464-2.17-1.12 0-1.904.378-2.604 1.134l.406.504c.616-.7 1.274-.994 2.114-.994 1.008 0 1.82.546 1.82 1.554v1.372c-.588-.658-1.358-.966-2.296-.966-1.176 0-2.366.77-2.366 2.24 0 1.456 1.204 2.254 2.366 2.254.938 0 1.694-.308 2.296-.966V219h.728zm-2.772-.406c-1.12 0-1.848-.714-1.848-1.666 0-.966.728-1.68 1.848-1.68.812 0 1.568.322 2.044.938v1.484c-.476.616-1.232.924-2.044.924zm5.775.406v-9.338h-.728V219h.728zm5.262.168c1.12 0 1.974-.392 2.646-1.092l-.378-.476c-.574.616-1.358.938-2.212.938-1.596 0-2.576-1.218-2.646-2.688h5.656v-.196c0-1.946-1.134-3.584-3.192-3.584-1.876 0-3.262 1.582-3.262 3.542 0 2.086 1.414 3.556 3.388 3.556zm2.324-3.892h-4.914c.056-1.176.854-2.576 2.45-2.576 1.694 0 2.45 1.428 2.464 2.576zM66.463 219v-4.732c0-1.526-.756-2.198-2.128-2.198-.98 0-1.946.602-2.436 1.19v-1.022h-.728V219h.728v-5.11c.434-.616 1.33-1.162 2.198-1.162.98 0 1.638.392 1.638 1.694V219h.728zm3.739.168c.56 0 .882-.168 1.148-.42l-.28-.56a1.056 1.056 0 01-.756.322c-.476 0-.7-.378-.7-.924v-4.704h1.372v-.644h-1.372v-1.848h-.742v1.848h-1.12v.644h1.12v4.816c0 .924.434 1.47 1.33 1.47zm2.75-7.994c.307 0 .56-.252.56-.56a.55.55 0 00-.56-.546.559.559 0 00-.56.546c0 .308.265.56.56.56zm.363 7.826v-6.762h-.728V219h.728zm5.164.168c1.176 0 1.848-.462 2.394-1.162l-.504-.448c-.49.672-1.106.952-1.848.952-1.582 0-2.548-1.274-2.548-2.898s.966-2.884 2.548-2.884c.742 0 1.358.266 1.848.938l.504-.448c-.546-.686-1.218-1.148-2.394-1.148-1.988 0-3.29 1.568-3.29 3.542 0 1.974 1.302 3.556 3.29 3.556zm9.046-.168v-4.76c0-1.512-1.092-2.17-2.464-2.17-1.12 0-1.904.378-2.604 1.134l.406.504c.616-.7 1.274-.994 2.114-.994 1.008 0 1.82.546 1.82 1.554v1.372c-.588-.658-1.358-.966-2.296-.966-1.176 0-2.366.77-2.366 2.24 0 1.456 1.204 2.254 2.366 2.254.938 0 1.694-.308 2.296-.966V219h.728zm-2.772-.406c-1.12 0-1.848-.714-1.848-1.666 0-.966.728-1.68 1.848-1.68.812 0 1.568.322 2.044.938v1.484c-.476.616-1.232.924-2.044.924zm11.596.574c2.52 0 3.318-1.442 3.318-2.646 0-3.486-5.6-2.17-5.6-4.564 0-1.008.938-1.722 2.184-1.722 1.05 0 2.002.364 2.674 1.176l.532-.588c-.728-.826-1.764-1.316-3.164-1.316-1.694 0-3.066.966-3.066 2.492 0 3.262 5.6 1.834 5.6 4.578 0 .798-.546 1.862-2.464 1.862-1.33 0-2.31-.658-2.912-1.358l-.518.602c.714.868 1.876 1.484 3.416 1.484zm8.065 0c2.002 0 3.262-1.582 3.262-3.556s-1.26-3.542-3.262-3.542c-1.974 0-3.248 1.568-3.248 3.542 0 1.974 1.274 3.556 3.248 3.556zm0-.658c-1.568 0-2.464-1.386-2.464-2.898 0-1.498.896-2.884 2.464-2.884 1.596 0 2.478 1.386 2.478 2.884 0 1.512-.882 2.898-2.478 2.898zm6.108.49v-6.118h1.372v-.644h-1.372v-.616c0-.938.406-1.47 1.176-1.47.364 0 .644.14.868.35l.35-.504c-.434-.378-.812-.476-1.288-.476-1.134 0-1.834.784-1.834 2.1v.616h-1.12v.644h1.12V219h.728zm4.209.168c.56 0 .882-.168 1.148-.42l-.28-.56a1.056 1.056 0 01-.756.322c-.476 0-.7-.378-.7-.924v-4.704h1.372v-.644h-1.372v-1.848h-.742v1.848h-1.12v.644h1.12v4.816c0 .924.434 1.47 1.33 1.47zm8.881-.168l2.198-6.762h-.784l-1.792 5.74-1.904-5.74h-.63l-1.904 5.74-1.792-5.74h-.784l2.198 6.762h.7l1.904-5.782 1.89 5.782h.7zm8.593 0v-4.76c0-1.512-1.092-2.17-2.464-2.17-1.12 0-1.904.378-2.604 1.134l.406.504c.616-.7 1.274-.994 2.114-.994 1.008 0 1.82.546 1.82 1.554v1.372c-.588-.658-1.358-.966-2.296-.966-1.176 0-2.366.77-2.366 2.24 0 1.456 1.204 2.254 2.366 2.254.938 0 1.694-.308 2.296-.966V219h.728zm-2.772-.406c-1.12 0-1.848-.714-1.848-1.666 0-.966.728-1.68 1.848-1.68.812 0 1.568.322 2.044.938v1.484c-.476.616-1.232.924-2.044.924zm5.775.406v-4.928c.308-.588 1.232-1.204 1.918-1.204.14 0 .238 0 .364.028v-.798c-.938 0-1.708.546-2.282 1.302v-1.162h-.728V219h.728zm6.711.168c1.12 0 1.974-.392 2.646-1.092l-.378-.476c-.574.616-1.358.938-2.212.938-1.596 0-2.576-1.218-2.646-2.688h5.656v-.196c0-1.946-1.134-3.584-3.192-3.584-1.876 0-3.262 1.582-3.262 3.542 0 2.086 1.414 3.556 3.388 3.556zm2.324-3.892h-4.914c.056-1.176.854-2.576 2.45-2.576 1.694 0 2.45 1.428 2.464 2.576zM26.15 304v-9.338h-.728l-2.058 2.17.49.518 1.498-1.596V304h.798zm5.427.168c2.492 0 3.444-2.618 3.444-4.83 0-2.226-.952-4.816-3.444-4.816-2.52 0-3.458 2.59-3.458 4.816 0 2.212.938 4.83 3.458 4.83zm0-.728c-1.974 0-2.618-2.184-2.618-4.102 0-1.932.644-4.088 2.618-4.088 1.96 0 2.59 2.156 2.59 4.088 0 1.918-.644 4.102-2.59 4.102zm5.267.7c.336 0 .63-.294.63-.63 0-.322-.294-.602-.63-.602a.619.619 0 00-.616.602c0 .336.28.63.616.63zm7.12-.14v-9.338h-.798V304h.798zm7.583 0v-4.732c0-1.526-.756-2.198-2.128-2.198-.98 0-1.946.602-2.436 1.19v-1.022h-.728V304h.728v-5.11c.434-.616 1.33-1.162 2.198-1.162.98 0 1.638.392 1.638 1.694V304h.728zm3.235 0v-6.118h1.372v-.644h-1.372v-.616c0-.938.406-1.47 1.176-1.47.364 0 .644.14.868.35l.35-.504c-.434-.378-.812-.476-1.288-.476-1.134 0-1.834.784-1.834 2.1v.616h-1.12v.644h1.12V304h.728zm5.595.168c2.002 0 3.262-1.582 3.262-3.556s-1.26-3.542-3.262-3.542c-1.974 0-3.248 1.568-3.248 3.542 0 1.974 1.274 3.556 3.248 3.556zm0-.658c-1.568 0-2.464-1.386-2.464-2.898 0-1.498.896-2.884 2.464-2.884 1.596 0 2.478 1.386 2.478 2.884 0 1.512-.882 2.898-2.478 2.898zm8.222.658c1.806 0 3.024-1.4 3.024-3.556 0-2.17-1.218-3.542-3.024-3.542a2.906 2.906 0 00-2.352 1.232v-1.064h-.728v9.338h.728v-3.668c.546.77 1.4 1.26 2.352 1.26zm-.126-.658c-.938 0-1.834-.588-2.226-1.232v-3.346c.392-.644 1.288-1.204 2.226-1.204 1.512 0 2.366 1.246 2.366 2.884s-.854 2.898-2.366 2.898zm10.281.49v-6.762h-.728v5.152c-.448.602-1.33 1.12-2.198 1.12-.98 0-1.638-.364-1.638-1.68v-4.592h-.728v4.76c0 1.526.742 2.17 2.128 2.17.98 0 1.876-.546 2.436-1.162V304h.728zm2.997 0v-9.338h-.728V304h.728zm4.282.168c1.694 0 2.534-.896 2.534-1.988 0-2.604-4.27-1.568-4.27-3.262 0-.7.644-1.232 1.694-1.232.896 0 1.624.364 2.016.896l.406-.518c-.49-.546-1.26-.994-2.422-.994-1.526 0-2.408.84-2.408 1.876 0 2.422 4.27 1.386 4.27 3.234 0 .784-.672 1.372-1.806 1.372-.952 0-1.75-.448-2.184-.994l-.434.546c.672.742 1.512 1.064 2.604 1.064zm7.406 0c1.12 0 1.974-.392 2.646-1.092l-.378-.476c-.574.616-1.358.938-2.212.938-1.596 0-2.576-1.218-2.646-2.688h5.656v-.196c0-1.946-1.134-3.584-3.192-3.584-1.876 0-3.262 1.582-3.262 3.542 0 2.086 1.414 3.556 3.388 3.556zm2.324-3.892h-4.914c.056-1.176.854-2.576 2.45-2.576 1.694 0 2.45 1.428 2.464 2.576zM227.944 49v-.728h-4.914c2.702-2.184 4.872-4.06 4.872-6.118 0-1.848-1.568-2.632-2.94-2.632-1.316 0-2.45.546-3.108 1.442l.546.504c.504-.714 1.4-1.218 2.562-1.218 1.022 0 2.128.56 2.128 1.904 0 1.806-2.128 3.626-5.306 6.188V49h6.16zm2.73.14c.336 0 .63-.294.63-.63 0-.322-.294-.602-.63-.602a.619.619 0 00-.616.602c0 .336.28.63.616.63zm10.704.028c1.484 0 2.576-.644 3.402-1.666l-.672-.42c-.588.812-1.61 1.358-2.73 1.358-2.198 0-3.892-1.694-3.892-4.102 0-2.436 1.694-4.102 3.892-4.102 1.12 0 2.142.546 2.73 1.358l.672-.434c-.798-.994-1.918-1.652-3.402-1.652-2.646 0-4.732 1.96-4.732 4.83s2.086 4.83 4.732 4.83zM253.934 49v-9.338h-.812v4.172H247.2v-4.172h-.798V49h.798v-4.438h5.922V49h.812zm3.11 0v-9.338h-.798V49h.798zm8.84.168c2.52 0 3.318-1.442 3.318-2.646 0-3.486-5.6-2.17-5.6-4.564 0-1.008.938-1.722 2.184-1.722 1.05 0 2.002.364 2.674 1.176l.532-.588c-.728-.826-1.764-1.316-3.164-1.316-1.694 0-3.066.966-3.066 2.492 0 3.262 5.6 1.834 5.6 4.578 0 .798-.546 1.862-2.464 1.862-1.33 0-2.31-.658-2.912-1.358l-.518.602c.714.868 1.876 1.484 3.416 1.484zm8.065 0c2.002 0 3.262-1.582 3.262-3.556s-1.26-3.542-3.262-3.542c-1.974 0-3.248 1.568-3.248 3.542 0 1.974 1.274 3.556 3.248 3.556zm0-.658c-1.568 0-2.464-1.386-2.464-2.898 0-1.498.896-2.884 2.464-2.884 1.596 0 2.478 1.386 2.478 2.884 0 1.512-.882 2.898-2.478 2.898zm6.108.49v-6.118h1.372v-.644h-1.372v-.616c0-.938.406-1.47 1.176-1.47.364 0 .644.14.868.35l.35-.504c-.434-.378-.812-.476-1.288-.476-1.134 0-1.834.784-1.834 2.1v.616h-1.12v.644h1.12V49h.728zm4.209.168c.56 0 .882-.168 1.148-.42l-.28-.56a1.056 1.056 0 01-.756.322c-.476 0-.7-.378-.7-.924v-4.704h1.372v-.644h-1.372V40.39h-.742v1.848h-1.12v.644h1.12v4.816c0 .924.434 1.47 1.33 1.47zm8.882-.168l2.198-6.762h-.784l-1.792 5.74-1.904-5.74h-.63l-1.904 5.74-1.792-5.74h-.784L287.954 49h.7l1.904-5.782 1.89 5.782h.7zm8.592 0v-4.76c0-1.512-1.092-2.17-2.464-2.17-1.12 0-1.904.378-2.604 1.134l.406.504c.616-.7 1.274-.994 2.114-.994 1.008 0 1.82.546 1.82 1.554v1.372c-.588-.658-1.358-.966-2.296-.966-1.176 0-2.366.77-2.366 2.24 0 1.456 1.204 2.254 2.366 2.254.938 0 1.694-.308 2.296-.966V49h.728zm-2.772-.406c-1.12 0-1.848-.714-1.848-1.666 0-.966.728-1.68 1.848-1.68.812 0 1.568.322 2.044.938v1.484c-.476.616-1.232.924-2.044.924zm5.775.406v-4.928c.308-.588 1.232-1.204 1.918-1.204.14 0 .238 0 .364.028v-.798c-.938 0-1.708.546-2.282 1.302v-1.162h-.728V49h.728zm6.711.168c1.12 0 1.974-.392 2.646-1.092l-.378-.476c-.574.616-1.358.938-2.212.938-1.596 0-2.576-1.218-2.646-2.688h5.656v-.196c0-1.946-1.134-3.584-3.192-3.584-1.876 0-3.262 1.582-3.262 3.542 0 2.086 1.414 3.556 3.388 3.556zm2.324-3.892h-4.914c.056-1.176.854-2.576 2.45-2.576 1.694 0 2.45 1.428 2.464 2.576zM225.186 134.168c1.722 0 3.15-1.148 3.15-3.01 0-1.946-1.414-2.982-2.982-2.982-.966 0-1.764.42-2.226.868v-3.654h4.592v-.728h-5.39v4.9l.602.252c.686-.63 1.414-.91 2.268-.91 1.344 0 2.324.868 2.324 2.282 0 1.274-.994 2.254-2.338 2.254-1.204 0-2.016-.476-2.618-1.33l-.532.532c.644.924 1.596 1.526 3.15 1.526zm5.488-.028c.336 0 .63-.294.63-.63 0-.322-.294-.602-.63-.602a.619.619 0 00-.616.602c0 .336.28.63.616.63zm7.12-.14v-3.878h2.702c1.778 0 2.814-1.26 2.814-2.73s-1.022-2.73-2.814-2.73h-3.5V134h.798zm2.618-4.606h-2.618v-4.004h2.618c1.232 0 2.058.826 2.058 2.002 0 1.176-.826 2.002-2.058 2.002zm4.918-3.22c.308 0 .56-.252.56-.56a.55.55 0 00-.56-.546.559.559 0 00-.56.546c0 .308.266.56.56.56zm.364 7.826v-6.762h-.728V134h.728zm7.6 0l-2.674-3.472 2.52-3.29h-.868l-2.086 2.786-2.1-2.786h-.868l2.52 3.29-2.674 3.472h.868l2.254-2.982 2.24 2.982h.868zm3.815.168c1.12 0 1.974-.392 2.646-1.092l-.378-.476c-.574.616-1.358.938-2.212.938-1.596 0-2.576-1.218-2.646-2.688h5.656v-.196c0-1.946-1.134-3.584-3.192-3.584-1.876 0-3.262 1.582-3.262 3.542 0 2.086 1.414 3.556 3.388 3.556zm2.324-3.892h-4.914c.056-1.176.854-2.576 2.45-2.576 1.694 0 2.45 1.428 2.464 2.576zm3.351 3.724v-9.338h-.728V134h.728zm3.092 0v-3.878h2.702c1.778 0 2.814-1.26 2.814-2.73s-1.022-2.73-2.814-2.73h-3.5V134h.798zm2.618-4.606h-2.618v-4.004h2.618c1.232 0 2.058.826 2.058 2.002 0 1.176-.826 2.002-2.058 2.002zm5.282 4.606v-9.338h-.728V134h.728zm5.262.168c1.12 0 1.974-.392 2.646-1.092l-.378-.476c-.574.616-1.358.938-2.212.938-1.596 0-2.576-1.218-2.646-2.688h5.656v-.196c0-1.946-1.134-3.584-3.192-3.584-1.876 0-3.262 1.582-3.262 3.542 0 2.086 1.414 3.556 3.388 3.556zm2.324-3.892h-4.914c.056-1.176.854-2.576 2.45-2.576 1.694 0 2.45 1.428 2.464 2.576zM289.32 134l-2.674-3.472 2.52-3.29h-.868l-2.086 2.786-2.1-2.786h-.868l2.52 3.29L283.09 134h.868l2.254-2.982 2.24 2.982h.868zM225.172 219.168c1.904 0 3.57-.896 3.57-2.562 0-1.19-.966-2.044-2.1-2.422 1.05-.336 1.96-1.022 1.96-2.212 0-1.722-1.792-2.45-3.43-2.45-1.666 0-3.43.728-3.43 2.45 0 1.19.896 1.876 1.946 2.212-1.134.378-2.1 1.232-2.1 2.422 0 1.68 1.666 2.562 3.584 2.562zm0-5.628c-.574-.098-1.778-.434-1.778-1.316 0-.784.756-1.246 1.778-1.246.994 0 1.764.462 1.764 1.246 0 .882-1.19 1.218-1.764 1.316zm0 4.172c-1.064 0-1.932-.504-1.932-1.316 0-.966 1.344-1.4 1.932-1.47.574.07 1.918.504 1.918 1.47 0 .812-.882 1.316-1.918 1.316zm5.862 1.442c.532 0 .98-.448.98-.98a.992.992 0 00-.98-.98.992.992 0 00-.98.98c0 .532.448.98.98.98zm7.952-.154v-9.338h-1.638V219h1.638zm7.977 0v-4.76c0-1.386-.728-2.17-2.184-2.17a3.2 3.2 0 00-2.38 1.092v-.924h-1.47V219h1.47v-4.718c.336-.462.98-.91 1.736-.91.826 0 1.358.35 1.358 1.4V219h1.47zm5.423 0c2.912 0 4.886-1.918 4.886-4.662 0-2.744-1.974-4.676-4.886-4.676h-3.472V219h3.472zm0-1.442h-1.834v-6.454h1.834c2.086 0 3.206 1.428 3.206 3.234 0 1.764-1.176 3.22-3.206 3.22zM264.411 219v-4.48c0-1.82-1.316-2.45-2.814-2.45-1.078 0-2.058.35-2.842 1.092l.602 1.022c.588-.574 1.246-.854 2.002-.854.938 0 1.582.476 1.582 1.26v1.008c-.49-.574-1.274-.868-2.184-.868-1.106 0-2.352.644-2.352 2.198 0 1.498 1.246 2.24 2.352 2.24.896 0 1.68-.322 2.184-.896V219h1.47zm-3.08-.84c-.826 0-1.442-.476-1.442-1.204 0-.742.616-1.218 1.442-1.218.644 0 1.274.238 1.61.7v1.022c-.336.462-.966.7-1.61.7zm7.016 1.008c.686 0 1.12-.182 1.386-.434l-.35-1.106c-.112.126-.378.238-.658.238-.42 0-.644-.336-.644-.798v-3.542h1.372v-1.288h-1.372v-1.848h-1.47v1.848h-1.12v1.288h1.12v3.906c0 1.12.602 1.736 1.736 1.736zm8.041-.168v-4.48c0-1.82-1.316-2.45-2.814-2.45-1.078 0-2.058.35-2.842 1.092l.602 1.022c.588-.574 1.246-.854 2.002-.854.938 0 1.582.476 1.582 1.26v1.008c-.49-.574-1.274-.868-2.184-.868-1.106 0-2.352.644-2.352 2.198 0 1.498 1.246 2.24 2.352 2.24.896 0 1.68-.322 2.184-.896V219h1.47zm-3.08-.84c-.826 0-1.442-.476-1.442-1.204 0-.742.616-1.218 1.442-1.218.644 0 1.274.238 1.61.7v1.022c-.336.462-.966.7-1.61.7zm14.378.84v-1.442h-4.116v-7.896h-1.638V219h5.754zm6.899 0v-4.48c0-1.82-1.316-2.45-2.814-2.45-1.078 0-2.058.35-2.842 1.092l.602 1.022c.588-.574 1.246-.854 2.002-.854.938 0 1.582.476 1.582 1.26v1.008c-.49-.574-1.274-.868-2.184-.868-1.106 0-2.352.644-2.352 2.198 0 1.498 1.246 2.24 2.352 2.24.896 0 1.68-.322 2.184-.896V219h1.47zm-3.08-.84c-.826 0-1.442-.476-1.442-1.204 0-.742.616-1.218 1.442-1.218.644 0 1.274.238 1.61.7v1.022c-.336.462-.966.7-1.61.7zm6.456-1.19v-2.674c.322-.504 1.05-.924 1.736-.924 1.176 0 1.918.938 1.918 2.254s-.742 2.24-1.918 2.24c-.686 0-1.414-.392-1.736-.896zm0 2.03v-.924c.518.672 1.288 1.092 2.17 1.092 1.722 0 2.996-1.316 2.996-3.542 0-2.184-1.26-3.556-2.996-3.556-.854 0-1.638.392-2.17 1.106v-3.514h-1.47V219h1.47zm8.975.168c1.82 0 2.814-.91 2.814-2.1 0-2.688-4.088-1.792-4.088-2.996 0-.476.49-.826 1.26-.826.84 0 1.596.35 2.002.812l.616-1.036c-.616-.546-1.484-.952-2.632-.952-1.708 0-2.66.952-2.66 2.058 0 2.59 4.088 1.638 4.088 2.968 0 .532-.448.91-1.33.91-.882 0-1.82-.462-2.296-.952l-.672 1.064c.7.686 1.75 1.05 2.898 1.05zM224.15 304v-9.338h-.728l-2.058 2.17.49.518 1.498-1.596V304h.798zm4.307 0v-9.338h-.728l-2.058 2.17.49.518 1.498-1.596V304h.798zm2.682.14c.336 0 .63-.294.63-.63 0-.322-.294-.602-.63-.602a.619.619 0 00-.616.602c0 .336.28.63.616.63zm9.514-.14v-8.61h3.052v-.728h-6.916v.728h3.052V304h.812zm9.974 0v-4.76c0-1.526-.756-2.17-2.128-2.17-.98 0-1.946.602-2.436 1.19v-3.598h-.728V304h.728v-5.11c.434-.616 1.33-1.162 2.198-1.162.98 0 1.638.364 1.638 1.666V304h.728zm5.265.168c1.12 0 1.974-.392 2.646-1.092l-.378-.476c-.574.616-1.358.938-2.212.938-1.596 0-2.576-1.218-2.646-2.688h5.656v-.196c0-1.946-1.134-3.584-3.192-3.584-1.876 0-3.262 1.582-3.262 3.542 0 2.086 1.414 3.556 3.388 3.556zm2.324-3.892h-4.914c.056-1.176.854-2.576 2.45-2.576 1.694 0 2.45 1.428 2.464 2.576zm9.256 3.724c2.898 0 4.718-2.072 4.718-4.662 0-2.562-1.82-4.676-4.718-4.676h-2.982V304h2.982zm0-.728h-2.184v-7.882h2.184c2.478 0 3.878 1.764 3.878 3.948s-1.414 3.934-3.878 3.934zm11.709.728v-4.76c0-1.512-1.092-2.17-2.464-2.17-1.12 0-1.904.378-2.604 1.134l.406.504c.616-.7 1.274-.994 2.114-.994 1.008 0 1.82.546 1.82 1.554v1.372c-.588-.658-1.358-.966-2.296-.966-1.176 0-2.366.77-2.366 2.24 0 1.456 1.204 2.254 2.366 2.254.938 0 1.694-.308 2.296-.966V304h.728zm-2.772-.406c-1.12 0-1.848-.714-1.848-1.666 0-.966.728-1.68 1.848-1.68.812 0 1.568.322 2.044.938v1.484c-.476.616-1.232.924-2.044.924zm4.599 3.052c.182.056.49.098.714.098.798 0 1.372-.406 1.736-1.26l3.5-8.246h-.826l-2.436 5.908-2.464-5.908h-.812l2.856 6.818-.532 1.204c-.266.644-.574.826-1.022.826-.168 0-.434-.042-.588-.112l-.126.672zM293.489 304v-4.76c0-1.526-.756-2.17-2.128-2.17-.98 0-1.946.602-2.436 1.19v-3.598h-.728V304h.728v-5.11c.434-.616 1.33-1.162 2.198-1.162.98 0 1.638.364 1.638 1.666V304h.728zm7.56 0v-6.762h-.728v5.152c-.448.602-1.33 1.12-2.198 1.12-.98 0-1.638-.364-1.638-1.68v-4.592h-.728v4.76c0 1.526.742 2.17 2.128 2.17.98 0 1.876-.546 2.436-1.162V304h.728zm3.235 0v-6.118h1.372v-.644h-1.372v-.616c0-.938.406-1.47 1.176-1.47.364 0 .644.14.868.35l.35-.504c-.434-.378-.812-.476-1.288-.476-1.134 0-1.834.784-1.834 2.1v.616h-1.12v.644h1.12V304h.728zm3.71 0v-6.118h1.372v-.644h-1.372v-.616c0-.938.406-1.47 1.176-1.47.364 0 .644.14.868.35l.35-.504c-.434-.378-.812-.476-1.288-.476-1.134 0-1.834.784-1.834 2.1v.616h-1.12v.644h1.12V304h.728zm10.78.182c1.47 0 2.716-.63 3.542-1.554v-3.262h-4.326v.714h3.528v2.24c-.518.518-1.498 1.134-2.744 1.134-2.198 0-3.892-1.708-3.892-4.116 0-2.436 1.694-4.102 3.892-4.102 1.19 0 2.254.518 2.912 1.302l.602-.434c-.854-.98-1.974-1.596-3.514-1.596-2.618 0-4.732 1.946-4.732 4.83 0 2.884 2.114 4.844 4.732 4.844zm6.272-.182v-4.928c.308-.588 1.232-1.204 1.918-1.204.14 0 .238 0 .364.028v-.798c-.938 0-1.708.546-2.282 1.302v-1.162h-.728V304h.728zm6.571.168c2.002 0 3.262-1.582 3.262-3.556s-1.26-3.542-3.262-3.542c-1.974 0-3.248 1.568-3.248 3.542 0 1.974 1.274 3.556 3.248 3.556zm0-.658c-1.568 0-2.464-1.386-2.464-2.898 0-1.498.896-2.884 2.464-2.884 1.596 0 2.478 1.386 2.478 2.884 0 1.512-.882 2.898-2.478 2.898zm10.434.49v-6.762h-.728v5.152c-.448.602-1.33 1.12-2.198 1.12-.98 0-1.638-.364-1.638-1.68v-4.592h-.728v4.76c0 1.526.742 2.17 2.128 2.17.98 0 1.876-.546 2.436-1.162V304h.728zm5.349.168c1.806 0 3.024-1.4 3.024-3.556 0-2.17-1.218-3.542-3.024-3.542a2.906 2.906 0 00-2.352 1.232v-1.064h-.728v9.338h.728v-3.668c.546.77 1.4 1.26 2.352 1.26zm-.126-.658c-.938 0-1.834-.588-2.226-1.232v-3.346c.392-.644 1.288-1.204 2.226-1.204 1.512 0 2.366 1.246 2.366 2.884s-.854 2.898-2.366 2.898zM449.626 49.168c1.988 0 3.15-1.134 3.15-2.674s-1.33-2.24-2.142-2.324c.798-.14 2.002-.756 2.002-2.184 0-1.582-1.386-2.464-3.01-2.464-1.358 0-2.394.616-3.052 1.414l.504.504c.686-.77 1.442-1.19 2.506-1.19 1.204 0 2.24.644 2.24 1.806 0 1.246-1.134 1.778-2.366 1.778-.378 0-.728 0-.868-.014v.756c.14-.014.49-.014.868-.014 1.4 0 2.506.546 2.506 1.89 0 1.232-.91 1.988-2.352 1.988-1.19 0-2.1-.56-2.618-1.302l-.546.476c.532.84 1.652 1.554 3.178 1.554zm5.515-.028c.336 0 .63-.294.63-.63 0-.322-.294-.602-.63-.602a.619.619 0 00-.616.602c0 .336.28.63.616.63zm13.784-.14v-9.338h-.798v7.91l-5.852-7.91h-.812V49h.798v-8.022l5.88 8.022h.784zm5.295.168c1.12 0 1.974-.392 2.646-1.092l-.378-.476c-.574.616-1.358.938-2.212.938-1.596 0-2.576-1.218-2.646-2.688h5.656v-.196c0-1.946-1.134-3.584-3.192-3.584-1.876 0-3.262 1.582-3.262 3.542 0 2.086 1.414 3.556 3.388 3.556zm2.324-3.892h-4.914c.056-1.176.854-2.576 2.45-2.576 1.694 0 2.45 1.428 2.464 2.576zm5.479 3.892c2.002 0 3.262-1.582 3.262-3.556s-1.26-3.542-3.262-3.542c-1.974 0-3.248 1.568-3.248 3.542 0 1.974 1.274 3.556 3.248 3.556zm0-.658c-1.568 0-2.464-1.386-2.464-2.898 0-1.498.896-2.884 2.464-2.884 1.596 0 2.478 1.386 2.478 2.884 0 1.512-.882 2.898-2.478 2.898zm6.612.658c.56 0 .882-.168 1.148-.42l-.28-.56a1.056 1.056 0 01-.756.322c-.476 0-.7-.378-.7-.924v-4.704h1.372v-.644h-1.372V40.39h-.742v1.848h-1.12v.644h1.12v4.816c0 .924.434 1.47 1.33 1.47zm5.382 0c1.12 0 1.974-.392 2.646-1.092l-.378-.476c-.574.616-1.358.938-2.212.938-1.596 0-2.576-1.218-2.646-2.688h5.656v-.196c0-1.946-1.134-3.584-3.192-3.584-1.876 0-3.262 1.582-3.262 3.542 0 2.086 1.414 3.556 3.388 3.556zm2.324-3.892h-4.914c.056-1.176.854-2.576 2.45-2.576 1.694 0 2.45 1.428 2.464 2.576zM499.692 49v-4.928c.308-.588 1.232-1.204 1.918-1.204.14 0 .238 0 .364.028v-.798c-.938 0-1.708.546-2.282 1.302v-1.162h-.728V49h.728zm4.079-7.826c.308 0 .56-.252.56-.56a.55.55 0 00-.56-.546.559.559 0 00-.56.546c0 .308.266.56.56.56zm.364 7.826v-6.762h-.728V49h.728zm5.165.168c1.176 0 1.848-.462 2.394-1.162l-.504-.448c-.49.672-1.106.952-1.848.952-1.582 0-2.548-1.274-2.548-2.898s.966-2.884 2.548-2.884c.742 0 1.358.266 1.848.938l.504-.448c-.546-.686-1.218-1.148-2.394-1.148-1.988 0-3.29 1.568-3.29 3.542 0 1.974 1.302 3.556 3.29 3.556zM450.242 134.168c1.988 0 3.136-1.456 3.136-2.982 0-1.988-1.33-2.954-3.01-2.954-1.26 0-2.338.91-2.73 1.554-.014-.14-.014-.294-.014-.434 0-1.988.742-4.102 2.758-4.102 1.022 0 1.596.434 2.044 1.05l.476-.588c-.56-.7-1.302-1.19-2.52-1.19-2.576 0-3.57 2.422-3.57 4.816 0 2.506.91 4.83 3.43 4.83zm-.028-.728c-1.75 0-2.422-1.624-2.534-2.898.532-.938 1.526-1.596 2.548-1.596 1.344 0 2.338.728 2.338 2.254 0 1.008-.756 2.24-2.352 2.24zm5.488.7c.336 0 .63-.294.63-.63 0-.322-.294-.602-.63-.602a.619.619 0 00-.616.602c0 .336.28.63.616.63zm7.119-.14v-4.424h5.026v-.728h-5.026v-3.458h5.124v-.728h-5.922V134h.798zm11.788 0v-4.76c0-1.512-1.092-2.17-2.464-2.17-1.12 0-1.904.378-2.604 1.134l.406.504c.616-.7 1.274-.994 2.114-.994 1.008 0 1.82.546 1.82 1.554v1.372c-.588-.658-1.358-.966-2.296-.966-1.176 0-2.366.77-2.366 2.24 0 1.456 1.204 2.254 2.366 2.254.938 0 1.694-.308 2.296-.966V134h.728zm-2.772-.406c-1.12 0-1.848-.714-1.848-1.666 0-.966.728-1.68 1.848-1.68.812 0 1.568.322 2.044.938v1.484c-.476.616-1.232.924-2.044.924zm4.599 3.052c.182.056.49.098.714.098.798 0 1.372-.406 1.736-1.26l3.5-8.246h-.826l-2.436 5.908-2.464-5.908h-.812l2.856 6.818-.532 1.204c-.266.644-.574.826-1.022.826-.168 0-.434-.042-.588-.112l-.126.672zm7.916-2.646v-4.928c.308-.588 1.232-1.204 1.918-1.204.14 0 .238 0 .364.028v-.798c-.938 0-1.708.546-2.282 1.302v-1.162h-.728V134h.728zm4.08-7.826c.308 0 .56-.252.56-.56a.55.55 0 00-.56-.546.559.559 0 00-.56.546c0 .308.266.56.56.56zm.364 7.826v-6.762h-.728V134h.728zm7.6 0l-2.674-3.472 2.52-3.29h-.868l-2.086 2.786-2.1-2.786h-.868l2.52 3.29-2.674 3.472h.868l2.254-2.982 2.24 2.982h.868zM449.794 219.154c2.576 0 3.57-2.422 3.57-4.816 0-2.506-.91-4.83-3.43-4.83-1.988 0-3.136 1.456-3.136 2.982 0 1.988 1.33 2.968 3.01 2.968 1.26 0 2.338-.924 2.744-1.568v.434c0 1.96-.7 4.102-2.758 4.102-1.022 0-1.596-.434-2.044-1.036l-.462.574c.546.7 1.288 1.19 2.506 1.19zm.154-4.424c-1.33 0-2.338-.728-2.338-2.254 0-1.008.756-2.24 2.352-2.24 1.75 0 2.422 1.624 2.534 2.898-.532.938-1.526 1.596-2.548 1.596zm5.248 4.41c.336 0 .63-.294.63-.63 0-.322-.294-.602-.63-.602a.619.619 0 00-.616.602c0 .336.28.63.616.63zm13.027-.14l-4.354-4.886 3.976-4.452h-1.022l-4.508 5.11v-5.11h-.798V219h.798v-3.262l1.036-1.134 3.85 4.396h1.022zm6.762 0v-4.732c0-1.526-.756-2.198-2.128-2.198-.98 0-1.946.602-2.436 1.19v-1.022h-.728V219h.728v-5.11c.434-.616 1.33-1.162 2.198-1.162.98 0 1.638.392 1.638 1.694V219h.728zm5.124.168c2.002 0 3.262-1.582 3.262-3.556s-1.26-3.542-3.262-3.542c-1.974 0-3.248 1.568-3.248 3.542 0 1.974 1.274 3.556 3.248 3.556zm0-.658c-1.568 0-2.464-1.386-2.464-2.898 0-1.498.896-2.884 2.464-2.884 1.596 0 2.478 1.386 2.478 2.884 0 1.512-.882 2.898-2.478 2.898zm5.87.49v-9.338h-.728V219h.728zm7.992 0v-9.338h-.742v3.668c-.546-.77-1.386-1.26-2.352-1.26-1.792 0-3.024 1.414-3.024 3.556 0 2.17 1.232 3.542 3.024 3.542a2.88 2.88 0 002.352-1.246V219h.742zm-2.968-.49c-1.498 0-2.366-1.246-2.366-2.884s.868-2.898 2.366-2.898c.952 0 1.834.574 2.226 1.232v3.346c-.392.644-1.274 1.204-2.226 1.204zm10.532.49v-6.762h-.728v5.152c-.448.602-1.33 1.12-2.198 1.12-.98 0-1.638-.364-1.638-1.68v-4.592h-.728v4.76c0 1.526.742 2.17 2.128 2.17.98 0 1.876-.546 2.436-1.162V219h.728zm4.285.168c1.694 0 2.534-.896 2.534-1.988 0-2.604-4.27-1.568-4.27-3.262 0-.7.644-1.232 1.694-1.232.896 0 1.624.364 2.016.896l.406-.518c-.49-.546-1.26-.994-2.422-.994-1.526 0-2.408.84-2.408 1.876 0 2.422 4.27 1.386 4.27 3.234 0 .784-.672 1.372-1.806 1.372-.952 0-1.75-.448-2.184-.994l-.434.546c.672.742 1.512 1.064 2.604 1.064zm8.859-.168v-9.338h-.798V219h.798zm7.583 0v-4.732c0-1.526-.756-2.198-2.128-2.198-.98 0-1.946.602-2.436 1.19v-1.022h-.728V219h.728v-5.11c.434-.616 1.33-1.162 2.198-1.162.98 0 1.638.392 1.638 1.694V219h.728zm5.166.168c1.176 0 1.848-.462 2.394-1.162l-.504-.448c-.49.672-1.106.952-1.848.952-1.582 0-2.548-1.274-2.548-2.898s.966-2.884 2.548-2.884c.742 0 1.358.266 1.848.938l.504-.448c-.546-.686-1.218-1.148-2.394-1.148-1.988 0-3.29 1.568-3.29 3.542 0 1.974 1.302 3.556 3.29 3.556zm4.412-.028c.336 0 .63-.294.63-.63 0-.322-.294-.602-.63-.602a.619.619 0 00-.616.602c0 .336.28.63.616.63zM449.15 304v-9.338h-.728l-2.058 2.17.49.518 1.498-1.596V304h.798zm8.101 0v-.728h-4.914c2.702-2.184 4.872-4.06 4.872-6.118 0-1.848-1.568-2.632-2.94-2.632-1.316 0-2.45.546-3.108 1.442l.546.504c.504-.714 1.4-1.218 2.562-1.218 1.022 0 2.128.56 2.128 1.904 0 1.806-2.128 3.626-5.306 6.188V304h6.16zm2.73.14c.336 0 .63-.294.63-.63 0-.322-.294-.602-.63-.602a.619.619 0 00-.616.602c0 .336.28.63.616.63zm12.594-.14v-.728h-5.726l5.628-7.924v-.686h-6.636v.728h5.628l-5.628 7.91v.7h6.734zm2.8 0v-6.118h1.372v-.644h-1.372v-.616c0-.938.406-1.47 1.176-1.47.364 0 .644.14.868.35l.35-.504c-.434-.378-.812-.476-1.288-.476-1.134 0-1.834.784-1.834 2.1v.616h-1.12v.644h1.12V304h.728zm5.595.168c2.002 0 3.262-1.582 3.262-3.556s-1.26-3.542-3.262-3.542c-1.974 0-3.248 1.568-3.248 3.542 0 1.974 1.274 3.556 3.248 3.556zm0-.658c-1.568 0-2.464-1.386-2.464-2.898 0-1.498.896-2.884 2.464-2.884 1.596 0 2.478 1.386 2.478 2.884 0 1.512-.882 2.898-2.478 2.898zm5.871.49v-4.928c.308-.588 1.232-1.204 1.918-1.204.14 0 .238 0 .364.028v-.798c-.938 0-1.708.546-2.282 1.302v-1.162h-.728V304h.728zm5.185.168c.56 0 .882-.168 1.148-.42l-.28-.56a1.056 1.056 0 01-.756.322c-.476 0-.7-.378-.7-.924v-4.704h1.372v-.644h-1.372v-1.848h-.742v1.848h-1.12v.644h1.12v4.816c0 .924.434 1.47 1.33 1.47zm10.418.014c1.47 0 2.716-.63 3.542-1.554v-3.262h-4.326v.714h3.528v2.24c-.518.518-1.498 1.134-2.744 1.134-2.198 0-3.892-1.708-3.892-4.116 0-2.436 1.694-4.102 3.892-4.102 1.19 0 2.254.518 2.912 1.302l.602-.434c-.854-.98-1.974-1.596-3.514-1.596-2.618 0-4.732 1.946-4.732 4.83 0 2.884 2.114 4.844 4.732 4.844zm6.272-.182v-4.928c.308-.588 1.232-1.204 1.918-1.204.14 0 .238 0 .364.028v-.798c-.938 0-1.708.546-2.282 1.302v-1.162h-.728V304h.728zm6.571.168c2.002 0 3.262-1.582 3.262-3.556s-1.26-3.542-3.262-3.542c-1.974 0-3.248 1.568-3.248 3.542 0 1.974 1.274 3.556 3.248 3.556zm0-.658c-1.568 0-2.464-1.386-2.464-2.898 0-1.498.896-2.884 2.464-2.884 1.596 0 2.478 1.386 2.478 2.884 0 1.512-.882 2.898-2.478 2.898zm10.434.49v-6.762h-.728v5.152c-.448.602-1.33 1.12-2.198 1.12-.98 0-1.638-.364-1.638-1.68v-4.592h-.728v4.76c0 1.526.742 2.17 2.128 2.17.98 0 1.876-.546 2.436-1.162V304h.728zm5.348.168c1.806 0 3.024-1.4 3.024-3.556 0-2.17-1.218-3.542-3.024-3.542a2.906 2.906 0 00-2.352 1.232v-1.064h-.728v9.338h.728v-3.668c.546.77 1.4 1.26 2.352 1.26zm-.126-.658c-.938 0-1.834-.588-2.226-1.232v-3.346c.392-.644 1.288-1.204 2.226-1.204 1.512 0 2.366 1.246 2.366 2.884s-.854 2.898-2.366 2.898zM449.15 389v-9.338h-.728l-2.058 2.17.49.518 1.498-1.596V389h.798zm5.343.168c1.722 0 3.15-1.148 3.15-3.01 0-1.946-1.414-2.982-2.982-2.982-.966 0-1.764.42-2.226.868v-3.654h4.592v-.728h-5.39v4.9l.602.252c.686-.63 1.414-.91 2.268-.91 1.344 0 2.324.868 2.324 2.282 0 1.274-.994 2.254-2.338 2.254-1.204 0-2.016-.476-2.618-1.33l-.532.532c.644.924 1.596 1.526 3.15 1.526zm5.488-.028c.336 0 .63-.294.63-.63 0-.322-.294-.602-.63-.602a.619.619 0 00-.616.602c0 .336.28.63.616.63zm14.008-.14l-3.822-9.338h-.994L465.351 389h.924l.924-2.296h4.942l.924 2.296h.924zm-2.114-3.024h-4.41l2.198-5.46 2.212 5.46zm4.192 1.33v-3.346c.392-.644 1.288-1.232 2.226-1.232 1.512 0 2.366 1.26 2.366 2.898 0 1.638-.854 2.884-2.366 2.884-.938 0-1.834-.56-2.226-1.204zm0 1.694v-1.078a2.88 2.88 0 002.352 1.246c1.792 0 3.024-1.372 3.024-3.542 0-2.142-1.218-3.556-3.024-3.556-.952 0-1.806.49-2.352 1.26v-3.668h-.728V389h.728zm8.74.168c.56 0 .882-.168 1.148-.42l-.28-.56a1.056 1.056 0 01-.756.322c-.476 0-.7-.378-.7-.924v-4.704h1.372v-.644h-1.372v-1.848h-.742v1.848h-1.12v.644h1.12v4.816c0 .924.434 1.47 1.33 1.47zm5.242 0c2.002 0 3.262-1.582 3.262-3.556s-1.26-3.542-3.262-3.542c-1.974 0-3.248 1.568-3.248 3.542 0 1.974 1.274 3.556 3.248 3.556zm0-.658c-1.568 0-2.464-1.386-2.464-2.898 0-1.498.896-2.884 2.464-2.884 1.596 0 2.478 1.386 2.478 2.884 0 1.512-.882 2.898-2.478 2.898zm11.691.658c2.52 0 3.318-1.442 3.318-2.646 0-3.486-5.6-2.17-5.6-4.564 0-1.008.938-1.722 2.184-1.722 1.05 0 2.002.364 2.674 1.176l.532-.588c-.728-.826-1.764-1.316-3.164-1.316-1.694 0-3.066.966-3.066 2.492 0 3.262 5.6 1.834 5.6 4.578 0 .798-.546 1.862-2.464 1.862-1.33 0-2.31-.658-2.912-1.358l-.518.602c.714.868 1.876 1.484 3.416 1.484zm8.064 0c2.002 0 3.262-1.582 3.262-3.556s-1.26-3.542-3.262-3.542c-1.974 0-3.248 1.568-3.248 3.542 0 1.974 1.274 3.556 3.248 3.556zm0-.658c-1.568 0-2.464-1.386-2.464-2.898 0-1.498.896-2.884 2.464-2.884 1.596 0 2.478 1.386 2.478 2.884 0 1.512-.882 2.898-2.478 2.898zm6.109.49v-6.118h1.372v-.644h-1.372v-.616c0-.938.406-1.47 1.176-1.47.364 0 .644.14.868.35l.35-.504c-.434-.378-.812-.476-1.288-.476-1.134 0-1.834.784-1.834 2.1v.616h-1.12v.644h1.12V389h.728zm4.209.168c.56 0 .882-.168 1.148-.42l-.28-.56a1.056 1.056 0 01-.756.322c-.476 0-.7-.378-.7-.924v-4.704h1.372v-.644h-1.372v-1.848h-.742v1.848h-1.12v.644h1.12v4.816c0 .924.434 1.47 1.33 1.47zm8.881-.168l2.198-6.762h-.784l-1.792 5.74-1.904-5.74h-.63l-1.904 5.74-1.792-5.74h-.784l2.198 6.762h.7l1.904-5.782 1.89 5.782h.7zm8.593 0v-4.76c0-1.512-1.092-2.17-2.464-2.17-1.12 0-1.904.378-2.604 1.134l.406.504c.616-.7 1.274-.994 2.114-.994 1.008 0 1.82.546 1.82 1.554v1.372c-.588-.658-1.358-.966-2.296-.966-1.176 0-2.366.77-2.366 2.24 0 1.456 1.204 2.254 2.366 2.254.938 0 1.694-.308 2.296-.966V389h.728zm-2.772-.406c-1.12 0-1.848-.714-1.848-1.666 0-.966.728-1.68 1.848-1.68.812 0 1.568.322 2.044.938v1.484c-.476.616-1.232.924-2.044.924zm5.774.406v-4.928c.308-.588 1.232-1.204 1.918-1.204.14 0 .238 0 .364.028v-.798c-.938 0-1.708.546-2.282 1.302v-1.162h-.728V389h.728zm6.712.168c1.12 0 1.974-.392 2.646-1.092l-.378-.476c-.574.616-1.358.938-2.212.938-1.596 0-2.576-1.218-2.646-2.688h5.656v-.196c0-1.946-1.134-3.584-3.192-3.584-1.876 0-3.262 1.582-3.262 3.542 0 2.086 1.414 3.556 3.388 3.556zm2.324-3.892h-4.914c.056-1.176.854-2.576 2.45-2.576 1.694 0 2.45 1.428 2.464 2.576zM26.15 389v-9.338h-.728l-2.058 2.17.49.518 1.498-1.596V389h.798zm4.783.168c1.988 0 3.15-1.134 3.15-2.674s-1.33-2.24-2.142-2.324c.798-.14 2.002-.756 2.002-2.184 0-1.582-1.386-2.464-3.01-2.464-1.358 0-2.394.616-3.052 1.414l.504.504c.686-.77 1.442-1.19 2.506-1.19 1.204 0 2.24.644 2.24 1.806 0 1.246-1.134 1.778-2.366 1.778-.378 0-.728 0-.868-.014v.756c.14-.014.49-.014.868-.014 1.4 0 2.506.546 2.506 1.89 0 1.232-.91 1.988-2.352 1.988-1.19 0-2.1-.56-2.618-1.302l-.546.476c.532.84 1.652 1.554 3.178 1.554zm5.515-.028c.336 0 .63-.294.63-.63 0-.322-.294-.602-.63-.602a.619.619 0 00-.616.602c0 .336.28.63.616.63zm15.057-.14v-9.338h-1.204l-3.164 7.7-3.178-7.7h-1.19V389h.798v-8.246L46.983 389h.308l3.402-8.246V389h.812zm5.153.168c2.002 0 3.262-1.582 3.262-3.556s-1.26-3.542-3.262-3.542c-1.974 0-3.248 1.568-3.248 3.542 0 1.974 1.274 3.556 3.248 3.556zm0-.658c-1.568 0-2.464-1.386-2.464-2.898 0-1.498.896-2.884 2.464-2.884 1.596 0 2.478 1.386 2.478 2.884 0 1.512-.882 2.898-2.478 2.898zm6.612.658c.56 0 .882-.168 1.148-.42l-.28-.56a1.056 1.056 0 01-.756.322c-.476 0-.7-.378-.7-.924v-4.704h1.372v-.644h-1.372v-1.848h-.742v1.848h-1.12v.644h1.12v4.816c0 .924.434 1.47 1.33 1.47zm5.241 0c2.002 0 3.263-1.582 3.263-3.556s-1.26-3.542-3.263-3.542c-1.974 0-3.248 1.568-3.248 3.542 0 1.974 1.274 3.556 3.248 3.556zm0-.658c-1.567 0-2.463-1.386-2.463-2.898 0-1.498.895-2.884 2.463-2.884 1.597 0 2.479 1.386 2.479 2.884 0 1.512-.882 2.898-2.478 2.898zm6.613.658c.56 0 .882-.168 1.148-.42l-.28-.56a1.056 1.056 0 01-.757.322c-.475 0-.7-.378-.7-.924v-4.704h1.373v-.644h-1.373v-1.848h-.742v1.848h-1.12v.644h1.12v4.816c0 .924.434 1.47 1.33 1.47zm5.381 0c1.12 0 1.974-.392 2.646-1.092l-.378-.476c-.574.616-1.358.938-2.212.938-1.596 0-2.576-1.218-2.646-2.688h5.656v-.196c0-1.946-1.134-3.584-3.192-3.584-1.876 0-3.262 1.582-3.262 3.542 0 2.086 1.414 3.556 3.388 3.556zm2.324-3.892h-4.914c.056-1.176.854-2.576 2.45-2.576 1.694 0 2.45 1.428 2.464 2.576zm5.521 3.892c1.176 0 1.848-.462 2.394-1.162l-.504-.448c-.49.672-1.106.952-1.848.952-1.582 0-2.548-1.274-2.548-2.898s.966-2.884 2.548-2.884c.742 0 1.358.266 1.848.938l.504-.448c-.546-.686-1.218-1.148-2.394-1.148-1.988 0-3.29 1.568-3.29 3.542 0 1.974 1.302 3.556 3.29 3.556zm9.312-.168v-4.76c0-1.526-.756-2.17-2.128-2.17-.98 0-1.946.602-2.436 1.19v-3.598h-.728V389h.728v-5.11c.434-.616 1.33-1.162 2.198-1.162.98 0 1.638.364 1.638 1.666V389h.728zm10.302.182c1.47 0 2.716-.63 3.542-1.554v-3.262h-4.326v.714h3.528v2.24c-.518.518-1.498 1.134-2.744 1.134-2.198 0-3.892-1.708-3.892-4.116 0-2.436 1.694-4.102 3.892-4.102 1.19 0 2.254.518 2.912 1.302l.602-.434c-.854-.98-1.974-1.596-3.514-1.596-2.618 0-4.732 1.946-4.732 4.83 0 2.884 2.114 4.844 4.732 4.844zm6.271-.182v-4.928c.308-.588 1.232-1.204 1.918-1.204.14 0 .238 0 .364.028v-.798c-.938 0-1.708.546-2.282 1.302v-1.162h-.728V389h.728zm6.571.168c2.002 0 3.262-1.582 3.262-3.556s-1.26-3.542-3.262-3.542c-1.974 0-3.248 1.568-3.248 3.542 0 1.974 1.274 3.556 3.248 3.556zm0-.658c-1.568 0-2.464-1.386-2.464-2.898 0-1.498.896-2.884 2.464-2.884 1.596 0 2.478 1.386 2.478 2.884 0 1.512-.882 2.898-2.478 2.898zm10.434.49v-6.762h-.728v5.152c-.448.602-1.33 1.12-2.198 1.12-.98 0-1.638-.364-1.638-1.68v-4.592h-.728v4.76c0 1.526.742 2.17 2.128 2.17.98 0 1.876-.546 2.436-1.162V389h.728zm5.349.168c1.806 0 3.024-1.4 3.024-3.556 0-2.17-1.218-3.542-3.024-3.542a2.906 2.906 0 00-2.352 1.232v-1.064h-.728v9.338h.728v-3.668c.546.77 1.4 1.26 2.352 1.26zm-.126-.658c-.938 0-1.834-.588-2.226-1.232v-3.346c.392-.644 1.288-1.204 2.226-1.204 1.512 0 2.366 1.246 2.366 2.884s-.854 2.898-2.366 2.898zM224.15 389v-9.338h-.728l-2.058 2.17.49.518 1.498-1.596V389h.798zm6.869 0v-2.548h1.372v-.728h-1.372v-6.062h-1.078l-4.144 6.076v.714h4.424V389h.798zm-.798-3.276h-3.598l3.598-5.264v5.264zm4.186 3.416c.336 0 .63-.294.63-.63 0-.322-.294-.602-.63-.602a.619.619 0 00-.616.602c0 .336.28.63.616.63zm9.513-.14v-8.61h3.052v-.728h-6.916v.728h3.052V389h.812zm9.975 0v-4.76c0-1.526-.756-2.17-2.128-2.17-.98 0-1.946.602-2.436 1.19v-3.598h-.728V389h.728v-5.11c.434-.616 1.33-1.162 2.198-1.162.98 0 1.638.364 1.638 1.666V389h.728zm5.264.168c1.12 0 1.974-.392 2.646-1.092l-.378-.476c-.574.616-1.358.938-2.212.938-1.596 0-2.576-1.218-2.646-2.688h5.656v-.196c0-1.946-1.134-3.584-3.192-3.584-1.876 0-3.262 1.582-3.262 3.542 0 2.086 1.414 3.556 3.388 3.556zm2.324-3.892h-4.914c.056-1.176.854-2.576 2.45-2.576 1.694 0 2.45 1.428 2.464 2.576zM270.74 389c2.898 0 4.718-2.072 4.718-4.662 0-2.562-1.82-4.676-4.718-4.676h-2.982V389h2.982zm0-.728h-2.184v-7.882h2.184c2.478 0 3.878 1.764 3.878 3.948s-1.414 3.934-3.878 3.934zm11.709.728v-4.76c0-1.512-1.092-2.17-2.464-2.17-1.12 0-1.904.378-2.604 1.134l.406.504c.616-.7 1.274-.994 2.114-.994 1.008 0 1.82.546 1.82 1.554v1.372c-.588-.658-1.358-.966-2.296-.966-1.176 0-2.366.77-2.366 2.24 0 1.456 1.204 2.254 2.366 2.254.938 0 1.694-.308 2.296-.966V389h.728zm-2.772-.406c-1.12 0-1.848-.714-1.848-1.666 0-.966.728-1.68 1.848-1.68.812 0 1.568.322 2.044.938v1.484c-.476.616-1.232.924-2.044.924zm6.517.574c.56 0 .882-.168 1.148-.42l-.28-.56a1.056 1.056 0 01-.756.322c-.476 0-.7-.378-.7-.924v-4.704h1.372v-.644h-1.372v-1.848h-.742v1.848h-1.12v.644h1.12v4.816c0 .924.434 1.47 1.33 1.47zm7.411-.168v-4.76c0-1.512-1.092-2.17-2.464-2.17-1.12 0-1.904.378-2.604 1.134l.406.504c.616-.7 1.274-.994 2.114-.994 1.008 0 1.82.546 1.82 1.554v1.372c-.588-.658-1.358-.966-2.296-.966-1.176 0-2.366.77-2.366 2.24 0 1.456 1.204 2.254 2.366 2.254.938 0 1.694-.308 2.296-.966V389h.728zm-2.772-.406c-1.12 0-1.848-.714-1.848-1.666 0-.966.728-1.68 1.848-1.68.812 0 1.568.322 2.044.938v1.484c-.476.616-1.232.924-2.044.924zm16.384.406l-3.822-9.338h-.994L298.579 389h.924l.924-2.296h4.942l.924 2.296h.924zm-2.114-3.024h-4.41l2.198-5.46 2.212 5.46zM313.86 389v-4.732c0-1.526-.756-2.198-2.128-2.198-.98 0-1.946.602-2.436 1.19v-1.022h-.728V389h.728v-5.11c.434-.616 1.33-1.162 2.198-1.162.98 0 1.638.392 1.638 1.694V389h.728zm7.294 0v-4.76c0-1.512-1.092-2.17-2.464-2.17-1.12 0-1.904.378-2.604 1.134l.406.504c.616-.7 1.274-.994 2.114-.994 1.008 0 1.82.546 1.82 1.554v1.372c-.588-.658-1.358-.966-2.296-.966-1.176 0-2.366.77-2.366 2.24 0 1.456 1.204 2.254 2.366 2.254.938 0 1.694-.308 2.296-.966V389h.728zm-2.772-.406c-1.12 0-1.848-.714-1.848-1.666 0-.966.728-1.68 1.848-1.68.812 0 1.568.322 2.044.938v1.484c-.476.616-1.232.924-2.044.924zm5.775.406v-9.338h-.728V389h.728zm1.818 2.646c.182.056.49.098.714.098.798 0 1.372-.406 1.736-1.26l3.5-8.246h-.826l-2.436 5.908-2.464-5.908h-.812l2.856 6.818-.532 1.204c-.266.644-.574.826-1.022.826-.168 0-.434-.042-.588-.112l-.126.672zm9.204-2.478c1.694 0 2.534-.896 2.534-1.988 0-2.604-4.27-1.568-4.27-3.262 0-.7.644-1.232 1.694-1.232.896 0 1.624.364 2.016.896l.406-.518c-.49-.546-1.26-.994-2.422-.994-1.526 0-2.408.84-2.408 1.876 0 2.422 4.27 1.386 4.27 3.234 0 .784-.672 1.372-1.806 1.372-.952 0-1.75-.448-2.184-.994l-.434.546c.672.742 1.512 1.064 2.604 1.064zm4.774-7.994c.308 0 .56-.252.56-.56a.55.55 0 00-.56-.546.559.559 0 00-.56.546c0 .308.266.56.56.56zm.364 7.826v-6.762h-.728V389h.728zm4.282.168c1.694 0 2.534-.896 2.534-1.988 0-2.604-4.27-1.568-4.27-3.262 0-.7.644-1.232 1.694-1.232.896 0 1.624.364 2.016.896l.406-.518c-.49-.546-1.26-.994-2.422-.994-1.526 0-2.408.84-2.408 1.876 0 2.422 4.27 1.386 4.27 3.234 0 .784-.672 1.372-1.806 1.372-.952 0-1.75-.448-2.184-.994l-.434.546c.672.742 1.512 1.064 2.604 1.064zM356.58 389c1.666 0 2.674-.966 2.674-2.52 0-1.106-.826-2.142-1.82-2.296.84-.168 1.638-.966 1.638-2.142 0-1.47-1.008-2.38-2.576-2.38h-3.836V389h3.92zm-.182-5.152h-2.94v-3.458h2.94c1.204 0 1.834.784 1.834 1.736 0 .966-.63 1.722-1.834 1.722zm.056 4.424h-2.996v-3.696h2.996c1.302 0 1.96.896 1.96 1.848 0 1.134-.728 1.848-1.96 1.848zm10.07.728v-6.762h-.728v5.152c-.448.602-1.33 1.12-2.198 1.12-.98 0-1.638-.364-1.638-1.68v-4.592h-.728v4.76c0 1.526.742 2.17 2.128 2.17.98 0 1.876-.546 2.436-1.162V389h.728zm2.996 0v-4.928c.308-.588 1.232-1.204 1.918-1.204.14 0 .238 0 .364.028v-.798c-.938 0-1.708.546-2.282 1.302v-1.162h-.728V389h.728zm6.712.168c1.12 0 1.974-.392 2.646-1.092l-.378-.476c-.574.616-1.358.938-2.212.938-1.596 0-2.576-1.218-2.646-2.688h5.656v-.196c0-1.946-1.134-3.584-3.192-3.584-1.876 0-3.262 1.582-3.262 3.542 0 2.086 1.414 3.556 3.388 3.556zm2.324-3.892h-4.914c.056-1.176.854-2.576 2.45-2.576 1.694 0 2.45 1.428 2.464 2.576zm7.649 3.724v-4.76c0-1.512-1.092-2.17-2.464-2.17-1.12 0-1.904.378-2.604 1.134l.406.504c.616-.7 1.274-.994 2.114-.994 1.008 0 1.82.546 1.82 1.554v1.372c-.588-.658-1.358-.966-2.296-.966-1.176 0-2.366.77-2.366 2.24 0 1.456 1.204 2.254 2.366 2.254.938 0 1.694-.308 2.296-.966V389h.728zm-2.772-.406c-1.12 0-1.848-.714-1.848-1.666 0-.966.728-1.68 1.848-1.68.812 0 1.568.322 2.044.938v1.484c-.476.616-1.232.924-2.044.924zm10.339.406v-6.762h-.728v5.152c-.448.602-1.33 1.12-2.198 1.12-.98 0-1.638-.364-1.638-1.68v-4.592h-.728v4.76c0 1.526.742 2.17 2.128 2.17.98 0 1.876-.546 2.436-1.162V389h.728z" fill="#141414"/><path stroke="#1D2838" stroke-opacity=".2" d="M5.5 5.5h627v419H5.5zM203.5 6v419M428.5 5v420M5 256.5h628M5 172.5h628M5 88.5h628M5 340.5h628"/></svg>