<svg xmlns="http://www.w3.org/2000/svg" width="31.9" height="40"><path d="M29.6 10.1c0 2.1-.5 3.7-1.5 5-1 1.2-2.2 2.2-3.7 2.9 1.2.4 2.2.9 3.1 1.5.9.6 1.7 1.2 2.3 2s1.1 1.6 1.5 2.6c.4 1 .5 2.1.5 3.4 0 1.9-.4 3.6-1.2 5.2-.8 1.6-1.9 2.9-3.3 4s-3.1 2-5 2.6-4 .7-6.3.7c-2.2 0-4.2-.3-6.1-.8-1.9-.5-3.6-1.3-5.1-2.3-1.5-1-2.6-2.3-3.5-3.8C.4 31.5 0 29.8 0 27.8c0-1.3.2-2.5.6-3.5s.9-1.9 1.5-2.7c.7-.8 1.4-1.4 2.3-2 .9-.5 1.8-1 2.9-1.4-1.5-.8-2.7-1.8-3.6-3-.9-1.2-1.4-2.8-1.4-4.9 0-1.9.4-3.6 1.2-4.9s2-2.4 3.3-3.1C8.1 1.5 9.6.9 11.2.6 12.9.2 14.5 0 16 0c1.7 0 3.4.2 5 .6 1.6.4 3.1 1 4.3 1.8 1.3.8 2.3 1.9 3.1 3.1.8 1.3 1.2 2.8 1.2 4.6zm-6 16.6c0-1-.3-1.8-.9-2.5-.6-.7-1.3-1.3-2.2-1.7-.9-.4-1.8-.8-2.8-1.1-1-.3-1.9-.5-2.8-.7-.7.2-1.5.5-2.3.7-.8.3-1.5.7-2.2 1.1-.7.5-1.2 1-1.6 1.7s-.6 1.5-.6 2.5c0 .9.2 1.7.6 2.5.4.7.9 1.4 1.6 1.9.7.5 1.5.9 2.4 1.2.9.3 2 .4 3 .4 2.3 0 4.2-.5 5.6-1.6 1.5-1.1 2.2-2.6 2.2-4.4zm-1.1-15c0-.7-.2-1.3-.5-1.8s-.8-1-1.4-1.4-1.3-.7-2-.8c-.8-.2-1.6-.3-2.4-.3-.7 0-1.5.1-2.3.2-.8.2-1.4.4-2 .7-.6.3-1.1.8-1.4 1.3-.4.5-.6 1.2-.6 1.9 0 .8.2 1.5.7 2 .4.5 1 1 1.7 1.4.7.4 1.4.6 2.2.8.8.2 1.5.4 2.3.5.6-.1 1.2-.3 1.9-.5s1.3-.5 1.9-.8c.6-.4 1.1-.8 1.5-1.3.2-.5.4-1.1.4-1.9z" fill="#92c9ec" opacity=".5"/></svg>