<svg width="148" height="24" viewBox="0 0 148 24" fill="none" xmlns="http://www.w3.org/2000/svg">
<path d="M30.5981 1.25454L24.4243 23.2108H20.1985L15.9099 7.85368C15.7319 7.2004 15.6219 6.48588 15.58 5.71011H15.5172C15.4648 6.43484 15.3391 7.13916 15.1401 7.82306L10.8358 23.2108H6.51574L0.216309 1.25454H4.31644L8.40085 17.3313C8.56842 18.005 8.67315 18.7093 8.71504 19.4443H8.79358C8.83548 18.9237 8.9821 18.2194 9.23345 17.3313L13.852 1.25454H17.7008L21.9737 17.4538C22.1203 18.005 22.2303 18.6583 22.3036 19.4137H22.3664C22.3978 18.9033 22.5183 18.2296 22.7277 17.3926L26.7336 1.25454H30.5981Z" fill="#7E7E7E"/>
<path d="M39.6309 23.5783C37.1489 23.5783 35.1643 22.8485 33.6771 21.3888C32.2004 19.9189 31.4621 17.9744 31.4621 15.5552C31.4621 12.9217 32.2319 10.8649 33.7714 9.38481C35.3214 7.90472 37.4055 7.16468 40.0237 7.16468C42.5372 7.16468 44.4956 7.88431 45.8989 9.32356C47.3023 10.7628 48.004 12.7584 48.004 15.3103C48.004 17.8111 47.2447 19.8169 45.7261 21.3276C44.2181 22.8281 42.1863 23.5783 39.6309 23.5783ZM39.8037 9.99726C38.3794 9.99726 37.2536 10.4821 36.4262 11.4518C35.5989 12.4215 35.1852 13.7587 35.1852 15.4634C35.1852 17.1068 35.6041 18.4031 36.4419 19.3524C37.2798 20.2915 38.4004 20.761 39.8037 20.761C41.2385 20.761 42.3382 20.2966 43.1027 19.3677C43.8777 18.4388 44.2652 17.117 44.2652 15.4021C44.2652 13.6771 43.8777 12.345 43.1027 11.4059C42.3382 10.4668 41.2385 9.99726 39.8037 9.99726Z" fill="#7E7E7E"/>
<path d="M61.0584 10.9159C60.6186 10.5791 59.985 10.4107 59.1576 10.4107C58.0789 10.4107 57.1782 10.8853 56.4556 11.8346C55.733 12.7839 55.3717 14.0751 55.3717 15.7083V23.2108H51.7271V7.53215H55.3717V10.7628H55.4345C55.7906 9.66041 56.3352 8.80298 57.0683 8.19053C57.8118 7.56787 58.6392 7.25655 59.5503 7.25655C60.2101 7.25655 60.7128 7.35352 61.0584 7.54746V10.9159Z" fill="#7E7E7E"/>
<path d="M77.9773 23.2108H74.3328V20.5467H74.2699C73.097 22.5678 71.2904 23.5783 68.8502 23.5783C66.8709 23.5783 65.2842 22.8791 64.0903 21.4807C62.9069 20.072 62.3152 18.1581 62.3152 15.739C62.3152 13.1463 62.9697 11.069 64.2788 9.5073C65.5984 7.94555 67.3526 7.16468 69.5414 7.16468C71.7093 7.16468 73.2855 8.0119 74.2699 9.70634H74.3328V-0.000976562H77.9773V23.2108ZM74.3799 16.0452V13.9935C74.3799 12.8809 74.0081 11.9367 73.2645 11.1609C72.521 10.3851 71.5732 9.99726 70.4212 9.99726C69.0597 9.99726 67.9862 10.4923 67.2008 11.4824C66.4258 12.4726 66.0383 13.8455 66.0383 15.6012C66.0383 17.1935 66.4101 18.4542 67.1536 19.383C67.9077 20.3017 68.9183 20.761 70.1855 20.761C71.4318 20.761 72.4424 20.317 73.2174 19.429C73.9924 18.5307 74.3799 17.4028 74.3799 16.0452Z" fill="#7E7E7E"/>
<path d="M96.043 23.2108H81.9047V21.5113C81.9047 20.8172 82.0042 20.169 82.2031 19.5668C82.4021 18.9543 82.6692 18.3827 83.0043 17.8519C83.3394 17.3109 83.7322 16.8056 84.1825 16.3361C84.6328 15.8564 85.1146 15.397 85.6278 14.9581C86.1409 14.509 86.6646 14.0802 87.1987 13.6719C87.7328 13.2534 88.2564 12.8349 88.7696 12.4164C89.2514 12.0183 89.6912 11.6305 90.0892 11.2528C90.4872 10.8649 90.8275 10.4668 91.1103 10.0585C91.3931 9.6502 91.613 9.22149 91.7701 8.77236C91.9272 8.31302 92.0057 7.81796 92.0057 7.28717C92.0057 6.70534 91.9115 6.20007 91.723 5.77136C91.5449 5.33243 91.2883 4.97007 90.9532 4.68426C90.6285 4.38824 90.2411 4.16878 89.7907 4.02588C89.3404 3.87276 88.8482 3.79621 88.314 3.79621C87.3924 3.79621 86.4551 4.00546 85.5021 4.42397C84.5491 4.84247 83.6327 5.47024 82.753 6.30725V2.89284C83.2138 2.556 83.6798 2.26509 84.1511 2.02011C84.6224 1.76492 85.1094 1.55566 85.612 1.39234C86.1147 1.21882 86.6436 1.09122 87.1987 1.00956C87.7538 0.927905 88.3455 0.887074 88.9738 0.887074C89.9897 0.887074 90.9113 1.01977 91.7387 1.28517C92.566 1.54035 93.2729 1.92313 93.8594 2.43351C94.4459 2.93368 94.8962 3.56144 95.2104 4.31679C95.5351 5.07214 95.6974 5.93978 95.6974 6.9197C95.6974 7.80775 95.5822 8.60904 95.3518 9.32356C95.1319 10.0279 94.8125 10.6863 94.3935 11.2987C93.9851 11.9112 93.4876 12.493 92.9012 13.0442C92.3147 13.5954 91.6601 14.1619 90.9375 14.7437C90.3301 15.2235 89.7226 15.693 89.1152 16.1524C88.5183 16.6015 87.9789 17.0455 87.4972 17.4844C87.0154 17.9132 86.6227 18.347 86.319 18.7859C86.0257 19.2146 85.8791 19.6484 85.8791 20.0874V20.1639H96.043V23.2108Z" fill="#7E7E7E"/>
<path d="M118.68 1.25454L110.59 23.2108H106.411L98.4623 1.25454H102.547L108.108 17.9132C108.286 18.4439 108.422 19.0615 108.516 19.7658H108.579C108.652 19.184 108.804 18.5562 109.035 17.8825L114.721 1.25454H118.68Z" fill="#7E7E7E"/>
<path d="M132.803 16.3361H121.838C121.88 17.7856 122.335 18.9033 123.204 19.6893C124.084 20.4752 125.289 20.8682 126.818 20.8682C128.535 20.8682 130.111 20.3681 131.546 19.3677V22.2309C130.08 23.1292 128.142 23.5783 125.734 23.5783C123.367 23.5783 121.508 22.8689 120.157 21.4501C118.816 20.021 118.146 18.0152 118.146 15.4327C118.146 12.9932 118.884 11.0078 120.361 9.47667C121.848 7.93534 123.691 7.16468 125.891 7.16468C128.09 7.16468 129.792 7.85368 130.996 9.23169C132.201 10.6097 132.803 12.5236 132.803 14.9734V16.3361ZM129.284 13.8251C129.273 12.5491 128.964 11.559 128.357 10.8547C127.75 10.1402 126.912 9.7829 125.844 9.7829C124.796 9.7829 123.906 10.1555 123.173 10.9006C122.45 11.6458 122.005 12.6206 121.838 13.8251H129.284Z" fill="#7E7E7E"/>
<path d="M147.789 22.4912C146.501 23.2159 144.978 23.5783 143.218 23.5783C140.83 23.5783 138.903 22.8536 137.437 21.4041C135.971 19.9445 135.238 18.0561 135.238 15.739C135.238 13.1565 136.023 11.0844 137.594 9.52261C139.176 7.95065 141.286 7.16468 143.925 7.16468C145.391 7.16468 146.685 7.41476 147.805 7.91493V11.2222C146.685 10.4056 145.491 9.99726 144.223 9.99726C142.684 9.99726 141.422 10.5076 140.438 11.5284C139.453 12.5389 138.961 13.8659 138.961 15.5093C138.961 17.1323 139.422 18.4133 140.343 19.3524C141.275 20.2915 142.522 20.761 144.082 20.761C145.391 20.761 146.627 20.3068 147.789 19.3983V22.4912Z" fill="#7E7E7E"/>
</svg>
