<svg width="131" height="29" viewBox="0 0 131 29" fill="none" xmlns="http://www.w3.org/2000/svg">
<path d="M0 28.1521V-0.000976562H9.86133C13.2773 -0.000976562 15.8684 0.656445 17.6344 1.97129C19.4004 3.27324 20.2834 5.1875 20.2834 7.71406C20.2834 9.09336 19.9289 10.3115 19.2199 11.3686C18.5109 12.4127 17.5248 13.1797 16.2615 13.6695C17.7053 14.0305 18.8396 14.7588 19.6646 15.8545C20.5025 16.9502 20.9215 18.2908 20.9215 19.8764C20.9215 22.5834 20.0578 24.633 18.3305 26.0252C16.6031 27.4174 14.141 28.1264 10.9441 28.1521H0ZM5.80078 15.8932V23.4922H10.7701C12.1365 23.4922 13.2 23.1699 13.9605 22.5254C14.734 21.868 15.1207 20.9656 15.1207 19.8184C15.1207 17.2402 13.7865 15.9318 11.1182 15.8932H5.80078ZM5.80078 11.7939H10.0934C13.0195 11.7424 14.4826 10.5758 14.4826 8.29414C14.4826 7.01797 14.1088 6.10273 13.3611 5.54844C12.6264 4.98125 11.4598 4.69766 9.86133 4.69766H5.80078V11.7939Z" fill="#232F3E"/>
<path d="M54.7037 15.9512H43.5662V23.4922H56.6373V28.1521H37.7654V-0.000976562H56.5986V4.69766H43.5662V11.4072H54.7037V15.9512Z" fill="#232F3E"/>
<path d="M82.9365 17.8461H78.3152V28.1521H72.5144V-0.000976562H82.9752C86.3009 -0.000976562 88.8662 0.740234 90.6709 2.22266C92.4756 3.70508 93.3779 5.79981 93.3779 8.50684C93.3779 10.4275 92.9589 12.0324 92.1211 13.3215C91.2961 14.5977 90.0392 15.616 88.3505 16.3766L94.4414 27.8814V28.1521H88.2152L82.9365 17.8461ZM78.3152 13.1475H82.9945C84.4511 13.1475 85.5791 12.7801 86.3783 12.0453C87.1775 11.2977 87.5771 10.2729 87.5771 8.9709C87.5771 7.64317 87.1968 6.59902 86.4363 5.83848C85.6886 5.07793 84.5349 4.69766 82.9752 4.69766H78.3152V13.1475Z" fill="#232F3E"/>
<path d="M130.505 4.69766H121.881V28.1521H116.081V4.69766H107.573V-0.000976562H130.505V4.69766Z" fill="#232F3E"/>
</svg>
