<svg width="72" height="72" viewBox="0 0 72 72" fill="none" xmlns="http://www.w3.org/2000/svg">
<path d="M0.650465 42.4434C7.1597 55.1068 25.0941 65.6331 33.2307 69.0603C33.995 68.5178 35.5784 65.9506 35.9335 62.045C36.3773 57.1631 34.75 56.0536 34.75 50.7278C34.75 45.4021 37.4129 44.5884 38.6703 43.7748C43.9591 49.0635 48.5081 48.9526 52.6504 48.9526C58.6418 54.944 62.4142 54.6482 65.1511 54.6482C67.3406 54.6482 69.8111 53.4154 70.7727 52.799C70.748 52.5524 70.7135 51.793 70.7727 50.7278C70.8467 49.3964 71.8083 48.7307 71.8083 46.6596C72.6959 40.1503 70.3289 40.0764 68.2578 38.0792C57.7542 26.762 58.6418 24.1731 58.272 21.6582C57.9761 19.6462 56.8666 18.5022 56.3488 18.1816L49.6916 13.0038C50.4747 10.1526 51.6873 4.66481 50.035 2.59899C49.2379 1.60233 48.0788 2.02643 47.0768 2.59901C46.0749 3.17159 40.5935 7.6288 38.6703 10.193C38.6703 8.6397 36.8951 5.01524 35.4897 4.4235C10.0445 10.0451 1.02032 35.6383 0.650465 36.8218C0.280613 38.0053 -0.606992 40.0764 0.650465 42.4434Z" fill="#92C9EC"/>
<circle cx="50.794" cy="24.1773" r="2.68949" fill="white"/>
</svg>
