<svg width="101" height="100" viewBox="0 0 101 100" fill="none" xmlns="http://www.w3.org/2000/svg">
<path fill-rule="evenodd" clip-rule="evenodd" d="M50.8247 100C78.3799 100 100.718 77.6142 100.718 50C100.718 22.3858 78.3799 0 50.8247 0C23.2695 0 0.931641 22.3858 0.931641 50C0.931641 77.6142 23.2695 100 50.8247 100Z" fill="white"/>
<g clip-path="url(#clip0)">
<rect x="25.5" y="27.3657" width="37.4861" height="27.5556" rx="2.5" stroke="#92C9EC" stroke-width="3"/>
<path d="M36.5139 37.4331C32.3426 41.7804 24.2944 50.5494 24 50.8475V52.4368C24 54.6459 25.7909 56.4368 28 56.4368H60.4861C62.6952 56.4368 64.4861 54.6459 64.4861 52.4368V51.5927L54.9167 41.5319L47.1875 49.357L36.5139 37.4331Z" fill="#92C9EC"/>
<ellipse cx="48.3431" cy="34.931" rx="3.71811" ry="3.71811" fill="#103654"/>
<rect x="37.0137" y="39.9258" width="43.4861" height="33.5556" rx="5.5" fill="#92C9EC" stroke="white" stroke-width="3"/>
<path d="M63.8546 54.2803L57.1068 50.9064C55.777 50.2415 54.2124 51.2085 54.2124 52.6952V59.4431C54.2124 60.9298 55.777 61.8968 57.1068 61.2319L63.8546 57.858C65.3287 57.1209 65.3287 55.0173 63.8546 54.2803Z" fill="#103654"/>
</g>
<defs>
<clipPath id="clip0">
<path d="M24 21H79V76H24V21Z" fill="white"/>
</clipPath>
</defs>
</svg>
