<svg width="72" height="72" viewBox="0 0 72 72" fill="none" xmlns="http://www.w3.org/2000/svg">
<g clip-path="url(#clip0)">
<path d="M0 0H72V72H0V0Z" fill="white"/>
<path d="M9.85425 49C14.9817 27.4242 29.0615 20.6983 35.4604 20.0324C41.8594 20.6983 55.9392 27.4242 61.0667 49C66.6457 45.1472 73.6552 10.4718 43.0422 13.4684L43.0805 13.435C45.4316 11.382 54.5491 3.42069 65.9304 18.6055C65.9304 12.6122 61.0667 -10.9329 35.4604 6.04808C9.85425 -10.9329 4.9905 12.6122 4.9905 18.6055C16.3718 3.42069 25.4893 11.382 27.8404 13.435L27.8787 13.4684C-2.73427 10.4718 4.27525 45.1472 9.85425 49Z" fill="#92C9EC"/>
<path fill-rule="evenodd" clip-rule="evenodd" d="M39.9194 26.6233C39.3471 55.0317 32.9379 69.7373 29.6593 72H2.96045C24.1001 64.807 30.3783 40.1444 31.1547 26.5477C32.8614 25.7132 34.3608 25.2624 35.4605 25.0769C36.5929 25.2679 38.1493 25.7403 39.9194 26.6233Z" fill="#92C9EC"/>
</g>
<defs>
<clipPath id="clip0">
<path d="M0 0H72V72H0V0Z" fill="white"/>
</clipPath>
</defs>
</svg>
