<svg width="101" height="100" viewBox="0 0 101 100" fill="none" xmlns="http://www.w3.org/2000/svg">
<path fill-rule="evenodd" clip-rule="evenodd" d="M50.8247 100C78.3799 100 100.718 77.6142 100.718 50C100.718 22.3858 78.3799 0 50.8247 0C23.2695 0 0.931641 22.3858 0.931641 50C0.931641 77.6142 23.2695 100 50.8247 100Z" fill="white"/>
<path d="M27.0557 63.7778C27.0557 61.6683 28.7657 59.9583 30.8751 59.9583V59.9583C32.9845 59.9583 34.6946 61.6683 34.6946 63.7778V76H27.0557V63.7778Z" fill="#92C9EC"/>
<path d="M40.8057 52.3194C40.8057 50.21 42.5157 48.5 44.6251 48.5V48.5C46.7345 48.5 48.4446 50.21 48.4446 52.3194V76H40.8057V52.3194Z" fill="#92C9EC"/>
<path d="M54.5557 57.6667C54.5557 55.5573 56.2657 53.8472 58.3751 53.8472V53.8472C60.4845 53.8472 62.1945 55.5573 62.1945 57.6667V76H54.5557V57.6667Z" fill="#92C9EC"/>
<path d="M68.3057 45.4444C68.3057 43.335 70.0157 41.625 72.1251 41.625V41.625C74.2345 41.625 75.9445 43.335 75.9445 45.4444V76H68.3057V45.4444Z" fill="#92C9EC"/>
<path d="M25.5278 51.1736C33.1667 45.0625 39.2778 38.5695 45.007 38.5695C50.7362 38.5695 51.882 41.625 57.9931 41.625C64.1042 41.625 70.9792 27.875 76.7084 23.2917" stroke="#92C9EC" stroke-width="4"/>
<path d="M77.8541 29.4028V22.1458H70.5972" stroke="#92C9EC" stroke-width="3" stroke-linecap="round"/>
</svg>
