<svg width="72" height="72" viewBox="0 0 72 72" fill="none" xmlns="http://www.w3.org/2000/svg">
<rect x="1.5" y="1.5" width="69" height="52" rx="4.5" stroke="#92C9EC" stroke-width="3"/>
<path d="M24.3889 9H25.3889V7H24.3889V9ZM17 8V7C16.4477 7 16 7.44772 16 8L17 8ZM16 15.5833V16.5833H18L18 15.5833H16ZM24.3889 7H17V9H24.3889V7ZM18 15.5833L18 8L16 8L16 15.5833H18Z" fill="#103654"/>
<path d="M18 39.4167L18 38.4167L16 38.4167L16 39.4167L18 39.4167ZM17 47L16 47C16 47.5523 16.4477 48 17 48L17 47ZM24.3889 48L25.3889 48L25.3889 46L24.3889 46L24.3889 48ZM16 39.4167L16 47L18 47L18 39.4167L16 39.4167ZM24.3889 46L17 46L17 48L24.3889 48L24.3889 46Z" fill="#103654"/>
<path d="M47.6111 9H46.6111V7H47.6111V9ZM55 8V7C55.5523 7 56 7.44772 56 8L55 8ZM56 15.5833V16.5833H54L54 15.5833H56ZM47.6111 7H55V9H47.6111V7ZM54 15.5833L54 8L56 8L56 15.5833H54Z" fill="#103654"/>
<path d="M54 39.4167L54 38.4167L56 38.4167L56 39.4167L54 39.4167ZM55 47L56 47C56 47.5523 55.5523 48 55 48L55 47ZM47.6111 48L46.6111 48L46.6111 46L47.6111 46L47.6111 48ZM56 39.4167L56 47L54 47L54 39.4167L56 39.4167ZM47.6111 46L55 46L55 48L47.6111 48L47.6111 46Z" fill="#103654"/>
<path d="M24.125 40.1418C25.1969 39.6553 26.3079 39.2542 27.3576 38.9496C30.5136 38.033 31.5268 35.9932 31.3028 35.0441C31.1926 34.5772 30.9688 34.4114 30.6864 34.2021C30.3948 33.9861 30.0408 33.7238 29.6847 33.0359C29.0859 31.882 28.6794 29.1863 28.6794 29.1863C28.6794 29.1863 27.2403 28.6956 27.0807 26.4708C26.9202 24.2451 27.0807 23.4269 27.6239 23.1652C28.168 22.9036 28.3919 22.9361 28.3919 22.9361C28.3919 22.9361 28.242 22.0872 28.108 20.973C28.108 20.973 27.6786 16.9475 28.1239 16.0967C28.5453 15.2922 28.9065 15.1828 29.2935 15.0657C29.5834 14.9779 29.8878 14.8858 30.2428 14.4936C30.3865 14.3347 30.5072 14.166 30.6292 13.9953C31.2112 13.1813 31.8255 12.3224 35.1254 12.2679C39.1173 12.203 42.5564 13.512 43.3862 16.5875C43.5725 17.2799 43.5594 17.9521 43.5463 18.6287C43.5432 18.7879 43.5401 18.9473 43.5396 19.1073C43.5369 19.7704 43.1816 22.9361 43.1816 22.9361C43.1816 22.9361 43.4055 22.9036 43.9496 23.1652C44.4937 23.4269 44.6533 24.2451 44.4937 26.4708C44.3332 28.6956 42.8941 29.1863 42.8941 29.1863C42.8941 29.1863 42.4876 31.882 41.8897 33.0359C41.5333 33.7236 41.1793 33.986 40.8879 34.202C40.6055 34.4113 40.3818 34.577 40.2716 35.0441C40.0476 35.9932 41.0599 38.033 44.2159 38.9496C45.2111 39.2384 46.2614 39.6139 47.2812 40.0668C43.8386 41.3765 39.8523 42.125 35.6033 42.125C31.4363 42.125 27.5217 41.4051 24.125 40.1418Z" fill="#92C9EC"/>
</svg>
