<svg width="452" height="294" viewBox="0 0 452 294" fill="none" xmlns="http://www.w3.org/2000/svg">
<g clip-path="url(#clip0)">
<circle cx="1.45652" cy="244.227" r="1.45652" fill="#FF9C00"/>
<circle cx="13.1084" cy="244.227" r="1.45652" fill="#FF9C00"/>
<circle cx="24.7607" cy="244.227" r="1.45652" fill="#FF9C00"/>
<circle cx="36.4131" cy="244.227" r="1.45652" fill="#FF9C00"/>
<circle cx="48.0649" cy="244.227" r="1.45652" fill="#FF9C00"/>
<circle cx="59.7173" cy="244.227" r="1.45652" fill="#FF9C00"/>
<circle cx="71.3701" cy="244.227" r="1.45652" fill="#FF9C00"/>
<circle cx="83.0215" cy="244.227" r="1.45652" fill="#FF9C00"/>
<circle cx="1.45652" cy="255.879" r="1.45652" fill="#FF9C00"/>
<circle cx="13.1084" cy="255.879" r="1.45652" fill="#FF9C00"/>
<circle cx="24.7607" cy="255.879" r="1.45652" fill="#FF9C00"/>
<circle cx="36.4131" cy="255.879" r="1.45652" fill="#FF9C00"/>
<circle cx="48.0649" cy="255.879" r="1.45652" fill="#FF9C00"/>
<circle cx="59.7173" cy="255.879" r="1.45652" fill="#FF9C00"/>
<circle cx="71.3701" cy="255.879" r="1.45652" fill="#FF9C00"/>
<circle cx="83.0215" cy="255.879" r="1.45652" fill="#FF9C00"/>
<circle cx="1.45652" cy="267.531" r="1.45652" fill="#FF9C00"/>
<circle cx="13.1084" cy="267.531" r="1.45652" fill="#FF9C00"/>
<circle cx="24.7607" cy="267.531" r="1.45652" fill="#FF9C00"/>
<circle cx="36.4131" cy="267.531" r="1.45652" fill="#FF9C00"/>
<circle cx="48.0649" cy="267.531" r="1.45652" fill="#FF9C00"/>
<circle cx="59.7173" cy="267.531" r="1.45652" fill="#FF9C00"/>
<circle cx="71.3701" cy="267.531" r="1.45652" fill="#FF9C00"/>
<circle cx="83.0215" cy="267.531" r="1.45652" fill="#FF9C00"/>
<circle cx="94.6738" cy="244.227" r="1.45652" fill="#FF9C00"/>
<circle cx="94.6738" cy="255.879" r="1.45652" fill="#FF9C00"/>
<circle cx="94.6738" cy="267.531" r="1.45652" fill="#FF9C00"/>
</g>
<path d="M75.0962 150.844L27 174.044V272H450V179.2H404.37L353.808 150.844L308.178 185.644L262.548 163.733H215.685L167.589 98L120.726 168.889L75.0962 150.844Z" fill="url(#paint0_linear)"/>
<path d="M27 174.353L75.0962 151.059L120.726 169.176L167.589 98L215.685 164H262.548L308.178 186L353.808 151.059L404.37 179.529H450" stroke="#92C9EC" stroke-width="2.58415"/>
<path d="M27 208.014L74.6792 239L121.136 192.522L167.592 198.977L214.049 124.095L260.506 149.917L309.408 129.26H354.642L399.876 106L450 129.26" stroke="#FF9C00" stroke-width="2.58415"/>
<path d="M74.6792 238.777L27 207.844V271H450V129.221L399.876 106L354.642 129.221H309.408L260.506 149.843L214.049 124.065L167.592 198.821L121.136 192.377L74.6792 238.777Z" fill="url(#paint1_linear)"/>
<line x1="222" y1="68" x2="222" y2="294" stroke="url(#paint2_linear)" stroke-width="2"/>
<g filter="url(#filter0_ddd)">
<rect x="236.884" y="14" width="197.527" height="75.6718" rx="8.78646" fill="white"/>
</g>
<path d="M316.55 52.3538H314.237V42.1724L312.082 44.4064L310.738 43.0028L314.534 39.1675H316.55V52.3538ZM328.489 52.3538H318.94V50.535C321.695 48.4526 323.566 46.9105 324.554 45.9089C325.556 44.8941 326.057 43.9385 326.057 43.0423C326.057 42.3965 325.82 41.9023 325.345 41.5596C324.884 41.2037 324.324 41.0258 323.665 41.0258C322.215 41.0258 321.029 41.553 320.106 42.6074L318.762 41.0851C319.329 40.3998 320.04 39.8792 320.897 39.5233C321.767 39.1543 322.676 38.9698 323.625 38.9698C324.97 38.9698 326.103 39.3322 327.026 40.0571C327.948 40.782 328.41 41.7771 328.41 43.0423C328.41 44.1758 327.935 45.3026 326.986 46.4229C326.037 47.5432 324.587 48.8414 322.637 50.3175H328.489V52.3538ZM333.623 51.6025C333.623 52.2615 333.452 52.8875 333.109 53.4806C332.78 54.0869 332.332 54.5877 331.765 54.9831L330.836 54.2121C331.165 54.0144 331.468 53.7376 331.745 53.3818C332.022 53.0259 332.193 52.6833 332.259 52.3538C332.141 52.3933 332.029 52.4131 331.923 52.4131C331.58 52.4131 331.297 52.301 331.073 52.077C330.849 51.8398 330.737 51.5366 330.737 51.1676C330.737 50.7986 330.869 50.4822 331.132 50.2186C331.396 49.9419 331.712 49.8035 332.081 49.8035C332.503 49.8035 332.865 49.9682 333.169 50.2977C333.472 50.614 333.623 51.049 333.623 51.6025ZM340.011 52.591C338.891 52.591 337.896 52.3933 337.026 51.9979C336.169 51.6025 335.504 51.0885 335.029 50.4559L336.275 48.9336C336.696 49.4213 337.237 49.8101 337.896 50.1C338.555 50.39 339.234 50.535 339.932 50.535C340.789 50.535 341.461 50.357 341.949 50.0012C342.436 49.6322 342.68 49.1379 342.68 48.5185C342.68 47.2796 341.705 46.6601 339.754 46.6601C338.871 46.6601 338.364 46.6667 338.232 46.6799V44.6041C338.39 44.6173 338.898 44.6239 339.754 44.6239C340.571 44.6239 341.224 44.4789 341.711 44.1889C342.212 43.899 342.463 43.4641 342.463 42.8842C342.463 42.2911 342.212 41.8364 341.711 41.5201C341.211 41.1906 340.571 41.0258 339.794 41.0258C338.502 41.0258 337.369 41.5135 336.393 42.4888L335.207 41.0456C336.38 39.6617 337.982 38.9698 340.011 38.9698C341.448 38.9698 342.601 39.2927 343.471 39.9385C344.341 40.5711 344.776 41.4344 344.776 42.5283C344.776 43.3454 344.486 44.0242 343.906 44.5646C343.339 45.0917 342.673 45.4212 341.909 45.553C342.66 45.6189 343.359 45.9352 344.005 46.502C344.65 47.0687 344.973 47.8199 344.973 48.7557C344.973 49.8892 344.519 50.8117 343.609 51.5234C342.713 52.2351 341.514 52.591 340.011 52.591ZM352.154 52.591C351.218 52.591 350.395 52.4131 349.683 52.0572C348.971 51.6882 348.404 51.1874 347.983 50.5547C347.561 49.9221 347.245 49.2104 347.034 48.4196C346.823 47.6157 346.717 46.7392 346.717 45.7903C346.717 43.8001 347.225 42.1659 348.24 40.8874C349.254 39.609 350.684 38.9698 352.53 38.9698C354.058 38.9698 355.324 39.4574 356.325 40.4327L355.238 42.1922C354.5 41.4146 353.597 41.0258 352.53 41.0258C351.475 41.0258 350.632 41.4476 349.999 42.2911C349.366 43.1346 349.05 44.1626 349.05 45.3751C349.05 45.5464 349.057 45.6717 349.07 45.7507C349.399 45.2631 349.887 44.8347 350.533 44.4657C351.179 44.0967 351.871 43.9122 352.609 43.9122C353.861 43.9122 354.909 44.2878 355.752 45.039C356.596 45.7771 357.017 46.8183 357.017 48.1626C357.017 49.4147 356.569 50.4691 355.673 51.3257C354.777 52.1692 353.604 52.591 352.154 52.591ZM352.035 50.535C352.853 50.535 353.498 50.3043 353.973 49.843C354.447 49.3686 354.685 48.8348 354.685 48.2417C354.685 47.4773 354.428 46.8974 353.913 46.502C353.399 46.0934 352.754 45.8891 351.976 45.8891C351.423 45.8891 350.889 46.0341 350.375 46.3241C349.861 46.6008 349.432 46.9764 349.09 47.4509C349.169 48.2944 349.446 49.0193 349.92 49.6256C350.395 50.2318 351.1 50.535 352.035 50.535ZM363.79 52.591C361.668 52.591 360.034 51.9122 358.887 50.5547L360.212 48.9732C361.134 50.0144 362.321 50.535 363.77 50.535C364.587 50.535 365.24 50.3175 365.727 49.8826C366.228 49.4345 366.479 48.8809 366.479 48.2219C366.479 47.5102 366.235 46.9435 365.747 46.5217C365.273 46.0868 364.634 45.8694 363.83 45.8694C362.709 45.8694 361.747 46.2516 360.943 47.016L359.302 46.5415V39.1675H367.942V41.2037H361.615V45.0193C362.38 44.2548 363.375 43.8726 364.601 43.8726C365.76 43.8726 366.749 44.2614 367.566 45.039C368.396 45.8035 368.812 46.8315 368.812 48.1231C368.812 49.4806 368.344 50.5679 367.408 51.3851C366.485 52.189 365.279 52.591 363.79 52.591Z" fill="black"/>
<path d="M315.11 67.5778H313.813L311.552 62.0334H312.837L314.456 66.1888L316.075 62.0334H317.372L315.11 67.5778ZM318.725 61.3561C318.526 61.3561 318.35 61.2834 318.197 61.138C318.052 60.9926 317.979 60.8166 317.979 60.61C317.979 60.4033 318.052 60.2273 318.197 60.0819C318.35 59.9365 318.526 59.8638 318.725 59.8638C318.932 59.8638 319.108 59.9365 319.253 60.0819C319.399 60.2273 319.472 60.4033 319.472 60.61C319.472 60.8166 319.399 60.9926 319.253 61.138C319.108 61.2834 318.932 61.3561 318.725 61.3561ZM319.334 67.5778H318.128V62.0334H319.334V67.5778ZM323.457 67.7155C322.615 67.7155 321.919 67.4477 321.368 66.912C320.825 66.3686 320.553 65.6646 320.553 64.7998C320.553 63.9886 320.817 63.3037 321.345 62.7451C321.881 62.1788 322.554 61.8956 323.365 61.8956C324.184 61.8956 324.842 62.1788 325.34 62.7451C325.845 63.3114 326.097 64.0345 326.097 64.9146V65.2016H321.816C321.862 65.6378 322.041 66.0013 322.355 66.2921C322.669 66.5829 323.078 66.7283 323.583 66.7283C323.867 66.7283 324.15 66.6747 324.433 66.5676C324.724 66.4605 324.965 66.3112 325.156 66.1199L325.707 66.912C325.148 67.4477 324.398 67.7155 323.457 67.7155ZM324.926 64.3521C324.911 63.9695 324.77 63.629 324.502 63.3305C324.242 63.032 323.863 62.8828 323.365 62.8828C322.891 62.8828 322.52 63.032 322.252 63.3305C321.984 63.6213 321.835 63.9618 321.804 64.3521H324.926ZM333.382 67.5778H332.12L330.834 63.5142L329.548 67.5778H328.286L326.564 62.0334H327.815L328.986 66.0625L330.306 62.0334H331.362L332.682 66.0625L333.853 62.0334H335.104L333.382 67.5778ZM338.501 67.7155C337.659 67.7155 336.963 67.4477 336.412 66.912C335.869 66.3686 335.597 65.6646 335.597 64.7998C335.597 63.9886 335.861 63.3037 336.389 62.7451C336.925 62.1788 337.598 61.8956 338.409 61.8956C339.228 61.8956 339.886 62.1788 340.384 62.7451C340.889 63.3114 341.141 64.0345 341.141 64.9146V65.2016H336.86C336.905 65.6378 337.085 66.0013 337.399 66.2921C337.713 66.5829 338.122 66.7283 338.627 66.7283C338.91 66.7283 339.194 66.6747 339.477 66.5676C339.768 66.4605 340.009 66.3112 340.2 66.1199L340.751 66.912C340.192 67.4477 339.442 67.7155 338.501 67.7155ZM339.97 64.3521C339.955 63.9695 339.813 63.629 339.546 63.3305C339.285 63.032 338.907 62.8828 338.409 62.8828C337.935 62.8828 337.564 63.032 337.296 63.3305C337.028 63.6213 336.879 63.9618 336.848 64.3521H339.97ZM343.536 67.5778H342.331V62.0334H343.536V62.8484C343.751 62.5729 344.018 62.3471 344.34 62.1711C344.661 61.9951 344.994 61.9071 345.338 61.9071V63.1009C345.231 63.078 345.105 63.0665 344.96 63.0665C344.707 63.0665 344.435 63.143 344.145 63.2961C343.861 63.4415 343.659 63.6098 343.536 63.8011V67.5778ZM348.205 67.7155C347.21 67.7155 346.418 67.4285 345.828 66.8546L346.379 65.9822C346.586 66.1964 346.865 66.3801 347.217 66.5332C347.569 66.6862 347.918 66.7627 348.262 66.7627C348.614 66.7627 348.882 66.6939 349.065 66.5561C349.257 66.4184 349.352 66.2385 349.352 66.0166C349.352 65.8176 349.238 65.6646 349.008 65.5574C348.779 65.4426 348.499 65.3546 348.17 65.2934C347.841 65.2245 347.512 65.1442 347.183 65.0524C346.854 64.9529 346.575 64.7807 346.345 64.5358C346.115 64.2909 346.001 63.9733 346.001 63.583C346.001 63.1086 346.196 62.7106 346.586 62.3892C346.976 62.0601 347.508 61.8956 348.182 61.8956C349.031 61.8956 349.75 62.1558 350.34 62.6762L349.835 63.5256C349.659 63.3267 349.425 63.166 349.134 63.0435C348.844 62.9211 348.53 62.8599 348.193 62.8599C347.879 62.8599 347.627 62.9249 347.435 63.055C347.252 63.1774 347.16 63.3381 347.16 63.5371C347.16 63.6902 347.24 63.8164 347.401 63.9159C347.569 64.0078 347.776 64.0766 348.021 64.1226C348.273 64.1685 348.545 64.2335 348.836 64.3177C349.127 64.3942 349.395 64.4861 349.639 64.5932C349.892 64.7003 350.099 64.8763 350.259 65.1212C350.428 65.3585 350.512 65.6493 350.512 65.9936C350.512 66.4987 350.309 66.912 349.903 67.2334C349.498 67.5548 348.932 67.7155 348.205 67.7155Z" fill="#C9C9C9"/>
<path d="M382.834 52.9328L391.613 44.1592L397.649 49.0944L406.428 39.2241M406.428 39.2241H400.941M406.428 39.2241V45.2559" stroke="#3ADC48" stroke-width="2.19662"/>
<ellipse cx="274.195" cy="52.3844" rx="21.9474" ry="21.9339" fill="#92C9EC"/>
<path d="M271.05 62.7062C264.783 62.7062 261.37 61.6161 261.345 61.3947C261.262 60.658 261.163 59.0229 261.822 58.0563C262.652 56.7746 264.647 55.8037 266.384 55.3012C268.122 54.7988 268.661 53.6874 268.537 53.1721C268.412 52.6569 268.035 52.8145 267.653 52.0778C267.396 51.4022 267.218 50.6975 267.123 49.9785C267.123 49.9785 266.339 49.7102 266.252 48.5009C266.165 47.2916 266.252 46.8445 266.546 46.704C266.674 46.6321 266.815 46.5886 266.961 46.5762C266.961 46.5762 266.878 46.1163 266.807 45.5117C266.807 45.5117 266.563 43.3187 266.807 42.8546C267.21 42.0881 267.452 42.6701 267.96 42.0541C268.469 41.438 268.672 40.7723 270.777 40.7723C272.881 40.7723 274.683 41.4877 275.127 43.1229C275.217 43.5738 275.244 44.0352 275.21 44.494C275.21 44.873 275.015 46.5762 275.015 46.5762C275.161 46.5886 275.302 46.6321 275.43 46.704C275.725 46.8445 275.812 47.2916 275.725 48.5009C275.637 49.7102 274.854 49.9785 274.854 49.9785C274.753 50.6967 274.569 51.4 274.306 52.0735C273.924 52.8102 273.543 52.6484 273.423 53.1679C273.302 53.6874 273.871 54.7988 275.575 55.297C277.28 55.7952 279.308 56.7746 280.137 58.052C280.772 59.0229 280.672 60.658 280.59 61.3947C280.59 61.6161 277.317 62.7062 271.05 62.7062Z" fill="white"/>
<path fill-rule="evenodd" clip-rule="evenodd" d="M272.948 59.2772C272.966 59.4205 275.469 60.1258 280.065 60.1258C284.661 60.1258 287.06 59.4205 287.06 59.2772C287.121 58.8005 287.194 57.7425 286.729 57.1143C286.121 56.2877 284.633 55.654 283.383 55.3316C282.133 55.0093 281.716 54.2901 281.805 53.954C281.893 53.6179 282.173 53.7226 282.452 53.2459C282.645 52.8101 282.78 52.355 282.854 51.8903C282.854 51.8903 283.429 51.7167 283.493 50.9342C283.557 50.1517 283.493 49.8624 283.277 49.7715C283.183 49.725 283.079 49.6968 282.973 49.6888C282.973 49.6888 283.116 48.5867 283.116 48.3415C283.141 48.0446 283.12 47.746 283.055 47.4543C282.729 46.3962 281.412 45.9333 279.864 45.9333H279.752C278.155 45.9554 278.13 46.3935 277.799 46.7159C277.467 47.0382 277.248 46.7847 276.953 47.2807C276.774 47.581 276.953 49 276.953 49C277.005 49.3912 277.066 49.6888 277.066 49.6888C276.959 49.6968 276.856 49.725 276.762 49.7715C276.546 49.8624 276.482 50.1517 276.546 50.9342C276.61 51.7167 277.185 51.8903 277.185 51.8903C277.254 52.3555 277.385 52.8115 277.574 53.2486C277.854 53.7253 278.13 53.6234 278.222 53.9568C278.313 54.2901 277.918 55.0093 276.643 55.3344C275.369 55.6595 273.906 56.2877 273.298 57.1171C272.814 57.7425 272.887 58.8005 272.948 59.2772Z" fill="white"/>
<path d="M270.755 40.3653C272.958 40.3653 274.836 41.107 275.295 42.8023C275.39 43.2696 275.419 43.7483 275.381 44.224C275.381 44.5992 275.178 46.3829 275.178 46.3829C275.33 46.3952 275.477 46.4403 275.611 46.5153C275.922 46.661 276.013 47.1246 275.922 48.3784C275.831 49.6323 275.009 49.9104 275.009 49.9104C274.903 50.6552 274.709 51.3845 274.433 52.0826C274.035 52.8463 273.641 52.683 273.516 53.2172C273.39 53.7514 273.949 54.9037 275.758 55.4247C277.567 55.9456 279.653 56.9522 280.54 58.2811C281.198 59.2878 281.094 60.9831 281.008 61.7469C280.982 61.9765 277.588 63.1067 271.053 63.1067C264.518 63.1067 260.952 61.9765 260.926 61.7469C260.835 60.9831 260.731 59.2878 261.394 58.2811C262.259 56.9567 264.375 55.9412 266.154 55.4247C267.933 54.9081 268.526 53.7558 268.4 53.2172C268.275 52.6786 267.898 52.8463 267.509 52.0826C267.234 51.3843 267.043 50.6551 266.938 49.9104C266.938 49.9104 266.12 49.6323 266.029 48.3784C265.938 47.1246 266.029 46.661 266.336 46.5153C266.469 46.4406 266.617 46.3954 266.769 46.3829C266.769 46.3829 266.682 45.906 266.609 45.2791C266.609 45.2791 266.362 43.0054 266.609 42.5242C267.041 41.7295 267.34 42.1357 267.812 41.6191C268.284 41.1026 268.318 40.4006 270.59 40.3653H270.75H270.755ZM270.75 39.4823H270.577C268.448 39.5176 267.829 40.1357 267.336 40.8068C267.289 40.8781 267.236 40.946 267.18 41.0099C267.141 41.054 267.141 41.054 267.028 41.0893C266.77 41.1558 266.53 41.2809 266.325 41.4551C266.121 41.6294 265.957 41.8484 265.847 42.0959C265.592 42.5772 265.557 43.6765 265.739 45.363C265.739 45.5175 265.778 45.6632 265.795 45.8045C264.999 46.3343 265.085 47.544 265.15 48.4535C265.163 48.8427 265.259 49.2245 265.43 49.5727C265.601 49.9209 265.843 50.2274 266.141 50.4711C266.25 51.1733 266.449 51.8577 266.734 52.5064C266.924 52.8881 267.203 53.2158 267.548 53.46C267.453 53.7161 267.011 54.268 265.938 54.577C265.025 54.8419 261.952 55.8485 260.675 57.7911C259.874 59.0096 259.948 60.8815 260.065 61.8573C260.143 62.5283 260.809 62.7402 261.342 62.9036C262.015 63.1076 262.7 63.2683 263.393 63.3848C265.924 63.8155 268.487 64.0194 271.053 63.9941C273.592 64.022 276.128 63.8181 278.632 63.3848C281.761 62.8021 281.817 62.2987 281.869 61.8573C281.986 60.8595 282.059 59.0096 281.263 57.7911C279.99 55.8397 276.913 54.8242 276 54.5682C274.927 54.2591 274.485 53.6852 274.39 53.4512C274.735 53.2063 275.016 52.8789 275.208 52.4976C275.491 51.8481 275.69 51.164 275.801 50.4623C276.098 50.2183 276.34 49.9117 276.511 49.5635C276.681 49.2152 276.775 48.8336 276.788 48.4446C276.853 47.5352 276.944 46.3034 276.117 45.7957C276.173 45.2261 276.247 44.4712 276.247 44.2372C276.247 44.1489 276.247 44.065 276.247 43.9811C276.276 43.5096 276.235 43.0363 276.126 42.5772C275.593 40.6125 273.633 39.4867 270.75 39.4867V39.4823Z" fill="#92C9EC"/>
<defs>
<filter id="filter0_ddd" x="219.904" y="0.658596" width="231.487" height="110.845" filterUnits="userSpaceOnUse" color-interpolation-filters="sRGB">
<feFlood flood-opacity="0" result="BackgroundImageFix"/>
<feColorMatrix in="SourceAlpha" type="matrix" values="0 0 0 0 0 0 0 0 0 0 0 0 0 0 0 0 0 0 127 0"/>
<feOffset dy="4.85142"/>
<feGaussianBlur stdDeviation="3.03214"/>
<feColorMatrix type="matrix" values="0 0 0 0 0.317647 0 0 0 0 0.662745 0 0 0 0 0.882353 0 0 0 0.1 0"/>
<feBlend mode="normal" in2="BackgroundImageFix" result="effect1_dropShadow"/>
<feColorMatrix in="SourceAlpha" type="matrix" values="0 0 0 0 0 0 0 0 0 0 0 0 0 0 0 0 0 0 127 0"/>
<feOffset dy="3.63857"/>
<feGaussianBlur stdDeviation="8.48998"/>
<feColorMatrix type="matrix" values="0 0 0 0 0.317647 0 0 0 0 0.662745 0 0 0 0 0.882353 0 0 0 0.02 0"/>
<feBlend mode="normal" in2="effect1_dropShadow" result="effect2_dropShadow"/>
<feColorMatrix in="SourceAlpha" type="matrix" values="0 0 0 0 0 0 0 0 0 0 0 0 0 0 0 0 0 0 127 0"/>
<feOffset dy="9.70284"/>
<feGaussianBlur stdDeviation="6.06427"/>
<feColorMatrix type="matrix" values="0 0 0 0 0.317647 0 0 0 0 0.662745 0 0 0 0 0.882353 0 0 0 0.04 0"/>
<feBlend mode="normal" in2="effect2_dropShadow" result="effect3_dropShadow"/>
<feBlend mode="normal" in="SourceGraphic" in2="effect3_dropShadow" result="shape"/>
</filter>
<linearGradient id="paint0_linear" x1="238.5" y1="98" x2="238.5" y2="272" gradientUnits="userSpaceOnUse">
<stop stop-color="#92C9EC" stop-opacity="0.13"/>
<stop offset="1" stop-color="#92C9EC" stop-opacity="0"/>
</linearGradient>
<linearGradient id="paint1_linear" x1="238.5" y1="94.4202" x2="238.5" y2="271" gradientUnits="userSpaceOnUse">
<stop stop-color="#FF9C00" stop-opacity="0.17"/>
<stop offset="1" stop-color="#FF9C00" stop-opacity="0"/>
</linearGradient>
<linearGradient id="paint2_linear" x1="221" y1="68" x2="221" y2="294" gradientUnits="userSpaceOnUse">
<stop stop-color="#103654" stop-opacity="0"/>
<stop offset="0.208333" stop-color="#103654"/>
<stop offset="0.501872" stop-color="#103654"/>
<stop offset="0.765625" stop-color="#103654"/>
<stop offset="1" stop-color="#103654" stop-opacity="0"/>
</linearGradient>
<clipPath id="clip0">
<rect y="242.77" width="98.9157" height="28.9574" fill="white"/>
</clipPath>
</defs>
</svg>
