<svg xmlns="http://www.w3.org/2000/svg" width="60.35" height="87.28" viewBox="0 0 60.35 87.28"><title>benefit-5</title><path d="M40.65,28.27l0.24-1.88c0-1-3.34-2-8.46-2.52l0.41-1.73c0-1.08-5.68-2-12.68-2s-12.68.88-12.68,2a0.37,0.37,0,0,0,.08.21H7.47L7.61,24C3,24.54,0,25.41,0,26.39l0.37,2.25,0.07,0c0.73,1.62,9.43,2.89,20.08,2.89s19.17-1.25,20.07-2.84h0v0a0.57,0.57,0,0,0,.07-0.23A0.56,0.56,0,0,0,40.65,28.27Z" fill="#283b48"/><path d="M21.36,50.13c0.51,0.22.37,1.67-.38,2.74s-2.19,2.87-2.35,4.64-0.36,3.84-1,3.79-2.79-3.18-.81-7.5S21.36,50.13,21.36,50.13Z" fill="#283b48"/><path d="M18.75,61.65c0.64,0.5,3.46-.94,4.6-4.7s0.37-6.83-1-6.65c-0.62.08,0.23,2.07-.49,3.5s-2,1.84-2.27,3.67S18.1,61.15,18.75,61.65Z" fill="#283b48"/><path d="M19.5,30.74c-10.76,0-17-2.32-17-2.32l0.61,15h0l0,1.21a35.11,35.11,0,0,0,10.75,2.57A8,8,0,0,1,20,44a8,8,0,0,1,6.16,3.19A35.81,35.81,0,0,0,37,44.63l0.07-1.84h0l0.53-14.37A66.11,66.11,0,0,1,19.5,30.74Z" fill="#283b48"/><path d="M26.22,63.57A8,8,0,0,1,20,66.79a8,8,0,0,1-6.18-3.21,33.43,33.43,0,0,1-10-2L4,64.11H4L4.84,82.35S7.73,87.28,20,87.28c14.18,0,15.37-4.08,15.37-4.08L36.2,64.69h0l0.14-3.22A33.13,33.13,0,0,1,26.22,63.57Z" fill="#283b48"/><path d="M40.76,39.68A19.6,19.6,0,0,1,33.59,1.85l0.73,1.86a17.6,17.6,0,1,0,8.75-1.06l0.26-2A19.59,19.59,0,0,1,40.76,39.68Z" fill="#8bc5eb"/><polygon points="34.03 9.2 32.09 8.75 33.36 3.28 28.19 1.94 28.7 0 35.75 1.83 34.03 9.2" fill="#8bc5eb"/><path d="M33.25,24.16c3.66-4.23,4.9-5.57,4.9-7.21a1.75,1.75,0,0,0-1.79-1.86A2.64,2.64,0,0,0,34,16.49l-0.89-.8a3.75,3.75,0,0,1,3.25-1.79,3,3,0,0,1,3.14,3.05c0,1.86-1.37,3.52-4.34,7.11h4.39v1.19H33.25V24.16Z" fill="#d67a62"/><path d="M45.34,22.38H40.93V21.22l4-7.16h1.73v7.14h1.22v1.17H46.66v2.87H45.34V22.38Zm-3.17-1.17h3.17V15.5Z" fill="#d67a62"/></svg>