<svg xmlns="http://www.w3.org/2000/svg" width="51.64" height="67.27" viewBox="0 0 51.64 67.27"><title>benefit-6</title><path d="M49.79,37.32l0-.06h0c-2.87-4.11-12.48-7.13-23.93-7.13-12,0-22.54,3.22-24.22,7.5,0,0-.39.84-0.75,1.92a11.17,11.17,0,0,0,1.08,1.32,12.91,12.91,0,0,0,1.51,1.29c0.5,0.4,1,.72,1.44,1l1.06,0.7c0.27,0.17.42,0.29,0.42,0.29a0.67,0.67,0,0,1-.6,1.18s-0.18-.05-0.48-0.17A11,11,0,0,1,4,44.64,13,13,0,0,1,.67,42.08C0.54,41.94.42,41.79,0.3,41.65A19.77,19.77,0,0,0,0,44.5c0,5.56,11.56,10.07,25.82,10.07S51.64,50.06,51.64,44.5C51.64,43.81,50.33,38.11,49.79,37.32Zm-1,4.22-0.31.3a10.48,10.48,0,0,1-.91.82A17.65,17.65,0,0,1,46,43.79c-0.63.39-1.34,0.83-2.16,1.23A33.85,33.85,0,0,1,38,47.25c-1.09.32-2.22,0.61-3.39,0.85s-2.36.44-3.55,0.59A62.37,62.37,0,0,1,24,49.2c-1.1,0-2.23,0-3.25-.07s-2-.15-2.91-0.29a30,30,0,0,1-5.9-1.32h0a0.67,0.67,0,0,1,.33-1.28l1.59,0.23c1,0.12,2.46.33,4.2,0.45,0.87,0.06,1.81.14,2.82,0.18s2,0.08,3.16.1a60.52,60.52,0,0,0,6.84-.3c1.16-.11,2.32-0.27,3.45-0.47s2.25-.39,3.31-0.65A35.91,35.91,0,0,0,43.3,44c0.81-.33,1.52-0.69,2.15-1A17.76,17.76,0,0,0,47,42a9.87,9.87,0,0,0,1-.7L48.28,41A0.34,0.34,0,0,1,48.74,41.54Z" fill="#283b48"/><path d="M50,50.59a17.68,17.68,0,0,0-2.55,3c-1.38,2.27-5.14,2.16-10.06,2.93s-4.59,1.6-7.79,2.38-8.4-.28-11.33-1.49-8.23-.22-9.84-1.11a81,81,0,0,1-7-5.77,19.38,19.38,0,0,0-1,2.92,6.7,6.7,0,0,0,.39.65,10.86,10.86,0,0,0,1.23,1.42,12.83,12.83,0,0,0,1.53,1.22c0.51,0.38,1,.68,1.45,1l1.07,0.66c0.27,0.16.42,0.27,0.42,0.27a0.61,0.61,0,0,1,.12.89A0.71,0.71,0,0,1,6,59.8l-0.48-.16a11.48,11.48,0,0,1-1.27-.52A13.07,13.07,0,0,1,.84,56.71a10.07,10.07,0,0,1-.75-0.83C0,56.62,0,57.15,0,57.2c0,5.56,11.56,10.07,25.82,10.07S51.64,62.76,51.64,57.2A43.62,43.62,0,0,0,50,50.59Zm-0.75,5.6L49,56.47a10.33,10.33,0,0,1-.92.77,17.83,17.83,0,0,1-1.57,1.08c-0.63.37-1.35,0.78-2.17,1.16a35.56,35.56,0,0,1-5.83,2.1c-1.09.3-2.24,0.58-3.41,0.8s-2.37.41-3.58,0.55a67.1,67.1,0,0,1-7.13.48c-1.11,0-2.25,0-3.28-.07s-2-.15-2.94-0.27a32,32,0,0,1-5.94-1.25h0A0.62,0.62,0,0,1,11.8,61a0.68,0.68,0,0,1,.72-0.4l1.6,0.21c1,0.11,2.48.31,4.23,0.42,0.88,0.06,1.83.13,2.84,0.17s2.05,0.07,3.18.09a65.15,65.15,0,0,0,6.9-.28c1.17-.11,2.34-0.25,3.48-0.44s2.26-.37,3.33-0.61a38,38,0,0,0,5.72-1.71c0.81-.31,1.53-0.65,2.16-1s1.15-.62,1.56-0.9a9.92,9.92,0,0,0,1-.66l0.34-.25a0.36,0.36,0,0,1,.49.05A0.31,0.31,0,0,1,49.29,56.2Z" fill="#283b48"/><path d="M32.12,13a5.62,5.62,0,0,0-4.47,2.19l-0.94,1-2.14,2.38h0l-1.88,2.1a3.06,3.06,0,1,1-2.27-5.11,3.4,3.4,0,0,1,2.73,1.3l0.76,0.92,1.72-2-0.47-.56A6,6,0,0,0,20.42,13a5.66,5.66,0,1,0,4.2,9.45l1.63-1.82,1,1.26a6.6,6.6,0,0,0,4.82,2.43A5.66,5.66,0,1,0,32.12,13Zm0,8.72a4.06,4.06,0,0,1-2.87-1.55L28,18.73l1.61-1.79,0.07-.08A3.06,3.06,0,1,1,32.12,21.77Z" fill="#d67a62"/><path d="M25.82,38.13A19.07,19.07,0,1,1,44.89,19.07,19.09,19.09,0,0,1,25.82,38.13ZM25.82,2A17.07,17.07,0,1,0,42.89,19.07,17.09,17.09,0,0,0,25.82,2Z" fill="#8bc5eb"/></svg>