<svg xmlns="http://www.w3.org/2000/svg" width="81.23" height="97.04" viewBox="0 0 81.23 97.04"><title>benefit-1</title><path d="M80.42,42.33c-2.59-2.17-5.27,1.34-8.38,4.44s-6.82,7.75-6.82,7.75-2.28,2.59-3.72,1.24,0.83-3.51.83-3.51,4.45-5.79,6.1-7.75-2.9-17.16-2.9-17.16l2.25-8.69s-0.6-2.89-2.77-2.48a3.59,3.59,0,0,0-1.79.78c0.73-1.26,1.88-3.76.45-5.12-2-1.86-3.72.31-8,4.86S37.82,36.53,32.86,40.25s-6.62,4.45-6.62,4.45S27,43.46,24.9,41.91a9.16,9.16,0,0,0-4.14-1.76S21.58,35.6,22,32.29s2.89-8.58.93-12-6.62-4.13-6.62-4.13A163.23,163.23,0,0,1,12.8,35.81c-2.48,9.93-3.31,17.37,0,21.71S18,62.9,18,62.9L16.73,92.06s6.72,5.27,18.51,5,18.82-4.76,18.82-4.76S52.3,81.41,55.61,76.14,69.25,60.31,74.11,54.52,83,44.5,80.42,42.33ZM51.26,37.52c-1.91,1.81-2.95.57-2.95,0.57a3.6,3.6,0,0,1,1.29-2.53c1.4-1.45,9.25-10.19,9.25-10.19l-1,4.71S53.18,35.71,51.26,37.52Zm5.79,6.31s-0.83-.72.31-1.76,4.08-4.29,4.08-4.29,0.72,3.05-.62,4.4S57.83,44.75,57.05,43.82Z" fill="#283b48"/><path d="M41.44,1.38A20.68,20.68,0,0,0,21.21,18a6.87,6.87,0,0,1,1.72,2c1-2.59,3.93-4.81,7.93-6.25a36,36,0,0,0-.94,8.31,36,36,0,0,0,.94,8.31c-3.63-1.3-6.35-3.25-7.6-5.53a20.54,20.54,0,0,1-.88,5.22,20.65,20.65,0,0,0,37,2.15l-0.19-1A13.33,13.33,0,0,1,59,29,19,19,0,0,1,47.13,40.1a19,19,0,0,0,4.32-7.7A19.73,19.73,0,0,0,59,28.31c0-.73.06-1.46,0.13-2.18,0-.24.07-0.48,0.11-0.72-1.37,2-3.92,3.77-7.24,5A36,36,0,0,0,53,22.06,36,36,0,0,0,52,13.75c5,1.8,8.34,4.85,8.34,8.31a1.76,1.76,0,0,1,.94-0.51,3.92,3.92,0,0,1,.76-0.45A20.68,20.68,0,0,0,41.44,1.38Zm0,1.75c3.22,0,6.13,3.21,7.92,8a36.45,36.45,0,0,0-15.84,0C35.31,6.34,38.22,3.13,41.44,3.13Zm-18,13A19,19,0,0,1,35.75,4a19,19,0,0,0-4.32,7.7A19.2,19.2,0,0,0,23.46,16.17Zm0,11.77a19.2,19.2,0,0,0,8,4.46,19,19,0,0,0,4.32,7.7A19,19,0,0,1,23.46,27.94Zm18,13c-3.22,0-6.13-3.21-7.92-8a35.46,35.46,0,0,0,7.92.87A35.4,35.4,0,0,0,49.36,33C47.57,37.77,44.66,41,41.44,41ZM50,31a33,33,0,0,1-8.58,1.1A33,33,0,0,1,32.86,31a32.92,32.92,0,0,1-1.2-8.92,33,33,0,0,1,1.2-8.93,34,34,0,0,1,17.15,0,33,33,0,0,1,1.2,8.93A32.93,32.93,0,0,1,50,31Zm1.44-19.28A19,19,0,0,0,47.13,4,19,19,0,0,1,59.42,16.17,19.2,19.2,0,0,0,51.45,11.71Z" fill="#8bc5eb"/><circle cx="2.85" cy="30.11" r="2.85" fill="#d67a62"/><circle cx="67.84" cy="4.23" r="4.23" transform="translate(30.54 61.05) rotate(-60.29)" fill="#d67a62"/></svg>