<svg xmlns="http://www.w3.org/2000/svg" width="81.69" height="75.78" viewBox="0 0 81.69 75.78"><title>benefit-7</title><path d="M45.49,12.29l-2.2-2.2c1.46-2.71,1.92-4.82,1-5.73a1.45,1.45,0,0,0-.37-0.25L44,4,43.65,4a2.51,2.51,0,0,0-.78-0.11L14.79,0l3.89,28.08a2.51,2.51,0,0,0,.11.78l0,0.33,0.06-.06a1.45,1.45,0,0,0,.25.37c0.91,0.91,3,.46,5.74-1l8,8a67.24,67.24,0,0,0,7.85-11.76A60.2,60.2,0,0,0,45.49,12.29Z" fill="#283b48"/><path d="M58.34,25.13l-7.06-7.06a64.4,64.4,0,0,1-4.74,12.11A110.86,110.86,0,0,1,38.36,42l7.31,7.31a77.8,77.8,0,0,0,7.89-11.73A51.7,51.7,0,0,0,58.34,25.13Z" fill="#283b48"/><path d="M78.15,73.22L61.84,56.92a40.9,40.9,0,0,0,5.33-4.53C72.26,47.3,75.24,42,73.83,40.63h0l-9.74-9.74A62,62,0,0,1,59.34,43a119.7,119.7,0,0,1-8.2,11.79L55.41,59c0.62,0.62,2,.38,3.8-0.52L76,75.34A1.5,1.5,0,0,0,78.15,73.22Z" fill="#283b48"/><path d="M67.39,57.55l3.74,6.89,0.36-5.67,5.09,0.45-1-4.57,6.08-.77-7.56-3.07s-0.23,1.3-2.83,4.13S67.39,57.55,67.39,57.55Z" fill="#d67a62"/><path d="M24.6,75.25a24.6,24.6,0,1,1,24.6-24.6A24.63,24.63,0,0,1,24.6,75.25Zm0-47.2a22.6,22.6,0,1,0,22.6,22.6A22.63,22.63,0,0,0,24.6,28.05Z" fill="#8bc5eb"/><path d="M24.6,65.87a14.16,14.16,0,0,1-13-8.58l1.84-.79a12.17,12.17,0,0,0,21.92.93l1.76,0.94A14.15,14.15,0,0,1,24.6,65.87Z" fill="#8bc5eb"/><circle cx="16.52" cy="44.21" r="1.93" fill="#8bc5eb"/><circle cx="31.78" cy="44.21" r="1.93" fill="#8bc5eb"/></svg>