<svg xmlns="http://www.w3.org/2000/svg" width="108.51" height="66.51" viewBox="0 0 108.51 66.51"><title>benefit-4</title><path d="M72.85,41.71A10.87,10.87,0,0,1,70.5,43a11.55,11.55,0,0,0-3.19,1.62c-1.13.76-1.58,1.95-3.25,2.16s-3,.87-3.3,1.95S58.49,50.18,57,50.34s-4.11,3-5.25,3.14-3.17,2.07-4.33,2-2.33,1.3-3.35,1.57-2.54,2.43-3.57,2.38S37,61.92,35.77,61.16a12,12,0,0,0-4-1.89,5.53,5.53,0,0,1-3.19-2.43,5.87,5.87,0,0,0-4.11-2.06c-2-.08-2.38-1.3-3.46-2.33s-3-1.73-3.52-2.11-2.65-.81-4.27-1.57-1.84-1.57-2.71-2.38-1.89-.32-3.73-1.24S4.27,43,2.38,42l-0.65-.38H1a1,1,0,0,0-1,1v3a1,1,0,0,0,.5.86L35.4,66.17a2.58,2.58,0,0,0,2.56,0L72.88,46.08a1,1,0,0,0,.5-0.86V42.56A1,1,0,0,0,72.85,41.71Z" fill="#283b48"/><path d="M1.7,33.73H71.87a1.5,1.5,0,0,1,1.5,1.5v1.85a1.5,1.5,0,0,1-.75,1.3L37.49,58.59a1.62,1.62,0,0,1-1.61,0l-35-19.83A1.7,1.7,0,0,1,0,37.28V35.43A1.7,1.7,0,0,1,1.7,33.73Z" fill="#283b48"/><polygon points="5.89 41.61 30.71 55.67 22.62 59.05 5.89 41.61" fill="#d67a62"/><polygon points="67.32 41.53 42.49 55.59 50.59 58.97 67.32 41.53" fill="#d67a62"/><path d="M78.22,53.19H72.3c-10.85,0-19.68-9.69-19.68-21.6V19.84H97.91V31.59C97.91,43.5,89.08,53.19,78.22,53.19ZM54.62,21.84v9.75c0,10.81,7.93,19.6,17.68,19.6h5.92c9.75,0,17.68-8.79,17.68-19.6V21.84H54.62Z" fill="#8bc5eb"/><rect x="51.78" y="55.64" width="46.96" height="2" fill="#8bc5eb"/><path d="M102.37,41.38H95.12v-2h7.25a4.15,4.15,0,0,0,4.14-4.14v-3a4.15,4.15,0,0,0-4.14-4.14H96.91v-2h5.46a6.15,6.15,0,0,1,6.14,6.14v3A6.15,6.15,0,0,1,102.37,41.38Z" fill="#8bc5eb"/><path d="M69.32,17.35l-1.77-3.2A4.63,4.63,0,0,1,68.78,8.2a2.68,2.68,0,0,0,.7-3.41L67.34,1l1.74-1,2.14,3.81a4.69,4.69,0,0,1-1.22,6,2.65,2.65,0,0,0-.71,3.4l1.77,3.2Z" fill="#8bc5eb"/><path d="M78.1,16.75l-1.18-1.61,2.23-1.63a2.67,2.67,0,0,0,.68-3.4L77.68,6.3l1.74-1,2.14,3.81a4.69,4.69,0,0,1-1.22,6Z" fill="#8bc5eb"/></svg>