<svg xmlns="http://www.w3.org/2000/svg" width="55.63" height="59.85" viewBox="0 0 55.63 59.85"><title>benefit-3</title><path d="M6.22,27.14A25.83,25.83,0,0,0,.35,39.39c-2,11.3,4.74,20.46,15,20.46s20.19-9.16,22.17-20.46a20.65,20.65,0,0,0-.36-9.07Z" fill="#d67a62"/><path d="M30.69,15.94L34.32,5.77A4.09,4.09,0,0,0,31,.34L29,0a3.89,3.89,0,0,0-4.4,3.24L22.78,14.51a6.08,6.08,0,0,1-4.57,4.95,23.46,23.46,0,0,0-12,7.62,0,0,0,0,0,0,.06l30.82,3.17a0,0,0,0,0,0,0,15.8,15.8,0,0,0-4.8-7.77A6,6,0,0,1,30.69,15.94Z" fill="#283b48"/><circle cx="17.65" cy="41.09" r="5.8" fill="#fff"/><path d="M50.07,15.44H37.74V9.17a4.33,4.33,0,0,1,4.32-4.32h3.69a4.33,4.33,0,0,1,4.32,4.32v6.27Zm-10.33-2h8.33V9.17a2.33,2.33,0,0,0-2.32-2.32H42.06a2.33,2.33,0,0,0-2.32,2.32v4.27Z" fill="#8bc5eb"/><polygon points="41.14 32.82 34.89 32.82 32.41 31.44 32.41 25.93 40.19 13.9 41.87 14.99 34.41 26.52 34.41 30.26 35.41 30.82 41.14 30.82 41.14 32.82" fill="#8bc5eb"/><polygon points="41.14 39.71 34.17 39.71 32.41 37.95 32.41 33 34.3 31.11 35.71 32.52 34.41 33.83 34.41 37.12 34.99 37.71 41.14 37.71 41.14 39.71" fill="#8bc5eb"/><polygon points="41.14 46.16 34.17 46.16 32.41 44.4 32.41 39.45 34.3 37.56 35.71 38.98 34.41 40.28 34.41 43.58 34.99 44.16 41.14 44.16 41.14 46.16" fill="#8bc5eb"/><path d="M47.72,59.1H38.5a6.46,6.46,0,0,1-4.88-1.7,4.38,4.38,0,0,1-1.21-3.07v-7.9l2-2,1.41,1.41-1.39,1.39v7.13A2.42,2.42,0,0,0,35.1,56,4.64,4.64,0,0,0,38.5,57.1h9.22v2Z" fill="#8bc5eb"/><polygon points="53.15 32.82 46.89 32.82 46.89 30.82 52.62 30.82 53.62 30.24 53.62 26.49 46.17 14.99 47.85 13.9 55.62 25.9 55.62 31.4 53.15 32.82" fill="#8bc5eb"/><polygon points="53.87 39.71 46.89 39.71 46.89 37.71 53.04 37.71 53.62 37.12 53.62 33.83 52.32 32.52 53.74 31.11 55.62 33 55.62 37.95 53.87 39.71" fill="#8bc5eb"/><polygon points="53.87 46.16 46.89 46.16 46.89 44.16 53.04 44.16 53.62 43.58 53.62 40.28 52.32 38.98 53.74 37.56 55.62 39.45 55.62 44.4 53.87 46.16" fill="#8bc5eb"/><path d="M49.53,59.1H40.31v-2h9.22A4.6,4.6,0,0,0,53,56a2.45,2.45,0,0,0,.67-1.59V47.26l-1.39-1.39,1.41-1.41,2,2v8a4.37,4.37,0,0,1-1.22,3A6.46,6.46,0,0,1,49.53,59.1Z" fill="#8bc5eb"/><ellipse cx="48.05" cy="38.27" rx="0.33" fill="#d67a62"/></svg>