<svg xmlns="http://www.w3.org/2000/svg" width="126.67" height="95.52" viewBox="0 0 126.67 95.52"><title>benefit-2</title><path d="M126,57.92a23.7,23.7,0,1,0-46.57-2.84l-0.16,0-3,5.27c-1.3,2.29-3.36,6.35-3.36,6.35l3.75,0.69,0.69,15.52s12.08-.38,12.08,0S91.19,94.3,91.19,94.3s5.43,2.42,15.36.43S121.3,87.8,121.3,87.8L118.18,75s6-9.17,7.8-17C126,58,126,58,126,57.92Z" fill="#283b48"/><path d="M0.67,57.92a23.7,23.7,0,1,1,46.73-5.58,24,24,0,0,1-.16,2.74l0.16,0,3,5.27c1.3,2.29,3.36,6.35,3.36,6.35L50,67.4,49.31,82.92s-12.08-.38-12.08,0S35.47,94.3,35.47,94.3s-5.43,2.42-15.36.43S5.37,87.8,5.37,87.8L8.49,75s-6-9.17-7.8-17C0.68,58,.67,58,0.67,57.92Z" fill="#283b48"/><path d="M40.9,50" fill="none" stroke="#8bc5eb" stroke-miterlimit="10" stroke-width="2"/><path d="M63.78,61.67a30.75,30.75,0,0,1-20.87-8.14l1.35-1.47A28.83,28.83,0,0,0,87,13.78l1.61-1.18A30.84,30.84,0,0,1,63.78,61.67Z" fill="#8bc5eb"/><path d="M87.84,13.19" fill="none" stroke="#8bc5eb" stroke-miterlimit="10" stroke-width="2"/><path d="M40.13,50.62A30.83,30.83,0,0,1,63.78,0,30.55,30.55,0,0,1,86.17,9.64L84.72,11A28.57,28.57,0,0,0,63.78,2,28.83,28.83,0,0,0,41.67,49.34Z" fill="#8bc5eb"/><path d="M66.63,21.07A2.75,2.75,0,0,0,63.78,23a2.75,2.75,0,0,0-2.85-1.92H50.78V39.74h10a3.29,3.29,0,0,1,3,1.92,3.29,3.29,0,0,1,3-1.92h10V21.07H66.63Zm-7,14.09H53.49V34.33h6.15v0.83Zm0-2.94H53.49V31.39h6.15v0.83Zm1.44-2.86H53.49V28.53h7.58v0.83Zm0-2.94H53.49V25.59h7.58v0.83Zm5.85,2.1h4.15v0.83H66.92V28.53Zm7.58,6.63H66.92V34.33h7.58v0.83Zm0-2.94H66.92V31.39h7.58v0.83Zm0-5.8H66.92V25.59h7.58v0.83Z" fill="#d67a62"/><path d="M66.61,9.75" fill="none" stroke="#8bc5eb" stroke-miterlimit="10" stroke-width="2"/><path d="M59.7,52.29a46.16,46.16,0,0,1-9.88-7.61C44.07,38.9,40.07,32,38.56,25.38,37,18.55,38.24,12.71,42,8.94c4.89-4.87,13.2-5.41,22.22-1.45l-0.8,1.83c-8.24-3.62-15.71-3.23-20,1-3.29,3.27-4.33,8.45-2.93,14.58,1.43,6.3,5.24,12.81,10.73,18.33a44.16,44.16,0,0,0,9.45,7.28Z" fill="#8bc5eb"/><path d="M74.65,56.73a28.36,28.36,0,0,1-11.09-2.51l0.79-1.84c8.14,3.5,15.53,3.08,19.77-1.14,6.91-6.88,3.42-21.64-7.8-32.92a43.76,43.76,0,0,0-10.18-7.69l1-1.76a45.74,45.74,0,0,1,10.65,8C89.73,29,93.22,45,85.53,52.65A15,15,0,0,1,74.65,56.73Z" fill="#8bc5eb"/><polygon points="81.55 12.57 81.09 10.62 84.69 9.77 84.45 5.91 86.45 5.78 86.8 11.33 81.55 12.57" fill="#8bc5eb"/><polygon points="56.17 53.95 55.71 52.01 59.31 51.15 59.06 47.29 61.06 47.17 61.41 52.71 56.17 53.95" fill="#8bc5eb"/><polygon points="66.09 14.53 65.73 8.99 70.98 7.75 71.44 9.69 67.84 10.54 68.08 14.41 66.09 14.53" fill="#8bc5eb"/><polygon points="42.55 57.43 42.2 51.88 47.44 50.64 47.9 52.59 44.3 53.44 44.55 57.3 42.55 57.43" fill="#8bc5eb"/></svg>