<svg width="72" height="72" fill="none" xmlns="http://www.w3.org/2000/svg">
  <path fill-rule="evenodd" clip-rule="evenodd" d="M31.709 59.988c1.43-.004 2.86-.008 4.291-.01v-49.52a14.727 14.727 0 0 0-4.378-.44c-7.428.377-13.59 5.943-14.842 13.46-.118.712-.324.98-1.047 1.088C5.71 26.081-.965 36.376 1.523 46.442c1.952 7.901 8.666 13.418 16.628 13.517 4.518.056 9.038.043 13.558.03Z" fill="#92C9EC"/>
  <path d="M36 29.5h10.5a3 3 0 0 0 3-3v-4M36 36h22M36 42.5h10.5a3 3 0 0 1 3 3V50" stroke="#103654" stroke-width="2"/>
  <rect x="43" y="50" width="13" height="6" rx="3" fill="#103654" stroke="#103654" stroke-width="2"/>
  <rect x="43" y="56" width="13" height="6" rx="3" fill="#77BCE8" stroke="#103654" stroke-width="2"/>
  <rect x="57" y="43" width="13" height="6" rx="3" transform="rotate(-90 57 43)" fill="#77BCE8" stroke="#103654" stroke-width="2"/>
  <rect x="63" y="43" width="13" height="6" rx="3" transform="rotate(-90 63 43)" fill="#103654" stroke="#103654" stroke-width="2"/>
  <rect x="56" y="23" width="13" height="6" rx="3" transform="rotate(180 56 23)" fill="#103654" stroke="#103654" stroke-width="2"/>
  <rect x="56" y="17" width="13" height="6" rx="3" transform="rotate(180 56 17)" fill="#77BCE8" stroke="#103654" stroke-width="2"/>
</svg>
