<svg width="72" height="72" fill="none" xmlns="http://www.w3.org/2000/svg">
  <path d="M37.639 57.977c-6.495 0-12.994.063-19.488-.018-7.962-.099-14.676-5.616-16.629-13.517-2.487-10.066 4.187-20.36 14.211-21.876.723-.107.929-.376 1.047-1.089 1.252-7.516 7.414-13.082 14.842-13.458 7.195-.363 13.839 4.62 15.744 11.858.17.641.455.897 1.055 1.045 4.384 1.062 7.34 3.81 8.93 8.094.227.614.477.865 1.134.923 7.13.64 12.748 7.112 12.508 14.364-.25 7.534-6.097 13.486-13.423 13.674-.184.004-.364.013-.548.013H37.643v-.013h-.004Z" fill="#92C9EC"/>
  <path d="M26.75 62.875a2.647 2.647 0 0 1-1.942-.807A2.65 2.65 0 0 1 24 60.125v-13.75c0-.756.27-1.404.808-1.943a2.647 2.647 0 0 1 1.942-.807h1.375v-2.75c0-1.902.67-3.524 2.012-4.865C31.477 34.67 33.097 34 35 34c1.902 0 3.524.67 4.865 2.01 1.34 1.341 2.01 2.963 2.01 4.865v2.75h1.375c.756 0 1.404.269 1.943.807.538.54.807 1.187.807 1.943v13.75c0 .756-.269 1.404-.807 1.943a2.651 2.651 0 0 1-1.943.807h-16.5ZM35 56c.756 0 1.404-.269 1.943-.807a2.651 2.651 0 0 0 .807-1.943c0-.756-.269-1.404-.807-1.943A2.651 2.651 0 0 0 35 50.5c-.756 0-1.403.269-1.941.807a2.65 2.65 0 0 0-.809 1.943c0 .756.27 1.404.809 1.943A2.647 2.647 0 0 0 35 56Zm-4.125-12.375h8.25v-2.75c0-1.146-.401-2.12-1.203-2.922S36.146 36.75 35 36.75c-1.146 0-2.12.401-2.922 1.203s-1.203 1.776-1.203 2.922v2.75Z" fill="#103654"/>
</svg>
