<svg width="72" height="72" fill="none" xmlns="http://www.w3.org/2000/svg"><path fill-rule="evenodd" clip-rule="evenodd" d="M66.93 56.7c-2.792-4.209-9.541-7.404-15.28-9.04-5.74-1.637-7.582-5.28-7.175-6.975.408-1.696 1.667-1.169 2.943-3.587 1.088-2.061 1.827-6.876 1.827-6.876s2.617-.877 2.91-4.85c.29-3.975 0-5.437-.99-5.904-.99-.468-1.397-.41-1.397-.41s.646-5.654.65-6.838c.006-1.5.14-2.973-.278-4.5C48.63 2.225 42.376-.113 35.116.003c-7.26.118-7.373 2.338-8.88 3.975-1.508 1.636-2.514.35-3.855 2.864-.81 1.52-.028 8.71-.028 8.71.243 1.99.516 3.505.516 3.505s-.407-.058-1.397.41c-.988.467-1.28 1.929-.988 5.904.29 3.973 2.908 4.85 2.908 4.85s.74 4.815 1.828 6.876c1.275 2.418 2.536 1.891 2.943 3.587.407 1.695-1.435 5.338-7.175 6.975-5.74 1.636-12.489 4.831-15.281 9.04-2.11 3.182-1.784 8.55-1.498 10.977.085.718 11.472 4.305 32.379 4.305 20.907 0 31.755-3.587 31.84-4.305.285-2.427.614-7.795-1.498-10.977z" fill="#92C9EC"/><path fill-rule="evenodd" clip-rule="evenodd" d="M58.806 35.657l1.034-.622a2.867 2.867 0 014.186 1.531l.395 1.144a2.876 2.876 0 002.256 1.903l1.19.192c1.798.292 2.876 2.167 2.228 3.875l-.43 1.133a2.9 2.9 0 00.512 2.915l.789.915a2.893 2.893 0 01-.773 4.407l-1.054.59a2.89 2.89 0 00-1.472 2.564l.017 1.21c.028 1.829-1.624 3.221-3.41 2.876l-1.184-.229c-1.04-.2-2.103.19-2.769 1.014l-.761.94a2.863 2.863 0 01-4.454 0l-.76-.94a2.866 2.866 0 00-2.768-1.014l-1.184.23c-1.788.344-3.44-1.048-3.413-2.877l.018-1.21a2.886 2.886 0 00-1.473-2.564l-1.052-.59a2.893 2.893 0 01-.774-4.407l.789-.915A2.896 2.896 0 0045 44.813l-.43-1.133c-.647-1.708.43-3.583 2.228-3.875l1.19-.192c1.044-.169 1.91-.899 2.257-1.903l.394-1.144c.598-1.727 2.624-2.469 4.186-1.53l1.035.621a2.86 2.86 0 002.946 0z" fill="#103654"/><path fill-rule="evenodd" clip-rule="evenodd" d="M60.73 62.921l-.95 1.175a3.579 3.579 0 01-5.567 0l-.951-1.175a3.554 3.554 0 00-1.808-1.166v10.014l5.828-4.492 5.965 4.63V61.604a3.583 3.583 0 00-2.517 1.316z" fill="#103654"/><ellipse cx="57.291" cy="48.721" rx="8.847" ry="8.889" fill="#fff"/></svg>