<svg xmlns="http://www.w3.org/2000/svg" width="70" height="66" viewBox="0 0 70 66"><title>icon-data-lake</title><path fill="#92c9ec" fill-rule="evenodd" d="M65 10.43c0 5.76-13.43 10.43-30 10.43S5 16.19 5 10.43 18.43 0 35 0s30 4.67 30 10.43z"/><path fill="#92c9ec" fill-rule="evenodd" d="M35 26.28c-16 0-29.11-4.38-29.92-9.89H5v10c0 5.76 13.43 10.43 30 10.43s30-4.67 30-10.43v-10h-.08C64.11 21.9 51 26.28 35 26.28z"/><path fill="#92c9ec" fill-rule="evenodd" d="M35 42.39C19 42.39 5.89 38 5.08 32.5H5v10C5 48.3 18.43 53 35 53s30-4.7 30-10.46v-10h-.08C64.11 38 51 42.39 35 42.39z"/><path fill="#92c9ec" fill-rule="evenodd" d="M35 57.42c-16 0-29.11-4.42-29.92-9.89H5v10C5 63.33 18.43 61 35 61s30 2.33 30-3.43v-10h-.08C64.11 53 51 57.42 35 57.42z"/><path fill="#103654" fill-rule="evenodd" d="M24.28 54l1.84 2A19 19 0 0 0 30 59.09a11.14 11.14 0 0 0 5.45 1.78 8.52 8.52 0 0 0 4.79-1.69A21.46 21.46 0 0 0 43.8 56l1.85-2 1.85 2a18.52 18.52 0 0 0 3.91 3.09 11.17 11.17 0 0 0 5.45 1.78 11.29 11.29 0 0 0 5.5-1.79A18.4 18.4 0 0 0 66.3 56l3.7 3.51a23.6 23.6 0 0 1-5.09 4 16.23 16.23 0 0 1-8 2.48 16.09 16.09 0 0 1-8-2.48 24.9 24.9 0 0 1-3.11-2.21 22.78 22.78 0 0 1-2.61 2.12 13.57 13.57 0 0 1-7.7 2.58 16.09 16.09 0 0 1-8-2.48 25 25 0 0 1-3.19-2.27 25.9 25.9 0 0 1-3.2 2.27 16.09 16.09 0 0 1-8 2.48 16.09 16.09 0 0 1-8-2.48 24 24 0 0 1-5-4L3.7 56a18.84 18.84 0 0 0 3.91 3.09 11.17 11.17 0 0 0 5.45 1.78 11.17 11.17 0 0 0 5.46-1.78A19.12 19.12 0 0 0 22.43 56z"/></svg>
