<svg xmlns="http://www.w3.org/2000/svg" width="42" height="72" viewBox="0 0 42 72"><title>icon-digital-health</title><path d="M16.28,23.94a1.83,1.83,0,0,1,.9-.31,1.81,1.81,0,0,1,1.08.28,1.94,1.94,0,0,1,.74.86l9,20.39,3.89-8.08a1.92,1.92,0,0,1,.7-.79,1.81,1.81,0,0,1,1-.29H39v4H34.74L29.61,50.55a1.85,1.85,0,0,1-.7.79,1.84,1.84,0,0,1-2,0,1.94,1.94,0,0,1-.68-.82L17.18,30,12.7,38.94a1.91,1.91,0,0,1-.69.77A1.78,1.78,0,0,1,11,40H2.9a2.16,2.16,0,0,1-.72-.23,1.87,1.87,0,0,1-.62-.43,1.76,1.76,0,0,1-.41-.63A2,2,0,0,1,1,38a1.93,1.93,0,0,1,.15-.75,1.8,1.8,0,0,1,.41-.64,2,2,0,0,1,.62-.42A1.81,1.81,0,0,1,2.9,36h7l5.73-11.33A1.83,1.83,0,0,1,16.28,23.94Z" transform="translate(0 0)" fill="#103654"/><path d="M7.5,0h27A7.5,7.5,0,0,1,42,7.5v57A7.5,7.5,0,0,1,34.5,72H7.5A7.5,7.5,0,0,1,0,64.5V7.5A7.5,7.5,0,0,1,7.5,0ZM3,60H39V10.5H3Z" transform="translate(0 0)" fill="#92c9ec" fill-rule="evenodd"/><circle cx="21" cy="66" r="3" fill="#fff"/></svg>
