<svg width="972" height="516" viewBox="0 0 972 516" fill="none" xmlns="http://www.w3.org/2000/svg">
<path d="M10.999 0V516" stroke="#0F4465" stroke-miterlimit="10"/>
<path d="M48.999 0V516" stroke="#0F4465" stroke-miterlimit="10"/>
<path d="M86.999 0V516" stroke="#0F4465" stroke-miterlimit="10"/>
<path d="M124.999 0V516" stroke="#0F4465" stroke-miterlimit="10"/>
<path d="M162.999 0V516" stroke="#0F4465" stroke-miterlimit="10"/>
<path d="M200.999 0V516" stroke="#0F4465" stroke-miterlimit="10"/>
<path d="M238.999 0V516" stroke="#0F4465" stroke-miterlimit="10"/>
<path d="M276.999 0V516" stroke="#0F4465" stroke-miterlimit="10"/>
<path d="M314.999 0V516" stroke="#0F4465" stroke-miterlimit="10"/>
<path d="M352.999 0V516" stroke="#0F4465" stroke-miterlimit="10"/>
<path d="M390.999 0V516" stroke="#0F4465" stroke-miterlimit="10"/>
<path d="M428.999 0V516" stroke="#0F4465" stroke-miterlimit="10"/>
<path d="M466.999 0V516" stroke="#0F4465" stroke-miterlimit="10"/>
<path d="M504.999 0V516" stroke="#0F4465" stroke-miterlimit="10"/>
<path d="M542.999 0V516" stroke="#0F4465" stroke-miterlimit="10"/>
<path d="M580.999 0V516" stroke="#0F4465" stroke-miterlimit="10"/>
<path d="M618.999 0V516" stroke="#0F4465" stroke-miterlimit="10"/>
<path d="M656.999 0V516" stroke="#0F4465" stroke-miterlimit="10"/>
<path d="M694.999 0V516" stroke="#0F4465" stroke-miterlimit="10"/>
<path d="M732.999 0V516" stroke="#0F4465" stroke-miterlimit="10"/>
<path d="M770.999 0V516" stroke="#0F4465" stroke-miterlimit="10"/>
<path d="M808.999 0V516" stroke="#0F4465" stroke-miterlimit="10"/>
<path d="M846.999 0V516" stroke="#0F4465" stroke-miterlimit="10"/>
<path d="M884.999 0V516" stroke="#0F4465" stroke-miterlimit="10"/>
<path d="M922.999 0V516" stroke="#0F4465" stroke-miterlimit="10"/>
<path d="M960.999 0V516" stroke="#0F4465" stroke-miterlimit="10"/>
<path d="M0 505L972 505" stroke="#0F4465" stroke-miterlimit="10"/>
<path d="M0 467L972 467" stroke="#0F4465" stroke-miterlimit="10"/>
<path d="M0 429L972 429" stroke="#0F4465" stroke-miterlimit="10"/>
<path d="M0 391L972 391" stroke="#0F4465" stroke-miterlimit="10"/>
<path d="M0 353L972 353" stroke="#0F4465" stroke-miterlimit="10"/>
<path d="M0 315L972 315" stroke="#0F4465" stroke-miterlimit="10"/>
<path d="M0 277L972 277" stroke="#0F4465" stroke-miterlimit="10"/>
<path d="M0 239L972 239" stroke="#0F4465" stroke-miterlimit="10"/>
<path d="M0 201L972 201" stroke="#0F4465" stroke-miterlimit="10"/>
<path d="M0 163L972 163" stroke="#0F4465" stroke-miterlimit="10"/>
<path d="M0 125L972 125" stroke="#0F4465" stroke-miterlimit="10"/>
<path d="M0 87L972 87" stroke="#0F4465" stroke-miterlimit="10"/>
<path d="M0 49L972 49" stroke="#0F4465" stroke-miterlimit="10"/>
<path d="M0 11L972 11" stroke="#0F4465" stroke-miterlimit="10"/>
<path d="M634.481 415.3H397.581C395.275 415.297 393.063 414.38 391.432 412.749C389.801 411.118 388.884 408.907 388.881 406.6V243.8C388.884 241.494 389.801 239.282 391.432 237.651C393.063 236.02 395.275 235.103 397.581 235.1H634.381C636.688 235.103 638.899 236.02 640.53 237.651C642.161 239.282 643.078 241.494 643.081 243.8V406.6C643.1 407.739 642.891 408.871 642.466 409.928C642.042 410.986 641.411 411.948 640.61 412.758C639.809 413.568 638.854 414.21 637.802 414.647C636.749 415.084 635.62 415.306 634.481 415.3Z" fill="#103654" stroke="#046097" stroke-width="2" stroke-miterlimit="10"/>
<path d="M630.081 247.9H401.981V380H630.081V247.9Z" stroke="#046097" stroke-width="2" stroke-miterlimit="10"/>
<path d="M542.081 415.3H490.081V444H542.081V415.3Z" fill="#103654" stroke="#046097" stroke-width="2" stroke-miterlimit="10"/>
<path d="M468.381 291.4L515.981 313.9" stroke="#154D72" stroke-width="2" stroke-miterlimit="10"/>
<path d="M568.024 322.366C572.688 293.637 553.179 266.567 524.449 261.903C495.72 257.24 468.65 276.749 463.986 305.478C459.323 334.208 478.832 361.278 507.561 365.941C536.291 370.605 563.361 351.096 568.024 322.366Z" stroke="#154D72" stroke-width="2" stroke-miterlimit="10"/>
<path d="M290.381 428.4V306.8C290.378 305.71 290.591 304.629 291.007 303.621C291.424 302.613 292.035 301.697 292.806 300.925C293.577 300.154 294.493 299.543 295.502 299.127C296.51 298.711 297.59 298.498 298.681 298.5H484.001C485.092 298.498 486.172 298.711 487.18 299.127C488.189 299.543 489.105 300.154 489.876 300.925C490.647 301.697 491.258 302.613 491.675 303.621C492.091 304.629 492.304 305.71 492.301 306.8V428.4" fill="#103654"/>
<path d="M290.381 428.4V306.8C290.378 305.71 290.591 304.629 291.007 303.621C291.424 302.613 292.035 301.697 292.806 300.925C293.577 300.154 294.493 299.543 295.502 299.127C296.51 298.711 297.59 298.498 298.681 298.5H484.001C485.092 298.498 486.172 298.711 487.18 299.127C488.189 299.543 489.105 300.154 489.876 300.925C490.647 301.697 491.258 302.613 491.675 303.621C492.091 304.629 492.304 305.71 492.301 306.8V428.4" stroke="#046097" stroke-width="2" stroke-miterlimit="10"/>
<path d="M280.001 428.4C280.001 438.1 288.401 444 292.801 444H489.901C494.301 444 502.701 438.1 502.701 428.4H280.001Z" fill="#103654" stroke="#046097" stroke-width="2" stroke-miterlimit="10"/>
<path d="M570.251 260.17L598.161 228.4L610.621 240.58L621.201 228.25L631.781 215.92L660.201 230.3L686.951 196.34" stroke="#154D72" stroke-width="2" stroke-miterlimit="10"/>
<path d="M571.096 264.649C573.595 264.191 575.249 261.794 574.791 259.295C574.333 256.796 571.936 255.142 569.437 255.6C566.938 256.058 565.284 258.455 565.742 260.954C566.2 263.453 568.597 265.107 571.096 264.649Z" fill="#103654" stroke="#154D72" stroke-miterlimit="10"/>
<path d="M598.371 233.28C601.088 233.28 603.291 231.077 603.291 228.36C603.291 225.643 601.088 223.44 598.371 223.44C595.654 223.44 593.451 225.643 593.451 228.36C593.451 231.077 595.654 233.28 598.371 233.28Z" fill="#103654" stroke="#154D72" stroke-miterlimit="10"/>
<path d="M631.711 221.07C634.428 221.07 636.631 218.867 636.631 216.15C636.631 213.433 634.428 211.23 631.711 211.23C628.994 211.23 626.791 213.433 626.791 216.15C626.791 218.867 628.994 221.07 631.711 221.07Z" fill="#E98067"/>
<path d="M661.426 235.034C664.098 234.544 665.868 231.981 665.378 229.308C664.888 226.635 662.324 224.866 659.651 225.356C656.978 225.846 655.209 228.41 655.699 231.082C656.189 233.755 658.753 235.525 661.426 235.034Z" fill="#103654" stroke="#154D72" stroke-miterlimit="10"/>
<path d="M686.951 201.26C689.668 201.26 691.871 199.058 691.871 196.34C691.871 193.623 689.668 191.42 686.951 191.42C684.234 191.42 682.031 193.623 682.031 196.34C682.031 199.058 684.234 201.26 686.951 201.26Z" fill="#103654" stroke="#E98067" stroke-miterlimit="10"/>
<path d="M533.581 363.6L515.981 313.9L544.881 269.9" stroke="#154D72" stroke-width="2" stroke-miterlimit="10"/>
<path d="M616.131 276.95H583.931V299.45H616.131V276.95Z" stroke="#154D72" stroke-width="2" stroke-miterlimit="10"/>
<path d="M593.921 283.93H587.821V295.25H593.921V283.93Z" fill="#046097"/>
<path d="M602.551 281.56H596.451V295.25H602.551V281.56Z" fill="#046097"/>
<path d="M611.191 271.65H605.091V295.15H611.191V271.65Z" fill="#046097"/>
<path d="M636.011 388.396L650.201 388.34V439.66C650.201 440.229 650.089 440.792 649.872 441.317C649.654 441.842 649.335 442.32 648.933 442.722C648.531 443.124 648.053 443.443 647.528 443.66C647.003 443.878 646.44 443.99 645.871 443.99H640.341C639.773 443.99 639.209 443.878 638.684 443.66C638.159 443.443 637.681 443.124 637.279 442.722C636.877 442.32 636.558 441.842 636.341 441.317C636.123 440.792 636.011 440.229 636.011 439.66V388.396Z" fill="#103654" stroke="#046097" stroke-width="2" stroke-miterlimit="10"/>
<path d="M643.081 388.34V378.96" stroke="#046097" stroke-width="2" stroke-miterlimit="10"/>
<path d="M643.081 378.96C662.29 378.96 677.861 363.389 677.861 344.18C677.861 324.972 662.29 309.4 643.081 309.4C623.873 309.4 608.301 324.972 608.301 344.18C608.301 363.389 623.873 378.96 643.081 378.96Z" fill="#103654" stroke="#046097" stroke-width="2" stroke-miterlimit="10"/>
<path d="M664.151 343.29C664.162 340.513 663.625 337.761 662.572 335.192C661.518 332.622 659.969 330.285 658.012 328.315C656.056 326.344 653.73 324.778 651.168 323.707C648.606 322.635 645.858 322.079 643.081 322.07" fill="#103654"/>
<path d="M664.151 343.29C664.162 340.513 663.625 337.761 662.572 335.192C661.518 332.622 659.969 330.285 658.012 328.315C656.056 326.344 653.73 324.778 651.168 323.707C648.606 322.635 645.858 322.079 643.081 322.07" stroke="#046097" stroke-width="2" stroke-miterlimit="10"/>
<path d="M635.991 398.68H649.631" stroke="#046097" stroke-width="2" stroke-miterlimit="10"/>
<path d="M312.011 408.19H308.051V412.15H312.011V408.19Z" fill="#E98067"/>
<path d="M312.011 396.58H308.051V400.54H312.011V396.58Z" fill="#E98067"/>
<path d="M312.011 384.98H308.051V388.94H312.011V384.98Z" fill="#E98067"/>
<path d="M312.011 373.37H308.051V377.33H312.011V373.37Z" fill="#E98067"/>
<path d="M312.011 361.77H308.051V365.73H312.011V361.77Z" fill="#E98067"/>
<path d="M312.011 350.16H308.051V354.12H312.011V350.16Z" fill="#E98067"/>
<path d="M312.011 338.56H308.051V342.52H312.011V338.56Z" fill="#E98067"/>
<path d="M312.011 326.95H308.051V330.91H312.011V326.95Z" fill="#E98067"/>
<path d="M312.011 315.35H308.051V319.31H312.011V315.35Z" fill="#E98067"/>
<path d="M338.541 363.86H347.531" stroke="#E98067" stroke-miterlimit="10"/>
<path d="M350.671 363.64H391.571" stroke="#154D72" stroke-miterlimit="10"/>
<path d="M322.141 352.15H363.041" stroke="#154D72" stroke-miterlimit="10"/>
<path d="M366.231 352.15H407.131" stroke="#154D72" stroke-miterlimit="10"/>
<path d="M322.141 375.35H352.851" stroke="#154D72" stroke-miterlimit="10"/>
<path d="M356.051 375.35H419.791" stroke="#154D72" stroke-miterlimit="10"/>
<path d="M422.981 375.35H469.991" stroke="#E98067" stroke-miterlimit="10"/>
<path d="M332.271 386.96H349.441" stroke="#154D72" stroke-miterlimit="10"/>
<path d="M352.631 386.96H393.041" stroke="#154D72" stroke-miterlimit="10"/>
<path d="M338.541 340.54H378.951" stroke="#154D72" stroke-miterlimit="10"/>
<path d="M322.841 328.94H453.331" stroke="#154D72" stroke-miterlimit="10"/>
<path d="M322.841 317.33H351.771" stroke="#E98067" stroke-miterlimit="10"/>
<path d="M338.541 398.56H370.691" stroke="#154D72" stroke-miterlimit="10"/>
<path d="M373.881 398.56H406.031" stroke="#154D72" stroke-miterlimit="10"/>
<path d="M409.221 398.56H441.371" stroke="#E98067" stroke-miterlimit="10"/>
<path d="M322.471 410.17H354.621" stroke="#154D72" stroke-miterlimit="10"/>
<path d="M630.001 217.866L611.741 239.228" stroke="#E98067" stroke-width="2" stroke-miterlimit="10"/>
<path d="M612.071 245.385C614.744 244.895 616.514 242.331 616.024 239.658C615.533 236.986 612.97 235.216 610.297 235.706C607.624 236.196 605.855 238.76 606.345 241.433C606.835 244.106 609.399 245.875 612.071 245.385Z" fill="#103654" stroke="#E98067" stroke-miterlimit="10"/>
<path d="M359.161 410.17H369.391" stroke="#E98067" stroke-miterlimit="10"/>
<path d="M468.781 324.82C466.1 324.82 463.528 323.755 461.632 321.859C459.736 319.963 458.671 317.392 458.671 314.71V298.21C458.671 295.529 459.736 292.957 461.632 291.061C463.528 289.165 466.1 288.1 468.781 288.1H502.831C504.164 288.092 505.485 288.348 506.718 288.853C507.952 289.357 509.074 290.101 510.019 291.04C510.964 291.98 511.714 293.097 512.226 294.327C512.738 295.558 513.001 296.878 513.001 298.21V314.71C512.998 317.393 511.931 319.964 510.033 321.86C508.136 323.755 505.563 324.82 502.881 324.82H484.511L473.001 336.29V324.82H468.781Z" fill="#103654" stroke="#046097" stroke-width="2" stroke-miterlimit="10"/>
<path d="M468.381 297.48H502.161" stroke="#154D72" stroke-width="2" stroke-miterlimit="10"/>
<path d="M468.381 309.57H505.021" stroke="#154D72" stroke-width="2" stroke-miterlimit="10"/>
<path d="M468.381 303.53H498.301" stroke="#E98067" stroke-width="2" stroke-miterlimit="10"/>
<path d="M468.381 315.61H502.161" stroke="#154D72" stroke-width="2" stroke-miterlimit="10"/>
<path d="M583.681 288.1H568.681L555.011 301.77" stroke="#E98067" stroke-miterlimit="10"/>
<path d="M238.95 236.775V268.495L266.42 284.355L293.89 268.495V236.775L266.42 220.905L238.95 236.775Z" stroke="#154D72" stroke-miterlimit="10"/>
<path d="M238.95 236.775V268.495L266.42 284.355" stroke="#E98067" stroke-miterlimit="10"/>
<path d="M211.47 220.905L184 236.775" stroke="#154D72" stroke-miterlimit="10"/>
<path d="M238.95 141.475V173.205L266.42 189.065L293.89 173.205" stroke="#154D72" stroke-miterlimit="10"/>
<path d="M211.47 189.155V220.885L238.95 236.745L266.42 220.885V189.155L238.95 173.295L211.47 189.155Z" stroke="#154D72" stroke-miterlimit="10"/>
<path d="M321.37 284.205L293.89 268.345L266.42 284.205V315.925" stroke="#154D72" stroke-miterlimit="10"/>
<path d="M266.42 288.655C268.795 288.655 270.72 286.73 270.72 284.355C270.72 281.98 268.795 280.055 266.42 280.055C264.045 280.055 262.12 281.98 262.12 284.355C262.12 286.73 264.045 288.655 266.42 288.655Z" fill="#103654" stroke="#154D72" stroke-miterlimit="10"/>
<path d="M266.42 319.545C268.795 319.545 270.72 317.62 270.72 315.245C270.72 312.87 268.795 310.945 266.42 310.945C264.045 310.945 262.12 312.87 262.12 315.245C262.12 317.62 264.045 319.545 266.42 319.545Z" fill="#154D72"/>
<path d="M184 241.075C186.375 241.075 188.3 239.15 188.3 236.775C188.3 234.4 186.375 232.475 184 232.475C181.625 232.475 179.7 234.4 179.7 236.775C179.7 239.15 181.625 241.075 184 241.075Z" fill="#E98067"/>
<path d="M293.89 177.595C296.265 177.595 298.19 175.67 298.19 173.295C298.19 170.92 296.265 168.995 293.89 168.995C291.515 168.995 289.59 170.92 289.59 173.295C289.59 175.67 291.515 177.595 293.89 177.595Z" fill="#103654" stroke="#154D72" stroke-miterlimit="10"/>
<path d="M238.95 145.775C241.325 145.775 243.25 143.85 243.25 141.475C243.25 139.1 241.325 137.175 238.95 137.175C236.575 137.175 234.65 139.1 234.65 141.475C234.65 143.85 236.575 145.775 238.95 145.775Z" fill="#103654" stroke="#154D72" stroke-miterlimit="10"/>
<path d="M293.89 272.645C296.265 272.645 298.19 270.72 298.19 268.345C298.19 265.97 296.265 264.045 293.89 264.045C291.515 264.045 289.59 265.97 289.59 268.345C289.59 270.72 291.515 272.645 293.89 272.645Z" fill="#103654" stroke="#154D72" stroke-miterlimit="10"/>
<path d="M321.37 288.655C323.745 288.655 325.67 286.73 325.67 284.355C325.67 281.98 323.745 280.055 321.37 280.055C318.995 280.055 317.07 281.98 317.07 284.355C317.07 286.73 318.995 288.655 321.37 288.655Z" fill="#154D72"/>
<path d="M266.42 225.205C268.795 225.205 270.72 223.28 270.72 220.905C270.72 218.53 268.795 216.605 266.42 216.605C264.045 216.605 262.12 218.53 262.12 220.905C262.12 223.28 264.045 225.205 266.42 225.205Z" fill="#154D72"/>
<path d="M238.95 241.045C241.325 241.045 243.25 239.12 243.25 236.745C243.25 234.371 241.325 232.445 238.95 232.445C236.575 232.445 234.65 234.371 234.65 236.745C234.65 239.12 236.575 241.045 238.95 241.045Z" fill="#E98067"/>
<path d="M238.95 177.595C241.325 177.595 243.25 175.67 243.25 173.295C243.25 170.92 241.325 168.995 238.95 168.995C236.575 168.995 234.65 170.92 234.65 173.295C234.65 175.67 236.575 177.595 238.95 177.595Z" fill="#103654" stroke="#154D72" stroke-miterlimit="10"/>
<path d="M266.42 193.655C268.795 193.655 270.72 191.73 270.72 189.355C270.72 186.98 268.795 185.055 266.42 185.055C264.045 185.055 262.12 186.98 262.12 189.355C262.12 191.73 264.045 193.655 266.42 193.655Z" fill="#103654" stroke="#154D72" stroke-miterlimit="10"/>
<path d="M211.47 225.205C213.845 225.205 215.77 223.28 215.77 220.905C215.77 218.53 213.845 216.605 211.47 216.605C209.095 216.605 207.17 218.53 207.17 220.905C207.17 223.28 209.095 225.205 211.47 225.205Z" fill="#103654" stroke="#154D72" stroke-miterlimit="10"/>
<path d="M211.47 193.655C213.845 193.655 215.77 191.73 215.77 189.355C215.77 186.98 213.845 185.055 211.47 185.055C209.095 185.055 207.17 186.98 207.17 189.355C207.17 191.73 209.095 193.655 211.47 193.655Z" fill="#103654" stroke="#154D72" stroke-miterlimit="10"/>
</svg>
