<svg width="13" height="10" viewBox="0 0 13 10" fill="none" xmlns="http://www.w3.org/2000/svg">
<path d="M7.33448 0.128353C7.12923 -0.0563766 6.81308 -0.0397374 6.62835 0.165518C6.44362 0.370773 6.46026 0.686918 6.66552 0.871647L7.33448 0.128353ZM12 5L12.3345 5.37165C12.4398 5.27683 12.5 5.14174 12.5 5C12.5 4.85826 12.4398 4.72317 12.3345 4.62835L12 5ZM6.66552 9.12835C6.46026 9.31308 6.44362 9.62923 6.62835 9.83448C6.81308 10.0397 7.12923 10.0564 7.33448 9.87165L6.66552 9.12835ZM1 4.5C0.723858 4.5 0.5 4.72386 0.5 5C0.5 5.27614 0.723858 5.5 1 5.5V4.5ZM6.66552 0.871647L11.6655 5.37165L12.3345 4.62835L7.33448 0.128353L6.66552 0.871647ZM11.6655 4.62835L6.66552 9.12835L7.33448 9.87165L12.3345 5.37165L11.6655 4.62835ZM12 4.5H1V5.5H12V4.5Z" fill="#51A9E1"/>
</svg>
