<svg width="7" height="11" viewBox="0 0 7 11" fill="none" xmlns="http://www.w3.org/2000/svg">
<path d="M1.33448 0.628353C1.12923 0.443623 0.813082 0.460263 0.628353 0.665518C0.443623 0.870773 0.460263 1.18692 0.665518 1.37165L1.33448 0.628353ZM6 5.5L6.33448 5.87165C6.43984 5.77683 6.5 5.64174 6.5 5.5C6.5 5.35826 6.43984 5.22317 6.33448 5.12835L6 5.5ZM0.665518 9.62835C0.460263 9.81308 0.443623 10.1292 0.628353 10.3345C0.813082 10.5397 1.12923 10.5564 1.33448 10.3716L0.665518 9.62835ZM0.665518 1.37165L5.66552 5.87165L6.33448 5.12835L1.33448 0.628353L0.665518 1.37165ZM5.66552 5.12835L0.665518 9.62835L1.33448 10.3716L6.33448 5.87165L5.66552 5.12835Z" fill="#51A9E1"/>
</svg>
