<svg width="13" height="11" viewBox="0 0 13 11" fill="none" xmlns="http://www.w3.org/2000/svg">
<path d="M7.33448 0.628353C7.12923 0.443623 6.81308 0.460263 6.62835 0.665518C6.44362 0.870773 6.46026 1.18692 6.66552 1.37165L7.33448 0.628353ZM12 5.5L12.3345 5.87165C12.4398 5.77683 12.5 5.64174 12.5 5.5C12.5 5.35826 12.4398 5.22317 12.3345 5.12835L12 5.5ZM6.66552 9.62835C6.46026 9.81308 6.44362 10.1292 6.62835 10.3345C6.81308 10.5397 7.12923 10.5564 7.33448 10.3716L6.66552 9.62835ZM1 5C0.723858 5 0.5 5.22386 0.5 5.5C0.5 5.77614 0.723858 6 1 6V5ZM6.66552 1.37165L11.6655 5.87165L12.3345 5.12835L7.33448 0.628353L6.66552 1.37165ZM11.6655 5.12835L6.66552 9.62835L7.33448 10.3716L12.3345 5.87165L11.6655 5.12835ZM12 5H1V6H12V5Z" fill="white"/>
</svg>
