<svg width="106" height="120" fill="none" xmlns="http://www.w3.org/2000/svg"><path d="M62.837 112.956c-1.315 3.012-3.312 5.248-6.39 6.375-2.077.762-4.19.893-6.31.29-4.761-1.356-7.867-5.346-7.914-10.089-.047-4.771 2.942-8.869 7.494-10.29 2.698-.843 5.313-.604 7.83.635 2.525 1.24 4.167 3.317 5.308 5.95 4.617-.285 9.238.524 13.766-.528 3.148-.73 5.31-2.83 6.68-5.735.107-.234.14-.5.252-.903-.533.085-.935.15-1.347.206-6.025.833-11.83-3.99-11.885-10.084-.09-9.818-.075-19.636 0-29.459.037-5 4.111-9.392 9.088-10.066 5.052-.683 10.024 2.376 11.511 7.17.342 1.1.543 2.288.547 3.434.038 12.002.056 24 .01 36.002-.033 8.2-6.52 15.623-14.617 16.839-1.109.168-2.245.229-3.368.239-3.504.028-7.011.009-10.65.009l-.005.005Z" fill="#1C4769"/><path d="M0 52.734c.683-18.705 8.335-33.566 23.85-43.93C41.166-2.765 63.51-2.835 80.737 8.035c18.589 11.736 25.203 31.287 24.679 44.6-2.339-1.053-4.678-2.1-7.25-3.256-1.404-14.612-8.205-26.4-20.67-34.74-7.517-5.032-15.95-7.343-24.954-7.352-21.755-.014-43.393 17.1-45.124 42.134L0 52.734Z" fill="#153E5F"/><path d="M14.154 74.058c0-4.715-.023-9.43 0-14.14.042-6.305 4.911-10.94 11.207-10.716 5.22.187 9.837 4.72 9.954 9.95.103 4.592.037 9.19.037 13.788 0 5.066.019 10.127-.005 15.193-.032 6.328-4.864 10.982-11.146 10.776-5.28-.173-9.841-4.72-10.038-10.01a15.53 15.53 0 0 1-.01-.467V74.058Z" fill="#1C4769"/><path d="M7.404 91.28c-2.797-.879-4.817-2.59-6.038-5.084-.65-1.328-1.141-2.872-1.179-4.331C.047 76.654 0 71.429.173 66.219c.14-4.215 2.423-7.194 6.193-9.037.304-.15.646-.21 1.043-.337V91.28h-.005ZM98.236 56.686c1.034.547 2.011.926 2.83 1.525 2.797 2.049 4.406 4.813 4.439 8.326.051 5.098.046 10.197 0 15.295-.043 3.906-2.872 7.835-6.502 9.196-.21.08-.435.126-.763.215V56.686h-.004Z" fill="#153E5F"/></svg>