<svg width="123" height="127" fill="none" xmlns="http://www.w3.org/2000/svg">
  <path d="M11.551 60.509 61.158 88.57l.296.168.296-.168 56.624-32.162.304-.172V33.63l-.318-.17-2.891-1.539-.291-.155-.287.163L61.454 62.21 14.889 35.703 61.454 9.36l39.155 22.073.285.16.289-.152 3.571-1.882.32-.169V25.942l-.305-.172-43.02-24.292-.296-.167-.295.167-56.454 31.99-.304.173v4.12l.303.172 56.454 32.161.296.17.297-.169 49.776-28.232v10.425L61.454 80.687 7.847 50.234l-.288-.164-.292.157-2.55 1.368-.317.17V74.712l.303.172 56.454 32.162.296.169.297-.168 49.776-28.232v10.424l-50.072 28.4L7.847 87.185l-.288-.164-.292.157-2.55 1.369-.317.17v4.471l.303.172 56.454 32.161.296.169.297-.168 56.624-32.161.304-.173V70.241l-.316-.17-2.551-1.369-.291-.156-.288.163-53.777 30.454-49.904-28.4V60.51Z" fill="#C9E4F6" stroke="#C9E4F6" stroke-width="1.2"/>
</svg>
