<svg width="123" height="123" fill="none" xmlns="http://www.w3.org/2000/svg"><path d="M23.734 20.558c1.146 1.622 2.116 3.234 3.322 4.648 3.608 4.227 8.284 6.321 13.804 6.524 1.497.055 3.01-.044 4.501-.214 1.36-.153 2.083-1.058 1.974-2.16-.132-1.271-1.097-2.055-2.555-1.83a16.773 16.773 0 0 1-6.65-.28c-6.271-1.535-9.78-5.811-11.759-11.732 2.862-6.677 7.703-11.008 14.89-12.203 7.313-1.217 13.332 1.365 18.052 6.918v40.935c-3.783.938-7.5 1.113-11.205-.12-3.366-1.119-5.685-3.372-7.012-6.656-.17-.422-.242-.817-.581-1.222-.453-.542-1.003-.85-1.557-.921-1.64-.214-2.566 1.168-1.979 2.96.658 2.017 1.727 3.821 3.158 5.4.301.334.592.674 1.014 1.162-.499.17-.86.307-1.228.417-3.125.932-5.674 2.68-7.587 5.334-.938 1.305-.866 2.51.159 3.256.997.724 2.297.411 3.152-.844 1.847-2.714 4.66-3.7 7.67-4.292a16.542 16.542 0 0 1 6.523 0c2.615.52 5.268.394 7.905.065.483-.06.976-.093 1.557-.142v57.041c-4.632 5.493-10.64 8.119-17.954 6.918-7.521-1.239-12.499-5.767-15.229-12.861 1.82-4.473 4.95-7.362 9.572-8.524 2.494-.625 5.038-.8 7.609-.412a8.735 8.735 0 0 0 1.776.083c1.064-.06 1.776-.812 1.837-1.842.065-1.053-.505-1.968-1.54-2.11-6.788-.938-13.262-.428-18.59 4.538-1.223 1.14-2.21 2.533-3.394 3.915-2.736-.488-5.28-1.667-7.549-3.4-4.956-3.776-7.467-8.858-7.8-15.037-.05-.948.06-1.913.01-2.861-.126-2.423-1.135-4.48-2.757-6.26-2.681-2.94-4.457-6.31-5.05-10.285-.822-5.526.434-10.504 3.838-14.939.471-.614 1.003-1.184 1.508-1.776 1.809-2.11 2.636-4.572 2.521-7.324-.246-5.811 1.733-10.745 5.833-14.813 2.867-2.845 6.678-4.742 9.791-5.049v-.005Z" fill="#C9E4F6"/><path d="M83.944 93.26c0-1.869-.033-3.782.006-5.69.098-4.38-3.048-9.072-8.08-10.3-1.141-.28-2.342-.384-3.52-.406-2.83-.055-5.658-.017-8.613-.017v-7.702c.5-.05 1.025 0 1.546 0 7.264-.01 14.528-.016 21.791.006 1.042 0 2.128.027 3.125.301 2.895.795 4.616 2.796 4.94 5.745.224 2.067.044 4.183.044 6.223-3.964 2.889-5.077 5.246-4.008 8.398.894 2.632 3.41 4.43 6.157 4.402 2.762-.027 5.213-1.847 6.068-4.511 1.014-3.158-.109-5.505-4.117-8.333 0-1.842.033-3.8-.005-5.757-.088-4.478-2.79-8.36-7.012-9.84-1.305-.46-2.757-.69-4.15-.701-7.494-.066-14.982-.033-22.476-.033h-1.903v-7.297c.548-.033 1.124.033 1.694.033 7.675-.006 15.35.055 23.025-.033 4.5-.05 7.872-2.182 9.818-6.266.587-1.239.856-2.697.965-4.084.16-1.99.039-4.008.039-6.074 2.012-.998 3.733-2.286 4.139-4.518.23-1.293.208-2.763-.17-4.012-.795-2.637-3.547-4.337-6.26-4.194-2.78.142-5.132 2.023-5.91 4.725-.9 3.109.312 5.515 4.248 8.125-.099 2.198 0 4.588-.35 6.907-.44 2.928-2.956 5.005-5.921 5.18-2.05.127-4.106.132-6.162.138-5.8.016-11.606.01-17.406 0-.581 0-1.102.05-1.749 0v-7.719c.516-.033.938.016 1.42.016 2.604-.01 5.208.033 7.812-.016 5.384-.093 9.632-3.481 10.762-8.618.213-.965.191-1.995.213-2.993.033-1.595.011-3.19.011-4.852 2.04-1.014 3.766-2.357 4.172-4.638.22-1.255.165-2.68-.208-3.892-.839-2.708-3.492-4.309-6.398-4.172-2.73.126-5.076 2.072-5.822 4.819-.828 3.059.4 5.444 4.282 7.993-.093 2.204.01 4.594-.351 6.913-.488 3.097-3.202 5.197-6.316 5.224-3.146.028-6.298.006-9.577.006v-31.39c3.224-5.126 11.255-8.432 18.146-7.034 9.1 1.847 14.094 7.812 16.013 16.802.713.154 1.508.302 2.297.505 7.955 2.017 13.689 8.601 14.572 16.786.137 1.26.049 2.544.098 3.815.104 2.714 1.13 5.028 2.972 7.028 2.598 2.818 4.276 6.113 4.89 9.928.893 5.57-.39 10.597-3.794 15.087a23.68 23.68 0 0 1-1.327 1.568c-1.864 2.061-2.856 4.479-2.686 7.253.581 9.665-6.102 18.957-17.033 20.618-1.836 9.133-7.017 15.24-16.484 16.819-7.16 1.195-13.048-1.497-17.735-6.946V81.063c.532-.033 1.014 0 1.497 0 2.604-.005 5.208-.01 7.812 0 3.662.017 6.425 2.32 6.825 5.965.225 2.066.038 4.183.038 6.222-3.952 2.834-5.06 5.192-4.007 8.404.888 2.708 3.492 4.473 6.441 4.358 2.73-.104 5.131-2.045 5.877-4.753.86-3.119-.417-5.652-4.205-8.004v.006Z" fill="#A2D0EF"/></svg>