<svg width="106" height="116" fill="none" xmlns="http://www.w3.org/2000/svg">
  <rect y="73.333" width="17.576" height="46.667" rx="4" fill="#1C4769"/>
  <rect x="29.697" y="42.424" width="16.97" height="77.576" rx="4" fill="#1C4769"/>
  <rect x="58.788" y="57.576" width="17.576" height="62.424" rx="4" fill="#1C4769"/>
  <rect x="88.485" y="34.545" width="16.97" height="85.454" rx="4" fill="#1C4769"/>
  <path fill-rule="evenodd" clip-rule="evenodd" d="M105.606 8.697a8.697 8.697 0 0 1-15.238 5.732L75.77 23.373a8.697 8.697 0 1 1-16.857 1.368l-13.731-5.608a8.686 8.686 0 0 1-7.08 3.645 8.659 8.659 0 0 1-5.29-1.793L16.658 34.18a8.697 8.697 0 1 1-2.415-3.192l16.036-13.1a8.697 8.697 0 1 1 16.415-2.458l13.731 5.609a8.686 8.686 0 0 1 7.08-3.645 8.67 8.67 0 0 1 6.172 2.57l14.813-9.076a8.697 8.697 0 1 1 17.115-2.191Z" fill="#153E5F"/>
</svg>
