<svg width="132" height="94" fill="none" xmlns="http://www.w3.org/2000/svg"><path fill-rule="evenodd" clip-rule="evenodd" d="M9.552 25A9.552 9.552 0 0 0 0 34.552v34.845a9.552 9.552 0 0 0 9.552 9.552h5.13V93.1l18.41-14.15h58.356A9.552 9.552 0 0 0 101 69.397V34.552A9.552 9.552 0 0 0 91.448 25H9.552Z" fill="#153E5F"/><rect x="11" y="35" width="60" height="5" rx="2.5" fill="#1C4769"/><rect x="11" y="48" width="79" height="5" rx="2.5" fill="#1C4769"/><rect x="11" y="61" width="41" height="5" rx="2.5" fill="#1C4769"/><rect x="61" y="61" width="29" height="5" rx="2.5" fill="#1C4769"/><path fill-rule="evenodd" clip-rule="evenodd" d="M125.408 0A6.592 6.592 0 0 1 132 6.592v23.816A6.592 6.592 0 0 1 125.408 37h-3.834v10l-13.011-10h-19.97A6.592 6.592 0 0 1 82 30.408V6.592A6.592 6.592 0 0 1 88.592 0h36.816Z" fill="#1C4769"/><path d="M106.778 21.898h-1.347c-.425 0-.618-.157-.668-.59-.128-1.106.128-2.089.9-2.914a6.616 6.616 0 0 1 1.896-1.423c.312-.155.622-.349.874-.588.655-.622.556-1.613-.202-2.09-.884-.556-1.806-.571-2.707-.054-.266.153-.48.41-.694.641-.256.277-.487.579-.728.87-.248.3-.513.336-.821.097a401.02 401.02 0 0 1-2.038-1.589c-.257-.201-.313-.46-.155-.728.617-1.043 1.389-1.932 2.418-2.568.881-.546 1.843-.825 2.862-.929 1.54-.157 2.938.25 4.215 1.11 1.192.801 2.063 1.875 2.327 3.335.29 1.608-.095 3.03-1.401 4.073-.496.396-1.054.71-1.579 1.07-.488.332-.817.797-1.022 1.355-.035.096-.046.204-.058.308-.043.401-.269.614-.66.614h-1.412Zm.045.852h1.493c.366 0 .58.21.581.58.004 1.03.004 2.06 0 3.088-.001.371-.215.58-.581.582h-2.985c-.363 0-.583-.213-.585-.581a317.86 317.86 0 0 1 0-3.088c.002-.369.222-.58.585-.58.498-.002.995 0 1.493 0l-.001-.001Z" fill="#153E5F"/></svg>