<svg width="133" height="165" fill="none" xmlns="http://www.w3.org/2000/svg"><path d="M133 107.894V89.111h-14.385a52.861 52.861 0 0 0-2.272-8.541l12.444-7.185-9.392-16.267-12.464 7.195a53.276 53.276 0 0 0-6.244-6.244l7.195-12.464-16.267-9.392-7.185 12.444a52.32 52.32 0 0 0-8.54-2.272V32H57.105v14.385a52.827 52.827 0 0 0-8.541 2.272L41.38 36.213l-16.262 9.392 7.195 12.464a53.341 53.341 0 0 0-6.244 6.244l-12.46-7.195-9.396 16.267 12.444 7.185a52.32 52.32 0 0 0-2.272 8.54H0v18.784h14.385a52.831 52.831 0 0 0 2.272 8.541L4.213 123.62l9.392 16.267 12.459-7.195a53.276 53.276 0 0 0 6.244 6.244l-7.195 12.459 16.267 9.392 7.185-12.444a52.348 52.348 0 0 0 8.54 2.272V165H75.89v-14.385a52.861 52.861 0 0 0 8.541-2.272l7.185 12.444 16.267-9.392-7.195-12.459a53.21 53.21 0 0 0 6.244-6.244l12.464 7.195 9.392-16.267-12.444-7.185a52.352 52.352 0 0 0 2.272-8.541H133Zm-66.502 17.087c-34.81-.595-34.805-52.372 0-52.962 34.809.595 34.799 52.372 0 52.962Z" fill="#153E5F"/><path d="M133 38.232V28.77h-7.247a26.6 26.6 0 0 0-1.144-4.303l6.269-3.62-4.732-8.194-6.278 3.625a26.95 26.95 0 0 0-3.146-3.146l3.625-6.278-8.195-4.732-3.619 6.27c-1.384-.5-2.824-.88-4.303-1.145V0h-9.462v7.247a26.61 26.61 0 0 0-4.303 1.144l-3.62-6.269-8.192 4.732 3.625 6.278a26.886 26.886 0 0 0-3.146 3.146l-6.276-3.625-4.734 8.195 6.27 3.62c-.5 1.383-.88 2.823-1.145 4.302H66v9.462h7.247c.264 1.48.647 2.92 1.144 4.303l-6.269 3.62 4.731 8.194 6.277-3.624a26.855 26.855 0 0 0 3.145 3.145l-3.624 6.277 8.194 4.73 3.62-6.268c1.384.499 2.823.88 4.303 1.144V67h9.462v-7.247a26.636 26.636 0 0 0 4.303-1.144l3.619 6.269 8.195-4.731-3.625-6.277a26.935 26.935 0 0 0 3.146-3.145l6.278 3.624 4.732-8.194-6.269-3.62c.499-1.384.88-2.823 1.144-4.303H133ZM99.499 46.84c-17.536-.3-17.533-26.383 0-26.68 17.536.3 17.53 26.383 0 26.68Z" fill="#1C4769"/></svg>