<svg width="109" height="124" fill="none" xmlns="http://www.w3.org/2000/svg"><rect y="75.411" width="18.074" height="47.989" rx="4" fill="#C9E4F6"/><rect x="30.538" y="43.626" width="17.451" height="79.774" rx="4" fill="#C9E4F6"/><rect x="60.454" y="59.207" width="18.074" height="64.193" rx="4" fill="#C9E4F6"/><rect x="90.992" y="35.524" width="17.451" height="87.876" rx="4" fill="#C9E4F6"/><path fill-rule="evenodd" clip-rule="evenodd" d="M108.599 8.943a8.944 8.944 0 0 1-15.708 5.851L77.898 23.98c.3.896.463 1.854.463 2.85a8.943 8.943 0 1 1-17.77-1.445l-14.096-5.757a8.933 8.933 0 0 1-7.314 3.795 8.905 8.905 0 0 1-5.486-1.88L17.106 35.096a8.943 8.943 0 1 1-2.415-3.192l16.472-13.456a8.943 8.943 0 1 1 16.845-2.522l14.096 5.758a8.933 8.933 0 0 1 7.314-3.796 8.916 8.916 0 0 1 6.388 2.684l15.207-9.317A8.943 8.943 0 0 1 99.655 0a8.944 8.944 0 0 1 8.944 8.943Z" fill="#A2D0EF"/></svg>