<svg width="116" height="85" fill="none" xmlns="http://www.w3.org/2000/svg">
  <path d="M110.605 74.264V11.06L73.427 40.71 45.57 25.201 9.48 63.072v11.192h101.125Z" fill="#C9E4F6"/>
  <path d="M7.9 3.16H3.16v77.424h107.445v-4.74H7.9V3.16Z" fill="#C9E4F6"/>
  <path fill-rule="evenodd" clip-rule="evenodd" d="M0 0h11.06v72.684h102.706v11.06H0V0Zm7.9 3.16v72.684h102.705v4.74H3.16V3.16H7.9Z" fill="#F5FCFF"/>
  <path fill-rule="evenodd" clip-rule="evenodd" d="M71.135 54.009c10.462 0 18.991-8.527 18.991-19.104S81.597 15.8 71.134 15.8c-10.462 0-18.991 8.527-18.991 19.104s8.529 19.104 18.992 19.104Zm0 6.32c13.979 0 25.312-11.383 25.312-25.424 0-14.042-11.333-25.425-25.313-25.425-13.98 0-25.312 11.383-25.312 25.425 0 14.041 11.333 25.424 25.313 25.424Z" fill="#A2D0EF"/>
  <mask id="a" style="mask-type:alpha" maskUnits="userSpaceOnUse" x="45" y="6" width="54" height="36">
    <path d="m73.474 41.082-27.652-15.8C60.991-6.953 87.431 8.69 98.755 20.54L73.474 41.08Z" fill="#FF9898"/>
  </mask>
  <g mask="url(#a)">
    <path fill-rule="evenodd" clip-rule="evenodd" d="M71.135 54.009c10.462 0 18.991-8.527 18.991-19.104S81.597 15.8 71.134 15.8c-10.462 0-18.991 8.527-18.991 19.104s8.529 19.104 18.992 19.104Zm0 6.32c13.979 0 25.312-11.383 25.312-25.424 0-14.042-11.333-25.425-25.313-25.425-13.98 0-25.312 11.383-25.312 25.425 0 14.041 11.333 25.424 25.313 25.424Z" fill="#A2D0EF"/>
  </g>
  <path fill-rule="evenodd" clip-rule="evenodd" d="M111.531 84.399 81.51 54.377l4.469-4.469L116 79.93l-4.469 4.469Z" fill="#A2D0EF"/>
</svg>
