<svg width="116" height="82" fill="none" xmlns="http://www.w3.org/2000/svg"><path d="M32.604 31.262c-.035 1.16.119 2.318.454 3.43.333.957.747 1.883 1.24 2.769.176.256.277.557.29.867a1.488 1.488 0 0 1-.744 1.157l-2.439 1.612c-.29.207-.635.323-.992.33a1.57 1.57 0 0 1-1.157-.536 9.833 9.833 0 0 1-1.405-1.777 37.966 37.966 0 0 1-1.157-2.273 14.217 14.217 0 0 1-11.323 5.33 10.497 10.497 0 0 1-7.687-2.768 9.753 9.753 0 0 1-2.81-7.398 10.042 10.042 0 0 1 3.471-7.934 14.174 14.174 0 0 1 9.464-2.976c1.383-.006 2.764.09 4.133.29 1.446.206 2.892.496 4.422.826v-2.81a8.513 8.513 0 0 0-1.819-6.158 8.761 8.761 0 0 0-6.281-1.777 18.187 18.187 0 0 0-4.133.496c-1.41.335-2.79.777-4.133 1.323l-1.363.496h-.579c-.578 0-.826-.414-.826-1.199v-1.9a2.562 2.562 0 0 1 .247-1.323 3.224 3.224 0 0 1 1.116-.827 24.796 24.796 0 0 1 4.835-1.735 23.555 23.555 0 0 1 5.993-.744c3.643-.318 7.265.81 10.083 3.14a12.398 12.398 0 0 1 3.183 9.464l-.083 12.605ZM16.983 37.13a12.399 12.399 0 0 0 4.132-.703 8.264 8.264 0 0 0 3.637-2.48 5.62 5.62 0 0 0 1.322-2.437c.267-1.096.392-2.22.372-3.348v-1.735a31.072 31.072 0 0 0-3.678-.538h-3.637a8.802 8.802 0 0 0-5.703 1.53 5.371 5.371 0 0 0-1.9 4.462 5.372 5.372 0 0 0 1.405 4.133 5.496 5.496 0 0 0 4.05 1.116Zm30.953 4.133a2.314 2.314 0 0 1-1.488-.372 3.016 3.016 0 0 1-.826-1.53l-9.01-29.754a5.743 5.743 0 0 1-.33-1.57c0-.62.29-.951.909-.951h3.802a2.315 2.315 0 0 1 1.488.372c.402.424.675.955.785 1.529l6.488 25.705L55.83 9.028a2.52 2.52 0 0 1 .744-1.529c.455-.29.992-.42 1.53-.372h3.099c.55-.048 1.1.082 1.57.372.387.43.645.96.744 1.53l5.992 25.663 6.654-25.788c.11-.574.382-1.105.785-1.529.439-.29.964-.42 1.487-.372h3.596a.868.868 0 0 1 .95.95c.016.207.016.414 0 .62 0 0 0 .538-.248.951l-9.34 29.755a3.059 3.059 0 0 1-.784 1.529 2.48 2.48 0 0 1-1.488.372h-3.306a2.19 2.19 0 0 1-1.53-.413 2.644 2.644 0 0 1-.743-1.53l-5.992-24.795-5.952 24.796a2.644 2.644 0 0 1-.743 1.529 2.273 2.273 0 0 1-1.53.413l-3.388.083Zm49.591.991c-2.002.01-4-.212-5.95-.66a17.398 17.398 0 0 1-4.423-1.53 2.851 2.851 0 0 1-1.198-1.074c-.16-.35-.245-.73-.248-1.116V35.93c0-.785.29-1.198.868-1.198.246-.04.497-.04.744 0l.95.413a19.675 19.675 0 0 0 4.133 1.323 21.65 21.65 0 0 0 4.587.496 10.205 10.205 0 0 0 5.62-1.282 4.136 4.136 0 0 0 1.984-3.636 3.624 3.624 0 0 0-.24-1.45 3.624 3.624 0 0 0-.793-1.236 9.465 9.465 0 0 0-3.885-2.025l-5.579-1.777a11.695 11.695 0 0 1-6.157-3.885 9.257 9.257 0 0 1-1.943-5.62 8.265 8.265 0 0 1 1.033-4.133 10.208 10.208 0 0 1 2.77-3.182 12.398 12.398 0 0 1 4.132-1.984 16.943 16.943 0 0 1 4.876-.661c.853-.06 1.71-.06 2.563 0l2.52.413 2.191.62 1.611.661c.433.256.823.576 1.158.95.23.388.345.832.33 1.282v1.818c0 .827-.289 1.24-.868 1.24a3.798 3.798 0 0 1-1.487-.496 17.981 17.981 0 0 0-7.44-1.488 10.374 10.374 0 0 0-5.123 1.075 3.802 3.802 0 0 0-1.819 3.471 3.762 3.762 0 0 0 1.157 2.728 11.488 11.488 0 0 0 4.133 2.108l5.455 1.735a11.905 11.905 0 0 1 5.951 3.72 8.676 8.676 0 0 1 1.777 5.413 9.838 9.838 0 0 1-.992 4.463 9.67 9.67 0 0 1-2.81 3.39 12.397 12.397 0 0 1-4.133 2.19c-1.804.58-3.684.886-5.579.909l.124-.042Z" fill="#C9E4F6"/><path fill-rule="evenodd" clip-rule="evenodd" d="M104.677 61.264a82.944 82.944 0 0 1-46.906 14.34A84.884 84.884 0 0 1 .493 53.785c-1.198-1.074 0-2.562 1.323-1.735a114.928 114.928 0 0 0 57.278 15.208 113.812 113.812 0 0 0 43.723-8.927c2.149-.909 3.967 1.405 1.86 2.934Z" fill="#A2D0EF"/><path fill-rule="evenodd" clip-rule="evenodd" d="M109.966 55.355c-1.653-2.108-10.745-.992-14.836-.496-1.24 0-1.405-.95-.29-1.736 7.233-5.083 19.135-3.636 20.664-1.9 1.529 1.735-.372 13.637-7.191 19.34-1.033.868-2.025.372-1.57-.744 1.405-3.926 4.835-12.48 3.223-14.464Z" fill="#A2D0EF"/></svg>