<svg xmlns="http://www.w3.org/2000/svg" width="123" height="123" fill="none"><g clip-path="url(#a)"><path fill="#C9E4F6" d="M63.295 83.387c-7.123 0-14.251.067-21.375-.02-8.732-.105-16.096-6.018-18.238-14.486-2.728-10.788 4.592-21.822 15.587-23.445.793-.116 1.018-.404 1.148-1.167a17.347 17.347 0 0 1 16.279-14.425c7.892-.39 15.178 4.952 17.268 12.71.187.686.5.96 1.157 1.119 4.809 1.138 8.05 4.083 9.794 8.675.25.658.524.927 1.244.99 7.82.686 13.983 7.622 13.719 15.394-.274 8.075-6.686 14.453-14.722 14.655-.202.005-.4.014-.6.014H63.3v-.014h-.005Z"/><path fill="#C9E4F6" d="M108.91 34.715c1.922-1.09 3.929-2.234 5.937-3.373 10.76 17.283 12.734 46.497-5.759 69.03-19.915 24.262-51.396 27.413-72.857 17.018 1.253-1.96 2.516-3.934 3.717-5.802 25.055 8.732 46.65 3.881 64.255-16.596 13.906-19.055 15.083-39.095 4.707-60.278ZM83.252 4.112l-3.372 6.143C57.44 3.526 37.226 7.614 21.284 25.32 5.37 42.99 3.425 63.477 12.547 85.429c-.894.441-1.946.97-3.003 1.488-1.037.51-2.08 1.014-3.117 1.518-8.896-16.365-10.404-44.042 7.508-65.859C32.553-.1 61.829-4.524 83.252 4.112Z"/><path fill="#A2D0EF" d="M107.183 15.587c-.072 5.793-4.818 10.433-10.577 10.337-5.697-.091-10.36-4.851-10.313-10.524.053-5.831 4.804-10.447 10.673-10.366 5.721.077 10.284 4.794 10.212 10.553h.005ZM13.134 104.997c.091-5.788 4.861-10.437 10.592-10.322 5.73.115 10.341 4.847 10.274 10.534-.067 5.86-4.784 10.437-10.668 10.346-5.712-.086-10.29-4.827-10.198-10.562v.004Z"/></g><defs><clipPath id="a"><path fill="#fff" d="M0 0h123v123H0z"/></clipPath></defs></svg>