<svg width="123" height="123" fill="none" xmlns="http://www.w3.org/2000/svg">
  <path d="M26.408 60.83c-1.002-.582-1.907-1.11-2.816-1.636-2.99-1.73-5.978-3.452-8.963-5.186-.543-.314-1.09-.636-1.581-1.018-1.034-.804-1.65-1.898-1.911-3.17-.398-1.955.085-3.717 1.28-5.294.989-1.311 2.308-2.043 3.942-2.256 1.456-.19 2.771.164 4.018.885 2.076 1.202 4.156 2.405 6.232 3.612 1.605.933 3.21 1.87 4.815 2.804 2.076 1.207 4.152 2.41 6.231 3.608 1.457.841 2.925 1.662 4.373 2.519 1.666.993 2.523 2.502 2.796 4.405.213 1.496-.064 2.892-.728 4.224a5.096 5.096 0 0 1-2.024 2.152c-2.707 1.58-5.426 3.142-8.138 4.719-2.031 1.178-4.055 2.365-6.086 3.544-2.136 1.239-4.268 2.486-6.42 3.7a9.782 9.782 0 0 1-3.396 1.163c-1.701.246-3.274-.165-4.614-1.295-1.589-1.344-2.418-3.05-2.373-5.113.028-1.517.575-2.864 1.62-3.999.652-.708 1.429-1.23 2.254-1.705 1.93-1.107 3.85-2.229 5.776-3.343l5.145-2.97c.165-.096.322-.2.568-.35ZM96.453 60.835c.644.382 1.179.708 1.726 1.022a9993.19 9993.19 0 0 0 8.689 5.028c.547.314 1.102.612 1.641.941 1.766 1.075 2.933 2.567 3.247 4.663.245 1.625-.121 3.102-1.074 4.42-1.296 1.8-3.066 2.732-5.29 2.716-1.05-.008-2.048-.313-2.957-.832-2.965-1.698-5.914-3.42-8.87-5.134-3.396-1.967-6.795-3.934-10.19-5.897-.97-.56-1.955-1.098-2.917-1.673-1.259-.749-2.063-1.88-2.34-3.287-.391-1.991-.134-3.906 1.073-5.616.45-.64 1.042-1.134 1.718-1.525 1.818-1.053 3.64-2.104 5.463-3.153 2.047-1.183 4.095-2.366 6.143-3.553 2.969-1.725 5.933-3.455 8.906-5.173.728-.418 1.452-.865 2.233-1.166 2.257-.873 4.723-.355 6.344 1.363 1.826 1.935 2.45 4.61 1.347 7.048-.547 1.207-1.44 2.084-2.594 2.724-1.392.772-2.772 1.577-4.152 2.37-2.035 1.17-4.067 2.348-6.098 3.523-.648.374-1.296.756-2.036 1.187l-.012.004ZM79.26 30.865c.257-.117.401-.17.534-.246a3090.03 3090.03 0 0 0 6.2-3.556c1.778-1.017 3.56-2.031 5.338-3.053 1.106-.64 2.289-.962 3.568-.881 1.295.084 2.466.51 3.443 1.384 1.159 1.038 1.935 2.321 2.177 3.862.301 1.915-.117 3.648-1.489 5.1-.49.52-1.066.902-1.677 1.252-1.762 1.01-3.524 2.027-5.282 3.045l-5.688 3.287c-1.85 1.07-3.697 2.144-5.544 3.218-1.589.925-3.158 1.895-4.775 2.764-2.394 1.287-4.73 1.07-6.92-.52-1.206-.876-1.854-2.123-2.12-3.572a6.49 6.49 0 0 1-.116-1.146c0-8.138 0-16.272.008-24.41 0-1.437.35-2.784 1.247-3.935 1.17-1.5 2.688-2.357 4.623-2.45 1.862-.088 3.451.535 4.738 1.859 1.09 1.122 1.69 2.486 1.69 4.07.008 4.386 0 8.767.008 13.151 0 .222.016.443.032.769l.004.008ZM43.646 31.102v-.688c0-4.437.008-8.874 0-13.311-.004-1.75.643-3.222 1.89-4.413 1.107-1.066 2.454-1.637 4.023-1.682 1.995-.056 3.625.688 4.92 2.173.805.92 1.28 2.011 1.372 3.234.068.889.096 1.782.096 2.675.008 7.402.012 14.804 0 22.206 0 1.348-.25 2.651-1.026 3.798-1.263 1.862-3.025 2.832-5.273 2.848-.938.008-1.823-.278-2.643-.76-1.794-1.063-3.605-2.1-5.407-3.146-1.605-.934-3.21-1.867-4.82-2.8l-5.732-3.32-4.815-2.799c-.35-.201-.7-.398-1.05-.595-1.489-.841-2.434-2.104-2.784-3.766-.241-1.146-.197-2.297.217-3.415.491-1.32 1.264-2.43 2.43-3.218 1.235-.837 2.615-1.143 4.103-.938 1.01.141 1.907.552 2.776 1.066 3.194 1.895 6.4 3.774 9.603 5.656.543.322 1.086.644 1.629.962.133.076.273.133.49.233ZM79.26 91.135c.257.117.401.17.534.246a3090.03 3090.03 0 0 1 6.2 3.556c1.778 1.017 3.56 2.031 5.338 3.053 1.106.64 2.289.962 3.568.881 1.295-.084 2.466-.51 3.443-1.384 1.159-1.038 1.935-2.321 2.177-3.862.301-1.915-.117-3.648-1.489-5.1-.49-.52-1.066-.902-1.677-1.252-1.762-1.01-3.524-2.027-5.282-3.045l-5.688-3.287c-1.85-1.07-3.697-2.144-5.544-3.218-1.589-.925-3.158-1.895-4.775-2.763-2.394-1.288-4.73-1.07-6.92.518-1.206.877-1.854 2.124-2.12 3.573a6.49 6.49 0 0 0-.116 1.146c0 8.138 0 16.272.008 24.411 0 1.436.35 2.783 1.247 3.934 1.17 1.5 2.688 2.357 4.623 2.45 1.862.088 3.451-.535 4.738-1.859 1.09-1.122 1.69-2.486 1.69-4.071.008-4.385 0-8.766.008-13.15 0-.222.016-.443.032-.769l.004-.008ZM43.646 90.898v.688c0 4.437.008 8.874 0 13.311-.004 1.75.643 3.222 1.89 4.413 1.107 1.066 2.454 1.637 4.023 1.682 1.995.056 3.625-.688 4.92-2.173.805-.921 1.28-2.011 1.372-3.234.068-.889.096-1.782.096-2.675.008-7.402.012-14.804 0-22.206 0-1.348-.25-2.651-1.026-3.798-1.263-1.862-3.025-2.832-5.273-2.848-.938-.008-1.823.278-2.643.76-1.794 1.063-3.605 2.1-5.407 3.146-1.605.934-3.21 1.867-4.82 2.8l-5.732 3.32-4.815 2.799c-.35.201-.7.398-1.05.595-1.489.841-2.434 2.104-2.784 3.766-.241 1.146-.197 2.297.217 3.415.491 1.32 1.264 2.43 2.43 3.218 1.235.837 2.615 1.143 4.103.938 1.01-.141 1.907-.552 2.776-1.066 3.194-1.895 6.4-3.774 9.603-5.656.543-.322 1.086-.644 1.629-.962.133-.076.273-.133.49-.233Z" fill="#C9E4F6"/>
  <path d="M61.438 72.694c-.37 0-.736-.012-1.106 0-.567.024-1.03-.197-1.416-.583-2.856-2.848-5.709-5.705-8.56-8.557a2.003 2.003 0 0 1-.6-1.468v-2.052c0-.591.209-1.086.631-1.508 2.845-2.836 5.689-5.672 8.517-8.525.478-.482 1.05-.635 1.661-.647.769-.016 1.537.044 2.305.076.37.016.68.177.934.435.969.99 1.926 1.987 2.896 2.977.724.74 1.46 1.468 2.184 2.208 1.15 1.179 2.297 2.361 3.448 3.544.37.382.559.845.567 1.376.008.7.036 1.404-.008 2.104-.044.728-.262 1.388-.813 1.935-2.643 2.615-5.27 5.246-7.888 7.889-.555.559-1.159.885-1.96.8-.26-.028-.526-.004-.788-.004h-.004Zm4.216-11.674c.032-.551-.286-.954-.648-1.316-.78-.78-1.58-1.54-2.381-2.3a1.466 1.466 0 0 0-.443-.27c-.724-.302-1.295.02-1.81.49-.39.355-.752.737-1.118 1.115-.439.455-.897.893-1.292 1.38-.507.623-.45 1.424.117 2.007.82.84 1.65 1.674 2.494 2.49.66.636 1.497.636 2.16 0 .857-.828 1.694-1.677 2.53-2.53.282-.286.423-.64.399-1.066h-.008Z" fill="#92C9EC"/>
</svg>
