<svg width="972" height="516" fill="none" xmlns="http://www.w3.org/2000/svg"><path d="M10.999 0v516M48.999 0v516M86.999 0v516M124.999 0v516M162.999 0v516M200.999 0v516M238.999 0v516M276.999 0v516M314.999 0v516M352.999 0v516M390.999 0v516M428.999 0v516M466.999 0v516M504.999 0v516M542.999 0v516M580.999 0v516M618.999 0v516M656.999 0v516M694.999 0v516M732.999 0v516M770.999 0v516M808.999 0v516M846.999 0v516M884.999 0v516M922.999 0v516M960.999 0v516M0 505h972M0 467h972M0 429h972M0 391h972M0 353h972M0 315h972M0 277h972M0 239h972M0 201h972M0 163h972M0 125h972M0 87h972M0 49h972M0 11h972" stroke="#0F4465" stroke-miterlimit="10"/><g clip-path="url(#a)"><path style="mix-blend-mode:screen" d="M565.257 446.396c43.848-43.848 43.848-114.94 0-158.788-43.849-43.848-114.94-43.848-158.788 0-43.848 43.848-43.848 114.94 0 158.788 43.848 43.848 114.939 43.848 158.788 0Z" fill="url(#b)" fill-opacity=".5"/><path opacity=".4" d="M520.98 368.94h37.59l17.27 26.83h38.72M581.79 396.1l22.06 22.07h22.74" stroke="#046097" stroke-width=".75" stroke-linejoin="round"/><path d="M630.85 418.19a2.88 2.88 0 1 1-5.761-.001 2.88 2.88 0 0 1 5.761.001ZM617.44 396.1a2.88 2.88 0 1 1-5.761-.001 2.88 2.88 0 0 1 5.761.001Z" fill="#046097"/><path opacity=".4" d="M520.98 395.77h69.37l17.27-20.22h26.04" stroke="#046097" stroke-width=".75" stroke-linejoin="round"/><path d="M635.57 375.89a1.91 1.91 0 1 1-3.82 0 1.91 1.91 0 0 1 3.82 0Z" fill="#046097"/><path opacity=".4" d="M520.98 343.44h69.37l17.27-24.6h26.04M577.32 343.44l22.07 22.06h22.73" stroke="#046097" stroke-width=".75" stroke-linejoin="round"/><path d="M638.45 318.84a2.88 2.88 0 1 1-5.761-.001 2.88 2.88 0 0 1 5.761.001ZM622.12 367.41a1.91 1.91 0 1 0 0-3.82 1.91 1.91 0 0 0 0 3.82ZM449.64 254.2a2.88 2.88 0 1 1 5.761.001 2.88 2.88 0 0 1-5.761-.001ZM471.96 280.61a2.88 2.88 0 1 1 5.761.001 2.88 2.88 0 0 1-5.761-.001Z" fill="#046097"/><path opacity=".4" d="M457.64 329.13v-31.32l17.2-17.2M467.68 287.76l-15.16-15.16v-18.4" stroke="#046097" stroke-width=".75" stroke-linejoin="round"/><path d="M476.15 248.43a2.88 2.88 0 1 1 5.761.001 2.88 2.88 0 0 1-5.761-.001ZM503.92 249.08a2.04 2.04 0 1 0 0-4.08 2.04 2.04 0 0 0 0 4.08Z" fill="#046097"/><path opacity=".4" d="M483.83 329.13v-62.01l20.09-20.08M490.53 260.43l-10.91-10.91" stroke="#046097" stroke-width=".75" stroke-linejoin="round"/><path d="M493.87 291.37a2.67 2.67 0 0 1 2.67-2.67c1.48 0 2.67 1.19 2.67 2.67s-1.19 2.67-2.67 2.67-2.67-1.19-2.67-2.67ZM522.72 277.72c0-1.23.99-2.22 2.22-2.22 1.23 0 2.22.99 2.22 2.22 0 1.23-.99 2.22-2.22 2.22-1.23 0-2.22-.99-2.22-2.22Z" fill="#046097"/><path opacity=".4" d="M510.03 329.13v-24.27l-13.49-13.49M524.94 277.72l-21.03 21.03M450.47 369.68h-37.59l-17.27-26.82h-38.72" stroke="#046097" stroke-width=".75" stroke-linejoin="round"/><path d="M354.01 342.52a2.88 2.88 0 1 1 5.761.001 2.88 2.88 0 0 1-5.761-.001Z" fill="#046097"/><path opacity=".4" d="M450.47 342.86H381.1l-17.27 20.21h-26.04M389.66 342.52l-22.06-22.07h-22.74" stroke="#046097" stroke-width=".75" stroke-linejoin="round"/><path d="M340.6 320.43a2.88 2.88 0 1 1 5.761.001 2.88 2.88 0 0 1-5.761-.001ZM337.79 364.64a1.91 1.91 0 1 0 0-3.82 1.91 1.91 0 0 0 0 3.82Z" fill="#046097"/><path opacity=".4" d="M450.47 395.18H381.1l-17.27 24.6h-26.04M394.13 395.18l-22.07-22.06h-22.73" stroke="#046097" stroke-width=".75" stroke-linejoin="round"/><path d="M333 419.78a2.88 2.88 0 1 1 5.761.001 2.88 2.88 0 0 1-5.761-.001ZM349.33 375.03a1.91 1.91 0 1 0 0-3.82 1.91 1.91 0 0 0 0 3.82ZM518.15 499.49a2.88 2.88 0 1 1-5.761-.001 2.88 2.88 0 0 1 5.761.001ZM495.83 473.08a2.88 2.88 0 1 1-5.761-.001 2.88 2.88 0 0 1 5.761.001Z" fill="#046097"/><path opacity=".4" d="M510.15 424.56v31.32l-17.21 17.2" stroke="#046097" stroke-width=".75" stroke-linejoin="round"/><path opacity=".4" d="m500.1 465.92 15.17 15.17v18.4" stroke="#046097" stroke-width=".75" stroke-linejoin="round"/><path d="M488.75 508.14a2.88 2.88 0 1 0 0-5.76 2.88 2.88 0 0 0 0 5.76ZM463.87 508.69a2.04 2.04 0 1 0 0-4.08 2.04 2.04 0 0 0 0 4.08Z" fill="#046097"/><path opacity=".4" d="M483.96 424.56v62l-20.09 20.09M477.26 493.26l10.9 10.91" stroke="#046097" stroke-width=".75" stroke-linejoin="round"/><path d="M473.91 462.31a2.67 2.67 0 0 1-2.67 2.67c-1.48 0-2.67-1.19-2.67-2.67s1.19-2.67 2.67-2.67 2.67 1.19 2.67 2.67ZM442.85 478.19a2.22 2.22 0 1 0 0-4.44 2.22 2.22 0 0 0 0 4.44Z" fill="#046097"/><path opacity=".4" d="M457.76 424.56v24.27l13.49 13.48M442.85 475.97l21.02-21.03" stroke="#046097" stroke-width=".75" stroke-linejoin="round"/><path d="M462.21 314.71h-8.89v109.85h8.89V314.71ZM488.4 314.71h-8.89v109.85h8.89V314.71ZM514.59 314.71h-8.89v109.85h8.89V314.71Z" fill="#FF9C00" stroke="#046097" stroke-width=".75" stroke-linejoin="round"/><path d="M429.03 391.38v8.89h109.85v-8.89H429.03ZM429.03 365.18v8.89h109.85v-8.89H429.03ZM429.03 338.99v8.89h109.85v-8.89H429.03Z" fill="#FF9C00" stroke="#046097" stroke-width=".75" stroke-linejoin="round"/><path d="M522.35 326.45h-76.79a5.26 5.26 0 0 0-5.26 5.26v76.78a5.26 5.26 0 0 0 5.26 5.26h76.79a5.26 5.26 0 0 0 5.26-5.26v-76.78a5.26 5.26 0 0 0-5.26-5.26Z" fill="#92C9EC" stroke="#046097" stroke-width=".75" stroke-linejoin="round"/><path d="M452.71 333.08h62.48c3.2 0 5.79 2.59 5.79 5.79v62.48c0 3.2-2.59 5.79-5.79 5.79h-62.48c-3.2 0-5.79-2.59-5.79-5.79v-62.48c0-3.2 2.59-5.79 5.79-5.79v0Z" stroke="#77BCE8" stroke-width="5" stroke-linecap="round" stroke-linejoin="round"/><path opacity=".4" d="M458.63 338.99h50.65c3.2 0 5.79 2.59 5.79 5.79v50.65c0 3.2-2.59 5.79-5.79 5.79h-50.65c-3.2 0-5.79-2.59-5.79-5.79v-50.65c0-3.2 2.59-5.79 5.79-5.79Z" fill="#fff"/><path d="m470.86 376.69-3.44 10.41H463l11.25-33.1h5.16l11.3 33.1h-4.57l-3.54-10.41h-11.74Zm10.85-3.34-3.24-9.53c-.74-2.16-1.23-4.12-1.72-6.04h-.1c-.49 1.96-1.03 3.98-1.67 5.99l-3.24 9.58h9.97ZM504.76 354v33.1h-4.27V354h4.27Z" fill="#046097"/></g><defs><radialGradient id="b" cx="0" cy="0" r="1" gradientUnits="userSpaceOnUse" gradientTransform="translate(485.863 367.005) scale(112.28)"><stop offset=".36" stop-color="#77BCE8" stop-opacity=".69"/><stop offset=".4" stop-color="#77BCE8" stop-opacity=".57"/><stop offset=".46" stop-color="#77BCE8" stop-opacity=".42"/><stop offset=".52" stop-color="#77BCE8" stop-opacity=".29"/><stop offset=".59" stop-color="#77BCE8" stop-opacity=".18"/><stop offset=".66" stop-color="#77BCE8" stop-opacity=".1"/><stop offset=".74" stop-color="#77BCE8" stop-opacity=".04"/><stop offset=".84" stop-color="#77BCE8" stop-opacity=".01"/><stop offset="1" stop-color="#77BCE8" stop-opacity="0"/></radialGradient><clipPath id="a"><path fill="#fff" transform="translate(333 245)" d="M0 0h305.45v263.69H0z"/></clipPath></defs></svg>