<svg xmlns="http://www.w3.org/2000/svg" width="972" height="516" fill="none"><path stroke="#0F4465" stroke-miterlimit="10" d="M10.999 0v516M48.999 0v516M86.999 0v516M124.999 0v516M162.999 0v516M200.999 0v516M238.999 0v516M276.999 0v516M314.999 0v516M352.999 0v516M390.999 0v516M428.999 0v516M466.999 0v516M504.999 0v516M542.999 0v516M580.999 0v516M618.999 0v516M656.999 0v516M694.999 0v516M732.999 0v516M770.999 0v516M808.999 0v516M846.999 0v516M884.999 0v516M922.999 0v516M960.999 0v516M0 505h972M0 467h972M0 429h972M0 391h972M0 353h972M0 315h972M0 277h972M0 239h972M0 201h972M0 163h972M0 125h972M0 87h972M0 49h972M0 11h972"/><path stroke="#FF9C00" stroke-dasharray="4 4" d="M205 452v-96a4 4 0 0 1 4-4h175m21 0v-63m0 63h-21m21 0h122m-143 0v73m143-73v125a4 4 0 0 0 4 4h101a4 4 0 0 0 4-4V352m-109 0h109m0 0v-35a4 4 0 0 1 4-4h102a4 4 0 0 1 4 4v151"/><path fill="#154D72" d="M245.822 426.917h-74.573v51.913h74.573v-51.913Z"/><path fill="#046097" d="M237.714 442.314H161v19.032h76.714v-19.032Z"/><path fill="#154D72" d="M179.513 446.235h-15.104v2.326h15.104v-2.326ZM179.513 450.238h-15.104v2.325h15.104v-2.325ZM179.513 454.37h-15.104v2.326h15.104v-2.326ZM185.48 447.64a.867.867 0 1 1-1.733 0 .867.867 0 0 1 1.733 0ZM189.306 447.64a.867.867 0 1 1-1.733 0 .867.867 0 0 1 1.733 0ZM193.131 447.64a.87.87 0 0 1-1.035.849.862.862 0 0 1-.68-.68.873.873 0 0 1 .368-.889.869.869 0 0 1 1.094.108.865.865 0 0 1 .253.612ZM196.957 447.64a.87.87 0 0 1-.145.487.868.868 0 0 1-.897.376.869.869 0 0 1-.688-.688.873.873 0 0 1 .864-1.041.864.864 0 0 1 .866.866ZM226.586 447.64a.867.867 0 1 1-1.733 0 .867.867 0 0 1 1.733 0ZM230.486 447.64a.876.876 0 0 1-.536.812.868.868 0 0 1-.954-.188.868.868 0 0 1-.188-.954.88.88 0 0 1 .324-.392.882.882 0 0 1 1.1.11.862.862 0 0 1 .254.612ZM200.776 447.64a.867.867 0 1 1-1.733 0 .867.867 0 0 1 1.733 0ZM219.555 447.64a.867.867 0 1 1-1.733 0 .867.867 0 0 1 1.733 0Z"/><path fill="#103654" d="M204.601 447.64a.867.867 0 1 1-1.733 0 .867.867 0 0 1 1.733 0ZM208.426 447.64a.87.87 0 0 1-1.035.849.862.862 0 0 1-.68-.68.873.873 0 0 1 .368-.889.869.869 0 0 1 1.094.108.865.865 0 0 1 .253.612ZM216.179 447.64c0 .171-.05.339-.146.481a.858.858 0 0 1-.889.368.862.862 0 0 1-.68-.68.864.864 0 0 1 .849-1.035.865.865 0 0 1 .615.252.859.859 0 0 1 .251.614ZM233.657 447.64a.867.867 0 1 1-1.733 0 .867.867 0 0 1 1.733 0Z"/><path fill="#FF9B05" d="M212.252 447.64a.878.878 0 0 1-.535.811.87.87 0 0 1-1.145-1.137.869.869 0 0 1 .807-.54.865.865 0 0 1 .873.866ZM223.197 447.64a.867.867 0 1 1-1.733 0 .867.867 0 0 1 1.733 0Z"/><path fill="#154D72" d="M231.925 451.82a.867.867 0 1 1 1.733 0 .867.867 0 0 1-1.733 0ZM228.1 451.82a.87.87 0 0 1 1.035-.849.862.862 0 0 1 .68.68.87.87 0 0 1-.849 1.035.866.866 0 0 1-.866-.866ZM224.274 451.82a.867.867 0 1 1 1.733 0 .867.867 0 0 1-1.733 0ZM220.448 451.82a.878.878 0 0 1 .534-.811.874.874 0 1 1-.534.811ZM190.819 451.82a.863.863 0 0 1 .533-.799.865.865 0 1 1 .007 1.601.869.869 0 0 1-.54-.802ZM186.919 451.82a.867.867 0 1 1 1.733 0 .867.867 0 0 1-1.733 0ZM216.63 451.82a.867.867 0 1 1 1.733 0 .867.867 0 0 1-1.733 0ZM197.83 451.82a.867.867 0 1 1 1.733 0 .867.867 0 0 1-1.733 0Z"/><path fill="#103654" d="M212.832 451.82a.867.867 0 1 1 1.733 0 .867.867 0 0 1-1.733 0ZM208.979 451.82a.866.866 0 1 1 1.731-.003.866.866 0 0 1-1.731.003ZM201.239 451.82a.867.867 0 1 1 1.733 0 .867.867 0 0 1-1.733 0ZM183.748 451.82a.867.867 0 1 1 1.733 0 .867.867 0 0 1-1.733 0Z"/><path fill="#FF9B05" d="M205.16 451.82a.867.867 0 1 1 1.733 0 .867.867 0 0 1-1.733 0ZM194.209 451.82a.865.865 0 1 1 1.73 0 .865.865 0 0 1-1.73 0Z"/><path fill="#154D72" d="M185.48 455.536a.87.87 0 0 1-.535.801.873.873 0 0 1-.943-.188.865.865 0 1 1 1.478-.613ZM188.447 456.396a.866.866 0 1 0 0-1.733.866.866 0 0 0 0 1.733ZM192.265 456.396a.866.866 0 1 0 0-1.731.866.866 0 0 0 0 1.731ZM196.091 456.396a.866.866 0 1 0 0-1.733.866.866 0 0 0 0 1.733ZM225.72 456.396a.866.866 0 1 0 0-1.733.866.866 0 0 0 0 1.733ZM229.62 456.396a.866.866 0 1 0 0-1.733.866.866 0 0 0 0 1.733ZM200.776 455.536a.87.87 0 0 1-.535.801.873.873 0 0 1-.943-.188.858.858 0 0 1-.237-.444.865.865 0 1 1 1.715-.169ZM219.555 455.536a.87.87 0 0 1-.534.801.87.87 0 0 1-1.181-.632.864.864 0 0 1 .849-1.035.867.867 0 0 1 .866.866Z"/><path fill="#103654" d="M203.735 456.396a.866.866 0 1 0 0-1.733.866.866 0 0 0 0 1.733ZM208.426 455.536a.862.862 0 0 1-.534.801.87.87 0 0 1-1.181-.632.873.873 0 0 1 .368-.889.869.869 0 0 1 1.094.108.867.867 0 0 1 .253.612ZM216.179 455.536a.862.862 0 0 1-.534.801.87.87 0 0 1-1.181-.632.864.864 0 0 1 .849-1.035.867.867 0 0 1 .866.866ZM233.657 455.536a.87.87 0 0 1-.535.801.873.873 0 0 1-.944-.188.865.865 0 0 1 .132-1.333.867.867 0 0 1 1.347.72Z"/><path fill="#FF9B05" d="M212.252 455.536a.876.876 0 0 1-1.039.864.873.873 0 0 1 .166-1.73.87.87 0 0 1 .873.866ZM222.331 456.396a.866.866 0 1 0 0-1.733.866.866 0 0 0 0 1.733Z"/><path fill="#046097" d="M237.714 465.806H161v19.032h76.714v-19.032Z"/><path fill="#154D72" d="M185.296 470.941a.87.87 0 0 1-1.038.863.865.865 0 0 1-.69-.684.873.873 0 1 1 1.728-.179ZM189.115 470.941a.863.863 0 0 1-.543.803.872.872 0 0 1-.948-.204.868.868 0 0 1 .659-1.465.862.862 0 0 1 .832.866ZM192.94 470.941a.869.869 0 0 1-.535.8.864.864 0 0 1-1.18-.631.86.86 0 0 1 .368-.889.867.867 0 0 1 1.347.72ZM196.766 470.941a.869.869 0 0 1-.534.8.868.868 0 0 1-1.181-.631.868.868 0 0 1 .368-.889.867.867 0 0 1 1.347.72ZM226.394 470.941a.869.869 0 0 1-.534.8.868.868 0 0 1-1.181-.631.86.86 0 0 1 .368-.889.867.867 0 0 1 1.347.72ZM230.296 470.941a.869.869 0 0 1-.535.8.864.864 0 0 1-1.181-.631.87.87 0 0 1 .849-1.035.87.87 0 0 1 .867.866ZM200.557 470.941a.869.869 0 0 1-.534.8.868.868 0 0 1-1.181-.631.868.868 0 0 1 .368-.889.867.867 0 0 1 1.347.72ZM219.364 470.941a.869.869 0 0 1-.535.8.864.864 0 0 1-1.181-.631.869.869 0 0 1 .85-1.035.865.865 0 0 1 .866.866Z"/><path fill="#103654" d="M204.41 470.941a.869.869 0 0 1-.535.8.864.864 0 0 1-1.181-.631.869.869 0 0 1 .85-1.035.867.867 0 0 1 .866.866ZM208.236 470.941a.869.869 0 0 1-.535.8.864.864 0 0 1-1.18-.631.86.86 0 0 1 .368-.889.867.867 0 0 1 1.347.72ZM215.996 470.941a.87.87 0 0 1-.145.487.868.868 0 0 1-.897.376.876.876 0 0 1-.688-.688.877.877 0 0 1 .376-.897.871.871 0 0 1 .488-.144.867.867 0 0 1 .866.866ZM233.466 470.941a.861.861 0 0 1-.534.8.868.868 0 0 1-1.132-1.132.87.87 0 0 1 .8-.534c.23 0 .45.091.613.253a.87.87 0 0 1 .253.613Z"/><path fill="#FF9B05" d="M212.061 470.941a.869.869 0 0 1-.534.8.868.868 0 0 1-1.181-.631.86.86 0 0 1 .368-.889.867.867 0 0 1 1.347.72ZM223.005 470.941a.868.868 0 0 1-.534.8.865.865 0 0 1-1.181-.631.87.87 0 0 1 .849-1.035c.23 0 .45.091.613.253a.87.87 0 0 1 .253.613Z"/><path fill="#154D72" d="M231.734 475.114a.867.867 0 1 1 1.733 0 .867.867 0 0 1-1.733 0ZM228.781 475.98a.866.866 0 1 0 0-1.733.866.866 0 0 0 0 1.733ZM224.083 475.114a.876.876 0 0 1 .536-.812.872.872 0 1 1 .33 1.678.862.862 0 0 1-.612-.254.862.862 0 0 1-.254-.612ZM220.265 475.114c0-.171.05-.339.146-.481a.869.869 0 0 1 1.332-.132.869.869 0 0 1-.131 1.333.869.869 0 0 1-1.094-.108.865.865 0 0 1-.253-.612ZM190.629 475.114a.878.878 0 0 1 .534-.811.873.873 0 1 1 .005 1.613.867.867 0 0 1-.539-.802ZM186.735 475.114a.867.867 0 1 1 1.733 0 .867.867 0 0 1-1.733 0ZM217.304 475.98a.867.867 0 1 0 0-1.733.867.867 0 0 0 0 1.733ZM198.532 475.98a.866.866 0 1 0 0-1.733.866.866 0 0 0 0 1.733Z"/><path fill="#103654" d="M212.613 475.114a.867.867 0 1 1 1.733 0 .867.867 0 0 1-1.733 0ZM208.788 475.114a.878.878 0 0 1 .534-.811.874.874 0 0 1 1.146 1.137.873.873 0 0 1-1.141.476.878.878 0 0 1-.472-.469.865.865 0 0 1-.067-.333ZM201.9 475.98a.866.866 0 1 0 0-1.733.866.866 0 0 0 0 1.733ZM183.558 475.114a.868.868 0 0 1 .535-.812.868.868 0 0 1 .955.188.88.88 0 0 1 .188.954.876.876 0 0 1-1.425.282.865.865 0 0 1-.253-.612Z"/><path fill="#FF9B05" d="M204.969 475.114a.867.867 0 1 1 1.733 0 .867.867 0 0 1-1.733 0ZM194.018 475.114c0-.171.05-.339.146-.481a.868.868 0 0 1 1.332-.132.869.869 0 0 1-.131 1.333.869.869 0 0 1-1.094-.108.865.865 0 0 1-.253-.612Z"/><path fill="#154D72" d="M185.296 478.83a.867.867 0 0 1-.534.812.87.87 0 0 1-.953-.185.87.87 0 0 1-.192-.952.877.877 0 0 1 1.613-.008.867.867 0 0 1 .066.333ZM189.115 478.83a.864.864 0 0 1-1.048.846.867.867 0 1 1 .806-1.446.865.865 0 0 1 .242.6ZM192.94 478.83a.864.864 0 0 1-1.035.85.87.87 0 0 1-.68-.681.86.86 0 0 1 .849-1.035.866.866 0 0 1 .866.866ZM196.766 478.83a.864.864 0 0 1-1.035.85.87.87 0 0 1-.68-.681.864.864 0 0 1 .849-1.035.867.867 0 0 1 .866.866ZM226.394 478.83a.864.864 0 0 1-1.035.85.87.87 0 0 1-.68-.681.873.873 0 0 1 .849-1.035.873.873 0 0 1 .866.866ZM230.296 478.83a.864.864 0 0 1-1.035.85.872.872 0 0 1-.681-.681.873.873 0 0 1 .368-.889.869.869 0 0 1 1.094.108.868.868 0 0 1 .254.612ZM200.557 478.83a.864.864 0 0 1-1.035.85.87.87 0 0 1-.68-.681.864.864 0 0 1 .849-1.035.867.867 0 0 1 .866.866ZM219.364 478.83a.864.864 0 0 1-1.035.85.872.872 0 0 1-.681-.681.865.865 0 0 1 .369-.889.867.867 0 0 1 1.347.72Z"/><path fill="#103654" d="M204.41 478.83a.864.864 0 0 1-1.035.85.872.872 0 0 1-.681-.681.865.865 0 0 1 .369-.889.864.864 0 0 1 1.347.72ZM208.236 478.83a.864.864 0 0 1-1.035.85.87.87 0 0 1-.68-.681.86.86 0 0 1 .849-1.035.866.866 0 0 1 .866.866ZM215.996 478.83a.872.872 0 1 1-1.745.013.872.872 0 0 1 1.745-.013ZM233.466 478.83c0 .172-.05.339-.146.481a.868.868 0 0 1-1.332.132.865.865 0 1 1 1.478-.613Z"/><path fill="#FF9B05" d="M212.061 478.83a.864.864 0 0 1-1.035.85.87.87 0 0 1-.68-.681.873.873 0 0 1 .849-1.035.866.866 0 0 1 .866.866ZM223.005 478.83a.863.863 0 0 1-1.034.85.872.872 0 0 1-.681-.681.873.873 0 0 1 .368-.889.869.869 0 0 1 1.094.108.867.867 0 0 1 .253.612Z"/><path fill="#154D72" d="M179.513 469.727h-15.104v2.325h15.104v-2.325ZM179.513 473.723h-15.104v2.325h15.104v-2.325ZM179.513 477.855h-15.104v2.326h15.104v-2.326ZM253.93 461.319l-16.216.027v-19.032l16.216-.027v19.032ZM253.93 484.654l-16.216.034v-19.032l16.216-.034v19.032ZM180.066 431.049h-15.104v2.326h15.104v-2.326ZM253.93 438.175l-16.216.034v-19.182L253.93 419v19.175Z"/><path fill="#046097" d="M238.274 419H161.56v19.032h76.714V419Z"/><path fill="#154D72" d="M180.066 422.921h-15.104v2.325h15.104v-2.325ZM180.066 426.917h-15.104v2.325h15.104v-2.325ZM186.04 424.346a.867.867 0 1 1-1.733 0 .867.867 0 0 1 1.733 0ZM189.865 424.346a.876.876 0 0 1-.536.812.868.868 0 0 1-.954-.188.865.865 0 0 1-.239-.449.88.88 0 0 1 .375-.897.882.882 0 0 1 1.1.11.862.862 0 0 1 .254.612ZM193.683 424.346a.867.867 0 1 1-1.733 0 .867.867 0 0 1 1.733 0ZM197.509 424.346c0 .171-.05.339-.146.481a.858.858 0 0 1-.889.368.862.862 0 0 1-.68-.68.873.873 0 0 1 .368-.889.869.869 0 0 1 1.094.108.865.865 0 0 1 .253.612ZM227.152 424.346a.867.867 0 1 1-1.733 0 .867.867 0 0 1 1.733 0ZM231.039 424.346a.867.867 0 1 1-1.733 0 .867.867 0 0 1 1.733 0ZM201.335 424.346a.867.867 0 1 1-1.733 0 .867.867 0 0 1 1.733 0ZM220.114 424.346a.878.878 0 0 1-.534.811.874.874 0 0 1-1.146-1.137.879.879 0 0 1 1.14-.476.872.872 0 0 1 .473.469.869.869 0 0 1 .067.333Z"/><path fill="#103654" d="M205.16 424.346a.878.878 0 0 1-.534.811.874.874 0 0 1-1.146-1.137.879.879 0 0 1 1.14-.476.872.872 0 0 1 .473.469.869.869 0 0 1 .067.333ZM208.979 424.346a.867.867 0 1 1-1.733 0 .867.867 0 0 1 1.733 0ZM216.739 424.346a.867.867 0 1 1-1.733 0 .867.867 0 0 1 1.733 0ZM234.21 424.346a.867.867 0 1 1-1.733 0 .867.867 0 0 1 1.733 0Z"/><path fill="#FF9B05" d="M212.832 424.346a.867.867 0 1 1-1.733 0 .867.867 0 0 1 1.733 0ZM223.742 424.346a.867.867 0 1 1-1.733 0 .867.867 0 0 1 1.733 0Z"/><path fill="#154D72" d="M232.478 428.499a.866.866 0 1 1 1.731-.003.866.866 0 0 1-1.731.003ZM229.524 429.365a.866.866 0 1 0 0-1.731.866.866 0 0 0 0 1.731ZM224.833 428.499a.867.867 0 1 1 1.733 0 .867.867 0 0 1-1.733 0ZM221.015 428.499c0-.171.05-.339.146-.481a.869.869 0 0 1 1.332-.132.869.869 0 0 1-.131 1.333.869.869 0 0 1-1.094-.108.865.865 0 0 1-.253-.612ZM191.379 428.499a.867.867 0 1 1 1.733 0 .867.867 0 0 1-1.733 0ZM187.479 428.499a.866.866 0 1 1 1.731-.003.866.866 0 0 1-1.731.003ZM217.182 428.499c0-.171.05-.339.146-.481a.868.868 0 0 1 1.332-.132.869.869 0 0 1-.131 1.333.869.869 0 0 1-1.094-.108.859.859 0 0 1-.253-.612ZM199.275 429.365a.866.866 0 1 0 0-1.733.866.866 0 0 0 0 1.733Z"/><path fill="#103654" d="M213.363 428.499a.867.867 0 1 1 1.733 0 .867.867 0 0 1-1.733 0ZM210.404 429.365a.866.866 0 1 0 0-1.733.866.866 0 0 0 0 1.733ZM201.778 428.499a.867.867 0 1 1 1.733 0 .867.867 0 0 1-1.733 0ZM185.174 429.365a.866.866 0 1 0 0-1.733.866.866 0 0 0 0 1.733Z"/><path fill="#FF9B05" d="M205.713 428.499a.867.867 0 1 1 1.733 0 .867.867 0 0 1-1.733 0ZM194.768 428.499c0-.171.05-.339.146-.481a.868.868 0 0 1 1.332-.132.869.869 0 0 1-.131 1.333.869.869 0 0 1-1.094-.108.865.865 0 0 1-.253-.612Z"/><path fill="#154D72" d="M186.04 432.215a.87.87 0 0 1-.535.8.865.865 0 0 1-.812-1.52.864.864 0 0 1 1.347.72ZM189.865 432.215a.88.88 0 0 1-.144.488.88.88 0 0 1-.898.376.87.87 0 0 1-.687-.688.868.868 0 0 1 .375-.897.875.875 0 0 1 1.1.109.864.864 0 0 1 .254.612ZM193.683 432.215a.87.87 0 0 1-.534.8.869.869 0 0 1-.944-.187.865.865 0 1 1 1.478-.613ZM197.509 432.215a.862.862 0 0 1-.534.8.868.868 0 0 1-.944-.187.865.865 0 1 1 1.478-.613ZM227.152 432.215a.87.87 0 0 1-.535.8.865.865 0 0 1-.812-1.52.867.867 0 0 1 1.347.72ZM231.039 432.215a.87.87 0 0 1-.535.8.865.865 0 0 1-.812-1.52.864.864 0 0 1 1.347.72ZM201.335 432.215a.87.87 0 0 1-.535.8.865.865 0 0 1-1.132-1.131.873.873 0 0 1 .801-.535.868.868 0 0 1 .866.866ZM220.114 432.215a.876.876 0 0 1-1.039.864.873.873 0 0 1 .166-1.73.862.862 0 0 1 .806.533.869.869 0 0 1 .067.333Z"/><path fill="#103654" d="M205.16 432.215a.876.876 0 0 1-1.039.864.873.873 0 0 1 .166-1.73.862.862 0 0 1 .806.533.869.869 0 0 1 .067.333ZM208.979 432.215a.87.87 0 0 1-.534.8.869.869 0 0 1-.944-.187.865.865 0 1 1 1.478-.613ZM216.739 432.215a.87.87 0 0 1-.535.8.865.865 0 0 1-.812-1.52.867.867 0 0 1 1.347.72ZM234.21 432.215a.87.87 0 0 1-.535.8.865.865 0 0 1-1.132-1.131.873.873 0 0 1 .801-.535.868.868 0 0 1 .866.866Z"/><path fill="#FF9B05" d="M212.832 432.215a.87.87 0 0 1-.535.8.865.865 0 0 1-1.131-1.131.864.864 0 0 1 1.666.331ZM223.742 432.215a.87.87 0 0 1-.535.8.865.865 0 0 1-.812-1.52.864.864 0 0 1 1.347.72Z"/><path fill="#154D72" d="M557.695 332.225h-58.636v40.819h58.636v-40.819Z"/><path fill="#046097" d="M551.32 344.332H491v14.964h60.32v-14.964Z"/><path fill="#154D72" d="M505.557 347.415h-11.876v1.828h11.876v-1.828ZM505.557 350.562h-11.876v1.829h11.876v-1.829ZM505.557 353.812h-11.876v1.828h11.876v-1.828ZM510.249 348.519a.681.681 0 1 1-1.363 0 .681.681 0 0 1 1.363 0ZM513.256 348.519a.68.68 0 0 1-.813.668.68.68 0 1 1 .813-.668ZM516.264 348.519a.681.681 0 1 1-1.363 0 .681.681 0 0 1 1.363 0ZM519.273 348.519a.688.688 0 0 1-1.172.491.692.692 0 0 1-.147-.75.685.685 0 0 1 1.319.259ZM542.57 348.519a.681.681 0 1 1-1.363 0 .681.681 0 0 1 1.363 0ZM545.636 348.519a.688.688 0 0 1-.819.679.685.685 0 0 1 .138-1.36.681.681 0 0 1 .681.681ZM522.275 348.519a.681.681 0 1 1-1.363 0 .681.681 0 0 1 1.363 0ZM537.042 348.519a.681.681 0 1 1-1.363 0 .681.681 0 0 1 1.363 0Z"/><path fill="#103654" d="M525.283 348.519a.681.681 0 1 1-1.363 0 .681.681 0 0 1 1.363 0ZM528.291 348.519a.681.681 0 1 1-1.363 0 .681.681 0 0 1 1.363 0ZM534.387 348.519a.68.68 0 0 1-.814.668.678.678 0 0 1-.535-.535.686.686 0 0 1 .29-.699.68.68 0 0 1 1.059.566ZM548.129 348.519a.68.68 0 1 1-1.059-.566.681.681 0 0 1 1.059.566Z"/><path fill="#FF9B05" d="M531.299 348.519a.684.684 0 0 1-.817.679.686.686 0 1 1 .393-1.309.682.682 0 0 1 .424.63ZM539.905 348.519a.681.681 0 1 1-1.363 0 .681.681 0 0 1 1.363 0Z"/><path fill="#154D72" d="M546.768 351.806c0-.134.04-.266.114-.378a.689.689 0 0 1 .699-.29.682.682 0 0 1-.132 1.349.673.673 0 0 1-.681-.681ZM543.76 351.806a.68.68 0 1 1 1.36.001.68.68 0 0 1-1.36-.001ZM540.752 351.806a.68.68 0 1 1 1.36.001.68.68 0 0 1-1.36-.001ZM537.744 351.806a.687.687 0 1 1 .424.631.692.692 0 0 1-.223-.147.691.691 0 0 1-.201-.484ZM514.447 351.806a.68.68 0 1 1 1.36.001.68.68 0 0 1-1.36-.001ZM511.38 351.806a.68.68 0 1 1 1.36.001.68.68 0 0 1-1.36-.001ZM534.741 351.806a.68.68 0 1 1 1.36.001.68.68 0 0 1-1.36-.001ZM519.959 351.806a.68.68 0 1 1 1.36.001.68.68 0 0 1-1.36-.001Z"/><path fill="#103654" d="M531.755 351.806a.68.68 0 1 1 1.36.001.68.68 0 0 1-1.36-.001ZM528.726 351.806c0-.134.04-.266.114-.378a.689.689 0 0 1 .699-.29.682.682 0 0 1-.132 1.349.68.68 0 0 1-.681-.681ZM522.64 351.806c0-.134.04-.266.114-.378a.689.689 0 0 1 .699-.29.678.678 0 0 1 .535.535.682.682 0 1 1-1.348.133ZM508.887 351.806c0-.134.04-.266.114-.378a.689.689 0 0 1 .7-.29.68.68 0 0 1 .535.535.68.68 0 1 1-1.349.133Z"/><path fill="#FF9B05" d="M525.723 351.806c0-.134.04-.266.114-.378a.689.689 0 0 1 .699-.29.678.678 0 0 1 .535.535.682.682 0 1 1-1.348.133ZM517.111 351.806a.681.681 0 1 1 1.362.002.681.681 0 0 1-1.362-.002Z"/><path fill="#154D72" d="M510.249 354.728a.681.681 0 1 1-1.363 0 .681.681 0 0 1 1.363 0ZM512.581 355.404a.681.681 0 1 0 0-1.362.681.681 0 0 0 0 1.362ZM515.583 355.404a.681.681 0 1 0 0-1.362.681.681 0 0 0 0 1.362ZM518.591 355.404a.681.681 0 1 0 0-1.362.681.681 0 0 0 0 1.362ZM541.889 355.404a.681.681 0 1 0 0-1.362.681.681 0 0 0 0 1.362ZM544.955 355.404a.681.681 0 1 0 0-1.362.681.681 0 0 0 0 1.362ZM522.275 354.728a.681.681 0 1 1-1.363 0 .681.681 0 0 1 1.363 0ZM537.042 354.728a.681.681 0 1 1-1.363 0 .681.681 0 0 1 1.363 0Z"/><path fill="#103654" d="M524.602 355.404a.681.681 0 1 0 0-1.362.681.681 0 0 0 0 1.362ZM528.291 354.728a.681.681 0 1 1-1.363 0 .681.681 0 0 1 1.363 0ZM534.387 354.728a.68.68 0 0 1-.814.668.678.678 0 0 1-.535-.535.686.686 0 0 1 .29-.699.68.68 0 0 1 1.059.566ZM548.129 354.728a.68.68 0 1 1-1.059-.566.681.681 0 0 1 1.059.566Z"/><path fill="#FF9B05" d="M531.299 354.728a.687.687 0 1 1-1.373.011.687.687 0 0 1 1.373-.011ZM539.224 355.404a.681.681 0 1 0 0-1.362.681.681 0 0 0 0 1.362Z"/><path fill="#046097" d="M551.32 362.803H491v14.965h60.32v-14.965Z"/><path fill="#154D72" d="M510.104 366.841a.681.681 0 0 1-.42.638.691.691 0 0 1-.75-.146.691.691 0 0 1-.151-.748.684.684 0 0 1 .635-.425.671.671 0 0 1 .485.197.694.694 0 0 1 .201.484ZM513.106 366.84a.68.68 0 0 1-.824.666.682.682 0 0 1 .17-1.347.68.68 0 0 1 .654.681ZM516.115 366.841a.68.68 0 1 1-1.36-.001.68.68 0 0 1 1.36.001ZM519.123 366.841a.68.68 0 1 1-1.36-.001.68.68 0 0 1 1.36.001ZM542.42 366.841a.68.68 0 1 1-1.36-.001.68.68 0 0 1 1.36.001ZM545.486 366.841a.68.68 0 1 1-1.36-.001.68.68 0 0 1 1.36.001ZM522.103 366.841a.68.68 0 1 1-1.36-.001.68.68 0 0 1 1.36.001ZM536.891 366.841a.68.68 0 1 1-1.36-.001.68.68 0 0 1 1.36.001Z"/><path fill="#103654" d="M525.133 366.841c0 .134-.04.266-.114.378a.677.677 0 0 1-1.048.103.677.677 0 0 1-.148-.742.689.689 0 0 1 .251-.306.688.688 0 0 1 .86.085.68.68 0 0 1 .199.482ZM528.141 366.841a.68.68 0 1 1-1.36-.001.68.68 0 0 1 1.36.001ZM534.243 366.841a.688.688 0 0 1-1.36.138.692.692 0 0 1 .679-.819.678.678 0 0 1 .681.681ZM547.979 366.841a.68.68 0 1 1-1.36-.001.68.68 0 0 1 1.36.001Z"/><path fill="#FF9B05" d="M531.149 366.841a.68.68 0 1 1-1.36-.001.68.68 0 0 1 1.36.001ZM539.754 366.841a.68.68 0 0 1-1.348.132.677.677 0 0 1 .668-.813.68.68 0 0 1 .68.681Z"/><path fill="#154D72" d="M546.617 370.122a.678.678 0 0 1 .421-.629.678.678 0 0 1 .928.496.678.678 0 0 1-.29.699.678.678 0 0 1-.859-.085.679.679 0 0 1-.2-.481ZM544.296 370.803a.681.681 0 1 0 0-1.362.681.681 0 0 0 0 1.362ZM540.602 370.122a.684.684 0 0 1 .818-.679.684.684 0 0 1 .501.939.694.694 0 0 1-.638.421.681.681 0 0 1-.681-.681ZM537.599 370.122a.685.685 0 0 1 .42-.629.678.678 0 0 1 .928.496.677.677 0 0 1-.667.814.681.681 0 0 1-.681-.681ZM514.297 370.122a.687.687 0 1 1 1.373-.011.687.687 0 0 1-1.373.011ZM511.235 370.122a.678.678 0 0 1 .421-.629.678.678 0 0 1 .928.496.678.678 0 0 1-.289.699.681.681 0 0 1-1.06-.566ZM535.272 370.803a.681.681 0 1 0 0-1.362.681.681 0 0 0 0 1.362ZM520.511 370.803a.681.681 0 1 0 0-1.362.681.681 0 0 0 0 1.362Z"/><path fill="#103654" d="M531.583 370.122a.678.678 0 0 1 .42-.629.682.682 0 1 1-.42.629ZM528.575 370.122a.687.687 0 1 1 1.373-.011.687.687 0 0 1-1.373.011ZM523.159 370.803a.68.68 0 1 0 .001-1.361.68.68 0 0 0-.001 1.361ZM508.736 370.122a.685.685 0 0 1 .819-.679.684.684 0 0 1 .501.939.694.694 0 0 1-.639.421.679.679 0 0 1-.681-.681Z"/><path fill="#FF9B05" d="M525.572 370.122a.678.678 0 0 1 .421-.629.678.678 0 0 1 .928.496.678.678 0 0 1-.289.699.681.681 0 0 1-1.06-.566ZM516.962 370.122a.678.678 0 0 1 .42-.629.682.682 0 1 1-.42.629Z"/><path fill="#154D72" d="M510.104 373.044a.687.687 0 1 1-1.373.011.687.687 0 0 1 1.373-.011ZM513.106 373.044a.682.682 0 1 1-1.363-.002.682.682 0 0 1 1.363.002ZM516.115 373.044a.678.678 0 0 1-.421.629.678.678 0 0 1-.928-.496.682.682 0 1 1 1.349-.133ZM519.123 373.044a.678.678 0 0 1-.421.629.678.678 0 0 1-.928-.496.682.682 0 1 1 1.349-.133ZM542.42 373.044a.678.678 0 0 1-.421.629.678.678 0 0 1-.928-.496.682.682 0 1 1 1.349-.133ZM545.486 373.044a.678.678 0 0 1-.42.629.682.682 0 1 1 .42-.629ZM522.103 373.044a.678.678 0 0 1-.42.629.682.682 0 1 1 .42-.629ZM536.891 373.044a.678.678 0 0 1-.42.629.682.682 0 1 1 .42-.629Z"/><path fill="#103654" d="M525.133 373.044a.685.685 0 0 1-.42.629.678.678 0 0 1-.928-.496.682.682 0 1 1 1.348-.133ZM528.141 373.044a.678.678 0 0 1-.42.629.682.682 0 1 1 .42-.629ZM534.243 373.044a.685.685 0 0 1-.819.679.692.692 0 0 1-.541-.541.695.695 0 0 1 .04-.398.69.69 0 0 1 1.12-.221c.128.127.2.3.2.481ZM547.979 373.044a.678.678 0 0 1-.42.629.682.682 0 1 1 .42-.629Z"/><path fill="#FF9B05" d="M531.149 373.044a.678.678 0 0 1-.42.629.682.682 0 1 1 .42-.629ZM539.754 373.044a.677.677 0 0 1-.42.629.678.678 0 0 1-.928-.496.682.682 0 1 1 1.348-.133Z"/><path fill="#154D72" d="M505.557 365.886h-11.876v1.829h11.876v-1.829ZM505.557 369.028h-11.876v1.828h11.876v-1.828ZM505.557 372.277h-11.876v1.829h11.876v-1.829ZM564.07 359.275l-12.751.021v-14.964l12.751-.022v14.965ZM564.07 377.623l-12.751.027v-14.965l12.751-.027v14.965ZM505.992 335.474h-11.877v1.828h11.877v-1.828ZM564.07 341.077l-12.751.027v-15.083L564.07 326v15.077Z"/><path fill="#046097" d="M551.759 326h-60.32v14.965h60.32V326Z"/><path fill="#154D72" d="M505.992 329.083h-11.877v1.828h11.877v-1.828ZM505.992 332.225h-11.877v1.828h11.877v-1.828ZM510.688 330.204a.68.68 0 1 1-1.36-.001.68.68 0 0 1 1.36.001ZM513.697 330.204a.688.688 0 0 1-1.36.138.687.687 0 1 1 1.36-.138ZM516.699 330.204a.68.68 0 1 1-1.36-.001.68.68 0 0 1 1.36.001ZM519.707 330.204a.68.68 0 1 1-1.36-.001.68.68 0 0 1 1.36.001ZM543.014 330.204a.68.68 0 1 1-1.36-.001.68.68 0 0 1 1.36.001ZM546.071 330.204a.68.68 0 1 1-1.36-.001.68.68 0 0 1 1.36.001ZM522.714 330.204c0 .134-.04.266-.114.378a.689.689 0 0 1-.699.29.677.677 0 0 1-.497-.929.689.689 0 0 1 .251-.306.688.688 0 0 1 .86.085.68.68 0 0 1 .199.482ZM537.481 330.204a.681.681 0 0 1-.42.638.691.691 0 0 1-.75-.146.691.691 0 0 1-.151-.748.684.684 0 0 1 .635-.425.671.671 0 0 1 .485.197.692.692 0 0 1 .201.484Z"/><path fill="#103654" d="M525.723 330.204a.681.681 0 0 1-.42.638.691.691 0 0 1-.749-.146.686.686 0 0 1 .745-1.123.692.692 0 0 1 .372.369.692.692 0 0 1 .052.262ZM528.725 330.204a.68.68 0 1 1-1.36-.001.68.68 0 0 1 1.36.001ZM534.827 330.204a.68.68 0 1 1-1.36-.001.68.68 0 0 1 1.36.001ZM548.564 330.204a.68.68 0 1 1-1.36-.001.68.68 0 0 1 1.36.001Z"/><path fill="#FF9B05" d="M531.754 330.204a.68.68 0 0 1-1.348.132.677.677 0 0 1 .668-.813.68.68 0 0 1 .68.681ZM540.334 330.204a.68.68 0 1 1-1.36-.001.68.68 0 0 1 1.36.001Z"/><path fill="#154D72" d="M547.202 333.469a.678.678 0 0 1 .421-.629.678.678 0 0 1 .928.496.682.682 0 1 1-1.349.133ZM544.88 334.15a.681.681 0 1 0 0-1.362.681.681 0 0 0 0 1.362ZM541.191 333.469a.678.678 0 0 1 .421-.629.678.678 0 0 1 .928.496.682.682 0 1 1-1.349.133ZM538.188 333.469a.678.678 0 0 1 .421-.629.678.678 0 0 1 .928.496.682.682 0 1 1-1.349.133ZM514.887 333.469a.685.685 0 0 1 .42-.629.681.681 0 1 1-.42.629ZM511.819 333.469a.678.678 0 0 1 .421-.629.678.678 0 0 1 .928.496.682.682 0 1 1-1.349.133ZM535.176 333.469a.678.678 0 0 1 .42-.629.681.681 0 1 1-.42.629ZM521.096 334.15a.681.681 0 1 0 0-1.362.681.681 0 0 0 0 1.362Z"/><path fill="#103654" d="M532.173 333.469a.678.678 0 0 1 .42-.629.682.682 0 1 1-.42.629ZM529.846 334.15a.681.681 0 1 0 0-1.362.681.681 0 0 0 0 1.362ZM523.063 333.469a.678.678 0 0 1 .421-.629.678.678 0 0 1 .928.496.682.682 0 1 1-1.349.133ZM510.007 334.15a.681.681 0 1 0 0-1.362.681.681 0 0 0 0 1.362Z"/><path fill="#FF9B05" d="M526.157 333.469a.678.678 0 0 1 .421-.629.678.678 0 0 1 .928.496.682.682 0 1 1-1.349.133ZM517.552 333.469a.678.678 0 0 1 .42-.629.681.681 0 1 1-.42.629Z"/><path fill="#154D72" d="M510.688 336.391a.678.678 0 0 1-.42.629.682.682 0 1 1 .42-.629ZM513.697 336.391a.685.685 0 0 1-.819.679.688.688 0 0 1-.501-.939.69.69 0 0 1 1.12-.221c.128.127.2.301.2.481ZM516.699 336.391a.678.678 0 0 1-.421.629.678.678 0 0 1-.928-.496.678.678 0 0 1 .29-.699.678.678 0 0 1 .859.085c.128.127.2.301.2.481ZM519.707 336.391a.678.678 0 0 1-.421.629.678.678 0 0 1-.928-.496.678.678 0 0 1 .289-.699.681.681 0 0 1 1.06.566ZM543.014 336.391a.678.678 0 0 1-.42.629.681.681 0 1 1 .42-.629ZM546.071 336.391a.678.678 0 0 1-.42.629.682.682 0 1 1 .42-.629ZM522.714 336.391a.685.685 0 0 1-.42.629.678.678 0 0 1-.928-.496.677.677 0 0 1 .667-.814.681.681 0 0 1 .681.681ZM537.481 336.391a.687.687 0 1 1-1.373.011.687.687 0 0 1 1.373-.011Z"/><path fill="#103654" d="M525.723 336.391a.687.687 0 1 1-1.373.011.687.687 0 0 1 1.373-.011ZM528.725 336.391a.678.678 0 0 1-.42.629.682.682 0 1 1 .42-.629ZM534.827 336.391a.678.678 0 0 1-.421.629.678.678 0 0 1-.928-.496.678.678 0 0 1 .289-.699.681.681 0 0 1 1.06.566ZM548.564 336.391a.678.678 0 0 1-.42.629.682.682 0 1 1 .42-.629Z"/><path fill="#FF9B05" d="M531.754 336.391a.677.677 0 0 1-.42.629.678.678 0 0 1-.928-.496.677.677 0 0 1 .668-.814.68.68 0 0 1 .68.681ZM540.334 336.391a.678.678 0 0 1-.421.629.678.678 0 0 1-.928-.496.67.67 0 0 1 .039-.393.675.675 0 0 1 .629-.421.68.68 0 0 1 .681.681Z"/><path fill="#046097" d="M486.422 489.061c0 5.99 4.635 10.894 10.519 11.331v.033h64.352c7.379 0 13.352-5.979 13.352-13.357 0-6.953-5.313-12.675-12.109-13.296C562.15 461.685 552.235 452 540.053 452c-9.696 0-17.965 6.136-21.122 14.735a13.208 13.208 0 0 0-5.974-1.411c-7.098 0-12.909 5.537-13.329 12.529a11.094 11.094 0 0 0-1.847-.151c-6.276 0-11.365 5.089-11.365 11.364l.006-.005Z"/><path fill="#000" d="M486.422 489.061c0 5.99 4.635 10.894 10.519 11.331v.033h64.352c7.379 0 13.352-5.979 13.352-13.357 0-6.953-5.313-12.675-12.109-13.296C562.15 461.685 552.235 452 540.053 452c-9.696 0-17.965 6.136-21.122 14.735a13.208 13.208 0 0 0-5.974-1.411c-7.098 0-12.909 5.537-13.329 12.529a11.094 11.094 0 0 0-1.847-.151c-6.276 0-11.365 5.089-11.365 11.364l.006-.005Z" opacity=".1"/><path fill="#046097" d="M480.006 489.061c0 5.99 4.635 10.894 10.519 11.331v.033h64.352c7.379 0 13.352-5.979 13.352-13.357 0-6.953-5.313-12.675-12.109-13.296-.386-12.087-10.301-21.772-22.483-21.772-9.696 0-17.965 6.136-21.122 14.735a13.208 13.208 0 0 0-5.974-1.411c-7.098 0-12.909 5.537-13.329 12.529a11.094 11.094 0 0 0-1.847-.151c-6.276 0-11.365 5.089-11.365 11.364l.006-.005Z"/><path fill="#103654" d="M529.926 480.988H518.31v9.971h11.616v-9.971ZM514.323 480.988h19.589l-9.797-9.769-9.792 9.769Z"/><path fill="#046097" d="M377.452 296.695c0 4.154 3.214 7.554 7.293 7.857v.023h44.618c5.116 0 9.257-4.146 9.257-9.261 0-4.821-3.683-8.788-8.395-9.219-.268-8.38-7.142-15.095-15.588-15.095-6.723 0-12.456 4.254-14.645 10.216a9.155 9.155 0 0 0-4.142-.978c-4.921 0-8.95 3.839-9.241 8.687a7.88 7.88 0 0 0-9.161 7.774l.004-.004Z"/><path fill="#000" d="M377.452 296.695c0 4.154 3.214 7.554 7.293 7.857v.023h44.618c5.116 0 9.257-4.146 9.257-9.261 0-4.821-3.683-8.788-8.395-9.219-.268-8.38-7.142-15.095-15.588-15.095-6.723 0-12.456 4.254-14.645 10.216a9.155 9.155 0 0 0-4.142-.978c-4.921 0-8.95 3.839-9.241 8.687a7.88 7.88 0 0 0-9.161 7.774l.004-.004Z" opacity=".1"/><path fill="#046097" d="M373.004 296.695c0 4.154 3.214 7.554 7.293 7.857v.023h44.618c5.116 0 9.257-4.146 9.257-9.261 0-4.821-3.683-8.788-8.395-9.219-.268-8.38-7.142-15.095-15.588-15.095-6.723 0-12.456 4.254-14.645 10.216a9.155 9.155 0 0 0-4.142-.978c-4.922 0-8.951 3.839-9.242 8.687a7.88 7.88 0 0 0-9.16 7.774l.004-.004Z"/><path fill="#103654" d="M399.561 291.238h8.054v-6.913h-8.054v6.913ZM410.379 291.238h-13.581l6.792 6.773 6.789-6.773Z"/><path fill="#154D72" d="M779.941 418.889h-53.169v79.697h53.169v-79.697Z"/><path fill="#0A598A" d="M718 501.799h61.946v-12.867H718v12.867Z"/><path fill="#046097" d="M739.657 492.139H777.6v-1.089h-37.943v1.089ZM739.657 494.021H777.6v-1.088h-37.943v1.088ZM739.657 495.904H777.6v-1.088h-37.943v1.088ZM739.657 497.793H777.6v-1.089h-37.943v1.089ZM739.657 499.676H777.6v-1.089h-37.943v1.089Z"/><path fill="#FF9B05" d="M733.88 492.132a1.077 1.077 0 1 0 2.154 0 1.077 1.077 0 0 0-2.154 0Z"/><path fill="#154D72" d="M730.326 492.132a1.077 1.077 0 1 0 2.155 0 1.077 1.077 0 0 0-2.155 0Z"/><path fill="#FF9B05" d="M726.772 492.132a1.077 1.077 0 1 0 2.155 0 1.077 1.077 0 0 0-2.155 0ZM723.225 492.132a1.077 1.077 0 1 0 2.153 0 1.077 1.077 0 0 0-2.153 0Z"/><path fill="#154D72" d="M719.671 492.132a1.077 1.077 0 1 0 2.154 0 1.077 1.077 0 0 0-2.154 0ZM733.88 495.363a1.077 1.077 0 1 0 2.153-.001 1.077 1.077 0 0 0-2.153.001Z"/><path fill="#FF9B05" d="M730.326 495.363a1.077 1.077 0 1 0 2.154-.002 1.077 1.077 0 0 0-2.154.002Z"/><path fill="#154D72" d="M726.772 495.363a1.077 1.077 0 1 0 2.154-.002 1.077 1.077 0 0 0-2.154.002Z"/><path fill="#FF9B05" d="M723.225 495.363a1.076 1.076 0 1 0 2.153 0 1.076 1.076 0 0 0-2.153 0Z"/><path fill="#154D72" d="M719.671 495.363a1.077 1.077 0 1 0 2.153-.001 1.077 1.077 0 0 0-2.153.001ZM733.88 498.599a1.077 1.077 0 1 0 2.153-.001 1.077 1.077 0 0 0-2.153.001Z"/><path fill="#FF9B05" d="M730.326 498.599a1.077 1.077 0 1 0 2.154-.002 1.077 1.077 0 0 0-2.154.002ZM726.772 498.599a1.077 1.077 0 1 0 2.154-.002 1.077 1.077 0 0 0-2.154.002ZM723.225 498.599a1.076 1.076 0 1 0 2.153 0 1.076 1.076 0 0 0-2.153 0ZM719.671 498.599a1.077 1.077 0 1 0 2.153-.001 1.077 1.077 0 0 0-2.153.001Z"/><path fill="#154D72" d="M737.456 499.675h.618v-8.619h-.618v8.619ZM791.208 488.932h-11.261v12.867h11.261v-12.867Z"/><path fill="#0A598A" d="M718 486.908h61.946v-12.867H718v12.867Z"/><path fill="#046097" d="M739.657 477.253H777.6v-1.088h-37.943v1.088ZM739.657 479.136H777.6v-1.089h-37.943v1.089ZM739.657 481.019H777.6v-1.089h-37.943v1.089ZM739.657 482.902H777.6v-1.089h-37.943v1.089ZM739.657 484.79H777.6v-1.088h-37.943v1.088Z"/><path fill="#154D72" d="M733.88 477.241a1.077 1.077 0 1 0 2.154 0 1.077 1.077 0 0 0-2.154 0Z"/><path fill="#FF9B05" d="M731.403 478.318a1.077 1.077 0 1 0 0-2.155 1.077 1.077 0 0 0 0 2.155ZM727.849 478.318a1.077 1.077 0 1 0 0-2.154 1.077 1.077 0 0 0 0 2.154ZM723.225 477.241a1.077 1.077 0 1 0 2.153 0 1.077 1.077 0 0 0-2.153 0Z"/><path fill="#154D72" d="M719.671 477.242a1.077 1.077 0 1 0 2.153-.001 1.077 1.077 0 0 0-2.153.001Z"/><path fill="#FF9B05" d="M733.88 480.477a1.077 1.077 0 1 0 2.154 0 1.077 1.077 0 0 0-2.154 0Z"/><path fill="#154D72" d="M730.326 480.477a1.077 1.077 0 1 0 2.155 0 1.077 1.077 0 0 0-2.155 0ZM726.772 480.477a1.077 1.077 0 1 0 2.155 0 1.077 1.077 0 0 0-2.155 0ZM723.225 480.477a1.077 1.077 0 1 0 2.153 0 1.077 1.077 0 0 0-2.153 0Z"/><path fill="#FF9B05" d="M719.671 480.477a1.077 1.077 0 1 0 2.154 0 1.077 1.077 0 0 0-2.154 0ZM733.88 483.707a1.077 1.077 0 1 0 2.154 0 1.077 1.077 0 0 0-2.154 0ZM731.403 484.784a1.077 1.077 0 1 0 0-2.155 1.077 1.077 0 0 0 0 2.155Z"/><path fill="#154D72" d="M727.849 484.784a1.077 1.077 0 1 0 0-2.154 1.077 1.077 0 0 0 0 2.154Z"/><path fill="#FF9B05" d="M723.225 483.707a1.077 1.077 0 1 0 2.153 0 1.077 1.077 0 0 0-2.153 0ZM719.671 483.707a1.077 1.077 0 1 0 2.154 0 1.077 1.077 0 0 0-2.154 0Z"/><path fill="#154D72" d="M737.456 484.784h.618v-8.619h-.618v8.619ZM791.208 474.041h-11.261v12.867h11.261v-12.867Z"/><path fill="#0A598A" d="M718 471.399h61.946v-12.867H718v12.867Z"/><path fill="#046097" d="M739.657 461.745H777.6v-1.089h-37.943v1.089ZM739.657 463.627H777.6v-1.088h-37.943v1.088ZM739.657 465.51H777.6v-1.089h-37.943v1.089ZM739.657 467.393H777.6v-1.089h-37.943v1.089ZM739.657 469.275H777.6v-1.088h-37.943v1.088Z"/><path fill="#154D72" d="M733.88 461.733a1.077 1.077 0 1 0 2.153-.001 1.077 1.077 0 0 0-2.153.001Z"/><path fill="#FF9B05" d="M730.326 461.733a1.077 1.077 0 1 0 2.154-.002 1.077 1.077 0 0 0-2.154.002ZM726.772 461.733a1.077 1.077 0 1 0 2.154-.002 1.077 1.077 0 0 0-2.154.002ZM723.225 461.733a1.076 1.076 0 1 0 2.153 0 1.076 1.076 0 0 0-2.153 0Z"/><path fill="#154D72" d="M719.671 461.733a1.077 1.077 0 1 0 2.153-.001 1.077 1.077 0 0 0-2.153.001Z"/><path fill="#FF9B05" d="M733.88 464.963a1.077 1.077 0 1 0 2.153-.001 1.077 1.077 0 0 0-2.153.001ZM730.326 464.963a1.077 1.077 0 1 0 2.154-.002 1.077 1.077 0 0 0-2.154.002Z"/><path fill="#154D72" d="M726.772 464.963a1.077 1.077 0 1 0 2.154-.002 1.077 1.077 0 0 0-2.154.002ZM723.225 464.963a1.076 1.076 0 1 0 2.153 0 1.076 1.076 0 0 0-2.153 0Z"/><path fill="#FF9B05" d="M719.671 464.963a1.077 1.077 0 1 0 2.153-.001 1.077 1.077 0 0 0-2.153.001Z"/><path fill="#154D72" d="M733.88 468.199a1.077 1.077 0 1 0 2.155 0 1.077 1.077 0 0 0-2.155 0Z"/><path fill="#FF9B05" d="M730.326 468.199a1.078 1.078 0 0 0 2.154 0 1.078 1.078 0 0 0-2.154 0ZM726.772 468.199a1.078 1.078 0 0 0 2.154 0 1.078 1.078 0 0 0-2.154 0ZM723.225 468.199a1.077 1.077 0 1 0 2.154 0 1.077 1.077 0 0 0-2.154 0Z"/><path fill="#154D72" d="M719.671 468.199a1.077 1.077 0 1 0 2.155 0 1.077 1.077 0 0 0-2.155 0ZM737.456 469.276h.618v-8.62h-.618v8.62ZM791.208 458.532h-11.261V471.4h11.261v-12.868Z"/><path fill="#0A598A" d="M718 455.89h61.946v-12.867H718v12.867Z"/><path fill="#046097" d="M739.657 446.23H777.6v-1.089h-37.943v1.089ZM739.657 448.112H777.6v-1.088h-37.943v1.088ZM739.657 449.995H777.6v-1.088h-37.943v1.088ZM739.657 451.878H777.6v-1.088h-37.943v1.088ZM739.657 453.76H777.6v-1.088h-37.943v1.088Z"/><path fill="#FF9B05" d="M733.88 446.224a1.077 1.077 0 1 0 2.154 0 1.077 1.077 0 0 0-2.154 0Z"/><path fill="#154D72" d="M730.326 446.224a1.077 1.077 0 1 0 2.155 0 1.077 1.077 0 0 0-2.155 0Z"/><path fill="#FF9B05" d="M726.772 446.224a1.077 1.077 0 1 0 2.155 0 1.077 1.077 0 0 0-2.155 0ZM723.225 446.224a1.077 1.077 0 1 0 2.153 0 1.077 1.077 0 0 0-2.153 0Z"/><path fill="#154D72" d="M719.671 446.224a1.077 1.077 0 1 0 2.154 0 1.077 1.077 0 0 0-2.154 0Z"/><path fill="#FF9B05" d="M733.88 449.454a1.077 1.077 0 1 0 2.154 0 1.077 1.077 0 0 0-2.154 0ZM730.326 449.454a1.077 1.077 0 1 0 2.155 0 1.077 1.077 0 0 0-2.155 0Z"/><path fill="#154D72" d="M726.772 449.454a1.077 1.077 0 1 0 2.155 0 1.077 1.077 0 0 0-2.155 0ZM723.225 449.454a1.077 1.077 0 1 0 2.153 0 1.077 1.077 0 0 0-2.153 0Z"/><path fill="#FF9B05" d="M719.671 449.454a1.077 1.077 0 1 0 2.154 0 1.077 1.077 0 0 0-2.154 0Z"/><path fill="#154D72" d="M733.88 452.684a1.077 1.077 0 1 0 2.154 0 1.077 1.077 0 0 0-2.154 0Z"/><path fill="#FF9B05" d="M730.326 452.684a1.077 1.077 0 1 0 2.155 0 1.077 1.077 0 0 0-2.155 0ZM726.772 452.684a1.077 1.077 0 1 0 2.155 0 1.077 1.077 0 0 0-2.155 0Z"/><path fill="#154D72" d="M723.225 452.684a1.077 1.077 0 1 0 2.153 0 1.077 1.077 0 0 0-2.153 0Z"/><path fill="#FF9B05" d="M719.671 452.684a1.077 1.077 0 1 0 2.154 0 1.077 1.077 0 0 0-2.154 0Z"/><path fill="#154D72" d="M737.456 453.761h.618v-8.619h-.618v8.619ZM791.208 443.018h-11.261v12.867h11.261v-12.867Z"/><path fill="#0A598A" d="M718 440.382h61.946v-12.867H718v12.867Z"/><path fill="#046097" d="M739.657 430.721H777.6v-1.088h-37.943v1.088ZM739.657 432.604H777.6v-1.089h-37.943v1.089ZM739.657 434.493H777.6v-1.089h-37.943v1.089ZM739.657 436.37H777.6v-1.089h-37.943v1.089ZM739.657 438.252H777.6v-1.088h-37.943v1.088Z"/><path fill="#FF9B05" d="M733.88 430.71a1.077 1.077 0 1 0 2.153-.001 1.077 1.077 0 0 0-2.153.001ZM730.326 430.71a1.077 1.077 0 1 0 2.154-.002 1.077 1.077 0 0 0-2.154.002ZM726.772 430.71a1.077 1.077 0 1 0 2.154-.002 1.077 1.077 0 0 0-2.154.002Z"/><path fill="#154D72" d="M723.225 430.71a1.076 1.076 0 1 0 2.153 0 1.076 1.076 0 0 0-2.153 0Z"/><path fill="#FF9B05" d="M719.671 430.71a1.077 1.077 0 1 0 2.153-.001 1.077 1.077 0 0 0-2.153.001Z"/><path fill="#154D72" d="M733.88 433.946a1.077 1.077 0 1 0 2.153-.001 1.077 1.077 0 0 0-2.153.001Z"/><path fill="#FF9B05" d="M730.326 433.946a1.077 1.077 0 1 0 2.154-.002 1.077 1.077 0 0 0-2.154.002Z"/><path fill="#154D72" d="M726.772 433.946a1.077 1.077 0 1 0 2.154-.002 1.077 1.077 0 0 0-2.154.002Z"/><path fill="#FF9B05" d="M723.225 433.946a1.076 1.076 0 1 0 2.153 0 1.076 1.076 0 0 0-2.153 0ZM719.671 433.946a1.077 1.077 0 1 0 2.153-.001 1.077 1.077 0 0 0-2.153.001ZM733.88 437.176a1.077 1.077 0 1 0 2.153-.001 1.077 1.077 0 0 0-2.153.001Z"/><path fill="#154D72" d="M730.326 437.176a1.077 1.077 0 1 0 2.154-.002 1.077 1.077 0 0 0-2.154.002Z"/><path fill="#FF9B05" d="M726.772 437.176a1.077 1.077 0 1 0 2.154-.002 1.077 1.077 0 0 0-2.154.002ZM723.225 437.176a1.076 1.076 0 1 0 2.153 0 1.076 1.076 0 0 0-2.153 0Z"/><path fill="#154D72" d="M719.671 437.176a1.077 1.077 0 1 0 2.153-.001 1.077 1.077 0 0 0-2.153.001ZM737.456 438.258h.618v-8.619h-.618v8.619ZM791.208 427.509h-11.261v12.867h11.261v-12.867Z"/><path fill="#0A598A" d="M718 424.867h61.946V412H718v12.867Z"/><path fill="#046097" d="M739.657 415.212H777.6v-1.088h-37.943v1.088ZM739.657 417.095H777.6v-1.089h-37.943v1.089ZM739.657 418.978H777.6v-1.089h-37.943v1.089ZM739.657 420.861H777.6v-1.089h-37.943v1.089ZM739.657 422.743H777.6v-1.088h-37.943v1.088Z"/><path fill="#154D72" d="M733.88 415.2a1.077 1.077 0 1 0 2.154 0 1.077 1.077 0 0 0-2.154 0ZM730.326 415.2a1.077 1.077 0 1 0 2.155 0 1.077 1.077 0 0 0-2.155 0Z"/><path fill="#FF9B05" d="M726.772 415.2a1.077 1.077 0 1 0 2.155 0 1.077 1.077 0 0 0-2.155 0Z"/><path fill="#154D72" d="M723.225 415.2a1.077 1.077 0 1 0 2.153 0 1.077 1.077 0 0 0-2.153 0Z"/><path fill="#FF9B05" d="M719.671 415.201a1.077 1.077 0 1 0 2.153-.001 1.077 1.077 0 0 0-2.153.001ZM733.88 418.431a1.077 1.077 0 1 0 2.153-.001 1.077 1.077 0 0 0-2.153.001ZM730.326 418.431a1.077 1.077 0 1 0 2.154-.002 1.077 1.077 0 0 0-2.154.002Z"/><path fill="#154D72" d="M726.772 418.431a1.077 1.077 0 1 0 2.154-.002 1.077 1.077 0 0 0-2.154.002Z"/><path fill="#FF9B05" d="M723.225 418.431a1.076 1.076 0 1 0 2.153 0 1.076 1.076 0 0 0-2.153 0Z"/><path fill="#154D72" d="M719.671 418.431a1.077 1.077 0 1 0 2.153-.001 1.077 1.077 0 0 0-2.153.001Z"/><path fill="#FF9B05" d="M733.88 421.666a1.077 1.077 0 1 0 2.155 0 1.077 1.077 0 0 0-2.155 0Z"/><path fill="#154D72" d="M730.326 421.666a1.078 1.078 0 0 0 2.154 0 1.077 1.077 0 0 0-2.154 0Z"/><path fill="#FF9B05" d="M726.772 421.666a1.078 1.078 0 0 0 2.154 0 1.077 1.077 0 0 0-2.154 0ZM723.225 421.666a1.077 1.077 0 1 0 2.154 0 1.077 1.077 0 0 0-2.154 0ZM719.671 421.666a1.077 1.077 0 1 0 2.155 0 1.077 1.077 0 0 0-2.155 0Z"/><path fill="#154D72" d="M737.456 422.743h.618v-8.619h-.618v8.619ZM791.208 412h-11.261v12.867h11.261V412Z"/><path fill="#103654" stroke="#046097" stroke-width=".5" d="M353 404.25h64.436a3.75 3.75 0 0 1 3.75 3.75v42.816a3.75 3.75 0 0 1-3.75 3.75H353a3.75 3.75 0 0 1-3.75-3.75V408a3.75 3.75 0 0 1 3.75-3.75Z"/><path fill="#046097" d="M418.436 404H352a3 3 0 0 0-3 3v.442h72.436V407a3 3 0 0 0-3-3Z"/><path fill="#103654" d="M420.246 405.718a1.034 1.034 0 1 1-2.07 0 1.034 1.034 0 1 1 2.07 0ZM416.799 405.718a1.035 1.035 0 1 1-2.07 0 1.034 1.034 0 1 1 2.07 0ZM413.352 405.718a1.035 1.035 0 1 1-2.071 0 1.035 1.035 0 1 1 2.071 0Z"/><path fill="#4F90B6" d="M396.853 431.745c-.048 0-.113-.445-.195-1.237-.083-.392-.152-.877-.287-1.423l-.247-.867c-.091-.304-.23-.613-.351-.947a12.828 12.828 0 0 0-2.697-4.092 12.537 12.537 0 0 0-5.052-3.082c-2.025-.599-4.089-.67-5.888-.317-1.804.343-3.326 1.087-4.488 1.863-1.167.779-1.973 1.603-2.511 2.188-.269.291-.468.529-.603.692-.139.158-.221.237-.243.224-.021-.013.026-.119.13-.304.104-.189.269-.458.512-.779a11.605 11.605 0 0 1 2.441-2.418 12.088 12.088 0 0 1 4.64-2.083c1.886-.409 4.067-.357 6.21.278 2.129.678 3.963 1.889 5.298 3.294a12.701 12.701 0 0 1 2.698 4.36c.112.352.242.673.32.995.074.321.139.625.204.911.104.573.139 1.075.178 1.48 0 .819-.022 1.264-.069 1.264Z"/><path fill="#4F90B6" d="M390.968 427.306c.113-.15 2.801 1.731 5.997 4.201.061.049.121.093.178.137l-.525.158c1.297-3.756 2.472-6.711 2.645-6.65.174.062-.72 3.118-2.007 6.879l-.152.449-.373-.286c-.057-.044-.117-.092-.178-.136-3.2-2.471-5.702-4.598-5.589-4.748l.004-.004ZM373.618 429.67c.048.005.061.445.044 1.22.021.388.052.863.1 1.405.086.542.164 1.163.355 1.823a12.779 12.779 0 0 0 2.055 4.303c1.05 1.458 2.563 2.792 4.406 3.712l.343.177.355.14c.234.093.469.19.703.282.238.08.477.141.711.212.238.061.468.149.707.18.945.198 1.877.3 2.771.282a12.164 12.164 0 0 0 4.609-.982 13.392 13.392 0 0 0 2.788-1.616c.308-.229.546-.414.703-.542.16-.123.255-.18.273-.163.017.018-.044.106-.178.264-.13.163-.343.384-.629.648a11.27 11.27 0 0 1-2.762 1.854 11.837 11.837 0 0 1-4.787 1.171c-.937.04-1.921-.053-2.918-.255-.256-.031-.499-.119-.751-.185-.247-.071-.503-.137-.754-.22a63.488 63.488 0 0 1-.742-.295l-.373-.15-.359-.185c-.243-.123-.482-.251-.72-.374-.23-.141-.447-.291-.672-.436-.456-.273-.842-.63-1.245-.947-.199-.159-.368-.353-.555-.524-.173-.181-.368-.344-.52-.538a41.096 41.096 0 0 1-.469-.563l-.229-.278-.2-.295a12.56 12.56 0 0 1-2.016-4.562c-.169-.696-.213-1.343-.269-1.903a19.55 19.55 0 0 1 .013-1.448c.095-.789.173-1.216.217-1.212h-.005Z"/><path fill="#4F90B6" d="M378.926 434.81c-.13.136-2.571-2.066-5.446-4.915-.056-.053-.108-.11-.161-.158l.543-.093c-1.744 3.563-3.266 6.35-3.43 6.271-.165-.083 1.088-3.003 2.818-6.575l.204-.423.334.331c.052.048.104.105.16.158 2.879 2.85 5.104 5.272 4.974 5.408l.004-.004Z"/><path fill="#103654" stroke="#046097" stroke-width=".5" d="M702 278.25h79.564a3.75 3.75 0 0 1 3.75 3.75v53.428a3.75 3.75 0 0 1-3.75 3.75H702a3.75 3.75 0 0 1-3.75-3.75V282a3.75 3.75 0 0 1 3.75-3.75Z"/><path fill="#046097" d="M782.564 278H701a3 3 0 0 0-3 3v1.16h87.564V281a3 3 0 0 0-3-3Z"/><path fill="#103654" d="M784.127 280.076a1.25 1.25 0 0 1-1.252 1.252 1.25 1.25 0 0 1-1.251-1.252 1.25 1.25 0 0 1 1.251-1.251 1.25 1.25 0 0 1 1.252 1.251ZM779.959 280.076a1.25 1.25 0 0 1-1.251 1.252 1.25 1.25 0 0 1-1.252-1.252 1.25 1.25 0 0 1 1.252-1.251 1.25 1.25 0 0 1 1.251 1.251ZM775.792 280.076a1.25 1.25 0 0 1-1.251 1.252 1.25 1.25 0 0 1-1.252-1.252 1.25 1.25 0 0 1 1.252-1.251 1.25 1.25 0 0 1 1.251 1.251Z"/><path fill="#4F90B6" d="M755.846 311.54c-.058 0-.136-.538-.236-1.496-.099-.474-.183-1.06-.346-1.72l-.299-1.049c-.11-.367-.277-.74-.424-1.144a15.489 15.489 0 0 0-3.261-4.946 15.144 15.144 0 0 0-6.106-3.726c-2.448-.724-4.943-.81-7.119-.384-2.18.416-4.02 1.315-5.425 2.252-1.41.943-2.385 1.938-3.035 2.646-.325.351-.566.639-.729.836-.168.192-.267.287-.293.271-.027-.016.031-.143.157-.367.126-.229.325-.554.618-.942a14.006 14.006 0 0 1 2.952-2.923 14.6 14.6 0 0 1 5.608-2.518c2.281-.495 4.917-.431 7.507.335 2.573.82 4.791 2.284 6.405 3.983a15.355 15.355 0 0 1 3.261 5.27c.136.426.293.814.388 1.203.089.389.167.756.246 1.102.126.692.168 1.299.215 1.789 0 .99-.026 1.528-.084 1.528Z"/><path fill="#4F90B6" d="M748.733 306.173c.137-.181 3.387 2.093 7.25 5.079.073.059.147.112.215.165l-.635.192c1.568-4.541 2.988-8.113 3.198-8.039.21.075-.87 3.769-2.427 8.316l-.183.543-.451-.346a6.38 6.38 0 0 0-.215-.165c-3.869-2.987-6.893-5.558-6.757-5.739l.005-.006ZM727.76 309.032c.058.005.073.538.052 1.475.027.468.063 1.043.121 1.698.105.655.199 1.405.43 2.204a15.43 15.43 0 0 0 2.484 5.201c1.269 1.762 3.098 3.375 5.326 4.488l.414.213.43.17c.283.112.566.229.849.341.289.096.577.17.86.255.288.075.566.181.854.219 1.143.239 2.27.362 3.35.34a14.697 14.697 0 0 0 5.572-1.187c1.515-.639 2.626-1.405 3.371-1.954.372-.276.66-.5.849-.654.194-.149.309-.219.33-.197.021.021-.052.127-.215.319a7.774 7.774 0 0 1-.76.783 13.63 13.63 0 0 1-3.339 2.241c-1.531.751-3.523 1.341-5.787 1.416-1.132.048-2.322-.064-3.528-.309-.309-.037-.603-.144-.907-.223-.298-.086-.608-.165-.912-.267a66.683 66.683 0 0 1-.896-.356l-.451-.181-.435-.224c-.294-.149-.582-.303-.87-.452-.278-.171-.54-.352-.813-.527-.55-.33-1.017-.762-1.504-1.145-.241-.192-.446-.426-.671-.633-.21-.219-.446-.416-.629-.65a56.515 56.515 0 0 1-.566-.681l-.278-.336-.241-.356a15.196 15.196 0 0 1-2.438-5.516c-.204-.841-.256-1.623-.325-2.3a23.146 23.146 0 0 1 .016-1.751c.115-.953.21-1.469.262-1.464h-.005Z"/><path fill="#4F90B6" d="M734.176 315.245c-.157.165-3.108-2.497-6.584-5.942-.068-.063-.131-.133-.194-.191l.656-.112c-2.108 4.307-3.948 7.677-4.147 7.581-.199-.101 1.316-3.631 3.407-7.948l.247-.511.403.399c.063.058.126.128.194.192 3.481 3.444 6.17 6.372 6.013 6.537l.005-.005Z"/><path fill="#103654" stroke="#154D72" stroke-width=".5" d="M611 259.25h45.353a3.75 3.75 0 0 1 3.75 3.75v29.428a3.75 3.75 0 0 1-3.75 3.75H611a3.75 3.75 0 0 1-3.75-3.75V263a3.75 3.75 0 0 1 3.75-3.75Z"/><path fill="#154D72" d="M657.818 259h-48.283a2.535 2.535 0 0 0-2.535 2.535h53.353c0-1.4-1.135-2.535-2.535-2.535Z"/><path fill="#103654" d="M659.477 260.265a.762.762 0 1 1-1.524.002.762.762 0 0 1 1.524-.002ZM656.938 260.265a.762.762 0 1 1-1.524.002.762.762 0 0 1 1.524-.002ZM654.399 260.265a.762.762 0 1 1-1.524.002.762.762 0 0 1 1.524-.002Z"/><path fill="#4F90B6" d="M642.246 279.436c-.036 0-.083-.328-.144-.912-.061-.288-.112-.645-.211-1.048l-.182-.639c-.067-.223-.169-.45-.259-.697a9.44 9.44 0 0 0-1.986-3.013 9.23 9.23 0 0 0-3.721-2.271c-1.492-.441-3.012-.493-4.337-.233a9.041 9.041 0 0 0-3.306 1.372 10.022 10.022 0 0 0-1.849 1.612 11.6 11.6 0 0 0-.444.509c-.103.117-.163.175-.179.165-.016-.009.019-.087.096-.223.076-.14.198-.338.376-.574a8.518 8.518 0 0 1 1.799-1.781 8.885 8.885 0 0 1 3.417-1.535c1.389-.301 2.996-.262 4.574.205a9.352 9.352 0 0 1 3.903 2.426 9.365 9.365 0 0 1 1.986 3.211c.083.26.179.497.237.733.054.237.102.461.15.672.076.422.102.791.131 1.09 0 .603-.016.931-.051.931Z"/><path fill="#4F90B6" d="M637.911 276.166c.083-.11 2.063 1.275 4.417 3.094.045.036.09.069.131.101l-.386.117c.955-2.767 1.82-4.944 1.948-4.898.128.045-.53 2.296-1.479 5.066l-.111.331-.275-.211c-.042-.032-.086-.068-.131-.1-2.357-1.82-4.2-3.387-4.117-3.497l.003-.003ZM625.133 277.908c.035.003.045.327.032.898.016.286.038.636.073 1.035.064.399.122.856.262 1.343a9.427 9.427 0 0 0 1.514 3.169 8.955 8.955 0 0 0 3.245 2.734l.253.13.261.104c.173.068.345.139.518.208.176.058.351.103.524.155.175.046.345.11.52.133a9.122 9.122 0 0 0 2.041.208 8.96 8.96 0 0 0 3.395-.724 9.865 9.865 0 0 0 2.054-1.19c.227-.169.402-.305.517-.399.118-.091.189-.133.202-.12.012.013-.032.078-.131.195-.096.12-.253.282-.464.476a8.274 8.274 0 0 1-2.034 1.366 8.743 8.743 0 0 1-3.526.863 8.982 8.982 0 0 1-2.15-.188c-.188-.023-.367-.088-.552-.136-.182-.052-.371-.101-.556-.163a30.956 30.956 0 0 1-.546-.217l-.275-.11-.265-.137c-.179-.09-.354-.184-.53-.275-.169-.104-.329-.214-.495-.321-.335-.201-.62-.464-.917-.698-.147-.117-.271-.259-.408-.386-.128-.133-.272-.253-.384-.395-.118-.14-.233-.279-.345-.416l-.169-.204-.147-.217a9.251 9.251 0 0 1-1.485-3.361c-.125-.512-.157-.989-.198-1.401a13.88 13.88 0 0 1 .01-1.067c.07-.581.127-.896.159-.892h-.003Z"/><path fill="#4F90B6" d="M629.042 281.693c-.096.101-1.894-1.521-4.012-3.62-.041-.039-.079-.081-.118-.117l.399-.068c-1.283 2.624-2.405 4.678-2.526 4.619-.121-.061.802-2.212 2.076-4.843l.15-.311.246.243c.039.036.077.078.118.117 2.121 2.099 3.76 3.883 3.664 3.983l.003-.003Z"/><path fill="#046097" d="M318.682 343.989c-.081-9.611-7.878-17.378-17.489-17.378-2.318 0-4.527.459-6.548 1.278-3.432-7.038-10.654-11.889-18.999-11.889-10.096 0-18.54 7.092-20.633 16.578-9.495.612-17.013 8.523-17.013 18.188 0 9.666 8.147 18.234 18.199 18.234h57.902c7.123 0 12.899-5.787 12.899-12.924a12.92 12.92 0 0 0-8.309-12.078l-.009-.009ZM662.299 418.54c-.055-6.71-5.399-12.132-11.987-12.132-1.588 0-3.103.32-4.488.892-2.352-4.914-7.302-8.3-13.022-8.3-6.92 0-12.707 4.951-14.141 11.573-6.508.427-11.661 5.95-11.661 12.698S612.584 436 619.473 436h39.686c4.882 0 8.841-4.04 8.841-9.022 0-3.852-2.364-7.138-5.695-8.432l-.006-.006Z"/><path fill="#134063" d="M205.177 295.708c-.066-7.798-6.461-14.099-14.345-14.099-1.901 0-3.713.372-5.371 1.037A17.351 17.351 0 0 0 169.878 273c-8.281 0-15.207 5.754-16.923 13.45-7.788.496-13.955 6.915-13.955 14.757S145.683 316 153.927 316h47.493c5.843 0 10.58-4.695 10.58-10.485 0-4.476-2.829-8.295-6.815-9.799l-.008-.008ZM337.607 486.259c-.042-4.897-4.16-8.853-9.235-8.853a9.473 9.473 0 0 0-3.459.651c-1.812-3.586-5.626-6.057-10.032-6.057-5.332 0-9.791 3.613-10.897 8.445-5.014.312-8.984 4.342-8.984 9.266s4.302 9.289 9.611 9.289h30.577c3.762 0 6.812-2.948 6.812-6.584 0-2.81-1.822-5.208-4.388-6.153l-.005-.004ZM828.607 383.259c-.042-4.897-4.16-8.853-9.235-8.853a9.473 9.473 0 0 0-3.459.651c-1.812-3.586-5.626-6.057-10.032-6.057-5.332 0-9.791 3.613-10.897 8.445-5.014.312-8.984 4.342-8.984 9.266s4.302 9.289 9.611 9.289h30.577c3.762 0 6.812-2.948 6.812-6.584 0-2.81-1.822-5.208-4.388-6.153l-.005-.004Z"/></svg>