<svg width="972" height="516" fill="none" xmlns="http://www.w3.org/2000/svg">
  <path d="M11 0v516M49 0v516M87 0v516M125 0v516M163 0v516M201 0v516M239 0v516M277 0v516M315 0v516M353 0v516M391 0v516M429 0v516M467 0v516M505 0v516M543 0v516M581 0v516M619 0v516M657 0v516M695 0v516M733 0v516M771 0v516M809 0v516M847 0v516M885 0v516M923 0v516M961 0v516M0 505h972M0 467h972M0 429h972M0 391h972M0 353h972M0 315h972M0 277h972M0 239h972M0 201h972M0 163h972M0 125h972M0 87h972M0 49h972M0 11h972" stroke="#0F4465" stroke-miterlimit="10"/>
  <g clip-path="url(#a)">
    <path d="M316.235 329.208v-28.945c15.864 0 28.917 13.065 28.917 28.945s-13.053 28.945-28.917 28.945c-15.865 0-28.553-12.654-28.911-28.28l28.911-.672v.007Z" fill="#046097"/>
    <path d="m309.185 321.408-28.917.651c0-7.539 2.942-15.437 8.196-20.839 5.253-5.402 12.746-8.543 20.278-8.751l.449 28.939h-.006Z" fill="#154D72"/>
    <path fill-rule="evenodd" clip-rule="evenodd" d="M634.503 260.689a24.43 24.43 0 0 1 6.328 1.674l4.654-3.903 7.995 6.086-2.52 5.526a24.755 24.755 0 0 1 3.301 5.663l6.047.534 1.348 9.964-5.683 2.124a24.522 24.522 0 0 1-1.673 6.334l3.899 4.659-6.08 7.995-5.52-2.522a24.444 24.444 0 0 1-5.658 3.298l-.533 6.047-9.954 1.355-2.122-5.689a24.43 24.43 0 0 1-6.328-1.674l-4.654 3.903-7.995-6.086 2.52-5.526a24.755 24.755 0 0 1-3.301-5.663l-6.041-.534-1.347-9.963 5.683-2.125a24.465 24.465 0 0 1 1.673-6.333l-3.9-4.66 6.081-7.995 5.526 2.522a24.717 24.717 0 0 1 5.658-3.304l.533-6.047 9.954-1.349 2.122 5.689h-.013Zm-2.981 13.736c-6.842.248-11.712 6.647-10.123 13.313 1.172 4.933 5.761 8.432 10.826 8.243 6.842-.248 11.705-6.647 10.116-13.313-1.172-4.933-5.761-8.432-10.819-8.249v.006ZM310.654 469.509a13.524 13.524 0 0 1 2.91 2.053l3.112-1.108 2.923 4.62-2.331 2.34c.352 1.127.567 2.306.612 3.512l2.982 1.414-1.198 5.33h-3.3a13.427 13.427 0 0 1-2.051 2.919l1.107 3.115-4.616 2.926-2.337-2.333a13.485 13.485 0 0 1-3.509.613l-1.412 2.984-5.332-1.199v-3.304a13.412 13.412 0 0 1-2.916-2.052l-3.112 1.108-2.923-4.62 2.33-2.34a13.513 13.513 0 0 1-.611-3.512L288 480.561l1.198-5.337h3.3a13.427 13.427 0 0 1 2.051-2.919l-1.107-3.115 4.616-2.926 2.337 2.333a13.485 13.485 0 0 1 3.509-.613l1.412-2.984 5.325 1.199v3.304h.007l.006.006Zm-4.7 6.275a5.858 5.858 0 0 0-6.998 4.438 5.857 5.857 0 1 0 11.432 2.567 5.863 5.863 0 0 0-4.434-7.005Z" fill="#046097"/>
    <path fill-rule="evenodd" clip-rule="evenodd" d="M642.14 360.766c1.51.189 2.969.58 4.342 1.146l3.19-2.678 5.481 4.177-1.725 3.793a16.939 16.939 0 0 1 2.266 3.883l4.146.365.925 6.836-3.9 1.459a16.896 16.896 0 0 1-1.145 4.347l2.675 3.199-4.173 5.487-3.788-1.727a16.962 16.962 0 0 1-3.88 2.268l-.365 4.151-6.829.925-1.458-3.903a16.873 16.873 0 0 1-4.342-1.147l-3.196 2.678-5.482-4.177 1.732-3.792a16.92 16.92 0 0 1-2.265-3.884l-4.147-.365-.925-6.835 3.9-1.46a16.88 16.88 0 0 1 1.146-4.346l-2.676-3.2 4.173-5.487 3.789 1.727a16.934 16.934 0 0 1 3.879-2.268l.365-4.15 6.829-.926 1.458 3.904Zm-2.051 9.429a7.397 7.397 0 0 0-6.946 9.135c.808 3.389 3.958 5.787 7.428 5.657 4.694-.17 8.033-4.562 6.946-9.136-.801-3.389-3.951-5.787-7.428-5.663v.007Z" fill="#134063"/>
    <path d="M338.107 283.748h298.481v206.231H338.107V283.748Z" fill="#103654" stroke="#046097"/>
    <path d="M637.088 283.248H337.607v12.023h299.481v-12.023Z" fill="#046097"/>
    <path d="M346.155 289.035a1.845 1.845 0 0 1-1.842 1.844 1.845 1.845 0 0 1 0-3.689c1.016 0 1.842.828 1.842 1.845ZM352.808 289.035a1.846 1.846 0 0 1-1.843 1.844 1.846 1.846 0 0 1-1.842-1.844c0-1.017.827-1.845 1.842-1.845 1.016 0 1.843.828 1.843 1.845ZM359.462 289.035a1.846 1.846 0 0 1-1.842 1.844 1.846 1.846 0 0 1-1.843-1.844c0-1.017.827-1.845 1.843-1.845 1.015 0 1.842.828 1.842 1.845Z" fill="#103654"/>
    <path d="M626.373 477.459c0-.749-.039-24.742-.098-67.313l.098.098c-61.773.013-162.669.039-276.475.071h-.02l.169-.169v67.313l-.169-.169c157.663.097 274.841.163 276.488.169-1.647 0-118.825.072-276.488.17h-.169v-67.652h.189c113.806.026 214.696.052 276.475.071h.097v.098c-.065 42.571-.097 66.564-.097 67.313ZM484.177 404.496s-.013-.586-.013-1.713c0-1.128-.006-2.802-.013-4.985-.006-4.366-.019-10.778-.032-18.982-.02-16.395-.039-39.932-.072-68.552l.137.137c-37.217.007-83.555.02-133.668.033h-.013l.169-.17c0 33.709-.013 65.704-.013 94.226l-.156-.157 96.405.079c11.777.019 21.086.032 27.459.039 3.183.006 5.631.013 7.291.019.827 0 1.452.007 1.881.007.423 0 .645.006.645.006s-.209 0-.625.007c-.423 0-1.042 0-1.862.006-1.653 0-4.088.013-7.258.02-6.361.006-15.663.026-27.427.039l-96.509.078h-.156v-.156c0-28.522-.013-60.517-.013-94.226v-.169h.182c50.113.013 96.457.026 133.668.033h.137v.136c-.033 28.653-.053 52.222-.072 68.636-.013 8.191-.026 14.59-.033 18.95-.006 2.17-.013 3.831-.013 4.959 0 1.12-.013 1.687-.013 1.687l-.013.013Z" fill="#046097"/>
    <path d="m364.956 386.674 9.628-13.938c1.959-2.835 5.859-3.519 8.658-1.512l1.354.971c3.359 2.405 8.085.886 9.42-3.024l4.674-13.69c1.901-5.565 9.771-5.565 11.672 0l2.259 6.627c1.816 5.311 9.199 5.636 11.471.502l1.959-4.431c1.96-4.419 8.001-4.972 10.728-.984 2.865 4.196 9.283 3.323 10.924-1.486l2.187-6.406c2.012-5.884 10.468-5.434 11.848.626l8.365 36.752s-104.861-.294-105.154 0l.007-.007Z" fill="#046097"/>
    <path d="m364.956 386.674 9.628-13.938c1.959-2.835 5.859-3.519 8.658-1.512l1.354.971c3.359 2.405 8.085.886 9.42-3.024l4.674-13.69c1.901-5.565 9.771-5.565 11.672 0l2.259 6.627c1.816 5.311 9.199 5.636 11.471.502l1.959-4.431c1.96-4.419 8.001-4.972 10.728-.984 2.865 4.196 9.283 3.323 10.924-1.486l2.187-6.406c2.012-5.884 10.468-5.434 11.848.626l8.365 36.752s-104.861-.294-105.154 0l.007-.007Z" fill="#000" opacity=".3"/>
    <path d="m364.682 387.033 7.825-22.911c1.835-5.37 9.387-5.461 11.346-.137l3.75 10.152c1.621 4.392 7.408 5.337 10.344 1.688l3.034-3.779a6.02 6.02 0 0 1 8.248-1.089l7.07 5.174a6.02 6.02 0 0 0 3.554 1.16h8.997c1.276 0 2.525.404 3.554 1.16l6.692 4.9a6.019 6.019 0 0 0 8.528-1.466l6.282-9.201c.078-.117.163-.228.248-.339 2.519-3.193 7.577-2.521 9.406 1.115l6.725 13.345s-105.603-.215-105.603.215v.013Z" fill="#046097"/>
    <path d="m470.252 386.818-8.177-6.66c-11.21-8.256-16.528 7.455-25.343-4.333l-3.033-3.779a6.02 6.02 0 0 0-8.248-1.089l-3.516 2.574a19.466 19.466 0 0 1-11.516 3.767h-4.589a6.005 6.005 0 0 0-3.554 1.16l-6.693 4.9c-2.747 2.007-4.661 2.28-9.055-1.414 0 0-4.772-3.884-4.882-4.021-2.337-2.847-7.226-2.847-9.329 0a25.169 25.169 0 0 1-1.608 1.922l-6.314 6.966s105.857-.436 105.857 0v.007Z" fill="#046097"/>
    <path d="m470.252 386.818-8.177-6.66c-11.21-8.256-16.528 7.455-25.343-4.333l-3.033-3.779a6.02 6.02 0 0 0-8.248-1.089l-3.516 2.574a19.466 19.466 0 0 1-11.516 3.767h-4.589a6.005 6.005 0 0 0-3.554 1.16l-6.693 4.9c-2.747 2.007-4.661 2.28-9.055-1.414 0 0-4.772-3.884-4.882-4.021-2.337-2.847-7.226-2.847-9.329 0a25.169 25.169 0 0 1-1.608 1.922l-6.314 6.966s105.857-.436 105.857 0v.007Z" fill="#fff" opacity=".3"/>
    <path d="M393.716 333.918c0 .092-3.743.17-8.352.17s-8.352-.078-8.352-.17c0-.091 3.736-.169 8.352-.169 4.615 0 8.352.078 8.352.169ZM375.182 332.491h-2.858v2.861h2.858v-2.861ZM425.238 333.918c0 .092-3.744.17-8.353.17s-8.352-.078-8.352-.17c0-.091 3.737-.169 8.352-.169 4.616 0 8.353.078 8.353.169ZM406.704 332.491h-2.858v2.861h2.858v-2.861ZM456.757 333.918c0 .092-3.743.17-8.352.17s-8.352-.078-8.352-.17c0-.091 3.736-.169 8.352-.169 4.615 0 8.352.078 8.352.169ZM438.217 332.491h-2.858v2.861h2.858v-2.861ZM457.167 465.952l6.881-9.82a2.466 2.466 0 0 1 3.503-.554l3.619 2.737a2.465 2.465 0 0 0 3.62-.737l10.441-18.102c.873-1.512 2.995-1.662 4.069-.293l6.517 8.276a2.464 2.464 0 0 0 4.016-.202l4.765-7.494c.996-1.564 3.288-1.512 4.212.091l3.932 6.823c.925 1.603 3.216 1.655 4.212.091l13.45-21.1c.957-1.499 3.137-1.525 4.127-.046l22.218 33.273a2.463 2.463 0 0 0 3.873.286l13.502-14.876a2.47 2.47 0 0 1 3.574-.085l10.735 10.784a2.46 2.46 0 0 0 3.88-.508l19.21-33.305c1.263-2.189 4.603-1.29 4.603 1.232v43.529H457.154h.013ZM615.735 471.393s-.006-.065-.013-.189c0-.137 0-.332-.013-.586 0-.541-.013-1.336-.019-2.431l.045.046c-9.179.071-41.116.123-79.049.123-37.933 0-69.877-.052-79.056-.123l.045-.046c-.013 1.095-.019 1.89-.019 2.431 0 .254-.007.443-.013.586 0 .13-.007.189-.013.189-.007 0-.007-.065-.013-.189 0-.137 0-.332-.013-.586 0-.541-.014-1.336-.02-2.431v-.046h.046c9.179-.071 41.11-.123 79.056-.123s69.864.052 79.049.123h.046v.046c-.007 1.095-.02 1.89-.02 2.431 0 .254-.006.449-.013.586 0 .13-.006.189-.013.189Z" fill="#046097"/>
    <path d="M475.2 471.138c-.091 0-.169-.299-.169-.671 0-.371.078-.671.169-.671.092 0 .17.3.17.671 0 .372-.078.671-.17.671ZM492.763 471.138c-.091 0-.169-.299-.169-.671 0-.371.078-.671.169-.671.091 0 .169.3.169.671 0 .372-.078.671-.169.671ZM510.333 471.138c-.091 0-.169-.299-.169-.671 0-.371.078-.671.169-.671.091 0 .17.3.17.671 0 .372-.079.671-.17.671ZM527.898 471.138c-.091 0-.169-.299-.169-.671 0-.371.078-.671.169-.671.091 0 .169.3.169.671 0 .372-.078.671-.169.671ZM545.468 471.138c-.091 0-.169-.299-.169-.671 0-.371.078-.671.169-.671.091 0 .169.3.169.671 0 .372-.078.671-.169.671ZM563.031 471.138c-.092 0-.17-.299-.17-.671 0-.371.078-.671.17-.671.091 0 .169.3.169.671 0 .372-.078.671-.169.671ZM580.601 471.138c-.091 0-.169-.299-.169-.671 0-.371.078-.671.169-.671.091 0 .169.3.169.671 0 .372-.078.671-.169.671ZM598.165 471.138c-.091 0-.169-.299-.169-.671 0-.371.078-.671.169-.671.091 0 .17.3.17.671 0 .372-.079.671-.17.671ZM627.244 382.909s-.006-.391-.013-1.141c0-.756-.006-1.87-.013-3.323-.006-2.919-.019-7.22-.032-12.746-.013-11.051-.039-27.029-.065-46.754l.123.124c-34.834.013-81.933.026-133.674.045h-.006l.169-.169c0 22.52 0 44.161-.006 63.97l-.163-.163c38.948.033 72.344.059 96.014.078 11.842.02 21.248.033 27.706.046 3.223.007 5.709.013 7.395.02.84 0 1.478.006 1.914.006.43 0 .658.013.658.013s-.208.007-.638.013c-.43 0-1.061 0-1.894.007-1.68 0-4.154.013-7.363.019-6.445.013-15.839.026-27.667.046-23.696.019-57.131.045-96.125.078h-.163v-.163c0-19.803 0-41.45-.006-63.97v-.17h.175c51.741.02 98.833.033 133.674.046h.124v.124c-.026 19.757-.052 35.761-.065 46.832-.013 5.52-.026 9.807-.033 12.72 0 1.447-.013 2.554-.013 3.304 0 .743-.013 1.114-.013 1.114v-.006Z" fill="#046097"/>
    <path d="M596.987 346.834h-92.089a1.54 1.54 0 0 1-1.537-1.537c0-.847.69-1.538 1.537-1.538h92.089a1.54 1.54 0 0 1 1.536 1.538 1.54 1.54 0 0 1-1.536 1.537ZM596.987 334.668h-92.089a1.54 1.54 0 0 1-1.537-1.537c0-.848.69-1.538 1.537-1.538h92.089c.846 0 1.536.69 1.536 1.538a1.54 1.54 0 0 1-1.536 1.537Z" fill="#154D72"/>
    <path d="M546.509 346.834h-41.611a1.54 1.54 0 0 1-1.537-1.537c0-.847.69-1.538 1.537-1.538h41.611a1.54 1.54 0 0 1 1.536 1.538 1.54 1.54 0 0 1-1.536 1.537Z" fill="#FF9C00"/>
    <path d="M608.666 345.954h-.677v.88h-.495v-.88h-1.992v-.358l1.829-2.346h.554l-1.758 2.261h1.373v-.775h.482v.775h.677v.443h.007ZM611.466 345.759c0 .619-.443 1.115-1.354 1.115-.508 0-1.009-.163-1.315-.437l.234-.404c.241.228.638.385 1.074.385.541 0 .847-.248.847-.639s-.254-.658-1.087-.658h-.814l.189-1.877h2.018v.443h-1.589l-.097.984h.397c1.067 0 1.49.443 1.49 1.082l.007.006ZM611.783 344.195c0-.586.339-.977.833-.977.495 0 .827.391.827.977 0 .587-.332.978-.827.978-.494 0-.833-.398-.833-.978Zm1.335 0c0-.43-.189-.684-.502-.684-.312 0-.501.261-.501.684 0 .424.195.684.501.684s.502-.254.502-.684Zm1.66-.945h.397l-2.448 3.584h-.39l2.447-3.584h-.006Zm-.723 2.639c0-.586.332-.977.827-.977.495 0 .833.391.833.977 0 .587-.338.978-.833.978-.495 0-.827-.398-.827-.978Zm1.328 0c0-.423-.195-.684-.501-.684s-.501.254-.501.684c0 .431.188.685.501.685.312 0 .501-.261.501-.685Z" fill="#046097"/>
    <path d="M596.987 358.102h-92.089a1.54 1.54 0 0 1-1.537-1.538c0-.847.69-1.538 1.537-1.538h92.089a1.54 1.54 0 0 1 1.536 1.538 1.54 1.54 0 0 1-1.536 1.538Z" fill="#154D72"/>
    <path d="M560.068 358.102h-55.073c-1.146 0-1.628-.691-1.628-1.538 0-.847.488-1.538 1.081-1.538h55.073c1.081 0 1.765.691 1.765 1.538 0 1.258-1.166 1.538-1.218 1.538Z" fill="#FF9C00"/>
    <path d="M608.157 354.517v.346l-1.445 3.238h-.54l1.419-3.141h-1.634v.639h-.488v-1.088h2.701l-.013.006ZM608.502 356.31c0-1.167.625-1.831 1.465-1.831.839 0 1.458.664 1.458 1.831 0 1.166-.625 1.831-1.458 1.831-.834 0-1.465-.665-1.465-1.831Zm2.409 0c0-.919-.391-1.375-.944-1.375-.554 0-.951.462-.951 1.375 0 .912.391 1.375.951 1.375.56 0 .944-.463.944-1.375ZM611.861 355.463c0-.587.339-.978.834-.978.494 0 .826.391.826.978 0 .586-.332.977-.826.977-.495 0-.834-.397-.834-.977Zm1.335 0c0-.43-.189-.684-.501-.684-.313 0-.502.26-.502.684 0 .423.196.684.502.684s.501-.254.501-.684Zm1.66-.945h.397l-2.448 3.584h-.39l2.447-3.584h-.006Zm-.723 2.639c0-.586.332-.977.827-.977.495 0 .833.391.833.977s-.338.977-.833.977c-.495 0-.827-.397-.827-.977Zm1.328 0c0-.424-.195-.684-.501-.684s-.501.254-.501.684c0 .43.189.684.501.684.313 0 .501-.26.501-.684Z" fill="#046097"/>
    <path d="M596.987 369.1h-92.089a1.54 1.54 0 0 1-1.537-1.538c0-.847.69-1.538 1.537-1.538h92.089a1.54 1.54 0 0 1 1.536 1.538 1.54 1.54 0 0 1-1.536 1.538Z" fill="#154D72"/>
    <path d="M539.106 369.1h-34.202a1.54 1.54 0 0 1-1.537-1.538c0-.847.69-1.538 1.537-1.538h34.202a1.54 1.54 0 0 1 1.537 1.538 1.54 1.54 0 0 1-1.537 1.538Z" fill="#FF9C00"/>
    <path d="M608.06 368.025c0 .619-.443 1.114-1.354 1.114-.508 0-1.009-.163-1.315-.436l.234-.404c.241.228.638.384 1.074.384.54 0 .846-.247.846-.638s-.253-.659-1.087-.659h-.813l.188-1.876h2.018v.443h-1.588l-.098.984h.397c1.068 0 1.491.443 1.491 1.082l.007.006ZM608.482 367.302c0-1.167.625-1.831 1.465-1.831.84 0 1.458.664 1.458 1.831 0 1.166-.625 1.831-1.458 1.831s-1.465-.665-1.465-1.831Zm2.409 0c0-.919-.391-1.375-.944-1.375-.553 0-.95.462-.95 1.375 0 .912.39 1.375.95 1.375.56 0 .944-.463.944-1.375ZM611.842 366.461c0-.587.338-.978.833-.978.495 0 .827.391.827.978 0 .586-.332.977-.827.977-.495 0-.833-.397-.833-.977Zm1.334 0c0-.43-.188-.684-.501-.684-.312 0-.501.26-.501.684 0 .423.195.684.501.684s.501-.254.501-.684Zm1.66-.945h.397l-2.447 3.584h-.391l2.448-3.584h-.007Zm-.722 2.639c0-.586.332-.977.827-.977.494 0 .833.397.833.977s-.339.978-.833.978c-.495 0-.827-.398-.827-.978Zm1.328 0c0-.423-.196-.684-.501-.684-.306 0-.502.254-.502.684 0 .43.189.684.502.684.312 0 .501-.26.501-.684Z" fill="#046097"/>
    <path d="M565.863 334.669h-60.965a1.54 1.54 0 0 1-1.537-1.537c0-.848.69-1.538 1.537-1.538h60.965c.846 0 1.536.69 1.536 1.538a1.54 1.54 0 0 1-1.536 1.537Z" fill="#FF9C00"/>
    <path d="M608.32 333.574c0 .691-.56 1.134-1.269 1.134-.964 0-1.504-.645-1.504-1.785 0-1.225.69-1.877 1.692-1.877.339 0 .658.065.892.208l-.195.398c-.182-.124-.43-.17-.684-.17-.729 0-1.191.457-1.191 1.349v.131c.202-.307.586-.469 1.029-.469.709 0 1.23.423 1.23 1.088v-.007Zm-.495.02c0-.417-.319-.691-.82-.691-.501 0-.827.3-.827.697 0 .372.3.691.847.691.462 0 .794-.274.794-.697h.006ZM608.705 332.877c0-1.166.625-1.831 1.465-1.831.84 0 1.458.665 1.458 1.831s-.625 1.831-1.458 1.831-1.465-.665-1.465-1.831Zm2.409 0c0-.919-.391-1.375-.944-1.375-.554 0-.951.463-.951 1.375 0 .912.391 1.375.951 1.375.56 0 .944-.463.944-1.375ZM612.057 332.03c0-.586.338-.977.833-.977.495 0 .827.391.827.977 0 .587-.332.978-.827.978-.495 0-.833-.398-.833-.978Zm1.334 0c0-.43-.189-.684-.501-.684-.313 0-.501.261-.501.684 0 .424.195.684.501.684s.501-.254.501-.684Zm1.66-.945h.397l-2.447 3.584h-.391l2.448-3.584h-.007Zm-.722 2.639c0-.586.332-.977.826-.977.495 0 .834.391.834.977 0 .587-.339.978-.834.978-.494 0-.826-.398-.826-.978Zm1.328 0c0-.423-.196-.684-.502-.684s-.501.254-.501.684c0 .43.189.685.501.685.313 0 .502-.261.502-.685ZM594.839 389.463c0 .092-22.537.17-50.334.17-27.797 0-50.341-.078-50.341-.17 0-.091 22.537-.169 50.341-.169 27.804 0 50.334.078 50.334.169ZM594.839 395.439c0 .091-22.537.169-50.334.169-27.797 0-50.341-.078-50.341-.169 0-.091 22.537-.169 50.341-.169 27.804 0 50.334.078 50.334.169ZM594.839 400.84c0 .092-22.537.17-50.334.17-27.797 0-50.341-.078-50.341-.17 0-.091 22.537-.169 50.341-.169 27.804 0 50.334.078 50.334.169Z" fill="#046097"/>
    <path d="M368.288 462.048a1.807 1.807 0 0 1-1.809-1.812v-33.982c0-1.004.807-1.812 1.809-1.812 1.003 0 1.81.808 1.81 1.812v33.982a1.807 1.807 0 0 1-1.81 1.812Z" fill="#154D72"/>
    <path d="M368.288 462.205a1.807 1.807 0 0 1-1.809-1.812v-21.908a1.81 1.81 0 1 1 3.619 0v21.908a1.807 1.807 0 0 1-1.81 1.812ZM367.149 463.625v3.024h-.312v-2.744h-.71v-.273h1.022v-.007ZM367.865 465.136c0-.964.501-1.537 1.205-1.537.703 0 1.204.573 1.204 1.537 0 .965-.508 1.538-1.204 1.538-.697 0-1.205-.573-1.205-1.538Zm2.09 0c0-.808-.365-1.251-.885-1.251-.521 0-.886.443-.886 1.251 0 .809.365 1.252.886 1.252.52 0 .885-.443.885-1.252Z" fill="#046097"/>
    <path d="M375.521 462.048a1.807 1.807 0 0 1-1.81-1.812v-33.982a1.81 1.81 0 1 1 3.619 0v33.982a1.807 1.807 0 0 1-1.809 1.812Z" fill="#154D72"/>
    <path d="M375.521 462.204a1.807 1.807 0 0 1-1.81-1.812v-28.808a1.81 1.81 0 1 1 3.619 0v28.808a1.807 1.807 0 0 1-1.809 1.812ZM375.092 466.368v.273h-2.116v-.221l1.256-1.232c.339-.339.404-.541.404-.749 0-.352-.247-.567-.71-.567-.351 0-.625.111-.82.339l-.221-.189c.234-.274.605-.43 1.067-.43.612 0 1.003.313 1.003.814 0 .287-.091.548-.495.945l-1.028 1.01h1.66v.007ZM375.457 465.136c0-.964.501-1.537 1.204-1.537s1.205.573 1.205 1.537c0 .965-.508 1.538-1.205 1.538-.696 0-1.204-.573-1.204-1.538Zm2.09 0c0-.808-.365-1.251-.886-1.251-.52 0-.885.443-.885 1.251 0 .809.365 1.252.885 1.252.521 0 .886-.443.886-1.252Z" fill="#046097"/>
    <path d="M382.753 462.048c-.996 0-1.81-.808-1.81-1.812v-33.982c0-1.004.808-1.812 1.81-1.812 1.003 0 1.81.808 1.81 1.812v33.982a1.807 1.807 0 0 1-1.81 1.812Z" fill="#154D72"/>
    <path d="M382.753 462.205c-.996 0-1.81-.808-1.81-1.812v-16.734c0-1.003.808-1.811 1.81-1.811 1.003 0 1.81.808 1.81 1.811v16.734a1.807 1.807 0 0 1-1.81 1.812ZM382.284 465.781c0 .502-.364.893-1.093.893-.436 0-.853-.15-1.087-.391l.149-.248c.196.202.541.352.938.352.501 0 .774-.234.774-.606 0-.371-.254-.599-.813-.599h-.215v-.228l.833-1.049h-1.543v-.274h1.94v.221l-.853 1.076c.645.032.97.378.97.86v-.007ZM382.715 465.136c0-.964.501-1.537 1.204-1.537s1.205.573 1.205 1.537c0 .965-.508 1.538-1.205 1.538-.696 0-1.204-.573-1.204-1.538Zm2.09 0c0-.808-.365-1.251-.886-1.251s-.885.443-.885 1.251c0 .809.364 1.252.885 1.252s.886-.443.886-1.252Z" fill="#046097"/>
    <path d="M389.986 462.048a1.807 1.807 0 0 1-1.81-1.812v-33.982a1.81 1.81 0 1 1 3.619 0v33.982a1.807 1.807 0 0 1-1.809 1.812Z" fill="#154D72"/>
    <path d="M389.986 462.204a1.807 1.807 0 0 1-1.81-1.812v-28.808a1.81 1.81 0 1 1 3.619 0v28.808a1.807 1.807 0 0 1-1.809 1.812ZM389.998 465.853h-.605v.795h-.312v-.795h-1.706v-.222l1.601-2h.345l-1.542 1.948h1.308v-.697h.3v.697h.605v.274h.006ZM390.285 465.136c0-.964.501-1.537 1.204-1.537.704 0 1.205.573 1.205 1.537 0 .965-.508 1.538-1.205 1.538-.696 0-1.204-.573-1.204-1.538Zm2.09 0c0-.808-.365-1.251-.886-1.251-.52 0-.885.443-.885 1.251 0 .809.365 1.252.885 1.252.521 0 .886-.443.886-1.252Z" fill="#046097"/>
    <path d="M397.218 462.048c-.996 0-1.81-.808-1.81-1.812v-33.982c0-1.004.807-1.812 1.81-1.812 1.002 0 1.81.808 1.81 1.812v33.982a1.807 1.807 0 0 1-1.81 1.812Z" fill="#154D72"/>
    <path d="M397.218 462.204c-.996 0-1.81-.808-1.81-1.811v-23.289a1.811 1.811 0 1 1 3.62 0v23.289a1.807 1.807 0 0 1-1.81 1.811ZM397.061 465.756c0 .514-.358.912-1.094.912-.436 0-.846-.15-1.08-.391l.149-.248c.196.202.541.352.925.352.514 0 .781-.248.781-.619 0-.391-.241-.632-1.009-.632h-.644l.156-1.512h1.653v.274h-1.38l-.104.964h.391c.911 0 1.256.359 1.256.893v.007ZM397.451 465.136c0-.964.501-1.537 1.205-1.537.703 0 1.204.573 1.204 1.537 0 .965-.508 1.538-1.204 1.538-.697 0-1.205-.573-1.205-1.538Zm2.09 0c0-.808-.365-1.251-.885-1.251-.521 0-.886.443-.886 1.251 0 .809.365 1.252.886 1.252.52 0 .885-.443.885-1.252Z" fill="#046097"/>
    <path d="M404.45 462.048a1.807 1.807 0 0 1-1.809-1.812v-33.982c0-1.004.807-1.812 1.809-1.812 1.003 0 1.81.808 1.81 1.812v33.982a1.807 1.807 0 0 1-1.81 1.812Z" fill="#154D72"/>
    <path d="M404.45 462.048c-1.002 0-1.809-.808-1.809-1.649v-16.734c0-1.16.807-1.968 1.809-1.968 1.003 0 1.81.808 1.81 1.812v16.734a1.807 1.807 0 0 1-1.81 1.811v-.006ZM404.217 465.742c0 .567-.443.925-1.029.925-.801 0-1.237-.553-1.237-1.511 0-1.03.56-1.564 1.38-1.564.274 0 .528.045.716.163l-.123.247c-.157-.104-.365-.143-.586-.143-.651 0-1.068.417-1.068 1.238 0 .072 0 .156.013.248.15-.333.501-.515.925-.515.598 0 1.015.352 1.015.906l-.006.006Zm-.306.007c0-.398-.293-.652-.762-.652-.469 0-.775.287-.775.658 0 .333.274.645.801.645.436 0 .736-.254.736-.658v.007ZM404.574 465.136c0-.964.501-1.537 1.205-1.537.703 0 1.204.573 1.204 1.537 0 .965-.508 1.538-1.204 1.538-.697 0-1.205-.573-1.205-1.538Zm2.09 0c0-.808-.365-1.251-.885-1.251-.521 0-.886.443-.886 1.251 0 .809.365 1.252.886 1.252.52 0 .885-.443.885-1.252Z" fill="#046097"/>
    <path d="M411.691 462.048a1.807 1.807 0 0 1-1.81-1.812v-33.982a1.81 1.81 0 1 1 3.619 0v33.982a1.807 1.807 0 0 1-1.809 1.812Z" fill="#154D72"/>
    <path d="M411.691 462.205a1.807 1.807 0 0 1-1.81-1.812v-30.529a1.81 1.81 0 1 1 3.619 0v30.529a1.807 1.807 0 0 1-1.809 1.812ZM411.299 463.625v.222l-1.263 2.802h-.338l1.243-2.744h-1.549v.567h-.306v-.84h2.213v-.007ZM411.625 465.136c0-.964.501-1.537 1.204-1.537s1.205.573 1.205 1.537c0 .965-.508 1.538-1.205 1.538-.696 0-1.204-.573-1.204-1.538Zm2.09 0c0-.808-.365-1.251-.886-1.251-.52 0-.885.443-.885 1.251 0 .809.365 1.252.885 1.252.521 0 .886-.443.886-1.252Z" fill="#046097"/>
    <path d="M418.923 462.048a1.807 1.807 0 0 1-1.81-1.812v-33.982a1.811 1.811 0 1 1 3.62 0v33.982a1.807 1.807 0 0 1-1.81 1.812Z" fill="#154D72"/>
    <path d="M418.923 462.204a1.807 1.807 0 0 1-1.81-1.812v-13.28a1.811 1.811 0 0 1 3.62 0v13.28a1.807 1.807 0 0 1-1.81 1.812ZM418.558 465.808c0 .534-.456.866-1.172.866s-1.165-.332-1.165-.866c0-.365.208-.619.579-.743-.306-.124-.475-.352-.475-.665 0-.489.416-.801 1.054-.801.638 0 1.068.306 1.068.801 0 .313-.176.541-.482.665.378.124.593.384.593.743Zm-.319 0c0-.372-.319-.606-.853-.606s-.846.234-.846.606c0 .371.312.606.846.606s.853-.235.853-.606Zm-.853-.847c.469 0 .749-.209.749-.541 0-.333-.3-.548-.749-.548s-.749.209-.749.541c0 .332.274.541.749.541v.007ZM418.988 465.136c0-.964.502-1.537 1.205-1.537.703 0 1.204.573 1.204 1.537 0 .965-.508 1.538-1.204 1.538-.697 0-1.205-.573-1.205-1.538Zm2.09 0c0-.808-.365-1.251-.885-1.251-.521 0-.886.443-.886 1.251 0 .809.365 1.252.886 1.252.52 0 .885-.443.885-1.252Z" fill="#046097"/>
    <path d="M426.155 462.048a1.807 1.807 0 0 1-1.809-1.812v-33.982c0-1.004.807-1.812 1.809-1.812 1.003 0 1.81.808 1.81 1.812v33.982a1.807 1.807 0 0 1-1.81 1.812Z" fill="#154D72"/>
    <path d="M426.155 462.048c-1.002 0-1.809-.808-1.809-1.648v-4.66c0-1.16.807-1.968 1.809-1.968 1.003 0 1.81.808 1.81 1.812v4.659a1.807 1.807 0 0 1-1.81 1.812v-.007ZM425.608 465.11c0 1.029-.56 1.564-1.38 1.564-.274 0-.528-.046-.716-.163l.123-.248c.157.104.365.143.586.143.651 0 1.068-.417 1.068-1.238 0-.071 0-.156-.013-.247-.15.332-.501.515-.925.515-.598 0-1.015-.352-1.015-.906s.443-.926 1.029-.926c.8 0 1.236.554 1.236 1.512l.007-.006Zm-.43-.6c0-.332-.273-.645-.8-.645-.437 0-.736.254-.736.658s.293.652.762.652c.468 0 .774-.287.774-.658v-.007ZM426.057 465.136c0-.964.501-1.537 1.204-1.537s1.204.573 1.204 1.537c0 .965-.507 1.538-1.204 1.538s-1.204-.573-1.204-1.538Zm2.089 0c0-.808-.364-1.251-.885-1.251s-.885.443-.885 1.251c0 .809.364 1.252.885 1.252s.885-.443.885-1.252Z" fill="#046097"/>
    <path d="M433.386 462.048c-.996 0-1.81-.808-1.81-1.812v-33.982c0-1.004.807-1.812 1.81-1.812 1.002 0 1.81.808 1.81 1.812v33.982a1.807 1.807 0 0 1-1.81 1.812Z" fill="#154D72"/>
    <path d="M433.386 462.048c-.996 0-1.81-.808-1.81-1.649v-16.734c0-1.16.807-1.968 1.81-1.968 1.002 0 1.81.808 1.81 1.812v16.734a1.807 1.807 0 0 1-1.81 1.811v-.006ZM430.795 463.625v3.024h-.312v-2.744h-.71v-.273h1.022v-.007ZM431.512 465.136c0-.964.501-1.537 1.204-1.537s1.204.573 1.204 1.537c0 .965-.507 1.538-1.204 1.538s-1.204-.573-1.204-1.538Zm2.089 0c0-.808-.364-1.251-.885-1.251s-.885.443-.885 1.251c0 .809.364 1.252.885 1.252s.885-.443.885-1.252ZM434.363 465.136c0-.964.502-1.537 1.205-1.537.703 0 1.204.573 1.204 1.537 0 .965-.508 1.538-1.204 1.538-.697 0-1.205-.573-1.205-1.538Zm2.09 0c0-.808-.365-1.251-.885-1.251-.521 0-.886.443-.886 1.251 0 .809.365 1.252.886 1.252.52 0 .885-.443.885-1.252ZM448.372 469.151c-.091 0-.169-11.182-.169-24.977s.078-24.977.169-24.977c.092 0 .17 11.182.17 24.977s-.078 24.977-.17 24.977ZM490.473 422.456c0 .091-6.888.169-15.383.169-8.496 0-15.383-.078-15.383-.169 0-.092 6.887-.17 15.383-.17 8.495 0 15.383.078 15.383.17Z" fill="#046097"/>
    <path d="m457.167 465.952 6.881-9.82a2.466 2.466 0 0 1 3.503-.554l3.619 2.737a2.465 2.465 0 0 0 3.62-.737l10.441-18.102c.873-1.512 2.995-1.662 4.069-.293l6.517 8.276a2.464 2.464 0 0 0 4.016-.202l4.765-7.494c.996-1.564 3.288-1.512 4.212.091l3.932 6.823c.925 1.603 3.216 1.655 4.212.091l13.45-21.1c.957-1.499 3.137-1.525 4.127-.046l22.218 33.273a2.463 2.463 0 0 0 3.873.286l13.502-14.876a2.47 2.47 0 0 1 3.574-.085l10.735 10.784a2.46 2.46 0 0 0 3.88-.508l19.21-33.305c1.263-2.189 4.603-1.29 4.603 1.232v43.529H457.154h.013Z" fill="#046097" opacity=".5"/>
    <path d="M333.975 470.155c-15.344 0-28.572-11.619-30.238-27.225-1.784-16.702 10.337-31.741 27.029-33.527 8.085-.86 16.021 1.473 22.342 6.582 6.327 5.109 10.285 12.381 11.151 20.467 1.784 16.702-10.338 31.741-27.029 33.527a30.621 30.621 0 0 1-3.255.176Zm.072-56.366c-.931 0-1.862.052-2.8.15-14.185 1.518-24.496 14.303-22.979 28.508 1.516 14.199 14.295 24.528 28.48 23.003 14.185-1.518 24.497-14.31 22.98-28.509-.735-6.881-4.101-13.058-9.478-17.405-4.648-3.753-10.312-5.747-16.197-5.747h-.006Z" fill="#134063"/>
    <path d="M379.088 498.311a2.288 2.288 0 0 1-1.738-.801l-28.781-33.807a2.277 2.277 0 1 1 3.464-2.958l28.78 33.807a2.28 2.28 0 0 1-1.732 3.759h.007Z" fill="#134063"/>
  </g>
  <defs>
    <clipPath id="a">
      <path fill="#fff" d="M277 255h418v261H277z"/>
    </clipPath>
  </defs>
</svg>
