<svg width="972" height="516" viewBox="0 0 972 516" fill="none" xmlns="http://www.w3.org/2000/svg">
<path d="M10.999 0V516" stroke="#0F4465" stroke-miterlimit="10"/>
<path d="M48.999 0V516" stroke="#0F4465" stroke-miterlimit="10"/>
<path d="M86.999 0V516" stroke="#0F4465" stroke-miterlimit="10"/>
<path d="M124.999 0V516" stroke="#0F4465" stroke-miterlimit="10"/>
<path d="M162.999 0V516" stroke="#0F4465" stroke-miterlimit="10"/>
<path d="M200.999 0V516" stroke="#0F4465" stroke-miterlimit="10"/>
<path d="M238.999 0V516" stroke="#0F4465" stroke-miterlimit="10"/>
<path d="M276.999 0V516" stroke="#0F4465" stroke-miterlimit="10"/>
<path d="M314.999 0V516" stroke="#0F4465" stroke-miterlimit="10"/>
<path d="M352.999 0V516" stroke="#0F4465" stroke-miterlimit="10"/>
<path d="M390.999 0V516" stroke="#0F4465" stroke-miterlimit="10"/>
<path d="M428.999 0V516" stroke="#0F4465" stroke-miterlimit="10"/>
<path d="M466.999 0V516" stroke="#0F4465" stroke-miterlimit="10"/>
<path d="M504.999 0V516" stroke="#0F4465" stroke-miterlimit="10"/>
<path d="M542.999 0V516" stroke="#0F4465" stroke-miterlimit="10"/>
<path d="M580.999 0V516" stroke="#0F4465" stroke-miterlimit="10"/>
<path d="M618.999 0V516" stroke="#0F4465" stroke-miterlimit="10"/>
<path d="M656.999 0V516" stroke="#0F4465" stroke-miterlimit="10"/>
<path d="M694.999 0V516" stroke="#0F4465" stroke-miterlimit="10"/>
<path d="M732.999 0V516" stroke="#0F4465" stroke-miterlimit="10"/>
<path d="M770.999 0V516" stroke="#0F4465" stroke-miterlimit="10"/>
<path d="M808.999 0V516" stroke="#0F4465" stroke-miterlimit="10"/>
<path d="M846.999 0V516" stroke="#0F4465" stroke-miterlimit="10"/>
<path d="M884.999 0V516" stroke="#0F4465" stroke-miterlimit="10"/>
<path d="M922.999 0V516" stroke="#0F4465" stroke-miterlimit="10"/>
<path d="M960.999 0V516" stroke="#0F4465" stroke-miterlimit="10"/>
<path d="M0 505L972 505" stroke="#0F4465" stroke-miterlimit="10"/>
<path d="M0 467L972 467" stroke="#0F4465" stroke-miterlimit="10"/>
<path d="M0 429L972 429" stroke="#0F4465" stroke-miterlimit="10"/>
<path d="M0 391L972 391" stroke="#0F4465" stroke-miterlimit="10"/>
<path d="M0 353L972 353" stroke="#0F4465" stroke-miterlimit="10"/>
<path d="M0 315L972 315" stroke="#0F4465" stroke-miterlimit="10"/>
<path d="M0 277L972 277" stroke="#0F4465" stroke-miterlimit="10"/>
<path d="M0 239L972 239" stroke="#0F4465" stroke-miterlimit="10"/>
<path d="M0 201L972 201" stroke="#0F4465" stroke-miterlimit="10"/>
<path d="M0 163L972 163" stroke="#0F4465" stroke-miterlimit="10"/>
<path d="M0 125L972 125" stroke="#0F4465" stroke-miterlimit="10"/>
<path d="M0 87L972 87" stroke="#0F4465" stroke-miterlimit="10"/>
<path d="M0 49L972 49" stroke="#0F4465" stroke-miterlimit="10"/>
<path d="M0 11L972 11" stroke="#0F4465" stroke-miterlimit="10"/>
<path d="M382.46 320.539L479.054 368.238" stroke="#0E486A" stroke-width="4.22114" stroke-miterlimit="10"/>
<path d="M145.02 303.092C150.149 303.092 154.307 298.934 154.307 293.805C154.307 288.677 150.149 284.519 145.02 284.519C139.892 284.519 135.734 288.677 135.734 293.805C135.734 298.934 139.892 303.092 145.02 303.092Z" stroke="#0E486A" stroke-width="4.22114" stroke-miterlimit="10"/>
<path d="M487.426 381.605C492.554 381.605 496.712 377.447 496.712 372.319C496.712 367.19 492.554 363.032 487.426 363.032C482.297 363.032 478.139 367.19 478.139 372.319C478.139 377.447 482.297 381.605 487.426 381.605Z" stroke="#0E486A" stroke-width="4.22114" stroke-miterlimit="10"/>
<path d="M373.173 326.871C378.302 326.871 382.46 322.713 382.46 317.584C382.46 312.456 378.302 308.298 373.173 308.298C368.045 308.298 363.887 312.456 363.887 317.584C363.887 322.713 368.045 326.871 373.173 326.871Z" stroke="#0E486A" stroke-width="4.22114" stroke-miterlimit="10"/>
<path d="M260.469 355.927C265.598 355.927 269.755 351.769 269.755 346.64C269.755 341.511 265.598 337.354 260.469 337.354C255.34 337.354 251.182 341.511 251.182 346.64C251.182 351.769 255.34 355.927 260.469 355.927Z" stroke="#0E486A" stroke-width="4.22114" stroke-miterlimit="10"/>
<path d="M601.889 303.092C607.018 303.092 611.176 298.934 611.176 293.805C611.176 288.677 607.018 284.519 601.889 284.519C596.76 284.519 592.603 288.677 592.603 293.805C592.603 298.934 596.76 303.092 601.889 303.092Z" stroke="#0E486A" stroke-width="4.22114" stroke-miterlimit="10"/>
<path d="M716.352 416.711C721.481 416.711 725.639 412.553 725.639 407.424C725.639 402.296 721.481 398.138 716.352 398.138C711.224 398.138 707.066 402.296 707.066 407.424C707.066 412.553 711.224 416.711 716.352 416.711Z" stroke="#0E486A" stroke-width="4.22114" stroke-miterlimit="10"/>
<path d="M109 208.397H181.041V268.76H109V208.397ZM109 217.965H181.041Z" fill="#103654"/>
<path d="M109 217.965H181.041M109 208.397H181.041V268.76H109V208.397Z" stroke="#0E486A" stroke-width="1.40705" stroke-miterlimit="10"/>
<path d="M124.759 227.955V259.966H167.252" stroke="#1F9AC4" stroke-width="1.40705" stroke-miterlimit="10"/>
<path d="M132.709 249.131C133.797 249.131 134.679 248.249 134.679 247.162C134.679 246.074 133.797 245.192 132.709 245.192C131.621 245.192 130.739 246.074 130.739 247.162C130.739 248.249 131.621 249.131 132.709 249.131Z" fill="#1F9AC4"/>
<path d="M142.769 244.137C143.857 244.137 144.739 243.255 144.739 242.167C144.739 241.079 143.857 240.197 142.769 240.197C141.681 240.197 140.799 241.079 140.799 242.167C140.799 243.255 141.681 244.137 142.769 244.137Z" fill="#1F9AC4"/>
<path d="M153.744 244.137C154.832 244.137 155.714 243.255 155.714 242.167C155.714 241.079 154.832 240.197 153.744 240.197C152.656 240.197 151.774 241.079 151.774 242.167C151.774 243.255 152.656 244.137 153.744 244.137Z" fill="#1F9AC4"/>
<path d="M132.709 247.513L142.91 242.096H153.955L162.257 236.257" stroke="#1F9AC4" stroke-width="2.11057" stroke-miterlimit="10"/>
<path d="M160.287 234.92L163.875 234.78L163.242 238.227L160.287 234.92V234.92Z" fill="#1F9AC4"/>
<path d="M153.533 247.162V259.966M132.709 259.966V252.297V259.966ZM142.558 248.006V259.966V248.006Z" stroke="#1F9AC4" stroke-width="1.40705" stroke-miterlimit="10"/>
<path d="M169.644 214.589C170.46 214.589 171.121 213.927 171.121 213.111C171.121 212.295 170.46 211.634 169.644 211.634C168.828 211.634 168.166 212.295 168.166 213.111C168.166 213.927 168.828 214.589 169.644 214.589Z" fill="#1F9AC4"/>
<path d="M175.202 214.589C176.018 214.589 176.679 213.927 176.679 213.111C176.679 212.295 176.018 211.634 175.202 211.634C174.386 211.634 173.724 212.295 173.724 213.111C173.724 213.927 174.386 214.589 175.202 214.589Z" fill="#1F9AC4"/>
<path d="M448.169 397.856H520.21V458.219H448.169V397.856ZM448.169 407.354H520.21Z" fill="#103654"/>
<path d="M448.169 407.354H520.21M448.169 397.856H520.21V458.219H448.169V397.856Z" stroke="#0E486A" stroke-width="1.40705" stroke-miterlimit="10"/>
<path d="M508.743 404.047C509.558 404.047 510.22 403.386 510.22 402.57C510.22 401.754 509.558 401.093 508.743 401.093C507.927 401.093 507.265 401.754 507.265 402.57C507.265 403.386 507.927 404.047 508.743 404.047Z" fill="#1F9AC4"/>
<path d="M514.3 404.047C515.116 404.047 515.778 403.386 515.778 402.57C515.778 401.754 515.116 401.093 514.3 401.093C513.484 401.093 512.823 401.754 512.823 402.57C512.823 403.386 513.484 404.047 514.3 404.047Z" fill="#1F9AC4"/>
<path d="M569.738 209.312H641.779V269.674H569.738V209.312ZM569.738 218.81H641.849Z" fill="#103654"/>
<path d="M569.738 218.81H641.849M569.738 209.312H641.779V269.674H569.738V209.312Z" stroke="#0E486A" stroke-width="1.40705" stroke-miterlimit="10"/>
<path d="M630.382 215.503C631.198 215.503 631.859 214.841 631.859 214.026C631.859 213.21 631.198 212.548 630.382 212.548C629.566 212.548 628.904 213.21 628.904 214.026C628.904 214.841 629.566 215.503 630.382 215.503Z" fill="#1F9AC4"/>
<path d="M635.94 215.503C636.755 215.503 637.417 214.841 637.417 214.026C637.417 213.21 636.755 212.548 635.94 212.548C635.124 212.548 634.462 213.21 634.462 214.026C634.462 214.841 635.124 215.503 635.94 215.503Z" fill="#1F9AC4"/>
<path d="M680.191 435.214H752.232V495.576H680.191V435.214ZM680.191 444.782H752.302Z" fill="#103654"/>
<path d="M680.191 444.782H752.302M680.191 435.214H752.232V495.576H680.191V435.214Z" stroke="#0E486A" stroke-width="1.40705" stroke-miterlimit="10"/>
<path d="M740.835 441.405C741.651 441.405 742.313 440.743 742.313 439.927C742.313 439.111 741.651 438.45 740.835 438.45C740.019 438.45 739.358 439.111 739.358 439.927C739.358 440.743 740.019 441.405 740.835 441.405Z" fill="#1F9AC4"/>
<path d="M746.393 441.405C747.209 441.405 747.87 440.743 747.87 439.927C747.87 439.111 747.209 438.45 746.393 438.45C745.577 438.45 744.916 439.111 744.916 439.927C744.916 440.743 745.577 441.405 746.393 441.405Z" fill="#1F9AC4"/>
<path d="M791.559 169H863.6V229.362H791.559V169ZM791.559 178.498H863.6Z" fill="#103654"/>
<path d="M791.559 178.498H863.6M791.559 169H863.6V229.362H791.559V169Z" stroke="#0E486A" stroke-width="1.40705" stroke-miterlimit="10"/>
<path d="M852.203 175.191C853.019 175.191 853.68 174.53 853.68 173.714C853.68 172.898 853.019 172.236 852.203 172.236C851.387 172.236 850.726 172.898 850.726 173.714C850.726 174.53 851.387 175.191 852.203 175.191Z" fill="#1F9AC4"/>
<path d="M857.691 175.191C858.507 175.191 859.168 174.53 859.168 173.714C859.168 172.898 858.507 172.236 857.691 172.236C856.875 172.236 856.213 172.898 856.213 173.714C856.213 174.53 856.875 175.191 857.691 175.191Z" fill="#1F9AC4"/>
<path d="M691.166 467.083H695.88V487.767H691.166V467.083Z" fill="#0E486A"/>
<path d="M695.88 452.802H700.594V487.696H695.88V452.802ZM590 237.945H594.713V247.724H590V237.945Z" fill="#1F9AC4"/>
<path d="M599.356 247.654H604.07V254.549H599.356V247.654ZM608.854 247.654H613.568V254.549H608.854V247.654ZM618.844 247.654H623.558V254.549H618.844V247.654ZM590 247.654H594.713V254.549H590V247.654Z" fill="#0E486A"/>
<path d="M618.844 237.945H623.558V247.724H618.844V237.945ZM599.356 231.191H604.07V247.724H599.356V231.191ZM608.854 231.191H613.568V247.724H608.854V231.191Z" fill="#1F9AC4"/>
<path d="M712.342 470.038H717.056V487.767H712.342V470.038Z" fill="#0E486A"/>
<path d="M717.056 457.797H721.769V487.696H717.056V457.797Z" fill="#1F9AC4"/>
<path d="M733.096 464.34H737.81V487.697H733.096V464.34Z" fill="#0E486A"/>
<path d="M737.81 452.802H742.524V487.697H737.81V452.802Z" fill="#1F9AC4"/>
<path d="M495.305 367.323L594.221 299.152M154.026 298.941L251.956 342.841L154.026 298.941ZM722.614 400.6L825.047 261.936L722.614 400.6ZM609.065 299.785L710.795 401.022L609.065 299.785Z" stroke="#0E486A" stroke-width="4.22114" stroke-miterlimit="10"/>
<path d="M830.605 263.694C835.733 263.694 839.891 259.537 839.891 254.408C839.891 249.279 835.733 245.121 830.605 245.121C825.476 245.121 821.318 249.279 821.318 254.408C821.318 259.537 825.476 263.694 830.605 263.694Z" stroke="#0E486A" stroke-width="4.22114" stroke-miterlimit="10"/>
<path d="M505.999 423.324H509.094V438.59H505.999V423.324ZM501.074 427.264H504.17V438.59H501.074V427.264ZM496.22 430.852H499.315V438.59H496.22V430.852Z" fill="#1F9AC4"/>
<path d="M473.074 418.47C470.628 418.461 468.233 419.168 466.185 420.504C464.136 421.841 462.524 423.748 461.547 425.99C460.57 428.232 460.271 430.711 460.687 433.121C461.103 435.532 462.215 437.767 463.887 439.552C465.559 441.338 467.717 442.594 470.095 443.167C472.472 443.74 474.966 443.604 477.267 442.776C479.568 441.948 481.577 440.464 483.045 438.507C484.512 436.551 485.375 434.208 485.526 431.766C485.526 431.485 485.597 431.274 485.597 430.993C485.598 429.348 485.276 427.718 484.647 426.198C484.018 424.678 483.096 423.297 481.933 422.134C480.77 420.97 479.388 420.048 477.868 419.419C476.348 418.791 474.719 418.468 473.074 418.47V418.47ZM473.074 434.581C472.35 434.581 471.643 434.366 471.041 433.964C470.44 433.562 469.971 432.991 469.694 432.322C469.417 431.654 469.345 430.918 469.486 430.208C469.627 429.499 469.975 428.847 470.487 428.335C470.999 427.824 471.65 427.475 472.36 427.334C473.07 427.193 473.805 427.265 474.474 427.542C475.142 427.819 475.714 428.288 476.116 428.89C476.518 429.491 476.732 430.199 476.732 430.922C476.744 431.182 476.72 431.442 476.662 431.696C476.489 432.518 476.038 433.254 475.383 433.78C474.729 434.306 473.913 434.589 473.074 434.581V434.581Z" fill="#0E486A"/>
<path d="M581.417 247.654H630.171M581.417 226.548V262.498V226.548Z" stroke="#1F9AC4" stroke-width="1.40705" stroke-miterlimit="10"/>
<path d="M337.645 234.639H409.686V295.001H337.645V234.639ZM337.645 244.136H409.757Z" fill="#103654"/>
<path d="M337.645 244.136H409.757M337.645 234.639H409.686V295.001H337.645V234.639Z" stroke="#0E486A" stroke-width="1.40705" stroke-miterlimit="10"/>
<path d="M398.289 240.83C399.105 240.83 399.767 240.168 399.767 239.352C399.767 238.536 399.105 237.875 398.289 237.875C397.473 237.875 396.812 238.536 396.812 239.352C396.812 240.168 397.473 240.83 398.289 240.83Z" fill="#1F9AC4"/>
<path d="M403.847 240.83C404.663 240.83 405.324 240.168 405.324 239.352C405.324 238.536 404.663 237.875 403.847 237.875C403.031 237.875 402.37 238.536 402.37 239.352C402.37 240.168 403.031 240.83 403.847 240.83Z" fill="#1F9AC4"/>
<path d="M223.815 373.866H295.856V434.229H223.815V373.866ZM223.815 383.434H295.856Z" fill="#103654"/>
<path d="M223.815 383.434H295.856M223.815 373.866H295.856V434.229H223.815V373.866Z" stroke="#0E486A" stroke-width="1.40705" stroke-miterlimit="10"/>
<path d="M284.459 380.057C285.275 380.057 285.936 379.396 285.936 378.58C285.936 377.764 285.275 377.103 284.459 377.103C283.643 377.103 282.982 377.764 282.982 378.58C282.982 379.396 283.643 380.057 284.459 380.057Z" fill="#1F9AC4"/>
<path d="M289.946 380.057C290.762 380.057 291.424 379.396 291.424 378.58C291.424 377.764 290.762 377.103 289.946 377.103C289.13 377.103 288.469 377.764 288.469 378.58C288.469 379.396 289.13 380.057 289.946 380.057Z" fill="#1F9AC4"/>
<path d="M804.715 187.01V218.81H850.444" stroke="#1F9AC4" stroke-width="1.40705" stroke-miterlimit="10"/>
<path d="M804.715 207.201L824.625 197.352L830.323 206.005L850.655 195.031" stroke="#1F9AC4" stroke-width="1.40705" stroke-miterlimit="10"/>
<path d="M804.715 209.312L820.474 207.201L836.162 197.352L850.655 201.081" stroke="#1F9AC4" stroke-width="0.703524" stroke-miterlimit="10"/>
<path d="M269.474 344.248L363.816 319.414" stroke="#0E486A" stroke-width="4.22114" stroke-miterlimit="10"/>
<path d="M836.092 241.041C838.749 242.106 841.03 243.936 842.647 246.299C844.263 248.662 845.142 251.451 845.172 254.314C845.202 257.176 844.382 259.983 842.816 262.38C841.25 264.776 839.008 266.653 836.374 267.775M139.814 307.313C137.146 306.262 134.851 304.441 133.222 302.082C131.592 299.722 130.702 296.931 130.664 294.064C130.627 291.197 131.443 288.383 133.01 285.982C134.577 283.58 136.823 281.699 139.463 280.579L139.814 307.313ZM150.367 280.438C153.024 281.504 155.305 283.334 156.922 285.696C158.538 288.059 159.417 290.848 159.447 293.711C159.477 296.574 158.657 299.381 157.091 301.777C155.525 304.173 153.283 306.051 150.649 307.172L150.367 280.438ZM255.192 360.077C252.524 359.026 250.229 357.205 248.6 354.846C246.97 352.486 246.08 349.695 246.042 346.828C246.005 343.961 246.821 341.147 248.388 338.746C249.955 336.344 252.201 334.464 254.841 333.343L255.192 360.077ZM265.816 333.202C268.473 334.268 270.754 336.098 272.37 338.461C273.986 340.823 274.865 343.613 274.895 346.475C274.925 349.338 274.105 352.145 272.539 354.541C270.973 356.937 268.731 358.815 266.097 359.936L265.816 333.202ZM367.897 331.022C365.229 329.971 362.934 328.15 361.304 325.79C359.675 323.431 358.785 320.64 358.747 317.773C358.709 314.905 359.526 312.092 361.093 309.69C362.659 307.289 364.906 305.408 367.545 304.288L367.897 331.022ZM378.52 304.147C381.177 305.212 383.458 307.042 385.075 309.405C386.691 311.768 387.57 314.557 387.6 317.42C387.63 320.282 386.81 323.089 385.244 325.486C383.678 327.882 381.435 329.76 378.802 330.881L378.52 304.147ZM482.571 385.756C479.903 384.705 477.608 382.884 475.979 380.525C474.349 378.165 473.459 375.374 473.421 372.507C473.384 369.64 474.2 366.826 475.767 364.425C477.334 362.023 479.58 360.142 482.22 359.022L482.571 385.756ZM493.195 358.881C495.852 359.947 498.133 361.777 499.749 364.139C501.365 366.502 502.244 369.291 502.274 372.154C502.304 375.016 501.484 377.824 499.918 380.22C498.352 382.616 496.11 384.494 493.476 385.615L493.195 358.881ZM596.964 307.242C594.296 306.192 592.001 304.371 590.372 302.011C588.742 299.652 587.852 296.861 587.814 293.993C587.777 291.126 588.593 288.313 590.16 285.911C591.727 283.51 593.973 281.629 596.613 280.508L596.964 307.242ZM607.517 280.438C610.174 281.504 612.455 283.334 614.072 285.696C615.688 288.059 616.567 290.848 616.597 293.711C616.627 296.574 615.807 299.381 614.241 301.777C612.675 304.173 610.433 306.051 607.799 307.172L607.517 280.438ZM711.217 420.862C708.549 419.811 706.254 417.99 704.624 415.63C702.995 413.271 702.104 410.48 702.067 407.613C702.029 404.745 702.845 401.932 704.412 399.53C705.979 397.129 708.225 395.248 710.865 394.128L711.217 420.862ZM721.84 394.057C724.497 395.123 726.778 396.953 728.394 399.316C730.011 401.678 730.889 404.468 730.92 407.33C730.95 410.193 730.13 413 728.564 415.396C726.997 417.792 724.755 419.67 722.121 420.791L721.84 394.057ZM825.469 267.845C822.801 266.794 820.506 264.973 818.877 262.614C817.247 260.254 816.357 257.463 816.319 254.596C816.281 251.729 817.098 248.915 818.665 246.514C820.232 244.112 822.478 242.232 825.117 241.111L825.469 267.845Z" stroke="#1F9AC4" stroke-width="1.40705" stroke-miterlimit="10"/>
<path d="M393.224 269.604C388.58 269.604 387.033 263.905 381.756 263.905C373.736 263.905 375.917 277.132 364.731 277.132C353.545 277.132 355.445 259.403 349.324 259.403" stroke="#0E486A" stroke-width="0.703524" stroke-miterlimit="10"/>
<path d="M233.735 391.876H257.303V394.339H233.735V391.876ZM233.735 397.856H250.76V400.319H233.735V397.856ZM233.735 404.047H257.303V406.51H233.735V404.047ZM233.735 416.148H250.76V418.61H233.735V416.148ZM233.735 422.339H257.303V424.801H233.735V422.339ZM233.735 409.957H257.303V412.419H233.735V409.957ZM262.368 391.876H285.936V394.339H262.368V391.876ZM262.368 397.856H285.936V400.319H262.368V397.856ZM262.368 404.047H280.379V406.51H262.368V404.047ZM262.368 416.148H285.936V418.61H262.368V416.148ZM262.368 422.339H280.379V424.801H262.368V422.339ZM262.368 409.957H285.936V412.419H262.368V409.957Z" fill="#0E486A"/>
<path d="M240.559 397.856H244.921V400.319H240.559V397.856ZM246.328 404.047H250.69V406.51H246.328V404.047ZM269.192 404.047H273.554V406.51H269.192V404.047ZM269.192 422.339H273.554V424.801H269.192V422.339ZM274.539 409.957H278.901V412.419H274.539V409.957ZM239.082 404.047H241.614V406.51H239.082V404.047ZM239.082 416.148H243.514V418.61H239.082V416.148ZM239.082 409.957H241.614V412.419H239.082V409.957ZM246.328 409.957H248.861V412.419H246.328V409.957ZM267.926 397.856H270.459V400.319H267.926V397.856ZM267.926 409.957H270.459V412.419H267.926V409.957ZM272.921 391.876H275.454V394.339H272.921V391.876ZM246.328 391.876H248.861V394.339H246.328V391.876Z" fill="#1F9AC4"/>
<path d="M590 235.131H594.713V236.749H590V235.131ZM618.844 235.131H623.558V236.749H618.844V235.131ZM599.356 228.448H604.07V230.066H599.356V228.448ZM608.854 228.448H613.568V230.066H608.854V228.448Z" fill="#0E486A"/>
<path d="M349.324 272.981H398.008M349.324 251.875V287.825V251.875Z" stroke="#1F9AC4" stroke-width="1.40705" stroke-miterlimit="10"/>
<path d="M349.324 268.971C353.967 268.971 355.515 259.473 360.791 259.473C368.811 259.473 366.631 281.634 377.817 281.634C389.003 281.634 387.103 251.946 393.224 251.946" stroke="#1F9AC4" stroke-width="0.703524" stroke-miterlimit="10"/>
</svg>
