<svg width="972" height="515" fill="none" xmlns="http://www.w3.org/2000/svg"><path d="M11 0v516M49 0v516M87 0v516M124.999 0v516M162.999 0v516M200.999 0v516M238.999 0v516M276.999 0v516M314.999 0v516M352.999 0v516M390.999 0v516M428.999 0v516M466.999 0v516M504.999 0v516M542.999 0v516M580.999 0v516M618.999 0v516M656.999 0v516M694.999 0v516M732.999 0v516M770.999 0v516M808.999 0v516M846.999 0v516M884.999 0v516M922.999 0v516M960.999 0v516M0 505h972M0 467h972M0 429h972M0 391h972M0 353h972M0 315h972M0 277h972M0 239h972M0 201h972M0 163h972M0 125h972M0 87h972M0 49h972M0 11h972" stroke="#0F4465" stroke-miterlimit="10"/><path d="m523.768 275.204 40.73-6.226a41.188 41.188 0 0 1-4 24.881 41.194 41.194 0 1 1-32.202-59.61l-4.528 40.955Z" fill="#046097"/><path d="m536.983 234.378-4.944 31.579 30.993-5.823s-4.555-17.696-26.049-25.756ZM266.813 266.169a22.189 22.189 0 0 1 13.444-20.648 22.193 22.193 0 0 1 24.227 4.489 22.19 22.19 0 0 1 5.155 24.093 22.19 22.19 0 0 1-20.269 14.009 22.284 22.284 0 0 1-22.557-21.943Zm32.813-.532a10.615 10.615 0 0 0-12.882-10.153 10.616 10.616 0 0 0-7.471 14.602 10.61 10.61 0 0 0 9.906 6.386 10.65 10.65 0 0 0 10.447-10.835Z" fill="#154D72"/><path d="M266.813 266.169a22.282 22.282 0 0 1 21.821-22.66l.184 11.64a10.662 10.662 0 0 0-10.284 10.829 10.663 10.663 0 0 0 10.625 10.494l.191 11.64a22.274 22.274 0 0 1-22.537-21.943Z" fill="#154D72"/><path d="M286.663 241.722a25.379 25.379 0 0 1 18.292 7.177 25.363 25.363 0 0 1 7.675 18.088l-13.55.218c-.109-6.873-5.346-11.203-12.192-11.094l-.225-14.389Z" fill="#046097"/><path d="M628.249 479.087a22.197 22.197 0 1 1 42.826 7.93 22.19 22.19 0 0 1-8.016 10.075 22.188 22.188 0 0 1-12.259 3.931 22.284 22.284 0 0 1-22.551-21.936Zm32.807-.532a10.61 10.61 0 1 0-10.44 10.835 10.642 10.642 0 0 0 10.44-10.835Z" fill="#154D72"/><path d="M628.249 479.087a22.287 22.287 0 0 1 21.821-22.66l.184 11.64a10.664 10.664 0 0 0 .341 21.323l.184 11.633a22.266 22.266 0 0 1-22.53-21.936Z" fill="#046097"/><path d="M648.099 454.64a25.365 25.365 0 0 1 23.953 15.447 25.346 25.346 0 0 1 2.014 9.818l-13.549.218c-.109-6.88-5.346-11.21-12.193-11.101l-.225-14.382Z" fill="#FF9B05"/><path d="M613.333 260.327h84.371a3.5 3.5 0 0 1 3.5 3.5v97.416a3.5 3.5 0 0 1-3.5 3.5h-84.371a3.5 3.5 0 0 1-3.5-3.5v-97.416a3.5 3.5 0 0 1 3.5-3.5Z" fill="#103654" stroke="#046097"/><path d="M701.697 365.249v-7.657c0-4.978 0-12.275-.041-21.508 0-18.486-.041-44.821-.075-76.25l.15.15h-92.357l.171-.171v105.416l-.144-.143 66.998.075 18.731.034h6.635-6.58l-18.698.034-67.086.075h-.143V259.568h92.692v.252c0 31.47-.062 57.839-.075 76.373 0 9.233 0 16.509-.041 21.474v7.112c0 .334-.137.47-.137.47Z" fill="#154D72"/><path d="M693.76 313.691c0 .068-1.023-.512-2.966-1.126a19.112 19.112 0 0 0-8.524-.634 18.58 18.58 0 0 0-5.619 1.807 26.578 26.578 0 0 0-5.523 3.969c-1.807 1.603-3.608 3.41-5.681 5.094a19.646 19.646 0 0 1-7.255 3.928c-1.382.358-2.82.444-4.235.252a13.87 13.87 0 0 1-3.928-1.207 70.224 70.224 0 0 1-6.573-3.914 20.386 20.386 0 0 0-6.178-2.769 18.267 18.267 0 0 0-5.885-.45 18.97 18.97 0 0 0-8.121 2.639c-1.739 1.064-2.564 1.869-2.605 1.814-.041-.054.184-.218.586-.58a13.739 13.739 0 0 1 1.889-1.438 18.506 18.506 0 0 1 14.259-2.496 20.914 20.914 0 0 1 6.362 2.782 67.775 67.775 0 0 0 6.532 3.846 11.155 11.155 0 0 0 7.74.907 19.098 19.098 0 0 0 7.024-3.798c2.045-1.637 3.846-3.41 5.687-5.046a26.645 26.645 0 0 1 5.673-4.003 18.95 18.95 0 0 1 5.789-1.78 18.648 18.648 0 0 1 8.661.846c.75.254 1.48.566 2.182.934.249.117.487.259.709.423Z" fill="#FF9B05"/><path d="M642.617 327.813h-7.855v21.241h7.855v-21.241ZM675.935 327.813h-7.856v21.241h7.856v-21.241ZM687.043 315.341h-7.855v33.713h7.855v-33.713ZM632.45 342.365h-7.856v7.146h7.856v-7.146ZM653.719 337.407h-7.856v11.647h7.856v-11.647ZM664.827 334.734h-7.856v14.32h7.856v-14.32Z" fill="#046097"/><path d="M642.958 351.557c0 .177-1.896.313-4.241.313-2.346 0-4.242-.136-4.242-.313 0-.178 1.896-.314 4.242-.314 2.345 0 4.241.143 4.241.314ZM633.152 351.557c0 .177-1.895.313-4.241.313-2.346 0-4.242-.136-4.242-.313 0-.178 1.896-.314 4.242-.314s4.241.143 4.241.314ZM688.584 351.557c0 .177-2.148.313-4.773.313-2.625 0-4.773-.136-4.773-.313 0-.178 2.141-.314 4.773-.314 2.632 0 4.773.143 4.773.314ZM676.917 351.557c0 .177-2.141.313-4.774.313-2.632 0-4.773-.136-4.773-.313 0-.178 2.148-.314 4.773-.314 2.626 0 4.774.143 4.774.314ZM664.827 351.557c0 .177-1.903.32-4.248.32-2.346 0-4.242-.143-4.242-.32 0-.178 1.903-.314 4.242-.314 2.338 0 4.248.143 4.248.314ZM653.35 351.557c0 .177-1.902.32-4.248.32s-4.242-.143-4.242-.32c0-.178 1.903-.314 4.242-.314s4.248.143 4.248.314ZM688.584 275.197H624.41v26.649h64.174v-26.649Z" fill="#154D72"/><path d="M637.741 283.625a2.995 2.995 0 0 1-3.577 2.937 2.997 2.997 0 0 1-2.182-4.082 2.994 2.994 0 0 1 5.759 1.145ZM661.581 281.552h-20.846v1.16h20.846v-1.16Z" fill="#154D72"/><path d="M681.288 284.185h-40.553v1.159h40.553v-1.159Z" fill="#046097"/><path d="M637.741 292.818a2.99 2.99 0 0 1-1.854 2.768 2.997 2.997 0 0 1-4.079-2.201 2.995 2.995 0 0 1 5.068-2.677c.556.561.867 1.32.865 2.11ZM651.38 290.751h-10.645v1.16h10.645v-1.16Z" fill="#FF9B05"/><path d="M681.288 293.383h-40.553v1.16h40.553v-1.16Z" fill="#046097"/><path d="m659.237 465.623.596-69.626a3.5 3.5 0 0 1 3.53-3.47l47.437.406a3.5 3.5 0 0 1 3.47 3.53l-.596 69.625a3.5 3.5 0 0 1-3.53 3.47l-47.437-.406a3.5 3.5 0 0 1-3.47-3.529Z" fill="#103654" stroke="#046097"/><path d="M658.717 469.629V463.989c0-3.696.054-9.09.095-15.915.096-13.686.232-33.114.403-56.073v-.157h.156l55.432.457h.185v.177a82034.56 82034.56 0 0 0-.682 77.628v.143h-.144l-40.396-.402-11.149-.13-2.911-.041h-.989 3.962l11.176.062 40.301.272-.144.144c.178-21.678.396-48.566.635-77.628l.177.177-55.432-.491.164-.157c-.232 22.912-.423 42.278-.56 55.964-.081 6.819-.143 12.24-.184 15.95 0 1.848-.041 3.266-.054 4.234v1.098c0 .259-.041.328-.041.328Z" fill="#154D72"/><path d="M666.457 410.917c0-.178 9.185-.246 20.504-.151 11.32.096 20.498.321 20.498.498 0 .178-9.178.246-20.504.15-11.327-.095-20.498-.32-20.498-.497ZM666.416 416.399c0-.184 9.178-.245 20.498-.15 11.319.096 20.498.321 20.498.498s-9.179.245-20.505.15c-11.327-.096-20.498-.321-20.491-.498ZM666.368 421.875c0-.178 9.178-.239 20.498-.143 11.319.095 20.505.32 20.498.497-.007.178-9.179.246-20.505.15-11.326-.095-20.498-.32-20.491-.504ZM666.32 427.357c0-.177 9.179-.245 20.498-.143 11.32.102 20.505.321 20.498.498-.007.177-9.178.245-20.505.15-11.326-.096-20.498-.293-20.491-.505ZM666.272 432.84c0-.178 9.179-.246 20.498-.143 11.32.102 20.505.32 20.498.497-.006.178-9.178.246-20.498.144-11.319-.103-20.498-.314-20.498-.498Z" fill="#154D72"/><path d="M680.954 439.202h-6.601v20.607h6.601v-20.607ZM690.807 443.907h-6.601v15.902h6.601v-15.902ZM699.924 450.365h-6.601v9.444h6.601v-9.444ZM610.022 378.737h3.614l9.881-.054 32.609-.055 29.144.041h.171v.137c-.034 4.152-.062 7.548-.075 9.935 0 1.159-.034 2.046-.048 2.728v.682c.009.079.009.159 0 .238v-.92c0-.648 0-1.562-.041-2.728 0-2.387-.048-5.783-.075-9.935l.17.136-29.144.041-32.609-.055-9.983-.122-2.693-.034h-.682l-.239-.035ZM609.163 277.55a1.719 1.719 0 0 1-.43 0h-1.234l-4.576.047-15.424.062.17-.177c0 1.152 0 2.366.034 3.593.062 6.976.069 13.297 0 17.866 0 2.284-.047 4.139-.095 5.414 0 .641-.048 1.132-.075 1.473a4.01 4.01 0 0 1-.068.512v-7.399c0-4.569-.082-10.91-.137-17.859v-3.778h.178l15.424.055 4.569.191h1.234c.143-.012.287-.012.43 0Z" fill="#046097"/><path d="M610.908 277.55a1.746 1.746 0 0 1-1.078 1.624 1.753 1.753 0 1 1 1.078-1.624ZM687.064 392.341a1.759 1.759 0 0 1-1.079 1.625c-.32.134-.673.169-1.014.101a1.743 1.743 0 0 1-.899-.48 1.76 1.76 0 0 1-.379-1.913 1.746 1.746 0 0 1 1.625-1.078 1.745 1.745 0 0 1 1.746 1.745ZM606.953 304.751H370.196a7.395 7.395 0 0 0-7.392 7.392v167.25a7.4 7.4 0 0 0 7.392 7.392h90.85s5.776 17.873-12.144 27.126h84.951s-20.232-6.941-15.002-27.126h88.102a7.395 7.395 0 0 0 5.21-2.174 7.395 7.395 0 0 0 2.155-5.218v-167.25a7.391 7.391 0 0 0-7.365-7.392Z" fill="#154D72"/><path d="M491.718 469.165c3.226 4.603-1.82 9.642-6.423 6.423a1.669 1.669 0 0 1-.396-.395c-3.211-4.603 1.821-9.635 6.424-6.424.155.107.289.241.395.396Z" fill="#046097"/><path d="M373.461 308.813H603.66a5.614 5.614 0 0 1 5.614 5.614v140.754H367.841V314.427a5.607 5.607 0 0 1 1.647-3.972 5.622 5.622 0 0 1 3.973-1.642Zm.001-1H603.66a6.613 6.613 0 0 1 6.614 6.614v140.754L373.462 307.813Z" fill="#103654" stroke="#046097" stroke-width="2"/><path d="M373.094 307.813h232.052a5.127 5.127 0 0 1 5.128 5.128v7.2H366.841v-6.089a6.25 6.25 0 0 1 1.832-4.417 6.243 6.243 0 0 1 4.421-1.822Z" fill="#046097"/><path d="M376.333 314.236a1.71 1.71 0 0 1-2.922 1.21 1.71 1.71 0 1 1 2.922-1.21ZM381.407 314.236a1.716 1.716 0 0 1-1.059 1.582 1.708 1.708 0 0 1-1.866-.374 1.71 1.71 0 0 1 .267-2.634 1.7 1.7 0 0 1 .953-.285 1.707 1.707 0 0 1 1.577 1.057c.085.207.129.43.128.654ZM386.255 314.236a1.71 1.71 0 0 1-2.922 1.21 1.71 1.71 0 1 1 2.922-1.21ZM564.621 486.806c0 .082-33.693.143-75.255.143s-75.255-.055-75.255-.143c0-.089 33.686-.143 75.255-.143 41.569 0 75.255.068 75.255.143Z" fill="#154D72"/><path d="m433.803 450.322 7.63-.021m-7.63.021-52.276.652a4.001 4.001 0 0 1-4.012-3.989l-.107-38.608a4 4 0 0 1 3.989-4.011l59.877-.169a4 4 0 0 1 4.011 3.989l.113 38.626a3.977 3.977 0 0 1-3.963 3.989l-.002-.5m-7.63.021-52.277.152a3.501 3.501 0 0 1-3.511-3.491l-.107-38.607a3.5 3.5 0 0 1 3.49-3.51l59.878-.169a3.5 3.5 0 0 1 3.509 3.49l.113 38.626a3.477 3.477 0 0 1-3.465 3.488m-7.63.021 7.63-.021" fill="#103654" stroke="#046097"/><path d="M382.614 445.98c-.082 0-.171-7.903-.198-17.654-.027-9.752 0-17.662.095-17.662.096 0 .171 7.904.198 17.662.027 9.758-.014 17.654-.095 17.654Z" fill="#154D72"/><path d="M441.51 440.954c0 .082-13.236.191-29.568.232-16.331.041-29.567 0-29.567-.061s13.236-.184 29.567-.232c16.332-.048 29.568-.02 29.568.061ZM441.496 435.752c0 .081-13.243.19-29.567.238-16.325.048-29.568 0-29.568-.068s13.236-.184 29.568-.232c16.331-.048 29.567 0 29.567.062ZM441.482 430.596c0 .082-13.242.184-29.567.232-16.325.048-29.567 0-29.574-.061-.007-.062 13.236-.191 29.574-.239 16.338-.048 29.567-.014 29.567.068ZM441.462 425.414c0 .082-13.236.184-29.561.232-16.325.047-29.574 0-29.574-.062 0-.061 13.236-.191 29.567-.238 16.332-.048 29.568-.014 29.568.068ZM441.448 420.231c0 .082-13.235.184-29.567.232-16.332.048-29.567 0-29.567-.061 0-.062 13.235-.184 29.567-.232 16.332-.048 29.567-.02 29.567.061ZM441.435 415.049c0 .082-13.236.184-29.568.232-16.331.048-29.567 0-29.567-.062 0-.061 13.236-.184 29.567-.231 16.332-.048 29.568-.021 29.568.061ZM441.421 409.839c0 .082-13.243.191-29.567.239-16.325.048-29.568 0-29.568-.068 0-.069 13.236-.184 29.568-.232 16.331-.048 29.567.007 29.567.061Z" fill="#046097"/><path d="m390.588 437.907-4.242.012.023 8.074 4.241-.012-.022-8.074ZM421.389 437.814l-4.241.012.022 8.074 4.242-.012-.023-8.074Z" fill="#046097"/><path d="m398.924 431.915-4.241.012.041 14.013 4.242-.012-.042-14.013ZM414.414 428.253l-4.242.012.05 17.654 4.241-.011-.049-17.655Z" fill="#FF9B05"/><path d="m406.75 417.517-4.241.013.084 28.387 4.242-.013-.085-28.387Z" fill="#046097"/><path d="M428.942 423.3h-4.241v23.137h4.241V423.3Z" fill="#FF9B05"/><path d="M434.697 445.837c0 .082-11.64.184-25.987.225-14.347.041-25.994 0-25.994-.075s11.633-.177 25.994-.218c14.361-.041 25.987-.014 25.987.068Z" fill="#154D72"/><path d="M377.276 335.188a3.5 3.5 0 0 1 3.5-3.5h140.055a3.5 3.5 0 0 1 3.5 3.5v60.443a3.5 3.5 0 0 1-3.499 3.5H380.776a3.5 3.5 0 0 1-3.5-3.5v-60.443Z" fill="#103654" stroke="#046097"/><path d="M387.189 378.472v2.161h-.225v-1.964h-.505v-.197h.73ZM387.707 379.549c0-.682.362-1.098.86-1.098.497 0 .866.409.866 1.098 0 .689-.362 1.098-.866 1.098-.505 0-.86-.409-.86-1.098Zm1.501 0c0-.58-.259-.893-.641-.893s-.635.313-.635.893c0 .58.26.893.635.893s.641-.313.641-.893ZM388.069 366.995v.198h-1.507v-.157l.9-.88c.245-.238.293-.388.293-.532 0-.252-.177-.409-.511-.409a.727.727 0 0 0-.587.246l-.157-.137a.976.976 0 0 1 .764-.313c.437 0 .716.225.716.586a.879.879 0 0 1-.354.682l-.737.723 1.18-.007ZM388.335 366.115c0-.681.361-1.104.859-1.104s.866.416.866 1.104c0 .689-.361 1.098-.866 1.098s-.859-.416-.859-1.098Zm1.5 0c0-.579-.259-.9-.641-.9s-.634.321-.634.9c0 .58.259.894.634.894s.641-.321.641-.894ZM388.021 353.132c0 .361-.266.641-.784.641-.286.01-.564-.09-.778-.28l.11-.17a.944.944 0 0 0 .681.245c.355 0 .553-.163.553-.436s-.177-.423-.58-.423h-.157v-.15l.6-.75h-1.104v-.198h1.364v.157l-.614.764c.477.027.709.259.709.6ZM388.335 352.675c0-.682.361-1.098.859-1.098s.866.409.866 1.098c0 .689-.361 1.098-.866 1.098s-.859-.409-.859-1.098Zm1.5 0c0-.58-.259-.893-.641-.893s-.634.313-.634.893c0 .58.259.893.634.893s.641-.327.641-.893ZM396.729 386.654c0-.682.361-1.104.859-1.104s.866.416.866 1.104c0 .689-.361 1.098-.866 1.098-.504 0-.859-.416-.859-1.098Zm1.5 0c0-.579-.259-.9-.641-.9s-.634.321-.634.9c0 .58.259.894.634.894s.641-.334.641-.894ZM412.726 385.557v2.161h-.252v-1.964h-.511v-.197h.763ZM429.583 387.52v.198h-1.514v-.157l.894-.879c.245-.239.293-.389.293-.532 0-.253-.178-.409-.505-.409a.739.739 0 0 0-.593.245l-.157-.136a.973.973 0 0 1 .764-.314c.443 0 .716.225.716.587a.887.887 0 0 1-.355.681l-.729.723 1.186-.007ZM445.519 387.098c0 .361-.266.641-.784.641a1.11 1.11 0 0 1-.777-.28l.109-.177a.913.913 0 0 0 .682.252c.361 0 .552-.17.552-.436s-.177-.43-.58-.43h-.197v-.164l.6-.75h-1.078v-.197h1.364v.156l-.614.771c.491.027.723.266.723.614ZM461.905 387.152h-.429v.566h-.225v-.566h-1.214v-.163l1.146-1.432h.245l-1.105 1.397h.935v-.504h.218v.504h.429v.198ZM477.521 387.084c0 .368-.259.682-.784.682a1.125 1.125 0 0 1-.778-.28l.11-.177a.935.935 0 0 0 .681.252c.362 0 .56-.177.56-.443s-.171-.45-.723-.45h-.464l.116-1.084h1.18v.198h-.989l-.075.681h.28c.62-.02.886.239.886.621ZM493.662 387.07a.684.684 0 0 1-.737.682c-.579 0-.886-.402-.886-1.084s.402-1.118.989-1.118a.95.95 0 0 1 .511.122l-.089.178a.763.763 0 0 0-.422-.103c-.464 0-.764.3-.764.887a1.742 1.742 0 0 0 0 .177.684.684 0 0 1 .682-.375.684.684 0 0 1 .716.634Zm-.218 0c0-.279-.212-.463-.546-.463a.492.492 0 0 0-.38.115.499.499 0 0 0-.179.355c0 .239.198.464.573.464a.481.481 0 0 0 .532-.464v-.007ZM509.543 385.557v.156l-.92 2.005h-.239l.893-1.964h-1.111v.403h-.225v-.6h1.602ZM509.659 379.651c0 .116-25.012.212-55.861.212-30.85 0-55.862-.096-55.862-.212 0-.116 25.005-.211 55.862-.211 30.856 0 55.861.095 55.861.211ZM509.659 366.149c0 .116-25.012.205-55.861.205-30.85 0-55.862-.089-55.862-.205 0-.115 25.005-.211 55.862-.211 30.856 0 55.861.096 55.861.211ZM509.659 352.641c0 .116-25.012.211-55.861.211-30.85 0-55.862-.095-55.862-.211 0-.116 25.005-.211 55.862-.211 30.856 0 55.861.129 55.861.211Z" fill="#154D72"/><path d="M397.936 379.454a.726.726 0 0 1-.443.673.725.725 0 0 1-.946-.946.716.716 0 0 1 .673-.443.686.686 0 0 1 .517.198.678.678 0 0 1 .199.518ZM413.995 379.454a.71.71 0 0 1-.442.661.724.724 0 0 1-.414.041.711.711 0 0 1-.562-.563.711.711 0 0 1 .304-.735.721.721 0 0 1 .398-.12.681.681 0 0 1 .716.716ZM430.061 379.454a.71.71 0 0 1-.442.661.72.72 0 0 1-.977-.522.72.72 0 0 1 .305-.735.719.719 0 0 1 .398-.12.681.681 0 0 1 .716.716ZM446.126 379.454a.726.726 0 0 1-.443.673.725.725 0 0 1-.946-.946.718.718 0 0 1 .673-.443.686.686 0 0 1 .517.198.683.683 0 0 1 .199.518ZM462.185 379.453a.685.685 0 0 1-.444.606.686.686 0 0 1-.731-.169.685.685 0 0 1 .118-1.04.693.693 0 0 1 .644-.058.672.672 0 0 1 .413.661ZM494.303 379.453a.724.724 0 1 1-1.447.013.724.724 0 0 1 1.447-.013ZM478.251 379.453a.716.716 0 1 1-.682-.715.673.673 0 0 1 .64.444.697.697 0 0 1 .042.271ZM510.375 379.454a.718.718 0 0 1-.855.702.72.72 0 0 1-.563-.563.72.72 0 0 1 .304-.735.724.724 0 0 1 .398-.12.683.683 0 0 1 .672.436.683.683 0 0 1 .044.28Z" fill="#FF9B05"/><path d="M405.253 379.651a.48.48 0 0 1-.079.262.479.479 0 0 1-.483.2.47.47 0 1 1 .562-.462ZM421.38 379.651a.48.48 0 0 1-.079.262.479.479 0 0 1-.483.2.47.47 0 1 1 .562-.462ZM437.5 379.651a.462.462 0 0 1-.092.253.459.459 0 0 1-.215.161.463.463 0 0 1-.268.017.461.461 0 0 1-.357-.372.469.469 0 0 1 .643-.52.478.478 0 0 1 .289.461ZM453.627 379.651a.471.471 0 1 1-.943.002.471.471 0 0 1 .943-.002ZM469.754 379.651a.476.476 0 0 1-.562.462.467.467 0 0 1-.37-.37.47.47 0 0 1 .794-.424.465.465 0 0 1 .138.332ZM485.874 379.651a.469.469 0 0 1-.823.282.467.467 0 0 1-.068-.519.477.477 0 0 1 .455-.261.47.47 0 0 1 .436.498ZM501.995 379.651a.472.472 0 0 1-.804.333.476.476 0 0 1-.102-.513.472.472 0 0 1 .906.18Z" fill="#046097"/><path d="M415.038 373.698a1.765 1.765 0 0 1-1.086 1.626 1.758 1.758 0 0 1-2.399-1.283 1.758 1.758 0 0 1 2.399-1.968 1.76 1.76 0 0 1 1.086 1.625ZM429.058 365.413a1.769 1.769 0 0 1-1.085 1.637 1.76 1.76 0 0 1-1.927-.379 1.767 1.767 0 1 1 3.012-1.258ZM446.447 366.15a1.763 1.763 0 0 1-2.103 1.725 1.761 1.761 0 0 1-1.382-1.382 1.761 1.761 0 0 1 1.725-2.103 1.762 1.762 0 0 1 1.76 1.76ZM463.433 351.114a1.755 1.755 0 0 1-1.086 1.625 1.761 1.761 0 0 1-2.299-2.299 1.76 1.76 0 0 1 3.385.674ZM479.301 360.674c0 .348-.103.688-.297.977a1.753 1.753 0 0 1-1.806.748 1.761 1.761 0 0 1-1.382-1.382 1.758 1.758 0 0 1 2.969-1.587 1.752 1.752 0 0 1 .516 1.244ZM495.353 363.217a1.758 1.758 0 0 1-3.003 1.244 1.753 1.753 0 0 1-.382-1.917 1.76 1.76 0 0 1 1.626-1.086 1.752 1.752 0 0 1 1.759 1.759Z" fill="#FF9B05"/><path d="M510.375 373.698a3.101 3.101 0 0 1-.409 0 8.828 8.828 0 0 1-1.2-.163 9.065 9.065 0 0 1-4.18-1.985 8.624 8.624 0 0 1-2.046-2.673 19.73 19.73 0 0 0-2.148-3.328 7.118 7.118 0 0 0-3.634-2.529 4.646 4.646 0 0 0-2.401.081 6.571 6.571 0 0 0-2.23 1.262c-1.363 1.146-2.373 2.768-3.702 4.248a7.41 7.41 0 0 1-2.414 1.875 4.89 4.89 0 0 1-3.171.26 3.98 3.98 0 0 1-2.414-2.217 15.698 15.698 0 0 1-1.043-3.205 18.416 18.416 0 0 0-.955-3.259 2.546 2.546 0 0 0-1.03-1.228 3.316 3.316 0 0 0-1.623-.32c-1.19.13-2.37.34-3.532.627-.613.126-1.236.197-1.861.212a4.277 4.277 0 0 1-1.896-.369 3.83 3.83 0 0 1-1.5-1.261 8.908 8.908 0 0 1-.921-1.705c-.511-1.193-.852-2.434-1.309-3.634a9.27 9.27 0 0 0-.853-1.705 3.092 3.092 0 0 0-1.363-1.159c-.15-.041-.294-.096-.444-.13l-.463-.048a1.697 1.697 0 0 0-.86.178 3.52 3.52 0 0 0-1.281 1.363 16.125 16.125 0 0 0-1.494 3.696c-.382 1.296-.682 2.619-1.016 3.955-.511 2.217-.975 4.426-1.541 6.588a33.333 33.333 0 0 1-.989 3.191 8.184 8.184 0 0 1-1.67 2.898 2.275 2.275 0 0 1-1.582.682 3.17 3.17 0 0 1-1.63-.491 7.726 7.726 0 0 1-2.278-2.305 27.875 27.875 0 0 1-2.727-5.598c-.771-1.855-1.644-3.689-3.076-4.951a5.776 5.776 0 0 0-5.169-1.255 8.679 8.679 0 0 0-2.454 1.078c-.756.461-1.474.981-2.148 1.555a28.647 28.647 0 0 0-3.58 3.6 38.768 38.768 0 0 1-5.306 4.405 25.981 25.981 0 0 1-5.455 2.946 11.885 11.885 0 0 1-5.319.886 18.84 18.84 0 0 1-4.432-1.07 42.317 42.317 0 0 1-5.755-2.632 31.19 31.19 0 0 1-1.439-.825c-.321-.198-.471-.307-.471-.307l.498.266 1.459.777a44.965 44.965 0 0 0 5.769 2.544c1.415.515 2.888.856 4.385 1.016a11.705 11.705 0 0 0 5.21-.907 25.81 25.81 0 0 0 5.353-2.939 38.49 38.49 0 0 0 5.237-4.392 28.602 28.602 0 0 1 3.614-3.669 17.71 17.71 0 0 1 2.127-1.568 9.222 9.222 0 0 1 2.557-1.132 6.14 6.14 0 0 1 5.51 1.33c1.521 1.33 2.407 3.225 3.191 5.087a27.866 27.866 0 0 0 2.728 5.516 7.306 7.306 0 0 0 2.155 2.183c.425.27.915.42 1.418.436a1.92 1.92 0 0 0 1.296-.586 8.094 8.094 0 0 0 1.568-2.728 32.72 32.72 0 0 0 .969-3.15c.566-2.148 1.022-4.358 1.541-6.581a64.557 64.557 0 0 1 1.023-3.982 16.594 16.594 0 0 1 1.534-3.792 3.932 3.932 0 0 1 1.459-1.493c.328-.17.695-.247 1.064-.225l.525.055c.17.041.341.102.505.15a3.536 3.536 0 0 1 1.588 1.316 9.12 9.12 0 0 1 .894 1.786c.47 1.228.804 2.469 1.302 3.621.498 1.153 1.112 2.298 2.216 2.769 1.105.47 2.346.334 3.512.129a27.69 27.69 0 0 1 3.594-.62 3.614 3.614 0 0 1 1.82.368c.538.327.955.82 1.187 1.405.43 1.075.757 2.19.975 3.327a14.93 14.93 0 0 0 1.002 3.137 3.628 3.628 0 0 0 2.189 2.046 4.52 4.52 0 0 0 2.939-.232 7.044 7.044 0 0 0 2.292-1.821c1.309-1.438 2.332-3.075 3.75-4.255a6.737 6.737 0 0 1 2.339-1.302 4.818 4.818 0 0 1 2.544-.075 7.317 7.317 0 0 1 3.75 2.639 19.48 19.48 0 0 1 2.148 3.409 8.492 8.492 0 0 0 1.984 2.639 9.163 9.163 0 0 0 4.092 2.046c.39.093.787.159 1.186.198a3.85 3.85 0 0 1 .416.02Z" fill="#FF9B05"/><path d="M415.202 343.388c0 .115-6.233.211-13.925.211-7.692 0-13.931-.096-13.931-.211 0-.116 6.239-.212 13.931-.212 7.692 0 13.925.096 13.925.212Z" fill="#154D72"/><path d="M531.244 335.625a3.5 3.5 0 0 1 3.5-3.5h63.204a3.5 3.5 0 0 1 3.5 3.5v58.922a3.5 3.5 0 0 1-3.5 3.5h-63.204a3.5 3.5 0 0 1-3.5-3.5v-58.922Z" fill="#103654" stroke="#046097"/><path d="M566.025 339.214a21.972 21.972 0 1 0 .002 43.945 21.972 21.972 0 0 0-.002-43.945Zm.335 35.139a13.51 13.51 0 0 1-12.479-8.33 13.502 13.502 0 1 1 25.973-5.172 13.501 13.501 0 0 1-3.944 9.561 13.518 13.518 0 0 1-9.55 3.968v-.027Z" fill="#154D72"/><path d="M566.366 339.221v8.135a13.5 13.5 0 0 1 12.861 17.587l7.965 2.161a21.964 21.964 0 0 0-11.161-25.478 21.965 21.965 0 0 0-9.658-2.405h-.007Z" fill="#FF9B05"/><path d="M552.858 360.851a13.475 13.475 0 0 1 8.005-12.322l-3.409-7.589a21.973 21.973 0 0 0-13.372 20.245v.921h8.864a8.544 8.544 0 0 1-.088-1.255Z" fill="#046097"/><path d="M566.36 374.38a13.592 13.592 0 0 1-2.858-.307c-.341 1.957-.982 5.749-1.486 8.735 1.322.25 2.664.376 4.009.375a21.97 21.97 0 0 0 21.14-16.052l-7.965-2.161a13.503 13.503 0 0 1-12.84 9.41Z" fill="#FF9B05"/><path opacity=".3" d="M566.36 374.38a13.592 13.592 0 0 1-2.858-.307c-.341 1.957-.982 5.749-1.486 8.735 1.322.25 2.664.376 4.009.375a21.97 21.97 0 0 0 21.14-16.052l-7.965-2.161a13.503 13.503 0 0 1-12.84 9.41Z" fill="#103654"/><path d="M563.441 361.942h-.812v1.05h-1.125v-1.05h-2.693v-.777l2.352-3.164h1.214l-2.182 3h1.364v-.941h1.091v.934h.811l-.02.948ZM563.782 360.497c0-1.644.914-2.585 2.141-2.585 1.228 0 2.141.941 2.141 2.585 0 1.643-.907 2.584-2.141 2.584s-2.141-.934-2.141-2.584Zm3.116 0c0-1.132-.395-1.603-.975-1.603-.579 0-.968.471-.968 1.603 0 1.132.395 1.609.948 1.609.552 0 .995-.477.995-1.609ZM568.542 359.324a1.241 1.241 0 1 1 2.47.244 1.241 1.241 0 0 1-2.47-.244Zm1.759 0c0-.539-.205-.798-.518-.798-.314 0-.525.266-.525.798s.218.791.525.791c.307 0 .518-.259.518-.791Zm2.455-1.323h.845l-3.409 4.991h-.846l3.41-4.991Zm-.819 3.675a1.25 1.25 0 0 1 1.56-1.091 1.247 1.247 0 0 1-.325 2.455 1.245 1.245 0 0 1-1.178-.853 1.245 1.245 0 0 1-.057-.511Zm1.753 0c0-.532-.205-.791-.518-.791-.314 0-.525.253-.525.791 0 .539.218.791.525.791.307 0 .518-.266.518-.791Z" fill="#046097"/><path d="M584.205 388.7c0 .116-8.135.205-18.18.205-10.044 0-18.179-.089-18.179-.205 0-.116 8.142-.211 18.179-.211 10.038 0 18.18.095 18.18.211ZM576.131 392.035c0 .116-4.514.211-10.085.211-5.571 0-10.085-.095-10.085-.211 0-.116 4.514-.205 10.085-.205 5.571 0 10.085.095 10.085.205Z" fill="#154D72"/><path d="M454.804 403.5h134.92a3.5 3.5 0 0 1 3.5 3.5v38.956a3.5 3.5 0 0 1-3.5 3.5h-134.92a3.5 3.5 0 0 1-3.5-3.5V407a3.5 3.5 0 0 1 3.5-3.5Z" fill="#103654" stroke="#046097"/><path d="M581.668 414.108c0 .082-24.289.15-54.245.15-29.956 0-54.246-.068-54.246-.15 0-.082 24.283-.15 54.246-.15s54.245.068 54.245.15ZM581.668 419.665c0 .082-24.289.15-54.245.15-29.956 0-54.246-.068-54.246-.15 0-.081 24.283-.15 54.246-.15s54.245.062 54.245.15ZM581.668 425.223c0 .082-24.289.15-54.245.15-29.956 0-54.246-.068-54.246-.15 0-.082 24.283-.157 54.246-.157s54.245.068 54.245.157ZM581.668 430.774c0 .088-24.289.15-54.245.15-29.956 0-54.259-.062-54.259-.15 0-.089 24.282-.15 54.245-.15 29.963 0 54.259.068 54.259.15ZM581.668 436.331c0 .082-24.289.15-54.245.15-29.956 0-54.259-.048-54.259-.15s24.282-.15 54.245-.15c29.963 0 54.259.068 54.259.15Z" fill="#046097"/><path d="M572.224 429.86s-.075.088-.239.245c-.273.22-.582.391-.914.505a4.855 4.855 0 0 1-3.955-.634 6.518 6.518 0 0 1-1.868-2.046c-.518-.839-.927-1.814-1.418-2.83a8.828 8.828 0 0 0-2.121-2.953 4.786 4.786 0 0 0-1.848-.975 5.473 5.473 0 0 0-2.264-.109 9.148 9.148 0 0 0-4.33 1.985c-1.296 1.016-2.428 2.257-3.819 3.409a9.309 9.309 0 0 1-5.244 2.23 5.313 5.313 0 0 1-2.993-.682 6.541 6.541 0 0 1-2.094-2.093c-1.077-1.61-1.623-3.492-3.027-4.965a5.02 5.02 0 0 0-2.626-1.575 4.09 4.09 0 0 0-3.082.641 6.134 6.134 0 0 0-2.045 2.346 13.212 13.212 0 0 0-.962 2.925 16.38 16.38 0 0 1-.948 3.035 6.373 6.373 0 0 1-2.161 2.605 8.698 8.698 0 0 1-3.308 1.432 9.02 9.02 0 0 1-3.648.041 8.742 8.742 0 0 1-3.225-1.364c-.955-.614-1.814-1.296-2.728-1.91a8.462 8.462 0 0 0-2.932-1.363 4.848 4.848 0 0 0-3.137.354 7.029 7.029 0 0 0-2.339 1.889 17.819 17.819 0 0 0-1.589 2.407 18.091 18.091 0 0 1-1.561 2.38 7.027 7.027 0 0 1-2.25 1.855 5.16 5.16 0 0 1-2.939.593 4.366 4.366 0 0 1-2.551-1.234 5.995 5.995 0 0 1-1.411-2.121 14.293 14.293 0 0 1-.641-2.271c-.314-1.486-.621-2.939-1.507-4.091a5.306 5.306 0 0 0-3.485-2.25 4.407 4.407 0 0 0-2.046.218 5.41 5.41 0 0 0-1.609.92c-1.834 1.521-2.727 3.355-4.091 4.419a5.867 5.867 0 0 1-3.642 1.589 3.585 3.585 0 0 1-1.063-.164l-.335-.129c.439.152.9.23 1.364.232a5.843 5.843 0 0 0 3.553-1.61c1.323-1.057 2.168-2.891 4.03-4.459a5.728 5.728 0 0 1 1.671-.969 4.644 4.644 0 0 1 2.114-.238 5.548 5.548 0 0 1 3.668 2.325 6.788 6.788 0 0 1 1.009 1.971c.221.722.406 1.455.553 2.195.149.763.364 1.511.641 2.237.305.77.77 1.468 1.364 2.046a4.12 4.12 0 0 0 2.379 1.145 4.839 4.839 0 0 0 2.728-.572 6.703 6.703 0 0 0 2.148-1.78 17.951 17.951 0 0 0 1.534-2.353 17.964 17.964 0 0 1 1.61-2.441 7.25 7.25 0 0 1 2.448-1.977 5.185 5.185 0 0 1 3.375-.389 8.92 8.92 0 0 1 3.062 1.439c.92.62 1.78 1.302 2.727 1.902a8.426 8.426 0 0 0 3.096 1.323 8.611 8.611 0 0 0 3.492-.041 8.277 8.277 0 0 0 3.171-1.364 6.61 6.61 0 0 0 1.22-1.125c.333-.418.612-.876.832-1.364.412-.962.727-1.962.941-2.986a13.54 13.54 0 0 1 .982-2.98 6.508 6.508 0 0 1 2.134-2.455 4.479 4.479 0 0 1 3.369-.682 5.332 5.332 0 0 1 2.809 1.684c1.453 1.541 1.998 3.41 3.049 5.005a6.393 6.393 0 0 0 1.984 2.005 5.018 5.018 0 0 0 2.809.682 9.02 9.02 0 0 0 5.06-2.148c1.364-1.105 2.516-2.352 3.832-3.375a9.451 9.451 0 0 1 4.474-2.046 5.909 5.909 0 0 1 2.379.123 5.15 5.15 0 0 1 1.923 1.029 8.906 8.906 0 0 1 2.148 3.028c.408.966.863 1.91 1.364 2.83a6.324 6.324 0 0 0 1.801 2.012 4.765 4.765 0 0 0 3.852.681c.495-.15.941-.428 1.296-.804Z" fill="#046097"/><path d="M579.084 428.564h-.375a3.602 3.602 0 0 1-.464-.054 5.007 5.007 0 0 1-.6-.184 10.167 10.167 0 0 1-3.232-2.36 33.82 33.82 0 0 1-.928-.982c-.308-.38-.643-.737-1.002-1.07a5.697 5.697 0 0 0-3.191-1.262 5.172 5.172 0 0 0-1.951.211 5.076 5.076 0 0 0-1.732 1.017 35.44 35.44 0 0 0-2.857 3.204 8.167 8.167 0 0 1-1.834 1.542 6.197 6.197 0 0 1-2.496.811 12.781 12.781 0 0 1-5.51-.893c-1.8-.648-3.518-1.541-5.455-2.114-.976-.31-1.99-.486-3.014-.525a7.482 7.482 0 0 0-3.041.573c-1.937.804-3.451 2.277-5.278 3.47a11.154 11.154 0 0 1-3.055 1.453 12.713 12.713 0 0 1-3.498.525 14.32 14.32 0 0 1-6.956-1.671 15.906 15.906 0 0 1-5.271-4.548c-1.411-1.834-2.189-3.921-3.212-5.823a11.497 11.497 0 0 0-1.861-2.646 8.052 8.052 0 0 0-2.728-1.841 5.582 5.582 0 0 0-3.314-.307 5.713 5.713 0 0 0-2.727 1.568 7.861 7.861 0 0 0-1.651 2.482 18.46 18.46 0 0 0-.852 2.728c-.225.92-.43 1.841-.716 2.728a11.217 11.217 0 0 1-1.18 2.543 12.205 12.205 0 0 1-3.982 3.894 12.739 12.739 0 0 1-5.196 1.827 12.5 12.5 0 0 1-5.169-.518c-3.144-.982-5.367-3.096-6.192-5.264-.429-1.085-.647-2.121-.954-3.048a6.641 6.641 0 0 0-1.235-2.387 4.682 4.682 0 0 0-3.586-1.589 2.908 2.908 0 0 0-1.364.43 2.361 2.361 0 0 1 1.364-.491 4.721 4.721 0 0 1 3.696 1.582 6.695 6.695 0 0 1 1.288 2.414c.321.934.546 1.97.982 3.027.825 2.121 3.007 4.18 6.09 5.128 1.621.509 3.33.674 5.018.484a12.527 12.527 0 0 0 5.06-1.793 12.008 12.008 0 0 0 3.88-3.826 15.8 15.8 0 0 0 1.855-5.196 18.15 18.15 0 0 1 .859-2.782 8.189 8.189 0 0 1 1.705-2.564 5.79 5.79 0 0 1 6.458-1.364 8.408 8.408 0 0 1 2.87 1.917 11.94 11.94 0 0 1 1.923 2.727c1.037 1.937 1.801 3.989 3.185 5.79a15.691 15.691 0 0 0 5.162 4.459 14.056 14.056 0 0 0 6.764 1.63 13.072 13.072 0 0 0 3.41-.505 11.283 11.283 0 0 0 2.966-1.404c1.794-1.173 3.321-2.66 5.34-3.492a7.743 7.743 0 0 1 3.184-.6c1.054.043 2.097.226 3.103.546 1.97.586 3.702 1.493 5.455 2.134a12.47 12.47 0 0 0 5.367.893 5.89 5.89 0 0 0 2.386-.763 7.636 7.636 0 0 0 1.78-1.494 36.803 36.803 0 0 1 2.898-3.205 5.254 5.254 0 0 1 1.821-1.05 5.359 5.359 0 0 1 2.045-.211 5.841 5.841 0 0 1 3.287 1.33c.36.341.697.705 1.009 1.091.307.354.614.681.907.981a10.072 10.072 0 0 0 3.158 2.38c.432.206.905.311 1.384.307Z" fill="#FF9B05"/><path d="M465.731 414.381a3.41 3.41 0 0 1-1.439.156 3.362 3.362 0 0 1-1.432-.156c.462-.147.95-.198 1.432-.15.485-.048.974.003 1.439.15ZM465.731 419.665a3.596 3.596 0 0 1-1.439.15 3.562 3.562 0 0 1-1.432-.15c.461-.151.95-.202 1.432-.15.485-.051.975 0 1.439.15ZM465.731 424.943a3.596 3.596 0 0 1-1.439.15 3.562 3.562 0 0 1-1.432-.15c.462-.147.95-.198 1.432-.15.485-.047.974.004 1.439.15ZM465.731 430.221a3.41 3.41 0 0 1-1.439.157 3.362 3.362 0 0 1-1.432-.157c.462-.147.95-.198 1.432-.15.485-.047.974.004 1.439.15ZM465.731 435.506a3.614 3.614 0 0 1-1.439.15 3.562 3.562 0 0 1-1.432-.15 3.378 3.378 0 0 1 1.432-.157 3.41 3.41 0 0 1 1.439.157ZM478.912 442.291c-1.906.2-3.828.2-5.735 0 1.907-.2 3.829-.2 5.735 0ZM504.211 442.291c-1.907.2-3.829.2-5.735 0 1.906-.2 3.828-.2 5.735 0ZM529.509 442.291c-1.908.2-3.833.2-5.741 0 1.908-.2 3.833-.2 5.741 0ZM554.808 442.291c-1.909.2-3.833.2-5.742 0 1.909-.2 3.833-.2 5.742 0ZM580.1 442.291c-1.906.2-3.829.2-5.735 0 1.906-.2 3.829-.2 5.735 0Z" fill="#046097"/><path d="M343.179 456.052h-74.573v51.913h74.573v-51.913Z" fill="#154D72"/><path d="M335.071 471.449h-76.714v19.032h76.714v-19.032Z" fill="#046097"/><path d="M276.871 475.37h-15.104v2.325h15.104v-2.325ZM276.871 479.373h-15.104v2.325h15.104v-2.325ZM276.871 483.505h-15.104v2.326h15.104v-2.326ZM282.837 476.775a.87.87 0 0 1-1.035.849.862.862 0 0 1-.68-.68.87.87 0 0 1 1.464-.784.874.874 0 0 1 .251.615ZM286.663 476.775a.867.867 0 1 1-1.733 0 .867.867 0 0 1 1.733 0ZM290.488 476.775a.87.87 0 0 1-1.035.849.862.862 0 0 1-.68-.68.87.87 0 0 1 .849-1.035.866.866 0 0 1 .866.866ZM294.314 476.775a.876.876 0 0 1-.536.812.877.877 0 0 1-.954-.188.868.868 0 0 1-.188-.955.877.877 0 0 1 1.424-.282.866.866 0 0 1 .254.613ZM323.943 476.775a.867.867 0 1 1-1.733 0 .867.867 0 0 1 1.733 0ZM327.843 476.775a.876.876 0 0 1-.536.812.872.872 0 1 1-.33-1.678.865.865 0 0 1 .866.866ZM298.133 476.775a.867.867 0 1 1-1.733 0 .867.867 0 0 1 1.733 0ZM316.912 476.775a.867.867 0 1 1-1.733 0 .867.867 0 0 1 1.733 0Z" fill="#154D72"/><path d="M301.958 476.775a.867.867 0 1 1-1.733 0 .867.867 0 0 1 1.733 0ZM305.783 476.775a.87.87 0 0 1-1.035.849.862.862 0 0 1-.68-.68.87.87 0 0 1 .849-1.035.866.866 0 0 1 .866.866ZM313.537 476.775a.867.867 0 1 1-.534-.802.853.853 0 0 1 .534.802ZM331.014 476.775a.867.867 0 1 1-1.733 0 .867.867 0 0 1 1.733 0Z" fill="#103654"/><path d="M309.609 476.775a.878.878 0 0 1-.534.811.874.874 0 1 1 .534-.811ZM320.554 476.775a.867.867 0 1 1-1.733 0 .867.867 0 0 1 1.733 0Z" fill="#FF9B05"/><path d="M329.282 480.955a.867.867 0 1 1 1.733 0 .867.867 0 0 1-1.733 0ZM325.456 480.955a.867.867 0 1 1 1.733 0 .867.867 0 0 1-1.733 0ZM321.631 480.955a.867.867 0 1 1 1.733 0 .867.867 0 0 1-1.733 0ZM317.805 480.955a.878.878 0 0 1 .535-.811.87.87 0 0 1 1.145 1.137.872.872 0 0 1-.807.54.865.865 0 0 1-.873-.866ZM288.177 480.955a.862.862 0 0 1 .533-.8.87.87 0 0 1 .943.185.868.868 0 0 1-.603 1.481.867.867 0 0 1-.873-.866ZM284.276 480.955a.867.867 0 1 1 1.733 0 .867.867 0 0 1-1.733 0ZM313.987 480.955a.867.867 0 1 1 1.733 0 .867.867 0 0 1-1.733 0ZM295.187 480.955c0-.171.05-.339.146-.481a.858.858 0 0 1 .889-.368.862.862 0 0 1 .631 1.18.868.868 0 0 1-1.413.281.865.865 0 0 1-.253-.612Z" fill="#154D72"/><path d="M310.189 480.955c0-.171.05-.339.146-.481a.858.858 0 0 1 .889-.368.862.862 0 0 1 .631 1.18.868.868 0 0 1-1.413.281.865.865 0 0 1-.253-.612ZM306.336 480.955a.867.867 0 1 1 1.733 0 .867.867 0 0 1-1.733 0ZM298.596 480.955a.867.867 0 1 1 1.733 0 .867.867 0 0 1-1.733 0ZM281.105 480.955a.867.867 0 1 1 1.733 0 .867.867 0 0 1-1.733 0Z" fill="#103654"/><path d="M302.517 480.955a.867.867 0 1 1 1.733 0 .867.867 0 0 1-1.733 0ZM291.566 480.955a.865.865 0 1 1 1.73 0 .865.865 0 0 1-1.73 0Z" fill="#FF9B05"/><path d="M282.837 484.671c0 .172-.05.339-.146.481a.868.868 0 0 1-1.332.132.865.865 0 1 1 1.478-.613ZM285.804 485.531a.866.866 0 1 0 0-1.733.866.866 0 0 0 0 1.733ZM289.622 485.531a.866.866 0 1 0 0-1.731.866.866 0 0 0 0 1.731ZM293.448 485.531a.866.866 0 1 0 0-1.733.866.866 0 0 0 0 1.733ZM323.077 485.531a.866.866 0 1 0 0-1.733.866.866 0 0 0 0 1.733ZM326.977 485.531a.866.866 0 1 0 0-1.733.866.866 0 0 0 0 1.733ZM298.133 484.671a.864.864 0 0 1-1.035.85.872.872 0 0 1-.681-.681.873.873 0 0 1 .368-.889.87.87 0 0 1 1.094.108.868.868 0 0 1 .254.612ZM316.912 484.671a.864.864 0 0 1-1.035.85.87.87 0 0 1-.68-.681.873.873 0 0 1 .849-1.035.866.866 0 0 1 .866.866Z" fill="#154D72"/><path d="M301.092 485.531a.866.866 0 1 0 0-1.733.866.866 0 0 0 0 1.733ZM305.783 484.671c0 .172-.05.339-.146.481a.868.868 0 0 1-1.332.132.865.865 0 1 1 1.478-.613ZM313.537 484.671a.864.864 0 0 1-1.035.85.872.872 0 0 1-.681-.681.865.865 0 0 1 .369-.889.864.864 0 0 1 1.347.72ZM331.014 484.671a.864.864 0 0 1-1.035.85.87.87 0 0 1-.68-.681.86.86 0 0 1 .849-1.035.866.866 0 0 1 .866.866Z" fill="#103654"/><path d="M309.609 484.671a.876.876 0 0 1-1.039.864.873.873 0 0 1 .166-1.73.87.87 0 0 1 .617.252.864.864 0 0 1 .256.614ZM319.688 485.531a.866.866 0 1 0 0-1.733.866.866 0 0 0 0 1.733Z" fill="#FF9B05"/><path d="M335.071 494.941h-76.714v19.032h76.714v-19.032Z" fill="#046097"/><path d="M282.653 500.076a.866.866 0 0 1-.534.811.873.873 0 1 1 .534-.811ZM286.472 500.076a.863.863 0 0 1-.543.802.864.864 0 0 1-1.113-1.158.864.864 0 0 1 .824-.51.863.863 0 0 1 .832.866ZM290.298 500.076a.869.869 0 0 1-.535.8.873.873 0 0 1-.944-.188.873.873 0 0 1-.188-.944.869.869 0 0 1 1.667.332ZM294.123 500.076a.869.869 0 0 1-.535.8.873.873 0 0 1-.943-.188.86.86 0 0 1 .131-1.333.866.866 0 0 1 1.347.721ZM323.752 500.076a.869.869 0 0 1-.535.8.873.873 0 0 1-.944-.188.868.868 0 0 1 1.225-1.225.878.878 0 0 1 .254.613ZM327.652 500.076a.869.869 0 0 1-.534.8.862.862 0 0 1-1.181-.631.86.86 0 0 1 .368-.89.866.866 0 0 1 1.347.721ZM297.914 500.076a.861.861 0 0 1-.534.8.862.862 0 0 1-1.181-.631.876.876 0 0 1 .049-.501.868.868 0 0 1 1.666.332ZM316.721 500.076a.861.861 0 0 1-.534.8.862.862 0 0 1-1.181-.631.868.868 0 0 1 .849-1.035c.23 0 .45.091.613.253a.87.87 0 0 1 .253.613Z" fill="#154D72"/><path d="M301.767 500.076a.869.869 0 0 1-.535.8.873.873 0 0 1-.943-.188.866.866 0 1 1 1.478-.612ZM305.593 500.076a.869.869 0 0 1-.535.8.873.873 0 0 1-.944-.188.873.873 0 0 1-.188-.944.869.869 0 0 1 1.667.332ZM313.353 500.076a.871.871 0 0 1-.536.811.877.877 0 0 1-.954-.187.877.877 0 0 1-.188-.955.872.872 0 0 1 .812-.536.868.868 0 0 1 .866.867ZM330.823 500.076a.869.869 0 0 1-.535.8.873.873 0 0 1-.943-.188.866.866 0 1 1 1.478-.612Z" fill="#103654"/><path d="M309.418 500.076a.869.869 0 0 1-.535.8.873.873 0 0 1-.943-.188.866.866 0 1 1 1.478-.612ZM320.363 500.076a.869.869 0 0 1-.535.8.873.873 0 0 1-.944-.188.868.868 0 0 1 1.225-1.225.87.87 0 0 1 .254.613Z" fill="#FF9B05"/><path d="M329.091 504.249a.864.864 0 0 1 1.035-.85.87.87 0 0 1 .68.681.86.86 0 0 1-.849 1.035.864.864 0 0 1-.866-.866ZM326.138 505.115a.866.866 0 1 0 0-1.731.866.866 0 0 0 0 1.731ZM321.44 504.249a.882.882 0 0 1 .144-.488.88.88 0 0 1 .897-.375.865.865 0 0 1 .688.687.868.868 0 0 1-.375.898.882.882 0 0 1-1.1-.11.864.864 0 0 1-.254-.612ZM317.621 504.249a.864.864 0 0 1 1.035-.85.872.872 0 0 1 .681.681.873.873 0 0 1-.368.889.87.87 0 0 1-1.094-.108.868.868 0 0 1-.254-.612ZM287.986 504.249a.875.875 0 0 1 1.487-.627.873.873 0 0 1-.948 1.429.867.867 0 0 1-.539-.802ZM284.092 504.249a.864.864 0 0 1 1.035-.85.87.87 0 0 1 .68.681.86.86 0 0 1-.849 1.035.873.873 0 0 1-.612-.254.862.862 0 0 1-.254-.612ZM314.662 505.115a.866.866 0 1 0 0-1.733.866.866 0 0 0 0 1.733ZM295.889 505.115a.866.866 0 1 0 0-1.733.866.866 0 0 0 0 1.733Z" fill="#154D72"/><path d="M309.97 504.249a.864.864 0 0 1 1.035-.85.872.872 0 0 1 .681.681.873.873 0 0 1-.368.889.87.87 0 0 1-1.094-.108.868.868 0 0 1-.254-.612ZM306.145 504.249a.876.876 0 0 1 1.039-.864.88.88 0 0 1 .449.237.879.879 0 0 1 .192.952.872.872 0 0 1-.807.541.867.867 0 0 1-.873-.866ZM299.258 505.115a.866.866 0 1 0 0-1.733.866.866 0 0 0 0 1.733ZM280.914 504.249a.875.875 0 0 1 1.73-.176.877.877 0 0 1-.864 1.042.864.864 0 0 1-.866-.866Z" fill="#103654"/><path d="M302.326 504.249a.864.864 0 0 1 1.035-.85.872.872 0 0 1 .681.681.865.865 0 0 1-.369.889.864.864 0 0 1-1.347-.72ZM291.375 504.249a.864.864 0 0 1 1.035-.85.87.87 0 0 1 .68.681.86.86 0 0 1-.849 1.035.864.864 0 0 1-.866-.866Z" fill="#FF9B05"/><path d="M282.653 507.965a.87.87 0 0 1-1.039.864.877.877 0 0 1-.689-.684.872.872 0 0 1 .855-1.046.867.867 0 0 1 .873.866ZM286.472 507.965a.864.864 0 0 1-1.048.846.863.863 0 0 1-.671-.699.861.861 0 0 1 .397-.884.863.863 0 0 1 1.08.137.86.86 0 0 1 .242.6ZM290.298 507.965a.867.867 0 1 1-1.733 0 .867.867 0 0 1 1.733 0ZM294.123 507.965a.867.867 0 1 1-1.733 0 .867.867 0 0 1 1.733 0ZM323.752 507.965a.867.867 0 1 1-1.733 0 .867.867 0 0 1 1.733 0ZM327.652 507.965a.867.867 0 1 1-1.733 0 .867.867 0 0 1 1.733 0ZM297.914 507.965c0 .171-.05.339-.146.481a.869.869 0 0 1-1.332.132.869.869 0 0 1 .131-1.333.869.869 0 0 1 1.094.108.867.867 0 0 1 .253.612ZM316.721 507.965c0 .171-.05.339-.146.481a.869.869 0 0 1-1.332.132.869.869 0 0 1 .131-1.333.869.869 0 0 1 1.094.108.867.867 0 0 1 .253.612Z" fill="#154D72"/><path d="M301.767 507.965a.867.867 0 1 1-1.733 0 .867.867 0 0 1 1.733 0ZM305.593 507.965a.867.867 0 1 1-1.733 0 .867.867 0 0 1 1.733 0ZM313.353 507.965a.875.875 0 0 1-1.73.176.877.877 0 0 1 .864-1.042.864.864 0 0 1 .866.866ZM330.823 507.965a.867.867 0 1 1-1.733 0 .867.867 0 0 1 1.733 0Z" fill="#103654"/><path d="M309.418 507.965a.867.867 0 1 1-1.733 0 .867.867 0 0 1 1.733 0ZM320.363 507.965a.867.867 0 1 1-1.733 0 .867.867 0 0 1 1.733 0Z" fill="#FF9B05"/><path d="M276.871 498.862h-15.104v2.325h15.104v-2.325ZM276.871 502.858h-15.104v2.325h15.104v-2.325ZM276.871 506.99h-15.104v2.325h15.104v-2.325ZM351.287 490.454l-16.216.027v-19.032l16.216-.027v19.032ZM351.287 513.789l-16.216.034v-19.032l16.216-.034v19.032ZM277.423 460.184h-15.104v2.325h15.104v-2.325ZM351.287 467.31l-16.216.034v-19.182l16.216-.027v19.175Z" fill="#154D72"/><path d="M335.63 448.135h-76.714v19.032h76.714v-19.032Z" fill="#046097"/><path d="M277.423 452.056h-15.104v2.325h15.104v-2.325ZM277.423 456.052h-15.104v2.325h15.104v-2.325ZM283.397 453.481a.867.867 0 1 1-1.733 0 .867.867 0 0 1 1.733 0ZM287.222 453.481a.882.882 0 0 1-.144.488.88.88 0 0 1-.897.375.876.876 0 0 1-.688-.688.876.876 0 0 1 1.475-.787.862.862 0 0 1 .254.612ZM291.041 453.481a.867.867 0 1 1-1.733 0 .867.867 0 0 1 1.733 0ZM294.866 453.481a.867.867 0 1 1-1.733 0 .867.867 0 0 1 1.733 0ZM324.509 453.481a.867.867 0 1 1-1.733 0 .867.867 0 0 1 1.733 0ZM328.395 453.481a.866.866 0 1 1-1.731.003.866.866 0 0 1 1.731-.003ZM298.692 453.481a.867.867 0 1 1-1.733 0 .867.867 0 0 1 1.733 0ZM317.471 453.481a.87.87 0 0 1-1.039.864.871.871 0 0 1-.689-.684.874.874 0 0 1 .855-1.046.867.867 0 0 1 .873.866Z" fill="#154D72"/><path d="M302.517 453.481a.875.875 0 0 1-1.487.626.866.866 0 0 1-.193-.952.874.874 0 0 1 .807-.54.867.867 0 0 1 .873.866ZM306.336 453.481a.867.867 0 1 1-1.733 0 .867.867 0 0 1 1.733 0ZM314.096 453.481a.867.867 0 1 1-1.733 0 .867.867 0 0 1 1.733 0ZM331.566 453.481a.867.867 0 1 1-1.733 0 .867.867 0 0 1 1.733 0Z" fill="#103654"/><path d="M310.189 453.481a.867.867 0 1 1-1.733 0 .867.867 0 0 1 1.733 0ZM321.099 453.481a.867.867 0 1 1-1.733 0 .867.867 0 0 1 1.733 0Z" fill="#FF9B05"/><path d="M329.834 457.634a.867.867 0 1 1 1.733 0 .867.867 0 0 1-1.733 0ZM326.882 458.5a.866.866 0 1 0 0-1.733.866.866 0 0 0 0 1.733ZM322.19 457.634a.867.867 0 1 1 1.733 0 .867.867 0 0 1-1.733 0ZM318.371 457.634a.867.867 0 1 1 1.733 0 .867.867 0 0 1-1.733 0ZM288.736 457.634a.867.867 0 1 1 1.733 0 .867.867 0 0 1-1.733 0ZM284.835 457.634a.867.867 0 1 1 1.733 0 .867.867 0 0 1-1.733 0ZM314.539 457.634a.867.867 0 1 1 1.733 0 .867.867 0 0 1-1.733 0ZM296.632 458.5a.866.866 0 1 0 0-1.731.866.866 0 0 0 0 1.731Z" fill="#154D72"/><path d="M310.721 457.634c0-.171.05-.339.146-.481a.868.868 0 0 1 1.332-.132.869.869 0 0 1-.131 1.333.869.869 0 0 1-1.094-.108.865.865 0 0 1-.253-.612ZM307.761 458.5a.866.866 0 1 0 0-1.733.866.866 0 0 0 0 1.733ZM299.135 457.634a.867.867 0 1 1 1.733 0 .867.867 0 0 1-1.733 0ZM282.531 458.5a.866.866 0 1 0 0-1.733.866.866 0 0 0 0 1.733Z" fill="#103654"/><path d="M303.07 457.634a.866.866 0 1 1 1.731-.003.866.866 0 0 1-1.731.003ZM292.125 457.634a.867.867 0 1 1 1.733 0 .867.867 0 0 1-1.733 0Z" fill="#FF9B05"/><path d="M283.397 461.35a.864.864 0 0 1-1.035.85.872.872 0 0 1-.681-.681.865.865 0 0 1 .368-.889.87.87 0 0 1 1.094.108.868.868 0 0 1 .254.612ZM287.222 461.35a.882.882 0 0 1-.144.488.88.88 0 0 1-.897.375.868.868 0 0 1-.688-.687.868.868 0 0 1 .376-.898.876.876 0 0 1 1.099.11.864.864 0 0 1 .254.612ZM291.041 461.35a.864.864 0 0 1-1.035.85.872.872 0 0 1-.681-.681.865.865 0 0 1 .369-.889.864.864 0 0 1 1.347.72ZM294.866 461.35a.864.864 0 0 1-1.035.85.87.87 0 0 1-.68-.681.864.864 0 0 1 .849-1.035.866.866 0 0 1 .866.866ZM324.509 461.35a.864.864 0 0 1-1.035.85.872.872 0 0 1-.681-.681.873.873 0 0 1 .368-.889.87.87 0 0 1 1.094.108.868.868 0 0 1 .254.612ZM328.395 461.35a.863.863 0 0 1-1.034.85.872.872 0 0 1-.681-.681.873.873 0 0 1 .368-.889.869.869 0 0 1 1.094.108.867.867 0 0 1 .253.612ZM298.692 461.35a.864.864 0 0 1-1.035.85.872.872 0 0 1-.681-.681.865.865 0 0 1 .369-.889.864.864 0 0 1 1.347.72ZM317.471 461.35a.867.867 0 0 1-.534.811.865.865 0 0 1-.953-.184.873.873 0 0 1 .948-1.429.867.867 0 0 1 .539.802Z" fill="#154D72"/><path d="M302.517 461.35a.875.875 0 0 1-1.487.627.873.873 0 0 1 .948-1.429.867.867 0 0 1 .539.802ZM306.336 461.35a.864.864 0 0 1-1.035.85.876.876 0 0 1-.444-.237.865.865 0 0 1 .132-1.333.864.864 0 0 1 1.347.72ZM314.096 461.35a.864.864 0 0 1-1.035.85.876.876 0 0 1-.444-.237.865.865 0 0 1 .132-1.333.867.867 0 0 1 1.347.72ZM331.566 461.35a.864.864 0 0 1-1.035.85.87.87 0 0 1-.68-.681.864.864 0 0 1 .849-1.035.866.866 0 0 1 .866.866Z" fill="#103654"/><path d="M310.189 461.35a.864.864 0 0 1-1.035.85.872.872 0 0 1-.681-.681.873.873 0 0 1 .368-.889.87.87 0 0 1 1.094.108.868.868 0 0 1 .254.612ZM321.099 461.35a.864.864 0 0 1-1.035.85.87.87 0 0 1-.68-.681.873.873 0 0 1 .849-1.035.864.864 0 0 1 .866.866ZM321.733 389.464l13.079-31.552c.6-1.439-.15-2.605-1.671-2.605h-2.632c-.223.027-.45.008-.666-.055a1.684 1.684 0 0 1-1.209-1.465l-.089-1.16a1.67 1.67 0 0 0-.618-1.151 1.684 1.684 0 0 0-1.257-.362h-12.499a4.393 4.393 0 0 0-2.898 1.282l-1.016.981a4.34 4.34 0 0 1-2.892 1.282h-15.922a4.436 4.436 0 0 0-3.798 2.605l-12.956 32.2h47.044Z" fill="#FF9B05"/><path opacity=".3" d="m321.733 389.464 13.079-31.552c.6-1.439-.15-2.605-1.671-2.605h-2.632c-.223.027-.45.008-.666-.055a1.684 1.684 0 0 1-1.209-1.465l-.089-1.16a1.67 1.67 0 0 0-.618-1.151 1.684 1.684 0 0 0-1.257-.362h-12.499a4.393 4.393 0 0 0-2.898 1.282l-1.016.981a4.34 4.34 0 0 1-2.892 1.282h-15.922a4.436 4.436 0 0 0-3.798 2.605l-12.956 32.2h47.044Z" fill="#103654"/><path d="m323.895 378.744 4.937-19.093c.32-1.255-.498-2.516-1.644-2.516h-38.657a1.763 1.763 0 0 0-1.65 1.418l-7.18 28.729c-.314 1.261.191 2.045 1.363 2.004h38.869a1.755 1.755 0 0 0 1.051-.43c.294-.255.495-.6.572-.981l2.339-9.131Z" fill="#103654"/><path d="m321.229 388.598 2.1-30.004a1.851 1.851 0 0 0-.494-1.382 1.843 1.843 0 0 0-1.347-.582h-40.055v31.995l39.796-.027Z" fill="#154D72"/><path d="m321.672 389.287-4.774-30.959a2.209 2.209 0 0 0-2.175-1.725h-40.512a2.186 2.186 0 0 0-2.045 3.048l8.748 28.367 40.758 1.269Z" fill="#046097"/><path d="m321.733 389.45-9.826-28.994a2.913 2.913 0 0 0-2.728-2.046h-41.773a2.049 2.049 0 0 0-1.628.889 2.05 2.05 0 0 0-.241 1.838l9.138 28.32 47.058-.007Z" fill="#FF9B05"/><path d="M709.785 513.823c0 .102-101.372.177-226.393.177-125.02 0-226.392-.075-226.392-.177 0-.103 101.351-.178 226.392-.178s226.393.082 226.393.178Z" fill="#154D72"/></svg>