<svg width="314" height="258" fill="none" xmlns="http://www.w3.org/2000/svg"><path fill-rule="evenodd" clip-rule="evenodd" d="M125.84 216.474h62.32l4.195 32.231h-70.71l4.195-32.231z" fill="#88C6EC"/><path fill-rule="evenodd" clip-rule="evenodd" d="M126.439 216.474h61.122l4.195 32.231h-69.512l4.195-32.231z" fill="#8DCDF5" filter="url(#filter0_i)"/><path fill-rule="evenodd" clip-rule="evenodd" d="M121.67 248.705h70.66l9.522 5.972a1.8 1.8 0 0 1-.955 3.323h-87.794a1.799 1.799 0 0 1-.954-3.323l9.521-5.972z" fill="#BAE1FA"/><path fill-rule="evenodd" clip-rule="evenodd" d="M121.819 249.305h70.361l9.351 5.88a1.2 1.2 0 0 1-.637 2.215h-87.788a1.2 1.2 0 0 1-.638-2.215l9.351-5.88z" fill="#BAE1FA"/><path fill-rule="evenodd" clip-rule="evenodd" d="M7.49 0h299.02A7.493 7.493 0 0 1 314 7.496v201.483a7.493 7.493 0 0 1-7.49 7.495H7.49A7.493 7.493 0 0 1 0 208.979V7.496A7.493 7.493 0 0 1 7.49 0z" fill="url(#paint0_linear)"/><path fill-rule="evenodd" clip-rule="evenodd" d="M.6 187.991H313.4v20.988a6.894 6.894 0 0 1-6.891 6.896H7.49a6.894 6.894 0 0 1-6.89-6.896v-20.988z" fill="#BAE1FA"/><path fill-rule="evenodd" clip-rule="evenodd" d="M7.49.6h299.02a6.894 6.894 0 0 1 6.891 6.896V187.39H.599V7.496A6.894 6.894 0 0 1 7.49.6z" fill="#E3F4FF"/><rect x="151" y="196" width="12" height="12" rx="6" fill="#fff"/><path fill="#fff" d="M13.183 13.192h287.634v161.906H13.183z"/><defs><filter id="filter0_i" x="122.244" y="216.474" width="69.511" height="33.231" filterUnits="userSpaceOnUse" color-interpolation-filters="sRGB"><feFlood flood-opacity="0" result="BackgroundImageFix"/><feBlend in="SourceGraphic" in2="BackgroundImageFix" result="shape"/><feColorMatrix in="SourceAlpha" values="0 0 0 0 0 0 0 0 0 0 0 0 0 0 0 0 0 0 127 0" result="hardAlpha"/><feOffset dy="1"/><feGaussianBlur stdDeviation="30"/><feComposite in2="hardAlpha" operator="arithmetic" k2="-1" k3="1"/><feColorMatrix values="0 0 0 0 0 0 0 0 0 0 0 0 0 0 0 0 0 0 0.05 0"/><feBlend in2="shape" result="effect1_innerShadow"/></filter><linearGradient id="paint0_linear" x1="157" x2="157" y2="216.474" gradientUnits="userSpaceOnUse"><stop stop-color="#70B1E0"/><stop offset="1" stop-color="#BAE1FA"/></linearGradient></defs></svg>