<svg width="314" height="387" fill="none" xmlns="http://www.w3.org/2000/svg"><path d="M310.95 334.117c20 119.999-82.667 130.666-138 152-40 15.421-94.4 41.2-120 46-32 6-64-36-106-128-31.957-70-114-78.001-144-164.001s20-154 82-186 86-56 156-54 160 54 160 184c0 72 96.443 68.66 110 150.001Z" fill="#77BCE8" fill-opacity=".3"/><path d="M-20.05 406.116V267.461c0-1.485.66-2.894 1.802-3.844l107.986-89.829a5 5 0 0 1 6.412.014l107.014 89.816a5 5 0 0 1 1.786 3.83v138.668a5 5 0 0 1-5 5h-215a5 5 0 0 1-5-5Z" fill="#51A9E1"/><path d="M6.95 218.116v164a5 5 0 0 0 5 5h165a5 5 0 0 0 5-5v-164a5 5 0 0 0-5-5h-165a5 5 0 0 0-5 5Z" fill="#fff"/><path d="M36.95 243.116h116" stroke="#51A9E1" stroke-width="6" stroke-linecap="round"/><path d="M36.95 261.116h80" stroke="#77BCE8" stroke-width="6" stroke-linecap="round"/><path d="M36.95 279.116h116" stroke="#51A9E1" stroke-width="6" stroke-linecap="round"/><path d="M36.95 297.116h80" stroke="#77BCE8" stroke-width="6" stroke-linecap="round"/><path d="M-20.05 406.117v-137.04c0-2.32 1.592-4.355 3.9-4.59 13.041-1.332 37.959 2.587 59.1 20.13 19.85 16.472 77.788 81.214 106.965 118.603 2.53 3.242.186 7.897-3.928 7.897H-15.05a5 5 0 0 1-5-5Z" fill="#77BCE8"/><path d="M204.95 406.117v-137.04c0-2.32-1.592-4.355-3.901-4.59-13.041-1.332-37.958 2.587-59.099 20.13-19.852 16.472-77.789 81.214-106.965 118.603-2.53 3.242-.186 7.897 3.927 7.897H199.95a5 5 0 0 0 5-5Z" fill="#77BCE8"/><path d="M-20.05 406.116v-40.879a5 5 0 0 1 2.803-4.492l109.46-53.535a4.999 4.999 0 0 1 4.457.032l105.54 53.486a5 5 0 0 1 2.74 4.46v40.928a5 5 0 0 1-5 5h-215a5 5 0 0 1-5-5Z" fill="#0C1E2B" fill-opacity=".1"/><path d="M-20.05 406.116v-27.104c0-1.791.958-3.445 2.51-4.337l109.945-63.098a5 5 0 0 1 5.06.049l105.057 63.034a5 5 0 0 1 2.428 4.287v27.169a5 5 0 0 1-5 5h-215a5 5 0 0 1-5-5Z" fill="#92C9EC"/><path d="M122.95 376.116c2.666-16 10-48.799 42-51.999 40-4 49.999 38 16 38-29.428 0-42-49.001-16-69.001 26-20 48.401-17.388 69.999-32 17-11.5 26.5-36 7.5-59-31.844-38.548-114.499-9-153.5-46-31-29.41-11-74 34.001-104" stroke="#fff" stroke-width="2" stroke-linecap="round" stroke-dasharray="8 8"/><path d="m116.95 30.859 14.601 4.938 32.638-18.68-47.239 13.742Z" fill="#77BCE8"/><path d="m153.238 52.117-15.245-12.67 25.981-22.33-10.736 35Z" fill="#92C9EC"/><path d="m131.336 35.368 1.289 14.172 5.153-9.877 26.196-22.546-32.638 18.251Z" fill="#51A9E1"/><g opacity=".15" fill="#92C9EC"><path d="m35.181 118.52-4.89 9.149 11.9 3.711a1.607 1.607 0 0 0-.194-.882l-6.134-11.254a2.131 2.131 0 0 0-.682-.724ZM32.408 118.157l-22.819 7.39a2.695 2.695 0 0 0-.94.525l15.218 4.755c1.347.424 2.89-.075 3.44-1.114l6.246-11.706a3.324 3.324 0 0 0-1.145.15ZM7.985 127.328c-.019.293.036.594.194.882l6.134 11.254c.157.289.396.529.681.724l4.892-9.149-11.901-3.711Z"/><path d="m29.625 128.925-.689 1.301c-.916 1.73-3.49 2.564-5.734 1.857l-1.688-.531-4.89 9.149a3.3 3.3 0 0 0 1.144-.149l22.818-7.39c.375-.122.687-.306.94-.526l-11.9-3.711Z"/></g><g opacity=".15" fill="#92C9EC"><path d="m140.205 101.808-9.745 3.403 4.478 7.489c.228-.17.417-.376.535-.621l4.61-9.531a1.32 1.32 0 0 0 .122-.74ZM138.79 100.367l-19.327-5.553a2.773 2.773 0 0 0-.959-.095l5.718 9.583c.504.85 1.811 1.226 2.914.837l12.46-4.359a2.292 2.292 0 0 0-.806-.413ZM117.17 95.189c-.229.17-.417.377-.536.621l-4.609 9.532a1.32 1.32 0 0 0-.122.74l9.745-3.403-4.478-7.49Z"/><path d="m129.127 105.681-1.382.486c-1.838.648-4.017.022-4.857-1.395l-.631-1.065-9.745 3.403c.221.176.489.322.806.413l19.326 5.553c.318.091.644.116.96.094l-4.477-7.489Z"/></g><g opacity=".15" fill="#92C9EC"><path d="m71.71 35.559-8.716 9.389 12.236 6.658c.123-.33.164-.682.085-1.043l-3.08-14.041a2.103 2.103 0 0 0-.524-.963ZM68.685 34.577l-28.471 3.71c-.468.061-.886.207-1.25.405l15.643 8.524c1.384.758 3.31.507 4.293-.56l11.137-12.014a3.919 3.919 0 0 0-1.352-.065ZM37.776 39.981a1.83 1.83 0 0 0-.085 1.042l3.08 14.042c.079.36.268.683.524.963l8.717-9.389-12.236-6.658Z"/><path d="m61.805 46.238-1.232 1.336c-1.639 1.777-4.849 2.196-7.155.932l-1.733-.95-8.717 9.39c.428.094.885.125 1.352.064l28.472-3.71c.467-.061.885-.207 1.25-.404l-12.237-6.658Z"/></g></svg>