<svg width="1921" height="404" viewBox="0 0 1921 404" fill="none" xmlns="http://www.w3.org/2000/svg">
<g style="mix-blend-mode:overlay">
<mask id="path-1-inside-1_190_628" fill="white">
<path d="M1118 196L1052.4 220.568L884 128L607 178L512.303 215.512L287 220L196 155L110 5.00049L86 146L-31 500L277 440L292 390L342 476L357.479 373.483L383.333 366.961L424 429L454.949 396.332L503 470L539.962 366.222L634 482.929L738 459H812H875L922 482.929L949.48 400.547L962 404L983.457 411.756L1044 489L1128 464L1185 489L1240 509L1214 368L1296 414L1397 428H1470H1609L1921 489L1889 209L1894 46.0005L1768 189L1652 243L1380 178L1118 196Z"/>
</mask>
<path d="M1144.29 270.438L1144.12 269.968L1144.54 270.871L1144.29 270.438ZM1380 178L1379.82 177.535L1380.5 177.267V178H1380ZM1118 196L1117.63 195.669L1118.19 195.026L1118.47 195.838L1118 196ZM1052.4 220.568L1052.22 220.099L1052.44 220.019L1052.64 220.129L1052.4 220.568ZM1652 243L1651.88 242.516L1651.9 242.509L1651.93 242.506L1652 243ZM1470 428L1470.36 428.351L1469.96 428.759L1469.6 428.307L1470 428ZM1609 428L1609.49 428.114L1609.34 428.735L1608.77 428.447L1609 428ZM1214 368L1214.21 367.546L1214.58 367.717L1214.49 368.117L1214 368ZM1128 464L1128.37 464.334L1128.15 464.585L1127.83 464.471L1128 464ZM962 404L962.071 404.495L961.888 404.522L961.732 404.422L962 404ZM983.457 411.756L983.287 412.226L983.152 412.177L983.064 412.064L983.457 411.756ZM884 128L883.563 127.757L884.145 126.713L884.48 127.86L884 128ZM984 263L983.961 262.502L984.09 262.492L984.208 262.546L984 263ZM607 178L606.529 177.833L606.704 177.34L607.188 177.537L607 178ZM812 459L812.469 459.172L812.21 459.88L811.659 459.366L812 459ZM875 459L875.351 459.356L875.031 459.673L874.683 459.387L875 459ZM949.48 400.547L949.954 400.705L949.804 401.155L949.347 401.029L949.48 400.547ZM634 482.929L634.333 483.302L633.59 483.966L633.502 482.974L634 482.929ZM628.516 421L628.018 421.045L628.516 421ZM538 215L537.99 214.501L538.065 214.499L538.137 214.52L538 215ZM539.962 366.222L540.433 366.389L540.134 367.231L539.573 366.535L539.962 366.222ZM454.949 396.332L455.312 396.676L454.876 397.136L454.53 396.605L454.949 396.332ZM512.303 215.512L512.119 215.048L512.203 215.014L512.293 215.012L512.303 215.512ZM357.479 373.483L357.974 373.558L357.924 373.887L357.602 373.968L357.479 373.483ZM77 334L76.7659 334.442L75.5519 333.799L76.8954 333.512L77 334ZM287 220L287.173 219.531L287.199 219.541L287.224 219.554L287 220ZM383.333 366.961L383.456 367.446L383.11 367.533L382.915 367.236L383.333 366.961ZM1239.54 509.188L1201.99 416.376L1202.91 416.001L1240.46 508.813L1239.54 509.188ZM1201.99 416.376L1192.15 392.061L1193.08 391.686L1202.91 416.001L1201.99 416.376ZM1192.15 392.061L1184.19 372.381L1185.11 372.006L1193.08 391.686L1192.15 392.061ZM1184.19 372.381L1175.46 350.805L1176.39 350.43L1185.11 372.006L1184.19 372.381ZM1175.46 350.805L1143.17 271.001L1144.1 270.626L1176.39 350.43L1175.46 350.805ZM1143.17 271.001L1143.12 270.881L1144.05 270.506L1144.1 270.626L1143.17 271.001ZM1143.42 270.224L1144.12 269.968L1144.46 270.908L1143.76 271.164L1143.42 270.224ZM1143.4 270.228L1379.82 177.535L1380.18 178.466L1143.77 271.159L1143.4 270.228ZM1380.5 178V312H1379.5V178H1380.5ZM1379.91 312.493L1143.7 271.221L1143.87 270.236L1380.09 311.508L1379.91 312.493ZM1143.7 271.221L1143.5 271.186L1143.67 270.201L1143.87 270.236L1143.7 271.221ZM1143.11 270.856L1117.53 196.163L1118.47 195.838L1144.06 270.532L1143.11 270.856ZM1118.37 196.332L1082.29 237.124L1081.54 236.461L1117.63 195.669L1118.37 196.332ZM1082.29 237.124L1047.1 276.906L1046.35 276.243L1081.54 236.461L1082.29 237.124ZM1047.1 276.906L1037.61 287.634L1036.86 286.971L1046.35 276.243L1047.1 276.906ZM1037.61 287.634L1001.63 328.309L1000.88 327.647L1036.86 286.971L1037.61 287.634ZM1001.63 328.309L957.375 378.332L956.625 377.669L1000.88 327.647L1001.63 328.309ZM956.751 377.567L1006.67 348.898L1007.17 349.765L957.249 378.434L956.751 377.567ZM1006.67 348.898L1080.27 306.629L1080.77 307.497L1007.17 349.765L1006.67 348.898ZM1080.27 306.629L1143.39 270.38L1143.88 271.247L1080.77 307.497L1080.27 306.629ZM1143.39 270.38L1143.54 270.295L1144.03 271.162L1143.88 271.247L1143.39 270.38ZM1143.54 270.295L1144.04 270.004L1144.54 270.871L1144.03 271.162L1143.54 270.295ZM1143.62 271.193L1046.75 277.074L1046.69 276.076L1143.56 270.195L1143.62 271.193ZM1046.75 277.074L1017.64 278.841L1017.58 277.843L1046.69 276.076L1046.75 277.074ZM1017.64 278.841L988.572 280.606L988.511 279.608L1017.58 277.843L1017.64 278.841ZM988.572 280.606L979.89 281.133L979.83 280.135L988.511 279.608L988.572 280.606ZM979.89 281.133L974.026 281.489L973.965 280.491L979.83 280.135L979.89 281.133ZM974.026 281.489L929.493 284.193L929.432 283.195L973.965 280.491L974.026 281.489ZM929.493 284.193L912.332 285.235L912.272 284.237L929.432 283.195L929.493 284.193ZM912.332 285.235L875.03 287.5L874.97 286.501L912.272 284.237L912.332 285.235ZM874.825 286.532L924.789 267.821L925.14 268.758L875.175 287.469L874.825 286.532ZM924.789 267.821L927.032 266.981L927.382 267.918L925.14 268.758L924.789 267.821ZM927.032 266.981L1052.22 220.099L1052.57 221.036L927.382 267.918L927.032 266.981ZM1652.36 243.351L1516.59 381.359L1515.87 380.657L1651.64 242.65L1652.36 243.351ZM1516.59 381.359L1470.36 428.351L1469.64 427.65L1515.87 380.657L1516.59 381.359ZM1608.51 427.887L1651.51 242.887L1652.49 243.114L1609.49 428.114L1608.51 427.887ZM1652.12 243.485L1380.12 312.485L1379.88 311.516L1651.88 242.516L1652.12 243.485ZM1380.23 311.554L1516.46 380.562L1516 381.454L1379.77 312.447L1380.23 311.554ZM1516.46 380.562L1609.23 427.554L1608.77 428.447L1516 381.454L1516.46 380.562ZM1469.6 428.307L1379.6 312.307L1380.4 311.694L1470.4 427.694L1469.6 428.307ZM1380.49 311.928L1397.49 427.928L1396.51 428.073L1379.51 312.073L1380.49 311.928ZM1295.61 413.683L1379.61 311.683L1380.39 312.318L1296.39 414.318L1295.61 413.683ZM1214.37 368.334L1192.99 392.207L1192.24 391.54L1213.63 367.667L1214.37 368.334ZM1192.99 392.207L1128.37 464.334L1127.63 463.667L1192.24 391.54L1192.99 392.207ZM1214.49 368.117L1202.94 416.305L1201.96 416.072L1213.51 367.884L1214.49 368.117ZM1202.94 416.305L1185.49 489.117L1184.51 488.884L1201.96 416.072L1202.94 416.305ZM1214.07 368.495L1184.72 372.688L1184.58 371.698L1213.93 367.506L1214.07 368.495ZM1184.72 372.688L1019.33 396.315L1019.19 395.325L1184.58 371.698L1184.72 372.688ZM1019.33 396.315L998.438 399.3L998.297 398.31L1019.19 395.325L1019.33 396.315ZM998.438 399.3L975.901 402.52L975.759 401.53L998.297 398.31L998.438 399.3ZM975.901 402.52L962.071 404.495L961.929 403.506L975.759 401.53L975.901 402.52ZM983.627 411.286L1027.91 427.292L1027.57 428.233L983.287 412.226L983.627 411.286ZM1027.91 427.292L1128.17 463.53L1127.83 464.471L1027.57 428.233L1027.91 427.292ZM874.501 286.972L875.38 271.443L876.378 271.499L875.499 287.029L874.501 286.972ZM875.38 271.443L883.501 127.972L884.499 128.029L876.378 271.499L875.38 271.443ZM1052.64 220.129L1082.16 236.355L1081.67 237.231L1052.16 221.006L1052.64 220.129ZM1082.16 236.355L1143.83 270.256L1143.35 271.132L1081.67 237.231L1082.16 236.355ZM984.145 263.479L928.492 280.35L928.201 279.393L983.855 262.522L984.145 263.479ZM928.492 280.35L912.447 285.214L912.157 284.257L928.201 279.393L928.492 280.35ZM912.447 285.214L881.546 294.582L881.255 293.625L912.157 284.257L912.447 285.214ZM881.546 294.582L875.145 296.522L874.855 295.565L881.255 293.625L881.546 294.582ZM875.145 296.522L871.419 297.652L871.129 296.695L874.855 295.565L875.145 296.522ZM871.419 297.652L854.99 302.632L854.699 301.675L871.129 296.695L871.419 297.652ZM854.99 302.632L819.095 313.514L818.805 312.557L854.699 301.675L854.99 302.632ZM819.095 313.514L792.028 321.719L791.737 320.762L818.805 312.557L819.095 313.514ZM792.028 321.719L773.297 327.397L773.007 326.44L791.737 320.762L792.028 321.719ZM773.297 327.397L730.145 340.479L729.855 339.522L773.007 326.44L773.297 327.397ZM729.574 339.738L766.574 279.738L767.426 280.263L730.426 340.263L729.574 339.738ZM766.961 279.502L800.733 276.856L800.811 277.853L767.039 280.499L766.961 279.502ZM800.733 276.856L843.087 273.538L843.165 274.535L800.811 277.853L800.733 276.856ZM843.087 273.538L875.84 270.972L875.918 271.969L843.165 274.535L843.087 273.538ZM875.84 270.972L924.736 267.142L924.814 268.139L875.918 271.969L875.84 270.972ZM924.736 267.142L927.168 266.951L927.246 267.948L924.814 268.139L924.736 267.142ZM927.168 266.951L983.961 262.502L984.039 263.499L927.246 267.948L927.168 266.951ZM984.487 263.115L980.347 280.748L979.373 280.52L983.513 262.886L984.487 263.115ZM980.347 280.748L957.487 378.115L956.513 377.886L979.373 280.52L980.347 280.748ZM957.027 378.5L923.987 380.31L923.933 379.312L956.973 377.501L957.027 378.5ZM923.987 380.31L918.912 380.588L918.857 379.59L923.933 379.312L923.987 380.31ZM918.912 380.588L882.567 382.58L882.513 381.581L918.857 379.59L918.912 380.588ZM882.567 382.58L875.027 382.993L874.973 381.994L882.513 381.581L882.567 382.58ZM875.027 382.993L839.334 384.949L839.279 383.95L874.973 381.994L875.027 382.993ZM839.334 384.949L830.344 385.441L830.289 384.443L839.279 383.95L839.334 384.949ZM830.344 385.441L787.639 387.781L787.585 386.783L830.289 384.443L830.344 385.441ZM787.639 387.781L738.027 390.5L737.973 389.501L787.585 386.783L787.639 387.781ZM737.575 390.263L717.649 358.018L718.5 357.492L738.425 389.738L737.575 390.263ZM717.649 358.018L706.279 339.616L707.129 339.091L718.5 357.492L717.649 358.018ZM706.279 339.616L691.268 315.324L692.118 314.798L707.129 339.091L706.279 339.616ZM691.268 315.324L680.902 298.549L681.753 298.023L692.118 314.798L691.268 315.324ZM680.902 298.549L648.977 246.884L649.828 246.358L681.753 298.023L680.902 298.549ZM648.977 246.884L606.575 178.263L607.425 177.738L649.828 246.358L648.977 246.884ZM884.437 128.244L810.542 260.85L809.668 260.363L883.563 127.757L884.437 128.244ZM810.542 260.85L801.209 277.598L800.335 277.111L809.668 260.363L810.542 260.85ZM801.209 277.598L791.284 295.408L790.411 294.922L800.335 277.111L801.209 277.598ZM791.284 295.408L784.227 308.072L783.354 307.585L790.411 294.922L791.284 295.408ZM784.227 308.072L773.589 327.162L772.716 326.675L783.354 307.585L784.227 308.072ZM773.589 327.162L761.521 348.819L760.647 348.332L772.716 326.675L773.589 327.162ZM761.521 348.819L755.045 360.44L754.172 359.953L760.647 348.332L761.521 348.819ZM755.045 360.44L738.437 390.244L737.563 389.757L754.172 359.953L755.045 360.44ZM737.7 389.601L765.321 368.835L765.922 369.634L738.3 390.4L737.7 389.601ZM765.321 368.835L784.205 354.637L784.806 355.436L765.922 369.634L765.321 368.835ZM784.205 354.637L803.307 340.275L803.908 341.074L784.806 355.436L784.205 354.637ZM803.307 340.275L830.255 320.015L830.856 320.815L803.908 341.074L803.307 340.275ZM830.255 320.015L854.544 301.754L855.145 302.554L830.856 320.815L830.255 320.015ZM854.544 301.754L874.7 286.601L875.3 287.4L855.145 302.554L854.544 301.754ZM875.469 287.172L871.743 297.345L870.804 297.001L874.531 286.829L875.469 287.172ZM871.743 297.345L857.146 337.198L856.207 336.854L870.804 297.001L871.743 297.345ZM857.146 337.198L844.532 371.638L843.593 371.294L856.207 336.854L857.146 337.198ZM844.532 371.638L839.776 384.621L838.837 384.277L843.593 371.294L844.532 371.638ZM839.776 384.621L836.268 394.199L835.329 393.855L838.837 384.277L839.776 384.621ZM836.268 394.199L827.03 419.419L826.091 419.075L835.329 393.855L836.268 394.199ZM827.03 419.419L812.469 459.172L811.531 458.829L826.091 419.075L827.03 419.419ZM874.5 459V382.494H875.5V459H874.5ZM874.5 382.494V380H875.5V382.494H874.5ZM874.5 380V348.677H875.5V380H874.5ZM874.5 348.677V296.044H875.5V348.677H874.5ZM874.5 296.044V287H875.5V296.044H874.5ZM875.371 286.666L881.772 293.769L881.029 294.438L874.629 287.335L875.371 286.666ZM881.772 293.769L934.52 352.307L933.777 352.976L881.029 294.438L881.772 293.769ZM934.52 352.307L957.371 377.666L956.629 378.335L933.777 352.976L934.52 352.307ZM984.437 263.243L974.432 281.233L973.559 280.747L983.563 262.757L984.437 263.243ZM974.432 281.233L944.714 334.672L943.84 334.186L973.559 280.747L974.432 281.233ZM944.714 334.672L934.586 352.884L933.712 352.398L943.84 334.186L944.714 334.672ZM934.586 352.884L920.762 377.742L919.888 377.256L933.712 352.398L934.586 352.884ZM920.762 377.742L919.321 380.332L918.448 379.846L919.888 377.256L920.762 377.742ZM919.321 380.332L913.527 390.751L912.653 390.265L918.448 379.846L919.321 380.332ZM913.527 390.751L875.437 459.243L874.563 458.757L912.653 390.265L913.527 390.751ZM961.732 404.422L950.452 397.25L950.988 396.406L962.268 403.579L961.732 404.422ZM950.452 397.25L942.677 392.306L943.214 391.462L950.988 396.406L950.452 397.25ZM942.677 392.306L923.692 380.233L924.228 379.389L943.214 391.462L942.677 392.306ZM923.692 380.233L920.056 377.921L920.593 377.077L924.228 379.389L923.692 380.233ZM920.056 377.921L874.732 349.099L875.268 348.255L920.593 377.077L920.056 377.921ZM874.732 349.099L856.409 337.448L856.945 336.604L875.268 348.255L874.732 349.099ZM856.409 337.448L830.287 320.837L830.824 319.993L856.945 336.604L856.409 337.448ZM830.287 320.837L818.682 313.457L819.218 312.613L830.824 319.993L830.287 320.837ZM818.682 313.457L790.579 295.587L791.116 294.743L819.218 312.613L818.682 313.457ZM790.579 295.587L766.732 280.422L767.268 279.579L791.116 294.743L790.579 295.587ZM767.428 279.742L784.218 307.571L783.362 308.087L766.572 280.259L767.428 279.742ZM784.218 307.571L792.311 320.983L791.454 321.499L783.362 308.087L784.218 307.571ZM792.311 320.983L804.036 340.416L803.18 340.933L791.454 321.499L792.311 320.983ZM804.036 340.416L818.246 363.968L817.39 364.484L803.18 340.933L804.036 340.416ZM818.246 363.968L830.745 384.684L829.889 385.2L817.39 364.484L818.246 363.968ZM830.745 384.684L836.226 393.769L835.37 394.286L829.889 385.2L830.745 384.684ZM836.226 393.769L875.428 458.742L874.572 459.259L835.37 394.286L836.226 393.769ZM730.317 339.614L754.926 359.81L754.291 360.583L729.683 340.387L730.317 339.614ZM754.926 359.81L765.938 368.848L765.304 369.621L754.291 360.583L754.926 359.81ZM765.938 368.848L787.929 386.896L787.295 387.669L765.304 369.621L765.938 368.848ZM787.929 386.896L826.878 418.86L826.244 419.633L787.295 387.669L787.929 386.896ZM826.878 418.86L875.317 458.614L874.683 459.387L826.244 419.633L826.878 418.86ZM730.133 339.518L761.217 348.093L760.951 349.057L729.867 340.482L730.133 339.518ZM761.217 348.093L784.638 354.554L784.373 355.518L760.951 349.057L761.217 348.093ZM784.638 354.554L817.951 363.744L817.685 364.708L784.373 355.518L784.638 354.554ZM817.951 363.744L844.195 370.984L843.929 371.948L817.685 364.708L817.951 363.744ZM844.195 370.984L875.133 379.518L874.867 380.482L843.929 371.948L844.195 370.984ZM875.133 379.518L882.673 381.598L882.407 382.562L874.867 380.482L875.133 379.518ZM882.673 381.598L913.223 390.026L912.957 390.99L882.407 382.562L882.673 381.598ZM913.223 390.026L937.649 396.764L937.384 397.728L912.957 390.99L913.223 390.026ZM937.649 396.764L949.612 400.065L949.347 401.029L937.384 397.728L937.649 396.764ZM957.351 378.356L943.297 392.239L942.594 391.528L956.649 377.645L957.351 378.356ZM943.297 392.239L937.868 397.602L937.165 396.891L942.594 391.528L943.297 392.239ZM937.868 397.602L875.351 459.356L874.649 458.645L937.165 396.891L937.868 397.602ZM949.005 400.388L950.246 396.669L951.194 396.986L949.954 400.705L949.005 400.388ZM950.246 396.669L956.526 377.842L957.474 378.159L951.194 396.986L950.246 396.669ZM957.394 377.692L976.223 401.716L975.436 402.333L956.606 378.309L957.394 377.692ZM976.223 401.716L983.851 411.448L983.064 412.064L975.436 402.333L976.223 401.716ZM1127.78 464.447L1023.17 411.839L1023.62 410.946L1128.22 463.554L1127.78 464.447ZM1023.17 411.839L998.143 399.252L998.592 398.358L1023.62 410.946L1023.17 411.839ZM998.143 399.252L956.775 378.447L957.225 377.554L998.592 398.358L998.143 399.252ZM984.483 262.872L989.025 279.979L988.058 280.235L983.517 263.129L984.483 262.872ZM989.025 279.979L1001.73 327.85L1000.77 328.106L988.058 280.235L989.025 279.979ZM1001.73 327.85L1007.4 349.203L1006.44 349.459L1000.77 328.106L1001.73 327.85ZM1007.4 349.203L1019.75 395.692L1018.78 395.949L1006.44 349.459L1007.4 349.203ZM1019.75 395.692L1023.88 411.264L1022.91 411.521L1018.78 395.949L1019.75 395.692ZM1023.88 411.264L1028.23 427.634L1027.26 427.891L1022.91 411.521L1023.88 411.264ZM1028.23 427.634L1044.48 488.872L1043.52 489.129L1027.26 427.891L1028.23 427.634ZM633.667 482.557L737.667 389.628L738.333 390.373L634.333 483.302L633.667 482.557ZM607.498 177.956L612.638 236L611.641 236.089L606.502 178.045L607.498 177.956ZM612.638 236L615.196 264.89L614.199 264.978L611.641 236.089L612.638 236ZM615.196 264.89L619.33 311.581L618.334 311.669L614.199 264.978L615.196 264.89ZM619.33 311.581L621.574 336.931L620.578 337.019L618.334 311.669L619.33 311.581ZM621.574 336.931L629.015 420.956L628.018 421.045L620.578 337.019L621.574 336.931ZM629.015 420.956L634.498 482.885L633.502 482.974L628.018 421.045L629.015 420.956ZM738.136 390.482L686.788 405.021L686.515 404.059L737.864 389.519L738.136 390.482ZM686.788 405.021L628.653 421.482L628.38 420.519L686.515 404.059L686.788 405.021ZM633.585 482.651L686.236 404.261L687.066 404.818L634.415 483.208L633.585 482.651ZM686.236 404.261L717.66 357.476L718.49 358.034L687.066 404.818L686.236 404.261ZM717.66 357.476L729.585 339.722L730.415 340.279L718.49 358.034L717.66 357.476ZM729.727 340.42L691.42 315.48L691.966 314.642L730.273 339.581L729.727 340.42ZM691.42 315.48L669.457 301.181L670.002 300.343L691.966 314.642L691.42 315.48ZM669.457 301.181L614.425 265.353L614.97 264.515L670.002 300.343L669.457 301.181ZM614.425 265.353L583.042 244.921L583.587 244.083L614.97 264.515L614.425 265.353ZM583.042 244.921L537.727 215.42L538.273 214.581L583.587 244.083L583.042 244.921ZM538.137 214.52L588.833 228.909L588.56 229.871L537.863 215.481L538.137 214.52ZM588.833 228.909L612.276 235.563L612.003 236.525L588.56 229.871L588.833 228.909ZM612.276 235.563L649.539 246.14L649.266 247.102L612.003 236.525L612.276 235.563ZM649.539 246.14L767.137 279.519L766.863 280.481L649.266 247.102L649.539 246.14ZM767.104 280.489L681.432 298.775L681.223 297.797L766.896 279.512L767.104 280.489ZM681.432 298.775L669.834 301.251L669.625 300.273L681.223 297.797L681.432 298.775ZM669.834 301.251L618.936 312.114L618.727 311.136L669.625 300.273L669.834 301.251ZM618.936 312.114L554.623 325.841L554.414 324.863L618.727 311.136L618.936 312.114ZM554.623 325.841L514.104 334.489L513.896 333.512L554.414 324.863L554.623 325.841ZM513.51 333.902L537.51 214.902L538.49 215.099L514.49 334.099L513.51 333.902ZM607.471 178.168L589.168 229.558L588.226 229.223L606.529 177.833L607.471 178.168ZM589.168 229.558L583.786 244.67L582.844 244.334L588.226 229.223L589.168 229.558ZM583.786 244.67L554.99 325.52L554.048 325.185L582.844 244.334L583.786 244.67ZM554.99 325.52L551.543 335.198L550.601 334.863L554.048 325.185L554.99 325.52ZM551.543 335.198L540.433 366.389L539.491 366.054L550.601 334.863L551.543 335.198ZM454.53 396.605L427.961 355.871L428.799 355.325L455.368 396.059L454.53 396.605ZM427.961 355.871L372.581 270.967L373.419 270.421L428.799 355.325L427.961 355.871ZM372.816 270.229L381.169 266.92L381.537 267.85L373.184 271.159L372.816 270.229ZM381.169 266.92L512.119 215.048L512.487 215.977L381.537 267.85L381.169 266.92ZM373.494 270.768L363.615 336.2L362.626 336.051L372.506 270.619L373.494 270.768ZM363.615 336.2L357.974 373.558L356.985 373.409L362.626 336.051L363.615 336.2ZM291.586 389.72L345.738 309.958L346.565 310.52L292.414 390.281L291.586 389.72ZM345.738 309.958L372.586 270.413L373.414 270.975L346.565 310.52L345.738 309.958ZM77.2341 333.559L228.234 413.589L227.766 414.472L76.7659 334.442L77.2341 333.559ZM228.234 413.589L277.234 439.559L276.766 440.442L227.766 414.472L228.234 413.589ZM227.824 413.562L291.824 389.532L292.176 390.469L228.176 414.499L227.824 413.562ZM291.5 390.015L288.519 288.67L289.519 288.64L292.5 389.986L291.5 390.015ZM288.519 288.67L286.5 220.015L287.5 219.986L289.519 288.64L288.519 288.67ZM287.254 219.57L373.254 270.263L372.746 271.124L286.746 220.431L287.254 219.57ZM287.224 219.554L381.577 266.938L381.129 267.832L286.776 220.447L287.224 219.554ZM381.577 266.938L514.224 333.554L513.776 334.447L381.129 267.832L381.577 266.938ZM514.122 334.485L428.502 356.083L428.258 355.114L513.878 333.516L514.122 334.485ZM428.502 356.083L383.456 367.446L383.211 366.477L428.258 355.114L428.502 356.083ZM357.602 373.968L292.122 390.485L291.878 389.516L357.357 372.998L357.602 373.968ZM287.418 219.726L327.136 280.318L326.3 280.866L286.582 220.275L287.418 219.726ZM327.136 280.318L346.57 309.965L345.733 310.513L326.3 280.866L327.136 280.318ZM346.57 309.965L363.538 335.851L362.702 336.4L345.733 310.513L346.57 309.965ZM363.538 335.851L383.751 366.687L382.915 367.236L362.702 336.4L363.538 335.851ZM454.586 395.988L513.637 333.657L514.363 334.344L455.312 396.676L454.586 395.988ZM514.389 333.687L540.352 365.908L539.573 366.535L513.611 334.314L514.389 333.687ZM514.014 333.501L551.085 334.53L551.058 335.53L513.986 334.5L514.014 333.501ZM551.085 334.53L621.09 336.475L621.063 337.475L551.058 335.53L551.085 334.53ZM621.09 336.475L706.718 338.854L706.69 339.853L621.063 337.475L621.09 336.475ZM706.718 338.854L730.014 339.501L729.986 340.5L706.69 339.853L706.718 338.854ZM607.188 177.537L810.293 260.143L809.917 261.07L606.812 178.464L607.188 177.537ZM810.293 260.143L843.314 273.574L842.937 274.5L809.917 261.07L810.293 260.143ZM843.314 273.574L875.188 286.537L874.812 287.464L842.937 274.5L843.314 273.574ZM538.01 215.5L512.313 216.012L512.293 215.012L537.99 214.501L538.01 215.5ZM86.1727 145.531L287.173 219.531L286.827 220.47L85.8273 146.47L86.1727 145.531ZM76.8954 333.512L288.915 288.166L289.124 289.144L77.1046 334.489L76.8954 333.512ZM288.915 288.166L326.613 280.103L326.823 281.081L289.124 289.144L288.915 288.166ZM326.613 280.103L372.895 270.205L373.105 271.183L326.823 281.081L326.613 280.103ZM984.208 262.546L1017.81 277.888L1017.4 278.797L983.792 263.455L984.208 262.546ZM1017.81 277.888L1037.44 286.848L1037.03 287.757L1017.4 278.797L1017.81 277.888ZM1037.44 286.848L1080.73 306.608L1080.31 307.518L1037.03 287.757L1037.44 286.848ZM1080.73 306.608L1176.13 350.162L1175.71 351.072L1080.31 307.518L1080.73 306.608ZM1176.13 350.162L1214.21 367.546L1213.79 368.455L1175.71 351.072L1176.13 350.162ZM884.48 127.86L925.255 267.5L924.295 267.78L883.52 128.141L884.48 127.86ZM925.255 267.5L925.444 268.149L924.484 268.43L924.295 267.78L925.255 267.5ZM925.444 268.149L928.826 279.732L927.866 280.012L924.484 268.43L925.444 268.149ZM928.826 279.732L929.942 283.554L928.982 283.834L927.866 280.012L928.826 279.732ZM929.942 283.554L944.757 334.289L943.797 334.569L928.982 283.834L929.942 283.554ZM944.757 334.289L957.48 377.86L956.52 378.141L943.797 334.569L944.757 334.289ZM1889.07 209.495L1652.07 243.495L1651.93 242.506L1888.93 208.506L1889.07 209.495ZM738.341 389.635L812.341 458.635L811.659 459.366L737.659 390.366L738.341 389.635ZM738.5 390V459H737.5V390H738.5ZM502.502 469.96L513.502 333.96L514.498 334.041L503.498 470.041L502.502 469.96ZM1240 509L1240.98 508.819L1241.3 510.537L1239.66 509.94L1240 509ZM1380 178L1379.93 177.003L1380.08 176.992L1380.23 177.028L1380 178ZM1118 196L1117.65 195.064L1117.79 195.013L1117.93 195.003L1118 196ZM1052.4 220.568L1052.75 221.504L1052.32 221.665L1051.92 221.444L1052.4 220.568ZM1652 243L1652.42 243.907L1652.11 244.054L1651.77 243.973L1652 243ZM1609 428V427H1609.1L1609.19 427.019L1609 428ZM1397 428V429H1396.93L1396.86 428.991L1397 428ZM1296 414L1295.86 414.991L1295.68 414.965L1295.51 414.873L1296 414ZM1214 368L1213.02 368.182L1212.63 366.085L1214.49 367.128L1214 368ZM1128 464L1127.71 463.042L1128.07 462.937L1128.4 463.085L1128 464ZM1185 489L1184.66 489.94L1184.63 489.929L1184.6 489.916L1185 489ZM962 404L962.266 403.036L962.303 403.047L962.34 403.06L962 404ZM983.457 411.756L983.797 410.816L984.067 410.913L984.244 411.139L983.457 411.756ZM884 128L883.822 127.016L884.171 126.953L884.482 127.124L884 128ZM607 178L606.632 177.071L606.724 177.034L606.822 177.016L607 178ZM875 459V458H875.24L875.454 458.109L875 459ZM949.48 400.547L948.531 400.23L948.831 399.33L949.745 399.583L949.48 400.547ZM922 482.929L922.949 483.246L922.581 484.347L921.546 483.821L922 482.929ZM1044 489L1044.29 489.959L1043.63 490.153L1043.21 489.617L1044 489ZM634 482.929L634.224 483.904L633.614 484.044L633.221 483.557L634 482.929ZM539.962 366.222L539.02 365.886L539.62 364.203L540.741 365.594L539.962 366.222ZM503 470L503.942 470.336L503.265 472.237L502.162 470.547L503 470ZM454.949 396.332L454.223 395.644L455.094 394.725L455.787 395.786L454.949 396.332ZM512.303 215.512L512.671 216.442L512.503 216.509L512.323 216.512L512.303 215.512ZM357.479 373.483L356.491 373.334L356.59 372.676L357.235 372.514L357.479 373.483ZM342 476L342.989 476.15L342.564 478.961L341.135 476.503L342 476ZM292 390L291.042 389.713L291.705 387.504L292.865 389.498L292 390ZM277 440L277.958 440.288L277.784 440.867L277.191 440.982L277 440ZM287 220L287.02 221L286.689 221.007L286.419 220.814L287 220ZM383.333 366.961L383.089 365.992L383.779 365.818L384.17 366.413L383.333 366.961ZM424 429L424.726 429.688L423.857 430.606L423.164 429.549L424 429ZM196 155L195.419 155.814L195.241 155.687L195.132 155.498L196 155ZM110 5.00049L109.014 4.8327L109.482 2.08597L110.868 4.50311L110 5.00049ZM86 146L86.9858 146.168L86.9732 146.243L86.9495 146.314L86 146ZM-31 500L-30.8088 500.982L-32.4856 501.309L-31.9495 499.687L-31 500ZM1768 189L1768.75 189.662L1768.61 189.819L1768.42 189.907L1768 189ZM1894 46.0005L1893.25 45.3394L1895.08 43.2569L1895 46.0312L1894 46.0005ZM1889 209L1888.01 209.114L1888 209.042L1888 208.97L1889 209ZM1921 489L1921.99 488.887L1922.15 490.244L1920.81 489.982L1921 489ZM738 459L737.776 458.026L737.886 458H738V459ZM1052.05 219.631L1117.65 195.064L1118.35 196.937L1052.75 221.504L1052.05 219.631ZM1117.93 195.003L1379.93 177.003L1380.07 178.998L1118.07 196.998L1117.93 195.003ZM1380.23 177.028L1652.23 242.028L1651.77 243.973L1379.77 178.973L1380.23 177.028ZM1470 427H1609V429H1470V427ZM1397 427H1470V429H1397V427ZM1396.86 428.991L1295.86 414.991L1296.14 413.01L1397.14 427.01L1396.86 428.991ZM1295.51 414.873L1213.51 368.873L1214.49 367.128L1296.49 413.128L1295.51 414.873ZM1239.02 509.182L1213.02 368.182L1214.98 367.819L1240.98 508.819L1239.02 509.182ZM1128.4 463.085L1185.4 488.085L1184.6 489.916L1127.6 464.916L1128.4 463.085ZM1185.34 488.061L1240.34 508.061L1239.66 509.94L1184.66 489.94L1185.34 488.061ZM962.34 403.06L983.797 410.816L983.117 412.697L961.66 404.941L962.34 403.06ZM884.482 127.124L1052.88 219.691L1051.92 221.444L883.518 128.877L884.482 127.124ZM606.822 177.016L883.822 127.016L884.178 128.985L607.178 178.985L606.822 177.016ZM812 458H875V460H812V458ZM949.745 399.583L962.266 403.036L961.734 404.964L949.214 401.511L949.745 399.583ZM875.454 458.109L922.454 482.038L921.546 483.821L874.546 459.892L875.454 458.109ZM921.051 482.613L948.531 400.23L950.428 400.863L922.949 483.246L921.051 482.613ZM984.244 411.139L1044.79 488.384L1043.21 489.617L982.67 412.373L984.244 411.139ZM1043.71 488.042L1127.71 463.042L1128.29 464.959L1044.29 489.959L1043.71 488.042ZM540.904 366.557L503.942 470.336L502.058 469.665L539.02 365.886L540.904 366.557ZM502.162 470.547L454.111 396.878L455.787 395.786L503.838 469.454L502.162 470.547ZM511.935 214.583L606.632 177.071L607.368 178.93L512.671 216.442L511.935 214.583ZM358.468 373.632L342.989 476.15L341.011 475.851L356.491 373.334L358.468 373.632ZM341.135 476.503L291.135 390.503L292.865 389.498L342.865 475.498L341.135 476.503ZM276.042 439.713L291.042 389.713L292.958 390.288L277.958 440.288L276.042 439.713ZM383.578 367.931L357.724 374.453L357.235 372.514L383.089 365.992L383.578 367.931ZM384.17 366.413L424.836 428.452L423.164 429.549L382.497 367.51L384.17 366.413ZM423.274 428.313L454.223 395.644L455.675 397.02L424.726 429.688L423.274 428.313ZM540.741 365.594L634.779 482.302L633.221 483.557L539.184 366.849L540.741 365.594ZM512.323 216.512L287.02 221L286.98 219.001L512.283 214.513L512.323 216.512ZM286.419 220.814L195.419 155.814L196.581 154.187L287.581 219.187L286.419 220.814ZM195.132 155.498L109.132 5.49786L110.868 4.50311L196.868 154.503L195.132 155.498ZM110.986 5.16827L86.9858 146.168L85.0142 145.833L109.014 4.8327L110.986 5.16827ZM86.9495 146.314L-30.0505 500.314L-31.9495 499.687L85.0505 145.687L86.9495 146.314ZM-31.1912 499.019L276.809 439.019L277.191 440.982L-30.8088 500.982L-31.1912 499.019ZM1651.58 242.094L1767.58 188.094L1768.42 189.907L1652.42 243.907L1651.58 242.094ZM1767.25 188.339L1893.25 45.3394L1894.75 46.6616L1768.75 189.662L1767.25 188.339ZM1895 46.0312L1890 209.031L1888 208.97L1893 45.9698L1895 46.0312ZM1889.99 208.887L1921.99 488.887L1920.01 489.114L1888.01 209.114L1889.99 208.887ZM1920.81 489.982L1608.81 428.982L1609.19 427.019L1921.19 488.019L1920.81 489.982ZM738.224 459.975L634.224 483.904L633.776 481.955L737.776 458.026L738.224 459.975ZM738 458H812V460H738V458Z" fill="url(#paint0_linear_190_628)" mask="url(#path-1-inside-1_190_628)"/>
</g>
<path d="M1384.97 312.525C1384.67 315.272 1382.22 317.27 1379.47 316.971C1376.73 316.671 1374.73 314.223 1375.03 311.476C1375.33 308.729 1377.78 306.731 1380.52 307.03C1383.27 307.33 1385.27 309.778 1384.97 312.525Z" fill="url(#paint1_radial_190_628)"/>
<path d="M1218.97 368.525C1218.67 371.272 1216.22 373.27 1213.47 372.971C1210.73 372.671 1208.73 370.223 1209.03 367.476C1209.33 364.729 1211.78 362.731 1214.52 363.03C1217.27 363.33 1219.27 365.778 1218.97 368.525Z" fill="url(#paint2_radial_190_628)"/>
<path d="M1147.97 271.525C1147.67 274.272 1145.22 276.27 1142.47 275.971C1139.73 275.671 1137.73 273.223 1138.03 270.476C1138.33 267.729 1140.78 265.731 1143.52 266.03C1146.27 266.33 1148.27 268.778 1147.97 271.525Z" fill="url(#paint3_radial_190_628)"/>
<path d="M1121.97 198.525C1121.67 201.272 1119.22 203.27 1116.47 202.971C1113.73 202.671 1111.73 200.223 1112.03 197.476C1112.33 194.729 1114.78 192.731 1117.52 193.03C1120.27 193.33 1122.27 195.778 1121.97 198.525Z" fill="url(#paint4_radial_190_628)"/>
<path d="M987.966 263.525C987.666 266.272 985.22 268.27 982.473 267.971C979.727 267.671 977.73 265.223 978.03 262.476C978.329 259.729 980.776 257.731 983.522 258.03C986.268 258.33 988.265 260.778 987.966 263.525Z" fill="url(#paint5_radial_190_628)"/>
<path d="M961.966 378.525C961.666 381.272 959.22 383.27 956.473 382.971C953.727 382.671 951.73 380.223 952.03 377.476C952.329 374.729 954.776 372.731 957.522 373.03C960.268 373.33 962.265 375.778 961.966 378.525Z" fill="url(#paint6_radial_190_628)"/>
<path d="M879.966 286.525C879.666 289.272 877.22 291.27 874.473 290.971C871.727 290.671 869.73 288.223 870.03 285.476C870.329 282.729 872.776 280.731 875.522 281.03C878.268 281.33 880.265 283.778 879.966 286.525Z" fill="url(#paint7_radial_190_628)"/>
<path d="M879.966 286.525C879.666 289.272 877.22 291.27 874.473 290.971C871.727 290.671 869.73 288.223 870.03 285.476C870.329 282.729 872.776 280.731 875.522 281.03C878.268 281.33 880.265 283.778 879.966 286.525Z" fill="url(#paint8_radial_190_628)"/>
<path d="M887.966 129.525C887.666 132.272 885.22 134.27 882.473 133.971C879.727 133.671 877.73 131.223 878.03 128.476C878.329 125.729 880.776 123.731 883.522 124.03C886.268 124.33 888.265 126.778 887.966 129.525Z" fill="url(#paint9_radial_190_628)"/>
<path d="M770.966 281.525C770.666 284.272 768.22 286.27 765.473 285.971C762.727 285.671 760.73 283.223 761.03 280.476C761.329 277.729 763.776 275.731 766.522 276.03C769.268 276.33 771.265 278.778 770.966 281.525Z" fill="url(#paint10_radial_190_628)"/>
<path d="M734.966 340.525C734.666 343.272 732.22 345.27 729.473 344.971C726.727 344.671 724.73 342.223 725.03 339.476C725.329 336.729 727.776 334.731 730.522 335.03C733.268 335.33 735.265 337.778 734.966 340.525Z" fill="url(#paint11_radial_190_628)"/>
<path d="M742.966 390.525C742.666 393.272 740.22 395.27 737.473 394.971C734.727 394.671 732.73 392.223 733.03 389.476C733.329 386.729 735.776 384.731 738.522 385.03C741.268 385.33 743.265 387.778 742.966 390.525Z" fill="url(#paint12_radial_190_628)"/>
<path d="M612.966 179.525C612.666 182.272 610.22 184.27 607.473 183.971C604.727 183.671 602.73 181.223 603.03 178.476C603.329 175.729 605.776 173.731 608.522 174.03C611.268 174.33 613.265 176.778 612.966 179.525Z" fill="url(#paint13_radial_190_628)"/>
<path d="M542.966 215.525C542.666 218.272 540.22 220.27 537.473 219.971C534.727 219.671 532.73 217.223 533.03 214.476C533.329 211.729 535.776 209.731 538.522 210.03C541.268 210.33 543.265 212.778 542.966 215.525Z" fill="url(#paint14_radial_190_628)"/>
<path d="M518.966 334.525C518.666 337.272 516.22 339.27 513.473 338.971C510.727 338.671 508.73 336.223 509.03 333.476C509.329 330.729 511.776 328.731 514.522 329.03C517.268 329.33 519.265 331.778 518.966 334.525Z" fill="url(#paint15_radial_190_628)"/>
<path d="M376.966 271.525C376.666 274.272 374.22 276.27 371.473 275.971C368.727 275.671 366.73 273.223 367.03 270.476C367.329 267.729 369.776 265.731 372.522 266.03C375.268 266.33 377.265 268.778 376.966 271.525Z" fill="url(#paint16_radial_190_628)"/>
<path d="M291.966 220.525C291.666 223.272 289.22 225.27 286.473 224.971C283.727 224.671 281.73 222.223 282.03 219.476C282.329 216.729 284.776 214.731 287.522 215.03C290.268 215.33 292.265 217.778 291.966 220.525Z" fill="url(#paint17_radial_190_628)"/>
<path d="M296.966 390.525C296.666 393.272 294.22 395.27 291.473 394.971C288.727 394.671 286.73 392.223 287.03 389.476C287.329 386.729 289.776 384.731 292.522 385.03C295.268 385.33 297.265 387.778 296.966 390.525Z" fill="url(#paint18_radial_190_628)"/>
<path d="M82.9659 334.525C82.6663 337.272 80.2197 339.27 77.4735 338.971C74.7273 338.671 72.7302 336.223 73.0298 333.476C73.3293 330.729 75.776 328.731 78.5222 329.03C81.2683 329.33 83.2655 331.778 82.9659 334.525Z" fill="url(#paint19_radial_190_628)"/>
<path d="M92.9659 146.525C92.6663 149.272 90.2197 151.27 87.4735 150.971C84.7273 150.671 82.7302 148.223 83.0298 145.476C83.3293 142.729 85.776 140.731 88.5222 141.03C91.2683 141.33 93.2655 143.778 92.9659 146.525Z" fill="url(#paint20_radial_190_628)"/>
<path d="M114.966 5.52497C114.666 8.27235 112.22 10.2704 109.473 9.97072C106.727 9.67101 104.73 7.22339 105.03 4.47601C105.329 1.72863 107.776 -0.269462 110.522 0.0302525C113.268 0.329967 115.265 2.77759 114.966 5.52497Z" fill="url(#paint21_radial_190_628)"/>
<path d="M200.966 156.525C200.666 159.272 198.22 161.27 195.473 160.971C192.727 160.671 190.73 158.223 191.03 155.476C191.329 152.729 193.776 150.731 196.522 151.03C199.268 151.33 201.265 153.778 200.966 156.525Z" fill="url(#paint22_radial_190_628)"/>
<path d="M1384.97 179.525C1384.67 182.272 1382.22 184.27 1379.47 183.971C1376.73 183.671 1374.73 181.223 1375.03 178.476C1375.33 175.729 1377.78 173.731 1380.52 174.03C1383.27 174.33 1385.27 176.778 1384.97 179.525Z" fill="url(#paint23_radial_190_628)"/>
<path d="M1773.97 189.525C1773.67 192.272 1771.22 194.27 1768.47 193.971C1765.73 193.671 1763.73 191.223 1764.03 188.476C1764.33 185.729 1766.78 183.731 1769.52 184.03C1772.27 184.33 1774.27 186.778 1773.97 189.525Z" fill="url(#paint24_radial_190_628)"/>
<path d="M1655.97 244.525C1655.67 247.272 1653.22 249.27 1650.47 248.971C1647.73 248.671 1645.73 246.223 1646.03 243.476C1646.33 240.729 1648.78 238.731 1651.52 239.03C1654.27 239.33 1656.27 241.778 1655.97 244.525Z" fill="url(#paint25_radial_190_628)"/>
<path d="M1891.97 209.525C1891.67 212.272 1889.22 214.27 1886.47 213.971C1883.73 213.671 1881.73 211.223 1882.03 208.476C1882.33 205.729 1884.78 203.731 1887.52 204.03C1890.27 204.33 1892.27 206.778 1891.97 209.525Z" fill="url(#paint26_radial_190_628)"/>
<path d="M1898.97 47.525C1898.67 50.2723 1896.22 52.2704 1893.47 51.9707C1890.73 51.671 1888.73 49.2234 1889.03 46.476C1889.33 43.7286 1891.78 41.7305 1894.52 42.0303C1897.27 42.33 1899.27 44.7776 1898.97 47.525Z" fill="url(#paint27_radial_190_628)"/>
<path d="M1520.97 381.525C1520.67 384.272 1518.22 386.27 1515.47 385.971C1512.73 385.671 1510.73 383.223 1511.03 380.476C1511.33 377.729 1513.78 375.731 1516.52 376.03C1519.27 376.33 1521.27 378.778 1520.97 381.525Z" fill="url(#paint28_radial_190_628)"/>
<path d="M1520.97 381.525C1520.67 384.272 1518.22 386.27 1515.47 385.971C1512.73 385.671 1510.73 383.223 1511.03 380.476C1511.33 377.729 1513.78 375.731 1516.52 376.03C1519.27 376.33 1521.27 378.778 1520.97 381.525Z" fill="url(#paint29_radial_190_628)"/>
<defs>
<linearGradient id="paint0_linear_190_628" x1="951.626" y1="638.976" x2="951.6" y2="5.00021" gradientUnits="userSpaceOnUse">
<stop stop-color="#0F67A8" stop-opacity="0"/>
<stop offset="0.583333" stop-color="#0D406A"/>
<stop offset="1" stop-color="#1F7DC6"/>
</linearGradient>
<radialGradient id="paint1_radial_190_628" cx="0" cy="0" r="1" gradientUnits="userSpaceOnUse" gradientTransform="translate(1380 312) rotate(-90) scale(5 4.99782)">
<stop stop-color="#58EFFF"/>
<stop offset="1" stop-color="#215671" stop-opacity="0"/>
</radialGradient>
<radialGradient id="paint2_radial_190_628" cx="0" cy="0" r="1" gradientUnits="userSpaceOnUse" gradientTransform="translate(1214 368) rotate(-90) scale(5 4.99782)">
<stop stop-color="#58EFFF"/>
<stop offset="1" stop-color="#215671" stop-opacity="0"/>
</radialGradient>
<radialGradient id="paint3_radial_190_628" cx="0" cy="0" r="1" gradientUnits="userSpaceOnUse" gradientTransform="translate(1143 271) rotate(-90) scale(5 4.99782)">
<stop stop-color="#58EFFF"/>
<stop offset="1" stop-color="#215671" stop-opacity="0"/>
</radialGradient>
<radialGradient id="paint4_radial_190_628" cx="0" cy="0" r="1" gradientUnits="userSpaceOnUse" gradientTransform="translate(1117 198) rotate(-90) scale(5 4.99782)">
<stop stop-color="#58EFFF"/>
<stop offset="1" stop-color="#215671" stop-opacity="0"/>
</radialGradient>
<radialGradient id="paint5_radial_190_628" cx="0" cy="0" r="1" gradientUnits="userSpaceOnUse" gradientTransform="translate(982.998 263) rotate(-90) scale(5 4.99782)">
<stop stop-color="#58EFFF"/>
<stop offset="1" stop-color="#215671" stop-opacity="0"/>
</radialGradient>
<radialGradient id="paint6_radial_190_628" cx="0" cy="0" r="1" gradientUnits="userSpaceOnUse" gradientTransform="translate(956.998 378) rotate(-90) scale(5 4.99782)">
<stop stop-color="#58EFFF"/>
<stop offset="1" stop-color="#215671" stop-opacity="0"/>
</radialGradient>
<radialGradient id="paint7_radial_190_628" cx="0" cy="0" r="1" gradientUnits="userSpaceOnUse" gradientTransform="translate(874.998 286) rotate(-90) scale(5 4.99782)">
<stop stop-color="#58EFFF"/>
<stop offset="1" stop-color="#215671" stop-opacity="0"/>
</radialGradient>
<radialGradient id="paint8_radial_190_628" cx="0" cy="0" r="1" gradientUnits="userSpaceOnUse" gradientTransform="translate(874.998 286) rotate(-90) scale(5 4.99782)">
<stop stop-color="#58EFFF"/>
<stop offset="1" stop-color="#215671" stop-opacity="0"/>
</radialGradient>
<radialGradient id="paint9_radial_190_628" cx="0" cy="0" r="1" gradientUnits="userSpaceOnUse" gradientTransform="translate(882.998 129) rotate(-90) scale(5 4.99782)">
<stop stop-color="#58EFFF"/>
<stop offset="1" stop-color="#215671" stop-opacity="0"/>
</radialGradient>
<radialGradient id="paint10_radial_190_628" cx="0" cy="0" r="1" gradientUnits="userSpaceOnUse" gradientTransform="translate(765.998 281) rotate(-90) scale(5 4.99782)">
<stop stop-color="#58EFFF"/>
<stop offset="1" stop-color="#215671" stop-opacity="0"/>
</radialGradient>
<radialGradient id="paint11_radial_190_628" cx="0" cy="0" r="1" gradientUnits="userSpaceOnUse" gradientTransform="translate(729.998 340) rotate(-90) scale(5 4.99782)">
<stop stop-color="#58EFFF"/>
<stop offset="1" stop-color="#215671" stop-opacity="0"/>
</radialGradient>
<radialGradient id="paint12_radial_190_628" cx="0" cy="0" r="1" gradientUnits="userSpaceOnUse" gradientTransform="translate(737.998 390) rotate(-90) scale(5 4.99782)">
<stop stop-color="#58EFFF"/>
<stop offset="1" stop-color="#215671" stop-opacity="0"/>
</radialGradient>
<radialGradient id="paint13_radial_190_628" cx="0" cy="0" r="1" gradientUnits="userSpaceOnUse" gradientTransform="translate(607.998 179) rotate(-90) scale(5 4.99782)">
<stop stop-color="#58EFFF"/>
<stop offset="1" stop-color="#215671" stop-opacity="0"/>
</radialGradient>
<radialGradient id="paint14_radial_190_628" cx="0" cy="0" r="1" gradientUnits="userSpaceOnUse" gradientTransform="translate(537.998 215) rotate(-90) scale(5 4.99782)">
<stop stop-color="#58EFFF"/>
<stop offset="1" stop-color="#215671" stop-opacity="0"/>
</radialGradient>
<radialGradient id="paint15_radial_190_628" cx="0" cy="0" r="1" gradientUnits="userSpaceOnUse" gradientTransform="translate(513.998 334) rotate(-90) scale(5 4.99782)">
<stop stop-color="#58EFFF"/>
<stop offset="1" stop-color="#215671" stop-opacity="0"/>
</radialGradient>
<radialGradient id="paint16_radial_190_628" cx="0" cy="0" r="1" gradientUnits="userSpaceOnUse" gradientTransform="translate(371.998 271) rotate(-90) scale(5 4.99782)">
<stop stop-color="#58EFFF"/>
<stop offset="1" stop-color="#215671" stop-opacity="0"/>
</radialGradient>
<radialGradient id="paint17_radial_190_628" cx="0" cy="0" r="1" gradientUnits="userSpaceOnUse" gradientTransform="translate(286.998 220) rotate(-90) scale(5 4.99782)">
<stop stop-color="#58EFFF"/>
<stop offset="1" stop-color="#215671" stop-opacity="0"/>
</radialGradient>
<radialGradient id="paint18_radial_190_628" cx="0" cy="0" r="1" gradientUnits="userSpaceOnUse" gradientTransform="translate(291.998 390) rotate(-90) scale(5 4.99782)">
<stop stop-color="#58EFFF"/>
<stop offset="1" stop-color="#215671" stop-opacity="0"/>
</radialGradient>
<radialGradient id="paint19_radial_190_628" cx="0" cy="0" r="1" gradientUnits="userSpaceOnUse" gradientTransform="translate(77.9978 334) rotate(-90) scale(5 4.99782)">
<stop stop-color="#58EFFF"/>
<stop offset="1" stop-color="#215671" stop-opacity="0"/>
</radialGradient>
<radialGradient id="paint20_radial_190_628" cx="0" cy="0" r="1" gradientUnits="userSpaceOnUse" gradientTransform="translate(87.9978 146) rotate(-90) scale(5 4.99782)">
<stop stop-color="#58EFFF"/>
<stop offset="1" stop-color="#215671" stop-opacity="0"/>
</radialGradient>
<radialGradient id="paint21_radial_190_628" cx="0" cy="0" r="1" gradientUnits="userSpaceOnUse" gradientTransform="translate(109.998 5.00049) rotate(-90) scale(5 4.99782)">
<stop stop-color="#58EFFF"/>
<stop offset="1" stop-color="#215671" stop-opacity="0"/>
</radialGradient>
<radialGradient id="paint22_radial_190_628" cx="0" cy="0" r="1" gradientUnits="userSpaceOnUse" gradientTransform="translate(195.998 156) rotate(-90) scale(5 4.99782)">
<stop stop-color="#58EFFF"/>
<stop offset="1" stop-color="#215671" stop-opacity="0"/>
</radialGradient>
<radialGradient id="paint23_radial_190_628" cx="0" cy="0" r="1" gradientUnits="userSpaceOnUse" gradientTransform="translate(1380 179) rotate(-90) scale(5 4.99782)">
<stop stop-color="#58EFFF"/>
<stop offset="1" stop-color="#215671" stop-opacity="0"/>
</radialGradient>
<radialGradient id="paint24_radial_190_628" cx="0" cy="0" r="1" gradientUnits="userSpaceOnUse" gradientTransform="translate(1769 189) rotate(-90) scale(5 4.99782)">
<stop stop-color="#58EFFF"/>
<stop offset="1" stop-color="#215671" stop-opacity="0"/>
</radialGradient>
<radialGradient id="paint25_radial_190_628" cx="0" cy="0" r="1" gradientUnits="userSpaceOnUse" gradientTransform="translate(1651 244) rotate(-90) scale(5 4.99782)">
<stop stop-color="#58EFFF"/>
<stop offset="1" stop-color="#215671" stop-opacity="0"/>
</radialGradient>
<radialGradient id="paint26_radial_190_628" cx="0" cy="0" r="1" gradientUnits="userSpaceOnUse" gradientTransform="translate(1887 209) rotate(-90) scale(5 4.99782)">
<stop stop-color="#58EFFF"/>
<stop offset="1" stop-color="#215671" stop-opacity="0"/>
</radialGradient>
<radialGradient id="paint27_radial_190_628" cx="0" cy="0" r="1" gradientUnits="userSpaceOnUse" gradientTransform="translate(1894 47.0005) rotate(-90) scale(5 4.99782)">
<stop stop-color="#58EFFF"/>
<stop offset="1" stop-color="#215671" stop-opacity="0"/>
</radialGradient>
<radialGradient id="paint28_radial_190_628" cx="0" cy="0" r="1" gradientUnits="userSpaceOnUse" gradientTransform="translate(1516 381) rotate(-90) scale(5 4.99782)">
<stop stop-color="#58EFFF"/>
<stop offset="1" stop-color="#215671" stop-opacity="0"/>
</radialGradient>
<radialGradient id="paint29_radial_190_628" cx="0" cy="0" r="1" gradientUnits="userSpaceOnUse" gradientTransform="translate(1516 381) rotate(-90) scale(5 4.99782)">
<stop stop-color="#58EFFF"/>
<stop offset="1" stop-color="#215671" stop-opacity="0"/>
</radialGradient>
</defs>
</svg>
