<svg xmlns="http://www.w3.org/2000/svg" width="43.3" height="30.9"><g data-name="Слой 2"><path fill="#1a3244" d="M41.21 11.7C37.91 1.3 35 0 32.11 0c-3.5 0-3.6 2.6-7 2.6h-7c-3.4 0-3.5-2.6-7-2.6C8.31 0 5.31 1.4 2 11.7S-.7 30.8 4.4 30.9s8.1-8.5 13.6-8.5h7.4c5.5 0 8.5 8.6 13.6 8.5s5.51-8.9 2.21-19.2zm-27.7 2.1h-1.8v1.8a1.7 1.7 0 0 1-3.4 0v-1.8h-1.7a1.69 1.69 0 0 1-1.7-1.7 1.63 1.63 0 0 1 1.7-1.7h1.8V8.6a1.7 1.7 0 0 1 3.4 0v1.8h1.8a1.69 1.69 0 0 1 1.7 1.7 1.77 1.77 0 0 1-1.8 1.7zm7.8 6.5a2.4 2.4 0 1 1 2.4-2.4 2.43 2.43 0 0 1-2.4 2.4zm11.5-13a1.7 1.7 0 1 1-1.7 1.7 1.58 1.58 0 0 1 1.7-1.7zm-3.2 6.6a1.69 1.69 0 0 1-1.7-1.7 1.7 1.7 0 0 1 3.4 0 1.69 1.69 0 0 1-1.7 1.7zm3.2 3.2a1.7 1.7 0 1 1 1.7-1.7 1.75 1.75 0 0 1-1.7 1.7zm3.1-3.2a1.69 1.69 0 0 1-1.7-1.7 1.75 1.75 0 0 1 1.7-1.7 1.7 1.7 0 1 1 0 3.4z" data-name="Слой 1"/></g></svg>
