<svg width="26" height="26" viewBox="0 0 26 26" fill="none" xmlns="http://www.w3.org/2000/svg">
<g clip-path="url(#clip0)">
<rect width="26" height="26" fill="white"/>
<circle cx="19.5" cy="23.5742" r="2.5" fill="#103654"/>
<circle cx="7.5" cy="23.5742" r="2.5" fill="#103654"/>
<path d="M23.0979 6H5.5L10.5 14H17.3373C18.3716 14 19.333 13.4671 19.8813 12.59L23.5219 6.765C23.73 6.43198 23.4906 6 23.0979 6Z" fill="#103654"/>
<path d="M5.5 6H23.0979C23.4906 6 23.73 6.43198 23.5219 6.765L19.8813 12.59C19.333 13.4671 18.3716 14 17.3373 14H10.5M5.5 6L10.5 14M5.5 6L3.21296 2H0M10.5 14L6.62187 17.2318C5.90335 17.8305 6.32675 19 7.26205 19H23" stroke="#103654" stroke-width="2"/>
<path d="M12.2809 0.976086C11.8805 0.475679 11.1195 0.47568 10.7191 0.976086L7.5 5H15.5L12.2809 0.976086Z" fill="#103654"/>
<path d="M17.1881 5H21L18.0053 1.10474C17.5882 0.562238 16.7617 0.589501 16.3813 1.15831L15.5 2.47601L17.1881 5Z" fill="#103654"/>
</g>
<defs>
<clipPath id="clip0">
<rect width="26" height="26" fill="white"/>
</clipPath>
</defs>
</svg>
