<svg width="24" height="24" viewBox="0 0 24 24" fill="none" xmlns="http://www.w3.org/2000/svg">
<g clip-path="url(#clip0_14_23)">
<path d="M11.8182 0C15.1843 0.171683 17.8356 1.73184 19.4501 4.89438C20.4999 6.94988 20.5853 9.10671 19.9398 11.3086C19.452 12.9729 18.7015 14.5208 17.8421 16.0163C16.282 18.7313 14.4113 21.2249 12.3698 23.5928C11.9008 24.137 11.4317 24.136 10.9626 23.5928C8.64159 20.8862 6.52228 18.0361 4.86455 14.8679C4.12341 13.4485 3.47232 11.985 3.17587 10.4004C2.5867 7.23977 3.48171 4.53788 5.80271 2.3257C7.17336 1.01978 8.83766 0.303025 10.7121 0.0741147C11.0283 0.0356501 11.3491 0.0281448 11.8182 0ZM11.6756 13.0686C12.8359 13.0626 13.9463 12.596 14.7627 11.7714C15.579 10.9468 16.0344 9.83172 16.0287 8.67141C16.0071 6.2594 14.0351 4.30427 11.6465 4.32773C10.4904 4.33665 9.38475 4.8029 8.57134 5.62457C7.75794 6.44624 7.30288 7.5565 7.30564 8.71268C7.31503 11.1219 9.28516 13.0826 11.6747 13.0686H11.6756Z" fill="#103654"/>
</g>
<defs>
<clipPath id="clip0_14_23">
<rect width="24" height="24" fill="white"/>
</clipPath>
</defs>
</svg>
