<svg xmlns="http://www.w3.org/2000/svg" width="24" height="24" fill="none"><g fill="#103654" clip-path="url(#a)"><path d="M3.834 11.972C3.836 7.476 7.489 3.842 12 3.846c4.493.004 8.12 3.659 8.116 8.176-.005 4.49-3.663 8.117-8.182 8.111-4.473-.006-8.104-3.663-8.101-8.161Zm7.195 3.835c0 .208-.008.367.001.525.029.481.404.867.875.908.44.038.859-.263.975-.715.034-.133.046-.276.036-.413-.018-.227.046-.327.293-.373.485-.09.88-.356 1.183-.75.505-.656.517-1.413.398-2.17-.154-.99-.854-1.648-1.84-1.758-.432-.048-.876-.017-1.314-.018-.643-.001-.633 0-.634-.634 0-.262.101-.35.356-.347.807.01 1.614.005 2.42.003.614-.001 1.052-.396 1.054-.944.003-.546-.436-.946-1.046-.95h-.867c0-.2.006-.348 0-.497a.967.967 0 0 0-.879-.937c-.462-.038-.895.293-.993.773-.024.116-.03.239-.018.356.023.227-.052.318-.292.373-.818.188-1.371.71-1.543 1.527a4.182 4.182 0 0 0-.023 1.449c.152 1.013 1.006 1.701 2.03 1.718.38.006.757.001 1.136.001.607 0 .595 0 .606.603.005.29-.104.384-.386.379-.807-.013-1.614-.007-2.421-.004-.59.003-1.02.402-1.024.941-.003.537.43.945 1.014.952.287.004.574 0 .9 0l.003.002Z"/><path d="M18.756 2.107c.232-.658.53-.908 1.048-.891.48.016.9.412.908.895.014.718.014 1.435 0 2.153a.936.936 0 0 1-.925.912 50.89 50.89 0 0 1-2.092 0c-.403-.008-.7-.224-.861-.592-.164-.374-.084-.72.18-1.026.037-.044.092-.074.226-.178-.71-.313-1.33-.642-1.986-.867A10.013 10.013 0 0 0 2.14 10.031c-.478 2.369-.108 4.63 1.025 6.766.114.213.21.46.222.696.026.443-.282.795-.713.911-.43.116-.852-.056-1.09-.47-.541-.936-.94-1.93-1.207-2.977C-1.212 8.747 2.369 2.361 8.519.534c3.535-1.05 6.886-.542 10.008 1.434.074.047.15.09.23.138ZM5.188 21.881c-.21.636-.515.896-1.026.884a.943.943 0 0 1-.924-.911 66.086 66.086 0 0 1 0-2.122.933.933 0 0 1 .911-.926 44.956 44.956 0 0 1 2.123 0c.404.01.694.235.852.604.156.365.075.702-.173 1.002-.045.054-.095.102-.155.165.94.58 1.942.98 3.007 1.206 5.34 1.137 10.495-2.008 11.876-7.273.668-2.544.338-4.99-.889-7.316-.079-.148-.168-.299-.208-.459a.956.956 0 0 1 .567-1.124c.454-.188.947-.025 1.21.423.51.87.898 1.799 1.156 2.773 1.52 5.724-1.123 11.54-6.49 14.02-3.947 1.825-7.828 1.491-11.539-.774-.076-.046-.15-.096-.226-.144-.017-.01-.036-.013-.073-.026l.001-.002Z"/></g><defs><clipPath id="a"><path fill="#fff" d="M0 0h24v24H0z"/></clipPath></defs></svg>