<svg xmlns="http://www.w3.org/2000/svg" width="47" height="47" viewBox="0 0 47 47"><circle cx="23.5" cy="23.5" r="23.5" fill="#103654"/><path fill="#fff" d="M34.3 21h-.2a4.15 4.15 0 0 0 .3-1.6 4.69 4.69 0 0 0-4.7-4.7 4.65 4.65 0 0 0-2.3.6 7 7 0 0 0-13.3 4.4A5.34 5.34 0 0 0 8.8 25v.9a5.34 5.34 0 0 0 5.3 5.3h20.1a5.23 5.23 0 0 0 5.2-5.2 5.1 5.1 0 0 0-5.1-5z"/><path fill="#103654" d="M21.4 18.5a5.25 5.25 0 0 1 4.4 2l-1.6 1.1 5.3 2V18l-1.4 1a6.54 6.54 0 0 0-5-2.2 5.83 5.83 0 0 0-5.6 3.9 4.79 4.79 0 0 1 3.9-2.2zM25.8 26.9a5.25 5.25 0 0 1-4.4-2l1.6-1.1-5.3-2v5.6l1.4-1a6.54 6.54 0 0 0 5 2.2 5.83 5.83 0 0 0 5.6-3.9 4.79 4.79 0 0 1-3.9 2.2z"/></svg>
