<svg xmlns="http://www.w3.org/2000/svg" width="38" height="37.4"><g data-name="Слой 2"><path fill="#1a3244" d="M38 14.8L19.3 0 0 14.8h4.7v22.6h12.2v-7H22v7h11.7V14.8zm-14.6 12a.71.71 0 0 1-1.1-.1 4.36 4.36 0 0 0-2.9-1.3h-.1a3.4 3.4 0 0 0-2.7 1.3.71.71 0 0 1-.6.3.6.6 0 0 1-.4-.1.78.78 0 0 1-.2-1 5.33 5.33 0 0 1 3.9-2 5.6 5.6 0 0 1 4.1 1.8.71.71 0 0 1 0 1.1zm2.2-3a.78.78 0 0 1-1.1 0 8.31 8.31 0 0 0-5-2.4h-.1a6.65 6.65 0 0 0-5.2 2.6.71.71 0 0 1-.6.3.6.6 0 0 1-.4-.1.78.78 0 0 1-.2-1 8.37 8.37 0 0 1 6.5-3.2h.1a9.66 9.66 0 0 1 6.1 2.8.76.76 0 0 1-.1 1zm2.4-3.1a.79.79 0 0 1-1.1-.1 10.38 10.38 0 0 0-7.7-3.3c-5 0-8.3 4.1-8.3 4.1a.71.71 0 0 1-.6.3c-.2 0-.3-.1-.5-.2a.78.78 0 0 1-.1-1.1c.2-.2 3.8-4.7 9.5-4.7a11.59 11.59 0 0 1 8.9 3.9.77.77 0 0 1-.1 1.1z" data-name="Слой 1"/></g></svg>
