<svg width="34" height="34" fill="none" xmlns="http://www.w3.org/2000/svg"><g clip-path="url(#a)" fill="#103654"><path d="M16.98 33.997c-4.312 0-8.627.007-12.938 0-2.226 0-4.043-1.809-4.042-3.982 0-2.173 1.825-3.982 4.083-3.982 6.236-.006 12.475-.006 18.715 0 2.39 0 4.779-.007 7.169 0a4.056 4.056 0 0 1 4.012 3.602c.215 1.944-1.173 3.825-3.166 4.263-.347.069-.7.1-1.053.095-4.267.007-8.527.008-12.778.004h-.002ZM6.038 30.015a.992.992 0 1 0-.996.985 1.006 1.006 0 0 0 .996-.99v.005Zm3.982-.007a.992.992 0 1 0-.984 1.001 1.006 1.006 0 0 0 .984-1.005v.004Zm3.98 0a.992.992 0 1 0-.984 1 1.006 1.006 0 0 0 .988-1.003l-.002.003h-.001Zm3.985.01a.994.994 0 1 0-.996.982 1.006 1.006 0 0 0 .997-.985l-.001.003Zm3.98.007a.993.993 0 1 0-.994.975 1.006 1.006 0 0 0 .997-.978l-.001.003h-.002Zm2.988.975a.993.993 0 1 0-.982-1.003A1.006 1.006 0 0 0 24.953 31Zm3.981 0a.992.992 0 1 0-.982-1.003A1.006 1.006 0 0 0 28.935 31h-.001Zm2.07-10.688V17.55l.977-.916v-3.176l-3.418-3.424h-7.137l-3.427 3.436v3.145l.977.898v2.833a1.854 1.854 0 0 1-.184-.133c-.807-.805-1.632-1.594-2.405-2.428a1.524 1.524 0 0 1-.374-.907c-.043-1.248-.04-2.5 0-3.748.018-.325.145-.635.36-.879A143.28 143.28 0 0 1 20.2 8.426c.22-.212.592-.301.908-.377.266-.059.548-.01.843-.01V1.994h-4.815c-.678 0-1.13-.397-1.137-.985-.007-.586.45-1.009 1.147-1.01h15.692c.7 0 1.154.398 1.147 1.007-.005.61-.456.986-1.133.988h-4.82v6.01a.598.598 0 0 0 .18.026c.907-.153 1.538.258 2.137.904 1.03 1.112 2.15 2.136 3.184 3.241.256.292.407.659.433 1.046.05 1.227.03 2.456.008 3.683 0 .24-.068.543-.222.701-.89.915-1.818 1.8-2.747 2.706Z"/><path d="M28.992 24.024h-8.021v-6.871c0-.755.397-1.155 1.14-1.155h5.84c.629 0 1.054.411 1.055 1.032.007 2.28 0 4.556 0 6.835 0 .047-.008.09-.014.159Zm-15.986.001H5.06c0-.113-.014-.22-.014-.326v-6.538c0-.774.384-1.16 1.161-1.16h5.671c.736 0 1.134.398 1.134 1.122.003 2.29-.005 4.585-.005 6.902Z"/></g><defs><clipPath id="a"><path fill="#fff" d="M0 0h34v34H0z"/></clipPath></defs></svg>