<svg width="25" height="24" fill="none" xmlns="http://www.w3.org/2000/svg"><g clip-path="url(#a)"><path d="M21.613 24h-9.987v-.25c0-1.436 0-2.873.007-4.31a.643.643 0 0 1 .133-.377c.766-.954 1.546-1.9 2.314-2.852a.542.542 0 0 0 .119-.311c.006-2.529.006-5.056 0-7.584 0-.061-.007-.123-.011-.202H3.795v1.61h.927v3.431H3.78v1.508c-.45 0-.873.005-1.294-.009-.044 0-.118-.124-.12-.188-.012-.422-.006-.848-.006-1.294H1.324V9.737h1.02v-1.64H0V3.818c.058-.008.116-.014.174-.017.322 0 .647-.026.965 0 1.256.115 2.44-.25 3.635-.527C8.417 2.43 12.06 1.584 15.703.737c.067-.015.134-.035.21-.055V0h1.42c0 .227-.012.46.005.69a.343.343 0 0 0 .13.239c1.537.942 3.078 1.88 4.622 2.812.083.041.175.06.268.057.573.004 1.145 0 1.735 0v4.295h-5.049v7.728a.645.645 0 0 0 .157.447c.753.907 1.488 1.824 2.24 2.732.122.14.186.323.178.509-.006 1.405 0 2.81 0 4.215l-.006.276ZM15.91 2.148l-6.935 1.61.006.019h6.929V2.148Zm-1.714 16.205a1.486 1.486 0 0 0-.119.114c-.313.377-.63.761-.934 1.151a.522.522 0 0 0-.095.299c-.006.808 0 1.616 0 2.425v.22h1.148v-4.21Zm4.864-.027v4.24h1.14v-2.767a.262.262 0 0 0-.055-.149c-.35-.415-.698-.838-1.09-1.317l.005-.007Zm-1.762-4.58-1.652-1.533v3.067l1.652-1.534Zm-1.655 4.826v3.078l1.655-1.536-1.655-1.542Zm.313-8.008 1.65 1.54V9.04l-1.65 1.523Zm0 6.361 1.646 1.529v-3.047l-1.646 1.518Zm1.389-14.414v1.266h2.083l-2.083-1.266Zm-.84 5.606h-.86v.814l.86-.814Zm1.111 13.63-.882.82h.882v-.82Z" fill="#103654"/></g><defs><clipPath id="a"><path fill="#fff" d="M0 0h24.09v24H0z"/></clipPath></defs></svg>