<svg width="24" height="24" fill="none" xmlns="http://www.w3.org/2000/svg"><g clip-path="url(#a)" fill="#103654"><path d="M13.331.552c.09.161.132.345.12.53-.021.308-.208.602-.556.863V6.76H15.8V4.038c0-.513.136-.646.657-.646h1.84c.55-.765 1.302-.6 1.656-.23.396.414.361 1.104-.075 1.462-.445.366-1.161.359-1.583-.33h-1.576v2.493c.899.25 1.37.842 1.364 1.803h4.393V5.683c-.592-.54-.663-1.18-.18-1.635a1.015 1.015 0 0 1 1.476.107c.409.507.263 1.125-.386 1.582v3.219c-.003.387-.167.55-.56.551h-4.729v2.168h3.97c.48-.606 1.134-.714 1.608-.268a1.01 1.01 0 0 1-.014 1.48c-.484.44-1.128.329-1.595-.283h-3.968v2.904H20.095c.348 0 .52.17.521.516.003.664 0 1.327 0 1.983.604.481.712 1.122.276 1.6-.382.42-1.08.432-1.466.023-.465-.493-.355-1.137.294-1.65v-1.439c0-.036-.008-.074-.013-.123H18.07c-.285.931-.843 1.384-1.707 1.389h-.726c-.068 0-.137.007-.214.01v4.352h2.908c.55-.717 1.298-.541 1.637-.17a1.01 1.01 0 0 1-.134 1.49c-.446.339-1.179.28-1.545-.4h-3.126c-.521 0-.657-.132-.657-.645V17.82H12.34v3.952c.695.455.641 1.188.267 1.596a1.01 1.01 0 0 1-1.48.004c-.443-.477-.33-1.127.281-1.608v-3.941H8.499v.961c0 .336.003.672 0 1.008-.004.366-.16.525-.534.527-.656.004-1.311 0-1.956 0-.524.732-1.26.625-1.64.245-.4-.4-.39-1.073.022-1.448.502-.454 1.11-.346 1.632.3h1.555V17.78l-.126-.054c-.725-.256-1.14-.824-1.153-1.591-.006-.334 0-.668 0-1.015H1.516v2.918c.267.185.471.443.498.804a1.01 1.01 0 0 1-1.442.995 1.064 1.064 0 0 1-.503-.545.991.991 0 0 1 .09-.905c.109-.17.265-.305.449-.388v-3.127c0-.54.124-.667.657-.667H6.28v-2.171H1.929c-.272.36-.472.495-.774.531-.185.023-.373 0-.547-.067a1.011 1.011 0 0 1-.168-1.763.998.998 0 0 1 .336-.143c.506-.112.878.099 1.142.507h4.37V8.202h-2.33c-.428 0-.58-.151-.582-.574V5.697c-.72-.472-.61-1.227-.286-1.585.38-.422 1.073-.448 1.465-.042.38.392.494 1.152-.267 1.653v1.57h2.464c.571-.664 1.377-.493 2.133-.522V1.534H5.972c-.045.053-.083.103-.125.15A1.008 1.008 0 0 1 4.077.95c.03-.476.402-.813.762-.904a1.055 1.055 0 0 1 1.017.33c.064.073.116.155.157.244h3.072c.605 0 .712.103.712.701v5.434h2.19V1.947c-.35-.253-.538-.557-.557-.872-.007-.19.04-.38.134-.545.029-.05.286-.484.796-.525.438-.037.803.237.971.547Zm-1.134 16.383h4.052c.61 0 .889-.274.89-.883V8.534c0-.608-.284-.89-.888-.89H8.124c-.608 0-.888.277-.888.887v7.518c0 .613.274.886.886.886 1.358.001 2.716.001 4.075 0Z"/><path d="M12.208 10.2h1.64c.39.002.574.183.575.573.004 1.015.004 2.03 0 3.046 0 .383-.194.567-.584.567h-3.302c-.4 0-.588-.184-.588-.588a714.167 714.167 0 0 1 0-3.02c0-.395.183-.576.572-.579.563-.003 1.125 0 1.687 0Z"/></g><defs><clipPath id="a"><path fill="#fff" d="M0 0h24v23.693H0z"/></clipPath></defs></svg>