<svg width="26" height="26" viewBox="0 0 26 26" fill="none" xmlns="http://www.w3.org/2000/svg">
<g clip-path="url(#clip0)">
<path d="M0 9C0 7.89543 0.895431 7 2 7H24C25.1046 7 26 7.89543 26 9V23C26 24.6569 24.6569 26 23 26H3C1.34315 26 0 24.6569 0 23V9Z" fill="#103654"/>
<path d="M3.31879 3H22.6812C23.0812 3 23.4428 3.2384 23.6004 3.60608L25.4835 8H0.516539L2.39965 3.60608C2.55723 3.2384 2.91876 3 3.31879 3Z" stroke="#103654" stroke-width="2"/>
<rect x="9" y="10" width="8" height="2" rx="1" fill="white"/>
</g>
<defs>
<clipPath id="clip0">
<path d="M0 0H26V26H0V0Z" fill="white"/>
</clipPath>
</defs>
</svg>
