<svg width="26" height="26" fill="none" xmlns="http://www.w3.org/2000/svg"><path fill="#fff" d="M0 0h26v26H0z"/><circle cx="13" cy="13" r="12" stroke="#103654" stroke-width="2"/><path d="M13 5.078L8.47 2.79 13 1.338l4.532 1.452L13 5.078zM8.131 19.426l1.586 4.822-4.23-2.178-2.702-4.389 5.346 1.745zM17.87 19.426l-1.586 4.822 4.23-2.178 2.702-4.389-5.346 1.745zM13 7.519a37.802 37.802 0 015.286 3.84 37.8 37.8 0 01-2.02 6.214c-2.173.188-4.359.188-6.533 0a37.805 37.805 0 01-2.019-6.214A37.806 37.806 0 0113 7.519zM5.131 10.878L3.988 5.932 1.5 9.987l-.035 5.154 3.667-4.263zM20.87 10.878l1.142-4.946 2.49 4.055.035 5.154-3.668-4.263z" fill="#103654"/></svg>