<svg xmlns="http://www.w3.org/2000/svg" width="41.5" height="22.7"><g data-name="Слой 2"><g fill="#1a3244" data-name="Слой 1"><path d="M31.6 5.2c-1.4 0-2.3.9-2.2 2s1.4 2 2.9 2 2.4-.9 2.2-2a3.08 3.08 0 0 0-2.9-2z"/><path d="M37 0H4.9L.1 14.4h41.3zm-1.8 12.9H6.6c.1-2.3-3-2.7-3-2.7l1.7-5.9s3-.4 3.9-2.8h23.5c.8 2.2 3.4 2.7 3.8 2.8l1.6 5.9c-.4.1-3 .6-2.9 2.7z"/><path d="M10.4 5.2a2.89 2.89 0 0 0-2.9 2c-.3 1.1.7 2 2.2 2s2.8-.9 2.9-2-.8-2-2.2-2zM21 2.8c-2.9 0-5.5 2-5.8 4.4s2.3 4.4 5.7 4.4 6-2 5.8-4.4-2.8-4.4-5.7-4.4zm.5 7.2v.9h-1.2v-.8a5.44 5.44 0 0 1-2-.4l.4-1a5.33 5.33 0 0 0 1.9.4c.7 0 1.1-.2 1.1-.5s-.4-.5-1.2-.8c-1.2-.3-2-.7-2-1.6s.7-1.4 1.9-1.5v-.8h1v.8A3.51 3.51 0 0 1 23 5l-.3 1a4.46 4.46 0 0 0-1.6-.3c-.7 0-.9.2-1 .5s.4.5 1.3.7c1.3.4 1.9.8 1.9 1.6.3.6-.4 1.3-1.8 1.5zM0 16.7h41.5v1.8H0zm0 4.2h41.5v1.8H0z"/></g></g></svg>
