<svg width="28" height="28" viewBox="0 0 28 28" fill="none" xmlns="http://www.w3.org/2000/svg">
<g clip-path="url(#clip0_211_2)">
<path d="M27.9967 27.9999C27.6178 27.8853 27.3055 27.7925 26.9943 27.6964C25.147 27.1232 23.2996 26.5522 21.4533 25.9724C21.2873 25.92 21.1607 25.9516 21.022 26.0346C20.0503 26.6155 19.0196 27.0653 17.9376 27.395C17.0314 27.6713 16.1088 27.8678 15.1633 27.9322C14.6927 27.9639 14.2188 27.989 13.7472 27.9846C11.6694 27.9628 9.69647 27.4813 7.84145 26.55C4.78433 25.0149 2.55699 22.674 1.16272 19.5513C0.614625 18.3252 0.272882 17.039 0.108016 15.7037C0.00647545 14.8794 -0.0251876 14.0529 0.0206692 13.2274C0.127669 11.3364 0.596064 9.53488 1.44551 7.83926C2.75898 5.21996 4.69589 3.18807 7.25186 1.75668C8.8241 0.874476 10.5066 0.327469 12.2972 0.108011C13.1226 0.00647033 13.9481 -0.0251928 14.7735 0.021756C16.6547 0.128755 18.4475 0.596059 20.1377 1.43568C22.3595 2.53952 24.1741 4.11721 25.5717 6.16549C26.6919 7.80869 27.43 9.61131 27.7794 11.5755C27.9704 12.6477 28.0349 13.7253 27.9704 14.8062C27.8918 16.1274 27.6309 17.4201 27.1472 18.6539C26.8666 19.3712 26.515 20.0612 26.1831 20.7578C26.1121 20.9063 26.0881 21.0329 26.1318 21.1945C26.7258 23.3378 27.3132 25.4833 27.9017 27.6287C27.93 27.7313 27.9541 27.834 27.9956 28.001L27.9967 27.9999ZM22.8934 13.9972C22.9043 9.16038 19.0393 5.03544 13.9251 5.02234C8.88524 5.00924 4.95465 9.06539 4.94701 13.9841C4.93937 18.9082 8.86996 22.9851 13.9251 22.9731C19.0393 22.96 22.9043 18.8351 22.8934 13.9983V13.9972Z" fill="#103654"/>
<path d="M16.4004 15.635H11.5986C11.4872 14.5476 11.4981 13.4666 11.5931 12.365H16.3982C16.502 13.4503 16.4976 14.5257 16.3993 15.635H16.4004Z" fill="#103654"/>
<path d="M16.1537 10.7196H11.8191C11.8715 10.4608 11.9108 10.2217 11.9698 9.98807C12.2001 9.06875 12.4764 8.16362 13.0201 7.37313C13.1773 7.14494 13.3826 6.94186 13.5977 6.76607C13.8619 6.54989 14.1119 6.56845 14.4002 6.75952C14.7769 7.01064 15.0138 7.37859 15.2201 7.76292C15.6973 8.65167 15.968 9.61139 16.1526 10.5984C16.1591 10.6312 16.1526 10.6672 16.1526 10.7196H16.1537Z" fill="#103654"/>
<path d="M11.8191 17.2761H16.1788C16.1264 17.5283 16.0849 17.7597 16.0292 17.9858C15.8032 18.9062 15.5313 19.8124 14.9854 20.6029C14.8183 20.8453 14.5978 21.0593 14.3685 21.2471C14.136 21.4381 13.8685 21.4228 13.6097 21.2492C13.2581 21.0134 13.0245 20.6782 12.8247 20.3201C12.3039 19.38 12.0178 18.3613 11.818 17.2761H11.8191Z" fill="#103654"/>
<path d="M9.9466 15.6329H6.7388C6.46803 14.5443 6.46912 13.459 6.7388 12.3585H9.9466V15.6329Z" fill="#103654"/>
<path d="M21.1073 15.6317H18.048V12.3639H21.0985C21.3813 13.4448 21.366 14.5301 21.1073 15.6317Z" fill="#103654"/>
<path d="M10.1715 10.724H7.39172C7.56969 9.62887 10.046 7.35677 11.2513 7.17334C11.0395 7.75638 10.8026 8.33286 10.6225 8.92573C10.4434 9.51313 10.3222 10.1169 10.1726 10.724H10.1715Z" fill="#103654"/>
<path d="M7.38293 17.275C7.43753 17.2695 7.48993 17.2586 7.54234 17.2586C8.35139 17.2586 9.15934 17.2619 9.96839 17.2542C10.1354 17.2531 10.213 17.3045 10.2424 17.4737C10.4379 18.5863 10.7414 19.6661 11.2316 20.688C11.2502 20.7262 11.2589 20.7699 11.2742 20.8169C10.1616 20.7284 7.66681 18.4563 7.38293 17.275Z" fill="#103654"/>
<path d="M20.4675 10.7251H17.8001C17.5763 9.52405 17.2793 8.34815 16.7334 7.24213C17.7313 7.27488 20.082 9.46946 20.4675 10.7251V10.7251Z" fill="#103654"/>
<path d="M16.752 20.76C16.7683 20.7109 16.7793 20.6596 16.8011 20.6137C17.264 19.6289 17.5479 18.5895 17.7488 17.5249C17.799 17.2607 17.8001 17.2585 18.0578 17.2585C18.7849 17.2575 19.5121 17.2585 20.2404 17.2585C20.3113 17.2585 20.3823 17.2684 20.5046 17.276C19.6661 18.905 18.4487 20.0744 16.8044 20.795L16.752 20.76V20.76Z" fill="#103654"/>
</g>
<defs>
<clipPath id="clip0_211_2">
<rect width="27.9967" height="28" fill="white"/>
</clipPath>
</defs>
</svg>
