<svg xmlns="http://www.w3.org/2000/svg" width="39.28" height="31.84"><g data-name="Слой 2"><g data-name="Слой 1" fill="#1a3244"><path d="M0 24.29l3.5 7.1s5.4-3.8 9.3-2.7 9.6 4.3 13 2.7 9.7-4.8 12.2-7.7.8-3.4-.6-2.8-1.6.9-1.6.9 1.2-2.2-.5-2a11 11 0 0 0-3.5 1.5s.6-1.6-1.3-1.1a27.74 27.74 0 0 0-4.9 2.2s3.7.5 4.2 2.4-3 3.2-6.5 2.9-6.9-2.6-6.5-3.2 2.9 1.8 5.6 2 6-.3 6.2-1.6-2.3-.8-4.5-1.7a74.25 74.25 0 0 1-7.5-4.3c-1.7-1-4.7-1.7-6.9-.5-3 1.7-3.8 3-5.7 4.1a24.76 24.76 0 0 1-4 1.8zM23.4 2.49c-.1.1-.1 0-.1 0-3.1-4.3-9.2-3-9.1 3.7s9.1 11.3 9.1 11.3a.31.31 0 0 1 .1-.2.35.35 0 0 0 .1.2s8.9-4.6 9.1-11.3c0-6.7-6-7.9-9.2-3.7z"/></g></g></svg>
