<svg width="26" height="26" fill="none" xmlns="http://www.w3.org/2000/svg"><path d="M12.058 21h8.29v2h-8.29v-2zM25.926 6.558l-3.08 9.812c-.154.453-.324.796-1.19.796H10.17L10.5 19l-2.206.983L4.92 4.316H.8c-.525 0-.799-.13-.799-.627v-.917C0 2.258.293 2 .8 2H5.68c.746 0 1.116.538 1.24 1.101l.447 2.002 17.37.004c.127 0 .783.004 1.101.492.125.19.242.479.087.96z" fill="#103654"/><path fill-rule="evenodd" clip-rule="evenodd" d="M10.174 25c1.665 0 3.014-1.382 3.014-3.088 0-1.705-1.35-3.087-3.014-3.087-1.665 0-3.015 1.382-3.015 3.087C7.16 23.618 8.51 25 10.174 25zm0-1.544c.832 0 1.507-.691 1.507-1.544 0-.852-.675-1.544-1.507-1.544-.833 0-1.507.692-1.507 1.544 0 .853.674 1.544 1.507 1.544zM21.855 25c1.665 0 3.014-1.382 3.014-3.088 0-1.705-1.35-3.087-3.014-3.087-1.665 0-3.015 1.382-3.015 3.087 0 1.706 1.35 3.088 3.015 3.088zm0-1.544c.832 0 1.507-.691 1.507-1.544 0-.852-.675-1.544-1.507-1.544-.832 0-1.507.692-1.507 1.544 0 .853.675 1.544 1.507 1.544z" fill="#103654"/><path d="M9.582 7.757l1.5 6.5M13.082 7.757l1.5 6.5M16.582 7.757l1.5 6.5M20.082 7.757l1.183 5.382" stroke="#fff"/></svg>