<svg width="26" height="26" fill="none" xmlns="http://www.w3.org/2000/svg"><g clip-path="url(#clip0)" fill="#103654"><path d="M5.866 17.413c2.84-2.034 2.13-6.166 7.134-6.166 5.004 0 4.294 4.132 7.134 6.166 1.453.775 4.003.904 4.003 4.971 0 2.938-2.486 3.616-4.552 3.616-2.066 0-4.422-1.098-6.585-1.098-2.163 0-4.52 1.098-6.586 1.098-2.066 0-4.551-.678-4.551-3.616 0-4.067 2.55-4.196 4.003-4.97z"/><ellipse cx="22.799" cy="10.408" rx="2.922" ry="4.229"/><ellipse cx="16.794" cy="5.114" rx="2.922" ry="4.229"/><ellipse rx="2.922" ry="4.229" transform="matrix(-1 0 0 1 3.201 10.408)"/><ellipse rx="2.922" ry="4.229" transform="matrix(-1 0 0 1 9.205 5.114)"/></g><defs><clipPath id="clip0"><path fill="#fff" d="M0 0h26v26H0z"/></clipPath></defs></svg>