<svg width="200" height="200" viewBox="0 0 200 200" fill="none" xmlns="http://www.w3.org/2000/svg">
<rect width="200" height="200" fill="white"/>
<path d="M28.5718 135.273C24.6953 135.059 21.0958 135.166 17.6034 134.614C6.94761 132.941 -0.644531 123.135 0.043227 112.27C0.422178 107.082 2.6814 102.207 6.40004 98.5551C10.1187 94.9028 15.0432 92.7217 20.2562 92.4181C20.9975 92.4181 21.7389 92.4181 22.4892 92.4181C74.2169 92.4181 125.942 92.4181 177.664 92.4181C188.382 92.4181 196.76 98.6469 199.341 108.435C200.124 111.509 200.21 114.718 199.593 117.829C198.976 120.94 197.671 123.875 195.773 126.422C193.875 128.968 191.432 131.061 188.621 132.548C185.81 134.036 182.701 134.882 179.521 135.024C176.931 135.113 174.341 135.024 171.483 135.024V137.622C171.483 148.3 171.483 158.978 171.483 169.656C171.483 182.879 162.292 191.991 149.001 192C116.328 192 83.655 192 50.982 192C37.8521 192 28.6522 182.826 28.6522 169.754C28.6522 159.076 28.6522 148.398 28.6522 137.72L28.5718 135.273ZM28.4735 106.602C25.794 106.602 23.4717 106.522 21.1047 106.602C19.4232 106.669 17.8194 107.325 16.5759 108.455C15.3325 109.585 14.5291 111.116 14.3075 112.778C13.852 116.275 15.9867 119.896 19.5327 120.457C22.4445 120.946 25.4992 120.555 28.4646 120.555L28.4735 106.602ZM171.652 106.602V120.786C174.332 120.786 177.011 120.991 179.629 120.742C181.376 120.516 182.976 119.646 184.112 118.304C185.248 116.962 185.837 115.244 185.765 113.489C185.704 111.701 184.969 110 183.706 108.727C182.443 107.454 180.744 106.702 178.95 106.62C176.592 106.522 174.216 106.602 171.661 106.602H171.652Z" fill="#103654"/>
<path d="M80.3144 36.8298C76.9203 25.8136 79.4838 16.7817 87.46 11.0244C91.1006 8.40805 95.4757 7 99.9647 7C104.454 7 108.829 8.40805 112.469 11.0244C118.561 15.3758 124.224 24.6568 119.615 36.8832C121.723 37.3014 123.795 37.684 125.867 38.129C143.597 41.9553 159.478 49.3854 172.697 61.9767C174.203 63.4128 175.609 64.9499 176.904 66.5771C177.795 67.5918 178.357 68.8512 178.517 70.19C178.676 71.5288 178.425 72.8843 177.797 74.0785C177.239 75.3044 176.334 76.3417 175.194 77.0639C174.053 77.786 172.727 78.1617 171.375 78.145C170.929 78.145 170.482 78.145 170.036 78.145C123.232 78.145 76.4291 78.145 29.6258 78.145C25.6511 78.145 23.0519 76.659 21.8907 73.6959C21.3843 72.4882 21.2305 71.1627 21.447 69.8718C21.6635 68.5809 22.2415 67.3772 23.1144 66.3992C28.3574 59.8944 34.9045 54.9291 41.9876 50.6045C53.3566 43.8073 65.9424 39.2742 79.0461 37.2569C79.4776 37.1415 79.9012 36.9988 80.3144 36.8298V36.8298Z" fill="#103654"/>
</svg>
