<svg xmlns="http://www.w3.org/2000/svg" width="30.26" height="32.31"><g data-name="Слой 2"><g data-name="Layer 1"><g fill="#1a3244" data-name="&lt;Группа&gt;"><path d="M11.07 22.18L5.47 25a3.62 3.62 0 0 1-4.8-1.6l-.3-.6A3.62 3.62 0 0 1 2 18l5.6-2.8zM11.37 21.18l-2.9-5.7a40 40 0 0 0 6.1-6.3 21 21 0 0 0 3-6.5l9.1 18.5a29.36 29.36 0 0 0-7.8-1.4 26 26 0 0 0-7.5 1.4zM29.57 21.88l-.2.1a1.2 1.2 0 0 1-1.6-.6l-9.6-19.6a1.2 1.2 0 0 1 .6-1.6L19 .07a1.22 1.22 0 0 1 1.5.61l9.6 19.6a1.09 1.09 0 0 1-.53 1.6z" data-name="&lt;Контур&gt;"/><path d="M5.37 25l4.4-2.2a15.78 15.78 0 0 0 2.7 3.9 17.13 17.13 0 0 0 3.1 2.8l-3.7 1.8a12.55 12.55 0 0 1-3.1-2.5C7.07 27 5.37 25 5.37 25zM16.17 30.28l-4 2a.37.37 0 0 1-.5-.2V32a.37.37 0 0 1 .2-.5l4-2a.37.37 0 0 1 .5.2v.1c0 .08 0 .38-.2.48zM24.47 9l1.4 2.8a1.55 1.55 0 0 0 .4-2 1.84 1.84 0 0 0-1.8-.8z" data-name="&lt;Контур&gt;"/></g></g></g></svg>
