<svg id="Слой_2" data-name="Слой 2" xmlns="http://www.w3.org/2000/svg" viewBox="0 0 100 100"><defs><style>.cls-1{fill:#103654}</style></defs><path class="cls-1" d="M48.85 98.83h-.17c-.66 0-16.23-1.12-28.6-15.69C8 68.86 3.36 47.11 6.38 18.48a3 3 0 012-2.54L47.82 1.62a3.07 3.07 0 012.07 0l39.45 14.32a3 3 0 012 2.54c3 28.63-1.59 50.38-13.7 64.66C65.26 97.71 49.69 98.79 49 98.83zM12.25 21C9.8 47 14 66.55 24.72 79.2a38.28 38.28 0 0024.13 13.53 38.57 38.57 0 0024.23-13.64C83.74 66.43 87.91 46.89 85.46 21L48.85 7.72z"/><path class="cls-1" d="M62.57 42.53h-1.24v-9.21a9.06 9.06 0 00-9-9h-6.9a9.06 9.06 0 00-9 9.05v9.21h-1.28a4.56 4.56 0 00-4.55 4.56v18.22a4.56 4.56 0 004.55 4.56h27.41a4.57 4.57 0 004.55-4.56V47.09a4.56 4.56 0 00-4.54-4.56zM50.76 55.71v7.17a1 1 0 01-.95.95H47.9a1 1 0 01-.95-.95v-7.17a3.81 3.81 0 113.81 0zm4.48-13.18H42.46v-9.21a3 3 0 013-3h6.85a3 3 0 013 3v9.21z"/></svg>