<svg version="1.1" xmlns="http://www.w3.org/2000/svg" x="0" y="0" width="26" height="26" xml:space="preserve"><style>.st0{fill:#1a3244}</style><path class="st0" d="M20.033 1.509c-2.505-2.545-4.961-1.473-6.935.301-.03.03-.07.06-.1.09-2.004-1.824-4.5-2.956-7.035-.391-1.984 2.024-1.994 5.261 0 7.266 3.377 3.067 5.131 4.66 6.053 5.492.281.251.631.391.982.391.361 0 .732-.13 1.032-.381.912-.842 2.666-2.425 6.003-5.492a5.085 5.085 0 001.493-3.638 5.187 5.187 0 00-1.493-3.638zm-.471 5.702h-3.257l-.311-.801-.441-1.173-.531 1.173-.371.802-.912 2.014-.06.15a.417.417 0 01-.371.241c-.06 0-.11-.01-.17-.04a.367.367 0 01-.22-.251l-.792-2.115-.311-.801-.912-2.415L9.81 6.41l-.26.571c-.06.15-.21.23-.361.23H6.433a.402.402 0 010-.802h2.485l1.623-3.598.04-.08c.01-.01.01-.02.02-.03.04-.06.11-.11.19-.15.21-.07.441.03.521.241l.06.15 1.303 3.468.311.802.351.942.421-.942.372-.802 1.082-2.395c0-.01.01-.02.02-.03l.01-.02c0-.01 0-.01.01-.02.01-.02.02-.03.04-.05.02-.02.04-.04.06-.05.01-.01.02-.01.03-.02.02-.01.03-.02.04-.02.01 0 .02 0 .02-.01h.02c.04-.02.08-.02.12-.02h.06c.01 0 .01.01.01.01.03 0 .06.01.09.02.01.01.01.01.02.01 0 .01 0 .01.01.01.03.01.05.03.08.05.01.01.01.02.02.03h.01c.03.03.06.07.08.12l.06.16.842 2.225h2.696c.22 0 .411.18.411.401.001.22-.189.4-.409.4z"/><path class="st0" d="M20.307 15.191c0-.786-.639-1.426-1.425-1.426h-.514c-.786 0-1.426.64-1.426 1.426V18.2H9.058v-3.009c0-.786-.64-1.426-1.426-1.426h-.513c-.786 0-1.426.64-1.426 1.426v9.383c0 .786.64 1.426 1.426 1.426h.513c.786 0 1.426-.64 1.426-1.426v-3.009h7.884v3.009c0 .786.64 1.426 1.426 1.426h.514c.786 0 1.425-.64 1.425-1.426v-9.383zM4.881 16.679a.974.974 0 00-.973-.974h-.351a.975.975 0 00-.974.974v2.054h-.64a.975.975 0 00-.974.974v.351c0 .537.437.974.974.974h.64v2.054c0 .537.437.974.974.974h.351a.974.974 0 00.973-.974v-6.407zM21.119 16.679c0-.537.436-.974.973-.974h.351c.537 0 .974.437.974.974v2.054h.64c.537 0 .974.437.974.974v.351a.975.975 0 01-.974.974h-.64v2.054a.975.975 0 01-.974.974h-.351a.974.974 0 01-.973-.974v-6.407z"/></svg>