<svg width="972" height="516" viewBox="0 0 972 516" fill="none" xmlns="http://www.w3.org/2000/svg">
<path d="M10.999 0V516" stroke="#0F4465" stroke-miterlimit="10"/>
<path d="M48.999 0V516" stroke="#0F4465" stroke-miterlimit="10"/>
<path d="M86.999 0V516" stroke="#0F4465" stroke-miterlimit="10"/>
<path d="M124.999 0V516" stroke="#0F4465" stroke-miterlimit="10"/>
<path d="M162.999 0V516" stroke="#0F4465" stroke-miterlimit="10"/>
<path d="M200.999 0V516" stroke="#0F4465" stroke-miterlimit="10"/>
<path d="M238.999 0V516" stroke="#0F4465" stroke-miterlimit="10"/>
<path d="M276.999 0V516" stroke="#0F4465" stroke-miterlimit="10"/>
<path d="M314.999 0V516" stroke="#0F4465" stroke-miterlimit="10"/>
<path d="M352.999 0V516" stroke="#0F4465" stroke-miterlimit="10"/>
<path d="M390.999 0V516" stroke="#0F4465" stroke-miterlimit="10"/>
<path d="M428.999 0V516" stroke="#0F4465" stroke-miterlimit="10"/>
<path d="M466.999 0V516" stroke="#0F4465" stroke-miterlimit="10"/>
<path d="M504.999 0V516" stroke="#0F4465" stroke-miterlimit="10"/>
<path d="M542.999 0V516" stroke="#0F4465" stroke-miterlimit="10"/>
<path d="M580.999 0V516" stroke="#0F4465" stroke-miterlimit="10"/>
<path d="M618.999 0V516" stroke="#0F4465" stroke-miterlimit="10"/>
<path d="M656.999 0V516" stroke="#0F4465" stroke-miterlimit="10"/>
<path d="M694.999 0V516" stroke="#0F4465" stroke-miterlimit="10"/>
<path d="M732.999 0V516" stroke="#0F4465" stroke-miterlimit="10"/>
<path d="M770.999 0V516" stroke="#0F4465" stroke-miterlimit="10"/>
<path d="M808.999 0V516" stroke="#0F4465" stroke-miterlimit="10"/>
<path d="M846.999 0V516" stroke="#0F4465" stroke-miterlimit="10"/>
<path d="M884.999 0V516" stroke="#0F4465" stroke-miterlimit="10"/>
<path d="M922.999 0V516" stroke="#0F4465" stroke-miterlimit="10"/>
<path d="M960.999 0V516" stroke="#0F4465" stroke-miterlimit="10"/>
<path d="M0 505L972 505" stroke="#0F4465" stroke-miterlimit="10"/>
<path d="M0 467L972 467" stroke="#0F4465" stroke-miterlimit="10"/>
<path d="M0 429L972 429" stroke="#0F4465" stroke-miterlimit="10"/>
<path d="M0 391L972 391" stroke="#0F4465" stroke-miterlimit="10"/>
<path d="M0 353L972 353" stroke="#0F4465" stroke-miterlimit="10"/>
<path d="M0 315L972 315" stroke="#0F4465" stroke-miterlimit="10"/>
<path d="M0 277L972 277" stroke="#0F4465" stroke-miterlimit="10"/>
<path d="M0 239L972 239" stroke="#0F4465" stroke-miterlimit="10"/>
<path d="M0 201L972 201" stroke="#0F4465" stroke-miterlimit="10"/>
<path d="M0 163L972 163" stroke="#0F4465" stroke-miterlimit="10"/>
<path d="M0 125L972 125" stroke="#0F4465" stroke-miterlimit="10"/>
<path d="M0 87L972 87" stroke="#0F4465" stroke-miterlimit="10"/>
<path d="M0 49L972 49" stroke="#0F4465" stroke-miterlimit="10"/>
<path d="M0 11L972 11" stroke="#0F4465" stroke-miterlimit="10"/>
<path d="M375 345.003C375 338.376 380.373 333.003 387 333.003H429.721C433.251 333.003 436.602 334.557 438.882 337.252L448.967 349.171C451.627 352.315 455.537 354.128 459.655 354.128H562.501C569.129 354.128 574.501 359.501 574.501 366.128V478.254C574.501 484.881 569.129 490.254 562.501 490.254H387C380.373 490.254 375 484.881 375 478.254V345.003Z" fill="#103654" stroke="#176293" stroke-width="2"/>
<circle cx="627.5" cy="467.5" r="17.5" fill="#134564"/>
<circle cx="673" cy="427" r="12" fill="#134564"/>
<circle cx="653" cy="375" r="8" fill="#134564"/>
<circle cx="319" cy="456" r="11" fill="#134564"/>
<circle cx="293.5" cy="416.5" r="7.5" fill="#134564"/>
<circle cx="304" cy="378" r="4" fill="#134564"/>
<rect x="337.114" y="287.943" width="111" height="152.23" rx="12.7432" transform="rotate(-7 337.114 287.943)" fill="#103654" stroke="#176293" stroke-width="2.00006"/>
<rect x="368.338" y="410.952" width="26.6666" height="8.88885" transform="rotate(-7 368.338 410.952)" fill="#134564"/>
<rect x="399.218" y="407.16" width="13.3333" height="8.88885" transform="rotate(-7 399.218 407.16)" fill="#134564"/>
<rect x="416.863" y="404.993" width="13.3333" height="8.88885" transform="rotate(-7 416.863 404.993)" fill="#134564"/>
<rect x="434.508" y="402.827" width="13.3333" height="8.88885" transform="rotate(-7 434.508 402.827)" fill="#134564"/>
<rect x="366.523" y="396.174" width="26.6666" height="8.88885" transform="rotate(-7 366.523 396.174)" fill="#134564"/>
<rect x="397.403" y="392.382" width="13.3333" height="8.88885" transform="rotate(-7 397.403 392.382)" fill="#134564"/>
<rect x="415.048" y="390.216" width="13.3333" height="8.88885" transform="rotate(-7 415.048 390.216)" fill="#134564"/>
<rect x="432.693" y="388.049" width="13.3333" height="8.88885" transform="rotate(-7 432.693 388.049)" fill="#134564"/>
<rect x="364.709" y="381.396" width="26.6666" height="8.88885" transform="rotate(-7 364.709 381.396)" fill="#134564"/>
<rect x="395.588" y="377.604" width="13.3333" height="8.88885" transform="rotate(-7 395.588 377.604)" fill="#134564"/>
<rect x="413.234" y="375.438" width="13.3333" height="8.88885" transform="rotate(-7 413.234 375.438)" fill="#134564"/>
<rect x="430.879" y="373.271" width="13.3333" height="8.88885" transform="rotate(-7 430.879 373.271)" fill="#134564"/>
<rect x="362.895" y="366.618" width="26.6666" height="8.88885" transform="rotate(-7 362.895 366.618)" fill="#134564"/>
<rect x="393.774" y="362.826" width="13.3333" height="8.88885" transform="rotate(-7 393.774 362.826)" fill="#134564"/>
<rect x="411.419" y="360.66" width="13.3333" height="8.88885" transform="rotate(-7 411.419 360.66)" fill="#134564"/>
<rect x="429.064" y="358.493" width="13.3333" height="8.88885" transform="rotate(-7 429.064 358.493)" fill="#134564"/>
<rect x="355.217" y="304.087" width="80" height="51" rx="2" transform="rotate(-7 355.217 304.087)" fill="#134564"/>
<path d="M384.514 321.144C379.342 332.358 368.815 353.297 368.38 353.854L434.384 345.75L412.227 325.298L403.328 338.984L384.514 321.144Z" fill="#103654"/>
<rect x="524.637" y="274.113" width="110.835" height="152.003" rx="12.7242" transform="rotate(7 524.637 274.113)" fill="#103654" stroke="#176293" stroke-width="1.99709"/>
<path d="M571.885 298.403C566.153 298.582 560.594 300.413 555.878 303.676C551.161 306.939 547.488 311.495 545.299 316.796C543.11 322.097 542.5 327.917 543.54 333.557C544.581 339.197 547.228 344.417 551.164 348.588C555.101 352.759 560.158 355.704 565.728 357.069C571.299 358.434 577.145 358.162 582.563 356.283C587.982 354.405 592.743 351.001 596.274 346.482C599.804 341.962 601.954 336.519 602.464 330.806L572.814 328.157L571.885 298.403Z" fill="#134564"/>
<path d="M603.214 324.654C603.471 321.402 603.051 318.132 601.981 315.05C600.91 311.968 599.213 309.141 596.996 306.748C594.778 304.355 592.089 302.447 589.097 301.146C586.106 299.844 582.877 299.176 579.615 299.185L579.678 322.794L603.214 324.654Z" fill="#134564"/>
<rect x="525.842" y="370.983" width="68" height="9" rx="2" transform="rotate(7 525.842 370.983)" fill="#134564"/>
<rect x="523.893" y="386.864" width="88" height="9" rx="2" transform="rotate(7 523.893 386.864)" fill="#134564"/>
<rect x="521.943" y="402.745" width="81" height="9" rx="2" transform="rotate(7 521.943 402.745)" fill="#134564"/>
<rect x="414" y="233" width="144.122" height="197.437" rx="16.7716" fill="#103654" stroke="#176293" stroke-width="2"/>
<rect x="429.247" y="332" width="33" height="86" rx="4" fill="#134564"/>
<rect x="470.247" y="361" width="32" height="57" rx="4" fill="#134564"/>
<rect x="510.247" y="349" width="32" height="69" rx="4" fill="#134564"/>
<rect x="429.247" y="251" width="55" height="44" rx="4" fill="#134564"/>
<rect x="490.247" y="286" width="52" height="9" rx="2" fill="#134564"/>
<rect x="490.247" y="269" width="52" height="9" rx="2" fill="#134564"/>
<rect x="490.247" y="252" width="52" height="9" rx="2" fill="#134564"/>
<rect x="429.247" y="303" width="113" height="9" rx="2" fill="#134564"/>
<path d="M398.943 371.619C400.175 366.144 405.038 362.253 410.65 362.253H455.971C459.501 362.253 462.852 363.808 465.132 366.502L475.218 378.422C477.878 381.565 481.787 383.379 485.905 383.379H584.798C592.691 383.379 598.435 390.869 596.387 398.492L574.122 481.368C572.713 486.61 567.961 490.254 562.533 490.254H387.25C379.56 490.254 373.855 483.122 375.543 475.62L398.943 371.619Z" fill="#103654" stroke="#176293" stroke-width="2"/>
</svg>
