<svg width="1522" height="430" fill="none" xmlns="http://www.w3.org/2000/svg"><g clip-path="url(#clip0)" fill="#124969"><path d="M898.465 189.701h.64l15.94 11.33h-.71l-15.87-11.33zM681.835 189.701h.65l-9.46 11.33h-.72l9.53-11.33zM952.615 189.701h.65l22.29 11.33h-.71l-22.23-11.33zM573.525 189.701h.64l-22.15 11.33h-.72l22.23-11.33zM790.145 189.701h.65l3.24 11.33h-.72l-3.17-11.33zM844.305 189.701h.64l9.6 11.33h-.72l-9.52-11.33zM735.995 189.701h.64l-3.1 11.33h-.72l3.18-11.33zM627.685 189.701h.64l-15.81 11.33h-.72l15.89-11.33zM1027.54 201.041l-51.565.2h-477.78l53.1-.2H1027.54zM868.095 218.021l-14.09-16.78h.72l14.2 16.78h-.83zM798.065 218.021l-4.69-16.78h.72l4.8 16.78h-.83zM587.995 218.021l23.51-16.78h.72l-23.4 16.78h-.83zM1008.15 218.021l-32.895-16.78h.72l32.995 16.78h-.82zM658.025 218.021l14.1-16.78h.73l-14 16.78h-.83zM517.975 218.021l32.9-16.78h.72l-32.79 16.78h-.83zM938.115 218.021l-23.49-16.78h.72l23.6 16.78h-.83zM728.045 218.021l4.71-16.78h.72l-4.6 16.78h-.83zM1069.13 218.021l-59.6.28H456.435l61.54-.28h551.155zM970.775 241.351l-32.27-23.05h.84l32.42 23.05h-.99zM804.585 241.351l-6.44-23.05h.83l6.6 23.05h-.99zM555.315 241.351l32.29-23.05h.83l-32.14 23.05h-.98zM887.685 241.351l-19.36-23.05h.83l19.51 23.05h-.98zM1053.88 241.351l-45.18-23.05h.83l45.32 23.05h-.97zM472.215 241.351l45.21-23.05h.83l-45.05 23.05h-.99zM721.505 241.351l6.47-23.05h.83l-6.32 23.05h-.98zM638.405 241.351l19.38-23.05h.84l-19.23 23.05h-.99zM1126.24 241.351l-70.59.4H399.035l73.18-.4H1126.24z"/><path d="M916.265 275.381l-28.25-33.64h.99l28.47 33.64h-1.21zM405.465 275.381l65.97-33.64h.99l-65.75 33.64h-1.21zM507.625 275.381l47.13-33.64h.99l-46.91 33.64h-1.21zM609.785 275.381l28.29-33.64h.99l-28.06 33.64h-1.22zM711.955 275.381l9.43-33.64h.99l-9.21 33.64h-1.21zM814.105 275.381l-9.41-33.64h.99l9.63 33.64h-1.21zM1018.42 275.381l-47.085-33.64h.99l47.325 33.64h-1.23zM1120.59 275.381l-65.93-33.64h.98l66.17 33.64h-1.22zM1209.56 275.381l-86.58.6H315.205l90.25-.6H1209.56zM1227.06 329.681l-105.28-53.7h1.2l105.64 53.7h-1.56zM696.705 329.681l15.08-53.7h1.21l-14.71 53.7h-1.58zM829.285 329.681l-15.01-53.7h1.21l15.37 53.7h-1.57zM564.115 329.681l45.16-53.7h1.22l-44.8 53.7h-1.58zM1094.46 329.681l-75.19-53.7h1.21l75.56 53.7h-1.58zM961.875 329.681l-45.11-53.7h1.22l45.46 53.7h-1.57zM431.525 329.681l75.25-53.7h1.22l-74.89 53.7h-1.58zM298.935 329.681l105.35-53.7h1.21l-104.98 53.7h-1.58zM1342.54 329.691l-111.92 1.01H181.235l117.7-1.01H1342.54zM155.865 402.621l141.08-71.92h1.58l-140.6 71.92h-2.06zM329.315 402.621l100.79-71.92h1.58l-100.31 71.92h-2.06zM502.775 402.621l60.49-71.92h1.58l-60.01 71.92h-2.06zM1023.14 402.621l-60.415-71.92h1.58l60.885 71.92h-2.05zM676.235 402.621l20.19-71.92h1.58l-19.71 71.92h-2.06zM1196.59 402.621l-100.7-71.92h1.57l101.2 71.92h-2.07zM849.675 402.621l-20.11-71.92h1.58l20.59 71.92h-2.06zM1370.06 402.621l-141.01-71.92h1.57l141.48 71.92h-2.04zM1521.12 402.631l-145.58 1.73H.875l154.98-1.73H1521.12zM857.235 429.651l-7.07-25.29h2.07l7.24 25.29h-2.24zM668.655 429.651l7.1-25.29h2.06l-6.93 25.29h-2.23zM1045.83 429.651l-21.24-25.29h2.08l21.39 25.29h-2.23zM480.045 429.651l21.27-25.29h2.07l-21.09 25.29h-2.25zM1234.44 429.651l-35.41-25.29h2.06l35.59 25.29h-2.24zM291.455 429.651l35.43-25.29h2.07l-35.27 25.29h-2.23zM1423.04 429.651l-49.59-25.29h2.08l49.75 25.29h-2.24zM102.855 429.651l49.6-25.29h2.07l-49.44 25.29h-2.23z"/></g><g clip-path="url(#clip1)"><path d="M703.68 262.13a3.83 3.83 0 0 0-2.81 6.54c2.48 2.39 6.8.67 6.8-2.71a3.92 3.92 0 0 0-4-3.83h.01zm181.68-29.87a3.791 3.791 0 0 0-2.545 6.613 3.798 3.798 0 0 0 4.269.544 3.792 3.792 0 0 0 2.026-3.797 3.756 3.756 0 0 0-1.23-2.4 3.755 3.755 0 0 0-2.52-.96zm-296.12-18.41a3.72 3.72 0 0 0-3.66 3.79 3.664 3.664 0 0 0 2.199 3.485 3.674 3.674 0 0 0 4.051-.755 3.86 3.86 0 0 0-2.59-6.52zm208-66.16c-3.88.19-5.13 4.31-2.83 6.51a4.002 4.002 0 0 0 6.092-.531 3.997 3.997 0 0 0 .728-2.169 3.908 3.908 0 0 0-4-3.81h.01zm154.99-4c-34.33 19.77-73.24 42.18-147.93 82.09-17.51-7.3-40.85-17-58.37-24.31-77.8 21.73-95.88 26.9-161.21 46.06L581 249.9v43.43c9.693.133 19.51.243 29.45.33 9.94.087 20.017.163 30.23.23 10.2.06 20.503.103 30.91.13 10.407.027 20.91.027 31.51 0v-23.23c-7.3-2.43-3.91-8-1.88-9 4.14-2.16 8.74 1.76 7.05 6a5.112 5.112 0 0 1-4.15 3v23.35h26.31l13.27-.06 13.33-.07c12.98-.08 25.877-.183 38.69-.31 12.813-.127 25.48-.277 38-.45 12.507-.167 24.88-.363 37.12-.59 12.24-.227 24.283-.463 36.13-.71-6.65-6.58-15.5-15.36-22.16-21.93v-29.23c-7.11-2.38-3.79-8.28-.92-9.27a4.769 4.769 0 0 1 5.65 6.62 4.872 4.872 0 0 1-3.76 2.63v28.74c6.85 6.69 15.85 15.61 22.6 22.28l11.16-.25 11.05-.26 10.92-.28 10.8-.28V143.79l-.08-.1zM830.88 110a3.797 3.797 0 0 0-3.599 2.298 3.805 3.805 0 0 0 .809 4.192 3.923 3.923 0 0 0 4.234.875 3.929 3.929 0 0 0 2.476-3.545 3.892 3.892 0 0 0-3.92-3.82zm-33.62-30c-3.88.17-5.13 4.29-2.83 6.5a4 4 0 0 0 6.82-2.67 3.921 3.921 0 0 0-4-3.83h.01zM630.01 56.29a3.818 3.818 0 0 0-3.736 4.7 3.814 3.814 0 0 0 3.212 2.906 3.817 3.817 0 0 0 3.861-1.962c.369-.68.524-1.455.443-2.224a3.84 3.84 0 0 0-3.78-3.42zm307.09.16a3.749 3.749 0 0 0-2.29 6.62 3.579 3.579 0 0 0 5.87-3.2 3.76 3.76 0 0 0-3.58-3.42zm-140.64 32.1c-4.9-1-5.5-6.49-2-8.73 3.69-2.36 8.61.78 7.74 5a4.934 4.934 0 0 1-4.7 3.84v58.1c5.08.46 6.27 5.88 3 8.49-3.48 2.74-8.62.15-8.21-4.14a4.877 4.877 0 0 1 4.21-4.29V88.55h-.04zm94.64 32.9c-33.44-1.81-44.1-38.74-24.15-58.3 21.49-21.06 57.49-5.68 57.49 24.57 0 18.65-15 33.78-33.34 33.73zm61.25-79.73c-8.787-.167-17.683-.327-26.69-.48-9.007-.153-18.157-.303-27.45-.45-9.273-.14-18.633-.267-28.08-.38-9.447-.113-19.007-.223-28.68-.33l-10.07 9.71v59.25c7.37 2.49 3.78 8.21 1.41 9.17-4.25 1.73-8.39-2.58-6.33-6.58a5.002 5.002 0 0 1 3.91-2.59V49.39l9.67-9.3-20.41-.19-20.64-.17-20.85-.13-21-.11-27-.09h-52.97l-25.91.07-17.11 17.1c2.11 11.44-7.07 7.34-7.17 7.26a4.863 4.863 0 0 1-1.552-4.846 4.868 4.868 0 0 1 3.622-3.574 4.76 4.76 0 0 1 3.94.94l16.87-16.91-17.57.07-17.32.1c-5.73 0-11.43.07-17.08.12l-16.81.14v177h3.62c2.57-6.7 8.3-3.6 9.06-.16.8 3.63-3.48 7.35-7 4.94-1.08-.73-1.73-2.55-2.09-3.8h-3.56v28.66c39.23-24.82 63.22-39.81 113.55-69.93 16.79 7.13 39.19 16.62 56 23.66 80.72-22.48 122.59-34.47 196.8-57l4.86-2.81v-63.9l-12.1-12.87c-6 3.75-8.45-2.71-7.29-5.37a4.551 4.551 0 0 1 8.5.56 4.994 4.994 0 0 1-.61 4.08l11.5 12.24V41.72" fill="#103654"/><path d="M907.04 291.86c-11.88.26-23.923.497-36.13.71-12.207.213-24.58.41-37.12.59-12.547.167-25.213.317-38 .45-12.787.133-25.683.237-38.69.31l-13.33.07-13.27.06h-26.31V297h26.31l13.27-.06 13.33-.07c13.253-.087 26.407-.197 39.46-.33s25.96-.29 38.72-.47c12.76-.18 25.37-.387 37.83-.62 12.46-.233 24.717-.483 36.77-.75l-2.85-2.84h.01zm-326.01-74h-2.8v78.46c9.893.14 19.923.257 30.09.35 10.167.093 20.47.177 30.91.25 10.427.06 20.97.107 31.63.14 10.66.033 21.417.033 32.27 0v-2.95h-31.51c-10.407 0-20.71-.043-30.91-.13-10.187-.06-20.263-.137-30.23-.23-9.967-.093-19.783-.203-29.45-.33v-43.47l-.61.39-1.42-2.55 2.08-1.33v-28.62l-.05.02zM952.31 76.55v63.9l.53-.31.66 1.26.66 1.27-1.85 1.12v147l-10.8.28-10.92.28-11.05.26-11.16.25 2.85 2.84 11.14-.26 11-.27 10.89-.28 10.76-.3V79.47l-2.72-2.92h.01zM652.84 36.47l-19.07.08-18.8.11-18.5.13-18.19.16v179.89h2.8v-177l16.81-.14c5.65 0 11.35-.08 17.08-.12l17.32-.1 17.57-.07 3-3-.02.06zm190.23.65l-21.13-.21-21.41-.12-21.61-.14c-7.24-.053-14.51-.093-21.81-.12l-26.18-.09h-51.48c-8.467 0-16.87.02-25.21.06l-3 3 25.91-.07H730.13l27 .09 21 .11 20.85.13 20.64.17 20.41.19 3-2.91.04-.09zm111.96 1.79l-26.61-.5a10543.75 10543.75 0 0 0-55.33-.84 9493.04 9493.04 0 0 0-28.62-.34l-3 2.9c9.64.1 19.2.21 28.68.33 9.48.12 18.84.247 28.08.38 9.24.133 18.377.277 27.41.43 9.033.153 17.93.313 26.69.48v33.44l2.72 2.92V38.88" fill="#154D72"/><path d="M694.87 179.9c-39.45 23.69-66.54 40.06-110.07 67.68 63.83-18.72 81.59-23.79 161.21-46.06-15.35-6.46-35.82-15.08-51.14-21.62zm252.58-36.64c-74.37 22.5-111.15 33.15-196.8 57 16.08 6.69 37.52 15.61 53.58 22.32 35.27-18.91 83.57-44.82 143.22-79.29v-.03z" fill="#103654"/><path d="M952.84 140.14l-.53.31-4.86 2.81c-30.58 17.53-72.46 41.53-143.22 79.29-16.07-6.7-37.5-15.64-53.58-22.32-16.82-7.06-39.24-16.51-56-23.66-40 24-67.56 40.7-113.55 69.93l-2.1 1.29 1.47 2.51.61-.39 3.72-2.37c35.44-22.35 59.72-37.58 110.07-67.68 15.33 6.51 35.77 15.19 51.14 21.62 17.51 7.28 40.86 17 58.37 24.31 39.76-21.34 84.83-45.53 147.93-82.09l1.85-1.07-.66-1.27-.66-1.26" fill="#154D72"/><path d="M891.06 56.34c-30.58 1.19-40.31 34.81-22.06 53 19.63 19.52 52.63 5.98 52.63-21.65 0-17.09-13.69-31.15-30.52-31.35" fill="#103654"/><path d="M891.06 118.53c-30.53-1.66-40.27-35.43-22.06-53.3 19.63-19.29 52.63-5.22 52.63 22.46a30.65 30.65 0 0 1-30.52 30.84h-.05zm.05-65.11c-33.49 1.3-44.15 38.08-24.15 58 21.49 21.35 57.49 6.54 57.49-23.65 0-18.69-15-34.07-33.34-34.3" fill="#154D72"/><path d="M1098.91 254.92c-3 .32-3.64 4.93-1.56 6.65 2.08 1.72 4.55-.47 4.31-3.53-.14-1.8-1.35-3.17-2.75-3.12zm76.31-18.81c-2.51.33-2.87 5.14-1.05 6.61 1.66 1.34 3.57-1 3.19-3.93-.2-1.6-1.11-2.73-2.14-2.68zm17.59-55.32c-26.84 25-34.88 31.92-66.19 57.32-8.69-4.88-20.27-11.41-29-16.2-36.41 14.34-45.06 17.75-91.71 34.52l-3.41 2.36v30.41c8.67-.293 17.2-.597 25.59-.91 8.39-.313 16.58-.647 24.56-1 8-.327 15.83-.66 23.5-1 7.67-.34 15.13-.697 22.4-1.07v-22.18c-4.49-1.24-3.32-7-1.31-8.44 2.73-2 5.87 1.17 5 5.05a4.21 4.21 0 0 1-1.01 2.114 4.268 4.268 0 0 1-1.99 1.246v22.2c8.96-.453 17.66-.917 26.09-1.39a3330.963 3330.963 0 0 0 46.8-2.95c7.22-.507 14.11-1.023 20.66-1.55v-40.63l-3.62.19-3.68.2-3.74.2-3.8.19c-.56 5.77-3.72 4.73-4.71 3.33-1.77-2.5-.43-8.15 2.45-7.54 1.55.34 2 2.51 2.2 3.32l3.82-.19 3.75-.2 3.7-.19 3.63-.2v-57.01h.02zm-129.13-34.45c-3.24.21-3.91 4.85-1.68 6.68 2.23 1.83 4.91-.3 4.65-3.41a3.265 3.265 0 0 0-3-3.27h.03zm129.1-34.9c-8.71-.173-17.91-.34-27.6-.5-9.69-.16-19.95-.32-30.77-.48-10.83-.16-22.12-.313-33.87-.46-11.85-.14-24.15-.28-36.88-.42v35.83c5.15 1 4 7.12 1.78 8.6-2.9 1.91-6.31-1.36-5.44-5.22a4.26 4.26 0 0 1 1-2.039 4.257 4.257 0 0 1 1.89-1.251v-35.93l-14.53-.15-14.92-.15-15.3-.14-15.67-.13v146.46c22.81-16.48 40.83-29.5 68.47-50.91 8.95 4.79 20.91 11.15 29.82 16 35.83-15 53.81-22.5 89.25-40.23l2.77-2.63v-34.2h-11.46c-1.25 21.3-15.55 28.23-24.69 17.08-12-14.62-3.85-44.12 11.42-41.53 7.61 1.29 13.31 11.42 13.26 23.55h11.48v-31.15" fill="#103654"/><path d="M1194.38 238.6H1192.81v40.63c-6.6.52-13.49 1.037-20.66 1.55-7.17.513-14.67 1.013-22.5 1.5-7.83.493-15.93.977-24.3 1.45-8.37.473-17.07.937-26.09 1.39v2.78c9.14-.467 18-.95 26.59-1.45s16.85-.973 24.78-1.42c7.91-.507 15.53-1.03 22.86-1.57s14.31-1.077 20.94-1.61V238.6h-.05zm.05-95.11h-1.57v34.22l.33-.32.76 2.32-1.09 1v57H1194.43v-94.22zm-131.56-36.7l-15.12-.17-15.53-.16-15.94-.16-16.34-.15v186c8.92-.3 17.69-.613 26.3-.94 8.61-.327 17.02-.66 25.23-1 8.2-.34 16.24-.693 24.11-1.06 7.87-.367 15.54-.743 23-1.13v-2.77c-7.3.36-14.77.717-22.4 1.07-7.63.353-15.47.687-23.5 1-8 .327-16.19.66-24.56 1-8.37.34-16.9.643-25.59.91v-30.44l-.57.4-.67-1.2-.66-1.2 1.92-1.36V109l15.67.13 15.3.14 14.92.15 14.53.15V106.72l-.1.07zm131.51 2c-8.78-.18-18.06-.363-27.85-.55-9.79-.187-20.16-.337-31.11-.45a31723.74 31723.74 0 0 0-71.73-1v2.81c12.73.127 25.03.267 36.88.42 11.75.147 23.04.3 33.87.46 10.83.16 21.08.32 30.77.48 9.69.16 18.89.327 27.6.5v31.16h1.57v-33.83z" fill="#154D72"/><path d="M1071.14 207.71c-18.07 13.87-36.75 28.22-65.25 48.68 39.74-14.33 50.39-18.18 91.74-34.52-7.93-4.25-18.49-10-26.46-14.16h-.03zm118.93-27.37c-29.07 14.27-43.66 21.44-89.25 40.23 7.73 4.32 18.05 10 25.74 14.43 27.86-22.62 37.07-30.21 63.48-54.66" fill="#103654"/><path d="M1193.14 177.39l-.33.32-2.77 2.63c-23.62 21.72-31.84 29.12-63.51 54.66-7.72-4.33-18-10.16-25.74-14.43-8.94-4.82-20.84-11.28-29.82-16-20.9 16-37.41 28.68-68.47 50.91l-1.87 1.31.68 1.2.67 1.2.57-.4 3.39-2.43c19.61-14.24 39.89-29 65.25-48.68 7.94 4.24 18.55 9.85 26.46 14.16 8.72 4.84 20.36 11.27 29 16.2 32.08-26.06 40.12-33 66.19-57.32l1.09-1-.76-2.32" fill="#154D72"/><path d="M1166.3 139.09c-2.59.2-3 5-1.08 6.58 1.62 1.35 3.53-.61 3.34-3.43-.12-1.79-1.09-3.14-2.26-3.15zm.22-17.5c-15.94 1.06-18.13 29.69-6.51 39.12 8 6.44 18.58-.24 19.65-17.23h-10.56c-.58 3.56-3.09 4.43-4.62 2.51-2.21-2.78-.72-8.23 2.12-7.78.89.14 2.44 1.22 2.55 4.37h10.53c-.47-16.49-8.81-21-13.16-21" fill="#103654"/><path d="M1166.52 118.9c-18.1 1.17-20.57 33.53-7.36 44.19 9.08 7.33 21 .22 22.16-19.61h-1.69c-1.18 18.75-13.84 24.84-21.86 15-10.52-12.91-3.34-39 10.09-36.75 6.77 1.13 11.83 10.11 11.79 20.87h1.65c-.53-18.6-9.92-23.63-14.81-23.69" fill="#154D72"/><path d="M353.12 267.59c-1.31 0-2.21 1.41-2.28 3.49h.07v.9c.56 3.05 2.67 3.66 3.84 1.89 1.44-2.19.4-6.18-1.63-6.28zm140.64 2.14c-3.33.12-4.23 4.51-2.07 6.62 2.16 2.11 5.33.36 5.33-2.78a3.641 3.641 0 0 0-3.26-3.84zm24.87-56.42c-3.45.17-4.38 4.58-2.14 6.68 2.24 2.1 5.52.3 5.52-2.86a3.663 3.663 0 0 0-3.38-3.82zm10.89-29c-43.15 26.4-54.23 33.45-91.15 58-9.18-5.51-21.44-12.83-30.55-18.47-32.38 12.39-41.08 15.72-72.86 29.44l-2.15 2.15v14.6l4.25.25 4.33.25 4.41.24 4.5.25c.6-6.12 4.2-3.8 4.24-3.77 2.19 1.81 2.07 7.68-.8 8.44-.74.19-2.54.22-3.38-3.74l-4.52-.24-4.42-.25-4.35-.25-4.26-.26v14c9.62.667 19.853 1.283 30.7 1.85 10.847.567 22.363 1.13 34.55 1.69 12.193.54 24.943 1.047 38.25 1.52 13.307.473 27.227.907 41.76 1.3l12.76-14.67c-2.87-4.54.51-8.27 3.39-7.88 3.59.49 5 5.84 2.18 8.42-1 .91-2.66 1.68-4.94.11l-12.24 14.05 12.21.33 12.46.3 12.7.28c4.28.1 8.59.18 12.93.27v-75.1H522.88c-1 5.75-5.58 4.95-7.24 3.07-2.68-3-.81-8.09 3-8.09a4.51 4.51 0 0 1 4.2 4H529.53v-32.1l-.01.01zm-185.35-19.36c-2.49.19-2.86 5.15-1.05 6.78 1.55 1.4 3.43-.64 3.25-3.51-.11-1.82-1.08-3.26-2.2-3.27zm61.38-39.68c-2.9.22-3.5 4.92-1.51 6.76 1.99 1.84 4.45-.36 4.22-3.46-.14-1.86-1.33-3.31-2.71-3.3zm83.33 42.21c-23.21-1.47-28.13-33.12-12-46.16 14.87-12 35.77 2.48 33.88 23.47-1.14 12.77-10.77 22.73-21.91 22.69h.03zm40.57-59.3c-12.9.06-25.48.13-37.74.21-12.26.08-24.117.163-35.57.25-11.46.08-22.55.173-33.27.28-10.72.107-20.997.213-30.83.32l11.59 15.92c3.8-2.6 5.7 2 5.3 4.73-.51 3.37-3.56 4.84-5.52 2.66a5.998 5.998 0 0 1-.31-6.77c-3.58-5-8.4-11.55-12-16.53l-15.76.19-15 .19-14.2.2-13.4.22v58.35H341.38c.6-6.19 4-3.93 4.08-3.91 2.13 1.73 2 7.58-.76 8.45-.72.22-2.47.31-3.27-3.61H332.74v82.88c15-14.78 26.93-26.45 50.57-47.11 8.26 5.31 19.25 12.43 27.59 17.61 36.73-13.27 57-20.59 113.93-38.94l4.62-2.8v-72.79z" fill="#103654"/><path d="M332.77 270.98H331.16v16.74c9.547.667 19.707 1.3 30.48 1.9 10.773.6 22.22 1.18 34.34 1.74 12.12.547 24.803 1.067 38.05 1.56 13.247.493 27.113.91 41.6 1.25l2.44-2.83c-14.44-.387-28.36-.82-41.76-1.3-13.3-.473-26.05-.98-38.25-1.52a3408.5 3408.5 0 0 1-34.55-1.69 2401.815 2401.815 0 0 1-30.7-1.85v-14h-.04zm199.39-53.53h-2.64v75.13c-4.34-.09-8.65-.17-12.93-.27l-12.7-.28-12.46-.3-12.21-.33-2.44 2.83 13.41.37 13.7.34 14 .32 14.27.29v-78.1zm-199.39-48.13h-1.61v100.64H332.77v-14.6l-.36.36-.84-2.41 1.2-1.21v-82.78zm56.35-62.88l-15.67.2-14.89.21-14.1.23-13.3.22v61.08h1.61v-58.33l13.4-.22 14.2-.2 15-.19 15.76-.19-2-2.81h-.01zm143.01-1.19c-13.38.067-26.423.143-39.13.23-12.707.087-24.98.177-36.82.27-11.853.1-23.307.207-34.36.32-11.053.113-21.633.233-31.74.36l2 2.81c9.893-.107 20.17-.213 30.83-.32 10.66-.107 21.75-.2 33.27-.28 11.513-.093 23.37-.177 35.57-.25 12.2-.073 24.78-.143 37.74-.21v72.78l.56-.34.63 1.29.64 1.28-1.83 1.11v32.15h2.64v-111.2z" fill="#154D72"/><path d="M383.49 208.29c-14.91 13.21-30.33 26.87-48.57 45 28.07-12 34.74-14.91 72.86-29.44-7.29-4.67-17.06-10.82-24.29-15.58v.02zm141.37-24.5c-44.91 14.61-67.46 21.94-113.93 38.94 8.18 4.94 19 11.59 27.29 16.43 33-22 44.41-29.48 86.64-55.37z" fill="#103654"/><path d="M530.04 180.62l-.56.34-4.62 2.8c-39.54 24.32-51.35 31.77-86.64 55.37-8.19-4.92-19.16-11.41-27.29-16.43-8.29-5.26-19.38-12.22-27.59-17.61-17.23 15.3-30.85 27.37-50.57 47.11l-1.2 1.21.84 2.41.36-.36 2.15-2.15c13.14-12.79 26.72-26 48.57-45 7.28 4.68 16.95 11 24.29 15.58 9.15 5.57 21.33 13 30.55 18.47 36.14-24 47.06-31.1 91.15-58l1.83-1.11-.64-1.28-.63-1.29" fill="#154D72"/><path d="M488.88 119.85c-20.16 1.28-24.44 29.74-10.6 40.87 13.13 10.56 31.61-2.27 30-20.81-1-11.29-9.51-20.11-19.35-20.06" fill="#103654"/><path d="M488.88 164.58c-20.17-1.27-24.45-29.73-10.6-40.87 13.13-10.57 31.61 2.25 30 20.78-1 11.3-9.51 20.12-19.35 20.09h-.05zm.05-47.64c-23.21 1.49-28.13 33.14-12 46.18 14.87 12 35.77-2.51 33.88-23.51-1.14-12.76-10.77-22.72-21.91-22.67M1099.26 285.21v10.18c-4.44 5.93-10.34 13.85-14.82 19.76h-1.07c4.56-6.05 10.64-14.1 15.16-20.17v-32h.54l.17 22.18" fill="#154D72"/><path d="M1098.91 262.12c-3-.07-3.64-4.63-1.56-6.52 2.08-1.89 4.55.1 4.31 3.18-.14 1.81-1.35 3.28-2.75 3.34zm0-8.13c-3.87.4-4.6 6.33-1.87 8.44 2.73 2.11 5.89-1.11 5.28-5-.33-2.08-1.77-3.55-3.41-3.48M873.21 7.91c-9 8.79-21.1 20.51-30.16 29.27l-3 2.91-9.67 9.3v59.66a8.34 8.34 0 0 1 1 0V49.79l10.07-9.7 3-2.9c8.83-8.56 20.6-20 29.4-28.56-.2-.21-.47-.5-.65-.73" fill="#154D72"/><path d="M877.09 8.98a3.811 3.811 0 1 1 3.78-3.34 3.75 3.75 0 0 1-3.78 3.34zm0-8.56a4.75 4.75 0 1 0 4.77 4.85 4.881 4.881 0 0 0-4.77-4.85zM830.88 117.61a3.809 3.809 0 0 1-2.79-6.5 3.938 3.938 0 0 1 6.012.56c.437.633.68 1.38.698 2.15a3.868 3.868 0 0 1-1.176 2.706 3.863 3.863 0 0 1-2.744 1.084zm0-8.59a4.753 4.753 0 0 0-4.563 2.873 4.747 4.747 0 0 0 1.063 5.287 4.933 4.933 0 0 0 5.319 1.098 4.933 4.933 0 0 0 3.101-4.458 4.872 4.872 0 0 0-4.92-4.8zM884.88 240.79v29.14c6.65 6.58 15.52 15.34 22.16 21.93l2.85 2.84 16.07 16.09a5.55 5.55 0 0 1 .62-.74l-15.35-15.38-2.85-2.88c-6.75-6.7-15.75-15.63-22.53-22.32v-28.68a5.22 5.22 0 0 1-1 0" fill="#154D72"/><path d="M929.63 317.21a3.73 3.73 0 0 1-2.31-6.6 3.57 3.57 0 0 1 5.91 3.12 3.852 3.852 0 0 1-3.6 3.48zm0-8.49c-4.28.22-6.18 5.75-2.91 8.45 3.27 2.7 7.85-.18 7.44-4.33a4.5 4.5 0 0 0-4.53-4.12zM885.37 239.79a3.77 3.77 0 0 1-2.67-6.43 3.724 3.724 0 0 1 4.111-.894 3.727 3.727 0 0 1 2.329 3.504 3.834 3.834 0 0 1-3.77 3.82zm0-8.54a4.777 4.777 0 0 0-4.435 2.94 4.77 4.77 0 1 0 9.175 1.76 4.705 4.705 0 0 0-1.388-3.341 4.7 4.7 0 0 0-3.352-1.359zM940.81 62.95a4.717 4.717 0 0 1-.6.73l12.1 12.87 2.72 2.92 12.12 13c.177-.256.374-.496.59-.72l-12.71-13.64-2.72-2.92-11.5-12.24z" fill="#154D72"/><path d="M970.73 98.98a3.801 3.801 0 0 1-2.21-6.63c2.37-2.07 6 0 5.65 3.32a3.56 3.56 0 0 1-3.44 3.31zm0-8.41c-4.09.06-5.91 5.48-2.78 8.28 3 2.66 7.49.1 7.1-4a4.59 4.59 0 0 0-4.32-4.25M937.1 63.96a3.799 3.799 0 0 1-2.29-6.68c2.46-2.08 6.19.06 5.87 3.36a3.636 3.636 0 0 1-3.58 3.32zm0-8.47c-4.67.17-5.91 5.68-2.88 8.32a4.501 4.501 0 0 0 7.41-4.02 4.72 4.72 0 0 0-4.5-4.3M797.26 155.32c-3.88-.19-5.13-4.31-2.83-6.51a4.003 4.003 0 0 1 4.29-.887 4.002 4.002 0 0 1 2.53 3.577 3.922 3.922 0 0 1-4 3.82h.01zm.22-8.61v.08h-1c-4.91 1-5.51 6.46-2 8.71 3.69 2.37 8.61-.75 7.74-4.92a5.003 5.003 0 0 0-4.7-3.85M797.26 87.63c-3.88-.2-5.13-4.34-2.83-6.53a4 4 0 0 1 6.82 2.73 3.894 3.894 0 0 1-4 3.8h.01zm-.01-8.61c-5 .21-6.49 5.42-3.51 8.21a5.219 5.219 0 0 0 2.71 1.32v-.61h1v.67c5.08-.44 6.27-5.86 3-8.48a5.26 5.26 0 0 0-3.2-1.11z" fill="#154D72"/><path d="M797.49 87.94h-1v58.85h1V87.94zM405.55 132.66c-2.91-.19-3.51-4.89-1.51-6.75 2-1.86 4.45.33 4.22 3.42-.14 1.86-1.33 3.32-2.71 3.33zm0-8.35a2.846 2.846 0 0 0-1.94.85l.26.35-.49.68-.3-.41c-2.11 3.21-.29 8.24 2.82 7.8 3.31-.46 4.2-6.57 1.28-8.71a2.838 2.838 0 0 0-1.63-.56zM322.63 92.58c-2.43-.16-2.56-5.44-.77-6.85 1.47-1.16 3.06 1.12 2.73 3.93-.19 1.67-1 2.89-2 2.92h.04zm-.04-8.07c-3 .37-3.21 7-1 8.66 1.43 1.05 3.3-.52 3.49-4h-.34v-.93h.31c-.36-3-1.73-3.72-2.49-3.69" fill="#154D72"/><path d="M518.63 220.88c-3.45-.24-4.38-4.67-2.14-6.72 2.24-2.05 5.52-.18 5.52 3a3.561 3.561 0 0 1-3.38 3.75v-.03zm0-8.51c-4.35.21-5.51 5.75-2.69 8.4 2.49 2.33 6.57.95 6.94-3.38h-.08v-1c-.59-3.18-2.91-4-4.2-4M589.24 212.87a4.609 4.609 0 0 0-4.54 4h.93v.76a3.637 3.637 0 0 1 2.217-3.466 3.643 3.643 0 0 1 4.033.816c2.29 2.38.64 6.51-2.59 6.49a3.772 3.772 0 0 1-3.66-3.84v.22h-1c.44 4.83 5.65 6 8.16 2.87a4.815 4.815 0 0 0 .653-5.032 4.815 4.815 0 0 0-4.213-2.828" fill="#EC8266"/><path d="M585.63 216.88h-7.3l-11.82-.09-11.62-.09-11.46-.09-11.31-.1h-9.36v1h9.36l11.31.1 11.46.1 11.62.09 11.77.08h7.35v-1z" fill="#EC8266"/><path d="M1042.45 31.94h-.82v49.23c6.4 7.62 14.9 17.88 21.24 25.62v38.74c.25-.045.51-.075.77-.09v-39c-6.35-7.72-14.83-18-21.24-25.69V31.94" fill="#154D72"/><path d="M1063.68 153.64c-3.25-.19-3.92-4.84-1.68-6.67s4.91.28 4.65 3.38a3.287 3.287 0 0 1-3 3.29h.03zm-.03-8.23c-3.52 0-5.12 5.42-2.41 8.12 2.48 2.47 6.17.35 6.17-3.55 0-2.53-1.69-4.58-3.76-4.57zM704.2 294.1V325h-1v-54.21c.333.029.667.029 1 0v23.35" fill="#154D72"/><path d="M703.68 269.79a3.817 3.817 0 0 1-3.629-2.308 3.822 3.822 0 0 1 .819-4.222c2.48-2.4 6.8-.68 6.8 2.7a3.92 3.92 0 0 1-4 3.83h.01zm-.01-8.64c-5 .24-6.47 5.62-3.37 8.36 3.35 3 8.82.33 8.36-4a4.996 4.996 0 0 0-5-4.32" fill="#154D72"/><path d="M1235.78 211.79l-5.35.29-5.58.29-5.8.29-6 .28c-3.92 7.35-9.16 17.13-13.16 24.43l-1.36.08-1.37.08-1.38.08-1.38.07H1192.83l-3.63.2-3.7.19-3.75.2-3.82.19c.04.295.06.593.06.89l3.8-.19 3.74-.2 3.68-.2 3.62-.19H1194.4l1.44-.08 1.43-.08 1.42-.08 1.41-.09c4-7.31 9.26-17.07 13.15-24.43l6-.29 5.75-.29 5.53-.29 5.31-.29v-.86M1175.22 243.09c-2.51-.07-2.87-4.85-1.05-6.5 1.56-1.42 3.4.44 3.22 3.25-.11 1.79-1 3.19-2.17 3.25zm0-7.87c-3.16.4-3.62 6.45-1.32 8.3 2 1.64 4.41-1.17 4-4.78-.22-2.11-1.36-3.59-2.71-3.52" fill="#EC8266"/><path d="M353.12 266.66c-1.65.05-2.77 1.77-2.86 4.39h.58c.11-3.24 2.17-4.36 3.57-2.81 1.86 2.08 1 6.68-1.29 6.58-.17 0-1.71-.16-2.21-2.87h-.59c.58 3.73 3.1 4.77 4.64 2.85 2.1-2.61.88-8-1.84-8.17" fill="#154D72"/><path d="M350.91 271.08h-.65l-4.5-.25-4.41-.24-4.33-.25-4.25-.25H331.16c-3.5-.213-6.913-.427-10.24-.64l-9.71-.66-9.16-.68c-2.96-.22-5.83-.45-8.61-.69v.91l8.61.69c2.967.227 6.02.453 9.16.68 3.14.227 6.377.45 9.71.67l10.24.65H332.77l4.26.26 4.35.25 4.42.25 4.52.24h.59v-.93M1166.3 146.09c-2.59-.2-3-5-1.08-6.58 1.62-1.34 3.53.62 3.34 3.44-.12 1.79-1.09 3.14-2.26 3.14zm0-7.9c-3.27.24-3.74 6.29-1.36 8.27 1.53 1.27 3.63.26 4.16-3h-.31v-.89h.36c-.11-3.22-1.76-4.39-2.85-4.39" fill="#154D72"/><path d="M1241.08 142.67H1168.79v.89h72.29v-.86" fill="#154D72"/><path d="M287.92 120.96h-6v.89h5.83c9.65 20.78 12.22 26.07 23 47.18l4.9.06 5 .07 5.19.07 5.32.06h10.3a6.56 6.56 0 0 1 0-.93h-10.25l-5.27-.06-5.13-.07-5-.06-4.85-.06c-10.78-21.17-13.36-26.46-23-47.17" fill="#EC8266"/><path d="M344.17 172.18c-2.5-.23-2.86-5.21-1.05-6.8 1.55-1.37 3.43.71 3.25 3.58-.11 1.82-1.08 3.24-2.2 3.22zm0-8.16c-3.31.25-3.61 6.74-1.18 8.65 2.08 1.62 4.38-1.32 3.91-5-.27-2.11-1.41-3.65-2.73-3.66" fill="#EC8266"/><path d="M493.76 277.26c-3.34-.27-4.23-4.69-2.07-6.71 2.16-2.02 5.33-.13 5.33 3a3.444 3.444 0 0 1-1.941 3.351c-.413.2-.861.315-1.319.339v.02zm0-8.52c-4 .15-5.19 5-3 7.91l.4-.46.59.69-.36.42c2.93 2.37 6.77-.15 6.42-4.22a4.533 4.533 0 0 0-4.08-4.34" fill="#154D72"/><path d="M491.19 276.21l-.4.46-12.76 14.67-2.4 2.83c-5.48 6.43-12.79 15-18.23 21.45l-5.81-.21-5.74-.22-5.67-.23-5.61-.23v1l5.69.23 5.75.23 5.82.23 5.89.22c5.71-6.73 13.31-15.71 19.06-22.4l2.44-2.83 12.24-14.05.36-.42-.59-.69M376.42 86.96l-13.84.3-13.18.3-12.51.32-11.82.32h-.31v.93h.34l11.76-.32 12.44-.31 13.1-.3 13.76-.28c3.88 5.56 9 13 13 18.52l2 2.81c3.59 5 8.35 11.59 12 16.53l.3.41.49-.68-.26-.35-11.54-15.92-2-2.81c-4.1-5.84-9.59-13.6-13.65-19.47" fill="#154D72"/><path d="M771.42 19.79c-3.92-.21-5.19-4.36-2.86-6.54 2.52-2.37 6.9-.62 6.9 2.75a3.9 3.9 0 0 1-4 3.79h-.04zm.04-8.63a5.001 5.001 0 0 0-5.08 4.5h.12v1h-.07c1 4.66 6.88 5.33 9.24 2 2.36-3.33-.1-7.49-4.21-7.52M630.01 63.94a3.81 3.81 0 1 1 3.78-3.45 3.83 3.83 0 0 1-3.78 3.45zm0-8.64a4.82 4.82 0 0 0-3 8.53 4.799 4.799 0 0 0 7.788-3.526 4.799 4.799 0 0 0-1.078-3.264l-.18.18-.69-.7.17-.17a4.72 4.72 0 0 0-3-1" fill="#EC8266"/><path d="M766.46 15.62h-9.35l-21-.09h-61.93c-6.4 6.31-14.95 14.71-21.32 21l-3 3-16.87 16.82-.17.17.69.7.18-.18c5.27-5.28 12.28-12.34 17.57-17.6l3-3c6.1-6 14.22-14.06 20.34-20.06h40.87l20.75.06 20.91.09h9.39v-1" fill="#EC8266"/></g><defs><clipPath id="clip0"><path fill="#fff" transform="translate(.875 189.701)" d="M0 0h1520.25v239.95H0z"/></clipPath><clipPath id="clip1"><path fill="#fff" transform="translate(281.92 .42)" d="M0 0h959.16v324.58H0z"/></clipPath></defs></svg>