<svg width="126" height="126" fill="none" xmlns="http://www.w3.org/2000/svg"><path fill-rule="evenodd" clip-rule="evenodd" d="M63 126c34.794 0 63-28.206 63-63S97.794 0 63 0 0 28.206 0 63s28.206 63 63 63z" fill="#FAFAFA"/><g filter="url(#filter0_d)"><path fill-rule="evenodd" clip-rule="evenodd" d="M63 103c22.091 0 40-17.909 40-40S85.091 23 63 23 23 40.909 23 63s17.909 40 40 40z" fill="#fff"/></g><path d="M64.06 82.714c9.044 0 15.173-5.89 15.173-13.626 0-8.45-6.367-12.913-13.508-12.913-4.343 0-8.33 2.44-10.175 5.117-.06-.297-.06-.535-.06-.833 0-6.307 4.106-11.246 9.938-11.246 3.51 0 5.772 1.07 7.914 3.094l3.808-6.486c-2.856-2.44-6.902-4.106-11.722-4.106-11.723 0-18.506 8.51-18.506 20.53 0 11.186 5.058 20.47 17.137 20.47zm-.477-7.498c-5.534 0-7.676-4.224-8.033-8.033 1.904-2.38 4.76-3.749 7.736-3.749 3.808 0 7.378 1.786 7.378 5.951 0 2.797-2.499 5.831-7.08 5.831z" fill="#C9E4F6"/><defs><filter id="filter0_d" x="15" y="17" width="96" height="96" filterUnits="userSpaceOnUse" color-interpolation-filters="sRGB"><feFlood flood-opacity="0" result="BackgroundImageFix"/><feColorMatrix in="SourceAlpha" values="0 0 0 0 0 0 0 0 0 0 0 0 0 0 0 0 0 0 127 0"/><feOffset dy="2"/><feGaussianBlur stdDeviation="4"/><feColorMatrix values="0 0 0 0 0 0 0 0 0 0 0 0 0 0 0 0 0 0 0.110705 0"/><feBlend in2="BackgroundImageFix" result="effect1_dropShadow"/><feBlend in="SourceGraphic" in2="effect1_dropShadow" result="shape"/></filter></defs></svg>