<svg width="126" height="126" fill="none" xmlns="http://www.w3.org/2000/svg"><path fill-rule="evenodd" clip-rule="evenodd" d="M63 126c34.794 0 63-28.206 63-63S97.794 0 63 0 0 28.206 0 63s28.206 63 63 63z" fill="#FAFAFA"/><g filter="url(#filter0_d)"><path fill-rule="evenodd" clip-rule="evenodd" d="M63 103c22.091 0 40-17.909 40-40S85.091 23 63 23 23 40.909 23 63s17.909 40 40 40z" fill="#fff"/></g><path d="M77.828 82v-7.438H61.643c10.294-7.498 15.888-13.389 15.888-20.172 0-7.914-6.724-12.675-15.174-12.675-5.534 0-11.425 2.023-15.293 6.486l4.82 5.594c2.678-2.797 6.13-4.582 10.652-4.582 3.272 0 6.426 1.725 6.426 5.177 0 4.88-4.76 8.985-21.005 21.005V82h29.871z" fill="#C9E4F6"/><defs><filter id="filter0_d" x="15" y="17" width="96" height="96" filterUnits="userSpaceOnUse" color-interpolation-filters="sRGB"><feFlood flood-opacity="0" result="BackgroundImageFix"/><feColorMatrix in="SourceAlpha" values="0 0 0 0 0 0 0 0 0 0 0 0 0 0 0 0 0 0 127 0"/><feOffset dy="2"/><feGaussianBlur stdDeviation="4"/><feColorMatrix values="0 0 0 0 0 0 0 0 0 0 0 0 0 0 0 0 0 0 0.110705 0"/><feBlend in2="BackgroundImageFix" result="effect1_dropShadow"/><feBlend in="SourceGraphic" in2="effect1_dropShadow" result="shape"/></filter></defs></svg>