<svg width="126" height="126" fill="none" xmlns="http://www.w3.org/2000/svg"><path fill-rule="evenodd" clip-rule="evenodd" d="M63 126c34.794 0 63-28.206 63-63S97.794 0 63 0 0 28.206 0 63s28.206 63 63 63z" fill="#FAFAFA"/><g filter="url(#filter0_d)"><path fill-rule="evenodd" clip-rule="evenodd" d="M63 103c22.091 0 40-17.909 40-40S85.091 23 63 23 23 40.909 23 63s17.909 40 40 40z" fill="#fff"/></g><path d="M74.167 82v-8.212h5.117V66.35h-5.117V42.31H62.504L46.735 67.124v6.664h18.982V82h8.45zm-8.45-15.65h-10.71l10.71-16.542V66.35z" fill="#C9E4F6"/><defs><filter id="filter0_d" x="15" y="17" width="96" height="96" filterUnits="userSpaceOnUse" color-interpolation-filters="sRGB"><feFlood flood-opacity="0" result="BackgroundImageFix"/><feColorMatrix in="SourceAlpha" values="0 0 0 0 0 0 0 0 0 0 0 0 0 0 0 0 0 0 127 0"/><feOffset dy="2"/><feGaussianBlur stdDeviation="4"/><feColorMatrix values="0 0 0 0 0 0 0 0 0 0 0 0 0 0 0 0 0 0 0.110705 0"/><feBlend in2="BackgroundImageFix" result="effect1_dropShadow"/><feBlend in="SourceGraphic" in2="effect1_dropShadow" result="shape"/></filter></defs></svg>