<svg width="126" height="126" fill="none" xmlns="http://www.w3.org/2000/svg"><path fill-rule="evenodd" clip-rule="evenodd" d="M63 126c34.794 0 63-28.206 63-63S97.794 0 63 0 0 28.206 0 63s28.206 63 63 63z" fill="#FAFAFA"/><g filter="url(#filter0_d)"><path fill-rule="evenodd" clip-rule="evenodd" d="M63 103c22.091 0 40-17.909 40-40S85.091 23 63 23 23 40.909 23 63s17.909 40 40 40z" fill="#fff"/></g><path d="M62.378 82.714c9.52 0 15.65-4.82 15.65-11.663 0-5.95-5.237-9.104-9.283-9.52 4.403-.774 8.688-4.047 8.688-9.045 0-6.605-5.713-10.77-14.996-10.77-6.962 0-11.96 2.677-15.173 6.307l4.224 5.296c2.797-2.678 6.248-4.106 10.057-4.106 4.165 0 7.378 1.547 7.378 4.7 0 2.917-2.915 4.226-7.319 4.226-1.487 0-4.225 0-4.939-.06v7.617c.595-.06 3.273-.12 4.94-.12 5.533 0 7.973 1.429 7.973 4.583 0 2.975-2.678 5.057-7.498 5.057-3.868 0-8.211-1.666-10.949-4.522l-4.403 5.653c2.916 3.57 8.33 6.367 15.65 6.367z" fill="#C9E4F6"/><defs><filter id="filter0_d" x="15" y="17" width="96" height="96" filterUnits="userSpaceOnUse" color-interpolation-filters="sRGB"><feFlood flood-opacity="0" result="BackgroundImageFix"/><feColorMatrix in="SourceAlpha" values="0 0 0 0 0 0 0 0 0 0 0 0 0 0 0 0 0 0 127 0"/><feOffset dy="2"/><feGaussianBlur stdDeviation="4"/><feColorMatrix values="0 0 0 0 0 0 0 0 0 0 0 0 0 0 0 0 0 0 0.110705 0"/><feBlend in2="BackgroundImageFix" result="effect1_dropShadow"/><feBlend in="SourceGraphic" in2="effect1_dropShadow" result="shape"/></filter></defs></svg>