<svg width="126" height="126" fill="none" xmlns="http://www.w3.org/2000/svg"><path fill-rule="evenodd" clip-rule="evenodd" d="M63 126c34.794 0 63-28.206 63-63S97.794 0 63 0 0 28.206 0 63s28.206 63 63 63z" fill="#FAFAFA"/><g filter="url(#filter0_d)"><path fill-rule="evenodd" clip-rule="evenodd" d="M63 103c22.091 0 40-17.909 40-40S85.091 23 63 23 23 40.909 23 63s17.909 40 40 40z" fill="#fff"/></g><path d="M63.107 82.714c9.58 0 15.888-5.296 15.888-13.746 0-8.033-6.01-12.853-12.734-12.853-3.63 0-6.843 1.428-8.747 3.333v-9.7h18.803V42.31H49.064V65.1l5.891 1.548c2.38-2.261 5.058-3.213 8.33-3.213 4.523 0 7.141 2.38 7.141 5.89 0 3.214-2.677 5.891-7.378 5.891-4.166 0-7.855-1.547-10.533-4.343l-4.7 5.89c3.391 3.69 8.39 5.951 15.292 5.951z" fill="#C9E4F6"/><defs><filter id="filter0_d" x="15" y="17" width="96" height="96" filterUnits="userSpaceOnUse" color-interpolation-filters="sRGB"><feFlood flood-opacity="0" result="BackgroundImageFix"/><feColorMatrix in="SourceAlpha" values="0 0 0 0 0 0 0 0 0 0 0 0 0 0 0 0 0 0 127 0"/><feOffset dy="2"/><feGaussianBlur stdDeviation="4"/><feColorMatrix values="0 0 0 0 0 0 0 0 0 0 0 0 0 0 0 0 0 0 0.110705 0"/><feBlend in2="BackgroundImageFix" result="effect1_dropShadow"/><feBlend in="SourceGraphic" in2="effect1_dropShadow" result="shape"/></filter></defs></svg>