<svg width="972" height="516" fill="none" xmlns="http://www.w3.org/2000/svg"><path d="M11 0v516M49 0v516M87 0v516M124.999 0v516M162.999 0v516M200.999 0v516M238.999 0v516M276.999 0v516M314.999 0v516M352.999 0v516M390.999 0v516M428.999 0v516M466.999 0v516M504.999 0v516M542.999 0v516M580.999 0v516M618.999 0v516M656.999 0v516M694.999 0v516M732.999 0v516M770.999 0v516M808.999 0v516M846.999 0v516M884.999 0v516M922.999 0v516M960.999 0v516M0 505h972M0 467h972M0 429h972M0 391h972M0 353h972M0 315h972M0 277h972M0 239h972M0 201h972M0 163h972M0 125h972M0 87h972M0 49h972M0 11h972" stroke="#0F4465" stroke-miterlimit="10"/><path d="M433.1 281.84c-.13-15.59-12.8-28.18-28.42-28.18-3.76 0-7.35.74-10.64 2.07-5.58-11.42-17.31-19.29-30.87-19.29-16.41 0-30.12 11.51-33.53 26.89-15.43.99-27.64 13.81-27.64 29.49 0 15.68 13.24 29.56 29.56 29.56h94.07c11.57 0 20.96-9.38 20.96-20.96 0-8.94-5.61-16.58-13.49-19.58ZM664.177 250.708c-.066-7.798-6.461-14.099-14.345-14.099-1.901 0-3.713.372-5.371 1.037A17.351 17.351 0 0 0 628.878 228c-8.281 0-15.207 5.754-16.923 13.45-7.788.496-13.955 6.915-13.955 14.757S604.683 271 612.927 271h47.493c5.843 0 10.58-4.695 10.58-10.485 0-4.476-2.829-8.295-6.815-9.799l-.008-.008Z" fill="#134063"/><path d="M393.63 443.08c-.07 0-.13-.02-.19-.04a.99.99 0 0 1-.17-.11c-.04-.05-.08-.1-.1-.16a.506.506 0 0 1 .1-.55c.14-.14.36-.18.55-.11.06.03.12.06.16.11.05.05.09.1.11.16.03.06.04.13.04.2 0 .06 0 .12-.04.19-.02.06-.06.11-.11.16-.04.04-.1.08-.16.11-.06.02-.13.04-.19.04ZM393.13 438.91c0-.27.22-.5.5-.5s.5.23.5.5c0 .28-.22.5-.5.5s-.5-.22-.5-.5ZM393.63 435.75c-.13 0-.26-.05-.36-.15a.435.435 0 0 1-.1-.16.5.5 0 0 1 .1-.54c.14-.14.36-.19.55-.11.06.03.12.06.16.11.05.04.09.1.11.16.03.06.04.13.04.19 0 .07 0 .13-.04.19-.02.06-.06.12-.11.16-.04.05-.1.09-.16.11-.06.03-.13.04-.19.04ZM485.44 435.25c0-.27.22-.5.49-.5.28 0 .5.23.5.5a.495.495 0 1 1-.99 0Zm-4.02 0c0-.27.23-.5.5-.5.28 0 .5.23.5.5 0 .28-.22.5-.5.5-.27 0-.5-.22-.5-.5Zm-4.01 0c0-.27.22-.5.5-.5.27 0 .5.23.5.5 0 .28-.23.5-.5.5-.28 0-.5-.22-.5-.5Zm-4.01 0c0-.27.22-.5.5-.5a.5.5 0 0 1 .49.5.495.495 0 1 1-.99 0Zm-4.02 0c0-.27.23-.5.5-.5.28 0 .5.23.5.5 0 .28-.22.5-.5.5-.27 0-.5-.22-.5-.5Zm-4.01 0c0-.27.22-.5.5-.5.27 0 .5.23.5.5 0 .28-.23.5-.5.5-.28 0-.5-.22-.5-.5Zm-4.01 0c0-.27.22-.5.5-.5.27 0 .5.23.5.5 0 .28-.23.5-.5.5-.28 0-.5-.22-.5-.5Zm-4.02 0c0-.27.23-.5.5-.5.28 0 .5.23.5.5 0 .28-.22.5-.5.5-.27 0-.5-.22-.5-.5Zm-4.01 0c0-.27.22-.5.5-.5.27 0 .5.23.5.5 0 .28-.23.5-.5.5-.28 0-.5-.22-.5-.5Zm-4.01 0c0-.27.22-.5.5-.5.27 0 .5.23.5.5 0 .28-.23.5-.5.5-.28 0-.5-.22-.5-.5Zm-4.02 0c0-.27.23-.5.5-.5.28 0 .5.23.5.5 0 .28-.22.5-.5.5-.27 0-.5-.22-.5-.5Zm-4.01 0c0-.27.22-.5.5-.5.27 0 .5.23.5.5 0 .28-.23.5-.5.5-.28 0-.5-.22-.5-.5Zm-4.02 0c0-.27.23-.5.51-.5.27 0 .5.23.5.5 0 .28-.23.5-.5.5-.28 0-.51-.22-.51-.5Zm-4.01 0c0-.27.23-.5.5-.5.28 0 .5.23.5.5 0 .28-.22.5-.5.5-.27 0-.5-.22-.5-.5Zm-4.01 0c0-.27.22-.5.5-.5s.5.23.5.5c0 .28-.22.5-.5.5s-.5-.22-.5-.5Zm-4.02 0c0-.27.23-.5.5-.5.28 0 .51.23.51.5 0 .28-.23.5-.51.5-.27 0-.5-.22-.5-.5Zm-4.01 0c0-.27.22-.5.5-.5s.5.23.5.5c0 .28-.22.5-.5.5s-.5-.22-.5-.5Zm-4.01 0c0-.27.22-.5.5-.5.27 0 .5.23.5.5 0 .28-.23.5-.5.5-.28 0-.5-.22-.5-.5Zm-4.02 0c0-.27.23-.5.5-.5.28 0 .5.23.5.5 0 .28-.22.5-.5.5-.27 0-.5-.22-.5-.5Zm-4.01 0c0-.27.23-.5.5-.5.28 0 .5.23.5.5 0 .28-.22.5-.5.5-.27 0-.5-.22-.5-.5Zm-4.01 0c0-.27.22-.5.5-.5.27 0 .5.23.5.5 0 .28-.23.5-.5.5-.28 0-.5-.22-.5-.5Zm-4.01 0c0-.27.22-.5.49-.5.28 0 .5.23.5.5a.495.495 0 1 1-.99 0Zm-4.02 0c0-.27.23-.5.5-.5.28 0 .5.23.5.5 0 .28-.22.5-.5.5-.27 0-.5-.22-.5-.5ZM489.95 435.75c-.07 0-.13-.01-.19-.04a.452.452 0 0 1-.27-.27.406.406 0 0 1-.04-.19c0-.06 0-.13.04-.19.02-.06.06-.11.11-.16.04-.05.1-.08.16-.11a.5.5 0 0 1 .38 0c.06.03.12.06.16.11.1.09.15.22.15.35 0 .07-.01.13-.04.19a.452.452 0 0 1-.27.27c-.06.03-.12.04-.19.04Z" fill="#FF9C00"/><path d="M489.95 435.75c-.07 0-.13-.01-.19-.04a.452.452 0 0 1-.27-.27.406.406 0 0 1-.04-.19c0-.06 0-.13.04-.19.02-.06.06-.11.11-.16.04-.05.1-.08.16-.11a.5.5 0 0 1 .38 0c.06.03.12.06.16.11.1.09.15.22.15.35 0 .07-.01.13-.04.19a.452.452 0 0 1-.27.27c-.06.03-.12.04-.19.04ZM489.45 431.78c0-.28.23-.5.5-.5.28 0 .5.22.5.5s-.22.5-.5.5c-.27 0-.5-.22-.5-.5Zm0-3.47c0-.28.23-.5.5-.5.28 0 .5.22.5.5s-.22.5-.5.5c-.27 0-.5-.22-.5-.5Zm0-3.47c0-.28.23-.5.5-.5.28 0 .5.22.5.5s-.22.5-.5.5c-.27 0-.5-.22-.5-.5ZM489.95 421.87a.47.47 0 0 1-.35-.15.355.355 0 0 1-.11-.16.433.433 0 0 1-.04-.19c0-.07 0-.13.04-.19.02-.07.06-.12.11-.17.04-.04.1-.08.16-.1.12-.05.26-.06.38 0a.452.452 0 0 1 .27.27c.03.06.04.12.04.19 0 .06-.01.13-.04.19-.02.06-.06.12-.11.16a.47.47 0 0 1-.35.15Z" fill="#FF9C00"/><path d="M489.95 435.75c-.07 0-.13-.01-.19-.04a.452.452 0 0 1-.27-.27.406.406 0 0 1-.04-.19c0-.06 0-.13.04-.19.02-.06.06-.11.11-.16.04-.05.1-.08.16-.11a.5.5 0 0 1 .38 0c.06.03.12.06.16.11.1.09.15.22.15.35 0 .07-.01.13-.04.19a.452.452 0 0 1-.27.27c-.06.03-.12.04-.19.04ZM489.45 438.91c0-.27.23-.5.5-.5.28 0 .5.23.5.5 0 .28-.22.5-.5.5-.27 0-.5-.22-.5-.5ZM489.95 443.08a.51.51 0 0 1-.35-.15.419.419 0 0 1-.11-.16.448.448 0 0 1-.04-.2c0-.06 0-.13.04-.19.02-.06.06-.11.11-.16a.51.51 0 0 1 .7 0c.05.05.09.1.11.16.03.06.04.13.04.19 0 .07-.01.14-.04.2-.02.06-.06.11-.11.16a.51.51 0 0 1-.35.15ZM586.27 443.08a.51.51 0 0 1-.35-.15.554.554 0 0 1-.15-.36c0-.13.06-.26.15-.35.18-.18.52-.19.7 0 .05.05.09.1.11.16.03.06.04.13.04.19a.51.51 0 0 1-.5.51ZM585.77 438.91c0-.27.23-.5.5-.5.28 0 .5.23.5.5 0 .28-.22.5-.5.5-.27 0-.5-.22-.5-.5ZM586.27 435.75a.5.5 0 0 1-.35-.14.554.554 0 0 1-.15-.36.501.501 0 0 1 1 0c0 .13-.05.26-.15.36a.5.5 0 0 1-.35.14ZM581.76 435.25c0-.28.22-.5.5-.5.27 0 .5.22.5.5s-.23.5-.5.5c-.28 0-.5-.22-.5-.5Zm-4.02 0c0-.28.23-.5.51-.5.27 0 .5.22.5.5s-.23.5-.5.5c-.28 0-.51-.22-.51-.5Zm-4.01 0c0-.28.23-.5.5-.5.28 0 .5.22.5.5s-.22.5-.5.5c-.27 0-.5-.22-.5-.5Zm-4.01 0c0-.28.22-.5.5-.5.27 0 .5.22.5.5s-.23.5-.5.5c-.28 0-.5-.22-.5-.5Zm-4.02 0c0-.28.23-.5.5-.5.28 0 .51.22.51.5s-.23.5-.51.5c-.27 0-.5-.22-.5-.5Zm-4.01 0c0-.28.23-.5.5-.5.28 0 .5.22.5.5s-.22.5-.5.5c-.27 0-.5-.22-.5-.5Zm-4.01 0c0-.28.22-.5.5-.5.27 0 .5.22.5.5s-.23.5-.5.5c-.28 0-.5-.22-.5-.5Zm-4.02 0c0-.28.23-.5.5-.5.28 0 .51.22.51.5s-.23.5-.51.5c-.27 0-.5-.22-.5-.5Zm-4.01 0c0-.28.23-.5.5-.5.28 0 .5.22.5.5s-.22.5-.5.5c-.27 0-.5-.22-.5-.5Zm-4.01 0c0-.28.22-.5.5-.5.27 0 .5.22.5.5s-.23.5-.5.5c-.28 0-.5-.22-.5-.5Zm-4.02 0c0-.28.23-.5.5-.5.28 0 .5.22.5.5s-.22.5-.5.5c-.27 0-.5-.22-.5-.5Zm-4.01 0c0-.28.23-.5.5-.5.28 0 .5.22.5.5s-.22.5-.5.5c-.27 0-.5-.22-.5-.5Zm-4.01 0c0-.28.22-.5.5-.5.27 0 .5.22.5.5s-.23.5-.5.5c-.28 0-.5-.22-.5-.5Zm-4.02 0c0-.28.23-.5.5-.5.28 0 .5.22.5.5s-.22.5-.5.5c-.27 0-.5-.22-.5-.5Zm-4.01 0c0-.28.23-.5.5-.5.28 0 .5.22.5.5s-.22.5-.5.5c-.27 0-.5-.22-.5-.5Zm-4.01 0c0-.28.22-.5.5-.5.27 0 .5.22.5.5s-.23.5-.5.5c-.28 0-.5-.22-.5-.5Zm-4.02 0c0-.28.23-.5.5-.5.28 0 .51.22.51.5s-.23.5-.51.5c-.27 0-.5-.22-.5-.5Zm-4.01 0c0-.28.23-.5.5-.5.28 0 .5.22.5.5s-.22.5-.5.5c-.27 0-.5-.22-.5-.5Zm-4.01 0c0-.28.22-.5.5-.5.27 0 .5.22.5.5s-.23.5-.5.5c-.28 0-.5-.22-.5-.5Zm-4.02 0c0-.28.23-.5.5-.5.28 0 .51.22.51.5s-.23.5-.51.5c-.27 0-.5-.22-.5-.5Zm-4.01 0c0-.28.22-.5.5-.5s.5.22.5.5-.22.5-.5.5-.5-.22-.5-.5Zm-4.01 0c0-.28.22-.5.5-.5.27 0 .5.22.5.5s-.23.5-.5.5c-.28 0-.5-.22-.5-.5Zm-4.02 0c0-.28.23-.5.5-.5.28 0 .51.22.51.5s-.23.5-.51.5c-.27 0-.5-.22-.5-.5Z" fill="#FF9C00"/><path d="M489.95 435.75c-.07 0-.13-.01-.19-.04a.452.452 0 0 1-.27-.27.406.406 0 0 1-.04-.19c0-.06 0-.13.04-.19.02-.06.06-.11.11-.16.04-.05.1-.08.16-.11a.5.5 0 0 1 .38 0c.06.03.12.06.16.11.1.09.15.22.15.35 0 .07-.01.13-.04.19a.452.452 0 0 1-.27.27c-.06.03-.12.04-.19.04Z" fill="#FF9C00"/><path d="M642.5 329.79c-.28-32.86-26.99-59.41-59.91-59.41h-24.75c-12.51-21.69-35.93-36.3-62.77-36.3H446.9v18.36c-11.12 9.93-19.17 23.24-22.51 38.32-32.53 2.09-58.27 29.12-58.27 62.18s27.9 62.32 62.32 62.32h198.32c24.4 0 44.18-19.78 44.18-44.18 0-18.86-11.82-34.95-28.45-41.29h.01Z" fill="#103654"/><path d="M594.33 329.79c-.28-32.86-26.99-59.41-59.91-59.41-7.93 0-15.5 1.56-22.43 4.36-11.77-24.07-36.49-40.66-65.09-40.66-34.59 0-63.49 24.26-70.68 56.68-32.53 2.09-58.27 29.12-58.27 62.18s27.9 62.32 62.32 62.32h198.32c24.4 0 44.18-19.78 44.18-44.18 0-18.86-11.82-34.94-28.45-41.29h.01Z" fill="#103654"/><path opacity=".24" d="m559.711 274.96.204.418.432-.174a59.242 59.242 0 0 1 22.243-4.324c32.645 0 59.132 26.328 59.41 58.914l.398-.003-.086.466c16.443 6.279 28.128 22.178 28.128 40.823 0 24.124-19.556 43.68-43.68 43.68H428.44c-34.137 0-61.82-29.029-61.82-61.82 0-32.794 25.533-59.608 57.802-61.681l.375-.024.081-.367c7.14-32.196 35.842-56.288 70.192-56.288 28.402 0 52.951 16.475 64.641 40.38Z" stroke="#0F6195"/><path opacity=".7" d="M578.6 416.22H380.28c-34.9 0-63.29-28.39-63.29-63.3 0-33.03 25.62-60.61 58.45-63.1 3.66-15.77 12.6-30.07 25.24-40.33 13.01-10.57 29.43-16.4 46.23-16.4 27.96 0 53 15.46 65.56 40.4 7.02-2.72 14.4-4.1 21.96-4.1 33.07 0 60.25 26.73 60.88 59.72 17.05 6.79 28.46 23.57 28.46 41.95 0 24.9-20.25 45.15-45.15 45.15l-.02.01ZM446.91 235.04c-33.22 0-62.55 23.52-69.73 55.92a.98.98 0 0 1-.89.76c-32.16 2.07-57.36 28.95-57.36 61.21 0 33.83 27.52 61.35 61.35 61.35H578.6c23.83 0 43.21-19.38 43.21-43.21 0-17.81-11.18-34.03-27.82-40.38a.965.965 0 0 1-.62-.9c-.27-32.23-26.71-58.45-58.94-58.45-7.6 0-15.03 1.44-22.07 4.29a.986.986 0 0 1-1.24-.47c-12.1-24.74-36.7-40.11-64.21-40.11v-.01Z" fill="#0F6195"/><path d="M358.95 444.48h69.79a3.75 3.75 0 0 1 3.75 3.75v46.572a3.75 3.75 0 0 1-3.75 3.75h-69.79a3.75 3.75 0 0 1-3.75-3.75V448.23a3.75 3.75 0 0 1 3.75-3.75Z" fill="#103654" stroke="#154D72" stroke-width=".5"/><path d="M429.74 444.23h-71.79a3 3 0 0 0-3 3v.696h77.79v-.696a3 3 0 0 0-3-3Z" fill="#154D72"/><path d="M431.463 446.075a1.11 1.11 0 0 1-1.112 1.111 1.11 1.11 0 1 1 1.112-1.111ZM427.76 446.075a1.11 1.11 0 0 1-1.111 1.111 1.11 1.11 0 1 1 1.111-1.111ZM424.059 446.075a1.11 1.11 0 0 1-1.112 1.111 1.11 1.11 0 1 1 1.112-1.111Z" fill="#103654"/><path d="M454.95 444.48h69.79a3.75 3.75 0 0 1 3.75 3.75v46.572a3.75 3.75 0 0 1-3.75 3.75h-69.79a3.75 3.75 0 0 1-3.75-3.75V448.23a3.75 3.75 0 0 1 3.75-3.75Z" fill="#103654" stroke="#154D72" stroke-width=".5"/><path d="M525.74 444.23h-71.79a3 3 0 0 0-3 3v.696h77.79v-.696a3 3 0 0 0-3-3Z" fill="#154D72"/><path d="M527.463 446.075a1.11 1.11 0 0 1-1.112 1.111 1.11 1.11 0 1 1 1.112-1.111ZM523.76 446.075a1.11 1.11 0 0 1-1.111 1.111 1.11 1.11 0 1 1 1.111-1.111ZM520.059 446.075a1.11 1.11 0 0 1-1.112 1.111 1.11 1.11 0 1 1 1.112-1.111Z" fill="#103654"/><path d="M550.95 444.48h69.79a3.75 3.75 0 0 1 3.75 3.75v46.572a3.75 3.75 0 0 1-3.75 3.75h-69.79a3.75 3.75 0 0 1-3.75-3.75V448.23a3.75 3.75 0 0 1 3.75-3.75Z" fill="#103654" stroke="#154D72" stroke-width=".5"/><path d="M621.74 444.23h-71.79a3 3 0 0 0-3 3v.696h77.79v-.696a3 3 0 0 0-3-3Z" fill="#154D72"/><path d="M623.463 446.075a1.11 1.11 0 0 1-1.112 1.111 1.11 1.11 0 1 1 1.112-1.111ZM619.76 446.075a1.11 1.11 0 0 1-1.111 1.111 1.11 1.11 0 1 1 1.111-1.111ZM616.059 446.075a1.11 1.11 0 0 1-1.112 1.111 1.11 1.11 0 1 1 1.112-1.111Z" fill="#103654"/><path d="M406.339 474.026c-.051 0-.121-.478-.209-1.329-.089-.421-.163-.941-.308-1.528l-.265-.932c-.098-.326-.247-.657-.377-1.016a13.763 13.763 0 0 0-2.897-4.394 13.46 13.46 0 0 0-5.425-3.311c-2.175-.643-4.391-.718-6.324-.34-1.937.369-3.571 1.168-4.819 2.001-1.253.837-2.119 1.721-2.697 2.35-.288.312-.503.568-.647.743-.149.17-.237.255-.261.241-.023-.014.028-.128.14-.327.112-.203.289-.491.549-.837a12.475 12.475 0 0 1 2.622-2.596 12.987 12.987 0 0 1 4.983-2.237c2.026-.44 4.368-.383 6.668.298 2.287.728 4.257 2.029 5.691 3.537a13.654 13.654 0 0 1 2.896 4.682c.122.379.261.724.345 1.069.079.346.149.672.219.979.112.615.149 1.154.191 1.589 0 .88-.023 1.358-.075 1.358Z" fill="#4F90B6"/><path d="M400.02 469.259c.121-.161 3.008 1.858 6.44 4.511l.191.147-.563.17c1.392-4.034 2.654-7.207 2.84-7.141.187.066-.773 3.348-2.156 7.387l-.163.483-.4-.308c-.061-.047-.126-.099-.191-.146-3.437-2.654-6.124-4.938-6.003-5.099l.005-.004ZM381.388 471.798c.052.005.065.478.047 1.31.023.416.056.927.107 1.509.093.581.177 1.248.382 1.958a13.711 13.711 0 0 0 2.207 4.62c1.127 1.566 2.752 2.999 4.731 3.987l.368.189.382.152c.252.099.503.203.755.302.256.085.512.152.763.227.256.066.503.161.759.194 1.015.213 2.017.322 2.976.303a13.073 13.073 0 0 0 4.95-1.055 14.286 14.286 0 0 0 2.994-1.736c.331-.245.587-.444.755-.581.172-.133.274-.194.293-.175.019.019-.046.113-.191.284-.14.175-.368.411-.675.695a12.117 12.117 0 0 1-2.966 1.991 12.723 12.723 0 0 1-5.141 1.258 13.115 13.115 0 0 1-3.134-.274c-.275-.034-.536-.128-.806-.199-.265-.076-.54-.147-.81-.237a65.895 65.895 0 0 1-.797-.316l-.4-.161-.387-.199c-.26-.132-.517-.269-.773-.402-.246-.151-.479-.312-.721-.468-.489-.293-.904-.676-1.337-1.017-.214-.17-.396-.378-.596-.563-.186-.194-.396-.369-.559-.577-.172-.203-.34-.406-.503-.605l-.247-.298-.214-.317a13.497 13.497 0 0 1-2.165-4.899c-.182-.748-.228-1.443-.289-2.044-.018-.605-.005-1.13.014-1.556.103-.846.186-1.305.233-1.3h-.005Z" fill="#4F90B6"/><path d="M387.088 477.317c-.14.147-2.761-2.218-5.849-5.278-.06-.057-.116-.118-.172-.17l.582-.099c-1.872 3.826-3.506 6.819-3.683 6.734-.177-.09 1.168-3.225 3.026-7.061l.219-.454.359.355c.056.052.112.113.172.17 3.092 3.06 5.481 5.661 5.341 5.808l.005-.005ZM502.339 474.026c-.051 0-.121-.478-.209-1.329-.089-.421-.163-.941-.308-1.528l-.265-.932c-.098-.326-.247-.657-.377-1.016a13.763 13.763 0 0 0-2.897-4.394 13.46 13.46 0 0 0-5.425-3.311c-2.175-.643-4.391-.718-6.324-.34-1.937.369-3.571 1.168-4.819 2.001-1.253.837-2.119 1.721-2.697 2.35-.288.312-.503.568-.647.743-.149.17-.237.255-.261.241-.023-.014.028-.128.14-.327.112-.203.289-.491.549-.837a12.475 12.475 0 0 1 2.622-2.596 12.987 12.987 0 0 1 4.983-2.237c2.026-.44 4.368-.383 6.668.298 2.287.728 4.257 2.029 5.691 3.537a13.654 13.654 0 0 1 2.896 4.682c.122.379.261.724.345 1.069.079.346.149.672.219.979.112.615.149 1.154.191 1.589 0 .88-.023 1.358-.075 1.358Z" fill="#4F90B6"/><path d="M496.02 469.259c.121-.161 3.008 1.858 6.44 4.511l.191.147-.563.17c1.392-4.034 2.654-7.207 2.84-7.141.187.066-.773 3.348-2.156 7.387l-.163.483-.4-.308c-.061-.047-.126-.099-.191-.146-3.437-2.654-6.124-4.938-6.003-5.099l.005-.004ZM477.388 471.798c.052.005.065.478.047 1.31.023.416.056.927.107 1.509.093.581.177 1.248.382 1.958a13.711 13.711 0 0 0 2.207 4.62c1.127 1.566 2.752 2.999 4.731 3.987l.368.189.382.152c.252.099.503.203.755.302.256.085.512.152.763.227.256.066.503.161.759.194 1.015.213 2.017.322 2.976.303a13.073 13.073 0 0 0 4.95-1.055 14.286 14.286 0 0 0 2.994-1.736c.331-.245.587-.444.755-.581.172-.133.274-.194.293-.175.019.019-.046.113-.191.284-.14.175-.368.411-.675.695a12.117 12.117 0 0 1-2.966 1.991 12.723 12.723 0 0 1-5.141 1.258 13.115 13.115 0 0 1-3.134-.274c-.275-.034-.536-.128-.806-.199-.265-.076-.54-.147-.81-.237a65.895 65.895 0 0 1-.797-.316l-.4-.161-.387-.199c-.26-.132-.517-.269-.773-.402-.246-.151-.479-.312-.721-.468-.489-.293-.904-.676-1.337-1.017-.214-.17-.396-.378-.596-.563-.186-.194-.396-.369-.559-.577-.172-.203-.34-.406-.503-.605l-.247-.298-.214-.317a13.497 13.497 0 0 1-2.165-4.899c-.182-.748-.228-1.443-.289-2.044-.018-.605-.005-1.13.014-1.556.103-.846.186-1.305.233-1.3h-.005Z" fill="#4F90B6"/><path d="M483.088 477.317c-.14.147-2.761-2.218-5.849-5.278-.06-.057-.116-.118-.172-.17l.582-.099c-1.872 3.826-3.506 6.819-3.683 6.734-.177-.09 1.168-3.225 3.026-7.061l.219-.454.359.355c.056.052.112.113.172.17 3.092 3.06 5.481 5.661 5.341 5.808l.005-.005ZM598.339 474.026c-.051 0-.121-.478-.209-1.329-.089-.421-.163-.941-.308-1.528l-.265-.932c-.098-.326-.247-.657-.377-1.016a13.763 13.763 0 0 0-2.897-4.394 13.46 13.46 0 0 0-5.425-3.311c-2.175-.643-4.391-.718-6.324-.34-1.937.369-3.571 1.168-4.819 2.001-1.253.837-2.119 1.721-2.697 2.35-.288.312-.503.568-.647.743-.149.17-.237.255-.261.241-.023-.014.028-.128.14-.327.112-.203.289-.491.549-.837a12.475 12.475 0 0 1 2.622-2.596 12.987 12.987 0 0 1 4.983-2.237c2.026-.44 4.368-.383 6.668.298 2.287.728 4.257 2.029 5.691 3.537a13.654 13.654 0 0 1 2.896 4.682c.122.379.261.724.345 1.069.079.346.149.672.219.979.112.615.149 1.154.191 1.589 0 .88-.023 1.358-.075 1.358Z" fill="#4F90B6"/><path d="M592.02 469.259c.121-.161 3.008 1.858 6.44 4.511l.191.147-.563.17c1.392-4.034 2.654-7.207 2.84-7.141.187.066-.773 3.348-2.156 7.387l-.163.483-.4-.308c-.061-.047-.126-.099-.191-.146-3.437-2.654-6.124-4.938-6.003-5.099l.005-.004ZM573.388 471.798c.052.005.065.478.047 1.31.023.416.056.927.107 1.509.093.581.177 1.248.382 1.958a13.711 13.711 0 0 0 2.207 4.62c1.127 1.566 2.752 2.999 4.731 3.987l.368.189.382.152c.252.099.503.203.755.302.256.085.512.152.763.227.256.066.503.161.759.194 1.015.213 2.017.322 2.976.303a13.073 13.073 0 0 0 4.95-1.055 14.286 14.286 0 0 0 2.994-1.736c.331-.245.587-.444.755-.581.172-.133.274-.194.293-.175.019.019-.046.113-.191.284-.14.175-.368.411-.675.695a12.117 12.117 0 0 1-2.966 1.991 12.723 12.723 0 0 1-5.141 1.258 13.115 13.115 0 0 1-3.134-.274c-.275-.034-.536-.128-.806-.199-.265-.076-.54-.147-.81-.237a65.895 65.895 0 0 1-.797-.316l-.4-.161-.387-.199c-.26-.132-.517-.269-.773-.402-.246-.151-.479-.312-.721-.468-.489-.293-.904-.676-1.337-1.017-.214-.17-.396-.378-.596-.563-.186-.194-.396-.369-.559-.577-.172-.203-.34-.406-.503-.605l-.247-.298-.214-.317a13.497 13.497 0 0 1-2.165-4.899c-.182-.748-.228-1.443-.289-2.044-.018-.605-.005-1.13.014-1.556.103-.846.186-1.305.233-1.3h-.005Z" fill="#4F90B6"/><path d="M579.088 477.317c-.14.147-2.761-2.218-5.849-5.278-.06-.057-.116-.118-.172-.17l.582-.099c-1.872 3.826-3.506 6.819-3.683 6.734-.177-.09 1.168-3.225 3.026-7.061l.219-.454.359.355c.056.052.112.113.172.17 3.092 3.06 5.481 5.661 5.341 5.808l.005-.005Z" fill="#4F90B6"/><path d="M454.449 414.691h-14.543v-79.8h14.543a4.066 4.066 0 0 1 4.063 4.063v71.683a4.066 4.066 0 0 1-4.063 4.063v-.009Z" fill="#154D72"/><path d="M441.358 334.882h-31.295a4.063 4.063 0 0 0-4.063 4.062v71.675a4.062 4.062 0 0 0 4.063 4.062h31.295a4.062 4.062 0 0 0 4.063-4.062v-71.675a4.063 4.063 0 0 0-4.063-4.062Z" fill="#046097"/><path d="M445.421 398.13H406v.74h39.421v-.74ZM445.421 382.318H406v.739h39.421v-.739ZM445.421 366.506H406v.739h39.421v-.739ZM445.421 350.694H406v.74h39.421v-.74Z" fill="#154D72"/><path opacity=".6" d="M425.655 345.572h-13.182c-.831 0-1.507.676-1.507 1.507 0 .83.676 1.506 1.507 1.506h13.182c.831 0 1.507-.676 1.507-1.506 0-.831-.676-1.507-1.507-1.507ZM425.655 341.656h-13.182c-.831 0-1.507.675-1.507 1.506s.676 1.506 1.507 1.506h13.182c.831 0 1.507-.675 1.507-1.506s-.676-1.506-1.507-1.506ZM425.655 337.739h-13.182c-.831 0-1.507.676-1.507 1.507 0 .83.676 1.506 1.507 1.506h13.182c.831 0 1.507-.676 1.507-1.506 0-.831-.676-1.507-1.507-1.507Z" fill="#0E5581"/><path d="M428.549 348.576h5.505v-3.013h-5.505v3.013Z" fill="#FF9B05"/><path d="M428.549 344.668h5.505v-3.012h-5.505v3.012Z" fill="#0E5581"/><path d="M428.549 340.761h5.505v-3.012h-5.505v3.012ZM434.949 348.576h5.505v-3.013h-5.505v3.013ZM434.949 344.668h5.505v-3.012h-5.505v3.012Z" fill="#FF9B05"/><path d="M434.949 340.761h5.505v-3.012h-5.505v3.012Z" fill="#0E5581"/><path d="M425.655 361.375h-13.182c-.831 0-1.507.676-1.507 1.507 0 .83.676 1.506 1.507 1.506h13.182c.831 0 1.507-.676 1.507-1.506 0-.831-.676-1.507-1.507-1.507Z" fill="#FF9B05"/><path opacity=".6" d="M425.655 357.468h-13.182c-.831 0-1.507.676-1.507 1.506 0 .831.676 1.507 1.507 1.507h13.182c.831 0 1.507-.676 1.507-1.507 0-.83-.676-1.506-1.507-1.506ZM425.655 353.551h-13.182c-.831 0-1.507.676-1.507 1.507 0 .83.676 1.506 1.507 1.506h13.182c.831 0 1.507-.676 1.507-1.506 0-.831-.676-1.507-1.507-1.507Z" fill="#0E5581"/><path d="M428.549 364.397h5.505v-3.012h-5.505v3.012ZM428.549 360.481h5.505v-3.013h-5.505v3.013Z" fill="#FF9B05"/><path d="M428.549 356.573h5.505v-3.012h-5.505v3.012Z" fill="#0E5581"/><path d="M434.949 364.397h5.505v-3.012h-5.505v3.012ZM434.949 360.481h5.505v-3.013h-5.505v3.013ZM434.949 356.573h5.505v-3.012h-5.505v3.012Z" fill="#FF9B05"/><path opacity=".6" d="M425.655 377.187h-13.182c-.831 0-1.507.676-1.507 1.507 0 .83.676 1.506 1.507 1.506h13.182c.831 0 1.507-.676 1.507-1.506 0-.831-.676-1.507-1.507-1.507ZM425.655 373.28h-13.182c-.831 0-1.507.676-1.507 1.506 0 .831.676 1.507 1.507 1.507h13.182c.831 0 1.507-.676 1.507-1.507 0-.83-.676-1.506-1.507-1.506ZM425.655 369.364h-13.182c-.831 0-1.507.675-1.507 1.506s.676 1.506 1.507 1.506h13.182c.831 0 1.507-.675 1.507-1.506s-.676-1.506-1.507-1.506Z" fill="#0E5581"/><path d="M428.549 380.209h5.505v-3.013h-5.505v3.013Z" fill="#FF9B05"/><path d="M428.549 376.293h5.505v-3.013h-5.505v3.013Z" fill="#0E5581"/><path d="M428.549 372.385h5.505v-3.012h-5.505v3.012ZM434.949 380.209h5.505v-3.013h-5.505v3.013ZM434.949 376.293h5.505v-3.013h-5.505v3.013Z" fill="#FF9B05"/><path d="M434.949 372.385h5.505v-3.012h-5.505v3.012Z" fill="#0E5581"/><path opacity=".6" d="M425.655 393h-13.182c-.831 0-1.507.675-1.507 1.506s.676 1.506 1.507 1.506h13.182c.831 0 1.507-.675 1.507-1.506s-.676-1.506-1.507-1.506ZM425.655 389.092h-13.182a1.507 1.507 0 1 0 0 3.013h13.182a1.507 1.507 0 0 0 0-3.013ZM425.655 385.176h-13.182c-.831 0-1.507.675-1.507 1.506s.676 1.506 1.507 1.506h13.182c.831 0 1.507-.675 1.507-1.506s-.676-1.506-1.507-1.506Z" fill="#0E5581"/><path d="M428.549 396.021h5.505v-3.012h-5.505v3.012Z" fill="#FF9B05"/><path d="M428.549 392.105h5.505v-3.013h-5.505v3.013Z" fill="#0E5581"/><path d="M428.549 388.188h5.505v-3.012h-5.505v3.012Z" fill="#FF9B05"/><path d="M434.949 396.021h5.505v-3.012h-5.505v3.012Z" fill="#0E5581"/><path d="M434.949 392.105h5.505v-3.013h-5.505v3.013Z" fill="#FF9B05"/><path d="M434.949 388.188h5.505v-3.012h-5.505v3.012Z" fill="#0E5581"/><path opacity=".6" d="M425.655 408.811h-13.182c-.831 0-1.507.676-1.507 1.507 0 .83.676 1.506 1.507 1.506h13.182c.831 0 1.507-.676 1.507-1.506 0-.831-.676-1.507-1.507-1.507ZM425.655 404.904h-13.182c-.831 0-1.507.676-1.507 1.506 0 .831.676 1.507 1.507 1.507h13.182c.831 0 1.507-.676 1.507-1.507 0-.83-.676-1.506-1.507-1.506ZM425.655 400.987h-13.182c-.831 0-1.507.676-1.507 1.507 0 .83.676 1.506 1.507 1.506h13.182c.831 0 1.507-.676 1.507-1.506 0-.831-.676-1.507-1.507-1.507Z" fill="#0E5581"/><path d="M428.549 411.833h5.505v-3.012h-5.505v3.012Z" fill="#0E5581"/><path d="M428.549 407.907h5.505v-3.012h-5.505v3.012ZM428.549 404h5.505v-3.012h-5.505V404ZM434.949 411.833h5.505v-3.012h-5.505v3.012ZM434.949 407.907h5.505v-3.012h-5.505v3.012Z" fill="#FF9B05"/><path d="M434.949 404h5.505v-3.012h-5.505V404Z" fill="#0E5581"/><path d="M518.117 414.682h-21.399V297.205h21.399a5.973 5.973 0 0 1 5.971 5.971v105.526a5.973 5.973 0 0 1-5.971 5.971v.009Z" fill="#154D72"/><path d="M498.836 297.205h-46.085a5.97 5.97 0 0 0-5.97 5.971v105.535a5.97 5.97 0 0 0 5.97 5.97h46.085a5.97 5.97 0 0 0 5.971-5.97V303.176a5.97 5.97 0 0 0-5.971-5.971Z" fill="#046097"/><path d="M504.807 390.315h-58.026v1.096h58.026v-1.096ZM504.807 367.036h-58.026v1.086h58.026v-1.086ZM504.807 343.765h-58.026v1.086h58.026v-1.086ZM504.807 320.485h-58.026v1.096h58.026v-1.096Z" fill="#154D72"/><path opacity=".6" d="M475.721 312.935h-19.409a2.22 2.22 0 0 0-2.219 2.218 2.22 2.22 0 0 0 2.219 2.219h19.409a2.22 2.22 0 0 0 2.218-2.219 2.22 2.22 0 0 0-2.218-2.218ZM475.721 307.174h-19.409a2.22 2.22 0 0 0-2.219 2.219 2.22 2.22 0 0 0 2.219 2.218h19.409a2.22 2.22 0 0 0 2.218-2.218 2.22 2.22 0 0 0-2.218-2.219ZM475.721 301.414h-19.409a2.22 2.22 0 0 0-2.219 2.218 2.22 2.22 0 0 0 2.219 2.218h19.409a2.22 2.22 0 0 0 2.218-2.218 2.22 2.22 0 0 0-2.218-2.218Z" fill="#0E5581"/><path d="M479.966 317.363h8.107v-4.437h-8.107v4.437Z" fill="#FF9B05"/><path d="M479.966 311.611h8.107v-4.437h-8.107v4.437Z" fill="#0E5581"/><path d="M479.966 305.851h8.107v-4.437h-8.107v4.437ZM489.396 317.363h8.107v-4.437h-8.107v4.437ZM489.396 311.611h8.107v-4.437h-8.107v4.437Z" fill="#FF9B05"/><path d="M489.396 305.851h8.107v-4.437h-8.107v4.437Z" fill="#0E5581"/><path opacity=".6" d="M475.721 336.215h-19.409a2.22 2.22 0 0 0-2.219 2.219 2.22 2.22 0 0 0 2.219 2.218h19.409a2.22 2.22 0 0 0 2.218-2.218 2.22 2.22 0 0 0-2.218-2.219ZM475.721 330.454h-19.409a2.22 2.22 0 0 0-2.219 2.219 2.22 2.22 0 0 0 2.219 2.218h19.409a2.22 2.22 0 0 0 2.218-2.218 2.22 2.22 0 0 0-2.218-2.219ZM475.721 324.694h-19.409a2.22 2.22 0 0 0-2.219 2.218 2.22 2.22 0 0 0 2.219 2.219h19.409a2.22 2.22 0 0 0 2.218-2.219 2.22 2.22 0 0 0-2.218-2.218Z" fill="#0E5581"/><path d="M479.966 340.643h8.107v-4.437h-8.107v4.437ZM479.966 334.882h8.107v-4.437h-8.107v4.437Z" fill="#FF9B05"/><path d="M479.966 329.122h8.107v-4.437h-8.107v4.437ZM489.396 340.643h8.107v-4.437h-8.107v4.437Z" fill="#0E5581"/><path d="M489.396 334.882h8.107v-4.437h-8.107v4.437Z" fill="#FF9B05"/><path d="M489.396 329.122h8.107v-4.437h-8.107v4.437Z" fill="#0E5581"/><path opacity=".6" d="M475.721 359.486h-19.409a2.22 2.22 0 0 0-2.219 2.218 2.22 2.22 0 0 0 2.219 2.219h19.409a2.22 2.22 0 0 0 2.218-2.219 2.22 2.22 0 0 0-2.218-2.218ZM475.721 353.725h-19.409a2.22 2.22 0 0 0-2.219 2.219 2.22 2.22 0 0 0 2.219 2.218h19.409a2.22 2.22 0 0 0 2.218-2.218 2.22 2.22 0 0 0-2.218-2.219ZM475.721 347.965h-19.409a2.22 2.22 0 0 0-2.219 2.218 2.22 2.22 0 0 0 2.219 2.218h19.409a2.22 2.22 0 0 0 2.218-2.218 2.22 2.22 0 0 0-2.218-2.218Z" fill="#0E5581"/><path d="M479.966 363.923h8.107v-4.437h-8.107v4.437Z" fill="#0E5581"/><path d="M479.966 358.162h8.107v-4.437h-8.107v4.437ZM479.966 352.411h8.107v-4.437h-8.107v4.437ZM489.396 363.923h8.107v-4.437h-8.107v4.437ZM489.396 358.162h8.107v-4.437h-8.107v4.437Z" fill="#FF9B05"/><path d="M489.396 352.411h8.107v-4.437h-8.107v4.437Z" fill="#0E5581"/><path opacity=".6" d="M475.721 382.766h-19.409a2.22 2.22 0 0 0-2.219 2.218 2.22 2.22 0 0 0 2.219 2.218h19.409a2.22 2.22 0 0 0 2.218-2.218 2.22 2.22 0 0 0-2.218-2.218Z" fill="#0E5581"/><path d="M475.721 377.005h-19.409a2.22 2.22 0 0 0-2.219 2.219 2.22 2.22 0 0 0 2.219 2.218h19.409a2.22 2.22 0 0 0 2.218-2.218 2.22 2.22 0 0 0-2.218-2.219Z" fill="#FF9B05"/><path opacity=".6" d="M475.721 371.244h-19.409a2.22 2.22 0 0 0-2.219 2.219 2.22 2.22 0 0 0 2.219 2.218h19.409a2.22 2.22 0 0 0 2.218-2.218 2.22 2.22 0 0 0-2.218-2.219Z" fill="#0E5581"/><path d="M479.966 387.202h8.107v-4.436h-8.107v4.436Z" fill="#FF9B05"/><path d="M479.966 381.442h8.107v-4.437h-8.107v4.437Z" fill="#0E5581"/><path d="M479.966 375.681h8.107v-4.436h-8.107v4.436Z" fill="#FF9B05"/><path d="M489.396 387.202h8.107v-4.436h-8.107v4.436ZM489.396 381.442h8.107v-4.437h-8.107v4.437Z" fill="#0E5581"/><path d="M489.396 375.681h8.107v-4.436h-8.107v4.436Z" fill="#FF9B05"/><path opacity=".6" d="M475.721 406.046h-19.409a2.22 2.22 0 0 0-2.219 2.218c0 1.223.995 2.219 2.219 2.219h19.409a2.221 2.221 0 0 0 2.218-2.219 2.22 2.22 0 0 0-2.218-2.218ZM475.721 400.285h-19.409a2.22 2.22 0 0 0-2.219 2.218 2.22 2.22 0 0 0 2.219 2.219h19.409a2.22 2.22 0 0 0 2.218-2.219 2.22 2.22 0 0 0-2.218-2.218ZM475.721 394.524h-19.409a2.22 2.22 0 0 0-2.219 2.219 2.22 2.22 0 0 0 2.219 2.218h19.409a2.22 2.22 0 0 0 2.218-2.218 2.22 2.22 0 0 0-2.218-2.219Z" fill="#0E5581"/><path d="M479.966 410.473h8.107v-4.437h-8.107v4.437ZM479.966 404.712h8.107v-4.436h-8.107v4.436ZM479.966 398.961h8.107v-4.437h-8.107v4.437ZM489.396 410.473h8.107v-4.437h-8.107v4.437ZM489.396 404.712h8.107v-4.436h-8.107v4.436Z" fill="#FF9B05"/><path d="M489.396 398.961h8.107v-4.437h-8.107v4.437Z" fill="#0E5581"/><path d="M568.575 414.681h-18.614V312.506h18.614a5.198 5.198 0 0 1 5.195 5.194v91.787a5.198 5.198 0 0 1-5.195 5.194Z" fill="#154D72"/><path d="M551.805 312.506h-40.078a5.195 5.195 0 0 0-5.195 5.194v91.787a5.195 5.195 0 0 0 5.195 5.195h40.078a5.194 5.194 0 0 0 5.194-5.195V317.7a5.194 5.194 0 0 0-5.194-5.194Z" fill="#046097"/><path d="M556.999 393.492h-50.467v.95h50.467v-.95ZM556.999 373.243h-50.467v.95h50.467v-.95ZM556.999 352.995h-50.467v.949h50.467v-.949ZM556.999 332.755h-50.467v.949h50.467v-.949Z" fill="#154D72"/><path opacity=".6" d="M531.702 326.182h-16.88a1.927 1.927 0 0 0 0 3.852h16.88a1.926 1.926 0 0 0 0-3.852ZM531.702 321.179h-16.88a1.927 1.927 0 0 0 0 3.852h16.88a1.926 1.926 0 0 0 0-3.852ZM531.702 316.167h-16.88a1.927 1.927 0 0 0 0 3.852h16.88a1.926 1.926 0 0 0 0-3.852Z" fill="#154D72"/><path d="M535.399 401.005h7.048v-3.852h-7.048v3.852Z" fill="#FF9B05"/><path d="M535.399 406.017h7.048v-3.852h-7.048v3.852Z" fill="#154D72"/><path d="M535.399 411.02h7.048v-3.852h-7.048v3.852ZM543.607 401.005h7.047v-3.852h-7.047v3.852ZM543.607 406.017h7.047v-3.852h-7.047v3.852Z" fill="#FF9B05"/><path d="M543.607 411.02h7.047v-3.852h-7.047v3.852Z" fill="#154D72"/><path d="M531.702 346.43h-16.88a1.927 1.927 0 0 0 0 3.853h16.88a1.926 1.926 0 0 0 0-3.853Z" fill="#FF9B05"/><path opacity=".6" d="M531.702 341.418h-16.88a1.927 1.927 0 0 0 0 3.853h16.88a1.926 1.926 0 0 0 0-3.853ZM531.702 336.416h-16.88a1.927 1.927 0 0 0 0 3.852h16.88a1.926 1.926 0 0 0 0-3.852Z" fill="#154D72"/><path d="M535.399 380.757h7.048v-3.853h-7.048v3.853ZM535.399 385.769h7.048v-3.853h-7.048v3.853Z" fill="#FF9B05"/><path d="M535.399 390.781h7.048v-3.853h-7.048v3.853ZM543.607 380.757h7.047v-3.853h-7.047v3.853Z" fill="#154D72"/><path d="M543.607 385.769h7.047v-3.853h-7.047v3.853Z" fill="#FF9B05"/><path d="M543.607 390.781h7.047v-3.853h-7.047v3.853Z" fill="#154D72"/><path opacity=".6" d="M531.702 366.679h-16.88a1.927 1.927 0 0 0 0 3.853h16.88a1.926 1.926 0 0 0 0-3.853ZM531.702 361.667h-16.88a1.927 1.927 0 0 0 0 3.853h16.88a1.926 1.926 0 0 0 0-3.853ZM531.702 356.656h-16.88a1.927 1.927 0 0 0 0 3.852h16.88a1.926 1.926 0 0 0 0-3.852Z" fill="#154D72"/><path d="M535.399 360.517h7.048v-3.852h-7.048v3.852Z" fill="#154D72"/><path d="M535.399 365.52h7.048v-3.853h-7.048v3.853ZM535.399 370.532h7.048v-3.853h-7.048v3.853ZM543.607 360.517h7.047v-3.852h-7.047v3.852ZM543.607 365.52h7.047v-3.853h-7.047v3.853Z" fill="#FF9B05"/><path d="M543.607 370.532h7.047v-3.853h-7.047v3.853Z" fill="#154D72"/><path opacity=".6" d="M531.702 386.919h-16.88a1.927 1.927 0 0 0 0 3.853h16.88a1.927 1.927 0 0 0 0-3.853ZM531.702 381.916h-16.88a1.927 1.927 0 0 0 0 3.853h16.88a1.926 1.926 0 0 0 0-3.853ZM531.702 376.904h-16.88a1.927 1.927 0 0 0 0 3.853h16.88a1.926 1.926 0 0 0 0-3.853Z" fill="#154D72"/><path d="M535.399 340.268h7.048v-3.853h-7.048v3.853Z" fill="#FF9B05"/><path d="M535.399 345.28h7.048v-3.853h-7.048v3.853Z" fill="#154D72"/><path d="M535.399 350.292h7.048v-3.853h-7.048v3.853Z" fill="#FF9B05"/><path d="M543.607 340.268h7.047v-3.853h-7.047v3.853Z" fill="#154D72"/><path d="M543.607 345.28h7.047v-3.853h-7.047v3.853ZM543.607 350.292h7.047v-3.853h-7.047v3.853Z" fill="#FF9B05"/><path opacity=".6" d="M531.702 407.168h-16.88a1.927 1.927 0 0 0 0 3.852h16.88a1.926 1.926 0 0 0 0-3.852ZM531.702 402.156h-16.88a1.927 1.927 0 0 0 0 3.852h16.88a1.926 1.926 0 0 0 0-3.852ZM531.702 397.153h-16.889a1.926 1.926 0 1 0 0 3.852h16.889a1.926 1.926 0 1 0 0-3.852Z" fill="#154D72"/><path d="M535.399 320.019h7.048v-3.853h-7.048v3.853Z" fill="#154D72"/><path d="M535.399 325.031h7.048v-3.853h-7.048v3.853ZM535.399 330.043h7.048v-3.852h-7.048v3.852ZM543.607 320.019h7.047v-3.853h-7.047v3.853ZM543.607 325.031h7.047v-3.853h-7.047v3.853Z" fill="#FF9B05"/><path d="M543.607 330.043h7.047v-3.852h-7.047v3.852Z" fill="#154D72"/></svg>