<svg width="75" height="66" fill="none" xmlns="http://www.w3.org/2000/svg"><g clip-path="url(#clip0)"><path d="M19.7 25.92h3.2v19.9h-3.2v-19.9zm14.4 13.6c0 3-2.6 3.3-3.3 3.3-1.9 0-2.3-1.8-2.3-2.9v-7.6h-3.2v7.6c0 1.9.6 3.4 1.6 4.5.9.9 2.3 1.4 3.8 1.4 1.1 0 2.6-.3 3.3-1.1v1.1h3.2v-13.5H34v7.2h.1zm9.5-12h-3.2v4.8H38v3.2h2.4v10.3h3.2v-10.3H46v-3.2h-2.4v-4.8zM56 41.82c-.7.6-1.6 1-2.6 1-2.2 0-3.8-1.6-3.8-3.9s1.6-3.8 3.8-3.8c1 0 1.9.3 2.6 1l.5.4 2.1-2.1-.5-.5c-1.3-1.1-2.9-1.8-4.7-1.8-4-.1-6.9 2.8-6.9 6.8 0 3.9 3 6.9 6.9 6.9 1.8 0 3.5-.6 4.8-1.8l.5-.5-2.2-2.2-.5.5zm14.1-8.3c-.9-.9-2-1.4-3.5-1.4-1.1 0-2.3.3-3.1 1.1v-7.3h-3.2v19.9h3.2v-7.5c0-3 2.2-3.3 2.9-3.3 1.9 0 1.9 1.8 1.9 2.9v7.9h3.2v-7.9c0-1.8-.4-3.4-1.4-4.4z" fill="#17313B"/><path d="M53.3 41.22a2.3 2.3 0 100-4.6 2.3 2.3 0 000 4.6z" fill="#FF3D2E"/><path d="M15.3 40.82c-1.2 1.2-2.9 1.9-4.6 1.9-3.6 0-6.2-2.8-6.2-6.6s2.6-6.6 6.1-6.6c1.7 0 3.3.7 4.6 1.9l.5.5 2.1-2.1-.5-.5c-1.8-1.8-4.2-2.8-6.7-2.8-5.2 0-9.1 4.1-9.1 9.6s3.9 9.6 9.2 9.6c2.6 0 5-1 6.7-2.8l.5-.5-2.1-2.2-.5.6z" fill="#17313B"/></g><path d="M14.1 57.263c-.093-.186-.186-.28-.372-.28l-4.282-.744-1.861-3.816a.512.512 0 00-.466-.28c-.093 0-.279.094-.372.28l-1.955 3.816-4.281.559a.727.727 0 00-.372.372c-.094.186 0 .372.093.465l3.071 3.072-.744 4.281c0 .186 0 .373.186.466.186.093.372.093.465 0l3.816-1.955 3.816 2.048c.093 0 .186.093.186.093.093 0 .187 0 .28-.093.186-.093.186-.28.186-.466l-.652-4.281 3.072-3.072c.186-.093.186-.279.186-.465zM29.3 57.263c-.093-.186-.186-.28-.372-.28l-4.282-.744-1.861-3.816a.512.512 0 00-.466-.28c-.093 0-.279.094-.372.28l-1.955 3.816-4.281.559a.727.727 0 00-.373.372c-.092.186 0 .372.094.465l3.071 3.072-.744 4.281c0 .186 0 .373.186.466.186.093.372.093.465 0l3.816-1.955 3.816 2.048c.093 0 .186.093.186.093.093 0 .187 0 .28-.093.186-.093.186-.28.186-.466l-.652-4.281 3.072-3.072c.186-.093.186-.279.186-.465zM44.5 57.263c-.093-.186-.186-.28-.372-.28l-4.282-.744-1.861-3.816a.512.512 0 00-.466-.28c-.093 0-.279.094-.372.28l-1.955 3.816-4.281.559a.726.726 0 00-.372.372c-.094.186 0 .372.093.465l3.071 3.072-.745 4.281c0 .186 0 .373.187.466.186.093.372.093.465 0l3.816-1.955 3.816 2.048c.093 0 .187.093.187.093.093 0 .186 0 .279-.093.186-.093.186-.28.186-.466l-.652-4.281 3.072-3.072c.186-.093.186-.279.186-.465zM59.7 57.263c-.093-.186-.186-.28-.372-.28l-4.282-.744-1.861-3.816a.512.512 0 00-.466-.28c-.093 0-.279.094-.372.28l-1.955 3.816-4.281.559a.727.727 0 00-.372.372c-.094.186 0 .372.093.465l3.071 3.072-.745 4.281c0 .186 0 .373.187.466.186.093.372.093.465 0l3.816-1.955 3.816 2.048c.093 0 .186.093.186.093.093 0 .187 0 .28-.093.186-.093.186-.28.186-.466l-.652-4.281 3.072-3.072c.186-.093.186-.279.186-.465zM74.9 57.263c-.093-.186-.186-.28-.372-.28l-4.282-.744-1.861-3.816a.512.512 0 00-.466-.28c-.093 0-.279.094-.372.28l-1.955 3.816-4.281.559a.727.727 0 00-.373.372c-.093.186 0 .372.094.465l3.071 3.072-.744 4.281c0 .186 0 .373.186.466.186.093.372.093.465 0l3.816-1.955 3.816 2.048c.093 0 .186.093.186.093.093 0 .187 0 .28-.093.186-.093.186-.28.186-.466l-.652-4.281 3.072-3.072c.186-.093.186-.279.186-.465z" fill="#FF3D2E"/><path d="M3.433 16.044h-1.67v2.876H.82v-7.11h2.354c.8 0 1.416.183 1.846.548.432.364.649.895.649 1.592 0 .442-.12.828-.361 1.157-.238.329-.57.574-.996.737l1.67 3.018v.058H4.975l-1.543-2.876zm-1.67-.766h1.44c.466 0 .835-.12 1.109-.362.276-.24.415-.563.415-.966 0-.44-.132-.777-.396-1.011-.26-.235-.638-.353-1.133-.357H1.763v2.696zm10.243.356H8.925v2.52h3.579v.766H7.987v-7.11h4.468v.772h-3.53v2.286h3.08v.766zm5.018 2.041l2.032-5.864h1.025l-2.637 7.11h-.83l-2.632-7.11h1.02l2.022 5.864zm6.02 1.245h-.938v-7.11h.938v7.11zm6.737-3.286h-3.08v2.52h3.578v.766h-4.516v-7.11h4.467v.772H26.7v2.286h3.081v.766zm4.199 1.045l.136.938.2-.845 1.407-4.961h.79l1.373 4.96.195.86.151-.957 1.104-4.863h.942l-1.723 7.11H37.7l-1.465-5.181-.112-.542-.112.542-1.519 5.18h-.854l-1.72-7.11h.938l1.123 4.87zm12.362-1.045H43.26v2.52h3.579v.766h-4.517v-7.11h4.468v.772h-3.53v2.286h3.08v.766zm2.665 3.286v-7.11h2.007c.618 0 1.165.138 1.64.411.476.274.842.662 1.099 1.167.26.505.392 1.084.395 1.738v.454c0 .671-.13 1.259-.39 1.763a2.71 2.71 0 01-1.109 1.162c-.478.27-1.036.409-1.674.415h-1.968zm.937-6.338v5.572h.987c.722 0 1.284-.225 1.684-.674.404-.45.606-1.089.606-1.92v-.414c0-.807-.19-1.434-.572-1.88-.377-.45-.914-.677-1.61-.684h-1.095zm15.575 3.013c0 .697-.118 1.305-.352 1.826-.234.518-.566.913-.996 1.187-.43.273-.931.41-1.504.41a2.73 2.73 0 01-1.49-.41 2.762 2.762 0 01-1.01-1.177c-.238-.511-.36-1.102-.366-1.772v-.513c0-.684.119-1.288.356-1.812.238-.524.573-.924 1.006-1.2.436-.28.934-.42 1.494-.42.57 0 1.071.138 1.504.414.436.274.772.672 1.006 1.197.234.52.352 1.128.352 1.82v.45zm-.933-.459c0-.843-.17-1.49-.508-1.938-.338-.453-.812-.68-1.42-.68-.593 0-1.06.227-1.402.68-.339.449-.513 1.074-.523 1.875v.522c0 .817.171 1.46.513 1.929.345.465.819.698 1.421.698.605 0 1.074-.22 1.406-.66.332-.442.503-1.075.513-1.899v-.527zm8.803 3.784h-.943l-3.579-5.478v5.478h-.942v-7.11h.942l3.59 5.504V11.81h.932v7.11z" fill="#6A797E"/><defs><clipPath id="clip0"><path fill="#fff" d="M1.5 25.92h70v19.9h-70z"/></clipPath></defs></svg>