<svg width="972" height="516" fill="none" xmlns="http://www.w3.org/2000/svg"><path d="M10.999 0v516M48.999 0v516M86.999 0v516M124.999 0v516M162.999 0v516M200.999 0v516M238.999 0v516M276.999 0v516M314.999 0v516M352.999 0v516M390.999 0v516M428.999 0v516M466.999 0v516M504.999 0v516M542.999 0v516M580.999 0v516M618.999 0v516M656.999 0v516M694.999 0v516M732.999 0v516M770.999 0v516M808.999 0v516M846.999 0v516M884.999 0v516M922.999 0v516M960.999 0v516M0 505h972M0 467h972M0 429h972M0 391h972M0 353h972M0 315h972M0 277h972M0 239h972M0 201h972M0 163h972M0 125h972M0 87h972M0 49h972M0 11h972" stroke="#0F4465" stroke-miterlimit="10"/><circle cx="362.433" cy="273.433" r="43.933" fill="#103654" stroke="#0F6195"/><path d="M394.568 303.981a9.44 9.44 0 0 0-.916-2.036c-2.835-4.619-9.69-8.127-15.52-9.922-5.83-1.797-7.699-5.795-7.286-7.656.414-1.861 1.693-1.282 2.989-3.937 1.105-2.262 1.856-7.547 1.856-7.547s2.658-.962 2.954-5.323c.295-4.364 0-5.968-1.005-6.481-1.005-.513-1.418-.449-1.418-.449s.656-6.206.661-7.506c.005-1.647.142-3.263-.283-4.94-1.533-6.029-7.886-8.595-15.26-8.468-7.374.129-7.488 2.566-9.019 4.363-1.531 1.795-2.553.384-3.914 3.143-.823 1.668-.03 9.559-.03 9.559.248 2.185.525 3.849.525 3.849s-.414-.064-1.419.449c-1.003.513-1.3 2.117-1.003 6.481.294 4.361 2.953 5.323 2.953 5.323s.751 5.285 1.857 7.547c1.295 2.655 2.575 2.076 2.989 3.937.413 1.861-1.458 5.859-7.288 7.656-5.83 1.795-12.684 5.303-15.52 9.922a9.074 9.074 0 0 0-.776 1.631" stroke="#0F5C8D"/><path d="M449.348 264.85h9.027l5.841-5.841h7.7" stroke="#E7806A"/><path d="M463.42 241.751h6.372l8.496 8.496h8.762" stroke="#0F6195"/><path d="M507.228 235.91h-13.275M498.417 235.91h-4.779" stroke="#E7806A"/><rect x="506.882" y="252.34" width="109.982" height="75.466" rx="7.5" fill="#103654" stroke="#0F6195"/><path d="M506.647 313.969h110.717" stroke="#0F6195"/><circle cx="457.313" cy="241.751" r="5.341" stroke="#0F6195"/><circle cx="443.507" cy="265.116" r="5.341" stroke="#E7806A"/><path d="M592.326 341.014v16.992l11.948 11.948v23.365M578.52 361.988v23.099" stroke="#0F6195"/><path d="M587.547 371.016l5.044 5.044v6.903" stroke="#E7806A"/><path d="M566.837 359.599v13.275M566.572 376.326v6.372M604.274 341.278v11.683" stroke="#0F6195"/><circle cx="578.254" cy="390.662" r="5.341" stroke="#0F6195"/><circle cx="604.273" cy="399.159" r="5.341" stroke="#0F6195"/><path stroke="#0F6195" d="M554.142 328.275h17.055v8.558h-17.055zM546.208 336.833h32.923M488.909 267.24h-15.931l-5.576 5.575h-6.903M508.026 464.815h-9.027l-5.842 5.841h-7.699"/><path d="M493.954 487.914h-6.372l-8.497-8.496h-8.761" stroke="#E7806A"/><path d="M450.145 493.755h13.275M465.38 493.84h4.779" stroke="#0F6195"/><path d="M447.439 449.409h-.5v25.281c0 4.143-3.357 7.5-7.5 7.5h-94.981a7.499 7.499 0 0 1-7.5-7.5v-50.766a7.5 7.5 0 0 1 7.5-7.5h94.981a7.5 7.5 0 0 1 7.5 7.5v14.775l.147.147 10.563 10.563h-10.21z" fill="#103654" stroke="#0F6195"/><circle cx="500.06" cy="487.914" r="5.341" transform="rotate(-180 500.06 487.914)" stroke="#E7806A"/><circle cx="513.867" cy="464.549" r="5.341" transform="rotate(-180 513.867 464.549)" stroke="#0F6195"/><path d="M344.025 345.2v16.992l-11.948 11.948v35.344" stroke="#0F6195"/><path d="M369.646 353.431v23.099l10.898 10.898v12.657" stroke="#E7806A"/><path d="M386.328 352.919v-13.275M386.594 336.192v-6.372" stroke="#0F6195"/><path d="M357.892 397.239v-11.683M357.892 382.371v-5.841" stroke="#E7806A"/><circle cx="369.912" cy="347.854" r="5.341" transform="rotate(-180 369.912 347.854)" stroke="#E7806A"/><circle cx="343.892" cy="339.359" r="5.341" transform="rotate(-180 343.892 339.359)" stroke="#0F6195"/><path d="M468.465 462.425h15.931l5.575-5.575h6.904" stroke="#0F6195"/><rect x="350.233" y="425.981" width="19.178" height="19.178" rx="2.5" stroke="#0F6195"/><path d="M378.481 425.481h55.491M378.481 435.128h55.491M379.171 444.776h54.436M349.54 454.423h84.431M349.54 464.07h84.431M349.54 473.717h84.431M539.588 257.845h45.007v55.435h-45.007z" stroke="#0F6195"/><path fill="#103856" stroke="#0F6195" d="M533.48 267.452h41.419v45.917H533.48z"/><path stroke="#0F6195" d="M538.622 302.8h5.427v10.569h-5.427zM546.335 288.661h5.427v24.708h-5.427zM554.69 297.016h5.427v16.353h-5.427zM563.045 282.876h5.427v30.493h-5.427zM538.622 271.95h5.427v5.427h-5.427z"/><circle cx="586.99" cy="455.969" r="44.059" fill="#103654" stroke="#0F6195"/><path d="M557.117 488.455a9.188 9.188 0 0 1 .778-1.635c2.844-4.633 7.365-9.612 13.211-11.412 3.877-.75 10.81-3.951 10.81-7.418m35.733 20.465a9.188 9.188 0 0 0-.778-1.635c-2.844-4.633-7.365-9.612-13.211-11.412-3.877-.75-10.669-3.837-10.669-7.304" stroke="#0F6195"/><rect x="592.064" y="481.692" width="10.49" height="5.894" rx=".5" stroke="#0F6195"/><path d="M596.16 483.03h5.515M596.16 484.409h3.218" stroke="#0F6195"/><rect x="593.229" y="483.309" width="1.758" height="1.758" rx=".5" stroke="#0F6195"/><path d="M600.067 453.847c0 9.175-5.359 16.183-12.273 16.183-4.881 0-9.109-3.706-11.175-9.113" stroke="#0F6195"/><path d="M578.786 472.324c-1.204-5.779-6.26-27.207 2.889-28.892 7.32-1.349 9.583-3.629 11.268-4.752 4.896 6.099 12.639 16.545 1.974 32.681m-25.521 4.815c.241-4.093 1.686-4.815 2.507-8.313 1.231-5.241-7.945-41.412 15.409-41.412s19.984 19.021 19.984 38.282c0 6.626 1.5 11.727 3.993 15.295" stroke="#0F6195"/></svg>