<svg width="972" height="516" fill="none" xmlns="http://www.w3.org/2000/svg"><path d="M10.999 0v516M48.999 0v516M86.999 0v516M124.999 0v516M162.999 0v516M200.999 0v516M238.999 0v516M276.999 0v516M314.999 0v516M352.999 0v516M390.999 0v516M428.999 0v516M466.999 0v516M504.999 0v516M542.999 0v516M580.999 0v516M618.999 0v516M656.999 0v516M694.999 0v516M732.999 0v516M770.999 0v516M808.999 0v516M846.999 0v516M884.999 0v516M922.999 0v516M960.999 0v516M0 505h972M0 467h972M0 429h972M0 391h972M0 353h972M0 315h972M0 277h972M0 239h972M0 201h972M0 163h972M0 125h972M0 87h972M0 49h972M0 11h972" stroke="#0F4465" stroke-miterlimit="10"/><g clip-path="url(#a)"><path d="M679.7 259.255h21.201v-8.959H679.7v8.959ZM691.534 247.958h21.2v-8.959h-21.2v8.959ZM319.206 393.907h21.201v-8.959h-21.201v8.959ZM331.031 382.61h21.201v-8.959h-21.201v8.959ZM342.817 393.907h21.201v-8.959h-21.201v8.959ZM258.51 247.958h21.201v-8.959H258.51v8.959ZM270.343 474.626h21.201v-8.959h-21.201v8.959ZM258.51 463.33h21.201v-8.96H258.51v8.96ZM679.7 474.626h21.201v-8.959H679.7v8.959Z" fill="#134063"/><path d="M452.816 332.29h-47.774v183.522h47.774V332.29Z" fill="#113B5B"/><path d="M540.734 332.29h-87.918v183.522h87.918V332.29Z" fill="#143F61"/><path d="M535.241 492.449h-75.836v17.51h75.836v-17.51Z" fill="#103654"/><path d="M505.762 495.339H462.6v1.482h43.162v-1.482ZM505.762 497.901H462.6v1.482h43.162v-1.482ZM505.762 500.463H462.6v1.481h43.162v-1.481ZM505.762 503.025H462.6v1.482h43.162v-1.482ZM505.762 505.596H462.6v1.481h43.162v-1.481ZM513.632 496.805a1.466 1.466 0 1 1-2.932-.002 1.466 1.466 0 0 1 2.932.002ZM518.468 496.805a1.466 1.466 0 1 1-2.932-.002 1.466 1.466 0 0 1 2.932.002ZM523.296 496.805a1.466 1.466 0 1 1-2.932-.002 1.466 1.466 0 0 1 2.932.002ZM528.132 496.805a1.466 1.466 0 1 1-2.928-.002 1.466 1.466 0 0 1 2.928.002ZM532.968 496.805a1.467 1.467 0 0 1-2.931 0 1.467 1.467 0 0 1 2.931 0ZM513.632 501.208a1.466 1.466 0 1 1-2.932-.002 1.466 1.466 0 0 1 2.932.002ZM518.468 501.208a1.466 1.466 0 1 1-2.932-.002 1.466 1.466 0 0 1 2.932.002ZM523.296 501.208a1.466 1.466 0 1 1-2.932-.002 1.466 1.466 0 0 1 2.932.002ZM528.132 501.208a1.466 1.466 0 1 1-2.928-.002 1.466 1.466 0 0 1 2.928.002ZM532.968 501.208a1.467 1.467 0 0 1-2.931 0 1.466 1.466 0 0 1 2.931 0ZM513.632 505.603a1.466 1.466 0 1 1-2.932 0 1.466 1.466 0 0 1 2.932 0ZM518.468 505.603a1.466 1.466 0 1 1-2.932 0 1.466 1.466 0 0 1 2.932 0ZM523.296 505.603a1.466 1.466 0 1 1-2.932 0 1.466 1.466 0 0 1 2.932 0ZM528.132 505.603a1.466 1.466 0 1 1-2.928 0 1.466 1.466 0 0 1 2.928 0ZM532.968 505.603a1.467 1.467 0 1 1-1.466-1.465c.809 0 1.466.657 1.466 1.465Z" fill="#143F61"/><path d="M508.764 495.339h-.84v11.73h.84v-11.73Z" fill="#113B5B"/><path d="M535.241 471.344h-75.836v17.51h75.836v-17.51Z" fill="#103654"/><path d="M505.762 474.235H462.6v1.481h43.162v-1.481ZM505.762 476.796H462.6v1.482h43.162v-1.482ZM505.762 479.358H462.6v1.482h43.162v-1.482ZM505.762 481.921H462.6v1.481h43.162v-1.481ZM505.762 484.482H462.6v1.482h43.162v-1.482ZM512.167 477.165a1.465 1.465 0 1 0 0-2.93 1.465 1.465 0 0 0 0 2.93ZM518.468 475.7a1.465 1.465 0 1 1-2.93 0 1.465 1.465 0 0 1 2.93 0ZM523.296 475.7a1.465 1.465 0 1 1-2.93 0 1.465 1.465 0 0 1 2.93 0ZM528.132 475.7a1.466 1.466 0 1 1-2.932-.002 1.466 1.466 0 0 1 2.932.002ZM531.495 477.165a1.465 1.465 0 1 0 0-2.93 1.465 1.465 0 0 0 0 2.93ZM512.167 481.56a1.465 1.465 0 1 0 0-2.93 1.465 1.465 0 0 0 0 2.93ZM518.468 480.095a1.465 1.465 0 1 1-2.93 0 1.465 1.465 0 0 1 2.93 0ZM523.296 480.095a1.465 1.465 0 1 1-2.93 0 1.465 1.465 0 0 1 2.93 0ZM528.132 480.095a1.466 1.466 0 1 1-2.932-.002 1.466 1.466 0 0 1 2.932.002ZM531.495 481.56a1.465 1.465 0 1 0 0-2.93 1.465 1.465 0 0 0 0 2.93ZM512.167 485.964a1.465 1.465 0 1 0 0-2.93 1.465 1.465 0 0 0 0 2.93ZM518.468 484.499a1.465 1.465 0 1 1-2.93 0 1.465 1.465 0 0 1 2.93 0ZM523.296 484.499a1.465 1.465 0 1 1-2.93 0 1.465 1.465 0 0 1 2.93 0ZM528.132 484.499a1.466 1.466 0 1 1-2.932-.002 1.466 1.466 0 0 1 2.932.002ZM531.495 485.964a1.465 1.465 0 1 0 0-2.93 1.465 1.465 0 0 0 0 2.93Z" fill="#143F61"/><path d="M508.764 474.235h-.84v11.729h.84v-11.729Z" fill="#113B5B"/><path d="M535.241 450.231h-75.836v17.51h75.836v-17.51Z" fill="#103654"/><path d="M505.762 453.13H462.6v1.481h43.162v-1.481ZM505.762 455.692H462.6v1.482h43.162v-1.482ZM505.762 458.254H462.6v1.482h43.162v-1.482ZM505.762 460.816H462.6v1.481h43.162v-1.481ZM505.762 463.378H462.6v1.481h43.162v-1.481ZM513.632 454.595a1.465 1.465 0 1 1-2.93 0 1.465 1.465 0 0 1 2.93 0ZM518.468 454.595a1.465 1.465 0 1 1-2.93 0 1.465 1.465 0 0 1 2.93 0ZM523.296 454.595a1.465 1.465 0 1 1-2.93 0 1.465 1.465 0 0 1 2.93 0ZM528.132 454.595a1.466 1.466 0 1 1-2.932-.002 1.466 1.466 0 0 1 2.932.002ZM532.968 454.595a1.466 1.466 0 1 1-2.932-.002 1.466 1.466 0 0 1 2.932.002ZM513.632 458.991a1.466 1.466 0 1 1-2.932-.002 1.466 1.466 0 0 1 2.932.002ZM518.468 458.991a1.466 1.466 0 1 1-2.932-.002 1.466 1.466 0 0 1 2.932.002ZM523.296 458.991a1.466 1.466 0 1 1-2.932-.002 1.466 1.466 0 0 1 2.932.002ZM528.132 458.991a1.466 1.466 0 1 1-2.928-.002 1.466 1.466 0 0 1 2.928.002ZM532.968 458.991a1.467 1.467 0 0 1-2.931 0 1.467 1.467 0 0 1 2.931 0ZM513.632 463.386a1.465 1.465 0 1 1-2.93 0 1.465 1.465 0 0 1 2.93 0ZM518.468 463.386a1.465 1.465 0 1 1-2.93 0 1.465 1.465 0 0 1 2.93 0ZM523.296 463.386a1.465 1.465 0 1 1-2.93 0 1.465 1.465 0 0 1 2.93 0ZM528.132 463.386a1.466 1.466 0 1 1-2.932-.002 1.466 1.466 0 0 1 2.932.002ZM532.968 463.386a1.466 1.466 0 1 1-2.932-.002 1.466 1.466 0 0 1 2.932.002Z" fill="#143F61"/><path d="M508.764 453.13h-.84v11.729h.84V453.13Z" fill="#113B5B"/><path d="M535.241 429.127h-75.836v17.51h75.836v-17.51Z" fill="#103654"/><path d="M505.762 432.017H462.6v1.481h43.162v-1.481ZM505.762 434.579H462.6v1.481h43.162v-1.481ZM505.762 437.149H462.6v1.482h43.162v-1.482ZM505.762 439.711H462.6v1.482h43.162v-1.482ZM505.762 442.273H462.6v1.481h43.162v-1.481ZM513.632 433.491a1.466 1.466 0 1 1-2.932-.002 1.466 1.466 0 0 1 2.932.002ZM518.468 433.491a1.466 1.466 0 1 1-2.932-.002 1.466 1.466 0 0 1 2.932.002ZM523.296 433.491a1.466 1.466 0 1 1-2.932-.002 1.466 1.466 0 0 1 2.932.002ZM528.132 433.491a1.466 1.466 0 1 1-2.928-.002 1.466 1.466 0 0 1 2.928.002ZM532.968 433.491a1.467 1.467 0 0 1-2.931 0 1.467 1.467 0 0 1 2.931 0ZM513.632 437.886a1.465 1.465 0 1 1-2.93 0 1.465 1.465 0 0 1 2.93 0ZM518.468 437.886a1.465 1.465 0 1 1-2.93 0 1.465 1.465 0 0 1 2.93 0ZM523.296 437.886a1.465 1.465 0 1 1-2.93 0 1.465 1.465 0 0 1 2.93 0ZM528.132 437.886a1.466 1.466 0 1 1-2.932-.002 1.466 1.466 0 0 1 2.932.002ZM532.968 437.886a1.466 1.466 0 1 1-2.932-.002 1.466 1.466 0 0 1 2.932.002ZM513.632 442.282a1.466 1.466 0 1 1-2.932-.002 1.466 1.466 0 0 1 2.932.002ZM518.468 442.282a1.466 1.466 0 1 1-2.932-.002 1.466 1.466 0 0 1 2.932.002ZM523.296 442.282a1.466 1.466 0 1 1-2.932-.002 1.466 1.466 0 0 1 2.932.002ZM528.132 442.282a1.466 1.466 0 1 1-2.928-.002 1.466 1.466 0 0 1 2.928.002ZM532.968 442.282a1.467 1.467 0 0 1-2.931 0 1.467 1.467 0 0 1 2.931 0Z" fill="#143F61"/><path d="M508.764 432.017h-.84v11.729h.84v-11.729Z" fill="#113B5B"/><path d="M535.241 408.021h-75.836v17.51h75.836v-17.51Z" fill="#103654"/><path d="M505.762 410.912H462.6v1.481h43.162v-1.481ZM505.762 413.474H462.6v1.481h43.162v-1.481ZM505.762 416.036H462.6v1.481h43.162v-1.481ZM505.762 418.598H462.6v1.481h43.162v-1.481ZM505.762 421.16H462.6v1.481h43.162v-1.481ZM513.632 412.377a1.465 1.465 0 1 1-2.93 0 1.465 1.465 0 0 1 2.93 0ZM518.468 412.377a1.465 1.465 0 1 1-2.93 0 1.465 1.465 0 0 1 2.93 0ZM523.296 412.377a1.465 1.465 0 1 1-2.93 0 1.465 1.465 0 0 1 2.93 0ZM528.132 412.377a1.466 1.466 0 1 1-2.932-.002 1.466 1.466 0 0 1 2.932.002ZM532.968 412.377a1.466 1.466 0 1 1-2.932-.002 1.466 1.466 0 0 1 2.932.002ZM513.632 416.781a1.466 1.466 0 1 1-2.932-.002 1.466 1.466 0 0 1 2.932.002ZM518.468 416.781a1.466 1.466 0 1 1-2.932-.002 1.466 1.466 0 0 1 2.932.002ZM523.296 416.781a1.466 1.466 0 1 1-2.932-.002 1.466 1.466 0 0 1 2.932.002ZM528.132 416.781a1.466 1.466 0 1 1-2.928-.002 1.466 1.466 0 0 1 2.928.002ZM532.968 416.781a1.467 1.467 0 0 1-2.931 0 1.467 1.467 0 0 1 2.931 0ZM513.632 421.176a1.465 1.465 0 1 1-2.93 0 1.465 1.465 0 0 1 2.93 0ZM518.468 421.176a1.465 1.465 0 1 1-2.93 0 1.465 1.465 0 0 1 2.93 0ZM523.296 421.176a1.465 1.465 0 1 1-2.93 0 1.465 1.465 0 0 1 2.93 0ZM528.132 421.176a1.466 1.466 0 1 1-2.932-.002 1.466 1.466 0 0 1 2.932.002ZM532.968 421.176a1.466 1.466 0 1 1-2.932-.002 1.466 1.466 0 0 1 2.932.002Z" fill="#143F61"/><path d="M508.764 410.912h-.84v11.729h.84v-11.729Z" fill="#113B5B"/><path d="M535.241 386.917h-75.836v17.51h75.836v-17.51Z" fill="#103654"/><path d="M505.762 389.808H462.6v1.481h43.162v-1.481ZM505.762 392.37H462.6v1.481h43.162v-1.481ZM505.762 394.932H462.6v1.481h43.162v-1.481ZM505.762 397.494H462.6v1.481h43.162v-1.481ZM505.762 400.055H462.6v1.481h43.162v-1.481ZM513.632 391.273a1.466 1.466 0 1 1-2.932-.002 1.466 1.466 0 0 1 2.932.002ZM518.468 391.273a1.466 1.466 0 1 1-2.932-.002 1.466 1.466 0 0 1 2.932.002ZM523.296 391.273a1.466 1.466 0 1 1-2.932-.002 1.466 1.466 0 0 1 2.932.002ZM528.132 391.273a1.466 1.466 0 1 1-2.928-.002 1.466 1.466 0 0 1 2.928.002ZM532.968 391.273a1.467 1.467 0 0 1-2.931 0 1.466 1.466 0 0 1 2.931 0ZM513.632 395.668a1.465 1.465 0 1 1-2.93 0 1.465 1.465 0 0 1 2.93 0ZM518.468 395.668a1.465 1.465 0 1 1-2.93 0 1.465 1.465 0 0 1 2.93 0ZM523.296 395.668a1.465 1.465 0 1 1-2.93 0 1.465 1.465 0 0 1 2.93 0ZM528.132 395.668a1.466 1.466 0 1 1-2.932-.002 1.466 1.466 0 0 1 2.932.002ZM532.968 395.668a1.466 1.466 0 1 1-2.932-.002 1.466 1.466 0 0 1 2.932.002ZM513.632 400.072a1.466 1.466 0 1 1-2.932-.002 1.466 1.466 0 0 1 2.932.002ZM518.468 400.072a1.466 1.466 0 1 1-2.932-.002 1.466 1.466 0 0 1 2.932.002ZM523.296 400.072a1.466 1.466 0 1 1-2.932-.002 1.466 1.466 0 0 1 2.932.002ZM528.132 400.072a1.466 1.466 0 1 1-2.928-.002 1.466 1.466 0 0 1 2.928.002ZM532.968 400.072a1.467 1.467 0 0 1-2.931 0 1.467 1.467 0 0 1 2.931 0Z" fill="#143F61"/><path d="M508.764 389.808h-.84v11.729h.84v-11.729Z" fill="#113B5B"/><path d="M535.241 365.804h-75.836v17.51h75.836v-17.51Z" fill="#103654"/><path d="M505.762 368.703H462.6v1.481h43.162v-1.481ZM505.762 371.265H462.6v1.481h43.162v-1.481ZM505.762 373.827H462.6v1.481h43.162v-1.481ZM505.762 376.389H462.6v1.481h43.162v-1.481ZM505.762 378.951H462.6v1.481h43.162v-1.481ZM512.167 371.633a1.465 1.465 0 1 0 0-2.93 1.465 1.465 0 0 0 0 2.93ZM518.468 370.168a1.466 1.466 0 1 1-2.932-.002 1.466 1.466 0 0 1 2.932.002ZM523.296 370.168a1.466 1.466 0 1 1-2.932-.002 1.466 1.466 0 0 1 2.932.002ZM528.132 370.168a1.466 1.466 0 1 1-2.928-.002 1.466 1.466 0 0 1 2.928.002ZM531.495 371.633a1.465 1.465 0 1 0 0-2.93 1.465 1.465 0 0 0 0 2.93ZM512.167 376.028a1.465 1.465 0 1 0 0-2.93 1.465 1.465 0 0 0 0 2.93ZM518.468 374.563a1.465 1.465 0 1 1-2.93 0 1.465 1.465 0 0 1 2.93 0ZM523.296 374.563a1.465 1.465 0 1 1-2.93 0 1.465 1.465 0 0 1 2.93 0ZM528.132 374.563a1.466 1.466 0 1 1-2.932-.002 1.466 1.466 0 0 1 2.932.002ZM531.495 376.028a1.465 1.465 0 1 0 0-2.93 1.465 1.465 0 0 0 0 2.93ZM513.632 378.959a1.466 1.466 0 1 1-2.932-.002 1.466 1.466 0 0 1 2.932.002ZM518.468 378.959a1.466 1.466 0 1 1-2.932-.002 1.466 1.466 0 0 1 2.932.002ZM523.296 378.959a1.466 1.466 0 1 1-2.932-.002 1.466 1.466 0 0 1 2.932.002ZM528.132 378.959a1.466 1.466 0 1 1-2.928-.002 1.466 1.466 0 0 1 2.928.002ZM532.968 378.959a1.467 1.467 0 0 1-2.931 0 1.466 1.466 0 0 1 2.931 0Z" fill="#143F61"/><path d="M508.764 368.703h-.84v11.729h.84v-11.729Z" fill="#113B5B"/><path d="M535.241 344.7h-75.836v17.51h75.836V344.7Z" fill="#103654"/><path d="M505.762 347.59H462.6v1.481h43.162v-1.481ZM505.762 350.152H462.6v1.481h43.162v-1.481ZM505.762 352.714H462.6v1.481h43.162v-1.481ZM505.762 355.276H462.6v1.482h43.162v-1.482ZM505.762 357.838H462.6v1.481h43.162v-1.481ZM512.167 350.52a1.465 1.465 0 1 0 0-2.93 1.465 1.465 0 0 0 0 2.93ZM518.468 349.055a1.465 1.465 0 1 1-2.93 0 1.465 1.465 0 0 1 2.93 0ZM523.296 349.055a1.465 1.465 0 1 1-2.93 0 1.465 1.465 0 0 1 2.93 0ZM528.132 349.055a1.466 1.466 0 1 1-2.932-.002 1.466 1.466 0 0 1 2.932.002ZM531.495 350.52a1.465 1.465 0 1 0 0-2.93 1.465 1.465 0 0 0 0 2.93ZM513.632 353.459a1.466 1.466 0 1 1-2.932-.002 1.466 1.466 0 0 1 2.932.002ZM518.468 353.459a1.466 1.466 0 1 1-2.932-.002 1.466 1.466 0 0 1 2.932.002ZM523.296 353.459a1.466 1.466 0 1 1-2.932-.002 1.466 1.466 0 0 1 2.932.002ZM528.132 353.459a1.466 1.466 0 1 1-2.928-.002 1.466 1.466 0 0 1 2.928.002ZM532.968 353.459a1.467 1.467 0 0 1-2.931 0 1.466 1.466 0 0 1 2.931 0ZM513.632 357.854a1.465 1.465 0 1 1-2.93 0 1.465 1.465 0 0 1 2.93 0ZM518.468 357.854a1.465 1.465 0 1 1-2.93 0 1.465 1.465 0 0 1 2.93 0ZM523.296 357.854a1.465 1.465 0 1 1-2.93 0 1.465 1.465 0 0 1 2.93 0ZM528.132 357.854a1.466 1.466 0 1 1-2.932-.002 1.466 1.466 0 0 1 2.932.002ZM532.968 357.854a1.466 1.466 0 1 1-2.932-.002 1.466 1.466 0 0 1 2.932.002Z" fill="#143F61"/><path d="M508.764 347.59h-.84v11.729h.84V347.59Z" fill="#113B5B"/><path d="M522.864 326.733h-99.96v5.557h99.96v-5.557Z" fill="#103654"/><path d="M286.796 311.978h-47.774v203.841h47.774V311.978Z" fill="#113B5B"/><path d="M374.714 311.978h-87.918v203.841h87.918V311.978Z" fill="#143F61"/><path d="M369.222 492.449h-75.837v17.51h75.837v-17.51Z" fill="#103654"/><path d="M339.742 495.339H296.58v1.482h43.162v-1.482ZM339.742 497.901H296.58v1.482h43.162v-1.482ZM339.742 500.463H296.58v1.481h43.162v-1.481ZM339.742 503.025H296.58v1.482h43.162v-1.482ZM339.742 505.596H296.58v1.481h43.162v-1.481ZM347.613 496.805a1.467 1.467 0 0 1-2.931 0 1.467 1.467 0 0 1 2.931 0ZM352.448 496.805a1.466 1.466 0 1 1-2.932-.002 1.466 1.466 0 0 1 2.932.002ZM357.276 496.805a1.466 1.466 0 1 1-2.932-.002 1.466 1.466 0 0 1 2.932.002ZM362.112 496.805a1.466 1.466 0 1 1-2.932-.002 1.466 1.466 0 0 1 2.932.002ZM366.94 496.805a1.466 1.466 0 1 1-2.928-.002 1.466 1.466 0 0 1 2.928.002ZM347.613 501.208a1.467 1.467 0 0 1-2.931 0 1.466 1.466 0 0 1 2.931 0ZM352.448 501.208a1.466 1.466 0 1 1-2.932-.002 1.466 1.466 0 0 1 2.932.002ZM357.276 501.208a1.466 1.466 0 1 1-2.932-.002 1.466 1.466 0 0 1 2.932.002ZM362.112 501.208a1.466 1.466 0 1 1-2.932-.002 1.466 1.466 0 0 1 2.932.002ZM366.94 501.208a1.466 1.466 0 1 1-2.928-.002 1.466 1.466 0 0 1 2.928.002ZM347.613 505.603a1.467 1.467 0 1 1-1.466-1.465c.809 0 1.466.657 1.466 1.465ZM352.448 505.603a1.466 1.466 0 1 1-2.932 0 1.466 1.466 0 0 1 2.932 0ZM357.276 505.603a1.466 1.466 0 1 1-2.932 0 1.466 1.466 0 0 1 2.932 0ZM362.112 505.603a1.466 1.466 0 1 1-2.932 0 1.466 1.466 0 0 1 2.932 0ZM366.94 505.603a1.466 1.466 0 1 1-2.928 0 1.466 1.466 0 0 1 2.928 0Z" fill="#143F61"/><path d="M342.745 495.339h-.841v11.73h.841v-11.73Z" fill="#113B5B"/><path d="M369.222 471.344h-75.837v17.51h75.837v-17.51Z" fill="#103654"/><path d="M339.742 474.235H296.58v1.481h43.162v-1.481ZM339.742 476.796H296.58v1.482h43.162v-1.482ZM339.742 479.358H296.58v1.482h43.162v-1.482ZM339.742 481.921H296.58v1.481h43.162v-1.481ZM339.742 484.482H296.58v1.482h43.162v-1.482ZM346.147 477.165a1.465 1.465 0 1 0 .001-2.93 1.465 1.465 0 0 0-.001 2.93ZM350.983 477.165a1.465 1.465 0 1 0 0-2.93 1.465 1.465 0 0 0 0 2.93ZM357.276 475.7a1.465 1.465 0 1 1-2.93 0 1.465 1.465 0 0 1 2.93 0ZM362.112 475.7a1.465 1.465 0 1 1-2.93 0 1.465 1.465 0 0 1 2.93 0ZM366.94 475.7a1.466 1.466 0 1 1-2.932-.002 1.466 1.466 0 0 1 2.932.002ZM346.147 481.56a1.465 1.465 0 1 0 .001-2.93 1.465 1.465 0 0 0-.001 2.93ZM350.983 481.56a1.465 1.465 0 1 0 0-2.93 1.465 1.465 0 0 0 0 2.93ZM357.276 480.095a1.465 1.465 0 1 1-2.93 0 1.465 1.465 0 0 1 2.93 0ZM362.112 480.095a1.465 1.465 0 1 1-2.93 0 1.465 1.465 0 0 1 2.93 0ZM366.94 480.095a1.466 1.466 0 1 1-2.932-.002 1.466 1.466 0 0 1 2.932.002ZM346.147 485.964a1.465 1.465 0 1 0 .001-2.93 1.465 1.465 0 0 0-.001 2.93ZM350.983 485.964a1.465 1.465 0 1 0 0-2.93 1.465 1.465 0 0 0 0 2.93ZM357.276 484.499a1.465 1.465 0 1 1-2.93 0 1.465 1.465 0 0 1 2.93 0ZM362.112 484.499a1.465 1.465 0 1 1-2.93 0 1.465 1.465 0 0 1 2.93 0ZM366.94 484.499a1.466 1.466 0 1 1-2.932-.002 1.466 1.466 0 0 1 2.932.002Z" fill="#143F61"/><path d="M342.745 474.235h-.841v11.729h.841v-11.729Z" fill="#113B5B"/><path d="M369.222 450.231h-75.837v17.51h75.837v-17.51Z" fill="#103654"/><path d="M339.742 453.13H296.58v1.481h43.162v-1.481ZM339.742 455.692H296.58v1.482h43.162v-1.482ZM339.742 458.254H296.58v1.482h43.162v-1.482ZM339.742 460.816H296.58v1.481h43.162v-1.481ZM339.742 463.378H296.58v1.481h43.162v-1.481ZM347.613 454.595a1.466 1.466 0 1 1-2.932-.002 1.466 1.466 0 0 1 2.932.002ZM352.448 454.595a1.465 1.465 0 1 1-2.93 0 1.465 1.465 0 0 1 2.93 0ZM357.276 454.595a1.465 1.465 0 1 1-2.93 0 1.465 1.465 0 0 1 2.93 0ZM362.112 454.595a1.465 1.465 0 1 1-2.93 0 1.465 1.465 0 0 1 2.93 0ZM366.94 454.595a1.466 1.466 0 1 1-2.932-.002 1.466 1.466 0 0 1 2.932.002ZM347.613 458.991a1.467 1.467 0 0 1-2.931 0 1.467 1.467 0 0 1 2.931 0ZM352.448 458.991a1.466 1.466 0 1 1-2.932-.002 1.466 1.466 0 0 1 2.932.002ZM357.276 458.991a1.466 1.466 0 1 1-2.932-.002 1.466 1.466 0 0 1 2.932.002ZM362.112 458.991a1.466 1.466 0 1 1-2.932-.002 1.466 1.466 0 0 1 2.932.002ZM366.94 458.991a1.466 1.466 0 1 1-2.928-.002 1.466 1.466 0 0 1 2.928.002ZM347.613 463.386a1.466 1.466 0 1 1-2.932-.002 1.466 1.466 0 0 1 2.932.002ZM352.448 463.386a1.465 1.465 0 1 1-2.93 0 1.465 1.465 0 0 1 2.93 0ZM357.276 463.386a1.465 1.465 0 1 1-2.93 0 1.465 1.465 0 0 1 2.93 0ZM362.112 463.386a1.465 1.465 0 1 1-2.93 0 1.465 1.465 0 0 1 2.93 0ZM366.94 463.386a1.466 1.466 0 1 1-2.932-.002 1.466 1.466 0 0 1 2.932.002Z" fill="#143F61"/><path d="M342.745 453.13h-.841v11.729h.841V453.13Z" fill="#113B5B"/><path d="M369.222 429.126h-75.837v17.51h75.837v-17.51Z" fill="#103654"/><path d="M339.742 432.017H296.58v1.481h43.162v-1.481ZM339.742 434.579H296.58v1.481h43.162v-1.481ZM339.742 437.149H296.58v1.481h43.162v-1.481ZM339.742 439.711H296.58v1.481h43.162v-1.481ZM339.742 442.273H296.58v1.481h43.162v-1.481ZM347.613 433.49a1.466 1.466 0 1 1-2.932-.002 1.466 1.466 0 0 1 2.932.002ZM352.448 433.49a1.465 1.465 0 1 1-2.93 0 1.465 1.465 0 0 1 2.93 0ZM357.276 433.49a1.465 1.465 0 1 1-2.93 0 1.465 1.465 0 0 1 2.93 0ZM362.112 433.49a1.465 1.465 0 1 1-2.93 0 1.465 1.465 0 0 1 2.93 0ZM366.94 433.49a1.466 1.466 0 1 1-2.932-.002 1.466 1.466 0 0 1 2.932.002ZM347.613 437.886a1.466 1.466 0 1 1-2.932-.002 1.466 1.466 0 0 1 2.932.002ZM352.448 437.886a1.465 1.465 0 1 1-2.93 0 1.465 1.465 0 0 1 2.93 0ZM357.276 437.886a1.465 1.465 0 1 1-2.93 0 1.465 1.465 0 0 1 2.93 0ZM362.112 437.886a1.465 1.465 0 1 1-2.93 0 1.465 1.465 0 0 1 2.93 0ZM366.94 437.886a1.466 1.466 0 1 1-2.932-.002 1.466 1.466 0 0 1 2.932.002ZM347.613 442.281a1.466 1.466 0 1 1-2.932-.002 1.466 1.466 0 0 1 2.932.002ZM352.448 442.281a1.465 1.465 0 1 1-2.93 0 1.465 1.465 0 0 1 2.93 0ZM357.276 442.281a1.465 1.465 0 1 1-2.93 0 1.465 1.465 0 0 1 2.93 0ZM362.112 442.281a1.465 1.465 0 1 1-2.93 0 1.465 1.465 0 0 1 2.93 0ZM366.94 442.281a1.466 1.466 0 1 1-2.932-.002 1.466 1.466 0 0 1 2.932.002Z" fill="#143F61"/><path d="M342.745 432.017h-.841v11.729h.841v-11.729Z" fill="#113B5B"/><path d="M369.222 408.021h-75.837v17.51h75.837v-17.51Z" fill="#103654"/><path d="M339.742 410.912H296.58v1.481h43.162v-1.481ZM339.742 413.474H296.58v1.481h43.162v-1.481ZM339.742 416.036H296.58v1.481h43.162v-1.481ZM339.742 418.598H296.58v1.481h43.162v-1.481ZM339.742 421.16H296.58v1.481h43.162v-1.481ZM347.613 412.377a1.466 1.466 0 1 1-2.932-.002 1.466 1.466 0 0 1 2.932.002ZM352.448 412.377a1.465 1.465 0 1 1-2.93 0 1.465 1.465 0 0 1 2.93 0ZM357.276 412.377a1.465 1.465 0 1 1-2.93 0 1.465 1.465 0 0 1 2.93 0ZM362.112 412.377a1.465 1.465 0 1 1-2.93 0 1.465 1.465 0 0 1 2.93 0ZM366.94 412.377a1.466 1.466 0 1 1-2.932-.002 1.466 1.466 0 0 1 2.932.002ZM347.613 416.781a1.467 1.467 0 0 1-2.931 0 1.467 1.467 0 0 1 2.931 0ZM352.448 416.781a1.466 1.466 0 1 1-2.932-.002 1.466 1.466 0 0 1 2.932.002ZM357.276 416.781a1.466 1.466 0 1 1-2.932-.002 1.466 1.466 0 0 1 2.932.002ZM362.112 416.781a1.466 1.466 0 1 1-2.932-.002 1.466 1.466 0 0 1 2.932.002ZM366.94 416.781a1.466 1.466 0 1 1-2.928-.002 1.466 1.466 0 0 1 2.928.002ZM347.613 421.176a1.466 1.466 0 1 1-2.932-.002 1.466 1.466 0 0 1 2.932.002ZM352.448 421.176a1.465 1.465 0 1 1-2.93 0 1.465 1.465 0 0 1 2.93 0ZM357.276 421.176a1.465 1.465 0 1 1-2.93 0 1.465 1.465 0 0 1 2.93 0ZM362.112 421.176a1.465 1.465 0 1 1-2.93 0 1.465 1.465 0 0 1 2.93 0ZM366.94 421.176a1.466 1.466 0 1 1-2.932-.002 1.466 1.466 0 0 1 2.932.002Z" fill="#143F61"/><path d="M342.745 410.912h-.841v11.729h.841v-11.729Z" fill="#113B5B"/><path d="M369.222 386.917h-75.837v17.51h75.837v-17.51Z" fill="#103654"/><path d="M339.742 389.808H296.58v1.481h43.162v-1.481ZM339.742 392.37H296.58v1.481h43.162v-1.481ZM339.742 394.932H296.58v1.481h43.162v-1.481ZM339.742 397.494H296.58v1.481h43.162v-1.481ZM339.742 400.055H296.58v1.481h43.162v-1.481ZM347.613 391.273a1.467 1.467 0 0 1-2.931 0 1.466 1.466 0 0 1 2.931 0ZM352.448 391.273a1.466 1.466 0 1 1-2.932-.002 1.466 1.466 0 0 1 2.932.002ZM357.276 391.273a1.466 1.466 0 1 1-2.932-.002 1.466 1.466 0 0 1 2.932.002ZM362.112 391.273a1.466 1.466 0 1 1-2.932-.002 1.466 1.466 0 0 1 2.932.002ZM366.94 391.273a1.466 1.466 0 1 1-2.928-.002 1.466 1.466 0 0 1 2.928.002ZM347.613 395.668a1.466 1.466 0 1 1-2.932-.002 1.466 1.466 0 0 1 2.932.002ZM352.448 395.668a1.465 1.465 0 1 1-2.93 0 1.465 1.465 0 0 1 2.93 0ZM357.276 395.668a1.465 1.465 0 1 1-2.93 0 1.465 1.465 0 0 1 2.93 0ZM362.112 395.668a1.465 1.465 0 1 1-2.93 0 1.465 1.465 0 0 1 2.93 0ZM366.94 395.668a1.466 1.466 0 1 1-2.932-.002 1.466 1.466 0 0 1 2.932.002ZM347.613 400.072a1.467 1.467 0 0 1-2.931 0 1.467 1.467 0 0 1 2.931 0ZM352.448 400.072a1.466 1.466 0 1 1-2.932-.002 1.466 1.466 0 0 1 2.932.002ZM357.276 400.072a1.466 1.466 0 1 1-2.932-.002 1.466 1.466 0 0 1 2.932.002ZM362.112 400.072a1.466 1.466 0 1 1-2.932-.002 1.466 1.466 0 0 1 2.932.002ZM366.94 400.072a1.466 1.466 0 1 1-2.928-.002 1.466 1.466 0 0 1 2.928.002Z" fill="#143F61"/><path d="M342.745 389.808h-.841v11.729h.841v-11.729Z" fill="#113B5B"/><path d="M369.222 365.804h-75.837v17.51h75.837v-17.51Z" fill="#103654"/><path d="M339.742 368.703H296.58v1.481h43.162v-1.481ZM339.742 371.265H296.58v1.481h43.162v-1.481ZM339.742 373.827H296.58v1.481h43.162v-1.481ZM339.742 376.389H296.58v1.481h43.162v-1.481ZM339.742 378.951H296.58v1.481h43.162v-1.481ZM346.147 371.633a1.465 1.465 0 1 0 .001-2.93 1.465 1.465 0 0 0-.001 2.93ZM350.983 371.633a1.465 1.465 0 1 0 0-2.93 1.465 1.465 0 0 0 0 2.93ZM357.276 370.168a1.466 1.466 0 1 1-2.932-.002 1.466 1.466 0 0 1 2.932.002ZM362.112 370.168a1.466 1.466 0 1 1-2.932-.002 1.466 1.466 0 0 1 2.932.002ZM366.94 370.168a1.466 1.466 0 1 1-2.928-.002 1.466 1.466 0 0 1 2.928.002ZM346.147 376.028a1.465 1.465 0 1 0 .001-2.93 1.465 1.465 0 0 0-.001 2.93ZM350.983 376.028a1.465 1.465 0 1 0 0-2.93 1.465 1.465 0 0 0 0 2.93ZM357.276 374.563a1.465 1.465 0 1 1-2.93 0 1.465 1.465 0 0 1 2.93 0ZM362.112 374.563a1.465 1.465 0 1 1-2.93 0 1.465 1.465 0 0 1 2.93 0ZM366.94 374.563a1.466 1.466 0 1 1-2.932-.002 1.466 1.466 0 0 1 2.932.002ZM347.613 378.959a1.467 1.467 0 0 1-2.931 0 1.466 1.466 0 0 1 2.931 0ZM352.448 378.959a1.466 1.466 0 1 1-2.932-.002 1.466 1.466 0 0 1 2.932.002ZM357.276 378.959a1.466 1.466 0 1 1-2.932-.002 1.466 1.466 0 0 1 2.932.002ZM362.112 378.959a1.466 1.466 0 1 1-2.932-.002 1.466 1.466 0 0 1 2.932.002ZM366.94 378.959a1.466 1.466 0 1 1-2.928-.002 1.466 1.466 0 0 1 2.928.002Z" fill="#143F61"/><path d="M342.745 368.703h-.841v11.729h.841v-11.729Z" fill="#113B5B"/><path d="M369.222 344.7h-75.837v17.51h75.837V344.7Z" fill="#103654"/><path d="M339.742 347.59H296.58v1.481h43.162v-1.481ZM339.742 350.152H296.58v1.481h43.162v-1.481ZM339.742 352.714H296.58v1.481h43.162v-1.481ZM339.742 355.276H296.58v1.482h43.162v-1.482ZM339.742 357.838H296.58v1.481h43.162v-1.481ZM346.147 350.52a1.465 1.465 0 1 0 .001-2.93 1.465 1.465 0 0 0-.001 2.93ZM350.983 350.52a1.465 1.465 0 1 0 0-2.93 1.465 1.465 0 0 0 0 2.93ZM357.276 349.055a1.465 1.465 0 1 1-2.93 0 1.465 1.465 0 0 1 2.93 0ZM362.112 349.055a1.465 1.465 0 1 1-2.93 0 1.465 1.465 0 0 1 2.93 0ZM366.94 349.055a1.466 1.466 0 1 1-2.932-.002 1.466 1.466 0 0 1 2.932.002ZM347.613 353.459a1.467 1.467 0 0 1-2.931 0 1.466 1.466 0 0 1 2.931 0ZM352.448 353.459a1.466 1.466 0 1 1-2.932-.002 1.466 1.466 0 0 1 2.932.002ZM357.276 353.459a1.466 1.466 0 1 1-2.932-.002 1.466 1.466 0 0 1 2.932.002ZM362.112 353.459a1.466 1.466 0 1 1-2.932-.002 1.466 1.466 0 0 1 2.932.002ZM366.94 353.459a1.466 1.466 0 1 1-2.928-.002 1.466 1.466 0 0 1 2.928.002ZM347.613 357.854a1.466 1.466 0 1 1-2.932-.002 1.466 1.466 0 0 1 2.932.002ZM352.448 357.854a1.465 1.465 0 1 1-2.93 0 1.465 1.465 0 0 1 2.93 0ZM357.276 357.854a1.465 1.465 0 1 1-2.93 0 1.465 1.465 0 0 1 2.93 0ZM362.112 357.854a1.465 1.465 0 1 1-2.93 0 1.465 1.465 0 0 1 2.93 0ZM366.94 357.854a1.466 1.466 0 1 1-2.932-.002 1.466 1.466 0 0 1 2.932.002Z" fill="#143F61"/><path d="M342.745 347.59h-.841v11.729h.841V347.59Z" fill="#113B5B"/><path d="M369.222 323.595h-75.837v17.51h75.837v-17.51Z" fill="#103654"/><path d="M339.742 326.485H296.58v1.482h43.162v-1.482ZM339.742 329.047H296.58v1.482h43.162v-1.482ZM339.742 331.609H296.58v1.481h43.162v-1.481ZM339.742 334.171H296.58v1.482h43.162v-1.482ZM339.742 336.733H296.58v1.482h43.162v-1.482ZM347.613 327.951a1.467 1.467 0 0 1-2.931 0 1.467 1.467 0 0 1 2.931 0ZM352.448 327.951a1.466 1.466 0 1 1-2.932-.002 1.466 1.466 0 0 1 2.932.002ZM357.276 327.951a1.466 1.466 0 1 1-2.932-.002 1.466 1.466 0 0 1 2.932.002ZM362.112 327.951a1.466 1.466 0 1 1-2.932-.002 1.466 1.466 0 0 1 2.932.002ZM366.94 327.951a1.466 1.466 0 1 1-2.928-.002 1.466 1.466 0 0 1 2.928.002ZM347.613 332.346a1.466 1.466 0 1 1-2.932-.002 1.466 1.466 0 0 1 2.932.002ZM352.448 332.346a1.465 1.465 0 1 1-2.93 0 1.465 1.465 0 0 1 2.93 0ZM357.276 332.346a1.465 1.465 0 1 1-2.93 0 1.465 1.465 0 0 1 2.93 0ZM362.112 332.346a1.465 1.465 0 1 1-2.93 0 1.465 1.465 0 0 1 2.93 0ZM366.94 332.346a1.466 1.466 0 1 1-2.932-.002 1.466 1.466 0 0 1 2.932.002ZM347.613 336.749a1.467 1.467 0 1 1-1.466-1.465c.809 0 1.466.657 1.466 1.465ZM352.448 336.749a1.466 1.466 0 1 1-2.932 0 1.466 1.466 0 0 1 2.932 0ZM357.276 336.749a1.466 1.466 0 1 1-2.932 0 1.466 1.466 0 0 1 2.932 0ZM362.112 336.749a1.466 1.466 0 1 1-2.932 0 1.466 1.466 0 0 1 2.932 0ZM366.94 336.749a1.466 1.466 0 1 1-2.928 0 1.466 1.466 0 0 1 2.928 0Z" fill="#143F61"/><path d="M342.745 326.485h-.841v11.73h.841v-11.73Z" fill="#113B5B"/><path d="M356.844 306.421h-99.959v5.557h99.959v-5.557Z" fill="#103654"/><path d="M644.304 311.978H596.53v203.841h47.774V311.978Z" fill="#113B5B"/><path d="M732.222 311.978h-87.918v203.841h87.918V311.978Z" fill="#143F61"/><path d="M726.729 492.449h-75.836v17.51h75.836v-17.51Z" fill="#103654"/><path d="M697.25 495.339h-43.162v1.482h43.162v-1.482ZM697.25 497.901h-43.162v1.482h43.162v-1.482ZM697.25 500.463h-43.162v1.481h43.162v-1.481ZM697.25 503.025h-43.162v1.482h43.162v-1.482ZM697.25 505.596h-43.162v1.481h43.162v-1.481ZM705.12 496.805a1.466 1.466 0 1 1-2.932-.002 1.466 1.466 0 0 1 2.932.002ZM709.956 496.805a1.466 1.466 0 1 1-2.932-.002 1.466 1.466 0 0 1 2.932.002ZM714.784 496.805a1.466 1.466 0 1 1-2.928-.002 1.466 1.466 0 0 1 2.928.002ZM719.62 496.805a1.466 1.466 0 1 1-2.928-.002 1.466 1.466 0 0 1 2.928.002ZM724.456 496.805a1.466 1.466 0 0 1-2.931 0 1.467 1.467 0 0 1 2.931 0ZM705.12 501.208a1.466 1.466 0 1 1-2.932-.002 1.466 1.466 0 0 1 2.932.002ZM709.956 501.208a1.466 1.466 0 1 1-2.932-.002 1.466 1.466 0 0 1 2.932.002ZM714.784 501.208a1.466 1.466 0 1 1-2.928-.002 1.466 1.466 0 0 1 2.928.002ZM719.62 501.208a1.466 1.466 0 1 1-2.928-.002 1.466 1.466 0 0 1 2.928.002ZM724.456 501.208a1.466 1.466 0 0 1-2.931 0 1.466 1.466 0 0 1 2.931 0ZM705.12 505.603a1.466 1.466 0 1 1-2.932 0 1.466 1.466 0 0 1 2.932 0ZM709.956 505.603a1.466 1.466 0 1 1-2.932 0 1.466 1.466 0 0 1 2.932 0ZM714.784 505.603a1.466 1.466 0 1 1-2.928 0 1.466 1.466 0 0 1 2.928 0ZM719.62 505.603a1.466 1.466 0 1 1-2.928 0 1.466 1.466 0 0 1 2.928 0ZM724.456 505.603a1.467 1.467 0 0 1-2.931 0 1.467 1.467 0 0 1 2.931 0Z" fill="#143F61"/><path d="M700.253 495.339h-.841v11.73h.841v-11.73Z" fill="#113B5B"/><path d="M726.729 471.344h-75.836v17.51h75.836v-17.51Z" fill="#103654"/><path d="M697.25 474.235h-43.162v1.481h43.162v-1.481ZM697.25 476.796h-43.162v1.482h43.162v-1.482ZM697.25 479.358h-43.162v1.482h43.162v-1.482ZM697.25 481.921h-43.162v1.481h43.162v-1.481ZM697.25 484.482h-43.162v1.482h43.162v-1.482ZM703.655 477.165a1.465 1.465 0 1 0 0-2.93 1.465 1.465 0 0 0 0 2.93ZM708.491 477.165a1.465 1.465 0 1 0 0-2.93 1.465 1.465 0 0 0 0 2.93ZM714.784 475.7a1.466 1.466 0 1 1-2.932-.002 1.466 1.466 0 0 1 2.932.002ZM719.62 475.7a1.466 1.466 0 1 1-2.932-.002 1.466 1.466 0 0 1 2.932.002ZM724.456 475.7a1.466 1.466 0 1 1-2.932-.002 1.466 1.466 0 0 1 2.932.002ZM703.655 481.56a1.465 1.465 0 1 0 0-2.93 1.465 1.465 0 0 0 0 2.93ZM708.491 481.56a1.465 1.465 0 1 0 0-2.93 1.465 1.465 0 0 0 0 2.93ZM714.784 480.095a1.466 1.466 0 1 1-2.932-.002 1.466 1.466 0 0 1 2.932.002ZM719.62 480.095a1.466 1.466 0 1 1-2.932-.002 1.466 1.466 0 0 1 2.932.002ZM724.456 480.095a1.466 1.466 0 1 1-2.932-.002 1.466 1.466 0 0 1 2.932.002ZM703.655 485.964a1.465 1.465 0 1 0 0-2.93 1.465 1.465 0 0 0 0 2.93ZM708.491 485.964a1.465 1.465 0 1 0 0-2.93 1.465 1.465 0 0 0 0 2.93ZM714.784 484.499a1.466 1.466 0 1 1-2.932-.002 1.466 1.466 0 0 1 2.932.002ZM719.62 484.499a1.466 1.466 0 1 1-2.932-.002 1.466 1.466 0 0 1 2.932.002ZM724.456 484.499a1.466 1.466 0 1 1-2.932-.002 1.466 1.466 0 0 1 2.932.002Z" fill="#143F61"/><path d="M700.253 474.235h-.841v11.729h.841v-11.729Z" fill="#113B5B"/><path d="M726.729 450.231h-75.836v17.51h75.836v-17.51Z" fill="#103654"/><path d="M697.25 453.13h-43.162v1.481h43.162v-1.481ZM697.25 455.692h-43.162v1.482h43.162v-1.482ZM697.25 458.254h-43.162v1.482h43.162v-1.482ZM697.25 460.816h-43.162v1.481h43.162v-1.481ZM697.25 463.378h-43.162v1.481h43.162v-1.481ZM705.12 454.595a1.465 1.465 0 1 1-2.93 0 1.465 1.465 0 0 1 2.93 0ZM709.956 454.595a1.465 1.465 0 1 1-2.93 0 1.465 1.465 0 0 1 2.93 0ZM714.784 454.595a1.466 1.466 0 1 1-2.932-.002 1.466 1.466 0 0 1 2.932.002ZM719.62 454.595a1.466 1.466 0 1 1-2.932-.002 1.466 1.466 0 0 1 2.932.002ZM724.456 454.595a1.466 1.466 0 1 1-2.932-.002 1.466 1.466 0 0 1 2.932.002ZM705.12 458.991a1.466 1.466 0 1 1-2.932-.002 1.466 1.466 0 0 1 2.932.002ZM709.956 458.991a1.466 1.466 0 1 1-2.932-.002 1.466 1.466 0 0 1 2.932.002ZM714.784 458.991a1.466 1.466 0 1 1-2.928-.002 1.466 1.466 0 0 1 2.928.002ZM719.62 458.991a1.466 1.466 0 1 1-2.928-.002 1.466 1.466 0 0 1 2.928.002ZM724.456 458.991a1.466 1.466 0 0 1-2.931 0 1.467 1.467 0 0 1 2.931 0ZM705.12 463.386a1.465 1.465 0 1 1-2.93 0 1.465 1.465 0 0 1 2.93 0ZM709.956 463.386a1.465 1.465 0 1 1-2.93 0 1.465 1.465 0 0 1 2.93 0ZM714.784 463.386a1.466 1.466 0 1 1-2.932-.002 1.466 1.466 0 0 1 2.932.002ZM719.62 463.386a1.466 1.466 0 1 1-2.932-.002 1.466 1.466 0 0 1 2.932.002ZM724.456 463.386a1.466 1.466 0 1 1-2.932-.002 1.466 1.466 0 0 1 2.932.002Z" fill="#143F61"/><path d="M700.253 453.13h-.841v11.729h.841V453.13Z" fill="#113B5B"/><path d="M726.729 429.126h-75.836v17.51h75.836v-17.51Z" fill="#103654"/><path d="M697.25 432.017h-43.162v1.481h43.162v-1.481ZM697.25 434.579h-43.162v1.481h43.162v-1.481ZM697.25 437.149h-43.162v1.481h43.162v-1.481ZM697.25 439.711h-43.162v1.481h43.162v-1.481ZM697.25 442.273h-43.162v1.481h43.162v-1.481ZM705.12 433.49a1.465 1.465 0 1 1-2.93 0 1.465 1.465 0 0 1 2.93 0ZM709.956 433.49a1.465 1.465 0 1 1-2.93 0 1.465 1.465 0 0 1 2.93 0ZM714.784 433.49a1.466 1.466 0 1 1-2.932-.002 1.466 1.466 0 0 1 2.932.002ZM719.62 433.49a1.466 1.466 0 1 1-2.932-.002 1.466 1.466 0 0 1 2.932.002ZM724.456 433.49a1.466 1.466 0 1 1-2.932-.002 1.466 1.466 0 0 1 2.932.002ZM705.12 437.886a1.465 1.465 0 1 1-2.93 0 1.465 1.465 0 0 1 2.93 0ZM709.956 437.886a1.465 1.465 0 1 1-2.93 0 1.465 1.465 0 0 1 2.93 0ZM714.784 437.886a1.466 1.466 0 1 1-2.932-.002 1.466 1.466 0 0 1 2.932.002ZM719.62 437.886a1.466 1.466 0 1 1-2.932-.002 1.466 1.466 0 0 1 2.932.002ZM724.456 437.886a1.466 1.466 0 1 1-2.932-.002 1.466 1.466 0 0 1 2.932.002ZM705.12 442.281a1.465 1.465 0 1 1-2.93 0 1.465 1.465 0 0 1 2.93 0ZM709.956 442.281a1.465 1.465 0 1 1-2.93 0 1.465 1.465 0 0 1 2.93 0ZM714.784 442.281a1.466 1.466 0 1 1-2.932-.002 1.466 1.466 0 0 1 2.932.002ZM719.62 442.281a1.466 1.466 0 1 1-2.932-.002 1.466 1.466 0 0 1 2.932.002ZM724.456 442.281a1.466 1.466 0 1 1-2.932-.002 1.466 1.466 0 0 1 2.932.002Z" fill="#143F61"/><path d="M700.253 432.017h-.841v11.729h.841v-11.729Z" fill="#113B5B"/><path d="M726.729 408.021h-75.836v17.51h75.836v-17.51Z" fill="#103654"/><path d="M697.25 410.912h-43.162v1.481h43.162v-1.481ZM697.25 413.474h-43.162v1.481h43.162v-1.481ZM697.25 416.036h-43.162v1.481h43.162v-1.481ZM697.25 418.598h-43.162v1.481h43.162v-1.481ZM697.25 421.16h-43.162v1.481h43.162v-1.481ZM705.12 412.377a1.465 1.465 0 1 1-2.93 0 1.465 1.465 0 0 1 2.93 0ZM709.956 412.377a1.465 1.465 0 1 1-2.93 0 1.465 1.465 0 0 1 2.93 0ZM714.784 412.377a1.466 1.466 0 1 1-2.932-.002 1.466 1.466 0 0 1 2.932.002ZM719.62 412.377a1.466 1.466 0 1 1-2.932-.002 1.466 1.466 0 0 1 2.932.002ZM724.456 412.377a1.466 1.466 0 1 1-2.932-.002 1.466 1.466 0 0 1 2.932.002ZM705.12 416.781a1.466 1.466 0 1 1-2.932-.002 1.466 1.466 0 0 1 2.932.002ZM709.956 416.781a1.466 1.466 0 1 1-2.932-.002 1.466 1.466 0 0 1 2.932.002ZM714.784 416.781a1.466 1.466 0 1 1-2.928-.002 1.466 1.466 0 0 1 2.928.002ZM719.62 416.781a1.466 1.466 0 1 1-2.928-.002 1.466 1.466 0 0 1 2.928.002ZM724.456 416.781a1.466 1.466 0 0 1-2.931 0 1.467 1.467 0 0 1 2.931 0ZM705.12 421.176a1.465 1.465 0 1 1-2.93 0 1.465 1.465 0 0 1 2.93 0ZM709.956 421.176a1.465 1.465 0 1 1-2.93 0 1.465 1.465 0 0 1 2.93 0ZM714.784 421.176a1.466 1.466 0 1 1-2.932-.002 1.466 1.466 0 0 1 2.932.002ZM719.62 421.176a1.466 1.466 0 1 1-2.932-.002 1.466 1.466 0 0 1 2.932.002ZM724.456 421.176a1.466 1.466 0 1 1-2.932-.002 1.466 1.466 0 0 1 2.932.002Z" fill="#143F61"/><path d="M700.253 410.912h-.841v11.729h.841v-11.729Z" fill="#113B5B"/><path d="M726.729 386.917h-75.836v17.51h75.836v-17.51Z" fill="#103654"/><path d="M697.25 389.808h-43.162v1.481h43.162v-1.481ZM697.25 392.37h-43.162v1.481h43.162v-1.481ZM697.25 394.932h-43.162v1.481h43.162v-1.481ZM697.25 397.494h-43.162v1.481h43.162v-1.481ZM697.25 400.055h-43.162v1.481h43.162v-1.481ZM705.12 391.273a1.466 1.466 0 1 1-2.932-.002 1.466 1.466 0 0 1 2.932.002ZM709.956 391.273a1.466 1.466 0 1 1-2.932-.002 1.466 1.466 0 0 1 2.932.002ZM714.784 391.273a1.466 1.466 0 1 1-2.928-.002 1.466 1.466 0 0 1 2.928.002ZM719.62 391.273a1.466 1.466 0 1 1-2.928-.002 1.466 1.466 0 0 1 2.928.002ZM724.456 391.273a1.466 1.466 0 0 1-2.931 0 1.466 1.466 0 0 1 2.931 0ZM705.12 395.668a1.465 1.465 0 1 1-2.93 0 1.465 1.465 0 0 1 2.93 0ZM709.956 395.668a1.465 1.465 0 1 1-2.93 0 1.465 1.465 0 0 1 2.93 0ZM714.784 395.668a1.466 1.466 0 1 1-2.932-.002 1.466 1.466 0 0 1 2.932.002ZM719.62 395.668a1.466 1.466 0 1 1-2.932-.002 1.466 1.466 0 0 1 2.932.002ZM724.456 395.668a1.466 1.466 0 1 1-2.932-.002 1.466 1.466 0 0 1 2.932.002ZM705.12 400.072a1.466 1.466 0 1 1-2.932-.002 1.466 1.466 0 0 1 2.932.002ZM709.956 400.072a1.466 1.466 0 1 1-2.932-.002 1.466 1.466 0 0 1 2.932.002ZM714.784 400.072a1.466 1.466 0 1 1-2.928-.002 1.466 1.466 0 0 1 2.928.002ZM719.62 400.072a1.466 1.466 0 1 1-2.928-.002 1.466 1.466 0 0 1 2.928.002ZM724.456 400.072a1.466 1.466 0 0 1-2.931 0 1.467 1.467 0 0 1 2.931 0Z" fill="#143F61"/><path d="M700.253 389.808h-.841v11.729h.841v-11.729Z" fill="#113B5B"/><path d="M726.729 365.804h-75.836v17.51h75.836v-17.51Z" fill="#103654"/><path d="M697.25 368.703h-43.162v1.481h43.162v-1.481ZM697.25 371.265h-43.162v1.481h43.162v-1.481ZM697.25 373.827h-43.162v1.481h43.162v-1.481ZM697.25 376.389h-43.162v1.481h43.162v-1.481ZM697.25 378.951h-43.162v1.481h43.162v-1.481ZM703.655 371.633a1.465 1.465 0 1 0 0-2.93 1.465 1.465 0 0 0 0 2.93ZM708.491 371.633a1.465 1.465 0 1 0 0-2.93 1.465 1.465 0 0 0 0 2.93ZM714.784 370.168a1.466 1.466 0 1 1-2.928-.002 1.466 1.466 0 0 1 2.928.002ZM719.62 370.168a1.466 1.466 0 1 1-2.928-.002 1.466 1.466 0 0 1 2.928.002ZM724.456 370.168a1.466 1.466 0 0 1-2.931 0 1.466 1.466 0 0 1 2.931 0ZM703.655 376.028a1.465 1.465 0 1 0 0-2.93 1.465 1.465 0 0 0 0 2.93ZM708.491 376.028a1.465 1.465 0 1 0 0-2.93 1.465 1.465 0 0 0 0 2.93ZM714.784 374.563a1.466 1.466 0 1 1-2.932-.002 1.466 1.466 0 0 1 2.932.002ZM719.62 374.563a1.466 1.466 0 1 1-2.932-.002 1.466 1.466 0 0 1 2.932.002ZM724.456 374.563a1.466 1.466 0 1 1-2.932-.002 1.466 1.466 0 0 1 2.932.002ZM705.12 378.959a1.466 1.466 0 1 1-2.932-.002 1.466 1.466 0 0 1 2.932.002ZM709.956 378.959a1.466 1.466 0 1 1-2.932-.002 1.466 1.466 0 0 1 2.932.002ZM714.784 378.959a1.466 1.466 0 1 1-2.928-.002 1.466 1.466 0 0 1 2.928.002ZM719.62 378.959a1.466 1.466 0 1 1-2.928-.002 1.466 1.466 0 0 1 2.928.002ZM724.456 378.959a1.466 1.466 0 0 1-2.931 0 1.466 1.466 0 0 1 2.931 0Z" fill="#143F61"/><path d="M700.253 368.703h-.841v11.729h.841v-11.729Z" fill="#113B5B"/><path d="M726.729 344.7h-75.836v17.51h75.836V344.7Z" fill="#103654"/><path d="M697.25 347.59h-43.162v1.481h43.162v-1.481ZM697.25 350.152h-43.162v1.481h43.162v-1.481ZM697.25 352.714h-43.162v1.481h43.162v-1.481ZM697.25 355.276h-43.162v1.482h43.162v-1.482ZM697.25 357.838h-43.162v1.481h43.162v-1.481ZM703.655 350.52a1.465 1.465 0 1 0 0-2.93 1.465 1.465 0 0 0 0 2.93ZM708.491 350.52a1.465 1.465 0 1 0 0-2.93 1.465 1.465 0 0 0 0 2.93ZM714.784 349.055a1.466 1.466 0 1 1-2.932-.002 1.466 1.466 0 0 1 2.932.002ZM719.62 349.055a1.466 1.466 0 1 1-2.932-.002 1.466 1.466 0 0 1 2.932.002ZM724.456 349.055a1.466 1.466 0 1 1-2.932-.002 1.466 1.466 0 0 1 2.932.002ZM705.12 353.459a1.466 1.466 0 1 1-2.932-.002 1.466 1.466 0 0 1 2.932.002ZM709.956 353.459a1.466 1.466 0 1 1-2.932-.002 1.466 1.466 0 0 1 2.932.002ZM714.784 353.459a1.466 1.466 0 1 1-2.928-.002 1.466 1.466 0 0 1 2.928.002ZM719.62 353.459a1.466 1.466 0 1 1-2.928-.002 1.466 1.466 0 0 1 2.928.002ZM724.456 353.459a1.466 1.466 0 0 1-2.931 0 1.466 1.466 0 0 1 2.931 0ZM705.12 357.854a1.465 1.465 0 1 1-2.93 0 1.465 1.465 0 0 1 2.93 0ZM709.956 357.854a1.465 1.465 0 1 1-2.93 0 1.465 1.465 0 0 1 2.93 0ZM714.784 357.854a1.466 1.466 0 1 1-2.932-.002 1.466 1.466 0 0 1 2.932.002ZM719.62 357.854a1.466 1.466 0 1 1-2.932-.002 1.466 1.466 0 0 1 2.932.002ZM724.456 357.854a1.466 1.466 0 1 1-2.932-.002 1.466 1.466 0 0 1 2.932.002Z" fill="#143F61"/><path d="M700.253 347.59h-.841v11.729h.841V347.59Z" fill="#113B5B"/><path d="M726.729 323.595h-75.836v17.51h75.836v-17.51Z" fill="#103654"/><path d="M697.25 326.485h-43.162v1.482h43.162v-1.482ZM697.25 329.047h-43.162v1.482h43.162v-1.482ZM697.25 331.609h-43.162v1.481h43.162v-1.481ZM697.25 334.171h-43.162v1.482h43.162v-1.482ZM697.25 336.733h-43.162v1.482h43.162v-1.482ZM705.12 327.951a1.466 1.466 0 1 1-2.932-.002 1.466 1.466 0 0 1 2.932.002ZM709.956 327.951a1.466 1.466 0 1 1-2.932-.002 1.466 1.466 0 0 1 2.932.002ZM714.784 327.951a1.466 1.466 0 1 1-2.928-.002 1.466 1.466 0 0 1 2.928.002ZM719.62 327.951a1.466 1.466 0 1 1-2.928-.002 1.466 1.466 0 0 1 2.928.002ZM724.456 327.951a1.466 1.466 0 0 1-2.931 0 1.467 1.467 0 0 1 2.931 0ZM705.12 332.346a1.465 1.465 0 1 1-2.93 0 1.465 1.465 0 0 1 2.93 0ZM709.956 332.346a1.465 1.465 0 1 1-2.93 0 1.465 1.465 0 0 1 2.93 0ZM714.784 332.346a1.466 1.466 0 1 1-2.932-.002 1.466 1.466 0 0 1 2.932.002ZM719.62 332.346a1.466 1.466 0 1 1-2.932-.002 1.466 1.466 0 0 1 2.932.002ZM724.456 332.346a1.466 1.466 0 1 1-2.932-.002 1.466 1.466 0 0 1 2.932.002ZM705.12 336.749a1.466 1.466 0 1 1-2.932 0 1.466 1.466 0 0 1 2.932 0ZM709.956 336.749a1.466 1.466 0 1 1-2.932 0 1.466 1.466 0 0 1 2.932 0ZM714.784 336.749a1.466 1.466 0 1 1-2.928 0 1.466 1.466 0 0 1 2.928 0ZM719.62 336.749a1.466 1.466 0 1 1-2.928 0 1.466 1.466 0 0 1 2.928 0ZM724.456 336.749a1.467 1.467 0 0 1-2.931 0 1.467 1.467 0 0 1 2.931 0Z" fill="#143F61"/><path d="M700.253 326.485h-.841v11.73h.841v-11.73Z" fill="#113B5B"/><path d="M714.352 306.421h-99.96v5.557h99.96v-5.557Z" fill="#103654"/><path d="M620.605 515.772h-.8v-100.48l-21.401-29.207v-54.843h.8v54.579l21.401 29.207v100.744Z" fill="#143F61"/><path d="M598.804 331.674a2.305 2.305 0 0 1-2.298-2.306 2.305 2.305 0 0 1 2.298-2.306 2.305 2.305 0 0 1 2.298 2.306 2.305 2.305 0 0 1-2.298 2.306Zm0-3.803c-.825 0-1.497.672-1.497 1.505 0 .833.672 1.505 1.497 1.505.825 0 1.497-.672 1.497-1.505 0-.833-.672-1.505-1.497-1.505ZM615.089 515.771h-.801v-96.949l-21.401-29.207v-38.358h.801v38.094l21.401 29.207v97.213Z" fill="#143F61"/><path d="M593.288 351.69a2.305 2.305 0 0 1-2.298-2.306 2.305 2.305 0 0 1 2.298-2.306 2.304 2.304 0 0 1 2.297 2.306 2.304 2.304 0 0 1-2.297 2.306Zm0-3.803c-.825 0-1.498.672-1.498 1.505 0 .833.673 1.505 1.498 1.505.824 0 1.497-.672 1.497-1.505 0-.833-.673-1.505-1.497-1.505ZM625.913 382.538h-.8v133.233h.8V382.538Z" fill="#143F61"/><path d="M625.513 382.938a2.305 2.305 0 0 1-2.298-2.306 2.305 2.305 0 0 1 2.298-2.306 2.305 2.305 0 0 1 2.298 2.306 2.305 2.305 0 0 1-2.298 2.306Zm0-3.803c-.825 0-1.497.672-1.497 1.505 0 .833.672 1.505 1.497 1.505.825 0 1.497-.672 1.497-1.505 0-.833-.672-1.505-1.497-1.505ZM631.022 515.772h-.801v-67.814l14.531-27.406v-49.031h.801v49.232l-14.531 27.405v67.614Z" fill="#143F61"/><path d="M645.153 371.922a2.305 2.305 0 0 1-2.298-2.306 2.305 2.305 0 0 1 2.298-2.306 2.305 2.305 0 0 1 2.298 2.306 2.305 2.305 0 0 1-2.298 2.306Zm0-3.803c-.825 0-1.497.672-1.497 1.505 0 .833.672 1.505 1.497 1.505.824 0 1.497-.672 1.497-1.505 0-.833-.673-1.505-1.497-1.505ZM636.106 515.772h-.801v-64.891l17.133-30.296v-32.25h.801v32.458l-17.133 30.296v64.683Z" fill="#143F61"/><path d="M652.839 388.735a2.305 2.305 0 0 1 0-4.611 2.305 2.305 0 0 1 0 4.611Zm0-3.803c-.825 0-1.497.673-1.497 1.505 0 .833.672 1.506 1.497 1.506.824 0 1.497-.673 1.497-1.506 0-.832-.673-1.505-1.497-1.505Z" fill="#143F61"/><path d="m438.068 289.536-35.876 9.384-12.042-46.061 26.637-6.965 9.24-2.418 2.298 8.783 9.743 37.277Z" fill="#18476C"/><path d="m395.986 260.846 29.226-7.64-.309-1.186-29.226 7.64.309 1.186ZM396.762 263.824l29.226-7.64-.31-1.186-29.226 7.64.31 1.186ZM397.545 266.807l29.226-7.64-.31-1.185-29.226 7.64.31 1.185ZM398.32 269.793l29.226-7.64-.309-1.185-29.226 7.64.309 1.185ZM399.104 272.776l29.225-7.64-.309-1.185-29.226 7.64.31 1.185ZM399.879 275.762l29.226-7.64-.31-1.185-29.226 7.64.31 1.185ZM400.664 278.753l29.226-7.64-.31-1.185-29.226 7.64.31 1.185ZM401.448 281.739l29.225-7.64-.309-1.186-29.226 7.64.31 1.186ZM402.231 284.723l29.226-7.64-.31-1.185-29.226 7.64.31 1.185ZM403.006 287.701l29.226-7.64-.31-1.186-29.226 7.64.31 1.186ZM403.789 290.683l29.226-7.64-.31-1.185-29.225 7.64.309 1.185ZM404.565 293.669l29.226-7.64-.31-1.185-29.226 7.64.31 1.185Z" fill="#103654"/><path d="m447.596 302.827-37.022 2.066-2.658-47.526 27.486-1.537 10.04 8.518 2.154 38.479Z" fill="#18476C"/><path d="m435.402 255.83 10.04 8.518-9.527.537-.513-9.055ZM412.039 266.345l20.585-1.151-.069-1.223-20.584 1.151.068 1.223ZM412.22 269.433l20.585-1.151-.069-1.223-20.584 1.151.068 1.223ZM412.385 272.506l20.584-1.151-.068-1.223-20.585 1.151.069 1.223ZM412.563 275.593l30.161-1.686-.068-1.223-30.161 1.686.068 1.223ZM412.728 278.674l30.161-1.686-.069-1.223-30.16 1.686.068 1.223ZM412.908 281.747l30.161-1.686-.068-1.224-30.161 1.687.068 1.223ZM413.081 284.828l30.161-1.686-.069-1.223-30.16 1.686.068 1.223ZM413.246 287.917l30.161-1.686-.069-1.223-30.161 1.686.069 1.223ZM413.426 290.997l30.161-1.686-.068-1.223-30.161 1.686.068 1.223ZM413.591 294.071l30.161-1.686-.069-1.223-30.161 1.686.069 1.223ZM413.771 297.151l30.161-1.686-.068-1.223-30.161 1.686.068 1.223ZM413.936 300.24l30.161-1.686-.068-1.223-30.161 1.686.068 1.223Z" fill="#103654"/><path d="m528.116 264.74 35.516 26.141 17.462-23.771-35.516-26.149-17.462 23.779Z" fill="#18476C"/><path d="m530.678 264.348 32.57 23.971 15.284-20.817-32.57-23.971-15.284 20.817Z" fill="#103654"/><path d="M544.145 252.194a4.392 4.392 0 0 0 .936 6.149 4.393 4.393 0 0 0 6.149-.936 4.393 4.393 0 0 0-.937-6.149 4.392 4.392 0 0 0-6.148.936ZM540.766 271.818l22.442 16.517-.032-23.467-22.41 6.95Z" fill="#18476C"/><path d="m531.967 265.357 18.527 13.635-1.978-16.718-16.549 3.083Z" fill="#18476C"/><path d="m502.544 272.698 40.752 16.854 11.241-27.278-40.753-16.845-11.24 27.269Z" fill="#18476C"/><path d="m504.937 271.698 37.374 15.452 9.832-23.875-37.374-15.452-9.832 23.875Z" fill="#103654"/><path d="M515.09 256.67a4.4 4.4 0 0 0 2.385 5.749 4.398 4.398 0 0 0 5.749-2.386 4.397 4.397 0 0 0-2.386-5.749 4.4 4.4 0 0 0-5.748 2.386ZM516.523 276.534l25.748 10.648-5.66-22.77-20.088 12.122Z" fill="#18476C"/><path d="m506.427 272.37 21.256 8.791-5.932-15.756-15.324 6.965Z" fill="#18476C"/><path d="M369.878 515.812h47.774V335.677h-47.774v180.135Z" fill="#154D72"/><path d="M281.96 515.812h87.918V335.677H281.96v180.135Z" fill="#046097"/><path d="M287.453 509.959h75.836v-17.51h-75.836v17.51Z" fill="#0A598A"/><path d="M316.932 496.82h43.162v-1.481h-43.162v1.481ZM316.932 499.382h43.162v-1.481h-43.162v1.481ZM316.932 501.944h43.162v-1.481h-43.162v1.481ZM316.932 504.515h43.162v-1.482h-43.162v1.482ZM316.932 507.069h43.162v-1.481h-43.162v1.481Z" fill="#046097"/><path d="M309.062 496.805a1.466 1.466 0 1 0 2.932-.002 1.466 1.466 0 0 0-2.932.002Z" fill="#FF9C00"/><path d="M304.226 496.805a1.466 1.466 0 1 0 2.928-.002 1.466 1.466 0 0 0-2.928.002Z" fill="#103654"/><path d="M299.398 496.805a1.466 1.466 0 0 0 2.931 0 1.467 1.467 0 0 0-2.931 0ZM294.562 496.805a1.467 1.467 0 0 0 2.931 0 1.467 1.467 0 0 0-2.931 0Z" fill="#FF9C00"/><path d="M289.735 496.805a1.466 1.466 0 1 0 2.932-.002 1.466 1.466 0 0 0-2.932.002ZM309.062 501.208a1.466 1.466 0 1 0 2.932-.002 1.466 1.466 0 0 0-2.932.002Z" fill="#103654"/><path d="M304.226 501.208a1.466 1.466 0 1 0 2.928-.002 1.466 1.466 0 0 0-2.928.002Z" fill="#FF9C00"/><path d="M299.398 501.208a1.466 1.466 0 0 0 2.931 0 1.466 1.466 0 0 0-2.931 0Z" fill="#103654"/><path d="M294.562 501.208a1.467 1.467 0 0 0 2.931 0 1.466 1.466 0 0 0-2.931 0Z" fill="#FF9C00"/><path d="M289.735 501.208a1.466 1.466 0 1 0 2.932-.002 1.466 1.466 0 0 0-2.932.002ZM309.062 505.603a1.466 1.466 0 1 0 2.932 0 1.466 1.466 0 0 0-2.932 0Z" fill="#103654"/><path d="M304.226 505.603a1.466 1.466 0 1 0 2.928 0 1.466 1.466 0 0 0-2.928 0ZM299.398 505.603a1.467 1.467 0 0 0 2.931 0 1.467 1.467 0 0 0-2.931 0ZM294.562 505.603a1.467 1.467 0 1 0 1.466-1.465c-.809 0-1.466.657-1.466 1.465ZM289.735 505.603a1.466 1.466 0 1 0 2.932 0 1.466 1.466 0 0 0-2.932 0Z" fill="#FF9C00"/><path d="M313.938 507.069h.84V495.34h-.84v11.729Z" fill="#154D72"/><path d="M287.453 488.854h75.836v-17.509h-75.836v17.509Z" fill="#0A598A"/><path d="M316.932 475.715h43.162v-1.481h-43.162v1.481ZM316.932 478.277h43.162v-1.481h-43.162v1.481ZM316.932 480.84h43.162v-1.481h-43.162v1.481ZM316.932 483.402h43.162v-1.481h-43.162v1.481ZM316.932 485.964h43.162v-1.481h-43.162v1.481Z" fill="#046097"/><path d="M310.527 477.165a1.465 1.465 0 1 0 0-2.93 1.465 1.465 0 0 0 0 2.93Z" fill="#103654"/><path d="M305.691 477.165a1.465 1.465 0 1 0 0-2.93 1.465 1.465 0 0 0 0 2.93ZM300.863 477.165a1.465 1.465 0 1 0 .001-2.93 1.465 1.465 0 0 0-.001 2.93ZM294.562 475.7a1.466 1.466 0 1 0 2.932-.002 1.466 1.466 0 0 0-2.932.002Z" fill="#FF9C00"/><path d="M289.735 475.7a1.465 1.465 0 1 0 2.93 0 1.465 1.465 0 0 0-2.93 0Z" fill="#103654"/><path d="M310.527 481.56a1.465 1.465 0 1 0 0-2.93 1.465 1.465 0 0 0 0 2.93Z" fill="#FF9C00"/><path d="M305.691 481.56a1.465 1.465 0 1 0 0-2.93 1.465 1.465 0 0 0 0 2.93ZM300.863 481.56a1.465 1.465 0 1 0 .001-2.93 1.465 1.465 0 0 0-.001 2.93ZM294.562 480.095a1.466 1.466 0 1 0 2.932-.002 1.466 1.466 0 0 0-2.932.002Z" fill="#103654"/><path d="M289.735 480.095a1.465 1.465 0 1 0 2.93 0 1.465 1.465 0 0 0-2.93 0ZM310.527 485.964a1.465 1.465 0 1 0 0-2.93 1.465 1.465 0 0 0 0 2.93ZM305.691 485.964a1.465 1.465 0 1 0 0-2.93 1.465 1.465 0 0 0 0 2.93Z" fill="#FF9C00"/><path d="M300.863 485.964a1.465 1.465 0 1 0 .001-2.93 1.465 1.465 0 0 0-.001 2.93Z" fill="#103654"/><path d="M294.562 484.499a1.466 1.466 0 1 0 2.932-.002 1.466 1.466 0 0 0-2.932.002ZM289.735 484.499a1.465 1.465 0 1 0 2.93 0 1.465 1.465 0 0 0-2.93 0Z" fill="#FF9C00"/><path d="M313.938 485.964h.84v-11.729h-.84v11.729Z" fill="#154D72"/><path d="M287.453 467.749h75.836v-17.51h-75.836v17.51Z" fill="#0A598A"/><path d="M316.932 454.603h43.162v-1.481h-43.162v1.481ZM316.932 457.165h43.162v-1.481h-43.162v1.481ZM316.932 459.728h43.162v-1.482h-43.162v1.482ZM316.932 462.289h43.162v-1.481h-43.162v1.481ZM316.932 464.851h43.162v-1.481h-43.162v1.481Z" fill="#046097"/><path d="M309.062 454.595a1.466 1.466 0 1 0 2.932-.002 1.466 1.466 0 0 0-2.932.002Z" fill="#103654"/><path d="M304.226 454.595a1.466 1.466 0 1 0 2.928-.002 1.466 1.466 0 0 0-2.928.002ZM299.398 454.595a1.466 1.466 0 0 0 2.931 0 1.467 1.467 0 0 0-2.931 0ZM294.562 454.595a1.467 1.467 0 0 0 2.931 0 1.467 1.467 0 0 0-2.931 0Z" fill="#FF9C00"/><path d="M289.735 454.595a1.466 1.466 0 1 0 2.932-.002 1.466 1.466 0 0 0-2.932.002Z" fill="#103654"/><path d="M309.062 458.99a1.465 1.465 0 1 0 2.93 0 1.465 1.465 0 0 0-2.93 0ZM304.226 458.99a1.466 1.466 0 1 0 2.932-.002 1.466 1.466 0 0 0-2.932.002Z" fill="#FF9C00"/><path d="M299.398 458.99a1.466 1.466 0 1 0 2.932-.002 1.466 1.466 0 0 0-2.932.002ZM294.562 458.99a1.466 1.466 0 1 0 2.932-.002 1.466 1.466 0 0 0-2.932.002Z" fill="#103654"/><path d="M289.735 458.99a1.465 1.465 0 1 0 2.93 0 1.465 1.465 0 0 0-2.93 0Z" fill="#FF9C00"/><path d="M309.062 463.386a1.466 1.466 0 1 0 2.932-.002 1.466 1.466 0 0 0-2.932.002Z" fill="#103654"/><path d="M304.226 463.386a1.466 1.466 0 1 0 2.928-.002 1.466 1.466 0 0 0-2.928.002ZM299.398 463.386a1.466 1.466 0 0 0 2.931 0 1.467 1.467 0 0 0-2.931 0ZM294.562 463.386a1.467 1.467 0 0 0 2.931 0 1.467 1.467 0 0 0-2.931 0Z" fill="#FF9C00"/><path d="M289.735 463.386a1.466 1.466 0 1 0 2.932-.002 1.466 1.466 0 0 0-2.932.002Z" fill="#103654"/><path d="M313.938 464.851h.84v-11.73h-.84v11.73Z" fill="#154D72"/><path d="M287.453 446.645h75.836v-17.51h-75.836v17.51Z" fill="#0A598A"/><path d="M316.932 433.506h43.162v-1.481h-43.162v1.481ZM316.932 436.068h43.162v-1.481h-43.162v1.481ZM316.932 438.623h43.162v-1.482h-43.162v1.482ZM316.932 441.184h43.162v-1.481h-43.162v1.481ZM316.932 443.746h43.162v-1.481h-43.162v1.481Z" fill="#046097"/><path d="M309.062 433.49a1.465 1.465 0 1 0 2.93 0 1.465 1.465 0 0 0-2.93 0Z" fill="#FF9C00"/><path d="M304.226 433.49a1.466 1.466 0 1 0 2.932-.002 1.466 1.466 0 0 0-2.932.002Z" fill="#103654"/><path d="M299.398 433.49a1.466 1.466 0 1 0 2.932-.002 1.466 1.466 0 0 0-2.932.002ZM294.562 433.49a1.466 1.466 0 1 0 2.932-.002 1.466 1.466 0 0 0-2.932.002Z" fill="#FF9C00"/><path d="M289.735 433.49a1.465 1.465 0 1 0 2.93 0 1.465 1.465 0 0 0-2.93 0Z" fill="#103654"/><path d="M309.062 437.886a1.465 1.465 0 1 0 2.93 0 1.465 1.465 0 0 0-2.93 0ZM304.226 437.886a1.466 1.466 0 1 0 2.932-.002 1.466 1.466 0 0 0-2.932.002Z" fill="#FF9C00"/><path d="M299.398 437.886a1.466 1.466 0 1 0 2.932-.002 1.466 1.466 0 0 0-2.932.002ZM294.562 437.886a1.466 1.466 0 1 0 2.932-.002 1.466 1.466 0 0 0-2.932.002Z" fill="#103654"/><path d="M289.735 437.886a1.465 1.465 0 1 0 2.93 0 1.465 1.465 0 0 0-2.93 0Z" fill="#FF9C00"/><path d="M309.062 442.281a1.465 1.465 0 1 0 2.93 0 1.465 1.465 0 0 0-2.93 0Z" fill="#103654"/><path d="M304.226 442.281a1.466 1.466 0 1 0 2.932-.002 1.466 1.466 0 0 0-2.932.002ZM299.398 442.281a1.466 1.466 0 1 0 2.932-.002 1.466 1.466 0 0 0-2.932.002Z" fill="#FF9C00"/><path d="M294.562 442.281a1.466 1.466 0 1 0 2.932-.002 1.466 1.466 0 0 0-2.932.002Z" fill="#103654"/><path d="M289.735 442.281a1.465 1.465 0 1 0 2.93 0 1.465 1.465 0 0 0-2.93 0Z" fill="#FF9C00"/><path d="M313.938 443.754h.84v-11.729h-.84v11.729Z" fill="#154D72"/><path d="M287.453 425.532h75.836v-17.51h-75.836v17.51Z" fill="#0A598A"/><path d="M316.932 412.393h43.162v-1.481h-43.162v1.481ZM316.932 414.955h43.162v-1.481h-43.162v1.481ZM316.932 417.517h43.162v-1.481h-43.162v1.481ZM316.932 420.08h43.162v-1.482h-43.162v1.482ZM316.932 422.642h43.162v-1.482h-43.162v1.482Z" fill="#046097"/><path d="M309.062 412.377a1.465 1.465 0 1 0 2.93 0 1.465 1.465 0 0 0-2.93 0ZM304.226 412.377a1.466 1.466 0 1 0 2.932-.002 1.466 1.466 0 0 0-2.932.002ZM299.398 412.377a1.466 1.466 0 1 0 2.932-.002 1.466 1.466 0 0 0-2.932.002Z" fill="#FF9C00"/><path d="M294.562 412.377a1.466 1.466 0 1 0 2.932-.002 1.466 1.466 0 0 0-2.932.002Z" fill="#103654"/><path d="M289.735 412.377a1.465 1.465 0 1 0 2.93 0 1.465 1.465 0 0 0-2.93 0Z" fill="#FF9C00"/><path d="M309.062 416.781a1.466 1.466 0 1 0 2.932-.002 1.466 1.466 0 0 0-2.932.002Z" fill="#103654"/><path d="M304.226 416.781a1.466 1.466 0 1 0 2.928-.002 1.466 1.466 0 0 0-2.928.002Z" fill="#FF9C00"/><path d="M299.398 416.781a1.466 1.466 0 0 0 2.931 0 1.467 1.467 0 0 0-2.931 0Z" fill="#103654"/><path d="M294.562 416.781a1.467 1.467 0 0 0 2.931 0 1.467 1.467 0 0 0-2.931 0ZM289.735 416.781a1.466 1.466 0 1 0 2.932-.002 1.466 1.466 0 0 0-2.932.002ZM309.062 421.176a1.465 1.465 0 1 0 2.93 0 1.465 1.465 0 0 0-2.93 0Z" fill="#FF9C00"/><path d="M304.226 421.176a1.466 1.466 0 1 0 2.932-.002 1.466 1.466 0 0 0-2.932.002Z" fill="#103654"/><path d="M299.398 421.176a1.466 1.466 0 1 0 2.932-.002 1.466 1.466 0 0 0-2.932.002ZM294.562 421.176a1.466 1.466 0 1 0 2.932-.002 1.466 1.466 0 0 0-2.932.002Z" fill="#FF9C00"/><path d="M289.735 421.176a1.465 1.465 0 1 0 2.93 0 1.465 1.465 0 0 0-2.93 0Z" fill="#103654"/><path d="M313.938 422.642h.84v-11.73h-.84v11.73Z" fill="#154D72"/><path d="M287.453 404.419h75.836v-17.51h-75.836v17.51Z" fill="#0A598A"/><path d="M316.932 391.281h43.162V389.8h-43.162v1.481ZM316.932 393.842h43.162v-1.481h-43.162v1.481ZM316.932 396.404h43.162v-1.481h-43.162v1.481ZM316.932 398.975h43.162v-1.482h-43.162v1.482ZM316.932 401.537h43.162v-1.482h-43.162v1.482Z" fill="#046097"/><path d="M309.062 391.273a1.466 1.466 0 1 0 2.932-.002 1.466 1.466 0 0 0-2.932.002ZM304.226 391.273a1.466 1.466 0 1 0 2.928-.002 1.466 1.466 0 0 0-2.928.002Z" fill="#103654"/><path d="M299.398 391.273a1.466 1.466 0 0 0 2.931 0 1.466 1.466 0 0 0-2.931 0Z" fill="#FF9C00"/><path d="M294.562 391.273a1.467 1.467 0 0 0 2.931 0 1.466 1.466 0 0 0-2.931 0Z" fill="#103654"/><path d="M289.735 391.273a1.466 1.466 0 1 0 2.932-.002 1.466 1.466 0 0 0-2.932.002ZM309.062 395.668a1.465 1.465 0 1 0 2.93 0 1.465 1.465 0 0 0-2.93 0ZM304.226 395.668a1.466 1.466 0 1 0 2.932-.002 1.466 1.466 0 0 0-2.932.002Z" fill="#FF9C00"/><path d="M299.398 395.668a1.466 1.466 0 1 0 2.932-.002 1.466 1.466 0 0 0-2.932.002Z" fill="#103654"/><path d="M294.562 395.668a1.466 1.466 0 1 0 2.932-.002 1.466 1.466 0 0 0-2.932.002Z" fill="#FF9C00"/><path d="M289.735 395.668a1.465 1.465 0 1 0 2.93 0 1.465 1.465 0 0 0-2.93 0Z" fill="#103654"/><path d="M309.062 400.072a1.466 1.466 0 1 0 2.932-.002 1.466 1.466 0 0 0-2.932.002Z" fill="#FF9C00"/><path d="M304.226 400.072a1.466 1.466 0 1 0 2.928-.002 1.466 1.466 0 0 0-2.928.002Z" fill="#103654"/><path d="M299.398 400.072a1.466 1.466 0 0 0 2.931 0 1.467 1.467 0 0 0-2.931 0ZM294.562 400.072a1.467 1.467 0 0 0 2.931 0 1.467 1.467 0 0 0-2.931 0ZM289.735 400.072a1.466 1.466 0 1 0 2.932-.002 1.466 1.466 0 0 0-2.932.002Z" fill="#FF9C00"/><path d="M313.938 401.529h.84V389.8h-.84v11.729Z" fill="#154D72"/><path d="M287.453 383.322h75.836v-17.51h-75.836v17.51Z" fill="#0A598A"/><path d="M316.932 370.176h43.162v-1.481h-43.162v1.481ZM316.932 372.738h43.162v-1.481h-43.162v1.481ZM316.932 375.3h43.162v-1.481h-43.162v1.481ZM316.932 377.862h43.162v-1.481h-43.162v1.481ZM316.932 380.424h43.162v-1.481h-43.162v1.481Z" fill="#046097"/><path d="M310.527 371.633a1.465 1.465 0 1 0 0-2.93 1.465 1.465 0 0 0 0 2.93ZM305.691 371.633a1.465 1.465 0 1 0 0-2.93 1.465 1.465 0 0 0 0 2.93ZM300.863 371.633a1.465 1.465 0 1 0 .001-2.93 1.465 1.465 0 0 0-.001 2.93Z" fill="#FF9C00"/><path d="M294.562 370.168a1.467 1.467 0 0 0 2.931 0 1.466 1.466 0 0 0-2.931 0Z" fill="#103654"/><path d="M289.735 370.168a1.466 1.466 0 1 0 2.932-.002 1.466 1.466 0 0 0-2.932.002ZM310.527 376.028a1.465 1.465 0 1 0 0-2.93 1.465 1.465 0 0 0 0 2.93ZM305.691 376.028a1.465 1.465 0 1 0 0-2.93 1.465 1.465 0 0 0 0 2.93Z" fill="#FF9C00"/><path d="M300.863 376.028a1.465 1.465 0 1 0 .001-2.93 1.465 1.465 0 0 0-.001 2.93Z" fill="#103654"/><path d="M294.562 374.563a1.466 1.466 0 1 0 2.932-.002 1.466 1.466 0 0 0-2.932.002ZM289.735 374.563a1.465 1.465 0 1 0 2.93 0 1.465 1.465 0 0 0-2.93 0ZM309.062 378.959a1.466 1.466 0 1 0 2.932-.002 1.466 1.466 0 0 0-2.932.002ZM304.226 378.959a1.466 1.466 0 1 0 2.928-.002 1.466 1.466 0 0 0-2.928.002ZM299.398 378.959a1.466 1.466 0 0 0 2.931 0 1.466 1.466 0 0 0-2.931 0Z" fill="#FF9C00"/><path d="M294.562 378.959a1.467 1.467 0 0 0 2.931 0 1.466 1.466 0 0 0-2.931 0Z" fill="#103654"/><path d="M289.735 378.959a1.466 1.466 0 1 0 2.932-.002 1.466 1.466 0 0 0-2.932.002Z" fill="#FF9C00"/><path d="M313.938 380.424h.84v-11.729h-.84v11.729Z" fill="#154D72"/><path d="M287.453 362.21h75.836V344.7h-75.836v17.51Z" fill="#0A598A"/><path d="M316.932 349.072h43.162v-1.481h-43.162v1.481ZM316.932 351.633h43.162v-1.481h-43.162v1.481ZM316.932 354.195h43.162v-1.481h-43.162v1.481ZM316.932 356.758h43.162v-1.481h-43.162v1.481ZM316.932 359.319h43.162v-1.481h-43.162v1.481Z" fill="#046097"/><path d="M310.527 350.52a1.465 1.465 0 1 0 0-2.93 1.465 1.465 0 0 0 0 2.93ZM305.691 350.52a1.465 1.465 0 1 0 0-2.93 1.465 1.465 0 0 0 0 2.93Z" fill="#FF9C00"/><path d="M300.863 350.52a1.465 1.465 0 1 0 .001-2.93 1.465 1.465 0 0 0-.001 2.93Z" fill="#103654"/><path d="M294.562 349.055a1.466 1.466 0 1 0 2.932-.002 1.466 1.466 0 0 0-2.932.002ZM289.735 349.055a1.465 1.465 0 1 0 2.93 0 1.465 1.465 0 0 0-2.93 0Z" fill="#FF9C00"/><path d="M309.062 353.459a1.466 1.466 0 1 0 2.932-.002 1.466 1.466 0 0 0-2.932.002Z" fill="#103654"/><path d="M304.226 353.459a1.466 1.466 0 1 0 2.928-.002 1.466 1.466 0 0 0-2.928.002Z" fill="#FF9C00"/><path d="M299.398 353.459a1.466 1.466 0 0 0 2.931 0 1.466 1.466 0 0 0-2.931 0Z" fill="#103654"/><path d="M294.562 353.459a1.467 1.467 0 0 0 2.931 0 1.466 1.466 0 0 0-2.931 0Z" fill="#FF9C00"/><path d="M289.735 353.459a1.466 1.466 0 1 0 2.932-.002 1.466 1.466 0 0 0-2.932.002Z" fill="#103654"/><path d="M309.062 357.854a1.465 1.465 0 1 0 2.93 0 1.465 1.465 0 0 0-2.93 0Z" fill="#FF9C00"/><path d="M304.226 357.854a1.466 1.466 0 1 0 2.932-.002 1.466 1.466 0 0 0-2.932.002Z" fill="#103654"/><path d="M299.398 357.854a1.466 1.466 0 1 0 2.932-.002 1.466 1.466 0 0 0-2.932.002ZM294.562 357.854a1.466 1.466 0 1 0 2.932-.002 1.466 1.466 0 0 0-2.932.002ZM289.735 357.854a1.465 1.465 0 1 0 2.93 0 1.465 1.465 0 0 0-2.93 0Z" fill="#FF9C00"/><path d="M313.938 359.32h.84v-11.729h-.84v11.729Z" fill="#154D72"/><path d="M299.823 335.676h99.959v-5.556h-99.959v5.556Z" fill="#0A598A"/><path d="M596.922 515.812h47.774V335.677h-47.774v180.135Z" fill="#154D72"/><path d="M509.005 515.812h87.917V335.677h-87.917v180.135Z" fill="#046097"/><path d="M514.489 509.959h75.836v-17.51h-75.836v17.51Z" fill="#0A598A"/><path d="M543.976 496.82h43.163v-1.481h-43.163v1.481ZM543.976 499.382h43.163v-1.481h-43.163v1.481ZM543.976 501.944h43.163v-1.481h-43.163v1.481ZM543.976 504.515h43.163v-1.482h-43.163v1.482ZM543.976 507.069h43.163v-1.481h-43.163v1.481Z" fill="#046097"/><path d="M536.106 496.805a1.466 1.466 0 0 0 2.931 0 1.467 1.467 0 0 0-2.931 0ZM531.27 496.805a1.466 1.466 0 0 0 2.931 0 1.467 1.467 0 0 0-2.931 0ZM526.434 496.805a1.467 1.467 0 0 0 2.931 0 1.467 1.467 0 0 0-2.931 0Z" fill="#FF9C00"/><path d="M521.607 496.805a1.466 1.466 0 1 0 2.932-.002 1.466 1.466 0 0 0-2.932.002Z" fill="#103654"/><path d="M516.771 496.805a1.466 1.466 0 1 0 2.932-.002 1.466 1.466 0 0 0-2.932.002Z" fill="#FF9C00"/><path d="M536.106 501.208a1.466 1.466 0 0 0 2.931 0 1.466 1.466 0 0 0-2.931 0Z" fill="#103654"/><path d="M531.27 501.208a1.466 1.466 0 0 0 2.931 0 1.466 1.466 0 0 0-2.931 0ZM526.434 501.208a1.467 1.467 0 0 0 2.931 0 1.466 1.466 0 0 0-2.931 0Z" fill="#FF9C00"/><path d="M521.607 501.208a1.466 1.466 0 1 0 2.932-.002 1.466 1.466 0 0 0-2.932.002ZM516.771 501.208a1.466 1.466 0 1 0 2.932-.002 1.466 1.466 0 0 0-2.932.002Z" fill="#103654"/><path d="M536.106 505.603a1.467 1.467 0 0 0 2.931 0 1.467 1.467 0 0 0-2.931 0Z" fill="#FF9C00"/><path d="M531.27 505.603a1.467 1.467 0 0 0 2.931 0 1.467 1.467 0 0 0-2.931 0Z" fill="#103654"/><path d="M526.434 505.603a1.467 1.467 0 1 0 1.466-1.465c-.809 0-1.466.657-1.466 1.465ZM521.607 505.603a1.466 1.466 0 1 0 2.932 0 1.466 1.466 0 0 0-2.932 0ZM516.771 505.603a1.466 1.466 0 1 0 2.932 0 1.466 1.466 0 0 0-2.932 0Z" fill="#FF9C00"/><path d="M540.974 507.069h.841V495.34h-.841v11.729Z" fill="#154D72"/><path d="M514.489 488.854h75.836v-17.509h-75.836v17.509Z" fill="#0A598A"/><path d="M543.976 475.715h43.163v-1.481h-43.163v1.481ZM543.976 478.277h43.163v-1.481h-43.163v1.481ZM543.976 480.84h43.163v-1.481h-43.163v1.481ZM543.976 483.402h43.163v-1.481h-43.163v1.481ZM543.976 485.964h43.163v-1.481h-43.163v1.481Z" fill="#046097"/><path d="M536.106 475.7a1.466 1.466 0 1 0 2.932-.002 1.466 1.466 0 0 0-2.932.002Z" fill="#103654"/><path d="M532.735 477.165a1.465 1.465 0 1 0 .001-2.93 1.465 1.465 0 0 0-.001 2.93ZM527.908 477.165a1.465 1.465 0 1 0 0-2.93 1.465 1.465 0 0 0 0 2.93Z" fill="#FF9C00"/><path d="M521.607 475.7a1.465 1.465 0 1 0 2.93 0 1.465 1.465 0 0 0-2.93 0Z" fill="#103654"/><path d="M516.771 475.7a1.465 1.465 0 1 0 2.93 0 1.465 1.465 0 0 0-2.93 0ZM536.106 480.095a1.466 1.466 0 1 0 2.932-.002 1.466 1.466 0 0 0-2.932.002ZM532.735 481.56a1.465 1.465 0 1 0 .001-2.93 1.465 1.465 0 0 0-.001 2.93Z" fill="#FF9C00"/><path d="M527.908 481.56a1.465 1.465 0 1 0 0-2.93 1.465 1.465 0 0 0 0 2.93ZM521.607 480.095a1.465 1.465 0 1 0 2.93 0 1.465 1.465 0 0 0-2.93 0Z" fill="#103654"/><path d="M516.771 480.095a1.465 1.465 0 1 0 2.93 0 1.465 1.465 0 0 0-2.93 0ZM536.106 484.499a1.466 1.466 0 1 0 2.932-.002 1.466 1.466 0 0 0-2.932.002Z" fill="#FF9C00"/><path d="M532.735 485.964a1.465 1.465 0 1 0 .001-2.93 1.465 1.465 0 0 0-.001 2.93Z" fill="#103654"/><path d="M527.908 485.964a1.465 1.465 0 1 0 0-2.93 1.465 1.465 0 0 0 0 2.93ZM521.607 484.499a1.465 1.465 0 1 0 2.93 0 1.465 1.465 0 0 0-2.93 0Z" fill="#FF9C00"/><path d="M516.771 484.499a1.465 1.465 0 1 0 2.93 0 1.465 1.465 0 0 0-2.93 0Z" fill="#103654"/><path d="M540.974 485.964h.841v-11.729h-.841v11.729Z" fill="#154D72"/><path d="M514.489 467.749h75.836v-17.51h-75.836v17.51Z" fill="#0A598A"/><path d="M543.976 454.603h43.163v-1.481h-43.163v1.481ZM543.976 457.165h43.163v-1.481h-43.163v1.481ZM543.976 459.728h43.163v-1.482h-43.163v1.482ZM543.976 462.289h43.163v-1.481h-43.163v1.481ZM543.976 464.851h43.163v-1.481h-43.163v1.481Z" fill="#046097"/><path d="M536.106 454.595a1.466 1.466 0 0 0 2.931 0 1.467 1.467 0 0 0-2.931 0Z" fill="#103654"/><path d="M531.27 454.595a1.466 1.466 0 0 0 2.931 0 1.467 1.467 0 0 0-2.931 0Z" fill="#FF9C00"/><path d="M526.434 454.595a1.467 1.467 0 0 0 2.931 0 1.467 1.467 0 0 0-2.931 0Z" fill="#103654"/><path d="M521.607 454.595a1.466 1.466 0 1 0 2.932-.002 1.466 1.466 0 0 0-2.932.002ZM516.771 454.595a1.466 1.466 0 1 0 2.932-.002 1.466 1.466 0 0 0-2.932.002ZM536.106 458.99a1.466 1.466 0 1 0 2.932-.002 1.466 1.466 0 0 0-2.932.002Z" fill="#FF9C00"/><path d="M531.27 458.99a1.466 1.466 0 1 0 2.932-.002 1.466 1.466 0 0 0-2.932.002ZM526.434 458.99a1.466 1.466 0 1 0 2.932-.002 1.466 1.466 0 0 0-2.932.002Z" fill="#103654"/><path d="M521.607 458.99a1.465 1.465 0 1 0 2.93 0 1.465 1.465 0 0 0-2.93 0Z" fill="#FF9C00"/><path d="M516.771 458.99a1.465 1.465 0 1 0 2.93 0 1.465 1.465 0 0 0-2.93 0ZM536.106 463.386a1.466 1.466 0 0 0 2.931 0 1.467 1.467 0 0 0-2.931 0Z" fill="#103654"/><path d="M531.27 463.386a1.466 1.466 0 0 0 2.931 0 1.467 1.467 0 0 0-2.931 0ZM526.434 463.386a1.467 1.467 0 0 0 2.931 0 1.467 1.467 0 0 0-2.931 0Z" fill="#FF9C00"/><path d="M521.607 463.386a1.466 1.466 0 1 0 2.932-.002 1.466 1.466 0 0 0-2.932.002Z" fill="#103654"/><path d="M516.771 463.386a1.466 1.466 0 1 0 2.932-.002 1.466 1.466 0 0 0-2.932.002Z" fill="#FF9C00"/><path d="M540.974 464.851h.841v-11.73h-.841v11.73Z" fill="#154D72"/><path d="M514.489 446.645h75.836v-17.51h-75.836v17.51Z" fill="#0A598A"/><path d="M543.976 433.506h43.163v-1.481h-43.163v1.481ZM543.976 436.068h43.163v-1.481h-43.163v1.481ZM543.976 438.623h43.163v-1.482h-43.163v1.482ZM543.976 441.184h43.163v-1.481h-43.163v1.481ZM543.976 443.746h43.163v-1.481h-43.163v1.481Z" fill="#046097"/><path d="M536.106 433.49a1.466 1.466 0 1 0 2.932-.002 1.466 1.466 0 0 0-2.932.002ZM531.27 433.49a1.466 1.466 0 1 0 2.932-.002 1.466 1.466 0 0 0-2.932.002ZM526.434 433.49a1.466 1.466 0 1 0 2.932-.002 1.466 1.466 0 0 0-2.932.002ZM521.607 433.49a1.465 1.465 0 1 0 2.93 0 1.465 1.465 0 0 0-2.93 0Z" fill="#FF9C00"/><path d="M516.771 433.49a1.465 1.465 0 1 0 2.93 0 1.465 1.465 0 0 0-2.93 0ZM536.106 437.886a1.466 1.466 0 1 0 2.932-.002 1.466 1.466 0 0 0-2.932.002ZM531.27 437.886a1.466 1.466 0 1 0 2.932-.002 1.466 1.466 0 0 0-2.932.002Z" fill="#103654"/><path d="M526.434 437.886a1.466 1.466 0 1 0 2.932-.002 1.466 1.466 0 0 0-2.932.002Z" fill="#FF9C00"/><path d="M521.607 437.886a1.465 1.465 0 1 0 2.93 0 1.465 1.465 0 0 0-2.93 0Z" fill="#103654"/><path d="M516.771 437.886a1.465 1.465 0 1 0 2.93 0 1.465 1.465 0 0 0-2.93 0ZM536.106 442.281a1.466 1.466 0 1 0 2.932-.002 1.466 1.466 0 0 0-2.932.002ZM531.27 442.281a1.466 1.466 0 1 0 2.932-.002 1.466 1.466 0 0 0-2.932.002Z" fill="#FF9C00"/><path d="M526.434 442.281a1.466 1.466 0 1 0 2.932-.002 1.466 1.466 0 0 0-2.932.002Z" fill="#103654"/><path d="M521.607 442.281a1.465 1.465 0 1 0 2.93 0 1.465 1.465 0 0 0-2.93 0Z" fill="#FF9C00"/><path d="M516.771 442.281a1.465 1.465 0 1 0 2.93 0 1.465 1.465 0 0 0-2.93 0Z" fill="#103654"/><path d="M540.974 443.754h.841v-11.729h-.841v11.729Z" fill="#154D72"/><path d="M514.489 425.532h75.836v-17.51h-75.836v17.51Z" fill="#0A598A"/><path d="M543.976 412.393h43.163v-1.481h-43.163v1.481ZM543.976 414.955h43.163v-1.481h-43.163v1.481ZM543.976 417.517h43.163v-1.481h-43.163v1.481ZM543.976 420.08h43.163v-1.482h-43.163v1.482ZM543.976 422.642h43.163v-1.482h-43.163v1.482Z" fill="#046097"/><path d="M536.106 412.377a1.466 1.466 0 1 0 2.932-.002 1.466 1.466 0 0 0-2.932.002ZM531.27 412.377a1.466 1.466 0 1 0 2.932-.002 1.466 1.466 0 0 0-2.932.002ZM526.434 412.377a1.466 1.466 0 1 0 2.932-.002 1.466 1.466 0 0 0-2.932.002ZM521.607 412.377a1.465 1.465 0 1 0 2.93 0 1.465 1.465 0 0 0-2.93 0Z" fill="#FF9C00"/><path d="M516.771 412.377a1.465 1.465 0 1 0 2.93 0 1.465 1.465 0 0 0-2.93 0ZM536.106 416.781a1.466 1.466 0 0 0 2.931 0 1.467 1.467 0 0 0-2.931 0Z" fill="#103654"/><path d="M531.27 416.781a1.466 1.466 0 0 0 2.931 0 1.467 1.467 0 0 0-2.931 0ZM526.434 416.781a1.467 1.467 0 0 0 2.931 0 1.467 1.467 0 0 0-2.931 0Z" fill="#FF9C00"/><path d="M521.607 416.781a1.466 1.466 0 1 0 2.932-.002 1.466 1.466 0 0 0-2.932.002Z" fill="#103654"/><path d="M516.771 416.781a1.466 1.466 0 1 0 2.932-.002 1.466 1.466 0 0 0-2.932.002Z" fill="#FF9C00"/><path d="M536.106 421.176a1.466 1.466 0 1 0 2.932-.002 1.466 1.466 0 0 0-2.932.002ZM531.27 421.176a1.466 1.466 0 1 0 2.932-.002 1.466 1.466 0 0 0-2.932.002Z" fill="#103654"/><path d="M526.434 421.176a1.466 1.466 0 1 0 2.932-.002 1.466 1.466 0 0 0-2.932.002ZM521.607 421.176a1.465 1.465 0 1 0 2.93 0 1.465 1.465 0 0 0-2.93 0Z" fill="#FF9C00"/><path d="M516.771 421.176a1.465 1.465 0 1 0 2.93 0 1.465 1.465 0 0 0-2.93 0Z" fill="#103654"/><path d="M540.974 422.642h.841v-11.73h-.841v11.73Z" fill="#154D72"/><path d="M514.489 404.419h75.836v-17.51h-75.836v17.51Z" fill="#0A598A"/><path d="M543.976 391.281h43.163V389.8h-43.163v1.481ZM543.976 393.842h43.163v-1.481h-43.163v1.481ZM543.976 396.404h43.163v-1.481h-43.163v1.481ZM543.976 398.975h43.163v-1.482h-43.163v1.482ZM543.976 401.537h43.163v-1.482h-43.163v1.482Z" fill="#046097"/><path d="M536.106 391.273a1.466 1.466 0 0 0 2.931 0 1.466 1.466 0 0 0-2.931 0Z" fill="#103654"/><path d="M531.27 391.273a1.466 1.466 0 0 0 2.931 0 1.466 1.466 0 0 0-2.931 0ZM526.434 391.273a1.467 1.467 0 0 0 2.931 0 1.466 1.466 0 0 0-2.931 0Z" fill="#FF9C00"/><path d="M521.607 391.273a1.466 1.466 0 1 0 2.932-.002 1.466 1.466 0 0 0-2.932.002Z" fill="#103654"/><path d="M516.771 391.273a1.466 1.466 0 1 0 2.932-.002 1.466 1.466 0 0 0-2.932.002ZM536.106 395.668a1.466 1.466 0 1 0 2.932-.002 1.466 1.466 0 0 0-2.932.002Z" fill="#FF9C00"/><path d="M531.27 395.668a1.466 1.466 0 1 0 2.932-.002 1.466 1.466 0 0 0-2.932.002Z" fill="#103654"/><path d="M526.434 395.668a1.466 1.466 0 1 0 2.932-.002 1.466 1.466 0 0 0-2.932.002ZM521.607 395.668a1.465 1.465 0 1 0 2.93 0 1.465 1.465 0 0 0-2.93 0Z" fill="#FF9C00"/><path d="M516.771 395.668a1.465 1.465 0 1 0 2.93 0 1.465 1.465 0 0 0-2.93 0Z" fill="#103654"/><path d="M536.106 400.072a1.466 1.466 0 0 0 2.931 0 1.467 1.467 0 0 0-2.931 0ZM531.27 400.072a1.466 1.466 0 0 0 2.931 0 1.467 1.467 0 0 0-2.931 0Z" fill="#FF9C00"/><path d="M526.434 400.072a1.467 1.467 0 0 0 2.931 0 1.467 1.467 0 0 0-2.931 0ZM521.607 400.072a1.466 1.466 0 1 0 2.932-.002 1.466 1.466 0 0 0-2.932.002Z" fill="#103654"/><path d="M516.771 400.072a1.466 1.466 0 1 0 2.932-.002 1.466 1.466 0 0 0-2.932.002Z" fill="#FF9C00"/><path d="M540.974 401.529h.841V389.8h-.841v11.729Z" fill="#154D72"/><path d="M497.564 383.322H573.4v-17.51h-75.836v17.51Z" fill="#0A598A"/><path d="M527.043 370.176h43.162v-1.481h-43.162v1.481ZM527.043 372.738h43.162v-1.481h-43.162v1.481ZM527.043 375.3h43.162v-1.481h-43.162v1.481ZM527.043 377.862h43.162v-1.481h-43.162v1.481ZM527.043 380.424h43.162v-1.481h-43.162v1.481Z" fill="#046097"/><path d="M520.638 371.633a1.465 1.465 0 1 0 0-2.93 1.465 1.465 0 0 0 0 2.93ZM515.802 371.633a1.465 1.465 0 1 0 0-2.93 1.465 1.465 0 0 0 0 2.93ZM510.974 371.633a1.465 1.465 0 1 0 0-2.93 1.465 1.465 0 0 0 0 2.93ZM504.673 370.168a1.466 1.466 0 0 0 2.931 0 1.466 1.466 0 0 0-2.931 0Z" fill="#FF9C00"/><path d="M499.845 370.168a1.466 1.466 0 0 0 2.931 0 1.466 1.466 0 0 0-2.931 0Z" fill="#103654"/><path d="M520.638 376.028a1.465 1.465 0 1 0 0-2.93 1.465 1.465 0 0 0 0 2.93Z" fill="#FF9C00"/><path d="M515.802 376.028a1.465 1.465 0 1 0 0-2.93 1.465 1.465 0 0 0 0 2.93Z" fill="#103654"/><path d="M510.974 376.028a1.465 1.465 0 1 0 0-2.93 1.465 1.465 0 0 0 0 2.93ZM504.673 374.563a1.466 1.466 0 1 0 2.932-.002 1.466 1.466 0 0 0-2.932.002Z" fill="#FF9C00"/><path d="M499.845 374.563a1.466 1.466 0 1 0 2.932-.002 1.466 1.466 0 0 0-2.932.002Z" fill="#103654"/><path d="M519.173 378.959a1.466 1.466 0 1 0 2.932-.002 1.466 1.466 0 0 0-2.932.002ZM514.337 378.959a1.466 1.466 0 1 0 2.932-.002 1.466 1.466 0 0 0-2.932.002ZM509.509 378.959a1.466 1.466 0 1 0 2.928-.002 1.466 1.466 0 0 0-2.928.002Z" fill="#FF9C00"/><path d="M504.673 378.959a1.466 1.466 0 0 0 2.931 0 1.466 1.466 0 0 0-2.931 0Z" fill="#103654"/><path d="M499.845 378.959a1.466 1.466 0 0 0 2.931 0 1.466 1.466 0 0 0-2.931 0Z" fill="#FF9C00"/><path d="M524.041 380.424h.84v-11.729h-.84v11.729ZM573.392 383.322h16.933v-17.51h-16.933v17.51Z" fill="#154D72"/><path d="M514.489 362.21h75.836V344.7h-75.836v17.51Z" fill="#0A598A"/><path d="M543.976 349.072h43.163v-1.481h-43.163v1.481ZM543.976 351.633h43.163v-1.481h-43.163v1.481ZM543.976 354.195h43.163v-1.481h-43.163v1.481ZM543.976 356.758h43.163v-1.481h-43.163v1.481ZM543.976 359.319h43.163v-1.481h-43.163v1.481Z" fill="#046097"/><path d="M536.106 349.055a1.466 1.466 0 1 0 2.932-.002 1.466 1.466 0 0 0-2.932.002Z" fill="#FF9C00"/><path d="M532.735 350.52a1.465 1.465 0 1 0 .001-2.93 1.465 1.465 0 0 0-.001 2.93Z" fill="#103654"/><path d="M527.908 350.52a1.465 1.465 0 1 0 0-2.93 1.465 1.465 0 0 0 0 2.93Z" fill="#FF9C00"/><path d="M521.607 349.055a1.465 1.465 0 1 0 2.93 0 1.465 1.465 0 0 0-2.93 0Z" fill="#103654"/><path d="M516.771 349.055a1.465 1.465 0 1 0 2.93 0 1.465 1.465 0 0 0-2.93 0ZM536.106 353.459a1.466 1.466 0 0 0 2.931 0 1.466 1.466 0 0 0-2.931 0ZM531.27 353.459a1.466 1.466 0 0 0 2.931 0 1.466 1.466 0 0 0-2.931 0ZM526.434 353.459a1.467 1.467 0 0 0 2.931 0 1.466 1.466 0 0 0-2.931 0ZM521.607 353.459a1.466 1.466 0 1 0 2.932-.002 1.466 1.466 0 0 0-2.932.002Z" fill="#FF9C00"/><path d="M516.771 353.459a1.466 1.466 0 1 0 2.932-.002 1.466 1.466 0 0 0-2.932.002Z" fill="#103654"/><path d="M536.106 357.854a1.466 1.466 0 1 0 2.932-.002 1.466 1.466 0 0 0-2.932.002Z" fill="#FF9C00"/><path d="M531.27 357.854a1.466 1.466 0 1 0 2.932-.002 1.466 1.466 0 0 0-2.932.002Z" fill="#103654"/><path d="M526.434 357.854a1.466 1.466 0 1 0 2.932-.002 1.466 1.466 0 0 0-2.932.002ZM521.607 357.854a1.465 1.465 0 1 0 2.93 0 1.465 1.465 0 0 0-2.93 0ZM516.771 357.854a1.465 1.465 0 1 0 2.93 0 1.465 1.465 0 0 0-2.93 0Z" fill="#FF9C00"/><path d="M540.974 359.32h.841v-11.729h-.841v11.729Z" fill="#154D72"/><path d="M526.875 335.676h99.959v-5.556h-99.959v5.556Z" fill="#0A598A"/><path d="M490.566 402.882h-72.353v108.454h72.353V402.882Z" fill="#154D72"/><path d="M406.275 515.707h84.299v-17.51h-84.299v17.51Z" fill="#0A598A"/><path d="M435.746 502.562h51.633v-1.482h-51.633v1.482ZM435.746 505.123h51.633v-1.481h-51.633v1.481ZM435.746 507.685h51.633v-1.481h-51.633v1.481ZM435.746 510.255h51.633v-1.481h-51.633v1.481ZM435.746 512.818h51.633v-1.481h-51.633v1.481Z" fill="#046097"/><path d="M427.884 502.553a1.466 1.466 0 0 0 2.931 0 1.467 1.467 0 0 0-2.931 0Z" fill="#92C9EC"/><path d="M423.048 502.553a1.467 1.467 0 0 0 2.931 0 1.467 1.467 0 0 0-2.931 0Z" fill="#154D72"/><path d="M418.213 502.553a1.466 1.466 0 1 0 2.932-.002 1.466 1.466 0 0 0-2.932.002ZM413.385 502.553a1.466 1.466 0 1 0 2.932-.002 1.466 1.466 0 0 0-2.932.002Z" fill="#92C9EC"/><path d="M408.549 502.553a1.466 1.466 0 1 0 2.932-.002 1.466 1.466 0 0 0-2.932.002ZM427.884 506.949a1.466 1.466 0 0 0 2.931 0 1.467 1.467 0 0 0-2.931 0Z" fill="#154D72"/><path d="M423.048 506.949a1.467 1.467 0 0 0 2.931 0 1.467 1.467 0 0 0-2.931 0Z" fill="#92C9EC"/><path d="M418.213 506.949a1.466 1.466 0 1 0 2.932-.002 1.466 1.466 0 0 0-2.932.002Z" fill="#154D72"/><path d="M413.385 506.949a1.466 1.466 0 1 0 2.932-.002 1.466 1.466 0 0 0-2.932.002Z" fill="#92C9EC"/><path d="M408.549 506.949a1.466 1.466 0 1 0 2.932-.002 1.466 1.466 0 0 0-2.932.002ZM427.884 511.352a1.466 1.466 0 1 0 2.932-.002 1.466 1.466 0 0 0-2.932.002Z" fill="#154D72"/><path d="M423.048 511.352a1.466 1.466 0 1 0 2.932-.002 1.466 1.466 0 0 0-2.932.002ZM418.213 511.352a1.465 1.465 0 1 0 2.93 0 1.465 1.465 0 0 0-2.93 0ZM413.385 511.352a1.465 1.465 0 1 0 2.93 0 1.465 1.465 0 0 0-2.93 0ZM408.549 511.352a1.465 1.465 0 1 0 2.93 0 1.465 1.465 0 0 0-2.93 0Z" fill="#92C9EC"/><path d="M432.752 512.817h.841v-11.729h-.841v11.729ZM505.898 498.197h-15.324v17.51h15.324v-17.51Z" fill="#154D72"/><path d="M406.275 495.444h84.299v-17.51h-84.299v17.51Z" fill="#0A598A"/><path d="M435.746 482.305h51.633v-1.481h-51.633v1.481ZM435.746 484.867h51.633v-1.481h-51.633v1.481ZM435.746 487.429h51.633v-1.481h-51.633v1.481ZM435.746 489.991h51.633v-1.481h-51.633v1.481ZM435.746 492.561h51.633v-1.481h-51.633v1.481Z" fill="#046097"/><path d="M427.884 482.289a1.467 1.467 0 0 0 2.931 0 1.467 1.467 0 0 0-2.931 0Z" fill="#154D72"/><path d="M424.514 483.755a1.465 1.465 0 1 0 0-2.93 1.465 1.465 0 0 0 0 2.93ZM419.678 483.755a1.465 1.465 0 1 0 0-2.93 1.465 1.465 0 0 0 0 2.93ZM413.385 482.289a1.466 1.466 0 1 0 2.932 0 1.466 1.466 0 0 0-2.932 0Z" fill="#92C9EC"/><path d="M408.549 482.289a1.466 1.466 0 1 0 2.932 0 1.466 1.466 0 0 0-2.932 0Z" fill="#154D72"/><path d="M427.884 486.693a1.466 1.466 0 0 0 2.931 0 1.466 1.466 0 0 0-2.931 0Z" fill="#92C9EC"/><path d="M423.048 486.693a1.467 1.467 0 0 0 2.931 0 1.466 1.466 0 0 0-2.931 0ZM418.213 486.693a1.466 1.466 0 1 0 2.932-.002 1.466 1.466 0 0 0-2.932.002ZM413.385 486.693a1.466 1.466 0 1 0 2.932-.002 1.466 1.466 0 0 0-2.932.002Z" fill="#154D72"/><path d="M408.549 486.693a1.466 1.466 0 1 0 2.932-.002 1.466 1.466 0 0 0-2.932.002ZM427.884 491.088a1.466 1.466 0 1 0 2.932-.002 1.466 1.466 0 0 0-2.932.002ZM424.514 492.553a1.465 1.465 0 1 0 0-2.93 1.465 1.465 0 0 0 0 2.93Z" fill="#92C9EC"/><path d="M419.678 492.553a1.465 1.465 0 1 0 0-2.93 1.465 1.465 0 0 0 0 2.93Z" fill="#154D72"/><path d="M413.385 491.088a1.465 1.465 0 1 0 2.93 0 1.465 1.465 0 0 0-2.93 0ZM408.549 491.088a1.465 1.465 0 1 0 2.93 0 1.465 1.465 0 0 0-2.93 0Z" fill="#92C9EC"/><path d="M432.752 492.553h.841v-11.729h-.841v11.729ZM505.898 477.934h-15.324v17.509h15.324v-17.509Z" fill="#154D72"/><path d="M406.275 474.338h84.299v-17.51h-84.299v17.51Z" fill="#0A598A"/><path d="M435.746 461.2h51.633v-1.481h-51.633v1.481ZM435.746 463.762h51.633v-1.481h-51.633v1.481ZM435.746 466.324h51.633v-1.481h-51.633v1.481ZM435.746 468.886h51.633v-1.481h-51.633v1.481ZM435.746 471.448h51.633v-1.481h-51.633v1.481Z" fill="#046097"/><path d="M427.884 461.184a1.466 1.466 0 1 0 2.932-.002 1.466 1.466 0 0 0-2.932.002Z" fill="#154D72"/><path d="M423.048 461.184a1.466 1.466 0 1 0 2.932-.002 1.466 1.466 0 0 0-2.932.002ZM418.213 461.184a1.465 1.465 0 1 0 2.93 0 1.465 1.465 0 0 0-2.93 0ZM413.385 461.184a1.465 1.465 0 1 0 2.93 0 1.465 1.465 0 0 0-2.93 0Z" fill="#92C9EC"/><path d="M408.549 461.184a1.465 1.465 0 1 0 2.93 0 1.465 1.465 0 0 0-2.93 0Z" fill="#154D72"/><path d="M427.884 465.579a1.467 1.467 0 0 0 2.931 0 1.467 1.467 0 0 0-2.931 0ZM423.048 465.579a1.467 1.467 0 1 0 1.466-1.465c-.809 0-1.466.657-1.466 1.465Z" fill="#92C9EC"/><path d="M418.213 465.579a1.466 1.466 0 1 0 2.932 0 1.466 1.466 0 0 0-2.932 0ZM413.385 465.579a1.466 1.466 0 1 0 2.932 0 1.466 1.466 0 0 0-2.932 0Z" fill="#154D72"/><path d="M408.549 465.579a1.466 1.466 0 1 0 2.932 0 1.466 1.466 0 0 0-2.932 0Z" fill="#92C9EC"/><path d="M427.884 469.983a1.466 1.466 0 1 0 2.932-.002 1.466 1.466 0 0 0-2.932.002Z" fill="#154D72"/><path d="M423.048 469.983a1.466 1.466 0 1 0 2.932-.002 1.466 1.466 0 0 0-2.932.002ZM418.213 469.983a1.465 1.465 0 1 0 2.93 0 1.465 1.465 0 0 0-2.93 0ZM413.385 469.983a1.465 1.465 0 1 0 2.93 0 1.465 1.465 0 0 0-2.93 0Z" fill="#92C9EC"/><path d="M408.549 469.983a1.465 1.465 0 1 0 2.93 0 1.465 1.465 0 0 0-2.93 0ZM432.752 471.449h.841v-11.73h-.841v11.73ZM505.898 456.829h-15.324v17.51h15.324v-17.51Z" fill="#154D72"/><path d="M406.275 453.234h84.299v-17.51h-84.299v17.51Z" fill="#0A598A"/><path d="M435.746 440.087h51.633v-1.481h-51.633v1.481ZM435.746 442.649h51.633v-1.481h-51.633v1.481ZM435.746 445.212h51.633v-1.481h-51.633v1.481ZM435.746 447.773h51.633v-1.481h-51.633v1.481ZM435.746 450.335h51.633v-1.481h-51.633v1.481Z" fill="#046097"/><path d="M427.884 440.08a1.466 1.466 0 1 0 2.932-.002 1.466 1.466 0 0 0-2.932.002Z" fill="#92C9EC"/><path d="M423.048 440.08a1.466 1.466 0 1 0 2.932-.002 1.466 1.466 0 0 0-2.932.002Z" fill="#154D72"/><path d="M418.213 440.08a1.465 1.465 0 1 0 2.93 0 1.465 1.465 0 0 0-2.93 0ZM413.385 440.08a1.465 1.465 0 1 0 2.93 0 1.465 1.465 0 0 0-2.93 0Z" fill="#92C9EC"/><path d="M408.549 440.08a1.465 1.465 0 1 0 2.93 0 1.465 1.465 0 0 0-2.93 0Z" fill="#154D72"/><path d="M427.884 444.475a1.467 1.467 0 0 0 2.931 0 1.467 1.467 0 0 0-2.931 0ZM423.048 444.475a1.467 1.467 0 1 0 1.466-1.465c-.809 0-1.466.657-1.466 1.465Z" fill="#92C9EC"/><path d="M418.213 444.475a1.466 1.466 0 1 0 2.932 0 1.466 1.466 0 0 0-2.932 0ZM413.385 444.475a1.466 1.466 0 1 0 2.932 0 1.466 1.466 0 0 0-2.932 0Z" fill="#154D72"/><path d="M408.549 444.475a1.466 1.466 0 1 0 2.932 0 1.466 1.466 0 0 0-2.932 0Z" fill="#92C9EC"/><path d="M427.884 448.871a1.466 1.466 0 1 0 2.932-.002 1.466 1.466 0 0 0-2.932.002Z" fill="#154D72"/><path d="M423.048 448.871a1.466 1.466 0 1 0 2.932-.002 1.466 1.466 0 0 0-2.932.002ZM418.213 448.871a1.465 1.465 0 1 0 2.93 0 1.465 1.465 0 0 0-2.93 0Z" fill="#92C9EC"/><path d="M413.385 448.871a1.465 1.465 0 1 0 2.93 0 1.465 1.465 0 0 0-2.93 0Z" fill="#154D72"/><path d="M408.549 448.871a1.465 1.465 0 1 0 2.93 0 1.465 1.465 0 0 0-2.93 0Z" fill="#92C9EC"/><path d="M432.752 450.335h.841v-11.729h-.841v11.729ZM505.898 435.716h-15.324v17.51h15.324v-17.51Z" fill="#154D72"/><path d="M406.275 432.129h84.299v-17.51h-84.299v17.51Z" fill="#0A598A"/><path d="M435.746 418.982h51.633v-1.481h-51.633v1.481ZM435.746 421.544h51.633v-1.481h-51.633v1.481ZM435.746 424.114h51.633v-1.481h-51.633v1.481ZM435.746 426.669h51.633v-1.481h-51.633v1.481ZM435.746 429.231h51.633v-1.481h-51.633v1.481Z" fill="#046097"/><path d="M427.884 418.967a1.466 1.466 0 0 0 2.931 0 1.467 1.467 0 0 0-2.931 0ZM423.048 418.967a1.467 1.467 0 0 0 2.931 0 1.467 1.467 0 0 0-2.931 0ZM418.213 418.967a1.466 1.466 0 1 0 2.932-.002 1.466 1.466 0 0 0-2.932.002Z" fill="#92C9EC"/><path d="M413.385 418.967a1.466 1.466 0 1 0 2.932-.002 1.466 1.466 0 0 0-2.932.002Z" fill="#154D72"/><path d="M408.549 418.967a1.466 1.466 0 1 0 2.932-.002 1.466 1.466 0 0 0-2.932.002Z" fill="#92C9EC"/><path d="M427.884 423.37a1.466 1.466 0 1 0 2.932-.002 1.466 1.466 0 0 0-2.932.002Z" fill="#154D72"/><path d="M423.048 423.37a1.466 1.466 0 1 0 2.932-.002 1.466 1.466 0 0 0-2.932.002Z" fill="#92C9EC"/><path d="M418.213 423.37a1.465 1.465 0 1 0 2.93 0 1.465 1.465 0 0 0-2.93 0Z" fill="#154D72"/><path d="M413.385 423.37a1.465 1.465 0 1 0 2.93 0 1.465 1.465 0 0 0-2.93 0ZM408.549 423.37a1.465 1.465 0 1 0 2.93 0 1.465 1.465 0 0 0-2.93 0ZM427.884 427.765a1.467 1.467 0 0 0 2.931 0 1.467 1.467 0 0 0-2.931 0Z" fill="#92C9EC"/><path d="M423.048 427.765a1.467 1.467 0 1 0 1.466-1.465c-.809 0-1.466.657-1.466 1.465Z" fill="#154D72"/><path d="M418.213 427.765a1.466 1.466 0 1 0 2.932 0 1.466 1.466 0 0 0-2.932 0ZM413.385 427.765a1.466 1.466 0 1 0 2.932 0 1.466 1.466 0 0 0-2.932 0Z" fill="#92C9EC"/><path d="M408.549 427.765a1.466 1.466 0 1 0 2.932 0 1.466 1.466 0 0 0-2.932 0ZM432.752 429.239h.841v-11.73h-.841v11.73ZM505.898 414.611h-15.324v17.51h15.324v-17.51Z" fill="#154D72"/><path d="M406.275 411.017h84.299v-17.51h-84.299v17.51Z" fill="#0A598A"/><path d="M435.746 397.877h51.633v-1.481h-51.633v1.481ZM435.746 400.439h51.633v-1.481h-51.633v1.481ZM435.746 403.002h51.633v-1.481h-51.633v1.481ZM435.746 405.564h51.633v-1.481h-51.633v1.481ZM435.746 408.126h51.633v-1.481h-51.633v1.481Z" fill="#046097"/><path d="M427.884 397.862a1.466 1.466 0 1 0 2.932-.002 1.466 1.466 0 0 0-2.932.002ZM423.048 397.862a1.466 1.466 0 1 0 2.932-.002 1.466 1.466 0 0 0-2.932.002Z" fill="#154D72"/><path d="M418.213 397.862a1.465 1.465 0 1 0 2.93 0 1.465 1.465 0 0 0-2.93 0Z" fill="#92C9EC"/><path d="M413.385 397.862a1.465 1.465 0 1 0 2.93 0 1.465 1.465 0 0 0-2.93 0Z" fill="#154D72"/><path d="M408.549 397.862a1.465 1.465 0 1 0 2.93 0 1.465 1.465 0 0 0-2.93 0ZM427.884 402.258a1.466 1.466 0 0 0 2.931 0 1.467 1.467 0 0 0-2.931 0ZM423.048 402.258a1.467 1.467 0 0 0 2.931 0 1.467 1.467 0 0 0-2.931 0Z" fill="#92C9EC"/><path d="M418.213 402.258a1.466 1.466 0 1 0 2.932-.002 1.466 1.466 0 0 0-2.932.002Z" fill="#154D72"/><path d="M413.385 402.258a1.466 1.466 0 1 0 2.932-.002 1.466 1.466 0 0 0-2.932.002Z" fill="#92C9EC"/><path d="M408.549 402.258a1.466 1.466 0 1 0 2.932-.002 1.466 1.466 0 0 0-2.932.002Z" fill="#154D72"/><path d="M427.884 406.661a1.466 1.466 0 1 0 2.932-.002 1.466 1.466 0 0 0-2.932.002Z" fill="#92C9EC"/><path d="M423.048 406.661a1.466 1.466 0 1 0 2.932-.002 1.466 1.466 0 0 0-2.932.002Z" fill="#154D72"/><path d="M418.213 406.661a1.465 1.465 0 1 0 2.93 0 1.465 1.465 0 0 0-2.93 0ZM413.385 406.661a1.465 1.465 0 1 0 2.93 0 1.465 1.465 0 0 0-2.93 0ZM408.549 406.661a1.465 1.465 0 1 0 2.93 0 1.465 1.465 0 0 0-2.93 0Z" fill="#92C9EC"/><path d="M432.752 408.126h.841v-11.729h-.841v11.729ZM505.898 393.506h-15.324v17.51h15.324v-17.51Z" fill="#154D72"/><path d="M427.124 301.881c0 8.567 6.629 15.581 15.044 16.205v.048h92.033c10.552 0 19.095-8.55 19.095-19.103 0-9.944-7.598-18.126-17.318-19.015-.552-17.286-14.732-31.137-32.154-31.137-13.867 0-25.692 8.775-30.207 21.073a18.894 18.894 0 0 0-8.543-2.017c-10.152 0-18.463 7.918-19.063 17.918a15.925 15.925 0 0 0-2.643-.216c-8.975 0-16.252 7.277-16.252 16.252l.008-.008Z" fill="#FF9C00"/><path opacity=".1" d="M427.124 301.881c0 8.567 6.629 15.581 15.044 16.205v.048h92.033c10.552 0 19.095-8.55 19.095-19.103 0-9.944-7.598-18.126-17.318-19.015-.552-17.286-14.732-31.137-32.154-31.137-13.867 0-25.692 8.775-30.207 21.073a18.894 18.894 0 0 0-8.543-2.017c-10.152 0-18.463 7.918-19.063 17.918a15.925 15.925 0 0 0-2.643-.216c-8.975 0-16.252 7.277-16.252 16.252l.008-.008Z" fill="#000"/><path d="M417.948 301.881c0 8.567 6.63 15.581 15.044 16.205v.048h92.033c10.553 0 19.096-8.55 19.096-19.103 0-9.944-7.598-18.126-17.318-19.015-.553-17.286-14.732-31.137-32.154-31.137-13.867 0-25.692 8.775-30.208 21.073a18.886 18.886 0 0 0-8.542-2.017c-10.153 0-18.463 7.918-19.064 17.918a15.904 15.904 0 0 0-2.642-.216c-8.975 0-16.253 7.277-16.253 16.252l.008-.008Z" fill="#FF9C00"/><path d="M489.341 290.336h-16.613v14.26h16.613v-14.26ZM467.027 290.336h28.015l-14.012-13.971-14.003 13.971Z" fill="#103654"/><path d="M564.032 298.983h-1.601v.801h1.601v-.801ZM620.813 452.786h-.8v-3.227h.8v3.227Zm0-5.645h-.8v-3.226h.8v3.226Zm0-5.644h-.8v-3.227h.8v3.227Zm0-5.645h-.8v-3.226h.8v3.226Zm0-5.644h-.8v-3.227h.8v3.227Zm0-5.645h-.8v-3.226h.8v3.226Zm0-5.644h-.8v-3.227h.8v3.227Zm0-5.644h-.8v-3.227h.8v3.227Zm0-5.645h-.8v-3.227h.8v3.227Zm0-5.644h-.8v-3.227h.8v3.227Zm0-5.645h-.8v-3.226h.8v3.226Zm0-5.644h-.8v-3.227h.8v3.227Zm0-5.645h-.8v-3.226h.8v3.226Zm0-5.644h-.8v-3.227h.8v3.227Zm0-5.645h-.8v-3.226h.8v3.226Zm0-5.644h-.8v-3.227h.8v3.227Zm0-5.645h-.8v-3.226h.8v3.226Zm0-5.644h-.8v-3.227h.8v3.227Zm0-5.645h-.8v-3.226h.8v3.226Zm0-5.644h-.8v-3.227h.8v3.227Zm0-5.645h-.8v-3.226h.8v3.226Zm0-5.644h-.8v-3.227h.8v3.227Zm0-5.645h-.8v-3.226h.8v3.226Zm0-5.644h-.8v-3.227h.8v3.227Zm0-5.645h-.8v-2.514c0-.232 0-.464-.016-.688l.8-.04c.008.24.016.488.016.728v2.514Zm-1.105-5.54a14.879 14.879 0 0 0-.944-2.986l.736-.321a15.944 15.944 0 0 1 1.001 3.147l-.785.16h-.008Zm-2.057-5.06a14.761 14.761 0 0 0-1.954-2.45l.569-.56a15.58 15.58 0 0 1 2.057 2.586l-.672.432v-.008Zm-3.723-3.995a14.768 14.768 0 0 0-2.698-1.594l.336-.728a15.592 15.592 0 0 1 2.842 1.681l-.48.641Zm-4.908-2.402a14.865 14.865 0 0 0-3.09-.521l.048-.8c1.104.072 2.201.256 3.258.544l-.216.769v.008Zm-5.484-.553h-3.227v-.8h3.227v.8Zm-5.645 0h-3.226v-.8h3.226v.8Zm-5.644 0h-3.227v-.8h3.227v.8Zm-5.645 0h-3.226v-.8h3.226v.8Zm-5.644 0h-3.227v-.8h3.227v.8Zm-5.645 0h-3.226v-.8h3.226v.8Zm-5.644 0h-3.227v-.8h3.227v.8ZM620.813 455.22h-.8v1.601h.8v-1.601Z" fill="#FF9C00"/><path d="M562.503 300.889a1.503 1.503 0 0 1-1.505-1.505c0-.833.672-1.505 1.505-1.505.833 0 1.505.672 1.505 1.505 0 .833-.672 1.505-1.505 1.505ZM620.413 458.254a1.505 1.505 0 1 0 0-3.01 1.505 1.505 0 0 0 0 3.01Z" fill="#FF9C00"/></g><defs><clipPath id="a"><path fill="#fff" transform="translate(221 239)" d="M0 0h529v277H0z"/></clipPath></defs></svg>