<svg width="164" height="109" viewBox="0 0 164 109" fill="none" xmlns="http://www.w3.org/2000/svg">
<path d="M37.868 13L35.348 9.192C36.622 9.08 37.784 8.156 37.784 6.476C37.784 4.754 36.552 3.662 34.844 3.662H31.092V13H32.254V9.29H34.13L36.496 13H37.868ZM34.704 8.268H32.254V4.698H34.704C35.81 4.698 36.58 5.412 36.58 6.476C36.58 7.526 35.81 8.268 34.704 8.268ZM42.8153 13C45.7272 13 47.6033 10.998 47.6033 8.338C47.6033 5.692 45.7272 3.662 42.8153 3.662H39.6233V13H42.8153ZM42.8153 11.964H40.7853V4.698H42.8153C45.1253 4.698 46.3993 6.322 46.3993 8.338C46.3993 10.34 45.0833 11.964 42.8153 11.964ZM53.682 13C55.39 13 56.384 11.978 56.384 10.48C56.384 9.36 55.558 8.338 54.564 8.184C55.418 8.002 56.202 7.218 56.202 6.042C56.202 4.642 55.208 3.662 53.584 3.662H49.426V13H53.682ZM53.388 7.708H50.588V4.698H53.388C54.438 4.698 54.998 5.37 54.998 6.21C54.998 7.064 54.438 7.708 53.388 7.708ZM53.458 11.964H50.588V8.744H53.458C54.592 8.744 55.18 9.5 55.18 10.354C55.18 11.348 54.536 11.964 53.458 11.964ZM67.3727 13V3.662H65.7067L62.8087 10.858L59.8967 3.662H58.2307V13H59.3927V5.146L62.5707 13H63.0467L66.2107 5.146V13H67.3727ZM72.575 13.168C75.095 13.168 76.019 11.768 76.019 10.424C76.019 6.938 70.489 8.142 70.489 6.042C70.489 5.16 71.301 4.558 72.407 4.558C73.429 4.558 74.409 4.894 75.109 5.678L75.809 4.824C75.025 3.998 73.919 3.508 72.505 3.508C70.657 3.508 69.285 4.572 69.285 6.112C69.285 9.444 74.815 8.1 74.815 10.508C74.815 11.236 74.283 12.132 72.617 12.132C71.301 12.132 70.293 11.488 69.691 10.788L68.991 11.684C69.761 12.552 70.965 13.168 72.575 13.168Z" fill="#D9D9D9"/>
<path d="M60.624 42V32.662H59.826V40.572L53.974 32.662H53.162V42H53.96V33.978L59.84 42H60.624ZM65.7791 42.168C67.7811 42.168 69.0411 40.586 69.0411 38.612C69.0411 36.638 67.7811 35.07 65.7791 35.07C63.8051 35.07 62.5451 36.638 62.5451 38.612C62.5451 40.586 63.8051 42.168 65.7791 42.168ZM65.7791 41.51C64.2111 41.51 63.3151 40.124 63.3151 38.612C63.3151 37.114 64.2111 35.728 65.7791 35.728C67.3751 35.728 68.2571 37.114 68.2571 38.612C68.2571 40.124 67.3751 41.51 65.7791 41.51ZM73.8471 42.168C76.3671 42.168 77.1651 40.726 77.1651 39.522C77.1651 36.036 71.5651 37.352 71.5651 34.958C71.5651 33.95 72.5031 33.236 73.7491 33.236C74.7991 33.236 75.7511 33.6 76.4231 34.412L76.9551 33.824C76.2411 32.998 75.1771 32.508 73.7911 32.508C72.0971 32.508 70.7251 33.474 70.7251 35C70.7251 38.262 76.3251 36.834 76.3251 39.578C76.3251 40.376 75.7791 41.44 73.8751 41.44C72.5311 41.44 71.5511 40.768 70.9491 40.082L70.4311 40.684C71.1451 41.538 72.3071 42.168 73.8471 42.168ZM83.2699 42.168C84.3059 42.168 85.2019 41.874 85.9159 41.356L86.9099 42.378L87.4559 41.874L86.4759 40.852C87.3159 39.984 87.8059 38.752 87.8059 37.338C87.8059 34.608 85.9999 32.508 83.2699 32.508C80.5259 32.508 78.7339 34.608 78.7339 37.338C78.7339 40.068 80.5259 42.168 83.2699 42.168ZM83.2699 41.44C81.0159 41.44 79.5739 39.69 79.5739 37.338C79.5739 34.972 81.0159 33.236 83.2699 33.236C85.5099 33.236 86.9659 34.972 86.9659 37.338C86.9659 38.528 86.5879 39.55 85.9439 40.292L84.5019 38.78L83.9419 39.298L85.3839 40.796C84.8099 41.202 84.0819 41.44 83.2699 41.44ZM94.9133 42V41.272H90.3913V32.662H89.5793V42H94.9133Z" fill="#D9D9D9"/>
<path d="M2.96 28V18.662H2.162V28H2.96ZM8.10719 28.168C10.1092 28.168 11.3692 26.586 11.3692 24.612C11.3692 22.638 10.1092 21.07 8.10719 21.07C6.13319 21.07 4.87319 22.638 4.87319 24.612C4.87319 26.586 6.13319 28.168 8.10719 28.168ZM8.10719 27.51C6.53919 27.51 5.64319 26.124 5.64319 24.612C5.64319 23.114 6.53919 21.728 8.10719 21.728C9.70319 21.728 10.5852 23.114 10.5852 24.612C10.5852 26.124 9.70319 27.51 8.10719 27.51ZM14.7466 28V19.39H17.7986V18.662H10.8826V19.39H13.9346V28H14.7466ZM26.132 28.168C27.938 28.168 29.156 26.768 29.156 24.612C29.156 22.442 27.938 21.07 26.132 21.07C25.124 21.07 24.256 21.616 23.78 22.302V21.238H23.052V30.576H23.78V26.908C24.326 27.678 25.18 28.168 26.132 28.168ZM26.006 27.51C25.068 27.51 24.172 26.922 23.78 26.278V22.932C24.172 22.288 25.068 21.728 26.006 21.728C27.518 21.728 28.372 22.974 28.372 24.612C28.372 26.25 27.518 27.51 26.006 27.51ZM32.3113 28.168C32.8713 28.168 33.1933 28 33.4593 27.748L33.1793 27.188C33.0253 27.356 32.7453 27.51 32.4233 27.51C31.9473 27.51 31.7233 27.132 31.7233 26.586V18.662H30.9953V26.698C30.9953 27.622 31.4293 28.168 32.3113 28.168ZM40.3034 28V21.238H39.5614V22.33C39.0154 21.56 38.1754 21.07 37.2094 21.07C35.4174 21.07 34.1994 22.484 34.1994 24.626C34.1994 26.796 35.4174 28.168 37.2094 28.168C38.2174 28.168 39.0854 27.622 39.5614 26.922V28H40.3034ZM37.3354 27.51C35.8374 27.51 34.9694 26.264 34.9694 24.626C34.9694 22.988 35.8374 21.728 37.3354 21.728C38.2874 21.728 39.1694 22.316 39.5614 22.96V26.306C39.1694 26.95 38.2874 27.51 37.3354 27.51ZM44.0454 28.168C44.6054 28.168 44.9274 28 45.1934 27.748L44.9134 27.188C44.7594 27.356 44.4794 27.51 44.1574 27.51C43.6814 27.51 43.4574 27.132 43.4574 26.586V21.882H44.8294V21.238H43.4574V19.39H42.7154V21.238H41.5954V21.882H42.7154V26.698C42.7154 27.622 43.1494 28.168 44.0454 28.168ZM47.4109 28V21.882H48.7829V21.238H47.4109V20.622C47.4109 19.712 47.8029 19.18 48.5729 19.18C48.8389 19.18 49.0209 19.236 49.1889 19.334L49.4129 18.732C49.1469 18.578 48.8389 18.522 48.5029 18.522C47.3829 18.522 46.6689 19.292 46.6689 20.622V21.238H45.5489V21.882H46.6689V28H47.4109ZM52.992 28.168C54.994 28.168 56.254 26.586 56.254 24.612C56.254 22.638 54.994 21.07 52.992 21.07C51.018 21.07 49.758 22.638 49.758 24.612C49.758 26.586 51.018 28.168 52.992 28.168ZM52.992 27.51C51.424 27.51 50.528 26.124 50.528 24.612C50.528 23.114 51.424 21.728 52.992 21.728C54.588 21.728 55.47 23.114 55.47 24.612C55.47 26.124 54.588 27.51 52.992 27.51ZM58.862 28V23.072C59.17 22.484 60.094 21.868 60.78 21.868C60.92 21.868 61.018 21.868 61.144 21.896V21.098C60.206 21.098 59.436 21.644 58.862 22.4V21.238H58.134V28H58.862ZM71.3554 28V23.128C71.3554 21.77 70.7534 21.07 69.5074 21.07C68.5554 21.07 67.6454 21.714 67.2674 22.344C67.0994 21.686 66.5394 21.07 65.4894 21.07C64.5094 21.07 63.5854 21.826 63.3054 22.26V21.238H62.5774V28H63.3054V22.89C63.7114 22.274 64.5234 21.728 65.2514 21.728C66.2034 21.728 66.5954 22.316 66.5954 23.268V28H67.3374V22.876C67.7154 22.26 68.5414 21.728 69.2694 21.728C70.2214 21.728 70.6274 22.316 70.6274 23.268V28H71.3554Z" fill="#D9D9D9"/>
<path d="M7.21 59V57.964H2.254V54.744H7.112V53.708H2.254V50.698H7.21V49.662H1.092V59H7.21ZM15.8387 59L13.3187 55.192C14.5927 55.08 15.7547 54.156 15.7547 52.476C15.7547 50.754 14.5227 49.662 12.8147 49.662H9.0627V59H10.2247V55.29H12.1007L14.4667 59H15.8387ZM12.6747 54.268H10.2247V50.698H12.6747C13.7807 50.698 14.5507 51.412 14.5507 52.476C14.5507 53.526 13.7807 54.268 12.6747 54.268ZM18.756 59V55.29H21.346C23.208 55.29 24.272 54.002 24.272 52.476C24.272 50.95 23.222 49.662 21.346 49.662H17.594V59H18.756ZM21.206 54.254H18.756V50.698H21.206C22.312 50.698 23.068 51.426 23.068 52.476C23.068 53.526 22.312 54.254 21.206 54.254ZM25.5448 59.28L28.8628 49.382H28.0368L24.7188 59.28H25.5448ZM34.3773 59.168C36.0293 59.168 37.1493 58.384 37.9333 57.306L36.9533 56.774C36.4213 57.558 35.4413 58.132 34.3773 58.132C32.3333 58.132 30.7793 56.55 30.7793 54.338C30.7793 52.098 32.3333 50.544 34.3773 50.544C35.4413 50.544 36.4213 51.104 36.9533 51.902L37.9193 51.356C37.1773 50.292 36.0293 49.508 34.3773 49.508C31.6893 49.508 29.5753 51.468 29.5753 54.338C29.5753 57.208 31.6893 59.168 34.3773 59.168ZM46.1903 59L43.6703 55.192C44.9443 55.08 46.1063 54.156 46.1063 52.476C46.1063 50.754 44.8743 49.662 43.1663 49.662H39.4143V59H40.5763V55.29H42.4523L44.8183 59H46.1903ZM43.0263 54.268H40.5763V50.698H43.0263C44.1323 50.698 44.9023 51.412 44.9023 52.476C44.9023 53.526 44.1323 54.268 43.0263 54.268ZM57.0875 59V49.662H55.4215L52.5235 56.858L49.6115 49.662H47.9455V59H49.1075V51.146L52.2855 59H52.7615L55.9255 51.146V59H57.0875Z" fill="#D9D9D9"/>
<path d="M44.96 102V98.122H47.662C49.44 98.122 50.476 96.862 50.476 95.392C50.476 93.922 49.454 92.662 47.662 92.662H44.162V102H44.96ZM47.578 97.394H44.96V93.39H47.578C48.824 93.39 49.636 94.216 49.636 95.392C49.636 96.554 48.824 97.394 47.578 97.394ZM57.694 102V95.238H56.952V96.33C56.406 95.56 55.566 95.07 54.6 95.07C52.808 95.07 51.59 96.484 51.59 98.626C51.59 100.796 52.808 102.168 54.6 102.168C55.608 102.168 56.476 101.622 56.952 100.922V102H57.694ZM54.726 101.51C53.228 101.51 52.36 100.264 52.36 98.626C52.36 96.988 53.228 95.728 54.726 95.728C55.678 95.728 56.56 96.316 56.952 96.96V100.306C56.56 100.95 55.678 101.51 54.726 101.51ZM65.692 102V95.238H64.95V96.33C64.404 95.56 63.564 95.07 62.598 95.07C60.806 95.07 59.588 96.484 59.588 98.626C59.588 100.796 60.806 102.168 62.598 102.168C63.606 102.168 64.474 101.622 64.95 100.922V102H65.692ZM62.724 101.51C61.226 101.51 60.358 100.264 60.358 98.626C60.358 96.988 61.226 95.728 62.724 95.728C63.676 95.728 64.558 96.316 64.95 96.96V100.306C64.558 100.95 63.676 101.51 62.724 101.51ZM69.9801 102.168C71.6741 102.168 72.5141 101.272 72.5141 100.18C72.5141 97.576 68.2581 98.612 68.2581 96.918C68.2581 96.218 68.8881 95.686 69.9381 95.686C70.8341 95.686 71.5621 96.05 71.9541 96.582L72.3601 96.064C71.8701 95.518 71.1001 95.07 69.9381 95.07C68.4121 95.07 67.5301 95.91 67.5301 96.946C67.5301 99.382 71.8001 98.332 71.8001 100.18C71.8001 100.964 71.1281 101.552 69.9941 101.552C69.0421 101.552 68.2441 101.104 67.8101 100.558L67.3761 101.09C68.0481 101.846 68.8881 102.168 69.9801 102.168Z" fill="#D9D9D9"/>
<path d="M8.06 96.168C10.58 96.168 11.378 94.726 11.378 93.522C11.378 90.036 5.778 91.352 5.778 88.958C5.778 87.95 6.716 87.236 7.962 87.236C9.012 87.236 9.964 87.6 10.636 88.412L11.168 87.824C10.454 86.998 9.39 86.508 8.004 86.508C6.31 86.508 4.938 87.474 4.938 89C4.938 92.262 10.538 90.834 10.538 93.578C10.538 94.376 9.992 95.44 8.088 95.44C6.744 95.44 5.764 94.768 5.162 94.082L4.644 94.684C5.358 95.538 6.52 96.168 8.06 96.168ZM18.9948 96V89.238H18.2528V90.33C17.7068 89.56 16.8668 89.07 15.9008 89.07C14.1088 89.07 12.8908 90.484 12.8908 92.626C12.8908 94.796 14.1088 96.168 15.9008 96.168C16.9088 96.168 17.7768 95.622 18.2528 94.922V96H18.9948ZM16.0268 95.51C14.5288 95.51 13.6608 94.264 13.6608 92.626C13.6608 90.988 14.5288 89.728 16.0268 89.728C16.9788 89.728 17.8608 90.316 18.2528 90.96V94.306C17.8608 94.95 16.9788 95.51 16.0268 95.51ZM26.9928 96V89.238H26.2508V90.33C25.7048 89.56 24.8648 89.07 23.8988 89.07C22.1068 89.07 20.8888 90.484 20.8888 92.626C20.8888 94.796 22.1068 96.168 23.8988 96.168C24.9068 96.168 25.7748 95.622 26.2508 94.922V96H26.9928ZM24.0248 95.51C22.5268 95.51 21.6588 94.264 21.6588 92.626C21.6588 90.988 22.5268 89.728 24.0248 89.728C24.9768 89.728 25.8588 90.316 26.2508 90.96V94.306C25.8588 94.95 24.9768 95.51 24.0248 95.51ZM31.2809 96.168C32.9749 96.168 33.8149 95.272 33.8149 94.18C33.8149 91.576 29.5589 92.612 29.5589 90.918C29.5589 90.218 30.1889 89.686 31.2389 89.686C32.1349 89.686 32.8629 90.05 33.2549 90.582L33.6609 90.064C33.1709 89.518 32.4009 89.07 31.2389 89.07C29.7129 89.07 28.8309 89.91 28.8309 90.946C28.8309 93.382 33.1009 92.332 33.1009 94.18C33.1009 94.964 32.4289 95.552 31.2949 95.552C30.3429 95.552 29.5449 95.104 29.1109 94.558L28.6769 95.09C29.3489 95.846 30.1889 96.168 31.2809 96.168Z" fill="#D9D9D9"/>
<path d="M25.348 79.168C28.106 79.168 29.996 77.096 29.996 74.338C29.996 71.58 28.106 69.508 25.348 69.508C22.59 69.508 20.714 71.58 20.714 74.338C20.714 77.096 22.59 79.168 25.348 79.168ZM25.348 78.132C23.248 78.132 21.918 76.508 21.918 74.338C21.918 72.154 23.248 70.544 25.348 70.544C27.434 70.544 28.792 72.154 28.792 74.338C28.792 76.508 27.434 78.132 25.348 78.132ZM35.0871 79.168C36.8651 79.168 38.0971 77.796 38.0971 75.612C38.0971 73.414 36.8651 72.07 35.0871 72.07C34.1351 72.07 33.2951 72.56 32.8051 73.246V72.238H31.7551V81.576H32.8051V77.978C33.3651 78.72 34.1631 79.168 35.0871 79.168ZM34.8211 78.23C33.9951 78.23 33.1691 77.726 32.8051 77.138V74.086C33.1691 73.498 33.9951 73.008 34.8211 73.008C36.1791 73.008 36.9911 74.114 36.9911 75.612C36.9911 77.11 36.1791 78.23 34.8211 78.23ZM42.8328 79.168C43.9248 79.168 44.8348 78.79 45.5208 78.118L45.0168 77.432C44.4708 77.992 43.7008 78.3 42.9168 78.3C41.4608 78.3 40.5788 77.236 40.4948 75.962H45.9548V75.696C45.9548 73.666 44.7508 72.07 42.7068 72.07C40.7748 72.07 39.3748 73.652 39.3748 75.612C39.3748 77.726 40.8168 79.168 42.8328 79.168ZM44.9188 75.178H40.4808C40.5368 74.156 41.2508 72.938 42.6928 72.938C44.2328 72.938 44.9048 74.184 44.9188 75.178ZM53.2695 79V74.254C53.2695 72.784 52.5275 72.07 51.1275 72.07C50.1055 72.07 49.1815 72.644 48.7055 73.218V72.238H47.6555V79H48.7055V74.058C49.1115 73.512 49.8815 73.008 50.7075 73.008C51.6175 73.008 52.2335 73.372 52.2335 74.576V79H53.2695ZM62.2371 79C65.1491 79 67.0251 76.998 67.0251 74.338C67.0251 71.692 65.1491 69.662 62.2371 69.662H59.0451V79H62.2371ZM62.2371 77.964H60.2071V70.698H62.2371C64.5471 70.698 65.8211 72.322 65.8211 74.338C65.8211 76.34 64.5051 77.964 62.2371 77.964ZM74.7559 79V72.238H73.7059V73.26C73.1599 72.518 72.3339 72.07 71.4239 72.07C69.6599 72.07 68.4139 73.456 68.4139 75.626C68.4139 77.824 69.6599 79.168 71.4239 79.168C72.3759 79.168 73.2019 78.678 73.7059 77.992V79H74.7559ZM71.6899 78.23C70.3179 78.23 69.5059 77.124 69.5059 75.626C69.5059 74.128 70.3179 73.008 71.6899 73.008C72.5159 73.008 73.3419 73.512 73.7059 74.1V77.152C73.3419 77.74 72.5159 78.23 71.6899 78.23ZM78.5806 79.168C79.1826 79.168 79.5606 78.986 79.8266 78.734L79.5186 77.936C79.3786 78.09 79.1126 78.23 78.8046 78.23C78.3566 78.23 78.1326 77.866 78.1326 77.362V73.162H79.5046V72.238H78.1326V70.39H77.0686V72.238H75.9486V73.162H77.0686V77.586C77.0686 78.594 77.5726 79.168 78.5806 79.168ZM86.9238 79V72.238H85.8738V73.26C85.3278 72.518 84.5018 72.07 83.5918 72.07C81.8278 72.07 80.5818 73.456 80.5818 75.626C80.5818 77.824 81.8278 79.168 83.5918 79.168C84.5438 79.168 85.3698 78.678 85.8738 77.992V79H86.9238ZM83.8578 78.23C82.4858 78.23 81.6738 77.124 81.6738 75.626C81.6738 74.128 82.4858 73.008 83.8578 73.008C84.6838 73.008 85.5098 73.512 85.8738 74.1V77.152C85.5098 77.74 84.6838 78.23 83.8578 78.23Z" fill="#D9D9D9"/>
<path d="M76.96 63V53.662H76.162V63H76.96ZM82.1072 63.168C84.1092 63.168 85.3692 61.586 85.3692 59.612C85.3692 57.638 84.1092 56.07 82.1072 56.07C80.1332 56.07 78.8732 57.638 78.8732 59.612C78.8732 61.586 80.1332 63.168 82.1072 63.168ZM82.1072 62.51C80.5392 62.51 79.6432 61.124 79.6432 59.612C79.6432 58.114 80.5392 56.728 82.1072 56.728C83.7032 56.728 84.5852 58.114 84.5852 59.612C84.5852 61.124 83.7032 62.51 82.1072 62.51ZM88.7466 63V54.39H91.7986V53.662H84.8826V54.39H87.9346V63H88.7466Z" fill="#D9D9D9"/>
</svg>
