<svg width="972" height="516" fill="none" xmlns="http://www.w3.org/2000/svg"><path d="M10.999 0v516M48.999 0v516M86.999 0v516M124.999 0v516M162.999 0v516M200.999 0v516M238.999 0v516M276.999 0v516M314.999 0v516M352.999 0v516M390.999 0v516M428.999 0v516M466.999 0v516M504.999 0v516M542.999 0v516M580.999 0v516M618.999 0v516M656.999 0v516M694.999 0v516M732.999 0v516M770.999 0v516M808.999 0v516M846.999 0v516M884.999 0v516M922.999 0v516M960.999 0v516M0 505h972M0 467h972M0 429h972M0 391h972M0 353h972M0 315h972M0 277h972M0 239h972M0 201h972M0 163h972M0 125h972M0 87h972M0 49h972M0 11h972" stroke="#0F4465" stroke-miterlimit="10"/><circle cx="293.78" cy="283.709" r="5.674" transform="rotate(90 293.78 283.709)" stroke="#E7806A"/><path d="M299.269 283.709h19.209l10.291-10.291h43.232" stroke="#E7806A"/><path d="M651.21 298.116h16.029" stroke="#0F6195"/><path d="M648.466 412h5.488M641.605 412h2.745" stroke="#E7806A"/><path d="M599.001 263.814h51.513l16.393 16.393h32.059" stroke="#0F6195"/><path d="M624.5 313.183h80.222M653.883 284.457l-6.922-6.922h-9.472" stroke="#E7806A"/><path d="M669.849 333.764h18.215M692.801 333.764h8.743" stroke="#0F6195"/><circle cx="710.896" cy="312.523" r="5.674" transform="rotate(-90 710.896 312.523)" stroke="#E7806A"/><path d="M626.501 385.02h83.708M712.953 381.43a3.616 3.616 0 110 7.233 3.616 3.616 0 010-7.233zM605.5 432.582h86.872" stroke="#0F6195"/><path d="M671.791 412h27.441M658.07 412h9.605" stroke="#E7806A"/><circle r="7.733" transform="matrix(0 1 1 0 699.232 432.581)" stroke="#0F6195"/><circle cx="707.196" cy="280.279" r="7.733" transform="rotate(-90 707.196 280.279)" stroke="#0F6195"/><path d="M629.501 368.239h69.035l16.394-16.394h19.291" stroke="#0F6195"/><circle cx="741.767" cy="351.628" r="7.733" transform="rotate(-90 741.767 351.628)" stroke="#0F6195"/><path d="M359.852 411.59h-31.851" stroke="#E7806A"/><path d="M275.777 430.618h23.316l16.393 16.394h67.515" stroke="#0F6195"/><path d="M253.303 395.463h65.461l14.953-14.953H350" stroke="#E7806A"/><path d="M286.369 373.581h-18.215M299.093 373.581h-8.743" stroke="#0F6195"/><circle cx="250.122" cy="395.535" r="3.616" transform="rotate(90 250.122 395.535)" stroke="#E7806A"/><circle cx="267.545" cy="431.019" r="7.733" transform="rotate(90 267.545 431.019)" stroke="#0F6195"/><circle cx="227.233" cy="337.907" r="7.733" transform="rotate(90 227.233 337.907)" stroke="#0F6195"/><path d="M348.001 337.907h-8.942l-11.663 11.663h-45.622l-11.663-11.663h-34.645M297.896 309.093h33.616M337 309.093h13.721" stroke="#0F6195"/><path d="M304.07 333.791h13.721l6.861-6.861" stroke="#E7806A"/><circle cx="485.479" cy="353.434" r="117.934" fill="#103654" stroke="#0F6195"/><path d="M448.745 424.693l7.575 7.575h14.105l7.575-7.575v-69.001m-29.255 69.001h-14.106l-25.437-25.438v-25.011m39.543 50.449l12.891-12.891m-52.434-37.558l-5.785-5.786v-38.057l22.519-22.52m-16.734 66.363l12.801-12.801h12.636m-8.703-53.562l17.353 17.353v8.797m-17.353-26.15v-14.203l19.079-19.079h20.894L478 286.69v69.002m0 0h-15.339l-22.204 22.204v9.773M524.326 424.693l-7.575 7.575h-14.105l-7.575-7.575v-69.001m29.255 69.001h14.105l25.437-25.438v-25.011m-39.542 50.449l-12.892-12.891m52.434-37.558l5.786-5.786v-38.057l-22.52-22.52m16.734 66.363l-12.801-12.801h-12.636m8.703-53.562l-17.353 17.353v8.797m17.353-26.15v-14.203l-19.079-19.079h-20.894l-12.09 12.091v69.002m0 0h15.338l22.204 22.204v9.773" stroke="#0F6195"/></svg>