<svg width="87" height="85" fill="none" xmlns="http://www.w3.org/2000/svg"><path d="M11.274 42.196L1 56.566v14.37h88v-14.37l-10.274-14.37H11.274z" fill="#fff" stroke="#92C9EC"/><rect x="14.5" y=".5" width="51" height="32.174" rx="2.5" fill="#fff" stroke="#92C9EC"/><path stroke="#92C9EC" d="M17.975 6.537h43.776M17.975 12.569h43.776M18.5 19.6h6v15.084h-6z"/><path fill="#92C9EC" d="M30 23.121h7v16.084h-7z"/><rect x="29.5" y="15.579" width="51" height="48.259" rx="2.5" fill="#fff" stroke="#92C9EC"/><path stroke="#92C9EC" d="M33 20.611h44M33 27.648h44M33 34.685h44"/><mask id="a" fill="#fff"><path d="M73.432 46.722a9.994 9.994 0 00-4.901-3.128 9.95 9.95 0 00-5.804.137 10 10 0 00-4.75 3.355 10.096 10.096 0 00-.83 11.139 10.024 10.024 0 004.2 4.03 9.955 9.955 0 0011.03-1.356l-6.524-7.62 7.58-6.557z"/></mask><path d="M73.432 46.722a9.994 9.994 0 00-4.901-3.128 9.95 9.95 0 00-5.804.137 10 10 0 00-4.75 3.355 10.096 10.096 0 00-.83 11.139 10.024 10.024 0 004.2 4.03 9.955 9.955 0 0011.03-1.356l-6.524-7.62 7.58-6.557z" stroke="#92C9EC" stroke-width="2" mask="url(#a)"/><path d="M67.723 63.031c-5.353.956-10.468-2.632-11.42-8.02-.953-5.387 2.62-10.527 7.974-11.483 5.354-.956 10.469 2.632 11.42 8.02.953 5.388-2.62 10.527-7.974 11.483z" stroke="#92C9EC"/><rect x="10.5" y="30.658" width="52" height="40.216" rx="2.5" fill="#fff" stroke="#92C9EC"/><path stroke="#92C9EC" d="M14 36.695h44M14 43.732h44M14 50.769h44"/><path d="M1 88V57.803h33.056c0 5.705 4.6 9.99 10.274 9.99 5.674 0 10.274-4.285 10.274-9.99H89V88H1z" fill="#fff" stroke="#92C9EC"/></svg>