<svg width="281" height="242" viewBox="0 0 281 242" fill="none" xmlns="http://www.w3.org/2000/svg">
<circle cx="4.63976" cy="3.85912" r="3.38472" transform="rotate(90.1541 4.63976 3.85912)" fill="#E8E8E8"/>
<circle cx="78.1262" cy="106.447" r="3.38472" transform="rotate(90.1541 78.1262 106.447)" fill="#E8E8E8"/>
<circle cx="151.522" cy="74.0369" r="3.38472" transform="rotate(90.1541 151.522 74.0369)" fill="#E8E8E8"/>
<circle cx="186.219" cy="163.301" r="3.38472" transform="rotate(90.1541 186.219 163.301)" fill="#E8E8E8"/>
<circle cx="223.63" cy="67.4617" r="3.38472" transform="rotate(90.1541 223.63 67.4617)" fill="#E8E8E8"/>
<circle cx="277.207" cy="148.347" r="3.38472" transform="rotate(90.1541 277.207 148.347)" fill="#E8E8E8"/>
<circle cx="273.582" cy="237.837" r="3.38472" transform="rotate(90.1541 273.582 237.837)" fill="#E8E8E8"/>
<path d="M77.7049 106.072L4.63981 3.86013L151.13 74.2855M77.7049 106.072L151.13 74.2855M77.7049 106.072L186.181 163.711M151.13 74.2855L223.937 67.3128M151.13 74.2855L186.181 163.711M223.937 67.3128L277.207 148.516M223.937 67.3128L273.659 237.838L277.207 148.516M277.207 148.516L186.181 163.711" stroke="#E8E8E8"/>
</svg>
