<svg width="574" height="274" viewBox="0 0 574 274" fill="none" xmlns="http://www.w3.org/2000/svg">
<circle cx="88.1516" cy="250.814" r="5.31208" transform="rotate(89.9235 88.1516 250.814)" fill="#E8E8E8"/>
<circle cx="5.3914" cy="60.197" r="5.31208" transform="rotate(89.9235 5.3914 60.197)" fill="#E8E8E8"/>
<circle cx="187.601" cy="100.282" r="5.31208" transform="rotate(89.9235 187.601 100.282)" fill="#E8E8E8"/>
<circle cx="309.596" cy="202.431" r="5.31208" transform="rotate(89.9235 309.596 202.431)" fill="#E8E8E8"/>
<circle cx="383.654" cy="5.56572" r="5.31208" transform="rotate(89.9235 383.654 5.56572)" fill="#E8E8E8"/>
<circle cx="568.348" cy="52.3752" r="5.31208" transform="rotate(89.9235 568.348 52.3752)" fill="#E8E8E8"/>
<circle cx="483.212" cy="267.35" r="5.31208" transform="rotate(89.9235 483.212 267.35)" fill="#E8E8E8"/>
<path d="M309.163 202.353L187.166 99.8971M309.163 202.353L383.727 5.56699M309.163 202.353L86.8876 251.822M309.163 202.353L568.348 51.9938M309.163 202.353L483.601 267.348L568.348 51.9938M187.166 99.8971L383.727 5.56699M187.166 99.8971L86.8876 251.822M187.166 99.8971L5.39062 59.5197L86.8876 251.822M383.727 5.56699L568.348 51.9938" stroke="#E8E8E8"/>
</svg>
