<svg xmlns="http://www.w3.org/2000/svg" width="144" height="144" fill="none" viewBox="0 0 144 144"><path fill="#fff" fill-rule="evenodd" d="M72 134A64 64 0 1 0 72 6a64 64 0 0 0 0 128z" clip-rule="evenodd" filter="url(#filter0_d)"/><path fill="#5485B7" d="M72.05 107.1a37.05 37.05 0 1 0 0-74.1 37.05 37.05 0 0 0 0 74.1z"/><path fill="#97C4EA" d="M72.05 94.17a24.12 24.12 0 1 0 0-48.24 24.12 24.12 0 0 0 0 48.24z"/><path fill="#E2F1FC" d="M72.05 82.14a12.09 12.09 0 1 0 0-24.18 12.09 12.09 0 0 0 0 24.18z"/><path fill="#253854" d="M72.05 72.58a2.53 2.53 0 1 0 0-5.06 2.53 2.53 0 0 0 0 5.06z"/><path stroke="#253854" stroke-miterlimit="10" d="M72.05 69.87l46.68-46.69M118.73 23.18h6.83l-10.12 10.13h-6.83l10.12-10.13z"/><path stroke="#253854" stroke-miterlimit="10" d="M108.61 33.31v-7.18L118.73 16v7.18l-10.12 10.13z"/><defs><filter id="filter0_d" width="144" height="144" x="0" y="0" color-interpolation-filters="sRGB" filterUnits="userSpaceOnUse"><feFlood flood-opacity="0" result="BackgroundImageFix"/><feColorMatrix in="SourceAlpha" values="0 0 0 0 0 0 0 0 0 0 0 0 0 0 0 0 0 0 127 0"/><feOffset dy="2"/><feGaussianBlur stdDeviation="4"/><feColorMatrix values="0 0 0 0 0 0 0 0 0 0 0 0 0 0 0 0 0 0 0.110705 0"/><feBlend in2="BackgroundImageFix" result="effect1_dropShadow"/><feBlend in="SourceGraphic" in2="effect1_dropShadow" result="shape"/></filter></defs></svg>