<svg xmlns="http://www.w3.org/2000/svg" width="144" height="144" fill="none" viewBox="0 0 144 144"><path fill="#fff" fill-rule="evenodd" d="M72 134A64 64 0 1 0 72 6a64 64 0 0 0 0 128z" clip-rule="evenodd" filter="url(#filter0_d)"/><path fill="#C5E2F5" fill-rule="evenodd" d="M71.49 80.64L51.5 67.07l-3.11 2.11 23.09 15.7L94.8 68.95l-3.1-2.12-20.22 13.81z" clip-rule="evenodd"/><path fill="#DEEFF9" fill-rule="evenodd" d="M71.49 88.4L51.5 74.82l-3.11 2.12 23.09 15.7L94.8 76.7l-3.1-2.12L71.48 88.4z" clip-rule="evenodd"/><path fill="#92C9EC" fill-rule="evenodd" d="M71.49 76.98L49.63 62.1l21.86-14.88 21.85 14.9L71.5 76.97z" clip-rule="evenodd"/><path fill="#103654" fill-rule="evenodd" d="M69.98 32.83v8.22h4.1v-8.22h3.09l-5.14-7.2-5.14 7.2h3.09zM109.02 67.76h-8.22v4.1h8.22v3.1l7.2-5.15-7.2-5.13v3.08zM35.04 71.87h8.22v-4.11h-8.22v-3.08l-7.19 5.13 7.2 5.14v-3.08zM74.09 106.8v-8.22h-4.11v8.22h-3.09l5.14 7.2 5.14-7.2h-3.08z" clip-rule="evenodd"/><defs><filter id="filter0_d" width="144" height="144" x="0" y="0" color-interpolation-filters="sRGB" filterUnits="userSpaceOnUse"><feFlood flood-opacity="0" result="BackgroundImageFix"/><feColorMatrix in="SourceAlpha" values="0 0 0 0 0 0 0 0 0 0 0 0 0 0 0 0 0 0 127 0"/><feOffset dy="2"/><feGaussianBlur stdDeviation="4"/><feColorMatrix values="0 0 0 0 0 0 0 0 0 0 0 0 0 0 0 0 0 0 0.110705 0"/><feBlend in2="BackgroundImageFix" result="effect1_dropShadow"/><feBlend in="SourceGraphic" in2="effect1_dropShadow" result="shape"/></filter></defs></svg>