<svg xmlns="http://www.w3.org/2000/svg" width="144" height="144" fill="none" viewBox="0 0 144 144"><path fill="#fff" fill-rule="evenodd" d="M72 134A64 64 0 1 0 72 6a64 64 0 0 0 0 128z" clip-rule="evenodd" filter="url(#filter0_d)"/><path fill="#fff" d="M43 96.5v-49h58v49l-1.5 2h-54L44 98l-1-1.5z"/><path fill="#92C9EC" fill-rule="evenodd" d="M42 44a4 4 0 0 1 4-4h52a4 4 0 0 1 4 4v52a4 4 0 0 1-4 4H46a4 4 0 0 1-4-4V44zm2 4v48c0 1.1.9 2 2 2h52a2 2 0 0 0 2-2V48H44z" clip-rule="evenodd"/><rect width="4" height="4" x="47" y="42" fill="#fff" rx="2"/><rect width="4" height="4" x="53" y="42" fill="#fff" rx="2"/><rect width="4" height="4" x="59" y="42" fill="#fff" rx="2"/><path fill="#103654" d="M89.59 80.87l-1.84-.96.62-1.98a.76.76 0 0 0-.19-.77l-1.34-1.34a.76.76 0 0 0-.77-.2l-1.98.63-.96-1.84a.76.76 0 0 0-.68-.41h-1.9a.77.77 0 0 0-.68.41l-.96 1.84-1.98-.62a.74.74 0 0 0-.76.19l-1.35 1.34c-.2.2-.28.5-.2.77l.63 1.98-1.84.96a.76.76 0 0 0-.41.68v1.9c0 .28.16.55.41.68l1.84.96-.62 1.97a.75.75 0 0 0 .19.77l1.35 1.35c.2.2.5.28.76.2l1.98-.63.96 1.84c.13.25.4.41.68.41h1.9c.3 0 .55-.16.68-.41l.96-1.84 1.98.62c.27.09.56.02.77-.19l1.34-1.35c.2-.2.28-.5.2-.77l-.63-1.97 1.84-.96c.25-.13.41-.4.41-.68v-1.9a.76.76 0 0 0-.41-.68zm-8.09 5.08a3.46 3.46 0 1 1 0-6.92 3.46 3.46 0 0 1 0 6.92zM77 72.49l.96-2.66a.75.75 0 0 0-.16-.76l-2.28-2.5 2.05-2.68c.17-.23.2-.52.09-.78l-1.2-2.56a.76.76 0 0 0-.66-.44l-3.37-.14-.45-3.35a.75.75 0 0 0-.49-.6l-2.66-.97a.76.76 0 0 0-.77.15l-2.48 2.29-2.7-2.06a.74.74 0 0 0-.77-.08l-2.56 1.2a.74.74 0 0 0-.43.64l-.15 3.39-3.35.44a.76.76 0 0 0-.6.5l-.97 2.65c-.1.27-.04.56.15.77l2.29 2.49-2.06 2.68a.76.76 0 0 0-.08.78l1.2 2.56c.12.26.37.42.65.44l3.38.14.44 3.36c.04.28.23.51.5.6l2.65.96a.77.77 0 0 0 .77-.15l2.49-2.29 2.69 2.06c.22.17.52.2.77.08l2.57-1.2a.74.74 0 0 0 .43-.64l.14-3.38 3.35-.45a.75.75 0 0 0 .61-.5zM68 71.29a4.74 4.74 0 1 1-4-8.58 4.74 4.74 0 0 1 4 8.59z"/><defs><filter id="filter0_d" width="144" height="144" x="0" y="0" color-interpolation-filters="sRGB" filterUnits="userSpaceOnUse"><feFlood flood-opacity="0" result="BackgroundImageFix"/><feColorMatrix in="SourceAlpha" values="0 0 0 0 0 0 0 0 0 0 0 0 0 0 0 0 0 0 127 0"/><feOffset dy="2"/><feGaussianBlur stdDeviation="4"/><feColorMatrix values="0 0 0 0 0 0 0 0 0 0 0 0 0 0 0 0 0 0 0.110705 0"/><feBlend in2="BackgroundImageFix" result="effect1_dropShadow"/><feBlend in="SourceGraphic" in2="effect1_dropShadow" result="shape"/></filter></defs></svg>