<svg xmlns="http://www.w3.org/2000/svg" width="144" height="144" fill="none" viewBox="0 0 144 144"><path fill="#fff" fill-rule="evenodd" d="M72 134A64 64 0 1 0 72 6a64 64 0 0 0 0 128z" clip-rule="evenodd" filter="url(#filter0_d)"/><path fill="#93C9EC" fill-rule="evenodd" d="M92.54 73.79c0 3.9-9.08 7.05-20.29 7.05-11.2 0-20.29-3.16-20.29-7.05 0-3.9 9.08-7.06 20.3-7.06 11.2 0 20.28 3.16 20.28 7.06z" clip-rule="evenodd"/><path fill="#93C9EC" fill-rule="evenodd" d="M72.25 84.5c-10.82 0-19.68-2.97-20.24-6.7h-.05v6.77c0 3.9 9.08 7.05 20.3 7.05 11.2 0 20.28-3.16 20.28-7.05V77.8h-.08c-.52 3.74-9.35 6.7-20.2 6.7z" clip-rule="evenodd"/><path fill="#93C9EC" fill-rule="evenodd" d="M72.25 95.4c-10.82 0-19.68-2.96-20.24-6.69h-.05v6.77c0 3.9 9.08 7.05 20.3 7.05 11.2 0 20.28-3.16 20.28-7.05V88.7h-.08c-.52 3.73-9.35 6.7-20.2 6.7z" clip-rule="evenodd"/><path fill="#93C9EC" fill-rule="evenodd" d="M72.25 105.57c-10.82 0-19.68-2.96-20.24-6.69h-.05v6.77c0 3.9 9.08 7.05 20.3 7.05 11.2 0 20.28-3.16 20.28-7.06v-6.76h-.08c-.52 3.73-9.35 6.7-20.2 6.7z" clip-rule="evenodd"/><path fill="#93C9EC" d="M90.68 27H52.33c-1 0-1.8.8-1.8 1.8v25.17c0 1 .8 1.8 1.8 1.8h38.35c1 0 1.8-.8 1.8-1.8V28.8c0-1-.8-1.8-1.8-1.8z"/><path stroke="#283B48" stroke-linejoin="round" stroke-width="1.77" d="M53.99 31.2v12.33m0 0v8.23h34.3m-34.3-8.23l5.71-3.29 6.29 3.3 5.15-11.5 5.71 11.5 5.72-7.4 5.71 7.4"/><path fill="#fff" stroke="#283B48" stroke-width="1.77" d="M85.84 52.9a4.93 4.93 0 1 0 0-9.86 4.93 4.93 0 0 0 0 9.87z"/><path stroke="#283B48" stroke-width="1.77" d="M88.76 51.76l6.4 6.4"/><path stroke="#283B48" stroke-dasharray="6 5" stroke-linejoin="round" stroke-width="2" d="M101.37 83.82c4.38-7.19 10.08-21.32-.2-36.28M42.58 84c-4.38-7.19-10.08-21.33.2-36.29"/><defs><filter id="filter0_d" width="144" height="144" x="0" y="0" color-interpolation-filters="sRGB" filterUnits="userSpaceOnUse"><feFlood flood-opacity="0" result="BackgroundImageFix"/><feColorMatrix in="SourceAlpha" values="0 0 0 0 0 0 0 0 0 0 0 0 0 0 0 0 0 0 127 0"/><feOffset dy="2"/><feGaussianBlur stdDeviation="4"/><feColorMatrix values="0 0 0 0 0 0 0 0 0 0 0 0 0 0 0 0 0 0 0.110705 0"/><feBlend in2="BackgroundImageFix" result="effect1_dropShadow"/><feBlend in="SourceGraphic" in2="effect1_dropShadow" result="shape"/></filter></defs></svg>