<svg xmlns="http://www.w3.org/2000/svg" width="144" height="144" fill="none" viewBox="0 0 144 144"><path fill="#fff" fill-rule="evenodd" d="M72 134A64 64 0 1 0 72 6a64 64 0 0 0 0 128z" clip-rule="evenodd" filter="url(#filter0_d)"/><path fill="#DEEFF9" fill-rule="evenodd" d="M68.57 46H62a4 4 0 0 0-4 4v57a4 4 0 0 0 4 4h41a4 4 0 0 0 4-4V50a4 4 0 0 0-4-4h-5.71c.06.16.11.33.15.5l.1 1.75v2c0 .53-.4.88-1.03.88H69.34c-.61 0-1.02-.35-1.02-.87v-2.01l.1-1.75c.04-.17.09-.34.15-.5z" clip-rule="evenodd"/><path fill="#C5E2F5" fill-rule="evenodd" d="M61.57 41H55a4 4 0 0 0-4 4v57a4 4 0 0 0 4 4h41a4 4 0 0 0 4-4V45a4 4 0 0 0-4-4h-5.71c.06.16.11.33.15.5l.1 1.75v2c0 .53-.4.88-1.03.88H62.34c-.61 0-1.02-.35-1.02-.87v-2.01l.1-1.75c.04-.17.09-.34.15-.5z" clip-rule="evenodd"/><path fill="#92C9EC" fill-rule="evenodd" d="M53.42 35.86h-6.57a4 4 0 0 0-4 4v57a4 4 0 0 0 4 4h41a4 4 0 0 0 4-4v-57a4 4 0 0 0-4-4h-5.7c.06.16.1.33.15.5l.1 1.74v2.01c0 .53-.41.88-1.03.88H54.2c-.62 0-1.03-.35-1.03-.88v-2l.1-1.75c.04-.17.1-.34.15-.5z" clip-rule="evenodd"/><path fill="#283B48" fill-rule="evenodd" d="M73.1 34.32l-.3-1.47c-.33-1.51-2.04-3-4.45-3-2.4 0-4.11 1.49-4.43 3l-.32 1.47h-5.83c-1.63 0-2.72.97-3 1.93l-.1 1.67v1.22h27.36v-1.22l-.1-1.67c-.27-.96-1.36-1.93-2.99-1.93h-5.83zm10.65 1.65c-.44-2-2.4-3.51-4.8-3.51h-4.37C74.03 29.9 71.4 28 68.35 28c-3.05 0-5.67 1.9-6.22 4.46h-4.36c-2.4 0-4.37 1.52-4.8 3.51l-.12 1.9v2.18c0 .57.44.95 1.1.95h28.81c.66 0 1.1-.38 1.1-.95v-2.18l-.11-1.9z" clip-rule="evenodd"/><path fill="#fff" d="M51.5 82.85l5.14-5.14-1.42-1.42-5.14 5.15 1.41 1.41zm5.14-1.41l-5.15-5.15-1.41 1.42 5.14 5.14 1.42-1.41zM53.03 53.86l-.64.77a1 1 0 0 0 1.44-.18l-.8-.6zm-3.74-1.8l3.1 2.57 1.27-1.54-3.1-2.57-1.27 1.54zm4.54 2.39l3.76-5.15-1.61-1.18-3.76 5.15 1.61 1.18zM53.03 63.29l-.64.77a1 1 0 0 0 1.44-.18l-.8-.6zm-3.74-1.8l3.1 2.57 1.27-1.54-3.1-2.58-1.27 1.54zm4.54 2.39l3.76-5.15-1.61-1.18-3.76 5.15 1.61 1.18zM53.03 72.71l-.64.77a1 1 0 0 0 1.44-.18l-.8-.59zm-3.74-1.8l3.1 2.57 1.27-1.54-3.1-2.57-1.27 1.54zm4.54 2.4l3.76-5.15-1.61-1.18-3.76 5.14 1.61 1.18z"/><path stroke="#fff" stroke-width="2" d="M62.79 79.57h23.14M62.79 70.14h23.14M62.79 60.71h23.14M62.79 51.29h23.14"/><defs><filter id="filter0_d" width="144" height="144" x="0" y="0" color-interpolation-filters="sRGB" filterUnits="userSpaceOnUse"><feFlood flood-opacity="0" result="BackgroundImageFix"/><feColorMatrix in="SourceAlpha" values="0 0 0 0 0 0 0 0 0 0 0 0 0 0 0 0 0 0 127 0"/><feOffset dy="2"/><feGaussianBlur stdDeviation="4"/><feColorMatrix values="0 0 0 0 0 0 0 0 0 0 0 0 0 0 0 0 0 0 0.110705 0"/><feBlend in2="BackgroundImageFix" result="effect1_dropShadow"/><feBlend in="SourceGraphic" in2="effect1_dropShadow" result="shape"/></filter></defs></svg>