<svg xmlns="http://www.w3.org/2000/svg" width="144" height="144" fill="none" viewBox="0 0 144 144"><path fill="#fff" fill-rule="evenodd" d="M72 134A64 64 0 1 0 72 6a64 64 0 0 0 0 128z" clip-rule="evenodd" filter="url(#filter0_d)"/><path fill="#98C4E8" fill-rule="evenodd" d="M50.4 79.6c1.4-2.08 4.8-3.66 7.7-4.47 2.9-.81 3.82-2.62 3.62-3.46-.2-.84-.84-.58-1.49-1.77-.54-1.02-.92-3.41-.92-3.41s-1.32-.43-1.46-2.4c-.15-1.97 0-2.7.5-2.93.5-.23.7-.2.7-.2s-.33-2.8-.33-3.39c0-.74-.07-1.47.14-2.23.76-2.72 3.92-3.87 7.58-3.82 3.66.06 3.71 1.16 4.47 1.97.76.81 1.27.18 1.95 1.42.4.75.01 4.31.01 4.31-.12.99-.26 1.74-.26 1.74s.2-.03.7.2c.5.24.65.96.5 2.93-.14 1.97-1.46 2.4-1.46 2.4s-.38 2.39-.93 3.4c-.64 1.2-1.27.94-1.48 1.78-.2.84.72 2.65 3.62 3.46 2.9.8 6.3 2.39 7.7 4.47 1.07 1.58.9 4.24.76 5.44-.05.36-5.79 2.13-16.33 2.13-10.53 0-16-1.77-16.05-2.13-.14-1.2-.3-3.86.76-5.44z" clip-rule="evenodd"/><path fill="#5586B5" fill-rule="evenodd" d="M64.72 84.97c-1.81-2.68-6.18-4.71-9.89-5.75-3.71-1.04-4.9-3.36-4.64-4.44.26-1.07 1.08-.74 1.9-2.28.7-1.3 1.18-4.37 1.18-4.37s1.7-.56 1.89-3.08c.18-2.53 0-3.46-.64-3.76-.64-.3-.9-.26-.9-.26s.41-3.6.41-4.35c0-.95.1-1.89-.18-2.86-.97-3.5-5.02-4.98-9.72-4.9-4.7.07-4.77 1.48-5.74 2.52-.98 1.04-1.63.23-2.5 1.82-.52.97-.02 5.54-.02 5.54.16 1.27.34 2.23.34 2.23s-.26-.03-.9.26c-.64.3-.83 1.23-.64 3.76.18 2.52 1.88 3.08 1.88 3.08s.48 3.06 1.18 4.37c.82 1.54 1.64 1.2 1.9 2.28.27 1.08-.92 3.4-4.64 4.44-3.71 1.04-8.08 3.07-9.89 5.75-1.36 2.02-1.15 5.43-.96 6.98.05.45 7.42 2.74 20.95 2.74 13.52 0 20.54-2.29 20.6-2.74.18-1.55.4-4.96-.97-6.98z" clip-rule="evenodd"/><path fill="#103654" d="M72 21.09c-8.02 0-14.54 6-14.54 13.38 0 2.75.92 5.4 2.65 7.67a.8.8 0 0 1 .11.78l-2.2 6 6.84-2.4a.82.82 0 0 1 .76-.04A15.4 15.4 0 0 0 72 47.85c8.02 0 14.53-6 14.53-13.38 0-7.38-6.51-13.38-14.53-13.38zm-7.8 15.33c-1.1 0-2-.88-2-1.97 0-1.1.9-1.98 2-1.98s2 .89 2 1.98c0 1.09-.9 1.97-2 1.97zm7.8 0c-1.11 0-2-.88-2-1.97 0-1.1.89-1.98 2-1.98 1.1 0 2 .89 2 1.98 0 1.09-.9 1.97-2 1.97zm7.78 0c-1.1 0-2-.88-2-1.97 0-1.1.9-1.98 2-1.98 1.11 0 2 .89 2 1.98 0 1.09-.89 1.97-2 1.97z"/><path fill="#98C4E8" fill-rule="evenodd" d="M91.79 79.6c1.4-2.08 4.8-3.66 7.7-4.47 2.9-.81 3.82-2.62 3.62-3.46-.2-.84-.84-.58-1.49-1.77-.54-1.02-.92-3.41-.92-3.41s-1.32-.43-1.46-2.4c-.15-1.97 0-2.7.5-2.93.5-.23.7-.2.7-.2s-.33-2.8-.33-3.39c0-.74-.07-1.47.14-2.23.76-2.72 3.92-3.87 7.58-3.82 3.66.06 3.71 1.16 4.47 1.97.76.81 1.27.18 1.95 1.42.4.75.01 4.31.01 4.31-.12.99-.26 1.74-.26 1.74s.2-.03.7.2c.5.24.65.96.5 2.93-.14 1.97-1.46 2.4-1.46 2.4s-.38 2.39-.93 3.4c-.64 1.2-1.27.94-1.48 1.78-.2.84.72 2.65 3.62 3.46 2.9.8 6.3 2.39 7.7 4.47 1.06 1.58.9 4.24.76 5.44-.05.36-5.79 2.13-16.33 2.13s-16-1.77-16.05-2.13c-.14-1.2-.3-3.86.76-5.44z" clip-rule="evenodd"/><path fill="#fff" d="M93.47 75.81c1.57.44 3.28 1.09 4.83 1.93 1.51.83 3.03 1.93 4 3.35a7.93 7.93 0 0 1 1.16 3.84c.09 1.18 0 2.29-.08 2.96a2.06 2.06 0 0 1-.92 1.49 3.3 3.3 0 0 1-.52.28c-.3.14-.66.27-1.05.39-.8.24-1.94.51-3.38.77-2.88.5-7.06.96-12.44.96s-9.5-.45-12.32-.96c-1.4-.26-2.5-.53-3.3-.78a8.33 8.33 0 0 1-1.02-.39 3.26 3.26 0 0 1-.51-.3 2.07 2.07 0 0 1-.88-1.46 15.9 15.9 0 0 1-.1-2.96 7.92 7.92 0 0 1 1.18-3.84 11.3 11.3 0 0 1 3.99-3.35c1.54-.84 3.26-1.5 4.83-1.93a4.18 4.18 0 0 0 1.93-1.03 4.38 4.38 0 0 1-1.02-1.33 11.07 11.07 0 0 1-.97-3.14 4.97 4.97 0 0 1-1.65-3.46c-.08-1-.1-1.9.03-2.62.1-.6.38-1.35 1.02-1.9v-.02c-.08-.72-.18-1.7-.18-2.12v-.29a8.46 8.46 0 0 1 .21-2.48 6.64 6.64 0 0 1 3.78-4.23c1.7-.8 3.73-1.09 5.75-1.06 1.98.03 3.38.34 4.42 1.05.52.35.86.75 1.1 1.05l.25.34.09.11h.02l.02.01.16.05c.28.1.7.25 1.12.6.41.34.72.76.97 1.23.2.38.3.78.33 1.02.05.28.07.56.08.83.03.53.01 1.12-.01 1.63a35.53 35.53 0 0 1-.14 1.83l-.06.5c.6.54.85 1.26.96 1.85.13.73.1 1.62.03 2.62a4.97 4.97 0 0 1-1.65 3.46 11.05 11.05 0 0 1-.97 3.14 4.87 4.87 0 0 1-1.03 1.33c.3.3.89.73 1.94 1.03z"/><path fill="#98C4E8" fill-rule="evenodd" d="M69.77 82.21c1.41-2.08 4.81-3.66 7.7-4.47 2.9-.81 3.83-2.62 3.62-3.46-.2-.84-.84-.58-1.48-1.78-.55-1.02-.92-3.4-.92-3.4s-1.32-.44-1.47-2.4c-.14-1.97 0-2.7.5-2.93.5-.23.7-.2.7-.2s-.32-2.8-.32-3.39c0-.74-.07-1.47.14-2.23.76-2.72 3.91-3.88 7.57-3.82 3.66.06 3.72 1.16 4.48 1.97.76.81 1.26.17 1.94 1.42.4.75.01 4.31.01 4.31-.12.99-.26 1.74-.26 1.74s.2-.03.7.2c.5.23.65.96.5 2.93-.14 1.96-1.46 2.4-1.46 2.4s-.37 2.38-.92 3.4c-.64 1.2-1.28.94-1.48 1.78-.21.84.72 2.65 3.61 3.46 2.9.8 6.3 2.39 7.7 4.47 1.07 1.58.9 4.24.76 5.44-.04.36-5.78 2.13-16.32 2.13s-16-1.77-16.05-2.13c-.15-1.2-.31-3.86.75-5.44z" clip-rule="evenodd"/><defs><filter id="filter0_d" width="144" height="144" x="0" y="0" color-interpolation-filters="sRGB" filterUnits="userSpaceOnUse"><feFlood flood-opacity="0" result="BackgroundImageFix"/><feColorMatrix in="SourceAlpha" values="0 0 0 0 0 0 0 0 0 0 0 0 0 0 0 0 0 0 127 0"/><feOffset dy="2"/><feGaussianBlur stdDeviation="4"/><feColorMatrix values="0 0 0 0 0 0 0 0 0 0 0 0 0 0 0 0 0 0 0.110705 0"/><feBlend in2="BackgroundImageFix" result="effect1_dropShadow"/><feBlend in="SourceGraphic" in2="effect1_dropShadow" result="shape"/></filter></defs></svg>