<svg width="86" height="85" fill="none" xmlns="http://www.w3.org/2000/svg"><path d="M51.14 86.91A43.5 43.5 0 015.1 63.47M15.405 64.39L4.709 63.156 3.475 73.852M1.09 51.14A43.5 43.5 0 0124.53 5.1" stroke="#92C9EC"/><path d="M23.61 15.405l1.234-10.696-10.696-1.234M36.86 1.09A43.5 43.5 0 0182.9 24.53" stroke="#92C9EC"/><path d="M72.596 23.61l10.695 1.234 1.234-10.696M86.91 36.86A43.5 43.5 0 0163.47 82.9" stroke="#92C9EC"/><path d="M64.39 72.596L63.156 83.29l10.696 1.234" stroke="#92C9EC"/><path d="M11.136 46.989a33 33 0 018.645-25.405M41.011 11.136a33 33 0 0125.405 8.645M76.864 41.01a33 33 0 01-8.645 25.406M46.99 76.864a32.998 32.998 0 01-25.406-8.645" stroke="#92C9EC" stroke-linecap="round" stroke-dasharray="6 9"/></svg>