<svg width="141" height="141" viewBox="0 0 141 141" fill="none" xmlns="http://www.w3.org/2000/svg">
<path d="M32.396 96.5475L70.8893 69.7937M70.8893 69.7937L32.396 29.0548M70.8893 69.7937L83.5199 27.2307M70.8893 69.7937L109.082 74.354M70.8893 69.7937L92.2411 106.276" stroke="#70B1E0"/>
<path d="M92.0654 69.113C92.0654 80.2394 83.0456 89.2592 71.9192 89.2592C60.7927 89.2592 51.7729 80.2394 51.7729 69.113C51.7729 57.9866 60.7927 48.9668 71.9192 48.9668C83.0456 48.9668 92.0654 57.9866 92.0654 69.113Z" fill="white" stroke="#70B1E0"/>
<path d="M56.6982 66.5976C57.0571 64.4256 57.8767 62.3556 59.102 60.5267C60.3273 58.6977 61.9298 57.1522 63.8019 55.9939C65.6739 54.8356 67.7722 54.0914 69.9558 53.8113C72.1393 53.5312 74.3575 53.7216 76.4613 54.3699" stroke="#70B1E0"/>
<path d="M86.4709 74.2346C85.5475 76.8582 83.9321 79.1833 81.7955 80.9639C79.6589 82.7446 77.0807 83.9145 74.3336 84.3499C71.5866 84.7852 68.773 84.4699 66.1905 83.4371C63.608 82.4044 61.3528 80.6927 59.6634 78.4832" stroke="#70B1E0"/>
<path d="M86.703 65.7942C87.0438 67.6027 87.0555 69.458 86.7373 71.2707" stroke="#70B1E0"/>
<path d="M85.2086 61.5473C85.7239 62.4525 86.1454 63.408 86.4665 64.3988" stroke="#70B1E0"/>
<path d="M94.4247 26.6408C94.4247 32.5546 89.6306 37.3487 83.7167 37.3487C77.8029 37.3487 73.0088 32.5546 73.0088 26.6408C73.0088 20.727 77.8029 15.9329 83.7167 15.9329C89.6306 15.9329 94.4247 20.727 94.4247 26.6408Z" fill="white" stroke="#70B1E0"/>
<path d="M121.56 73.8322C121.56 79.746 116.766 84.5401 110.852 84.5401C104.938 84.5401 100.144 79.746 100.144 73.8322C100.144 67.9184 104.938 63.1243 110.852 63.1243C116.766 63.1243 121.56 67.9184 121.56 73.8322Z" fill="white" stroke="#70B1E0"/>
<path d="M105.043 106.866C105.043 113.432 99.7202 118.754 93.1548 118.754C86.5894 118.754 81.2671 113.432 81.2671 106.866C81.2671 100.301 86.5894 94.9784 93.1548 94.9784C99.7202 94.9784 105.043 100.301 105.043 106.866Z" fill="white" stroke="#70B1E0"/>
<path d="M46.0536 96.8378C46.0536 104.381 39.9389 110.495 32.3962 110.495C24.8534 110.495 18.7388 104.381 18.7388 96.8378C18.7388 89.295 24.8534 83.1804 32.3962 83.1804C39.9389 83.1804 46.0536 89.295 46.0536 96.8378Z" fill="white" stroke="#70B1E0"/>
<path d="M46.0535 30.1801C46.0535 37.397 40.2029 43.2476 32.986 43.2476C25.769 43.2476 19.9185 37.397 19.9185 30.1801C19.9185 22.9631 25.769 17.1125 32.986 17.1125C40.2029 17.1125 46.0535 22.9631 46.0535 30.1801Z" fill="white" stroke="#70B1E0"/>
</svg>
