<svg width="88" height="88" fill="none" xmlns="http://www.w3.org/2000/svg"><path d="M82.162 14.178c0 7.29-16.996 13.2-37.96 13.2-20.966 0-37.96-5.91-37.96-13.2 0-7.29 16.994-13.2 37.96-13.2 20.964 0 37.96 5.91 37.96 13.2" stroke="#92C9EC"/><path d="M44.202 34.234c-20.3 0-36.83-5.546-37.86-12.515h-.1v12.698c0 7.292 16.995 13.2 37.96 13.2s37.961-5.908 37.961-13.2V21.72h-.1c-1.031 6.97-17.56 12.515-37.86 12.515" stroke="#92C9EC"/><path d="M44.202 54.62c-20.3 0-36.83-5.545-37.86-12.514h-.1v12.698c0 7.292 16.995 13.2 37.96 13.2s37.961-5.908 37.961-13.2V42.106h-.1c-1.031 6.97-17.56 12.515-37.86 12.515" stroke="#92C9EC"/><path d="M44.202 73.639c-20.3 0-36.83-5.546-37.86-12.515h-.1v12.698c0 7.292 16.995 13.2 37.96 13.2s37.961-5.908 37.961-13.2V61.124h-.1c-1.031 6.97-17.56 12.515-37.86 12.515" stroke="#92C9EC"/></svg>