<svg xmlns="http://www.w3.org/2000/svg" width="24" height="16" viewBox="0 0 34 22"><path d="M31.86,0H2.14A2.15,2.15,0,0,0,0,2.16V19.84A2.15,2.15,0,0,0,2.14,22H31.86A2.15,2.15,0,0,0,34,19.84V2.16A2.15,2.15,0,0,0,31.86,0ZM32,20a1.18,1.18,0,0,1-1.69.07L22,12.36l-5.13,4.52-5-4.44L3.71,20A1.18,1.18,0,0,1,2,20a1.21,1.21,0,0,1,.07-1.7l8-7.42-8-7.16A1.21,1.21,0,0,1,2,2a1.18,1.18,0,0,1,1.68-.1l13.2,11.8L30.31,1.85A1.18,1.18,0,0,1,32,2a1.21,1.21,0,0,1-.12,1.7l-8.06,7.09,8.08,7.48A1.21,1.21,0,0,1,32,20Z" fill="#1c4462"></path></svg>
