<svg width="203" height="202" viewBox="0 0 203 202" fill="none" xmlns="http://www.w3.org/2000/svg">
<path d="M85.6662 131.405C83.7362 128.405 80.4662 125.885 76.7462 123.795C73.0057 121.732 69.0439 120.098 64.9362 118.925C61.9909 118.202 59.3278 116.618 57.2862 114.375C55.8362 112.645 55.4562 110.985 55.6762 110.055C55.7523 109.663 55.9241 109.295 56.1762 108.985C56.4273 108.72 56.7054 108.482 57.0062 108.275V108.275C58.1052 107.514 58.9874 106.48 59.5662 105.275V105.275C60.3912 103.424 61.0018 101.485 61.3862 99.4949C61.6062 98.4949 61.7762 97.5849 61.8862 96.9249C61.9462 96.5949 61.9962 96.3249 62.0262 96.1449L62.3762 95.9549C62.8784 95.6571 63.3362 95.2902 63.7362 94.8649C65.1495 93.3059 65.952 91.2888 65.9962 89.1849C66.2153 87.221 66.2153 85.2388 65.9962 83.2749C65.9711 82.7442 65.8122 82.2283 65.5342 81.7755C65.2562 81.3227 64.8682 80.9475 64.4062 80.6849C63.9215 80.4376 63.4074 80.2528 62.8762 80.1349C62.8762 79.9349 62.9262 79.6949 62.9562 79.4149C63.0362 78.6649 63.1462 77.6549 63.2562 76.5949C63.4662 74.4849 63.6962 72.1349 63.6962 71.2949C63.7299 69.4176 63.477 67.546 62.9462 65.7449V65.6849C60.8362 60.7549 58.6662 57.8049 55.7362 56.1349C52.8062 54.4649 49.1962 54.1349 44.3362 54.2149C36.8362 54.2149 32.5662 55.7749 29.8962 57.7949C28.2377 59.1214 26.8751 60.7803 25.8962 62.6649C25.6762 63.0549 25.4662 63.4149 25.2562 63.7249C25.067 64.1192 24.9421 64.5412 24.8862 64.9749C24.806 65.5318 24.7559 66.0927 24.7362 66.6549C24.6762 67.8849 24.7362 69.3149 24.7362 70.6549C24.7362 71.9949 24.8962 73.3049 24.9762 74.2549C24.9762 74.7349 25.0562 75.1249 25.0762 75.3949C25.0962 75.6649 25.0762 75.6349 25.0762 75.7149V75.8149H25.5562H25.0762C25.2362 77.1649 25.4062 78.3649 25.5462 79.2249C25.5962 79.5649 25.6462 79.8449 25.6762 80.0649C25.1568 80.1904 24.6536 80.375 24.1762 80.6149V80.6149C23.7155 80.878 23.3289 81.2535 23.0526 81.7064C22.7763 82.1594 22.6193 82.6749 22.5962 83.2049C22.3758 85.1688 22.3758 87.1511 22.5962 89.1149C22.6507 91.1932 23.4409 93.1847 24.8262 94.7349C25.2262 95.1602 25.684 95.5271 26.1862 95.8249L26.5362 96.0149C26.5362 96.1949 26.6062 96.4649 26.6662 96.7949C26.7762 97.4549 26.9562 98.3649 27.1662 99.3649C27.5377 101.407 28.1521 103.398 28.9962 105.295C29.5722 106.499 30.4509 107.532 31.5462 108.295V108.295C31.8526 108.502 32.1344 108.744 32.3862 109.015C32.6368 109.322 32.8085 109.686 32.8862 110.075C33.1062 111.005 32.7262 112.665 31.2662 114.395C29.2269 116.635 26.5676 118.219 23.6262 118.945C19.5153 120.118 15.5501 121.751 11.8062 123.815C8.08619 125.905 4.80619 128.465 2.88619 131.425C1.4596 133.882 0.665822 136.655 0.576186 139.495C0.428598 141.883 0.495533 144.279 0.776186 146.655V146.655C0.79835 146.793 0.860981 146.922 0.956186 147.025C1.02292 147.102 1.10037 147.17 1.18619 147.225C1.38144 147.361 1.58902 147.478 1.80619 147.575C2.52212 147.893 3.25683 148.167 4.00619 148.395C6.76356 149.229 9.56862 149.897 12.4062 150.395C23.0497 152.197 33.8317 153.054 44.6262 152.955C55.3018 153.067 65.9655 152.21 76.4862 150.395C79.2423 149.901 81.9644 149.233 84.6362 148.395C85.3628 148.167 86.0742 147.893 86.7662 147.575C86.9752 147.474 87.1758 147.357 87.3662 147.225C87.4489 147.165 87.5229 147.095 87.5862 147.015C87.678 146.915 87.7373 146.789 87.7562 146.655C88.0502 144.28 88.1305 141.884 87.9962 139.495C87.9038 136.647 87.103 133.866 85.6662 131.405V131.405Z" stroke="#70B1E0"/>
<path d="M143.426 105.295C142.599 103.438 141.989 101.492 141.606 99.4949C141.386 98.4949 141.216 97.5849 141.106 96.9249C141.046 96.5949 140.996 96.3249 140.966 96.1449L140.616 95.9549C140.114 95.6571 139.656 95.2902 139.256 94.8649C137.843 93.3059 137.04 91.2888 136.996 89.1849V89.1849C136.777 87.221 136.777 85.2388 136.996 83.2749C137.021 82.7442 137.18 82.2283 137.458 81.7755C137.736 81.3227 138.124 80.9475 138.586 80.6849C139.07 80.4376 139.585 80.2528 140.116 80.1349C140.116 79.9349 140.116 79.6949 140.036 79.4149C139.956 78.6649 139.846 77.6549 139.736 76.5949C139.526 74.4849 139.296 72.1349 139.296 71.2949C139.296 70.9249 139.296 70.5549 139.296 70.1749C139.187 68.4574 139.325 66.7332 139.706 65.0549C140.248 63.1905 141.196 61.4694 142.482 60.0152C143.769 58.561 145.361 57.41 147.146 56.6449C151.294 54.8455 155.798 54.0145 160.316 54.2149V54.2149C165.216 54.2949 167.796 55.0949 169.426 56.2149C170.132 56.717 170.75 57.3319 171.256 58.0349L171.676 58.6149C171.948 59.0137 172.245 59.3945 172.566 59.7549C173.109 60.3796 173.838 60.8141 174.646 60.9949L175.016 61.1149C175.526 61.2654 176 61.5208 176.406 61.8649C176.984 62.3979 177.456 63.0359 177.796 63.7449V63.7449C177.985 64.1392 178.11 64.5612 178.166 64.9949C178.251 65.5512 178.301 66.1123 178.316 66.6749C178.376 67.9049 178.316 69.3349 178.316 70.6749C178.316 72.0149 178.146 73.3249 178.066 74.2749C178.066 74.7549 177.996 75.1449 177.966 75.4149C177.936 75.6849 177.966 75.6549 177.966 75.7349V75.8349H177.486H177.966C177.806 77.1849 177.636 78.3849 177.496 79.2449C177.496 79.5849 177.406 79.8649 177.366 80.0849C177.885 80.2104 178.388 80.395 178.866 80.6349V80.6349C179.326 80.898 179.713 81.2735 179.989 81.7264C180.266 82.1794 180.423 82.6949 180.446 83.2249C180.666 85.1888 180.666 87.1711 180.446 89.1349C180.396 91.2141 179.605 93.207 178.216 94.7549C177.816 95.1802 177.358 95.5471 176.856 95.8449L176.506 96.0349C176.506 96.2149 176.426 96.4849 176.366 96.8149C176.256 97.4749 176.086 98.3849 175.866 99.3849C175.48 101.422 174.852 103.406 173.996 105.295C173.298 106.624 172.175 107.68 170.806 108.295H170.746C169.746 108.815 169.156 109.125 168.956 110.005C168.874 110.628 168.989 111.261 169.286 111.815C169.751 112.739 170.37 113.578 171.116 114.295C173.437 116.486 176.27 118.061 179.356 118.875C183.467 120.048 187.432 121.681 191.176 123.745C194.896 125.835 198.176 128.395 200.096 131.355C201.515 133.814 202.302 136.587 202.386 139.425C202.533 141.813 202.466 144.209 202.186 146.585V146.585C202.164 146.723 202.101 146.852 202.006 146.955C201.939 147.032 201.862 147.1 201.776 147.155C201.581 147.291 201.373 147.408 201.156 147.505C200.441 147.825 199.706 148.098 198.956 148.325C196.198 149.159 193.393 149.827 190.556 150.325C179.912 152.127 169.13 152.984 158.336 152.885C147.66 152.997 136.997 152.14 126.476 150.325C123.72 149.831 120.998 149.163 118.326 148.325C117.602 148.099 116.893 147.825 116.206 147.505C115.993 147.406 115.788 147.289 115.596 147.155C115.513 147.095 115.439 147.025 115.376 146.945C115.284 146.845 115.225 146.719 115.206 146.585V146.585C114.926 144.232 114.856 141.86 114.996 139.495C115.079 136.657 115.866 133.884 117.286 131.425C119.216 128.425 122.486 125.905 126.206 123.815C129.95 121.751 133.915 120.118 138.026 118.945C141.112 118.131 143.945 116.556 146.266 114.365C147.011 113.648 147.63 112.809 148.096 111.885C148.393 111.331 148.508 110.698 148.426 110.075C148.216 109.195 147.636 108.885 146.636 108.365H146.576C145.211 107.725 144.101 106.643 143.426 105.295V105.295Z" stroke="#70B1E0"/>
<path d="M120.557 107.785C122.162 106.703 123.45 105.116 124.317 103.385C125.556 100.655 126.469 97.7887 127.037 94.8449C127.357 93.3749 127.617 92.0649 127.787 91.0649C127.877 90.5849 127.997 90.1849 127.997 89.9149C127.992 89.865 127.992 89.8148 127.997 89.7649C128.213 89.6722 128.424 89.5653 128.627 89.4449C129.364 89.0273 130.038 88.5052 130.627 87.8949C132.671 85.6677 133.843 82.7772 133.926 79.7549C134.257 76.8844 134.257 73.9855 133.926 71.1149C133.596 69.1949 132.887 68.0449 131.687 67.4749C130.961 67.1195 130.195 66.8509 129.407 66.6749H129.207C129.247 66.3949 129.297 65.9249 129.357 65.3949L129.807 61.2549C130.127 58.1449 130.467 54.6949 130.467 53.4849V51.8149C130.635 49.3123 130.433 46.7985 129.867 44.3549C128.297 38.6949 124.237 34.6949 118.787 32.1349C113.337 29.5749 106.437 28.4649 99.0565 28.5749C91.6965 28.6949 87.8665 29.8749 85.4765 31.4949C84.4255 32.2154 83.497 33.1 82.7265 34.1149C82.5065 34.4049 82.2965 34.6849 82.0965 34.9649C81.6772 35.5612 81.2231 36.1322 80.7365 36.6749C79.8749 37.6261 78.7393 38.2865 77.4865 38.5649L76.9365 38.7349C76.2052 38.9497 75.5249 39.3103 74.9365 39.7949C74.1073 40.5623 73.429 41.4781 72.9365 42.4949C72.6927 43.0838 72.5474 43.7088 72.5065 44.3449C72.3776 45.1527 72.2974 45.9675 72.2665 46.7849C72.1865 48.5849 72.2365 50.6849 72.3265 52.6749C72.4165 54.6649 72.5665 56.5649 72.6865 57.9549C72.7465 58.6349 72.8465 59.2349 72.8465 59.6349L73.5465 65.2549C73.6465 65.8849 73.7365 66.3849 73.7965 66.7349H73.6265C72.8377 66.9109 72.0724 67.1795 71.3465 67.5349C70.1065 68.1049 69.4365 69.2549 69.1065 71.1749C68.7761 74.0454 68.7761 76.9444 69.1065 79.8149C69.1954 82.8361 70.3665 85.7248 72.4065 87.9549C72.995 88.5652 73.6687 89.0873 74.4065 89.5049C74.6093 89.6253 74.8197 89.7322 75.0365 89.8249V89.9749C75.0865 90.2449 75.1565 90.6449 75.2365 91.1249C75.4165 92.0949 75.6765 93.4349 75.9965 94.9049C76.5441 97.8637 77.4403 100.747 78.6665 103.495C79.5467 105.209 80.8559 106.667 82.4665 107.725C82.9372 108.033 83.3701 108.396 83.7565 108.805C84.1542 109.281 84.4289 109.848 84.5565 110.455C84.9165 111.935 84.2765 114.455 82.0765 117.025C79.8765 119.595 76.1365 122.185 70.4265 123.795C64.265 125.514 58.3122 127.909 52.6765 130.935C47.0965 134.005 42.1965 137.755 39.3165 142.055C37.1165 145.335 36.2065 149.715 35.9165 153.825C35.693 157.323 35.7934 160.835 36.2165 164.315C36.2384 164.477 36.312 164.628 36.4265 164.745C36.5173 164.842 36.6178 164.929 36.7265 165.005C37.0129 165.192 37.3139 165.356 37.6265 165.495C38.6958 165.98 39.7947 166.398 40.9165 166.745C45.0618 167.962 49.2759 168.93 53.5365 169.645C64.6065 171.625 80.8865 173.415 102.037 173.415C123.187 173.415 139.236 171.645 150.036 169.645C154.176 168.934 158.267 167.965 162.286 166.745C163.363 166.413 164.419 166.016 165.447 165.555C165.75 165.414 166.042 165.246 166.317 165.055C166.424 164.982 166.522 164.894 166.607 164.795C166.716 164.68 166.786 164.533 166.807 164.375C167.229 160.895 167.332 157.384 167.117 153.885C166.816 149.775 165.907 145.395 163.707 142.115C160.827 137.815 155.927 134.065 150.347 130.995C144.711 127.969 138.758 125.574 132.597 123.855C126.887 122.245 123.167 119.655 120.947 117.085C118.727 114.515 118.107 111.995 118.467 110.515C118.593 109.905 118.871 109.338 119.277 108.865C119.659 108.456 120.089 108.093 120.557 107.785Z" fill="white" stroke="#70B1E0"/>
</svg>
