<svg width="98" height="96" viewBox="0 0 98 96" fill="none" xmlns="http://www.w3.org/2000/svg">
<path d="M2.5 46.2394C2.5 22.1498 23.3299 2.5 48.9991 2.5C74.6684 2.5 95.5 22.1498 95.5 46.2394C95.5 70.3272 74.6667 89.977 48.9974 89.977C41.9156 89.977 35.0535 88.4691 28.5955 85.4924C27.6385 85.0489 26.5631 85.1492 25.7037 85.6643L4.60483 93.1741L11.3965 74.3419C11.7636 73.3254 11.5962 72.1875 10.9483 71.3222C5.41838 63.9166 2.5 55.2446 2.5 46.2394ZM16.8269 46.1811C16.8269 50.0592 19.9457 53.2108 23.8012 53.2108C27.6568 53.2108 30.7755 50.0592 30.7755 46.1811C30.7755 42.3029 27.6568 39.1513 23.8012 39.1513C19.9457 39.1513 16.8269 42.3029 16.8269 46.1811ZM42.0248 46.1811C42.0248 50.0592 45.1436 53.2108 48.9991 53.2108C52.8547 53.2108 55.9734 50.0592 55.9734 46.1811C55.9734 42.3029 52.8547 39.1513 48.9991 39.1513C45.1436 39.1513 42.0248 42.3029 42.0248 46.1811ZM67.2245 46.1811C67.2245 50.0592 70.3432 53.2108 74.1988 53.2108C78.0543 53.2108 81.1731 50.0592 81.1731 46.1811C81.1731 42.3029 78.0543 39.1513 74.1988 39.1513C70.3432 39.1513 67.2245 42.3029 67.2245 46.1811Z" stroke="#92C9EC"/>
</svg>
