<svg width="546" height="229" fill="none" xmlns="http://www.w3.org/2000/svg">
  <path d="M367.35 88.58h8.932v19.168h35.544M308.544 166.926v4.653h20.098" stroke="#E9F6FD" stroke-width="1.489"/>
  <path d="M148.439 199.865h82.283a17.54 17.54 0 0 0 2.64-9.281c0-9.729-7.886-17.616-17.613-17.616-1.851 0-3.636.285-5.312.815-3.7-9.564-12.985-16.347-23.854-16.347-13.557 0-24.649 10.553-25.513 23.894-7.429.46-13.311 6.632-13.311 14.178 0 1.52.238 2.984.68 4.357ZM405.361 190.188h95.878a20.478 20.478 0 0 0 3.076-10.828c0-11.351-9.189-20.552-20.523-20.552-2.157 0-4.237.333-6.19.951-4.311-11.158-15.13-19.072-27.795-19.072-15.796 0-28.722 12.312-29.728 27.877-8.656.537-15.511 7.738-15.511 16.541 0 1.774.278 3.481.793 5.083Z" fill="#046097"/>
  <path d="M314.795 228.896h80.852a17.224 17.224 0 0 0 2.594-9.119c0-9.558-7.748-17.307-17.306-17.307-1.82 0-3.573.281-5.22.801-3.636-9.396-12.759-16.06-23.439-16.06-13.321 0-24.221 10.368-25.069 23.475-7.3.452-13.08 6.516-13.08 13.93 0 1.493.234 2.931.668 4.28ZM438.923 199.865h103.748A22.183 22.183 0 0 0 546 188.141c0-12.289-9.943-22.251-22.208-22.251-2.334 0-4.584.36-6.698 1.03-4.665-12.082-16.372-20.65-30.076-20.65-17.094 0-31.08 13.33-32.169 30.182-9.367.582-16.784 8.378-16.784 17.91 0 1.92.301 3.769.858 5.503ZM1.615 228.151h195.332a41.73 41.73 0 0 0 6.268-22.063c0-23.128-18.72-41.877-41.812-41.877-4.395 0-8.632.679-12.611 1.939-8.783-22.737-30.824-38.862-56.626-38.862-32.183 0-58.516 25.087-60.566 56.801C13.964 185.185 0 199.857 0 217.795c0 3.613.566 7.093 1.615 10.356Z" fill="#E9F6FD"/>
  <path fill="#113B5B" d="M306.683 23.82h46.896v65.133h-46.896zM227.035 0h46.896v65.133h-46.896z"/>
  <path fill="#103654" d="M215.869 40.196h46.896v106.818h-46.896zM321.198 38.708h46.151V158.18h-46.151zM285 51h31v116h-31z"/>
  <path fill="#046097" d="M238.2 29.031h47.268v126.544H238.2z"/>
  <rect x="243.411" y="38.708" width="36.847" height="6.699" rx="3.35" fill="#103654"/>
  <circle cx="276.164" cy="42.057" r="1.861" fill="#FF9C00"/>
  <rect x="243.411" y="49.873" width="36.847" height="6.699" rx="3.35" fill="#103654"/>
  <circle cx="276.164" cy="53.223" r="1.861" fill="#FF9C00"/>
  <rect x="243.411" y="61.039" width="36.847" height="6.699" rx="3.35" fill="#103654"/>
  <circle cx="276.164" cy="64.388" r="1.861" fill="#FF9C00"/>
  <rect x="243.411" y="72.204" width="36.847" height="6.699" rx="3.35" fill="#103654"/>
  <circle cx="276.164" cy="75.554" r="1.861" fill="#FF9C00"/>
  <rect x="243.411" y="83.37" width="36.847" height="6.699" rx="3.35" fill="#103654"/>
  <circle cx="276.164" cy="86.72" r="1.861" fill="#FF9C00"/>
  <rect x="243.411" y="94.536" width="36.847" height="6.699" rx="3.35" fill="#103654"/>
  <circle cx="276.164" cy="97.886" r="1.861" fill="#FF9C00"/>
  <rect x="243.411" y="105.701" width="36.847" height="6.699" rx="3.35" fill="#103654"/>
  <circle cx="276.164" cy="109.051" r="1.861" fill="#FF9C00"/>
  <rect x="243.411" y="116.867" width="36.847" height="6.699" rx="3.35" fill="#103654"/>
  <circle cx="276.164" cy="120.217" r="1.861" fill="#FF9C00"/>
  <rect x="243.411" y="128.033" width="36.847" height="6.699" rx="3.35" fill="#103654"/>
  <circle cx="276.164" cy="131.382" r="1.861" fill="#FF9C00"/>
  <rect x="243.411" y="139.198" width="36.847" height="6.699" rx="3.35" fill="#103654"/>
  <circle cx="276.164" cy="142.548" r="1.861" fill="#FF9C00"/>
  <path fill="#046097" d="M295.145 55.084h47.268v110.168h-47.268z"/>
  <rect x="300.356" y="62.155" width="36.847" height="6.699" rx="3.35" fill="#103654"/>
  <circle cx="333.108" cy="65.505" r="1.861" fill="#FF9C00"/>
  <rect x="300.356" y="73.321" width="36.847" height="6.699" rx="3.35" fill="#103654"/>
  <circle cx="333.108" cy="76.671" r="1.861" fill="#FF9C00"/>
  <rect x="300.356" y="84.487" width="36.847" height="6.699" rx="3.35" fill="#103654"/>
  <circle cx="333.108" cy="87.836" r="1.861" fill="#FF9C00"/>
  <rect x="300.356" y="95.652" width="36.847" height="6.699" rx="3.35" fill="#103654"/>
  <circle cx="333.108" cy="99.002" r="1.861" fill="#FF9C00"/>
  <rect x="300.356" y="106.818" width="36.847" height="6.699" rx="3.35" fill="#103654"/>
  <circle cx="333.108" cy="110.168" r="1.861" fill="#FF9C00"/>
  <rect x="300.356" y="117.984" width="36.847" height="6.699" rx="3.35" fill="#103654"/>
  <circle cx="333.108" cy="121.334" r="1.861" fill="#FF9C00"/>
  <rect x="300.356" y="129.149" width="36.847" height="6.699" rx="3.35" fill="#103654"/>
  <circle cx="333.108" cy="132.499" r="1.861" fill="#FF9C00"/>
  <rect x="300.356" y="140.315" width="36.847" height="6.699" rx="3.35" fill="#103654"/>
  <circle cx="333.108" cy="143.665" r="1.861" fill="#FF9C00"/>
  <rect x="300.356" y="151.481" width="36.847" height="6.699" rx="3.35" fill="#103654"/>
  <circle cx="333.108" cy="154.83" r="1.861" fill="#D9D9D9"/>
  <path d="M132.685 96.025v14.143h-24.192v-8.375l-26.053-8.56s-1.17-.458-1.861-.93c-.69-.473-1.675-1.49-1.675-1.49h61.225l-7.444 5.212Z" fill="#BC9164"/>
  <path fill="#D9D9D9" d="M107.748 109.982h25.681v7.072h-25.681z"/>
  <path d="M107.004 115.564h27.17v47.058s-6.82-5.416-12.282-7.816c-5.471-2.405-14.888-3.164-14.888-3.164v-36.078ZM60.294 86.906l17.121-3.536h91.931l16.748 3.536h-125.8Z" fill="#046097"/>
  <path d="M77.415 24.937a7.444 7.444 0 0 1 7.444-7.444h77.043a7.444 7.444 0 0 1 7.444 7.444V83.37h-91.93V24.937ZM60.294 86.72h125.8a4.838 4.838 0 0 1-4.838 4.838H65.133a4.838 4.838 0 0 1-4.838-4.838Z" fill="#113B5B"/>
  <rect x="81.137" y="21.215" width="84.487" height="58.434" rx="5.955" fill="#046097"/>
  <path d="M500.221 122.827v5.211h-18.423v-5.211s-1.325-.153-2.047-.558c-.585-.328-1.303-1.117-1.303-1.117l-.186-.744h22.331l.186-27.728s.72-.703 1.303-.93c.613-.24 1.675-.187 1.675-.187v26.054l-3.536 5.21Z" fill="#623C30"/>
  <path fill="#D9D9D9" d="M480.357 127.886h20.919v5.76h-20.919z"/>
  <path d="M479.751 131.69h22.132v34.631s-5.551-4.81-10.001-6.766c-4.456-1.958-12.131-1.805-12.131-1.805v-26.06Z" fill="#046097"/>
  <rect x="412.012" y="60.294" width="89.325" height="60.667" rx=".744" fill="#113B5B"/>
  <rect x="415.734" y="64.016" width="81.881" height="45.779" rx=".372" fill="#046097"/>
  <path d="M366.418 179.005v2.232h-7.89v-2.232s-.567-.065-.876-.239c-.251-.14-.558-.478-.558-.478l-.08-.319h9.564l.079-11.875s.309-.301.558-.398c.263-.103.718-.08.718-.08v11.158l-1.515 2.231Z" fill="#BC9164"/>
  <path fill="#D9D9D9" d="M357.912 181.172h8.959v2.467h-8.959z"/>
  <path d="M357.652 182.8h9.478v20.414s-2.377-2.06-4.283-2.897c-1.908-.839-5.195-.774-5.195-.774V182.8Z" fill="#046097"/>
  <rect x="328.642" y="152.225" width="38.254" height="25.981" rx=".744" fill="#113B5B"/>
  <rect x="330.236" y="153.819" width="35.066" height="19.605" rx=".372" fill="#046097"/>
  <path d="M215.869 108.679h-9.863V72.391h-36.66" stroke="#E9F6FD" stroke-width="1.489"/>
  <path fill="#E9F6FD" d="M324.92 167.857h3.722v7.444h-3.722zM408.29 103.84h3.722v7.444h-3.722zM169.346 68.483h3.722v7.444h-3.722z"/>
</svg>
