<svg width="640" height="330" fill="none" xmlns="http://www.w3.org/2000/svg">
  <g filter="url(#a)">
    <path d="M199.891 237.339s22.051 15.014 36.596 3.284c8.893-7.172 6.173-17.734 15.952-27.212 9.778-9.478 40.349-2.815 40.349-2.815" stroke="#fff" stroke-linecap="round" stroke-dasharray="2 2"/>
  </g>
  <g filter="url(#b)">
    <path d="M459.815 83.449s-37.065 18.767-54.894 15.013c-17.829-3.753-43.633 13.137-43.633 13.137" stroke="#fff" stroke-linecap="round" stroke-dasharray="2 2"/>
  </g>
  <g filter="url(#c)">
    <rect x="125.76" y="212.473" width="75.069" height="46.918" rx="11.594" fill="#51A9E1"/>
    <g opacity=".8" clip-path="url(#d)">
      <path d="M175.178 232.179a12.265 12.265 0 0 0-4.192-7.087 12.033 12.033 0 0 0-7.692-2.784c-4.672 0-8.73 2.68-10.751 6.602a9.659 9.659 0 0 0-6.171 3.196 9.847 9.847 0 0 0-2.479 6.544c0 5.409 4.349 9.805 9.7 9.805h21.019c4.462 0 8.084-3.66 8.084-8.171 0-4.314-3.314-7.811-7.518-8.105Zm-8.65 4.837v6.537h-6.467v-6.537h-4.851l8.084-8.171 8.084 8.171h-4.85Z" fill="#fff"/>
    </g>
  </g>
  <g filter="url(#e)">
    <path d="M104.178 139.75s5.735-7.567 15.483 0c11.714 9.093 26.743 24.397 42.226 26.743 21.339 3.233 35.584-14.576 56.301-15.952 21.347-1.418 56.771 27.212 56.771 27.212" stroke="#fff" stroke-linecap="round" stroke-dasharray="2 2"/>
  </g>
  <g filter="url(#f)">
    <rect x="46" y="115.822" width="75.069" height="46.918" rx="11.594" fill="#51A9E1"/>
    <g opacity=".8">
      <path fill="#51A9E1" d="M64.132 119.121h38.803v39.22H64.132z"/>
      <path d="M83.534 142.321c1.962 0 3.552-1.607 3.552-3.59 0-1.983-1.59-3.59-3.552-3.59s-3.552 1.607-3.552 3.59c0 1.983 1.59 3.59 3.552 3.59Z" fill="#fff"/>
      <path d="M99.111 129.64c-1.147-2.006-3.899-2.83-7.755-2.327-.489.065-.992.154-1.502.258-1.456-4.17-3.722-6.816-6.32-6.816-2.602 0-4.871 2.655-6.327 6.836-4.427-.886-7.933-.256-9.25 2.049-1.315 2.299-.115 5.669 2.84 9.091-2.955 3.422-4.155 6.792-2.84 9.091.94 1.647 2.99 2.444 5.698 2.444a18.292 18.292 0 0 0 3.552-.397c1.455 4.183 3.725 6.838 6.327 6.838 2.597 0 4.864-2.646 6.32-6.816.51.104 1.013.193 1.502.258.696.093 1.396.141 2.097.144 2.756 0 4.732-.851 5.658-2.471 1.314-2.299.114-5.669-2.84-9.091 2.954-3.422 4.154-6.792 2.84-9.091Zm-7.517-.486a14.701 14.701 0 0 1 1.875-.132c2.038 0 3.476.537 4.053 1.547.816 1.427-.107 3.989-2.509 6.811a33.233 33.233 0 0 0-3.72-3.192 32.961 32.961 0 0 0-.885-4.798c.394-.076.806-.186 1.186-.236Zm-4.968 14.992a39.465 39.465 0 0 1-3.083 1.624 39.347 39.347 0 0 1-3.102-1.624 39.46 39.46 0 0 1-2.942-1.894 39.354 39.354 0 0 1 0-7.042 39.46 39.46 0 0 1 2.942-1.894 39.67 39.67 0 0 1 3.088-1.618 38.992 38.992 0 0 1 3.097 1.618 39.15 39.15 0 0 1 2.944 1.895 39.407 39.407 0 0 1 0 7.04 39.15 39.15 0 0 1-2.944 1.895Zm2.633.548a29.52 29.52 0 0 1-.633 2.981 29.737 29.737 0 0 1-2.846-.952 42.559 42.559 0 0 0 1.766-.971c.589-.344 1.158-.698 1.713-1.058Zm-7.962 2.032c-.935.365-1.888.683-2.854.951a29.525 29.525 0 0 1-.634-2.984c.555.361 1.125.715 1.714 1.059.59.344 1.181.665 1.774.974Zm-5.727-5.952a29.58 29.58 0 0 1-2.262-2.043 29.58 29.58 0 0 1 2.262-2.043c-.032.67-.053 1.35-.053 2.043 0 .693.02 1.373.053 2.043Zm2.24-8.005c.159-1.003.37-1.997.632-2.978.968.265 1.923.579 2.86.942a42.12 42.12 0 0 0-1.779.977c-.59.344-1.159.698-1.714 1.059Zm7.971-2.03a29.72 29.72 0 0 1 2.845-.952c.262.982.473 1.977.633 2.981a42.644 42.644 0 0 0-1.713-1.058 42.532 42.532 0 0 0-1.765-.971Zm5.717 5.949a30.011 30.011 0 0 1 2.26 2.043 30.011 30.011 0 0 1-2.26 2.043c.032-.67.052-1.35.052-2.043 0-.693-.02-1.373-.052-2.043Zm-7.964-14.089c1.613 0 3.324 2.017 4.54 5.41-1.552.44-3.07.993-4.543 1.653a32.884 32.884 0 0 0-4.54-1.643c1.216-3.399 2.929-5.42 4.543-5.42Zm-13.99 7.97c.569-.994 2.025-1.527 4.076-1.527 1.023.014 2.042.125 3.045.329a32.96 32.96 0 0 0-.89 4.818 33.21 33.21 0 0 0-3.72 3.191c-2.403-2.821-3.326-5.384-2.51-6.811Zm0 16.324c-.814-1.427.108-3.99 2.51-6.811a33.228 33.228 0 0 0 3.722 3.191c.177 1.629.475 3.243.892 4.827-3.634.701-6.303.228-7.123-1.207Zm13.99 7.97c-1.615 0-3.328-2.022-4.543-5.422a32.945 32.945 0 0 0 4.545-1.638 33.454 33.454 0 0 0 4.537 1.65c-1.215 3.393-2.926 5.41-4.539 5.41Zm13.988-7.97c-.742 1.296-2.898 1.813-5.928 1.415-.38-.05-.792-.16-1.186-.236.413-1.575.708-3.179.884-4.798a33.233 33.233 0 0 0 3.721-3.192c2.402 2.822 3.325 5.384 2.51 6.811Z" fill="#fff"/>
      <path d="M94.481 130.255c1.34 0 2.426-1.098 2.426-2.452 0-1.353-1.086-2.451-2.426-2.451-1.339 0-2.425 1.098-2.425 2.451 0 1.354 1.086 2.452 2.425 2.452Z" fill="#fff"/>
    </g>
  </g>
  <g filter="url(#g)">
    <path d="M198.483 75.472s30.966-5.63 34.25 27.682c1.414 14.339 28.151 24.866 28.151 24.866" stroke="#fff" stroke-linecap="round" stroke-dasharray="2 2"/>
  </g>
  <g filter="url(#h)">
    <rect x="518.932" y="141.158" width="75.069" height="46.918" rx="11.594" fill="#51A9E1"/>
    <path fill-rule="evenodd" clip-rule="evenodd" d="M565.435 170.943a4.781 4.781 0 0 1 2.957-1.022c.96 0 1.899.287 2.698.824a4.905 4.905 0 0 1 .735 7.518 4.825 4.825 0 0 1-5.292 1.059 4.857 4.857 0 0 1-2.178-1.8 4.904 4.904 0 0 1-.818-2.714v-.002a4.846 4.846 0 0 1 .394-1.937l.137-.321-4.371-3.43-.273.213a4.824 4.824 0 0 1-2.798 1.02 4.82 4.82 0 0 1-2.861-.821l-.285-.193-4.772 4.263.156.311a4.98 4.98 0 0 1 .531 2.231 4.907 4.907 0 0 1-1.028 3.006 4.827 4.827 0 0 1-5.797 1.459 4.87 4.87 0 0 1-2.313-2.165 4.924 4.924 0 0 1-.5-3.139 4.896 4.896 0 0 1 1.525-2.785 4.83 4.83 0 0 1 5.96-.438l.285.192 4.772-4.263-.157-.31a4.985 4.985 0 0 1-.531-2.232 4.86 4.86 0 0 1 1.834-3.815l.273-.216-1.403-3.197-.33.045a7.315 7.315 0 0 1-.823.062 4.822 4.822 0 0 1-2.694-.824 4.879 4.879 0 0 1-1.788-2.193 4.922 4.922 0 0 1-.276-2.823 4.899 4.899 0 0 1 1.328-2.502 4.832 4.832 0 0 1 5.292-1.06 4.863 4.863 0 0 1 2.179 1.801 4.91 4.91 0 0 1 .818 2.714v.001a4.86 4.86 0 0 1-1.834 3.815l-.273.216 1.402 3.197.331-.045c.273-.036.548-.057.823-.062.807 0 1.602.205 2.311.594.71.389 1.312.952 1.75 1.635l.187.292 2.874-.957-.042-.364a2.238 2.238 0 0 1-.013-.306v-.011a4.89 4.89 0 0 1 1.173-3.188 4.815 4.815 0 0 1 6.265-.928 4.866 4.866 0 0 1 2.036 2.713 4.903 4.903 0 0 1-.223 3.392 4.857 4.857 0 0 1-2.375 2.42 4.81 4.81 0 0 1-3.369.265 4.839 4.839 0 0 1-2.719-2.018l-.187-.289-2.872.957.041.364c.012.101.016.203.014.306v.012a4.85 4.85 0 0 1-.394 1.937l-.137.32 4.372 3.431.273-.215Zm4.676-12.072a3.082 3.082 0 0 0-3.908.388 3.134 3.134 0 0 0-.385 3.939 3.096 3.096 0 0 0 3.177 1.326c.6-.12 1.152-.417 1.585-.853a3.13 3.13 0 0 0 .671-3.4 3.114 3.114 0 0 0-1.14-1.4Zm-21.519-7.145a3.138 3.138 0 0 0 .386 3.939 3.08 3.08 0 0 0 3.907.388 3.139 3.139 0 0 0 .469-4.8 3.072 3.072 0 0 0-3.372-.675 3.103 3.103 0 0 0-1.39 1.148Zm-5.771 27.009a3.077 3.077 0 0 0 3.908-.387 3.134 3.134 0 0 0-1.004-5.088 3.084 3.084 0 0 0-3.373.676 3.134 3.134 0 0 0 .469 4.799Zm23.852-1.334a3.074 3.074 0 0 0 3.907-.388 3.139 3.139 0 0 0 .385-3.939 3.1 3.1 0 0 0-1.389-1.148 3.076 3.076 0 0 0-3.373.676 3.142 3.142 0 0 0-.671 3.4c.235.57.632 1.057 1.141 1.399Z" fill="#fff" opacity=".8"/>
  </g>
  <g filter="url(#i)">
    <rect x="431.665" y="219.041" width="75.069" height="46.918" rx="11.594" fill="#51A9E1"/>
    <path d="M456.721 236.108a4.58 4.58 0 0 0 4.227-2.824 4.573 4.573 0 0 0-3.334-6.237 4.573 4.573 0 0 0-4.126 7.719 4.583 4.583 0 0 0 3.233 1.342Zm0-6.862a2.288 2.288 0 0 1 1.618 3.904 2.287 2.287 0 1 1-1.618-3.904Zm12.008-2.287a4.571 4.571 0 0 0-4.226 2.824 4.57 4.57 0 0 0 .992 4.985 4.578 4.578 0 0 0 4.985.991 4.574 4.574 0 0 0 2.824-4.226 4.58 4.58 0 0 0-4.575-4.574Zm0 6.861a2.288 2.288 0 1 1 0-4.575 2.288 2.288 0 0 1 0 4.575Zm12.009 2.288a4.58 4.58 0 0 0 4.226-2.824 4.573 4.573 0 0 0-3.334-6.237 4.573 4.573 0 0 0-4.126 7.719 4.584 4.584 0 0 0 3.234 1.342Zm0-6.862a2.288 2.288 0 1 1 0 4.575 2.288 2.288 0 0 1 0-4.575Zm-24.017 9.149a4.571 4.571 0 0 0-4.226 2.824 4.572 4.572 0 0 0 .992 4.985 4.578 4.578 0 0 0 4.985.992 4.575 4.575 0 0 0-1.751-8.801Zm0 6.862a2.289 2.289 0 0 1-.446-4.531 2.292 2.292 0 0 1 2.348.973 2.28 2.28 0 0 1-.285 2.887 2.29 2.29 0 0 1-1.617.671Zm12.008-6.862a4.571 4.571 0 0 0-4.226 2.824 4.572 4.572 0 0 0 .992 4.985 4.578 4.578 0 0 0 4.985.992 4.575 4.575 0 0 0-1.751-8.801Zm0 6.862a2.289 2.289 0 0 1-.446-4.531 2.292 2.292 0 0 1 2.348.973 2.28 2.28 0 0 1-.285 2.887 2.29 2.29 0 0 1-1.617.671Zm12.009-6.862a4.572 4.572 0 0 0-4.487 5.467 4.57 4.57 0 0 0 3.594 3.594 4.58 4.58 0 0 0 2.643-.26 4.575 4.575 0 0 0-1.75-8.801Zm0 6.862a2.29 2.29 0 0 1-1.618-3.905 2.287 2.287 0 1 1 1.618 3.905Zm0 4.574a4.572 4.572 0 0 0-4.487 5.467 4.57 4.57 0 0 0 3.594 3.594 4.573 4.573 0 0 0 4.126-7.72 4.582 4.582 0 0 0-3.233-1.341Zm0 6.862a2.285 2.285 0 0 1-.447-4.531 2.292 2.292 0 0 1 2.348.973 2.281 2.281 0 0 1-.285 2.887 2.29 2.29 0 0 1-1.616.671Zm-26.304-2.859h2.287v2.287h-2.287v-2.287Zm6.862 0h2.287v2.287h-2.287v-2.287Zm6.862 0h2.287v2.287h-2.287v-2.287Z" fill="#DFE4EA" opacity=".85"/>
  </g>
  <g filter="url(#j)">
    <rect x="131.391" y="51.075" width="75.069" height="46.918" rx="11.594" fill="#51A9E1"/>
    <path d="M153.361 63.706c0-.835.328-1.635.912-2.225a3.094 3.094 0 0 1 2.201-.921h24.902c.825 0 1.617.331 2.201.921.583.59.911 1.39.911 2.225V81.01c0 .834-.328 1.634-.911 2.224a3.097 3.097 0 0 1-2.201.922h-10.895v3.146h4.669c.413 0 .809.166 1.101.46a1.585 1.585 0 0 1 0 2.225c-.292.296-.688.461-1.101.461h-12.451c-.413 0-.809-.165-1.1-.46a1.581 1.581 0 0 1 0-2.225c.291-.295.687-.46 1.1-.46h4.669v-3.147h-10.894a3.094 3.094 0 0 1-2.201-.922 3.162 3.162 0 0 1-.912-2.224V63.706Zm28.015 17.304V63.706h-24.902V81.01h24.902Z" fill="#fff" opacity=".8"/>
  </g>
  <g filter="url(#k)">
    <rect x="425.096" y="37" width="75.069" height="46.918" rx="11.594" fill="#51A9E1"/>
    <path d="M450.179 43.339h24.902c.413 0 .809.165 1.1.46.292.295.456.695.456 1.113v6.292c0 .417-.164.817-.456 1.112-.291.295-.687.461-1.1.461h-24.902c-.413 0-.809-.166-1.101-.46a1.585 1.585 0 0 1-.455-1.113v-6.292c0-.418.164-.818.455-1.113.292-.295.688-.46 1.101-.46m0 12.584h24.902c.413 0 .809.166 1.1.461.292.295.456.695.456 1.112v6.293c0 .417-.164.817-.456 1.112-.291.295-.687.46-1.1.46h-24.902a1.55 1.55 0 0 1-1.101-.46 1.585 1.585 0 0 1-.455-1.112v-6.293c0-.417.164-.817.455-1.112a1.55 1.55 0 0 1 1.101-.46m0 12.584h24.902c.413 0 .809.166 1.1.46.292.296.456.696.456 1.113v6.292c0 .418-.164.818-.456 1.113-.291.295-.687.46-1.1.46h-24.902c-.413 0-.809-.165-1.101-.46a1.585 1.585 0 0 1-.455-1.113v-6.292c0-.417.164-.817.455-1.112.292-.295.688-.461 1.101-.461m7.782-18.877h1.556v-3.146h-1.556v3.146Zm0 12.585h1.556v-3.147h-1.556v3.147Zm0 12.584h1.556v-3.146h-1.556V74.8Zm-6.226-28.315v3.146h3.113v-3.146h-3.113Zm0 12.584v3.147h3.113v-3.147h-3.113Zm0 12.585V74.8h3.113v-3.146h-3.113Z" fill="#fff" opacity=".8"/>
  </g>
  <g filter="url(#l)">
    <path d="M432.134 247.661s-14.433-16.735-27.213-19.706c-14.674-3.411-23.024 12.971-37.534 8.915-13.734-3.84-26.743-24.867-26.743-24.867" stroke="#fff" stroke-linecap="round" stroke-dasharray="2 2"/>
  </g>
  <g filter="url(#m)">
    <path d="M520.339 167.432s-24.138-15.529-41.288-15.014c-21.399.642-26.614 24.067-47.856 26.743-19.798 2.494-49.733-11.729-49.733-11.729" stroke="#fff" stroke-linecap="round" stroke-dasharray="2 2"/>
  </g>
  <g filter="url(#n)">
    <g filter="url(#o)">
      <path d="M316.583 80.26a6.835 6.835 0 0 1 6.834 0l59.803 34.528a6.832 6.832 0 0 1 3.416 5.918v69.054a6.833 6.833 0 0 1-3.416 5.918l-59.803 34.528a6.838 6.838 0 0 1-6.834 0l-59.803-34.528a6.834 6.834 0 0 1-3.417-5.918v-69.054a6.833 6.833 0 0 1 3.417-5.918l59.803-34.528Z" fill="#51A9E1"/>
    </g>
    <path d="m359.938 147.267-40.153 22.773-42.712-24.264-2.021 1.084v17.623l44.733 25.484 40.153-22.773v9.353l-40.153 22.773-42.712-24.264-2.021 1.084v2.983l44.733 25.484 44.869-25.484V161.5l-2.021-1.084-42.848 24.264-40.017-22.773v-9.218l40.017 22.638 44.869-25.485v-17.351l-2.291-1.22-42.578 24.129-37.862-21.553 37.862-21.418 31.26 17.622 2.83-1.491v-2.169l-34.09-19.249-44.733 25.349v2.711l44.733 25.485 40.153-22.773v9.353Z" fill="#fff"/>
  </g>
  <defs>
    <filter id="a" x="153.391" y="170.821" width="185.897" height="138.781" filterUnits="userSpaceOnUse" color-interpolation-filters="sRGB">
      <feFlood flood-opacity="0" result="BackgroundImageFix"/>
      <feColorMatrix in="SourceAlpha" values="0 0 0 0 0 0 0 0 0 0 0 0 0 0 0 0 0 0 127 0" result="hardAlpha"/>
      <feOffset dy="11"/>
      <feGaussianBlur stdDeviation="7.5"/>
      <feColorMatrix values="0 0 0 0 0.317647 0 0 0 0 0.662745 0 0 0 0 0.882353 0 0 0 0.2 0"/>
      <feBlend in2="BackgroundImageFix" result="effect1_dropShadow_2778_365"/>
      <feColorMatrix in="SourceAlpha" values="0 0 0 0 0 0 0 0 0 0 0 0 0 0 0 0 0 0 127 0" result="hardAlpha"/>
      <feOffset dy="9"/>
      <feGaussianBlur stdDeviation="23"/>
      <feColorMatrix values="0 0 0 0 0.317647 0 0 0 0 0.662745 0 0 0 0 0.882353 0 0 0 0.12 0"/>
      <feBlend in2="effect1_dropShadow_2778_365" result="effect2_dropShadow_2778_365"/>
      <feColorMatrix in="SourceAlpha" values="0 0 0 0 0 0 0 0 0 0 0 0 0 0 0 0 0 0 127 0" result="hardAlpha"/>
      <feOffset dy="24"/>
      <feGaussianBlur stdDeviation="20"/>
      <feColorMatrix values="0 0 0 0 0.317647 0 0 0 0 0.662745 0 0 0 0 0.882353 0 0 0 0.14 0"/>
      <feBlend in2="effect2_dropShadow_2778_365" result="effect3_dropShadow_2778_365"/>
      <feBlend in="SourceGraphic" in2="effect3_dropShadow_2778_365" result="shape"/>
    </filter>
    <filter id="b" x="314.788" y="45.949" width="191.527" height="130.151" filterUnits="userSpaceOnUse" color-interpolation-filters="sRGB">
      <feFlood flood-opacity="0" result="BackgroundImageFix"/>
      <feColorMatrix in="SourceAlpha" values="0 0 0 0 0 0 0 0 0 0 0 0 0 0 0 0 0 0 127 0" result="hardAlpha"/>
      <feOffset dy="11"/>
      <feGaussianBlur stdDeviation="7.5"/>
      <feColorMatrix values="0 0 0 0 0.317647 0 0 0 0 0.662745 0 0 0 0 0.882353 0 0 0 0.2 0"/>
      <feBlend in2="BackgroundImageFix" result="effect1_dropShadow_2778_365"/>
      <feColorMatrix in="SourceAlpha" values="0 0 0 0 0 0 0 0 0 0 0 0 0 0 0 0 0 0 127 0" result="hardAlpha"/>
      <feOffset dy="9"/>
      <feGaussianBlur stdDeviation="23"/>
      <feColorMatrix values="0 0 0 0 0.317647 0 0 0 0 0.662745 0 0 0 0 0.882353 0 0 0 0.12 0"/>
      <feBlend in2="effect1_dropShadow_2778_365" result="effect2_dropShadow_2778_365"/>
      <feColorMatrix in="SourceAlpha" values="0 0 0 0 0 0 0 0 0 0 0 0 0 0 0 0 0 0 127 0" result="hardAlpha"/>
      <feOffset dy="24"/>
      <feGaussianBlur stdDeviation="20"/>
      <feColorMatrix values="0 0 0 0 0.317647 0 0 0 0 0.662745 0 0 0 0 0.882353 0 0 0 0.14 0"/>
      <feBlend in2="effect2_dropShadow_2778_365" result="effect3_dropShadow_2778_365"/>
      <feBlend in="SourceGraphic" in2="effect3_dropShadow_2778_365" result="shape"/>
    </filter>
    <filter id="c" x="79.76" y="175.473" width="167.068" height="147.918" filterUnits="userSpaceOnUse" color-interpolation-filters="sRGB">
      <feFlood flood-opacity="0" result="BackgroundImageFix"/>
      <feColorMatrix in="SourceAlpha" values="0 0 0 0 0 0 0 0 0 0 0 0 0 0 0 0 0 0 127 0" result="hardAlpha"/>
      <feOffset dy="11"/>
      <feGaussianBlur stdDeviation="7.5"/>
      <feColorMatrix values="0 0 0 0 0.317647 0 0 0 0 0.662745 0 0 0 0 0.882353 0 0 0 0.2 0"/>
      <feBlend in2="BackgroundImageFix" result="effect1_dropShadow_2778_365"/>
      <feColorMatrix in="SourceAlpha" values="0 0 0 0 0 0 0 0 0 0 0 0 0 0 0 0 0 0 127 0" result="hardAlpha"/>
      <feOffset dy="9"/>
      <feGaussianBlur stdDeviation="23"/>
      <feColorMatrix values="0 0 0 0 0.317647 0 0 0 0 0.662745 0 0 0 0 0.882353 0 0 0 0.12 0"/>
      <feBlend in2="effect1_dropShadow_2778_365" result="effect2_dropShadow_2778_365"/>
      <feColorMatrix in="SourceAlpha" values="0 0 0 0 0 0 0 0 0 0 0 0 0 0 0 0 0 0 127 0" result="hardAlpha"/>
      <feOffset dy="24"/>
      <feGaussianBlur stdDeviation="20"/>
      <feColorMatrix values="0 0 0 0 0.317647 0 0 0 0 0.662745 0 0 0 0 0.882353 0 0 0 0.14 0"/>
      <feBlend in2="effect2_dropShadow_2778_365" result="effect3_dropShadow_2778_365"/>
      <feBlend in="SourceGraphic" in2="effect3_dropShadow_2778_365" result="shape"/>
    </filter>
    <filter id="e" x="57.678" y="98.887" width="263.781" height="143.367" filterUnits="userSpaceOnUse" color-interpolation-filters="sRGB">
      <feFlood flood-opacity="0" result="BackgroundImageFix"/>
      <feColorMatrix in="SourceAlpha" values="0 0 0 0 0 0 0 0 0 0 0 0 0 0 0 0 0 0 127 0" result="hardAlpha"/>
      <feOffset dy="11"/>
      <feGaussianBlur stdDeviation="7.5"/>
      <feColorMatrix values="0 0 0 0 0.317647 0 0 0 0 0.662745 0 0 0 0 0.882353 0 0 0 0.2 0"/>
      <feBlend in2="BackgroundImageFix" result="effect1_dropShadow_2778_365"/>
      <feColorMatrix in="SourceAlpha" values="0 0 0 0 0 0 0 0 0 0 0 0 0 0 0 0 0 0 127 0" result="hardAlpha"/>
      <feOffset dy="9"/>
      <feGaussianBlur stdDeviation="23"/>
      <feColorMatrix values="0 0 0 0 0.317647 0 0 0 0 0.662745 0 0 0 0 0.882353 0 0 0 0.12 0"/>
      <feBlend in2="effect1_dropShadow_2778_365" result="effect2_dropShadow_2778_365"/>
      <feColorMatrix in="SourceAlpha" values="0 0 0 0 0 0 0 0 0 0 0 0 0 0 0 0 0 0 127 0" result="hardAlpha"/>
      <feOffset dy="24"/>
      <feGaussianBlur stdDeviation="20"/>
      <feColorMatrix values="0 0 0 0 0.317647 0 0 0 0 0.662745 0 0 0 0 0.882353 0 0 0 0.14 0"/>
      <feBlend in2="effect2_dropShadow_2778_365" result="effect3_dropShadow_2778_365"/>
      <feBlend in="SourceGraphic" in2="effect3_dropShadow_2778_365" result="shape"/>
    </filter>
    <filter id="f" x="0" y="78.822" width="167.068" height="147.918" filterUnits="userSpaceOnUse" color-interpolation-filters="sRGB">
      <feFlood flood-opacity="0" result="BackgroundImageFix"/>
      <feColorMatrix in="SourceAlpha" values="0 0 0 0 0 0 0 0 0 0 0 0 0 0 0 0 0 0 127 0" result="hardAlpha"/>
      <feOffset dy="11"/>
      <feGaussianBlur stdDeviation="7.5"/>
      <feColorMatrix values="0 0 0 0 0.317647 0 0 0 0 0.662745 0 0 0 0 0.882353 0 0 0 0.2 0"/>
      <feBlend in2="BackgroundImageFix" result="effect1_dropShadow_2778_365"/>
      <feColorMatrix in="SourceAlpha" values="0 0 0 0 0 0 0 0 0 0 0 0 0 0 0 0 0 0 127 0" result="hardAlpha"/>
      <feOffset dy="9"/>
      <feGaussianBlur stdDeviation="23"/>
      <feColorMatrix values="0 0 0 0 0.317647 0 0 0 0 0.662745 0 0 0 0 0.882353 0 0 0 0.12 0"/>
      <feBlend in2="effect1_dropShadow_2778_365" result="effect2_dropShadow_2778_365"/>
      <feColorMatrix in="SourceAlpha" values="0 0 0 0 0 0 0 0 0 0 0 0 0 0 0 0 0 0 127 0" result="hardAlpha"/>
      <feOffset dy="24"/>
      <feGaussianBlur stdDeviation="20"/>
      <feColorMatrix values="0 0 0 0 0.317647 0 0 0 0 0.662745 0 0 0 0 0.882353 0 0 0 0.14 0"/>
      <feBlend in2="effect2_dropShadow_2778_365" result="effect3_dropShadow_2778_365"/>
      <feBlend in="SourceGraphic" in2="effect3_dropShadow_2778_365" result="shape"/>
    </filter>
    <filter id="g" x="151.983" y="37.614" width="155.401" height="154.907" filterUnits="userSpaceOnUse" color-interpolation-filters="sRGB">
      <feFlood flood-opacity="0" result="BackgroundImageFix"/>
      <feColorMatrix in="SourceAlpha" values="0 0 0 0 0 0 0 0 0 0 0 0 0 0 0 0 0 0 127 0" result="hardAlpha"/>
      <feOffset dy="11"/>
      <feGaussianBlur stdDeviation="7.5"/>
      <feColorMatrix values="0 0 0 0 0.317647 0 0 0 0 0.662745 0 0 0 0 0.882353 0 0 0 0.2 0"/>
      <feBlend in2="BackgroundImageFix" result="effect1_dropShadow_2778_365"/>
      <feColorMatrix in="SourceAlpha" values="0 0 0 0 0 0 0 0 0 0 0 0 0 0 0 0 0 0 127 0" result="hardAlpha"/>
      <feOffset dy="9"/>
      <feGaussianBlur stdDeviation="23"/>
      <feColorMatrix values="0 0 0 0 0.317647 0 0 0 0 0.662745 0 0 0 0 0.882353 0 0 0 0.12 0"/>
      <feBlend in2="effect1_dropShadow_2778_365" result="effect2_dropShadow_2778_365"/>
      <feColorMatrix in="SourceAlpha" values="0 0 0 0 0 0 0 0 0 0 0 0 0 0 0 0 0 0 127 0" result="hardAlpha"/>
      <feOffset dy="24"/>
      <feGaussianBlur stdDeviation="20"/>
      <feColorMatrix values="0 0 0 0 0.317647 0 0 0 0 0.662745 0 0 0 0 0.882353 0 0 0 0.14 0"/>
      <feBlend in2="effect2_dropShadow_2778_365" result="effect3_dropShadow_2778_365"/>
      <feBlend in="SourceGraphic" in2="effect3_dropShadow_2778_365" result="shape"/>
    </filter>
    <filter id="h" x="472.932" y="104.158" width="167.068" height="147.918" filterUnits="userSpaceOnUse" color-interpolation-filters="sRGB">
      <feFlood flood-opacity="0" result="BackgroundImageFix"/>
      <feColorMatrix in="SourceAlpha" values="0 0 0 0 0 0 0 0 0 0 0 0 0 0 0 0 0 0 127 0" result="hardAlpha"/>
      <feOffset dy="11"/>
      <feGaussianBlur stdDeviation="7.5"/>
      <feColorMatrix values="0 0 0 0 0.317647 0 0 0 0 0.662745 0 0 0 0 0.882353 0 0 0 0.2 0"/>
      <feBlend in2="BackgroundImageFix" result="effect1_dropShadow_2778_365"/>
      <feColorMatrix in="SourceAlpha" values="0 0 0 0 0 0 0 0 0 0 0 0 0 0 0 0 0 0 127 0" result="hardAlpha"/>
      <feOffset dy="9"/>
      <feGaussianBlur stdDeviation="23"/>
      <feColorMatrix values="0 0 0 0 0.317647 0 0 0 0 0.662745 0 0 0 0 0.882353 0 0 0 0.12 0"/>
      <feBlend in2="effect1_dropShadow_2778_365" result="effect2_dropShadow_2778_365"/>
      <feColorMatrix in="SourceAlpha" values="0 0 0 0 0 0 0 0 0 0 0 0 0 0 0 0 0 0 127 0" result="hardAlpha"/>
      <feOffset dy="24"/>
      <feGaussianBlur stdDeviation="20"/>
      <feColorMatrix values="0 0 0 0 0.317647 0 0 0 0 0.662745 0 0 0 0 0.882353 0 0 0 0.14 0"/>
      <feBlend in2="effect2_dropShadow_2778_365" result="effect3_dropShadow_2778_365"/>
      <feBlend in="SourceGraphic" in2="effect3_dropShadow_2778_365" result="shape"/>
    </filter>
    <filter id="i" x="385.665" y="182.041" width="167.068" height="147.918" filterUnits="userSpaceOnUse" color-interpolation-filters="sRGB">
      <feFlood flood-opacity="0" result="BackgroundImageFix"/>
      <feColorMatrix in="SourceAlpha" values="0 0 0 0 0 0 0 0 0 0 0 0 0 0 0 0 0 0 127 0" result="hardAlpha"/>
      <feOffset dy="11"/>
      <feGaussianBlur stdDeviation="7.5"/>
      <feColorMatrix values="0 0 0 0 0.317647 0 0 0 0 0.662745 0 0 0 0 0.882353 0 0 0 0.2 0"/>
      <feBlend in2="BackgroundImageFix" result="effect1_dropShadow_2778_365"/>
      <feColorMatrix in="SourceAlpha" values="0 0 0 0 0 0 0 0 0 0 0 0 0 0 0 0 0 0 127 0" result="hardAlpha"/>
      <feOffset dy="9"/>
      <feGaussianBlur stdDeviation="23"/>
      <feColorMatrix values="0 0 0 0 0.317647 0 0 0 0 0.662745 0 0 0 0 0.882353 0 0 0 0.12 0"/>
      <feBlend in2="effect1_dropShadow_2778_365" result="effect2_dropShadow_2778_365"/>
      <feColorMatrix in="SourceAlpha" values="0 0 0 0 0 0 0 0 0 0 0 0 0 0 0 0 0 0 127 0" result="hardAlpha"/>
      <feOffset dy="24"/>
      <feGaussianBlur stdDeviation="20"/>
      <feColorMatrix values="0 0 0 0 0.317647 0 0 0 0 0.662745 0 0 0 0 0.882353 0 0 0 0.14 0"/>
      <feBlend in2="effect2_dropShadow_2778_365" result="effect3_dropShadow_2778_365"/>
      <feBlend in="SourceGraphic" in2="effect3_dropShadow_2778_365" result="shape"/>
    </filter>
    <filter id="j" x="85.391" y="14.075" width="167.068" height="147.918" filterUnits="userSpaceOnUse" color-interpolation-filters="sRGB">
      <feFlood flood-opacity="0" result="BackgroundImageFix"/>
      <feColorMatrix in="SourceAlpha" values="0 0 0 0 0 0 0 0 0 0 0 0 0 0 0 0 0 0 127 0" result="hardAlpha"/>
      <feOffset dy="11"/>
      <feGaussianBlur stdDeviation="7.5"/>
      <feColorMatrix values="0 0 0 0 0.317647 0 0 0 0 0.662745 0 0 0 0 0.882353 0 0 0 0.2 0"/>
      <feBlend in2="BackgroundImageFix" result="effect1_dropShadow_2778_365"/>
      <feColorMatrix in="SourceAlpha" values="0 0 0 0 0 0 0 0 0 0 0 0 0 0 0 0 0 0 127 0" result="hardAlpha"/>
      <feOffset dy="9"/>
      <feGaussianBlur stdDeviation="23"/>
      <feColorMatrix values="0 0 0 0 0.317647 0 0 0 0 0.662745 0 0 0 0 0.882353 0 0 0 0.12 0"/>
      <feBlend in2="effect1_dropShadow_2778_365" result="effect2_dropShadow_2778_365"/>
      <feColorMatrix in="SourceAlpha" values="0 0 0 0 0 0 0 0 0 0 0 0 0 0 0 0 0 0 127 0" result="hardAlpha"/>
      <feOffset dy="24"/>
      <feGaussianBlur stdDeviation="20"/>
      <feColorMatrix values="0 0 0 0 0.317647 0 0 0 0 0.662745 0 0 0 0 0.882353 0 0 0 0.14 0"/>
      <feBlend in2="effect2_dropShadow_2778_365" result="effect3_dropShadow_2778_365"/>
      <feBlend in="SourceGraphic" in2="effect3_dropShadow_2778_365" result="shape"/>
    </filter>
    <filter id="k" x="379.096" y="0" width="167.068" height="147.918" filterUnits="userSpaceOnUse" color-interpolation-filters="sRGB">
      <feFlood flood-opacity="0" result="BackgroundImageFix"/>
      <feColorMatrix in="SourceAlpha" values="0 0 0 0 0 0 0 0 0 0 0 0 0 0 0 0 0 0 127 0" result="hardAlpha"/>
      <feOffset dy="11"/>
      <feGaussianBlur stdDeviation="7.5"/>
      <feColorMatrix values="0 0 0 0 0.317647 0 0 0 0 0.662745 0 0 0 0 0.882353 0 0 0 0.2 0"/>
      <feBlend in2="BackgroundImageFix" result="effect1_dropShadow_2778_365"/>
      <feColorMatrix in="SourceAlpha" values="0 0 0 0 0 0 0 0 0 0 0 0 0 0 0 0 0 0 127 0" result="hardAlpha"/>
      <feOffset dy="9"/>
      <feGaussianBlur stdDeviation="23"/>
      <feColorMatrix values="0 0 0 0 0.317647 0 0 0 0 0.662745 0 0 0 0 0.882353 0 0 0 0.12 0"/>
      <feBlend in2="effect1_dropShadow_2778_365" result="effect2_dropShadow_2778_365"/>
      <feColorMatrix in="SourceAlpha" values="0 0 0 0 0 0 0 0 0 0 0 0 0 0 0 0 0 0 127 0" result="hardAlpha"/>
      <feOffset dy="24"/>
      <feGaussianBlur stdDeviation="20"/>
      <feColorMatrix values="0 0 0 0 0.317647 0 0 0 0 0.662745 0 0 0 0 0.882353 0 0 0 0.14 0"/>
      <feBlend in2="effect2_dropShadow_2778_365" result="effect3_dropShadow_2778_365"/>
      <feBlend in="SourceGraphic" in2="effect3_dropShadow_2778_365" result="shape"/>
    </filter>
    <filter id="l" x="294.144" y="174.503" width="184.49" height="137.658" filterUnits="userSpaceOnUse" color-interpolation-filters="sRGB">
      <feFlood flood-opacity="0" result="BackgroundImageFix"/>
      <feColorMatrix in="SourceAlpha" values="0 0 0 0 0 0 0 0 0 0 0 0 0 0 0 0 0 0 127 0" result="hardAlpha"/>
      <feOffset dy="11"/>
      <feGaussianBlur stdDeviation="7.5"/>
      <feColorMatrix values="0 0 0 0 0.317647 0 0 0 0 0.662745 0 0 0 0 0.882353 0 0 0 0.2 0"/>
      <feBlend in2="BackgroundImageFix" result="effect1_dropShadow_2778_365"/>
      <feColorMatrix in="SourceAlpha" values="0 0 0 0 0 0 0 0 0 0 0 0 0 0 0 0 0 0 127 0" result="hardAlpha"/>
      <feOffset dy="9"/>
      <feGaussianBlur stdDeviation="23"/>
      <feColorMatrix values="0 0 0 0 0.317647 0 0 0 0 0.662745 0 0 0 0 0.882353 0 0 0 0.12 0"/>
      <feBlend in2="effect1_dropShadow_2778_365" result="effect2_dropShadow_2778_365"/>
      <feColorMatrix in="SourceAlpha" values="0 0 0 0 0 0 0 0 0 0 0 0 0 0 0 0 0 0 127 0" result="hardAlpha"/>
      <feOffset dy="24"/>
      <feGaussianBlur stdDeviation="20"/>
      <feColorMatrix values="0 0 0 0 0.317647 0 0 0 0 0.662745 0 0 0 0 0.882353 0 0 0 0.14 0"/>
      <feBlend in2="effect2_dropShadow_2778_365" result="effect3_dropShadow_2778_365"/>
      <feBlend in="SourceGraphic" in2="effect3_dropShadow_2778_365" result="shape"/>
    </filter>
    <filter id="m" x="334.962" y="114.905" width="231.877" height="129.049" filterUnits="userSpaceOnUse" color-interpolation-filters="sRGB">
      <feFlood flood-opacity="0" result="BackgroundImageFix"/>
      <feColorMatrix in="SourceAlpha" values="0 0 0 0 0 0 0 0 0 0 0 0 0 0 0 0 0 0 127 0" result="hardAlpha"/>
      <feOffset dy="11"/>
      <feGaussianBlur stdDeviation="7.5"/>
      <feColorMatrix values="0 0 0 0 0.317647 0 0 0 0 0.662745 0 0 0 0 0.882353 0 0 0 0.2 0"/>
      <feBlend in2="BackgroundImageFix" result="effect1_dropShadow_2778_365"/>
      <feColorMatrix in="SourceAlpha" values="0 0 0 0 0 0 0 0 0 0 0 0 0 0 0 0 0 0 127 0" result="hardAlpha"/>
      <feOffset dy="9"/>
      <feGaussianBlur stdDeviation="23"/>
      <feColorMatrix values="0 0 0 0 0.317647 0 0 0 0 0.662745 0 0 0 0 0.882353 0 0 0 0.12 0"/>
      <feBlend in2="effect1_dropShadow_2778_365" result="effect2_dropShadow_2778_365"/>
      <feColorMatrix in="SourceAlpha" values="0 0 0 0 0 0 0 0 0 0 0 0 0 0 0 0 0 0 127 0" result="hardAlpha"/>
      <feOffset dy="24"/>
      <feGaussianBlur stdDeviation="20"/>
      <feColorMatrix values="0 0 0 0 0.317647 0 0 0 0 0.662745 0 0 0 0 0.882353 0 0 0 0.14 0"/>
      <feBlend in2="effect2_dropShadow_2778_365" result="effect3_dropShadow_2778_365"/>
      <feBlend in="SourceGraphic" in2="effect3_dropShadow_2778_365" result="shape"/>
    </filter>
    <filter id="n" x="207.363" y="42.345" width="225.273" height="252.776" filterUnits="userSpaceOnUse" color-interpolation-filters="sRGB">
      <feFlood flood-opacity="0" result="BackgroundImageFix"/>
      <feColorMatrix in="SourceAlpha" values="0 0 0 0 0 0 0 0 0 0 0 0 0 0 0 0 0 0 127 0" result="hardAlpha"/>
      <feOffset dy="11"/>
      <feGaussianBlur stdDeviation="7.5"/>
      <feColorMatrix values="0 0 0 0 0.317647 0 0 0 0 0.662745 0 0 0 0 0.882353 0 0 0 0.1 0"/>
      <feBlend in2="BackgroundImageFix" result="effect1_dropShadow_2778_365"/>
      <feColorMatrix in="SourceAlpha" values="0 0 0 0 0 0 0 0 0 0 0 0 0 0 0 0 0 0 127 0" result="hardAlpha"/>
      <feOffset dy="9"/>
      <feGaussianBlur stdDeviation="23"/>
      <feColorMatrix values="0 0 0 0 0.317647 0 0 0 0 0.662745 0 0 0 0 0.882353 0 0 0 0.02 0"/>
      <feBlend in2="effect1_dropShadow_2778_365" result="effect2_dropShadow_2778_365"/>
      <feColorMatrix in="SourceAlpha" values="0 0 0 0 0 0 0 0 0 0 0 0 0 0 0 0 0 0 127 0" result="hardAlpha"/>
      <feOffset dy="24"/>
      <feGaussianBlur stdDeviation="20"/>
      <feColorMatrix values="0 0 0 0 0.317647 0 0 0 0 0.662745 0 0 0 0 0.882353 0 0 0 0.04 0"/>
      <feBlend in2="effect2_dropShadow_2778_365" result="effect3_dropShadow_2778_365"/>
      <feBlend in="SourceGraphic" in2="effect3_dropShadow_2778_365" result="shape"/>
    </filter>
    <filter id="o" x="207.363" y="42.345" width="225.273" height="252.776" filterUnits="userSpaceOnUse" color-interpolation-filters="sRGB">
      <feFlood flood-opacity="0" result="BackgroundImageFix"/>
      <feColorMatrix in="SourceAlpha" values="0 0 0 0 0 0 0 0 0 0 0 0 0 0 0 0 0 0 127 0" result="hardAlpha"/>
      <feOffset dy="11"/>
      <feGaussianBlur stdDeviation="7.5"/>
      <feColorMatrix values="0 0 0 0 0.317647 0 0 0 0 0.662745 0 0 0 0 0.882353 0 0 0 0.2 0"/>
      <feBlend in2="BackgroundImageFix" result="effect1_dropShadow_2778_365"/>
      <feColorMatrix in="SourceAlpha" values="0 0 0 0 0 0 0 0 0 0 0 0 0 0 0 0 0 0 127 0" result="hardAlpha"/>
      <feOffset dy="9"/>
      <feGaussianBlur stdDeviation="23"/>
      <feColorMatrix values="0 0 0 0 0.317647 0 0 0 0 0.662745 0 0 0 0 0.882353 0 0 0 0.12 0"/>
      <feBlend in2="effect1_dropShadow_2778_365" result="effect2_dropShadow_2778_365"/>
      <feColorMatrix in="SourceAlpha" values="0 0 0 0 0 0 0 0 0 0 0 0 0 0 0 0 0 0 127 0" result="hardAlpha"/>
      <feOffset dy="24"/>
      <feGaussianBlur stdDeviation="20"/>
      <feColorMatrix values="0 0 0 0 0.317647 0 0 0 0 0.662745 0 0 0 0 0.882353 0 0 0 0.14 0"/>
      <feBlend in2="effect2_dropShadow_2778_365" result="effect3_dropShadow_2778_365"/>
      <feBlend in="SourceGraphic" in2="effect3_dropShadow_2778_365" result="shape"/>
    </filter>
    <clipPath id="d">
      <path fill="#fff" d="M143.893 215.772h38.803v39.22h-38.803z"/>
    </clipPath>
  </defs>
</svg>
