<svg width="360" height="209" fill="none" xmlns="http://www.w3.org/2000/svg"><rect x="30.5" y="191.5" width="302" height="17" rx="8.5" fill="#103654" stroke="#176293"/><path d="M50.5 51a7.5 7.5 0 017.5-7.5h38a7.5 7.5 0 017.5 7.5v140.5h-53V51zM119.5 111a7.5 7.5 0 017.5-7.5h39a7.5 7.5 0 017.5 7.5v80.5h-54V111zM189.5 73a7.5 7.5 0 017.5-7.5h39a7.5 7.5 0 017.5 7.5v118.5h-54V73zM259.5 17a7.5 7.5 0 017.5-7.5h39a7.5 7.5 0 017.5 7.5v174.5h-54V17z" fill="#103654" stroke="#176293"/><circle cx="314" cy="108" r="31.5" fill="#103654" stroke="#176293"/><path d="M315.518 125.546v-3.18c4.506-.681 7.267-4.088 7.482-8.177 0-8.858-12.554-8.063-12.554-12.719 0-2.044 1.716-3.407 3.97-3.407 2.575 0 4.721 1.476 5.472 2.158.108.227.429.113.537-.114l1.717-3.407c.107-.113 0-.34-.108-.454-.644-.568-2.979-2.281-6.52-2.622v-3.17c0-.227-.214-.454-.429-.454h-2.153c-.214 0-.429.227-.429.454v3.294c-4.077.681-7.101 3.86-7.101 7.949 0 8.404 12.555 7.95 12.555 12.719 0 2.272-1.824 3.407-3.863 3.407-3.005 0-5.473-1.93-6.331-2.725-.107-.114-.429-.114-.536.113l-2.147 3.18c-.107.227-.107.454 0 .568.752.681 3.45 2.953 7.42 3.407v3.18c0 .227.215.454.429.454h2.16c.214 0 .429-.227.429-.454z" fill="#176293"/><circle cx="204.5" cy="4.5" r="4" stroke="#176293"/><rect x="353.889" y="33" width="2.222" height="10" rx="1.111" fill="#176293"/><rect x="350" y="39.111" width="2.222" height="10" rx="1.111" transform="rotate(-90 350 39.111)" fill="#176293"/><rect x="3.889" y="43" width="2.222" height="10" rx="1.111" fill="#176293"/><rect y="49.111" width="2.222" height="10" rx="1.111" transform="rotate(-90 0 49.111)" fill="#176293"/><circle cx="147" cy="57" r="2.5" stroke="#176293"/></svg>