<svg width="766" height="179" fill="none" xmlns="http://www.w3.org/2000/svg"><path d="M169.234 93.097h-45.435l4.03-37.903h37.237l4.168 37.903z" stroke="#0F6195" stroke-width="1.5" stroke-miterlimit="10" stroke-linecap="round" stroke-linejoin="round"/><path d="M162.287 55.194h-31.54l1.667-6.225h28.067l1.806 6.225zM153.811 61.004v6.916c0 4.012-3.335 7.332-7.364 7.332s-7.364-3.32-7.364-7.332v-6.916M75.567 143.042H17.21l-8.476-35.413h75.308l-8.475 35.413zM88.766 100.436H4.01v7.193h84.756v-7.193zM16.654 100.436l20.008-19.92M76.261 100.436l-20.008-19.92M20.128 114.27l5.28 22.132M29.438 114.27l5.418 22.132M39.997 113.993l2.917 22.686M72.649 114.27l-5.28 22.132M63.34 114.27l-5.28 22.132M52.919 113.993L50 136.679M249.405 3.735c2.779 3.182 2.64 14.94 2.64 14.94s-11.671-1.798-14.45-5.118c-2.779-3.182-2.362-8.024.973-10.79 3.195-2.628 8.058-2.213 10.837.968zM254.963 3.735c-2.779 3.182-2.64 14.94-2.64 14.94s11.532-1.798 14.311-5.118c2.779-3.182 2.362-8.024-.972-10.79-3.057-2.628-7.92-2.213-10.699.968zM284.28 32.37h-64.192v42.882h64.192V32.37z" stroke="#0F6195" stroke-width="1.5" stroke-miterlimit="10" stroke-linecap="round" stroke-linejoin="round"/><path d="M287.754 17.845h-71.14V32.37h71.14V17.845z" stroke="#0F6195" stroke-width="1.5" stroke-miterlimit="10" stroke-linecap="round" stroke-linejoin="round"/><path d="M257.603 17.845h-10.837V32.37h10.837V17.845zM257.603 32.37h-10.837v42.882h10.837V32.37zM226.062 43.16v26.144M536.186 150.642l6.808-6.778-6.808-6.778M543.828 150.642l6.947-6.778-6.947-6.778M504.785 150.642l-6.948-6.778 6.948-6.778M497.004 150.642l-6.809-6.778 6.809-6.778M334.439 120.486H292.2v24.07h42.239v-24.07z" stroke="#0F6195" stroke-width="1.5" stroke-miterlimit="10" stroke-linecap="round" stroke-linejoin="round"/><path d="M334.439 120.486l-21.12 13.003-21.119-13.003h42.239zM427.254 105.685l64.887-20.888V46.894l-64.887-20.888v79.679zM492.141 46.894v37.903h25.704c4.725 0 8.615-3.873 8.615-8.577V55.332c0-4.703-3.89-8.576-8.615-8.576h-25.704v.138z" stroke="#0F6195" stroke-width="1.5" stroke-miterlimit="10" stroke-linecap="round" stroke-linejoin="round"/><path d="M433.784 28.081v75.529l-6.53 2.075V26.006l6.53 2.075zM427.253 49.246v33.2c-9.17 0-16.673-7.47-16.673-16.6 0-9.13 7.503-16.6 16.673-16.6zM507.285 122.7c3.613 0 6.67-2.905 6.67-6.64V84.797h-13.2v31.401c-.139 3.597 2.918 6.502 6.53 6.502zM526.321 58.376h-12.505M526.321 65.846h-12.505M526.321 73.454h-12.505M399.465 65.846h-28.623M403.216 52.013l-24.732-14.248M413.359 41.914l-14.311-24.623M413.359 89.777L399.048 114.4M403.216 79.679l-24.732 14.248M680.827 125.881l11.116-11.066M729.041 77.88c-10.838-10.79-28.484-10.79-39.321 0-10.838 10.79-10.838 28.358 0 39.148 10.837 10.79 28.483 10.79 39.321 0 10.837-10.79 10.837-28.358 0-39.148zm-32.513 32.37c-7.086-7.055-7.086-18.537 0-25.591 7.086-7.055 18.618-7.055 25.704 0 7.087 7.054 7.087 18.536 0 25.591-7.086 7.055-18.618 7.055-25.704 0zM657.623 148.982c-1.528-1.521-1.528-4.15 0-5.671l20.425-20.335c1.528-1.521 4.168-1.521 5.697 0 1.528 1.522 1.528 4.15 0 5.672l-20.286 20.196c-1.667 1.66-4.168 1.66-5.836.138zM556.611 73.869v30.571h9.031v15.078l14.867-15.078h24.871V73.869h-48.769zM563.558 81.2h34.875M563.558 87.425h34.875" stroke="#0F6195" stroke-width="1.5" stroke-miterlimit="10" stroke-linecap="round" stroke-linejoin="round"/><path d="M351.993 67.804c1.1-6.943-3.661-13.459-10.635-14.554-6.974-1.095-13.518 3.646-14.618 10.589-1.1 6.942 3.661 13.458 10.635 14.553 6.974 1.096 13.519-3.645 14.618-10.588z" stroke="#E7806A" stroke-width="1.5" stroke-miterlimit="10" stroke-linecap="round" stroke-linejoin="round"/><path d="M336.246 60.313v11.204l10.143-5.671-10.143-5.534z" stroke="#E7806A" stroke-width="1.5" stroke-miterlimit="10" stroke-linecap="round" stroke-linejoin="round"/><path d="M656.234 109.973h-19.73M101.568 110.111v-40.53M106.987 66.952h7.92M88.899 114.454h7.92M181.461 66.952h8.198M192.438 72.485v69.304M197.856 144.556h51.688M252.184 138.746V89.915M295.535 50.076h6.947M304.705 55.333v56.438M346.11 130.999h112.267M461.156 125.881v-17.706M461.156 25.176V6.778M466.853 4.15h65.999M535.77 9.683V90.33M542.161 93.097h3.057M578.981 61.834v-12.45M584.261 46.894h40.293M627.194 52.566v54.364" stroke="#0F6195" stroke-width="2" stroke-linecap="round" stroke-linejoin="round"/><path d="M166.455 141.651v14.801M173.958 148.982h-14.867M504.785 11.343v14.663M512.149 18.675h-14.728M757.524 120.071v14.802M764.888 127.403H750.16M394.463 153.132c0 2.628-2.084 4.703-4.724 4.703s-4.724-2.075-4.724-4.703 2.084-4.703 4.724-4.703c2.501 0 4.724 2.213 4.724 4.703zM7.364 174.712c3.53 0 6.391-2.849 6.391-6.363 0-3.515-2.861-6.364-6.39-6.364-3.53 0-6.392 2.849-6.392 6.364 0 3.514 2.861 6.363 6.391 6.363zM139.639 26.836l6.808 6.778 6.809-6.778M139.639 34.583l6.808 6.778 6.809-6.778" stroke="#E7806A" stroke-width="1.5" stroke-miterlimit="10" stroke-linecap="round" stroke-linejoin="round"/></svg>