<svg width="216" height="216" fill="none" xmlns="http://www.w3.org/2000/svg"><g clip-path="url(#clip0)"><path d="M215.289 169.364v26.861h-18.925M0 169.364v26.861h18.925M0 46.498V19.637h18.925M215.289 46.498V19.637h-18.925" stroke="#0F6195"/><circle cx="108" cy="108" r="80.5" stroke="#0F6195"/><path d="M107.484 158.992c43.107 0 80.642-21.691 100.12-53.724-19.478-32.031-57.013-53.723-100.12-53.723-43.107 0-80.642 21.692-100.12 53.723 19.478 32.033 57.013 53.724 100.12 53.724z" fill="#103654"/><path d="M18.955 120.698a104.272 104.272 0 01-11.591-15.555C26.842 73.111 64.377 51.42 107.484 51.42c43.107 0 80.642 21.69 100.12 53.723-19.478 32.032-57.013 53.723-100.12 53.723-30.867 0-58.876-11.122-79.445-29.197M60.035 77.42a53.5 53.5 0 11-5.748 12.802M129.182 92.633a25.273 25.273 0 11-13.497-11.964" stroke="#0F6195"/></g><defs><clipPath id="clip0"><path fill="#fff" d="M0 0h216v216H0z"/></clipPath></defs></svg>