<svg width="313" height="279" fill="none" xmlns="http://www.w3.org/2000/svg"><path d="M158.215 85.022c11.177 11.45 9.643 37.466 0 29.562" stroke="#176293"/><path d="M299.311 101.418c-13.122-6.704-62.165 1.961-85.047 7.132-3.413-3.162-9.928-12.34-8.686-23.762h64.433c7.636 0 41.655-6.495 41.655-2.51 0 3.985-9.002 5.83-13.799 8.191-4.796 2.361-2.435 3.025 3.025 6.272 5.461 3.247.074 5.682-1.581 4.677z" fill="#103654" stroke="#176293"/><path d="M214.264 108.55c22.882-5.171 71.925-13.836 85.047-7.132 1.655 1.005 7.042-1.43 1.581-4.677-5.46-3.247-7.821-3.91-3.025-6.272 4.797-2.361 13.799-4.206 13.799-8.19 0-3.986-34.019 2.51-41.655 2.51h-64.433" stroke="#176293"/><path d="M232.142 277.107l40 .5c5.734-2.187-10.642-10.136-22.91-14.411l-2.757-8.209c-1.219-3.206-2.491-.756-4.298-.756-.718 0-7.782.756-12.035 1.182v17.694c0 3.6 1.333 4.167 2 4z" fill="#103654" stroke="#176293"/><path d="M232.142 277.107l40 .5c5.734-2.187-10.642-10.136-22.91-14.411l-2.757-8.209c-1.219-3.206-2.491-.756-4.298-.756-.718 0-7.782.756-12.035 1.182v17.694c0 3.6 1.333 4.167 2 4z" stroke="#176293"/><path d="M79.743 275.055c1.191-6.749 10.485-13.995 12.96-14.522-2.282-3.737-7.17-11.211-8.458-11.211-13.375 7.821-40.748 23.918-43.243 25.733-2.495 1.815-1.04 2.458 0 2.552 7.49-.425 30.419-1.233 33.991-1.063 4.466.212 4.75-.851 4.75-1.489z" fill="#103654" stroke="#176293"/><path d="M92.703 260.533c-2.475.527-11.769 7.773-12.96 14.522 0 .638-.284 1.701-4.75 1.489-3.572-.17-26.5.638-33.991 1.063-1.04-.094-2.495-.737 0-2.552s29.868-17.912 43.243-25.733" stroke="#176293"/><path d="M253.044 248.368l2.569-50.842c-.44-3.887-3.689-7.441-5.259-8.732l-37.675-38.908c4.235-9.47 8.496-37.279-6.714-65.096h-31.288c-39.799.253-108.272.756-111.374.756-3.878 0-8.567-.36-8.567 1.894s8.477 5.14 16.932 7.574c8.455 2.435-1.061 5.23-3.406 7.034-2.344 1.803-1.222 5.963 3.406 3.604 14.808-7.287 53.838-3.413 80.94 2.379 7.094 4.73 18.548 32.759 19.821 40.399-12.37 4.912-41.038 34.985-42.817 37.43-1.422 1.956-34.27 42.89-48.058 56.96-2.17 1.429-1.274 2.936-.555 3.511 3.47 3.984 10.954 12.704 13.122 15.71 2.169 3.007 3.574 2.937 4.005 2.526l87.363-75.773 31.463 22.216c6.402 4.268 5.512 11.755 6.002 15.116 1.704 11.707 1.178 14.773 1.534 22.242.444 9.336 9.114 6.669 16.671 5.78 6.047-.712 12.107-3.26 11.885-5.78z" fill="#103654"/><path d="M152.608 108.031c7.094 4.73 18.548 32.759 19.821 40.399-12.37 4.912-41.038 34.985-42.817 37.43-1.422 1.956-34.27 42.89-48.058 56.96-2.17 1.429-1.274 2.936-.555 3.511 3.47 3.984 10.954 12.704 13.122 15.71 2.169 3.007 3.574 2.937 4.005 2.526l87.363-75.773 31.463 22.216c6.402 4.268 5.512 11.755 6.002 15.116 1.704 11.707 1.178 14.773 1.534 22.242.444 9.336 9.114 6.669 16.671 5.78 6.047-.712 12.107-3.26 11.885-5.78l2.569-50.842c-.44-3.887-3.689-7.441-5.259-8.732l-37.675-38.908c4.235-9.47 8.496-37.279-6.714-65.096h-31.288c-39.799.253-108.272.756-111.374.756-3.878 0-8.567-.36-8.567 1.894s8.477 5.14 16.932 7.574c8.455 2.435-1.061 5.23-3.406 7.034-2.344 1.803-1.222 5.963 3.406 3.604 16.21-7.976 61.446-2.579 88.286 4.068" stroke="#176293"/><path d="M199.206 70c-.422 2.797-.202 4.39-2.365 7.608-6.974 2.633-14.762-3.107-17.703-7.283l-.209 4.156c-3.791 3.348-9.53.351-11.926-1.565-1.227-3.176-3.681-10.587-3.681-14.826-1.817 3.718-11.662 26.754-25.924 20.817-11.409-4.75-13.942-11.34-13.781-14.042 4.053 2.142 13.901 2.8 20.866-11.694 8.707-18.118 16.813-17.597 27.337-12.142 2.529-1.938 8.015-2.24 10.442-2.148 9.818.916 12.649 4.143 13.025 8.594.377 4.45 6.139 13.621 8.784 14.805 2.645 1.184.845 2.334-1.26 3.026-2.105.693-3.184 1.896-3.605 4.693z" fill="#103654"/><path d="M152.608 108.031c7.094 4.73 18.548 32.759 19.821 40.399-12.37 4.912-41.038 34.985-42.817 37.43-1.422 1.956-34.27 42.89-48.058 56.96-2.17 1.429-1.274 2.936-.555 3.511 3.47 3.984 10.954 12.704 13.122 15.71 2.169 3.007 3.574 2.937 4.005 2.526l87.363-75.773 31.463 22.216c6.402 4.268 5.512 11.755 6.002 15.116 1.704 11.707 1.178 14.773 1.534 22.242.444 9.336 9.114 6.669 16.671 5.78 6.047-.712 12.107-3.26 11.885-5.78l2.569-50.842c-.44-3.887-3.689-7.441-5.259-8.732l-37.675-38.908c4.235-9.47 8.496-37.279-6.714-65.096h-12.012m-33.999 24.93c-26.84-6.647-72.076-12.044-88.286-4.068-4.628 2.359-5.75-1.801-3.406-3.604 2.345-1.804 11.861-4.6 3.406-7.034-8.455-2.435-16.932-5.32-16.932-7.574 0-2.255 4.69-1.894 8.567-1.894 3.102 0 71.575-.503 111.374-.756M212.922 149.903c-14.603 7.686-33.027 2.673-40.905-1.455M194.713 46.85c-5.285-.407-16.661.024-16.719 14.065-1.256-3.512-8.007-6.155-6.32 1.23.487 2.541 2.67 3.617 5.333 3.64l1.14 2.48" stroke="#176293"/><circle cx="192.342" cy="57.113" r="1.755" transform="rotate(22.604 192.342 57.113)" fill="#176293"/><path d="M170.167 91.136c7.303-2.902 8.586-16.188 8-22 1.316-1.9 11.193 5.924 15.575 9.516-.628 1.484-.624 8.22 4.764 13.548-8.601.454-27.439.731-28.339-1.064z" fill="#103654"/><path d="M177.997 67.927c1.095 5.15-1.027 20.806-8.33 23.709m24.5-13.5c-.628 1.484-1.049 8.735 4.339 14.064M192.263 50.686c-3.244 1.413-5.503 5.405-5.979 8.242m2.77 8.58c1.994.938 4.793 2.157 6.74 1.776" stroke="#176293"/><path d="M177.982 68.005c.097.45.323.977.658 1.55 2.452 4.187 10.786 10.852 18.201 8.052 2.163-3.217 1.943-4.81 2.365-7.608.421-2.797 1.5-4 3.605-4.693 2.105-.692 3.905-1.842 1.26-3.026-2.645-1.184-8.407-10.354-8.783-14.805-.377-4.451-3.208-7.678-13.026-8.594-11.079-.478-26.049 7.025-15.258 34.035 2.395 1.916 7.186 5.445 10.978 2.097" stroke="#176293"/><path d="M163.569 57.704c-1.816 3.717-11.909 27.14-26.171 21.202-11.409-4.75-13.941-11.34-13.781-14.041 4.053 2.141 13.901 2.8 20.866-11.694 8.707-18.118 16.662-17.67 27.186-12.214M199.314 85.347c.624 3.277 1.497 10.697 0 14.16-1.405 2.809-20.012 2.224-22.235 1.755-2.224-.468-9.596-9.478-9.83-15.915" stroke="#176293"/><path d="M93.786 1.063c26.879 41.073 62.952 7.14 127.719 28.57 57.681 19.085 75.378 81.036 33.648 111.488-41.73 30.451-141.697 37.405-139.938-4.718.429-10.271 15.283-15.648 32.3-17.632M1 216.883c8.035-13.597 35.675-18.8 68.719 12.395 39.71 37.488 100.094 60.994 109.289 4.119 10.454-64.663-103.268-82.332-93.117-20.301.495 3.027 1.337 5.824 2.491 8.401m45.898 24.175c50.294 3.663 122.81-24.754 133.935-64.264 6.436-22.862-13.767-40.552-41.45-51.375" stroke="#0F4465"/></svg>