<svg width="270" height="227" fill="none" xmlns="http://www.w3.org/2000/svg"><path d="M230.755 76.091c1.862 4.938 4.208 11.108 1.321 16.101-2.998 5.2-10.082 7.535-14.835 10.745-.067.045-.251.145-.324.206a515.58 515.58 0 00-10.639-36.186c4.487-.412 8.967-1.025 13.476-1.087 2.201-.033 4.174-.128 5.857 1.438 2.547 2.369 3.941 5.59 5.144 8.783zM82.889 215.002c-4.464 2.669-8.856 5.751-13.481 8.097-2.648 1.344-6.214 2.715-8.845.569-1.477-1.204-2.57-3.082-3.64-4.626-5.282-7.596-8.966-15.917-13.012-24.204-4.788-9.798-8.416-19.879-11.598-30.29a506.54 506.54 0 0032.937-6.888c4.197 10.912 8.917 21.506 15.493 31.215a143.383 143.383 0 004.827 6.732c1.911 2.486 4.87 4.782 5.974 7.78 2.107 5.718-4.692 9.24-8.655 11.615zM213.512 173.008c-.825-.217-1.627-.44-2.402-.641-9.034-2.296-18.012-4.815-26.974-7.395-14.78-4.253-29.56-8.7-44.752-11.269-16.692-2.82-33.606-3.099-50.448-1.566-4.174.379-8.338.875-12.49 1.432-6.303-21.2-12.416-42.456-17.722-63.93 30.87-13.731 56.539-37.534 79.88-61.438 4.202-4.308 8.343-8.671 12.534-12.985 2.613-2.692 5.255-5.361 8.186-7.719a50.089 50.089 0 013.456-2.591c5.016 7.813 8.326 16.937 11.754 25.514 4.648 11.608 8.967 23.357 13.13 35.15 2.764 7.835 5.606 15.693 7.93 23.674 3.734 12.846 6.8 25.921 9.731 38.973 3.311 14.746 6.71 29.716 8.187 44.791z" fill="#103654"/><path d="M255.94 79.407c4.453.407 8.917.641 13.354 1.187.936.117.947 1.6 0 1.483-4.437-.546-8.901-.78-13.354-1.187-.941-.09-.947-1.572 0-1.483zM247.564 54.68l9.993-9.726c.685-.663 1.733.385 1.047 1.048l-9.992 9.725c-.686.669-1.733-.379-1.048-1.048zM244.098 106.286c3.862 3.149 7.434 6.616 10.906 10.183.663.685-.384 1.733-1.048 1.047-3.472-3.567-7.044-7.033-10.906-10.182-.736-.607.317-1.649 1.048-1.048zM225.132 27.154c-.39 5.7-.663 11.408-1.059 17.104-.061.953-1.544.953-1.477 0 .39-5.696.664-11.403 1.054-17.104.061-.948 1.543-.953 1.482 0zM38.89 123.585c.84-.429 2.802-1.387.824-2.82-.557-.401-2.853.251-3.617.446-1.694.435-3.344 1.054-5 1.622-2.69.886-5.834 1.393-8.348 2.72-1.922 1.008-2.457 2.719.04 2.931.718.062 1.649-.334 2.362-.496a66.59 66.59 0 004.665-1.254c2.976-.914 6.303-1.727 9.073-3.149zm-8.188-2.179c1.761-.607 12.584-4.815 11.475.703-.367 1.816-2.24 2.703-3.79 3.316-2.77 1.092-5.695 1.989-8.549 2.847-2.301.697-10.722 4.108-10.299-1.12.145-1.755 1.316-2.407 2.815-3.032 2.703-1.114 5.578-1.8 8.348-2.714zM37.306 110.143c-.234-.251-1.103-.273-1.41-.295-3.054-.251-6.66 1.488-9.519 2.43-2.24.635-5.974 1.298-7.618 3.082-.719.78-.463 1.906.524 2.156.334.084.942-.172 1.282-.239 3.12-.625 6.22-1.416 9.262-2.33 1.706-.513 3.422-1.048 5.055-1.767.496-.217 1.165-.44 1.588-.802.407-.351 1.5-1.533.836-2.235zm-11.324.708c2.814-.931 10.41-4.576 13.013-1.36 2.96 3.662-6.95 6.337-8.772 6.883a109.59 109.59 0 01-7.663 1.989c-1.165.262-2.653.814-3.873.641-2.258-.317-2.692-2.764-1.366-4.308 1.94-2.268 5.974-3.082 8.66-3.845z" fill="#176293"/><path d="M74.178 153.875a.814.814 0 01.19-.027c.195-.028.395-.051.59-.078-6.275-21.111-12.36-42.273-17.644-63.651A1269.736 1269.736 0 0018.608 100c-4.698 1.282-11.296 2.062-14.79 5.785-3.595 3.823-2.391 10.957-1.856 15.716 1.187 10.455 4.67 20.654 10.048 29.688 2.474 4.152 5.367 8.817 9.012 12.049 2.547 2.263 7.2.524 10.21.006a504.556 504.556 0 0042.774-9.324.632.632 0 01.172-.045zm8.711 61.127c3.963-2.375 10.762-5.897 8.655-11.615-1.103-2.998-4.063-5.294-5.974-7.78a143.383 143.383 0 01-4.827-6.732c-6.576-9.709-11.296-20.303-15.493-31.215a506.54 506.54 0 01-32.937 6.888c3.182 10.411 6.81 20.492 11.597 30.29 4.047 8.287 7.73 16.608 13.014 24.204 1.07 1.544 2.162 3.422 3.64 4.626 2.63 2.145 6.196.774 8.844-.569 4.625-2.346 9.017-5.428 13.481-8.097zm128.221-42.635c.775.201 1.577.424 2.402.641-1.477-15.075-4.876-30.045-8.187-44.791-2.931-13.052-5.996-26.127-9.731-38.973-2.323-7.98-5.166-15.839-7.93-23.675-4.163-11.793-8.482-23.54-13.13-35.15-3.428-8.577-6.738-17.7-11.754-25.513a49.824 49.824 0 00-3.455 2.591c-2.932 2.358-5.574 5.027-8.187 7.719-4.191 4.314-8.332 8.677-12.534 12.985-23.341 23.904-49.01 47.706-79.88 61.439 5.306 21.473 11.42 42.729 17.723 63.929 4.151-.557 8.315-1.053 12.489-1.432 16.842-1.533 33.756-1.254 50.448 1.566 15.192 2.569 29.972 7.016 44.752 11.269 8.962 2.58 17.94 5.099 26.974 7.395zm6.131-69.43c4.753-3.21 11.837-5.545 14.835-10.745 2.887-4.993.541-11.163-1.321-16.1-1.203-3.194-2.597-6.415-5.144-8.784-1.683-1.566-3.656-1.471-5.857-1.438-4.509.061-8.989.674-13.476 1.087a515.58 515.58 0 0110.639 36.186c.073-.061.257-.161.324-.206zm16.39-10.483c-3.015 5.807-10.522 8.31-15.644 11.765-.122.083-.518.39-.691.451a492.21 492.21 0 015.44 24.188c1.733 8.744 3.026 17.533 4.185 26.372.719 5.528 1.895 13.52-2.714 17.845-1.711 1.611-4.041 2.196-6.348 2.129-4.208-.112-8.516-1.739-12.551-2.809-8.961-2.357-17.867-4.927-26.773-7.496-15.499-4.47-31.081-8.878-47.132-10.884-18.915-2.369-37.997-1.349-56.83 1.287-2.624.691-5.249 1.354-7.88 2.007 5.362 13.927 11.765 27.966 21.641 39.34 3.076 3.545 6.977 7.691 4.063 12.651-2.34 3.974-7.814 6.454-11.643 8.661-4.893 2.809-9.82 7.306-15.532 8.192-4.536.697-6.777-2.396-9.1-5.679-5.808-8.192-9.815-17.282-14.173-26.294-4.593-9.48-8.037-19.311-11.107-29.376-.056.012-.106.023-.162.028-2.452.418-5.529 1.433-8.037.92-2.05-.418-3.382-2.157-4.664-3.667a74.547 74.547 0 01-9.246-13.727c-5-9.558-7.986-20.158-8.6-30.936-.267-4.693-.523-10.06 3.389-13.398 3.901-3.333 9.915-4.152 14.69-5.45a1279.467 1279.467 0 0139.42-10.06c4.13-1.823 8.17-3.84 12.121-6.025 29.655-16.44 53.898-40.834 77.199-65.066 5.049-5.255 10.071-10.795 16.38-14.568 5.238-3.132 11.843-4.749 15.983.852 5.607 7.58 9.207 17.037 12.824 25.654a531.748 531.748 0 0113.66 36.158c5.428-.485 10.968-1.482 16.418-1.081 5.685.412 8.198 6.565 9.971 11.258 1.945 5.15 4.185 11.475 1.443 16.758zm-7.819 73.738c.613-3.868.017-7.763-.463-11.609-.568-4.581-1.181-9.156-1.933-13.71-1.433-8.733-3.211-17.41-5.228-26.026-7.34-31.366-17.31-62.592-30.479-92.018-1.996-4.459-4.08-8.895-6.443-13.164-2.157-3.895-4.576-8.683-9.781-8.287-2.614.2-5.138 1.304-7.462 2.725 5.812 9.023 9.519 19.712 13.42 29.65 4.564 11.63 8.85 23.373 12.963 35.171 2.692 7.719 5.406 15.449 7.568 23.335 3.835 13.989 7.195 28.116 10.26 42.289 2.77 12.801 5.54 25.759 6.8 38.822 2.262.48 4.592.658 6.682-.356 2.602-1.265 3.672-4.13 4.096-6.822z" fill="#176293"/><path d="M37.306 110.143c.663.702-.429 1.884-.836 2.235-.423.362-1.092.585-1.588.802-1.633.719-3.35 1.254-5.055 1.767a101.319 101.319 0 01-9.262 2.33c-.34.067-.948.323-1.282.239-.987-.25-1.243-1.376-.524-2.156 1.644-1.784 5.378-2.447 7.618-3.082 2.86-.942 6.465-2.681 9.52-2.43.306.022 1.175.044 1.41.295zM39.714 120.766c1.978 1.432.017 2.39-.825 2.82-2.77 1.421-6.097 2.234-9.073 3.148a66.561 66.561 0 01-4.665 1.254c-.713.162-1.644.558-2.363.496-2.496-.211-1.961-1.922-.039-2.931 2.514-1.327 5.657-1.834 8.349-2.72 1.655-.568 3.305-1.187 4.999-1.622.764-.195 3.06-.847 3.617-.445zM225.349 154.583c.48 3.846 1.076 7.741.463 11.609-.424 2.692-1.494 5.557-4.096 6.822-2.09 1.014-4.42.836-6.682.356-1.26-13.063-4.03-26.021-6.8-38.822-3.065-14.172-6.425-28.3-10.26-42.289-2.162-7.886-4.876-15.616-7.568-23.335-4.113-11.798-8.399-23.54-12.963-35.172-3.901-9.937-7.608-20.626-13.42-29.649 2.324-1.42 4.848-2.524 7.462-2.725 5.205-.396 7.624 4.392 9.781 8.287 2.363 4.27 4.447 8.706 6.443 13.164 13.169 29.426 23.139 60.652 30.479 92.018 2.017 8.616 3.795 17.293 5.228 26.027.752 4.553 1.365 9.128 1.933 13.709z" fill="#103654"/><path d="M74.958 153.77c-.195.028-.395.05-.59.078a.767.767 0 00-.19.028.597.597 0 00-.173.044 504.529 504.529 0 01-42.773 9.324c-3.01.518-7.663 2.257-10.21-.006-3.645-3.232-6.538-7.897-9.012-12.049-5.378-9.034-8.861-19.233-10.048-29.688-.535-4.759-1.74-11.893 1.855-15.716 3.495-3.723 10.093-4.503 14.791-5.785 12.852-3.5 25.754-6.788 38.706-9.881 5.283 21.378 11.37 42.54 17.644 63.651zm-32.78-31.661c1.108-5.518-9.715-1.31-11.476-.703-2.77.914-5.645 1.6-8.348 2.715-1.5.624-2.67 1.276-2.815 3.031-.423 5.228 7.998 1.817 10.3 1.121 2.853-.859 5.779-1.756 8.549-2.848 1.549-.613 3.421-1.499 3.79-3.316zm-11.955-5.735c1.822-.546 11.731-3.221 8.772-6.883-2.603-3.216-10.199.429-13.013 1.36-2.686.763-6.721 1.577-8.66 3.845-1.327 1.544-.893 3.991 1.364 4.308 1.221.173 2.71-.379 3.874-.64a110.155 110.155 0 007.663-1.99z" fill="#103654"/></svg>