<svg width="152" height="158" fill="none" xmlns="http://www.w3.org/2000/svg"><g clip-path="url(#a)"><path d="m126 144.719 3.486-3.267 5.729 6.112L148.761 135l3.24 3.512-17.031 15.786-8.97-9.579Zm1.617.054 7.412 7.91 15.356-14.228-1.69-1.831-13.539 12.553-5.722-6.111-1.817 1.707Z" fill="#51A9E1"/></g><g clip-path="url(#b)" fill="#51A9E1"><path d="M97.34 158a.681.681 0 0 1-.47-.248l-4.454-4.794-6.18-6.652c-.238-.256-.292-.468-.18-.709.111-.241.3-.341.62-.341h3.465v-10.87c0-1.04.422-1.747 1.292-2.162.283-.132.591-.202.904-.206a1143.118 1143.118 0 0 1 10.002-.007 2.198 2.198 0 0 1 2.184 2.054c.01.132.015.275.015.448v10.744H107.999c.332 0 .527.11.633.355.107.244.049.443-.182.691l-5.991 6.446a5735.038 5735.038 0 0 1-4.65 5.001.686.686 0 0 1-.468.25Zm0-1.408 9.473-10.199h-2.714a1.171 1.171 0 0 1-.277-.025c-.217-.059-.418-.185-.418-.695v-11.227c0-.093 0-.19-.008-.289a1.077 1.077 0 0 0-1.089-1.019h-9.925a1.081 1.081 0 0 0-1.097 1.041c-.007.09-.006.176-.006.26v11.394a.558.558 0 0 1-.363.523.558.558 0 0 1-.222.036H87.87l9.47 10.2Z"/><path d="M97.33 147.22c-.337 0-.556-.261-.558-.654v-1h-.943a.78.78 0 0 1-.57-.188.518.518 0 0 1-.14-.384c0-.507.49-.562.697-.562h2.348a1.083 1.083 0 0 0 1.077-.918 1.087 1.087 0 0 0-.745-1.203 1.67 1.67 0 0 0-.434-.05h-.027c-.158 0-.317-.005-.475-.005h-.31c-.36.005-.721-.009-1.08-.042-1.079-.117-1.904-1.108-1.88-2.256a2.204 2.204 0 0 1 1.974-2.135l.207-.02.296-.03v-1.027a.568.568 0 1 1 1.136-.005v1.065h.772c.129 0 .234 0 .332.007a.566.566 0 0 1 .505.794.53.53 0 0 1-.238.25c-.13.055-.272.083-.413.081h-1.513c-.324 0-.574 0-.809.005a1.14 1.14 0 0 0-.984.552 1.063 1.063 0 0 0 0 1.049 1.095 1.095 0 0 0 1.01.58h.99c.272 0 .483 0 .682.008a2.214 2.214 0 0 1 .657 4.31 3.903 3.903 0 0 1-.523.121c-.096.018-.196.036-.3.058l-.164.035v.915c0 .403-.22.654-.567.654l-.01-.005Z"/></g><g clip-path="url(#c)" fill="#51A9E1"><path d="M53.923 139.453c0 1.887 0 3.773.006 5.66a.763.763 0 0 0 .147.434 3875.15 3875.15 0 0 0 7.163 9.215c.39.508.359.711-.148 1.117-.795.624-1.634 1.168-2.588 1.524-.969.364-1.976.508-3 .57-2.857.176-5.519-.44-7.904-2.048-2.935-1.976-4.787-4.706-5.384-8.2-.665-3.882.24-7.414 2.71-10.492 1.726-2.148 3.96-3.507 6.687-3.995a13.474 13.474 0 0 1 1.665-.15c.435-.024.648.213.65.682v4.315l-.004 1.368Zm-1.093-5.281c-.386.051-.738.08-1.084.145-2.724.513-4.86 1.966-6.44 4.202-1.912 2.708-2.616 5.746-2.026 9.008.699 3.859 2.902 6.633 6.426 8.34 1.93.936 3.99 1.172 6.11 1.002 1.055-.086 2.08-.291 3.018-.799.472-.255.914-.556 1.382-.843-.072-.101-.102-.145-.142-.192-2.322-2.985-4.646-5.97-6.97-8.952a1.245 1.245 0 0 1-.278-.812c.007-3.571.007-7.142 0-10.714l.005-.385Z"/><path d="M61.508 144.998h-5.763c-.563 0-.743-.179-.743-.743v-11.522c0-.556.189-.739.753-.732 5.704.08 10.69 4.123 11.929 9.709.183.828.237 1.688.305 2.539.048.562-.167.752-.724.752l-5.758-.003Zm5.372-1.094c-.203-6.038-5.431-10.702-10.773-10.766v10.766H66.88ZM62.041 146.076h5.15c.65 0 .826.168.804.807-.12 3.439-1.41 6.362-3.873 8.768-.346.338-.653.305-.982-.102-1.676-2.071-3.35-4.144-5.024-6.217-.61-.75-1.21-1.502-1.82-2.249-.172-.21-.284-.428-.155-.694.129-.266.373-.314.643-.314 1.753.002 3.505.002 5.257.001Zm-4.266 1.105 5.938 7.35c1.954-2.08 3.01-4.506 3.186-7.35h-9.124Z"/></g><path d="M19.123 157.999a5.827 5.827 0 0 1-3.35-1.033.629.629 0 0 0-.48-.126 27.727 27.727 0 0 1-4.79.245c-2.62-.087-4.73-.422-6.641-1.055-.94-.312-2.023-.739-2.923-1.552-.64-.574-.946-1.24-.939-2.032.02-1.896.015-3.829.012-5.689v-4.372c0-1.879.005-3.821-.01-5.731-.007-.731.267-1.36.838-1.922.83-.819 1.874-1.267 2.691-1.565 1.66-.605 3.54-.957 5.92-1.103a32.434 32.434 0 0 1 2.031-.064 30.182 30.182 0 0 1 3.569.208c1.586.189 3.651.533 5.558 1.527.643.335 1.444.829 1.938 1.68.197.324.301.696.302 1.076-.006 2.063-.006 4.163-.007 6.192v4.434a.43.43 0 0 0 .168.372 5.961 5.961 0 0 1-.504 9.463 5.915 5.915 0 0 1-3.383 1.047Zm-.082-10.858c-2.587 0-4.742 2.173-4.803 4.844a4.723 4.723 0 0 0 1.343 3.386 4.845 4.845 0 0 0 3.408 1.521h.109a4.884 4.884 0 0 0 4.553-6.658 4.796 4.796 0 0 0-1.04-1.596 4.961 4.961 0 0 0-3.476-1.493l-.094-.004Zm-17.93 2.146v.923c0 .763 0 1.552-.004 2.328-.006.347.124.682.362.934.468.518 1.064.828 1.586 1.061 1.85.832 3.816 1.132 5.323 1.3.967.106 1.939.158 2.912.157a31.628 31.628 0 0 0 2.84-.131l.368-.031a6.214 6.214 0 0 1-1.072-1.941 6.153 6.153 0 0 1-.287-2.265h-.167c-.58.025-1.148.038-1.687.038a26.456 26.456 0 0 1-5.429-.514c-1.511-.312-3.25-.789-4.75-1.94l.006.081Zm0-5.429v3.226a1.263 1.263 0 0 0 .366.955c.2.206.42.39.657.553 1.053.7 2.232 1.047 3.246 1.293 1.966.464 3.981.69 6.002.673.547 0 1.117-.015 1.696-.044.227-.011.279-.072.34-.279.734-2.472 3.078-4.197 5.7-4.197a5.72 5.72 0 0 1 1.713.262c.235.074.469.163.695.251l.185.07v-2.837c-.992.806-2.135 1.226-3.124 1.529-1.37.421-2.882.687-4.621.816-.934.068-1.843.1-2.702.1a26.923 26.923 0 0 1-5.223-.479c-1.567-.308-3.368-.782-4.926-1.975l-.003.083Zm0-5.506v.814c0 .815.009 1.585-.01 2.371-.014.572.195 1.008.636 1.327.404.302.836.566 1.29.787 1.19.562 2.562.94 4.319 1.189 1.354.192 2.72.29 4.087.291 1.427 0 2.851-.109 4.26-.327 1.653-.256 2.965-.621 4.127-1.15.47-.214 1.066-.522 1.525-1.02a1.29 1.29 0 0 0 .378-.907v-3.383a7.914 7.914 0 0 1-2.058 1.168c-1.636.652-3.461 1.034-5.744 1.201-.9.066-1.781.101-2.62.101a28.42 28.42 0 0 1-4.132-.293c-2.053-.31-4.201-.785-6.057-2.169Zm10.313-5.245c-1.15 0-2.3.07-3.441.208-1.827.221-3.283.571-4.583 1.1-.543.22-1.24.544-1.814 1.087-.594.564-.62 1.145-.073 1.728.134.142.282.27.44.383.9.651 1.92.996 2.803 1.248 1.938.553 4.057.819 6.669.835a27.955 27.955 0 0 0 4.373-.333c1.753-.289 3.043-.662 4.184-1.21.504-.242 1.067-.558 1.472-1.078.353-.453.35-.893-.008-1.345-.41-.517-.965-.828-1.454-1.062-1.896-.907-3.921-1.221-5.474-1.39a28.827 28.827 0 0 0-3.095-.171h.001Z" fill="#51A9E1"/><path d="M19.029 154.349c-.147 0-.303-.068-.477-.215l-1.966-1.612c-.31-.255-.373-.576-.168-.839a.513.513 0 0 1 .415-.209c.164.007.322.07.446.178.349.283.695.569 1.042.854l.478.392.112.089.451-.649c.636-.914 1.263-1.814 1.892-2.721.068-.107.15-.204.243-.29a.536.536 0 0 1 .336-.128.55.55 0 0 1 .324.115.513.513 0 0 1 .183.63c-.035.085-.08.165-.133.239-.884 1.271-1.769 2.54-2.653 3.807-.169.245-.336.359-.525.359Z" fill="#51A9E1"/><path d="M18.927 153.131c.813-1.168 1.612-2.311 2.404-3.453.064-.099.14-.189.226-.268a.402.402 0 0 1 .534-.011.408.408 0 0 1 .15.513 1.08 1.08 0 0 1-.121.217c-.882 1.269-1.764 2.537-2.647 3.804-.264.378-.504.412-.856.124-.657-.538-1.313-1.075-1.966-1.613-.27-.223-.323-.483-.153-.699.17-.217.445-.228.713-.012.509.412 1.013.83 1.52 1.245.057.046.117.091.196.153Z" fill="#51A9E1"/><g clip-path="url(#d)" fill="#51A9E1"><path d="M128.145 112.898h-2.144v1.089H152v-1.084h-2.148V94h-5.335v18.884h-2.851V98.712h-5.337v14.172h-2.851v-9.677h-5.338l.005 9.691Zm20.59-.014h-3.1V95.102h3.1v17.782Zm-11.285 0V99.832h3.096v13.052h-3.096Zm-8.179 0v-8.581h3.095v8.581h-3.095ZM143.073 90.39l-.342 2.265 1.089.167.64-4.183-4.18-.64-.172 1.091 2.372.367L129 97.405l.56.952 13.513-7.967Z"/></g><g clip-path="url(#e)" fill="#51A9E1"><path d="M95.23 114.001h-5.89c-1.397 0-2.337-.938-2.34-2.33v-10.585c0-1.019.594-2.246 2.279-2.36a.22.22 0 0 0 .205-.219v-1.403c0-.768-.008-1.566.032-2.343a7.118 7.118 0 0 1 5.675-6.59 7.551 7.551 0 0 1 1.536-.16 7.206 7.206 0 0 1 7.095 6.034c.067.45.1.904.098 1.358.01.644.008 1.3.007 1.936v.886c0 .073 0 .146.007.211v.071a.226.226 0 0 0 .052.132.217.217 0 0 0 .121.072c.098.022.196.041.291.058.181.03.359.072.534.127.917.315 1.467 1.144 1.469 2.218v10.541c0 1.144-.622 1.987-1.654 2.257-.22.056-.447.084-.674.084-2.95.003-5.897.005-8.842.005Zm-5.814-14.043c-.828 0-1.198.369-1.2 1.198v10.423c0 .838.377 1.212 1.219 1.212h14.53c.839 0 1.214-.375 1.214-1.217v-10.392c0-.856-.369-1.221-1.233-1.221H89.414l.002-.003Zm7.313-10.752c-.442 0-.884.05-1.316.147-2.812.635-4.66 2.92-4.71 5.815a69.39 69.39 0 0 0 0 2.02v1.314a.22.22 0 0 0 .22.22h11.53a.219.219 0 0 0 .22-.195c0-.02.005-.04.007-.058a.976.976 0 0 0 .015-.143v-1.025c0-.769.009-1.568-.016-2.354-.099-3.163-2.77-5.741-5.952-5.741h.002Z"/><path d="M96.69 109.868c-.514 0-.595-.412-.598-.658v-.99c0-.173-.006-.336.006-.499.026-.353-.182-.492-.366-.575-.865-.386-1.332-1.189-1.283-2.203a2.193 2.193 0 0 1 1.48-1.939c.25-.087.513-.131.778-.132a2.245 2.245 0 0 1 2.208 1.78 2.242 2.242 0 0 1-1.304 2.518.476.476 0 0 0-.308.49c.007.469.007.978 0 1.558 0 .414-.22.646-.597.651l-.015-.001Zm0-5.783a1.007 1.007 0 0 0-.739.283.999.999 0 0 0-.3.733 1.046 1.046 0 0 0 .277.768 1.025 1.025 0 0 0 .744.3h.028c.618 0 1.039-.412 1.044-1.025a1.058 1.058 0 0 0-.29-.76 1.04 1.04 0 0 0-.749-.296l-.014-.003Z"/></g><g clip-path="url(#f)" fill="#51A9E1"><path d="M54.979 114.001h-1.583a.62.62 0 0 1-.442-.167.495.495 0 0 1-.138-.36c0-.304.236-.51.578-.513h.758a.314.314 0 0 0 .312-.312v-1.703a.314.314 0 0 0-.28-.312 9.691 9.691 0 0 1-5.368-2.212.31.31 0 0 0-.421.019l-1.236 1.243a.306.306 0 0 0-.092.228.313.313 0 0 0 .104.224l.143.125c.117.104.25.216.37.338.238.241.253.55.036.767a.494.494 0 0 1-.356.153.587.587 0 0 1-.41-.183c-.812-.804-1.56-1.555-2.295-2.295a.579.579 0 0 1-.178-.407.528.528 0 0 1 .506-.507c.154.006.3.07.406.181.12.117.237.246.35.372l.153.169a.322.322 0 0 0 .223.104h.006a.314.314 0 0 0 .22-.091l1.229-1.225a.31.31 0 0 0 .02-.416 10.048 10.048 0 0 1-1.523-2.515 9.939 9.939 0 0 1-.705-2.882.314.314 0 0 0-.312-.281h-1.7a.31.31 0 0 0-.312.312v.742c0 .355-.208.595-.52.596-.312.001-.52-.238-.52-.592v-3.195c0-.348.208-.58.52-.58.312 0 .52.236.52.58v.756a.312.312 0 0 0 .312.312h1.701a.31.31 0 0 0 .312-.281 9.664 9.664 0 0 1 2.208-5.38.311.311 0 0 0-.02-.416l-1.239-1.24a.312.312 0 0 0-.22-.09h-.008a.311.311 0 0 0-.224.103c-.04.044-.081.093-.125.144-.104.117-.216.25-.337.37a.61.61 0 0 1-.416.191.49.49 0 0 1-.35-.153c-.216-.216-.208-.53.03-.768.82-.832 1.57-1.577 2.295-2.295a.58.58 0 0 1 .401-.178c.133.001.259.054.352.148.22.213.208.52-.02.767-.12.126-.247.248-.37.366-.056.053-.11.104-.163.158a.31.31 0 0 0-.069.342.31.31 0 0 0 .069.101l1.211 1.212a.312.312 0 0 0 .42.02 9.719 9.719 0 0 1 5.394-2.227.312.312 0 0 0 .283-.312v-1.702a.312.312 0 0 0-.312-.312h-.742c-.356 0-.595-.208-.595-.52 0-.312.236-.52.59-.52H56.604a.624.624 0 0 1 .443.168.489.489 0 0 1 .138.36c0 .302-.237.509-.58.512h-.757a.312.312 0 0 0-.312.312v1.702a.312.312 0 0 0 .283.312 9.642 9.642 0 0 1 5.364 2.208.312.312 0 0 0 .416-.019l1.243-1.24a.31.31 0 0 0-.012-.453c-.044-.04-.093-.08-.145-.126-.117-.103-.25-.215-.37-.335-.242-.245-.257-.546-.038-.767a.493.493 0 0 1 .357-.154c.156.005.303.07.41.183.832.82 1.578 1.57 2.295 2.296a.577.577 0 0 1 .179.407.5.5 0 0 1-.16.358.492.492 0 0 1-.347.148.603.603 0 0 1-.407-.18 13.76 13.76 0 0 1-.367-.37l-.159-.164a.31.31 0 0 0-.22-.094.312.312 0 0 0-.221.092l-1.21 1.212a.312.312 0 0 0-.02.416 9.707 9.707 0 0 1 2.225 5.393.31.31 0 0 0 .312.283h1.701a.314.314 0 0 0 .312-.312v-.741c0-.361.208-.595.52-.596.312-.001.52.237.52.59v3.195c0 .343-.214.582-.52.582-.306 0-.52-.237-.52-.579v-.758a.313.313 0 0 0-.312-.312h-1.702a.31.31 0 0 0-.312.283 9.732 9.732 0 0 1-2.233 5.395.31.31 0 0 0 .02.416l1.237 1.236a.315.315 0 0 0 .22.092h.01a.344.344 0 0 0 .122-.029.324.324 0 0 0 .1-.075c.05-.053.098-.11.148-.168a5.03 5.03 0 0 1 .34-.372.6.6 0 0 1 .416-.191.488.488 0 0 1 .353.153c.216.215.208.53-.03.768a348.35 348.35 0 0 1-2.296 2.294.576.576 0 0 1-.402.178.5.5 0 0 1-.363-.158c-.208-.215-.195-.52.033-.755.12-.126.248-.25.372-.368l.16-.155a.313.313 0 0 0 0-.444l-1.205-1.205a.31.31 0 0 0-.42-.018 9.685 9.685 0 0 1-5.392 2.224.311.311 0 0 0-.284.312v1.703a.313.313 0 0 0 .312.312h.741c.356 0 .595.208.596.52.001.312-.237.52-.59.52l-1.618.002Zm.016-21.63a8.623 8.623 0 1 0 8.631 8.632 8.64 8.64 0 0 0-8.63-8.631Z"/><path d="M54.994 99.025a2.191 2.191 0 0 1-2.177-2.19A2.183 2.183 0 1 1 55 99.026h-.006ZM55 95.697a1.132 1.132 0 1 0 .022 0H55ZM50.835 103.184a2.185 2.185 0 1 1 0-4.37 2.185 2.185 0 0 1 0 4.37Zm-.006-3.328a1.143 1.143 0 0 0 .006 2.288 1.142 1.142 0 0 0 .809-1.952 1.142 1.142 0 0 0-.81-.335h-.005ZM59.159 103.184a2.183 2.183 0 1 1 0-4.366 2.183 2.183 0 0 1 0 4.366Zm0-3.328a1.144 1.144 0 0 0-1.144 1.129 1.15 1.15 0 0 0 1.144 1.157h.012a1.145 1.145 0 0 0-.006-2.288l-.006.002ZM55 107.344a2.187 2.187 0 0 1-2.18-2.186 2.186 2.186 0 0 1 2.184-2.182 2.184 2.184 0 0 1 .003 4.368H55Zm0-3.328a1.147 1.147 0 0 0-1.16 1.127 1.144 1.144 0 0 0 1.127 1.161h.031a1.154 1.154 0 0 0 .812-.33 1.143 1.143 0 0 0-.796-1.958H55Z"/></g><g clip-path="url(#g)"><path d="M5.68 113.893a1.089 1.089 0 0 1-.693-.255c-.401-.322-.545-.75-.427-1.271.477-2.114 1.043-4.613 1.623-7.113a.675.675 0 0 0-.241-.748c-1.52-1.321-3.06-2.673-4.55-3.981l-.93-.814C.035 99.337-.1 98.895.063 98.4c.162-.496.517-.775 1.067-.826.487-.048.975-.093 1.463-.136l.773-.07c1.683-.153 3.425-.31 5.139-.46a.542.542 0 0 0 .485-.367c.979-2.305 1.99-4.67 2.884-6.757.232-.542.643-.817 1.221-.817h.013c.482.033.837.31 1.056.826.392.927.787 1.854 1.183 2.78l.702 1.636c.328.767.668 1.56.995 2.341a.534.534 0 0 0 .492.362c1.562.136 3.226.284 5.398.48.63.057 1.308.119 2 .191.528.056.877.335 1.033.827.156.491.03.93-.385 1.295-.736.651-1.475 1.299-2.216 1.946l-.674.591-.57.506c-.674.592-1.371 1.205-2.065 1.8a.579.579 0 0 0-.212.639 7135.728 7135.728 0 0 1 1.622 7.114c.136.593-.006 1.033-.435 1.349a1.153 1.153 0 0 1-.688.243 1.44 1.44 0 0 1-.723-.227l-1.948-1.165c-1.401-.838-2.85-1.704-4.27-2.56a.71.71 0 0 0-.379-.122.681.681 0 0 0-.362.115c-1.811 1.092-3.658 2.195-5.443 3.261l-.775.462a1.494 1.494 0 0 1-.764.237Zm7.146-23.169-.181.422-.336.77-.592 1.386c-.553 1.295-1.126 2.633-1.683 3.95-.221.523-.568.8-1.056.847-1.201.114-2.423.224-3.606.33l-1.585.143-1.33.122-.592.054-.156.096-.038.063.043.27.065.05c.042.036.086.07.126.104l1.606 1.408c1.171 1.029 2.345 2.057 3.522 3.084.413.36.554.787.438 1.304-.234 1.033-.469 2.068-.706 3.106l-.385 1.696-.332 1.472-.163.724.304.225.103-.058.16-.091c.518-.311 1.038-.62 1.559-.93 1.391-.826 2.83-1.689 4.235-2.542a1.346 1.346 0 0 1 1.53 0c1.01.615 2.042 1.23 3.041 1.826l1.186.708 1.817 1.086.31-.207c0-.026-.007-.047-.01-.067-.006-.042-.01-.074-.017-.103l-.118-.517-1.428-6.294c-.122-.536.011-.952.42-1.308 1.082-.946 2.163-1.894 3.244-2.843l1.007-.885c.246-.216.492-.431.746-.657l.363-.319-.092-.357-.086-.02c-.05-.014-.101-.024-.152-.03l-1.653-.15c-1.692-.157-3.44-.318-5.165-.465-.604-.052-.978-.326-1.216-.889-.64-1.517-1.298-3.055-1.934-4.545-.233-.541-.464-1.082-.695-1.622a6.138 6.138 0 0 0-.094-.206l-.062-.135-.362-.006Z" fill="#51A9E1"/></g><g clip-path="url(#h)" fill="#51A9E1"><path d="M138.814 70.004a.55.55 0 0 1-.172-.024c-2.329-.795-4.224-1.846-5.789-3.21-1.946-1.697-3.314-3.903-4.067-6.558a20.127 20.127 0 0 1-.76-5.051 187.53 187.53 0 0 1-.018-5.026c0-.542.002-1.084.007-1.626 0-.502.389-.625.715-.646l.564-.026c.476-.02.967-.042 1.451-.093 2.8-.297 5.243-1.374 7.26-3.2l.209-.189.085-.078c.2-.186.375-.277.536-.277.161 0 .344.09.557.274l.012.01c.56.5 1.146.97 1.757 1.408 1.54 1.063 3.331 1.732 5.32 1.991.722.094 1.458.13 2.165.164l.219.01c.608.031.805.231.806.823v3.591a29.56 29.56 0 0 1-.208 5.15c-.29 2.178-.844 4.022-1.696 5.637-1.032 1.953-2.536 3.593-4.47 4.872a18.161 18.161 0 0 1-4.174 2.019.964.964 0 0 1-.309.055Zm.024-24.36a.618.618 0 0 0-.399.17c-2.179 1.857-4.818 2.934-7.845 3.202l-1.107.097-.068.034-.189.208-.028.07v3.616c0 1.701.063 3.942.589 6.19.617 2.644 1.816 4.746 3.665 6.426 1.378 1.25 3.069 2.234 5.17 3.007a.624.624 0 0 0 .208.036.724.724 0 0 0 .297-.064c.276-.129.56-.256.832-.379.715-.307 1.414-.65 2.095-1.027a11.772 11.772 0 0 0 4.768-5.015c.937-1.88 1.457-4.048 1.57-6.627.06-1.34.053-2.706.046-4.019 0-.579-.006-1.178 0-1.77v-.36l-.026-.069-.183-.208-.064-.034c-.277-.034-.55-.066-.82-.096a28.429 28.429 0 0 1-1.684-.223 13.235 13.235 0 0 1-6.408-2.992.648.648 0 0 0-.419-.176v.004Z"/><path d="M137.617 60.21a.981.981 0 0 1-.539-.224 137.607 137.607 0 0 1-2.405-2.395l-.098-.098c-.283-.286-.303-.652-.05-.913a.584.584 0 0 1 .427-.192c.188.008.366.09.495.228.435.429.857.855 1.303 1.305l.574.578.072.031h.296l.074-.03 1.695-1.697.795-.797c.647-.65 1.317-1.321 1.978-1.978a.704.704 0 0 1 .49-.215.59.59 0 0 1 .567.428.58.58 0 0 1-.081.54 1.762 1.762 0 0 1-.17.193l-1.789 1.788a5227.394 5227.394 0 0 0-3.157 3.161c-.193.202-.337.286-.477.286Z"/></g><path d="M97 69.999c-7.168 0-13-5.834-13-13S89.834 44 97 44c7.165 0 12.999 5.834 12.999 13 0 7.165-5.834 12.999-13 12.999Zm11.873-13c0-6.537-5.341-11.874-11.876-11.87-6.534.002-11.874 5.338-11.87 11.87.002 6.533 5.34 11.877 11.873 11.874 6.532-.003 11.876-5.341 11.873-11.874Z" fill="#51A9E1"/><path d="M99.822 59.822v3.726c0 .596-.181.777-.768.778h-4.112c-.577 0-.764-.184-.765-.756V59.822h-3.735c-.587 0-.77-.185-.77-.777v-4.112c0-.57.189-.755.766-.756h3.739v-3.719c0-.61.176-.785.786-.785h4.087c.588 0 .77.183.772.774v3.731h3.727c.569 0 .776.208.776.784v4.111c0 .556-.191.748-.747.749h-3.757Zm-9.013-1.137h3.725c.577 0 .778.203.778.777v3.719h3.372v-3.718c0-.577.203-.778.777-.778h3.758v-3.372h-3.766c-.53 0-.732-.203-.732-.739V50.82h-3.408v3.717c0 .576-.203.777-.776.777h-3.728v3.372Z" fill="#51A9E1"/><g clip-path="url(#i)"><path d="M54.468 70c-2.883 0-5.527-.966-7.857-2.874-2.502-2.049-4.005-4.723-4.468-7.95a14.854 14.854 0 0 1-.134-2.05c-.008-3.101-.008-6.254-.008-9.31v-2.988c0-.68.145-.827.815-.827h6.132c.69 0 .83.143.83.846v12.465c0 2.366 1.474 4.247 3.736 4.79.359.088.727.133 1.096.134 2.556 0 4.71-2.06 4.802-4.592.032-.87.026-1.756.02-2.611v-10.23c0-.651.15-.804.803-.804h6.2c.604 0 .77.166.77.77v12.465c0 3.105-.967 5.843-2.864 8.142-2.087 2.529-4.76 4.037-7.945 4.483-.638.092-1.283.14-1.928.141ZM43.074 51.388v1.608c0 1.309 0 2.663.009 3.987-.003.71.042 1.418.134 2.121a11.126 11.126 0 0 0 4.105 7.216c2.125 1.726 4.538 2.602 7.17 2.602a12.916 12.916 0 0 0 1.797-.134 11.118 11.118 0 0 0 6.497-3.295c2.218-2.247 3.345-5.035 3.345-8.28V51.4l-.134-.134h-5.362l-.134.134v.461c0 .602 0 1.207.007 1.806.008 1.307.016 2.66-.025 3.987-.095 3.115-2.728 5.649-5.87 5.649a5.9 5.9 0 0 1-1.072-.1c-2.826-.527-4.81-2.92-4.837-5.82-.01-1.295-.008-2.613 0-3.888v-2.109l-.134-.135h-5.362l-.134.136Zm.017-6.153v4.783l.134.134h5.32l.135-.134v-4.783l-.134-.134h-5.32l-.135.134Zm17.416 0v4.77l.135.135h5.332l.134-.134v-4.771l-.134-.134h-5.331l-.136.134Z" fill="#51A9E1"/></g><path d="M9.11 69.975H6.53c-1.158 0-2.091-.264-2.851-.807-.978-.7-1.524-1.636-1.622-2.785-.192-2.245.103-4.357.874-6.277.536-1.335 1.298-2.253 2.328-2.806a4.641 4.641 0 0 1 2.216-.557h.085c.225 0 .478.123.696.242.245.13.485.29.723.443.126.083.254.167.383.247 1.135.712 2.3 1.073 3.447 1.073 1.148 0 2.303-.359 3.442-1.069l.183-.112c.239-.147.485-.3.722-.472.324-.24.719-.366 1.122-.356.154 0 .308.013.46.037 1.599.234 2.773 1.077 3.593 2.579.639 1.17 1.014 2.507 1.18 4.204.076.77.11 1.545.102 2.32-.041 2.173-1.58 3.838-3.747 4.044-.31.031-.627.047-.928.047H9.11v.005Zm3.704-1.135H16.75c.99 0 1.81 0 2.58-.012.953-.01 1.753-.316 2.303-.883.55-.568.846-1.383.834-2.347a20.377 20.377 0 0 0-.11-2.053c-.172-1.513-.483-2.622-1.012-3.598-.71-1.313-1.699-1.986-3.023-2.064h-.043a.842.842 0 0 0-.412.104c-.225.136-.45.28-.665.42-.167.103-.328.211-.49.31a7.441 7.441 0 0 1-3.391 1.134c-.18.013-.362.02-.54.02-1.379 0-2.735-.412-4.023-1.237a36.743 36.743 0 0 1-.373-.239c-.216-.138-.432-.277-.65-.412a.639.639 0 0 0-.335-.114h-.017c-.963.047-1.721.364-2.32.969a5.19 5.19 0 0 0-1.143 1.828c-.58 1.5-.825 3.175-.774 5.271.027 1.08.522 1.926 1.43 2.45.524.3 1.14.44 1.939.44h6.293l.007.013ZM12.63 56.294c-3.372 0-6.13-2.756-6.149-6.143a6.147 6.147 0 1 1 6.168 6.143h-.02Zm-.006-11.182a5.02 5.02 0 0 0 0 10.04h.025c2.745 0 4.99-2.248 5.004-5.012a5.027 5.027 0 0 0-4.985-5.028h-.044ZM140.695 13.764c.53-.489 1.121-.79 1.818-.733.393.05.779.146 1.148.29.162.055.252.064.376-.062a578.78 578.78 0 0 1 3.211-3.212c.133-.13.126-.222.045-.375-.536-1.007-.318-2.282.501-3.001.908-.797 2.165-.895 3.109-.235a2.517 2.517 0 0 1 .928 2.975c-.515 1.356-2.163 1.993-3.442 1.318-.215-.117-.329-.093-.495.076a261.892 261.892 0 0 1-3.124 3.13c-.142.14-.162.234-.068.42.452.896.406 1.785-.181 2.6-.606.843-1.459 1.194-2.485.998-1.025-.195-1.711-.847-1.953-1.866-.091-.39 0-.82.025-1.24.009-.137.055-.242-.091-.352-.938-.703-1.861-1.422-2.806-2.148-.96.77-1.984.878-3.079.26-.056.048-.117.094-.171.146-1.063 1.064-2.124 2.13-3.194 3.187-.145.143-.15.234-.06.42.449.909.394 1.807-.21 2.621-.642.868-1.54 1.191-2.586.944-1.001-.234-1.641-.908-1.849-1.908-.212-1.024.118-1.904.978-2.522.81-.586 1.694-.644 2.599-.197.077.038.157.072.255.117.326-.329.646-.657.97-.98.794-.795 1.589-1.589 2.384-2.381.109-.108.153-.186.069-.346-.78-1.51-.035-3.204 1.607-3.619.917-.234 1.735.026 2.379.703.643.678.85 1.486.586 2.382-.082.271-.036.41.188.577.872.653 1.731 1.328 2.618 2.013Zm7.307-5.294a1.486 1.486 0 0 0 .403 1.062 1.479 1.479 0 0 0 1.039.462 1.497 1.497 0 0 0 1.543-1.465 1.508 1.508 0 0 0-1.465-1.524 1.493 1.493 0 0 0-1.517 1.465h-.003Zm-4.021 7.043a1.48 1.48 0 0 0-2.043-1.386 1.49 1.49 0 0 0-.817 1.939 1.481 1.481 0 0 0 .8.81 1.492 1.492 0 0 0 1.95-.793c.075-.18.114-.375.114-.57h-.004Zm-9.978-5.014a1.496 1.496 0 0 0 1.472 1.508 1.5 1.5 0 0 0 1.507-1.487 1.494 1.494 0 0 0-1.487-1.507 1.495 1.495 0 0 0-1.488 1.486h-.004Zm-4.018 7.003a1.485 1.485 0 0 0-1.481-1.485 1.493 1.493 0 0 0-1.532 1.49 1.482 1.482 0 0 0 .452 1.067 1.497 1.497 0 0 0 1.08.421 1.486 1.486 0 0 0 1.375-.922 1.47 1.47 0 0 0 .109-.57h-.003ZM96.857 24.796c-.352 0-.713-.017-1.072-.048a11.416 11.416 0 0 1-6.95-3.1 11.291 11.291 0 0 1-3.175-5.241c-.17-.6.142-.824.344-.904a.619.619 0 0 1 .231-.045c.269 0 .505.184.606.48.062.17.12.343.176.511.096.285.194.58.313.858a10.254 10.254 0 0 0 9.473 6.204 10.119 10.119 0 0 0 6.057-1.961 9.993 9.993 0 0 0 3.546-4.69l.02-.054-1.523.69-.425.194-.699.318a.912.912 0 0 1-.371.086.593.593 0 0 1-.557-.366c-.155-.34 0-.7.379-.873a644.557 644.557 0 0 1 4.084-1.854.88.88 0 0 1 .356-.085c.188 0 .446.085.606.486a943.025 943.025 0 0 1 1.65 4.14.761.761 0 0 1 .017.59.594.594 0 0 1-.345.321.662.662 0 0 1-.247.05c-.265 0-.482-.176-.612-.495a249.4 249.4 0 0 1-.748-1.863l-.363-.908c-.049.125-.094.24-.142.354-1.121 2.734-3.029 4.771-5.674 6.058a11.27 11.27 0 0 1-4.955 1.147ZM86.292 11.876c-.346 0-.511-.296-.626-.585l-.26-.652a513.735 513.735 0 0 1-1.34-3.375 1.086 1.086 0 0 1-.054-.535c.037-.233.221-.398.493-.441a.585.585 0 0 1 .618.276c.06.098.113.203.154.311l.635 1.585.418 1.044c.078-.16.154-.32.228-.478.234-.49.476-1 .758-1.477a11.095 11.095 0 0 1 4.792-4.385A11.415 11.415 0 0 1 97.143 2c.343 0 .693.015 1.042.045a11.533 11.533 0 0 1 9.86 7.485c.101.282.202.6.303.969.101.37-.067.707-.412.807a.647.647 0 0 1-.185.029c-.264 0-.498-.178-.611-.465a22.404 22.404 0 0 1-.259-.69 12.153 12.153 0 0 0-.598-1.445c-1.105-2.12-2.827-3.694-5.113-4.663a9.937 9.937 0 0 0-4.76-.763c-2.892.242-5.29 1.474-7.127 3.662a9.836 9.836 0 0 0-1.716 3.015l.41-.186 2.097-.946c.087-.042.177-.078.27-.108a.718.718 0 0 1 .201-.03.614.614 0 0 1 .557.348.633.633 0 0 1-.212.796 1.583 1.583 0 0 1-.26.142l-3.83 1.74c-.158.08-.331.125-.508.134Z" fill="#51A9E1"/><g clip-path="url(#j)" fill="#51A9E1"><path d="M65.856 24.898H68v1.09H42.001v-1.085h2.148V6h5.335v18.884h2.85V10.712h5.338v14.172h2.851v-9.677h5.338l-.005 9.69Zm-20.59-.014h3.1V7.102h-3.1v17.782Zm11.285 0V11.832h-3.096v13.052h3.096Zm8.179 0v-8.58h-3.095v8.58h3.095ZM62.73 7.962l-.342-2.264 1.089-.167.64 4.183-4.18.639-.172-1.09 2.371-.367L48.656.948l.56-.952L62.73 7.962Z"/></g><path d="M14.213 26h-2.426a1.625 1.625 0 0 1-1.615-1.43l-.26-2.037a10.16 10.16 0 0 1-1.484-.617l-1.614 1.267a1.614 1.614 0 0 1-2.167-.14l-1.69-1.712a1.614 1.614 0 0 1-.13-2.167l1.257-1.614a10.157 10.157 0 0 1-.617-1.484l-2.037-.26A1.625 1.625 0 0 1 0 14.213v-2.426a1.625 1.625 0 0 1 1.43-1.615l2.037-.26c.166-.51.372-1.006.617-1.484L2.817 6.814a1.614 1.614 0 0 1 .14-2.167l1.712-1.69a1.614 1.614 0 0 1 2.167-.13l1.592 1.257c.478-.244.974-.45 1.484-.617l.26-2.037A1.625 1.625 0 0 1 11.787 0h2.426a1.625 1.625 0 0 1 1.615 1.43l.26 2.037c.51.166 1.006.373 1.484.617l1.614-1.267a1.614 1.614 0 0 1 2.166.14l1.701 1.701a1.614 1.614 0 0 1 .13 2.167l-1.267 1.603c.244.478.451.974.617 1.484l2.037.26A1.625 1.625 0 0 1 26 11.787v2.426a1.625 1.625 0 0 1-1.43 1.615l-2.037.26a10.16 10.16 0 0 1-.617 1.484l1.256 1.614a1.614 1.614 0 0 1-.14 2.166l-1.701 1.701a1.614 1.614 0 0 1-2.167.13l-1.614-1.256c-.478.244-.974.45-1.484.617l-.26 2.037A1.625 1.625 0 0 1 14.213 26Zm-5.839-5.265a.542.542 0 0 1 .293.065 9.11 9.11 0 0 0 1.917.802.542.542 0 0 1 .39.455l.303 2.383a.541.541 0 0 0 .531.477h2.427a.542.542 0 0 0 .53-.477l.304-2.383a.542.542 0 0 1 .39-.455 9.11 9.11 0 0 0 1.874-.802.542.542 0 0 1 .596 0l1.896 1.473a.53.53 0 0 0 .704 0l1.755-1.69a.53.53 0 0 0 0-.715l-1.473-1.895a.542.542 0 0 1 0-.596c.34-.607.608-1.25.802-1.918a.542.542 0 0 1 .454-.39l2.384-.303a.542.542 0 0 0 .476-.531v-2.448a.542.542 0 0 0-.476-.531l-2.384-.303a.542.542 0 0 1-.454-.39 9.112 9.112 0 0 0-.813-1.896.542.542 0 0 1 0-.596l1.517-1.928a.531.531 0 0 0 0-.705l-1.734-1.722a.53.53 0 0 0-.715 0l-1.906 1.43a.542.542 0 0 1-.596 0 9.066 9.066 0 0 0-1.918-.802.542.542 0 0 1-.39-.455l-.303-2.383a.541.541 0 0 0-.542-.423h-2.426a.542.542 0 0 0-.531.477l-.303 2.383a.542.542 0 0 1-.39.455 9.067 9.067 0 0 0-1.896.802.542.542 0 0 1-.596 0L6.143 3.683a.53.53 0 0 0-.705 0L3.716 5.417a.53.53 0 0 0 0 .715l1.43 1.906a.542.542 0 0 1 .054.629 9.11 9.11 0 0 0-.802 1.917.542.542 0 0 1-.455.39l-2.383.303a.541.541 0 0 0-.477.531v2.427a.542.542 0 0 0 .477.53l2.383.304a.541.541 0 0 1 .455.39 9.11 9.11 0 0 0 .802 1.874.542.542 0 0 1 0 .596l-1.517 1.929a.53.53 0 0 0 0 .704l1.734 1.722a.531.531 0 0 0 .715 0l1.896-1.473a.541.541 0 0 1 .346-.076Z" fill="#51A9E1"/><path d="M13 18.417a5.416 5.416 0 1 1 0-10.833 5.416 5.416 0 0 1 0 10.833Zm0-9.75a4.333 4.333 0 1 0 0 8.666 4.333 4.333 0 0 0 0-8.666Z" fill="#51A9E1"/><defs><clipPath id="a"><path fill="#fff" transform="translate(126 132)" d="M0 0h26v26H0z"/></clipPath><clipPath id="b"><path fill="#fff" transform="translate(84 132)" d="M0 0h26v26H0z"/></clipPath><clipPath id="c"><path fill="#fff" transform="translate(42 132)" d="M0 0h26v26H0z"/></clipPath><clipPath id="d"><path fill="#fff" transform="translate(126 88)" d="M0 0h26v26H0z"/></clipPath><clipPath id="e"><path fill="#fff" transform="translate(84 88)" d="M0 0h26v26H0z"/></clipPath><clipPath id="f"><path fill="#fff" transform="translate(42 88)" d="M0 0h26v26H0z"/></clipPath><clipPath id="g"><path fill="#fff" transform="translate(0 88)" d="M0 0h26v26H0z"/></clipPath><clipPath id="h"><path fill="#fff" transform="translate(126 44)" d="M0 0h26v26H0z"/></clipPath><clipPath id="i"><path fill="#fff" transform="translate(42 44)" d="M0 0h26v26H0z"/></clipPath><clipPath id="j"><path fill="#fff" transform="translate(42)" d="M0 0h26v26H0z"/></clipPath></defs></svg>