<svg width="753" height="298" viewBox="0 0 753 298" fill="none" xmlns="http://www.w3.org/2000/svg">
<path d="M162.753 145H160.465V137.528L157.457 145H156.465L153.457 137.528V145H151.185V134.328H154.369L156.961 140.776L159.553 134.328H162.753V145ZM171.497 145H169.465V144.2C168.91 144.861 168.094 145.192 167.017 145.192C166.324 145.192 165.7 144.968 165.145 144.52C164.601 144.061 164.329 143.432 164.329 142.632C164.329 141.8 164.596 141.176 165.129 140.76C165.673 140.344 166.302 140.136 167.017 140.136C168.116 140.136 168.932 140.451 169.465 141.08V140.04C169.465 139.645 169.31 139.331 169.001 139.096C168.692 138.861 168.281 138.744 167.769 138.744C166.926 138.744 166.174 139.048 165.513 139.656L164.745 138.296C165.662 137.485 166.788 137.08 168.121 137.08C169.113 137.08 169.924 137.309 170.553 137.768C171.182 138.227 171.497 138.973 171.497 140.008V145ZM167.833 143.816C168.59 143.816 169.134 143.592 169.465 143.144V142.184C169.134 141.736 168.59 141.512 167.833 141.512C167.417 141.512 167.07 141.619 166.793 141.832C166.516 142.035 166.377 142.317 166.377 142.68C166.377 143.032 166.516 143.309 166.793 143.512C167.07 143.715 167.417 143.816 167.833 143.816ZM177.112 145.192C175.918 145.192 174.936 144.813 174.168 144.056C173.4 143.299 173.016 142.323 173.016 141.128C173.016 139.944 173.4 138.973 174.168 138.216C174.936 137.459 175.918 137.08 177.112 137.08C178.478 137.08 179.496 137.544 180.168 138.472L178.84 139.72C178.467 139.165 177.923 138.888 177.208 138.888C176.59 138.888 176.083 139.096 175.688 139.512C175.304 139.917 175.112 140.456 175.112 141.128C175.112 141.8 175.304 142.344 175.688 142.76C176.083 143.176 176.59 143.384 177.208 143.384C177.902 143.384 178.446 143.107 178.84 142.552L180.168 143.784C179.496 144.723 178.478 145.192 177.112 145.192ZM188.761 145H186.729V140.296C186.729 139.784 186.606 139.421 186.361 139.208C186.115 138.995 185.758 138.888 185.289 138.888C184.574 138.888 183.987 139.192 183.529 139.8V145H181.497V134.328H183.529V138.28C183.806 137.949 184.179 137.667 184.649 137.432C185.129 137.197 185.662 137.08 186.249 137.08C187.081 137.08 187.705 137.293 188.121 137.72C188.547 138.147 188.761 138.744 188.761 139.512V145ZM191.786 136.44C191.455 136.44 191.167 136.323 190.922 136.088C190.687 135.843 190.57 135.555 190.57 135.224C190.57 134.893 190.687 134.611 190.922 134.376C191.167 134.141 191.455 134.024 191.786 134.024C192.127 134.024 192.415 134.141 192.65 134.376C192.885 134.611 193.002 134.893 193.002 135.224C193.002 135.555 192.885 135.843 192.65 136.088C192.415 136.323 192.127 136.44 191.786 136.44ZM192.81 145H190.778V137.272H192.81V145ZM202.073 145H200.041V140.328C200.041 139.368 199.566 138.888 198.617 138.888C197.881 138.888 197.294 139.192 196.857 139.8V145H194.825V137.272H196.857V138.28C197.529 137.48 198.43 137.08 199.561 137.08C200.393 137.08 201.017 137.299 201.433 137.736C201.86 138.173 202.073 138.776 202.073 139.544V145ZM207.723 145.192C206.528 145.192 205.541 144.819 204.763 144.072C203.984 143.325 203.595 142.344 203.595 141.128C203.595 139.987 203.968 139.027 204.715 138.248C205.472 137.469 206.432 137.08 207.595 137.08C208.747 137.08 209.68 137.475 210.395 138.264C211.109 139.043 211.467 140.067 211.467 141.336V141.784H205.723C205.787 142.296 206.016 142.723 206.411 143.064C206.805 143.405 207.317 143.576 207.947 143.576C208.288 143.576 208.656 143.507 209.051 143.368C209.456 143.229 209.776 143.043 210.011 142.808L210.907 144.12C210.128 144.835 209.067 145.192 207.723 145.192ZM209.499 140.408C209.467 139.971 209.291 139.576 208.971 139.224C208.661 138.872 208.203 138.696 207.595 138.696C207.019 138.696 206.571 138.872 206.251 139.224C205.931 139.565 205.744 139.96 205.691 140.408H209.499ZM223.86 145H217.076V134.328H219.348V143H223.86V145ZM228.863 145.192C227.668 145.192 226.682 144.819 225.903 144.072C225.124 143.325 224.735 142.344 224.735 141.128C224.735 139.987 225.108 139.027 225.855 138.248C226.612 137.469 227.572 137.08 228.735 137.08C229.887 137.08 230.82 137.475 231.535 138.264C232.25 139.043 232.607 140.067 232.607 141.336V141.784H226.863C226.927 142.296 227.156 142.723 227.551 143.064C227.946 143.405 228.458 143.576 229.087 143.576C229.428 143.576 229.796 143.507 230.191 143.368C230.596 143.229 230.916 143.043 231.151 142.808L232.047 144.12C231.268 144.835 230.207 145.192 228.863 145.192ZM230.639 140.408C230.607 139.971 230.431 139.576 230.111 139.224C229.802 138.872 229.343 138.696 228.735 138.696C228.159 138.696 227.711 138.872 227.391 139.224C227.071 139.565 226.884 139.96 226.831 140.408H230.639ZM240.747 145H238.715V144.2C238.16 144.861 237.344 145.192 236.267 145.192C235.574 145.192 234.95 144.968 234.395 144.52C233.851 144.061 233.579 143.432 233.579 142.632C233.579 141.8 233.846 141.176 234.379 140.76C234.923 140.344 235.552 140.136 236.267 140.136C237.366 140.136 238.182 140.451 238.715 141.08V140.04C238.715 139.645 238.56 139.331 238.251 139.096C237.942 138.861 237.531 138.744 237.019 138.744C236.176 138.744 235.424 139.048 234.763 139.656L233.995 138.296C234.912 137.485 236.038 137.08 237.371 137.08C238.363 137.08 239.174 137.309 239.803 137.768C240.432 138.227 240.747 138.973 240.747 140.008V145ZM237.083 143.816C237.84 143.816 238.384 143.592 238.715 143.144V142.184C238.384 141.736 237.84 141.512 237.083 141.512C236.667 141.512 236.32 141.619 236.043 141.832C235.766 142.035 235.627 142.317 235.627 142.68C235.627 143.032 235.766 143.309 236.043 143.512C236.32 143.715 236.667 143.816 237.083 143.816ZM244.794 145H242.762V137.272H244.794V138.328C245.082 137.965 245.45 137.667 245.898 137.432C246.346 137.197 246.8 137.08 247.258 137.08V139.064C247.12 139.032 246.933 139.016 246.698 139.016C246.357 139.016 245.994 139.101 245.61 139.272C245.226 139.443 244.954 139.651 244.794 139.896V145ZM255.776 145H253.744V140.328C253.744 139.368 253.269 138.888 252.32 138.888C251.584 138.888 250.997 139.192 250.56 139.8V145H248.528V137.272H250.56V138.28C251.232 137.48 252.133 137.08 253.264 137.08C254.096 137.08 254.72 137.299 255.136 137.736C255.563 138.173 255.776 138.776 255.776 139.544V145ZM258.802 136.44C258.471 136.44 258.183 136.323 257.938 136.088C257.703 135.843 257.586 135.555 257.586 135.224C257.586 134.893 257.703 134.611 257.938 134.376C258.183 134.141 258.471 134.024 258.802 134.024C259.143 134.024 259.431 134.141 259.666 134.376C259.9 134.611 260.018 134.893 260.018 135.224C260.018 135.555 259.9 135.843 259.666 136.088C259.431 136.323 259.143 136.44 258.802 136.44ZM259.826 145H257.794V137.272H259.826V145ZM269.089 145H267.057V140.328C267.057 139.368 266.582 138.888 265.633 138.888C264.897 138.888 264.31 139.192 263.873 139.8V145H261.841V137.272H263.873V138.28C264.545 137.48 265.446 137.08 266.577 137.08C267.409 137.08 268.033 137.299 268.449 137.736C268.875 138.173 269.089 138.776 269.089 139.544V145ZM274.274 148.136C272.941 148.136 271.831 147.752 270.946 146.984L271.858 145.512C272.434 146.152 273.239 146.472 274.274 146.472C274.85 146.472 275.346 146.317 275.762 146.008C276.189 145.709 276.402 145.213 276.402 144.52V143.736C275.762 144.547 274.967 144.952 274.018 144.952C273.015 144.952 272.194 144.611 271.554 143.928C270.925 143.235 270.61 142.264 270.61 141.016C270.61 139.779 270.925 138.813 271.554 138.12C272.194 137.427 273.015 137.08 274.018 137.08C274.978 137.08 275.773 137.475 276.402 138.264V137.272H278.45V144.472C278.45 145.176 278.322 145.779 278.066 146.28C277.821 146.781 277.485 147.16 277.058 147.416C276.631 147.672 276.189 147.853 275.73 147.96C275.282 148.077 274.797 148.136 274.274 148.136ZM274.658 143.144C274.989 143.144 275.319 143.059 275.65 142.888C275.981 142.717 276.231 142.509 276.402 142.264V139.768C276.231 139.512 275.981 139.304 275.65 139.144C275.33 138.973 274.999 138.888 274.658 138.888C274.071 138.888 273.597 139.08 273.234 139.464C272.882 139.848 272.706 140.365 272.706 141.016C272.706 141.667 272.882 142.184 273.234 142.568C273.597 142.952 274.071 143.144 274.658 143.144ZM291.231 145H289.199V144.2C288.645 144.861 287.829 145.192 286.751 145.192C286.058 145.192 285.434 144.968 284.879 144.52C284.335 144.061 284.063 143.432 284.063 142.632C284.063 141.8 284.33 141.176 284.863 140.76C285.407 140.344 286.037 140.136 286.751 140.136C287.85 140.136 288.666 140.451 289.199 141.08V140.04C289.199 139.645 289.045 139.331 288.735 139.096C288.426 138.861 288.015 138.744 287.503 138.744C286.661 138.744 285.909 139.048 285.247 139.656L284.479 138.296C285.397 137.485 286.522 137.08 287.855 137.08C288.847 137.08 289.658 137.309 290.287 137.768C290.917 138.227 291.231 138.973 291.231 140.008V145ZM287.567 143.816C288.325 143.816 288.869 143.592 289.199 143.144V142.184C288.869 141.736 288.325 141.512 287.567 141.512C287.151 141.512 286.805 141.619 286.527 141.832C286.25 142.035 286.111 142.317 286.111 142.68C286.111 143.032 286.25 143.309 286.527 143.512C286.805 143.715 287.151 143.816 287.567 143.816ZM300.495 145H298.463V140.328C298.463 139.368 297.988 138.888 297.039 138.888C296.303 138.888 295.716 139.192 295.279 139.8V145H293.247V137.272H295.279V138.28C295.951 137.48 296.852 137.08 297.983 137.08C298.815 137.08 299.439 137.299 299.855 137.736C300.281 138.173 300.495 138.776 300.495 139.544V145ZM309.872 145H307.824V144.008C307.195 144.797 306.4 145.192 305.44 145.192C304.438 145.192 303.616 144.835 302.976 144.12C302.336 143.395 302.016 142.403 302.016 141.144C302.016 139.907 302.336 138.92 302.976 138.184C303.616 137.448 304.438 137.08 305.44 137.08C306.422 137.08 307.216 137.475 307.824 138.264V134.328H309.872V145ZM306.064 143.384C306.406 143.384 306.742 143.304 307.072 143.144C307.403 142.973 307.654 142.76 307.824 142.504V139.768C307.654 139.512 307.403 139.304 307.072 139.144C306.742 138.973 306.406 138.888 306.064 138.888C305.488 138.888 305.019 139.096 304.656 139.512C304.294 139.928 304.112 140.472 304.112 141.144C304.112 141.805 304.294 142.344 304.656 142.76C305.019 143.176 305.488 143.384 306.064 143.384ZM325.981 145H323.389L322.733 143.192H318.157L317.485 145H314.893L319.021 134.328H321.869L325.981 145ZM322.109 141.192L320.445 136.6L318.781 141.192H322.109ZM329.239 145H326.967V134.328H329.239V145Z" fill="#2F8ACE"/>
<path d="M116.93 15H114.658V4.328H119.65C120.77 4.328 121.644 4.65867 122.274 5.32C122.914 5.97067 123.234 6.78667 123.234 7.768C123.234 8.73867 122.914 9.55467 122.274 10.216C121.634 10.8773 120.759 11.208 119.65 11.208H116.93V15ZM119.346 9.208C119.804 9.208 120.178 9.08 120.466 8.824C120.764 8.55733 120.914 8.20533 120.914 7.768C120.914 7.33067 120.764 6.984 120.466 6.728C120.178 6.46133 119.804 6.328 119.346 6.328H116.93V9.208H119.346ZM126.626 15H124.594V7.272H126.626V8.328C126.914 7.96533 127.282 7.66667 127.73 7.432C128.178 7.19733 128.631 7.08 129.09 7.08V9.064C128.951 9.032 128.765 9.016 128.53 9.016C128.189 9.016 127.826 9.10133 127.442 9.272C127.058 9.44267 126.786 9.65067 126.626 9.896V15ZM133.992 15.192C132.797 15.192 131.81 14.8187 131.032 14.072C130.253 13.3253 129.864 12.344 129.864 11.128C129.864 9.98667 130.237 9.02667 130.984 8.248C131.741 7.46933 132.701 7.08 133.864 7.08C135.016 7.08 135.949 7.47467 136.664 8.264C137.378 9.04267 137.736 10.0667 137.736 11.336V11.784H131.992C132.056 12.296 132.285 12.7227 132.68 13.064C133.074 13.4053 133.586 13.576 134.216 13.576C134.557 13.576 134.925 13.5067 135.32 13.368C135.725 13.2293 136.045 13.0427 136.28 12.808L137.176 14.12C136.397 14.8347 135.336 15.192 133.992 15.192ZM135.768 10.408C135.736 9.97067 135.56 9.576 135.24 9.224C134.93 8.872 134.472 8.696 133.864 8.696C133.288 8.696 132.84 8.872 132.52 9.224C132.2 9.56533 132.013 9.96 131.96 10.408H135.768ZM146.563 15H144.515V14.008C143.886 14.7973 143.091 15.192 142.131 15.192C141.129 15.192 140.307 14.8347 139.667 14.12C139.027 13.3947 138.707 12.4027 138.707 11.144C138.707 9.90667 139.027 8.92 139.667 8.184C140.307 7.448 141.129 7.08 142.131 7.08C143.113 7.08 143.907 7.47467 144.515 8.264V4.328H146.563V15ZM142.755 13.384C143.097 13.384 143.433 13.304 143.763 13.144C144.094 12.9733 144.345 12.76 144.515 12.504V9.768C144.345 9.512 144.094 9.304 143.763 9.144C143.433 8.97333 143.097 8.888 142.755 8.888C142.179 8.888 141.71 9.096 141.347 9.512C140.985 9.928 140.803 10.472 140.803 11.144C140.803 11.8053 140.985 12.344 141.347 12.76C141.71 13.176 142.179 13.384 142.755 13.384ZM149.586 6.44C149.256 6.44 148.968 6.32267 148.722 6.088C148.488 5.84267 148.37 5.55467 148.37 5.224C148.37 4.89333 148.488 4.61067 148.722 4.376C148.968 4.14133 149.256 4.024 149.586 4.024C149.928 4.024 150.216 4.14133 150.45 4.376C150.685 4.61067 150.802 4.89333 150.802 5.224C150.802 5.55467 150.685 5.84267 150.45 6.088C150.216 6.32267 149.928 6.44 149.586 6.44ZM150.61 15H148.578V7.272H150.61V15ZM156.225 15.192C155.031 15.192 154.049 14.8133 153.281 14.056C152.513 13.2987 152.129 12.3227 152.129 11.128C152.129 9.944 152.513 8.97333 153.281 8.216C154.049 7.45867 155.031 7.08 156.225 7.08C157.591 7.08 158.609 7.544 159.281 8.472L157.953 9.72C157.58 9.16533 157.036 8.888 156.321 8.888C155.703 8.888 155.196 9.096 154.801 9.512C154.417 9.91733 154.225 10.456 154.225 11.128C154.225 11.8 154.417 12.344 154.801 12.76C155.196 13.176 155.703 13.384 156.321 13.384C157.015 13.384 157.559 13.1067 157.953 12.552L159.281 13.784C158.609 14.7227 157.591 15.192 156.225 15.192ZM163.202 15.192C162.487 15.192 161.943 15.0107 161.57 14.648C161.196 14.2853 161.01 13.7627 161.01 13.08V9.048H159.73V7.272H161.01V5.16H163.058V7.272H164.626V9.048H163.058V12.536C163.058 12.7813 163.122 12.984 163.25 13.144C163.378 13.304 163.548 13.384 163.762 13.384C164.082 13.384 164.316 13.3093 164.466 13.16L164.898 14.696C164.524 15.0267 163.959 15.192 163.202 15.192ZM167.024 6.44C166.693 6.44 166.405 6.32267 166.16 6.088C165.925 5.84267 165.808 5.55467 165.808 5.224C165.808 4.89333 165.925 4.61067 166.16 4.376C166.405 4.14133 166.693 4.024 167.024 4.024C167.365 4.024 167.653 4.14133 167.888 4.376C168.122 4.61067 168.24 4.89333 168.24 5.224C168.24 5.55467 168.122 5.84267 167.888 6.088C167.653 6.32267 167.365 6.44 167.024 6.44ZM168.048 15H166.016V7.272H168.048V15ZM174.255 15H172.063L168.959 7.272H171.135L173.151 12.648L175.167 7.272H177.359L174.255 15ZM181.898 15.192C180.703 15.192 179.716 14.8187 178.938 14.072C178.159 13.3253 177.77 12.344 177.77 11.128C177.77 9.98667 178.143 9.02667 178.89 8.248C179.647 7.46933 180.607 7.08 181.77 7.08C182.922 7.08 183.855 7.47467 184.57 8.264C185.284 9.04267 185.642 10.0667 185.642 11.336V11.784H179.898C179.962 12.296 180.191 12.7227 180.586 13.064C180.98 13.4053 181.492 13.576 182.122 13.576C182.463 13.576 182.831 13.5067 183.226 13.368C183.631 13.2293 183.951 13.0427 184.186 12.808L185.082 14.12C184.303 14.8347 183.242 15.192 181.898 15.192ZM183.674 10.408C183.642 9.97067 183.466 9.576 183.146 9.224C182.836 8.872 182.378 8.696 181.77 8.696C181.194 8.696 180.746 8.872 180.426 9.224C180.106 9.56533 179.919 9.96 179.866 10.408H183.674ZM201.203 15H198.611L197.955 13.192H193.379L192.707 15H190.115L194.243 4.328H197.091L201.203 15ZM197.331 11.192L195.667 6.6L194.003 11.192H197.331ZM209.389 15H207.357V10.328C207.357 9.368 206.882 8.888 205.933 8.888C205.197 8.888 204.61 9.192 204.173 9.8V15H202.141V7.272H204.173V8.28C204.845 7.48 205.746 7.08 206.877 7.08C207.709 7.08 208.333 7.29867 208.749 7.736C209.175 8.17333 209.389 8.776 209.389 9.544V15ZM218.078 15H216.046V14.2C215.492 14.8613 214.676 15.192 213.598 15.192C212.905 15.192 212.281 14.968 211.726 14.52C211.182 14.0613 210.91 13.432 210.91 12.632C210.91 11.8 211.177 11.176 211.71 10.76C212.254 10.344 212.884 10.136 213.598 10.136C214.697 10.136 215.513 10.4507 216.046 11.08V10.04C216.046 9.64533 215.892 9.33067 215.582 9.096C215.273 8.86133 214.862 8.744 214.35 8.744C213.508 8.744 212.756 9.048 212.094 9.656L211.326 8.296C212.244 7.48533 213.369 7.08 214.702 7.08C215.694 7.08 216.505 7.30933 217.134 7.768C217.764 8.22667 218.078 8.97333 218.078 10.008V15ZM214.414 13.816C215.172 13.816 215.716 13.592 216.046 13.144V12.184C215.716 11.736 215.172 11.512 214.414 11.512C213.998 11.512 213.652 11.6187 213.374 11.832C213.097 12.0347 212.958 12.3173 212.958 12.68C212.958 13.032 213.097 13.3093 213.374 13.512C213.652 13.7147 213.998 13.816 214.414 13.816ZM222.126 15H220.094V4.328H222.126V15ZM223.869 18.024L224.173 16.2C224.365 16.2853 224.578 16.328 224.813 16.328C225.357 16.328 225.714 16.1413 225.885 15.768L226.173 15.112L223.037 7.272H225.213L227.229 12.648L229.245 7.272H231.437L227.805 16.264C227.538 16.9467 227.165 17.4213 226.685 17.688C226.205 17.9653 225.602 18.1147 224.877 18.136C224.503 18.136 224.167 18.0987 223.869 18.024ZM234.936 15.192C234.221 15.192 233.677 15.0107 233.304 14.648C232.931 14.2853 232.744 13.7627 232.744 13.08V9.048H231.464V7.272H232.744V5.16H234.792V7.272H236.36V9.048H234.792V12.536C234.792 12.7813 234.856 12.984 234.984 13.144C235.112 13.304 235.283 13.384 235.496 13.384C235.816 13.384 236.051 13.3093 236.2 13.16L236.632 14.696C236.259 15.0267 235.693 15.192 234.936 15.192ZM238.758 6.44C238.428 6.44 238.14 6.32267 237.894 6.088C237.66 5.84267 237.542 5.55467 237.542 5.224C237.542 4.89333 237.66 4.61067 237.894 4.376C238.14 4.14133 238.428 4.024 238.758 4.024C239.1 4.024 239.388 4.14133 239.622 4.376C239.857 4.61067 239.974 4.89333 239.974 5.224C239.974 5.55467 239.857 5.84267 239.622 6.088C239.388 6.32267 239.1 6.44 238.758 6.44ZM239.782 15H237.75V7.272H239.782V15ZM245.397 15.192C244.202 15.192 243.221 14.8133 242.453 14.056C241.685 13.2987 241.301 12.3227 241.301 11.128C241.301 9.944 241.685 8.97333 242.453 8.216C243.221 7.45867 244.202 7.08 245.397 7.08C246.762 7.08 247.781 7.544 248.453 8.472L247.125 9.72C246.752 9.16533 246.208 8.888 245.493 8.888C244.874 8.888 244.368 9.096 243.973 9.512C243.589 9.91733 243.397 10.456 243.397 11.128C243.397 11.8 243.589 12.344 243.973 12.76C244.368 13.176 244.874 13.384 245.493 13.384C246.186 13.384 246.73 13.1067 247.125 12.552L248.453 13.784C247.781 14.7227 246.762 15.192 245.397 15.192ZM252.565 15.192C251.893 15.192 251.248 15.0853 250.629 14.872C250.021 14.6587 249.515 14.3653 249.109 13.992L249.989 12.568C250.288 12.8453 250.693 13.0907 251.205 13.304C251.717 13.5173 252.203 13.624 252.661 13.624C253.088 13.624 253.408 13.5493 253.621 13.4C253.845 13.2507 253.957 13.048 253.957 12.792C253.957 12.6 253.84 12.4453 253.605 12.328C253.381 12.2 253.099 12.1093 252.757 12.056C252.427 12.0027 252.059 11.9227 251.653 11.816C251.259 11.7093 250.891 11.5813 250.549 11.432C250.219 11.2827 249.936 11.048 249.701 10.728C249.477 10.3973 249.365 9.992 249.365 9.512C249.365 8.82933 249.648 8.25333 250.213 7.784C250.779 7.31467 251.552 7.08 252.533 7.08C253.728 7.08 254.768 7.432 255.653 8.136L254.837 9.528C254.592 9.272 254.261 9.05867 253.845 8.888C253.44 8.71733 253.008 8.632 252.549 8.632C252.187 8.632 251.893 8.70667 251.669 8.856C251.445 8.99467 251.333 9.176 251.333 9.4C251.333 9.57067 251.445 9.71467 251.669 9.832C251.893 9.93867 252.176 10.0187 252.517 10.072C252.859 10.1253 253.227 10.2107 253.621 10.328C254.016 10.4347 254.384 10.568 254.725 10.728C255.067 10.8773 255.349 11.1227 255.573 11.464C255.797 11.8053 255.909 12.2213 255.909 12.712C255.909 13.4373 255.611 14.0347 255.013 14.504C254.427 14.9627 253.611 15.192 252.565 15.192ZM156.802 35H154.21C153.986 34.7867 153.719 34.52 153.41 34.2C152.535 34.8613 151.564 35.192 150.498 35.192C149.474 35.192 148.631 34.9253 147.97 34.392C147.308 33.8587 146.978 33.096 146.978 32.104C146.978 31.368 147.18 30.76 147.586 30.28C148.002 29.8 148.562 29.384 149.266 29.032C148.796 28.1467 148.562 27.3787 148.562 26.728C148.562 26.0027 148.85 25.3947 149.426 24.904C150.002 24.4133 150.732 24.168 151.618 24.168C152.407 24.168 153.068 24.376 153.602 24.792C154.146 25.1973 154.418 25.7413 154.418 26.424C154.418 26.808 154.348 27.1547 154.21 27.464C154.071 27.7733 153.858 28.0453 153.57 28.28C153.292 28.5147 153.026 28.7067 152.77 28.856C152.524 28.9947 152.199 29.16 151.794 29.352C152.028 29.6613 152.338 30.0453 152.722 30.504C152.839 30.6533 153.004 30.856 153.218 31.112C153.431 31.368 153.564 31.528 153.618 31.592C154.044 30.9307 154.37 30.2427 154.594 29.528L156.226 30.28C155.778 31.2613 155.282 32.12 154.738 32.856C155.452 33.624 156.14 34.3387 156.802 35ZM150.786 33.592C151.308 33.592 151.82 33.4107 152.322 33.048C151.788 32.4613 151.394 32.008 151.138 31.688C150.764 31.2293 150.407 30.76 150.066 30.28C149.447 30.7173 149.138 31.2613 149.138 31.912C149.138 32.4133 149.298 32.8187 149.618 33.128C149.938 33.4373 150.327 33.592 150.786 33.592ZM150.594 26.776C150.594 27.1493 150.748 27.6293 151.058 28.216C151.58 27.9707 151.975 27.72 152.242 27.464C152.519 27.208 152.658 26.8987 152.658 26.536C152.658 26.2587 152.567 26.04 152.386 25.88C152.204 25.72 151.98 25.64 151.714 25.64C151.394 25.64 151.127 25.752 150.914 25.976C150.7 26.1893 150.594 26.456 150.594 26.776ZM167.879 35H162.087V24.328H167.703C168.674 24.328 169.426 24.5947 169.959 25.128C170.503 25.6507 170.775 26.2907 170.775 27.048C170.775 27.6987 170.599 28.2427 170.247 28.68C169.895 29.1173 169.458 29.3893 168.935 29.496C169.511 29.5813 169.997 29.8747 170.391 30.376C170.786 30.8773 170.983 31.4587 170.983 32.12C170.983 32.952 170.711 33.64 170.167 34.184C169.623 34.728 168.861 35 167.879 35ZM167.207 28.6C167.591 28.6 167.895 28.4933 168.119 28.28C168.343 28.0667 168.455 27.7893 168.455 27.448C168.455 27.1067 168.338 26.8293 168.103 26.616C167.879 26.392 167.581 26.28 167.207 26.28H164.359V28.6H167.207ZM167.287 33.032C167.714 33.032 168.05 32.9253 168.295 32.712C168.541 32.488 168.663 32.184 168.663 31.8C168.663 31.448 168.541 31.1547 168.295 30.92C168.05 30.6747 167.714 30.552 167.287 30.552H164.359V33.032H167.287ZM173.657 26.44C173.326 26.44 173.038 26.3227 172.793 26.088C172.558 25.8427 172.441 25.5547 172.441 25.224C172.441 24.8933 172.558 24.6107 172.793 24.376C173.038 24.1413 173.326 24.024 173.657 24.024C173.998 24.024 174.286 24.1413 174.521 24.376C174.755 24.6107 174.873 24.8933 174.873 25.224C174.873 25.5547 174.755 25.8427 174.521 26.088C174.286 26.3227 173.998 26.44 173.657 26.44ZM174.681 35H172.649V27.272H174.681V35ZM179.864 38.136C178.53 38.136 177.421 37.752 176.536 36.984L177.448 35.512C178.024 36.152 178.829 36.472 179.864 36.472C180.44 36.472 180.936 36.3173 181.352 36.008C181.778 35.7093 181.992 35.2133 181.992 34.52V33.736C181.352 34.5467 180.557 34.952 179.608 34.952C178.605 34.952 177.784 34.6107 177.144 33.928C176.514 33.2347 176.2 32.264 176.2 31.016C176.2 29.7787 176.514 28.8133 177.144 28.12C177.784 27.4267 178.605 27.08 179.608 27.08C180.568 27.08 181.362 27.4747 181.992 28.264V27.272H184.04V34.472C184.04 35.176 183.912 35.7787 183.656 36.28C183.41 36.7813 183.074 37.16 182.648 37.416C182.221 37.672 181.778 37.8533 181.32 37.96C180.872 38.0773 180.386 38.136 179.864 38.136ZM180.248 33.144C180.578 33.144 180.909 33.0587 181.24 32.888C181.57 32.7173 181.821 32.5093 181.992 32.264V29.768C181.821 29.512 181.57 29.304 181.24 29.144C180.92 28.9733 180.589 28.888 180.248 28.888C179.661 28.888 179.186 29.08 178.824 29.464C178.472 29.848 178.296 30.3653 178.296 31.016C178.296 31.6667 178.472 32.184 178.824 32.568C179.186 32.952 179.661 33.144 180.248 33.144ZM194.405 35H190.197V24.328H194.405C196.079 24.328 197.439 24.8187 198.485 25.8C199.541 26.7813 200.069 28.072 200.069 29.672C200.069 31.272 199.546 32.5627 198.501 33.544C197.455 34.5147 196.09 35 194.405 35ZM194.405 33C195.429 33 196.239 32.68 196.837 32.04C197.445 31.4 197.749 30.6107 197.749 29.672C197.749 28.6907 197.455 27.8907 196.869 27.272C196.282 26.6427 195.461 26.328 194.405 26.328H192.469V33H194.405ZM208.305 35H206.273V34.2C205.718 34.8613 204.902 35.192 203.825 35.192C203.132 35.192 202.508 34.968 201.953 34.52C201.409 34.0613 201.137 33.432 201.137 32.632C201.137 31.8 201.404 31.176 201.937 30.76C202.481 30.344 203.11 30.136 203.825 30.136C204.924 30.136 205.74 30.4507 206.273 31.08V30.04C206.273 29.6453 206.118 29.3307 205.809 29.096C205.5 28.8613 205.089 28.744 204.577 28.744C203.734 28.744 202.982 29.048 202.321 29.656L201.553 28.296C202.47 27.4853 203.596 27.08 204.929 27.08C205.921 27.08 206.732 27.3093 207.361 27.768C207.99 28.2267 208.305 28.9733 208.305 30.008V35ZM204.641 33.816C205.398 33.816 205.942 33.592 206.273 33.144V32.184C205.942 31.736 205.398 31.512 204.641 31.512C204.225 31.512 203.878 31.6187 203.601 31.832C203.324 32.0347 203.185 32.3173 203.185 32.68C203.185 33.032 203.324 33.3093 203.601 33.512C203.878 33.7147 204.225 33.816 204.641 33.816ZM212.913 35.192C212.198 35.192 211.654 35.0107 211.281 34.648C210.907 34.2853 210.721 33.7627 210.721 33.08V29.048H209.441V27.272H210.721V25.16H212.769V27.272H214.337V29.048H212.769V32.536C212.769 32.7813 212.833 32.984 212.961 33.144C213.089 33.304 213.259 33.384 213.473 33.384C213.793 33.384 214.027 33.3093 214.177 33.16L214.609 34.696C214.235 35.0267 213.67 35.192 212.913 35.192ZM222.399 35H220.367V34.2C219.812 34.8613 218.996 35.192 217.919 35.192C217.225 35.192 216.601 34.968 216.047 34.52C215.503 34.0613 215.231 33.432 215.231 32.632C215.231 31.8 215.497 31.176 216.031 30.76C216.575 30.344 217.204 30.136 217.919 30.136C219.017 30.136 219.833 30.4507 220.367 31.08V30.04C220.367 29.6453 220.212 29.3307 219.903 29.096C219.593 28.8613 219.183 28.744 218.671 28.744C217.828 28.744 217.076 29.048 216.415 29.656L215.647 28.296C216.564 27.4853 217.689 27.08 219.023 27.08C220.015 27.08 220.825 27.3093 221.455 27.768C222.084 28.2267 222.399 28.9733 222.399 30.008V35ZM218.735 33.816C219.492 33.816 220.036 33.592 220.367 33.144V32.184C220.036 31.736 219.492 31.512 218.735 31.512C218.319 31.512 217.972 31.6187 217.695 31.832C217.417 32.0347 217.279 32.3173 217.279 32.68C217.279 33.032 217.417 33.3093 217.695 33.512C217.972 33.7147 218.319 33.816 218.735 33.816Z" fill="#2F8ACE"/>
<path d="M564.1 35V24.328H561.828V31.032L556.884 24.328H554.548V35H556.82V28.04L561.908 35H564.1ZM572.988 35V33H568.476V24.328H566.204V35H572.988ZM576.851 35V31.208H579.571C581.875 31.208 583.155 29.624 583.155 27.768C583.155 25.896 581.891 24.328 579.571 24.328H574.579V35H576.851ZM579.267 29.208H576.851V26.328H579.267C580.163 26.328 580.835 26.872 580.835 27.768C580.835 28.648 580.163 29.208 579.267 29.208Z" fill="#2F8ACE"/>
<path d="M404.287 35.192C402.665 35.192 401.311 34.68 400.223 33.656C399.145 32.6213 398.607 31.2933 398.607 29.672C398.607 28.0507 399.145 26.728 400.223 25.704C401.311 24.6693 402.665 24.152 404.287 24.152C406.281 24.152 407.769 25.0213 408.751 26.76L406.799 27.72C406.564 27.272 406.217 26.904 405.759 26.616C405.311 26.3173 404.82 26.168 404.287 26.168C403.316 26.168 402.516 26.4987 401.887 27.16C401.257 27.8213 400.943 28.6587 400.943 29.672C400.943 30.6853 401.257 31.5227 401.887 32.184C402.516 32.8453 403.316 33.176 404.287 33.176C404.82 33.176 405.311 33.032 405.759 32.744C406.217 32.456 406.564 32.0827 406.799 31.624L408.751 32.568C407.737 34.3173 406.249 35.192 404.287 35.192ZM415.88 35H413.032L408.904 24.328H411.496L414.456 32.536L417.4 24.328H419.992L415.88 35ZM431.696 35H429.664V34.2C429.109 34.8613 428.293 35.192 427.216 35.192C426.522 35.192 425.898 34.968 425.344 34.52C424.8 34.0613 424.528 33.432 424.528 32.632C424.528 31.8 424.794 31.176 425.328 30.76C425.872 30.344 426.501 30.136 427.216 30.136C428.314 30.136 429.13 30.4507 429.664 31.08V30.04C429.664 29.6453 429.509 29.3307 429.2 29.096C428.89 28.8613 428.48 28.744 427.968 28.744C427.125 28.744 426.373 29.048 425.712 29.656L424.944 28.296C425.861 27.4853 426.986 27.08 428.32 27.08C429.312 27.08 430.122 27.3093 430.752 27.768C431.381 28.2267 431.696 28.9733 431.696 30.008V35ZM428.032 33.816C428.789 33.816 429.333 33.592 429.664 33.144V32.184C429.333 31.736 428.789 31.512 428.032 31.512C427.616 31.512 427.269 31.6187 426.992 31.832C426.714 32.0347 426.576 32.3173 426.576 32.68C426.576 33.032 426.714 33.3093 426.992 33.512C427.269 33.7147 427.616 33.816 428.032 33.816ZM440.959 35H438.927V30.328C438.927 29.368 438.452 28.888 437.503 28.888C436.767 28.888 436.18 29.192 435.743 29.8V35H433.711V27.272H435.743V28.28C436.415 27.48 437.316 27.08 438.447 27.08C439.279 27.08 439.903 27.2987 440.319 27.736C440.746 28.1733 440.959 28.776 440.959 29.544V35ZM450.337 35H448.289V34.008C447.659 34.7973 446.865 35.192 445.905 35.192C444.902 35.192 444.081 34.8347 443.441 34.12C442.801 33.3947 442.481 32.4027 442.481 31.144C442.481 29.9067 442.801 28.92 443.441 28.184C444.081 27.448 444.902 27.08 445.905 27.08C446.886 27.08 447.681 27.4747 448.289 28.264V24.328H450.337V35ZM446.529 33.384C446.87 33.384 447.206 33.304 447.537 33.144C447.867 32.9733 448.118 32.76 448.289 32.504V29.768C448.118 29.512 447.867 29.304 447.537 29.144C447.206 28.9733 446.87 28.888 446.529 28.888C445.953 28.888 445.483 29.096 445.121 29.512C444.758 29.928 444.577 30.472 444.577 31.144C444.577 31.8053 444.758 32.344 445.121 32.76C445.483 33.176 445.953 33.384 446.529 33.384ZM461.55 35.192C459.939 35.192 458.606 34.6747 457.549 33.64C456.504 32.5947 455.982 31.272 455.982 29.672C455.982 28.072 456.504 26.7547 457.549 25.72C458.606 24.6747 459.939 24.152 461.55 24.152C463.171 24.152 464.504 24.6693 465.55 25.704C466.606 26.7387 467.134 28.0613 467.134 29.672C467.134 31.2827 466.606 32.6053 465.55 33.64C464.504 34.6747 463.171 35.192 461.55 35.192ZM459.198 32.184C459.795 32.8453 460.579 33.176 461.55 33.176C462.52 33.176 463.304 32.8453 463.902 32.184C464.499 31.5227 464.798 30.6853 464.798 29.672C464.798 28.6587 464.499 27.8213 463.902 27.16C463.304 26.4987 462.52 26.168 461.55 26.168C460.579 26.168 459.795 26.4987 459.198 27.16C458.611 27.8213 458.318 28.6587 458.318 29.672C458.318 30.6853 458.611 31.5227 459.198 32.184ZM473.896 35.192C472.275 35.192 470.92 34.68 469.832 33.656C468.755 32.6213 468.216 31.2933 468.216 29.672C468.216 28.0507 468.755 26.728 469.832 25.704C470.92 24.6693 472.275 24.152 473.896 24.152C475.891 24.152 477.379 25.0213 478.36 26.76L476.408 27.72C476.173 27.272 475.827 26.904 475.368 26.616C474.92 26.3173 474.429 26.168 473.896 26.168C472.925 26.168 472.125 26.4987 471.496 27.16C470.867 27.8213 470.552 28.6587 470.552 29.672C470.552 30.6853 470.867 31.5227 471.496 32.184C472.125 32.8453 472.925 33.176 473.896 33.176C474.429 33.176 474.92 33.032 475.368 32.744C475.827 32.456 476.173 32.0827 476.408 31.624L478.36 32.568C477.347 34.3173 475.859 35.192 473.896 35.192ZM488.352 35H485.744L483.648 31.208H481.984V35H479.712V24.328H484.704C485.803 24.328 486.672 24.648 487.312 25.288C487.963 25.928 488.288 26.7547 488.288 27.768C488.288 28.6427 488.059 29.352 487.6 29.896C487.152 30.44 486.603 30.7867 485.952 30.936L488.352 35ZM484.368 29.208C484.838 29.208 485.222 29.08 485.52 28.824C485.819 28.5573 485.968 28.2053 485.968 27.768C485.968 27.3307 485.819 26.984 485.52 26.728C485.222 26.4613 484.838 26.328 484.368 26.328H481.984V29.208H484.368Z" fill="#2F8ACE"/>
<path d="M641.547 145L637.435 134.328H634.587L630.459 145H633.051L633.723 143.192H638.299L638.955 145H641.547ZM637.675 141.192H634.347L636.011 136.6L637.675 141.192ZM644.805 145V134.328H642.533V145H644.805ZM662.585 145V134.328H659.385L656.793 140.776L654.201 134.328H651.017V145H653.289V137.528L656.297 145H657.289L660.297 137.528V145H662.585ZM668.24 145.192C670.8 145.192 672.336 143.336 672.336 141.128C672.336 138.936 670.8 137.08 668.24 137.08C665.696 137.08 664.16 138.936 664.16 141.128C664.16 143.336 665.696 145.192 668.24 145.192ZM668.24 143.384C666.976 143.384 666.272 142.344 666.272 141.128C666.272 139.928 666.976 138.888 668.24 138.888C669.504 138.888 670.224 139.928 670.224 141.128C670.224 142.344 669.504 143.384 668.24 143.384ZM675.876 142.52V139.784C676.212 139.272 676.964 138.888 677.62 138.888C678.804 138.888 679.588 139.8 679.588 141.144C679.588 142.488 678.804 143.384 677.62 143.384C676.964 143.384 676.212 143.016 675.876 142.52ZM675.876 145V144.008C676.484 144.776 677.332 145.192 678.26 145.192C680.212 145.192 681.684 143.72 681.684 141.144C681.684 138.616 680.228 137.08 678.26 137.08C677.348 137.08 676.484 137.48 675.876 138.264V134.328H673.844V145H675.876ZM684.227 136.44C684.899 136.44 685.443 135.896 685.443 135.224C685.443 134.552 684.899 134.024 684.227 134.024C683.571 134.024 683.011 134.552 683.011 135.224C683.011 135.896 683.571 136.44 684.227 136.44ZM685.251 145V137.272H683.219V145H685.251ZM689.298 145V134.328H687.266V145H689.298ZM694.945 145.192C696.145 145.192 697.361 144.824 698.129 144.12L697.233 142.808C696.737 143.288 695.825 143.576 695.169 143.576C693.857 143.576 693.073 142.76 692.945 141.784H698.689V141.336C698.689 138.808 697.121 137.08 694.817 137.08C692.465 137.08 690.817 138.888 690.817 141.128C690.817 143.608 692.593 145.192 694.945 145.192ZM696.721 140.408H692.913C693.009 139.64 693.553 138.696 694.817 138.696C696.161 138.696 696.673 139.672 696.721 140.408ZM714.25 145L710.138 134.328H707.29L703.162 145H705.754L706.426 143.192H711.002L711.658 145H714.25ZM710.378 141.192H707.05L708.714 136.6L710.378 141.192ZM719.604 145.192C721.588 145.192 723.028 143.704 723.028 141.128C723.028 138.552 721.588 137.08 719.604 137.08C718.66 137.08 717.812 137.496 717.22 138.248V137.272H715.188V147.944H717.22V144.008C717.844 144.808 718.692 145.192 719.604 145.192ZM718.964 143.384C718.308 143.384 717.556 142.984 717.22 142.504V139.768C717.556 139.272 718.308 138.888 718.964 138.888C720.132 138.888 720.916 139.8 720.916 141.128C720.916 142.472 720.132 143.384 718.964 143.384ZM728.932 145.192C730.916 145.192 732.356 143.704 732.356 141.128C732.356 138.552 730.916 137.08 728.932 137.08C727.988 137.08 727.14 137.496 726.548 138.248V137.272H724.516V147.944H726.548V144.008C727.172 144.808 728.02 145.192 728.932 145.192ZM728.292 143.384C727.636 143.384 726.884 142.984 726.548 142.504V139.768C726.884 139.272 727.636 138.888 728.292 138.888C729.46 138.888 730.244 139.8 730.244 141.128C730.244 142.472 729.46 143.384 728.292 143.384ZM736.628 145.192C738.772 145.192 739.972 144.12 739.972 142.712C739.972 139.592 735.396 140.552 735.396 139.4C735.396 138.968 735.876 138.632 736.612 138.632C737.556 138.632 738.436 139.032 738.9 139.528L739.716 138.136C738.948 137.528 737.908 137.08 736.596 137.08C734.564 137.08 733.428 138.216 733.428 139.512C733.428 142.552 738.02 141.512 738.02 142.792C738.02 143.272 737.604 143.624 736.724 143.624C735.764 143.624 734.612 143.096 734.052 142.568L733.172 143.992C733.988 144.744 735.284 145.192 736.628 145.192ZM642.225 165C645.569 165 647.889 162.888 647.889 159.672C647.889 156.456 645.569 154.328 642.225 154.328H638.017V165H642.225ZM642.225 163H640.289V156.328H642.225C644.417 156.328 645.569 157.784 645.569 159.672C645.569 161.48 644.337 163 642.225 163ZM653.085 165.192C654.285 165.192 655.501 164.824 656.269 164.12L655.373 162.808C654.877 163.288 653.965 163.576 653.309 163.576C651.997 163.576 651.213 162.76 651.085 161.784H656.829V161.336C656.829 158.808 655.261 157.08 652.957 157.08C650.605 157.08 648.957 158.888 648.957 161.128C648.957 163.608 650.733 165.192 653.085 165.192ZM654.861 160.408H651.053C651.149 159.64 651.693 158.696 652.957 158.696C654.301 158.696 654.813 159.672 654.861 160.408ZM662.489 165L665.593 157.272H663.401L661.385 162.648L659.369 157.272H657.193L660.297 165H662.489ZM670.132 165.192C671.332 165.192 672.548 164.824 673.316 164.12L672.42 162.808C671.924 163.288 671.012 163.576 670.356 163.576C669.044 163.576 668.26 162.76 668.132 161.784H673.876V161.336C673.876 158.808 672.308 157.08 670.004 157.08C667.652 157.08 666.004 158.888 666.004 161.128C666.004 163.608 667.78 165.192 670.132 165.192ZM671.908 160.408H668.1C668.196 159.64 668.74 158.696 670.004 158.696C671.348 158.696 671.86 159.672 671.908 160.408ZM677.376 165V154.328H675.344V165H677.376ZM682.975 165.192C685.535 165.192 687.071 163.336 687.071 161.128C687.071 158.936 685.535 157.08 682.975 157.08C680.431 157.08 678.895 158.936 678.895 161.128C678.895 163.336 680.431 165.192 682.975 165.192ZM682.975 163.384C681.711 163.384 681.007 162.344 681.007 161.128C681.007 159.928 681.711 158.888 682.975 158.888C684.239 158.888 684.959 159.928 684.959 161.128C684.959 162.344 684.239 163.384 682.975 163.384ZM692.994 165.192C694.978 165.192 696.418 163.704 696.418 161.128C696.418 158.552 694.978 157.08 692.994 157.08C692.05 157.08 691.202 157.496 690.61 158.248V157.272H688.578V167.944H690.61V164.008C691.234 164.808 692.082 165.192 692.994 165.192ZM692.354 163.384C691.698 163.384 690.946 162.984 690.61 162.504V159.768C690.946 159.272 691.698 158.888 692.354 158.888C693.522 158.888 694.306 159.8 694.306 161.128C694.306 162.472 693.522 163.384 692.354 163.384ZM709.538 165V159.416C709.538 157.832 708.69 157.08 707.266 157.08C706.082 157.08 705.058 157.784 704.61 158.488C704.322 157.608 703.602 157.08 702.466 157.08C701.282 157.08 700.258 157.816 699.938 158.28V157.272H697.906V165H699.938V159.8C700.242 159.368 700.834 158.888 701.538 158.888C702.37 158.888 702.69 159.4 702.69 160.12V165H704.738V159.784C705.026 159.368 705.618 158.888 706.338 158.888C707.17 158.888 707.49 159.4 707.49 160.12V165H709.538ZM715.163 165.192C716.363 165.192 717.579 164.824 718.347 164.12L717.451 162.808C716.955 163.288 716.043 163.576 715.387 163.576C714.075 163.576 713.291 162.76 713.163 161.784H718.907V161.336C718.907 158.808 717.339 157.08 715.035 157.08C712.683 157.08 711.035 158.888 711.035 161.128C711.035 163.608 712.811 165.192 715.163 165.192ZM716.939 160.408H713.131C713.227 159.64 713.771 158.696 715.035 158.696C716.379 158.696 716.891 159.672 716.939 160.408ZM727.623 165V159.544C727.623 158.04 726.807 157.08 725.111 157.08C723.847 157.08 722.903 157.688 722.407 158.28V157.272H720.375V165H722.407V159.8C722.743 159.336 723.367 158.888 724.167 158.888C725.031 158.888 725.591 159.256 725.591 160.328V165H727.623ZM732.233 165.192C733.081 165.192 733.625 164.968 733.929 164.696L733.497 163.16C733.385 163.272 733.097 163.384 732.793 163.384C732.345 163.384 732.089 163.016 732.089 162.536V159.048H733.657V157.272H732.089V155.16H730.041V157.272H728.761V159.048H730.041V163.08C730.041 164.456 730.809 165.192 732.233 165.192Z" fill="#2F8ACE"/>
<path d="M67.3584 273.416V262.744H64.1584L61.5664 269.192L58.9744 262.744H55.7904V273.416H58.0624V265.944L61.0704 273.416H62.0624L65.0704 265.944V273.416H67.3584ZM76.1019 273.416V268.424C76.1019 266.2 74.4859 265.496 72.7259 265.496C71.5099 265.496 70.2939 265.88 69.3499 266.712L70.1179 268.072C70.7739 267.464 71.5419 267.16 72.3739 267.16C73.3979 267.16 74.0699 267.672 74.0699 268.456V269.496C73.5579 268.888 72.6459 268.552 71.6219 268.552C70.3899 268.552 68.9339 269.24 68.9339 271.048C68.9339 272.776 70.3899 273.608 71.6219 273.608C72.6299 273.608 73.5419 273.24 74.0699 272.616V273.416H76.1019ZM72.4379 272.232C71.6379 272.232 70.9819 271.816 70.9819 271.096C70.9819 270.344 71.6379 269.928 72.4379 269.928C73.0939 269.928 73.7339 270.152 74.0699 270.6V271.56C73.7339 272.008 73.0939 272.232 72.4379 272.232ZM80.9014 273.608C83.0454 273.608 84.2454 272.536 84.2454 271.128C84.2454 268.008 79.6694 268.968 79.6694 267.816C79.6694 267.384 80.1494 267.048 80.8854 267.048C81.8294 267.048 82.7094 267.448 83.1734 267.944L83.9894 266.552C83.2214 265.944 82.1814 265.496 80.8694 265.496C78.8374 265.496 77.7014 266.632 77.7014 267.928C77.7014 270.968 82.2934 269.928 82.2934 271.208C82.2934 271.688 81.8774 272.04 80.9974 272.04C80.0374 272.04 78.8854 271.512 78.3254 270.984L77.4454 272.408C78.2614 273.16 79.5574 273.608 80.9014 273.608ZM88.3344 273.608C89.1824 273.608 89.7264 273.384 90.0304 273.112L89.5984 271.576C89.4864 271.688 89.1984 271.8 88.8944 271.8C88.4464 271.8 88.1904 271.432 88.1904 270.952V267.464H89.7584V265.688H88.1904V263.576H86.1424V265.688H84.8624V267.464H86.1424V271.496C86.1424 272.872 86.9104 273.608 88.3344 273.608ZM94.7806 273.608C95.9806 273.608 97.1966 273.24 97.9646 272.536L97.0686 271.224C96.5726 271.704 95.6606 271.992 95.0046 271.992C93.6926 271.992 92.9086 271.176 92.7806 270.2H98.5246V269.752C98.5246 267.224 96.9566 265.496 94.6526 265.496C92.3006 265.496 90.6526 267.304 90.6526 269.544C90.6526 272.024 92.4286 273.608 94.7806 273.608ZM96.5566 268.824H92.7486C92.8446 268.056 93.3886 267.112 94.6526 267.112C95.9966 267.112 96.5086 268.088 96.5566 268.824ZM102.024 273.416V268.312C102.36 267.816 103.256 267.432 103.928 267.432C104.152 267.432 104.344 267.448 104.488 267.48V265.496C103.528 265.496 102.568 266.056 102.024 266.744V265.688H99.9924V273.416H102.024ZM108.19 264.216C108.19 263.176 107.502 262.584 106.75 262.584C106.078 262.584 105.502 263.16 105.502 263.864C105.502 264.536 105.982 265.016 106.59 265.016C106.702 265.016 106.846 264.984 106.894 264.952C106.766 265.528 106.174 266.2 105.662 266.472L106.542 267.192C107.518 266.488 108.19 265.416 108.19 264.216ZM112.136 273.608C114.28 273.608 115.48 272.536 115.48 271.128C115.48 268.008 110.904 268.968 110.904 267.816C110.904 267.384 111.384 267.048 112.12 267.048C113.064 267.048 113.944 267.448 114.408 267.944L115.224 266.552C114.456 265.944 113.416 265.496 112.104 265.496C110.072 265.496 108.936 266.632 108.936 267.928C108.936 270.968 113.528 269.928 113.528 271.208C113.528 271.688 113.112 272.04 112.232 272.04C111.272 272.04 110.12 271.512 109.56 270.984L108.68 272.408C109.496 273.16 110.792 273.608 112.136 273.608ZM125.327 273.416C128.671 273.416 130.991 271.304 130.991 268.088C130.991 264.872 128.671 262.744 125.327 262.744H121.118V273.416H125.327ZM125.327 271.416H123.391V264.744H125.327C127.519 264.744 128.671 266.2 128.671 268.088C128.671 269.896 127.439 271.416 125.327 271.416ZM136.187 273.608C137.387 273.608 138.603 273.24 139.371 272.536L138.475 271.224C137.979 271.704 137.067 271.992 136.411 271.992C135.099 271.992 134.315 271.176 134.187 270.2H139.931V269.752C139.931 267.224 138.363 265.496 136.059 265.496C133.707 265.496 132.059 267.304 132.059 269.544C132.059 272.024 133.835 273.608 136.187 273.608ZM137.963 268.824H134.155C134.251 268.056 134.795 267.112 136.059 267.112C137.403 267.112 137.915 268.088 137.963 268.824ZM144.567 276.552C146.471 276.552 148.743 275.832 148.743 272.888V265.688H146.695V266.68C146.071 265.896 145.239 265.496 144.311 265.496C142.359 265.496 140.903 266.904 140.903 269.432C140.903 272.008 142.375 273.368 144.311 273.368C145.255 273.368 146.087 272.92 146.695 272.152V272.936C146.695 274.456 145.543 274.888 144.567 274.888C143.591 274.888 142.775 274.616 142.151 273.928L141.239 275.4C142.215 276.248 143.239 276.552 144.567 276.552ZM144.951 271.56C143.799 271.56 142.999 270.76 142.999 269.432C142.999 268.104 143.799 267.304 144.951 267.304C145.623 267.304 146.359 267.672 146.695 268.184V270.68C146.359 271.176 145.623 271.56 144.951 271.56ZM152.79 273.416V268.312C153.126 267.816 154.022 267.432 154.694 267.432C154.918 267.432 155.11 267.448 155.254 267.48V265.496C154.294 265.496 153.334 266.056 152.79 266.744V265.688H150.758V273.416H152.79ZM160.156 273.608C161.356 273.608 162.572 273.24 163.34 272.536L162.444 271.224C161.948 271.704 161.036 271.992 160.38 271.992C159.068 271.992 158.284 271.176 158.156 270.2H163.9V269.752C163.9 267.224 162.332 265.496 160.028 265.496C157.676 265.496 156.028 267.304 156.028 269.544C156.028 272.024 157.804 273.608 160.156 273.608ZM161.932 268.824H158.124C158.22 268.056 158.764 267.112 160.028 267.112C161.372 267.112 161.884 268.088 161.932 268.824ZM168.999 273.608C170.199 273.608 171.415 273.24 172.183 272.536L171.287 271.224C170.791 271.704 169.879 271.992 169.223 271.992C167.911 271.992 167.127 271.176 166.999 270.2H172.743V269.752C172.743 267.224 171.175 265.496 168.871 265.496C166.519 265.496 164.871 267.304 164.871 269.544C164.871 272.024 166.647 273.608 168.999 273.608ZM170.775 268.824H166.967C167.063 268.056 167.607 267.112 168.871 267.112C170.215 267.112 170.727 268.088 170.775 268.824ZM179.313 264.856C179.985 264.856 180.529 264.312 180.529 263.64C180.529 262.968 179.985 262.44 179.313 262.44C178.657 262.44 178.097 262.968 178.097 263.64C178.097 264.312 178.657 264.856 179.313 264.856ZM180.337 273.416V265.688H178.305V273.416H180.337ZM189.6 273.416V267.96C189.6 266.456 188.784 265.496 187.088 265.496C185.824 265.496 184.88 266.104 184.384 266.696V265.688H182.352V273.416H184.384V268.216C184.72 267.752 185.344 267.304 186.144 267.304C187.008 267.304 187.568 267.672 187.568 268.744V273.416H189.6ZM205.711 273.416L201.599 262.744H198.751L194.623 273.416H197.215L197.887 271.608H202.463L203.119 273.416H205.711ZM201.839 269.608H198.511L200.175 265.016L201.839 269.608ZM211.065 273.608C213.049 273.608 214.489 272.12 214.489 269.544C214.489 266.968 213.049 265.496 211.065 265.496C210.121 265.496 209.273 265.912 208.681 266.664V265.688H206.649V276.36H208.681V272.424C209.305 273.224 210.153 273.608 211.065 273.608ZM210.425 271.8C209.769 271.8 209.017 271.4 208.681 270.92V268.184C209.017 267.688 209.769 267.304 210.425 267.304C211.593 267.304 212.377 268.216 212.377 269.544C212.377 270.888 211.593 271.8 210.425 271.8ZM220.393 273.608C222.377 273.608 223.817 272.12 223.817 269.544C223.817 266.968 222.377 265.496 220.393 265.496C219.449 265.496 218.601 265.912 218.009 266.664V265.688H215.977V276.36H218.009V272.424C218.633 273.224 219.481 273.608 220.393 273.608ZM219.753 271.8C219.097 271.8 218.345 271.4 218.009 270.92V268.184C218.345 267.688 219.097 267.304 219.753 267.304C220.921 267.304 221.705 268.216 221.705 269.544C221.705 270.888 220.921 271.8 219.753 271.8ZM227.337 273.416V262.744H225.305V273.416H227.337ZM230.36 264.856C231.032 264.856 231.576 264.312 231.576 263.64C231.576 262.968 231.032 262.44 230.36 262.44C229.704 262.44 229.144 262.968 229.144 263.64C229.144 264.312 229.704 264.856 230.36 264.856ZM231.384 273.416V265.688H229.352V273.416H231.384ZM237.031 273.608C238.231 273.608 239.447 273.24 240.215 272.536L239.319 271.224C238.823 271.704 237.911 271.992 237.255 271.992C235.943 271.992 235.159 271.176 235.031 270.2H240.775V269.752C240.775 267.224 239.207 265.496 236.903 265.496C234.551 265.496 232.903 267.304 232.903 269.544C232.903 272.024 234.679 273.608 237.031 273.608ZM238.807 268.824H234.999C235.095 268.056 235.639 267.112 236.903 267.112C238.247 267.112 238.759 268.088 238.807 268.824ZM249.602 273.416V262.744H247.554V266.68C246.946 265.896 246.082 265.496 245.17 265.496C243.202 265.496 241.746 267.032 241.746 269.56C241.746 272.136 243.218 273.608 245.17 273.608C246.098 273.608 246.946 273.192 247.554 272.424V273.416H249.602ZM245.794 271.8C244.642 271.8 243.842 270.888 243.842 269.56C243.842 268.216 244.642 267.304 245.794 267.304C246.482 267.304 247.218 267.672 247.554 268.184V270.92C247.218 271.432 246.482 271.8 245.794 271.8ZM267.327 273.416V262.744H264.127L261.535 269.192L258.943 262.744H255.759V273.416H258.031V265.944L261.039 273.416H262.031L265.039 265.944V273.416H267.327ZM276.071 273.416V268.424C276.071 266.2 274.455 265.496 272.695 265.496C271.479 265.496 270.263 265.88 269.319 266.712L270.087 268.072C270.743 267.464 271.511 267.16 272.343 267.16C273.367 267.16 274.039 267.672 274.039 268.456V269.496C273.527 268.888 272.615 268.552 271.591 268.552C270.359 268.552 268.903 269.24 268.903 271.048C268.903 272.776 270.359 273.608 271.591 273.608C272.599 273.608 273.511 273.24 274.039 272.616V273.416H276.071ZM272.407 272.232C271.607 272.232 270.951 271.816 270.951 271.096C270.951 270.344 271.607 269.928 272.407 269.928C273.063 269.928 273.703 270.152 274.039 270.6V271.56C273.703 272.008 273.063 272.232 272.407 272.232ZM280.678 273.608C281.526 273.608 282.07 273.384 282.374 273.112L281.942 271.576C281.83 271.688 281.542 271.8 281.238 271.8C280.79 271.8 280.534 271.432 280.534 270.952V267.464H282.102V265.688H280.534V263.576H278.486V265.688H277.206V267.464H278.486V271.496C278.486 272.872 279.254 273.608 280.678 273.608ZM290.756 273.416V267.928C290.756 266.424 289.94 265.496 288.244 265.496C286.98 265.496 286.02 266.104 285.524 266.696V262.744H283.492V273.416H285.524V268.216C285.876 267.752 286.5 267.304 287.284 267.304C288.164 267.304 288.724 267.64 288.724 268.712V273.416H290.756ZM296.406 273.608C297.606 273.608 298.822 273.24 299.59 272.536L298.694 271.224C298.198 271.704 297.286 271.992 296.63 271.992C295.318 271.992 294.534 271.176 294.406 270.2H300.15V269.752C300.15 267.224 298.582 265.496 296.278 265.496C293.926 265.496 292.278 267.304 292.278 269.544C292.278 272.024 294.054 273.608 296.406 273.608ZM298.182 268.824H294.374C294.47 268.056 295.014 267.112 296.278 267.112C297.622 267.112 298.134 268.088 298.182 268.824ZM313.249 273.416V267.832C313.249 266.248 312.401 265.496 310.977 265.496C309.793 265.496 308.769 266.2 308.321 266.904C308.033 266.024 307.313 265.496 306.177 265.496C304.993 265.496 303.969 266.232 303.649 266.696V265.688H301.617V273.416H303.649V268.216C303.953 267.784 304.545 267.304 305.249 267.304C306.081 267.304 306.401 267.816 306.401 268.536V273.416H308.449V268.2C308.737 267.784 309.329 267.304 310.049 267.304C310.881 267.304 311.201 267.816 311.201 268.536V273.416H313.249ZM321.914 273.416V268.424C321.914 266.2 320.298 265.496 318.538 265.496C317.322 265.496 316.106 265.88 315.162 266.712L315.93 268.072C316.586 267.464 317.354 267.16 318.186 267.16C319.21 267.16 319.882 267.672 319.882 268.456V269.496C319.37 268.888 318.458 268.552 317.434 268.552C316.202 268.552 314.746 269.24 314.746 271.048C314.746 272.776 316.202 273.608 317.434 273.608C318.442 273.608 319.354 273.24 319.882 272.616V273.416H321.914ZM318.25 272.232C317.45 272.232 316.794 271.816 316.794 271.096C316.794 270.344 317.45 269.928 318.25 269.928C318.906 269.928 319.546 270.152 319.882 270.6V271.56C319.546 272.008 318.906 272.232 318.25 272.232ZM326.522 273.608C327.37 273.608 327.914 273.384 328.218 273.112L327.786 271.576C327.674 271.688 327.386 271.8 327.082 271.8C326.634 271.8 326.378 271.432 326.378 270.952V267.464H327.946V265.688H326.378V263.576H324.33V265.688H323.05V267.464H324.33V271.496C324.33 272.872 325.098 273.608 326.522 273.608ZM330.344 264.856C331.016 264.856 331.56 264.312 331.56 263.64C331.56 262.968 331.016 262.44 330.344 262.44C329.688 262.44 329.128 262.968 329.128 263.64C329.128 264.312 329.688 264.856 330.344 264.856ZM331.368 273.416V265.688H329.336V273.416H331.368ZM336.983 273.608C338.567 273.608 339.527 272.92 340.039 272.2L338.711 270.968C338.343 271.48 337.783 271.8 337.079 271.8C335.847 271.8 334.983 270.888 334.983 269.544C334.983 268.2 335.847 267.304 337.079 267.304C337.783 267.304 338.343 267.592 338.711 268.136L340.039 266.888C339.527 266.184 338.567 265.496 336.983 265.496C334.599 265.496 332.887 267.176 332.887 269.544C332.887 271.928 334.599 273.608 336.983 273.608ZM344.151 273.608C346.295 273.608 347.495 272.536 347.495 271.128C347.495 268.008 342.919 268.968 342.919 267.816C342.919 267.384 343.399 267.048 344.135 267.048C345.079 267.048 345.959 267.448 346.423 267.944L347.239 266.552C346.471 265.944 345.431 265.496 344.119 265.496C342.087 265.496 340.951 266.632 340.951 267.928C340.951 270.968 345.543 269.928 345.543 271.208C345.543 271.688 345.127 272.04 344.247 272.04C343.287 272.04 342.135 271.512 341.575 270.984L340.695 272.408C341.511 273.16 342.807 273.608 344.151 273.608ZM351.424 272.632C351.424 271.592 350.736 271 349.984 271C349.312 271 348.736 271.576 348.736 272.28C348.736 272.968 349.216 273.432 349.824 273.432C349.936 273.432 350.08 273.4 350.128 273.384C350 273.944 349.408 274.616 348.896 274.888L349.776 275.608C350.752 274.904 351.424 273.832 351.424 272.632ZM361.02 273.608C363.9 273.608 365.292 272.136 365.292 270.184C365.292 266.2 359.164 267.336 359.164 265.64C359.164 265 359.708 264.568 360.684 264.568C361.772 264.568 362.924 264.936 363.788 265.736L365.052 264.072C363.996 263.096 362.588 262.584 360.892 262.584C358.38 262.584 356.844 264.056 356.844 265.832C356.844 269.848 362.988 268.552 362.988 270.44C362.988 271.048 362.38 271.624 361.132 271.624C359.66 271.624 358.492 270.968 357.74 270.184L356.508 271.912C357.5 272.92 358.972 273.608 361.02 273.608ZM366.299 276.44C366.555 276.504 367.067 276.552 367.307 276.552C368.635 276.52 369.659 276.136 370.235 274.68L373.867 265.688H371.675L369.659 271.064L367.643 265.688H365.466L368.603 273.528L368.315 274.184C368.123 274.6 367.771 274.744 367.243 274.744C367.051 274.744 366.779 274.696 366.603 274.616L366.299 276.44ZM377.558 273.608C379.702 273.608 380.902 272.536 380.902 271.128C380.902 268.008 376.326 268.968 376.326 267.816C376.326 267.384 376.806 267.048 377.542 267.048C378.486 267.048 379.366 267.448 379.83 267.944L380.646 266.552C379.878 265.944 378.838 265.496 377.526 265.496C375.494 265.496 374.358 266.632 374.358 267.928C374.358 270.968 378.95 269.928 378.95 271.208C378.95 271.688 378.534 272.04 377.654 272.04C376.694 272.04 375.542 271.512 374.982 270.984L374.102 272.408C374.918 273.16 376.214 273.608 377.558 273.608ZM384.991 273.608C385.839 273.608 386.383 273.384 386.687 273.112L386.255 271.576C386.143 271.688 385.855 271.8 385.551 271.8C385.103 271.8 384.847 271.432 384.847 270.952V267.464H386.415V265.688H384.847V263.576H382.799V265.688H381.519V267.464H382.799V271.496C382.799 272.872 383.567 273.608 384.991 273.608ZM391.437 273.608C392.637 273.608 393.853 273.24 394.621 272.536L393.725 271.224C393.229 271.704 392.317 271.992 391.661 271.992C390.349 271.992 389.565 271.176 389.437 270.2H395.181V269.752C395.181 267.224 393.613 265.496 391.309 265.496C388.957 265.496 387.309 267.304 387.309 269.544C387.309 272.024 389.085 273.608 391.437 273.608ZM393.213 268.824H389.405C389.501 268.056 390.045 267.112 391.309 267.112C392.653 267.112 393.165 268.088 393.213 268.824ZM408.281 273.416V267.832C408.281 266.248 407.433 265.496 406.009 265.496C404.825 265.496 403.801 266.2 403.353 266.904C403.065 266.024 402.345 265.496 401.209 265.496C400.025 265.496 399.001 266.232 398.681 266.696V265.688H396.649V273.416H398.681V268.216C398.985 267.784 399.577 267.304 400.281 267.304C401.113 267.304 401.433 267.816 401.433 268.536V273.416H403.481V268.2C403.769 267.784 404.361 267.304 405.081 267.304C405.913 267.304 406.233 267.816 406.233 268.536V273.416H408.281ZM126.453 293.416L122.341 282.744H119.493L115.365 293.416H117.957L118.629 291.608H123.205L123.861 293.416H126.453ZM122.581 289.608H119.253L120.917 285.016L122.581 289.608ZM134.639 293.416V287.96C134.639 286.456 133.823 285.496 132.127 285.496C130.863 285.496 129.919 286.104 129.423 286.696V285.688H127.391V293.416H129.423V288.216C129.759 287.752 130.383 287.304 131.183 287.304C132.047 287.304 132.607 287.672 132.607 288.744V293.416H134.639ZM143.328 293.416V288.424C143.328 286.2 141.712 285.496 139.952 285.496C138.736 285.496 137.52 285.88 136.576 286.712L137.344 288.072C138 287.464 138.768 287.16 139.6 287.16C140.624 287.16 141.296 287.672 141.296 288.456V289.496C140.784 288.888 139.872 288.552 138.848 288.552C137.616 288.552 136.16 289.24 136.16 291.048C136.16 292.776 137.616 293.608 138.848 293.608C139.856 293.608 140.768 293.24 141.296 292.616V293.416H143.328ZM139.664 292.232C138.864 292.232 138.208 291.816 138.208 291.096C138.208 290.344 138.864 289.928 139.664 289.928C140.32 289.928 140.96 290.152 141.296 290.6V291.56C140.96 292.008 140.32 292.232 139.664 292.232ZM147.376 293.416V282.744H145.344V293.416H147.376ZM149.119 296.44C149.375 296.504 149.887 296.552 150.127 296.552C151.455 296.52 152.479 296.136 153.055 294.68L156.687 285.688H154.495L152.479 291.064L150.463 285.688H148.287L151.423 293.528L151.135 294.184C150.943 294.6 150.591 294.744 150.063 294.744C149.871 294.744 149.599 294.696 149.423 294.616L149.119 296.44ZM160.378 293.608C162.522 293.608 163.722 292.536 163.722 291.128C163.722 288.008 159.146 288.968 159.146 287.816C159.146 287.384 159.626 287.048 160.362 287.048C161.306 287.048 162.186 287.448 162.65 287.944L163.466 286.552C162.698 285.944 161.658 285.496 160.346 285.496C158.314 285.496 157.178 286.632 157.178 287.928C157.178 290.968 161.77 289.928 161.77 291.208C161.77 291.688 161.354 292.04 160.474 292.04C159.514 292.04 158.362 291.512 157.802 290.984L156.922 292.408C157.738 293.16 159.034 293.608 160.378 293.608ZM166.227 284.856C166.899 284.856 167.443 284.312 167.443 283.64C167.443 282.968 166.899 282.44 166.227 282.44C165.571 282.44 165.011 282.968 165.011 283.64C165.011 284.312 165.571 284.856 166.227 284.856ZM167.251 293.416V285.688H165.219V293.416H167.251ZM172.05 293.608C174.194 293.608 175.394 292.536 175.394 291.128C175.394 288.008 170.818 288.968 170.818 287.816C170.818 287.384 171.298 287.048 172.034 287.048C172.978 287.048 173.858 287.448 174.322 287.944L175.138 286.552C174.37 285.944 173.33 285.496 172.018 285.496C169.986 285.496 168.85 286.632 168.85 287.928C168.85 290.968 173.442 289.928 173.442 291.208C173.442 291.688 173.026 292.04 172.146 292.04C171.186 292.04 170.034 291.512 169.474 290.984L168.594 292.408C169.41 293.16 170.706 293.608 172.05 293.608ZM179.323 292.632C179.323 291.592 178.635 291 177.883 291C177.211 291 176.635 291.576 176.635 292.28C176.635 292.968 177.115 293.432 177.723 293.432C177.835 293.432 177.979 293.4 178.027 293.384C177.899 293.944 177.307 294.616 176.795 294.888L177.675 295.608C178.651 294.904 179.323 293.832 179.323 292.632ZM191.75 293.416V288.424C191.75 286.2 190.134 285.496 188.374 285.496C187.158 285.496 185.942 285.88 184.998 286.712L185.766 288.072C186.422 287.464 187.19 287.16 188.022 287.16C189.046 287.16 189.718 287.672 189.718 288.456V289.496C189.206 288.888 188.294 288.552 187.27 288.552C186.038 288.552 184.582 289.24 184.582 291.048C184.582 292.776 186.038 293.608 187.27 293.608C188.278 293.608 189.19 293.24 189.718 292.616V293.416H191.75ZM188.086 292.232C187.286 292.232 186.63 291.816 186.63 291.096C186.63 290.344 187.286 289.928 188.086 289.928C188.742 289.928 189.382 290.152 189.718 290.6V291.56C189.382 292.008 188.742 292.232 188.086 292.232ZM201.014 293.416V287.96C201.014 286.456 200.198 285.496 198.502 285.496C197.238 285.496 196.294 286.104 195.798 286.696V285.688H193.766V293.416H195.798V288.216C196.134 287.752 196.758 287.304 197.558 287.304C198.422 287.304 198.982 287.672 198.982 288.744V293.416H201.014ZM210.391 293.416V282.744H208.343V286.68C207.735 285.896 206.871 285.496 205.959 285.496C203.991 285.496 202.535 287.032 202.535 289.56C202.535 292.136 204.007 293.608 205.959 293.608C206.887 293.608 207.735 293.192 208.343 292.424V293.416H210.391ZM206.583 291.8C205.431 291.8 204.631 290.888 204.631 289.56C204.631 288.216 205.431 287.304 206.583 287.304C207.271 287.304 208.007 287.672 208.343 288.184V290.92C208.007 291.432 207.271 291.8 206.583 291.8ZM221.716 293.608C224.068 293.608 225.412 292.312 226.18 290.984L224.228 290.04C223.78 290.92 222.82 291.592 221.716 291.592C219.78 291.592 218.372 290.104 218.372 288.088C218.372 286.072 219.78 284.584 221.716 284.584C222.82 284.584 223.78 285.272 224.228 286.136L226.18 285.176C225.428 283.848 224.068 282.568 221.716 282.568C218.516 282.568 216.036 284.808 216.036 288.088C216.036 291.368 218.516 293.608 221.716 293.608ZM231.069 293.608C233.629 293.608 235.165 291.752 235.165 289.544C235.165 287.352 233.629 285.496 231.069 285.496C228.525 285.496 226.989 287.352 226.989 289.544C226.989 291.752 228.525 293.608 231.069 293.608ZM231.069 291.8C229.805 291.8 229.101 290.76 229.101 289.544C229.101 288.344 229.805 287.304 231.069 287.304C232.333 287.304 233.053 288.344 233.053 289.544C233.053 290.76 232.333 291.8 231.069 291.8ZM248.304 293.416V287.832C248.304 286.248 247.456 285.496 246.032 285.496C244.848 285.496 243.824 286.2 243.376 286.904C243.088 286.024 242.368 285.496 241.232 285.496C240.048 285.496 239.024 286.232 238.704 286.696V285.688H236.672V293.416H238.704V288.216C239.008 287.784 239.6 287.304 240.304 287.304C241.136 287.304 241.456 287.816 241.456 288.536V293.416H243.504V288.2C243.792 287.784 244.384 287.304 245.104 287.304C245.936 287.304 246.256 287.816 246.256 288.536V293.416H248.304ZM254.713 293.608C256.697 293.608 258.137 292.12 258.137 289.544C258.137 286.968 256.697 285.496 254.713 285.496C253.769 285.496 252.921 285.912 252.329 286.664V285.688H250.297V296.36H252.329V292.424C252.953 293.224 253.801 293.608 254.713 293.608ZM254.073 291.8C253.417 291.8 252.665 291.4 252.329 290.92V288.184C252.665 287.688 253.417 287.304 254.073 287.304C255.241 287.304 256.025 288.216 256.025 289.544C256.025 290.888 255.241 291.8 254.073 291.8ZM266.873 293.416V285.688H264.841V290.92C264.489 291.368 263.865 291.8 263.081 291.8C262.217 291.8 261.657 291.448 261.657 290.376V285.688H259.625V291.176C259.625 292.68 260.425 293.608 262.121 293.608C263.385 293.608 264.313 293.032 264.841 292.44V293.416H266.873ZM271.483 293.608C272.331 293.608 272.875 293.384 273.179 293.112L272.747 291.576C272.635 291.688 272.347 291.8 272.043 291.8C271.595 291.8 271.339 291.432 271.339 290.952V287.464H272.907V285.688H271.339V283.576H269.291V285.688H268.011V287.464H269.291V291.496C269.291 292.872 270.059 293.608 271.483 293.608ZM277.929 293.608C279.129 293.608 280.345 293.24 281.113 292.536L280.217 291.224C279.721 291.704 278.809 291.992 278.153 291.992C276.841 291.992 276.057 291.176 275.929 290.2H281.673V289.752C281.673 287.224 280.105 285.496 277.801 285.496C275.449 285.496 273.801 287.304 273.801 289.544C273.801 292.024 275.577 293.608 277.929 293.608ZM279.705 288.824H275.897C275.993 288.056 276.537 287.112 277.801 287.112C279.145 287.112 279.657 288.088 279.705 288.824ZM285.173 293.416V288.312C285.509 287.816 286.405 287.432 287.077 287.432C287.301 287.432 287.493 287.448 287.637 287.48V285.496C286.677 285.496 285.717 286.056 285.173 286.744V285.688H283.141V293.416H285.173ZM296.84 293.608C299.72 293.608 301.112 292.136 301.112 290.184C301.112 286.2 294.984 287.336 294.984 285.64C294.984 285 295.528 284.568 296.504 284.568C297.592 284.568 298.744 284.936 299.608 285.736L300.872 284.072C299.816 283.096 298.408 282.584 296.712 282.584C294.2 282.584 292.664 284.056 292.664 285.832C292.664 289.848 298.808 288.552 298.808 290.44C298.808 291.048 298.2 291.624 296.952 291.624C295.48 291.624 294.312 290.968 293.56 290.184L292.328 291.912C293.32 292.92 294.792 293.608 296.84 293.608ZM306.194 293.608C307.778 293.608 308.738 292.92 309.25 292.2L307.922 290.968C307.554 291.48 306.994 291.8 306.29 291.8C305.058 291.8 304.194 290.888 304.194 289.544C304.194 288.2 305.058 287.304 306.29 287.304C306.994 287.304 307.554 287.592 307.922 288.136L309.25 286.888C308.738 286.184 307.778 285.496 306.194 285.496C303.81 285.496 302.098 287.176 302.098 289.544C302.098 291.928 303.81 293.608 306.194 293.608ZM311.586 284.856C312.258 284.856 312.802 284.312 312.802 283.64C312.802 282.968 312.258 282.44 311.586 282.44C310.93 282.44 310.37 282.968 310.37 283.64C310.37 284.312 310.93 284.856 311.586 284.856ZM312.61 293.416V285.688H310.578V293.416H312.61ZM318.257 293.608C319.457 293.608 320.673 293.24 321.441 292.536L320.545 291.224C320.049 291.704 319.137 291.992 318.481 291.992C317.169 291.992 316.385 291.176 316.257 290.2H322.001V289.752C322.001 287.224 320.433 285.496 318.129 285.496C315.777 285.496 314.129 287.304 314.129 289.544C314.129 292.024 315.905 293.608 318.257 293.608ZM320.033 288.824H316.225C316.321 288.056 316.865 287.112 318.129 287.112C319.473 287.112 319.985 288.088 320.033 288.824ZM330.717 293.416V287.96C330.717 286.456 329.901 285.496 328.205 285.496C326.941 285.496 325.997 286.104 325.501 286.696V285.688H323.469V293.416H325.501V288.216C325.837 287.752 326.461 287.304 327.261 287.304C328.125 287.304 328.685 287.672 328.685 288.744V293.416H330.717ZM336.335 293.608C337.919 293.608 338.879 292.92 339.391 292.2L338.063 290.968C337.695 291.48 337.135 291.8 336.431 291.8C335.199 291.8 334.335 290.888 334.335 289.544C334.335 288.2 335.199 287.304 336.431 287.304C337.135 287.304 337.695 287.592 338.063 288.136L339.391 286.888C338.879 286.184 337.919 285.496 336.335 285.496C333.951 285.496 332.239 287.176 332.239 289.544C332.239 291.928 333.951 293.608 336.335 293.608ZM344.351 293.608C345.551 293.608 346.767 293.24 347.535 292.536L346.639 291.224C346.143 291.704 345.231 291.992 344.575 291.992C343.263 291.992 342.479 291.176 342.351 290.2H348.095V289.752C348.095 287.224 346.527 285.496 344.223 285.496C341.871 285.496 340.223 287.304 340.223 289.544C340.223 292.024 341.999 293.608 344.351 293.608ZM346.127 288.824H342.319C342.415 288.056 342.959 287.112 344.223 287.112C345.567 287.112 346.079 288.088 346.127 288.824Z" fill="#2F8ACE"/>
<path d="M481.918 273.416C483.95 273.416 485.022 272.136 485.022 270.536C485.022 269.192 484.11 268.088 482.974 267.912C483.982 267.704 484.814 266.808 484.814 265.464C484.814 264.04 483.774 262.744 481.742 262.744H476.126V273.416H481.918ZM481.246 267.016H478.398V264.696H481.246C482.014 264.696 482.494 265.192 482.494 265.864C482.494 266.536 482.014 267.016 481.246 267.016ZM481.326 271.448H478.398V268.968H481.326C482.222 268.968 482.702 269.544 482.702 270.216C482.702 270.984 482.19 271.448 481.326 271.448ZM493.36 273.416V268.424C493.36 266.2 491.744 265.496 489.984 265.496C488.768 265.496 487.552 265.88 486.608 266.712L487.376 268.072C488.032 267.464 488.8 267.16 489.632 267.16C490.656 267.16 491.328 267.672 491.328 268.456V269.496C490.816 268.888 489.904 268.552 488.88 268.552C487.648 268.552 486.192 269.24 486.192 271.048C486.192 272.776 487.648 273.608 488.88 273.608C489.888 273.608 490.8 273.24 491.328 272.616V273.416H493.36ZM489.696 272.232C488.896 272.232 488.24 271.816 488.24 271.096C488.24 270.344 488.896 269.928 489.696 269.928C490.352 269.928 490.992 270.152 491.328 270.6V271.56C490.992 272.008 490.352 272.232 489.696 272.232ZM498.975 273.608C500.559 273.608 501.519 272.92 502.031 272.2L500.703 270.968C500.335 271.48 499.775 271.8 499.071 271.8C497.839 271.8 496.975 270.888 496.975 269.544C496.975 268.2 497.839 267.304 499.071 267.304C499.775 267.304 500.335 267.592 500.703 268.136L502.031 266.888C501.519 266.184 500.559 265.496 498.975 265.496C496.591 265.496 494.879 267.176 494.879 269.544C494.879 271.928 496.591 273.608 498.975 273.608ZM510.624 273.416V267.928C510.624 266.424 509.808 265.496 508.112 265.496C506.848 265.496 505.888 266.104 505.392 266.696V262.744H503.36V273.416H505.392V268.216C505.744 267.752 506.368 267.304 507.152 267.304C508.032 267.304 508.592 267.64 508.592 268.712V273.416H510.624ZM516.273 273.608C517.473 273.608 518.689 273.24 519.457 272.536L518.561 271.224C518.065 271.704 517.153 271.992 516.497 271.992C515.185 271.992 514.401 271.176 514.273 270.2H520.017V269.752C520.017 267.224 518.449 265.496 516.145 265.496C513.793 265.496 512.145 267.304 512.145 269.544C512.145 272.024 513.921 273.608 516.273 273.608ZM518.049 268.824H514.241C514.337 268.056 514.881 267.112 516.145 267.112C517.489 267.112 518.001 268.088 518.049 268.824ZM523.517 273.416V262.744H521.485V273.416H523.517ZM529.115 273.608C531.675 273.608 533.211 271.752 533.211 269.544C533.211 267.352 531.675 265.496 529.115 265.496C526.571 265.496 525.035 267.352 525.035 269.544C525.035 271.752 526.571 273.608 529.115 273.608ZM529.115 271.8C527.851 271.8 527.147 270.76 527.147 269.544C527.147 268.344 527.851 267.304 529.115 267.304C530.379 267.304 531.099 268.344 531.099 269.544C531.099 270.76 530.379 271.8 529.115 271.8ZM536.751 273.416V268.312C537.087 267.816 537.983 267.432 538.655 267.432C538.879 267.432 539.071 267.448 539.215 267.48V265.496C538.255 265.496 537.295 266.056 536.751 266.744V265.688H534.719V273.416H536.751ZM542.917 264.216C542.917 263.176 542.229 262.584 541.477 262.584C540.805 262.584 540.229 263.16 540.229 263.864C540.229 264.536 540.709 265.016 541.317 265.016C541.429 265.016 541.573 264.984 541.621 264.952C541.493 265.528 540.901 266.2 540.389 266.472L541.269 267.192C542.245 266.488 542.917 265.416 542.917 264.216ZM546.862 273.608C549.006 273.608 550.206 272.536 550.206 271.128C550.206 268.008 545.63 268.968 545.63 267.816C545.63 267.384 546.11 267.048 546.846 267.048C547.79 267.048 548.67 267.448 549.134 267.944L549.95 266.552C549.182 265.944 548.142 265.496 546.83 265.496C544.798 265.496 543.662 266.632 543.662 267.928C543.662 270.968 548.254 269.928 548.254 271.208C548.254 271.688 547.838 272.04 546.958 272.04C545.998 272.04 544.846 271.512 544.286 270.984L543.406 272.408C544.222 273.16 545.518 273.608 546.862 273.608ZM560.053 273.416C563.397 273.416 565.717 271.304 565.717 268.088C565.717 264.872 563.397 262.744 560.053 262.744H555.845V273.416H560.053ZM560.053 271.416H558.117V264.744H560.053C562.245 264.744 563.397 266.2 563.397 268.088C563.397 269.896 562.165 271.416 560.053 271.416ZM570.913 273.608C572.113 273.608 573.329 273.24 574.097 272.536L573.201 271.224C572.705 271.704 571.793 271.992 571.137 271.992C569.825 271.992 569.041 271.176 568.913 270.2H574.657V269.752C574.657 267.224 573.089 265.496 570.785 265.496C568.433 265.496 566.785 267.304 566.785 269.544C566.785 272.024 568.561 273.608 570.913 273.608ZM572.689 268.824H568.881C568.977 268.056 569.521 267.112 570.785 267.112C572.129 267.112 572.641 268.088 572.689 268.824ZM579.293 276.552C581.197 276.552 583.469 275.832 583.469 272.888V265.688H581.421V266.68C580.797 265.896 579.965 265.496 579.037 265.496C577.085 265.496 575.629 266.904 575.629 269.432C575.629 272.008 577.101 273.368 579.037 273.368C579.981 273.368 580.813 272.92 581.421 272.152V272.936C581.421 274.456 580.269 274.888 579.293 274.888C578.317 274.888 577.501 274.616 576.877 273.928L575.965 275.4C576.941 276.248 577.965 276.552 579.293 276.552ZM579.677 271.56C578.525 271.56 577.725 270.76 577.725 269.432C577.725 268.104 578.525 267.304 579.677 267.304C580.349 267.304 581.085 267.672 581.421 268.184V270.68C581.085 271.176 580.349 271.56 579.677 271.56ZM587.517 273.416V268.312C587.853 267.816 588.749 267.432 589.421 267.432C589.645 267.432 589.837 267.448 589.981 267.48V265.496C589.021 265.496 588.061 266.056 587.517 266.744V265.688H585.485V273.416H587.517ZM594.882 273.608C596.082 273.608 597.298 273.24 598.066 272.536L597.17 271.224C596.674 271.704 595.762 271.992 595.106 271.992C593.794 271.992 593.01 271.176 592.882 270.2H598.626V269.752C598.626 267.224 597.058 265.496 594.754 265.496C592.402 265.496 590.754 267.304 590.754 269.544C590.754 272.024 592.53 273.608 594.882 273.608ZM596.658 268.824H592.85C592.946 268.056 593.49 267.112 594.754 267.112C596.098 267.112 596.61 268.088 596.658 268.824ZM603.726 273.608C604.926 273.608 606.142 273.24 606.91 272.536L606.014 271.224C605.518 271.704 604.606 271.992 603.95 271.992C602.638 271.992 601.854 271.176 601.726 270.2H607.47V269.752C607.47 267.224 605.902 265.496 603.598 265.496C601.246 265.496 599.598 267.304 599.598 269.544C599.598 272.024 601.374 273.608 603.726 273.608ZM605.502 268.824H601.694C601.79 268.056 602.334 267.112 603.598 267.112C604.942 267.112 605.454 268.088 605.502 268.824Z" fill="#2F8ACE"/>
<path d="M662.302 273.192C665.55 273.192 667.118 271.384 667.118 268.728V262.328H664.798V268.664C664.798 270.152 663.95 271.176 662.302 271.176C660.654 271.176 659.79 270.152 659.79 268.664V262.328H657.486V268.744C657.486 271.368 659.054 273.192 662.302 273.192ZM676.42 273V267.544C676.42 266.04 675.604 265.08 673.908 265.08C672.644 265.08 671.7 265.688 671.204 266.28V265.272H669.172V273H671.204V267.8C671.54 267.336 672.164 266.888 672.964 266.888C673.828 266.888 674.388 267.256 674.388 268.328V273H676.42ZM679.446 264.44C680.118 264.44 680.662 263.896 680.662 263.224C680.662 262.552 680.118 262.024 679.446 262.024C678.79 262.024 678.23 262.552 678.23 263.224C678.23 263.896 678.79 264.44 679.446 264.44ZM680.47 273V265.272H678.438V273H680.47ZM686.677 273L689.781 265.272H687.589L685.573 270.648L683.557 265.272H681.381L684.485 273H686.677ZM694.32 273.192C695.52 273.192 696.736 272.824 697.504 272.12L696.608 270.808C696.112 271.288 695.2 271.576 694.544 271.576C693.232 271.576 692.448 270.76 692.32 269.784H698.064V269.336C698.064 266.808 696.496 265.08 694.192 265.08C691.84 265.08 690.192 266.888 690.192 269.128C690.192 271.608 691.968 273.192 694.32 273.192ZM696.096 268.408H692.288C692.384 267.64 692.928 266.696 694.192 266.696C695.536 266.696 696.048 267.672 696.096 268.408ZM701.563 273V267.896C701.899 267.4 702.795 267.016 703.467 267.016C703.691 267.016 703.883 267.032 704.027 267.064V265.08C703.067 265.08 702.107 265.64 701.563 266.328V265.272H699.531V273H701.563ZM708.081 273.192C710.225 273.192 711.425 272.12 711.425 270.712C711.425 267.592 706.849 268.552 706.849 267.4C706.849 266.968 707.329 266.632 708.065 266.632C709.009 266.632 709.889 267.032 710.353 267.528L711.169 266.136C710.401 265.528 709.361 265.08 708.049 265.08C706.017 265.08 704.881 266.216 704.881 267.512C704.881 270.552 709.473 269.512 709.473 270.792C709.473 271.272 709.057 271.624 708.177 271.624C707.217 271.624 706.065 271.096 705.505 270.568L704.625 271.992C705.441 272.744 706.737 273.192 708.081 273.192ZM713.93 264.44C714.602 264.44 715.146 263.896 715.146 263.224C715.146 262.552 714.602 262.024 713.93 262.024C713.274 262.024 712.714 262.552 712.714 263.224C712.714 263.896 713.274 264.44 713.93 264.44ZM714.954 273V265.272H712.922V273H714.954ZM719.561 273.192C720.409 273.192 720.953 272.968 721.257 272.696L720.825 271.16C720.713 271.272 720.425 271.384 720.121 271.384C719.673 271.384 719.417 271.016 719.417 270.536V267.048H720.985V265.272H719.417V263.16H717.369V265.272H716.089V267.048H717.369V271.08C717.369 272.456 718.137 273.192 719.561 273.192ZM722.103 276.024C722.359 276.088 722.871 276.136 723.111 276.136C724.439 276.104 725.463 275.72 726.039 274.264L729.671 265.272H727.479L725.463 270.648L723.447 265.272H721.271L724.407 273.112L724.119 273.768C723.927 274.184 723.575 274.328 723.047 274.328C722.855 274.328 722.583 274.28 722.407 274.2L722.103 276.024ZM639.872 293.192C643.12 293.192 644.688 291.384 644.688 288.728V282.328H642.368V288.664C642.368 290.152 641.52 291.176 639.872 291.176C638.224 291.176 637.36 290.152 637.36 288.664V282.328H635.056V288.744C635.056 291.368 636.624 293.192 639.872 293.192ZM653.99 293V287.544C653.99 286.04 653.174 285.08 651.478 285.08C650.214 285.08 649.27 285.688 648.774 286.28V285.272H646.742V293H648.774V287.8C649.11 287.336 649.734 286.888 650.534 286.888C651.398 286.888 651.958 287.256 651.958 288.328V293H653.99ZM663.368 293V282.328H661.32V286.264C660.712 285.48 659.848 285.08 658.936 285.08C656.968 285.08 655.512 286.616 655.512 289.144C655.512 291.72 656.984 293.192 658.936 293.192C659.864 293.192 660.712 292.776 661.32 292.008V293H663.368ZM659.56 291.384C658.408 291.384 657.608 290.472 657.608 289.144C657.608 287.8 658.408 286.888 659.56 286.888C660.248 286.888 660.984 287.256 661.32 287.768V290.504C660.984 291.016 660.248 291.384 659.56 291.384ZM669.015 293.192C670.215 293.192 671.431 292.824 672.199 292.12L671.303 290.808C670.807 291.288 669.895 291.576 669.239 291.576C667.927 291.576 667.143 290.76 667.015 289.784H672.759V289.336C672.759 286.808 671.191 285.08 668.887 285.08C666.535 285.08 664.887 286.888 664.887 289.128C664.887 291.608 666.663 293.192 669.015 293.192ZM670.791 288.408H666.983C667.079 287.64 667.623 286.696 668.887 286.696C670.231 286.696 670.743 287.672 670.791 288.408ZM676.259 293V287.896C676.595 287.4 677.491 287.016 678.163 287.016C678.387 287.016 678.579 287.032 678.723 287.064V285.08C677.763 285.08 676.803 285.64 676.259 286.328V285.272H674.227V293H676.259ZM683.16 296.136C685.064 296.136 687.336 295.416 687.336 292.472V285.272H685.288V286.264C684.664 285.48 683.832 285.08 682.904 285.08C680.952 285.08 679.496 286.488 679.496 289.016C679.496 291.592 680.968 292.952 682.904 292.952C683.848 292.952 684.68 292.504 685.288 291.736V292.52C685.288 294.04 684.136 294.472 683.16 294.472C682.184 294.472 681.368 294.2 680.744 293.512L679.832 294.984C680.808 295.832 681.832 296.136 683.16 296.136ZM683.544 291.144C682.392 291.144 681.592 290.344 681.592 289.016C681.592 287.688 682.392 286.888 683.544 286.888C684.216 286.888 684.952 287.256 685.288 287.768V290.264C684.952 290.76 684.216 291.144 683.544 291.144ZM691.384 293V287.896C691.72 287.4 692.616 287.016 693.288 287.016C693.512 287.016 693.704 287.032 693.848 287.064V285.08C692.888 285.08 691.928 285.64 691.384 286.328V285.272H689.352V293H691.384ZM701.789 293V288.008C701.789 285.784 700.173 285.08 698.413 285.08C697.197 285.08 695.981 285.464 695.037 286.296L695.805 287.656C696.461 287.048 697.229 286.744 698.061 286.744C699.085 286.744 699.757 287.256 699.757 288.04V289.08C699.245 288.472 698.333 288.136 697.309 288.136C696.077 288.136 694.621 288.824 694.621 290.632C694.621 292.36 696.077 293.192 697.309 293.192C698.317 293.192 699.229 292.824 699.757 292.2V293H701.789ZM698.125 291.816C697.325 291.816 696.669 291.4 696.669 290.68C696.669 289.928 697.325 289.512 698.125 289.512C698.781 289.512 699.421 289.736 699.757 290.184V291.144C699.421 291.592 698.781 291.816 698.125 291.816ZM711.165 293V282.328H709.117V286.264C708.509 285.48 707.645 285.08 706.733 285.08C704.765 285.08 703.309 286.616 703.309 289.144C703.309 291.72 704.781 293.192 706.733 293.192C707.661 293.192 708.509 292.776 709.117 292.008V293H711.165ZM707.357 291.384C706.205 291.384 705.405 290.472 705.405 289.144C705.405 287.8 706.205 286.888 707.357 286.888C708.045 286.888 708.781 287.256 709.117 287.768V290.504C708.781 291.016 708.045 291.384 707.357 291.384ZM720.428 293V285.272H718.396V290.504C718.044 290.952 717.42 291.384 716.636 291.384C715.772 291.384 715.212 291.032 715.212 289.96V285.272H713.18V290.76C713.18 292.264 713.98 293.192 715.676 293.192C716.94 293.192 717.868 292.616 718.396 292.024V293H720.428ZM729.118 293V288.008C729.118 285.784 727.502 285.08 725.742 285.08C724.526 285.08 723.31 285.464 722.366 286.296L723.134 287.656C723.789 287.048 724.558 286.744 725.39 286.744C726.414 286.744 727.086 287.256 727.086 288.04V289.08C726.574 288.472 725.661 288.136 724.638 288.136C723.406 288.136 721.95 288.824 721.95 290.632C721.95 292.36 723.406 293.192 724.638 293.192C725.646 293.192 726.558 292.824 727.086 292.2V293H729.118ZM725.454 291.816C724.654 291.816 723.998 291.4 723.998 290.68C723.998 289.928 724.654 289.512 725.454 289.512C726.11 289.512 726.75 289.736 727.086 290.184V291.144C726.75 291.592 726.11 291.816 725.454 291.816ZM733.725 293.192C734.573 293.192 735.117 292.968 735.421 292.696L734.989 291.16C734.877 291.272 734.589 291.384 734.285 291.384C733.837 291.384 733.581 291.016 733.581 290.536V287.048H735.149V285.272H733.581V283.16H731.533V285.272H730.253V287.048H731.533V291.08C731.533 292.456 732.301 293.192 733.725 293.192ZM740.171 293.192C741.371 293.192 742.587 292.824 743.355 292.12L742.459 290.808C741.963 291.288 741.051 291.576 740.395 291.576C739.083 291.576 738.299 290.76 738.171 289.784H743.915V289.336C743.915 286.808 742.347 285.08 740.043 285.08C737.691 285.08 736.043 286.888 736.043 289.128C736.043 291.608 737.819 293.192 740.171 293.192ZM741.947 288.408H738.139C738.235 287.64 738.779 286.696 740.043 286.696C741.387 286.696 741.899 287.672 741.947 288.408ZM748.167 293.192C750.311 293.192 751.511 292.12 751.511 290.712C751.511 287.592 746.935 288.552 746.935 287.4C746.935 286.968 747.415 286.632 748.151 286.632C749.095 286.632 749.975 287.032 750.439 287.528L751.255 286.136C750.487 285.528 749.447 285.08 748.135 285.08C746.103 285.08 744.967 286.216 744.967 287.512C744.967 290.552 749.559 289.512 749.559 290.792C749.559 291.272 749.143 291.624 748.263 291.624C747.303 291.624 746.151 291.096 745.591 290.568L744.711 291.992C745.527 292.744 746.823 293.192 748.167 293.192Z" fill="#2F8ACE"/>
<path d="M627.5 106.704V112.518C627.5 116.936 623.918 120.518 619.5 120.518H248.68C244.111 120.518 240.407 124.183 240.407 128.704C240.407 124.183 237.737 120.518 233.168 120.518H9.29614C4.87786 120.518 1.29614 116.936 1.29614 112.518V106.704" stroke="url(#paint0_linear_124_691)"/>
<path d="M737.038 106.704V112.518C737.038 116.936 733.457 120.518 729.038 120.518H692C687.431 120.518 683.727 124.183 683.727 128.704C683.727 124.183 681.057 120.518 676.488 120.518H635C630.582 120.518 627 116.936 627 112.518V106.704" stroke="url(#paint1_linear_124_691)"/>
<mask id="mask0_124_691" style="mask-type:alpha" maskUnits="userSpaceOnUse" x="1" y="185" width="736" height="56">
<path d="M1 185H729C733.418 185 737 188.582 737 193V233C737 237.418 733.418 241 729 241H1V185Z" fill="#C4C4C4"/>
</mask>
<g mask="url(#mask0_124_691)">
<path fill-rule="evenodd" clip-rule="evenodd" d="M9 185C4.58172 185 1 188.582 1 193V233C1 237.418 4.58172 241 9 241H427.24C431.658 241 435.24 237.418 435.24 233V193C435.24 188.582 431.658 185 427.24 185H9ZM640 185C644.418 185 648 188.582 648 193V233C648 237.418 644.418 241 640 241H729C733.418 241 737 237.418 737 233V193C737 188.582 733.418 185 729 185H640Z" fill="url(#paint2_linear_124_691)"/>
<g filter="url(#filter0_dd_124_691)">
<path fill-rule="evenodd" clip-rule="evenodd" d="M427.24 241H640C644.418 241 648 237.418 648 233V193C648 188.582 644.418 185 640 185H427.24C431.658 185 435.24 188.582 435.24 193V233C435.24 237.418 431.658 241 427.24 241Z" fill="url(#paint3_linear_124_691)"/>
</g>
<path d="M1 185H427.24C431.658 185 435.24 188.582 435.24 193V233C435.24 237.418 431.658 241 427.24 241H1V185Z" fill="url(#paint4_linear_124_691)"/>
</g>
<path d="M194.644 225.412C200.167 225.412 203.804 222.358 203.804 217.487C203.804 212.856 200.339 210.077 196.462 210.077C194.37 210.077 192.517 210.9 191.419 211.998V206.406H202.26V202.118H186.548V215.257L189.944 216.149C191.316 214.846 192.86 214.297 194.747 214.297C197.354 214.297 198.864 215.669 198.864 217.693C198.864 219.545 197.32 221.089 194.61 221.089C192.208 221.089 190.081 220.197 188.538 218.585L185.828 221.981C187.783 224.108 190.665 225.412 194.644 225.412ZM214.041 225.377C220.799 225.377 224.675 220.472 224.675 213.576C224.675 207.092 221.759 201.741 214.83 201.741C209.615 201.741 206.047 205.137 206.047 209.597C206.047 214.468 209.752 217.041 213.869 217.041C216.373 217.041 218.672 215.635 219.77 214.091C219.77 214.262 219.77 214.434 219.77 214.605C219.77 217.899 217.814 221.055 214.041 221.055C212.016 221.055 210.713 220.437 209.478 219.271L207.317 223.01C208.929 224.451 211.262 225.377 214.041 225.377ZM215.241 212.856C213.114 212.856 211.022 211.827 211.022 209.425C211.022 207.847 212.462 206.063 215.07 206.063C218.294 206.063 219.529 208.533 219.735 210.729C218.637 212.067 216.956 212.856 215.241 212.856ZM232.579 213.165C236.113 213.165 238.411 210.729 238.411 207.538C238.411 204.314 236.113 201.775 232.579 201.775C229.08 201.775 226.782 204.314 226.782 207.538C226.782 210.729 229.08 213.165 232.579 213.165ZM232.922 225L247.571 202.118H244.964L230.349 225H232.922ZM245.169 225.412C248.669 225.412 251.001 222.942 251.001 219.751C251.001 216.526 248.669 213.988 245.169 213.988C241.67 213.988 239.372 216.526 239.372 219.751C239.372 222.942 241.67 225.412 245.169 225.412ZM232.579 210.489C231.036 210.489 229.869 209.322 229.869 207.538C229.869 205.617 231.036 204.485 232.579 204.485C234.157 204.485 235.289 205.617 235.289 207.538C235.289 209.322 234.157 210.489 232.579 210.489ZM245.169 222.736C243.591 222.736 242.459 221.604 242.459 219.751C242.459 217.864 243.591 216.698 245.169 216.698C246.748 216.698 247.914 217.864 247.914 219.751C247.914 221.604 246.748 222.736 245.169 222.736Z" fill="#D3EEFF"/>
<path d="M526.131 225V220.712H516.8C522.735 216.389 525.96 212.993 525.96 209.082C525.96 204.519 522.083 201.775 517.212 201.775C514.021 201.775 510.625 202.941 508.395 205.514L511.174 208.739C512.718 207.127 514.707 206.098 517.315 206.098C519.201 206.098 521.02 207.092 521.02 209.082C521.02 211.895 518.275 214.262 508.91 221.192V225H526.131ZM536.89 225.377C543.648 225.377 547.525 220.472 547.525 213.576C547.525 207.092 544.609 201.741 537.679 201.741C532.464 201.741 528.897 205.137 528.897 209.597C528.897 214.468 532.602 217.041 536.718 217.041C539.223 217.041 541.521 215.635 542.619 214.091C542.619 214.262 542.619 214.434 542.619 214.605C542.619 217.899 540.663 221.055 536.89 221.055C534.866 221.055 533.562 220.437 532.327 219.271L530.166 223.01C531.778 224.451 534.111 225.377 536.89 225.377ZM538.09 212.856C535.963 212.856 533.871 211.827 533.871 209.425C533.871 207.847 535.312 206.063 537.919 206.063C541.144 206.063 542.379 208.533 542.584 210.729C541.487 212.067 539.806 212.856 538.09 212.856ZM555.429 213.165C558.962 213.165 561.26 210.729 561.26 207.538C561.26 204.314 558.962 201.775 555.429 201.775C551.929 201.775 549.631 204.314 549.631 207.538C549.631 210.729 551.929 213.165 555.429 213.165ZM555.772 225L570.42 202.118H567.813L553.199 225H555.772ZM568.019 225.412C571.518 225.412 573.851 222.942 573.851 219.751C573.851 216.526 571.518 213.988 568.019 213.988C564.52 213.988 562.221 216.526 562.221 219.751C562.221 222.942 564.52 225.412 568.019 225.412ZM555.429 210.489C553.885 210.489 552.718 209.322 552.718 207.538C552.718 205.617 553.885 204.485 555.429 204.485C557.007 204.485 558.139 205.617 558.139 207.538C558.139 209.322 557.007 210.489 555.429 210.489ZM568.019 222.736C566.441 222.736 565.309 221.604 565.309 219.751C565.309 217.864 566.441 216.698 568.019 216.698C569.597 216.698 570.763 217.864 570.763 219.751C570.763 221.604 569.597 222.736 568.019 222.736Z" fill="#D3EEFF"/>
<path d="M673.516 225V202.118H669.263L662.058 209.357L664.837 212.273L668.645 208.396V225H673.516ZM694.619 225V220.712H685.288C691.223 216.389 694.448 212.993 694.448 209.082C694.448 204.519 690.571 201.775 685.7 201.775C682.509 201.775 679.113 202.941 676.883 205.514L679.662 208.739C681.205 207.127 683.195 206.098 685.802 206.098C687.689 206.098 689.507 207.092 689.507 209.082C689.507 211.895 686.763 214.262 677.398 221.192V225H694.619ZM703.045 213.165C706.578 213.165 708.877 210.729 708.877 207.538C708.877 204.314 706.578 201.775 703.045 201.775C699.546 201.775 697.247 204.314 697.247 207.538C697.247 210.729 699.546 213.165 703.045 213.165ZM703.388 225L718.036 202.118H715.429L700.815 225H703.388ZM715.635 225.412C719.134 225.412 721.467 222.942 721.467 219.751C721.467 216.526 719.134 213.988 715.635 213.988C712.136 213.988 709.837 216.526 709.837 219.751C709.837 222.942 712.136 225.412 715.635 225.412ZM703.045 210.489C701.501 210.489 700.335 209.322 700.335 207.538C700.335 205.617 701.501 204.485 703.045 204.485C704.623 204.485 705.755 205.617 705.755 207.538C705.755 209.322 704.623 210.489 703.045 210.489ZM715.635 222.736C714.057 222.736 712.925 221.604 712.925 219.751C712.925 217.864 714.057 216.698 715.635 216.698C717.213 216.698 718.38 217.864 718.38 219.751C718.38 221.604 717.213 222.736 715.635 222.736Z" fill="#ECF8FF"/>
<mask id="mask1_124_691" style="mask-type:alpha" maskUnits="userSpaceOnUse" x="1" y="48" width="736" height="56">
<path d="M1 48H729C733.418 48 737 51.5817 737 56V96C737 100.418 733.418 104 729 104H1V48Z" fill="#C4C4C4"/>
</mask>
<g mask="url(#mask1_124_691)">
<g filter="url(#filter1_dd_124_691)">
<path fill-rule="evenodd" clip-rule="evenodd" d="M361 104H508C512.418 104 516 100.418 516 96V56C516 51.5817 512.418 48 508 48H361C365.418 48 369 51.5817 369 56V96C369 100.418 365.418 104 361 104Z" fill="url(#paint5_linear_124_691)"/>
</g>
<path fill-rule="evenodd" clip-rule="evenodd" d="M627 96C627 100.418 623.418 104 619 104H729C733.418 104 737 100.418 737 96V56C737 51.5817 733.418 48 729 48H619C623.418 48 627 51.5817 627 56V96Z" fill="url(#paint6_linear_124_691)"/>
<g filter="url(#filter2_dd_124_691)">
<path fill-rule="evenodd" clip-rule="evenodd" d="M516 96C516 100.418 512.418 104 508 104H619C623.418 104 627 100.418 627 96V56C627 51.5817 623.418 48 619 48H508C512.418 48 516 51.5817 516 56V96Z" fill="url(#paint7_linear_124_691)"/>
</g>
<path d="M1 48H361C365.418 48 369 51.5817 369 56V96C369 100.418 365.418 104 361 104H1V48Z" fill="url(#paint8_linear_124_691)"/>
<path d="M555.366 88.5V65.6181H551.112L543.908 72.8566L546.686 75.7726L550.494 71.896V88.5H555.366ZM568.132 88.9117C573.655 88.9117 577.292 85.8585 577.292 80.987C577.292 76.3558 573.827 73.577 569.95 73.577C567.858 73.577 566.005 74.4003 564.907 75.4981V69.9063H575.748V65.6181H560.036V78.7572L563.432 79.6491C564.804 78.3455 566.348 77.7966 568.235 77.7966C570.842 77.7966 572.352 79.1688 572.352 81.1929C572.352 83.0454 570.808 84.5891 568.098 84.5891C565.696 84.5891 563.569 83.6972 562.026 82.0848L559.315 85.4811C561.271 87.6081 564.153 88.9117 568.132 88.9117ZM585.196 76.6645C588.729 76.6645 591.028 74.2288 591.028 71.0384C591.028 67.8136 588.729 65.275 585.196 65.275C581.696 65.275 579.398 67.8136 579.398 71.0384C579.398 74.2288 581.696 76.6645 585.196 76.6645ZM585.539 88.5L600.187 65.6181H597.58L582.966 88.5H585.539ZM597.786 88.9117C601.285 88.9117 603.618 86.4417 603.618 83.2512C603.618 80.0265 601.285 77.4879 597.786 77.4879C594.287 77.4879 591.988 80.0265 591.988 83.2512C591.988 86.4417 594.287 88.9117 597.786 88.9117ZM585.196 73.9887C583.652 73.9887 582.485 72.8223 582.485 71.0384C582.485 69.1173 583.652 67.9852 585.196 67.9852C586.774 67.9852 587.906 69.1173 587.906 71.0384C587.906 72.8223 586.774 73.9887 585.196 73.9887ZM597.786 86.2358C596.208 86.2358 595.076 85.1037 595.076 83.2512C595.076 81.3644 596.208 80.198 597.786 80.198C599.364 80.198 600.53 81.3644 600.53 83.2512C600.53 85.1037 599.364 86.2358 597.786 86.2358Z" fill="#D3EEFF"/>
<path d="M160.943 88.4117C166.466 88.4117 170.103 85.3585 170.103 80.487C170.103 75.8558 166.638 73.077 162.761 73.077C160.669 73.077 158.816 73.9003 157.718 74.9981V69.4063H168.559V65.1181H152.847V78.2572L156.243 79.1491C157.615 77.8455 159.159 77.2966 161.046 77.2966C163.653 77.2966 165.163 78.6688 165.163 80.6929C165.163 82.5454 163.619 84.0891 160.909 84.0891C158.507 84.0891 156.38 83.1972 154.837 81.5848L152.127 84.9811C154.082 87.1081 156.964 88.4117 160.943 88.4117ZM181.952 88.4117C188.47 88.4117 191.42 82.4768 191.42 76.5762C191.42 70.6756 188.47 64.775 181.952 64.775C175.399 64.775 172.483 70.6756 172.483 76.5762C172.483 82.4768 175.399 88.4117 181.952 88.4117ZM181.952 84.0891C178.659 84.0891 177.424 80.7958 177.424 76.5762C177.424 72.3566 178.659 69.0975 181.952 69.0975C185.211 69.0975 186.446 72.3566 186.446 76.5762C186.446 80.7958 185.211 84.0891 181.952 84.0891ZM199.28 76.1645C202.814 76.1645 205.112 73.7288 205.112 70.5384C205.112 67.3136 202.814 64.775 199.28 64.775C195.781 64.775 193.483 67.3136 193.483 70.5384C193.483 73.7288 195.781 76.1645 199.28 76.1645ZM199.623 88L214.272 65.1181H211.665L197.05 88H199.623ZM211.87 88.4117C215.37 88.4117 217.702 85.9417 217.702 82.7512C217.702 79.5265 215.37 76.9879 211.87 76.9879C208.371 76.9879 206.073 79.5265 206.073 82.7512C206.073 85.9417 208.371 88.4117 211.87 88.4117ZM199.28 73.4887C197.737 73.4887 196.57 72.3223 196.57 70.5384C196.57 68.6173 197.737 67.4852 199.28 67.4852C200.858 67.4852 201.99 68.6173 201.99 70.5384C201.99 72.3223 200.858 73.4887 199.28 73.4887ZM211.87 85.7358C210.292 85.7358 209.16 84.6037 209.16 82.7512C209.16 80.8644 210.292 79.698 211.87 79.698C213.449 79.698 214.615 80.8644 214.615 82.7512C214.615 84.6037 213.449 85.7358 211.87 85.7358Z" fill="#D3EEFF"/>
<path d="M665.366 88.5V65.6181H661.112L653.908 72.8566L656.686 75.7726L660.494 71.896V88.5H665.366ZM678.132 88.9117C683.655 88.9117 687.292 85.8585 687.292 80.987C687.292 76.3558 683.827 73.577 679.95 73.577C677.858 73.577 676.005 74.4003 674.907 75.4981V69.9063H685.748V65.6181H670.036V78.7572L673.432 79.6491C674.804 78.3455 676.348 77.7966 678.235 77.7966C680.842 77.7966 682.352 79.1688 682.352 81.1929C682.352 83.0454 680.808 84.5891 678.098 84.5891C675.696 84.5891 673.569 83.6972 672.026 82.0848L669.315 85.4811C671.271 87.6081 674.153 88.9117 678.132 88.9117ZM695.196 76.6645C698.729 76.6645 701.028 74.2288 701.028 71.0384C701.028 67.8136 698.729 65.275 695.196 65.275C691.696 65.275 689.398 67.8136 689.398 71.0384C689.398 74.2288 691.696 76.6645 695.196 76.6645ZM695.539 88.5L710.187 65.6181H707.58L692.966 88.5H695.539ZM707.786 88.9117C711.285 88.9117 713.618 86.4417 713.618 83.2512C713.618 80.0265 711.285 77.4879 707.786 77.4879C704.287 77.4879 701.988 80.0265 701.988 83.2512C701.988 86.4417 704.287 88.9117 707.786 88.9117ZM695.196 73.9887C693.652 73.9887 692.485 72.8223 692.485 71.0384C692.485 69.1173 693.652 67.9852 695.196 67.9852C696.774 67.9852 697.906 69.1173 697.906 71.0384C697.906 72.8223 696.774 73.9887 695.196 73.9887ZM707.786 86.2358C706.208 86.2358 705.076 85.1037 705.076 83.2512C705.076 81.3644 706.208 80.198 707.786 80.198C709.364 80.198 710.53 81.3644 710.53 83.2512C710.53 85.1037 709.364 86.2358 707.786 86.2358Z" fill="#ECF8FF"/>
<path d="M439.93 88.5V84.2118H430.599C436.534 79.8893 439.759 76.493 439.759 72.5821C439.759 68.0195 435.882 65.275 431.011 65.275C427.82 65.275 424.424 66.4414 422.194 69.0143L424.973 72.2391C426.517 70.6267 428.506 69.5975 431.114 69.5975C433 69.5975 434.819 70.5924 434.819 72.5821C434.819 75.3952 432.074 77.7623 422.709 84.6921V88.5H439.93ZM452.301 88.9117C458.819 88.9117 461.769 82.9768 461.769 77.0762C461.769 71.1756 458.819 65.275 452.301 65.275C445.749 65.275 442.833 71.1756 442.833 77.0762C442.833 82.9768 445.749 88.9117 452.301 88.9117ZM452.301 84.5891C449.008 84.5891 447.773 81.2958 447.773 77.0762C447.773 72.8566 449.008 69.5975 452.301 69.5975C455.56 69.5975 456.795 72.8566 456.795 77.0762C456.795 81.2958 455.56 84.5891 452.301 84.5891ZM469.63 76.6645C473.163 76.6645 475.461 74.2288 475.461 71.0384C475.461 67.8136 473.163 65.275 469.63 65.275C466.13 65.275 463.832 67.8136 463.832 71.0384C463.832 74.2288 466.13 76.6645 469.63 76.6645ZM469.973 88.5L484.621 65.6181H482.014L467.4 88.5H469.973ZM482.22 88.9117C485.719 88.9117 488.052 86.4417 488.052 83.2512C488.052 80.0265 485.719 77.4879 482.22 77.4879C478.721 77.4879 476.422 80.0265 476.422 83.2512C476.422 86.4417 478.721 88.9117 482.22 88.9117ZM469.63 73.9887C468.086 73.9887 466.919 72.8223 466.919 71.0384C466.919 69.1173 468.086 67.9852 469.63 67.9852C471.208 67.9852 472.34 69.1173 472.34 71.0384C472.34 72.8223 471.208 73.9887 469.63 73.9887ZM482.22 86.2358C480.642 86.2358 479.51 85.1037 479.51 83.2512C479.51 81.3644 480.642 80.198 482.22 80.198C483.798 80.198 484.964 81.3644 484.964 83.2512C484.964 85.1037 483.798 86.2358 482.22 86.2358Z" fill="#D3EEFF"/>
</g>
<path d="M1 8V292" stroke="url(#paint9_linear_124_691)"/>
<defs>
<filter id="filter0_dd_124_691" x="418.24" y="175" width="240.76" height="76" filterUnits="userSpaceOnUse" color-interpolation-filters="sRGB">
<feFlood flood-opacity="0" result="BackgroundImageFix"/>
<feColorMatrix in="SourceAlpha" type="matrix" values="0 0 0 0 0 0 0 0 0 0 0 0 0 0 0 0 0 0 127 0" result="hardAlpha"/>
<feOffset dx="1"/>
<feGaussianBlur stdDeviation="5"/>
<feColorMatrix type="matrix" values="0 0 0 0 0.238281 0 0 0 0 0.574188 0 0 0 0 0.7625 0 0 0 0.56 0"/>
<feBlend mode="normal" in2="BackgroundImageFix" result="effect1_dropShadow_124_691"/>
<feColorMatrix in="SourceAlpha" type="matrix" values="0 0 0 0 0 0 0 0 0 0 0 0 0 0 0 0 0 0 127 0" result="hardAlpha"/>
<feOffset dx="1"/>
<feGaussianBlur stdDeviation="0.5"/>
<feColorMatrix type="matrix" values="0 0 0 0 0.239216 0 0 0 0 0.572549 0 0 0 0 0.760784 0 0 0 0.1 0"/>
<feBlend mode="normal" in2="effect1_dropShadow_124_691" result="effect2_dropShadow_124_691"/>
<feBlend mode="normal" in="SourceGraphic" in2="effect2_dropShadow_124_691" result="shape"/>
</filter>
<filter id="filter1_dd_124_691" x="352" y="38" width="175" height="76" filterUnits="userSpaceOnUse" color-interpolation-filters="sRGB">
<feFlood flood-opacity="0" result="BackgroundImageFix"/>
<feColorMatrix in="SourceAlpha" type="matrix" values="0 0 0 0 0 0 0 0 0 0 0 0 0 0 0 0 0 0 127 0" result="hardAlpha"/>
<feOffset dx="1"/>
<feGaussianBlur stdDeviation="5"/>
<feColorMatrix type="matrix" values="0 0 0 0 0.238281 0 0 0 0 0.574188 0 0 0 0 0.7625 0 0 0 0.56 0"/>
<feBlend mode="normal" in2="BackgroundImageFix" result="effect1_dropShadow_124_691"/>
<feColorMatrix in="SourceAlpha" type="matrix" values="0 0 0 0 0 0 0 0 0 0 0 0 0 0 0 0 0 0 127 0" result="hardAlpha"/>
<feOffset dx="1"/>
<feGaussianBlur stdDeviation="0.5"/>
<feColorMatrix type="matrix" values="0 0 0 0 0.239216 0 0 0 0 0.572549 0 0 0 0 0.760784 0 0 0 0.1 0"/>
<feBlend mode="normal" in2="effect1_dropShadow_124_691" result="effect2_dropShadow_124_691"/>
<feBlend mode="normal" in="SourceGraphic" in2="effect2_dropShadow_124_691" result="shape"/>
</filter>
<filter id="filter2_dd_124_691" x="499" y="38" width="139" height="76" filterUnits="userSpaceOnUse" color-interpolation-filters="sRGB">
<feFlood flood-opacity="0" result="BackgroundImageFix"/>
<feColorMatrix in="SourceAlpha" type="matrix" values="0 0 0 0 0 0 0 0 0 0 0 0 0 0 0 0 0 0 127 0" result="hardAlpha"/>
<feOffset dx="1"/>
<feGaussianBlur stdDeviation="5"/>
<feColorMatrix type="matrix" values="0 0 0 0 0.238281 0 0 0 0 0.574188 0 0 0 0 0.7625 0 0 0 0.56 0"/>
<feBlend mode="normal" in2="BackgroundImageFix" result="effect1_dropShadow_124_691"/>
<feColorMatrix in="SourceAlpha" type="matrix" values="0 0 0 0 0 0 0 0 0 0 0 0 0 0 0 0 0 0 127 0" result="hardAlpha"/>
<feOffset dx="1"/>
<feGaussianBlur stdDeviation="0.5"/>
<feColorMatrix type="matrix" values="0 0 0 0 0.239216 0 0 0 0 0.572549 0 0 0 0 0.760784 0 0 0 0.1 0"/>
<feBlend mode="normal" in2="effect1_dropShadow_124_691" result="effect2_dropShadow_124_691"/>
<feBlend mode="normal" in="SourceGraphic" in2="effect2_dropShadow_124_691" result="shape"/>
</filter>
<linearGradient id="paint0_linear_124_691" x1="258.5" y1="107" x2="258.5" y2="129" gradientUnits="userSpaceOnUse">
<stop offset="0.333333" stop-color="#74BAE2" stop-opacity="0"/>
<stop offset="1" stop-color="#2796D7"/>
</linearGradient>
<linearGradient id="paint1_linear_124_691" x1="736.634" y1="107" x2="736.634" y2="129" gradientUnits="userSpaceOnUse">
<stop offset="0.333333" stop-color="#74BAE2" stop-opacity="0"/>
<stop offset="1" stop-color="#2796D7"/>
</linearGradient>
<linearGradient id="paint2_linear_124_691" x1="734.5" y1="215.5" x2="647.5" y2="213" gradientUnits="userSpaceOnUse">
<stop stop-color="#A1DDFF"/>
<stop offset="1" stop-color="#6FC6F7"/>
</linearGradient>
<linearGradient id="paint3_linear_124_691" x1="648" y1="213" x2="434.5" y2="213" gradientUnits="userSpaceOnUse">
<stop stop-color="#54C2FF"/>
<stop offset="1" stop-color="#178ED3"/>
</linearGradient>
<linearGradient id="paint4_linear_124_691" x1="435" y1="212.518" x2="1" y2="212.518" gradientUnits="userSpaceOnUse">
<stop offset="0.00515349" stop-color="#4CACF4"/>
<stop offset="0.87314" stop-color="#1F7BC1"/>
</linearGradient>
<linearGradient id="paint5_linear_124_691" x1="515.789" y1="72.5" x2="361" y2="72.5" gradientUnits="userSpaceOnUse">
<stop stop-color="#54C2FF"/>
<stop offset="0.691269" stop-color="#178ED3"/>
</linearGradient>
<linearGradient id="paint6_linear_124_691" x1="737" y1="76.0002" x2="632.385" y2="76.0002" gradientUnits="userSpaceOnUse">
<stop stop-color="#A3DEFF"/>
<stop offset="1" stop-color="#45B7F5"/>
</linearGradient>
<linearGradient id="paint7_linear_124_691" x1="626.838" y1="72.5" x2="508" y2="72.5" gradientUnits="userSpaceOnUse">
<stop stop-color="#6CCBFF"/>
<stop offset="1" stop-color="#38A6E6"/>
</linearGradient>
<linearGradient id="paint8_linear_124_691" x1="369" y1="76" x2="1.00001" y2="76.0001" gradientUnits="userSpaceOnUse">
<stop offset="0.0498449" stop-color="#67BDFC"/>
<stop offset="0.833632" stop-color="#1F7BC1"/>
</linearGradient>
<linearGradient id="paint9_linear_124_691" x1="1.5" y1="8" x2="1.5" y2="292" gradientUnits="userSpaceOnUse">
<stop stop-color="#77BCE8" stop-opacity="0"/>
<stop offset="0.129009" stop-color="#77BCE8"/>
<stop offset="0.494792" stop-color="#77BCE8"/>
<stop offset="0.849563" stop-color="#77BCE8"/>
<stop offset="1" stop-color="#77BCE8" stop-opacity="0"/>
</linearGradient>
</defs>
</svg>
