<svg width="972" height="516" viewBox="0 0 972 516" fill="none" xmlns="http://www.w3.org/2000/svg">
<path d="M10.999 0V516" stroke="#0F4465" stroke-miterlimit="10"/>
<path d="M48.999 0V516" stroke="#0F4465" stroke-miterlimit="10"/>
<path d="M86.999 0V516" stroke="#0F4465" stroke-miterlimit="10"/>
<path d="M124.999 0V516" stroke="#0F4465" stroke-miterlimit="10"/>
<path d="M162.999 0V516" stroke="#0F4465" stroke-miterlimit="10"/>
<path d="M200.999 0V516" stroke="#0F4465" stroke-miterlimit="10"/>
<path d="M238.999 0V516" stroke="#0F4465" stroke-miterlimit="10"/>
<path d="M276.999 0V516" stroke="#0F4465" stroke-miterlimit="10"/>
<path d="M314.999 0V516" stroke="#0F4465" stroke-miterlimit="10"/>
<path d="M352.999 0V516" stroke="#0F4465" stroke-miterlimit="10"/>
<path d="M390.999 0V516" stroke="#0F4465" stroke-miterlimit="10"/>
<path d="M428.999 0V516" stroke="#0F4465" stroke-miterlimit="10"/>
<path d="M466.999 0V516" stroke="#0F4465" stroke-miterlimit="10"/>
<path d="M504.999 0V516" stroke="#0F4465" stroke-miterlimit="10"/>
<path d="M542.999 0V516" stroke="#0F4465" stroke-miterlimit="10"/>
<path d="M580.999 0V516" stroke="#0F4465" stroke-miterlimit="10"/>
<path d="M618.999 0V516" stroke="#0F4465" stroke-miterlimit="10"/>
<path d="M656.999 0V516" stroke="#0F4465" stroke-miterlimit="10"/>
<path d="M694.999 0V516" stroke="#0F4465" stroke-miterlimit="10"/>
<path d="M732.999 0V516" stroke="#0F4465" stroke-miterlimit="10"/>
<path d="M770.999 0V516" stroke="#0F4465" stroke-miterlimit="10"/>
<path d="M808.999 0V516" stroke="#0F4465" stroke-miterlimit="10"/>
<path d="M846.999 0V516" stroke="#0F4465" stroke-miterlimit="10"/>
<path d="M884.999 0V516" stroke="#0F4465" stroke-miterlimit="10"/>
<path d="M922.999 0V516" stroke="#0F4465" stroke-miterlimit="10"/>
<path d="M960.999 0V516" stroke="#0F4465" stroke-miterlimit="10"/>
<path d="M0 505L972 505" stroke="#0F4465" stroke-miterlimit="10"/>
<path d="M0 467L972 467" stroke="#0F4465" stroke-miterlimit="10"/>
<path d="M0 429L972 429" stroke="#0F4465" stroke-miterlimit="10"/>
<path d="M0 391L972 391" stroke="#0F4465" stroke-miterlimit="10"/>
<path d="M0 353L972 353" stroke="#0F4465" stroke-miterlimit="10"/>
<path d="M0 315L972 315" stroke="#0F4465" stroke-miterlimit="10"/>
<path d="M0 277L972 277" stroke="#0F4465" stroke-miterlimit="10"/>
<path d="M0 239L972 239" stroke="#0F4465" stroke-miterlimit="10"/>
<path d="M0 201L972 201" stroke="#0F4465" stroke-miterlimit="10"/>
<path d="M0 163L972 163" stroke="#0F4465" stroke-miterlimit="10"/>
<path d="M0 125L972 125" stroke="#0F4465" stroke-miterlimit="10"/>
<path d="M0 87L972 87" stroke="#0F4465" stroke-miterlimit="10"/>
<path d="M0 49L972 49" stroke="#0F4465" stroke-miterlimit="10"/>
<path d="M0 11L972 11" stroke="#0F4465" stroke-miterlimit="10"/>
<path d="M670 408.158H302V489.25H670V408.158Z" fill="#154D72"/>
<path d="M465.044 421.335H320.665V446.544H465.044V421.335Z" fill="#103654"/>
<path d="M411.871 426.117H374.807V429.599H411.871V426.117Z" fill="#154D72"/>
<path d="M465.044 455.271H320.665V480.48H465.044V455.271Z" fill="#103654"/>
<path d="M485.801 408.158H484.964V489.25H485.801V408.158Z" fill="#103654"/>
<path d="M576.655 408.158H575.818V489.25H576.655V408.158Z" fill="#103654"/>
<path d="M411.871 460.052H374.807V463.534H411.871V460.052Z" fill="#154D72"/>
<path d="M566.322 436.32V463.534H569.715V436.32H566.322Z" fill="#103654"/>
<path d="M583.355 436.32V463.534H586.749V436.32H583.355Z" fill="#103654"/>
<path d="M320.599 516H332.528L355.141 488.101H332.528L320.599 516Z" fill="#154D72"/>
<path d="M651.401 516H639.021L615.531 488.101H639.021L651.401 516Z" fill="#154D72"/>
<g clip-path="url(#clip0)">
<path d="M634.827 222H336.594V389.127H634.827V222Z" fill="#154D72"/>
<path d="M628.869 382.604H342.549V228.545H628.869V382.604Z" fill="#103654"/>
<mask id="mask0" mask-type="alpha" maskUnits="userSpaceOnUse" x="342" y="228" width="287" height="155">
<path d="M628.869 382.604H342.549V228.545H628.869V382.604Z" fill="#103654"/>
</mask>
<g mask="url(#mask0)">
<path d="M421.15 371.023H433.787C443.07 371.023 451.089 363.976 454.88 353.746H499.059C502.874 363.976 510.893 371.023 520.152 371.023H532.716C542.047 371.023 550.164 363.733 553.954 353.405C554.443 353.157 554.863 352.792 555.177 352.343C555.49 351.894 555.688 351.374 555.753 350.829C556.545 343.427 558.175 336.139 560.613 329.105C559.654 332.77 559.164 336.543 559.155 340.332C559.155 357.342 569.58 371.023 582.532 371.023H595.169C603.796 371.023 611.426 364.705 615.484 355.641H668.363C672.421 364.802 679.906 370.975 688.581 370.975H701.218C709.917 370.975 717.523 364.778 721.557 355.568H732.055C737.912 355.568 748.386 352.093 748.386 338.242H751.18C751.97 338.238 752.729 337.94 753.309 337.405C753.889 336.869 754.248 336.136 754.315 335.35L754.971 327.403C755.008 326.97 754.955 326.533 754.814 326.122C754.673 325.71 754.448 325.332 754.153 325.012C753.858 324.692 753.5 324.437 753.101 324.263C752.702 324.089 752.271 324 751.836 324.001C750.91 323.961 750.029 323.591 749.352 322.958C748.675 322.325 748.246 321.472 748.143 320.551C747.841 318.534 747.277 316.565 746.466 314.694C748.896 311.122 748.604 304.974 745.251 299.385C741.581 293.382 735.53 290.15 731.156 291.487C721.217 288.376 690.89 287.331 650.04 286.772C644.172 285.005 638.209 283.569 632.179 282.471L600.758 254.477L598.717 252.97C587.441 242.107 544.21 240.504 523.773 241.111C463.531 241.111 430.044 271.414 404.456 295.424C401.297 298.194 382.002 308.424 378.065 310.782C375.655 312.421 373.837 314.793 372.879 317.545C371.921 320.298 371.873 323.285 372.743 326.067C372.002 326.004 371.257 326.093 370.552 326.329C369.847 326.565 369.198 326.942 368.645 327.439C368.092 327.935 367.646 328.539 367.335 329.215C367.024 329.89 366.855 330.621 366.838 331.365C366.863 332.095 367.039 332.812 367.356 333.471C367.673 334.129 368.124 334.715 368.679 335.19C369.234 335.666 369.882 336.02 370.582 336.232C371.281 336.443 372.017 336.507 372.743 336.419C374.736 340.915 378.235 348.764 400.13 352.822C404.431 367.451 415.926 371.048 421.15 371.023Z" fill="#103654"/>
<path d="M499.035 353.648C502.825 363.928 510.845 371.023 520.152 371.023H532.716C542.047 371.023 550.164 363.733 553.954 353.405C554.443 353.157 554.863 352.792 555.177 352.343C555.49 351.894 555.688 351.374 555.753 350.829C556.545 343.427 558.175 336.139 560.613 329.105C559.654 332.77 559.164 336.543 559.155 340.332C559.155 357.342 569.58 371.023 582.532 371.023H595.169C603.795 371.023 611.426 364.705 615.484 355.641H668.363C672.421 364.802 679.906 370.975 688.581 370.975H701.218C709.917 370.975 717.523 364.778 721.557 355.568H732.055C737.912 355.568 748.386 352.093 748.386 338.242H751.18C751.97 338.238 752.729 337.94 753.309 337.405C753.889 336.869 754.248 336.136 754.315 335.35L754.971 327.403C755.008 326.97 754.955 326.533 754.814 326.122C754.673 325.71 754.448 325.332 754.153 325.012C753.858 324.692 753.5 324.437 753.101 324.263C752.702 324.089 752.271 324 751.836 324.001V324.001C750.91 323.961 750.029 323.591 749.352 322.958C748.675 322.325 748.246 321.472 748.143 320.551C747.841 318.534 747.278 316.565 746.466 314.694C748.896 311.122 748.604 304.974 745.251 299.385C741.581 293.382 735.53 290.15 731.156 291.487C721.217 288.376 690.89 287.331 650.04 286.772C644.172 285.005 638.209 283.569 632.179 282.471L600.758 254.477L598.717 252.97C587.441 242.107 544.21 240.504 523.773 241.111C463.531 241.111 430.044 271.414 404.456 295.424C401.297 298.194 382.002 308.424 378.065 310.782C375.655 312.421 373.837 314.793 372.879 317.545C371.921 320.298 371.873 323.285 372.743 326.067C372.002 326.004 371.257 326.093 370.552 326.329C369.847 326.565 369.198 326.942 368.645 327.439C368.092 327.935 367.646 328.539 367.335 329.215C367.024 329.89 366.855 330.621 366.838 331.365C366.863 332.095 367.039 332.812 367.356 333.471C367.673 334.129 368.124 334.715 368.679 335.19C369.234 335.666 369.882 336.02 370.582 336.232C371.281 336.443 372.017 336.507 372.743 336.419C374.736 340.915 378.235 348.764 400.13 352.822C404.431 367.403 415.926 371.048 421.15 371.023H433.787C443.07 371.023 451.089 363.976 454.88 353.746H499.059" stroke="#0F4465" stroke-width="1.57956"/>
<path d="M510.409 250.2C509.413 258.656 508.198 257.757 507.979 285.995M466.133 258.17C464.067 265.315 463.095 271.609 463.095 287.331L466.133 258.17Z" stroke="#176293" stroke-width="1.57956"/>
<path d="M430.846 283.759C429.437 277.392 463.021 250.175 509.338 250.175C511.276 250.124 513.179 250.703 514.761 251.825C516.342 252.946 517.518 254.55 518.111 256.396C524.113 269.64 526.883 278.267 522.631 281.839C516.337 287.307 487.322 287.088 469.582 287.258C461.806 287.258 431.94 288.619 430.846 283.759Z" stroke="#176293" stroke-width="1.57956"/>
<path d="M748.555 324.123C748.554 320.922 747.901 317.755 746.635 314.816L746.465 314.427M601.365 322.3C605.593 330.49 607.561 338.873 609.214 350.246C610.162 356.856 613.855 355.592 616.285 355.69H732.103C737.96 355.69 748.433 352.215 748.433 338.363L601.365 322.3ZM748.433 338.363H751.228C752.017 338.36 752.777 338.061 753.357 337.526C753.937 336.991 754.296 336.258 754.363 335.471L755.019 327.525C755.056 327.091 755.003 326.655 754.862 326.243C754.721 325.831 754.496 325.453 754.201 325.133C753.906 324.813 753.548 324.558 753.149 324.384C752.75 324.21 752.319 324.121 751.884 324.123H748.555L748.433 338.363ZM748.555 338.363H642.603C637.597 338.363 634.9 328.861 634.171 324.123H748.555V338.363Z" stroke="#176293" stroke-width="1.57956"/>
<path d="M372.742 326.067C371.872 323.285 371.92 320.297 372.878 317.545C373.837 314.793 375.655 312.421 378.064 310.782C382.001 308.351 401.296 298.194 404.455 295.423C430.044 271.414 463.53 241.111 523.772 241.111C544.209 240.503 587.44 242.132 598.716 252.97M372.718 336.419C371.993 336.507 371.257 336.443 370.557 336.232C369.857 336.02 369.209 335.665 368.654 335.19C368.099 334.715 367.648 334.129 367.332 333.471C367.015 332.812 366.838 332.095 366.813 331.364C366.83 330.621 366.999 329.89 367.31 329.214C367.621 328.539 368.067 327.935 368.62 327.439C369.173 326.942 369.822 326.564 370.527 326.329C371.232 326.093 371.978 326.004 372.718 326.067H400.858M400.129 352.822C378.064 348.739 374.735 340.89 372.742 336.419H398.088" stroke="#176293" stroke-width="1.57956"/>
<path d="M440.469 322.81C443.069 327.671 448.075 339.675 448.877 347.865C448.877 351.364 450.894 353.988 456.168 353.745C460.323 353.551 521.78 353.745 552.448 353.745C553.247 353.738 554.016 353.436 554.607 352.899C555.199 352.361 555.572 351.624 555.655 350.829C556.725 341.352 560.054 324.949 567.198 317.148" stroke="#176293" stroke-width="1.57956"/>
<path d="M421.225 371.023C434.176 371.023 444.675 357.282 444.675 340.331C444.675 323.381 434.176 309.64 421.225 309.64C408.273 309.64 397.774 323.381 397.774 340.331C397.774 357.282 408.273 371.023 421.225 371.023Z" stroke="#176293" stroke-width="1.57956"/>
<path d="M421.152 371.024H433.788C443.096 371.024 451.115 363.952 454.906 353.673" stroke="#176293" stroke-width="1.57956"/>
<path d="M436.46 340.331C436.546 345.478 434.951 350.512 431.916 354.669C430.765 356.46 429.183 357.933 427.315 358.953C425.447 359.973 423.352 360.508 421.223 360.508C419.095 360.508 417 359.973 415.132 358.953C413.264 357.933 411.682 356.46 410.531 354.669C407.588 350.463 406.009 345.453 406.009 340.319C406.009 335.185 407.588 330.176 410.531 325.97C411.682 324.179 413.264 322.706 415.132 321.685C417 320.665 419.095 320.13 421.223 320.13C423.352 320.13 425.447 320.665 427.315 321.685C429.183 322.706 430.765 324.179 431.916 325.97C434.951 330.136 436.546 335.177 436.46 340.331V340.331Z" stroke="#176293" stroke-width="1.57956"/>
<path d="M582.654 371.023C595.606 371.023 606.105 357.282 606.105 340.331C606.105 323.381 595.606 309.64 582.654 309.64C569.703 309.64 559.204 323.381 559.204 340.331C559.204 357.282 569.703 371.023 582.654 371.023Z" stroke="#176293" stroke-width="1.57956"/>
<path d="M582.582 371.023H595.218C603.845 371.023 611.378 364.924 615.436 355.86" stroke="#176293" stroke-width="1.57956"/>
<path d="M597.891 340.331C597.986 345.475 596.399 350.509 593.371 354.669C592.221 356.46 590.639 357.933 588.77 358.953C586.902 359.973 584.808 360.508 582.679 360.508C580.55 360.508 578.456 359.973 576.588 358.953C574.719 357.933 573.137 356.46 571.987 354.669C569.03 350.468 567.443 345.456 567.443 340.319C567.443 335.182 569.03 330.171 571.987 325.97C573.137 324.179 574.719 322.706 576.588 321.685C578.456 320.665 580.55 320.13 582.679 320.13C584.808 320.13 586.902 320.665 588.77 321.685C590.639 322.706 592.221 324.179 593.371 325.97C596.4 330.138 597.986 335.18 597.891 340.331V340.331Z" stroke="#176293" stroke-width="1.57956"/>
<path d="M520.129 371.023C529.436 371.023 537.455 363.928 541.246 353.648H499.036C502.827 363.928 510.846 371.023 520.129 371.023Z" stroke="#176293" stroke-width="1.57956"/>
<path d="M520.128 371.024H532.764C542.096 371.024 550.164 363.879 553.93 353.527" stroke="#176293" stroke-width="1.57956"/>
<path d="M520.127 361.303C522.666 361.194 525.134 360.435 527.295 359.099C529.457 357.763 531.239 355.895 532.472 353.673H507.807C509.041 355.888 510.82 357.752 512.976 359.087C515.133 360.423 517.594 361.185 520.127 361.303V361.303Z" stroke="#176293" stroke-width="1.57956"/>
<path d="M731.545 291.681C722.043 288.473 691.448 287.404 650.04 286.821C644.171 285.053 638.208 283.617 632.179 282.52L731.545 291.681ZM632.179 282.52C595.873 275.91 557.818 280.406 540.394 281.28C538.669 281.28 534.878 280.965 533.566 278.68C531.913 275.837 523.845 254.89 523.092 252.484C521.342 246.457 526.907 245.68 556.603 245.68C568.073 245.68 593.054 247.356 600.709 254.452L632.179 282.52Z" stroke="#176293" stroke-width="1.57956"/>
<path d="M748.555 324.123C748.554 320.922 747.901 317.755 746.635 314.816L746.465 314.427M601.365 322.3C605.593 330.49 607.561 338.873 609.214 350.246C610.162 356.856 613.855 355.592 616.285 355.69H732.103C737.96 355.69 748.433 352.215 748.433 338.363L601.365 322.3ZM748.433 338.363H751.228C752.017 338.36 752.777 338.061 753.357 337.526C753.937 336.991 754.296 336.258 754.363 335.471L755.019 327.525C755.056 327.091 755.003 326.655 754.862 326.243C754.721 325.831 754.496 325.453 754.201 325.133C753.906 324.813 753.548 324.558 753.149 324.384C752.75 324.21 752.319 324.121 751.884 324.123H748.555L748.433 338.363ZM748.555 338.363H642.603C637.597 338.363 634.9 328.861 634.171 324.123H748.555V338.363Z" stroke="#176293" stroke-width="1.57956"/>
<path d="M372.742 326.067C371.872 323.285 371.92 320.297 372.878 317.545C373.837 314.793 375.655 312.421 378.064 310.782C382.001 308.351 401.296 298.194 404.455 295.423C430.044 271.414 463.53 241.111 523.772 241.111C544.209 240.503 587.44 242.132 598.716 252.97M372.718 336.419C371.993 336.507 371.257 336.443 370.557 336.232C369.857 336.02 369.209 335.665 368.654 335.19C368.099 334.715 367.648 334.129 367.332 333.471C367.015 332.812 366.838 332.095 366.813 331.364C366.83 330.621 366.999 329.89 367.31 329.214C367.621 328.539 368.067 327.935 368.62 327.439C369.173 326.942 369.822 326.564 370.527 326.329C371.232 326.093 371.978 326.004 372.718 326.067H400.858M400.129 352.822C378.064 348.739 374.735 340.89 372.742 336.419H398.088" stroke="#176293" stroke-width="1.57956"/>
<path d="M421.225 371.023C434.176 371.023 444.675 357.282 444.675 340.331C444.675 323.381 434.176 309.64 421.225 309.64C408.273 309.64 397.774 323.381 397.774 340.331C397.774 357.282 408.273 371.023 421.225 371.023Z" stroke="#176293" stroke-width="1.57956"/>
<path d="M582.654 371.023C595.606 371.023 606.105 357.282 606.105 340.331C606.105 323.381 595.606 309.64 582.654 309.64C569.703 309.64 559.204 323.381 559.204 340.331C559.204 357.282 569.703 371.023 582.654 371.023Z" stroke="#176293" stroke-width="1.57956"/>
<path d="M731.545 291.681C722.043 288.473 691.448 287.404 650.04 286.821C644.171 285.053 638.208 283.617 632.179 282.52L731.545 291.681ZM632.179 282.52C595.873 275.91 557.818 280.406 540.394 281.28C538.669 281.28 534.878 280.965 533.566 278.68C531.913 275.837 523.845 254.89 523.092 252.484C521.342 246.457 526.907 245.68 556.603 245.68C568.073 245.68 593.054 247.356 600.709 254.452L632.179 282.52Z" stroke="#176293" stroke-width="1.57956"/>
<path d="M507.418 277.076H519.885C520.206 277.079 520.518 277.177 520.783 277.359C521.047 277.541 521.25 277.798 521.367 278.097L523.797 284.853C523.904 285.137 523.927 285.447 523.862 285.745C523.798 286.042 523.649 286.315 523.433 286.529L521.877 288.085C521.796 288.169 521.697 288.237 521.589 288.283C521.48 288.329 521.363 288.352 521.246 288.352H519.01C519.188 288.139 519.304 287.881 519.347 287.606C519.389 287.332 519.356 287.051 519.251 286.794C519.146 286.537 518.974 286.313 518.751 286.146C518.529 285.98 518.266 285.877 517.989 285.849H507.418C506.999 285.849 506.598 285.682 506.301 285.386C506.005 285.09 505.839 284.688 505.839 284.269V278.559C505.864 278.157 506.041 277.78 506.335 277.504C506.628 277.229 507.016 277.076 507.418 277.076Z" fill="#103654" stroke="#176293" stroke-width="1.57956"/>
<path d="M523.726 282.787C533.082 282.787 537.869 285.217 539.4 293.552C540.348 298.753 540.299 318.971 536.12 340.04C535.293 344.511 534.151 349.007 532.863 353.429" stroke="#176293" stroke-width="1.57956"/>
<path d="M373.668 315.836H375.248C375.949 315.788 376.653 315.884 377.315 316.119C377.978 316.355 378.585 316.724 379.099 317.203C379.613 317.683 380.023 318.263 380.303 318.908C380.583 319.553 380.728 320.249 380.728 320.952C380.728 321.655 380.583 322.35 380.303 322.995C380.023 323.64 379.613 324.22 379.099 324.7C378.585 325.18 377.978 325.549 377.315 325.784C376.653 326.019 375.949 326.115 375.248 326.067" stroke="#176293" stroke-width="1.57956"/>
<path d="M575 290C598 291 614.5 293 632.5 301.5" stroke="#176293" stroke-width="1.58"/>
<path d="M660.32 370.878H343" stroke="url(#paint0_linear)" stroke-width="1.57956"/>
<path d="M451.308 313.066L466.059 305.12L465.476 310.685L450.725 318.631L451.308 313.066Z" fill="#30728E"/>
<path d="M456.29 310.685L451.843 307.987L452.426 302.52L457.432 299.822L456.29 310.685Z" fill="#30728E"/>
<path d="M464.942 315.763L460.519 313.066L459.936 318.534L464.383 321.231L464.942 315.763Z" fill="#30728E"/>
<path d="M474.68 306.464L476.189 310.99L473.689 315.788H476.026L477.772 312.091L478.784 315.788H481.121L479.59 310.99L482.013 306.464H479.689L477.988 309.951L477.005 306.464H474.68ZM482.907 306.464L481.965 315.788H486.627C487.27 315.788 487.727 315.677 487.985 315.442C488.244 315.207 488.413 314.762 488.479 314.106L488.622 312.684C488.676 312.153 488.617 311.757 488.446 311.497C488.273 311.25 487.955 311.089 487.49 311.04C487.965 310.99 488.315 310.829 488.539 310.57C488.762 310.322 488.902 309.914 488.957 309.37L489.082 308.134C489.147 307.491 489.067 307.058 488.856 306.823C488.645 306.588 488.212 306.464 487.569 306.464H482.907ZM484.545 311.67H486.202C486.437 311.67 486.548 311.794 486.525 312.029L486.322 314.032C486.316 314.094 486.299 314.143 486.284 314.168C486.268 314.205 486.253 314.23 486.227 314.242C486.201 314.255 486.175 314.267 486.15 314.267C486.125 314.267 486.101 314.267 486.064 314.267H484.283L484.545 311.67ZM484.917 307.985H486.698C486.772 307.985 486.833 307.998 486.867 308.022C486.902 308.047 486.919 308.121 486.909 308.22L486.728 310.013C486.704 310.248 486.57 310.36 486.335 310.36H484.678L484.917 307.985ZM493.761 307.812L494.256 312.833H492.265L493.761 307.812ZM492.092 306.464L489.196 315.788H491.459L491.954 314.069H494.304L494.464 315.788H496.715L495.715 306.464H492.092ZM497.493 306.464L497.335 308.035H499.251L498.468 315.788H500.644L501.428 308.035H503.344L503.503 306.464H497.493ZM503.869 306.464L503.711 308.035H505.627L504.844 315.788H507.021L507.804 308.035H509.72L509.879 306.464H503.869ZM510.827 306.464L509.885 315.788H515.103L515.262 314.218H512.195L512.82 308.035H515.862L516.02 306.464H510.827ZM512.602 310.31L512.84 311.868H515.375L515.533 310.31H512.602ZM517.456 306.464L516.514 315.788H518.678L519.068 311.93H520.305L521.09 315.788H523.279L522.438 312.239L521.007 311.831H521.514C522.145 311.831 522.603 311.707 522.89 311.435C523.177 311.163 523.359 310.706 523.424 310.063L523.619 308.134C523.684 307.491 523.604 307.058 523.393 306.823C523.181 306.588 522.749 306.464 522.106 306.464H517.456ZM519.462 308.035H521.255C521.304 308.035 521.352 308.047 521.377 308.047C521.402 308.047 521.436 308.072 521.457 308.109C521.477 308.158 521.484 308.208 521.477 308.282L521.257 310.458C521.25 310.533 521.231 310.594 521.203 310.632C521.174 310.669 521.134 310.693 521.11 310.693C521.085 310.693 521.036 310.693 520.986 310.693H519.193L519.462 308.035ZM524.335 306.464L525.97 312.684L525.657 315.788H527.821L528.134 312.684L531.013 306.464H528.874L527.228 310.879L526.487 306.464H524.335Z" fill="#30728E"/>
<path d="M443.41 317.44L443.167 319.871C443.082 320.512 443.138 321.164 443.329 321.782C443.52 322.4 443.842 322.97 444.274 323.452C444.705 323.934 445.236 324.318 445.829 324.576C446.422 324.835 447.064 324.962 447.711 324.949H450.141" stroke="#EC8266" stroke-width="1.70106" stroke-miterlimit="10"/>
<path d="M534.708 317.44L534.465 319.871C534.296 321.25 533.635 322.523 532.605 323.456C531.574 324.389 530.241 324.919 528.851 324.949H526.421" stroke="#EC8266" stroke-width="1.70106" stroke-miterlimit="10"/>
<path d="M444.795 303.54L445.062 301.11C445.226 299.732 445.881 298.46 446.908 297.527C447.935 296.593 449.264 296.062 450.651 296.031H453.082" stroke="#EC8266" stroke-width="1.70106" stroke-miterlimit="10"/>
<path d="M536.117 303.54L536.36 301.11C536.444 300.469 536.388 299.817 536.197 299.198C536.006 298.58 535.684 298.011 535.252 297.528C534.821 297.046 534.291 296.663 533.697 296.405C533.104 296.146 532.462 296.019 531.815 296.031H529.385" stroke="#EC8266" stroke-width="1.70106" stroke-miterlimit="10"/>
<path d="M444.796 303.711L445.039 301.281C445.203 299.899 445.862 298.623 446.894 297.689C447.926 296.756 449.261 296.227 450.652 296.202H531.793C532.441 296.185 533.085 296.31 533.68 296.567C534.275 296.824 534.807 297.207 535.24 297.69C535.672 298.173 535.994 298.745 536.183 299.365C536.373 299.985 536.425 300.638 536.337 301.281L536.094 303.711L534.709 317.659L534.442 320.09C534.273 321.463 533.615 322.73 532.588 323.658C531.562 324.586 530.236 325.114 528.852 325.144H447.688C447.042 325.16 446.4 325.036 445.807 324.781C445.214 324.525 444.683 324.144 444.251 323.664C443.819 323.183 443.497 322.615 443.305 321.998C443.114 321.381 443.059 320.73 443.143 320.09L443.386 317.659L444.796 303.711Z" fill="#EC8266" fill-opacity="0.15"/>
</g>
<path d="M626.382 231.011V380.116H345.058V231.011H626.382ZM628.869 228.545H342.549V382.604H628.869V228.545Z" fill="#103654"/>
</g>
<defs>
<linearGradient id="paint0_linear" x1="501.66" y1="370.878" x2="343" y2="371.001" gradientUnits="userSpaceOnUse">
<stop offset="0.630908" stop-color="#176293"/>
<stop offset="0.92048" stop-color="#176293" stop-opacity="0"/>
</linearGradient>
<clipPath id="clip0">
<rect x="335" y="222" width="301.091" height="168" fill="white"/>
</clipPath>
</defs>
</svg>
