<svg width="153" height="50" viewBox="0 0 153 50" xmlns="http://www.w3.org/2000/svg" xmlns:xlink="http://www.w3.org/1999/xlink"><defs><path id="a" d="M0 .23h152.883V50H0"/><path id="c" d="M0 .23h152.883V50H0"/></defs><g fill="none" fill-rule="evenodd"><path fill="#FFF" d="M52.617 34.025h-2.555V20.16h2.555zM64.302 34.025h-2.467v-5.328c0-.926-.157-1.606-.467-2.048-.317-.447-.815-.665-1.505-.665-.754 0-1.38.282-1.876.85v7.191h-2.463V24.12h2.306l.042.596c.7-.504 1.434-.752 2.19-.752 2.829 0 4.24 1.575 4.24 4.733v5.328zM72.148 22.575h-2.666v9.035h2.666c1.33 0 2.34-.395 3.041-1.185.691-.79 1.045-1.9 1.045-3.334 0-1.43-.354-2.542-1.045-3.33-.7-.79-1.712-1.186-3.041-1.186m0 11.45h-5.212V20.16h5.212c1.012 0 1.938.164 2.778.485.845.325 1.57.789 2.175 1.386a6.365 6.365 0 0 1 1.413 2.182c.336.851.506 1.812.506 2.879 0 1.07-.17 2.038-.506 2.892a6.182 6.182 0 0 1-1.413 2.18 6.257 6.257 0 0 1-2.175 1.38c-.84.321-1.766.482-2.778.482M85.993 31.63v-2.26a7.85 7.85 0 0 0-1.13.16 3.75 3.75 0 0 0-.965.344 2.219 2.219 0 0 0-.671.549c-.178.21-.263.452-.263.733 0 .792.443 1.188 1.332 1.188.626 0 1.188-.241 1.697-.714zm3.666.572l-.224 2.025h-.896c-1.073 0-1.819-.384-2.227-1.153-.693.769-1.708 1.153-3.05 1.153-.41 0-.793-.073-1.144-.208a2.666 2.666 0 0 1-1.524-1.528 3.306 3.306 0 0 1-.22-1.238c0-.673.199-1.238.6-1.685a4.551 4.551 0 0 1 1.45-1.079 7.553 7.553 0 0 1 1.825-.586c.638-.118 1.218-.18 1.723-.198-.03-.59-.172-1.012-.438-1.255-.267-.244-.718-.367-1.353-.367-.788 0-1.692.249-2.735.75l-.216-2c1.24-.579 2.445-.87 3.624-.87 2.404 0 3.608 1.329 3.608 3.983v2.672c0 .358.01.641.03.855.019.21.059.372.115.485.064.11.15.179.27.205.123.03.278.04.461.04h.321zM96.503 32.202l-.219 2.025H94.51c-.432 0-.82-.073-1.148-.208a2.443 2.443 0 0 1-.837-.559 2.092 2.092 0 0 1-.508-.82 3.025 3.025 0 0 1-.174-1.01v-5.489H90.43l.223-2.021h1.19v-2.18l2.471-.257v2.437h2.19v2.021h-2.19v4.477c0 .384.017.68.038.891.028.21.09.373.193.475.102.109.253.169.445.192.2.02.48.026.839.026h.674zM103.397 31.63v-2.26a7.802 7.802 0 0 0-1.124.16 3.54 3.54 0 0 0-.97.346c-.28.152-.506.335-.675.547-.173.21-.258.452-.258.733 0 .792.446 1.188 1.332 1.188.624 0 1.188-.241 1.695-.714zm3.663.572l-.221 2.025h-.894c-1.071 0-1.819-.384-2.227-1.153-.696.769-1.708 1.153-3.051 1.153a3.15 3.15 0 0 1-1.145-.208 2.753 2.753 0 0 1-.92-.597 2.834 2.834 0 0 1-.606-.931 3.387 3.387 0 0 1-.214-1.238c0-.673.199-1.238.596-1.685a4.561 4.561 0 0 1 1.452-1.079 7.472 7.472 0 0 1 1.821-.586c.646-.118 1.22-.18 1.725-.198-.028-.59-.176-1.01-.436-1.255-.269-.244-.72-.367-1.36-.367-.783 0-1.69.249-2.72.75l-.22-2c1.228-.579 2.443-.87 3.623-.87 2.403 0 3.603 1.329 3.603 3.983v2.672c0 .358.007.641.028.855.019.21.06.372.119.485.063.11.153.179.27.205.117.03.274.04.457.04h.32zM122.374 34.025h-8.281V20.16h2.544v11.41h5.737zM128.945 31.63v-2.26a7.814 7.814 0 0 0-1.123.16c-.364.078-.69.194-.967.346-.28.152-.502.335-.678.547-.17.21-.257.452-.257.733 0 .792.444 1.188 1.334 1.188.623 0 1.184-.241 1.69-.714zm3.664.575l-.217 2.022h-.897c-1.075 0-1.82-.384-2.227-1.153-.694.769-1.706 1.153-3.051 1.153-.412 0-.794-.073-1.141-.208a2.656 2.656 0 0 1-1.525-1.528 3.274 3.274 0 0 1-.22-1.238c0-.673.2-1.236.596-1.685.4-.447.884-.806 1.455-1.077a7.41 7.41 0 0 1 1.823-.588c.64-.118 1.214-.18 1.722-.198-.028-.59-.171-1.01-.438-1.255-.266-.244-.715-.367-1.356-.367-.78 0-1.693.249-2.73.75l-.215-2c1.232-.579 2.444-.87 3.623-.87 2.401 0 3.606 1.329 3.606 3.983v2.672c0 .358.012.641.027.855.02.21.058.372.119.485.06.11.151.179.272.205.117.03.268.042.459.042h.315zM138.994 25.984c-.768 0-1.339.278-1.715.833-.381.556-.566 1.311-.566 2.278 0 .964.185 1.723.566 2.277.376.552.947.833 1.715.833.792 0 1.406-.284 1.844-.845.438-.56.652-1.315.652-2.265 0-.952-.214-1.709-.652-2.269-.438-.563-1.052-.842-1.844-.842m.169 8.243c-.89 0-1.706-.253-2.45-.755l-.042.553h-2.309V19.17h2.47v5.448c.651-.439 1.426-.656 2.33-.656.758 0 1.438.134 2.039.397a4.469 4.469 0 0 1 1.538 1.09 4.99 4.99 0 0 1 .963 1.634 5.88 5.88 0 0 1 .336 2.012c0 .713-.105 1.38-.325 2a4.983 4.983 0 0 1-.948 1.634c-.408.47-.922.836-1.534 1.1-.608.264-1.303.398-2.068.398M148.98 34.227c-1.517 0-2.633-.249-3.364-.736l.219-2.1c.156.118.36.24.608.358.242.119.5.224.777.318.268.09.551.165.844.227.293.058.572.089.837.089.557 0 .948-.104 1.173-.316.225-.214.338-.473.338-.774 0-.291-.075-.51-.236-.663-.159-.154-.39-.285-.69-.398-.298-.11-.657-.23-1.082-.356a9.173 9.173 0 0 1-1.436-.584c-.395-.224-.7-.5-.897-.825-.196-.32-.315-.773-.357-1.352 0-.411.066-.806.208-1.182.141-.376.353-.706.651-.999.288-.292.663-.524 1.122-.703.458-.179 1.013-.269 1.663-.269.608 0 1.21.072 1.8.217.593.149 1.035.319 1.326.516l-.22 2.101a3.811 3.811 0 0 0-.522-.396 4.53 4.53 0 0 0-1.426-.584 3.508 3.508 0 0 0-.777-.09c-.478 0-.874.09-1.188.268-.31.178-.467.455-.467.823 0 .317.103.556.31.71.206.16.478.306.824.438l.34.1c.08.027.208.063.387.108.18.046.32.083.408.107.414.12.792.258 1.124.418.337.16.631.359.87.594.24.237.42.518.547.854.129.33.189.717.189 1.166 0 1.94-1.302 2.915-3.903 2.915"/><g><mask id="b" fill="#fff"><use xlink:href="#a"/></mask><path d="M33.675 22.515l-11.087-11.19a2.334 2.334 0 0 0-3.289 0 2.291 2.291 0 0 0-.682 1.635v25.739l6.644-6.61c.213-.214.342-.507.342-.81v-5.906a2.3 2.3 0 0 1-1.17-1.995 2.32 2.32 0 0 1 2.326-2.316 2.322 2.322 0 0 1 2.329 2.316c0 .855-.47 1.593-1.164 1.995V32.236c0 .305-.12.595-.336.812l-1.985 1.977-6.986 6.947v5.713A2.32 2.32 0 0 0 20.942 50a4.179 4.179 0 0 0 2.962-1.221l9.77-9.725a4.125 4.125 0 0 0 1.234-2.945V25.462a4.13 4.13 0 0 0-1.233-2.947" fill="#FFF" mask="url(#b)"/></g><g><mask id="d" fill="#fff"><use xlink:href="#c"/></mask><path d="M13.964.23c-.599 0-1.19.226-1.647.679L1.224 12.1A4.151 4.151 0 0 0 0 15.048v21.061a4.14 4.14 0 0 0 1.224 2.945L11 48.779A4.2 4.2 0 0 0 13.964 50c.593 0 1.19-.227 1.644-.68.453-.45.682-1.043.682-1.635v-15.9l-8.973-8.922a1.158 1.158 0 0 1-.335-.812v-7.096a2.302 2.302 0 0 1-1.164-1.992 2.323 2.323 0 0 1 2.328-2.316 2.323 2.323 0 0 1 2.327 2.316c0 .854-.472 1.593-1.164 1.992v6.136c0 .308.121.6.335.813l6.646 6.608V2.547A2.32 2.32 0 0 0 13.965.23" fill="#FFF" mask="url(#d)"/></g></g></svg>
