<svg width="109" height="14" viewBox="0 0 109 14" fill="none" xmlns="http://www.w3.org/2000/svg">
<path d="M107 7L107.707 7.70711L108.414 7L107.707 6.29289L107 7ZM100.293 12.2929C99.9024 12.6834 99.9024 13.3166 100.293 13.7071C100.683 14.0976 101.317 14.0976 101.707 13.7071L100.293 12.2929ZM101.707 0.292893C101.317 -0.0976311 100.683 -0.0976311 100.293 0.292893C99.9024 0.683417 99.9024 1.31658 100.293 1.70711L101.707 0.292893ZM0 8H107V6H0L0 8ZM106.293 6.29289L100.293 12.2929L101.707 13.7071L107.707 7.70711L106.293 6.29289ZM107.707 6.29289L101.707 0.292893L100.293 1.70711L106.293 7.70711L107.707 6.29289Z" fill="url(#paint0_linear)"/>
<defs>
<linearGradient id="paint0_linear" x1="0" y1="7.99882" x2="107" y2="7.99882" gradientUnits="userSpaceOnUse">
<stop stop-color="#FF9C00" stop-opacity="0"/>
<stop offset="1" stop-color="#FF9C00"/>
</linearGradient>
</defs>
</svg>
