<svg width="329" height="237" fill="none" xmlns="http://www.w3.org/2000/svg"><rect x=".5" y=".5" width="328" height="236" rx="7.5" fill="#fff" stroke="#EDEDED"/><path d="M142 158c65.5 0 30.5-54.5 108-54.5-77.5 0-42.5-54.5-108-54.5" stroke="#FF9C00" stroke-width="2"/><rect x="259" y="114.194" width="55" height="16.806" rx="2" fill="#92C9EC"/><rect x="259" y="95.097" width="55" height="16.806" rx="2" fill="#92C9EC"/><rect x="259" y="76" width="55" height="16.806" rx="2" fill="#92C9EC"/><rect x="263.583" y="79.819" width="3.056" height="8.403" rx="1.528" fill="#fff"/><rect x="268.931" y="79.819" width="3.056" height="8.403" rx="1.528" fill="#fff"/><rect x="274.278" y="79.819" width="3.056" height="8.403" rx="1.528" fill="#fff"/><circle cx="299.104" cy="84.021" fill="#fff" r="2.674"/><circle cx="306.743" cy="84.021" fill="#fff" r="2.674"/><rect x="263.583" y="98.917" width="3.056" height="8.403" rx="1.528" fill="#fff"/><rect x="268.931" y="98.917" width="3.056" height="8.403" rx="1.528" fill="#fff"/><rect x="274.278" y="98.917" width="3.056" height="8.403" rx="1.528" fill="#fff"/><circle cx="299.104" cy="103.118" fill="#fff" r="2.674"/><circle cx="306.743" cy="103.118" fill="#fff" r="2.674"/><rect x="263.583" y="118.014" width="3.056" height="8.403" rx="1.528" fill="#fff"/><rect x="268.931" y="118.014" width="3.056" height="8.403" rx="1.528" fill="#fff"/><rect x="274.278" y="118.014" width="3.056" height="8.403" rx="1.528" fill="#fff"/><circle cx="299.104" cy="122.215" r="2.674" fill="#fff"/><circle cx="306.743" cy="122.215" fill="#fff" r="2.674"/><rect x="50" y="18.403" width="11.458" height="11.458" rx="2" fill="#92C9EC"/><rect x="64.514" y="18.403" width="11.458" height="11.458" rx="2" fill="#103654"/><rect x="79.028" y="18.403" width="11.458" height="11.458" rx="2" fill="#92C9EC"/><rect x="93.542" y="18.403" width="11.458" height="11.458" rx="2" fill="#92C9EC"/><rect x="50" y="32.153" width="11.458" height="11.458" rx="2" fill="#92C9EC"/><rect x="64.514" y="32.153" width="11.458" height="11.458" rx="2" fill="#92C9EC"/><rect x="79.028" y="32.153" width="11.458" height="11.458" rx="2" fill="#103654"/><rect x="93.542" y="32.153" width="11.458" height="11.458" rx="2" fill="#103654"/><rect x="50" y="45.903" width="11.458" height="11.458" rx="2" fill="#103654"/><rect x="64.514" y="45.903" width="11.458" height="11.458" rx="2" fill="#92C9EC"/><rect x="79.028" y="45.903" width="11.458" height="11.458" rx="2" fill="#92C9EC"/><rect x="93.542" y="45.903" width="11.458" height="11.458" rx="2" fill="#92C9EC"/><path d="M27.003 88.192c-1.835 0-3.28-.565-4.336-1.696l1.04-1.44c.917.981 2.042 1.472 3.376 1.472.714 0 1.248-.144 1.6-.432.362-.288.544-.63.544-1.024 0-.405-.214-.725-.64-.96-.427-.245-.944-.437-1.552-.576a24.862 24.862 0 0 1-1.84-.496 3.536 3.536 0 0 1-1.552-.976c-.427-.459-.64-1.05-.64-1.776 0-.896.357-1.637 1.072-2.224.725-.597 1.664-.896 2.816-.896 1.642 0 2.976.496 4 1.488l-1.072 1.392c-.81-.81-1.84-1.216-3.088-1.216-.555 0-.998.123-1.328.368-.32.235-.48.555-.48.96 0 .267.112.49.336.672.234.181.533.33.896.448.362.107.762.213 1.2.32.448.107.89.24 1.328.4.448.15.853.336 1.216.56.362.224.656.533.88.928.234.395.352.864.352 1.408 0 .96-.347 1.75-1.04 2.368-.694.619-1.723.928-3.088.928Zm7.89 0c-.651 0-1.147-.17-1.489-.512-.33-.341-.496-.832-.496-1.472v-4.464h-1.28v-1.472h1.28V78.16h1.68v2.112h1.568v1.472h-1.568v4.048c0 .277.064.501.192.672.128.16.31.24.544.24.342 0 .592-.09.752-.272l.4 1.264c-.352.33-.88.496-1.584.496ZM39.361 88h-1.68v-7.728h1.68v1.136a3.572 3.572 0 0 1 1.12-.944 2.862 2.862 0 0 1 1.392-.368v1.664a2.548 2.548 0 0 0-.528-.048c-.352 0-.73.107-1.136.32-.395.203-.678.437-.848.704V88Zm10.763 0h-1.68v-1.024c-.726.81-1.638 1.216-2.736 1.216-1.654 0-2.48-.816-2.48-2.448v-5.472h1.68v4.864c0 .565.133.97.4 1.216.266.235.65.352 1.152.352.405 0 .784-.096 1.136-.288a2.56 2.56 0 0 0 .848-.72v-5.424h1.68V88Zm5.702.192c-1.174 0-2.134-.379-2.88-1.136-.747-.768-1.12-1.744-1.12-2.928 0-1.173.373-2.139 1.12-2.896.746-.768 1.706-1.152 2.88-1.152 1.29 0 2.277.459 2.96 1.376l-1.104 1.024c-.427-.608-1.019-.912-1.776-.912-.704 0-1.27.24-1.696.72-.427.47-.64 1.083-.64 1.84 0 .757.213 1.376.64 1.856.426.48.992.72 1.696.72.736 0 1.328-.304 1.776-.912l1.104 1.024c-.683.917-1.67 1.376-2.96 1.376Zm6.753 0c-.65 0-1.147-.17-1.488-.512-.33-.341-.496-.832-.496-1.472v-4.464h-1.28v-1.472h1.28V78.16h1.68v2.112h1.568v1.472h-1.568v4.048c0 .277.064.501.192.672.128.16.31.24.544.24.341 0 .592-.09.752-.272l.4 1.264c-.352.33-.88.496-1.584.496ZM72.265 88h-1.68v-1.024c-.725.81-1.637 1.216-2.736 1.216-1.653 0-2.48-.816-2.48-2.448v-5.472h1.68v4.864c0 .565.134.97.4 1.216.267.235.65.352 1.152.352.406 0 .784-.096 1.136-.288a2.56 2.56 0 0 0 .848-.72v-5.424h1.68V88Zm3.862 0h-1.68v-7.728h1.68v1.136a3.572 3.572 0 0 1 1.12-.944 2.862 2.862 0 0 1 1.392-.368v1.664a2.548 2.548 0 0 0-.528-.048c-.352 0-.73.107-1.136.32-.394.203-.677.437-.848.704V88Zm7.435.192c-1.173 0-2.144-.373-2.912-1.12-.757-.757-1.136-1.739-1.136-2.944 0-1.13.368-2.085 1.104-2.864.747-.79 1.686-1.184 2.816-1.184 1.142 0 2.059.395 2.752 1.184.704.79 1.056 1.797 1.056 3.024v.4h-5.968c.064.608.315 1.115.752 1.52.438.405 1.008.608 1.712.608.395 0 .79-.075 1.184-.224a2.74 2.74 0 0 0 1.008-.624l.768 1.104c-.778.747-1.824 1.12-3.136 1.12Zm2.048-4.688a2.212 2.212 0 0 0-.592-1.424c-.362-.416-.89-.624-1.584-.624-.661 0-1.178.208-1.552.624-.373.405-.581.88-.624 1.424h4.352ZM96.02 88h-1.68v-1.056c-.64.832-1.466 1.248-2.48 1.248-1.013 0-1.84-.363-2.48-1.088-.64-.725-.96-1.712-.96-2.96 0-1.237.32-2.224.96-2.96.64-.736 1.467-1.104 2.48-1.104 1.014 0 1.84.421 2.48 1.264v-4.016h1.68V88Zm-3.68-1.296a2.49 2.49 0 0 0 1.153-.288c.373-.192.656-.437.848-.736v-3.072c-.192-.299-.475-.544-.848-.736a2.386 2.386 0 0 0-1.152-.304c-.662 0-1.19.24-1.584.72-.395.48-.593 1.099-.593 1.856 0 .757.198 1.376.593 1.856.394.47.922.704 1.584.704ZM109.428 88h-1.68v-1.056c-.64.832-1.467 1.248-2.48 1.248-1.014 0-1.84-.363-2.48-1.088-.64-.725-.96-1.712-.96-2.96 0-1.237.32-2.224.96-2.96.64-.736 1.466-1.104 2.48-1.104 1.013 0 1.84.421 2.48 1.264v-4.016h1.68V88Zm-3.68-1.296c.394 0 .778-.096 1.152-.288.373-.192.656-.437.848-.736v-3.072c-.192-.299-.475-.544-.848-.736a2.39 2.39 0 0 0-1.152-.304c-.662 0-1.19.24-1.584.72-.395.48-.592 1.099-.592 1.856 0 .757.197 1.376.592 1.856.394.47.922.704 1.584.704ZM118.004 88h-1.68v-.832c-.598.683-1.43 1.024-2.496 1.024a2.861 2.861 0 0 1-1.872-.672c-.544-.459-.816-1.088-.816-1.888 0-.821.266-1.445.8-1.872a2.972 2.972 0 0 1 1.888-.64c1.098 0 1.93.33 2.496.992V82.96c0-.448-.166-.8-.496-1.056-.331-.256-.768-.384-1.312-.384-.864 0-1.627.325-2.288.976l-.688-1.168c.874-.832 1.957-1.248 3.248-1.248.949 0 1.722.224 2.32.672.597.448.896 1.157.896 2.128V88Zm-3.52-.96c.842 0 1.456-.267 1.84-.8v-1.168c-.384-.533-.998-.8-1.84-.8-.48 0-.875.128-1.184.384-.31.256-.464.592-.464 1.008 0 .416.154.752.464 1.008.309.245.704.368 1.184.368Zm8.018 1.152c-.651 0-1.147-.17-1.488-.512-.331-.341-.496-.832-.496-1.472v-4.464h-1.28v-1.472h1.28V78.16h1.68v2.112h1.568v1.472h-1.568v4.048c0 .277.064.501.192.672.128.16.309.24.544.24.341 0 .592-.09.752-.272l.4 1.264c-.352.33-.88.496-1.584.496Zm9.189-.192h-1.68v-.832c-.597.683-1.429 1.024-2.496 1.024a2.861 2.861 0 0 1-1.872-.672c-.544-.459-.816-1.088-.816-1.888 0-.821.267-1.445.8-1.872a2.972 2.972 0 0 1 1.888-.64c1.099 0 1.931.33 2.496.992V82.96c0-.448-.165-.8-.496-1.056-.331-.256-.768-.384-1.312-.384-.864 0-1.627.325-2.288.976l-.688-1.168c.875-.832 1.957-1.248 3.248-1.248.949 0 1.723.224 2.32.672.597.448.896 1.157.896 2.128V88Zm-3.52-.96c.843 0 1.456-.267 1.84-.8v-1.168c-.384-.533-.997-.8-1.84-.8-.48 0-.875.128-1.184.384a1.246 1.246 0 0 0-.464 1.008c0 .416.155.752.464 1.008.309.245.704.368 1.184.368Z" fill="#141414"/><rect x="50" y="139.403" width="11.458" height="11.458" rx="2" fill="#92C9EC"/><rect x="79.028" y="139.403" width="11.458" height="11.458" rx="2" fill="#92C9EC"/><rect x="93.542" y="139.403" width="11.458" height="11.458" rx="2" fill="#92C9EC"/><rect x="50" y="153.153" width="11.458" height="11.458" rx="2" fill="#92C9EC"/><rect x="64.514" y="153.153" width="11.458" height="11.458" rx="2" fill="#103654"/><rect x="64.514" y="166.903" width="11.458" height="11.458" rx="2" fill="#92C9EC"/><rect x="93.542" y="166.903" width="11.458" height="11.458" rx="2" fill="#103654"/><path d="M18.05 209.192c-1.516 0-2.668-.395-3.457-1.184-.779-.789-1.168-1.861-1.168-3.216v-6.464h1.888v6.4c0 .864.235 1.547.704 2.048.48.501 1.157.752 2.032.752s1.547-.251 2.016-.752c.47-.501.704-1.184.704-2.048v-6.4h1.888v6.448c0 1.365-.395 2.443-1.184 3.232-.779.789-1.92 1.184-3.424 1.184ZM31.772 209h-1.68v-4.832c0-1.067-.517-1.6-1.552-1.6-.405 0-.784.101-1.136.304a2.736 2.736 0 0 0-.848.736V209h-1.68v-7.728h1.68v1.056c.288-.341.672-.635 1.152-.88a3.399 3.399 0 0 1 1.568-.368c.821 0 1.44.213 1.856.64.427.427.64 1.04.64 1.84V209Zm4.822.192c-1.386 0-2.49-.4-3.312-1.2l.768-1.216c.288.299.677.555 1.168.768.49.213.976.32 1.456.32.49 0 .864-.096 1.12-.288.267-.192.4-.443.4-.752 0-.277-.16-.491-.48-.64-.32-.16-.71-.283-1.168-.368a21.518 21.518 0 0 1-1.376-.336 2.61 2.61 0 0 1-1.168-.72c-.32-.341-.48-.784-.48-1.328 0-.661.272-1.216.816-1.664.544-.459 1.285-.688 2.224-.688 1.184 0 2.187.363 3.008 1.088l-.704 1.184a2.657 2.657 0 0 0-.976-.672 3.34 3.34 0 0 0-1.312-.256c-.437 0-.79.091-1.056.272-.256.171-.384.395-.384.672 0 .213.112.389.336.528.235.128.523.224.864.288.352.064.73.155 1.136.272a7.73 7.73 0 0 1 1.12.384c.352.149.64.395.864.736.235.331.352.736.352 1.216 0 .704-.282 1.28-.848 1.728-.565.448-1.355.672-2.368.672Zm7.227 0c-.65 0-1.147-.171-1.488-.512-.33-.341-.496-.832-.496-1.472v-4.464h-1.28v-1.472h1.28v-2.112h1.68v2.112h1.568v1.472h-1.568v4.048c0 .277.064.501.192.672.128.16.31.24.544.24.341 0 .592-.091.752-.272l.4 1.264c-.352.331-.88.496-1.584.496Zm4.47-.192h-1.68v-7.728h1.68v1.136a3.57 3.57 0 0 1 1.12-.944 2.865 2.865 0 0 1 1.391-.368v1.664a2.547 2.547 0 0 0-.528-.048c-.352 0-.73.107-1.136.32-.394.203-.677.437-.848.704V209Zm10.762 0h-1.68v-1.024c-.725.811-1.637 1.216-2.736 1.216-1.653 0-2.48-.816-2.48-2.448v-5.472h1.68v4.864c0 .565.134.971.4 1.216.267.235.651.352 1.152.352.406 0 .784-.096 1.136-.288a2.56 2.56 0 0 0 .848-.72v-5.424h1.68V209Zm5.702.192c-1.173 0-2.133-.379-2.88-1.136-.746-.768-1.12-1.744-1.12-2.928 0-1.173.374-2.139 1.12-2.896.747-.768 1.707-1.152 2.88-1.152 1.291 0 2.278.459 2.96 1.376l-1.104 1.024c-.426-.608-1.018-.912-1.776-.912-.704 0-1.269.24-1.696.72-.426.469-.64 1.083-.64 1.84 0 .757.214 1.376.64 1.856.427.48.992.72 1.696.72.736 0 1.328-.304 1.776-.912l1.104 1.024c-.682.917-1.669 1.376-2.96 1.376Zm6.754 0c-.651 0-1.147-.171-1.488-.512-.331-.341-.496-.832-.496-1.472v-4.464h-1.28v-1.472h1.28v-2.112h1.68v2.112h1.568v1.472h-1.568v4.048c0 .277.064.501.192.672.128.16.309.24.544.24.34 0 .592-.091.752-.272l.4 1.264c-.352.331-.88.496-1.584.496Zm9.685-.192h-1.68v-1.024c-.725.811-1.637 1.216-2.736 1.216-1.653 0-2.48-.816-2.48-2.448v-5.472h1.68v4.864c0 .565.133.971.4 1.216.267.235.65.352 1.152.352.405 0 .784-.096 1.136-.288a2.56 2.56 0 0 0 .848-.72v-5.424h1.68V209Zm3.862 0h-1.68v-7.728h1.68v1.136a3.568 3.568 0 0 1 1.12-.944 2.865 2.865 0 0 1 1.392-.368v1.664a2.548 2.548 0 0 0-.528-.048c-.352 0-.73.107-1.136.32-.395.203-.677.437-.848.704V209Zm7.435.192c-1.173 0-2.144-.373-2.912-1.12-.757-.757-1.136-1.739-1.136-2.944 0-1.131.368-2.085 1.104-2.864.747-.789 1.685-1.184 2.816-1.184 1.141 0 2.059.395 2.752 1.184.704.789 1.056 1.797 1.056 3.024v.4h-5.968c.064.608.315 1.115.752 1.52s1.008.608 1.712.608c.395 0 .79-.075 1.184-.224a2.731 2.731 0 0 0 1.008-.624l.768 1.104c-.779.747-1.824 1.12-3.136 1.12Zm2.048-4.688a2.211 2.211 0 0 0-.592-1.424c-.363-.416-.89-.624-1.584-.624-.661 0-1.179.208-1.552.624-.373.405-.581.88-.624 1.424h4.352ZM104.95 209h-1.68v-1.056c-.64.832-1.466 1.248-2.48 1.248-1.013 0-1.84-.363-2.48-1.088-.64-.725-.96-1.712-.96-2.96 0-1.237.32-2.224.96-2.96.64-.736 1.467-1.104 2.48-1.104 1.014 0 1.84.421 2.48 1.264v-4.016h1.68V209Zm-3.68-1.296c.395 0 .779-.096 1.152-.288.374-.192.656-.437.848-.736v-3.072c-.192-.299-.474-.544-.848-.736a2.38 2.38 0 0 0-1.152-.304c-.661 0-1.189.24-1.584.72s-.592 1.099-.592 1.856c0 .757.198 1.376.592 1.856.395.469.923.704 1.584.704ZM118.356 209h-1.68v-1.056c-.64.832-1.466 1.248-2.48 1.248-1.013 0-1.84-.363-2.48-1.088-.64-.725-.96-1.712-.96-2.96 0-1.237.32-2.224.96-2.96.64-.736 1.467-1.104 2.48-1.104 1.014 0 1.84.421 2.48 1.264v-4.016h1.68V209Zm-3.68-1.296c.395 0 .779-.096 1.152-.288.374-.192.656-.437.848-.736v-3.072c-.192-.299-.474-.544-.848-.736a2.38 2.38 0 0 0-1.152-.304c-.661 0-1.189.24-1.584.72-.394.48-.592 1.099-.592 1.856 0 .757.198 1.376.592 1.856.395.469.923.704 1.584.704ZM126.933 209h-1.68v-.832c-.597.683-1.429 1.024-2.496 1.024a2.861 2.861 0 0 1-1.872-.672c-.544-.459-.816-1.088-.816-1.888 0-.821.267-1.445.8-1.872a2.972 2.972 0 0 1 1.888-.64c1.099 0 1.931.331 2.496.992v-1.152c0-.448-.165-.8-.496-1.056-.33-.256-.768-.384-1.312-.384-.864 0-1.626.325-2.288.976l-.688-1.168c.875-.832 1.958-1.248 3.248-1.248.95 0 1.723.224 2.32.672.598.448.896 1.157.896 2.128V209Zm-3.52-.96c.843 0 1.456-.267 1.84-.8v-1.168c-.384-.533-.997-.8-1.84-.8-.48 0-.874.128-1.184.384a1.246 1.246 0 0 0-.464 1.008c0 .416.155.752.464 1.008.31.245.704.368 1.184.368Zm8.018 1.152c-.65 0-1.146-.171-1.488-.512-.33-.341-.496-.832-.496-1.472v-4.464h-1.28v-1.472h1.28v-2.112h1.68v2.112h1.568v1.472h-1.568v4.048c0 .277.064.501.192.672.128.16.31.24.544.24.342 0 .592-.091.752-.272l.4 1.264c-.352.331-.88.496-1.584.496Zm9.19-.192h-1.68v-.832c-.598.683-1.43 1.024-2.496 1.024a2.861 2.861 0 0 1-1.872-.672c-.544-.459-.816-1.088-.816-1.888 0-.821.266-1.445.8-1.872a2.97 2.97 0 0 1 1.888-.64c1.098 0 1.93.331 2.496.992v-1.152c0-.448-.166-.8-.496-1.056-.331-.256-.768-.384-1.312-.384-.864 0-1.627.325-2.288.976l-.688-1.168c.874-.832 1.957-1.248 3.248-1.248.949 0 1.722.224 2.32.672.597.448.896 1.157.896 2.128V209Zm-3.52-.96c.842 0 1.456-.267 1.84-.8v-1.168c-.384-.533-.998-.8-1.84-.8-.48 0-.875.128-1.184.384-.31.256-.464.592-.464 1.008 0 .416.154.752.464 1.008.309.245.704.368 1.184.368Z" fill="#141414"/></svg>