<svg width="313" height="119" fill="none" xmlns="http://www.w3.org/2000/svg"><rect x=".5" y=".5" width="312" height="118" rx="7.5" fill="#fff" stroke="#EDEDED"/><path fill-rule="evenodd" clip-rule="evenodd" d="M76.888 22.266c0 4.012-9.405 7.266-21.007 7.266-11.601 0-21.005-3.254-21.005-7.266 0-4.013 9.404-7.266 21.006-7.266 11.601 0 21.006 3.253 21.006 7.266Z" fill="#92C9EC"/><path fill-rule="evenodd" clip-rule="evenodd" d="M55.882 33.305c-11.234 0-20.381-3.052-20.952-6.889h-.055v6.99c0 4.014 9.405 7.266 21.007 7.266 11.602 0 21.007-3.252 21.007-7.266v-6.99h-.055c-.571 3.837-9.718 6.889-20.952 6.889Z" fill="#92C9EC"/><path fill-rule="evenodd" clip-rule="evenodd" d="M55.882 44.526c-11.234 0-20.381-3.052-20.952-6.888h-.055v6.99c0 4.013 9.405 7.265 21.007 7.265 11.602 0 21.007-3.252 21.007-7.266v-6.99h-.055c-.571 3.837-9.718 6.89-20.952 6.89Z" fill="#92C9EC"/><path fill-rule="evenodd" clip-rule="evenodd" d="M55.882 54.994c-11.234 0-20.381-3.052-20.952-6.888h-.055v6.99c0 4.013 9.405 7.265 21.007 7.265 11.602 0 21.007-3.252 21.007-7.266v-6.99h-.055c-.571 3.837-9.718 6.89-20.952 6.89Z" fill="#92C9EC"/><path d="M58.556 69.99v-4.852c.005-6.092 3.869-11.36 9.665-13.17a12.77 12.77 0 0 1 3.017-.563c.079-.005.157-.017.255-.028v-5.821L83 54.96 71.506 64.39v-5.814c-.327.029-.632.04-.934.084-4.567.669-7.982 3.016-10.132 7.12-.657 1.254-1.136 2.6-1.697 3.903l-.14.317-.047-.01Z" fill="#103654"/><path d="M38.714 93h-7.312V82.328h7.312v1.648h-5.44v2.768h5.328v1.648h-5.328v2.96h5.44V93Zm8.642 0h-1.888l-2-2.848L41.452 93H39.58l2.832-3.968-2.672-3.76h1.888l1.84 2.624 1.824-2.624h1.888l-2.672 3.76L47.356 93Zm3.49.192c-.651 0-1.147-.17-1.488-.512-.331-.341-.496-.832-.496-1.472v-4.464h-1.28v-1.472h1.28V83.16h1.68v2.112h1.567v1.472h-1.568v4.048c0 .277.065.501.193.672.127.16.309.24.544.24.34 0 .592-.09.752-.272l.4 1.264c-.352.33-.88.496-1.584.496ZM55.315 93h-1.68v-7.728h1.68v1.136a3.572 3.572 0 0 1 1.12-.944 2.862 2.862 0 0 1 1.392-.368v1.664a2.548 2.548 0 0 0-.528-.048c-.352 0-.73.107-1.136.32-.395.203-.677.437-.848.704V93Zm10.267 0h-1.68v-.832c-.598.683-1.43 1.024-2.496 1.024a2.861 2.861 0 0 1-1.872-.672c-.544-.459-.816-1.088-.816-1.888 0-.821.266-1.445.8-1.872a2.972 2.972 0 0 1 1.888-.64c1.098 0 1.93.33 2.496.992V87.96c0-.448-.166-.8-.496-1.056-.33-.256-.768-.384-1.312-.384-.864 0-1.627.325-2.288.976l-.688-1.168c.874-.832 1.957-1.248 3.248-1.248.95 0 1.722.224 2.32.672.597.448.896 1.157.896 2.128V93Zm-3.52-.96c.842 0 1.456-.267 1.84-.8v-1.168c-.384-.533-.998-.8-1.84-.8-.48 0-.875.128-1.184.384-.31.256-.464.592-.464 1.008 0 .416.154.752.464 1.008.31.245.704.368 1.184.368Zm9.218 1.152c-1.174 0-2.133-.379-2.88-1.136-.747-.768-1.12-1.744-1.12-2.928 0-1.173.373-2.139 1.12-2.896.746-.768 1.706-1.152 2.88-1.152 1.29 0 2.277.459 2.96 1.376l-1.104 1.024c-.427-.608-1.019-.912-1.776-.912-.704 0-1.27.24-1.696.72-.427.47-.64 1.083-.64 1.84 0 .757.213 1.376.64 1.856.427.48.992.72 1.696.72.736 0 1.328-.304 1.776-.912l1.104 1.024c-.683.917-1.67 1.376-2.96 1.376Zm6.753 0c-.65 0-1.147-.17-1.488-.512-.33-.341-.496-.832-.496-1.472v-4.464h-1.28v-1.472h1.28V83.16h1.68v2.112h1.568v1.472h-1.568v4.048c0 .277.064.501.192.672.128.16.31.24.544.24.341 0 .592-.09.752-.272l.4 1.264c-.352.33-.88.496-1.584.496Z" fill="#141414"/><path fill-rule="evenodd" clip-rule="evenodd" d="M173.115 36.393a8.017 8.017 0 0 1 3.356 1.877 8.01 8.01 0 0 1 1.995 2.964l3.507-.048a11.306 11.306 0 0 0-8.988-8.25l-.086-2.286-4.84 4.018 5.134 3.802-.078-2.077Z" fill="#103654"/><path fill-rule="evenodd" clip-rule="evenodd" d="M152.144 60.43a8.01 8.01 0 0 1-3.356-1.877 8.011 8.011 0 0 1-1.995-2.964l-3.507.048a11.305 11.305 0 0 0 8.988 8.25l.086 2.286 4.84-4.018-5.134-3.802.078 2.077Z" fill="#92C9EC"/><path d="m184.376 54.606-2.794-1.455.947-3.014a1.158 1.158 0 0 0-.289-1.166l-2.044-2.044a1.157 1.157 0 0 0-1.166-.289l-3.015.947-1.455-2.795a1.151 1.151 0 0 0-1.027-.623h-2.899c-.427 0-.831.242-1.028.623l-1.455 2.795-3.014-.947a1.132 1.132 0 0 0-1.155.289l-2.055 2.044a1.158 1.158 0 0 0-.289 1.166l.947 3.014-2.795 1.455a1.151 1.151 0 0 0-.623 1.028v2.899c0 .427.242.831.623 1.027l2.795 1.456-.947 3.002c-.127.416-.023.866.289 1.166l2.055 2.056c.3.312.751.416 1.155.289l3.014-.947 1.455 2.794c.197.381.601.624 1.028.624h2.899a1.15 1.15 0 0 0 1.027-.624l1.455-2.794 3.015.947c.404.127.854.023 1.166-.29l2.044-2.055c.312-.3.416-.75.289-1.166l-.947-3.002 2.794-1.456c.381-.196.624-.6.624-1.027v-2.899c0-.439-.243-.831-.624-1.028Zm-12.287 7.726a5.258 5.258 0 0 1-5.254-5.254c0-2.887 2.355-5.243 5.254-5.243a5.254 5.254 0 0 1 5.243 5.243c0 2.898-2.356 5.254-5.243 5.254Z" fill="#103654"/><path d="m165.128 41.717 1.473-4.053c.138-.415.058-.864-.242-1.175l-3.488-3.811 3.132-4.1c.264-.345.31-.794.138-1.186l-1.831-3.915a1.164 1.164 0 0 0-1.001-.668l-5.158-.219-.679-5.112a1.146 1.146 0 0 0-.749-.933l-4.064-1.474a1.156 1.156 0 0 0-1.174.23l-3.799 3.5-4.111-3.143a1.133 1.133 0 0 0-1.185-.126l-3.915 1.83a1.13 1.13 0 0 0-.656.99l-.219 5.171-5.123.68a1.158 1.158 0 0 0-.932.748l-1.474 4.065a1.13 1.13 0 0 0 .23 1.163l3.5 3.812-3.143 4.099a1.165 1.165 0 0 0-.127 1.186l1.831 3.915c.184.392.564.645 1.002.668l5.157.22.68 5.123c.057.426.345.783.748.933l4.064 1.462a1.166 1.166 0 0 0 1.174-.23l3.8-3.5 4.11 3.143c.333.265.794.311 1.186.127l3.914-1.831c.38-.173.645-.564.656-.99l.219-5.16 5.123-.69c.426-.046.783-.346.933-.749Zm-13.724-1.82c-.967.45-2.003.68-3.062.68a7.274 7.274 0 0 1-6.563-4.168 7.226 7.226 0 0 1 3.489-9.627 7.081 7.081 0 0 1 3.062-.691 7.284 7.284 0 0 1 6.563 4.18c1.692 3.616.126 7.934-3.489 9.627Z" fill="#92C9EC"/><path d="M126.677 93h-1.872v-9.024h-3.232v-1.648h8.336v1.648h-3.232V93Zm5.247 0h-1.68v-7.728h1.68v1.136a3.576 3.576 0 0 1 1.12-.944 2.862 2.862 0 0 1 1.392-.368v1.664a2.543 2.543 0 0 0-.528-.048c-.352 0-.73.107-1.136.32-.394.203-.677.437-.848.704V93Zm10.267 0h-1.68v-.832c-.597.683-1.429 1.024-2.496 1.024a2.861 2.861 0 0 1-1.872-.672c-.544-.459-.816-1.088-.816-1.888 0-.821.267-1.445.8-1.872a2.972 2.972 0 0 1 1.888-.64c1.099 0 1.931.33 2.496.992V87.96c0-.448-.165-.8-.496-1.056-.331-.256-.768-.384-1.312-.384-.864 0-1.627.325-2.288.976l-.688-1.168c.875-.832 1.957-1.248 3.248-1.248.949 0 1.723.224 2.32.672.597.448.896 1.157.896 2.128V93Zm-3.52-.96c.843 0 1.456-.267 1.84-.8v-1.168c-.384-.533-.997-.8-1.84-.8-.48 0-.875.128-1.184.384a1.246 1.246 0 0 0-.464 1.008c0 .416.155.752.464 1.008.309.245.704.368 1.184.368Zm12.594.96h-1.68v-4.832c0-1.067-.517-1.6-1.552-1.6a2.24 2.24 0 0 0-1.136.304 2.74 2.74 0 0 0-.848.736V93h-1.68v-7.728h1.68v1.056c.288-.341.672-.635 1.152-.88a3.396 3.396 0 0 1 1.568-.368c.822 0 1.44.213 1.856.64.427.427.64 1.04.64 1.84V93Zm4.822.192c-1.386 0-2.49-.4-3.312-1.2l.768-1.216c.288.299.678.555 1.168.768.491.213.976.32 1.456.32.491 0 .864-.096 1.12-.288.267-.192.4-.443.4-.752 0-.277-.16-.49-.48-.64a4.424 4.424 0 0 0-1.168-.368 21.683 21.683 0 0 1-1.376-.336 2.608 2.608 0 0 1-1.168-.72c-.32-.341-.48-.784-.48-1.328 0-.661.272-1.216.816-1.664.544-.459 1.286-.688 2.224-.688 1.184 0 2.187.363 3.008 1.088l-.704 1.184a2.642 2.642 0 0 0-.976-.672 3.342 3.342 0 0 0-1.312-.256c-.437 0-.789.09-1.056.272-.256.17-.384.395-.384.672 0 .213.112.39.336.528.235.128.523.224.864.288.352.064.731.155 1.136.272.406.107.779.235 1.12.384.352.15.64.395.864.736.235.33.352.736.352 1.216 0 .704-.282 1.28-.848 1.728-.565.448-1.354.672-2.368.672Zm6.987-.192h-1.68v-6.256h-1.28v-1.472h1.28v-.432c0-.832.219-1.483.656-1.952.448-.48 1.046-.72 1.792-.72.8 0 1.419.224 1.856.672l-.656 1.04a1.28 1.28 0 0 0-.896-.336c-.33 0-.592.112-.784.336-.192.213-.288.533-.288.96v.432h1.568v1.472h-1.568V93Zm6.33.192c-1.195 0-2.155-.39-2.88-1.168-.725-.79-1.088-1.755-1.088-2.896s.363-2.101 1.088-2.88c.725-.779 1.685-1.168 2.88-1.168 1.205 0 2.171.39 2.896 1.168.725.779 1.088 1.739 1.088 2.88 0 1.152-.363 2.117-1.088 2.896-.725.779-1.691 1.168-2.896 1.168Zm0-1.488c.693 0 1.237-.245 1.632-.736.405-.501.608-1.115.608-1.84 0-.715-.203-1.317-.608-1.808-.395-.501-.939-.752-1.632-.752-.683 0-1.227.25-1.632.752-.395.49-.592 1.093-.592 1.808 0 .725.197 1.339.592 1.84.405.49.949.736 1.632.736ZM176.768 93h-1.68v-7.728h1.68v1.136a3.576 3.576 0 0 1 1.12-.944 2.862 2.862 0 0 1 1.392-.368v1.664a2.543 2.543 0 0 0-.528-.048c-.352 0-.731.107-1.136.32-.395.203-.677.437-.848.704V93Zm15.019 0h-1.68v-5.04c0-.928-.421-1.392-1.264-1.392-.352 0-.693.101-1.024.304a2.378 2.378 0 0 0-.768.72V93h-1.68v-5.04c0-.928-.427-1.392-1.28-1.392a1.91 1.91 0 0 0-1.008.304c-.32.203-.576.448-.768.736V93h-1.68v-7.728h1.68v1.056c.192-.288.523-.565.992-.832.48-.277.987-.416 1.52-.416 1.12 0 1.824.475 2.112 1.424.245-.384.608-.715 1.088-.992.48-.288.992-.432 1.536-.432 1.483 0 2.224.779 2.224 2.336V93Z" fill="#141414"/><circle cx="258.5" cy="42.5" r="16.042" fill="#92C9EC"/><path d="M281.364 31.884a25.206 25.206 0 0 0-22.925-14.592" stroke="#92C9EC" stroke-width="3"/><path d="m284.384 27.025-2.81 6.365-6.407-2.828" stroke="#92C9EC" stroke-width="3"/><path stroke="#103654" stroke-width="2" d="m266.752 33.623-4.094 4.094M258.456 29.194v5.79"/><path d="M269.116 65.364a25.205 25.205 0 0 0 14.592-22.925" stroke="#92C9EC" stroke-width="3"/><path d="m273.975 68.384-6.365-2.81 2.828-6.407" stroke="#92C9EC" stroke-width="3"/><path stroke="#103654" stroke-width="2" d="m267.377 50.752-4.094-4.094M271.806 42.456h-5.79"/><path d="M235.636 53.116a25.206 25.206 0 0 0 22.925 14.592" stroke="#92C9EC" stroke-width="3"/><path d="m232.616 57.975 2.81-6.365 6.407 2.828" stroke="#92C9EC" stroke-width="3"/><path stroke="#103654" stroke-width="2" d="m250.248 51.377 4.094-4.094M258.544 55.806v-5.79"/><path d="M247.884 19.636a25.205 25.205 0 0 0-14.592 22.925" stroke="#92C9EC" stroke-width="3"/><path d="m243.025 16.616 6.365 2.81-2.828 6.407" stroke="#92C9EC" stroke-width="3"/><path stroke="#103654" stroke-width="2" d="m249.623 34.248 4.094 4.094M245.194 42.544h5.79"/><path d="M248.173 93h-6.576V82.328h1.872v9.024h4.704V93Zm4.895.192c-1.194 0-2.154-.39-2.88-1.168-.725-.79-1.088-1.755-1.088-2.896s.363-2.101 1.088-2.88c.726-.779 1.686-1.168 2.88-1.168 1.206 0 2.171.39 2.896 1.168.726.779 1.088 1.739 1.088 2.88 0 1.152-.362 2.117-1.088 2.896-.725.779-1.69 1.168-2.896 1.168Zm0-1.488c.694 0 1.238-.245 1.632-.736.406-.501.608-1.115.608-1.84 0-.715-.202-1.317-.608-1.808-.394-.501-.938-.752-1.632-.752-.682 0-1.226.25-1.632.752-.394.49-.592 1.093-.592 1.808 0 .725.198 1.339.592 1.84.406.49.95.736 1.632.736ZM265.152 93h-1.68v-.832c-.597.683-1.429 1.024-2.496 1.024a2.861 2.861 0 0 1-1.872-.672c-.544-.459-.816-1.088-.816-1.888 0-.821.267-1.445.8-1.872a2.972 2.972 0 0 1 1.888-.64c1.099 0 1.931.33 2.496.992V87.96c0-.448-.165-.8-.496-1.056-.331-.256-.768-.384-1.312-.384-.864 0-1.627.325-2.288.976l-.688-1.168c.875-.832 1.957-1.248 3.248-1.248.949 0 1.723.224 2.32.672.597.448.896 1.157.896 2.128V93Zm-3.52-.96c.843 0 1.456-.267 1.84-.8v-1.168c-.384-.533-.997-.8-1.84-.8-.48 0-.875.128-1.184.384a1.246 1.246 0 0 0-.464 1.008c0 .416.155.752.464 1.008.309.245.704.368 1.184.368Zm12.818.96h-1.68v-1.056c-.64.832-1.466 1.248-2.48 1.248-1.013 0-1.84-.363-2.48-1.088-.64-.725-.96-1.712-.96-2.96 0-1.237.32-2.224.96-2.96.64-.736 1.467-1.104 2.48-1.104 1.014 0 1.84.421 2.48 1.264v-4.016h1.68V93Zm-3.68-1.296c.395 0 .779-.096 1.152-.288.374-.192.656-.437.848-.736v-3.072c-.192-.299-.474-.544-.848-.736a2.384 2.384 0 0 0-1.152-.304c-.661 0-1.189.24-1.584.72-.394.48-.592 1.099-.592 1.856 0 .757.198 1.376.592 1.856.395.47.923.704 1.584.704Z" fill="#141414"/></svg>