<svg width="106" height="119" fill="none" xmlns="http://www.w3.org/2000/svg"><rect x=".5" y=".5" width="105" height="118" rx="7.5" fill="#fff" stroke="#EDEDED"/><g clip-path="url(#a)"><rect x="29.056" y="38.111" width="49.653" height="35.139" rx="2" fill="#92C9EC"/><path d="M26.764 33.528h53.472v4.583H26.764v-4.583Z" stroke="#92C9EC" stroke-width="2" stroke-linejoin="round"/><path d="M41.08 73.883h-.572l-.29.494-6.21 10.59-.883 1.505h4.98l.29-.494 6.21-10.589.883-1.506H41.08ZM65.92 73.883h.572l.29.494 6.21 10.59.883 1.505h-4.98l-.29-.494-6.21-10.589-.883-1.506h4.407Z" stroke="#92C9EC" stroke-width="2"/><path d="m38.863 58.677 11.976-8.824 6.653 4.853 10.201-10.59" stroke="#103654" stroke-width="2"/><path d="m67.472 48.649.912-4.947-5.046.333" stroke="#103654" stroke-width="2"/><path fill="#103654" d="M62.667 52.625h3.819v15.278h-3.819zM55.028 57.972h3.819v9.931h-3.819zM48.153 55.681h3.819v12.222h-3.819zM41.278 60.264h3.819v7.639h-3.819z"/><path fill="#fff" d="M36.694 73.25h34.375v1.528H36.694z"/></g><defs><clipPath id="a"><path fill="#fff" transform="translate(26 32)" d="M0 0h55v55H0z"/></clipPath></defs></svg>