<svg width="106" height="119" fill="none" xmlns="http://www.w3.org/2000/svg"><rect x=".5" y=".5" width="105" height="118" rx="7.5" fill="#fff" stroke="#EDEDED"/><path fill-rule="evenodd" clip-rule="evenodd" d="M76.417 32H30.583A4.589 4.589 0 0 0 26 36.583v34.375a4.589 4.589 0 0 0 4.583 4.584h45.834A4.589 4.589 0 0 0 81 70.958V36.583A4.589 4.589 0 0 0 76.417 32Zm-48.584 4.583a2.753 2.753 0 0 1 2.75-2.75h45.834a2.753 2.753 0 0 1 2.75 2.75v32.084H27.833V36.583Z" fill="#92C9EC"/><path d="M55.792 77.833h-4.584v4.584h-7.791a2.753 2.753 0 0 0-2.75 2.75v.916c0 .507.41.917.916.917h23.834c.507 0 .916-.41.916-.917v-.916a2.753 2.753 0 0 0-2.75-2.75h-7.791v-4.584Z" fill="#92C9EC"/><rect x="41.278" y="36.583" width="24.444" height="3.056" rx="1.528" fill="#103654"/><path d="M46.417 47.503a7.257 7.257 0 1 0 3.233 8.648l-6.862-2.363 3.629-6.285Z" fill="#92C9EC"/><path d="M49.073 57.417a7.257 7.257 0 0 0-2.656-9.914l-3.629 6.285 6.285 3.629ZM58.14 57.888a7.257 7.257 0 1 0 8.616-10.275l-2.18 6.922-6.435 3.353Z" fill="#EAF5FB"/><path d="M58.584 50.44a7.258 7.258 0 1 0 13.247 3.931l-7.255.164-5.992-4.094Z" fill="#92C9EC"/><path d="M67.33 47.82a7.257 7.257 0 0 0-8.862 2.797l6.108 3.918 2.755-6.714Z" fill="#6E93AA"/></svg>