<svg xmlns="http://www.w3.org/2000/svg" width="557" height="555" viewBox="0 0 557.03 555.09"><title>machine-learning-header-before</title><g fill="#046097" opacity=".5"><path d="M31.92 387.06c.66 2 .67 3.29 0 2.93-1.57-.86-4.34-8.13-3.15-8.28a.51.51 0 0 1 .24.07c1 .71 2.32 3.51 2.89 5.28m13.2 6.4c.62 2.17.3 3.36-.74 2.71-2.08-1.31-4.36-7.55-2.93-8a.76.76 0 0 1 .47.06c1.39.75 2.71 3.53 3.2 5.27m16.84 6.84c.54 2.27-.19 3.4-1.59 2.45-2.42-1.65-4.23-7.39-2.45-7.77a1.27 1.27 0 0 1 .61.07c1.71.8 3 3.55 3.43 5.25zm20.19 7.25c.42 2.39-.78 3.41-2.5 2.16-2.73-2-4-7.14-1.83-7.45a1.64 1.64 0 0 1 .73.09c2 .83 3.33 3.54 3.6 5.2zm23.23 7.52c.25 2.48-1.45 3.4-3.45 1.85-2.74-2.15-3.46-6.85-1.08-7.1a2.43 2.43 0 0 1 .85.11c2.26.84 3.51 3.51 3.68 5.14zm25.92 7.72c.06 2.72-2.47 3.41-4.68 1.27-2.46-2.4-2.45-6.25 0-6.45a3.8 3.8 0 0 1 1 .11 5.81 5.81 0 0 1 3.7 5.07m28.39 7.67c-.19 2.79-3.39 3.32-5.61.93-2.38-2.57-1.64-6.17 1.23-6a4.21 4.21 0 0 1 .71.12 5.21 5.21 0 0 1 3.67 5m30.44 7.61c-.5 3-4.69 3.2-6.68.29-1.85-2.7-.28-5.69 2.75-5.25l.39.08a4.63 4.63 0 0 1 3.49 4.88zm32.23 7.52c-.87 3.15-5.72 3.13-7.41 0-1.22-2.27.28-5.42 4-4.74 3 .82 3.8 3.28 3.39 4.77m33.35 7.15c-1.19 3.08-6.19 3.11-7.65.05-1.06-2.21.79-5.3 4.62-4.68 3 .77 3.59 3.17 3 4.63m32.52 6.32c-1.48 3-6.4 3.16-7.52.21-.81-2.14 1.32-5.19 5-4.66 2.9.68 3.22 3 2.51 4.45m31.08 5.5c-1.77 3-6.57 3.23-7.34.37-.56-2.06 1.84-5.08 5.36-4.65a2.72 2.72 0 0 1 2 4.28M17.76 376.13l1.1 2.81-3-7.77c.34.83 1.2 3.1 1.9 5m4.94 5.07c.23.66 1 2.84.72 3.12-.72 0-3.86-7.9-3.35-8.43h.13c.7.68 1.9 3.59 2.5 5.26m-.62-29.66c.4 2.35.08 3.68-.74 3-1.73-1.41-3.29-8.54-1.9-8.67a.6.6 0 0 1 .27.07c1.1.76 2 3.73 2.37 5.59m14.21 6.91c.34 2.48-.37 3.74-1.56 2.74-2.22-1.86-3.42-8.4-1.55-8.43a1.18 1.18 0 0 1 .37.09c1.47.85 2.49 3.76 2.74 5.6zm18.15 7.4c.26 2.62-.92 3.78-2.46 2.44-2.5-2.17-3.27-8.17-1-8.13a1.8 1.8 0 0 1 .46.1c1.82.86 2.88 3.79 3 5.59zm21.77 7.85c.13 2.7-1.6 3.76-3.42 2.1-2.74-2.5-3-7.88-.43-7.79a2.07 2.07 0 0 1 .55.11c2.14.89 3.22 3.8 3.3 5.58zm25 8.1c0 2.83-2.32 3.75-4.38 1.75-2.7-2.61-2.52-7.53.28-7.4a2.68 2.68 0 0 1 .63.11c2.45.9 3.51 3.78 3.5 5.53zm28 8.27c-.23 3.13-3.41 3.75-5.6 1.09-2.32-2.83-1.53-6.83 1.32-6.69a4.75 4.75 0 0 1 4.34 5.12 3.93 3.93 0 0 1-.07.47zm30.56 8.32c-.45 3.24-4.33 3.67-6.5.72s-.71-6.72 2.48-6.22l.39.08a5.18 5.18 0 0 1 3.62 5.41zm32.82 8.26c-.71 3.36-5.29 3.58-7.32.36-1.81-2.89-.13-6.44 3.72-5.7a4.78 4.78 0 0 1 3.6 5.34zm34.77 8.05c-1 3.53-6.29 3.55-8 0-1.39-2.78.62-5.95 4.49-5.26 3.24.88 4 3.6 3.55 5.24m36 7.72c-1.27 3.47-6.67 3.55-8.25.12-1.26-2.73 1-5.87 5-5.23 3.25.83 3.87 3.48 3.28 5.11m35 6.86c-1.5 3.43-6.78 3.62-8.07.29-1-2.64 1.43-5.77 5.24-5.24 3.12.75 3.53 3.34 2.83 4.95zm33.43 5.94c-1.72 3.41-6.84 3.72-7.83.48-.78-2.57 1.83-5.7 5.47-5.26a3.21 3.21 0 0 1 2.77 3.58 3.42 3.42 0 0 1-.41 1.2zm-325-95.43c.16.71.67 3.05.66 3.41-.32-.28-2.09-8.49-2.07-9 .26.64 1 3.71 1.37 5.5m5.37 5.55c.44 2.19.44 3.58 0 3.24-1.07-.83-2.89-8.61-2.07-8.85 0 0 .11 0 .15.06.69.69 1.53 3.66 1.91 5.55m4.93-31.84c.06 2.42-.55 3.82-1.37 3.13-1.75-1.48-2.32-8.93-.69-9.06a.6.6 0 0 1 .29.08c1.08.85 1.67 3.95 1.72 5.9zm15 7.28c0 2.78-1.15 4.05-2.4 2.66-2-2.23-2.17-8.61-.21-8.64a1.37 1.37 0 0 1 .4.09c1.47.92 2.15 4.05 2.15 5.92zm19.14 7.82c-.09 2.88-1.77 4.05-3.32 2.32-2.26-2.53-2.09-8.37.23-8.33a2.11 2.11 0 0 1 .5.1c1.9.91 2.66 4 2.59 5.91zm23 8.25c-.22 3.05-2.46 4.07-4.29 1.94-2.38-2.76-1.86-8 .78-8a2.94 2.94 0 0 1 .59.12c2.23.94 3 4 2.92 5.91m26.39 8.57c-.36 3.22-3.19 4.07-5.23 1.57-2.41-2.95-1.53-7.69 1.39-7.58a3.87 3.87 0 0 1 .68.12c2.52 1 3.37 4 3.16 5.89zm29.49 8.72c-.52 3.35-4 4-6.16 1.19-2.4-3.21-.89-7.67 2.42-7.13l.38.08a5.49 5.49 0 0 1 3.36 5.86zm32.23 8.8c-.7 3.5-4.91 4-7 .8s-.29-7.22 3.11-6.7l.41.09a5.16 5.16 0 0 1 3.48 5.81zm34.5 8.74c-.91 3.65-5.81 3.92-7.82.43-1.76-3 .25-6.95 4.24-6.18a4.89 4.89 0 0 1 3.58 5.75zm36.66 8.51c-1.1 3.63-6.32 3.92-8.33.46-1.75-3 .5-6.88 4.69-6.14a4.64 4.64 0 0 1 3.69 5.44 2 2 0 0 1-.05.24zm37.93 8.12c-1.34 3.81-7 3.94-8.7.19-1.19-2.67.91-6.44 5.25-5.75 3.42.87 4.08 3.78 3.46 5.56zm36.9 7.23c-1.48 3.8-7 4.05-8.46.39-1.13-2.86 1.47-6.34 5.38-5.8a4 4 0 0 1 3.3 4.61 4.3 4.3 0 0 1-.22.8zm35.37 6.3c-1.53 3.55-6.56 4.14-8 .94-1.27-2.78 1.41-6.66 5.34-6.2a3.68 3.68 0 0 1 3 4.22 3.84 3.84 0 0 1-.34 1M.96 301a24.35 24.35 0 0 1 .08 3.52c-.46-.3-1-8.81-.81-9.28a42.45 42.45 0 0 1 .68 5.73m5.67 5.86c.11 2.27-.15 3.72-.61 3.36-1.12-.88-1.85-9-.83-9.21a.24.24 0 0 1 .18.05c.7.74 1.16 3.84 1.26 5.8zm10.78-32.15c-.3 2.67-1.3 4.1-2.13 3.07-1.58-2-.87-9.57.85-9.16l.16.07c1.14.83 1.34 4 1.12 6m15.5 7.5c-.39 2.88-1.81 4.19-3 2.76-1.91-2.32-1.2-8.91.95-8.94a1.5 1.5 0 0 1 .43.1c1.55.88 1.87 4.08 1.61 6.08m19.75 8.06c-.47 3-2.43 4.23-3.89 2.42-2.12-2.62-1.2-8.68 1.31-8.64a2.36 2.36 0 0 1 .53.1c1.93.94 2.36 4.14 2 6.12m23.73 8.51c-.6 3.34-3.38 4.3-5 1.74-2.08-3.21-.57-8.49 2.27-8l.31.08c2.28 1 2.81 4.18 2.46 6.15m27.18 8.85c-.73 3.55-4.12 4.3-6 1.32-2.07-3.37-.31-8.1 2.81-7.56l.36.08c2.58 1 3.18 4.2 2.78 6.16m30.46 9c-.82 3.54-4.58 4.28-6.59 1.29-2.27-3.37-.31-8.07 3.13-7.52l.39.09c2.86 1 3.52 4.19 3.07 6.14zm33.25 9.06c-1 3.71-5.4 4.25-7.43.89s.08-7.85 4.12-7a5.12 5.12 0 0 1 3.31 6.13m35.69 8.95c-1.11 3.91-6.23 4.23-8.18.52-1.68-3.21.58-7.38 4.7-6.6a5 5 0 0 1 3.48 6.08zm37.81 8.79c-1.22 3.9-6.64 4.25-8.65.56a4.52 4.52 0 0 1 1.74-6.15 4.57 4.57 0 0 1 3.26-.45 4.83 4.83 0 0 1 3.71 5.72 2.86 2.86 0 0 1-.07.28m39.13 8.41a4.85 4.85 0 0 1-8.79.68c-1.72-3.14.83-7.31 5.24-6.61a4.63 4.63 0 0 1 3.68 5.42 4.77 4.77 0 0 1-.13.51zm38.08 7.45c-1.37 3.87-6.7 4.42-8.52.88a4.8 4.8 0 0 1 5.23-6.68 4.37 4.37 0 0 1 3.48 5.11 4.43 4.43 0 0 1-.19.69zm36.4 6.49c-1.42 3.87-6.55 4.55-8.19 1.09a5 5 0 0 1 5.22-6.75 4.14 4.14 0 0 1 3.24 4.88 3.69 3.69 0 0 1-.24.78M.74 261.83a16.81 16.81 0 0 1-.52 3.6c-.59-.32.18-9 .51-9.5H.8a32.3 32.3 0 0 1-.06 5.9zm5.79 6c-.23 2.54-.81 4-1.31 3.34-1.09-1.47-.51-9.68.66-9.35l.1.06c.69.8.74 3.93.55 5.95zm16.55-32.88c-.73 2.9-2.12 4.34-2.85 2.94-1.29-2.46.49-9.51 2.29-9.09l.17.07c1.12.83.91 4.06.39 6.08zm15.62 7.58c-.82 3.1-2.69 4.41-3.71 2.6-1.57-2.78.32-9.3 2.56-8.83l.22.07c1.53.9 1.47 4.14.93 6.16zm19.95 8.15c-.91 3.31-3.31 4.47-4.59 2.23-1.73-3.06.29-9 2.88-8.52l.27.07c1.92.94 2 4.22 1.44 6.22zm23.92 8.6c-1 3.46-4 4.47-5.47 1.82-1.75-3.15.23-9 3.56-8.09 2.28 1 2.49 4.25 1.91 6.27zm27.51 8.9c-1.1 3.71-4.7 4.52-6.33 1.42-1.75-3.33.39-8.58 4-7.72 2.58 1 2.91 4.29 2.32 6.3m30.73 9.09c-1.12 3.71-5.07 4.51-6.92 1.4-2-3.34.25-8.6 4.24-7.72 2.86 1 3.29 4.31 2.68 6.32zm33.56 9.15c-1.21 3.92-5.81 4.52-7.69 1s.6-8.16 4.67-7.33c3.12 1 3.65 4.3 3 6.32m36.12 9.08a4.42 4.42 0 0 1-8.38.63c-1.6-3.42.84-7.73 5.08-6.93a5 5 0 0 1 3.31 6.26zm38.19 8.87a4.73 4.73 0 0 1-8.8.68 4.8 4.8 0 0 1 5.25-7 4.92 4.92 0 0 1 3.64 5.94 3.37 3.37 0 0 1-.09.34m39.53 8.51a4.84141 4.84141 0 0 1-9.29-2.73l.07-.21a4.84 4.84 0 0 1 9.22 2.94zm38.5 7.53c-1.31 4.15-6.67 4.8-8.57 1a4.94 4.94 0 0 1 5.16-7.11 4.68 4.68 0 0 1 3.55 5.58 4.25 4.25 0 0 1-.14.51m36.8 6.54c-1.28 4.17-6.41 4.95-8.19 1.24-1.55-3.24.86-7.67 5-7.2a4.52 4.52 0 0 1 3.37 5.43 4.11 4.11 0 0 1-.17.57M6.36 222a15.48 15.48 0 0 1-1.14 3.68h-.09c-.31-1.12 1.29-8.87 2-9.53h.08c.2.67-.36 3.84-.82 5.87m5.77 6.07c-.62 2.59-1.47 4.09-1.94 3.41-1-1.5.75-9.8 2-9.45a.21.21 0 0 1 .1.06c.68.76.3 3.95-.19 6m22-31.94c-1.11 2.75-2.73 4.07-3.35 2.72-1.07-2.36 1.6-9 3.45-8.53l.16.06c1.1.79.47 3.82-.25 5.72zm15.46 7.51c-1.23 2.94-3.23 4.19-4.14 2.41-1.26-2.56 1.2-9.12 3.83-8.25 1.5.84 1.08 3.9.31 5.84zm19.77 8c-1.33 3.3-4.14 4.26-5.08 1.75-1.13-3 1.39-8.5 4.22-7.68 1.87.93 1.63 4.03.86 5.93zm23.63 8.5c-1.42 3.56-4.78 4.33-5.9 1.35-1.19-3.18 1.36-8.18 4.52-7.35 2.25 1.03 2.15 4.12 1.38 6.03zm27.22 8.81c-1.4 3.57-5.12 4.32-6.53 1.31-1.5-3.21 1.08-8.23 4.67-7.36 2.51 1.03 2.61 4.16 1.86 6.08zm30.39 9c-1.44 3.79-5.77 4.34-7.24.93s1.13-7.87 4.94-7c2.81 1 3 4.16 2.3 6.09m33.24 9c-1.4 3.81-6 4.37-7.76.93s.91-7.9 5-7.06a4.61 4.61 0 0 1 2.83 5.89l-.09.24m35.7 9c-1.42 4-6.67 4.41-8.38.58a4.78 4.78 0 0 1 2.3-6.36 4.85 4.85 0 0 1 3-.35 4.68 4.68 0 0 1 3.21 5.79c0 .11-.07.23-.11.34zm37.84 8.79a4.75 4.75 0 0 1-9.09-2.75 2.41 2.41 0 0 1 .08-.25 4.75 4.75 0 0 1 9 3zm39.06 8.36a4.77 4.77 0 0 1-9.26-2.28 4.64 4.64 0 0 1 .16-.53 4.77 4.77 0 0 1 9.1 2.81zm38.09 7.52a4.52 4.52 0 0 1-8.42 1 4.66 4.66 0 1 1 8.42-1zm36.41 6.45c-1 3.93-5.66 4.89-7.77 1.61s.08-8 4.35-7.49a4.7 4.7 0 0 1 3.48 5.66l-.06.22zM17.54 183.33c-.22.57-1.32 3.38-1.75 3.4-.51-.56 2.51-8.93 3.23-9 .16.66-.79 3.62-1.52 5.51m5.86 6.09c-1 2.56-2.21 4-2.56 3-.66-1.81 2.11-9 3.33-8.7l.11.05c.64.74-.13 3.74-.88 5.64m26.88-30.1c-1.53 2.7-3.45 3.83-3.8 2.25-.52-2.33 2.77-8.38 4.72-7.62 1 .83.08 3.61-.92 5.37zm15 7.26c-1.62 2.91-4 3.91-4.56 1.92-.72-2.61 2.48-8.18 4.88-7.39 1.39.83.64 3.67-.35 5.47zm19.15 7.81c-1.66 3.08-4.59 3.95-5.29 1.57-.85-2.81 2.25-8 5-7.15 1.79.89 1.23 3.8.26 5.58m22.91 8.24c-1.7 3.26-5.19 4-6 1.2-.91-3 2.09-7.69 5.19-6.88 2.13.93 1.77 3.88.83 5.68m26.33 8.53c-1.75 3.54-5.76 4-6.7.83s2-7.37 5.34-6.58c2.4 1 2.23 3.93 1.33 5.75zm29.44 8.71c-1.62 3.5-6 4-7.22.83s1.71-7.45 5.34-6.64c2.68 1 2.68 4 1.85 5.81zm32.18 8.76c-1.6 3.76-6.57 4.06-7.81.48-1.08-3.1 1.7-7.11 5.43-6.34 3 1.01 3.15 4.01 2.35 5.86zm34.56 8.69c-1.47 3.79-6.68 4.12-8.2.53a4.79 4.79 0 0 1 2.76-6.19 4.74 4.74 0 0 1 2.61-.23 4.36 4.36 0 0 1 3 5.36c-.11.18-.11.36-.2.53zm36.56 8.46a4.62 4.62 0 1 1-2.92-5.84 4.61 4.61 0 0 1 2.92 5.84zm37.87 8.11a4.61 4.61 0 0 1-8.87-2.5 2.17 2.17 0 0 1 .07-.24 4.61 4.61 0 0 1 8.8 2.74zm36.89 7.22a4.34 4.34 0 0 1-8.09 1 4.53 4.53 0 0 1 1.63-6.21 4.48 4.48 0 0 1 2.91-.58 4.76 4.76 0 0 1 3.57 5.72.36.36 0 0 1 0 .1m35.24 6.22a4 4 0 0 1-7.39 1.56c-2.08-3-.2-7.76 3.84-7.3a4.8 4.8 0 0 1 3.55 5.74zM34.17 146.83c-.29.51-1.77 3.08-2.26 3.07-.53-.55 3.57-8.24 4.39-8.22.14.63-1.19 3.36-2.17 5.11m5.65 5.83c-1.37 2.39-2.75 3.64-3 2.72-.42-1.4 3.07-8.73 4.56-8 .59.71-.55 3.49-1.54 5.24m148.33 387.94l-.71-.25-1.39-.48-1.62-.58c1.22.43 2.44.88 3.67 1.3m5 1.62c1 .35 1.7.56 1.92.63l-.58-.18a52 52 0 0 1-5-1.71h.07c1.19.38 2.36.83 3.55 1.24m5.24 1.56l1.4.49a43.27 43.27 0 0 1-4.57-1.58h.11c1 .31 2 .72 3.06 1.08m5.68 1.55c.3.12.61.22.9.36a18.75 18.75 0 0 1-3.57-1.28h.16c.48.14 1.19.41 2.5.91m6.11 1.55a1.56 1.56 0 0 1 .4.22 7 7 0 0 1-2.57-1h.28a12.77 12.77 0 0 1 1.89.74m6.46 1.54c.1.11 0 .13-.12.12-.48 0-1.81-.52-1.62-.7s.22 0 .5 0a2.87 2.87 0 0 1 1.24.57m6.68 1.44c-.4.14-1.68-.13-1.59-.33s.39-.2 1.08-.07.68.29.58.36h-.07m6.51 1.31a5.9 5.9 0 0 1-1.82-.22 5.44 5.44 0 0 1 2.05 0c.27.06.37.11.31.16a1.11 1.11 0 0 1-.54.08m6.23 1.09a18.39 18.39 0 0 1-2.22-.25 31.18 31.18 0 0 1 3.35.16 5.34 5.34 0 0 1-1.13 0m-95.48-32.86l1.22.69zm9 4.72c.86.47 1.73.91 2.56 1.42-.65-.23-6.31-3.32-7.13-3.89.34.16.34.16 4.52 2.47m6.21 2.47c.75.4 1.48.83 2.19 1.3a49.16 49.16 0 0 1-6.63-3.66h.1c.53.22 2 1 4.34 2.34m7.39 2.68a9.35 9.35 0 0 1 1.76 1.15 29.58 29.58 0 0 1-6-3.39h.14a42.09 42.09 0 0 1 4.07 2.21m8.53 2.78a5.22 5.22 0 0 1 1.33 1c-.39.2-5.25-2.65-5.3-3.11h.32a24.15 24.15 0 0 1 3.72 2.07m9.5 2.85c.7.54 1 .88.82.92-.69.13-4.68-2.37-4.49-2.83 0-.08.23 0 .36 0a15 15 0 0 1 3.31 1.92m10.33 2.82c.49.47.6.77.3.79-.94.06-4-2-3.64-2.52.08-.13.35-.07.51 0a7.94 7.94 0 0 1 2.83 1.76m11.19 2.77c.31.52.06.79-.6.63-1.38-.34-3-1.87-2.36-2.22a1.06 1.06 0 0 1 .66 0 4.33 4.33 0 0 1 2.3 1.59zm11.81 2.74c0 .81-1.54.72-2.5-.16-.68-.62-.57-1.26.22-1.32a1.82 1.82 0 0 1 .57 0c1.16.3 1.7 1 1.71 1.43m12.2 2.66c-.61.81-2.76.49-2.91-.43-.08-.49.6-1 1.89-.82s1.29.9 1 1.25m11.92 2.33c-1 .57-3.14.52-3-.23.09-.49 1.33-1.06 2.68-.85 1.06.23.82.74.41 1l-.11.07m11.39 2c-1.36.43-3.49.45-3.18-.09s2.19-1 3.59-.85c.83.18.48.49.29.62a3 3 0 0 1-.72.33zm-135.14-47.78c2.11 1.62 2.31 1.81 2.41 1.9a67.33 67.33 0 0 1-6.85-5.15c.46.27 1.94 1.37 4.39 3.25m6.89 3.32a13.61 13.61 0 0 1 2 1.79c-.36.13-6.32-4.37-6.57-5a.33.33 0 0 1 .14 0 46.87 46.87 0 0 1 4.38 3.17m8.83 3.61c.76.65 1.67 1.46 1.65 1.66-.56.25-6.31-4.19-6.16-4.75h.22a27.8 27.8 0 0 1 4.29 3.09zm10.43 3.75c1 .94 1.47 1.55 1.15 1.55-1 0-5.92-4-5.59-4.49 0-.08.19 0 .34 0a18.94 18.94 0 0 1 4.1 2.94zm12 3.9c.82.87 1.09 1.44.66 1.43-1.32 0-5.66-3.78-4.94-4.26.1-.07.27 0 .44 0a12.53 12.53 0 0 1 3.84 2.81m13.46 4c.67.88.67 1.41 0 1.29-1.68-.31-4.88-3.37-4.12-3.95.15-.12.45-.05.62 0a8.88 8.88 0 0 1 3.51 2.67m14.69 4c.51 1 .1 1.42-.93 1.07-1.93-.66-4-3.15-2.93-3.6a1.2 1.2 0 0 1 .75 0 5.93 5.93 0 0 1 3.11 2.53zm15.8 4c.27 1.14-.9 1.44-2.33.6-1.62-1-2.31-2.67-1.2-3a1.87 1.87 0 0 1 .88 0 3.87 3.87 0 0 1 2.65 2.37m16.72 3.92c-.17 1.36-2.5 1.28-3.67-.14-.91-1.12-.34-2.24 1.11-2.14l.42.06c1.62.43 2.22 1.55 2.14 2.22zm17.31 3.7c-.77 1.37-3.68 1.08-4.09-.41-.28-1 .82-1.93 2.59-1.63 1.6.4 1.84 1.43 1.5 2m16.86 3.34c-1.28 1.22-4 1.07-4.11-.21 0-.86 1.42-1.94 3.31-1.65 1.53.35 1.39 1.3.8 1.86zm16.11 2.85c-1.69 1.07-4.38 1-4.17 0 .17-.81 2.19-1.91 4.07-1.67 1.45.31.93 1.18.1 1.7M88.24 478.51a16.36 16.36 0 0 1 1.92 2.23c-1-.47-6.25-5.76-6.09-6.16h.11a39.41 39.41 0 0 1 4.1 3.86m8.66 4.29c.61.67 1.61 1.83 1.54 2.12-.57.31-6-5.08-6-5.88v-.05c0-.05.09 0 .23 0a23.09 23.09 0 0 1 4.15 3.76m11.18 4.56c1 1.19 1.41 2 1 2-1.09.05-6-5-5.58-5.71.07-.11.21-.06.38 0a16.68 16.68 0 0 1 4.16 3.7m13.34 4.8c.92 1.24 1.1 2 .43 1.88-1.67-.34-5.83-4.91-5-5.49.13-.1.31 0 .5 0a12.33 12.33 0 0 1 4.07 3.6m15.35 5c.73 1.18.69 1.9-.11 1.75-1.88-.36-5.43-4.45-4.51-5.22.2-.16.53-.07.73 0a9.37 9.37 0 0 1 3.89 3.49m17.12 5c.61 1.31.14 2-1.09 1.51-2.2-.83-4.61-4.24-3.43-4.86a1.3 1.3 0 0 1 .87 0 7.16 7.16 0 0 1 3.65 3.36m18.72 5.09c.42 1.5-.77 2-2.42 1.06-2.23-1.31-3.34-4-1.77-4.34a1.89 1.89 0 0 1 .85 0 5.4 5.4 0 0 1 3.36 3.33zm20.09 5c.11 1.68-2 2-3.7.5s-1.77-3.59 0-3.66a3.65 3.65 0 0 1 .74.08 4 4 0 0 1 3 3.08m21.29 4.94c-.36 1.87-3.42 1.8-4.75-.11-1.1-1.57 0-3.15 1.95-2.87h.27c2 .54 2.7 2 2.53 2.93m22 4.77c-.89 1.83-4.39 1.64-5.14-.28-.5-1.27.73-2.89 3.18-2.48 2 .5 2.36 1.91 2 2.76m21.37 4.2c-1.38 1.75-4.89 1.62-5.15-.19-.17-1.2 1.49-2.75 3.87-2.4 1.93.55 1.91 1.88 1.28 2.69zm20.5 3.73c-1.73 1.57-5.08 1.62-5.12.07 0-1.16 2.07-2.8 4.51-2.49 1.87.37 1.5 1.65.61 2.42zM82.15 474.68c2 2 2.23 2.28 2.31 2.39-.39-.22-5.9-5.76-6.27-6.32.17.15.51.44 3.92 3.91m-16.66-23.35c.94 1.34 1.71 2.65 1.32 2.55-1-.26-5.9-6.79-5.23-7h.16a23.11 23.11 0 0 1 3.75 4.39m10.41 5.11c1 1.54 1.35 2.54.83 2.42-1.43-.33-5.88-6.31-5.06-6.81a.42.42 0 0 1 .31 0c1.2.63 3 3 3.92 4.35m13.27 5.51c.88 1.5 1 2.44.32 2.3-1.71-.37-5.73-5.84-4.82-6.58.13-.12.32-.06.52 0 1.46.67 3.22 3 4 4.28m15.89 5.67c.79 1.55.61 2.46-.4 2.12-2.26-.77-5.55-5.69-4.24-6.34a.94.94 0 0 1 .66 0c1.62.66 3.31 2.85 4 4.2m18.31 5.94c.65 1.63.12 2.47-1.2 1.92-2.51-1.05-5.08-5.52-3.48-6.06a1.37 1.37 0 0 1 .8 0 7.94 7.94 0 0 1 3.87 4.14zm20.42 6.05c.49 1.78-.63 2.52-2.34 1.55-2.62-1.48-4.13-5.14-2.31-5.59a2 2 0 0 1 .92 0 6.48 6.48 0 0 1 3.73 4m22.35 6.13c.26 2-1.78 2.53-3.78.91-2.26-1.84-2.58-4.75-.54-4.87a3.15 3.15 0 0 1 .81.09 5.24 5.24 0 0 1 3.5 3.87zm24 6c-.09 2.19-2.94 2.44-4.85.42s-1.25-4.37 1-4.24l.61.09a4.16 4.16 0 0 1 3.21 3.73m25.44 5.91c-.53 2.3-4.29 2.24-5.75-.09-1.19-1.91 0-4 2.88-3.51 2.39.67 3.11 2.52 2.86 3.63zm26.3 5.62c-1 2.36-5.22 2.17-6.14-.28-.59-1.59.86-3.63 3.78-3.15 2.37.63 2.82 2.4 2.37 3.46zm25.62 5c-1.48 2.28-5.63 2.17-6.09-.17-.29-1.51 1.54-3.49 4.36-3.08 2.28.58 2.38 2.27 1.72 3.3zm24.49 4.34c-1.78 2.07-5.69 2.18-6 .17-.24-1.65 2.18-3.59 4.87-3.25 2.17.47 2 2.08 1.1 3.08m-233.75-65.7a24.08 24.08 0 0 1 1.81 2.67 47.93 47.93 0 0 1-5.38-7.13h.08a55.07 55.07 0 0 1 3.49 4.41m-11.82-26.41c.87 1.76 1.17 2.9.72 2.79-1.12-.29-5-7.12-4.34-7.69.07-.06.17 0 .26 0 1 .64 2.54 3.24 3.36 4.88m11.89 5.81c.83 1.84.86 3 .07 2.61-1.87-.83-5.21-7-4.06-7.51a.68.68 0 0 1 .4 0c1.28.69 2.87 3.26 3.59 4.86m15.22 6.26c.7 1.79.49 2.86-.5 2.48-2.19-.84-5.22-6.5-3.9-7.3a.74.74 0 0 1 .65 0c1.57.72 3.14 3.25 3.75 4.81m18.24 6.56c.61 1.9 0 2.9-1.32 2.27-2.5-1.17-5-6.37-3.31-7a1.1 1.1 0 0 1 .8 0c1.84.75 3.35 3.22 3.83 4.74m21 6.78c.49 2.11-.68 3-2.46 1.87-2.7-1.71-4.22-6-2.32-6.58a1.79 1.79 0 0 1 1 0 7.12 7.12 0 0 1 3.82 4.66m23.4 6.94c.3 2.28-1.63 3-3.68 1.37-2.61-2.08-3.19-5.86-.92-6a3 3 0 0 1 .85.09 6.07 6.07 0 0 1 3.75 4.58m25.62 6.93c0 2.48-2.74 2.95-4.87.82-2.31-2.3-1.94-5.52.61-5.39a4.49 4.49 0 0 1 .64.1 5.23 5.23 0 0 1 3.6 4.52zm27.51 6.92c-.31 2.72-4 2.86-5.94.23-1.79-2.4-.56-5.05 2.17-4.65l.35.07a4.42 4.42 0 0 1 3.42 4.35zm29.1 6.77c-.71 2.75-5.06 2.7-6.65-.06-1.16-2 .1-4.78 3.49-4.17 2.74.75 3.5 2.92 3.16 4.23zm30.16 6.51c-1.16 2.85-6 2.66-7-.28-.69-1.89 1-4.33 4.31-3.79 2.74.69 3.24 2.8 2.72 4.07m29.34 5.75c-1.55 2.79-6.28 2.69-6.93-.14-.42-1.81 1.56-4.21 4.78-3.75 2.63.61 2.83 2.64 2.15 3.88zm28.07 5c-1.79 2.55-6.19 2.73-6.73.27-.39-1.78 2-4.38 5.17-4 2.49.54 2.41 2.5 1.56 3.71m-268-75.35a12 12 0 0 1 1.27 2.92c-.69-.27-4.63-7.31-4.39-7.85h.1a31 31 0 0 1 3 4.89m32.38-289c-1.86 2.47-3.93 3.48-4.11 2-.26-2.14 3.73-7.65 5.62-6.92 1 .73-.32 3.31-1.51 4.91m14.16 6.91c-1.93 2.67-4.43 3.57-4.76 1.73-.44-2.42 3.36-7.52 5.67-6.76 1.32.78.27 3.41-.91 5m18.13 7.43c-2 2.84-4.94 3.62-5.4 1.41-.54-2.61 3-7.33 5.71-6.56 1.69.74.85 3.42-.29 5.06zm21.71 7.81c-2 3-5.46 3.67-6 1.09-.61-2.8 2.76-7.13 5.72-6.35 2 .87 1.38 3.6.3 5.26m25 8.09c-2 3.32-5.94 3.77-6.61.76s2.59-6.87 5.74-6.11c2.28.81 1.88 3.58.87 5.26zm28 8.26c-1.8 3.31-6.08 3.77-7 .77s2.15-7 5.61-6.2c2.54.9 2.37 3.72 1.43 5.43m30.46 8.2c-1.73 3.56-6.53 3.84-7.55.44-.87-2.91 2-6.68 5.55-5.95 2.77.94 2.83 3.8 2 5.51zm32.78 8.24c-1.53 3.61-6.53 3.93-7.87.5a4.71 4.71 0 0 1 3.06-5.92 4.8 4.8 0 0 1 2.29-.14 4 4 0 0 1 2.74 5 3.07 3.07 0 0 1-.22.6zm34.74 8.07c-1.32 3.67-6.48 4-8.11.58a4.52 4.52 0 0 1 5.08-6.19 4.22 4.22 0 0 1 3.16 5.08 3.24 3.24 0 0 1-.16.53m35.91 7.69a4.37 4.37 0 1 1-3.36-5.6 4.49 4.49 0 0 1 3.42 5.35zm35 6.85a4 4 0 0 1-7.39 1.28c-2-3-.13-7.41 3.89-6.87a4.68 4.68 0 0 1 3.5 5.55m33.45 6a3.72 3.72 0 0 1-6.9 1.53c-2.08-2.91-.51-7.46 3.31-7a4.85 4.85 0 0 1 3.59 5.49M55.08 114.16c-1.54 2-2.75 3.17-2.77 2.65 0-1.11 4.82-7.6 5.47-7.31.1.58-1.54 3.06-2.74 4.62m5.32 5.56c-1.66 2.17-3.22 3.3-3.41 2.45-.29-1.31 4.08-8 5.54-7.22.53.65-.92 3.18-2.13 4.77zm33.82-23.79c-2.13 2.2-4.32 3.09-4.32 1.79 0-1.94 4.6-6.84 6.39-6.16.86.64-.69 2.97-2.07 4.37zm13.18 6.39c-2.22 2.4-4.76 3.19-4.87 1.51-.15-2.18 4.17-6.75 6.34-6 1.2.72-.14 3.08-1.47 4.53m16.8 6.83c-2.23 2.57-5.21 3.26-5.4 1.24-.24-2.37 3.77-6.62 6.26-5.9 1.53.76.41 3.19-.86 4.66zm20.2 7.24c-2.2 2.77-5.63 3.32-5.91 1-.3-2.55 3.39-6.47 6.16-5.75 1.83.8 1 3.28-.25 4.79m23.13 7.47c-2.15 3-6 3.37-6.38.66s3.08-6.27 6-5.56c2.09.82 1.47 3.35.36 4.9m25.89 7.65c-2 3.06-6.05 3.47-6.74.69s2.57-6.4 5.78-5.69c2.34.84 2 3.43 1 5m28.29 7.71c-1.84 3.32-6.38 3.57-7.14.41-.66-2.7 2.27-6.17 5.56-5.5 2.57.84 2.47 3.51 1.58 5.09zm30.39 7.65c-1.57 3.37-6.27 3.67-7.39.47-1-2.74 1.73-6.3 5.24-5.64a3.6 3.6 0 0 1 2.45 4.45 3.23 3.23 0 0 1-.3.72zm32.18 7.47c-1.29 3.47-6.1 3.82-7.56.56a4.3 4.3 0 0 1 4.83-5.79 3.9 3.9 0 0 1 2.9 4.69 3.09 3.09 0 0 1-.17.54zm33.31 7.13a4 4 0 0 1-7.45.71 4.08 4.08 0 0 1 4.32-6 4.23 4.23 0 0 1 3.18 5.07c0 .06 0 .12-.05.18m32.45 6.36c-.64 3.39-4.76 4.16-6.79 1.27s-.3-7 3.42-6.49a4.55 4.55 0 0 1 3.37 5.22zm31 5.53c-.33 3.27-3.82 4.31-6 1.79-2.45-2.8-1.14-7.19 2.1-7h.37a4.84 4.84 0 0 1 3.55 5.19M80.05 84.98c-1.79 1.77-3.19 2.79-3.19 2.31 0-.72 5.7-7.08 6.42-6.41.1.56-1.97 2.8-3.23 4.1zm4.93 5.11c-1.93 1.93-3.63 2.91-3.73 2.14-.15-1.18 5-7.1 6.41-6.39.47.6-1.29 2.84-2.68 4.25zm36.38-20.66c-2.36 1.9-4.59 2.65-4.43 1.48.22-1.64 5.44-5.92 7-5.31.74.59-1.08 2.6-2.61 3.83m11.93 5.77c-2.43 2.09-5 2.76-4.88 1.28.14-1.93 4.89-5.9 6.9-5.26 1.05.64-.55 2.71-2 4m15.16 6.18c-2.43 2.26-5.35 2.85-5.29 1.06.06-2.1 4.41-5.83 6.71-5.17 1.34.68 0 2.81-1.42 4.11zm18.21 6.54c-2.4 2.45-5.69 2.93-5.69.82 0-2.26 3.94-5.73 6.47-5.07 1.63.71.52 2.92-.78 4.25zm20.93 6.74c-2.31 2.66-6 3-6 .57s3.51-5.59 6.19-5c1.87.74 1 3-.16 4.38m23.35 7.05c-2.06 2.75-5.9 3.12-6.31.61s2.92-5.75 5.84-5.11c2.09.71 1.53 3.04.47 4.5zm25.56 7c-1.9 3-6.09 3.24-6.6.37-.42-2.44 2.5-5.59 5.49-5 2.3.76 2 3.15 1.11 4.61m27.45 6.92c-1.58 3.09-5.88 3.37-6.77.44-.76-2.49 1.86-5.73 5-5.14 2.46.75 2.5 3.2 1.73 4.7m29.11 6.76c-1.24 3.19-5.62 3.52-6.89.52a4 4 0 0 1 4.52-5.31 3.51 3.51 0 0 1 2.55 4.26 4.72 4.72 0 0 1-.18.53zm30.08 6.34a3.6 3.6 0 0 1-6.73.68 3.76 3.76 0 0 1 3.88-5.5 3.92 3.92 0 0 1 2.86 4.76zm29.3 5.74c-.46 3.15-4.14 3.88-6.06 1.2s-.46-6.47 2.89-6a4.33 4.33 0 0 1 3.17 4.82m28 4.94c-.12 3-3.19 4-5.3 1.69-2.34-2.59-1.38-6.68 1.53-6.53h.33a4.8 4.8 0 0 1 3.44 4.81M108.59 59.58c-2 1.53-3.52 2.36-3.47 1.94.08-.65 6.48-6.1 7.2-5.47 0 .49-2.27 2.42-3.73 3.53zm4.46 4.61c-2.14 1.65-4 2.48-4 1.8 0-1 5.83-6.13 7.15-5.48.42.56-1.73 2.55-3.18 3.68m39-17.72c-2.61 1.61-4.84 2.2-4.5 1.2.47-1.39 6.16-4.94 7.62-4.4.64.54-1.57 2.25-3.11 3.2zm10.33 5c-2.63 1.75-5.15 2.3-4.82 1 .43-1.64 5.57-5 7.38-4.4.93.58-1.08 2.36-2.56 3.35m13.27 5.46c-2.62 1.92-5.43 2.4-5.11.87.38-1.79 5-5 7.07-4.37 1.2.62-.57 2.47-2 3.5m15.9 5.7c-2.55 2.11-5.66 2.51-5.35.69s4.44-4.92 6.69-4.34c1.39.65.04 2.54-1.33 3.68zm18.25 5.91c-2.31 2.19-5.55 2.61-5.59.72s3.78-5.1 6.3-4.51c1.6.67.55 2.63-.7 3.82zm20.38 6c-2.15 2.41-5.65 2.74-5.76.54s3.24-5 5.82-4.46c1.79.65 1 2.68-.06 3.92zm22.29 6.06c-1.84 2.53-5.42 2.89-5.9.61s2.52-5.2 5.28-4.65c2 .66 1.55 2.76.62 4m23.96 6.17c-1.57 2.78-5.4 3-6 .42-.53-2.2 2-5.09 4.75-4.57 2.13.65 2 2.82 1.28 4.15m25.28 5.89c-1.15 2.81-5.06 3.14-6.07.51a3.73 3.73 0 0 1 2.46-4.65 3.84 3.84 0 0 1 1.65-.12 3.06 3.06 0 0 1 2.15 3.68 3.35 3.35 0 0 1-.19.53m26.19 5.61a3.08 3.08 0 0 1-5.7.94c-1.47-2.3.14-5.72 3.2-5.26a3.55 3.55 0 0 1 2.5 4.32zm25.54 5c-.27 2.73-3.17 3.54-5 1.4-2-2.3-.82-6 1.8-5.78h.3a4.07 4.07 0 0 1 2.91 4.34m24.45 4.36c.09 2.67-2.24 3.68-4.23 1.83-2.28-2.11-2-6 .4-6.2a2.62 2.62 0 0 1 .56 0c2.16.5 3.21 2.85 3.27 4.35m-237-69.55c-.35.2-3.41 1.9-3.75 1.62 0-.72 7.36-4.93 7.89-4.51.04.42-2.5 2-4.14 2.89zm3.88 4c-2.37 1.38-4.24 2-4.16 1.46.12-.89 6.59-5.09 7.81-4.5.33.48-2.06 2.12-3.65 3m39.75-13.61c-2.59 1.18-4.75 1.66-4.54 1 .34-1 6.67-4 8.11-3.53.49.44-1.93 1.78-3.57 2.52m8.67 4.22c-2.65 1.33-5 1.79-4.74.93.38-1.24 6.08-4.13 7.78-3.6.73.47-1.48 1.89-3 2.67m11 4.52c-2.62 1.48-5.18 1.91-4.88.83.38-1.4 5.49-4.18 7.35-3.66 1.07.55-.93 2.02-2.4 2.85zm13.28 4.77c-2.54 1.65-5.3 2-5 .72.35-1.54 4.84-4.21 6.86-3.7 1.11.5-.42 2-1.86 3m15.38 4.93c-2.4 1.83-5.33 2.18-5.07.6s4.16-4.23 6.3-3.73c1.25.54.01 2.13-1.23 3.13zm17 5.06c-2.09 1.93-5.06 2.32-5.13.66s3.39-4.44 5.7-3.94c1.47.54.55 2.24-.57 3.28zm18.64 5.09c-1.85 2.17-5 2.49-5.16.54s2.73-4.42 5-3.95c1.63.54 1 2.32.11 3.41m20.07 5c-1.45 2.27-4.57 2.64-5.14.62s1.89-4.61 4.34-4.17c1.76.55 1.52 2.4.8 3.55zm21.19 4.94c-1 2.33-4.11 2.78-5.05.73a3.33 3.33 0 0 1 2.06-4.23 3.29 3.29 0 0 1 1.49-.16 2.57 2.57 0 0 1 1.65 3.22 2.39 2.39 0 0 1-.15.44zm21.94 4.7a2.55 2.55 0 0 1-4.77.86c-1.22-2 .11-5 2.66-4.61a3.12 3.12 0 0 1 2.11 3.75zm21.36 4.21c-.09 2.44-2.47 3.18-4.09 1.27s-.92-5.24 1.25-5.1h.25a3.78 3.78 0 0 1 2.59 3.8m20.43 3.65c.28 2.22-1.38 3.21-3.12 1.85-2.17-1.7-2.42-5.48-.37-5.7a1.69 1.69 0 0 1 .45 0c1.82.42 2.87 2.49 3 3.83M175.22 21.07c-.61.24-3.66 1.43-4 1.2 0-.67 7.88-3.84 8.45-3.42 0 .33-2.7 1.51-4.48 2.22m3.28 3.36c-2.53 1.06-4.45 1.55-4.29 1.09.26-.72 7.23-4 8.34-3.46.23.39-2.36 1.66-4 2.37m40.46-9.81c-2.57.78-4.59 1.11-4.51.73.13-.58 7.15-3 8.48-2.52 0 .42-2.63 1.33-4 1.75m6.83 3.34c-2.61.91-4.76 1.24-4.59.71.27-.81 6.55-3.12 8.08-2.65.52.35-1.87 1.38-3.49 1.94zm8.69 3.55c-2.57 1-4.85 1.38-4.61.69.34-1 6-3.23 7.57-2.79.69.38-1.45 1.49-3 2.1m10.43 3.75c-2.47 1.18-4.87 1.51-4.58.64.38-1.13 5.21-3.34 7-2.91.87.41-1 1.61-2.38 2.27m11.96 3.87c-2.31 1.35-4.8 1.68-4.51.6.33-1.26 4.44-3.44 6.27-3 1 .43-.54 1.71-1.76 2.42m13.38 3.94c-2.1 1.54-4.66 1.84-4.42.53s3.7-3.49 5.52-3.11c1.11.42 0 1.76-1.1 2.58zm14.63 4c-1.79 1.72-4.46 2-4.33.45s2.88-3.54 4.74-3.18c1.24.41.51 1.84-.42 2.71zm15.7 3.95c-1.35 1.83-3.95 2.17-4.21.55s2-3.76 3.92-3.42c1.35.43 1 1.94.29 2.87zm16.64 3.85c-.9 2-3.4 2.35-4.06.64a2.91 2.91 0 0 1 2.09-3.56 2.79 2.79 0 0 1 .91-.09c1.47.43 1.48 2 1 3m17.27 3.71c-.38 1.95-2.51 2.52-3.62 1s-.13-4.38 1.94-4.08a2.64 2.64 0 0 1 1.68 3.11m16.77 3.27c.07 1.94-1.57 2.68-2.94 1.31-1.62-1.61-1.29-4.61.51-4.51h.19a3.5 3.5 0 0 1 2.24 3.18zm16 2.82c.44 1.79-.58 2.7-2 1.78-2-1.28-2.72-4.8-1.11-5a1 1 0 0 1 .35 0c1.44.33 2.47 2.09 2.75 3.23M211.67 8.98a23.62 23.62 0 0 1-4.09.78v-.08c.73-.64 8.37-2.54 8.88-2.21-.3.36-4 1.31-4.76 1.49m2.52 2.64c-.43.12-4.17 1.12-4.35.75.3-.67 7.91-2.75 8.75-2.39 0 .46-3.95 1.54-4.4 1.66zm40.69-5.71a22.35 22.35 0 0 1-4.39.41v-.05c.73-.55 7.84-1.64 8.74-1.35v.07a28 28 0 0 1-4.34.94m4.78 2.32c-.41.08-4 .78-4.39.46 0-.54 7.17-1.94 8.3-1.62-.2.37-3.08 1-4 1.13m6.2 2.53c-2.52.62-4.49.83-4.29.45.36-.69 6.48-2.09 7.71-1.77a.18.18 0 0 1 .07.08c-.19.43-3.35 1.19-3.44 1.24zm7.33 2.64c-2.42.74-4.43 1-4.13.47.44-.78 5.74-2.26 7-2 .67.33-2.38 1.33-2.51 1.37l-.35.12m8.42 2.76c-2.25.9-4.27 1.15-3.93.49.47-.91 4.87-2.43 6.19-2.14.66.29-.97 1.17-2.26 1.65zm9.41 2.79c-2 1-4 1.31-3.69.49.39-1 4-2.57 5.31-2.31.77.3-.59 1.28-1.62 1.82zm10.29 2.8c-1.77 1.29-3.66 1.41-3.45.48s3-2.72 4.39-2.46c.87.31-.11 1.38-.94 2m11.09 2.76c-1.21 1.33-3.1 1.67-3.21.59s2-3 3.44-2.72c.91.35.42 1.43-.23 2.13zm11.67 2.72c-.77 1.52-2.64 1.86-3 .55a2.49 2.49 0 0 1 2.47-2.83c1 .3.9 1.51.52 2.28m12.12 2.59c-.22 1.45-1.61 2-2.44 1s-.23-3.47 1.08-3.38h.15a2.14 2.14 0 0 1 1.21 2.4m11.79 2.29c.23 1.39-.61 2.09-1.62 1.35-1.37-1-1.7-3.7-.47-3.86h.26a3.17 3.17 0 0 1 1.83 2.5m11.28 2c.54 1.27.19 2.06-.74 1.66-1.64-.71-2.89-3.8-2-4.21a.62.62 0 0 1 .33 0c1 .24 2 1.68 2.42 2.58M249.77 1.95a33 33 0 0 1-4.2.3c.8-.4 8.72-1.25 9.21-1a38.37 38.37 0 0 1-5 .73m1.79 1.85a24.5 24.5 0 0 1-4.36.34c.29-.58 8.55-1.4 9.06-1.2-.17.25-3.64.71-4.7.86zm41.06-1.38a25.38 25.38 0 0 1-4.27-.06c.34-.33 8.41-.25 8.94-.1a38.82 38.82 0 0 1-4.66.16m2.59 1.23a28.6 28.6 0 0 1-4.14 0c.5-.4 7.83-.51 8.43-.35a32.28 32.28 0 0 1-4.29.31m3.31 1.39a27 27 0 0 1-3.92.16 37.08 37.08 0 0 1 7.8-.58c-.05 0-.19.17-3.86.47m4 1.43a17.53 17.53 0 0 1-3.69.25c.25-.44 6.18-1.07 7-.88a23.86 23.86 0 0 1-3.36.59m4.63 1.52c-1.2.24-3.25.59-3.38.35.22-.48 5.28-1.32 6.15-1.15a11 11 0 0 1-2.81.78m5.15 1.54c-2 .59-3.19.69-3 .39.35-.5 4.23-1.53 5.13-1.37l.06.05c-.06.28-2.12.9-2.21.93m5.61 1.52c-1.61.74-2.79.88-2.59.46.29-.6 3.21-1.75 4.07-1.61.39.16-1.04.89-1.52 1.13zm6 1.51c-1.15.89-2.28 1.06-2.18.51a4.38 4.38 0 0 1 2.95-1.82c.47.17-.32 1-.77 1.31zm6.35 1.47c-.61 1-1.61 1.24-1.78.63-.22-.77 1-2.2 1.81-2.1.5.17.28 1 0 1.47m6.55 1.41c-.06 1.06-.79 1.4-1.25.84-.66-.8-.21-2.48.47-2.46h.07c.54.16.74 1.05.71 1.61m6.4 1.26c.37 1 .08 1.42-.42 1.17-1-.49-1.66-2.74-1.1-2.9h.13c.49.13 1.08 1.08 1.35 1.74zm6.12 1.09c.61.81.76 1.41.35 1.35-.8-.13-3-2.92-2.49-3.18h.1a5.88 5.88 0 0 1 2 1.84M289.86.29c-3.18-.1-4-.15-4.28-.2.5-.32 9.37.29 9.43.31zm1 1a34.1 34.1 0 0 1-4.29-.13 72.76 72.76 0 0 1 9.22.15 40.87 40.87 0 0 1-4.95 0m39.34 3.37c-1.35-.19-2.71-.33-4.06-.54 1.36.16 2.72.34 4.07.54m.34.13c-1.28-.15-2.56-.25-3.84-.43.8 0 5.79.61 8.47 1-1.28-.17-2.49-.33-4.63-.58m.44.23c-1.18-.1-2.36-.17-3.54-.3.68 0 5.55.44 7.79.72-1.36-.12-2.3-.23-4.25-.4zm.54.19c-1.06-.06-2.13-.07-3.19-.17.56-.06 5.13.25 7 .43-1.16-.09-2.07-.16-3.78-.26m.58.2h-2.77a59.25 59.25 0 0 1 6 .12c-1.2 0-1.81-.07-3.25-.09M332.86 5.68c-2.25.12-2.25.12-2.33.11a46.34 46.34 0 0 1 5-.2 25.39 25.39 0 0 0-2.67.09m.73.19a13.74 13.74 0 0 1-1.82.25 26 26 0 0 1 3.82-.52c-1.27.08-1.27.08-2.03.23zm.8.22a6.81 6.81 0 0 1-1.26.39 13.09 13.09 0 0 1 2.55-.8c-.43.14-.87.28-1.31.44m.84.18c-.52.57-.68.56-.69.51-.06-.26 1.15-1.13 1.27-1.13-.18.17-.38.36-.58.57zm.89.19c.1.55 0 .7-.07.66s-.11-.16-.13-.43a8.34 8.34 0 0 1 0-1s.14.52.19.78m.87.16c.37.4.6.72.57.78s-.24-.17-.33-.29l-1.17-1.47s.53.5.93.93zm.82.14a6.26 6.26 0 0 1 1.15.9 28.39 28.39 0 0 1-2.79-2 15.28 15.28 0 0 1 1.64 1m10.74 462.56c-2 2.95-6.64 3.31-7.06.55-.3-2 2.33-5 5.66-4.67 2.56.52 2.36 2.73 1.4 4.12zm27.16 3.69c-2.13 2.76-6.31 3.39-6.67 1-.32-2.1 2.82-5.18 5.85-5 2.34.43 1.89 2.58.82 4zm24.68 2.73c-2.21 2.61-5.95 3.46-6.25 1.43s3.13-5.37 6-5.25c2.1.35 1.4 2.44.23 3.82m21.93 1.75c-2.36 2.6-5.82 3.57-5.79 1.62s3.61-5.3 6.17-5.3c1.82.26.88 2.31-.38 3.69zm18.76.73c-2.22 2.32-5.13 3.54-5.27 2.22-.17-1.61 3.84-5.63 6.26-5.76 1.51.16.33 2.17-1 3.54m15.34-.34c-2.2 2.23-4.68 3.57-4.73 2.56-.07-1.34 4.25-5.7 6.33-6 1.17.06-.23 2-1.6 3.42m11.41-1.34c-2.11 2.1-4.21 3.55-4.16 2.87.08-1 4.75-5.72 6.36-6.18.85 0-1.06 2.1-1.28 2.34l-.92 1m7.29-2.54a31.74 31.74 0 0 1-3.54 3.22c-.05-.43 5.49-5.88 6.35-6.41h.06a28.49 28.49 0 0 1-2.87 3.21m-111.7-33.82c-1.91 3.38-6.81 3.82-7.48.67-.53-2.46 2.3-5.62 5.64-5.29 2.76.56 2.74 3 1.84 4.62zm29.3 4c-2 3.17-6.35 3.91-7 1.18-.57-2.43 2.37-5.88 5.68-5.65 2.53.47 2.29 2.9 1.31 4.47m26.64 2.95c-2 3-5.88 4-6.47 1.67s2.63-6.11 5.71-6c2.27.37 1.82 2.75.76 4.32m23.61 1.9c-2.12 3-5.67 4.11-5.93 1.88s3-6 5.75-6.06c2 .26 1.29 2.59.14 4.16zm20.21.79c-2.1 2.85-5.12 4.18-5.29 2.33-.19-2 3.25-6.23 5.7-6.37 1.65.18.75 2.47-.41 4m16.48-.3c-1.94 2.56-4.35 4.1-4.62 2.93-.35-1.54 3.44-6.52 5.63-6.83 1.28.07.18 2.32-1 3.9m12.34-1.5c-1.84 2.41-3.83 4.06-3.94 3.28-.16-1.13 3.88-6.56 5.57-7 .88-.07-.42 2.11-1.63 3.7zm7.87-2.7a21.05 21.05 0 0 1-3.21 3.65c-.26-.52 4.56-6.71 5.46-7.3h.06c.18.35-2.06 3.33-2.31 3.67m-122.8-38.38c-1.65 3.54-6.44 4.25-7.66 1.15-1.05-2.71 1.71-6.6 5.41-6.25 2.91.6 3.1 3.34 2.25 5.1zm30.85 4.2c-1.76 3.53-6.26 4.38-7.19 1.36-.81-2.64 2-6.55 5.41-6.32 2.68.51 2.65 3.2 1.78 5m28.08 3.07c-1.75 3.34-5.67 4.48-6.56 1.89s2-6.81 5.28-6.7c2.43.4 2.2 3.06 1.3 4.81zm24.89 2c-1.81 3.34-5.37 4.6-5.95 2.11s2.35-6.75 5.21-6.77c2.1.3 1.7 2.9.74 4.66zm21.33.83c-1.78 3.19-4.75 4.68-5.22 2.62-.51-2.26 2.47-7 5-7.13 1.74.19 1.15 2.75.18 4.51m17.41-.35c-1.61 2.85-3.91 4.56-4.4 3.26-.64-1.72 2.52-7.29 4.8-7.64 1.39.07.61 2.6-.38 4.39zm13-1.59c-1.51 2.69-3.33 4.52-3.62 3.64-.41-1.27 2.89-7.33 4.64-7.87.95 0 0 2.46-1 4.23m8.28-2.85c-1 1.77-2.5 4.19-2.83 4-.24-.73 3.44-7.41 4.48-8.12h.11c.14.46-1 2.79-1.76 4.09m-132.24-41.15c-1.47 3.86-6.33 4.68-7.76 1.3a5.19 5.19 0 0 1 3.32-6.56 5 5 0 0 1 1.83-.26c3 .63 3.34 3.61 2.61 5.52zm31.84 4.32c-1.43 3.67-5.67 4.79-7.09 1.88s1.22-7.49 4.88-7.25c2.77.53 3 3.46 2.21 5.37zm28.93 3.21c-1.46 3.67-5.37 4.93-6.53 2.1s1.43-7.43 4.75-7.33c2.49.43 2.54 3.32 1.78 5.23zm25.71 2.1c-1.4 3.48-4.67 5-5.74 2.63-1.16-2.56 1.35-7.69 4.45-7.72 2.17.32 2.06 3.17 1.29 5.09zm22 .86c-1.31 3.27-4 5-4.92 3.12-1.08-2.25 1.4-7.87 4.15-8.06 1.82.21 1.54 3 .77 4.94zm17.92-.37c-1.25 3.13-3.39 5-4.09 3.57-.93-1.89 1.54-8 3.86-8.36 1.44.09 1 2.86.23 4.79zm13.43-1.64c-1.15 2.95-2.78 4.94-3.24 4-.64-1.4 1.85-8 3.61-8.59 1 0 .39 2.69-.37 4.63m8.56-3c-1.07 2.81-2.21 4.85-2.4 4.29-.29-.85 2.26-7.95 3.4-8.78.53-.16-.27 2.53-1.01 4.48zm3.2-3.67l-.81 2.18c.6-1.61 1.44-3.92 2-5.49zm-142-40.55c-1.19 3.95-5.69 5-7.52 1.85s.6-8 4.59-7.68c2.99.63 3.53 3.78 2.92 5.82zm32.18 4.33c-1.17 4-5.33 5.21-7 2.07s.69-8 4.35-7.77c2.8.54 3.21 3.66 2.62 5.7m29.27 3.24c-1.08 3.78-4.59 5.29-6.17 2.64-1.69-2.84.4-8.3 3.91-8.2 2.52.47 2.84 3.55 2.26 5.59zm25.94 2.08c-1 3.78-4.17 5.42-5.49 2.87-1.42-2.75.56-8.25 3.65-8.3 2.16.36 2.4 3.4 1.84 5.46zm22.22.87c-.94 3.54-3.47 5.41-4.59 3.38-1.35-2.41.48-8.46 3.21-8.66 1.85.25 1.92 3.25 1.38 5.31zm18.1-.38c-.85 3.4-2.78 5.42-3.69 3.86-1.18-2.05.52-8.6 2.81-9 1.47.1 1.4 3.06.88 5.12m13.57-1.67c-.76 3.19-2.16 5.34-2.77 4.26-.91-1.58.65-8.62 2.46-9.23 1 0 .81 2.9.31 5m8.65-2.95c-.67 3-1.59 5.22-1.89 4.6-.46-.95 1.09-8.57 2.18-9.42.58-.1.18 2.77-.29 4.85zm3.16-3.48l-.86 3.89v.12c.11-.74 1.88-9.06 2-9.5v.2l-1.07 5.29m-146.08-41.9c-.91 3.93-5.24 5-7.25 1.83s0-8 4-7.6c3 .63 3.71 3.76 3.24 5.77m31.84 4.33c-.77 3.77-4.44 5.14-6.43 2.41-2.12-2.91-.4-8.29 3.41-8.06 2.78.54 3.44 3.63 3 5.65m29 3.2c-.68 3.7-4 5.23-5.8 2.63-1.92-2.82-.39-8.25 3.05-8.15 2.49.43 3.1 3.49 2.73 5.52zm25.66 2c-.56 3.54-3.25 5.28-4.88 3.16-1.93-2.51-.69-8.5 2.48-8.55 2.19.33 2.72 3.35 2.4 5.39zm22 .86c-.46 3.39-2.52 5.29-3.94 3.63-1.83-2.16-.87-8.66 1.93-8.88 1.85.22 2.29 3.2 2 5.25m17.92-.36c-.39 3.4-2.05 5.41-3.16 3.84-1.44-2-.63-8.56 1.6-8.94 1.43.15 1.81 3.05 1.52 5.15zm13.43-1.64c-.31 3.19-1.42 5.33-2.2 4.25-1.14-1.58-.58-8.58 1.16-9.19 1 0 1.24 2.88 1 4.94m8.6-2.93c-.24 3-.87 5.2-1.29 4.58-.64-1-.21-8.53.82-9.36.55-.08.59 2.76.43 4.83zm3.27-4.27c-.08 1.61-.22 3.22-.4 4.82-.18-.26.48-8.91.58-9.43.06.19-.19 3.6-.19 4.66zm-147.26-41.16c-.62 3.85-4.72 4.92-6.85 1.8s-.41-7.78 3.39-7.44c2.92.61 3.78 3.67 3.46 5.64zm30.82 4.15c-.43 3.6-3.9 5-6 2.36-2.27-2.85-1-8.13 2.65-7.9 2.7.52 3.57 3.55 3.33 5.54m28.06 3.11c-.28 3.46-3.08 5.05-5.08 2.88-2.35-2.56-1.55-8.4 1.93-8.3 2.45.46 3.32 3.46 3.15 5.46zm24.89 2c-.16 3.47-2.56 5.18-4.36 3.1-2.13-2.47-1.57-8.35 1.48-8.4 2.14.32 3 3.29 2.88 5.3zm21.25.81c0 3.33-1.81 5.19-3.38 3.56-2-2.12-1.88-8.51.82-8.72 1.81.24 2.59 3.24 2.56 5.24zm17.34-.35c.06 3.12-1.16 5.11-2.41 4-1.81-1.68-2.08-8.57.23-9 1.45.15 2.15 3.04 2.18 5.04zm13-1.58c.12 2.92-.59 5-1.47 4.29-1.33-1.08-1.94-8.55-.25-9.16 1.01.04 1.63 2.88 1.73 4.88zm8.28-2.88c.18 2.73-.1 4.86-.59 4.56-.77-.47-1.69-8.32-.59-9.25.6-.13 1 2.67 1.18 4.69zm3.18-4.1a46.07 46.07 0 0 1 .22 4.7c-.36-.26-.87-8.72-.79-9.22a31.38 31.38 0 0 1 .58 4.56zM241.86 552.98c-.89-.07-1.77-.17-2.65-.29.11 0 3.78.25 4.29.32h.13a11.64 11.64 0 0 1-1.77-.06m5.44.77c-1.4-.13-2.84-.3-3-.33l5.34.46h.09c-.28 0-1.81-.1-2.38-.15m4.9.57h-.39l-1.78-.17c1.67.17 3.35.27 5 .42h.05c-.15 0-1.37-.08-3-.22m8.41-2.77c-1.58.33-3.75.4-3.44 0s3.12-1 4.55-.82c.15 0 .61.11.23.36a4.47 4.47 0 0 1-1.34.43m9.94 1.38c-1.56.23-3.63.34-3.74.14.14-.3 4.11-.94 5.52-.81.19 0 .22 0 .26.1-.05.27-1.71.52-2 .57m9 1a22.29 22.29 0 0 1-4 .18 32.58 32.58 0 0 1 6.38-.73c.12 0 .14 0 .18.06a9.17 9.17 0 0 1-2.59.52m8.05.61a29 29 0 0 1-4.17.19 65.94 65.94 0 0 1 7.16-.68h.12a19.14 19.14 0 0 1-3.11.47m6.82.32c-2 .16-4 .27-4.3.25.31-.1 7.38-.68 7.84-.68h.06c-.23.15-3.56.43-3.6.44zm5.63-.15l-2.17.16-2 .14h-.19l8.37-.7h.05c-.16 0-1.93.22-4.07.39m-21-10c-2.05 1-4.67 1-4.25.12s3-1.88 4.84-1.68c1.41.28.19 1.11.05 1.21a4.94 4.94 0 0 1-.64.35zm14.09 1.91c-2.15.79-4.69 1-4.39.36s3.71-2 5.64-1.78c.84.15.42.55.1.77a6.22 6.22 0 0 1-1.35.68zm12.79 1.45c-2.22.68-4.63 1-4.51.55s4.5-2 6.41-1.86c.17 0 .6.09.17.43a7.87 7.87 0 0 1-2.07.88zm11.36.91c-1.72.46-4.29 1-4.58.7 0-.46 5.48-2 7.09-1.91.15 0 .38.05.15.23a9.72 9.72 0 0 1-2.66 1m9.73.36a21.73 21.73 0 0 1-4.6.8c.12-.35 6.29-1.9 7.68-1.93h.15c0 .3-2.7 1-3.23 1.1m7.92-.13a41.51 41.51 0 0 1-4.55.88 76.44 76.44 0 0 1 8.16-2h.07a23.8 23.8 0 0 1-3.68 1.07m1.73.26h-.21c.24-.08 8.45-2 8.51-2-.17.08-1.74.46-2.64.68l-5.7 1.29m-39.35-16.56c-2.08 1.47-5.22 1.67-5.09.32.11-1.11 2.74-2.83 5.15-2.58 1.72.34 1.02 1.53-.04 2.26zm17.92 2.44c-2.28 1.33-5.3 1.65-5.05.54s3.49-2.85 5.78-2.66c1.46.26.51 1.28-.2 1.78-.15.11-.36.24-.53.34zm16.31 1.81c-2.48 1.24-5.34 1.67-5 .76s4.16-2.87 6.37-2.76c1.29.2 0 1.15-.25 1.34a7.73 7.73 0 0 1-1.11.66m14.44 1.15c-2.56 1.15-5.28 1.68-4.93 1s4.84-2.88 6.93-2.85c.56.07.53.34-.07.81a10.67 10.67 0 0 1-1.93 1.07m12.38.46c-2.43 1-4.93 1.63-4.85 1.22.11-.6 5.59-3 7.44-3 .16 0 .48 0 .08.39a10.48 10.48 0 0 1-2.67 1.4m10.07-.22c-1.73.68-4.32 1.55-4.7 1.42.15-.55 6.58-3 7.85-3.13h.15c-.06.38-2.76 1.46-3.3 1.68m7.58-.89a43.71 43.71 0 0 1-4.47 1.55 78.92 78.92 0 0 1 8.14-3.19h.07a31.21 31.21 0 0 1-3.74 1.65M315 516.11c-2.14 2-6 2.22-5.83.3.1-1.57 2.84-3.48 5.39-3.22 2 .4 1.47 2 .44 2.92zm21.41 2.91c-2.35 1.88-5.9 2.26-5.67.62.2-1.37 3.23-3.6 5.87-3.39 1.84.33 1 1.82-.2 2.77zm19.45 2.16c-2.52 1.76-5.8 2.31-5.49.92s3.86-3.68 6.32-3.56c1.65.26.51 1.7-.83 2.64zm17.26 1.38c-2.62 1.67-5.63 2.36-5.27 1.21s4.41-3.75 6.74-3.73c1.49.2-.34 1.7-.55 1.87s-.62.45-.92.65zm14.78.58c-2.47 1.46-5.16 2.31-5.05 1.59.15-1 5.06-3.91 7.13-4 .94.09-.06 1-.53 1.36a14.1 14.1 0 0 1-1.55 1m12.05-.2c-2.44 1.38-4.89 2.32-4.77 1.82.18-.72 5.66-3.92 7.43-4.13.15 0 .51 0-.11.59a16.28 16.28 0 0 1-2.55 1.72zm9-1.06a26.45 26.45 0 0 1-4.4 2.09 36.8 36.8 0 0 1 7.65-4.26h.12c-.19.43-2.82 1.92-3.34 2.21m2.11 0c2.37-1.33 4.74-2.68 7.11-4zm-78.73-27.27c-2.1 2.5-6.36 2.78-6.51.42-.11-1.72 2.55-4.28 5.58-4 2.31.46 1.93 2.36.93 3.55m24.54 3.36c-2.26 2.34-6.16 2.85-6.23.82-.06-1.8 3.15-4.42 5.91-4.22 2.18.35 1.53 2.15.39 3.36zm22.32 2.48c-2.38 2.2-5.92 2.91-5.92 1.18s3.59-4.56 6.22-4.44c1.96.26 1.07 2.05-.23 3.22zm19.78 1.58c-2.44 2.08-5.62 3-5.57 1.53s4-4.67 6.5-4.66c1.71.18.51 1.96-.86 3.09zm17 .66c-2.44 2-5.3 3-5.18 1.87.14-1.37 4.51-4.76 6.73-4.87 1.35.13-.09 1.84-1.55 3zm13.81-.28c-2.44 1.88-4.94 3-4.77 2.17.23-1.13 5-4.82 6.92-5.06.95 0-.44 1.41-.88 1.82s-.8.7-1.27 1.07zm10.35-1.26c-1.49 1.13-3.89 2.72-4.3 2.57-.21-.57 5.58-5 7-5.36h.15c.14.35-1.83 2-2.89 2.77m6.64-2.22q-1.86 1.46-3.83 2.74c.16-.31 6.47-5.06 7.14-5.44-.11.25-3.32 2.69-3.35 2.72m-35.5-284.45c-.32 3.47-3.84 4.68-6.07 2.09-2.51-2.91-1.2-7.63 2.09-7.54h.38c2.77.58 3.77 3.52 3.6 5.41m29.23 4c-.11 3.33-3 4.77-5.16 2.59-2.69-2.65-1.85-7.93 1.26-8h.31c2.57.5 3.63 3.42 3.56 5.34m26.6 3c.06 3.37-2.42 4.92-4.5 2.81-2.54-2.57-2.05-7.91.73-8.05h.31c2.33.4 3.43 3.3 3.46 5.23m23.58 1.9c.21 3.22-1.64 4.93-3.53 3.26-2.54-2.24-2.56-8.11 0-8.38h.26c2 .31 3.15 3.18 3.28 5.13m20.18.78c.33 3-1 4.87-2.56 3.66-2.41-1.84-2.93-8.22-.7-8.64h.23c1.73.21 2.81 3 3 5m16.48-.36c.42 2.84-.36 4.78-1.61 4-2.08-1.32-3.09-8.24-1.28-8.82h.18c1.39.1 2.42 2.9 2.71 4.86m12.34-1.54c.51 2.84.09 4.86-.87 4.17-1.43-1.06-3-8.29-1.44-8.88 1.03.03 1.98 2.78 2.34 4.74zm7.86-2.7c.54 2.65.54 4.71 0 4.42-.85-.47-2.83-8.07-1.83-9 .59-.11 1.42 2.59 1.83 4.54m3-3.88a32.08 32.08 0 0 1 .79 4.55 50.46 50.46 0 0 1-2-8.92 29.37 29.37 0 0 1 1.22 4.38m-140.19-37.6c-.07 3.31-3.22 4.47-5.44 2-2.48-2.75-1.58-7.23 1.44-7.16h.34c2.58.54 3.69 3.33 3.66 5.13m27.1 3.75c.18 3.2-2.32 4.57-4.52 2.49-2.67-2.51-2.34-7.54.5-7.57h.32c2.39.46 3.61 3.24 3.7 5.06m24.67 2.75c.36 3-1.55 4.58-3.59 2.94-2.76-2.22-3-7.78-.39-7.92h.31c2.18.38 3.47 3.14 3.7 5m21.8 1.69c.53 2.9-.79 4.57-2.62 3.33-2.74-1.87-3.64-7.93-1.22-8.21h.25c1.93.29 3.27 3 3.59 4.88zm18.73.71c.64 2.72-.18 4.49-1.68 3.65-2.59-1.45-4.11-8-1.95-8.41h.2c1.63.2 3 2.91 3.43 4.78m15.25-.31c.77 2.73.3 4.58-1 3.82-2.11-1.26-4-7.88-2.36-8.43h.16c1.31.1 2.65 2.77 3.18 4.64m11.46-1.42c.82 2.55.77 4.44-.11 4.06-1.64-.71-4-7.79-2.85-8.51l.12-.05c1 0 2.23 2.63 2.84 4.5zm7.28-2.5c.9 2.53 1.17 4.5.58 4.2-.89-.45-3.87-7.7-3-8.53.6-.11 1.79 2.47 2.44 4.36zm2.78-3.63a26.18 26.18 0 0 1 1.33 4.31h-.05a41.67 41.67 0 0 1-3.19-8.5h.06a27.82 27.82 0 0 1 1.85 4.18m-132.48-35.46c.18 2.95-2.27 4.14-4.45 2.16-2.63-2.4-2.3-7 .5-7h.31c2.34.5 3.53 3.09 3.64 4.78m24.48 3.34c.43 2.8-1.46 4.18-3.53 2.59-2.67-2-3.2-6.89-.79-7.3a2.44 2.44 0 0 1 .54 0c2.17.42 3.52 3 3.78 4.72m22.27 2.5c.64 2.7-.68 4.19-2.61 3-2.7-1.73-3.91-7-1.72-7.59a1.93 1.93 0 0 1 .48 0c2 .35 3.45 2.93 3.85 4.66m19.79 1.51c.79 2.54 0 4.13-1.68 3.28-2.62-1.36-4.52-7.13-2.57-7.81a1.51 1.51 0 0 1 .42-.05c1.71.27 3.29 2.84 3.79 4.58zm16.86.66c.9 2.39.53 4-.79 3.54-2.31-.89-4.9-7.12-3.3-7.95a1.28 1.28 0 0 1 .34-.07c1.5.18 3.09 2.73 3.75 4.48zm13.78-.28c1 2.39 1 4.11-.16 3.67-2-.8-5-7.46-3.56-8h.14c1.21.1 2.82 2.61 3.58 4.37m10.36-1.3c1.14 2.39 1.37 4.16.49 3.8-1.63-.67-4.88-7.31-3.91-8h.1c.9 0 2.48 2.48 3.32 4.23m6.55-2.24c1.22 2.37 1.75 4.21 1.13 3.92-.93-.43-4.83-7.22-4.09-8 .55-.09 2.06 2.33 3 4.07m2.48-3.32a21.62 21.62 0 0 1 1.84 4h-.06c-.76-.66-4.28-7.19-4.29-7.93h.07a25.55 25.55 0 0 1 2.44 3.91m-122.61-33.4c.4 2.53-1.39 3.72-3.36 2.23-2.52-1.91-3-6.27-.7-6.58a2.17 2.17 0 0 1 .51 0c2.05.43 3.31 2.8 3.55 4.34m21.34 2.91c.67 2.46-.58 3.76-2.47 2.58-2.63-1.64-3.87-6.47-1.77-6.89h.47c1.9.38 3.35 2.75 3.77 4.32m19.42 2.14c.86 2.33.09 3.73-1.59 2.89-2.63-1.33-4.67-6.59-2.76-7.13a1.41 1.41 0 0 1 .41 0c1.74.31 3.35 2.68 3.94 4.27m17.2 1.34c1 2.2.68 3.67-.71 3.15-2.4-.91-5.27-6.64-3.65-7.3a1 1 0 0 1 .35 0c1.55.24 3.28 2.6 4 4.2m14.75.53c1.11 2.06 1.16 3.56.1 3.33-2.05-.44-5.7-6.58-4.39-7.38a.68.68 0 0 1 .28-.07c1.33.17 3.15 2.51 4 4.12m12-.25c1.25 2.07 1.55 3.61.68 3.44-1.86-.35-6-6.88-4.72-7.43h.12c1.08.09 3 2.4 3.92 4m9-1.1c1.35 2 1.91 3.64 1.24 3.53-1.34-.2-5.84-6.77-5.07-7.39h.14c.82 0 2.68 2.29 3.75 3.9m5.73-2c1.43 2 2.24 3.66 1.79 3.62-.91-.07-5.72-6.82-5.25-7.37.42-.07 2.12 1.89 3.42 3.74zm2.2-2.86a21.33 21.33 0 0 1 2.32 3.66c-.59 0-5.38-6.81-5.42-7.26.35 0 2.34 2.59 3.08 3.59zM392.69 82.3c.55 2-.43 3.16-2 2.33-2.36-1.22-3.74-5.51-2-6.13a1.52 1.52 0 0 1 .6 0c1.73.37 3 2.47 3.41 3.84m17.84 2.34c.79 1.94.24 3.15-1.18 2.59-2.36-.92-4.62-5.61-3.07-6.35a1 1 0 0 1 .54-.07c1.61.36 3.14 2.48 3.71 3.83zm16.24 1.8c1 1.84.8 3.09-.37 2.79-2.15-.48-5.32-5.64-4.05-6.48a.82.82 0 0 1 .46-.1c1.48.27 3.21 2.39 4 3.81m14.35 1.18c1.18 1.84 1.27 3.15.21 2.9-2-.48-5.86-6-4.6-6.62a.61.61 0 0 1 .27 0c1.33.21 3.21 2.33 4.12 3.77m12.34.43c1.35 1.86 1.7 3.21.76 3-1.79-.39-6.1-5.91-5.19-6.64a.43.43 0 0 1 .22-.06c1.14.15 3.18 2.29 4.21 3.7zm10-.21c1.48 1.83 2.08 3.25 1.31 3.1-1.64-.32-6.56-6.19-5.6-6.69h.09c.94.08 3.06 2.21 4.2 3.61m7.53-.93c1.6 1.81 2.43 3.26 1.83 3.17-1.21-.2-6.53-6.1-6-6.65h.06c.65 0 2.64 1.83 4.1 3.51m4.83-1.68c1.07 1.14 2.58 2.94 2.37 3.23-.77.08-6.63-6.09-6.27-6.6.45 0 2.38 1.71 3.9 3.37zM477.7 83a20.63 20.63 0 0 1 2.79 3.26c-.64 0-6.32-6.1-6.38-6.49.4 0 2.8 2.39 3.61 3.23zm-95.36-26c.7 1.64.24 2.63-1 2.14-2-.82-4-4.78-2.66-5.37a1.14 1.14 0 0 1 .45 0c1.37.3 2.69 2.1 3.2 3.27m14 1.87c.92 1.56.83 2.6-.21 2.32-1.87-.5-4.83-4.86-3.77-5.55a.63.63 0 0 1 .38-.06c1.28.26 2.9 2.11 3.6 3.29zm12.71 1.41c1.08 1.45 1.31 2.54.53 2.46-1.6-.14-5.57-4.86-4.77-5.66a.38.38 0 0 1 .32-.09c1.18.22 3 2.09 3.92 3.29zm11.29.9c1.27 1.47 1.74 2.6 1.06 2.56-1.52-.08-6.28-5.16-5.43-5.78a.34.34 0 0 1 .2 0c1.07.18 3.12 2 4.17 3.26m9.68.34c1.45 1.48 2.14 2.64 1.56 2.63-1.18 0-6.55-5.14-6-5.79a.19.19 0 0 1 .15 0c.84.11 2.91 1.76 4.33 3.21m7.85-.21c1.59 1.47 2.48 2.66 2 2.7-.93.07-7.08-5.42-6.51-5.83h.07c.71.08 2.84 1.69 4.42 3.15m5.93-.74c1.2 1 2.58 2.36 2.51 2.72-.54.31-7.05-5.06-7-5.75.54 0 2.71 1.59 4.41 3m3.84-1.26c1.22 1 3 2.54 2.85 2.77-.61 0-6.9-4.94-7.16-5.68a21 21 0 0 1 4.29 2.94m1.46-1.91a21.7 21.7 0 0 1 3.19 2.79c-.67 0-7.15-5.27-7.26-5.59a26.25 26.25 0 0 1 4.1 2.83zm-79.15-21.8c.75 1.15.81 2 .14 1.88-1.41-.21-4.18-3.88-3.37-4.47a.45.45 0 0 1 .28 0c1 .23 2.33 1.71 3 2.64m9.8 1.29c1 1.18 1.33 2.05.7 2-1.32-.16-5.09-4.23-4.29-4.64a.54.54 0 0 1 .18 0c.93.2 2.59 1.72 3.41 2.68m9 .95c1.16 1.13 1.72 2 1.33 2.07-.92.18-5.88-4.25-5.3-4.73a.17.17 0 0 1 .14 0c.84.16 2.77 1.67 3.83 2.69m7.95.61c1.36 1.14 2.12 2 1.81 2.14-.74.24-6.43-4.23-6.08-4.79h.11a15.62 15.62 0 0 1 4.16 2.69m6.8.23c1.62 1.21 2.61 2.19 2.2 2.2-.81 0-6.92-4.44-6.67-4.86h.06a19.08 19.08 0 0 1 4.41 2.67m5.55-.17c1 .7 2.73 2 2.67 2.23-.5.18-7.32-4.33-7.29-4.82a22.78 22.78 0 0 1 4.57 2.59zm4.16-.46a14 14 0 0 1 3 2.25c-.65.12-7.56-4.42-7.7-4.77a26.62 26.62 0 0 1 4.66 2.54m2.69-.93a22.53 22.53 0 0 1 3.27 2.22c-.36.19-7.66-4.29-8-4.67a29.73 29.73 0 0 1 4.64 2.44m1.05-1.34a30.19 30.19 0 0 1 3.58 2.24c-.49.13-8-4.51-8.06-4.56a36.09 36.09 0 0 1 4.5 2.32m-61.78-17.43c.83.79 1.26 1.41 1 1.45-.61.1-4-3-3.71-3.36h.08a10 10 0 0 1 2.64 1.91m5.33.72c.26.2 1.6 1.24 1.55 1.52-.34.21-4.75-3-4.81-3.49h.06a14.94 14.94 0 0 1 3.2 2m4.88.5a9 9 0 0 1 2 1.59c-.56 0-5.52-3.22-5.74-3.61a22.19 22.19 0 0 1 3.68 2m4.38.37a14 14 0 0 1 2.48 1.64h-.05a44.82 44.82 0 0 1-6.55-3.68 29.32 29.32 0 0 1 4.1 2m3.71.18a21.22 21.22 0 0 1 2.88 1.68 65.74 65.74 0 0 1-7.27-3.74 38.39 38.39 0 0 1 4.44 2m3 0a25 25 0 0 1 3.22 1.74c-.67-.1-7.69-3.51-7.93-3.73a43 43 0 0 1 4.7 2m2.26-.28a29 29 0 0 1 3.53 1.76c-.39.07-8.34-3.62-8.39-3.66q2.47.86 4.86 2m1.44-.55a37.38 37.38 0 0 1 3.76 1.71c-.58 0-8.67-3.55-8.7-3.58.44.02 2.97 1 4.91 1.8zm.55-.74c1.87.73 3.55 1.44 3.92 1.66-.32 0-8.77-3.4-8.82-3.43.37-.01 2.97.93 4.87 1.7zm-42-12a15.28 15.28 0 0 1 1.71 1c-.06 0-.06 0-4-2.14 0 0 1.17.55 2.31 1.15M339.27 6.97c1.18.52 2.07 1 2.22 1.06q-.63-.24-1.23-.54c-1.06-.5-1.06-.5-3.92-1.75 0 0 1.43.57 2.93 1.23z"/><path d="M339.92 7.04c1.46.57 2.5 1 2.69 1.11a35.2 35.2 0 0 1-3.46-1.32l-2.72-1s1.72.6 3.49 1.29m.58 0c1.65.58 2.86 1 3.11 1.15-1.36-.35-2.64-1-3.95-1.41l-3.15-1.08s2 .63 4 1.34m.49 0c1.79.57 3.16 1.05 3.47 1.17-1.5-.36-2.92-1-4.38-1.43-1.17-.38-2.34-.73-3.51-1.09 0-.01 2.15.61 4.42 1.34zm.36 0c2.08.61 3.48 1.06 3.77 1.17-1.61-.36-3.15-1-4.72-1.42-1.27-.38-2.54-.73-3.81-1.1.26.05 2.36.62 4.76 1.33zm.34 0c2.17.59 3.68 1 4 1.15-1.69-.34-3.32-.93-5-1.39-1.34-.37-2.69-.72-4-1.07.25 0 2.49.56 5 1.25z"/><path d="M341.86 7c2.21.56 3.8 1 4.15 1.1-1.75-.31-3.43-.89-5.14-1.33l-4.2-1c.58.14 2.69.63 5.19 1.26m.07-.13c2.36.55 3.89 1 4.23 1-1.77-.27-3.47-.83-5.21-1.24l-4.27-1c.59.12 2.72.58 5.25 1.17m-12.07-2.42c-1.43-.25-2.86-.46-4.29-.74.54 0 6.18 1 9.55 1.72-1.13-.22-2.82-.55-5.26-1M329.94 4.55c-1.41-.22-2.82-.41-4.22-.65.46 0 6.07.89 9.36 1.5-1.35-.23-2.75-.48-5.14-.85zM18.86 379.1l.09.26c-.34-.66-3.07-7.94-3.22-8.49 0 .09.08.18.11.27l2.95 7.77a1 1 0 0 0 .05.16M214.36 546.2c2.24.42 3.94.7 4 .7l-8.9-1.71c.34.09 2.23.5 4.94 1m.33.2c1.82.31 3.41.54 3.7.59-.08 0-8.32-1.46-8.37-1.45.33.07 2.14.43 4.67.86zm.5.2c1.67.25 3.18.44 3.39.46l-7.69-1.17c.35.08 2 .38 4.3.71zm.6.24c1.53.18 2.82.31 3 .32-.07 0-6.86-.88-6.87-.87.33.07 1.85.31 3.86.55m.7.2c1.32.12 2.46.18 2.58.19l-5.93-.57c.18 0 1.49.21 3.35.37m.77.24h2.1c.1 0-4.82-.27-4.87-.25.16 0 1.23.14 2.77.2zm.85.23a12.36 12.36 0 0 0 1.57-.1c.1 0-3.58 0-3.72.07a15.43 15.43 0 0 0 2.15 0m.91.26c.45-.09.94-.22 1-.24s-2.4.33-2.48.38a5.18 5.18 0 0 0 1.47-.15m1 .23c.15-.12.38-.34.41-.37s-1 .5-1 .51-.21.12-.17.17a1.41 1.41 0 0 0 .74-.32m1 .23l-.21-.52a2.06 2.06 0 0 0 0 .7.36.36 0 0 0 .23.3c.16 0 .05-.31 0-.48m1 .19l-.7-.54a.27.27 0 0 0-.12-.09 5.67 5.67 0 0 0 1.58 1.26l-.79-.63m.95.16l-1.37-.73a15.59 15.59 0 0 0 2.86 1.5 16.12 16.12 0 0 0-1.59-.77zm-9-2.68c2 .46 3.88.84 4.23.91-.09 0-9.35-2.14-9.44-2.15.37.11 2.49.63 5.21 1.24zm.15.2c2 .41 3.79.75 4.13.81l-9.25-2c.38.11 2.49.59 5.12 1.14m-35.7-9.47c1.62.57 3 1 3.44 1.15-.23-.13-8.21-3-8.24-3 .31.16 2.37 1 4.8 1.82m2.66 1.35c1.48.51 2.78.93 3.14 1-.11-.07-7.68-2.7-7.75-2.72.33.14 2.25.88 4.61 1.69m3.34 1.37c1.38.47 2.52.83 2.78.9-.16-.07-7.08-2.44-7.15-2.46s1.94.74 4.34 1.55m4.11 1.46c1.3.44 2.21.73 2.37.77-.2-.08-.42-.14-.64-.21-1.22-.4-2.54-.83-4.14-1.39l1.39.48.71.25.31.1zm6.57 2.14l-.58-.18zm-19.47-8.44c1.75.66 3.53 1.29 3.9 1.38-.43-.3-8.74-3.4-8.77-3.39.42.25 2.86 1.25 4.87 2m1 1c1.67.61 3.41 1.21 3.72 1.28-.41-.22-8.55-3.19-8.6-3.2.15.18 2.36 1.03 4.82 1.95zm-31.88-13.9c1.55.84 2.68 1.44 2.94 1.57-2.49-1.46-5.08-2.72-7.58-4.16l.43.25 1.22.69 3 1.64m-5.19-4c1.48.82 3.19 1.72 3.51 1.81-.15-.33-8-4.54-8-4.55a46 46 0 0 0 4.52 2.73m1.78 1.88c1.45.8 2.84 1.52 3.22 1.69q-3.87-2.25-7.84-4.35 2.21 1.44 4.56 2.7zm-33.98-22.9a28.82 28.82 0 0 0 3.1 2.18c-.24-.52-7.15-5.55-7.21-5.57a44.35 44.35 0 0 0 4.11 3.37m2.6 2.68c1.42 1.07 2.52 1.88 2.77 2-.16-.15-7-5.35-7.09-5.39.33.27 2.17 1.72 4.3 3.33M78.86 471.3a30.49 30.49 0 0 0 2.68 2.53c-.31-.66-6.29-6.46-6.33-6.47.26.37 1.97 2.21 3.65 3.94zm-24.57-28.62c.67.89 1.88 2.48 2.2 2.79-.12-.44-5.29-7.19-5.34-7.24.24.43 1.71 2.5 3.15 4.43M33.54 410.4c.54 1 1.11 2 1.7 3-.18-.45-4.27-7.89-4.31-7.94.23.49 1.42 2.72 2.6 4.88m444.33 60a24.25 24.25 0 0 0-3 3.4c.47 0 6-5.65 6.37-6.5a25.86 25.86 0 0 0-3.4 3.13m25-29.06a34.81 34.81 0 0 0-2.57 3.81 55.89 55.89 0 0 0 5.42-7.37 36.12 36.12 0 0 0-2.82 3.54zm21.23-33.2c-.7 1.3-1.93 3.65-2.1 4.19.35-.11 4.24-7.67 4.4-8.16a40.61 40.61 0 0 0-2.3 4m16.2-35.83c-.48 1.32-1.44 4-1.6 4.53a12.1 12.1 0 0 0 .71-1.75l.81-2.18 1.19-3.31c.38-1.09.49-1.44.55-1.63-.13.23-.69 1.69-1.66 4.34zm11.11-38.7l-1 4.73.86-3.89 1.07-5.29-.92 4.45M223.77 548.68c-.65-.26-1.28-.54-1.92-.81a35.39 35.39 0 0 0 4.08 1.69 3.89 3.89 0 0 0-.79-.33l-1.37-.55zm.81.11l-2.42-.88c.52.25 4.44 1.68 5.21 1.85a27.22 27.22 0 0 0-2.79-1m.78.1c-1-.3-1.91-.62-2.87-.93.74.3 5.4 1.8 6.25 2a27.93 27.93 0 0 0-3.38-1m.6 0l-3.27-1c.93.33 6.25 1.88 7.17 2-1.27-.47-2.6-.71-3.9-1.08M226.52 548.91l-3.61-1c1.09.35 7 1.93 7.95 2.08-1.42-.46-2.89-.73-4.34-1.11m.46 0l-3.89-1c1.38.4 7.73 1.94 8.6 2.07-1.55-.45-3.14-.73-4.71-1.11m.38 0c-1.23-.27-1.55-.34-4.1-.93 1.53.4 8.25 1.91 9.1 2-1.65-.43-3.34-.71-5-1.08"/><path d="M227.54 548.83l-4.23-.89c1.65.41 8.62 1.84 9.42 1.92-1.72-.42-3.47-.68-5.19-1m.08-.18c-1.43-.26-2.85-.54-4.27-.82 1.68.38 8.86 1.73 9.55 1.77-1.75-.39-3.52-.63-5.28-.95zm23.93 5.52l-2.78-.29 1.31.15 1.78.17h-.31m5 .39c-1.24-.12-2.48-.27-3.72-.36.16 0 2.58.33 7.17.64-1.58-.11-2.87-.23-3.49-.28m3.81.14c-1.32-.11-2.64-.28-4-.35.52.14 6.22.62 7.93.68a30.65 30.65 0 0 0-3.95-.33m3.07-.06c-1.4-.11-2.78-.31-4.18-.32.81.19 7.43.68 8.55.67a33.58 33.58 0 0 0-4.33-.37zm2.29-.28c-4.14-.28-4.14-.28-4.29-.27.5.17 8.09.69 9 .62-.19 0-.19 0-4.73-.35m1.48-.5c-3.18-.17-3.93-.21-4.29-.21a87.7 87.7 0 0 0 9.3.53c-.19 0-1.11-.11-5-.32m.55-.73c-3.32-.13-4-.14-4.25-.12a82.87 82.87 0 0 0 9.45.39c-.19-.06-.96-.11-5.16-.27zm29.89 1.64l-1.78.12 2-.14h-.21m6.57-.64l-4.39.38c.57.07 7.53-.54 8.83-.74a2.18 2.18 0 0 0-.51 0l-3.93.34m2.67-.9c-3.72.35-4.18.42-4.33.47a77.45 77.45 0 0 0 9.12-.83 35 35 0 0 0-4.79.36zm1-1.33c-2.42.26-3.81.45-4.15.55.54.43 9.16-.9 9.21-.94s-.31-.11-5.02.39zm33-3.5c-2.06.48-3.82.86-4.22.94l5.7-1.29zm3.78-1.3a34.76 34.76 0 0 0-4.28 1.09 82.34 82.34 0 0 0 8.78-2.08 34.77 34.77 0 0 0-4.5 1m1.45-1.89a32.2 32.2 0 0 0-4 1.17c.86.13 8.49-1.79 8.89-2.22a29.73 29.73 0 0 0-4.86 1m34.66-9.31c-1.41.52-2.81 1.08-4.19 1.67.38 0 7.29-2.76 8.34-3.27-.09 0-.26.07-4.15 1.6zm1.84-2.41a26.09 26.09 0 0 0-3.86 1.81c.52.23 8-2.77 8.44-3.38-.32-.14-3.58 1.17-4.58 1.57zm32.17-13.64c-1.91 1.07-3.61 2-4 2.21l.41-.23 7.11-4 .26-.14c-.2.13-2 1.16-3.79 2.17m2.21-2.89a27.09 27.09 0 0 0-3.62 2.36c.54.29 7.62-4 7.87-4.47-.27-.16-3.57 1.73-4.23 2.11zm32.33-21.43a28.35 28.35 0 0 0-3.31 2.88h.05c1-.31 6.76-4.82 7.12-5.55h-.05a33.32 33.32 0 0 0-3.81 2.66"/></g></svg>
