<svg width="550" height="326" fill="none" xmlns="http://www.w3.org/2000/svg">
  <path fill-rule="evenodd" clip-rule="evenodd" d="M98 41v-8h15c2-1 5 0 6 1l50 28c2 2 2 4 0 5l-50 29-4 1H98v-9L61 67c-2-1-2-3 0-5l37-21z" fill="url(#paint0_linear)"/>
  <g filter="url(#filter0_f)">
    <path d="M152 63l-50-28c-2-2-6-2-8 0L44 63c-2 1-2 4 0 5l50 29h8l50-29c2-1 2-4 0-5z" fill="#999CBA" fill-opacity=".8"/>
  </g>
  <path fill-rule="evenodd" clip-rule="evenodd" d="M48 60h-6v5l2 2 49 29h9l49-29 2-2v-5h-6l-45-26c-2-2-6-2-9 0L48 60z" fill="#CACEF0"/>
  <path d="M152 57l-50-28c-2-2-6-2-8 0L44 57c-2 1-2 4 0 5l50 29h8l50-29c2-1 2-4 0-5z" fill="#F5F6FD"/>
  <path d="M137 57l-35-19c-2-2-6-2-8 0L59 57c-2 2-2 4 0 5l35 20h8l35-20c2-1 2-3 0-5z" fill="#56F2FC" fill-opacity=".1"/>
  <path d="M49 150c8-5 23-5 32 0s9 14 0 19-24 5-33 0c-8-5-8-14 1-19z" fill="url(#paint1_linear)"/>
  <g filter="url(#filter1_f)">
    <path d="M71 169c9-5 9-14 0-19s-23-5-32 0c-9 6-9 14 0 19s23 5 32 0z" fill="#999CBA" fill-opacity=".8"/>
  </g>
  <path d="M71 169c9-5 9-14 0-19s-23-5-32 0c-9 6-9 14 0 19s23 5 32 0z" fill="#CACEF0"/>
  <path d="M71 166c9-5 9-14 0-19s-23-5-32 0c-9 6-9 14 0 19s23 5 32 0z" fill="#F5F6FD"/>
  <path d="M67 164c6-4 6-10 0-14-7-4-17-4-24 0s-7 10 0 14c6 4 17 4 24 0z" fill="#56F2FC" fill-opacity=".1"/>
  <path d="M254 294c10-6 26-6 36 0 9 6 10 15 0 21s-26 5-36 0c-10-6-10-15 0-21z" fill="url(#paint2_linear)"/>
  <g filter="url(#filter2_f)">
    <path d="M279 295v-1c-10-5-26-5-36 0-10 6-10 15 0 21s26 6 36 0 10-15 0-20z" fill="#999CBA" fill-opacity=".8"/>
  </g>
  <path d="M279 295v-1c-10-5-26-5-36 0-10 6-10 15 0 21s26 6 36 0 10-15 0-20z" fill="#CACEF0"/>
  <path d="M279 292v-1c-10-5-26-5-36 0-10 6-10 15 0 21s26 6 36 0 10-15 0-20z" fill="#F5F6FD"/>
  <path d="M274 294c-7-5-19-5-26 0-8 4-7 11 0 15s19 4 26 0c8-4 8-11 0-15z" fill="#56F2FC" fill-opacity=".1"/>
  <path d="M455 154c10-6 26-6 36 0s10 15 0 21-26 6-36 0-10-15 0-21z" fill="url(#paint3_linear)"/>
  <g filter="url(#filter3_f)">
    <path d="M480 156v-1c-10-5-26-5-36 0-10 6-10 15 0 21s26 6 36 0 10-15 0-20z" fill="#999CBA" fill-opacity=".8"/>
  </g>
  <path d="M480 155v-1c-10-5-26-5-36 0-10 6-10 15 0 21s26 6 36 0 10-15 0-20z" fill="#CACEF0"/>
  <path d="M480 152v-1c-10-5-26-5-36 0-10 6-10 15 0 21s26 6 36 0 10-15 0-20z" fill="#F5F6FD"/>
  <path d="M475 154c-7-5-19-5-26 0-8 4-7 11 0 15s19 4 26 0c8-4 8-11 0-15z" fill="#56F2FC" fill-opacity=".1"/>
  <path d="M335 181l38 21c10 6 23 10 38 10h38c14 0 28 3 38 9l60 34" stroke="url(#paint4_linear)"/>
  <path d="M301 200l38 22c10 6 16 14 16 22v22c0 8 5 16 15 22l60 35" stroke="url(#paint5_linear)"/>
  <path d="M326 186l45 25c10 6 23 9 38 9h38c14 0 28 3 38 9l53 31" stroke="url(#paint6_linear)"/>
  <path d="M309 195l45 26c10 6 15 14 15 22v22c0 8 6 16 16 22l54 31" stroke="url(#paint7_linear)"/>
  <path d="M507 232v-2h-4v2h4zM368 209v-2h-4v2h4zM357 255v-2h-4v2h4zM422 308v-2h-4v2h4z" fill="#E5EFFF"/>
  <path d="M319 190h1l90 52-1 1-90-53z" fill="#FF9C00"/>
  <path d="M391 232v-4h-6v4h6z" fill="#FF9C00"/>
  <path d="M235 123l-37-22c-11-5-16-13-16-22V58c0-9-6-17-16-22L106 1" stroke="url(#paint8_linear)"/>
  <path d="M202 143l-38-22c-10-6-24-9-38-9H88c-15 0-28-3-38-9L2 75" stroke="url(#paint9_linear)"/>
  <path d="M227 128l-44-25c-10-6-16-14-16-22V59c0-9-6-17-16-22L98 6" stroke="url(#paint10_linear)"/>
  <path d="M210 138l-44-26c-10-5-24-9-38-9H90c-15 0-28-3-38-9L1 65" stroke="url(#paint11_linear)"/>
  <path d="M146 24h4v2h-4v-2zM186 104h4v2h-4v-2zM106 111h4v2h-4v-2zM15 73h4v2h-4v-2z" fill="#E5EFFF"/>
  <path d="M219 133l1-1-90-52h-2l91 53z" fill="#FF9C00"/>
  <path d="M147 90h6v4h-6v-4z" fill="#FF9C00"/>
  <path d="M100 325l60-35c10-5 15-13 15-22v-22c0-8 6-16 16-22l38-21 9-5" stroke="url(#paint12_linear)"/>
  <path d="M204 178l-9 5-38 22c-10 6-23 9-38 9H81c-14 0-28 3-38 9L1 247" stroke="url(#paint13_linear)"/>
  <path d="M91 320l54-31c10-6 16-13 16-22v-22c0-8 5-16 15-22l45-25 7-5" stroke="url(#paint14_linear)"/>
  <path d="M209 185l-5 3-45 26c-10 5-23 9-38 9H83c-14 0-28 3-38 9L1 257" stroke="url(#paint15_linear)"/>
  <path d="M140 302h4v-2h-4v2zM179 222h4v-2h-4v2zM99 215h4v-2h-4v2zM9 253h4v-2H9v2z" fill="#E5EFFF"/>
  <path d="M123 246l91-52 8-5-1-1-9 5-90 52 1 1z" fill="#FF9C00"/>
  <path d="M141 235h6v-4h-6v4z" fill="#FF9C00"/>
  <path fill-rule="evenodd" clip-rule="evenodd" d="M439 44v-8h14l7 1 50 28c2 2 2 4 0 5l-50 29-6 1h-15v-9l-37-21c-2-1-2-3 0-5l37-21z" fill="url(#paint16_linear)"/>
  <g filter="url(#filter4_f)">
    <path d="M492 67l-50-28c-2-2-6-2-8 0l-50 28c-2 1-2 4 0 5l50 29h8l50-29c2-1 2-4 0-5z" fill="#999CBA" fill-opacity=".8"/>
  </g>
  <path fill-rule="evenodd" clip-rule="evenodd" d="M389 63h-6v5l2 2 49 29h9l49-29 2-2v-5h-7l-44-26c-3-2-6-2-9 0l-45 26z" fill="#CACEF0"/>
  <path d="M492 60l-50-28c-2-2-6-2-8 0l-50 28c-2 1-2 4 0 5l50 29h8l50-29c2-1 2-4 0-5z" fill="#F5F6FD"/>
  <path d="M477 60l-35-19c-2-2-6-2-8 0l-35 19c-2 2-2 4 0 5l35 20h8l35-20c2-1 2-3 0-5z" fill="#56F2FC" fill-opacity=".1"/>
  <path fill-rule="evenodd" clip-rule="evenodd" d="M92 243v-8h15c2-1 5 0 7 1l49 28c2 2 2 4 0 5l-49 29-5 1-17 1v-10l-36-21c-3-1-3-3 0-5l36-21z" fill="url(#paint17_linear)"/>
  <g filter="url(#filter5_f)">
    <path d="M146 266l-50-28c-2-2-6-2-8 0l-50 28c-2 1-2 4 0 5l50 29h8l50-29c2-1 2-4 0-5z" fill="#999CBA" fill-opacity=".8"/>
  </g>
  <path fill-rule="evenodd" clip-rule="evenodd" d="M42 262h-6v5l2 2 49 29h9l49-29c2 0 2-1 2-2v-5h-6l-45-26c-2-2-6-2-9 0l-45 26z" fill="#CACEF0"/>
  <path d="M146 259l-50-28c-2-2-6-2-8 0l-50 28c-2 1-2 4 0 5l50 29h8l50-29c2-1 2-4 0-5z" fill="#F5F6FD"/>
  <path d="M131 259l-35-19c-2-2-6-2-8 0l-35 19c-2 2-2 4 0 5l35 20h8l35-20c2-1 2-3 0-5z" fill="#56F2FC" fill-opacity=".1"/>
  <path d="M335 146l37-22c10-6 24-9 38-9h38c15 0 28-3 39-9l60-35" stroke="url(#paint18_linear)"/>
  <path d="M301 127l38-22c10-6 15-14 15-22V61c0-8 6-16 16-22l60-35" stroke="url(#paint19_linear)"/>
  <path d="M326 141l44-25c11-6 24-9 39-9h38c14 0 28-4 38-10l53-30" stroke="url(#paint20_linear)"/>
  <path d="M309 131l44-25c11-6 16-14 16-22V62c0-8 6-16 16-22l54-31" stroke="url(#paint21_linear)"/>
  <path d="M507 95v2h-4v-2h4zM368 117v2h-4v-2h4zM357 71v2h-4v-2h4zM422 19v2h-4v-2h4z" fill="#E5EFFF"/>
  <path d="M318 136l2 1 90-52-1-1-91 52z" fill="#FF9C00"/>
  <path d="M391 95v4h-6v-4h6z" fill="#FF9C00"/>
  <path fill-rule="evenodd" clip-rule="evenodd" d="M442 239v-9l14 1h7l49 29c3 1 3 3 0 5l-49 28c-2 1-4 2-7 1l-14 1v-9l-37-21c-2-2-2-4 0-5l37-21z" fill="url(#paint22_linear)"/>
  <g filter="url(#filter6_f)">
    <path d="M495 261l-50-28c-2-2-6-2-8 0l-50 28c-2 1-2 4 0 5l50 29h8l50-29c2-1 2-4 0-5z" fill="#999CBA" fill-opacity=".8"/>
  </g>
  <path fill-rule="evenodd" clip-rule="evenodd" d="M392 257h-6v5l1 3 50 28c2 2 6 2 8 0l50-28 2-3v-5h-7l-45-26h-8l-45 26z" fill="#CACEF0"/>
  <path d="M495 255l-50-28c-2-2-6-2-8 0l-50 28c-2 1-2 4 0 5l50 29h8l50-29c2-1 2-4 0-5z" fill="#F5F6FD"/>
  <path d="M480 254l-35-19c-2-2-6-2-8 0l-35 19c-2 2-2 4 0 5l35 20h8l35-20c2-1 2-3 0-5z" fill="#56F2FC" fill-opacity=".1"/>
  <path opacity=".3" d="M71 156l-16 9" stroke="url(#paint23_linear)"/>
  <path opacity=".3" d="M39 156l16 9" stroke="url(#paint24_linear)"/>
  <path opacity=".3" d="M55 146l-16 10" stroke="url(#paint25_linear)"/>
  <path opacity=".3" d="M55 146l16 10" stroke="url(#paint26_linear)"/>
  <path d="M55 146v19" stroke="url(#paint27_linear)"/>
  <path d="M39 157a1 1 0 100-2 1 1 0 000 2zM55 166a1 1 0 100-2 1 1 0 000 2zM71 157a1 1 0 100-2 1 1 0 000 2z" fill="#92C9EC"/>
  <path d="M55 149a4 4 0 100-8 4 4 0 000 8z" fill="url(#paint28_radial)"/>
  <g filter="url(#filter7_d)" stroke="#92C9EC">
    <path d="M419 46l8 4-15 9-8-5 15-8zM441 48l8 4-23 14-8-5 23-13zM464 50l8 4-34 20-8-5 34-19z"/>
  </g>
  <g filter="url(#filter8_d)">
    <path d="M459 238c-11-1-21 0-28 4s-9 10-7 16c10 1 20-1 27-5 7-3 9-9 8-15z" stroke="#92C9EC"/>
    <path d="M448 244c4 2 4 6 0 8s-10 2-14 0c-3-2-3-6 0-8 4-2 10-2 14 0z" stroke="#92C9EC"/>
    <path fill-rule="evenodd" clip-rule="evenodd" d="M443 246l-1 1h-2l-1-1h-1v3h6v-3h-1z" fill="#92C9EC"/>
  </g>
  <g filter="url(#filter9_d)">
    <path d="M105 265v1l-6 1h-1l-5-2v-1l-1 1-5 2h-1l-5-1h-1l-1-4-7-1h-1l-3-3h1l4-4-5-3v-1l2-3h1l6-1h1v-4h1l5-2h1l5 3h1l5-3h1l6 1 1 4v1h9l2 3v1l-4 3h-1 1l4 3 1 1-2 3h-1l-7 1-1 4zm-17-6c6 1 11 0 13-3s1-5-2-7l-4-1h-8l-5 4c-1 2 0 4 2 6l4 1z" stroke="#92C9EC"/>
  </g>
  <g filter="url(#filter10_d)" stroke="#92C9EC">
    <path d="M86 39l-12 7c-2 1-2 2 0 3l28 16h6l12-7c2-1 2-2 0-3L92 39h-6zM101 64l19-11M75 49l19-11"/>
    <path d="M113 60v1h-2v-1h2zM80 44l4-2M85 41l2-1"/>
  </g>
  <path opacity=".3" d="M277 281l-16 9" stroke="url(#paint29_linear)"/>
  <path opacity=".3" d="M245 281l16 9" stroke="url(#paint30_linear)"/>
  <path opacity=".3" d="M261 271l-16 10" stroke="url(#paint31_linear)"/>
  <path opacity=".3" d="M261 271l16 10" stroke="url(#paint32_linear)"/>
  <path d="M261 271v19" stroke="url(#paint33_linear)"/>
  <path d="M245 282a1 1 0 100-2 1 1 0 000 2zM277 282a1 1 0 100-2 1 1 0 000 2z" fill="#92C9EC"/>
  <path d="M261 274a4 4 0 100-8 4 4 0 000 8z" fill="url(#paint34_radial)"/>
  <path d="M277 285a4 4 0 100-8 4 4 0 000 8z" fill="url(#paint35_radial)"/>
  <path d="M245 285a4 4 0 100-8 4 4 0 000 8z" fill="url(#paint36_radial)"/>
  <path opacity=".3" d="M277 300l-16 10" stroke="url(#paint37_linear)"/>
  <path opacity=".3" d="M245 300l16 10" stroke="url(#paint38_linear)"/>
  <path opacity=".3" d="M261 290l-16 10" stroke="url(#paint39_linear)"/>
  <path opacity=".3" d="M261 290l16 10" stroke="url(#paint40_linear)"/>
  <path d="M261 291v19" stroke="url(#paint41_linear)"/>
  <path d="M277 281v19" stroke="url(#paint42_linear)"/>
  <path d="M245 281v19" stroke="url(#paint43_linear)"/>
  <path d="M245 301a1 1 0 100-2 1 1 0 000 2zM277 301a1 1 0 100-2 1 1 0 000 2z" fill="#92C9EC"/>
  <path d="M261 294a4 4 0 100-7 4 4 0 000 7z" fill="url(#paint44_radial)"/>
  <path fill-rule="evenodd" clip-rule="evenodd" d="M351 130c-27-15-71-15-98 0-27 16-27 41 0 57 9 6 21 9 33 11v7l39-8c10-2 19-5 26-10 28-16 28-41 0-57z" fill="url(#paint45_linear)"/>
  <path opacity=".3" d="M479 161l-17 10" stroke="url(#paint46_linear)"/>
  <path opacity=".3" d="M446 161l16 10" stroke="url(#paint47_linear)"/>
  <path opacity=".3" d="M462 152l-16 9" stroke="url(#paint48_linear)"/>
  <path opacity=".3" d="M462 152l16 9" stroke="url(#paint49_linear)"/>
  <path d="M462 152v19" stroke="url(#paint50_linear)"/>
  <path d="M446 162a1 1 0 100-2 1 1 0 000 2zM479 162a1 1 0 10-1-2 1 1 0 001 2z" fill="#92C9EC"/>
  <path d="M462 154a4 4 0 100-7 4 4 0 000 7z" fill="url(#paint51_radial)"/>
  <path d="M462 175a4 4 0 100-8 4 4 0 000 8z" fill="url(#paint52_radial)"/>
  <g filter="url(#filter11_f)">
    <path d="M317 195c27-15 27-41 0-57-27-15-71-15-98 0-27 16-27 42 0 57 27 16 71 16 98 0z" fill="#999CBA" fill-opacity=".8"/>
  </g>
  <path d="M219 136c27-15 71-15 98 0 27 16 27 42 0 57-27 16-71 16-98 0-28-15-28-41 0-57z" fill="#CACEF0"/>
  <path d="M198 149h140v16H198v-16z" fill="#CACEF0"/>
  <path d="M317 177c27-15 27-41 0-57-27-15-71-15-98 0-27 16-27 42 0 57 27 16 71 16 98 0z" fill="#F5F6FD"/>
  <path d="M305 128h-1a81 81 0 00-72 0h-1c-20 12-20 31 0 42h1c20 12 52 12 73 0 20-11 20-30 0-42z" fill="url(#paint53_radial)"/>
  <path d="M303 130a77 77 0 00-70 0c-19 11-19 29 0 41 19 11 51 11 70 0s19-30 0-41z" fill="#FFDA9F"/>
  <path opacity=".3" d="M268 122c-28 0-51 12-51 28V0h103v150c0-16-24-28-52-28z" fill="url(#paint54_linear)"/>
  <path opacity=".5" d="M304 105h0a80 80 0 00-72 0h0c-20 11-20 30 0 41v1c20 11 52 11 72 0v-1c20-11 20-30 0-41z" stroke="#FF9C00" stroke-width=".5"/>
  <path opacity=".3" d="M304 83h0a80 80 0 00-72 0h0c-20 11-20 30 0 41v1c20 11 52 11 72 0v-1c20-11 20-30 0-41z" stroke="#FF9C00" stroke-width=".5"/>
  <path opacity=".2" d="M304 54h0a80 80 0 00-72 0h0c-20 11-20 30 0 41v1c20 11 52 11 72 0v-1c20-11 20-30 0-41z" stroke="#FF9C00" stroke-width=".5"/>
  <path d="M295 8l-12 7v46l-11-28-10-6-15 9-17 64 9 5 14-8 2-9 14-8 7 4 13-8-2-5 6 3 12-7V14l-10-6z" fill="#C4C4C4"/>
  <path d="M305 14v53l-12 7V21l12-7z" fill="#D1E4FD"/>
  <path d="M293 74l-10-5V15l10 6v53z" fill="#A2BADB"/>
  <path d="M293 21l-10-6 12-7 10 6-12 7z" fill="#EBF5FF"/>
  <path d="M276 84l-10-6-2-6 9 6 3 6z" fill="#799CC6"/>
  <path d="M258 74l-9-5 12-7 9 5-12 7z" fill="#EBF5FF"/>
  <path d="M270 67l-9-5-6-17 9 6 6 16z" fill="#799CC6"/>
  <path d="M272 33l17 43-13 8-3-6-18 10-2 9-14 8 17-64 16-8zm-14 41l12-7-6-16-6 23z" fill="#D1E4FD"/>
  <path d="M239 105l-9-5 17-64 9 5-17 64z" fill="#A2BADB"/>
  <path d="M256 41l-9-5 15-9 10 6-16 8z" fill="#EBF5FF"/>
  <path opacity=".2" d="M231 95h1c4 3 9 5 14 6" stroke="#FF9C00" stroke-width=".4"/>
  <path d="M234 73a1 1 0 100-2 1 1 0 000 2z" fill="#FF9C00"/>
  <path d="M233 72h1v37h-1V72z" fill="url(#paint55_linear)"/>
  <path d="M314 39a1 1 0 100-2 1 1 0 000 2z" fill="#FF9C00"/>
  <path d="M313 38h1v28h-1V38z" fill="url(#paint56_linear)"/>
  <path d="M258 127a1 1 0 100-2 1 1 0 000 2z" fill="#FF9C00"/>
  <path d="M257 126h1v28h-1v-28z" fill="url(#paint57_linear)"/>
  <path d="M301 92a1 1 0 100-2 1 1 0 000 2z" fill="#FF9C00"/>
  <path d="M301 91h1v27h-1V91z" fill="url(#paint58_linear)"/>
  <path d="M237 22h1v29h-1V22z" fill="url(#paint59_linear)"/>
  <path d="M237 22a1 1 0 100-2 1 1 0 000 2z" fill="#FF9C00"/>
  <defs>
    <linearGradient id="paint0_linear" x1="42.2" y1="65" x2="173.1" y2="65.9" gradientUnits="userSpaceOnUse">
      <stop stop-color="#CCCFEB"/>
      <stop offset=".4" stop-color="#CCCFEB"/>
      <stop offset="1" stop-color="#CCCFEB" stop-opacity="0"/>
    </linearGradient>
    <linearGradient id="paint1_linear" x1="32.4" y1="159.4" x2="97" y2="159.7" gradientUnits="userSpaceOnUse">
      <stop stop-color="#CCCFEB"/>
      <stop offset=".4" stop-color="#CCCFEB"/>
      <stop offset="1" stop-color="#CCCFEB" stop-opacity="0"/>
    </linearGradient>
    <linearGradient id="paint2_linear" x1="235.8" y1="304.4" x2="307.6" y2="303.8" gradientUnits="userSpaceOnUse">
      <stop stop-color="#CCCFEB"/>
      <stop offset=".4" stop-color="#CCCFEB"/>
      <stop offset="1" stop-color="#CCCFEB" stop-opacity="0"/>
    </linearGradient>
    <linearGradient id="paint3_linear" x1="437.3" y1="164.4" x2="509.2" y2="163.9" gradientUnits="userSpaceOnUse">
      <stop stop-color="#CCCFEB"/>
      <stop offset=".4" stop-color="#CCCFEB"/>
      <stop offset="1" stop-color="#CCCFEB" stop-opacity="0"/>
    </linearGradient>
    <linearGradient id="paint4_linear" x1="355.5" y1="168.7" x2="440.8" y2="316.5" gradientUnits="userSpaceOnUse">
      <stop offset=".6" stop-color="#E5EFFF"/>
      <stop offset="1" stop-color="#E5EFFF" stop-opacity="0"/>
    </linearGradient>
    <linearGradient id="paint5_linear" x1="280.3" y1="212.1" x2="365.6" y2="359.8" gradientUnits="userSpaceOnUse">
      <stop offset=".6" stop-color="#E5EFFF"/>
      <stop offset="1" stop-color="#E5EFFF" stop-opacity="0"/>
    </linearGradient>
    <linearGradient id="paint6_linear" x1="347" y1="173.6" x2="432.3" y2="321.3" gradientUnits="userSpaceOnUse">
      <stop offset=".6" stop-color="#E5EFFF"/>
      <stop offset="1" stop-color="#E5EFFF" stop-opacity="0"/>
    </linearGradient>
    <linearGradient id="paint7_linear" x1="288.8" y1="207.2" x2="374.1" y2="355" gradientUnits="userSpaceOnUse">
      <stop offset=".6" stop-color="#E5EFFF"/>
      <stop offset="1" stop-color="#E5EFFF" stop-opacity="0"/>
    </linearGradient>
    <linearGradient id="paint8_linear" x1="256" y1="111.3" x2="170.7" y2="-36.4" gradientUnits="userSpaceOnUse">
      <stop offset=".6" stop-color="#E5EFFF"/>
      <stop offset="1" stop-color="#E5EFFF" stop-opacity="0"/>
    </linearGradient>
    <linearGradient id="paint9_linear" x1="180.9" y1="154.7" x2="95.6" y2="7" gradientUnits="userSpaceOnUse">
      <stop offset=".6" stop-color="#E5EFFF"/>
      <stop offset="1" stop-color="#E5EFFF" stop-opacity="0"/>
    </linearGradient>
    <linearGradient id="paint10_linear" x1="247.6" y1="116.2" x2="162.3" y2="-31.6" gradientUnits="userSpaceOnUse">
      <stop offset=".6" stop-color="#E5EFFF"/>
      <stop offset="1" stop-color="#E5EFFF" stop-opacity="0"/>
    </linearGradient>
    <linearGradient id="paint11_linear" x1="189.3" y1="149.8" x2="104" y2="2.1" gradientUnits="userSpaceOnUse">
      <stop offset=".6" stop-color="#E5EFFF"/>
      <stop offset="1" stop-color="#E5EFFF" stop-opacity="0"/>
    </linearGradient>
    <linearGradient id="paint12_linear" x1="249.7" y1="214.6" x2="164.4" y2="362.3" gradientUnits="userSpaceOnUse">
      <stop offset=".6" stop-color="#E5EFFF"/>
      <stop offset="1" stop-color="#E5EFFF" stop-opacity="0"/>
    </linearGradient>
    <linearGradient id="paint13_linear" x1="174.6" y1="171.2" x2="89.3" y2="319" gradientUnits="userSpaceOnUse">
      <stop offset=".6" stop-color="#E5EFFF"/>
      <stop offset="1" stop-color="#E5EFFF" stop-opacity="0"/>
    </linearGradient>
    <linearGradient id="paint14_linear" x1="241.3" y1="209.7" x2="156" y2="357.5" gradientUnits="userSpaceOnUse">
      <stop offset=".6" stop-color="#E5EFFF"/>
      <stop offset="1" stop-color="#E5EFFF" stop-opacity="0"/>
    </linearGradient>
    <linearGradient id="paint15_linear" x1="183" y1="176.1" x2="97.7" y2="323.8" gradientUnits="userSpaceOnUse">
      <stop offset=".6" stop-color="#E5EFFF"/>
      <stop offset="1" stop-color="#E5EFFF" stop-opacity="0"/>
    </linearGradient>
    <linearGradient id="paint16_linear" x1="383.1" y1="68.1" x2="514" y2="69" gradientUnits="userSpaceOnUse">
      <stop stop-color="#CCCFEB"/>
      <stop offset=".4" stop-color="#CCCFEB"/>
      <stop offset="1" stop-color="#CCCFEB" stop-opacity="0"/>
    </linearGradient>
    <linearGradient id="paint17_linear" x1="35.8" y1="267.3" x2="167.2" y2="269.1" gradientUnits="userSpaceOnUse">
      <stop stop-color="#CCCFEB"/>
      <stop offset=".4" stop-color="#CCCFEB"/>
      <stop offset="1" stop-color="#CCCFEB" stop-opacity="0"/>
    </linearGradient>
    <linearGradient id="paint18_linear" x1="355.3" y1="158" x2="440.6" y2="10.3" gradientUnits="userSpaceOnUse">
      <stop offset=".6" stop-color="#E5EFFF"/>
      <stop offset="1" stop-color="#E5EFFF" stop-opacity="0"/>
    </linearGradient>
    <linearGradient id="paint19_linear" x1="280.2" y1="114.6" x2="365.5" y2="-33.1" gradientUnits="userSpaceOnUse">
      <stop offset=".6" stop-color="#E5EFFF"/>
      <stop offset="1" stop-color="#E5EFFF" stop-opacity="0"/>
    </linearGradient>
    <linearGradient id="paint20_linear" x1="346.9" y1="153.1" x2="432.2" y2="5.4" gradientUnits="userSpaceOnUse">
      <stop offset=".6" stop-color="#E5EFFF"/>
      <stop offset="1" stop-color="#E5EFFF" stop-opacity="0"/>
    </linearGradient>
    <linearGradient id="paint21_linear" x1="288.6" y1="119.5" x2="373.9" y2="-28.3" gradientUnits="userSpaceOnUse">
      <stop offset=".6" stop-color="#E5EFFF"/>
      <stop offset="1" stop-color="#E5EFFF" stop-opacity="0"/>
    </linearGradient>
    <linearGradient id="paint22_linear" x1="385.7" y1="262.5" x2="516.6" y2="263.4" gradientUnits="userSpaceOnUse">
      <stop stop-color="#CCCFEB"/>
      <stop offset=".4" stop-color="#CCCFEB"/>
      <stop offset="1" stop-color="#CCCFEB" stop-opacity="0"/>
    </linearGradient>
    <linearGradient id="paint23_linear" x1="63" y1="155.6" x2="63" y2="165.4" gradientUnits="userSpaceOnUse">
      <stop stop-color="#92C9EC" stop-opacity="0"/>
      <stop offset="1" stop-color="#92C9EC"/>
    </linearGradient>
    <linearGradient id="paint24_linear" x1="47" y1="155.6" x2="47" y2="165.4" gradientUnits="userSpaceOnUse">
      <stop stop-color="#92C9EC" stop-opacity="0"/>
      <stop offset="1" stop-color="#92C9EC"/>
    </linearGradient>
    <linearGradient id="paint25_linear" x1="47" y1="145.8" x2="47" y2="155.6" gradientUnits="userSpaceOnUse">
      <stop stop-color="#92C9EC" stop-opacity="0"/>
      <stop offset="1" stop-color="#92C9EC"/>
    </linearGradient>
    <linearGradient id="paint26_linear" x1="63" y1="145.8" x2="63" y2="155.6" gradientUnits="userSpaceOnUse">
      <stop stop-color="#92C9EC" stop-opacity="0"/>
      <stop offset="1" stop-color="#92C9EC"/>
    </linearGradient>
    <linearGradient id="paint27_linear" x1="-nan" y1="-nan" x2="-nan" y2="-nan" gradientUnits="userSpaceOnUse">
      <stop stop-color="#92C9EC" stop-opacity="0"/>
      <stop offset="1" stop-color="#92C9EC"/>
    </linearGradient>
    <linearGradient id="paint29_linear" x1="269" y1="280.7" x2="269" y2="290.5" gradientUnits="userSpaceOnUse">
      <stop stop-color="#92C9EC" stop-opacity="0"/>
      <stop offset="1" stop-color="#92C9EC"/>
    </linearGradient>
    <linearGradient id="paint30_linear" x1="253" y1="280.7" x2="253" y2="290.5" gradientUnits="userSpaceOnUse">
      <stop stop-color="#92C9EC" stop-opacity="0"/>
      <stop offset="1" stop-color="#92C9EC"/>
    </linearGradient>
    <linearGradient id="paint31_linear" x1="253" y1="270.9" x2="253" y2="280.7" gradientUnits="userSpaceOnUse">
      <stop stop-color="#92C9EC" stop-opacity="0"/>
      <stop offset="1" stop-color="#92C9EC"/>
    </linearGradient>
    <linearGradient id="paint32_linear" x1="269" y1="270.9" x2="269" y2="280.7" gradientUnits="userSpaceOnUse">
      <stop stop-color="#92C9EC" stop-opacity="0"/>
      <stop offset="1" stop-color="#92C9EC"/>
    </linearGradient>
    <linearGradient id="paint33_linear" x1="-nan" y1="-nan" x2="-nan" y2="-nan" gradientUnits="userSpaceOnUse">
      <stop stop-color="#92C9EC" stop-opacity="0"/>
      <stop offset="1" stop-color="#92C9EC"/>
    </linearGradient>
    <linearGradient id="paint37_linear" x1="269" y1="300.3" x2="269" y2="310.1" gradientUnits="userSpaceOnUse">
      <stop stop-color="#92C9EC" stop-opacity="0"/>
      <stop offset="1" stop-color="#92C9EC"/>
    </linearGradient>
    <linearGradient id="paint38_linear" x1="253" y1="300.3" x2="253" y2="310.1" gradientUnits="userSpaceOnUse">
      <stop stop-color="#92C9EC" stop-opacity="0"/>
      <stop offset="1" stop-color="#92C9EC"/>
    </linearGradient>
    <linearGradient id="paint39_linear" x1="253" y1="290.5" x2="253" y2="300.3" gradientUnits="userSpaceOnUse">
      <stop stop-color="#92C9EC" stop-opacity="0"/>
      <stop offset="1" stop-color="#92C9EC"/>
    </linearGradient>
    <linearGradient id="paint40_linear" x1="269" y1="290.5" x2="269" y2="300.3" gradientUnits="userSpaceOnUse">
      <stop stop-color="#92C9EC" stop-opacity="0"/>
      <stop offset="1" stop-color="#92C9EC"/>
    </linearGradient>
    <linearGradient id="paint41_linear" x1="-nan" y1="-nan" x2="-nan" y2="-nan" gradientUnits="userSpaceOnUse">
      <stop stop-color="#92C9EC" stop-opacity="0"/>
      <stop offset="1" stop-color="#92C9EC"/>
    </linearGradient>
    <linearGradient id="paint42_linear" x1="-nan" y1="-nan" x2="-nan" y2="-nan" gradientUnits="userSpaceOnUse">
      <stop stop-color="#92C9EC" stop-opacity="0"/>
      <stop offset="1" stop-color="#92C9EC"/>
    </linearGradient>
    <linearGradient id="paint43_linear" x1="-nan" y1="-nan" x2="-nan" y2="-nan" gradientUnits="userSpaceOnUse">
      <stop stop-color="#92C9EC" stop-opacity="0"/>
      <stop offset="1" stop-color="#92C9EC"/>
    </linearGradient>
    <linearGradient id="paint45_linear" x1="203.6" y1="158.7" x2="400.8" y2="158.6" gradientUnits="userSpaceOnUse">
      <stop stop-color="#CCCFEB"/>
      <stop offset=".4" stop-color="#CCCFEB"/>
      <stop offset="1" stop-color="#CCCFEB" stop-opacity="0"/>
    </linearGradient>
    <linearGradient id="paint46_linear" x1="470.5" y1="161.4" x2="470.5" y2="171.2" gradientUnits="userSpaceOnUse">
      <stop stop-color="#92C9EC" stop-opacity="0"/>
      <stop offset="1" stop-color="#92C9EC"/>
    </linearGradient>
    <linearGradient id="paint47_linear" x1="454.4" y1="161.4" x2="454.4" y2="171.2" gradientUnits="userSpaceOnUse">
      <stop stop-color="#92C9EC" stop-opacity="0"/>
      <stop offset="1" stop-color="#92C9EC"/>
    </linearGradient>
    <linearGradient id="paint48_linear" x1="454.4" y1="151.6" x2="454.4" y2="161.4" gradientUnits="userSpaceOnUse">
      <stop stop-color="#92C9EC" stop-opacity="0"/>
      <stop offset="1" stop-color="#92C9EC"/>
    </linearGradient>
    <linearGradient id="paint49_linear" x1="470.5" y1="151.6" x2="470.5" y2="161.4" gradientUnits="userSpaceOnUse">
      <stop stop-color="#92C9EC" stop-opacity="0"/>
      <stop offset="1" stop-color="#92C9EC"/>
    </linearGradient>
    <linearGradient id="paint50_linear" x1="-nan" y1="-nan" x2="-nan" y2="-nan" gradientUnits="userSpaceOnUse">
      <stop stop-color="#92C9EC" stop-opacity="0"/>
      <stop offset="1" stop-color="#92C9EC"/>
    </linearGradient>
    <linearGradient id="paint54_linear" x1="268" y1="0" x2="268" y2="149.7" gradientUnits="userSpaceOnUse">
      <stop offset=".3" stop-color="#FF9C00" stop-opacity="0"/>
      <stop offset="1" stop-color="#FF9C00"/>
    </linearGradient>
    <linearGradient id="paint55_linear" x1="233.8" y1="71.8" x2="233.8" y2="109.2" gradientUnits="userSpaceOnUse">
      <stop stop-color="#FF9C00" stop-opacity=".2"/>
      <stop offset="1" stop-color="#FF9C00" stop-opacity="0"/>
    </linearGradient>
    <linearGradient id="paint56_linear" x1="313.7" y1="37.9" x2="313.7" y2="65.8" gradientUnits="userSpaceOnUse">
      <stop stop-color="#FF9C00" stop-opacity=".2"/>
      <stop offset="1" stop-color="#FF9C00" stop-opacity="0"/>
    </linearGradient>
    <linearGradient id="paint57_linear" x1="257.7" y1="125.9" x2="257.7" y2="153.8" gradientUnits="userSpaceOnUse">
      <stop stop-color="#FF9C00" stop-opacity=".2"/>
      <stop offset="1" stop-color="#FF9C00" stop-opacity="0"/>
    </linearGradient>
    <linearGradient id="paint58_linear" x1="301.4" y1="90.8" x2="301.4" y2="117.7" gradientUnits="userSpaceOnUse">
      <stop stop-color="#FF9C00" stop-opacity=".2"/>
      <stop offset="1" stop-color="#FF9C00" stop-opacity="0"/>
    </linearGradient>
    <linearGradient id="paint59_linear" x1="237.3" y1="22" x2="237.3" y2="51.2" gradientUnits="userSpaceOnUse">
      <stop stop-color="#FF9C00" stop-opacity=".2"/>
      <stop offset="1" stop-color="#FF9C00" stop-opacity="0"/>
    </linearGradient>
    <filter id="filter0_f" x="41.5" y="32.5" width="113" height="66.1" filterUnits="userSpaceOnUse" color-interpolation-filters="sRGB">
      <feFlood flood-opacity="0" result="BackgroundImageFix"/>
      <feBlend in="SourceGraphic" in2="BackgroundImageFix" result="shape"/>
      <feGaussianBlur stdDeviation=".5" result="effect1_foregroundBlur"/>
    </filter>
    <filter id="filter1_f" x="31" y="145.4" width="47.7" height="28.4" filterUnits="userSpaceOnUse" color-interpolation-filters="sRGB">
      <feFlood flood-opacity="0" result="BackgroundImageFix"/>
      <feBlend in="SourceGraphic" in2="BackgroundImageFix" result="shape"/>
      <feGaussianBlur stdDeviation=".5" result="effect1_foregroundBlur"/>
    </filter>
    <filter id="filter2_f" x="234.7" y="289.1" width="52.9" height="31.4" filterUnits="userSpaceOnUse" color-interpolation-filters="sRGB">
      <feFlood flood-opacity="0" result="BackgroundImageFix"/>
      <feBlend in="SourceGraphic" in2="BackgroundImageFix" result="shape"/>
      <feGaussianBlur stdDeviation=".5" result="effect1_foregroundBlur"/>
    </filter>
    <filter id="filter3_f" x="435.7" y="150.1" width="52.9" height="31.4" filterUnits="userSpaceOnUse" color-interpolation-filters="sRGB">
      <feFlood flood-opacity="0" result="BackgroundImageFix"/>
      <feBlend in="SourceGraphic" in2="BackgroundImageFix" result="shape"/>
      <feGaussianBlur stdDeviation=".5" result="effect1_foregroundBlur"/>
    </filter>
    <filter id="filter4_f" x="381.5" y="36.5" width="113" height="66.1" filterUnits="userSpaceOnUse" color-interpolation-filters="sRGB">
      <feFlood flood-opacity="0" result="BackgroundImageFix"/>
      <feBlend in="SourceGraphic" in2="BackgroundImageFix" result="shape"/>
      <feGaussianBlur stdDeviation=".5" result="effect1_foregroundBlur"/>
    </filter>
    <filter id="filter5_f" x="35.5" y="235.5" width="113" height="66.1" filterUnits="userSpaceOnUse" color-interpolation-filters="sRGB">
      <feFlood flood-opacity="0" result="BackgroundImageFix"/>
      <feBlend in="SourceGraphic" in2="BackgroundImageFix" result="shape"/>
      <feGaussianBlur stdDeviation=".5" result="effect1_foregroundBlur"/>
    </filter>
    <filter id="filter6_f" x="384.5" y="230.5" width="113" height="66.1" filterUnits="userSpaceOnUse" color-interpolation-filters="sRGB">
      <feFlood flood-opacity="0" result="BackgroundImageFix"/>
      <feBlend in="SourceGraphic" in2="BackgroundImageFix" result="shape"/>
      <feGaussianBlur stdDeviation=".5" result="effect1_foregroundBlur"/>
    </filter>
    <filter id="filter7_d" x="399.5" y="45" width="77.2" height="41" filterUnits="userSpaceOnUse" color-interpolation-filters="sRGB">
      <feFlood flood-opacity="0" result="BackgroundImageFix"/>
      <feColorMatrix in="SourceAlpha" values="0 0 0 0 0 0 0 0 0 0 0 0 0 0 0 0 0 0 127 0"/>
      <feOffset dy="8"/>
      <feGaussianBlur stdDeviation="2"/>
      <feColorMatrix values="0 0 0 0 0.317647 0 0 0 0 0.662745 0 0 0 0 0.882353 0 0 0 0.5 0"/>
      <feBlend in2="BackgroundImageFix" result="effect1_dropShadow"/>
      <feBlend in="SourceGraphic" in2="effect1_dropShadow" result="shape"/>
    </filter>
    <filter id="filter8_d" x="418.8" y="237.1" width="45" height="33.6" filterUnits="userSpaceOnUse" color-interpolation-filters="sRGB">
      <feFlood flood-opacity="0" result="BackgroundImageFix"/>
      <feColorMatrix in="SourceAlpha" values="0 0 0 0 0 0 0 0 0 0 0 0 0 0 0 0 0 0 127 0"/>
      <feOffset dy="8"/>
      <feGaussianBlur stdDeviation="2"/>
      <feColorMatrix values="0 0 0 0 0.317647 0 0 0 0 0.662745 0 0 0 0 0.882353 0 0 0 0.5 0"/>
      <feBlend in2="BackgroundImageFix" result="effect1_dropShadow"/>
      <feBlend in="SourceGraphic" in2="effect1_dropShadow" result="shape"/>
    </filter>
    <filter id="filter9_d" x="62.8" y="239.5" width="57.9" height="40" filterUnits="userSpaceOnUse" color-interpolation-filters="sRGB">
      <feFlood flood-opacity="0" result="BackgroundImageFix"/>
      <feColorMatrix in="SourceAlpha" values="0 0 0 0 0 0 0 0 0 0 0 0 0 0 0 0 0 0 127 0"/>
      <feOffset dy="8"/>
      <feGaussianBlur stdDeviation="2"/>
      <feColorMatrix values="0 0 0 0 0.317647 0 0 0 0 0.662745 0 0 0 0 0.882353 0 0 0 0.5 0"/>
      <feBlend in2="BackgroundImageFix" result="effect1_dropShadow"/>
      <feBlend in="SourceGraphic" in2="effect1_dropShadow" result="shape"/>
    </filter>
    <filter id="filter10_d" x="67.9" y="37.6" width="58.1" height="40.9" filterUnits="userSpaceOnUse" color-interpolation-filters="sRGB">
      <feFlood flood-opacity="0" result="BackgroundImageFix"/>
      <feColorMatrix in="SourceAlpha" values="0 0 0 0 0 0 0 0 0 0 0 0 0 0 0 0 0 0 127 0"/>
      <feOffset dy="8"/>
      <feGaussianBlur stdDeviation="2"/>
      <feColorMatrix values="0 0 0 0 0.317647 0 0 0 0 0.662745 0 0 0 0 0.882353 0 0 0 0.5 0"/>
      <feBlend in2="BackgroundImageFix" result="effect1_dropShadow"/>
      <feBlend in="SourceGraphic" in2="effect1_dropShadow" result="shape"/>
    </filter>
    <filter id="filter11_f" x="197.3" y="125.7" width="141.4" height="82.5" filterUnits="userSpaceOnUse" color-interpolation-filters="sRGB">
      <feFlood flood-opacity="0" result="BackgroundImageFix"/>
      <feBlend in="SourceGraphic" in2="BackgroundImageFix" result="shape"/>
      <feGaussianBlur stdDeviation=".5" result="effect1_foregroundBlur"/>
    </filter>
    <radialGradient id="paint28_radial" cx="0" cy="0" r="1" gradientUnits="userSpaceOnUse" gradientTransform="matrix(-2.41134 2.53189 -2.8751 -2.7382 56 144)">
      <stop stop-color="#81CEFF"/>
      <stop offset="1" stop-color="#54ACE4"/>
    </radialGradient>
    <radialGradient id="paint34_radial" cx="0" cy="0" r="1" gradientUnits="userSpaceOnUse" gradientTransform="matrix(-2.41134 2.53189 -2.8751 -2.7382 262 269)">
      <stop stop-color="#81CEFF"/>
      <stop offset="1" stop-color="#54ACE4"/>
    </radialGradient>
    <radialGradient id="paint35_radial" cx="0" cy="0" r="1" gradientUnits="userSpaceOnUse" gradientTransform="matrix(-2.41134 2.53189 -2.8751 -2.7382 279 280)">
      <stop stop-color="#81CEFF"/>
      <stop offset="1" stop-color="#54ACE4"/>
    </radialGradient>
    <radialGradient id="paint36_radial" cx="0" cy="0" r="1" gradientUnits="userSpaceOnUse" gradientTransform="matrix(-2.41135 2.5319 -2.8751 -2.7382 246 280)">
      <stop stop-color="#81CEFF"/>
      <stop offset="1" stop-color="#54ACE4"/>
    </radialGradient>
    <radialGradient id="paint44_radial" cx="0" cy="0" r="1" gradientUnits="userSpaceOnUse" gradientTransform="matrix(-2.41134 2.53189 -2.8751 -2.7382 262 290)">
      <stop stop-color="#81CEFF"/>
      <stop offset="1" stop-color="#54ACE4"/>
    </radialGradient>
    <radialGradient id="paint51_radial" cx="0" cy="0" r="1" gradientUnits="userSpaceOnUse" gradientTransform="matrix(-2.41134 2.53189 -2.8751 -2.7382 464 150)">
      <stop stop-color="#81CEFF"/>
      <stop offset="1" stop-color="#54ACE4"/>
    </radialGradient>
    <radialGradient id="paint52_radial" cx="0" cy="0" r="1" gradientUnits="userSpaceOnUse" gradientTransform="matrix(-2.41134 2.53189 -2.8751 -2.7382 464 170)">
      <stop stop-color="#81CEFF"/>
      <stop offset="1" stop-color="#54ACE4"/>
    </radialGradient>
    <radialGradient id="paint53_radial" cx="0" cy="0" r="1" gradientUnits="userSpaceOnUse" gradientTransform="matrix(-51.0002 0 0 -28.4526 267 150)">
      <stop offset=".9" stop-color="#FF9C00"/>
      <stop offset="1" stop-color="#CACEF0"/>
    </radialGradient>
  </defs>
</svg>
