<svg width="450" height="611" fill="none" xmlns="http://www.w3.org/2000/svg"><g clip-path="url(#clip0)"><circle opacity=".5" cx="-.36" cy="305.47" r="205.84" stroke="#51A9E1"/><circle cx="-.36" cy="305.47" r="117.848" stroke="#51A9E1"/><ellipse cx="71.136" cy="499.529" rx="31" ry="31.5" fill="#fff"/><rect x="53.636" y="482" width="35" height="35" rx="2" fill="#92C9EC"/><path d="M73.391 497.711l-3.25-1.625a2 2 0 00-2.894 1.789v3.25a2 2 0 002.894 1.789l3.25-1.625c1.474-.737 1.474-2.841 0-3.578z" fill="#103654"/><rect x="56.553" y="484.917" width="3.889" height="3.889" rx="1.944" fill="#fff"/><rect x="82.316" y="484.917" width="3.889" height="3.889" rx="1.944" fill="#fff"/><rect x="56.552" y="491.236" width="3.889" height="3.889" rx="1.944" fill="#fff"/><rect x="82.316" y="491.236" width="3.889" height="3.889" rx="1.944" fill="#fff"/><rect x="56.552" y="497.556" width="3.889" height="3.889" rx="1.944" fill="#fff"/><rect x="82.316" y="497.556" width="3.889" height="3.889" rx="1.944" fill="#fff"/><rect x="56.552" y="503.875" width="3.889" height="3.889" rx="1.944" fill="#fff"/><rect x="82.316" y="503.875" width="3.889" height="3.889" rx="1.944" fill="#fff"/><rect x="56.552" y="510.194" width="3.889" height="3.889" rx="1.944" fill="#fff"/><rect x="82.316" y="510.194" width="3.889" height="3.889" rx="1.944" fill="#fff"/><ellipse cx="206" cy="305.5" rx="31" ry="31.5" fill="#fff"/><path d="M223.5 305.471c0 9.665-7.835 17.5-17.5 17.5s-17.5-7.835-17.5-17.5 7.835-17.5 17.5-17.5 17.5 7.835 17.5 17.5z" fill="#92C9EC"/><path d="M207.325 317.98v-2.267c3.067-.486 4.946-2.915 5.092-5.83 0-6.315-8.544-5.748-8.544-9.068 0-1.457 1.168-2.429 2.702-2.429 1.752 0 3.213 1.053 3.724 1.538.073.162.292.081.365-.081l1.168-2.429c.073-.081 0-.242-.073-.323-.438-.405-2.027-1.627-4.437-1.87v-2.26c0-.162-.146-.324-.292-.324h-1.465c-.146 0-.292.162-.292.324v2.348c-2.775.486-4.833 2.753-4.833 5.668 0 5.992 8.544 5.668 8.544 9.068 0 1.62-1.241 2.429-2.628 2.429-2.045 0-3.725-1.376-4.309-1.943-.073-.081-.292-.081-.365.081l-1.461 2.267c-.073.162-.073.324 0 .405.512.486 2.348 2.105 5.05 2.429v2.267c0 .162.146.324.292.324h1.469c.146 0 .293-.162.293-.324z" fill="#fff"/><ellipse cx="168.52" cy="188.529" rx="31" ry="31.5" fill="#fff"/><path fill-rule="evenodd" clip-rule="evenodd" d="M177.27 195.597v2.625h-5.347v-2.441c-5.39-4.912-16.001-4.667-16.479-4.656h-.005l-.015.001a.757.757 0 01-.126 0h-3.403a.875.875 0 01-.875-.875v-7c0-.484.392-.876.875-.876h3.463a.753.753 0 01.081.002h.019c.653.012 11.131.205 16.465-4.657v-2.345h5.347v2.529l.002.096v17.501l-.002.096zm-24.5-11.471h1.75v5.25h-1.75v-5.25zm5.67 18.257l3.485.329a.874.874 0 00.949-.985l-1.131-8.655a45.41 45.41 0 00-.893-.152 35.67 35.67 0 00-2.617-.35l-.001-.005a37.884 37.884 0 00-1.785-.15l1.208 9.211a.874.874 0 00.785.757zm17.372-25.55h-2.431v19.931h2.431v-19.931z" fill="#92C9EC"/><path d="M185.147 187.626a.875.875 0 100-1.75h-5.25a.875.875 0 100 1.75h5.25zM182.522 184.126h-2.625a.876.876 0 010-1.751h2.625c.965 0 1.75-.785 1.75-1.75a.875.875 0 111.75 0 3.504 3.504 0 01-3.5 3.501zM184.272 192.876a.875.875 0 101.75 0c0-1.93-1.57-3.5-3.5-3.5h-2.625a.875.875 0 100 1.75h2.625c.965 0 1.75.785 1.75 1.75z" fill="#103654"/><ellipse cx="71.136" cy="111.529" rx="31" ry="31.5" fill="#fff"/><path d="M68.839 105.636a.892.892 0 01.439-.15.886.886 0 01.524.135.934.934 0 01.36.419l4.372 9.911 1.892-3.927a.944.944 0 01.337-.383.894.894 0 01.48-.141h2.643v1.944h-2.072l-2.49 5.128a.94.94 0 01-.344.387.882.882 0 01-.971-.018.943.943 0 01-.33-.398l-4.401-9.961-2.177 4.348a.935.935 0 01-.335.375.878.878 0 01-.473.139H62.34c-.12.002-.241-.066-.353-.113a.917.917 0 01-.502-.515.983.983 0 01.201-1.043.893.893 0 01.654-.273h3.403l2.785-5.509a.936.936 0 01.312-.355z" fill="#103654"/><path fill-rule="evenodd" clip-rule="evenodd" d="M64.573 94h13.125a3.646 3.646 0 013.646 3.646v27.708A3.646 3.646 0 0177.698 129H64.573a3.646 3.646 0 01-3.646-3.646V97.646A3.646 3.646 0 0164.573 94zm-2.187 29.167h17.5V99.104h-17.5v24.063z" fill="#92C9EC"/><circle cx="71.136" cy="126.083" fill="#fff" r="1.458"/><ellipse cx="166.52" cy="422.529" rx="31" ry="31.5" fill="#fff"/><path d="M165.252 431.25h11.159v2.917h-11.159v-2.917zM183.921 413.878l-4.227 12.929c-.206.592-.436 1.04-1.601 1.04h-15.462l.486 1.945-2.97 1.285-4.502-20.244h-5.549c-.707 0-1.076-.057-1.076-.707v-1.2c0-.671.395-1.009 1.076-1.009h6.572c1.004 0 1.501.703 1.67 1.44l.647 2.449 23.384.004c.171 0 1.006.176 1.435.814.167.249.324.626.117 1.254z" fill="#92C9EC"/><path fill-rule="evenodd" clip-rule="evenodd" d="M162.874 437.569a4.131 4.131 0 10.001-8.263 4.131 4.131 0 00-.001 8.263zm0-2.066a2.066 2.066 0 100-4.132 2.066 2.066 0 000 4.132zM178.43 437.569a4.132 4.132 0 100-8.264 4.132 4.132 0 000 8.264zm0-2.066a2.066 2.066 0 100-4.132 2.066 2.066 0 000 4.132z" fill="#92C9EC"/><g opacity=".25"><circle cx="-.359" cy="305.471" r="304.692" stroke="#51A9E1"/><ellipse cx="183.036" cy="61.553" rx="25" ry="25.403" fill="#fff"/><rect x="168.923" y="47.416" width="28.226" height="28.226" rx="2" fill="#92C9EC"/><path d="M184.163 59.74l-1.369-.684c-1.329-.665-2.894.302-2.894 1.79v1.368c0 1.486 1.565 2.453 2.894 1.788l1.369-.684c1.474-.737 1.474-2.84 0-3.578z" fill="#103654"/><rect x="171.276" y="49.769" width="3.136" height="3.136" rx="1.568" fill="#fff"/><rect x="192.053" y="49.769" width="3.136" height="3.136" rx="1.568" fill="#fff"/><rect x="171.275" y="54.865" width="3.136" height="3.136" rx="1.568" fill="#fff"/><rect x="192.053" y="54.865" width="3.136" height="3.136" rx="1.568" fill="#fff"/><rect x="171.275" y="59.961" width="3.136" height="3.136" rx="1.568" fill="#fff"/><rect x="192.053" y="59.961" width="3.136" height="3.136" rx="1.568" fill="#fff"/><rect x="171.275" y="65.058" width="3.136" height="3.136" rx="1.568" fill="#fff"/><rect x="192.053" y="65.058" width="3.136" height="3.136" rx="1.568" fill="#fff"/><rect x="171.275" y="70.154" width="3.136" height="3.136" rx="1.568" fill="#fff"/><rect x="192.053" y="70.154" width="3.136" height="3.136" rx="1.568" fill="#fff"/><ellipse cx="288.369" cy="402.024" rx="25" ry="25.403" fill="#fff"/><path d="M302.482 402c0 7.794-6.318 14.113-14.113 14.113-7.794 0-14.113-6.319-14.113-14.113s6.319-14.113 14.113-14.113c7.795 0 14.113 6.319 14.113 14.113z" fill="#92C9EC"/><path d="M289.437 412.088v-1.828c2.474-.392 3.989-2.351 4.107-4.701 0-5.093-6.89-4.636-6.89-7.313 0-1.176.942-1.959 2.179-1.959 1.413 0 2.591.849 3.003 1.24.059.131.236.066.295-.065l.942-1.959c.059-.065 0-.196-.059-.261-.353-.327-1.635-1.312-3.578-1.508v-1.822c0-.131-.118-.261-.236-.261h-1.182c-.117 0-.235.13-.235.261v1.893c-2.238.392-3.897 2.22-3.897 4.571 0 4.832 6.89 4.571 6.89 7.313 0 1.306-1.001 1.959-2.12 1.959-1.649 0-3.003-1.11-3.475-1.567-.058-.065-.235-.065-.294.065l-1.178 1.829c-.059.13-.059.261 0 .326.412.392 1.893 1.698 4.072 1.959v1.828c0 .131.118.262.236.262h1.185c.118 0 .235-.131.235-.262z" fill="#fff"/><ellipse cx="182.626" cy="543.435" rx="25" ry="25.403" fill="#fff"/><path fill-rule="evenodd" clip-rule="evenodd" d="M189.682 549.136v2.116h-4.312v-1.968c-4.347-3.962-12.904-3.764-13.29-3.755h-.016a.682.682 0 01-.101.001h-2.745a.706.706 0 01-.705-.706v-5.646c0-.39.316-.705.705-.705h2.793a.24.24 0 01.038 0l.027.001h.016c.527.009 8.976.165 13.278-3.756v-1.891h4.312v2.04l.002.077v14.114l-.002.078zm-19.758-9.252h1.412v4.234h-1.412v-4.234zm4.573 14.724l2.81.265a.704.704 0 00.765-.794l-.911-6.98a45.894 45.894 0 00-.72-.123 29.405 29.405 0 00-2.112-.282v-.004c-.476-.051-.96-.093-1.439-.121l.973 7.428c.043.327.306.58.634.611zm14.009-20.605h-1.96v16.073h1.96v-16.073z" fill="#92C9EC"/><path d="M196.035 542.707a.706.706 0 000-1.412h-4.234a.706.706 0 100 1.412h4.234zM193.918 539.884h-2.117a.705.705 0 110-1.411h2.117c.778 0 1.411-.633 1.411-1.412a.705.705 0 011.411 0 2.825 2.825 0 01-2.822 2.823zM195.329 546.941a.706.706 0 101.411 0 2.825 2.825 0 00-2.822-2.823h-2.117a.706.706 0 100 1.412h2.117c.778 0 1.411.633 1.411 1.411z" fill="#103654"/><ellipse cx="286.349" cy="215.24" rx="25" ry="25.403" fill="#fff"/><path d="M285.327 222.273h8.999v2.352h-8.999v-2.352zM300.382 208.263l-3.408 10.426c-.167.479-.352.84-1.292.84h-12.469l.392 1.568-2.395 1.036-3.631-16.325h-4.475c-.57 0-.868-.046-.868-.57v-.968c0-.542.319-.814.868-.814h5.3c.809 0 1.211.567 1.347 1.161l.522 1.975 18.858.004c.138 0 .811.141 1.157.655.135.201.262.506.094 1.012z" fill="#92C9EC"/><path fill-rule="evenodd" clip-rule="evenodd" d="M283.409 227.369a3.332 3.332 0 100-6.665 3.332 3.332 0 000 6.665zm0-1.666a1.666 1.666 0 100-3.332 1.666 1.666 0 000 3.332zM295.954 227.369a3.332 3.332 0 100-6.665 3.332 3.332 0 000 6.665zm0-1.666a1.666 1.666 0 100-3.332 1.666 1.666 0 000 3.332z" fill="#92C9EC"/></g><g opacity=".1"><circle cx="-.359" cy="305.471" r="407.051" stroke="url(#paint0_linear)"/><ellipse cx="328.928" cy="67.312" rx="20" ry="20.323" fill="#fff"/><rect x="317.637" y="56.003" width="22.581" height="22.581" rx="2" fill="#92C9EC"/><path d="M326.419 67.293a1.938 1.938 0 002.805 1.734c1.428-.715 1.428-2.753 0-3.468a1.938 1.938 0 00-2.805 1.734z" fill="#103654"/><rect x="319.519" y="57.885" width="2.509" height="2.509" rx="1.254" fill="#fff"/><rect x="336.141" y="57.885" width="2.509" height="2.509" rx="1.254" fill="#fff"/><rect x="319.519" y="61.962" width="2.509" height="2.509" rx="1.254" fill="#fff"/><rect x="336.141" y="61.962" width="2.509" height="2.509" rx="1.254" fill="#fff"/><rect x="319.519" y="66.039" width="2.509" height="2.509" rx="1.254" fill="#fff"/><rect x="336.141" y="66.039" width="2.509" height="2.509" rx="1.254" fill="#fff"/><rect x="319.519" y="70.116" width="2.509" height="2.509" rx="1.254" fill="#fff"/><rect x="336.141" y="70.116" width="2.509" height="2.509" rx="1.254" fill="#fff"/><rect x="319.519" y="74.193" width="2.509" height="2.509" rx="1.254" fill="#fff"/><rect x="336.141" y="74.193" width="2.509" height="2.509" rx="1.254" fill="#fff"/><ellipse cx="401.704" cy="300.019" rx="20" ry="20.323" fill="#fff"/><path d="M412.995 300c0 6.235-5.055 11.29-11.291 11.29-6.235 0-11.29-5.055-11.29-11.29 0-6.235 5.055-11.29 11.29-11.29 6.236 0 11.291 5.055 11.291 11.29z" fill="#92C9EC"/><path d="M402.559 308.071v-1.463c1.979-.313 3.191-1.881 3.285-3.761 0-4.075-5.512-3.709-5.512-5.851 0-.94.754-1.567 1.743-1.567 1.131 0 2.073.679 2.403.993.047.104.188.052.235-.052l.754-1.568c.047-.052 0-.156-.047-.209-.283-.261-1.308-1.049-2.863-1.205v-1.459c0-.104-.094-.209-.188-.209h-.945c-.095 0-.189.105-.189.209v1.515c-1.79.314-3.117 1.776-3.117 3.657 0 3.865 5.512 3.656 5.512 5.85 0 1.045-.801 1.568-1.696 1.568-1.319 0-2.403-.889-2.78-1.254-.047-.052-.188-.052-.236.052l-.942 1.463c-.047.104-.047.209 0 .261.33.313 1.515 1.358 3.258 1.567v1.463c0 .104.094.209.188.209h.948c.095 0 .189-.105.189-.209z" fill="#fff"/><ellipse cx="330.366" cy="532.181" rx="20" ry="20.323" fill="#fff"/><path d="M328.884 528.379a.573.573 0 01.622-.01.61.61 0 01.232.27l2.821 6.395 1.22-2.534a.606.606 0 01.218-.247c.093-.06.2-.091.309-.091h1.705v1.255h-1.337l-1.606 3.308a.608.608 0 01-.222.249.569.569 0 01-.626-.011.601.601 0 01-.213-.257l-2.84-6.426-1.404 2.805a.58.58 0 01-.521.332h-2.551c-.078.001-.156-.043-.228-.074a.592.592 0 01-.324-.332.635.635 0 01.13-.673.575.575 0 01.422-.176h2.195l1.797-3.554a.601.601 0 01.201-.229z" fill="#103654"/><path fill-rule="evenodd" clip-rule="evenodd" d="M326.132 520.872h8.468a2.352 2.352 0 012.352 2.352V541.1a2.352 2.352 0 01-2.352 2.352h-8.468a2.352 2.352 0 01-2.352-2.352v-17.876a2.352 2.352 0 012.352-2.352zm-1.411 18.817h11.29v-15.524h-11.29v15.524z" fill="#92C9EC"/><circle cx="330.366" cy="541.571" fill="#fff" r=".941"/></g></g><defs><linearGradient id="paint0_linear" x1="117.402" y1="-1.221" x2="117.402" y2="610.116" gradientUnits="userSpaceOnUse"><stop stop-color="#51A9E1" stop-opacity="0"/><stop offset=".12" stop-color="#51A9E1"/><stop offset=".907" stop-color="#51A9E1"/><stop offset="1" stop-color="#51A9E1" stop-opacity="0"/></linearGradient><clipPath id="clip0"><path fill="#fff" d="M0 0h450v611H0z"/></clipPath></defs></svg>