<svg width="26" height="26" fill="none" xmlns="http://www.w3.org/2000/svg"><rect x=".5" y=".5" width="25" height="25" rx="2.5" stroke="#FFB102"/><path d="M17.512 14.139h0a1.392 1.392 0 00-.394 1.224h0l.823 4.864-4.298-2.291h0a1.366 1.366 0 00-1.286 0h0L8.06 20.227l.823-4.863h0a1.402 1.402 0 00-.393-1.225h0l-3.492-3.45 4.818-.71s0 0 0 0a1.37 1.37 0 00.613-.253l-.297-.402.297.402c.18-.133.326-.308.424-.51 0 0 0 0 0 0L13 4.804l2.148 4.414a1.386 1.386 0 001.037.762s0 0 0 0l4.818.71-3.491 3.45z" stroke="#FFB102"/></svg>