<svg width="26" height="26" fill="none" xmlns="http://www.w3.org/2000/svg"><rect x=".5" y=".5" width="25" height="25" rx="2.5" stroke="#6E33F4"/><path d="M12.872 10.5H9.5v-2H8.299M7.487 13.5H4.61" stroke="#6E33F4"/><circle cx="7.5" cy="8.5" r="1" stroke="#6E33F4"/><circle cx="8.438" cy="13.438" r=".938" stroke="#6E33F4"/><circle cx="16.5" cy="12.5" r="1" stroke="#6E33F4"/><circle cx="9.438" cy="18.438" r=".938" stroke="#6E33F4"/><circle cx="16.5" cy="18.5" r="1" stroke="#6E33F4"/><circle cx="16.5" cy="7.5" r="1" stroke="#6E33F4"/><path d="M13.026 16.5H9.5v1M12.82 18.5h2.848M13 7.5h2.921M21.583 15.5H16.5v-2.209" stroke="#6E33F4"/><path d="M13 4.662c0-2.275-4.492-2.07-5.69.64-1.146 0-4.964 2.673-2.306 7.623-1.46 1.042-1.48 3.905 1.312 4.572-.608 1.06-1 3.23 2.084 3.648 1.25 1.98 3.44 2.136 4.6.833m0-17.316v17.316m0-17.316c0-2.275 4.6-1.858 5.799.851 1.146 0 4.845 2.293 2.188 7.243 1.459 1.042 1.49 4.074-1.303 4.741.608 1.06 1 3.23-2.084 3.648-1.25 1.98-3.439 2.136-4.6.833" stroke="#6E33F4"/></svg>