<svg width="73" height="72" fill="none" xmlns="http://www.w3.org/2000/svg"><rect x=".862" width="71.68" height="71.68" rx="14" fill="#EBF9FF"/><path d="M24.459 35.927l1.115-7.327c3.717-.376 11.932-2.255 15.054-6.764 1.673 2.818 3.346 4.51 8.921 6.764l1.673 6.763" stroke="#92C9EC" stroke-width="2" stroke-linecap="round" stroke-linejoin="round"/><path d="M22.854 46.645c.932 3.514 5.442 12.92 14.27 12.92s13.338-9.406 14.27-12.92c2.009-1.22 6.956-4.59 2.94-9.538.667-9.259-.708-24.376-17.21-24.376-16.502 0-17.876 15.117-17.21 24.376-4.016 4.948.932 8.319 2.94 9.538z" stroke="#92C9EC" stroke-width="2" stroke-linecap="round" stroke-linejoin="round"/><path d="M31.779 49.791c1.038.93 3.213 1.675 5.345 1.675 2.132 0 4.588-.856 5.346-1.675M35.7 44.205c.276.19.856.34 1.424.34s1.223-.173 1.425-.34" stroke="#92C9EC" stroke-width="2" stroke-linecap="round"/><circle cx="31.422" cy="36.962" r="1" fill="#fff" stroke="#92C9EC" stroke-width="2"/><path d="M29.998 33.006c.276-.19.856-.341 1.425-.341.568 0 1.223.174 1.424.34M41.4 33.006c.278-.19.857-.341 1.426-.341.568 0 1.223.174 1.425.34" stroke="#92C9EC" stroke-width="2" stroke-linecap="round"/><circle cx="42.826" cy="36.962" r="1" stroke="#92C9EC" stroke-width="2"/></svg>