<svg width="1095" height="17" fill="none" xmlns="http://www.w3.org/2000/svg">
  <path d="M1 7a1 1 0 0 0 0 2V7Zm0 2h96V7H1v2Zm96 0h150V7H97v2Zm150 0h149V7H247v2Zm149 0h150V7H396v2Zm150 0h150V7H546v2Zm150 0h151V7H696v2Zm151 0h151V7H847v2Zm151 0h93V7h-93v2Z" fill="url(#a)"/>
  <path d="m1082 15 9-6.5-9-6.5" stroke="url(#b)" stroke-width="4"/>
  <defs>
    <linearGradient id="a" x1="1071" y1="8.05" x2="37.002" y2="8.063" gradientUnits="userSpaceOnUse">
      <stop stop-color="#FF9C00"/>
      <stop offset="1" stop-color="#EC8266"/>
    </linearGradient>
    <linearGradient id="b" x1="1082.05" y1="15" x2="1092.01" y2="15" gradientUnits="userSpaceOnUse">
      <stop stop-color="#FF9C00" stop-opacity="0"/>
      <stop offset=".564" stop-color="#FD990B"/>
      <stop offset="1" stop-color="#EC8266"/>
    </linearGradient>
  </defs>
</svg>
