<svg width="972" height="515" viewBox="0 0 972 515" fill="none" xmlns="http://www.w3.org/2000/svg">
<g clip-path="url(#clip0)">
<path d="M10.804 -0.38501V514.914" stroke="#0F4465" stroke-miterlimit="10"/>
<path d="M48.8038 -0.38501V514.914" stroke="#0F4465" stroke-miterlimit="10"/>
<path d="M86.804 -0.38501V514.914" stroke="#0F4465" stroke-miterlimit="10"/>
<path d="M124.804 -0.38501V514.914" stroke="#0F4465" stroke-miterlimit="10"/>
<path d="M162.804 -0.38501V514.914" stroke="#0F4465" stroke-miterlimit="10"/>
<path d="M200.804 -0.38501V514.914" stroke="#0F4465" stroke-miterlimit="10"/>
<path d="M238.804 -0.38501V514.914" stroke="#0F4465" stroke-miterlimit="10"/>
<path d="M276.804 -0.38501V514.914" stroke="#0F4465" stroke-miterlimit="10"/>
<path d="M314.804 -0.38501V514.914" stroke="#0F4465" stroke-miterlimit="10"/>
<path d="M352.804 -0.38501V514.914" stroke="#0F4465" stroke-miterlimit="10"/>
<path d="M390.804 -0.38501V514.914" stroke="#0F4465" stroke-miterlimit="10"/>
<path d="M428.804 -0.38501V514.914" stroke="#0F4465" stroke-miterlimit="10"/>
<path d="M466.804 -0.38501V514.914" stroke="#0F4465" stroke-miterlimit="10"/>
<path d="M504.804 -0.38501V514.914" stroke="#0F4465" stroke-miterlimit="10"/>
<path d="M542.804 -0.38501V514.914" stroke="#0F4465" stroke-miterlimit="10"/>
<path d="M580.804 -0.38501V514.914" stroke="#0F4465" stroke-miterlimit="10"/>
<path d="M618.804 -0.38501V514.914" stroke="#0F4465" stroke-miterlimit="10"/>
<path d="M656.804 -0.38501V514.914" stroke="#0F4465" stroke-miterlimit="10"/>
<path d="M694.804 -0.38501V514.914" stroke="#0F4465" stroke-miterlimit="10"/>
<path d="M732.804 -0.38501V514.914" stroke="#0F4465" stroke-miterlimit="10"/>
<path d="M770.804 -0.38501V514.914" stroke="#0F4465" stroke-miterlimit="10"/>
<path d="M808.804 -0.38501V514.914" stroke="#0F4465" stroke-miterlimit="10"/>
<path d="M846.804 -0.38501V514.914" stroke="#0F4465" stroke-miterlimit="10"/>
<path d="M884.804 -0.38501V514.914" stroke="#0F4465" stroke-miterlimit="10"/>
<path d="M922.804 -0.38501V514.914" stroke="#0F4465" stroke-miterlimit="10"/>
<path d="M960.804 -0.38501V514.914" stroke="#0F4465" stroke-miterlimit="10"/>
<path d="M-0.195312 503.929L971.805 503.929" stroke="#0F4465" stroke-miterlimit="10"/>
<path d="M-0.195312 465.981L971.805 465.981" stroke="#0F4465" stroke-miterlimit="10"/>
<path d="M-0.195312 428.033L971.805 428.033" stroke="#0F4465" stroke-miterlimit="10"/>
<path d="M-0.195312 390.084L971.805 390.084" stroke="#0F4465" stroke-miterlimit="10"/>
<path d="M-0.195312 352.136L971.805 352.136" stroke="#0F4465" stroke-miterlimit="10"/>
<path d="M-0.195312 314.188L971.805 314.187" stroke="#0F4465" stroke-miterlimit="10"/>
<path d="M-0.195312 276.239L971.805 276.239" stroke="#0F4465" stroke-miterlimit="10"/>
<path d="M-0.195312 238.291L971.805 238.291" stroke="#0F4465" stroke-miterlimit="10"/>
<path d="M-0.195312 200.342L971.805 200.342" stroke="#0F4465" stroke-miterlimit="10"/>
<path d="M-0.195312 162.394L971.805 162.394" stroke="#0F4465" stroke-miterlimit="10"/>
<path d="M-0.195312 124.445L971.805 124.445" stroke="#0F4465" stroke-miterlimit="10"/>
<path d="M-0.195312 86.4971L971.805 86.497" stroke="#0F4465" stroke-miterlimit="10"/>
<path d="M-0.195312 48.5486L971.805 48.5485" stroke="#0F4465" stroke-miterlimit="10"/>
<path d="M-0.195312 10.6001L971.805 10.6001" stroke="#0F4465" stroke-miterlimit="10"/>
<circle cx="485.888" cy="378.282" r="155.891" stroke="#0F6195" stroke-width="1.15748"/>
<path d="M368.654 495.516C350.135 476.997 336.267 454.355 328.186 429.444C320.104 404.533 318.039 378.062 322.159 352.199" stroke="#FC8B10" stroke-width="1.15748"/>
<path d="M371.293 465.494C368.358 461.637 365.619 457.634 363.087 453.501" stroke="#0F6195" stroke-width="1.15748"/>
<path d="M620.135 430.396C618.313 435.088 616.247 439.681 613.945 444.156" stroke="#0F6195" stroke-width="1.15748"/>
<path d="M632.613 281.632C639.865 292.643 645.856 304.435 650.471 316.785" stroke="#FC8B10" stroke-width="1.15748"/>
<path d="M352.658 263.851C354.322 261.914 356.027 260.014 357.774 258.152" stroke="#0F6195" stroke-width="1.15748"/>
<path d="M485.888 234.275C494.18 234.275 502.455 234.991 510.623 236.415" stroke="#0F6195" stroke-width="1.15748"/>
<path d="M539.525 244.636C542.106 245.672 544.656 246.782 547.172 247.966" stroke="#0F6195" stroke-width="1.15748"/>
<rect x="417.067" y="231.772" width="132.193" height="264.386" rx="11.122" fill="#103654" stroke="#0F6195" stroke-width="4.4488"/>
<path d="M452.281 230.878H513.293V232.403C513.293 234.539 513.293 235.607 512.877 236.423C512.512 237.14 511.928 237.723 511.211 238.089C510.395 238.505 509.327 238.505 507.192 238.505H458.382C456.246 238.505 455.179 238.505 454.363 238.089C453.645 237.723 453.062 237.14 452.697 236.423C452.281 235.607 452.281 234.539 452.281 232.403V230.878Z" fill="#0F6195"/>
<rect x="429" y="259.821" width="108.987" height="30.2742" rx="4.25926" stroke="#FC8B10" stroke-width="1.21097" stroke-linecap="round" stroke-dasharray="3.63 3.63"/>
<rect x="431.191" y="304.021" width="107.776" height="29.0632" rx="3.65378" stroke="#0F6195" stroke-width="1.21097"/>
<path d="M454.006 321.509L454.691 319.626C454.755 319.433 454.718 319.224 454.579 319.08L452.958 317.309L454.413 315.404C454.536 315.244 454.557 315.035 454.477 314.853L453.626 313.034C453.541 312.852 453.364 312.734 453.161 312.723L450.765 312.622L450.449 310.246C450.422 310.048 450.288 309.877 450.101 309.813L448.213 309.128C448.026 309.058 447.817 309.101 447.667 309.235L445.902 310.861L443.992 309.401C443.832 309.278 443.623 309.256 443.441 309.342L441.622 310.193C441.44 310.278 441.323 310.455 441.317 310.653L441.216 313.055L438.835 313.371C438.637 313.398 438.472 313.531 438.402 313.719L437.717 315.607C437.648 315.795 437.691 316.003 437.824 316.148L439.45 317.919L437.99 319.824C437.872 319.984 437.846 320.198 437.931 320.375L438.782 322.194C438.867 322.376 439.044 322.494 439.247 322.504L441.644 322.606L441.959 324.987C441.986 325.185 442.12 325.351 442.307 325.42L444.195 326.1C444.254 326.121 444.318 326.132 444.377 326.132C444.511 326.132 444.639 326.084 444.741 325.993L446.506 324.366L448.416 325.827C448.571 325.95 448.785 325.971 448.967 325.886L450.786 325.035C450.962 324.955 451.085 324.773 451.091 324.575L451.192 322.178L453.573 321.857C453.771 321.836 453.937 321.696 454.006 321.509ZM447.63 320.664C447.18 320.872 446.699 320.979 446.207 320.979C444.907 320.979 443.709 320.22 443.158 319.043C442.778 318.229 442.735 317.314 443.04 316.469C443.35 315.624 443.965 314.949 444.779 314.569C445.228 314.355 445.709 314.248 446.201 314.248C447.501 314.248 448.7 315.014 449.251 316.191C450.037 317.871 449.309 319.877 447.63 320.664Z" fill="#0F6195"/>
<rect x="460.86" y="310.682" width="72.658" height="2.42193" rx="1.21097" fill="#0F6195"/>
<rect x="460.86" y="316.737" width="72.658" height="2.42193" rx="1.21097" fill="#0F6195"/>
<rect x="460.86" y="322.792" width="47.2277" height="2.42193" rx="1.21097" fill="#0F6195"/>
<rect x="431.191" y="341.562" width="107.776" height="29.0632" rx="3.65378" stroke="#0F6195" stroke-width="1.21097"/>
<path d="M454.006 359.049L454.691 357.166C454.755 356.973 454.718 356.764 454.579 356.62L452.958 354.849L454.413 352.944C454.536 352.784 454.557 352.575 454.477 352.393L453.626 350.574C453.541 350.392 453.364 350.274 453.161 350.264L450.765 350.162L450.449 347.786C450.422 347.588 450.288 347.417 450.101 347.353L448.213 346.668C448.026 346.598 447.817 346.641 447.667 346.775L445.902 348.402L443.992 346.941C443.832 346.818 443.623 346.796 443.441 346.882L441.622 347.733C441.44 347.818 441.323 347.995 441.317 348.193L441.216 350.595L438.835 350.911C438.637 350.938 438.472 351.071 438.402 351.259L437.717 353.147C437.648 353.335 437.691 353.543 437.824 353.688L439.45 355.459L437.99 357.364C437.872 357.524 437.846 357.738 437.931 357.915L438.782 359.734C438.867 359.916 439.044 360.034 439.247 360.044L441.644 360.146L441.959 362.527C441.986 362.725 442.12 362.891 442.307 362.96L444.195 363.64C444.254 363.661 444.318 363.672 444.377 363.672C444.511 363.672 444.639 363.624 444.741 363.533L446.506 361.906L448.416 363.367C448.571 363.49 448.785 363.512 448.967 363.426L450.786 362.575C450.962 362.495 451.085 362.313 451.091 362.115L451.192 359.718L453.573 359.397C453.771 359.376 453.937 359.236 454.006 359.049ZM447.63 358.204C447.18 358.412 446.699 358.519 446.207 358.519C444.907 358.519 443.709 357.76 443.158 356.583C442.778 355.769 442.735 354.854 443.04 354.009C443.35 353.164 443.965 352.489 444.779 352.11C445.228 351.895 445.709 351.788 446.201 351.788C447.501 351.788 448.7 352.554 449.251 353.731C450.037 355.411 449.309 357.417 447.63 358.204Z" fill="#0F6195"/>
<rect x="460.86" y="348.222" width="72.658" height="2.42193" rx="1.21097" fill="#0F6195"/>
<rect x="460.86" y="354.277" width="72.658" height="2.42193" rx="1.21097" fill="#0F6195"/>
<rect x="460.86" y="360.332" width="47.2277" height="2.42193" rx="1.21097" fill="#0F6195"/>
<rect x="434.605" y="254.605" width="107.776" height="29.0632" rx="3.65378" fill="#103654" stroke="#0F6195" stroke-width="1.21097"/>
<path d="M457.421 272.093L458.106 270.21C458.17 270.017 458.133 269.809 457.994 269.664L456.373 267.893L457.828 265.988C457.951 265.828 457.972 265.619 457.892 265.437L457.041 263.618C456.956 263.436 456.779 263.318 456.576 263.308L454.179 263.206L453.864 260.83C453.837 260.632 453.703 260.461 453.516 260.397L451.628 259.712C451.441 259.643 451.232 259.685 451.082 259.819L449.317 261.446L447.407 259.985C447.247 259.862 447.038 259.841 446.856 259.926L445.037 260.777C444.855 260.863 444.738 261.039 444.732 261.237L444.631 263.639L442.25 263.955C442.052 263.982 441.886 264.116 441.817 264.303L441.132 266.192C441.063 266.379 441.105 266.588 441.239 266.732L442.865 268.503L441.405 270.408C441.287 270.568 441.261 270.782 441.346 270.959L442.197 272.778C442.282 272.96 442.459 273.078 442.662 273.089L445.059 273.19L445.374 275.571C445.401 275.769 445.535 275.935 445.722 276.005L447.61 276.684C447.669 276.706 447.733 276.716 447.792 276.716C447.926 276.716 448.054 276.668 448.156 276.577L449.921 274.951L451.831 276.411C451.986 276.534 452.2 276.556 452.382 276.47L454.201 275.619C454.377 275.539 454.5 275.357 454.506 275.159L454.607 272.762L456.988 272.441C457.186 272.42 457.352 272.281 457.421 272.093ZM451.045 271.248C450.595 271.457 450.114 271.564 449.622 271.564C448.322 271.564 447.124 270.804 446.573 269.627C446.193 268.813 446.15 267.898 446.455 267.053C446.765 266.208 447.38 265.534 448.193 265.154C448.643 264.94 449.124 264.833 449.616 264.833C450.916 264.833 452.115 265.598 452.666 266.775C453.452 268.455 452.724 270.461 451.045 271.248Z" fill="#0F6195"/>
<rect x="464.274" y="261.266" width="72.658" height="2.42193" rx="1.21097" fill="#0F6195"/>
<rect x="464.274" y="267.321" width="72.658" height="2.42193" rx="1.21097" fill="#0F6195"/>
<rect x="464.274" y="273.375" width="47.2277" height="2.42193" rx="1.21097" fill="#0F6195"/>
<rect x="429" y="388.184" width="108.987" height="87.1896" rx="6.05483" stroke="#FC8B10" stroke-width="1.21097" stroke-linecap="round" stroke-dasharray="3.63 3.63"/>
<rect x="423.715" y="383.102" width="107.776" height="85.9786" rx="5.44935" fill="#103654" stroke="#0F6195" stroke-width="1.21097"/>
<rect x="448.539" y="450.31" width="70.2361" height="2.42193" rx="1.21097" fill="#0F6195"/>
<rect x="448.539" y="455.154" width="70.2361" height="2.42193" rx="1.21097" fill="#0F6195"/>
<rect x="448.539" y="459.998" width="46.0167" height="2.42193" rx="1.21097" fill="#0F6195"/>
<rect x="431.586" y="390.973" width="4.84387" height="52.0716" rx="2.42193" fill="#0F6195"/>
<rect x="431.585" y="411.559" width="4.84387" height="31.4851" rx="2.42193" fill="#007DCD"/>
<rect x="446.118" y="390.973" width="4.84387" height="52.0716" rx="2.42193" fill="#0F6195"/>
<rect x="446.117" y="407.927" width="4.84387" height="35.118" rx="2.42193" fill="#007DCD"/>
<rect x="489.713" y="390.973" width="4.84387" height="52.0716" rx="2.42193" fill="#0F6195"/>
<rect x="489.712" y="403.083" width="4.84387" height="39.9619" rx="2.42193" fill="#007DCD"/>
<rect x="460.649" y="390.973" width="4.84387" height="52.0716" rx="2.42193" fill="#0F6195"/>
<rect x="460.649" y="411.559" width="4.84387" height="31.4851" rx="2.42193" fill="#007DCD"/>
<rect x="475.181" y="390.973" width="4.84387" height="52.0716" rx="2.42193" fill="#0F6195"/>
<rect x="475.18" y="411.559" width="4.84387" height="31.4851" rx="2.42193" fill="#007DCD"/>
<rect x="504.243" y="390.973" width="4.84387" height="52.0716" rx="2.42193" fill="#0F6195"/>
<rect x="504.243" y="404.293" width="4.84387" height="38.7509" rx="2.42193" fill="#007DCD"/>
<rect x="518.775" y="390.973" width="4.84387" height="52.0716" rx="2.42193" fill="#0F6195"/>
<rect x="518.775" y="399.45" width="4.84387" height="43.5948" rx="2.42193" fill="#007DCD"/>
<circle cx="437.641" cy="456.365" r="6.05483" fill="#0F6195"/>
<rect x="565.867" y="303.867" width="104" height="50.2667" rx="2.6" fill="#103654" stroke="#0F6195" stroke-width="1.73333"/>
<path d="M610.678 340.169C607.83 342.57 604.223 343.882 600.498 343.874C596.773 343.865 593.172 342.536 590.335 340.122C587.498 337.709 585.608 334.367 585.003 330.692C584.397 327.016 585.115 323.245 587.028 320.049" stroke="#0F6195" stroke-width="4.91892"/>
<path d="M586.931 320.214C588.316 317.834 590.302 315.86 592.689 314.487C595.075 313.115 597.781 312.393 600.534 312.393" stroke="#FC8B10" stroke-width="4.91892"/>
<path d="M599.875 312.407C603.231 312.266 606.543 313.202 609.329 315.079C612.114 316.955 614.226 319.673 615.356 322.836C616.487 325.998 616.576 329.44 615.611 332.656C614.646 335.873 612.677 338.697 609.993 340.715" stroke="#007DCD" stroke-width="4.91892"/>
<circle cx="572.801" cy="347.2" r="2.6" fill="#0F6195"/>
<circle cx="572.801" cy="335.067" r="2.6" fill="#0F6195"/>
<circle cx="572.801" cy="322.933" r="2.6" fill="#0F6195"/>
<circle cx="572.801" cy="310.8" r="2.6" fill="#0F6195"/>
<rect x="625.666" y="320.333" width="39.8667" height="3.46667" rx="1.73333" fill="#0F6195"/>
<rect x="625.666" y="329" width="39.8667" height="3.46667" rx="1.73333" fill="#0F6195"/>
<rect x="625.666" y="337.667" width="19.0667" height="3.46667" rx="1.73333" fill="#0F6195"/>
<rect x="342.843" y="371.843" width="60.7165" height="53.9702" rx="4.21642" fill="#103654" stroke="#0F6195" stroke-width="1.68657"/>
<path d="M342 376.06C342 373.265 344.265 371 347.06 371H399.343C402.138 371 404.403 373.265 404.403 376.06V381.119H342V376.06Z" fill="#0F6195"/>
<rect x="363.925" y="386.179" width="33.7314" height="3.37314" rx="1.68657" fill="#0F6195"/>
<rect x="347.061" y="374.373" width="15.1791" height="3.37314" rx="1.68657" fill="#007DCD"/>
<rect x="363.925" y="392.926" width="33.7314" height="3.37314" rx="1.68657" fill="#0F6195"/>
<circle cx="352.964" cy="392.082" r="5.90299" fill="#0F6195"/>
<path d="M368 416V413.998L361.853 411.518L368 409.02V407L360 410.49V412.529L368 416Z" fill="#FC8B10"/>
<path d="M378 416V413.998L384.147 411.518L378 409.02V407L386 410.49V412.529L378 416Z" fill="#FC8B10"/>
<path d="M371.89 417L376 405H374.11L370 417H371.89Z" fill="#FC8B10"/>
</g>
<defs>
<clipPath id="clip0">
<rect width="972" height="515" fill="white"/>
</clipPath>
</defs>
</svg>
