<svg xmlns="http://www.w3.org/2000/svg" width="1280" height="389" viewBox="0 0 1280 389"><g fill="none" fill-rule="evenodd"><path stroke="#929497" d="M-30.323 150.903l99.439 71.448 110.315-55.916 172.465 66.788 163.142-114.938 114.976 105.619L818.255 97.756l79.001 60.913 141.985-129.948 111.184 90.436 150.803-137.556M-42.902 314.528l71.82-13.807 43.507 38.66 32.458-47.98 53.174 61.097 119.26-72.678 68.364 37.277 110.315-76.107 114.977 122.704 42.006-48.993 53.348 70.934 33.148-38.315 37.81 24.853 76.07-103.225 49.27 39.54 60.08-61.097 32.63 24.335 63.707-67.31 99.616 79.046 37.982-37.97 88.395 62.823 44.888-46.254 52.484 49.015"/><path fill="#F2F5F8" d="M821.535 98.274a3.366 3.366 0 1 1-6.732 0 3.366 3.366 0 0 1 6.732 0"/><path stroke="#808184" d="M821.535 98.274a3.366 3.366 0 1 1-6.732 0 3.366 3.366 0 0 1 6.732 0z"/><path fill="#F2F5F8" d="M899.744 158.335a3.366 3.366 0 1 1-6.732 0 3.366 3.366 0 0 1 6.732 0"/><path stroke="#808184" d="M899.744 158.335a3.366 3.366 0 1 1-6.732 0 3.366 3.366 0 0 1 6.732 0z"/><path fill="#F2F5F8" d="M1042.435 29.411a3.366 3.366 0 1 1-6.732 0 3.366 3.366 0 0 1 6.732 0"/><path stroke="#808184" d="M1042.435 29.411a3.366 3.366 0 1 1-6.732 0 3.366 3.366 0 0 1 6.732 0z"/><path fill="#F2F5F8" d="M1154.31 118.985a3.366 3.366 0 1 1-6.732-.001 3.366 3.366 0 0 1 6.732 0"/><path stroke="#808184" d="M1154.31 118.985a3.366 3.366 0 1 1-6.732-.001 3.366 3.366 0 0 1 6.732 0z"/><path fill="#F2F5F8" d="M1160.007 245.492a3.366 3.366 0 1 1-6.732 0 3.366 3.366 0 0 1 6.732 0"/><path stroke="#808184" d="M1160.007 245.492a3.366 3.366 0 1 1-6.732 0 3.366 3.366 0 0 1 6.732 0z"/><path fill="#F2F5F8" d="M1248.747 307.193a3.366 3.366 0 1 1-6.732-.001 3.366 3.366 0 0 1 6.732 0"/><path stroke="#808184" d="M1248.747 307.193a3.366 3.366 0 1 1-6.732-.001 3.366 3.366 0 0 1 6.732 0z"/><path fill="#F2F5F8" d="M1121.075 283.117a3.366 3.366 0 1 1-6.731-.001 3.366 3.366 0 0 1 6.731 0"/><path stroke="#808184" d="M1121.075 283.117a3.366 3.366 0 1 1-6.731-.001 3.366 3.366 0 0 1 6.731 0z"/><path fill="#F2F5F8" d="M1018.87 202.345a3.366 3.366 0 1 1-6.733 0 3.366 3.366 0 0 1 6.732 0"/><path stroke="#808184" d="M1018.87 202.345a3.366 3.366 0 1 1-6.733 0 3.366 3.366 0 0 1 6.732 0z"/><path fill="#F2F5F8" d="M926.072 248.168a3.366 3.366 0 1 1-6.732-.001 3.366 3.366 0 0 1 6.732 0"/><path stroke="#808184" d="M926.072 248.168a3.366 3.366 0 1 1-6.732-.001 3.366 3.366 0 0 1 6.732 0z"/><path fill="#F2F5F8" d="M958.702 271.726a3.366 3.366 0 1 1-6.732-.001 3.366 3.366 0 0 1 6.732 0"/><path stroke="#808184" d="M958.702 271.726a3.366 3.366 0 1 1-6.732-.001 3.366 3.366 0 0 1 6.732 0z"/><path fill="#F2F5F8" d="M867.027 306.416a3.366 3.366 0 1 1-6.732 0 3.366 3.366 0 0 1 6.732 0"/><path stroke="#808184" d="M867.027 306.416a3.366 3.366 0 1 1-6.732 0 3.366 3.366 0 0 1 6.732 0z"/><path fill="#F2F5F8" d="M740.65 372.173a3.366 3.366 0 1 1-6.731-.001 3.366 3.366 0 0 1 6.732 0"/><path stroke="#808184" d="M740.65 372.173a3.366 3.366 0 1 1-6.731-.001 3.366 3.366 0 0 1 6.732 0z"/><path fill="#F2F5F8" d="M817.823 269.31a3.366 3.366 0 1 1-6.732-.001 3.366 3.366 0 0 1 6.732 0"/><path stroke="#808184" d="M817.823 269.31a3.366 3.366 0 1 1-6.732-.001 3.366 3.366 0 0 1 6.732 0z"/><path fill="#F2F5F8" d="M669.693 385.117a3.366 3.366 0 1 1-6.732-.001 3.366 3.366 0 0 1 6.732 0"/><path stroke="#808184" d="M669.693 385.117a3.366 3.366 0 1 1-6.732-.001 3.366 3.366 0 0 1 6.732 0z"/><path fill="#F2F5F8" d="M702.323 347.838a3.366 3.366 0 1 1-6.732-.001 3.366 3.366 0 0 1 6.732 0"/><path stroke="#808184" d="M702.323 347.838a3.366 3.366 0 1 1-6.732-.001 3.366 3.366 0 0 1 6.732 0z"/><path fill="#F2F5F8" d="M616.864 313.924a3.366 3.366 0 1 1-6.732-.001 3.366 3.366 0 0 1 6.732 0"/><path stroke="#808184" d="M616.864 313.924a3.366 3.366 0 1 1-6.732-.001 3.366 3.366 0 0 1 6.732 0z"/><path fill="#F2F5F8" d="M108.25 292.005a3.366 3.366 0 1 1-6.733 0 3.366 3.366 0 0 1 6.732 0"/><path stroke="#808184" d="M108.25 292.005a3.366 3.366 0 1 1-6.733 0 3.366 3.366 0 0 1 6.732 0z"/><path fill="#F2F5F8" d="M73.72 222.28a3.366 3.366 0 1 1-6.732-.002 3.366 3.366 0 0 1 6.732.001"/><path stroke="#808184" d="M73.72 222.28a3.366 3.366 0 1 1-6.732-.002 3.366 3.366 0 0 1 6.732.001z"/><path fill="#F2F5F8" d="M32.63 300.29a3.366 3.366 0 1 1-6.732-.002 3.366 3.366 0 0 1 6.732.001"/><path stroke="#808184" d="M32.63 300.29a3.366 3.366 0 1 1-6.732-.002 3.366 3.366 0 0 1 6.732.001z"/><path fill="#F2F5F8" d="M75.792 339.38a3.366 3.366 0 1 1-6.732 0 3.366 3.366 0 0 1 6.732 0"/><path stroke="#808184" d="M75.792 339.38a3.366 3.366 0 1 1-6.732 0 3.366 3.366 0 0 1 6.732 0z"/><path fill="#F2F5F8" d="M633.092 223.056a3.366 3.366 0 1 1-6.732-.001 3.366 3.366 0 0 1 6.732 0"/><path stroke="#808184" d="M633.092 223.056a3.366 3.366 0 1 1-6.732-.001 3.366 3.366 0 0 1 6.732 0z"/></g></svg>
