<svg width="972" height="515" fill="none" xmlns="http://www.w3.org/2000/svg"><g clip-path="url(#clip0)"><path d="M10.999-.35v516M48.999-.35v516M86.999-.35v516M124.999-.35v516M162.999-.35v516M200.999-.35v516M238.999-.35v516M276.999-.35v516M314.999-.35v516M352.999-.35v516M390.999-.35v516M428.999-.35v516M466.999-.35v516M504.999-.35v516M542.999-.35v516M580.999-.35v516M618.999-.35v516M656.999-.35v516M694.999-.35v516M732.999-.35v516M770.999-.35v516M808.999-.35v516M846.999-.35v516M884.999-.35v516M922.999-.35v516M960.999-.35v516M0 504.65h972M0 466.65h972M0 428.65h972M0 390.65h972M0 352.65h972M0 314.65h972M0 276.65h972M0 238.65h972M0 200.65h972M0 162.65h972M0 124.65h972M0 86.65h972M0 48.65h972M0 10.65h972" stroke="#0F4465" stroke-miterlimit="10"/><g clip-path="url(#clip1)"><path d="M608.455 164.65H66.125a7.97 7.97 0 00-7.97 7.97v645.53a7.97 7.97 0 007.97 7.97h542.33a7.97 7.97 0 007.97-7.97V172.62a7.97 7.97 0 00-7.97-7.97z" stroke="#0E5277" stroke-width="4" stroke-miterlimit="10"/><path d="M117.285 274.82l6.2 7.93 7.06-7.5c10.1 2 15 7.431 17.47 12a32.996 32.996 0 00-6.301-49.703 33 33 0 00-42.979 49.303c2.42-4.7 7.59-10.62 18.55-12.03zm6.8-29.82c6 .09 11.07 4 11.21 12.53.16 9.46-6 14.06-11.8 14.14-6.35.09-11.8-5.189-11.65-14.869a11.804 11.804 0 013.614-8.508 11.815 11.815 0 018.636-3.293h-.01zm419.7 122.74l6.2 7.931 7.06-7.5c10.1 2 15 7.429 17.47 12a33 33 0 10-49.28-.401c2.42-4.69 7.59-10.61 18.55-12.03zm6.8-29.819c6 .09 11.07 4 11.21 12.53.16 9.46-6 14.059-11.8 14.139-6.35.09-11.8-5.189-11.65-14.869a11.804 11.804 0 013.614-8.508 11.789 11.789 0 018.636-3.292h-.01zm-6.76 214.51l6.2 7.93 7.06-7.5c10.1 2 15 7.429 17.47 12a32.996 32.996 0 005.758-35.408 32.993 32.993 0 00-29.952-19.741 33 33 0 00-25.086 54.749c2.41-4.701 7.58-10.62 18.55-12.03zm6.8-29.82c6 .09 11.07 4 11.21 12.53.16 9.459-6 14.06-11.8 14.14-6.35.09-11.8-5.19-11.65-14.87a11.796 11.796 0 017.599-10.995 11.78 11.78 0 014.641-.765v-.04zm-433.34-58.431l6.2 7.93 7.06-7.5c10.1 2 15 7.43 17.47 12a32.996 32.996 0 00-6.301-49.703 33 33 0 00-42.979 49.303c2.42-4.7 7.59-10.62 18.55-12.03zm6.8-29.82c6 .09 11.07 4 11.21 12.53.16 9.46-6 14.061-11.8 14.141-6.35.089-11.8-5.19-11.65-14.87a11.804 11.804 0 013.614-8.508 11.815 11.815 0 018.636-3.293h-.01zM421.105 248.65h-236.1a5.45 5.45 0 100 10.9h236.1a5.45 5.45 0 100-10.9zM353.015 270.75h-168.01a5.45 5.45 0 000 10.9h168.01a5.45 5.45 0 100-10.9zM489.345 324.541h-258.46a5.45 5.45 0 100 10.9h258.46a5.45 5.45 0 000-10.9zM489.345 347.19h-236.1a5.45 5.45 0 100 10.9h236.1a5.45 5.45 0 100-10.9zM489.355 368.86h-98.13a5.45 5.45 0 100 10.9h98.13a5.45 5.45 0 100-10.9z" fill="#0E5277"/><path d="M210.295 248.65h8v10.9h-8v-10.9zm38.25 0h8v10.9h-8v-10.9zm20.46 0h13v10.9h-13v-10.9zm19.5 0h2.93v10.9h-2.93v-10.9zm8.74 0h2.93v10.9h-2.93v-10.9zm17.76 0h13v10.9h-13v-10.9zm19.5 0h2.93v10.9h-2.93v-10.9zm8.74 0h2.93v10.9h-2.93v-10.9zm8.72 0h8.15v10.9h-8.15v-10.9zm14.33 0h8.15v10.9h-8.15v-10.9zm-93.92 75.89h8v10.9h-8v-10.9zm18.75 0h13v10.9h-13v-10.9zm19.5 0h8v10.9h-8v-10.9zm20.47 0h13v10.9h-13v-10.9zm19.5 0h2.93v10.9h-2.93v-10.9zm-87.35 0h2.93v10.9h-2.93v-10.9zm133.35 0h2.93v10.9h-2.93v-10.9zm8.73 0h2.93v10.9h-2.93v-10.9zm28.28 44.32h2.93v10.9h-2.93v-10.9zm-19.55-44.32h8.15v10.9h-8.15v-10.9zm14.33 0h8.15v10.9h-8.15v-10.9zm-23.06 44.32h8.15v10.9h-8.15v-10.9zm14.34 0h8.15v10.9h-8.15v-10.9zm-142.01-21.67h2.93v10.9h-2.93v-10.9zm8.73 0h2.93v10.9h-2.93v-10.9zm8.73 0h8.15v10.9h-8.15v-10.9zm50.55 0h2.93v10.9h-2.93v-10.9zm8.73 0h2.93v10.9h-2.93v-10.9zm23.83 0h2.93v10.9h-2.93v-10.9zm8.74 0h2.93v10.9h-2.93v-10.9zm-23.85 0h8.15v10.9h-8.15v-10.9zm-53.67 0h8.15v10.9h-8.15v-10.9zm-118.65-76.44h13v10.9h-13v-10.9zm19.5 0h8v10.9h-8v-10.9zm58.71 0h13v10.9h-13v-10.9zm-45.03 0h2.93v10.9h-2.93v-10.9zm73.27 0h2.93v10.9h-2.93v-10.9zm17.76 0h13v10.9h-13v-10.9zm19.5 0h2.93v10.9h-2.93v-10.9zm8.74 0h8.15v10.9h-8.15v-10.9z" fill="#126387"/><path d="M394.105 433.65h-209.1a5.45 5.45 0 100 10.9h209.1a5.45 5.45 0 100-10.9zM353.015 455.75h-168.01a5.45 5.45 0 000 10.9h168.01a5.45 5.45 0 100-10.9z" fill="#0E5277"/><path d="M210.295 433.65h8v10.9h-8v-10.9zm38.25 0h8v10.9h-8v-10.9zm20.46 0h13v10.9h-13v-10.9zm19.5 0h2.93v10.9h-2.93v-10.9zm8.74 0h2.93v10.9h-2.93v-10.9zm569.69 0h2.93v10.9h-2.93v-10.9zm8.72 0h8.15v10.9h-8.15v-10.9zm14.33 0h8.15v10.9h-8.15v-10.9zm-699.19 22.1h13v10.9h-13v-10.9zm19.5 0h8v10.9h-8v-10.9zm58.71 0h13v10.9h-13v-10.9zm-45.03 0h2.93v10.9h-2.93v-10.9zm73.27 0h2.93v10.9h-2.93v-10.9zm17.76 0h13v10.9h-13v-10.9zm19.5 0h2.93v10.9h-2.93v-10.9zm8.74 0h8.15v10.9h-8.15v-10.9zm346.35-207.1h8v10.9h-8v-10.9z" fill="#126387"/><path d="M727.845 248.65h8v10.9h-8v-10.9z" fill="#279FC9"/><path d="M748.315 248.65h13v10.9h-13v-10.9zm19.5 0h2.93v10.9h-2.93v-10.9zm8.73 0h2.93v10.9h-2.93v-10.9zm17.77 0h13v10.9h-13v-10.9zm19.5 0h2.93v10.9h-2.93v-10.9zm8.73 0h2.93v10.9h-2.93v-10.9zm8.73 0h8.15v10.9h-8.15v-10.9zm14.33 0h8.15v10.9h-8.15v-10.9zm-93.92 75.89h8v10.9h-8v-10.9z" fill="#126387"/><path d="M770.435 324.541h13v10.9h-13v-10.9zm19.5 0h8v10.9h-8v-10.9z" fill="#279FC9"/><path d="M810.405 324.54h13v10.9h-13v-10.9zm19.5 0h2.93v10.9h-2.93v-10.9zm-87.35 0h2.93v10.9h-2.93v-10.9zm133.35 0h2.93v10.9h-2.93v-10.9zm8.73 0h2.93v10.9h-2.93v-10.9zm28.28 44.32h2.93v10.9h-2.93v-10.9zm-19.55-44.32h8.15v10.9h-8.15v-10.9zm14.33 0h8.15v10.9h-8.15v-10.9zm-23.06 44.32h8.15v10.9h-8.15v-10.9zm14.33 0h8.15v10.9h-8.15v-10.9zm-142-21.67h2.93v10.9h-2.93v-10.9zm8.73 0h2.93v10.9h-2.93v-10.9zm8.73 0h8.15v10.9h-8.15v-10.9zm50.54 0h2.93v10.9h-2.93v-10.9zm8.74 0h2.93v10.9h-2.93v-10.9zm23.83 0h2.93v10.9h-2.93v-10.9zm8.73 0h2.93v10.9h-2.93v-10.9zm-23.84 0h8.15v10.9h-8.15v-10.9zm-53.67 0h8.15v10.9h-8.15v-10.9zm-118.66-76.44h13v10.9h-13v-10.9zm19.5 0h8v10.9h-8v-10.9zm58.72 0h13v10.9h-13v-10.9zm-45.04 0h2.93v10.9h-2.93v-10.9zm73.27 0h2.93v10.9h-2.93v-10.9zm17.77 0h13v10.9h-13v-10.9zm19.5 0h2.93v10.9h-2.93v-10.9zm8.73 0h8.15v10.9h-8.15v-10.9zm-132.95 162.9h8v10.9h-8v-10.9zm38.25 0h8v10.9h-8v-10.9z" fill="#126387"/><path d="M748.315 433.65h13v10.9h-13v-10.9zm19.5 0h2.93v10.9h-2.93v-10.9zm8.73 0h2.93v10.9h-2.93v-10.9zm17.77 0h13v10.9h-13v-10.9zm19.5 0h2.93v10.9h-2.93v-10.9zm8.73 0h2.93v10.9h-2.93v-10.9zm8.73 0h8.15v10.9h-8.15v-10.9zm14.33 0h8.15v10.9h-8.15v-10.9z" fill="#279FC9"/><path d="M670.095 455.75h13v10.9h-13v-10.9zm19.5 0h8v10.9h-8v-10.9zm58.72 0h13v10.9h-13v-10.9zm-45.04 0h2.93v10.9h-2.93v-10.9zm73.27 0h2.93v10.9h-2.93v-10.9zm17.77 0h13v10.9h-13v-10.9zm19.5 0h2.93v10.9h-2.93v-10.9zm8.73 0h8.15v10.9h-8.15v-10.9z" fill="#126387"/><path d="M731.845 266.11c6.633 0 12.01-5.377 12.01-12.01s-5.377-12.01-12.01-12.01-12.01 5.377-12.01 12.01 5.377 12.01 12.01 12.01zM791.855 318.061h-14.23c-6.589 0-11.93 5.339-11.93 11.925s5.341 11.925 11.93 11.925h14.23c6.589 0 11.93-5.339 11.93-11.925s-5.341-11.925-11.93-11.925zM849.435 427.17h-95.23c-6.589 0-11.93 5.339-11.93 11.925s5.341 11.925 11.93 11.925h95.23c6.589 0 11.93-5.339 11.93-11.925s-5.341-11.925-11.93-11.925zM847.755 451.021l-30.86 65.93m-78.39-252.85l35.92 53.96-35.92-53.96zm55.43 77.81l-36.55 85.26 36.55-85.26z" stroke="#279FC9" stroke-width="2" stroke-miterlimit="10"/></g></g><defs><clipPath id="clip0"><path fill="#fff" d="M0 0h972v515H0z"/></clipPath><clipPath id="clip1"><path fill="#fff" transform="translate(56 144)" d="M0 0h860v684H0z"/></clipPath></defs></svg>