<svg width="1316" height="290" fill="none" xmlns="http://www.w3.org/2000/svg"><path d="M726.643 64.5v23a8 8 0 0 1-8 8h-53c-4.418 0-8 4.582-8 9V136" stroke="url(#paint0_linear)" stroke-opacity=".4"/><path d="M677.143 95.5h28.321" stroke="url(#paint1_linear)"/><circle cx="691.303" cy="95.5" r="1.5" fill="#FC980F" filter="url(#filter0_f)"/><path d="M930.255 289.011v-77.433a8 8 0 0 0-8-8h-29.764c-4.419 0-7-3.581-7-8V136" stroke="url(#paint2_linear)" stroke-opacity=".4"/><path d="M892.883 203.5h28.32" stroke="url(#paint3_linear)"/><circle cx="907.043" cy="203.5" r="1.5" fill="#FC980F" filter="url(#filter1_f)"/><path d="M136.527 6v57.5a8 8 0 0 0 8 8h51.5c4.419 0 7.5 3.582 7.5 8V136" stroke="url(#paint4_linear)" stroke-opacity=".4"/><path d="M154.281 71.5h28.32" stroke="url(#paint5_linear)"/><circle cx="168.441" cy="71.5" r="1.5" fill="#FC980F" filter="url(#filter2_f)"/><path d="M1028.09.814v57.5c0 4.419 3.58 8 8 8h66.41c4.42 0 8 3.582 8 8V136" stroke="url(#paint6_linear)" stroke-opacity=".4"/><path d="M1110.5 80.042v28.32" stroke="url(#paint7_linear)"/><circle cx="1110.5" cy="94.202" r="1.5" transform="rotate(90 1110.5 94.202)" fill="#FC980F" filter="url(#filter3_f)"/><path d="M461.506 239v-57.5a8 8 0 0 0-8-8h-16.03c-4.418 0-7-3.582-7-8V136" stroke="url(#paint8_linear)" stroke-opacity=".4"/><path d="M461.506 221.321V193" stroke="url(#paint9_linear)"/><ellipse rx="1.5" ry="1.5" transform="matrix(0 -1 -1 0 461.506 207.821)" fill="#FC980F" filter="url(#filter4_f)"/><path fill="url(#paint10_linear)" d="M0 135h1316v3H0z"/><circle cx="204" cy="136" r="9" fill="url(#paint11_radial)"/><circle cx="204" cy="136" r="4" fill="#FDFDFD"/><circle cx="431" cy="136" r="9" fill="url(#paint12_radial)"/><circle cx="431" cy="136" r="4" fill="#FDFDFD"/><circle cx="885" cy="136" r="9" fill="url(#paint13_radial)"/><circle cx="885" cy="136" r="4" fill="#FDFDFD"/><circle cx="1112" cy="136" r="9" fill="url(#paint14_radial)"/><circle cx="1112" cy="136" r="4" fill="#FDFDFD"/><circle cx="658" cy="136" r="9" fill="url(#paint15_radial)"/><circle cx="658" cy="136" r="4" fill="#FDFDFD"/><defs><filter id="filter0_f" x="686.803" y="91" width="9" height="9" filterUnits="userSpaceOnUse" color-interpolation-filters="sRGB"><feFlood flood-opacity="0" result="BackgroundImageFix"/><feBlend in="SourceGraphic" in2="BackgroundImageFix" result="shape"/><feGaussianBlur stdDeviation="1.5" result="effect1_foregroundBlur"/></filter><filter id="filter1_f" x="902.543" y="199" width="9" height="9" filterUnits="userSpaceOnUse" color-interpolation-filters="sRGB"><feFlood flood-opacity="0" result="BackgroundImageFix"/><feBlend in="SourceGraphic" in2="BackgroundImageFix" result="shape"/><feGaussianBlur stdDeviation="1.5" result="effect1_foregroundBlur"/></filter><filter id="filter2_f" x="163.941" y="67" width="9" height="9" filterUnits="userSpaceOnUse" color-interpolation-filters="sRGB"><feFlood flood-opacity="0" result="BackgroundImageFix"/><feBlend in="SourceGraphic" in2="BackgroundImageFix" result="shape"/><feGaussianBlur stdDeviation="1.5" result="effect1_foregroundBlur"/></filter><filter id="filter3_f" x="1106" y="89.702" width="9" height="9" filterUnits="userSpaceOnUse" color-interpolation-filters="sRGB"><feFlood flood-opacity="0" result="BackgroundImageFix"/><feBlend in="SourceGraphic" in2="BackgroundImageFix" result="shape"/><feGaussianBlur stdDeviation="1.5" result="effect1_foregroundBlur"/></filter><filter id="filter4_f" x="457.006" y="203.321" width="9" height="9" filterUnits="userSpaceOnUse" color-interpolation-filters="sRGB"><feFlood flood-opacity="0" result="BackgroundImageFix"/><feBlend in="SourceGraphic" in2="BackgroundImageFix" result="shape"/><feGaussianBlur stdDeviation="1.5" result="effect1_foregroundBlur"/></filter><linearGradient id="paint0_linear" x1="711.143" y1="136" x2="711.143" y2="64" gradientUnits="userSpaceOnUse"><stop stop-color="#FF9C00"/><stop offset="1" stop-color="#EC8266" stop-opacity="0"/></linearGradient><linearGradient id="paint1_linear" x1="676.167" y1="95.5" x2="705.464" y2="95.5" gradientUnits="userSpaceOnUse"><stop stop-color="#FF9C00" stop-opacity="0"/><stop offset=".526" stop-color="#FF9C00" stop-opacity=".6"/><stop offset="1" stop-color="#FF9C00" stop-opacity="0"/></linearGradient><linearGradient id="paint2_linear" x1="938.039" y1="136" x2="938.039" y2="289.011" gradientUnits="userSpaceOnUse"><stop stop-color="#FF9C00"/><stop offset="1" stop-color="#EC8266" stop-opacity="0"/></linearGradient><linearGradient id="paint3_linear" x1="891.906" y1="203.5" x2="921.203" y2="203.5" gradientUnits="userSpaceOnUse"><stop stop-color="#FF9C00" stop-opacity="0"/><stop offset=".526" stop-color="#FF9C00" stop-opacity=".6"/><stop offset="1" stop-color="#FF9C00" stop-opacity="0"/></linearGradient><linearGradient id="paint4_linear" x1="151.027" y1="136" x2="151.027" y2="6" gradientUnits="userSpaceOnUse"><stop stop-color="#FF9C00"/><stop offset="1" stop-color="#EC8266" stop-opacity="0"/></linearGradient><linearGradient id="paint5_linear" x1="153.304" y1="71.5" x2="182.601" y2="71.5" gradientUnits="userSpaceOnUse"><stop stop-color="#FF9C00" stop-opacity="0"/><stop offset=".526" stop-color="#FF9C00" stop-opacity=".6"/><stop offset="1" stop-color="#FF9C00" stop-opacity="0"/></linearGradient><linearGradient id="paint6_linear" x1="1057.5" y1="136" x2="1057.5" y2=".814" gradientUnits="userSpaceOnUse"><stop stop-color="#FF9C00"/><stop offset="1" stop-color="#EC8266" stop-opacity="0"/></linearGradient><linearGradient id="paint7_linear" x1="1110.5" y1="79.065" x2="1110.5" y2="108.362" gradientUnits="userSpaceOnUse"><stop stop-color="#FF9C00" stop-opacity="0"/><stop offset=".526" stop-color="#FF9C00" stop-opacity=".6"/><stop offset="1" stop-color="#FF9C00" stop-opacity="0"/></linearGradient><linearGradient id="paint8_linear" x1="482.476" y1="136" x2="482.476" y2="266" gradientUnits="userSpaceOnUse"><stop stop-color="#FF9C00"/><stop offset="1" stop-color="#EC8266" stop-opacity="0"/></linearGradient><linearGradient id="paint9_linear" x1="-4850090000000" y1="-211782" x2="-4850090000000" y2="-211811" gradientUnits="userSpaceOnUse"><stop stop-color="#FF9C00" stop-opacity="0"/><stop offset=".526" stop-color="#FF9C00" stop-opacity=".6"/><stop offset="1" stop-color="#FF9C00" stop-opacity="0"/></linearGradient><linearGradient id="paint10_linear" y1="135.017" x2="1316" y2="135.017" gradientUnits="userSpaceOnUse"><stop stop-color="#FF9C00" stop-opacity="0"/><stop offset=".102" stop-color="#FD990B"/><stop offset=".471" stop-color="#EC8266"/><stop offset=".923" stop-color="#FD990B"/><stop offset="1" stop-color="#FF9C00" stop-opacity="0"/></linearGradient><radialGradient id="paint11_radial" cx="0" cy="0" r="1" gradientUnits="userSpaceOnUse" gradientTransform="matrix(7 13.5 -22.76824 11.80576 201.5 130.5)"><stop stop-color="#FF9C00"/><stop offset="1" stop-color="#EC8266"/></radialGradient><radialGradient id="paint12_radial" cx="0" cy="0" r="1" gradientUnits="userSpaceOnUse" gradientTransform="matrix(7 13.5 -22.76824 11.80576 428.5 130.5)"><stop stop-color="#FF9C00"/><stop offset="1" stop-color="#EC8266"/></radialGradient><radialGradient id="paint13_radial" cx="0" cy="0" r="1" gradientUnits="userSpaceOnUse" gradientTransform="matrix(7 13.5 -22.76824 11.80576 882.5 130.5)"><stop stop-color="#FF9C00"/><stop offset="1" stop-color="#EC8266"/></radialGradient><radialGradient id="paint14_radial" cx="0" cy="0" r="1" gradientUnits="userSpaceOnUse" gradientTransform="matrix(7 13.5 -22.76824 11.80576 1109.5 130.5)"><stop stop-color="#FF9C00"/><stop offset="1" stop-color="#EC8266"/></radialGradient><radialGradient id="paint15_radial" cx="0" cy="0" r="1" gradientUnits="userSpaceOnUse" gradientTransform="matrix(7 13.5 -22.76824 11.80576 655.5 130.5)"><stop stop-color="#FF9C00"/><stop offset="1" stop-color="#EC8266"/></radialGradient></defs></svg>