<?xml version="1.0" encoding="utf-8"?>
<!-- Generator: Adobe Illustrator 25.2.3, SVG Export Plug-In . SVG Version: 6.00 Build 0)  -->
<svg version="1.1" id="Layer_1" xmlns="http://www.w3.org/2000/svg" xmlns:xlink="http://www.w3.org/1999/xlink" x="0px" y="0px"
	 viewBox="0 0 460 173" style="enable-background:new 0 0 460 173;" xml:space="preserve">
<style type="text/css">
	.st0{opacity:0.2;}
	.st1{fill:none;stroke:#1E768B;}
	.st2{opacity:0.7;}
	.st3{fill:none;stroke:#FFFFFF;stroke-width:0.6757;}
	.st4{fill:none;stroke:#EEF8FD;stroke-width:0.6757;}
	.st5{fill:none;stroke:#E2F3FB;stroke-width:0.6757;}
	.st6{fill:none;stroke:#D7EFF9;stroke-width:0.6757;}
	.st7{fill:none;stroke:#CCEBF7;stroke-width:0.6757;}
	.st8{fill:none;stroke:#C0E7F5;stroke-width:0.6757;}
	.st9{fill:none;stroke:#B6E3F3;stroke-width:0.6757;}
	.st10{fill:none;stroke:#ACDFF3;stroke-width:0.6757;}
	.st11{fill:none;stroke:#A2DCF1;stroke-width:0.6757;}
	.st12{fill:none;stroke:#99D9F0;stroke-width:0.6757;}
	.st13{fill:none;stroke:#90D7EF;stroke-width:0.6757;}
	.st14{fill:none;stroke:#88D4EE;stroke-width:0.6757;}
	.st15{fill:none;stroke:#80D2EE;stroke-width:0.6757;}
	.st16{fill:none;stroke:#79D0ED;stroke-width:0.6757;}
	.st17{fill:none;stroke:#72CEEC;stroke-width:0.6757;}
	.st18{fill:none;stroke:#6CCDEC;stroke-width:0.6757;}
	.st19{fill:none;stroke:#65CBEB;stroke-width:0.6757;}
	.st20{fill:none;stroke:#5FCAEB;stroke-width:0.6757;}
	.st21{fill:none;stroke:#5BC9EB;stroke-width:0.6757;}
	.st22{fill:none;stroke:#56C8EA;stroke-width:0.6757;}
	.st23{fill:none;stroke:#53C7EA;stroke-width:0.6757;}
	.st24{fill:none;stroke:#4FC7EA;stroke-width:0.6757;}
	.st25{fill:none;stroke:#4CC6E9;stroke-width:0.6757;}
	.st26{fill:none;stroke:#4AC6E9;stroke-width:0.6757;}
	.st27{opacity:0.5;}
	.st28{fill:none;stroke:#FFFFFF;stroke-width:0.7372;}
	.st29{fill:none;stroke:#EEF8FD;stroke-width:0.7372;}
	.st30{fill:none;stroke:#E2F3FB;stroke-width:0.7372;}
	.st31{fill:none;stroke:#D7EFF9;stroke-width:0.7372;}
	.st32{fill:none;stroke:#CCEBF7;stroke-width:0.7372;}
	.st33{fill:none;stroke:#C0E7F5;stroke-width:0.7372;}
	.st34{fill:none;stroke:#B6E3F3;stroke-width:0.7372;}
	.st35{fill:none;stroke:#ACDFF3;stroke-width:0.7372;}
	.st36{fill:none;stroke:#A2DCF1;stroke-width:0.7372;}
	.st37{fill:none;stroke:#99D9F0;stroke-width:0.7372;}
	.st38{fill:none;stroke:#90D7EF;stroke-width:0.7372;}
	.st39{fill:none;stroke:#88D4EE;stroke-width:0.7372;}
	.st40{fill:none;stroke:#80D2EE;stroke-width:0.7372;}
	.st41{fill:none;stroke:#79D0ED;stroke-width:0.7372;}
	.st42{fill:none;stroke:#72CEEC;stroke-width:0.7372;}
	.st43{fill:none;stroke:#6CCDEC;stroke-width:0.7372;}
	.st44{fill:none;stroke:#65CBEB;stroke-width:0.7372;}
	.st45{fill:none;stroke:#5FCAEB;stroke-width:0.7372;}
	.st46{fill:none;stroke:#5BC9EB;stroke-width:0.7372;}
	.st47{fill:none;stroke:#56C8EA;stroke-width:0.7372;}
	.st48{fill:none;stroke:#53C7EA;stroke-width:0.7372;}
	.st49{fill:none;stroke:#4FC7EA;stroke-width:0.7372;}
	.st50{fill:none;stroke:#4CC6E9;stroke-width:0.7372;}
	.st51{fill:none;stroke:#4AC6E9;stroke-width:0.7372;}
</style>
<g class="st0">
	<g>
		<path class="st1" d="M460,148.4c-35.5,17.8-76.8,28.1-114.6,24.1c-39.6-4.3-78.4-22.3-114.6-44.5c-39.5-24.3-76.3-52.3-114.6-76.6
			C78.4,27.4,41.2,6.8,1.7,1.2"/>
		<path class="st1" d="M459.9,141.7c-35.6,17.6-76.8,28.1-114.6,24.4c-39.5-4-78.4-21.6-114.6-43.3c-39.4-23.6-76.3-50.7-114.6-73.8
			C78.3,26,41,6.4,1.6,1.1"/>
		<path class="st1" d="M459.8,135.2c-35.7,17.5-76.8,28.2-114.6,24.6c-39.4-3.7-78.3-21-114.6-42.2c-39.4-22.9-76.3-49.1-114.6-71.2
			C78.2,24.6,40.8,6,1.5,1"/>
		<path class="st1" d="M459.8,129c-35.8,17.4-76.7,28.2-114.6,24.9c-39.4-3.5-78.2-20.4-114.6-41.1C191.3,90.6,154.3,65.3,116,44.2
			C78.1,23.3,40.6,5.6,1.5,0.9"/>
		<path class="st1" d="M459.7,123.1c-35.9,17.3-76.7,28.2-114.6,25.1c-39.3-3.2-78.2-19.8-114.6-40C191.3,86.6,154.3,62.2,116,42
			C78,22,40.5,5.3,1.4,0.8"/>
		<path class="st1" d="M459.6,117.5c-36,17.2-76.7,28.2-114.6,25.4c-39.2-3-78.1-19.3-114.6-39c-39.2-21.1-76.2-44.7-114.6-64
			C78,20.8,40.3,5,1.3,0.7"/>
		<path class="st1" d="M459.5,112.1c-36.1,17.1-76.6,28.3-114.6,25.6c-39.2-2.8-78-18.8-114.6-38c-39.1-20.6-76.2-43.4-114.6-61.8
			C77.9,19.7,40.2,4.7,1.3,0.6"/>
		<path class="st1" d="M459.5,107c-36.1,17-76.6,28.3-114.6,25.8c-39.1-2.6-78-18.3-114.6-37.1c-39-20.1-76.1-42.1-114.6-59.8
			C77.8,18.6,40,4.4,1.2,0.5"/>
		<path class="st1" d="M459.4,102.2c-36.2,16.9-76.6,28.3-114.6,26c-39.1-2.4-77.9-17.8-114.6-36.2c-39-19.6-76.1-41-114.6-57.8
			C77.8,17.6,39.9,4.1,1.1,0.5"/>
		<path class="st1" d="M459.4,97.7c-36.3,16.8-76.5,28.3-114.6,26.2c-39-2.2-77.9-17.4-114.6-35.4c-39-19.1-76.1-39.8-114.6-56
			C77.7,16.7,39.8,3.9,1.1,0.4"/>
		<path class="st1" d="M459.3,93.4c-36.3,16.7-76.5,28.3-114.6,26.4c-39-2-77.8-17-114.6-34.6c-38.9-18.7-76-38.8-114.6-54.2
			C77.7,15.8,39.7,3.6,1,0.3"/>
		<path class="st1" d="M459.2,89.4c-36.4,16.6-76.5,28.4-114.6,26.6c-39-1.9-77.8-16.6-114.6-33.9c-38.9-18.3-76-37.8-114.6-52.6
			C77.7,14.9,39.6,3.4,1,0.3"/>
		<path class="st1" d="M459.2,85.7c-36.4,16.5-76.5,28.4-114.6,26.7c-38.9-1.7-77.8-16.2-114.6-33.2c-38.9-18-76-36.9-114.6-51.1
			C77.6,14.2,39.6,3.2,0.9,0.2"/>
		<path class="st1" d="M459.2,82.3c-36.5,16.5-76.4,28.4-114.6,26.9c-38.9-1.6-77.8-15.9-114.6-32.6c-38.8-17.6-76-36-114.6-49.7
			C77.6,13.5,39.5,3,0.9,0.2"/>
		<path class="st1" d="M459.1,79.1c-36.5,16.4-76.4,28.4-114.6,27c-38.9-1.4-77.7-15.6-114.6-32C191.2,56.8,154,38.9,115.4,25.7
			C77.6,12.8,39.4,2.8,0.8,0.1"/>
		<path class="st1" d="M459.1,76.2c-36.5,16.3-76.4,28.4-114.6,27.2C305.7,102,266.8,88,229.9,71.9c-38.8-17-75.9-34.5-114.6-47.2
			C77.5,12.2,39.4,2.7,0.8,0.1"/>
		<path class="st1" d="M459,73.6c-36.6,16.3-76.4,28.4-114.6,27.3c-38.8-1.2-77.7-15.1-114.6-31C191.1,53.1,154,35.9,115.3,23.7
			C77.5,11.7,39.3,2.6,0.8,0"/>
		<path class="st1" d="M459,71.2c-36.6,16.2-76.3,28.4-114.6,27.4c-38.8-1.1-77.7-14.9-114.6-30.6C191.1,51.5,154,34.7,115.3,22.8
			C77.5,11.2,39.3,2.4,0.7,0"/>
		<path class="st1" d="M459,69.2c-36.6,16.2-76.3,28.5-114.6,27.5c-38.8-1.1-77.7-14.7-114.6-30.2C191.1,50.1,154,33.6,115.3,22.1
			C77.5,10.8,39.2,2.3,0.7,0"/>
		<path class="st1" d="M459,67.4c-36.6,16.1-76.3,28.5-114.6,27.6c-38.8-1-77.7-14.5-114.6-29.9C191.1,48.9,154,32.7,115.3,21.4
			C77.5,10.4,39.2,2.2,0.7,0"/>
		<path class="st1" d="M458.9,65.9C422.3,82,382.6,94.4,344.4,93.5c-38.8-0.9-77.6-14.4-114.6-29.6c-38.8-16-75.8-32-114.6-43
			C77.4,10.1,39.2,2.2,0.7-0.1"/>
		<path class="st1" d="M458.9,64.6c-36.6,16.1-76.3,28.5-114.6,27.7c-38.8-0.9-77.6-14.3-114.6-29.4C191,47,154,31.2,115.2,20.4
			C77.4,9.8,39.1,2.1,0.6-0.1"/>
		<path class="st1" d="M458.9,63.7c-36.6,16.1-76.3,28.5-114.6,27.7c-38.8-0.8-77.6-14.2-114.6-29.2C191,46.3,154,30.7,115.2,20
			C77.4,9.6,39.1,2,0.6-0.1"/>
		<path class="st1" d="M458.9,63c-36.6,16-76.3,28.5-114.6,27.8c-38.7-0.8-77.6-14.1-114.6-29.1C191,45.9,154,30.4,115.2,19.8
			C77.4,9.5,39.1,2,0.6-0.1"/>
		<path class="st1" d="M458.9,62.6c-36.6,16-76.3,28.5-114.6,27.8c-38.7-0.8-77.6-14.1-114.6-29C191,45.6,154,30.1,115.2,19.6
			C77.4,9.4,39.1,2,0.6-0.1"/>
	</g>
	<path class="st1" d="M458.9,62.4c-36.6,16-76.3,28.5-114.6,27.8c-38.7-0.8-77.6-14.1-114.6-29C191,45.5,154,30.1,115.2,19.6
		C77.4,9.4,39.1,2,0.6-0.1"/>
</g>
<g class="st2">
	<path class="st3" d="M0,77.5c36.8,1.4,77-0.6,113.8-6.6c39.3-6.4,77.1-18.8,113.8-33.7C266,21.7,302.3,5.1,341.5,0.8
		c37.1-4.1,76.8,5.4,113.8,17.4"/>
	<path class="st4" d="M0.2,80.1c37,1.3,76.8-0.2,113.8-5.3c39.1-5.4,76.9-16.3,113.8-29.5c38.3-13.7,75.1-28.5,113.8-31.8
		c37.5-3.2,76.6,6.1,113.8,17"/>
	<path class="st5" d="M0.4,82.6c37.1,1.2,76.6,0.2,113.8-4.1C153.1,73.9,191,64.6,228,53c38.2-12,75.4-24.9,113.8-27.3
		c37.8-2.3,76.4,6.7,113.8,16.5"/>
	<path class="st6" d="M0.5,84.9c37.2,1.2,76.5,0.5,113.8-3c38.7-3.6,76.7-11.4,113.8-21.5c38.2-10.3,75.7-21.6,113.8-23.1
		c38.1-1.5,76.1,7.3,113.8,16.1"/>
	<path class="st7" d="M0.7,87.1C38,88.2,77,88,114.5,85.3c38.5-2.8,76.5-9.2,113.8-17.7c38.1-8.7,75.9-18.3,113.8-19
		c38.2-0.7,75.9,7.9,113.8,15.6"/>
	<path class="st8" d="M0.9,89.3c37.4,1,76.2,1.1,113.8-0.8c38.4-2,76.4-7,113.8-14.1c38.1-7.2,76.1-15.2,113.8-15.2
		c38.4,0.1,75.8,8.4,113.8,15.2"/>
	<path class="st9" d="M1,91.3c37.5,1,76.2,1.4,113.8,0.2c38.4-1.2,76.2-5,113.8-10.7c38-5.8,76.2-12.3,113.8-11.5
		c38.4,0.8,75.6,8.9,113.8,14.7"/>
	<path class="st10" d="M1.2,93.3c37.5,0.9,76.1,1.7,113.8,1.2c38.3-0.5,76.1-3.1,113.8-7.5c37.9-4.4,76.2-9.5,113.8-8.1
		c38.4,1.5,75.5,9.4,113.8,14.3"/>
	<path class="st11" d="M1.3,95.1C38.9,96,77.4,97,115.1,97.2c38.3,0.2,76-1.3,113.8-4.4c37.9-3.2,76.2-6.9,113.8-4.8
		c38.4,2.1,75.4,9.9,113.8,13.9"/>
	<path class="st12" d="M1.4,96.8c37.6,0.9,76.1,2.2,113.8,3c38.3,0.9,75.9,0.5,113.8-1.5c37.8-2,76.2-4.4,113.8-1.7
		c38.3,2.7,75.3,10.3,113.8,13.5"/>
	<path class="st13" d="M1.5,98.4c37.6,0.8,76.2,2.4,113.8,3.8c38.3,1.5,75.8,2.1,113.8,1.2c37.7-0.8,76.1-2,113.8,1.2
		c38.2,3.3,75.2,10.7,113.8,13.1"/>
	<path class="st14" d="M1.7,99.9c37.7,0.8,76.2,2.6,113.8,4.6c38.4,2,75.7,3.6,113.8,3.8c37.6,0.2,76,0.1,113.8,3.9
		c38.1,3.8,75.2,11.1,113.8,12.8"/>
	<path class="st15" d="M1.8,101.4c37.7,0.8,76.2,2.8,113.8,5.4c38.4,2.6,75.7,4.9,113.8,6.2c37.6,1.2,75.9,2.1,113.8,6.4
		c38,4.3,75.2,11.4,113.8,12.4"/>
	<path class="st16" d="M1.9,102.7c37.7,0.7,76.3,3,113.8,6c38.5,3.1,75.6,6.2,113.8,8.4c37.5,2.1,75.8,4,113.8,8.7
		c37.9,4.7,75.2,11.8,113.8,12.1"/>
	<path class="st17" d="M1.9,103.9c37.7,0.7,76.3,3.2,113.8,6.7c38.5,3.5,75.6,7.4,113.8,10.4c37.4,2.9,75.7,5.7,113.8,10.9
		c37.7,5.1,75.2,12,113.8,11.8"/>
	<path class="st18" d="M2,105c37.7,0.7,76.4,3.4,113.8,7.2c38.6,4,75.6,8.5,113.8,12.3c37.4,3.7,75.6,7.3,113.8,12.8
		c37.6,5.5,75.2,12.3,113.8,11.5"/>
	<path class="st19" d="M2.1,105.9c37.7,0.7,76.5,3.6,113.8,7.8c38.7,4.4,75.5,9.5,113.8,13.9c37.3,4.3,75.5,8.7,113.8,14.6
		c37.5,5.8,75.3,12.5,113.8,11.2"/>
	<path class="st20" d="M2.2,106.8c37.7,0.6,76.5,3.7,113.8,8.2c38.7,4.7,75.5,10.4,113.8,15.4c37.3,4.9,75.3,9.9,113.8,16.2
		c37.4,6.1,75.3,12.7,113.8,11"/>
	<path class="st21" d="M2.2,107.6c37.7,0.6,76.6,3.8,113.8,8.7c38.8,5,75.5,11.1,113.8,16.8c37.2,5.5,75.2,11,113.8,17.5
		c37.2,6.3,75.3,12.9,113.8,10.8"/>
	<path class="st22" d="M2.3,108.3c37.7,0.6,76.6,4,113.8,9c38.8,5.3,75.5,11.8,113.8,17.9c37.2,5.9,75.2,12,113.8,18.8
		c37.1,6.5,75.3,13.1,113.8,10.6"/>
	<path class="st23" d="M2.3,108.9c37.7,0.6,76.7,4.1,113.8,9.3c38.9,5.5,75.5,12.4,113.8,18.9c37.2,6.3,75.1,12.8,113.8,19.8
		c37.1,6.7,75.4,13.2,113.8,10.4"/>
	<path class="st24" d="M2.3,109.3c37.6,0.6,76.7,4.1,113.8,9.6c38.9,5.7,75.5,12.9,113.8,19.7c37.1,6.6,75,13.5,113.8,20.6
		c37,6.8,75.4,13.3,113.8,10.3"/>
	<path class="st25" d="M2.4,109.7c37.6,0.6,76.7,4.2,113.8,9.8c39,5.8,75.5,13.2,113.8,20.3c37.1,6.9,75,14,113.8,21.3
		c36.9,6.9,75.4,13.4,113.8,10.2"/>
	<path class="st25" d="M2.4,110c37.6,0.6,76.8,4.2,113.8,9.9c39,5.9,75.5,13.5,113.8,20.8c37.1,7.1,74.9,14.3,113.8,21.7
		c36.9,7,75.4,13.4,113.8,10.1"/>
	<path class="st26" d="M2.4,110.1c37.6,0.6,76.8,4.3,113.8,10c39,6,75.5,13.6,113.8,21c37.1,7.2,74.9,14.6,113.8,22
		c36.9,7,75.4,13.5,113.8,10.1"/>
</g>
<g class="st27">
	<path class="st28" d="M0.2,17c77,0,150.5,19.9,227.6,48.8c72.4,27.2,149.8,50.8,227.6,51"/>
	<path class="st29" d="M0.5,24.4C77.4,24.2,151,42.7,228.1,70.2c72.6,25.9,149.9,48.2,227.6,48.7"/>
	<path class="st30" d="M0.8,31.5c76.8-0.3,150.5,16.8,227.6,42.9C301.1,99,378.3,120.1,456,120.8"/>
	<path class="st31" d="M1.1,38.3c76.7-0.4,150.5,15.4,227.6,40.1c72.9,23.4,150,43.4,227.6,44.3"/>
	<path class="st32" d="M1.4,44.8c76.6-0.6,150.5,14,227.6,37.4c73,22.2,150,41.1,227.6,42.3"/>
	<path class="st33" d="M1.6,50.9c76.5-0.7,150.5,12.6,227.6,34.8c73.1,21.1,150,39,227.6,40.4"/>
	<path class="st34" d="M1.9,56.8C78.3,56,152.4,68.2,229.5,89.2c73.3,20,150.1,36.9,227.6,38.6"/>
	<path class="st35" d="M2.1,62.4c76.4-1,150.6,10.1,227.6,30c73.4,19,150.1,35,227.6,36.9"/>
	<path class="st36" d="M2.3,67.7c76.3-1.1,150.6,9,227.6,27.8c73.5,18,150.2,33.2,227.6,35.2"/>
	<path class="st37" d="M2.5,72.6c76.3-1.2,150.6,7.9,227.6,25.8c73.6,17.1,150.2,31.5,227.6,33.7"/>
	<path class="st38" d="M2.7,77.3c76.2-1.3,150.6,6.8,227.6,23.8c73.7,16.3,150.2,29.9,227.6,32.3"/>
	<path class="st39" d="M2.9,81.7c76.2-1.4,150.7,5.9,227.6,21.9c73.8,15.5,150.3,28.4,227.6,31"/>
	<path class="st40" d="M3.1,85.8c76.2-1.6,150.7,4.9,227.6,20.2c73.9,14.7,150.3,27,227.6,29.8"/>
	<path class="st41" d="M3.2,89.5c76.1-1.7,150.7,4.1,227.6,18.6c74,14,150.3,25.7,227.6,28.6"/>
	<path class="st42" d="M3.4,93c76.1-1.7,150.7,3.3,227.6,17.2c74.1,13.4,150.3,24.6,227.6,27.6"/>
	<path class="st43" d="M3.5,96.2c76.1-1.8,150.7,2.6,227.6,15.8c74.1,12.8,150.4,23.5,227.6,26.6"/>
	<path class="st44" d="M3.6,99c76.1-1.9,150.7,1.9,227.6,14.6c74.2,12.3,150.4,22.5,227.6,25.8"/>
	<path class="st45" d="M3.7,101.6c76.1-2,150.8,1.4,227.6,13.5c74.2,11.8,150.4,21.7,227.6,25"/>
	<path class="st46" d="M3.8,103.8c76.1-2,150.8,0.9,227.6,12.6c74.3,11.4,150.4,20.9,227.6,24.4"/>
	<path class="st47" d="M3.9,105.8c76.1-2.1,150.8,0.4,227.6,11.7c74.3,11,150.4,20.2,227.6,23.8"/>
	<path class="st48" d="M4,107.4c76.1-2.1,150.8,0,227.6,11c74.3,10.7,150.5,19.7,227.6,23.3"/>
	<path class="st49" d="M4,108.8c76.1-2.2,150.8-0.3,227.6,10.4c74.4,10.4,150.5,19.2,227.6,22.9"/>
	<path class="st50" d="M4.1,109.9c76.1-2.2,150.8-0.5,227.6,10c74.4,10.2,150.5,18.9,227.6,22.6"/>
	<path class="st50" d="M4.1,110.6c76.1-2.2,150.8-0.7,227.6,9.7c74.4,10.1,150.5,18.6,227.6,22.4"/>
	<path class="st51" d="M4.1,111.1c76.1-2.2,150.8-0.8,227.6,9.5c74.4,10,150.5,18.5,227.6,22.2"/>
</g>
<g class="st27">
	<path class="st28" d="M459.4,17c-77,0-150.5,19.9-227.6,48.8C159.3,93,81.9,116.6,4.1,116.8"/>
	<path class="st29" d="M459,24.4c-76.9-0.2-150.5,18.3-227.6,45.8C158.8,96.1,81.6,118.4,3.8,118.9"/>
	<path class="st30" d="M458.7,31.5C382,31.2,308.2,48.3,231.1,74.3C158.4,99,81.2,120.1,3.5,120.8"/>
	<path class="st31" d="M458.5,38.3c-76.7-0.4-150.5,15.4-227.6,40.1c-72.9,23.4-150,43.4-227.6,44.3"/>
	<path class="st32" d="M458.2,44.8c-76.6-0.6-150.5,14-227.6,37.4c-73,22.2-150,41.1-227.6,42.3"/>
	<path class="st33" d="M457.9,50.9c-76.5-0.7-150.5,12.6-227.6,34.8c-73.1,21.1-150,39-227.6,40.4"/>
	<path class="st34" d="M457.7,56.8C381.3,56,307.1,68.2,230.1,89.2c-73.3,20-150.1,36.9-227.6,38.6"/>
	<path class="st35" d="M457.4,62.4c-76.4-1-150.6,10.1-227.6,30c-73.4,19-150.1,35-227.6,36.9"/>
	<path class="st36" d="M457.2,67.7c-76.3-1.1-150.6,9-227.6,27.8c-73.5,18-150.2,33.2-227.6,35.2"/>
	<path class="st37" d="M457,72.6c-76.3-1.2-150.6,7.9-227.6,25.8c-73.6,17.1-150.2,31.5-227.6,33.7"/>
	<path class="st38" d="M456.8,77.3c-76.2-1.3-150.6,6.8-227.6,23.8C155.5,117.4,79,131,1.6,133.4"/>
	<path class="st39" d="M456.6,81.7C380.5,80.2,306,87.5,229,103.6c-73.8,15.5-150.3,28.4-227.6,31"/>
	<path class="st40" d="M456.5,85.8c-76.2-1.6-150.7,4.9-227.6,20.2C155,120.7,78.6,133,1.3,135.7"/>
	<path class="st41" d="M456.3,89.5c-76.1-1.7-150.7,4.1-227.6,18.6c-74,14-150.3,25.7-227.6,28.6"/>
	<path class="st42" d="M456.2,93c-76.1-1.7-150.7,3.3-227.6,17.2c-74.1,13.4-150.3,24.6-227.6,27.6"/>
	<path class="st43" d="M456,96.2c-76.1-1.8-150.7,2.6-227.6,15.8c-74.1,12.8-150.4,23.5-227.6,26.6"/>
	<path class="st44" d="M455.9,99c-76.1-1.9-150.7,1.9-227.6,14.6c-74.2,12.3-150.4,22.5-227.6,25.8"/>
	<path class="st45" d="M455.8,101.6c-76.1-2-150.8,1.4-227.6,13.5c-74.2,11.8-150.4,21.7-227.6,25"/>
	<path class="st46" d="M455.7,103.8c-76.1-2-150.8,0.9-227.6,12.6c-74.3,11.4-150.4,20.9-227.6,24.4"/>
	<path class="st47" d="M455.6,105.8c-76.1-2.1-150.8,0.4-227.6,11.7c-74.3,11-150.4,20.2-227.6,23.8"/>
	<path class="st48" d="M455.6,107.4c-76.1-2.1-150.8,0-227.6,11c-74.3,10.7-150.5,19.7-227.6,23.3"/>
	<path class="st49" d="M455.5,108.8c-76.1-2.2-150.8-0.3-227.6,10.4c-74.4,10.4-150.5,19.2-227.6,22.9"/>
	<path class="st50" d="M455.5,109.9c-76.1-2.2-150.8-0.5-227.6,10c-74.4,10.2-150.5,18.9-227.6,22.6"/>
	<path class="st50" d="M455.4,110.6c-76.1-2.2-150.8-0.7-227.6,9.7c-74.4,10.1-150.5,18.6-227.6,22.4"/>
	<path class="st51" d="M455.4,111.1c-76.1-2.2-150.8-0.8-227.6,9.5c-74.4,10-150.5,18.5-227.6,22.2"/>
</g>
</svg>
