<svg width="1316" height="259" viewBox="0 0 1316 259" fill="none" xmlns="http://www.w3.org/2000/svg">
<path d="M853.551 201.92V178.92C853.551 174.502 849.969 170.92 845.551 170.92H792.551C788.132 170.92 784.551 166.338 784.551 161.92V130.42" stroke="url(#paint0_linear)" stroke-opacity="0.4"/>
<path d="M804.051 170.92H832.371" stroke="url(#paint1_linear)"/>
<g filter="url(#filter0_f)">
<circle r="1.5" transform="matrix(1 0 0 -1 818.211 170.92)" fill="#FC980F"/>
</g>
<path d="M1082.26 0.669922L1082.26 54.8421C1082.26 59.2603 1078.68 62.842 1074.26 62.842L1044.5 62.8418C1040.08 62.8418 1037.5 66.4236 1037.5 70.8418L1037.5 130.42" stroke="url(#paint2_linear)" stroke-opacity="0.4"/>
<path d="M1044.89 62.9199H1073.21" stroke="url(#paint3_linear)"/>
<g filter="url(#filter1_f)">
<circle r="1.5" transform="matrix(1 0 0 -1 1059.05 62.9199)" fill="#FC980F"/>
</g>
<path d="M210.5 259V202.92C210.5 198.502 214.082 194.92 218.5 194.92H270C274.418 194.92 277.499 191.338 277.499 186.92V130.42" stroke="url(#paint4_linear)" stroke-opacity="0.4"/>
<path d="M228.253 194.92H256.574" stroke="url(#paint5_linear)"/>
<g filter="url(#filter2_f)">
<circle r="1.5" transform="matrix(1 0 0 -1 242.414 194.92)" fill="#FC980F"/>
</g>
<path d="M562.5 27.4199V84.9199C562.5 89.3382 558.918 92.9199 554.5 92.9199L538.47 92.92C534.052 92.92 531.47 96.5017 531.47 100.92V130.42" stroke="url(#paint6_linear)" stroke-opacity="0.4"/>
<path d="M562.5 45.0996L562.5 73.4201" stroke="url(#paint7_linear)"/>
<g filter="url(#filter3_f)">
<ellipse cx="562.5" cy="58.5996" rx="1.5" ry="1.5" transform="rotate(90 562.5 58.5996)" fill="#FC980F"/>
</g>
<rect width="1316" height="3" transform="matrix(1 0 0 -1 0 131)" fill="url(#paint8_linear)"/>
<circle r="9" transform="matrix(1 0 0 -1 277.5 130)" fill="url(#paint9_radial)"/>
<circle r="4" transform="matrix(1 0 0 -1 277.5 130)" fill="#FDFDFD"/>
<circle r="9" transform="matrix(1 0 0 -1 531.5 130)" fill="url(#paint10_radial)"/>
<circle r="4" transform="matrix(1 0 0 -1 531.5 130)" fill="#FDFDFD"/>
<circle r="9" transform="matrix(1 0 0 -1 1037.5 130)" fill="url(#paint11_radial)"/>
<circle r="4" transform="matrix(1 0 0 -1 1037.5 130)" fill="#FDFDFD"/>
<circle r="9" transform="matrix(1 0 0 -1 784.5 130)" fill="url(#paint12_radial)"/>
<circle r="4" transform="matrix(1 0 0 -1 784.5 130)" fill="#FDFDFD"/>
<defs>
<filter id="filter0_f" x="813.711" y="166.42" width="9" height="9" filterUnits="userSpaceOnUse" color-interpolation-filters="sRGB">
<feFlood flood-opacity="0" result="BackgroundImageFix"/>
<feBlend mode="normal" in="SourceGraphic" in2="BackgroundImageFix" result="shape"/>
<feGaussianBlur stdDeviation="1.5" result="effect1_foregroundBlur"/>
</filter>
<filter id="filter1_f" x="1054.55" y="58.4199" width="9" height="9" filterUnits="userSpaceOnUse" color-interpolation-filters="sRGB">
<feFlood flood-opacity="0" result="BackgroundImageFix"/>
<feBlend mode="normal" in="SourceGraphic" in2="BackgroundImageFix" result="shape"/>
<feGaussianBlur stdDeviation="1.5" result="effect1_foregroundBlur"/>
</filter>
<filter id="filter2_f" x="237.914" y="190.42" width="9" height="9" filterUnits="userSpaceOnUse" color-interpolation-filters="sRGB">
<feFlood flood-opacity="0" result="BackgroundImageFix"/>
<feBlend mode="normal" in="SourceGraphic" in2="BackgroundImageFix" result="shape"/>
<feGaussianBlur stdDeviation="1.5" result="effect1_foregroundBlur"/>
</filter>
<filter id="filter3_f" x="558" y="54.0996" width="9" height="9" filterUnits="userSpaceOnUse" color-interpolation-filters="sRGB">
<feFlood flood-opacity="0" result="BackgroundImageFix"/>
<feBlend mode="normal" in="SourceGraphic" in2="BackgroundImageFix" result="shape"/>
<feGaussianBlur stdDeviation="1.5" result="effect1_foregroundBlur"/>
</filter>
<linearGradient id="paint0_linear" x1="838.051" y1="130.42" x2="838.051" y2="202.42" gradientUnits="userSpaceOnUse">
<stop stop-color="#FF9C00"/>
<stop offset="1" stop-color="#EC8266" stop-opacity="0"/>
</linearGradient>
<linearGradient id="paint1_linear" x1="803.074" y1="170.92" x2="832.371" y2="170.92" gradientUnits="userSpaceOnUse">
<stop stop-color="#FF9C00" stop-opacity="0"/>
<stop offset="0.526042" stop-color="#FF9C00" stop-opacity="0.6"/>
<stop offset="1" stop-color="#FF9C00" stop-opacity="0"/>
</linearGradient>
<linearGradient id="paint2_linear" x1="1090.05" y1="130.42" x2="1090.05" y2="-22.5908" gradientUnits="userSpaceOnUse">
<stop stop-color="#FF9C00"/>
<stop offset="1" stop-color="#EC8266" stop-opacity="0"/>
</linearGradient>
<linearGradient id="paint3_linear" x1="1043.92" y1="62.9199" x2="1073.21" y2="62.9199" gradientUnits="userSpaceOnUse">
<stop stop-color="#FF9C00" stop-opacity="0"/>
<stop offset="0.526042" stop-color="#FF9C00" stop-opacity="0.6"/>
<stop offset="1" stop-color="#FF9C00" stop-opacity="0"/>
</linearGradient>
<linearGradient id="paint4_linear" x1="225" y1="130.42" x2="225" y2="260.42" gradientUnits="userSpaceOnUse">
<stop stop-color="#FF9C00"/>
<stop offset="1" stop-color="#EC8266" stop-opacity="0"/>
</linearGradient>
<linearGradient id="paint5_linear" x1="227.277" y1="194.92" x2="256.574" y2="194.92" gradientUnits="userSpaceOnUse">
<stop stop-color="#FF9C00" stop-opacity="0"/>
<stop offset="0.526042" stop-color="#FF9C00" stop-opacity="0.6"/>
<stop offset="1" stop-color="#FF9C00" stop-opacity="0"/>
</linearGradient>
<linearGradient id="paint6_linear" x1="583.47" y1="130.42" x2="583.47" y2="0.419917" gradientUnits="userSpaceOnUse">
<stop stop-color="#FF9C00"/>
<stop offset="1" stop-color="#EC8266" stop-opacity="0"/>
</linearGradient>
<linearGradient id="paint7_linear" x1="-4.85009e+12" y1="212048" x2="-4.85009e+12" y2="212077" gradientUnits="userSpaceOnUse">
<stop stop-color="#FF9C00" stop-opacity="0"/>
<stop offset="0.526042" stop-color="#FF9C00" stop-opacity="0.6"/>
<stop offset="1" stop-color="#FF9C00" stop-opacity="0"/>
</linearGradient>
<linearGradient id="paint8_linear" x1="6.0263e-08" y1="0.017259" x2="1316" y2="0.017259" gradientUnits="userSpaceOnUse">
<stop stop-color="#FF9C00" stop-opacity="0"/>
<stop offset="0.102015" stop-color="#FD990B"/>
<stop offset="0.470523" stop-color="#EC8266"/>
<stop offset="0.922887" stop-color="#FD990B"/>
<stop offset="1" stop-color="#FF9C00" stop-opacity="0"/>
</linearGradient>
<radialGradient id="paint9_radial" cx="0" cy="0" r="1" gradientUnits="userSpaceOnUse" gradientTransform="translate(6.5 3.5) rotate(62.5924) scale(15.2069 25.647)">
<stop stop-color="#FF9C00"/>
<stop offset="1" stop-color="#EC8266"/>
</radialGradient>
<radialGradient id="paint10_radial" cx="0" cy="0" r="1" gradientUnits="userSpaceOnUse" gradientTransform="translate(6.5 3.5) rotate(62.5924) scale(15.2069 25.647)">
<stop stop-color="#FF9C00"/>
<stop offset="1" stop-color="#EC8266"/>
</radialGradient>
<radialGradient id="paint11_radial" cx="0" cy="0" r="1" gradientUnits="userSpaceOnUse" gradientTransform="translate(6.5 3.5) rotate(62.5924) scale(15.2069 25.647)">
<stop stop-color="#FF9C00"/>
<stop offset="1" stop-color="#EC8266"/>
</radialGradient>
<radialGradient id="paint12_radial" cx="0" cy="0" r="1" gradientUnits="userSpaceOnUse" gradientTransform="translate(6.5 3.5) rotate(62.5924) scale(15.2069 25.647)">
<stop stop-color="#FF9C00"/>
<stop offset="1" stop-color="#EC8266"/>
</radialGradient>
</defs>
</svg>
