<svg width="460" height="173" fill="none" xmlns="http://www.w3.org/2000/svg"><circle cx="2" cy="170.028" r="2" fill="#437077"/><circle cx="2" cy="146.028" r="2" fill="#437077"/><circle cx="2" cy="122.028" r="2" fill="#437077"/><circle cx="2" cy="98.028" r="2" fill="#437077"/><circle cx="2" cy="74.028" r="2" fill="#437077"/><circle cx="2" cy="50.028" r="2" fill="#437077"/><circle cx="2" cy="26.028" r="2" fill="#437077"/><circle cx="2" cy="2.028" r="2" fill="#437077"/><circle cx="26" cy="170.028" r="2" fill="#437077"/><circle cx="26" cy="146.028" r="2" fill="#437077"/><circle cx="26" cy="122.028" r="2" fill="#437077"/><circle cx="26" cy="98.028" r="2" fill="#437077"/><circle cx="26" cy="74.028" r="2" fill="#437077"/><circle cx="26" cy="50.028" r="2" fill="#437077"/><circle cx="26" cy="26.028" r="2" fill="#437077"/><circle cx="26" cy="2.028" r="2" fill="#437077"/><circle cx="50" cy="170.028" r="2" fill="#437077"/><circle cx="50" cy="146.028" r="2" fill="#437077"/><circle cx="50" cy="122.028" r="2" fill="#437077"/><circle cx="50" cy="98.028" r="2" fill="#437077"/><circle cx="50" cy="74.028" r="2" fill="#437077"/><circle cx="50" cy="50.028" r="2" fill="#437077"/><circle cx="50" cy="26.028" r="2" fill="#437077"/><circle cx="50" cy="2.028" r="2" fill="#437077"/><circle cx="74" cy="170.028" r="2" fill="#437077"/><circle cx="74" cy="146.028" r="2" fill="#437077"/><circle cx="74" cy="122.028" r="2" fill="#437077"/><circle cx="74" cy="98.028" r="2" fill="#437077"/><circle cx="74" cy="74.028" r="2" fill="#437077"/><circle cx="74" cy="50.028" r="2" fill="#437077"/><circle cx="74" cy="26.028" r="2" fill="#437077"/><circle cx="74" cy="2.028" r="2" fill="#437077"/><circle cx="98" cy="170.028" r="2" fill="#437077"/><circle cx="98" cy="146.028" r="2" fill="#437077"/><circle cx="98" cy="122.028" r="2" fill="#437077"/><circle cx="98" cy="98.028" r="2" fill="#437077"/><circle cx="98" cy="74.028" r="2" fill="#437077"/><circle cx="98" cy="50.028" r="2" fill="#437077"/><circle cx="98" cy="26.028" r="2" fill="#437077"/><circle cx="98" cy="2.028" r="2" fill="#437077"/><circle cx="122" cy="170.028" r="2" fill="#437077"/><circle cx="122" cy="146.028" r="2" fill="#437077"/><circle cx="122" cy="122.028" r="2" fill="#437077"/><circle cx="122" cy="98.028" r="2" fill="#437077"/><circle cx="122" cy="74.028" r="2" fill="#437077"/><circle cx="122" cy="50.028" r="2" fill="#437077"/><circle cx="122" cy="26.028" r="2" fill="#437077"/><circle cx="122" cy="2.028" r="2" fill="#437077"/><circle cx="146" cy="170.028" r="2" fill="#437077"/><circle cx="146" cy="146.028" r="2" fill="#437077"/><circle cx="146" cy="122.028" r="2" fill="#437077"/><circle cx="146" cy="98.028" r="2" fill="#437077"/><circle cx="146" cy="74.028" r="2" fill="#437077"/><circle cx="146" cy="50.028" r="2" fill="#437077"/><circle cx="146" cy="26.028" r="2" fill="#437077"/><circle cx="146" cy="2.028" r="2" fill="#437077"/><circle cx="170" cy="170.028" r="2" fill="#437077"/><circle cx="170" cy="146.028" r="2" fill="#437077"/><circle cx="170" cy="122.028" r="2" fill="#437077"/><circle cx="170" cy="98.028" r="2" fill="#437077"/><circle cx="170" cy="74.028" r="2" fill="#437077"/><circle cx="170" cy="50.028" r="2" fill="#437077"/><circle cx="170" cy="26.028" r="2" fill="#437077"/><circle cx="170" cy="2.028" r="2" fill="#437077"/><circle cx="194" cy="170.028" r="2" fill="#437077"/><circle cx="194" cy="146.028" r="2" fill="#437077"/><circle cx="194" cy="122.028" r="2" fill="#437077"/><circle cx="194" cy="98.028" r="2" fill="#437077"/><circle cx="194" cy="74.028" r="2" fill="#437077"/><circle cx="194" cy="50.028" r="2" fill="#437077"/><circle cx="194" cy="26.028" r="2" fill="#437077"/><circle cx="194" cy="2.028" r="2" fill="#437077"/><circle cx="218" cy="170.028" r="2" fill="#437077"/><circle cx="218" cy="146.028" r="2" fill="#437077"/><circle cx="218" cy="122.028" r="2" fill="#437077"/><circle cx="218" cy="98.028" r="2" fill="#437077"/><circle cx="218" cy="74.028" r="2" fill="#437077"/><circle cx="218" cy="50.028" r="2" fill="#437077"/><circle cx="218" cy="26.028" r="2" fill="#437077"/><circle cx="218" cy="2.028" r="2" fill="#437077"/><circle cx="242" cy="170.028" r="2" fill="#437077"/><circle cx="242" cy="146.028" r="2" fill="#437077"/><circle cx="242" cy="122.028" r="2" fill="#437077"/><circle cx="242" cy="98.028" r="2" fill="#437077"/><circle cx="242" cy="74.028" r="2" fill="#437077"/><circle cx="242" cy="50.028" r="2" fill="#437077"/><circle cx="242" cy="26.028" r="2" fill="#437077"/><circle cx="242" cy="2.028" r="2" fill="#437077"/><circle cx="266" cy="170.028" r="2" fill="#437077"/><circle cx="266" cy="146.028" r="2" fill="#437077"/><circle cx="266" cy="122.028" r="2" fill="#437077"/><circle cx="266" cy="98.028" r="2" fill="#437077"/><circle cx="266" cy="74.028" r="2" fill="#437077"/><circle cx="266" cy="50.028" r="2" fill="#437077"/><circle cx="266" cy="26.028" r="2" fill="#437077"/><circle cx="266" cy="2.028" r="2" fill="#437077"/><circle cx="290" cy="170.028" r="2" fill="#437077"/><circle cx="290" cy="146.028" r="2" fill="#437077"/><circle cx="290" cy="122.028" r="2" fill="#437077"/><circle cx="290" cy="98.028" r="2" fill="#437077"/><circle cx="290" cy="74.028" r="2" fill="#437077"/><circle cx="290" cy="50.028" r="2" fill="#437077"/><circle cx="290" cy="26.028" r="2" fill="#437077"/><circle cx="290" cy="2.028" r="2" fill="#437077"/><circle cx="314" cy="170.028" r="2" fill="#437077"/><circle cx="314" cy="146.028" r="2" fill="#437077"/><circle cx="314" cy="122.028" r="2" fill="#437077"/><circle cx="314" cy="98.028" r="2" fill="#437077"/><circle cx="314" cy="74.028" r="2" fill="#437077"/><circle cx="314" cy="50.028" r="2" fill="#437077"/><circle cx="314" cy="26.028" r="2" fill="#437077"/><circle cx="314" cy="2.028" r="2" fill="#437077"/><circle cx="338" cy="170.028" r="2" fill="#437077"/><circle cx="338" cy="146.028" r="2" fill="#437077"/><circle cx="338" cy="122.028" r="2" fill="#437077"/><circle cx="338" cy="98.028" r="2" fill="#437077"/><circle cx="338" cy="74.028" r="2" fill="#437077"/><circle cx="338" cy="50.028" r="2" fill="#437077"/><circle cx="338" cy="26.028" r="2" fill="#437077"/><circle cx="338" cy="2.028" r="2" fill="#437077"/><circle cx="362" cy="170.028" r="2" fill="#437077"/><circle cx="362" cy="146.028" r="2" fill="#437077"/><circle cx="362" cy="122.028" r="2" fill="#437077"/><circle cx="362" cy="98.028" r="2" fill="#437077"/><circle cx="362" cy="74.028" r="2" fill="#437077"/><circle cx="362" cy="50.028" r="2" fill="#437077"/><circle cx="362" cy="26.028" r="2" fill="#437077"/><circle cx="362" cy="2.028" r="2" fill="#437077"/><circle cx="386" cy="170.028" r="2" fill="#437077"/><circle cx="386" cy="146.028" r="2" fill="#437077"/><circle cx="386" cy="122.028" r="2" fill="#437077"/><circle cx="386" cy="98.028" r="2" fill="#437077"/><circle cx="386" cy="74.028" r="2" fill="#437077"/><circle cx="386" cy="50.028" r="2" fill="#437077"/><circle cx="386" cy="26.028" r="2" fill="#437077"/><circle cx="386" cy="2.028" r="2" fill="#437077"/><circle cx="410" cy="170.028" r="2" fill="#437077"/><circle cx="410" cy="146.028" r="2" fill="#437077"/><circle cx="410" cy="122.028" r="2" fill="#437077"/><circle cx="410" cy="98.028" r="2" fill="#437077"/><circle cx="410" cy="74.028" r="2" fill="#437077"/><circle cx="410" cy="50.028" r="2" fill="#437077"/><circle cx="410" cy="26.028" r="2" fill="#437077"/><circle cx="410" cy="2.028" r="2" fill="#437077"/><circle cx="434" cy="170.028" r="2" fill="#437077"/><circle cx="434" cy="146.028" r="2" fill="#437077"/><circle cx="434" cy="122.028" r="2" fill="#437077"/><circle cx="434" cy="98.028" r="2" fill="#437077"/><circle cx="434" cy="74.028" r="2" fill="#437077"/><circle cx="434" cy="50.028" r="2" fill="#437077"/><circle cx="434" cy="26.028" r="2" fill="#437077"/><circle cx="434" cy="2.028" r="2" fill="#437077"/><circle cx="458" cy="170.028" r="2" fill="#437077"/><circle cx="458" cy="146.028" r="2" fill="#437077"/><circle cx="458" cy="122.028" r="2" fill="#437077"/><circle cx="458" cy="98.028" r="2" fill="#437077"/><circle cx="458" cy="74.028" r="2" fill="#437077"/><circle cx="458" cy="50.028" r="2" fill="#437077"/><circle cx="458" cy="26.028" r="2" fill="#437077"/><circle cx="458" cy="2.028" r="2" fill="#437077"/></svg>