<svg width="1001" height="184" viewBox="0 0 1001 184" fill="none" xmlns="http://www.w3.org/2000/svg">
<mask id="mask0" mask-type="alpha" maskUnits="userSpaceOnUse" x="554" y="85" width="58" height="49">
<path d="M554 85.2099H611.34V134H554" fill="white"/>
</mask>
<g mask="url(#mask0)">
<path fill-rule="evenodd" clip-rule="evenodd" d="M583.63 92.1299H572.23C571.28 92.1299 570.51 91.3699 570.51 90.4199V86.9199C570.51 85.9799 571.28 85.2099 572.23 85.2099H583.63C584.58 85.2099 585.35 85.9799 585.35 86.9199V90.4199C585.35 91.3699 584.58 92.1299 583.63 92.1299Z" fill="#FF9C00"/>
</g>
<path fill-rule="evenodd" clip-rule="evenodd" d="M567.76 113.3H556.36C555.4 113.3 554.63 112.54 554.63 111.59V108.09C554.63 107.15 555.4 106.38 556.35 106.38H567.75C568.71 106.38 569.48 107.15 569.48 108.09V111.59C569.48 112.54 568.71 113.3 567.76 113.3ZM599.11 113.3H587.71C586.76 113.3 585.98 112.54 585.98 111.59V108.09C585.98 107.15 586.76 106.38 587.71 106.38H599.11C600.06 106.38 600.83 107.15 600.83 108.09V111.59C600.83 112.54 600.06 113.3 599.11 113.3ZM588.05 134H576.65C575.7 134 574.93 133.23 574.93 132.28V128.79C574.93 127.84 575.7 127.07 576.65 127.07H588.05C589 127.07 589.78 127.84 589.78 128.79V132.29C589.78 133.23 589 134 588.05 134ZM567.13 134H555.73C554.77 134 554 133.23 554 132.28V128.79C554 127.84 554.77 127.07 555.72 127.07H567.12C568.08 127.07 568.85 127.84 568.85 128.79V132.29C568.85 133.23 568.08 134 567.13 134ZM609.61 134H598.21C597.26 134 596.49 133.23 596.49 132.28V128.79C596.49 127.84 597.26 127.07 598.21 127.07H609.61C610.56 127.07 611.34 127.84 611.34 128.79V132.29C611.34 133.23 610.56 134 609.61 134Z" fill="#1F5477"/>
<path d="M561.9 116.06V124.79M562.06 103.55V103.07C562.06 101.07 563.68 99.45 565.69 99.45H574.93C577.85 99.45 578.01 96.23 578.01 96.23C578.01 96.23 578.41 99.45 580.69 99.45H589.54C591.54 99.45 593.17 101.07 593.17 103.07L562.06 103.55ZM580.7 124.16V123.69C580.7 121.69 581.95 120.07 583.5 120.07H590.62C592.88 120.07 593 116.84 593 116.84C593 116.84 593.3 120.07 595.07 120.07H601.9C603.45 120.07 604.7 121.69 604.7 123.69L580.7 124.16Z" stroke="#1F5477"/>
<path fill-rule="evenodd" clip-rule="evenodd" d="M197.46 154.67C197.46 156.35 196.793 157.961 195.605 159.149C194.417 160.338 192.805 161.005 191.125 161.005C189.445 161.005 187.834 160.338 186.646 159.149C185.457 157.961 184.79 156.35 184.79 154.67C184.79 152.99 185.457 151.378 186.646 150.19C187.834 149.002 189.445 148.335 191.125 148.335C192.805 148.335 194.417 149.002 195.605 150.19C196.793 151.378 197.46 152.99 197.46 154.67Z" fill="#77BCE8"/>
<mask id="mask1" mask-type="alpha" maskUnits="userSpaceOnUse" x="141" y="98" width="102" height="63">
<path d="M141 98.0399H242.17V161H141V98.0399Z" fill="white"/>
</mask>
<g mask="url(#mask1)">
<path fill-rule="evenodd" clip-rule="evenodd" d="M172.08 132.54H164.58V125.04H172.08V132.54Z" fill="#1F5477"/>
<path fill-rule="evenodd" clip-rule="evenodd" d="M195.33 132.54H187.83V125.04H195.33V132.54Z" fill="#103654"/>
<path fill-rule="evenodd" clip-rule="evenodd" d="M218.83 132.54H211.33V125.04H218.83V132.54Z" fill="#1F5477"/>
<path fill-rule="evenodd" clip-rule="evenodd" d="M171.92 105.54H164.42V98.0399H171.92V105.54Z" fill="#1F5477"/>
<path fill-rule="evenodd" clip-rule="evenodd" d="M148.5 105.54H141V98.0399H148.5V105.54Z" fill="#103654"/>
<path fill-rule="evenodd" clip-rule="evenodd" d="M195.33 105.54H187.83V98.0399H195.33V105.54Z" fill="#103654"/>
<path fill-rule="evenodd" clip-rule="evenodd" d="M218.75 105.54H211.25V98.0399H218.75V105.54Z" fill="#1F5477"/>
<path fill-rule="evenodd" clip-rule="evenodd" d="M242.17 105.54H234.67V98.0399H242.17V105.54Z" fill="#103654"/>
<path d="M214.75 120.38V109.38M174.2 136.17L183.7 146.92L174.2 136.17ZM150.2 109.42L159.7 120.17L150.2 109.42ZM208.38 136.17L198.88 146.92L208.38 136.17ZM232.38 109.42L222.88 120.17L232.38 109.42ZM191.67 146.63V135.63V146.63ZM191.67 120.38V109.38V120.38ZM168.17 120.38V109.38V120.38Z" stroke="#C9CED3" stroke-linecap="round" stroke-linejoin="round"/>
</g>
<path d="M954.63 117.16L974.78 123.06V143.5L954.63 137.45V126.4" stroke="#C9CED3" stroke-linecap="round" stroke-linejoin="round"/>
<path d="M974.78 143.5L994.55 137.45V126.65" stroke="#C9CED3" stroke-linecap="round" stroke-linejoin="round"/>
<path fill-rule="evenodd" clip-rule="evenodd" d="M954.63 117.16L949.5 124.93L968.79 130.6L974.78 123.06L954.63 117.16Z" stroke="#C9CED3" stroke-linecap="round" stroke-linejoin="round"/>
<path fill-rule="evenodd" clip-rule="evenodd" d="M974.78 123.06L994.63 117.16L999.68 124.93L980.2 130.69L974.78 123.06Z" stroke="#C9CED3" stroke-linecap="round" stroke-linejoin="round"/>
<path d="M982.11 113.06L994.63 117.16L974.78 123.06L954.63 117.16L967.43 113.35" stroke="#C9CED3" stroke-linecap="round" stroke-linejoin="round"/>
<path fill-rule="evenodd" clip-rule="evenodd" d="M974.74 123.89L958.91 101.22L964.41 92.5599H985.91L990.74 101.39L974.74 123.89Z" stroke="#103654"/>
<path d="M958.91 101.22H990.74" stroke="#103654"/>
<path d="M964.41 92.5599L969.24 101.18L974.99 92.6799L980.24 100.93L985.91 92.5599" stroke="#103654"/>
<path d="M980.24 100.93L974.74 123.89L969.24 101.18" stroke="#103654"/>
<mask id="mask2" mask-type="alpha" maskUnits="userSpaceOnUse" x="949" y="78" width="52" height="66">
<path d="M949 78.1499H1000.18V144H949" fill="white"/>
</mask>
<g mask="url(#mask2)">
<path d="M975 88.1499V78.1499" stroke="#103654"/>
<path d="M957.91 84.8999L962.66 89.6499M988.25 89.6499L993 84.8999L988.25 89.6499Z" stroke="#103654"/>
</g>
<path d="M10.0077 174.469C101.879 174.469 101.598 10.2466 193.642 10.2466C285.513 10.2466 285.233 174.469 377.277 174.469C469.148 174.469 468.867 10.2466 560.912 10.2466C652.783 10.2466 652.502 174.469 744.547 174.469C836.418 174.469 836.137 10.2466 928.181 10.2466" stroke="#FF9C00" stroke-width="5"/>
<path d="M193.548 18.043C189.129 18.043 185.548 14.4612 185.548 10.043C185.548 5.62469 189.129 2.04297 193.548 2.04297C197.966 2.04297 201.548 5.62469 201.548 10.043C201.548 14.4612 197.966 18.043 193.548 18.043Z" fill="white" stroke="#FD9A0A" stroke-width="3"/>
<path d="M9.91321 182.18C5.49493 182.18 1.91321 178.598 1.91321 174.18C1.91321 169.762 5.49493 166.18 9.91321 166.18C14.3315 166.18 17.9132 169.762 17.9132 174.18C17.9132 178.598 14.3315 182.18 9.91321 182.18Z" fill="white" stroke="#FD9A0A" stroke-width="3"/>
<path d="M377.182 166.18C372.764 166.18 369.182 169.762 369.182 174.18C369.182 178.598 372.764 182.18 377.182 182.18C381.601 182.18 385.182 178.598 385.182 174.18C385.182 169.762 381.601 166.18 377.182 166.18Z" fill="white" stroke="#FD9A0A" stroke-width="3"/>
<path d="M560.817 18.043C556.399 18.043 552.817 14.4612 552.817 10.043C552.817 5.62469 556.399 2.04297 560.817 2.04297C565.236 2.04297 568.817 5.62469 568.817 10.043C568.817 14.4612 565.236 18.043 560.817 18.043Z" fill="white" stroke="#FD9A0A" stroke-width="3"/>
<path d="M744.452 166.18C740.034 166.18 736.452 169.762 736.452 174.18C736.452 178.598 740.034 182.18 744.452 182.18C748.87 182.18 752.452 178.598 752.452 174.18C752.452 169.762 748.87 166.18 744.452 166.18Z" fill="white" stroke="#FD9A0A" stroke-width="3"/>
<path d="M928.087 18.043C923.669 18.043 920.087 14.4612 920.087 10.043C920.087 5.62469 923.669 2.04297 928.087 2.04297C932.505 2.04297 936.087 5.62469 936.087 10.043C936.087 14.4612 932.505 18.043 928.087 18.043Z" fill="white" stroke="#FD9A0A" stroke-width="3"/>
</svg>
