<svg width="972" height="516" fill="none" xmlns="http://www.w3.org/2000/svg"><path d="M10.999 0v516M48.999 0v516M86.999 0v516M124.999 0v516M162.999 0v516M200.999 0v516M238.999 0v516M276.999 0v516M314.999 0v516M352.999 0v516M390.999 0v516M428.999 0v516M466.999 0v516M504.999 0v516M542.999 0v516M580.999 0v516M618.999 0v516M656.999 0v516M694.999 0v516M732.999 0v516M770.999 0v516M808.999 0v516M846.999 0v516M884.999 0v516M922.999 0v516M960.999 0v516M0 505h972M0 467h972M0 429h972M0 391h972M0 353h972M0 315h972M0 277h972M0 239h972M0 201h972M0 163h972M0 125h972M0 87h972M0 49h972M0 11h972" stroke="#0F4465" stroke-miterlimit="10"/><circle cx="482.994" cy="371.304" r="118.221" fill="#103654" stroke="#176293" stroke-dasharray="17 17"/><path d="M492.318 486.597l-9.792 7.872a9.336 9.336 0 11-11.464-14.735l3.95-2.974 17.306 9.837z" fill="#103654"/><path d="M379.505 429.286l30.178 11.694a8 8 0 009.758-3.356l26.716-44.714c2.48-4.15.74-9.535-3.699-11.449l-75.647-32.632M587.455 426.636l-32.736 12.059a7 7 0 01-8.313-2.79l-26.464-41.28c-2.37-3.696-.792-8.635 3.282-10.273l75.555-30.374" stroke="#176293"/><path d="M446.11 388.731c17.915-4.188 31.186-.351 35.705 1.588l32.372 17.481c4.983 2.691 6.828 8.92 4.115 13.891-2.707 4.96-8.924 6.783-13.88 4.07l-32.682-17.888-44.506 33.568c-4.188 3.151-5.029 9.101-1.878 13.289 3.15 4.186 9.096 5.029 13.284 1.882l16.54-12.428" stroke="#176293"/><rect x="528.623" y="428.671" width="30.71" height="17.178" rx="8.589" transform="rotate(36.202 528.623 428.671)" stroke="#176293"/><rect x="491.203" y="465.691" width="25.306" height="16.178" rx="8.089" transform="rotate(36.202 491.203 465.691)" stroke="#176293"/><rect x="512.01" y="437.799" width="38.725" height="17.178" rx="8.589" transform="rotate(36.202 512.01 437.799)" stroke="#176293"/><rect x="497.931" y="448.76" width="38.143" height="17.178" rx="8.589" transform="rotate(36.202 497.931 448.76)" stroke="#176293"/><path d="M466.403 459.483l-17.073 12.84c-4.187 3.149-10.134 2.309-13.284-1.878v0c-3.15-4.187-2.309-10.136 1.879-13.286l17.217-12.951" stroke="#176293"/><path d="M475.059 476.729l-11.155 8.389a9.49 9.49 0 01-13.287-1.879v0c-3.15-4.187-2.31-10.135 1.876-13.287l13.906-10.468" stroke="#176293"/><path d="M475.057 476.726l-3.995 3.008a9.336 9.336 0 00-1.846 13.072v0c3.171 4.214 9.2 4.967 13.31 1.663l9.792-7.872M520.675 389.105c-13.049-2.566-25.727-1.711-37.681 1.762" stroke="#176293"/><path d="M535.743 298.792l-48.508-65.308-48.509 65.308h23.677c-.667 13.969-7.068 46.26-27.34 63.676h100.878c-20.271-17.416-26.673-49.707-27.34-63.676h27.142z" fill="#103654"/><path d="M435.063 362.468c20.272-17.416 26.673-49.707 27.34-63.676h-23.677l48.509-65.308 48.508 65.308h-27.142c.667 13.969 7.069 46.26 27.34 63.676" stroke="url(#paint0_linear)"/><path d="M417.273 439.147c1.414.9 5.683 3.548 7.734 3.929M548.83 438.727c-.309.472-1.313 1.642-2.864 2.545" stroke="#176293"/><circle cx="389.204" cy="321.231" r="4.664" fill="#103654" stroke="#FF9C00"/><circle cx="358.895" cy="300.743" r="19.395" fill="#103654" stroke="#176293"/><circle cx="374.854" cy="254.392" r="12.072" fill="#103654" stroke="#176293"/><circle cx="583.172" cy="466.899" r="8.569" transform="rotate(139.081 583.172 466.899)" fill="#103654" stroke="#176293"/><circle cx="384.468" cy="486.255" r="8.569" transform="rotate(139.081 384.468 486.255)" fill="#103654" stroke="#FF9C00"/><circle cx="568.38" cy="252.583" r="4.664" transform="rotate(139.081 568.38 252.583)" fill="#103654" stroke="#FF9C00"/><circle cx="596.965" cy="263.183" r="19.395" transform="rotate(139.081 596.965 263.183)" fill="#103654" stroke="#176293"/><circle cx="615.266" cy="308.661" r="12.072" transform="rotate(139.081 615.266 308.661)" fill="#103654" stroke="#176293"/><defs><linearGradient id="paint0_linear" x1="485.502" y1="324.799" x2="485.502" y2="362.468" gradientUnits="userSpaceOnUse"><stop stop-color="#176293"/><stop offset="1" stop-color="#176293" stop-opacity="0"/></linearGradient></defs></svg>