<svg id="close" xmlns="http://www.w3.org/2000/svg" width="21.969" height="21.97" viewBox="0 0 21.969 21.97">
  <path fill="#cdebff" fill-rule="evenodd" d="M579.581,1178.42a1.42,1.42,0,0,1,0,2.01l-19.146,19.15a1.423,1.423,0,0,1-2.016-2.01l19.146-19.15A1.42,1.42,0,0,1,579.581,1178.42Z" transform="translate(-558.031 -1178.03)"/>
  <path fill="#cdebff" fill-rule="evenodd" d="M558.419,1178.42a1.42,1.42,0,0,1,2.016,0l19.146,19.15a1.423,1.423,0,0,1-2.016,2.01l-19.146-19.15A1.42,1.42,0,0,1,558.419,1178.42Z" transform="translate(-558.031 -1178.03)"/>
</svg>
