<svg width="972" height="517" fill="none" xmlns="http://www.w3.org/2000/svg"><path d="M10.999.65v516.001M48.999.65v516.001M86.999.65v516.001M124.999.65v516.001M162.999.65v516.001M200.999.65v516.001M238.999.65v516.001M276.999.65v516.001M314.999.65v516.001M352.999.65v516.001M390.999.65v516.001M428.999.65v516.001M466.999.65v516.001M504.999.65v516.001M542.999.65v516.001M580.999.65v516.001M618.999.65v516.001M656.999.65v516.001M694.999.65v516.001M732.999.65v516.001M770.999.65v516.001M808.999.65v516.001M846.999.65v516.001M884.999.65v516.001M922.999.65v516.001M960.999.65v516.001M0 505.651h972M0 467.651h972M0 429.651h972M0 391.651h972M0 353.651h972M0 315.651h972M0 277.651h972M0 239.651h972M0 201.651h972M0 163.651h972M0 125.651h972M0 87.65h972M0 49.65h972M0 11.65h972" stroke="#0F4465" stroke-miterlimit="10"/><path d="M488.354 473.636a.502.502 0 00-.708.708l.708-.708zM494 479.99l-.354.354a.502.502 0 00.708 0l-.354-.354zm6.354-5.646a.502.502 0 00-.708-.708l.708.708zm-12.708 0l6 6 .708-.708-6-6-.708.708zm6.708 6l6-6-.708-.708-6 6 .708.708z" fill="#92C9EC"/><ellipse cx="498.267" cy="341.585" rx="7.896" ry="1.488" stroke="#046097"/><path d="M471.694 489.123c-43.946 9.986-61.751-24.121-72.407-46.686-7.252-15.358-25.497-21.095-20.817-51.74 1.757-11.511 17.255-27.938 21.483-49.895 6.006-31.194 16.509-43.398 30.935-50.976 22.762-11.958 48.887 3.121 69.633 5.983 18.711 2.581 43.567-11.558 58.646 1.324 12.235 10.452 16.395 46.572 18.686 60.978 5.114 32.158 27.414 47.779-7.945 84.631-13.435 14.001-34.856 17.262-50.938 24.055-17.87 7.548-29.373 18.257-47.276 22.326z" fill="#103654" stroke="#0F4465"/><path d="M541.686 516.133l-53.85-120.752-35.669 44.738 4.83 76.014h-29.815c4.198-2.052 13.566-6.157 17.453-6.157 0-6.803-5.283-50.804-8.394-69.857 0 0 20.756-39.11 34.465-65.554-2.582-10.942-5.854-40.433-2.062-58.19-10.482-.395-50.347-2.169-66.137-2.035-2.087.018-3.753.069-4.876.161-1.206.123-4.623.844-8.646 2.748-1.844.975-9.159 3.319-9.09 1.465l.001-.027c.027-.726.059-1.608 6.612-3.9 1.47-.65.119-2.083-3.874-.547-3.993 1.535-7.56 1.361-8.265.892 1.579-1.911 7.538-5.742 18.743-5.778 1.915-.007 4.87-.105 8.56-.274 23.301-1.064 75.9-4.912 80.819-5.837 5.183-3.379 6.903-8.043 7.108-10.163-2.268.67-5.684 1.016-7.108 1.105-.902-2.74-2.327-9.816-.807-16.199 1.081-3.254 4.176-9.037 7.915-6.135 4.674 3.628 9.52 7.794 9.961 14.511.352 5.374-.436 13.33.514 16.881 16.547 3.238 73.586 13.633 87.581 14.206 11.196.459 17.006 4.512 18.512 6.481-.722.441-4.293.482-8.225-1.204-3.932-1.685-5.337-.303-3.892.402 6.462 2.537 6.461 3.419 6.46 4.146v.026c0 1.857-7.223-.762-9.028-1.805-3.948-2.054-7.336-2.904-8.537-3.072-9.577-1.15-59.156-.804-71.033-.804-6.895 15.708-3.831 43.573-3.831 51.618 3.678 5.516 4.087 15.835 3.831 20.304l43.566 122.592h-13.792z" fill="#103654"/><path d="M402.907 308.841c-4.237.266-2.732 4.6-.242 5.566m176.913 2.385c4.236.266 2.968 5.505 0 5.363m-91.742 73.226l53.85 120.752h13.792l-43.566-122.592c.256-4.469-.153-14.788-3.831-20.304 0-8.045-3.064-35.91 3.831-51.618 11.877 0 61.456-.346 71.033.804 1.201.168 4.589 1.018 8.537 3.072 1.805 1.043 9.028 3.662 9.028 1.805 0-.732.08-1.605-6.46-4.172-1.445-.705-.04-2.087 3.892-.402 3.932 1.686 7.503 1.645 8.225 1.204-1.506-1.969-7.316-6.022-18.512-6.481-13.995-.573-71.034-10.968-87.581-14.206-.95-3.551-.162-11.507-.514-16.881-.441-6.717-5.287-10.883-9.961-14.511-3.739-2.902-6.834 2.881-7.915 6.135-1.52 6.383-.095 13.459.807 16.199 1.424-.089 4.84-.435 7.108-1.105-.205 2.12-1.925 6.784-7.108 10.163-5.698 1.071-75.373 6.065-89.379 6.111-11.205.036-17.164 3.867-18.743 5.778.705.469 4.272.643 8.265-.892 3.993-1.536 5.344-.103 3.874.547-6.553 2.292-6.585 3.174-6.612 3.9l-.001.027c-.069 1.854 7.246-.49 9.09-1.465 4.023-1.904 7.44-2.625 8.646-2.748 9.614-.787 59.145 1.427 71.013 1.874-3.792 17.757-.52 47.248 2.062 58.19-13.709 26.444-34.465 65.554-34.465 65.554 3.111 19.053 8.394 63.054 8.394 69.857-3.887 0-13.255 4.105-17.453 6.157h29.815l-4.83-76.014 35.669-44.738z" stroke="#0F6195"/><path d="M479.163 275.135c0-4.873 4.424-8.428 9.374-8.428s9.109 3.112 11.781 5.596c3.054 2.839 5.165 4.939 4.324 11.642-.842 6.704-5.288 6.704-7.332 5.459-2.043-1.245 1.563-4.693-2.163-5.459-3.725-.766-3.605-7.565-3.605-7.565s-1.563-3.831-4.687-1.245c-3.125 2.585-7.692 3.131-7.692 0z" fill="#0F6195"/><circle opacity=".2" cx="544.5" cy="505.5" r="4.226" fill="#FC8B10"/><circle cx="544.501" cy="505.5" fill="#FC8B10" r="1.735"/><circle opacity=".2" cx="519.5" cy="443.5" r="4.226" fill="#FC8B10"/><circle cx="519.501" cy="443.5" fill="#FC8B10" r="1.735"/><circle opacity=".2" cx="444.5" cy="440.5" r="4.226" fill="#FC8B10"/><circle cx="444.501" cy="440.5" fill="#FC8B10" r="1.735"/><circle opacity=".2" cx="476.5" cy="384.5" r="4.226" fill="#FC8B10"/><circle cx="476.501" cy="384.5" fill="#FC8B10" r="1.735"/><circle opacity=".2" cx="487.5" cy="335.5" r="4.226" fill="#FC8B10"/><circle cx="487.501" cy="335.5" fill="#FC8B10" r="1.735"/><circle opacity=".2" cx="492.5" cy="304.5" r="4.226" fill="#FC8B10"/><circle cx="492.501" cy="304.5" fill="#FC8B10" r="1.735"/><circle opacity=".2" cx="522.001" cy="313.694" r="4.226" fill="#FC8B10"/><circle cx="522.002" cy="313.694" fill="#FC8B10" r="1.735"/><circle opacity=".2" cx="552.5" cy="317.5" r="4.226" fill="#FC8B10"/><circle cx="552.501" cy="317.5" fill="#FC8B10" r="1.735"/><circle opacity=".2" cx="578.5" cy="319.5" r="4.226" fill="#FC8B10"/><circle cx="578.501" cy="319.5" fill="#FC8B10" r="1.735"/><circle opacity=".2" cx="470.499" cy="311.194" r="4.226" fill="#FC8B10"/><circle cx="470.5" cy="311.194" fill="#FC8B10" r="1.735"/><circle opacity=".2" cx="437.5" cy="311.5" r="4.226" fill="#FC8B10"/><circle cx="437.501" cy="311.5" fill="#FC8B10" r="1.735"/><circle opacity=".2" cx="404.5" cy="311.5" r="4.226" fill="#FC8B10"/><circle cx="404.501" cy="311.5" fill="#FC8B10" r="1.735"/><circle opacity=".2" cx="501.768" cy="385.739" r="4.226" fill="#FC8B10"/><circle cx="501.768" cy="385.739" fill="#FC8B10" r="1.735"/><circle opacity=".2" cx="449.5" cy="507.912" r="4.226" fill="#FC8B10"/><circle cx="449.501" cy="507.912" fill="#FC8B10" r="1.735"/><path d="M470.486 372.876c4.554 2.11 24.658 4.998 37.654 0M478.297 303.937c1.58 6.24 12.624 12.986 27.095.474" stroke="#0F6195"/><path d="M529.578 436.958h-25.149l-16.578-41.328-29.624 39.491-18.973-4.118 31.451-57.724c7.263 1.917 24.889 4.601 37.291 0 5.97 15.189 13.893 42.404 21.582 63.679z" fill="#103654" stroke="#0F6195"/><path d="M541.64 515.873c0-6.618 11.379-6.407 13.507 0" stroke="#0F6195"/><path d="M449.472 507.702l-5.004-67.2 32.091-56.064 10.926-49.063m0 0l5.05-30.986m-5.05 30.986l14.307 50.361 17.637 57.704 25.056 61.964m-51.95-201.015l27.913 8.208 32.088 4.9 26.005 1.983m-86.006-15.091l-22.008 6.871-32.951.246h-33.175" stroke="#FC8B10" stroke-opacity=".7" stroke-dasharray="6 6"/></svg>