<svg width="42" height="42" fill="none" xmlns="http://www.w3.org/2000/svg"><circle r="1" transform="matrix(-1 0 0 1 41 32.28)" fill="#FF9C00"/><circle r="1" transform="matrix(-1 0 0 1 33 32.28)" fill="#FF9C00"/><circle r="1" transform="matrix(-1 0 0 1 33 40.28)" fill="#FF9C00"/><circle r="1" transform="matrix(-1 0 0 1 25 40.28)" fill="#FF9C00"/><circle r="1" transform="matrix(-1 0 0 1 17 40.28)" fill="#FF9C00"/><circle r="1" transform="matrix(-1 0 0 1 9 40.28)" fill="#FF9C00"/><circle r="1" transform="matrix(-1 0 0 1 1 40.28)" fill="#FF9C00"/><circle r="1" transform="matrix(-1 0 0 1 41 1.28)" fill="#FF9C00"/><circle r="1" transform="matrix(-1 0 0 1 41 9.28)" fill="#FF9C00"/><circle r="1" transform="matrix(-1 0 0 1 41 16.28)" fill="#FF9C00"/><circle r="1" transform="matrix(-1 0 0 1 41 24.28)" fill="#FF9C00"/></svg>