<svg width="973" height="516" viewBox="0 0 973 516" fill="none" xmlns="http://www.w3.org/2000/svg">
<path d="M11.8037 0.61499V515.914" stroke="#0F4465" stroke-miterlimit="10"/>
<path d="M49.8037 0.61499V515.914" stroke="#0F4465" stroke-miterlimit="10"/>
<path d="M87.8037 0.61499V515.914" stroke="#0F4465" stroke-miterlimit="10"/>
<path d="M125.804 0.61499V515.914" stroke="#0F4465" stroke-miterlimit="10"/>
<path d="M163.804 0.61499V515.914" stroke="#0F4465" stroke-miterlimit="10"/>
<path d="M201.804 0.61499V515.914" stroke="#0F4465" stroke-miterlimit="10"/>
<path d="M239.804 0.61499V515.914" stroke="#0F4465" stroke-miterlimit="10"/>
<path d="M277.804 0.61499V515.914" stroke="#0F4465" stroke-miterlimit="10"/>
<path d="M315.804 0.61499V515.914" stroke="#0F4465" stroke-miterlimit="10"/>
<path d="M353.804 0.61499V515.914" stroke="#0F4465" stroke-miterlimit="10"/>
<path d="M391.804 0.61499V515.914" stroke="#0F4465" stroke-miterlimit="10"/>
<path d="M429.804 0.61499V515.914" stroke="#0F4465" stroke-miterlimit="10"/>
<path d="M467.804 0.61499V515.914" stroke="#0F4465" stroke-miterlimit="10"/>
<path d="M505.804 0.61499V515.914" stroke="#0F4465" stroke-miterlimit="10"/>
<path d="M543.804 0.61499V515.914" stroke="#0F4465" stroke-miterlimit="10"/>
<path d="M581.804 0.61499V515.914" stroke="#0F4465" stroke-miterlimit="10"/>
<path d="M619.804 0.61499V515.914" stroke="#0F4465" stroke-miterlimit="10"/>
<path d="M657.804 0.61499V515.914" stroke="#0F4465" stroke-miterlimit="10"/>
<path d="M695.804 0.61499V515.914" stroke="#0F4465" stroke-miterlimit="10"/>
<path d="M733.804 0.61499V515.914" stroke="#0F4465" stroke-miterlimit="10"/>
<path d="M771.804 0.61499V515.914" stroke="#0F4465" stroke-miterlimit="10"/>
<path d="M809.804 0.61499V515.914" stroke="#0F4465" stroke-miterlimit="10"/>
<path d="M847.804 0.61499V515.914" stroke="#0F4465" stroke-miterlimit="10"/>
<path d="M885.804 0.61499V515.914" stroke="#0F4465" stroke-miterlimit="10"/>
<path d="M923.804 0.61499V515.914" stroke="#0F4465" stroke-miterlimit="10"/>
<path d="M961.804 0.61499V515.914" stroke="#0F4465" stroke-miterlimit="10"/>
<path d="M0.804688 504.929L972.805 504.929" stroke="#0F4465" stroke-miterlimit="10"/>
<path d="M0.804688 466.981L972.805 466.981" stroke="#0F4465" stroke-miterlimit="10"/>
<path d="M0.804688 429.033L972.805 429.033" stroke="#0F4465" stroke-miterlimit="10"/>
<path d="M0.804688 391.084L972.805 391.084" stroke="#0F4465" stroke-miterlimit="10"/>
<path d="M0.804688 353.136L972.805 353.136" stroke="#0F4465" stroke-miterlimit="10"/>
<path d="M0.804688 315.188L972.805 315.187" stroke="#0F4465" stroke-miterlimit="10"/>
<path d="M0.804688 277.239L972.805 277.239" stroke="#0F4465" stroke-miterlimit="10"/>
<path d="M0.804688 239.291L972.805 239.291" stroke="#0F4465" stroke-miterlimit="10"/>
<path d="M0.804688 201.342L972.805 201.342" stroke="#0F4465" stroke-miterlimit="10"/>
<path d="M0.804688 163.394L972.805 163.394" stroke="#0F4465" stroke-miterlimit="10"/>
<path d="M0.804688 125.445L972.805 125.445" stroke="#0F4465" stroke-miterlimit="10"/>
<path d="M0.804688 87.4971L972.805 87.497" stroke="#0F4465" stroke-miterlimit="10"/>
<path d="M0.804688 49.5486L972.805 49.5485" stroke="#0F4465" stroke-miterlimit="10"/>
<path d="M0.804688 11.6001L972.805 11.6001" stroke="#0F4465" stroke-miterlimit="10"/>
<circle cx="341.659" cy="299.923" r="3.84884" transform="rotate(90 341.659 299.923)" stroke="#E7806A"/>
<path d="M345.311 299.923L368.375 299.922L375.623 292.674H406.073" stroke="#E7806A"/>
<path d="M602.729 310.07L614.019 310.07" stroke="#0F6195"/>
<path d="M600.797 390.282L604.663 390.282" stroke="#E7806A"/>
<path d="M595.965 390.282L597.898 390.282" stroke="#E7806A"/>
<path d="M565.957 285.909L602.239 285.909L613.786 297.456L636.365 297.456" stroke="#0F6195"/>
<path d="M583.917 320.681L644.31 320.681L710.81 254.181L767.157 254.181" stroke="#E7806A"/>
<path d="M604.612 300.449L599.737 295.574L593.066 295.574" stroke="#E7806A"/>
<path d="M707.311 264.49L712.186 259.615L718.857 259.615" stroke="#E7806A"/>
<path d="M615.311 336.921L628.14 336.921" stroke="#0F6195"/>
<path d="M631.477 336.921H637.635" stroke="#0F6195"/>
<circle cx="643.659" cy="319.964" r="3.84884" transform="rotate(-90 643.659 319.964)" fill="#103654" stroke="#E7806A"/>
<path d="M585.311 371.615L665.311 371.615" stroke="#0F6195"/>
<path d="M667.21 368.898C668.535 368.898 669.609 369.972 669.609 371.298C669.609 372.623 668.535 373.697 667.21 373.697C665.885 373.697 664.811 372.623 664.811 371.298C664.811 369.972 665.885 368.898 667.21 368.898Z" stroke="#0F6195"/>
<path d="M570.535 404.778L631.722 404.778" stroke="#0F6195"/>
<path d="M617.311 390.282H656.311" stroke="#E7806A"/>
<path d="M607.562 390.282L614.326 390.282" stroke="#E7806A"/>
<circle r="5.29846" transform="matrix(-4.37114e-08 1 1 4.37114e-08 636.553 404.778)" stroke="#0F6195"/>
<circle cx="642.162" cy="297.506" r="5.29846" transform="rotate(-90 642.162 297.506)" stroke="#0F6195"/>
<path d="M587.439 359.459L636.063 359.459L647.61 347.913L683.311 347.913" stroke="#0F6195"/>
<circle cx="688.109" cy="347.76" r="5.29846" transform="rotate(-90 688.109 347.76)" stroke="#0F6195"/>
<path d="M397.517 389.993L375.083 389.993" stroke="#E7806A"/>
<path d="M347.343 403.395L363.764 403.395L375.311 414.942L413.822 414.942" stroke="#0F6195"/>
<path d="M390.578 368.102L379.109 368.102L365.597 381.615L310.311 381.615L277.311 348.615L259.311 348.615" stroke="url(#paint0_linear)"/>
<path d="M345.76 363.222L332.93 363.222" stroke="#0F6195"/>
<path d="M354.722 363.222H348.564" stroke="#0F6195"/>
<path d="M300.469 328.615H294.311" stroke="#0F6195"/>
<path d="M297.647 362.952L306.719 372.024" stroke="#E7806A"/>
<path d="M291.311 356.615L295.665 360.969" stroke="#E7806A"/>
<path d="M335.311 385.615H341.469" stroke="#E7806A"/>
<circle cx="342.109" cy="403.677" r="5.29846" transform="rotate(90 342.109 403.677)" stroke="#0F6195"/>
<path d="M389.17 338.095H382.871L374.657 346.31H342.524L324.811 328.597H303.811" stroke="#0F6195"/>
<path d="M326.811 317.615L377.311 317.615" stroke="#0F6195"/>
<path d="M381.422 317.801L391.086 317.801" stroke="#0F6195"/>
<path d="M358.229 335.196H367.893L372.725 330.364" stroke="#E7806A"/>
<path d="M365.21 379.115C366.535 379.115 367.609 380.189 367.609 381.514C367.609 382.839 366.535 383.914 365.21 383.914C363.885 383.914 362.811 382.839 362.811 381.514C362.811 380.189 363.885 379.115 365.21 379.115Z" fill="#103654" stroke="#E7806A"/>
<circle cx="486" cy="349.032" r="82.9168" fill="#103654" stroke="#0F6195"/>
<path d="M460.126 399.222L465.462 404.557H475.396L480.732 399.222V350.622M460.126 399.222L450.192 399.222L432.275 381.305V363.689M460.126 399.222L469.206 390.142M432.275 363.689L428.2 359.614V332.809L444.061 316.947M432.275 363.689L441.292 354.673H450.192M444.061 316.947L456.284 329.17V335.366M444.061 316.947V306.944L457.499 293.506H472.216L480.732 302.022V350.622M480.732 350.622H469.928L454.289 366.261V373.144" stroke="#0F6195"/>
<path d="M513.36 399.222L508.025 404.557H498.09L492.755 399.222V350.622M513.36 399.222L523.295 399.222L541.211 381.305V363.689M513.36 399.222L504.28 390.142M541.211 363.689L545.286 359.614V332.809L529.425 316.947M541.211 363.689L532.195 354.673H523.295M529.425 316.947L517.202 329.17V335.366M529.425 316.947V306.944L515.987 293.506H501.27L492.755 302.022V350.622M492.755 350.622H503.558L519.197 366.261V373.144" stroke="#0F6195"/>
<rect x="61.8105" y="306.115" width="197" height="85" rx="7.5" fill="#103654" stroke="#0F6195"/>
<line x1="76.3105" y1="324.115" x2="136.311" y2="324.115" stroke="#0F6195"/>
<line x1="148.311" y1="324.115" x2="198.311" y2="324.115" stroke="#0F6195"/>
<line x1="153.311" y1="361.115" x2="193.311" y2="361.115" stroke="#0F6195"/>
<line x1="205.311" y1="361.115" x2="235.311" y2="361.115" stroke="#0F6195"/>
<line x1="210.311" y1="324.115" x2="245.311" y2="324.115" stroke="#E7806A"/>
<line x1="76.3105" y1="336.115" x2="110.311" y2="336.115" stroke="#E7806A"/>
<line x1="122.311" y1="336.115" x2="220.311" y2="336.115" stroke="#0F6195"/>
<line x1="76.3105" y1="372.115" x2="133.311" y2="372.115" stroke="#0F6195"/>
<line x1="145.311" y1="372.115" x2="214.311" y2="372.115" stroke="#E7806A"/>
<line y1="-0.5" x2="34" y2="-0.5" transform="matrix(-1 0 0 1 209.311 348.615)" stroke="#0F6195"/>
<line x1="164.311" y1="348.115" x2="76.3105" y2="348.115" stroke="#E7806A"/>
<line x1="141.311" y1="361.115" x2="76.3105" y2="361.115" stroke="#0F6195"/>
<circle cx="790.398" cy="253.615" r="35.5" fill="#103654" stroke="#E7806A"/>
<path d="M805.889 262.56C805.609 270.127 799.007 276.226 790.843 276.226C782.661 276.226 775.65 270.111 775.353 262.56H805.889Z" stroke="#E7806A"/>
<path d="M784.62 248.282C784.62 244.6 781.834 241.615 778.398 241.615C774.962 241.615 772.176 244.6 772.176 248.282" stroke="#E7806A"/>
<path d="M808.62 248.282C808.62 244.6 805.834 241.615 802.398 241.615C798.962 241.615 796.176 244.6 796.176 248.282" stroke="#E7806A"/>
<circle cx="790.398" cy="348.615" r="35.5" fill="#103654" stroke="#0F6195"/>
<path d="M784.62 336.615C784.62 340.297 781.834 343.281 778.398 343.281C774.962 343.281 772.176 340.297 772.176 336.615" stroke="#0F6195"/>
<path d="M808.621 336.615C808.621 340.297 805.835 343.281 802.399 343.281C798.963 343.281 796.177 340.297 796.177 336.615" stroke="#0F6195"/>
<path d="M805.509 360.063C797.361 359.174 779.731 359.619 775.731 366.73" stroke="#0F6195"/>
<circle cx="790.398" cy="443.615" r="35.5" fill="#103654" stroke="#0F6195"/>
<path d="M784.62 438.282C784.62 434.6 781.834 431.615 778.398 431.615C774.962 431.615 772.176 434.6 772.176 438.282" stroke="#0F6195"/>
<path d="M808.62 438.282C808.62 434.6 805.834 431.615 802.398 431.615C798.962 431.615 796.176 434.6 796.176 438.282" stroke="#0F6195"/>
<path d="M776.384 459.615C778.873 457.247 784.115 455.615 790.179 455.615C796.243 455.615 801.485 457.247 803.974 459.615" stroke="#0F6195"/>
<line x1="671.957" y1="286.261" x2="684.957" y2="273.261" stroke="#E7806A"/>
<line x1="687.957" y1="270.261" x2="693.957" y2="264.261" stroke="#E7806A"/>
<defs>
<linearGradient id="paint0_linear" x1="390.578" y1="373.368" x2="263.311" y2="373.368" gradientUnits="userSpaceOnUse">
<stop stop-color="#E7806A"/>
<stop offset="1" stop-color="#E7806A"/>
</linearGradient>
</defs>
</svg>
