<svg xmlns="http://www.w3.org/2000/svg" xmlns:xlink="http://www.w3.org/1999/xlink" width="1005" height="186" viewBox="0 0 1005 186"><defs><linearGradient id="a" x1="101.69%" x2="4.95%" y1="100%" y2="100%"><stop offset="0%" stop-color="#FF9C00"/><stop offset="100%" stop-color="#EC8266"/></linearGradient><polyline id="b" points="0 .21 57.34 .21 57.34 49 0 49"/><polygon id="d" points="0 .04 101.17 .04 101.17 63 0 63"/><polyline id="f" points="0 .15 51.18 .15 51.18 66 0 66"/></defs><g fill="none" fill-rule="evenodd"><g transform="matrix(-1 0 0 1 947 2)"><path stroke="url(#a)" stroke-width="5" d="M8 8l56.04 64.04 56.92 65.04c30.95 35.37 81.87 36.02 113.72 1.46l97.64-105.96c31.86-34.56 83.01-34.11 114.24 1l92.5 103.96c31.24 35.12 80.1 33.6 109.1-3.37l76.3-97.22c29.02-36.98 76.2-37.08 105.36-.24l77.36 97.7C936.35 171.25 942 177 942 177"/><circle cx="937" cy="174" r="8" fill="#FFF" stroke="#FD9A0A" stroke-width="3"/><circle cx="776" cy="10" r="8" fill="#FFF" stroke="#FD9A0A" stroke-width="3"/><circle cx="390" cy="8" r="8" fill="#FFF" stroke="#EC8266" stroke-width="3"/><circle cx="595" cy="163" r="8" fill="#FFF" stroke="#F89226" stroke-width="3"/><circle cx="175" cy="163" r="8" fill="#FFF" stroke="#EC8266" stroke-width="3"/><circle cx="8" cy="8" r="8" fill="#FFF" stroke="#EC8266" stroke-width="3"/></g><g transform="translate(533 87)"><mask id="c" fill="#fff"><use xlink:href="#b"/></mask><path fill="#EC8266" d="M29.63 7.13h-11.4c-.95 0-1.72-.76-1.72-1.71v-3.5c0-.94.77-1.71 1.72-1.71h11.4c.95 0 1.72.77 1.72 1.71v3.5c0 .95-.77 1.71-1.72 1.71" mask="url(#c)"/></g><path fill="#1F5477" d="M546.76 115.3h-11.4c-.96 0-1.73-.76-1.73-1.71v-3.5c0-.94.77-1.71 1.72-1.71h11.4c.96 0 1.73.77 1.73 1.71v3.5c0 .95-.77 1.71-1.72 1.71M578.11 115.3h-11.4c-.95 0-1.73-.76-1.73-1.71v-3.5c0-.94.78-1.71 1.73-1.71h11.4c.95 0 1.72.77 1.72 1.71v3.5c0 .95-.77 1.71-1.72 1.71M567.05 136h-11.4c-.95 0-1.72-.77-1.72-1.72v-3.49c0-.95.77-1.72 1.72-1.72h11.4c.95 0 1.73.77 1.73 1.72v3.5c0 .94-.78 1.71-1.73 1.71M546.13 136h-11.4c-.96 0-1.73-.77-1.73-1.72v-3.49c0-.95.77-1.72 1.72-1.72h11.4c.96 0 1.73.77 1.73 1.72v3.5c0 .94-.77 1.71-1.72 1.71M588.61 136h-11.4c-.95 0-1.72-.77-1.72-1.72v-3.49c0-.95.77-1.72 1.72-1.72h11.4c.95 0 1.73.77 1.73 1.72v3.5c0 .94-.78 1.71-1.73 1.71"/><path stroke="#1F5477" d="M541.06 105.55v-.48c0-2 1.62-3.62 3.63-3.62h9.24c2.92 0 3.08-3.22 3.08-3.22s.4 3.22 2.68 3.22h8.85c2 0 3.63 1.62 3.63 3.62M559.7 126.16v-.47c0-2 1.25-3.62 2.8-3.62h7.12c2.26 0 2.38-3.23 2.38-3.23s.3 3.23 2.07 3.23h6.83c1.55 0 2.8 1.62 2.8 3.62M540.9 118.06v8.73"/><g transform="translate(120 100)"><path fill="#77BCE8" d="M56.46 56.67a6.33 6.33 0 1 1-12.67 0 6.33 6.33 0 0 1 12.67 0"/><mask id="e" fill="#fff"><use xlink:href="#d"/></mask><polygon fill="#1F5477" points="31.08 34.54 23.58 34.54 23.58 27.04 31.08 27.04" mask="url(#e)"/><polygon fill="#103654" points="54.33 34.54 46.83 34.54 46.83 27.04 54.33 27.04" mask="url(#e)"/><polygon fill="#1F5477" points="77.83 34.54 70.33 34.54 70.33 27.04 77.83 27.04" mask="url(#e)"/><polygon fill="#1F5477" points="30.92 7.54 23.42 7.54 23.42 .04 30.92 .04" mask="url(#e)"/><polygon fill="#103654" points="7.5 7.54 0 7.54 0 .04 7.5 .04" mask="url(#e)"/><polygon fill="#103654" points="54.33 7.54 46.83 7.54 46.83 .04 54.33 .04" mask="url(#e)"/><polygon fill="#1F5477" points="77.75 7.54 70.25 7.54 70.25 .04 77.75 .04" mask="url(#e)"/><polygon fill="#103654" points="101.17 7.54 93.67 7.54 93.67 .04 101.17 .04" mask="url(#e)"/><path stroke="#C9CED3" stroke-linecap="round" stroke-linejoin="round" d="M33.2 38.17l9.5 10.75M9.2 11.42l9.5 10.75M67.38 38.17l-9.5 10.75M91.38 11.42l-9.5 10.75M50.67 48.63v-11M50.67 22.38v-11M27.17 22.38v-11M73.75 22.38v-11" mask="url(#e)"/></g><g transform="translate(953 80)"><g stroke="#C9CED3" stroke-linecap="round" stroke-linejoin="round" transform="translate(0 39)"><polyline points="5.63 .16 25.78 6.06 25.78 26.5 5.63 20.45 5.63 9.4"/><polyline points="25.78 26.5 45.55 20.45 45.55 9.65"/><polygon points="5.63 .16 .5 7.93 19.79 13.6 25.78 6.06"/><polygon points="25.78 6.06 45.63 .16 50.68 7.93 31.2 13.69"/></g><polyline stroke="#C9CED3" stroke-linecap="round" stroke-linejoin="round" points="33.11 35.06 45.63 39.16 25.78 45.06 5.63 39.16 18.43 35.35"/><polygon stroke="#103654" points="25.74 45.89 9.91 23.22 15.41 14.56 36.91 14.56 41.74 23.39"/><path stroke="#103654" d="M9.91 23.22h31.83"/><polyline stroke="#103654" points="15.41 14.56 20.24 23.18 25.99 14.68 31.24 22.93 36.91 14.56"/><polyline stroke="#103654" points="31.24 22.93 25.74 45.89 20.24 23.18"/><mask id="g" fill="#fff"><use xlink:href="#f"/></mask><path stroke="#103654" d="M26 10.15v-10" mask="url(#g)"/><path stroke="#103654" d="M39.25 11.65L44 6.9M8.91 6.9l4.75 4.75"/></g></g></svg>
