<svg width="646" height="603" viewBox="0 0 646 603" fill="none" xmlns="http://www.w3.org/2000/svg">
<path d="M0.5 1H587C619.033 1 645 26.9675 645 59V131.5C645 163.533 619.033 189.5 587 189.5H302.5V306.5M302.5 306.5H158.5C144.141 306.5 132.5 318.141 132.5 332.5V511C132.5 525.359 144.141 537 158.5 537H302.5M302.5 306.5H461.5C475.859 306.5 487.5 318.141 487.5 332.5V511C487.5 525.359 475.859 537 461.5 537H302.5M302.5 306.5V537M302.5 537V603" stroke="#FF9C00"/>
<path d="M0.5 1H587C619.033 1 645 26.9675 645 59V131.5C645 163.533 619.033 189.5 587 189.5H302.5V306.5M302.5 306.5H158.5C144.141 306.5 132.5 318.141 132.5 332.5V511C132.5 525.359 144.141 537 158.5 537H302.5M302.5 306.5H461.5C475.859 306.5 487.5 318.141 487.5 332.5V511C487.5 525.359 475.859 537 461.5 537H302.5M302.5 306.5V537M302.5 537V603" stroke="url(#paint0_linear)"/>
<defs>
<linearGradient id="paint0_linear" x1="323" y1="646" x2="323" y2="1" gradientUnits="userSpaceOnUse">
<stop stop-color="white" stop-opacity="0"/>
<stop offset="0.164671" stop-color="white" stop-opacity="0"/>
<stop offset="0.227767" stop-color="white"/>
<stop offset="0.380844" stop-color="white"/>
<stop offset="0.524163" stop-color="white" stop-opacity="0"/>
<stop offset="0.589461" stop-color="white"/>
<stop offset="0.653257" stop-color="white"/>
<stop offset="0.704294" stop-color="white" stop-opacity="0"/>
<stop offset="1" stop-color="white" stop-opacity="0"/>
</linearGradient>
</defs>
</svg>
