<svg width="174" height="420" viewBox="0 0 174 420" fill="none" xmlns="http://www.w3.org/2000/svg">
<path d="M87 0V25.1712M87 25.1712V407.055M87 25.1712C-12.4388 25.1712 -1.96801 154.132 5.50829 276.884C10.5456 359.589 56.5138 353.116 87 407.055M87 25.1712C186.439 25.1712 175.968 154.132 168.492 276.884C163.454 359.589 117.486 353.116 87 407.055M87 407.055V420" stroke="#FF9C00"/>
<path d="M87 0V25.1712M87 25.1712V407.055M87 25.1712C-12.4388 25.1712 -1.96801 154.132 5.50829 276.884C10.5456 359.589 56.5138 353.116 87 407.055M87 25.1712C186.439 25.1712 175.968 154.132 168.492 276.884C163.454 359.589 117.486 353.116 87 407.055M87 407.055V420" stroke="url(#paint0_linear)"/>
<rect x="85.7539" y="154.812" width="2.87303" height="58.9726" fill="url(#paint1_linear)"/>
<rect x="1" y="332.739" width="30.7429" height="89.3578" transform="rotate(-45 1 332.739)" fill="url(#paint2_linear)"/>
<rect width="30.7429" height="89.3578" transform="matrix(-0.707107 -0.707107 -0.707107 0.707107 172.924 332.739)" fill="url(#paint3_linear)"/>
<defs>
<linearGradient id="paint0_linear" x1="87.0001" y1="0" x2="87.0001" y2="39.1557" gradientUnits="userSpaceOnUse">
<stop stop-color="white"/>
<stop offset="1" stop-color="white" stop-opacity="0"/>
</linearGradient>
<linearGradient id="paint1_linear" x1="87.1904" y1="154.812" x2="87.1904" y2="213.785" gradientUnits="userSpaceOnUse">
<stop stop-color="white"/>
<stop offset="0.718421" stop-color="white"/>
<stop offset="1" stop-color="white" stop-opacity="0"/>
</linearGradient>
<linearGradient id="paint2_linear" x1="16.725" y1="333.984" x2="14.2501" y2="422.019" gradientUnits="userSpaceOnUse">
<stop stop-color="white"/>
<stop offset="0.491087" stop-color="white"/>
<stop offset="1" stop-color="white" stop-opacity="0"/>
</linearGradient>
<linearGradient id="paint3_linear" x1="17.7925" y1="-0.222522" x2="12.8427" y2="87.4587" gradientUnits="userSpaceOnUse">
<stop stop-color="white"/>
<stop offset="0.717618" stop-color="white"/>
<stop offset="1" stop-color="white" stop-opacity="0"/>
</linearGradient>
</defs>
</svg>
