<svg width="278" height="201" viewBox="0 0 278 201" fill="none" xmlns="http://www.w3.org/2000/svg">
<mask id="path-2-inside-1" fill="white">
<path d="M197.261 208.948C245.346 199.765 264.039 154.903 257.442 120.355C257.225 119.224 257.01 118.097 256.72 116.99C261.13 112.312 264.671 106.886 267.179 100.967C262.811 103.992 258.014 106.345 252.948 107.948C257.782 103.638 260.885 97.7191 261.681 91.2922C257.13 95.3176 251.926 98.536 246.291 100.808C241.549 97.3698 235.806 95.59 229.95 95.7444C224.094 95.8987 218.453 97.9787 213.898 101.662C209.344 105.346 206.131 110.428 204.755 116.122C203.38 121.816 203.92 127.805 206.291 133.161C195.798 134.625 185.113 133.866 174.932 130.933C164.751 128 155.3 122.958 147.194 116.136C144.95 122.53 145.227 129.538 147.969 135.735C150.711 141.932 155.712 146.85 161.953 149.49C157.769 150.161 153.485 149.816 149.462 148.483C149.482 148.59 149.504 148.703 149.525 148.815C150.68 154.85 153.886 160.301 158.601 164.242C163.316 168.183 169.249 170.372 175.394 170.437C171.745 172.222 167.736 173.147 163.675 173.14C166.337 178.016 170.458 181.937 175.459 184.356C180.46 186.775 180.025 185.296 185.5 184.356C177.632 193.4 166.95 199.534 155.173 201.771C153.092 202.164 150.99 202.435 148.878 202.582C162.299 207.971 183.054 211.659 197.257 208.927"/>
</mask>
<path d="M197.261 208.948C245.346 199.765 264.039 154.903 257.442 120.355C257.225 119.224 257.01 118.097 256.72 116.99C261.13 112.312 264.671 106.886 267.179 100.967C262.811 103.992 258.014 106.345 252.948 107.948C257.782 103.638 260.885 97.7191 261.681 91.2922C257.13 95.3176 251.926 98.536 246.291 100.808C241.549 97.3698 235.806 95.59 229.95 95.7444C224.094 95.8987 218.453 97.9787 213.898 101.662C209.344 105.346 206.131 110.428 204.755 116.122C203.38 121.816 203.92 127.805 206.291 133.161C195.798 134.625 185.113 133.866 174.932 130.933C164.751 128 155.3 122.958 147.194 116.136C144.95 122.53 145.227 129.538 147.969 135.735C150.711 141.932 155.712 146.85 161.953 149.49C157.769 150.161 153.485 149.816 149.462 148.483C149.482 148.59 149.504 148.703 149.525 148.815C150.68 154.85 153.886 160.301 158.601 164.242C163.316 168.183 169.249 170.372 175.394 170.437C171.745 172.222 167.736 173.147 163.675 173.14C166.337 178.016 170.458 181.937 175.459 184.356C180.46 186.775 180.025 185.296 185.5 184.356C177.632 193.4 166.95 199.534 155.173 201.771C153.092 202.164 150.99 202.435 148.878 202.582C162.299 207.971 183.054 211.659 197.257 208.927" fill="#8EC7EB"/>
<path d="M256.72 116.99L255.992 116.304L255.612 116.708L255.753 117.244L256.72 116.99ZM267.179 100.967L268.1 101.357L269.445 98.1803L266.609 100.145L267.179 100.967ZM252.948 107.948L252.283 107.201L253.25 108.901L252.948 107.948ZM261.681 91.2922L262.673 91.4151L262.998 88.792L261.018 90.5432L261.681 91.2922ZM246.291 100.808L245.704 101.618L246.152 101.943L246.665 101.736L246.291 100.808ZM206.291 133.161L206.43 134.151L207.742 133.968L207.206 132.756L206.291 133.161ZM147.194 116.136L147.838 115.371L146.73 114.438L146.25 115.805L147.194 116.136ZM161.953 149.49L162.111 150.477L165.551 149.925L162.342 148.569L161.953 149.49ZM149.462 148.483L149.776 147.534L148.16 146.999L148.48 148.671L149.462 148.483ZM149.525 148.815L148.543 149.002L148.543 149.003L149.525 148.815ZM175.394 170.437L175.833 171.335L175.405 169.437L175.394 170.437ZM163.675 173.14L163.676 172.14L161.988 172.137L162.797 173.619L163.675 173.14ZM185.5 184.356L186.254 185.013L188.096 182.896L185.331 183.371L185.5 184.356ZM155.173 201.771L155.359 202.753L155.36 202.753L155.173 201.771ZM148.878 202.582L148.808 201.584L148.505 203.51L148.878 202.582ZM197.448 209.93C246.189 200.622 265.102 155.138 258.424 120.168L256.459 120.543C262.976 154.668 244.504 198.907 197.073 207.965L197.448 209.93ZM258.424 120.168C258.209 119.042 257.988 117.882 257.687 116.736L255.753 117.244C256.033 118.313 256.242 119.405 256.459 120.543L258.424 120.168ZM257.447 117.676C261.939 112.912 265.546 107.386 268.1 101.357L266.258 100.577C263.797 106.387 260.32 111.713 255.992 116.304L257.447 117.676ZM266.609 100.145C262.324 103.113 257.617 105.422 252.647 106.994L253.25 108.901C258.411 107.269 263.298 104.871 267.748 101.789L266.609 100.145ZM253.614 108.694C258.628 104.223 261.848 98.0825 262.673 91.4151L260.688 91.1694C259.923 97.3557 256.936 103.053 252.283 107.201L253.614 108.694ZM261.018 90.5432C256.553 94.4931 251.446 97.6512 245.917 99.8811L246.665 101.736C252.405 99.4208 257.708 96.142 262.343 92.0412L261.018 90.5432ZM246.878 99.9989C241.958 96.4312 235.999 94.5846 229.924 94.7447L229.977 96.744C235.612 96.5954 241.14 98.3085 245.704 101.618L246.878 99.9989ZM229.924 94.7447C223.848 94.9049 217.995 97.0629 213.27 100.885L214.527 102.44C218.911 98.8945 224.341 96.8926 229.977 96.744L229.924 94.7447ZM213.27 100.885C208.544 104.707 205.21 109.98 203.783 115.888L205.728 116.357C207.051 110.877 210.144 105.985 214.527 102.44L213.27 100.885ZM203.783 115.888C202.357 121.795 202.917 128.009 205.377 133.566L207.206 132.756C204.924 127.601 204.404 121.837 205.728 116.357L203.783 115.888ZM206.153 132.171C195.798 133.615 185.256 132.866 175.209 129.972L174.655 131.894C184.971 134.866 195.797 135.635 206.43 134.151L206.153 132.171ZM175.209 129.972C165.163 127.077 155.837 122.103 147.838 115.371L146.55 116.901C154.764 123.814 164.339 128.922 174.655 131.894L175.209 129.972ZM146.25 115.805C143.922 122.438 144.21 129.71 147.055 136.14L148.883 135.33C146.244 129.366 145.978 122.621 148.137 116.467L146.25 115.805ZM147.055 136.14C149.899 142.569 155.088 147.672 161.563 150.411L162.342 148.569C156.335 146.028 151.523 141.294 148.883 135.33L147.055 136.14ZM161.794 148.502C157.769 149.148 153.647 148.816 149.776 147.534L149.148 149.433C153.323 150.815 157.769 151.174 162.111 150.477L161.794 148.502ZM148.48 148.671C148.507 148.814 148.515 148.854 148.543 149.002L150.508 148.627C150.479 148.479 150.471 148.439 150.444 148.296L148.48 148.671ZM148.543 149.003C149.741 155.265 153.068 160.92 157.96 165.009L159.243 163.475C154.705 159.682 151.618 154.436 150.507 148.627L148.543 149.003ZM157.96 165.009C162.852 169.098 169.008 171.369 175.383 171.437L175.405 169.437C169.491 169.374 163.78 167.268 159.243 163.475L157.96 165.009ZM174.955 169.539C171.443 171.256 167.585 172.146 163.676 172.14L163.673 174.14C167.888 174.147 172.048 173.187 175.833 171.335L174.955 169.539ZM162.797 173.619C165.56 178.678 169.834 182.747 175.023 185.257L175.894 183.456C171.081 181.128 167.115 177.354 164.552 172.661L162.797 173.619ZM175.023 185.257C177.567 186.487 178.941 186.837 180.454 186.604C181.136 186.499 181.842 186.273 182.602 186.054C183.389 185.827 184.35 185.568 185.669 185.342L185.331 183.371C183.913 183.614 182.875 183.893 182.047 184.132C181.192 184.379 180.667 184.548 180.149 184.627C179.26 184.764 178.351 184.645 175.894 183.456L175.023 185.257ZM184.746 183.7C177.025 192.574 166.543 198.593 154.987 200.788L155.36 202.753C167.357 200.474 178.239 194.226 186.254 185.013L184.746 183.7ZM154.987 200.788C152.945 201.174 150.882 201.44 148.808 201.584L148.947 203.579C151.099 203.43 153.24 203.154 155.359 202.753L154.987 200.788ZM148.505 203.51C162.037 208.944 182.995 212.689 197.446 209.909L197.068 207.945C183.114 210.629 162.56 206.999 149.25 201.654L148.505 203.51Z" fill="white" fill-opacity="0.18" mask="url(#path-2-inside-1)"/>
<mask id="path-4-inside-2" fill="white">
<path d="M148.812 206.359C211.323 194.421 235.624 136.101 227.047 91.1892C226.766 89.7182 226.486 88.2538 226.108 86.815C231.841 80.7336 236.445 73.6799 239.705 65.9843C234.027 69.9175 227.791 72.9766 221.206 75.0596C227.489 69.4571 231.524 61.7625 232.558 53.4076C226.642 58.6405 219.876 62.8244 212.552 65.7787C206.387 61.3085 198.921 58.9947 191.308 59.1954C183.696 59.3961 176.362 62.1 170.441 66.8888C164.52 71.6776 160.343 78.2843 158.555 85.6865C156.768 93.0887 157.469 100.874 160.552 107.837C146.91 109.74 133.021 108.753 119.785 104.94C106.55 101.127 94.2638 94.5731 83.7254 85.704C80.8081 94.016 81.1685 103.127 84.7331 111.183C88.2977 119.239 94.7986 125.633 102.912 129.064C97.4728 129.936 91.9034 129.488 86.674 127.756C86.7006 127.895 86.7284 128.041 86.7562 128.186C88.2569 136.033 92.4255 143.119 98.5549 148.242C104.684 153.365 112.397 156.211 120.385 156.296C115.642 158.616 110.431 159.818 105.151 159.809C108.612 166.148 113.968 171.246 120.469 174.391C126.971 177.535 134.293 178.569 141.411 177.348C131.182 189.105 117.296 197.078 101.986 199.986C99.2807 200.497 96.548 200.85 93.8017 201.041C111.249 208.047 130.344 209.884 148.807 206.332"/>
</mask>
<path d="M148.812 206.359C211.323 194.421 235.624 136.101 227.047 91.1892C226.766 89.7182 226.486 88.2538 226.108 86.815C231.841 80.7336 236.445 73.6799 239.705 65.9843C234.027 69.9175 227.791 72.9766 221.206 75.0596C227.489 69.4571 231.524 61.7625 232.558 53.4076C226.642 58.6405 219.876 62.8244 212.552 65.7787C206.387 61.3085 198.921 58.9947 191.308 59.1954C183.696 59.3961 176.362 62.1 170.441 66.8888C164.52 71.6776 160.343 78.2843 158.555 85.6865C156.768 93.0887 157.469 100.874 160.552 107.837C146.91 109.74 133.021 108.753 119.785 104.94C106.55 101.127 94.2638 94.5731 83.7254 85.704C80.8081 94.016 81.1685 103.127 84.7331 111.183C88.2977 119.239 94.7986 125.633 102.912 129.064C97.4728 129.936 91.9034 129.488 86.674 127.756C86.7006 127.895 86.7284 128.041 86.7562 128.186C88.2569 136.033 92.4255 143.119 98.5549 148.242C104.684 153.365 112.397 156.211 120.385 156.296C115.642 158.616 110.431 159.818 105.151 159.809C108.612 166.148 113.968 171.246 120.469 174.391C126.971 177.535 134.293 178.569 141.411 177.348C131.182 189.105 117.296 197.078 101.986 199.986C99.2807 200.497 96.548 200.85 93.8017 201.041C111.249 208.047 130.344 209.884 148.807 206.332" fill="#8DC6EB"/>
<path d="M226.108 86.815L225.381 86.1291L225 86.5326L225.141 87.069L226.108 86.815ZM239.705 65.9843L240.626 66.3744L241.971 63.198L239.136 65.1623L239.705 65.9843ZM221.206 75.0596L220.54 74.3132L221.507 76.013L221.206 75.0596ZM232.558 53.4076L233.55 53.5304L233.875 50.9074L231.895 52.6586L232.558 53.4076ZM212.552 65.7787L211.965 66.5882L212.413 66.913L212.926 66.7061L212.552 65.7787ZM160.552 107.837L160.69 108.827L162.003 108.644L161.466 107.432L160.552 107.837ZM83.7254 85.704L84.3693 84.9389L83.2614 84.0065L82.7819 85.3728L83.7254 85.704ZM102.912 129.064L103.07 130.051L106.51 129.499L103.302 128.143L102.912 129.064ZM86.674 127.756L86.9884 126.806L85.3724 126.271L85.6917 127.943L86.674 127.756ZM86.7562 128.186L85.774 128.374L85.774 128.374L86.7562 128.186ZM120.385 156.296L120.825 157.194L120.396 155.296L120.385 156.296ZM105.151 159.809L105.152 158.809L103.464 158.807L104.273 160.289L105.151 159.809ZM141.411 177.348L142.165 178.004L144.006 175.888L141.241 176.362L141.411 177.348ZM101.986 199.986L102.172 200.969L102.172 200.969L101.986 199.986ZM93.8017 201.041L93.7322 200.043L93.429 201.969L93.8017 201.041ZM149 207.341C212.166 195.278 236.687 136.336 228.029 91.0016L226.065 91.3767C234.561 135.867 210.48 193.564 148.625 205.377L149 207.341ZM228.029 91.0016C227.749 89.5363 227.464 88.0383 227.076 86.561L225.141 87.069C225.509 88.4693 225.783 89.9001 226.065 91.3767L228.029 91.0016ZM226.836 87.5009C232.65 81.3331 237.32 74.1793 240.626 66.3744L238.784 65.5943C235.571 73.1805 231.032 80.134 225.381 86.1291L226.836 87.5009ZM239.136 65.1623C233.54 69.0385 227.394 72.0533 220.904 74.1061L221.507 76.013C228.188 73.8999 234.514 70.7965 240.275 66.8064L239.136 65.1623ZM221.871 75.806C228.336 70.0422 232.486 62.1259 233.55 53.5304L231.565 53.2848C230.561 61.399 226.643 68.8721 220.54 74.3132L221.871 75.806ZM231.895 52.6586C226.065 57.8161 219.396 61.9396 212.178 64.8513L212.926 66.7061C220.356 63.7092 227.219 59.465 233.22 54.1566L231.895 52.6586ZM213.139 64.9691C206.796 60.3698 199.114 57.9892 191.282 58.1957L191.335 60.195C198.727 60.0001 205.978 62.2471 211.965 66.5882L213.139 64.9691ZM191.282 58.1957C183.45 58.4022 175.904 61.1842 169.812 66.1113L171.07 67.6663C176.82 63.0158 183.942 60.3899 191.335 60.195L191.282 58.1957ZM169.812 66.1113C163.72 71.0384 159.422 77.8358 157.583 85.4518L159.527 85.9213C161.263 78.7328 165.32 72.3169 171.07 67.6663L169.812 66.1113ZM157.583 85.4518C155.744 93.0677 156.466 101.077 159.638 108.242L161.466 107.432C158.473 100.67 157.791 93.1097 159.527 85.9213L157.583 85.4518ZM160.414 106.846C146.911 108.73 133.163 107.753 120.062 103.979L119.508 105.901C132.879 109.753 146.91 110.75 160.69 108.827L160.414 106.846ZM120.062 103.979C106.961 100.205 94.8005 93.7178 84.3693 84.9389L83.0815 86.4691C93.7272 95.4285 106.138 102.049 119.508 105.901L120.062 103.979ZM82.7819 85.3728C79.7803 93.9249 80.1511 103.299 83.8186 111.588L85.6476 110.778C82.1859 102.955 81.836 94.1072 84.669 86.0352L82.7819 85.3728ZM83.8186 111.588C87.4862 119.876 94.1748 126.455 102.523 129.985L103.302 128.143C95.4224 124.811 89.1092 118.601 85.6476 110.778L83.8186 111.588ZM102.754 128.077C97.4728 128.924 92.0656 128.488 86.9884 126.806L86.3596 128.705C91.7413 130.488 97.4728 130.949 103.07 130.051L102.754 128.077ZM85.6917 127.943C85.7175 128.078 85.747 128.233 85.774 128.374L87.7385 127.999C87.7115 127.857 87.682 127.703 87.6562 127.568L85.6917 127.943ZM85.774 128.374C87.3181 136.447 91.6071 143.738 97.9136 149.009L99.1962 147.475C93.2439 142.499 89.1958 135.618 87.7384 127.999L85.774 128.374ZM97.9136 149.009C104.22 154.281 112.156 157.208 120.375 157.296L120.396 155.296C112.639 155.213 105.149 152.45 99.1962 147.475L97.9136 149.009ZM119.946 155.397C115.34 157.65 110.279 158.818 105.152 158.809L105.149 160.809C110.582 160.818 115.945 159.581 120.825 157.194L119.946 155.397ZM104.273 160.289C107.834 166.81 113.345 172.055 120.034 175.291L120.905 173.49C114.591 170.436 109.39 165.486 106.028 159.33L104.273 160.289ZM120.034 175.291C126.723 178.526 134.256 179.59 141.58 178.334L141.241 176.362C134.329 177.548 127.219 176.544 120.905 173.49L120.034 175.291ZM140.656 176.692C130.575 188.279 116.889 196.138 101.799 199.004L102.172 200.969C117.703 198.019 131.789 189.93 142.165 178.004L140.656 176.692ZM101.8 199.004C99.1335 199.508 96.4395 199.855 93.7322 200.043L93.8712 202.039C96.6565 201.845 99.428 201.487 102.172 200.969L101.8 199.004ZM93.429 201.969C111.055 209.046 130.344 210.902 148.996 207.314L148.618 205.35C130.344 208.866 111.444 207.047 94.1743 200.113L93.429 201.969Z" fill="white" fill-opacity="0.34" mask="url(#path-4-inside-2)"/>
<mask id="path-6-inside-3" fill="white">
<path d="M101.141 203.177C182.406 187.658 213.997 111.842 202.847 53.4554C202.482 51.543 202.118 49.6393 201.627 47.7689C209.08 39.863 215.065 30.6932 219.303 20.6889C211.921 25.802 203.815 29.7789 195.253 32.4868C203.422 25.2036 208.667 15.2005 210.011 4.33907C202.321 11.1419 193.525 16.581 184.003 20.4215C175.989 14.6102 166.282 11.6023 156.386 11.8632C146.49 12.1241 136.956 15.6392 129.259 21.8647C121.562 28.0902 116.131 36.679 113.807 46.3019C111.483 55.9248 112.396 66.0454 116.403 75.0975C98.6686 77.5716 80.6122 76.2885 63.4059 71.3315C46.1995 66.3746 30.2279 57.8546 16.5279 46.3246C12.7354 57.1303 13.2039 68.9752 17.8379 79.4476C22.4719 89.92 30.9231 98.2326 41.4707 102.693C34.3996 103.827 27.1594 103.244 20.3611 100.992C20.3956 101.173 20.4318 101.363 20.468 101.552C22.4189 111.753 27.8381 120.964 35.8064 127.624C43.7747 134.285 53.8015 137.984 64.1862 138.094C58.0202 141.11 51.2449 142.673 44.3808 142.662C48.8807 150.902 55.8435 157.53 64.2954 161.618C72.7473 165.706 82.2656 167.05 91.5191 165.462C78.2219 180.746 60.1694 191.112 40.2666 194.892C36.7499 195.557 33.1973 196.015 29.6271 196.264C52.3088 205.371 77.1325 207.759 101.134 203.143"/>
</mask>
<path d="M101.141 203.177C182.406 187.658 213.997 111.842 202.847 53.4554C202.482 51.543 202.118 49.6393 201.627 47.7689C209.08 39.863 215.065 30.6932 219.303 20.6889C211.921 25.802 203.815 29.7789 195.253 32.4868C203.422 25.2036 208.667 15.2005 210.011 4.33907C202.321 11.1419 193.525 16.581 184.003 20.4215C175.989 14.6102 166.282 11.6023 156.386 11.8632C146.49 12.1241 136.956 15.6392 129.259 21.8647C121.562 28.0902 116.131 36.679 113.807 46.3019C111.483 55.9248 112.396 66.0454 116.403 75.0975C98.6686 77.5716 80.6122 76.2885 63.4059 71.3315C46.1995 66.3746 30.2279 57.8546 16.5279 46.3246C12.7354 57.1303 13.2039 68.9752 17.8379 79.4476C22.4719 89.92 30.9231 98.2326 41.4707 102.693C34.3996 103.827 27.1594 103.244 20.3611 100.992C20.3956 101.173 20.4318 101.363 20.468 101.552C22.4189 111.753 27.8381 120.964 35.8064 127.624C43.7747 134.285 53.8015 137.984 64.1862 138.094C58.0202 141.11 51.2449 142.673 44.3808 142.662C48.8807 150.902 55.8435 157.53 64.2954 161.618C72.7473 165.706 82.2656 167.05 91.5191 165.462C78.2219 180.746 60.1694 191.112 40.2666 194.892C36.7499 195.557 33.1973 196.015 29.6271 196.264C52.3088 205.371 77.1325 207.759 101.134 203.143" fill="#89C4E9"/>
<path d="M201.627 47.7689L200.899 47.083L200.519 47.4865L200.66 48.0229L201.627 47.7689ZM219.303 20.6889L220.224 21.0789L221.569 17.9025L218.733 19.8668L219.303 20.6889ZM195.253 32.4868L194.588 31.7403L195.555 33.4402L195.253 32.4868ZM210.011 4.33907L211.003 4.46189L211.328 1.83887L209.348 3.59007L210.011 4.33907ZM184.003 20.4215L183.416 21.2311L183.864 21.5559L184.377 21.3489L184.003 20.4215ZM116.403 75.0975L116.541 76.0879L117.854 75.9048L117.317 74.6927L116.403 75.0975ZM16.5279 46.3246L17.1718 45.5595L16.0639 44.6271L15.5843 45.9935L16.5279 46.3246ZM41.4707 102.693L41.6291 103.68L45.0685 103.128L41.8602 101.772L41.4707 102.693ZM20.3611 100.992L20.6755 100.043L19.0595 99.5077L19.3788 101.18L20.3611 100.992ZM20.468 101.552L19.4857 101.74L19.4858 101.74L20.468 101.552ZM64.1862 138.094L64.6256 138.993L64.1968 137.094L64.1862 138.094ZM44.3808 142.662L44.3824 141.662L42.6938 141.66L43.5031 143.142L44.3808 142.662ZM91.5191 165.462L92.2735 166.119L94.1148 164.003L91.35 164.477L91.5191 165.462ZM40.2666 194.892L40.4523 195.875L40.4532 195.875L40.2666 194.892ZM29.6271 196.264L29.5576 195.266L29.2545 197.192L29.6271 196.264ZM101.329 204.159C183.249 188.515 215.06 112.076 203.829 53.2678L201.865 53.643C212.934 111.607 181.563 186.8 100.953 202.195L101.329 204.159ZM203.829 53.2678C203.465 51.3612 203.095 49.4238 202.594 47.515L200.66 48.0229C201.141 49.8549 201.498 51.7249 201.865 53.643L203.829 53.2678ZM202.355 48.4549C209.889 40.4625 215.939 31.1926 220.224 21.0789L218.382 20.2988C214.19 30.1938 208.27 39.2634 200.899 47.083L202.355 48.4549ZM218.733 19.8668C211.434 24.923 203.418 28.8556 194.952 31.5333L195.555 33.4402C204.212 30.7021 212.408 26.681 219.872 21.5109L218.733 19.8668ZM195.919 33.2332C204.269 25.7886 209.629 15.5639 211.003 4.46189L209.018 4.21625C207.704 14.837 202.576 24.6185 194.588 31.7403L195.919 33.2332ZM209.348 3.59007C201.744 10.3174 193.045 15.6962 183.629 19.4941L184.377 21.3489C194.005 17.4658 202.898 11.9664 210.674 5.08806L209.348 3.59007ZM184.59 19.612C176.398 13.6716 166.476 10.5968 156.36 10.8635L156.413 12.8628C166.089 12.6077 175.58 15.5489 183.416 21.2311L184.59 19.612ZM156.36 10.8635C146.244 11.1302 136.498 14.7235 128.63 21.0872L129.888 22.6423C137.414 16.555 146.736 13.1179 156.413 12.8628L156.36 10.8635ZM128.63 21.0872C120.762 27.451 115.211 36.2305 112.835 46.0671L114.779 46.5366C117.052 37.1275 122.362 28.7295 129.888 22.6423L128.63 21.0872ZM112.835 46.0671C110.46 55.9038 111.392 66.2491 115.489 75.5023L117.317 74.6927C113.399 65.8416 112.507 55.9458 114.779 46.5366L112.835 46.0671ZM116.265 74.1071C98.6694 76.5618 80.7543 75.2887 63.6827 70.3706L63.129 72.2924C80.4701 77.2882 98.6679 78.5814 116.541 76.0879L116.265 74.1071ZM63.6827 70.3706C46.6111 65.4525 30.7646 56.9992 17.1718 45.5595L15.884 47.0897C29.6913 58.71 45.7879 67.2967 63.129 72.2924L63.6827 70.3706ZM15.5843 45.9935C11.7076 57.0392 12.1864 69.1472 16.9234 79.8523L18.7524 79.043C14.2213 68.8032 13.7632 57.2214 17.4715 46.6558L15.5843 45.9935ZM16.9234 79.8523C21.6604 90.5573 30.2993 99.0545 41.0813 103.614L41.8602 101.772C31.5469 97.4106 23.2835 89.2828 18.7524 79.043L16.9234 79.8523ZM41.3123 101.705C34.3996 102.814 27.3215 102.244 20.6755 100.043L20.0467 101.942C26.9973 104.244 34.3997 104.84 41.6291 103.68L41.3123 101.705ZM19.3788 101.18C19.4051 101.318 19.4578 101.593 19.4857 101.74L21.4502 101.365C21.4223 101.218 21.3696 100.942 21.3433 100.805L19.3788 101.18ZM19.4858 101.74C21.48 112.167 27.0197 121.583 35.165 128.392L36.4477 126.857C28.6565 120.345 23.3577 111.338 21.4502 101.364L19.4858 101.74ZM35.165 128.392C43.3104 135.2 53.5601 138.981 64.1756 139.094L64.1968 137.094C54.0429 136.986 44.2389 133.37 36.4477 126.857L35.165 128.392ZM63.7468 137.196C57.7181 140.145 51.0937 141.673 44.3824 141.662L44.3792 143.662C51.3962 143.673 58.3224 142.076 64.6256 138.993L63.7468 137.196ZM43.5031 143.142C48.103 151.565 55.2204 158.339 63.86 162.518L64.7309 160.718C56.4667 156.72 49.6585 150.24 45.2585 142.183L43.5031 143.142ZM63.86 162.518C72.4996 166.697 82.2293 168.071 91.6882 166.448L91.35 164.477C82.302 166.029 72.9951 164.715 64.7309 160.718L63.86 162.518ZM90.7646 164.806C77.6147 179.921 59.7623 190.172 40.08 193.91L40.4532 195.875C60.5765 192.053 78.829 181.572 92.2735 166.119L90.7646 164.806ZM40.0809 193.91C36.6027 194.567 33.0889 195.02 29.5576 195.266L29.6966 197.261C33.3058 197.01 36.8972 196.547 40.4523 195.875L40.0809 193.91ZM29.2545 197.192C52.1143 206.371 77.1329 208.778 101.323 204.125L100.946 202.161C77.1321 206.741 52.5033 204.372 29.9997 195.336L29.2545 197.192Z" fill="white" fill-opacity="0.5" mask="url(#path-6-inside-3)"/>
</svg>
