<svg width="972" height="515" fill="none" xmlns="http://www.w3.org/2000/svg"><path d="M10.999 0v516M48.999 0v516M86.999 0v516M124.999 0v516M162.999 0v516M200.999 0v516M238.999 0v516M276.999 0v516M314.999 0v516M352.999 0v516M390.999 0v516M428.999 0v516M466.999 0v516M504.999 0v516M542.999 0v516M580.999 0v516M618.999 0v516M656.999 0v516M694.999 0v516M732.999 0v516M770.999 0v516M808.999 0v516M846.999 0v516M884.999 0v516M922.999 0v516M960.999 0v516M0 505h972M0 467h972M0 429h972M0 391h972M0 353h972M0 315h972M0 277h972M0 239h972M0 201h972M0 163h972M0 125h972M0 87h972M0 49h972M0 11h972" stroke="#0F4465" stroke-miterlimit="10"/><path d="M462.16 461.78a100.112 100.112 0 0 1-100-100 100.11 100.11 0 0 1 100-100 100.105 100.105 0 0 1 70.678 29.322 100.107 100.107 0 0 1 29.322 70.678 100.109 100.109 0 0 1-100 100Zm0-190a90.104 90.104 0 0 0-90 90 90.1 90.1 0 0 0 90 90 90.099 90.099 0 0 0 90-90 90.11 90.11 0 0 0-90-90Z" fill="#FF9B05"/><path d="M375.85 430.8a110.049 110.049 0 0 1-24.19-69 110.5 110.5 0 0 1 221 0" stroke="#046097" stroke-width="3" stroke-miterlimit="10"/><path d="M585.45 361.78a123.3 123.3 0 0 1-123.3 123.31" stroke="#154D72" stroke-width="3" stroke-miterlimit="10"/><path d="M503.85 441.52a89.374 89.374 0 0 1-41.69 10.26 90.099 90.099 0 0 1-90-90 89.304 89.304 0 0 1 5.93-32.09l-9.35-3.57a99.361 99.361 0 0 0-6.58 35.66 100.11 100.11 0 0 0 100 100 99.34 99.34 0 0 0 46.29-11.41l-4.6-8.85Z" fill="#154D72"/><path d="M552.16 361.78a90.086 90.086 0 0 1-48.3 79.74l4.63 8.85a100.098 100.098 0 0 0 53.66-88.6 100.107 100.107 0 0 0-29.322-70.678 100.105 100.105 0 0 0-70.678-29.322v10a90.108 90.108 0 0 1 90.01 90.01Z" fill="#046097"/><path d="M460.27 293.01v133.53l-7.37 4.25-24.34-7.16-16.27-19.75V399L403 381.56V361.9l5.81-21.01 5.57-5.81v-8.14l4.89-5.81v-9.53l9.18-5.3v-5.16l10.8-3.95 7.65-4.41 13.37.23Z" fill="#103654" stroke="#046097" stroke-linejoin="round"/><path d="M460.27 331.59h-14.28M451.78 343.21l-13.48 17.4M428.45 306.3h8.01M406.36 349.75h7.09l9.29 9.28M460.27 380.87h-19.39v8.83l9.61 9.61" stroke="#046097" stroke-linejoin="round"/><path d="m412.29 399 7.56-7.56" stroke="#046097" stroke-width="2" stroke-linejoin="round"/><path d="M419.27 321.13h14.58v19.82h12.14M428.56 423.63v-13.94h12.32M424.88 349.26l7.21 7.21-17.35 17.35L403 361.9M440.88 314.28h9.01l10.24-10.25M450.58 388.54l9.72 9.72M441.69 418.87h11.86v-5.23M413.57 388.56l7.7-7.69 7.47 7.47M429.72 379.21l9.98-9.98h20.43M422.74 404.92l9.13-9.13 5.97 5.98M414.38 335.08l3.69 3.69 8.01-8.01M451.88 355.07l4.27 4.26h3.98" stroke="#046097" stroke-linejoin="round"/><path d="M438.74 314.28c0 .568.225 1.112.627 1.513a2.136 2.136 0 0 0 3.026 0c.402-.401.627-.945.627-1.513a2.135 2.135 0 0 0-1.319-1.98 2.144 2.144 0 0 0-.821-.16 2.14 2.14 0 0 0-2.14 2.14ZM443.86 331.59a2.14 2.14 0 1 0 4.28.001 2.14 2.14 0 0 0-4.28-.001ZM443.86 340.93a2.14 2.14 0 1 0 4.28.001 2.14 2.14 0 0 0-4.28-.001ZM423.94 330.76a2.14 2.14 0 1 0 4.28.001 2.14 2.14 0 0 0-4.28-.001ZM449.64 343.21a2.14 2.14 0 0 0 2.14 2.14 2.117 2.117 0 0 0 1.516-.624 2.13 2.13 0 0 0 .624-1.516 2.142 2.142 0 0 0-3.653-1.513 2.137 2.137 0 0 0-.627 1.513ZM436.16 360.61a2.14 2.14 0 1 0 4.28.001 2.14 2.14 0 0 0-4.28-.001ZM427.58 379.21a2.14 2.14 0 1 0 4.28-.001 2.14 2.14 0 0 0-4.28.001ZM411.45 388.57c0 .568.225 1.112.627 1.513a2.136 2.136 0 0 0 3.026 0c.402-.401.627-.945.627-1.513a2.145 2.145 0 0 0-.623-1.519 2.132 2.132 0 0 0-1.517-.631 2.14 2.14 0 0 0-2.14 2.15ZM426.6 388.54a2.14 2.14 0 1 0 4.28 0 2.14 2.14 0 0 0-4.28 0ZM420.6 404.93a2.139 2.139 0 1 0 4.28 0 2.137 2.137 0 0 0-2.14-2.14 2.14 2.14 0 0 0-2.14 2.14ZM435.7 401.76a2.148 2.148 0 0 0 .619 1.537 2.134 2.134 0 0 0 1.531.633 2.14 2.14 0 1 0 0-4.28 2.143 2.143 0 0 0-2.15 2.11ZM448.45 399.31a2.14 2.14 0 1 0 4.28.001 2.14 2.14 0 0 0-4.28-.001ZM438.74 409.69c0 .568.225 1.112.627 1.513a2.136 2.136 0 0 0 3.026 0 2.136 2.136 0 0 0 0-3.026 2.14 2.14 0 0 0-3.653 1.513ZM439.56 418.87a2.14 2.14 0 1 0 4.28-.001 2.14 2.14 0 0 0-4.28.001ZM451.45 413.64a2.14 2.14 0 1 0 4.28.001 2.14 2.14 0 0 0-4.28-.001ZM448.45 388.57c0 .568.225 1.112.627 1.513a2.136 2.136 0 0 0 3.026 0c.402-.401.627-.945.627-1.513a2.145 2.145 0 0 0-.623-1.519 2.132 2.132 0 0 0-1.517-.631 2.14 2.14 0 0 0-2.14 2.15ZM417.71 391.44c0 .568.225 1.112.627 1.513a2.136 2.136 0 0 0 3.026 0 2.14 2.14 0 1 0-3.653-1.513ZM422.74 349.26a2.14 2.14 0 1 0 4.28.001 2.14 2.14 0 0 0-4.28-.001ZM420.6 359.03a2.14 2.14 0 1 0 4.28 0 2.14 2.14 0 0 0-4.28 0ZM449.64 355.07c0 .568.225 1.112.627 1.513a2.136 2.136 0 0 0 3.026 0 2.14 2.14 0 1 0-3.653-1.513ZM434.33 306.3a2.14 2.14 0 1 0 4.28 0 2.14 2.14 0 0 0-4.28 0Z" fill="#046097"/><path d="M464.06 293.01v133.53l7.36 4.25 24.35-7.16 16.27-19.75V399l9.29-17.44V361.9l-5.81-21.01-5.58-5.81v-8.14l-4.88-5.81v-9.53l-9.18-5.3v-5.16l-10.81-3.95-7.64-4.41-13.37.23Z" fill="#103654" stroke="#046097" stroke-linejoin="round"/><path d="M464.06 331.59h14.27M472.55 343.21l13.48 17.4M495.88 306.3h-8.02M517.97 349.75h-7.1l-9.28 9.28M464.06 380.87h19.39v8.83l-9.61 9.61" stroke="#046097" stroke-linejoin="round"/><path d="m512.04 399-7.56-7.56" stroke="#046097" stroke-width="2" stroke-linejoin="round"/><path d="M505.06 321.13h-14.58v19.82h-12.15M495.77 423.63v-13.94h-12.32M499.44 349.26l-7.2 7.21 17.35 17.35 11.74-11.92M483.45 314.28h-9.01l-10.25-10.25M473.75 388.54l-9.73 9.72M482.63 418.87h-11.85v-5.23" stroke="#046097" stroke-linejoin="round"/><path d="m510.76 388.56-7.7-7.69-7.47 7.47" stroke="#046097" stroke-width="2" stroke-linejoin="round"/><path d="m494.61 379.21-9.98-9.98h-20.44M501.59 404.92l-9.13-9.13-5.97 5.98M509.94 335.08l-3.69 3.69-8-8.01M472.45 355.07l-4.27 4.26h-3.99" stroke="#046097" stroke-linejoin="round"/><path d="M485.59 314.28a2.14 2.14 0 1 1-4.28.001 2.14 2.14 0 0 1 4.28-.001ZM480.45 331.59a2.14 2.14 0 1 1-4.28.001 2.14 2.14 0 0 1 4.28-.001ZM480.45 340.93a2.14 2.14 0 1 1-4.28.001 2.14 2.14 0 0 1 4.28-.001ZM500.39 330.76a2.15 2.15 0 0 1-.616 1.533 2.154 2.154 0 0 1-.698.472 2.136 2.136 0 0 1-2.339-.462 2.136 2.136 0 0 1 0-3.026 2.14 2.14 0 0 1 3.653 1.483ZM474.69 343.21a2.14 2.14 0 1 1-4.28-.001 2.14 2.14 0 0 1 4.28.001ZM488.17 360.61a2.14 2.14 0 1 1-4.28-.001 2.14 2.14 0 0 1 4.28.001ZM496.75 379.21a2.14 2.14 0 1 1-4.28-.001 2.14 2.14 0 0 1 4.28.001ZM512.9 388.57a2.14 2.14 0 0 1-4.28 0 2.145 2.145 0 0 1 .623-1.519 2.132 2.132 0 0 1 1.517-.631 2.14 2.14 0 0 1 2.14 2.15ZM497.73 388.54a2.14 2.14 0 1 1-4.28 0 2.14 2.14 0 0 1 4.28 0ZM503.73 404.93a2.137 2.137 0 0 1-.624 1.516 2.123 2.123 0 0 1-1.516.624 2.139 2.139 0 1 1 0-4.28 2.14 2.14 0 0 1 2.14 2.14ZM488.63 401.76a2.149 2.149 0 0 1-.63 1.547 2.127 2.127 0 0 1-1.55.623 2.137 2.137 0 0 1-2.14-2.14 2.142 2.142 0 0 1 2.14-2.14 2.136 2.136 0 0 1 2.18 2.11ZM475.9 399.31a2.14 2.14 0 0 1-2.14 2.14 2.127 2.127 0 0 1-1.52-.623 2.135 2.135 0 0 1-.466-2.338 2.142 2.142 0 0 1 1.986-1.319 2.142 2.142 0 0 1 2.14 2.14ZM485.59 409.69c0 .568-.225 1.112-.627 1.513a2.136 2.136 0 0 1-3.026 0 2.14 2.14 0 1 1 3.653-1.513ZM484.78 418.87a2.14 2.14 0 1 1-4.28.001 2.14 2.14 0 0 1 4.28-.001ZM472.92 413.64a2.14 2.14 0 1 1-4.28-.001 2.14 2.14 0 0 1 4.28.001ZM475.9 388.57a2.14 2.14 0 0 1-2.14 2.14 2.127 2.127 0 0 1-1.52-.623 2.135 2.135 0 0 1-.63-1.517 2.15 2.15 0 0 1 2.971-1.986 2.142 2.142 0 0 1 1.319 1.986ZM506.63 391.44a2.15 2.15 0 0 1-.63 1.517 2.14 2.14 0 0 1-1.52.623 2.14 2.14 0 1 1 0-4.28 2.145 2.145 0 0 1 1.52.624 2.14 2.14 0 0 1 .63 1.516ZM501.59 349.26a2.137 2.137 0 0 1-.624 1.517 2.127 2.127 0 0 1-1.516.623 2.14 2.14 0 1 1 2.14-2.14ZM503.73 359.03a2.137 2.137 0 0 1-.624 1.516 2.123 2.123 0 0 1-1.516.624 2.136 2.136 0 0 1-1.513-.627 2.136 2.136 0 0 1 0-3.026 2.14 2.14 0 0 1 3.653 1.513ZM474.69 355.07a2.14 2.14 0 1 1-4.28 0 2.14 2.14 0 0 1 4.28 0ZM490.01 306.3a2.137 2.137 0 0 1-3.653 1.513 2.136 2.136 0 0 1 0-3.026 2.14 2.14 0 0 1 3.653 1.513Z" fill="#046097"/><path d="M338.86 361.78a123.3 123.3 0 0 1 123.3-123.3" stroke="#FF9B05" stroke-width="3" stroke-miterlimit="10"/><path d="M500.85 492.03a136.075 136.075 0 0 1-22.53 4.64M548.9 257.25a135.774 135.774 0 0 1 45.22 72.21" stroke="#154D72" stroke-width="3" stroke-miterlimit="10"/><path d="M408.45 237a135.396 135.396 0 0 1 53.75-11 135.537 135.537 0 0 1 44.61 7.5" stroke="#046097" stroke-width="3" stroke-miterlimit="10"/><path d="M462.16 497.62a135.838 135.838 0 0 1-135.84-135.84 135.311 135.311 0 0 1 14.77-61.65" stroke="#154D72" stroke-width="3" stroke-miterlimit="10"/><path d="M593.33 297.99h13.5l3.48 7.81 8.39-25.43 5.47 40.46 5.83-23.5h14.17" stroke="#FF9B05" stroke-width="2" stroke-miterlimit="10" stroke-linecap="round"/><path d="M607.08 279.7h-13.75v3.25h13.75v-3.25ZM385.88 229.07h-16.9v3.25h16.9v-3.25ZM378.05 235.31h-9.07v3.25h9.07v-3.25ZM635.4 408.83h-13.75v3.25h13.75v-3.25ZM578.25 232H549v3.25h29.25V232ZM589.7 232h-5.97v3.25h5.97V232ZM328.15 418.01H298.9v3.25h29.25v-3.25ZM308.59 426.01h-9.69v3.25h9.69v-3.25ZM602.25 456H573v3.25h29.25V456ZM582.69 464H573v3.25h9.69V464Z" fill="#046097"/><path d="M294 326.99h29.25v-5.3H294v5.3Z" fill="#154D72"/><path d="M303.8 311.99h19.46v-5.3H303.8v5.3Z" fill="#046097"/><path d="M313.56 319.25h9.69v-5.3h-9.69v5.3Z" fill="#FF9B05"/><path d="M671.4 362.83h-13.75v3.25h13.75v-3.25ZM646.35 305.95h-4.37v3.25h4.37v-3.25Z" fill="#046097"/><path d="M628.52 373.58a14.423 14.423 0 0 0-10.207 4.23 14.42 14.42 0 0 0-4.223 10.21 14.428 14.428 0 0 0 14.43 14.43 14.426 14.426 0 0 0 14.44-14.43 14.437 14.437 0 0 0-4.226-10.213 14.433 14.433 0 0 0-10.214-4.227Zm0 21.62a7.162 7.162 0 0 1-6.636-4.43 7.185 7.185 0 0 1-.544-2.75 7.189 7.189 0 0 1 2.1-5.083 7.17 7.17 0 0 1 5.08-2.107 7.19 7.19 0 0 1 6.643 9.94 7.202 7.202 0 0 1-1.559 2.331 7.17 7.17 0 0 1-5.084 2.099Z" fill="#154D72"/><path d="M664.52 373.58a14.423 14.423 0 0 0-10.207 4.23 14.42 14.42 0 0 0-4.223 10.21 14.428 14.428 0 0 0 14.43 14.43 14.426 14.426 0 0 0 14.44-14.43 14.437 14.437 0 0 0-4.226-10.213 14.433 14.433 0 0 0-10.214-4.227Zm0 21.62a7.162 7.162 0 0 1-6.636-4.43 7.185 7.185 0 0 1-.544-2.75 7.189 7.189 0 0 1 2.1-5.083 7.17 7.17 0 0 1 5.08-2.107 7.19 7.19 0 0 1 6.643 9.94 7.202 7.202 0 0 1-1.559 2.331 7.17 7.17 0 0 1-5.084 2.099ZM628.52 373.58v7.25a7.19 7.19 0 0 1 7.19 7.19h7.25a14.437 14.437 0 0 0-4.226-10.213 14.444 14.444 0 0 0-10.214-4.227Z" fill="#FF9B05"/><path d="M671.71 388.02a7.184 7.184 0 0 1-4.439 6.637 7.17 7.17 0 0 1-2.751.543 7.162 7.162 0 0 1-5.08-2.1l-5.13 5.12a14.397 14.397 0 0 0 10.21 4.23 14.426 14.426 0 0 0 14.44-14.43 14.437 14.437 0 0 0-4.226-10.213 14.433 14.433 0 0 0-10.214-4.227v7.25a7.19 7.19 0 0 1 7.19 7.19ZM352.22 228.45h-5.26a1.123 1.123 0 0 0-1.09.88l-1.12 5.19h9.7l-1.12-5.19a1.129 1.129 0 0 0-1.11-.88ZM337.32 234.02l-2.63 4.56a1.103 1.103 0 0 0 .21 1.38l3.94 3.57 4.84-8.39-5.06-1.62a1.113 1.113 0 0 0-1.3.5ZM334.69 249.72l2.63 4.55a1.098 1.098 0 0 0 1.3.51l5.06-1.62-4.84-8.39-3.94 3.56a1.109 1.109 0 0 0-.21 1.39ZM346.96 259.84h5.26a1.12 1.12 0 0 0 1.1-.88l1.12-5.19h-9.69l1.12 5.19a1.107 1.107 0 0 0 1.09.88ZM361.87 254.27l2.63-4.55a1.12 1.12 0 0 0-.21-1.39l-3.94-3.56-4.84 8.39 5.05 1.62a1.115 1.115 0 0 0 1.31-.51ZM364.5 238.58l-2.63-4.56a1.12 1.12 0 0 0-1.31-.5l-5.05 1.62 4.84 8.39 3.94-3.57a1.113 1.113 0 0 0 .21-1.38Z" fill="#154D72"/><path d="M349.59 256.53c6.837 0 12.38-5.542 12.38-12.38 0-6.837-5.543-12.38-12.38-12.38-6.837 0-12.38 5.543-12.38 12.38 0 6.838 5.543 12.38 12.38 12.38Z" fill="#046097"/><path d="M356.8 244.15a7.213 7.213 0 0 1-7.21 7.21 7.192 7.192 0 0 1-5.095-2.112 7.201 7.201 0 0 1-2.105-5.098 7.21 7.21 0 0 1 2.105-5.097 7.21 7.21 0 0 1 5.095-2.113 7.21 7.21 0 0 1 7.21 7.21Z" fill="#FF9B05"/><path d="M349.59 247.53a3.38 3.38 0 1 0 0-6.76 3.38 3.38 0 0 0 0 6.76Z" fill="#154D72"/></svg>