<svg width="972" height="517" fill="none" xmlns="http://www.w3.org/2000/svg"><path d="M11 .65v516.001M49 .65v516.001M87 .65v516.001M124.999.65v516.001M162.999.65v516.001M200.999.65v516.001M238.999.65v516.001M276.999.65v516.001M314.999.65v516.001M352.999.65v516.001M390.999.65v516.001M428.999.65v516.001M466.999.65v516.001M504.999.65v516.001M542.999.65v516.001M580.999.65v516.001M618.999.65v516.001M656.999.65v516.001M694.999.65v516.001M732.999.65v516.001M770.999.65v516.001M808.999.65v516.001M846.999.65v516.001M884.999.65v516.001M922.999.65v516.001M960.999.65v516.001M0 505.651h972M0 467.651h972M0 429.651h972M0 391.651h972M0 353.651h972M0 315.651h972M0 277.651h972M0 239.651h972M0 201.651h972M0 163.651h972M0 125.651h972M0 87.65h972M0 49.65h972M0 11.65h972" stroke="#0F4465" stroke-miterlimit="10"/><path d="M306.192 309.938V464.14c0 6.628 5.373 12 12 12h344.15c6.627 0 12-5.372 12-12V309.938c0-6.627-5.373-12-12-12h-344.15c-6.627 0-12 5.373-12 12z" fill="#103654" stroke="#046097" stroke-width="2"/><path d="M330.992 308.473h315.845c7.355 0 13.339 6.042 13.339 13.521v130.089c0 7.48-5.984 13.521-13.339 13.521H330.992c-7.355 0-13.339-6.041-13.339-13.521v-18.72h1.867c6.9 0 12.472-5.66 12.472-12.617v-67.415c0-6.956-5.572-12.617-12.472-12.617h-1.867v-18.72c0-7.479 5.984-13.521 13.339-13.521z" fill="#103654" stroke="#046097" stroke-width="2"/><path d="M319.047 367.9v26.523a.5.5 0 0 0 .5.5h3.762a.5.5 0 0 0 .5-.5V367.9a.5.5 0 0 0-.5-.5h-3.762a.5.5 0 0 0-.5.5zM321.428 404.731c1.837 0 3.312 1.463 3.312 3.252 0 1.789-1.475 3.253-3.312 3.253-1.837 0-3.312-1.464-3.312-3.253 0-1.789 1.475-3.252 3.312-3.252z" stroke="#046097"/><path d="M356.216 295.938a1 1 0 1 0 0 2v-2zm13.999 2a1 1 0 0 0 0-2v2zm-13.999 0h13.999v-2h-13.999v2zM384 295.938a1 1 0 1 0 0 2v-2zm22.988 2a1 1 0 1 0 0-2v2zm-22.988 0h22.988v-2H384v2zM418.298 295.938a1 1 0 1 0 0 2v-2zm22.988 2a1 1 0 1 0 0-2v2zm-22.988 0h22.988v-2h-22.988v2zM391.874 476.14a1 1 0 0 0 0 2v-2zm42.16 2a1 1 0 0 0 0-2v2zm-42.16 0h42.16v-2h-42.16v2z" fill="#046097"/><path d="M453.437 325.195h.5v-1h-.5v1zm-25.888-.5v-.5a.5.5 0 0 0-.5.5h.5zm-.5 25.888v.5h1v-.5h-1zm26.388-26.388h-25.888v1h25.888v-1zm-25.388 26.388v-25.888h-1v25.888h1z" fill="#E98067"/><path d="M453.437 325.195h.5v-1h-.5v1zm-25.888-.5v-.5a.5.5 0 0 0-.5.5h.5zm-.5 25.888v.5h1v-.5h-1zm26.388-26.388h-25.888v1h25.888v-1zm-25.388 26.388v-25.888h-1v25.888h1zM428.049 426.257v-.5h-1v.5h1zm-.5 25.888h-.5a.5.5 0 0 0 .5.5v-.5zm25.888.5h.5v-1h-.5v1zm-26.388-26.388v25.888h1v-25.888h-1zm26.388 25.388h-25.888v1h25.888v-1zM529.11 325.195h-.5v-1h.5v1zm25.889-.5v-.5a.5.5 0 0 1 .5.5h-.5zm.5 25.888v.5h-1v-.5h1zm-26.389-26.388h25.889v1H529.11v-1zm25.389 26.388v-25.888h1v25.888h-1zM554.499 426.257v-.5h1v.5h-1zm.5 25.888h.5a.5.5 0 0 1-.5.5v-.5zm-25.889.5h-.5v-1h.5v1zm26.389-26.388v25.888h-1v-25.888h1zm-26.389 25.388h25.889v1H529.11v-1z" fill="#E98067"/><path d="M492.018 441h-15.004c-3.376-3.066-10.127-12.569-10.127-26.058 0-16.862 16.879-19.416 16.879-30.657M492.018 441h15.005c3.375-3.066 10.127-12.569 10.127-26.058 0-16.862-16.879-19.416-16.879-30.657M459.582 380.314l9.028-47.814h47.779l9.028 47.807-3.736.746a149.469 149.469 0 0 1-60.882-.476l-1.217-.263zM512.908 383.083v11.436" stroke="#046097"/><path d="M512.908 396.807c.851 0 1.54-.683 1.54-1.525 0-.842-.689-1.525-1.54-1.525-.851 0-1.54.683-1.54 1.525 0 .842.689 1.525 1.54 1.525z" fill="#046097"/><path d="M671.5 480.788c14.628 0 26.486-11.858 26.486-26.486s-11.858-26.486-26.486-26.486-26.486 11.858-26.486 26.486 11.858 26.486 26.486 26.486z" fill="#103654"/><path d="M721.1 463.817l.009.009.008.009c.55.572.73 1.424.453 2.269l-4.12 11.332-.001.003c-.299.804-.997 1.363-1.781 1.447l-.013.002-.013.002-14.35 1.935-.83.112-.035.837-.613 14.449v.015a2.183 2.183 0 0 1-1.253 1.891l-.009.004-10.964 5.128-.002.001c-.768.362-1.65.262-2.274-.233l-.007-.005-.007-.005-11.512-8.806-.667-.51-.618.569-10.63 9.795-.006.005a2.265 2.265 0 0 1-2.275.446l-.003-.002-11.373-4.092-.004-.001a2.251 2.251 0 0 1-1.449-1.807v-.001l-1.902-14.35-.111-.832-.838-.036-14.436-.612h-.005a2.261 2.261 0 0 1-1.948-1.297l-.001-.001-5.126-10.964-.003-.006-.003-.006c-.339-.7-.249-1.593.256-2.287l8.796-11.472.511-.667-.568-.618-9.803-10.676-.003-.003a2.172 2.172 0 0 1-.441-2.23l.003-.008 4.125-11.378.001-.003a2.25 2.25 0 0 1 1.806-1.45h.001l14.347-1.903.832-.11.035-.839.613-14.481v-.008l.001-.007a2.162 2.162 0 0 1 1.263-1.896h.001l10.961-5.127.003-.002a2.18 2.18 0 0 1 2.287.244l.001.001 11.511 8.805.668.51.617-.569 10.635-9.799c.638-.566 1.505-.733 2.27-.449l.007.003 11.383 4.128.008.003.009.003c.748.257 1.315.958 1.429 1.799v.001l1.902 14.318.111.832.838.036 14.436.612h.005c.86.047 1.592.541 1.948 1.297v.001l5.121 10.953c.336.77.241 1.634-.269 2.301l-.001.001-8.771 11.482-.508.665.565.617 9.77 10.676zm-40.728 9.778l.002-.001c10.625-4.975 15.227-17.665 10.253-28.292-3.486-7.446-11.061-12.285-19.286-12.285-3.113 0-6.161.678-9.005 2.031-5.141 2.403-9.032 6.67-10.991 12.01l-.002.005a21.23 21.23 0 0 0 .744 16.276v.001c3.486 7.448 11.063 12.252 19.286 12.252 3.113 0 6.159-.678 8.999-1.997z" fill="#103654" stroke="#046097" stroke-width="2"/><path d="M300.81 289.024l.003.002.002.003a.707.707 0 0 1 .144.721l-1.309 3.601v.001a.696.696 0 0 1-.566.46l-.004.001h-.005l-4.56.615-.264.036-.011.266-.194 4.592v.004a.694.694 0 0 1-.399.601l-.002.002-3.485 1.629a.689.689 0 0 1-.723-.074l-.002-.001-.002-.002-3.659-2.798-.212-.162-.196.181-3.378 3.112-.002.002a.718.718 0 0 1-.723.142l-.001-.001-3.614-1.3-.001-.001a.717.717 0 0 1-.461-.574l-.604-4.56-.035-.265-.267-.011-4.587-.195h-.002a.72.72 0 0 1-.619-.412l-1.629-3.484-.001-.002-.001-.002a.719.719 0 0 1 .081-.727l2.796-3.646.162-.212-.181-.196-3.115-3.393h-.001a.691.691 0 0 1-.14-.709l.001-.003 1.311-3.615v-.001a.715.715 0 0 1 .574-.461h.001l4.559-.605.264-.035.011-.266.195-4.602v-.005a.686.686 0 0 1 .402-.602l3.483-1.63h.001a.692.692 0 0 1 .727.077l3.658 2.799.213.162.196-.181 3.379-3.114a.713.713 0 0 1 .722-.143l.002.001 3.617 1.312.003.001.002.001a.702.702 0 0 1 .455.572l.604 4.55.035.264.267.012 4.587.194h.002a.72.72 0 0 1 .619.412v.001l1.627 3.48a.717.717 0 0 1-.085.731l-.001.001-2.787 3.649-.161.211.179.196 3.105 3.393zm-12.943 3.107l.001-.001c3.376-1.58 4.839-5.613 3.258-8.99a6.802 6.802 0 0 0-6.129-3.904c-.989 0-1.957.215-2.861.645a6.744 6.744 0 0 0-3.493 3.817l-.001.001a6.752 6.752 0 0 0 .237 5.173 6.79 6.79 0 0 0 6.129 3.893 6.76 6.76 0 0 0 2.859-.634z" fill="#103654" stroke="#046097"/><path d="M328.07 459.096l-20.67-23.529-17.489 7.594-7.41-16.836-21.047 10.649-19.81-25.15" stroke="#154D72" stroke-width="2" stroke-miterlimit="10"/><path d="M327.444 462.413a3.408 3.408 0 0 1 1.229-6.702 3.407 3.407 0 0 1-1.229 6.702zM307.244 439.181a3.643 3.643 0 1 1 0-7.286 3.643 3.643 0 0 1 0 7.286zM282.653 430.56a3.644 3.644 0 1 1 0-7.288 3.644 3.644 0 0 1 0 7.288zM260.547 440.481a3.643 3.643 0 1 1 1.315-7.167 3.643 3.643 0 0 1-1.315 7.167z" fill="#103654" stroke="#154D72" stroke-miterlimit="10"/><path d="M241.644 415.468a3.643 3.643 0 1 1-.001-7.287 3.643 3.643 0 0 1 .001 7.287zM289.88 447.006a3.643 3.643 0 1 1 1.315-7.168 3.644 3.644 0 0 1-1.315 7.168z" fill="#103654" stroke="#E98067" stroke-miterlimit="10"/><path d="M627.93 345.507l20.67-23.528 9.228 9.02 7.835-9.131 7.835-9.132 21.048 10.65 19.81-25.15" stroke="#154D72" stroke-width="2" stroke-miterlimit="10"/><path d="M628.556 348.824a3.406 3.406 0 1 0-1.23-6.703 3.406 3.406 0 0 0 1.23 6.703zM648.755 325.593a3.644 3.644 0 1 0 0-7.288 3.644 3.644 0 0 0 0 7.288zM695.453 326.892a3.643 3.643 0 1 0-1.315-7.167 3.643 3.643 0 0 0 1.315 7.167z" fill="#103654" stroke="#154D72" stroke-miterlimit="10"/><path d="M714.356 301.879a3.643 3.643 0 1 0 .002-7.286 3.643 3.643 0 0 0-.002 7.286zM658.902 334.558a3.644 3.644 0 1 0-1.315-7.169 3.644 3.644 0 0 0 1.315 7.169z" fill="#103654" stroke="#E98067" stroke-miterlimit="10"/></svg>