<svg width="211" height="132" fill="none" xmlns="http://www.w3.org/2000/svg"><g filter="url(#a)"><path d="M188.082 11H22a8 8 0 0 0-8 8v86.246a8 8 0 0 0 8 8h166.082a8 8 0 0 0 8-8V19a8 8 0 0 0-8-8Z" fill="#fff"/></g><path d="M106.442 25.006h79.836v5.603h-79.836v-5.603Z" fill="url(#b)"/><path d="M106.442 41.814h63.029v5.603h-63.029v-5.603Z" fill="url(#c)"/><path d="M106.442 58.622h75.634v5.603h-75.634v-5.603Z" fill="url(#d)"/><path d="M106.442 75.429h79.836v5.603h-79.836v-5.603Z" fill="url(#e)"/><path d="M106.442 92.237h72.833v5.603h-72.833v-5.603Z" fill="url(#f)"/><path d="M57.018 29a31.185 31.185 0 0 0-15.471 6.047A31.092 31.092 0 0 0 31.392 48.17a31.023 31.023 0 0 0 4.863 31.59 31.148 31.148 0 0 0 13.634 9.477 31.21 31.21 0 0 0 16.576 1.134 31.17 31.17 0 0 0 14.802-7.532 31.074 31.074 0 0 0 8.815-14.055" stroke="#F3F3F3" stroke-width="6" stroke-linecap="round"/><path d="M60.082 29c4.892 0 9.715 1.17 14.074 3.414a31.088 31.088 0 0 1 11.006 9.497 31.496 31.496 0 0 1 5.538 13.51A31.632 31.632 0 0 1 89.566 70" stroke="url(#g)" stroke-width="6" stroke-linecap="round"/><path d="M51.562 67.91h-11.35v-2.162c3.274-2.476 5.498-4.309 6.673-5.5 1.191-1.206 1.787-2.342 1.787-3.407 0-.768-.282-1.355-.846-1.763-.549-.422-1.215-.634-1.998-.634-1.723 0-3.133.627-4.23 1.88L40 54.514a6.44 6.44 0 0 1 2.538-1.856A8.22 8.22 0 0 1 45.781 52c1.598 0 2.945.43 4.042 1.292 1.097.862 1.645 2.045 1.645 3.549 0 1.347-.564 2.687-1.692 4.018-1.128 1.332-2.851 2.875-5.17 4.63h6.956v2.42ZM65.538 67.91h-11.35v-2.162c3.274-2.476 5.499-4.309 6.674-5.5 1.19-1.206 1.786-2.342 1.786-3.407 0-.768-.282-1.355-.846-1.763-.549-.422-1.215-.634-1.998-.634-1.723 0-3.133.627-4.23 1.88l-1.598-1.81a6.439 6.439 0 0 1 2.538-1.856A8.22 8.22 0 0 1 59.757 52c1.598 0 2.945.43 4.042 1.292 1.097.862 1.645 2.045 1.645 3.549 0 1.347-.564 2.687-1.692 4.018-1.128 1.332-2.851 2.875-5.17 4.63h6.956v2.42ZM71.524 59.779c-1.144 0-2.076-.36-2.796-1.082-.721-.736-1.081-1.66-1.081-2.773 0-1.127.36-2.06 1.08-2.796.721-.752 1.653-1.128 2.797-1.128 1.16 0 2.1.376 2.82 1.128.737.736 1.105 1.669 1.105 2.797 0 1.112-.368 2.036-1.105 2.773-.72.72-1.66 1.08-2.82 1.08Zm.047 8.13h-1.55l10.01-15.674h1.575L71.57 67.909Zm11.186-.799c-.72.721-1.653 1.082-2.796 1.082-1.144 0-2.076-.36-2.797-1.081-.72-.737-1.08-1.661-1.08-2.773 0-1.128.36-2.06 1.08-2.797.72-.752 1.653-1.128 2.797-1.128 1.143 0 2.076.376 2.796 1.128.736.752 1.105 1.684 1.105 2.797 0 1.112-.368 2.036-1.105 2.773Zm-11.233-8.883c.611 0 1.112-.211 1.504-.634.392-.439.588-.995.588-1.669 0-.705-.196-1.268-.588-1.691-.392-.44-.893-.658-1.504-.658-.61 0-1.112.219-1.504.657-.376.424-.564.987-.564 1.693 0 .673.196 1.23.588 1.668.391.423.885.634 1.48.634Zm6.933 7.779c.391.423.893.635 1.504.635.61 0 1.112-.212 1.504-.635.391-.439.587-.995.587-1.668 0-.705-.196-1.27-.587-1.692-.392-.44-.893-.659-1.504-.659s-1.113.22-1.504.658c-.376.423-.564.987-.564 1.693 0 .673.188 1.23.564 1.668Z" fill="#99CDEE"/><defs><linearGradient id="b" x1="186.278" y1="29.208" x2="106.442" y2="29.208" gradientUnits="userSpaceOnUse"><stop stop-color="#F5F8FD"/><stop offset="1" stop-color="#ECF1F9"/></linearGradient><linearGradient id="c" x1="169.47" y1="46.016" x2="106.442" y2="46.016" gradientUnits="userSpaceOnUse"><stop stop-color="#F5F8FD"/><stop offset="1" stop-color="#ECF1F9"/></linearGradient><linearGradient id="d" x1="182.076" y1="62.824" x2="106.442" y2="62.824" gradientUnits="userSpaceOnUse"><stop stop-color="#F5F8FD"/><stop offset="1" stop-color="#ECF1F9"/></linearGradient><linearGradient id="e" x1="186.278" y1="79.631" x2="106.442" y2="79.631" gradientUnits="userSpaceOnUse"><stop stop-color="#F5F8FD"/><stop offset="1" stop-color="#ECF1F9"/></linearGradient><linearGradient id="f" x1="179.275" y1="96.439" x2="106.442" y2="96.439" gradientUnits="userSpaceOnUse"><stop stop-color="#F5F8FD"/><stop offset="1" stop-color="#ECF1F9"/></linearGradient><linearGradient id="g" x1="91.082" y1="72.685" x2="39.141" y2="19.644" gradientUnits="userSpaceOnUse"><stop stop-color="#51A9E1"/><stop offset="1" stop-color="#B2D9F2"/></linearGradient><filter id="a" x="0" y="0" width="210.082" height="131.246" filterUnits="userSpaceOnUse" color-interpolation-filters="sRGB"><feFlood flood-opacity="0" result="BackgroundImageFix"/><feColorMatrix in="SourceAlpha" values="0 0 0 0 0 0 0 0 0 0 0 0 0 0 0 0 0 0 127 0" result="hardAlpha"/><feOffset dy="4"/><feGaussianBlur stdDeviation="2.5"/><feColorMatrix values="0 0 0 0 0.317647 0 0 0 0 0.662745 0 0 0 0 0.882353 0 0 0 0.1 0"/><feBlend in2="BackgroundImageFix" result="effect1_dropShadow_1_2"/><feColorMatrix in="SourceAlpha" values="0 0 0 0 0 0 0 0 0 0 0 0 0 0 0 0 0 0 127 0" result="hardAlpha"/><feOffset dy="3"/><feGaussianBlur stdDeviation="7"/><feColorMatrix values="0 0 0 0 0.317647 0 0 0 0 0.662745 0 0 0 0 0.882353 0 0 0 0.02 0"/><feBlend in2="effect1_dropShadow_1_2" result="effect2_dropShadow_1_2"/><feColorMatrix in="SourceAlpha" values="0 0 0 0 0 0 0 0 0 0 0 0 0 0 0 0 0 0 127 0" result="hardAlpha"/><feOffset dy="8"/><feGaussianBlur stdDeviation="5"/><feColorMatrix values="0 0 0 0 0.317647 0 0 0 0 0.662745 0 0 0 0 0.882353 0 0 0 0.04 0"/><feBlend in2="effect2_dropShadow_1_2" result="effect3_dropShadow_1_2"/><feBlend in="SourceGraphic" in2="effect3_dropShadow_1_2" result="shape"/></filter></defs></svg>