<svg width="308" height="222" fill="none" xmlns="http://www.w3.org/2000/svg"><g filter="url(#filter0_ddd)"><rect x="46" y="37" width="216" height="121" rx="8" fill="#fff"/></g><path fill="url(#paint0_linear)" d="M98 47h112v6H98z"/><path fill="url(#paint1_linear)" d="M107 64h95v6h-95z"/><path d="M67 125a3 3 0 013-3h13a3 3 0 013 3v33H67v-33z" fill="url(#paint2_linear)"/><path d="M96 107a3 3 0 013-3h13a3 3 0 013 3v51H96v-51z" fill="url(#paint3_linear)"/><path d="M125 98a3 3 0 013-3h13a3 3 0 013 3v60h-19V98z" fill="url(#paint4_linear)"/><path d="M154 109a3 3 0 013-3h13a3 3 0 013 3v49h-19v-49z" fill="url(#paint5_linear)"/><path d="M183 98a3 3 0 013-3h13a3 3 0 013 3v60h-19V98z" fill="url(#paint6_linear)"/><path d="M212 84a3 3 0 013-3h13a3 3 0 013 3v74h-19V84z" fill="url(#paint7_linear)"/><defs><linearGradient id="paint0_linear" x1="210" y1="51.5" x2="98" y2="51.5" gradientUnits="userSpaceOnUse"><stop stop-color="#F5F8FD"/><stop offset="1" stop-color="#ECF1F9"/></linearGradient><linearGradient id="paint1_linear" x1="202" y1="68.5" x2="107" y2="68.5" gradientUnits="userSpaceOnUse"><stop stop-color="#F5F8FD"/><stop offset="1" stop-color="#ECF1F9"/></linearGradient><linearGradient id="paint2_linear" x1="76.5" y1="122" x2="77" y2="151.5" gradientUnits="userSpaceOnUse"><stop stop-color="#BFE4FB"/><stop offset="1" stop-color="#92C9EC" stop-opacity="0"/></linearGradient><linearGradient id="paint3_linear" x1="105.5" y1="104" x2="106.625" y2="148.234" gradientUnits="userSpaceOnUse"><stop stop-color="#BFE4FB"/><stop offset="1" stop-color="#92C9EC" stop-opacity="0"/></linearGradient><linearGradient id="paint4_linear" x1="134.5" y1="95" x2="136.03" y2="146.594" gradientUnits="userSpaceOnUse"><stop stop-color="#BFE4FB"/><stop offset="1" stop-color="#92C9EC" stop-opacity="0"/></linearGradient><linearGradient id="paint5_linear" x1="163.5" y1="106" x2="164.543" y2="148.598" gradientUnits="userSpaceOnUse"><stop stop-color="#BFE4FB"/><stop offset="1" stop-color="#92C9EC" stop-opacity="0"/></linearGradient><linearGradient id="paint6_linear" x1="192.5" y1="95" x2="194.03" y2="146.594" gradientUnits="userSpaceOnUse"><stop stop-color="#BFE4FB"/><stop offset="1" stop-color="#92C9EC" stop-opacity="0"/></linearGradient><linearGradient id="paint7_linear" x1="221.5" y1="81" x2="223.785" y2="144.033" gradientUnits="userSpaceOnUse"><stop stop-color="#BFE4FB"/><stop offset="1" stop-color="#92C9EC" stop-opacity="0"/></linearGradient><filter id="filter0_ddd" x="0" y="0" width="308" height="222" filterUnits="userSpaceOnUse" color-interpolation-filters="sRGB"><feFlood flood-opacity="0" result="BackgroundImageFix"/><feColorMatrix in="SourceAlpha" values="0 0 0 0 0 0 0 0 0 0 0 0 0 0 0 0 0 0 127 0"/><feOffset dy="11"/><feGaussianBlur stdDeviation="7.5"/><feColorMatrix values="0 0 0 0 0.317647 0 0 0 0 0.662745 0 0 0 0 0.882353 0 0 0 0.1 0"/><feBlend in2="BackgroundImageFix" result="effect1_dropShadow"/><feColorMatrix in="SourceAlpha" values="0 0 0 0 0 0 0 0 0 0 0 0 0 0 0 0 0 0 127 0"/><feOffset dy="9"/><feGaussianBlur stdDeviation="23"/><feColorMatrix values="0 0 0 0 0.317647 0 0 0 0 0.662745 0 0 0 0 0.882353 0 0 0 0.02 0"/><feBlend in2="effect1_dropShadow" result="effect2_dropShadow"/><feColorMatrix in="SourceAlpha" values="0 0 0 0 0 0 0 0 0 0 0 0 0 0 0 0 0 0 127 0"/><feOffset dy="24"/><feGaussianBlur stdDeviation="20"/><feColorMatrix values="0 0 0 0 0.317647 0 0 0 0 0.662745 0 0 0 0 0.882353 0 0 0 0.04 0"/><feBlend in2="effect2_dropShadow" result="effect3_dropShadow"/><feBlend in="SourceGraphic" in2="effect3_dropShadow" result="shape"/></filter></defs></svg>