<svg width="174" height="124" fill="none" xmlns="http://www.w3.org/2000/svg"><g filter="url(#filter0_ddd)"><rect width="130" height="73" rx="8" transform="matrix(-1 0 0 1 152 16.5)" fill="#fff"/></g><path transform="matrix(-1 0 0 1 88 31.5)" fill="url(#paint0_linear)" d="M0 0h54v4H0z"/><path transform="matrix(-1 0 0 1 88 43.5)" fill="url(#paint1_linear)" d="M0 0h46v4H0z"/><path transform="matrix(-1 0 0 1 88 55.5)" fill="url(#paint2_linear)" d="M0 0h49v4H0z"/><path transform="matrix(-1 0 0 1 88 67.5)" fill="url(#paint3_linear)" d="M0 0h43v4H0z"/><circle r="11" transform="matrix(-1 0 0 1 128 39.5)" fill="url(#paint4_linear)"/><circle r="13.5" transform="matrix(-1 0 0 1 118.5 62)" fill="url(#paint5_linear)"/><circle r="10.5" transform="matrix(-1 0 0 1 131.5 52)" fill="url(#paint6_linear)"/><circle r="14" transform="matrix(-1 0 0 1 113 46.5)" fill="url(#paint7_linear)"/><defs><linearGradient id="paint0_linear" x1="54" y1="3" x2="0" y2="3" gradientUnits="userSpaceOnUse"><stop stop-color="#F5F8FD"/><stop offset="1" stop-color="#ECF1F9"/></linearGradient><linearGradient id="paint1_linear" x1="46" y1="3" x2="0" y2="3" gradientUnits="userSpaceOnUse"><stop stop-color="#F5F8FD"/><stop offset="1" stop-color="#ECF1F9"/></linearGradient><linearGradient id="paint2_linear" x1="49" y1="3" x2="0" y2="3" gradientUnits="userSpaceOnUse"><stop stop-color="#F5F8FD"/><stop offset="1" stop-color="#ECF1F9"/></linearGradient><linearGradient id="paint3_linear" x1="43" y1="3" x2="0" y2="3" gradientUnits="userSpaceOnUse"><stop stop-color="#F5F8FD"/><stop offset="1" stop-color="#ECF1F9"/></linearGradient><linearGradient id="paint4_linear" x1="13" y1="22" x2="8.5" y2="0" gradientUnits="userSpaceOnUse"><stop stop-color="#51A9E1" stop-opacity=".6"/><stop offset="1" stop-color="#BAE4FF" stop-opacity=".6"/></linearGradient><linearGradient id="paint5_linear" x1="13.5" y1="0" x2="13.5" y2="27" gradientUnits="userSpaceOnUse"><stop stop-color="#51A9E1" stop-opacity=".6"/><stop offset="1" stop-color="#BAE4FF" stop-opacity=".6"/></linearGradient><linearGradient id="paint6_linear" x1="21" y1="11" x2="1.5" y2="10" gradientUnits="userSpaceOnUse"><stop stop-color="#51A9E1" stop-opacity=".6"/><stop offset="1" stop-color="#BAE4FF" stop-opacity=".6"/></linearGradient><linearGradient id="paint7_linear" x1="6" y1="24.5" x2="23" y2="3.5" gradientUnits="userSpaceOnUse"><stop stop-color="#51A9E1" stop-opacity=".6"/><stop offset="1" stop-color="#BAE4FF" stop-opacity=".6"/></linearGradient><filter id="filter0_ddd" x="0" y=".5" width="174" height="123" filterUnits="userSpaceOnUse" color-interpolation-filters="sRGB"><feFlood flood-opacity="0" result="BackgroundImageFix"/><feColorMatrix in="SourceAlpha" values="0 0 0 0 0 0 0 0 0 0 0 0 0 0 0 0 0 0 127 0"/><feOffset dy="7"/><feGaussianBlur stdDeviation="6"/><feColorMatrix values="0 0 0 0 0.317647 0 0 0 0 0.662745 0 0 0 0 0.882353 0 0 0 0.1 0"/><feBlend in2="BackgroundImageFix" result="effect1_dropShadow"/><feColorMatrix in="SourceAlpha" values="0 0 0 0 0 0 0 0 0 0 0 0 0 0 0 0 0 0 127 0"/><feOffset dy="6"/><feGaussianBlur stdDeviation="11"/><feColorMatrix values="0 0 0 0 0.317647 0 0 0 0 0.662745 0 0 0 0 0.882353 0 0 0 0.02 0"/><feBlend in2="effect1_dropShadow" result="effect2_dropShadow"/><feColorMatrix in="SourceAlpha" values="0 0 0 0 0 0 0 0 0 0 0 0 0 0 0 0 0 0 127 0"/><feOffset dy="14"/><feGaussianBlur stdDeviation="10"/><feColorMatrix values="0 0 0 0 0.317647 0 0 0 0 0.662745 0 0 0 0 0.882353 0 0 0 0.04 0"/><feBlend in2="effect2_dropShadow" result="effect3_dropShadow"/><feBlend in="SourceGraphic" in2="effect3_dropShadow" result="shape"/></filter></defs></svg>