<svg width="211" height="132" fill="none" xmlns="http://www.w3.org/2000/svg"><g filter="url(#filter0_ddd)"><rect x="14.918" y="11" width="182.082" height="102.246" rx="8" fill="#fff"/></g><path d="M113.796 88.288c-2.576 0-4.56-.824-5.952-2.472l1.608-1.92c1.12 1.264 2.56 1.896 4.32 1.896.992 0 1.784-.264 2.376-.792.608-.544.912-1.216.912-2.016 0-.864-.296-1.552-.888-2.064-.576-.528-1.352-.792-2.328-.792-1.36 0-2.528.464-3.504 1.392l-1.992-.576v-8.952h10.488v2.472h-7.68v4.632c.928-.928 2.136-1.392 3.624-1.392 1.408 0 2.608.472 3.6 1.416 1.008.928 1.512 2.176 1.512 3.744 0 1.648-.568 2.968-1.704 3.96-1.12.976-2.584 1.464-4.392 1.464zm18.591-1.152c-1.168.768-2.616 1.152-4.344 1.152-1.728 0-3.184-.384-4.368-1.152-1.184-.784-1.776-1.864-1.776-3.24 0-.976.336-1.824 1.008-2.544.688-.72 1.552-1.256 2.592-1.608-.992-.32-1.8-.792-2.424-1.416-.608-.624-.912-1.416-.912-2.376 0-.704.168-1.336.504-1.896.352-.56.808-1 1.368-1.32a7.33 7.33 0 011.872-.72 8.585 8.585 0 012.136-.264c.736 0 1.44.088 2.112.264.672.16 1.296.4 1.872.72.576.32 1.032.76 1.368 1.32.352.56.528 1.192.528 1.896 0 1.808-1.12 3.072-3.36 3.792 1.04.352 1.896.888 2.568 1.608.688.72 1.032 1.568 1.032 2.544 0 1.376-.592 2.456-1.776 3.24zm-4.344-8.496c.432-.08.848-.184 1.248-.312.4-.144.792-.384 1.176-.72.4-.352.6-.76.6-1.224 0-.656-.288-1.176-.864-1.56-.56-.384-1.28-.576-2.16-.576-.896 0-1.632.192-2.208.576-.56.384-.84.904-.84 1.56 0 .464.2.872.6 1.224.4.336.8.576 1.2.72.4.128.816.232 1.248.312zm0 7.152c.912 0 1.688-.208 2.328-.624.64-.416.96-.96.96-1.632 0-.72-.376-1.296-1.128-1.728-.736-.448-1.456-.712-2.16-.792-.416.048-.856.16-1.32.336-.464.16-.912.44-1.344.84-.432.384-.648.832-.648 1.344 0 .672.312 1.216.936 1.632.64.416 1.432.624 2.376.624zm11.753-6.096c-1.168 0-2.12-.368-2.856-1.104-.736-.752-1.104-1.696-1.104-2.832 0-1.152.368-2.104 1.104-2.856.736-.768 1.688-1.152 2.856-1.152 1.184 0 2.144.384 2.88 1.152.752.752 1.128 1.704 1.128 2.856 0 1.136-.376 2.08-1.128 2.832-.736.736-1.696 1.104-2.88 1.104zm.048 8.304h-1.584l10.224-16.008h1.608L139.844 88zm11.424-.816c-.736.736-1.688 1.104-2.856 1.104s-2.12-.368-2.856-1.104c-.736-.752-1.104-1.696-1.104-2.832 0-1.152.368-2.104 1.104-2.856.736-.768 1.688-1.152 2.856-1.152s2.12.384 2.856 1.152c.752.768 1.128 1.72 1.128 2.856s-.376 2.08-1.128 2.832zm-11.472-9.072c.624 0 1.136-.216 1.536-.648.4-.448.6-1.016.6-1.704 0-.72-.2-1.296-.6-1.728-.4-.448-.912-.672-1.536-.672s-1.136.224-1.536.672c-.384.432-.576 1.008-.576 1.728 0 .688.2 1.256.6 1.704.4.432.904.648 1.512.648zm7.08 7.944c.4.432.912.648 1.536.648s1.136-.216 1.536-.648c.4-.448.6-1.016.6-1.704 0-.72-.2-1.296-.6-1.728-.4-.448-.912-.672-1.536-.672s-1.136.224-1.536.672c-.384.432-.576 1.008-.576 1.728 0 .688.192 1.256.576 1.704z" fill="#99CDEE"/><path fill="url(#paint0_linear)" d="M107.867 25.006h79.836v5.603h-79.836z"/><path fill="url(#paint1_linear)" d="M107.867 41.814h63.029v5.603h-63.029z"/><path d="M94.694 75.742A32.998 32.998 0 1144.39 36.3L64.48 62.479l30.215 13.263z" fill="url(#paint2_linear)"/><path d="M44.482 36.23a32.998 32.998 0 0150.17 39.608l-30.173-13.36L44.482 36.23z" fill="url(#paint3_linear)" fill-opacity=".7"/><defs><linearGradient id="paint0_linear" x1="187.703" y1="29.208" x2="107.867" y2="29.208" gradientUnits="userSpaceOnUse"><stop stop-color="#F5F8FD"/><stop offset="1" stop-color="#ECF1F9"/></linearGradient><linearGradient id="paint1_linear" x1="170.896" y1="46.016" x2="107.867" y2="46.016" gradientUnits="userSpaceOnUse"><stop stop-color="#F5F8FD"/><stop offset="1" stop-color="#ECF1F9"/></linearGradient><linearGradient id="paint2_linear" x1="77.734" y1="46.647" x2="42.767" y2="100.178" gradientUnits="userSpaceOnUse"><stop stop-color="#BAE4FF" stop-opacity=".17"/><stop offset="1" stop-color="#51A9E1" stop-opacity=".88"/></linearGradient><linearGradient id="paint3_linear" x1="81.751" y1="33.876" x2="53.637" y2="82.862" gradientUnits="userSpaceOnUse"><stop stop-color="#BAE4FF"/><stop offset="1" stop-color="#51A9E1"/></linearGradient><filter id="filter0_ddd" x=".918" y="0" width="210.082" height="131.246" filterUnits="userSpaceOnUse" color-interpolation-filters="sRGB"><feFlood flood-opacity="0" result="BackgroundImageFix"/><feColorMatrix in="SourceAlpha" values="0 0 0 0 0 0 0 0 0 0 0 0 0 0 0 0 0 0 127 0"/><feOffset dy="4"/><feGaussianBlur stdDeviation="2.5"/><feColorMatrix values="0 0 0 0 0.317647 0 0 0 0 0.662745 0 0 0 0 0.882353 0 0 0 0.1 0"/><feBlend in2="BackgroundImageFix" result="effect1_dropShadow"/><feColorMatrix in="SourceAlpha" values="0 0 0 0 0 0 0 0 0 0 0 0 0 0 0 0 0 0 127 0"/><feOffset dy="3"/><feGaussianBlur stdDeviation="7"/><feColorMatrix values="0 0 0 0 0.317647 0 0 0 0 0.662745 0 0 0 0 0.882353 0 0 0 0.02 0"/><feBlend in2="effect1_dropShadow" result="effect2_dropShadow"/><feColorMatrix in="SourceAlpha" values="0 0 0 0 0 0 0 0 0 0 0 0 0 0 0 0 0 0 127 0"/><feOffset dy="8"/><feGaussianBlur stdDeviation="5"/><feColorMatrix values="0 0 0 0 0.317647 0 0 0 0 0.662745 0 0 0 0 0.882353 0 0 0 0.04 0"/><feBlend in2="effect2_dropShadow" result="effect3_dropShadow"/><feBlend in="SourceGraphic" in2="effect3_dropShadow" result="shape"/></filter></defs></svg>