<svg width="192" height="159" fill="none" xmlns="http://www.w3.org/2000/svg"><path d="M191.337 26.381c.191-.236.191-.552 0-.707l-3.112-2.52c-.191-.155-.501-.09-.692.147-.191.236-.191.552 0 .707l2.767 2.24-2.767 3.417c-.191.236-.191.552 0 .707.191.154.501.089.692-.147l3.112-3.844zM6.977 123.167c-.19.236-.19.553 0 .707l3.113 2.521c.19.154.5.089.691-.147.191-.236.191-.553 0-.707L8.015 123.3l2.766-3.416c.191-.236.191-.553 0-.707-.19-.155-.5-.089-.691.147l-3.113 3.843zm41.82-8.035l35.66-7.58v-1l-35.66 7.58v1zm47.887-22.679V75.3l-.978.208V92.66l.978-.208zm-.978-34.098v17.153l.978-.208V58.147l-.978.208zm12.226-14.1l35.661-7.579v-1l-35.661 7.58v1zm35.661-7.579l47.398-10.075v-1l-47.398 10.075v1zM25.097 120.169l23.7-5.037v-1l-23.7 5.037v1zm-11.85 2.519l11.85-2.519v-1l-11.85 2.519v1zm-5.924 1.259l5.925-1.259v-1l-5.925 1.259v1zm89.36-65.8c0-6.351 5.037-12.57 11.249-13.891v-1c-6.752 1.435-12.226 8.195-12.226 15.099l.978-.208zm-12.226 49.405c6.753-1.435 12.227-8.195 12.227-15.099l-.978.208c0 6.351-5.037 12.57-11.249 13.891v1z" fill="url(#paint0_linear)"/><path d="M.667 155.237c-.191.236-.191.553 0 .708l3.112 2.52c.191.155.501.089.692-.147.191-.236.191-.553 0-.707l-2.767-2.241 2.767-3.416c.191-.236.191-.552 0-.707-.19-.155-.5-.089-.692.147l-3.112 3.843zM167.253 3.923c.191-.236.191-.552 0-.707L164.14.696c-.191-.155-.501-.09-.692.147-.191.236-.191.552 0 .707l2.767 2.24-2.767 3.417c-.191.236-.191.552 0 .707.191.155.501.089.692-.147l3.113-3.844zm-24.534 16.862v17.153l.978-.208V20.577l-.978.208zm.978 34.098V37.73l-.978.208V55.09l.978-.208zM131.47 68.982l-35.66 7.58v1l35.66-7.58v-1zm-35.66 7.58l-35.661 7.58v1l35.66-7.58v-1zM47.921 99.24v17.154l.978-.208V99.032l-.978.208zm.978 34.099v-17.153l-.978.208v17.153l.978-.208zm-12.227 14.099l-35.66 7.579v1l35.66-7.579v-1zM166.907 3.143l-11.962 2.543v1l11.962-2.543v-1zM47.922 133.547c0 6.351-5.036 12.57-11.249 13.891v1c6.753-1.436 12.227-8.196 12.227-15.099l-.978.208zm12.227-49.406c-6.753 1.436-12.227 8.196-12.227 15.1l.978-.209c0-6.35 5.036-12.57 11.249-13.89v-1zm82.57-29.05c0 6.351-5.037 12.57-11.249 13.89v1c6.753-1.435 12.227-8.195 12.227-15.098l-.978.208zm.978-34.514c0-6.352 5.036-12.57 11.248-13.891v-1c-6.752 1.435-12.226 8.195-12.226 15.099l.978-.208z" fill="url(#paint1_linear)"/><defs><linearGradient id="paint0_linear" x1="61.5" y1="105.5" x2="36.984" y2="140.711" gradientUnits="userSpaceOnUse"><stop stop-color="#FF9C00"/><stop offset="1" stop-color="#FF9C00" stop-opacity="0"/></linearGradient><linearGradient id="paint1_linear" x1="60" y1="96.5" x2="17.893" y2="152.45" gradientUnits="userSpaceOnUse"><stop stop-color="#FFE178"/><stop offset="1" stop-color="#FFE178" stop-opacity="0"/></linearGradient></defs></svg>