<svg width="123" height="187" fill="none" xmlns="http://www.w3.org/2000/svg"><path d="M145.365 63.12L87.251 93.57l-58.76-30.606 58.512-29.578 58.362 29.733zm0 0v63.044l-58.4 30.216m58.4-93.26L86.973 93.6l-.007 62.78m0 0V93.483l-58.41-30.487v63.044l58.41 30.34zM111.487 45.97L52.727 75.59M122.908 51.982l-58.76 29.622" stroke="#92C9EC" stroke-linecap="round"/><path d="M64.11 81.658v25.37l-11.42-5.87V75.626M15.103 133.431l13.403-7.493M15.103 55.193l13.403 7.494M.5 138.66c0 3.237 2.619 5.86 5.847 5.86 3.23 0 5.848-2.623 5.848-5.86 0-3.238-2.619-5.861-5.848-5.861-3.228 0-5.847 2.623-5.847 5.861zM.5 50.94c0 3.237 2.619 5.86 5.847 5.86 3.23 0 5.848-2.623 5.848-5.86 0-3.238-2.619-5.861-5.848-5.861C3.12 45.079.5 47.702.5 50.939zM81.4 180.639c0 3.238 2.62 5.861 5.848 5.861 3.229 0 5.848-2.623 5.848-5.861 0-3.237-2.62-5.86-5.848-5.86-3.229 0-5.848 2.623-5.848 5.86zM81.118 6.36c0 3.238 2.619 5.861 5.848 5.861 3.228 0 5.848-2.623 5.848-5.86 0-3.238-2.62-5.861-5.848-5.861-3.23 0-5.848 2.623-5.848 5.86zM86.928 156.469v13.358M86.965 19.075v14.311" stroke="#92C9EC"/></svg>