<svg width="122" height="176" viewBox="0 0 122 176" fill="none" xmlns="http://www.w3.org/2000/svg">
<rect x="23.5" y="0.5" width="128" height="159" stroke="#92C9EC"/>
<rect x="49.5" y="56.5" width="74" height="50" stroke="#92C9EC"/>
<line x1="72.5" y1="56" x2="72.5" y2="107" stroke="#92C9EC"/>
<line x1="102.5" y1="56" x2="102.5" y2="107" stroke="#92C9EC"/>
<line x1="124" y1="72.5" x2="49" y2="72.5" stroke="#92C9EC"/>
<line x1="124" y1="90.5" x2="49" y2="90.5" stroke="#92C9EC"/>
<line x1="49" y1="28.5" x2="124" y2="28.5" stroke="#92C9EC"/>
<line x1="89" y1="128.5" x2="124" y2="128.5" stroke="#92C9EC"/>
<circle cx="27.5" cy="148.5" r="27" fill="white" stroke="#92C9EC"/>
<path d="M29.4389 161.67L29.0177 161.738V162.164V165.5H27V162.164V161.721L26.56 161.668C22.8768 161.223 20.3234 159.051 19.5032 158.28C19.5066 158.259 19.5132 158.232 19.525 158.201L21.5716 155C22.576 155.937 25.0582 157.869 28.0939 157.869C29.2061 157.869 30.2936 157.542 31.1122 156.852C31.942 156.153 32.4568 155.111 32.4568 153.773C32.4568 152.264 31.5007 151.219 30.2766 150.385C29.3999 149.788 28.3022 149.246 27.1838 148.693C26.7581 148.483 26.3294 148.271 25.9087 148.054C22.7798 146.441 19.9024 144.468 19.9024 140.347C19.9024 136.286 22.7399 133.127 26.5899 132.448L27.003 132.375V131.956V128.5H29.0143V131.826V132.277L29.4638 132.323C32.7976 132.662 35.0145 134.341 35.6575 134.926L34.0615 138.269C33.1433 137.458 30.9958 136.011 28.4158 136.011C25.9453 136.011 23.9456 137.618 23.9456 140.107C23.9456 141.596 24.914 142.596 26.1364 143.384C26.966 143.919 28.0002 144.408 29.0591 144.909C29.5395 145.137 30.0249 145.366 30.4987 145.604C32.055 146.384 33.5542 147.275 34.6661 148.516C35.7616 149.738 36.4972 151.317 36.5 153.521C36.291 157.624 33.6799 160.993 29.4389 161.67Z" stroke="#92C9EC"/>
</svg>
