<svg width="110" height="148" viewBox="0 0 110 148" fill="none" xmlns="http://www.w3.org/2000/svg">
<path d="M7.65088 10.0248L1 54.3111H75H149L142.313 10.0076" stroke="#92C9EC"/>
<path d="M7.52344 0.5H142.528V10.2419H7.52344V0.5Z" stroke="#92C9EC"/>
<path d="M47.8223 135.409H5.77375M48.1526 54.3184V147.414M144.827 147.414H5.18164V54.3184H144.827V147.414Z" stroke="#92C9EC"/>
<path d="M48.2783 104.454H144.226" stroke="#92C9EC"/>
<path d="M57.1006 118.777L88.1479 118.777" stroke="#92C9EC"/>
<path d="M72.0352 110.987L72.0352 118.777" stroke="#92C9EC"/>
<path d="M70.2305 134.281L102.455 134.281" stroke="#92C9EC"/>
<path d="M86.3418 142.038L86.3418 134.282" stroke="#92C9EC"/>
<path d="M39.7959 94.2903V103.839" stroke="#92C9EC"/>
<path d="M5.17773 25.6614H145.42" stroke="#92C9EC"/>
<path d="M3.38672 41.1768H146.613" stroke="#92C9EC"/>
<path d="M25.4658 10.1451V54.3183M50.5469 10.1451V54.3183M74.4076 10.1451V54.3183M98.2739 10.1451V54.3183M122.145 10.145V54.3183" stroke="#92C9EC"/>
</svg>
