<svg width="88" height="88" fill="none" xmlns="http://www.w3.org/2000/svg"><path d="M14.237 65.627l.322.382.345-.291-.254-.373-.413.282zM1.995 75.94l.322.382-.322-.382zM47.156 83v-.5.5zM86.5 43.5c0 21.536-17.589 39-39.294 39v1c22.25 0 40.294-17.905 40.294-40h-1zm-39.294-39c21.705 0 39.294 17.464 39.294 39h1c0-22.095-18.044-40-40.294-40v1zm-39.294 39c0-21.536 17.59-39 39.294-39v-1c-22.25 0-40.294 17.905-40.294 40h1zm6.738 21.845A38.612 38.612 0 0 1 7.912 43.5h-1a39.613 39.613 0 0 0 6.912 22.409l.826-.564zm-.735-.1L1.673 75.558l.644.764L14.56 66.01l-.644-.765zM1.673 75.558c-3.21 2.704-1.297 7.941 2.9 7.941v-1c-3.265 0-4.752-4.073-2.256-6.177l-.644-.764zm2.9 7.941h42.583v-1H4.572v1zm42.633-1h-.05v1h.05v-1z" fill="#77BCE8"/><rect x="44.5" y="20.495" width="6.698" height="33.753" rx="3.349" stroke="#77BCE8"/><path d="M51.198 61.517c0 1.864-1.502 3.37-3.349 3.37-1.847 0-3.349-1.506-3.349-3.37a3.36 3.36 0 0 1 3.35-3.37 3.36 3.36 0 0 1 3.348 3.37z" stroke="#77BCE8"/></svg>