<svg width="88" height="88" fill="none" xmlns="http://www.w3.org/2000/svg"><path stroke="#77BCE8" d="M7.427 58.13l4.765-3.435 8.237 11.425-4.764 3.435zM10.658 51.926l12.369-8.917L34.94 59.532 22.57 68.449zM44.412 84.47l-19-17.612 7.284-5.251 19 17.613-7.284 5.25zM35.325 59.423l25.94-8.259-21.983-30.49-16.031 22.003 12.074 16.746z"/><rect x="35.432" y="14.693" width="8.374" height="51.167" rx="4.187" transform="rotate(-35.791 35.432 14.693)" stroke="#77BCE8"/><path d="M63.29 38.158c1.96-1.413.998-6.097-2.149-10.461-3.147-4.364-7.286-6.757-9.246-5.344M64.872 17.847l9.993-11.42M71.695 27.31l13.992-5.873M52.528 15.13l5.613-14.12M70.83 39.859L86 38.994" stroke="#77BCE8"/></svg>