<svg width="88" height="88" fill="none" xmlns="http://www.w3.org/2000/svg"><path d="M18.469 2h1V0h-1v2zM1 1V0a1 1 0 0 0-1 1h1zM0 18.469v1h2v-1H0zM18.469 0H1v2h17.469V0zM2 18.469V1H0v17.469h2z" fill="#77BCE8"/><path d="M18.469 2h1V0h-1v2zM1 1V0a1 1 0 0 0-1 1h1zM0 18.469v1h2v-1H0zM18.469 0H1v2h17.469V0zM2 18.469V1H0v17.469h2zM2 69.531v-1H0v1h2zm-1 17.47H0a1 1 0 0 0 1 1v-1zm17.469 1h1v-2h-1v2zM0 69.53v17.47h2V69.53H0zm18.469 16.47H1v2h17.469v-2zM69.531 2h-1V0h1v2zm17.47-1V0a1 1 0 0 1 1 1h-1zm1 17.469v1h-2v-1h2zM69.53 0h17.47v2H69.53V0zm16.47 18.469V1h2v17.469h-2zM86 69.531v-1h2v1h-2zm1 17.47h1a1 1 0 0 1-1 1v-1zm-17.469 1h-1v-2h1v2zm18.47-18.47v17.47h-2V69.53h2zm-18.47 16.47h17.47v2H69.53v-2z" fill="#77BCE8"/><path d="M16.376 53.44l.08.042a13.22 13.22 0 0 0 11.792.16c1.073-.376 1.687-.624 3.934-1.584a136175.77 136175.77 0 0 0 40.314-17.227l.891-.381.232-.1.06-.026.016-.007.008-.003.008-.004a.938.938 0 0 0 .147-.709l.049-.035a.774.774 0 0 0-.074-.052.91.91 0 0 0-.016-.044l-.02.023a1.024 1.024 0 0 0-.396-.126l-.015.003-.009.002-.009.002-.022.006-.085.023-.326.086-1.252.331-4.595 1.22-15.105 4.012a30365.627 30365.627 0 0 1-21.235 5.632l-.36.094-.1.026a1.98 1.98 0 0 1-.032.008h-.002c-2.823.65-5.035.56-6.488-.151-.816-.4-1.553-1.13-1.98-1.974-.615-1.212-.7-2.828-.162-4.798.335-1.226.955-2.655 1.68-3.87a16.993 16.993 0 0 0 .169-.29.54.54 0 0 0 .046-.134v-.001c.003-.017.019-.098-.002-.198a.5.5 0 0 0-.49-.396.892.892 0 0 0-.192.038.495.495 0 0 0-.147.094l-.019.019-.02.02-.046.05a60.187 60.187 0 0 0-.635.696c-.37.406-.791.873-1.004 1.112-2.886 3.24-4.569 5.611-5.666 8.025-1.272 2.8-1.648 5.437-.955 7.508.227.68.568 1.288 1.056 1.901.195.245.733.783.977.978z" stroke="#77BCE8"/></svg>