<svg width="95" height="160" viewBox="0 0 95 160" fill="none" xmlns="http://www.w3.org/2000/svg">
<path fill-rule="evenodd" clip-rule="evenodd" d="M139.249 125.456C133.115 116.217 118.289 109.204 105.679 105.614C93.0691 102.02 89.0243 94.0231 89.9193 90.3023C90.8142 86.5814 93.58 87.738 96.3846 82.4291C98.7734 77.9053 100.398 67.337 100.398 67.337C100.398 67.337 106.148 65.4129 106.789 56.6909C107.427 47.9653 106.789 44.7573 104.615 43.7315C102.441 42.7058 101.546 42.8332 101.546 42.8332C101.546 42.8332 102.966 30.4221 102.977 27.8225C102.987 24.5296 103.283 21.2968 102.364 17.9438C99.0482 5.88643 85.3072 0.75435 69.3571 1.00901C53.4069 1.2672 53.1603 6.14109 49.8484 9.73461C46.5364 13.3246 44.3273 10.5021 41.3818 16.0197C39.6025 19.355 41.3184 35.1368 41.3184 35.1368C41.8539 39.5049 42.4529 42.8332 42.4529 42.8332C42.4529 42.8332 41.558 42.7058 39.3841 43.7315C37.2137 44.7573 36.5724 47.9653 37.2137 56.6909C37.8514 65.4129 43.6015 67.337 43.6015 67.337C43.6015 67.337 45.2257 77.9053 47.6181 82.4291C50.4191 87.738 53.1885 86.5814 54.0834 90.3023C54.9783 94.0231 50.93 102.02 38.32 105.614C25.71 109.204 10.8838 116.217 4.74967 125.456C0.112956 132.441 0.831716 144.223 1.45887 149.549C1.64561 151.127 26.6613 159 72.5915 159C118.522 159 142.354 151.127 142.54 149.549C143.167 144.223 143.89 132.441 139.249 125.456V125.456Z" stroke="#92C9EC"/>
</svg>
