<svg width="88" height="88" fill="none" xmlns="http://www.w3.org/2000/svg"><path d="M34.795 73.333v.5H79.83v-61.5H34.795v61zM40.799.5h33.027c4.79 0 8.674 3.88 8.674 8.667v69.666c0 4.786-3.883 8.667-8.674 8.667H40.799c-4.79 0-8.674-3.88-8.674-8.667V9.167C32.125 4.38 36.008.5 40.8.5z" stroke="#77BCE8"/><path d="M61.242 80.567c0 1.862-1.498 3.365-3.339 3.365-1.84 0-3.338-1.503-3.338-3.365 0-1.861 1.498-3.364 3.338-3.364s3.339 1.503 3.339 3.364z" stroke="#92C9EC"/><path fill="#fff" d="M16.828 19.387H38.79v44.999H16.828z"/><path d="M48.815 65.498c0 1.743-1.403 3.15-3.126 3.15-1.724 0-3.126-1.407-3.126-3.15 0-1.744 1.402-3.152 3.126-3.152 1.723 0 3.126 1.408 3.126 3.152zM22.955 65.498c0 1.743-1.402 3.15-3.126 3.15-1.723 0-3.126-1.407-3.126-3.15 0-1.744 1.403-3.152 3.126-3.152 1.723 0 3.126 1.408 3.126 3.152zM53.447 37.176l-2.36 13.968a5 5 0 0 1-4.93 4.167H19.661a5 5 0 0 1-4.908-4.041l-2.287-11.71a2 2 0 0 1 1.963-2.384h39.017zm0 0l2.903-17.064h2.672" stroke="#77BCE8"/><path d="M19.83 62.144h28.626c1.617 0 2.928-1.53 2.928-3.416 0-1.887-1.31-3.417-2.928-3.417h-2.134M57.74 20.112h6.48a2.833 2.833 0 1 1 0 5.666h-8.856" stroke="#77BCE8"/><path d="M33.102 44.808c7.719 0 13.975-6.259 13.975-13.978 0-7.72-6.256-13.979-13.975-13.979-7.72 0-13.976 6.259-13.976 13.979 0 7.72 6.256 13.978 13.976 13.978z" fill="#fff" stroke="#fff" stroke-width="4"/><path d="M33.102 43.308c6.89 0 12.475-5.587 12.475-12.478 0-6.892-5.585-12.479-12.475-12.479S20.626 23.938 20.626 30.83c0 6.891 5.585 12.478 12.476 12.478z" stroke="#92C9EC"/><path d="M36.858 27.193l.792-1.62a.624.624 0 0 0 .06-.515.807.807 0 0 0-.172-.302l-.016-.017-.017-.015c-.326-.297-1.359-1.078-2.92-1.346v-1.111a.731.731 0 0 0-.704-.722h-1.019a.731.731 0 0 0-.703.722v1.205c-1.94.51-3.359 2.171-3.359 4.282 0 2.37 1.755 3.464 3.245 4.215.23.116.452.223.663.325.509.245.957.462 1.327.708.512.34.705.633.705.959 0 .41-.154.683-.37.86-.229.19-.566.303-.958.303-1.213 0-2.254-.816-2.643-1.186a.65.65 0 0 0-.547-.175.66.66 0 0 0-.491.334l-1.002 1.53-.02.031-.016.034a.889.889 0 0 0-.083.368.67.67 0 0 0 .169.455l.013.015.014.013c.353.33 1.557 1.38 3.352 1.726v1.123c0 .203.089.375.195.49a.696.696 0 0 0 .508.232h1.022a.731.731 0 0 0 .703-.722v-1.141c2.136-.517 3.433-2.3 3.539-4.376v-.025c0-1.212-.421-2.117-1.059-2.812-.623-.679-1.435-1.14-2.19-1.51-.265-.13-.516-.245-.753-.355-.474-.218-.89-.411-1.242-.633-.515-.324-.695-.595-.695-.897 0-.656.518-1.163 1.378-1.163.997 0 1.864.578 2.207.881a.59.59 0 0 0 .255.192.616.616 0 0 0 .386.018.706.706 0 0 0 .446-.378z" fill="#fff" stroke="#92C9EC"/></svg>