<svg width="88" height="88" fill="none" xmlns="http://www.w3.org/2000/svg"><path clip-rule="evenodd" d="M78.391 68.929c-3.11-4.977-10.628-8.756-17.022-10.69-6.393-1.936-8.444-6.244-7.99-8.249.453-2.004 1.856-1.381 3.278-4.241 1.211-2.438 2.035-8.131 2.035-8.131s2.915-1.037 3.24-5.736c.324-4.7 0-6.429-1.102-6.981-1.102-.553-1.556-.484-1.556-.484s.72-6.686.725-8.087c.006-1.774.156-3.515-.31-5.322-1.682-6.496-8.649-9.26-16.736-9.123-8.088.139-8.213 2.765-9.892 4.7-1.68 1.935-2.8.414-4.293 3.387-.902 1.796-.032 10.299-.032 10.299.271 2.353.575 4.146.575 4.146s-.454-.069-1.556.484c-1.1.552-1.426 2.28-1.1 6.982.323 4.698 3.238 5.735 3.238 5.735s.824 5.694 2.037 8.13c1.42 2.86 2.825 2.238 3.278 4.242.454 2.005-1.599 6.313-7.992 8.249-6.394 1.934-13.912 5.713-17.022 10.69-2.351 3.763-1.987 10.11-1.669 12.98.095.85 12.78 5.091 36.068 5.091 23.288 0 35.372-4.242 35.467-5.091.318-2.87.684-9.217-1.669-12.98z" stroke="#77BCE8"/><path d="M30.043 2h1V0h-1v2zm-9.75-1V0a1 1 0 0 0-1 1h1zm-1 11.175v1h2v-1h-2zM30.043 0h-9.75v2h9.75V0zm-8.75 12.175V1h-2v11.175h2z" fill="#77BCE8"/><path d="M30.043 2h1V0h-1v2zm-9.75-1V0a1 1 0 0 0-1 1h1zm-1 11.175v1h2v-1h-2zM30.043 0h-9.75v2h9.75V0zm-8.75 12.175V1h-2v11.175h2zM21.293 44.84v-1h-2v1h2zm-1 11.175h-1a1 1 0 0 0 1 1v-1zm9.75 1h1v-2h-1v2zM19.293 44.84v11.175h2V44.84h-2zm10.75 10.175h-9.75v2h9.75v-2zM58.543 2h-1V0h1v2zm9.75-1V0a1 1 0 0 1 1 1h-1zm1 11.175v1h-2v-1h2zM58.543 0h9.75v2h-9.75V0zm8.75 12.175V1h2v11.175h-2zM67.293 44.84v-1h2v1h-2zm1 11.175h1a1 1 0 0 1-1 1v-1zm-9.75 1h-1v-2h1v2zm10.75-12.175v11.175h-2V44.84h2zm-10.75 10.175h9.75v2h-9.75v-2z" fill="#77BCE8"/></svg>