<svg width="95" height="143" viewBox="0 0 95 143" fill="none" xmlns="http://www.w3.org/2000/svg">
<path d="M71.1617 82.5421C33.7355 82.5421 3.26231 72.2806 1.36088 59.3835H1.17676V82.8814C1.17676 96.3749 32.5103 107.308 71.1617 107.308C109.813 107.308 141.147 96.3749 141.147 82.8814V59.3835H140.963C139.061 72.2806 108.588 82.5421 71.1617 82.5421" stroke="#92C9EC"/>
<path d="M71.1617 49.6686C33.7355 49.6686 3.26231 39.4071 1.36088 26.51H1.17676V50.0079C1.17676 63.5013 32.5103 74.4345 71.1617 74.4345C109.813 74.4345 141.147 63.5013 141.147 50.0079V26.51H140.963C139.061 39.4071 108.588 49.6686 71.1617 49.6686" stroke="#92C9EC"/>
<path d="M71.1617 117.734C33.7355 117.734 3.26231 107.473 1.36088 94.5754H1.17676V118.073C1.17676 131.567 32.5103 142.5 71.1617 142.5C109.813 142.5 141.147 131.567 141.147 118.073V94.5754H140.963C139.061 107.473 108.588 117.734 71.1617 117.734" stroke="#92C9EC"/>
<path d="M8.93359 104.523L8.93359 129.343" stroke="#92C9EC"/>
<path d="M24.4902 111.801L24.4902 136.583" stroke="#92C9EC"/>
<path d="M40.0479 115.135V139.542" stroke="#92C9EC"/>
<path d="M55.6045 117.271L55.6045 142.5" stroke="#92C9EC"/>
<path d="M71.1611 118.094V142.5" stroke="#92C9EC"/>
<path d="M86.7188 117.271L86.7188 142.5" stroke="#92C9EC"/>
<path d="M8.93359 69.3307L8.93359 94.1512" stroke="#92C9EC"/>
<path d="M24.4902 76.6085L24.4902 101.391" stroke="#92C9EC"/>
<path d="M40.0479 79.9435V104.35" stroke="#92C9EC"/>
<path d="M55.6045 82.0787L55.6045 107.308" stroke="#92C9EC"/>
<path d="M71.1611 82.9017V107.308" stroke="#92C9EC"/>
<path d="M86.7188 82.0787L86.7188 107.308" stroke="#92C9EC"/>
<path d="M8.93359 36.4572L8.93359 61.2777" stroke="#92C9EC"/>
<path d="M24.4902 43.735L24.4902 68.5178" stroke="#92C9EC"/>
<path d="M40.0479 47.0699V71.4762" stroke="#92C9EC"/>
<path d="M55.6045 49.2052L55.6045 74.4344" stroke="#92C9EC"/>
<path d="M71.1611 50.0282V74.4344" stroke="#92C9EC"/>
<path d="M86.7188 49.2052L86.7188 74.4346" stroke="#92C9EC"/>
<path d="M141.146 25.6017C141.146 39.0917 109.813 50.0284 71.1613 50.0284C32.5099 50.0284 1.17969 39.0917 1.17969 25.6017C1.17969 12.1117 32.5099 1.17505 71.1613 1.17505C109.813 1.17505 141.146 12.1117 141.146 25.6017" stroke="#92C9EC"/>
</svg>
