<svg width="72" height="72" fill="none" xmlns="http://www.w3.org/2000/svg"><path fill-rule="evenodd" clip-rule="evenodd" d="M59.258 32.19L43.606 15.98a3.235 3.235 0 0 0-4.643 0A3.363 3.363 0 0 0 38 18.35v37.282l9.38-9.575c.301-.31.482-.733.482-1.173V36.33a3.345 3.345 0 0 1-1.65-2.89c0-1.852 1.47-3.354 3.282-3.354 1.82 0 3.289 1.502 3.289 3.353a3.355 3.355 0 0 1-1.643 2.89V46.27c0 .441-.17.862-.475 1.176l-2.803 2.863L38 60.372v8.275C38 70.497 39.47 72 41.283 72c1.515 0 3.03-.59 4.182-1.77l13.793-14.085A6.054 6.054 0 0 0 61 51.88V36.458a6.061 6.061 0 0 0-1.742-4.268zM30.717 0c-.846 0-1.681.326-2.326.981l-15.663 16.19A6.081 6.081 0 0 0 11 21.437v30.469c0 1.541.576 3.088 1.728 4.26l13.803 14.068A5.857 5.857 0 0 0 30.717 72c.837 0 1.68-.329 2.32-.984.64-.65.963-1.51.963-2.365V45.649L21.33 32.742a1.696 1.696 0 0 1-.471-1.175V21.302a3.345 3.345 0 0 1-1.644-2.883c0-1.847 1.473-3.35 3.286-3.35 1.814 0 3.286 1.503 3.286 3.35a3.345 3.345 0 0 1-1.643 2.883v8.876c0 .446.171.868.472 1.176L34 40.914V3.352c0-.858-.322-1.715-.963-2.37A3.236 3.236 0 0 0 30.717 0z" fill="#92C9EC"/></svg>