<svg width="108" height="137" viewBox="0 0 108 137" fill="none" xmlns="http://www.w3.org/2000/svg">
<mask id="path-1-inside-1" fill="white">
<path fill-rule="evenodd" clip-rule="evenodd" d="M136.755 84.6809L131.25 99.8259C130.69 101.332 129.357 102.45 127.765 102.622L108.623 105.204L107.806 124.479C107.763 126.071 106.773 127.534 105.354 128.18L90.7283 135.02C89.2656 135.709 87.5449 135.537 86.2975 134.548L70.9406 122.801L56.7453 135.881C55.928 136.613 54.8957 137 53.8203 137C53.3471 137 52.831 136.914 52.3576 136.742L37.173 131.278C35.6673 130.718 34.5919 129.384 34.3768 127.792L31.839 108.646L12.5676 107.829C10.9329 107.742 9.51357 106.796 8.82516 105.333L1.98573 90.7046C1.29732 89.2849 1.51235 87.5633 2.45884 86.2728L14.2022 70.956L1.12535 56.7143C0.049944 55.5526 -0.294259 53.875 0.264973 52.3687L5.77118 37.1806C6.33041 35.6748 7.6639 34.5992 9.25549 34.3844L28.3975 31.8455L29.2148 12.5271C29.2579 10.9352 30.2044 9.51554 31.6668 8.82699L46.2924 1.98609C47.7548 1.29753 49.4325 1.46981 50.7229 2.45931L66.0798 14.2052L80.2751 1.12579C81.4797 0.0501541 83.1574 -0.294386 84.6628 0.264966L99.8477 5.77235C101.353 6.28864 102.429 7.66522 102.644 9.25714L105.182 28.3607L124.453 29.1779C126.088 29.2641 127.507 30.211 128.195 31.6732L135.035 46.3025C135.68 47.7647 135.508 49.4433 134.519 50.7337L122.818 66.0505L135.852 80.2922C136.971 81.454 137.272 83.132 136.755 84.6809ZM68.4997 108.613C90.6533 108.613 108.612 90.6535 108.612 68.4999C108.612 46.3463 90.6533 28.3873 68.4997 28.3873C46.3461 28.3873 28.3871 46.3463 28.3871 68.4999C28.3871 90.6535 46.3461 108.613 68.4997 108.613Z"/>
</mask>
<path d="M131.25 99.8259L132.187 100.174L132.189 100.168L131.25 99.8259ZM136.755 84.6809L137.695 85.0226L137.7 85.0099L137.704 84.9971L136.755 84.6809ZM127.765 102.622L127.658 101.628L127.645 101.629L127.632 101.631L127.765 102.622ZM108.623 105.204L108.489 104.213L107.659 104.325L107.624 105.162L108.623 105.204ZM107.806 124.479L106.807 124.437L106.806 124.445L106.806 124.452L107.806 124.479ZM105.354 128.18L104.94 127.269L104.93 127.274L105.354 128.18ZM90.7283 135.02L90.3046 134.115L90.3024 134.116L90.7283 135.02ZM86.2975 134.548L86.919 133.764L86.912 133.759L86.905 133.753L86.2975 134.548ZM70.9406 122.801L71.5482 122.007L70.8809 121.497L70.263 122.066L70.9406 122.801ZM56.7453 135.881L57.4123 136.626L57.4177 136.622L57.4229 136.617L56.7453 135.881ZM52.3576 136.742L52.6996 135.802L52.6962 135.801L52.3576 136.742ZM37.173 131.278L36.8244 132.215L36.8344 132.219L37.173 131.278ZM34.3768 127.792L33.3855 127.924L33.3858 127.926L34.3768 127.792ZM31.839 108.646L32.8303 108.515L32.72 107.683L31.8814 107.647L31.839 108.646ZM12.5676 107.829L12.5149 108.827L12.5252 108.828L12.5676 107.829ZM8.82516 105.333L7.91928 105.757L7.92036 105.759L8.82516 105.333ZM1.98573 90.7046L2.89161 90.281L2.88861 90.2746L2.88552 90.2682L1.98573 90.7046ZM2.45884 86.2728L1.66525 85.6644L1.65878 85.6728L1.65249 85.6814L2.45884 86.2728ZM14.2022 70.956L14.9958 71.5645L15.5067 70.8981L14.9388 70.2797L14.2022 70.956ZM1.12535 56.7143L1.86194 56.038L1.85921 56.035L1.12535 56.7143ZM0.264973 52.3687L1.20248 52.7168L1.2051 52.7096L0.264973 52.3687ZM5.77118 37.1806L4.83371 36.8325L4.83105 36.8398L5.77118 37.1806ZM9.25549 34.3844L9.124 33.3931L9.12173 33.3934L9.25549 34.3844ZM28.3975 31.8455L28.529 32.8368L29.3611 32.7265L29.3966 31.8878L28.3975 31.8455ZM29.2148 12.5271L30.2139 12.5694L30.2143 12.5618L30.2145 12.5542L29.2148 12.5271ZM31.6668 8.82699L31.2431 7.92117L31.2408 7.92226L31.6668 8.82699ZM46.2924 1.98609L46.7161 2.8919L46.7184 2.89082L46.2924 1.98609ZM50.7229 2.45931L50.1144 3.25286L50.1154 3.2536L50.7229 2.45931ZM66.0798 14.2052L65.4723 14.9995L66.1396 15.5099L66.7574 14.9406L66.0798 14.2052ZM80.2751 1.12579L79.609 0.379889L79.6032 0.385083L79.5975 0.390368L80.2751 1.12579ZM84.6628 0.264966L84.3145 1.20238L84.3219 1.20505L84.6628 0.264966ZM99.8477 5.77235L99.5067 6.71243L99.515 6.71542L99.5233 6.71827L99.8477 5.77235ZM102.644 9.25714L103.635 9.12544L103.635 9.12328L102.644 9.25714ZM105.182 28.3607L104.19 28.4924L104.301 29.3243L105.139 29.3598L105.182 28.3607ZM124.453 29.1779L124.505 28.1793L124.495 28.1788L124.453 29.1779ZM128.195 31.6732L129.101 31.2497L129.1 31.2474L128.195 31.6732ZM135.035 46.3025L135.95 45.8989L135.945 45.8889L135.941 45.879L135.035 46.3025ZM134.519 50.7337L133.725 50.1253L133.724 50.1267L134.519 50.7337ZM122.818 66.0505L122.024 65.4435L121.516 66.1084L122.081 66.7257L122.818 66.0505ZM135.852 80.2922L135.115 80.9674L135.123 80.9767L135.132 80.9858L135.852 80.2922ZM132.189 100.168L137.695 85.0226L135.816 84.3392L130.31 99.4843L132.189 100.168ZM127.872 103.616C129.873 103.401 131.507 102.004 132.187 100.174L130.312 99.4778C129.873 100.66 128.84 101.5 127.658 101.628L127.872 103.616ZM108.757 106.195L127.899 103.613L127.632 101.631L108.489 104.213L108.757 106.195ZM108.805 124.522L109.622 105.246L107.624 105.162L106.807 124.437L108.805 124.522ZM105.768 129.09C107.532 128.288 108.752 126.484 108.805 124.506L106.806 124.452C106.773 125.658 106.015 126.78 104.94 127.269L105.768 129.09ZM91.152 135.926L105.777 129.085L104.93 127.274L90.3046 134.115L91.152 135.926ZM85.676 135.331C87.2344 136.567 89.3634 136.768 91.1542 135.925L90.3024 134.116C89.1678 134.65 87.8553 134.507 86.919 133.764L85.676 135.331ZM70.3331 123.596L85.6899 135.342L86.905 133.753L71.5482 122.007L70.3331 123.596ZM57.4229 136.617L71.6183 123.537L70.263 122.066L56.0677 135.146L57.4229 136.617ZM53.8203 138C55.1397 138 56.41 137.524 57.4123 136.626L56.0784 135.136C55.446 135.702 54.6517 136 53.8203 136V138ZM52.0156 137.681C52.6013 137.894 53.2334 138 53.8203 138V136C53.4609 136 53.0606 135.933 52.6996 135.802L52.0156 137.681ZM36.8344 132.219L52.019 137.683L52.6962 135.801L37.5116 130.337L36.8344 132.219ZM33.3858 127.926C33.6508 129.888 34.976 131.528 36.8245 132.215L37.5215 130.341C36.3585 129.908 35.533 128.881 35.3678 127.659L33.3858 127.926ZM30.8477 108.778L33.3855 127.924L35.3682 127.661L32.8303 108.515L30.8477 108.778ZM12.5252 108.828L31.7966 109.645L31.8814 107.647L12.61 106.83L12.5252 108.828ZM7.92036 105.759C8.76808 107.56 10.5182 108.722 12.5149 108.827L12.6202 106.83C11.3477 106.763 10.2591 106.032 9.72997 104.907L7.92036 105.759ZM1.07985 91.1281L7.91928 105.757L9.73105 104.91L2.89161 90.281L1.07985 91.1281ZM1.65249 85.6814C0.506217 87.2442 0.222024 89.3593 1.08594 91.1409L2.88552 90.2682C2.37262 89.2105 2.51848 87.8823 3.2652 86.8642L1.65249 85.6814ZM13.4086 70.3476L1.66525 85.6644L3.25244 86.8813L14.9958 71.5645L13.4086 70.3476ZM0.388763 57.3907L13.4656 71.6324L14.9388 70.2797L1.86194 56.038L0.388763 57.3907ZM-0.672504 52.0207C-1.3639 53.883 -0.938192 55.9572 0.391493 57.3937L1.85921 56.035C1.03808 55.148 0.775379 53.8671 1.20245 52.7168L-0.672504 52.0207ZM4.83105 36.8398L-0.675153 52.0279L1.2051 52.7096L6.7113 37.5214L4.83105 36.8398ZM9.12173 33.3934C7.16056 33.6581 5.52033 34.9838 4.83374 36.8325L6.70862 37.5288C7.14049 36.3659 8.16725 35.5403 9.38924 35.3754L9.12173 33.3934ZM28.266 30.8542L9.124 33.3931L9.38697 35.3757L28.529 32.8368L28.266 30.8542ZM28.2157 12.4848L27.3984 31.8032L29.3966 31.8878L30.2139 12.5694L28.2157 12.4848ZM31.2408 7.92226C29.447 8.76686 28.2688 10.5197 28.2152 12.5001L30.2145 12.5542C30.247 11.3507 30.9618 10.2642 32.0928 9.73172L31.2408 7.92226ZM45.8687 1.08028L31.2431 7.92118L32.0905 9.7328L46.7161 2.8919L45.8687 1.08028ZM51.3314 1.66575C49.7419 0.446917 47.6648 0.234618 45.8664 1.08136L46.7184 2.89082C47.8448 2.36045 49.1231 2.49269 50.1144 3.25286L51.3314 1.66575ZM66.6873 13.4109L51.3305 1.66501L50.1154 3.2536L65.4723 14.9995L66.6873 13.4109ZM79.5975 0.390368L65.4022 13.4697L66.7574 14.9406L80.9527 1.86121L79.5975 0.390368ZM85.0111 -0.672422C83.1443 -1.36603 81.0789 -0.932622 79.609 0.379889L80.9411 1.87169C81.8805 1.03293 83.1704 0.777262 84.3145 1.20236L85.0111 -0.672422ZM100.189 4.83227L85.0038 -0.675113L84.3219 1.20505L99.5067 6.71243L100.189 4.83227ZM103.635 9.12328C103.372 7.17966 102.057 5.47292 100.172 4.82643L99.5233 6.71827C100.649 7.10435 101.485 8.15077 101.653 9.391L103.635 9.12328ZM106.173 28.229L103.635 9.12544L101.652 9.38884L104.19 28.4924L106.173 28.229ZM124.495 28.1788L105.224 27.3616L105.139 29.3598L124.41 30.1771L124.495 28.1788ZM129.1 31.2474C128.253 29.4468 126.502 28.2846 124.505 28.1793L124.4 30.1766C125.673 30.2436 126.762 30.9753 127.29 32.0991L129.1 31.2474ZM135.941 45.879L129.101 31.2497L127.289 32.0968L134.129 46.7261L135.941 45.879ZM135.312 51.3422C136.531 49.7531 136.738 47.6851 135.95 45.8989L134.12 46.7062C134.622 47.8443 134.486 49.1335 133.725 50.1253L135.312 51.3422ZM123.613 66.6576L135.313 51.3408L133.724 50.1267L122.024 65.4435L123.613 66.6576ZM136.59 79.6171L123.556 65.3754L122.081 66.7257L135.115 80.9674L136.59 79.6171ZM137.704 84.9971C138.325 83.1353 137.977 81.0574 136.573 79.5987L135.132 80.9858C135.964 81.8506 136.219 83.1288 135.807 84.3647L137.704 84.9971ZM107.612 68.4999C107.612 90.1012 90.101 107.613 68.4997 107.613V109.613C91.2056 109.613 109.612 91.2058 109.612 68.4999H107.612ZM68.4997 29.3873C90.101 29.3873 107.612 46.8986 107.612 68.4999H109.612C109.612 45.794 91.2056 27.3873 68.4997 27.3873V29.3873ZM29.3871 68.4999C29.3871 46.8986 46.8984 29.3873 68.4997 29.3873V27.3873C45.7938 27.3873 27.3871 45.794 27.3871 68.4999H29.3871ZM68.4997 107.613C46.8984 107.613 29.3871 90.1012 29.3871 68.4999H27.3871C27.3871 91.2058 45.7938 109.613 68.4997 109.613V107.613Z" fill="#92C9EC" mask="url(#path-1-inside-1)"/>
<mask id="mask0" mask-type="alpha" maskUnits="userSpaceOnUse" x="34" y="34" width="69" height="77">
<path fill-rule="evenodd" clip-rule="evenodd" d="M100.649 93.8628C97.7161 89.4606 90.6285 86.1185 84.6003 84.4078C78.5721 82.6955 76.6385 78.8849 77.0663 77.1119C77.4941 75.3388 78.8163 75.89 80.157 73.3602C81.299 71.2046 82.0755 66.1687 82.0755 66.1687C82.0755 66.1687 84.8243 65.2519 85.1309 61.0957C85.4357 56.9379 85.1309 55.4093 84.0916 54.9205C83.0524 54.4318 82.6246 54.4924 82.6246 54.4924C82.6246 54.4924 83.3034 48.5785 83.3084 47.3397C83.3135 45.7706 83.455 44.2302 83.0153 42.6325C81.4304 36.887 74.8615 34.4415 67.2366 34.5629C59.6116 34.6859 59.4937 37.0084 57.9105 38.7207C56.3272 40.4314 55.2711 39.0864 53.863 41.7156C53.0125 43.3049 53.8327 50.8251 53.8327 50.8251C54.0887 52.9065 54.3751 54.4924 54.3751 54.4924C54.3751 54.4924 53.9473 54.4318 52.908 54.9205C51.8705 55.4093 51.5639 56.9379 51.8705 61.0957C52.1753 65.2519 54.9242 66.1687 54.9242 66.1687C54.9242 66.1687 55.7006 71.2046 56.8443 73.3602C58.1833 75.89 59.5072 75.3388 59.935 77.1119C60.3629 78.8849 58.4276 82.6955 52.3994 84.4078C46.3712 86.1185 39.2835 89.4606 36.3511 93.8628C34.1345 97.1914 34.4781 102.805 34.778 105.344C34.8672 106.095 46.8259 109.847 68.7828 109.847C90.7397 109.847 102.132 106.095 102.222 105.344C102.522 102.805 102.867 97.1914 100.649 93.8628V93.8628Z" stroke="#92C9EC"/>
</mask>
<g mask="url(#mask0)">
<circle cx="68.1913" cy="68.8087" r="35.4842" fill="#92C9EC"/>
</g>
</svg>
