<svg width="88" height="88" fill="none" xmlns="http://www.w3.org/2000/svg"><path transform="rotate(-18.995 47.192 -22.623) skewX(.102)" stroke="#77BCE8" d="M.636.31h41.718v77.411H.636z"/><path d="M43.983 19.25c.402 1.162.598 2.802.619 4.71.02 1.899-.135 4.029-.412 6.153-.52 3.981-1.462 7.88-2.457 10.166-2.448-1.297-5.622-3.8-8.441-6.596-3.008-2.983-5.521-6.212-6.338-8.57-1.623-4.688.872-9.801 5.575-11.42 4.704-1.62 9.831.87 11.454 5.557z" stroke="#77BCE8"/><path d="M38.785 20.774a3.583 3.583 0 0 1-2.226 4.558 3.598 3.598 0 0 1-4.572-2.218 3.583 3.583 0 0 1 2.226-4.559 3.598 3.598 0 0 1 4.572 2.219zM22.779 49.24c22.377-7.703 21.937 17.55 47.297 8.82" stroke="#77BCE8"/><path d="M58.128 22.345c-11.934 4.108-.177 41.683-27.215 50.99" stroke="#77BCE8" stroke-dasharray="5 5"/><path d="M9.157 39.472c-7.022 6.45-7.471 17.353-1.004 24.355 6.468 7.001 17.403 7.45 24.425 1 7.022-6.448 7.471-17.352 1.004-24.354-6.467-7.001-17.402-7.45-24.425-1z" fill="#fff" stroke="#77BCE8"/><path d="M10.74 41.186c-6.072 5.577-6.46 15.007-.868 21.062 5.593 6.055 15.05 6.443 21.123.866s6.461-15.007.868-21.062c-5.593-6.055-15.05-6.443-21.122-.866z" fill="#fff" stroke="#77BCE8"/><path d="M11.37 61.085l-1.645 1.51M7.926 51.73l-2.235-.091M12.128 42.688l-1.515-1.64M21.51 39.255l.092-2.229M30.578 43.445l1.644-1.51M34.021 52.8l2.236.091M29.82 61.841l1.514 1.64M20.437 65.275l-.091 2.229" stroke="#77BCE8" stroke-miterlimit="10"/><path d="M24.586 43.21l.839-.711-.015 1.097-.142 10.391-.003.228-.173.147-7.943 6.728-.838.711.015-1.097.14-10.391.004-.228.174-.147 7.942-6.729z" stroke="#77BCE8"/></svg>