<svg width="88" height="88" fill="none" xmlns="http://www.w3.org/2000/svg"><g clip-path="url(#clip0)"><path d="M39.556 31.222l9.978-25.478h22.029l9.493 24.339a6.5 6.5 0 0 1 .444 2.362V81a6.5 6.5 0 0 1-6.5 6.5H46.056a6.5 6.5 0 0 1-6.5-6.5V31.222z" stroke="#77BCE8"/><path d="M76.34 42.446H44.716v18.978H76.34V42.446zM72.065.5H48.991a1.5 1.5 0 0 0-1.5 1.5v1.853a1.5 1.5 0 0 0 1.5 1.5h23.074a1.5 1.5 0 0 0 1.5-1.5V2a1.5 1.5 0 0 0-1.5-1.5z" stroke="#77BCE8"/><path d="M47.954 79.514v4.612M56.67 79.514v4.612M65.386 79.514v4.612M74.102 79.514v4.612" stroke="#77BCE8" stroke-linecap="round"/><path d="M38 86.197c8.046-3.16 13.637-10.136 13.637-18.233 0-9.071-7.015-16.734-16.637-19.202" stroke="#fff" stroke-width="3"/><path d="M51.137 67.963c0 10.722-10.142 19.537-22.819 19.537C15.642 87.5 5.5 78.685 5.5 67.963c0-10.72 10.142-19.536 22.818-19.536 12.677 0 22.819 8.815 22.819 19.536z" fill="#fff" stroke="#77BCE8"/><path d="M16.545 54.232c.778-2.465 3.514-4.615 5.976-4.976-.922-1.628-1.502-3-.82-5.654 3.075.186 4.872 2.069 5.42 3.215 2.193-1.166 4.762-1.314 6.558.032-.93 2.514-3.214 4.036-4.703 4.255.566 1.218.763 4.073-.015 6.224-1.592-.236-4.475-1.369-5.26-4.147-1.17 1.003-3.937 1.908-7.156 1.051z" fill="#fff" stroke="#77BCE8"/></g><defs><clipPath id="clip0"><path fill="#fff" d="M0 0h88v88H0z"/></clipPath></defs></svg>