<svg width="72" height="72" fill="none" xmlns="http://www.w3.org/2000/svg"><path fill-rule="evenodd" clip-rule="evenodd" d="M43.167 16.736c.068-.195.185-.373.342-.517L50 10.28l-8.97-1.222a1.404 1.404 0 0 1-.6-.23 1.294 1.294 0 0 1-.419-.465L36 .73l-4.011 7.63c-.097.185-.24.345-.418.466-.178.121-.384.2-.601.23L22 10.28l6.491 5.94c.157.143.274.32.342.517.068.195.084.404.047.606l-1.533 8.388 8.024-3.96a1.425 1.425 0 0 1 1.258 0l8.024 3.96-1.533-8.388a1.199 1.199 0 0 1 .047-.607zM61.938 22.757a.677.677 0 0 1 .194-.278l3.696-3.19-5.107-.658a.827.827 0 0 1-.342-.123.71.71 0 0 1-.238-.25l-2.284-4.099-2.284 4.099a.71.71 0 0 1-.238.25.828.828 0 0 1-.342.123l-5.108.657 3.697 3.19c.089.078.155.173.194.279a.61.61 0 0 1 .027.326l-.873 4.505L57.5 25.46a.852.852 0 0 1 .716 0l4.569 2.127-.873-4.505a.61.61 0 0 1 .027-.326zM18.738 22.757a.678.678 0 0 1 .194-.278l3.696-3.19-5.107-.658a.827.827 0 0 1-.342-.123.71.71 0 0 1-.238-.25l-2.284-4.099-2.284 4.099a.71.71 0 0 1-.238.25.828.828 0 0 1-.342.123l-5.107.657 3.696 3.19c.089.078.156.173.194.279a.61.61 0 0 1 .027.326l-.873 4.505L14.3 25.46a.852.852 0 0 1 .716 0l4.569 2.127-.873-4.505a.61.61 0 0 1 .027-.326zM69.49 37.62a.395.395 0 0 1 .126-.16L72 35.613l-3.295-.38a.575.575 0 0 1-.22-.071.434.434 0 0 1-.154-.145l-1.474-2.372-1.473 2.372a.435.435 0 0 1-.154.145.575.575 0 0 1-.22.071l-3.296.38L64.1 37.46c.057.044.1.1.125.16.025.061.031.126.018.19l-.563 2.606 2.947-1.23a.602.602 0 0 1 .462 0l2.948 1.23-.563-2.607a.319.319 0 0 1 .017-.188zM7.776 37.62a.395.395 0 0 1 .125-.16l2.385-1.847-3.295-.38a.575.575 0 0 1-.221-.071.435.435 0 0 1-.154-.145l-1.473-2.372-1.474 2.372a.435.435 0 0 1-.153.145.575.575 0 0 1-.221.071L0 35.613l2.385 1.847c.057.044.1.1.125.16.025.061.03.126.017.19l-.563 2.606 2.948-1.23a.602.602 0 0 1 .462 0l2.947 1.23-.563-2.607a.319.319 0 0 1 .018-.188z" fill="#92C9EC"/><path d="M14.914 42.016c4.7-5.01 12.47-8.285 21.261-8.285 8.791 0 16.562 3.274 21.261 8.285" stroke="#92C9EC" stroke-width="2"/></svg>