<svg width="114" height="43" viewBox="0 0 114 43" fill="none" xmlns="http://www.w3.org/2000/svg">
<path d="M56.4949 14.0282L55.6544 11.9683H51.1974L50.3569 14.0282H49.5155L52.9639 5.61848H53.8472L57.2956 14.0282H56.4949ZM53.4254 6.3754L51.449 11.2959H55.4425L53.4254 6.3754ZM58.5558 14.0282V5.61848H61.7098C63.3093 5.61848 64.2322 6.75437 64.2322 8.09912C64.2322 9.44386 63.3072 10.5798 61.7098 10.5798H59.271V14.07H58.5558V14.0282ZM63.4763 8.09912C63.4763 7.04777 62.7194 6.29085 61.6263 6.29085H59.2832V9.90738H61.6263C62.7622 9.90738 63.4763 9.15046 63.4763 8.09912ZM70.8755 14.0282L70.034 11.9683H65.577L64.7355 14.0282H63.894L67.3425 5.61848H68.2257L71.6732 14.0282H70.8755ZM67.806 6.3754L65.8296 11.2959H69.8231L67.806 6.3754ZM72.1357 9.82487C72.1357 7.21689 74.0275 5.4514 76.3838 5.4514C77.7286 5.4514 78.7392 6.04023 79.4533 6.92348L78.8645 7.30043C78.57 6.92295 78.1938 6.61712 77.7642 6.40591C77.3345 6.19471 76.8626 6.08361 76.3838 6.08098C74.4075 6.08098 72.8936 7.59484 72.8936 9.78107C72.8936 11.9673 74.4075 13.4812 76.3838 13.4812C76.8626 13.4785 77.3345 13.3674 77.7642 13.1562C78.1938 12.945 78.57 12.6392 78.8645 12.2617L79.4533 12.6386C78.6964 13.5637 77.7296 14.1525 76.3838 14.1525C73.9877 14.1953 72.1357 12.4288 72.1357 9.82284V9.82487ZM86.9808 14.0282V10.0347H81.6406V14.0282H80.9244V5.61848H81.6395V9.36134H86.9798V5.61848H87.695V14.0282H86.9808ZM89.7875 14.0282V5.61848H95.1277V6.29085H90.5026V9.4021H95.0442V10.0745H90.5026V13.3956H95.1277V14.0679H89.7875V14.0282ZM48.8848 28.1154L50.3569 26.0127C51.2402 26.9377 52.6287 27.7364 54.3932 27.7364C55.9071 27.7364 56.5794 27.0641 56.5794 26.3489C56.5794 24.1627 49.2628 25.6765 49.2628 20.9241C49.2628 18.8214 51.0711 17.0549 54.056 17.0549C56.0731 17.0549 57.7561 17.6437 59.0173 18.8214L57.5034 20.8385C56.4847 19.8707 55.1063 19.451 53.8034 19.451C52.6675 19.451 52.0368 19.9553 52.0368 20.7122C52.0368 22.6886 59.3107 21.3438 59.3107 26.0942C59.3107 28.4068 57.6298 30.1733 54.2231 30.1733C51.826 30.0897 50.0595 29.29 48.8828 28.1134L48.8848 28.1154ZM63.8533 29.8809V19.5794H60.142V17.2362H70.2337V19.5794H66.5336V29.8809H63.8533ZM70.9183 23.5647C70.9183 19.7383 73.6933 17.004 77.5625 17.004C81.3889 17.004 84.164 19.7373 84.164 23.5647C84.164 27.3921 81.3889 30.1254 77.5625 30.1254C73.6933 30.0847 70.9183 27.3503 70.9183 23.5647ZM81.3879 23.5647C81.3879 21.2093 79.8741 19.4021 77.5615 19.4021C75.2062 19.4021 73.6923 21.1686 73.6923 23.5647C73.6923 25.92 75.2062 27.7273 77.5615 27.7273C79.8741 27.7273 81.3879 25.919 81.3879 23.5647ZM93.2033 29.8809L90.7227 25.3821H88.7463V29.8809H86.0548V17.224H91.9839C94.6326 17.224 96.2626 18.9477 96.2626 21.3031C96.2626 23.5311 94.8333 24.7515 93.4875 25.0449L96.3472 29.8809H93.2033ZM93.5089 21.2623C93.5089 20.211 92.7102 19.5814 91.6171 19.5814H88.7483V22.9871H91.608C92.6593 22.9871 93.4998 22.3554 93.4998 21.2633L93.5089 21.2623ZM109.299 29.8809V20.756L105.726 29.8809H104.559L100.994 20.7468V29.8717H98.3021V17.2148H102.087L105.156 25.1203L108.226 17.2148H112.01V29.8717L109.299 29.8809Z" fill="#3C3C3B"/>
<path fill-rule="evenodd" clip-rule="evenodd" d="M30.9062 22.4706H27.2336L17.2194 30.1488H28.9044L15.9663 40.4157H19.5553L35.4967 28.0624H23.7281L30.9062 22.4706Z" fill="#EEA852"/>
<path fill-rule="evenodd" clip-rule="evenodd" d="M16.0303 15.4046H12.4239L2.00928 23.4832L15.3609 23.5494C21.5692 23.5494 27.9781 21.2471 27.9781 15.4371C27.9781 9.62725 21.5019 5.85585 10.6207 9.86155C9.88723 10.6623 6.7495 13.6004 6.21466 14.1352C16.562 8.92737 25.6727 9.19428 25.6727 15.4046C25.6727 21.2807 16.2931 21.2807 15.3589 21.2807H8.54249L16.0303 15.4046Z" fill="#3DA0CA"/>
<path fill-rule="evenodd" clip-rule="evenodd" d="M10.6107 9.86258C9.87717 10.6633 6.73943 13.6014 6.20459 14.1362C8.5151 12.9748 10.7635 12.0834 12.8631 11.4722C14.4259 9.41127 18.6221 3.7878 24.5634 3.7878C30.9051 3.7878 33.0414 7.52659 33.0414 9.73014C33.0414 12.1344 31.2382 13.9376 31.2382 13.9376C31.2382 13.9376 33.9756 14.07 35.3101 14.07C36.6447 14.07 40.4507 14.4704 40.4507 18.1429C40.4507 21.8155 36.1109 22.3503 34.6439 22.3503H27.37L24.4992 24.6221L34.3128 24.6884C38.7189 24.6884 42.7908 22.4848 42.7908 18.145C42.7908 13.8051 39.052 11.8695 35.1808 11.8695C35.5811 11.2022 35.7146 10.5451 35.7146 9.7332C35.7146 8.92126 34.3902 1.58731 24.433 1.58731C18.0149 1.58731 14.0775 6.65047 10.6147 9.86665L10.6107 9.86258Z" fill="#2C6BA3"/>
<path fill-rule="evenodd" clip-rule="evenodd" d="M27.3607 22.3534H31.0648L28.1105 24.6558L24.4399 24.6201L27.3607 22.3534Z" fill="#928680"/>
<path fill-rule="evenodd" clip-rule="evenodd" d="M12.8641 11.4722L12.7959 11.4926C11.2932 11.9816 8.07908 13.311 6.20459 14.1362L10.6107 9.86258C12.2733 9.25133 13.833 8.8204 15.2826 8.55145C14.2028 9.69448 13.3857 10.7927 12.8631 11.4722H12.8641Z" fill="#3288BA"/>
</svg>
