<svg width="472" height="291" fill="none" xmlns="http://www.w3.org/2000/svg"><g filter="url(#filter0_ddd)"><g clip-path="url(#clip0)"><rect x="11" y="10" width="450.051" height="269.599" rx="8.018" fill="#fff"/><mask id="a" maskUnits="userSpaceOnUse" x="11" y="10" width="451" height="270"><rect x="11" y="10" width="450.051" height="269.599" rx="8.018" fill="#fff"/></mask><g mask="url(#a)"><path fill="#ECEFF4" d="M11 10h450.051v37.384H11z"/></g><rect x="29.691" y="104.899" width="92.742" height="5.751" rx="2.876" fill="#E1E8F1"/><rect x="29.691" y="117.84" width="92.742" height="5.751" rx="2.876" fill="#E1E8F1"/><rect x="29.691" y="130.781" width="92.742" height="5.751" rx="2.876" fill="#E1E8F1"/><circle cx="41.554" cy="77.22" r="11.862" fill="#fff"/><mask id="b" maskUnits="userSpaceOnUse" x="29" y="65" width="25" height="25"><circle cx="41.554" cy="77.22" r="11.862" fill="#fff"/></mask><g mask="url(#b)"><path d="M41.128 68.647c.97 0 1.747.62 2.013.929.972-.184 2.914.357 2.914 4 0 3.949.764 5.257 1.539 5.903-.616.738-2.393 1.707-4.051 1.266-.095.451.24 2.538 1.576 2.974 1.335.436 2.905.87 3.554 1.991.49.846.415 1.576.349 2.22v.006c-.02.191-2.544 1.147-7.406 1.147-4.863 0-7.512-.96-7.532-1.15-.066-.647-.14-1.376.35-2.223.649-1.12 2.218-1.555 3.553-1.99 1.335-.437 1.764-2.524 1.67-2.975-1.66.44-3.436-.528-4.051-1.266.774-.646 1.522-1.954 1.522-5.903 0-3.948 2.788-4.929 4-4.929z" fill="#D8DCDF"/></g><rect x="64.2" y="72.547" width="58.233" height="8.627" rx="4.314" fill="#D3DEEB"/><g filter="url(#filter1_d)"><rect x="147.597" y="62.482" width="230.777" height="96.337" rx="5.751" fill="#FEFEFE"/></g><circle cx="164.491" cy="77.939" r="9.706" fill="#EFF1F5"/><mask id="c" maskUnits="userSpaceOnUse" x="154" y="68" width="21" height="20"><circle cx="164.491" cy="77.939" r="9.706" fill="#EFF1F5"/></mask><g mask="url(#c)"><path fill-rule="evenodd" clip-rule="evenodd" d="M171.744 84.174c-.64-.956-2.186-1.681-3.502-2.053-1.315-.371-1.737-1.199-1.644-1.584.094-.385.382-.265.675-.814.249-.468.418-1.562.418-1.562s.6-.199.667-1.101c.067-.903 0-1.235-.227-1.34-.226-.107-.32-.094-.32-.094s.148-1.284.149-1.553c.002-.34.032-.675-.063-1.022-.346-1.247-1.78-1.778-3.443-1.752-1.664.027-1.69.531-2.035.903-.346.371-.576.08-.884.65-.185.345-.006 1.978-.006 1.978.056.452.118.796.118.796s-.093-.013-.32.093c-.226.106-.293.438-.226 1.341.066.902.666 1.101.666 1.101s.169 1.094.419 1.562c.292.549.581.43.674.814.094.385-.329 1.213-1.644 1.584-1.315.372-2.862 1.097-3.502 2.053-.483.723-.408 1.942-.343 2.493.02.163 2.629.978 7.42.978s7.277-.815 7.296-.978c.066-.551.141-1.77-.343-2.493z" fill="#D8DCDF"/></g><rect x="184.262" y="72.547" width="92.742" height="8.627" rx="4.314" fill="#D3DEEB"/><rect x="184.262" y="96.272" width="96.337" height="5.751" rx="2.876" fill="#E1E8F1"/><rect x="291.383" y="96.272" width="61.109" height="5.751" rx="2.876" fill="#E1E8F1"/><rect x="184.262" y="135.094" width="114.31" height="5.751" rx="2.876" fill="#E1E8F1"/><rect x="184.262" y="109.212" width="59.671" height="5.751" rx="2.876" fill="#E1E8F1"/><rect x="254.718" y="109.212" width="97.775" height="5.751" rx="2.876" fill="#E1E8F1"/><rect x="184.262" y="122.153" width="92.742" height="5.751" rx="2.876" fill="#E1E8F1"/><rect x="287.788" y="122.153" width="25.163" height="5.751" rx="2.876" fill="#E1E8F1"/><rect x="323.735" y="122.153" width="28.757" height="5.751" rx="2.876" fill="#E1E8F1"/><g filter="url(#filter2_d)"><rect x="147.597" y="171.759" width="230.777" height="96.337" rx="5.751" fill="#FEFEFE"/></g><circle cx="164.491" cy="187.216" r="9.706" fill="#EFF1F5"/><mask id="d" maskUnits="userSpaceOnUse" x="154" y="177" width="21" height="20"><circle cx="164.491" cy="187.216" r="9.706" fill="#EFF1F5"/></mask><g mask="url(#d)"><path fill-rule="evenodd" clip-rule="evenodd" d="M171.744 193.452c-.64-.956-2.186-1.682-3.502-2.053-1.315-.372-1.737-1.199-1.644-1.584.094-.385.382-.266.675-.815.249-.468.418-1.561.418-1.561s.6-.199.667-1.102c.067-.902 0-1.234-.227-1.34-.226-.107-.32-.093-.32-.093s.148-1.284.149-1.553c.002-.341.032-.675-.063-1.022-.346-1.248-1.78-1.779-3.443-1.752-1.664.026-1.69.531-2.035.902-.346.372-.576.08-.884.651-.185.345-.006 1.977-.006 1.977.056.452.118.797.118.797s-.093-.014-.32.093c-.226.106-.293.438-.226 1.34.066.903.666 1.102.666 1.102s.169 1.093.419 1.561c.292.549.581.43.674.815.094.385-.329 1.212-1.644 1.584-1.315.371-2.862 1.097-3.502 2.053-.483.722-.408 1.941-.343 2.492.02.163 2.629.978 7.42.978s7.277-.815 7.296-.978c.066-.551.141-1.77-.343-2.492z" fill="#D8DCDF"/></g><rect x="184.262" y="181.824" width="92.742" height="8.627" rx="4.314" fill="#D3DEEB"/><rect x="184.262" y="205.549" width="96.337" height="5.751" rx="2.876" fill="#E1E8F1"/><rect x="291.383" y="205.549" width="61.109" height="5.751" rx="2.876" fill="#E1E8F1"/><rect x="184.262" y="244.372" width="114.31" height="5.751" rx="2.876" fill="#E1E8F1"/><rect x="184.262" y="218.49" width="59.671" height="5.751" rx="2.876" fill="#E1E8F1"/><rect x="254.718" y="218.49" width="97.775" height="5.751" rx="2.876" fill="#E1E8F1"/><rect x="184.262" y="231.431" width="92.742" height="5.751" rx="2.876" fill="#E1E8F1"/><rect x="287.788" y="231.431" width="25.163" height="5.751" rx="2.876" fill="#E1E8F1"/><rect x="323.735" y="231.431" width="28.757" height="5.751" rx="2.876" fill="#E1E8F1"/><circle cx="38.679" cy="29.77" r="5.392" fill="#BDCCDD"/><circle cx="58.809" cy="29.77" r="5.392" fill="#BDCCDD"/><circle cx="78.939" cy="29.77" r="5.392" fill="#BDCCDD"/><rect x="154.786" y="23.029" width="217.836" height="8.627" rx="4.314" fill="#fff"/><rect x="251.534" y="106.214" width="105.234" height="12.027" rx="6.013" fill="#26CB6D" fill-opacity=".2" stroke="#26CB6D" stroke-width="1.002" stroke-dasharray="3.31 3.31"/><rect x="179.374" y="202.428" width="105.234" height="12.027" rx="6.013" fill="#F2BE3B" fill-opacity=".2" stroke="#F2BE3B" stroke-width="1.002" stroke-dasharray="3.31 3.31"/><rect x="284.608" y="228.485" width="72.16" height="12.027" rx="6.013" fill="#FD7B68" fill-opacity=".2" stroke="#FD7B68" stroke-width="1.002" stroke-dasharray="3.31 3.31"/><g filter="url(#filter3_ddd)"><circle cx="424.121" cy="182.587" r="23.255" fill="#fff"/></g><path d="M418.364 187.309c0 .499.209.975.575 1.314l3.732 3.447 1.077 4.278a2.545 2.545 0 002.51-2.124l.178-1.062a6.345 6.345 0 00-.013-2.182l-.521-2.889h8.56c.988 0 1.789-.801 1.789-1.788v-2.11c0-.606-.123-1.205-.362-1.761l-3.069-7.163a2.684 2.684 0 00-2.466-1.626h-10.201c-.988 0-1.789.801-1.789 1.789v11.877zM414.237 188.091h2.752v-14.448h-2.752z" fill="#FD7B68"/><path d="M356.769 112.227h23.552a4.01 4.01 0 004.009-4.009V95.189a4.009 4.009 0 014.009-4.009h10.523" stroke="#26CB6D" stroke-width="1.002" stroke-dasharray="3.31 3.31"/><path d="M356.769 234.499h23.552a4.01 4.01 0 004.009-4.009v-43.597a4.01 4.01 0 014.009-4.009h12.528" stroke="#FD7B68" stroke-width="1.002" stroke-dasharray="3.31 3.31"/><path d="M178.372 208.441h-63.14" stroke="#F2BE3B" stroke-width="1.002" stroke-dasharray="3.31 3.31"/><g filter="url(#filter4_ddd)"><circle cx="421.115" cy="92.386" r="23.255" fill="#fff"/></g><path d="M415.358 88.01c0-.5.209-.976.575-1.315l3.733-3.447 1.076-4.278c1.243 0 2.305.898 2.51 2.124l.178 1.062a6.348 6.348 0 01-.013 2.182l-.521 2.889h8.56c.988 0 1.789.8 1.789 1.788v2.11c0 .605-.123 1.205-.362 1.761l-3.069 7.163a2.684 2.684 0 01-2.466 1.626h-10.201a1.789 1.789 0 01-1.789-1.789V88.01zM411.231 87.226h2.752v14.448h-2.752z" fill="#26CB6D"/><g filter="url(#filter5_ddd)"><circle cx="92.384" cy="209.647" r="23.255" fill="#fff"/></g><path d="M85.684 213.576c0-1.218.148-2.188.444-2.91.296-.722.835-1.431 1.618-2.127.792-.705 1.318-1.274 1.58-1.709.26-.444.39-.91.39-1.397 0-1.47-.678-2.205-2.035-2.205-.644 0-1.161.2-1.553.6-.383.392-.583.935-.6 1.631h-3.785c.018-1.661.553-2.962 1.606-3.902 1.061-.939 2.505-1.409 4.332-1.409 1.844 0 3.276.448 4.294 1.344 1.017.888 1.526 2.145 1.526 3.772a4.64 4.64 0 01-.496 2.101c-.33.652-.909 1.379-1.735 2.179l-1.057 1.005c-.661.635-1.04 1.379-1.135 2.231l-.053.796h-3.34zm-.378 4.007c0-.583.196-1.062.587-1.436.4-.383.91-.574 1.527-.574.618 0 1.123.191 1.514.574.4.374.6.853.6 1.436 0 .574-.196 1.048-.587 1.422-.383.374-.892.561-1.527.561-.635 0-1.148-.187-1.54-.561-.382-.374-.574-.848-.574-1.422zm14.446-4.007H96.62l-.443-13.167h4.019l-.444 13.167zm-1.566 2.062c.635 0 1.144.187 1.527.561.392.375.587.853.587 1.436 0 .574-.195 1.048-.587 1.422-.383.374-.892.561-1.527.561-.626 0-1.135-.187-1.527-.561-.382-.374-.574-.848-.574-1.422s.192-1.048.574-1.423c.392-.382.9-.574 1.527-.574z" fill="#F2BE3B"/></g></g><defs><filter id="filter0_ddd" x=".978" y=".98" width="470.045" height="289.644" filterUnits="userSpaceOnUse" color-interpolation-filters="sRGB"><feFlood flood-opacity="0" result="BackgroundImageFix"/><feColorMatrix in="SourceAlpha" values="0 0 0 0 0 0 0 0 0 0 0 0 0 0 0 0 0 0 127 0"/><feOffset dy="1.002"/><feGaussianBlur stdDeviation="5.011"/><feColorMatrix values="0 0 0 0 0.317647 0 0 0 0 0.662745 0 0 0 0 0.882353 0 0 0 0.2 0"/><feBlend in2="BackgroundImageFix" result="effect1_dropShadow"/><feColorMatrix in="SourceAlpha" values="0 0 0 0 0 0 0 0 0 0 0 0 0 0 0 0 0 0 127 0"/><feOffset dy="4.009"/><feGaussianBlur stdDeviation="2.506"/><feColorMatrix values="0 0 0 0 0.317647 0 0 0 0 0.662745 0 0 0 0 0.882353 0 0 0 0.12 0"/><feBlend in2="effect1_dropShadow" result="effect2_dropShadow"/><feColorMatrix in="SourceAlpha" values="0 0 0 0 0 0 0 0 0 0 0 0 0 0 0 0 0 0 127 0"/><feOffset dy="2.004"/><feGaussianBlur stdDeviation="2.004"/><feColorMatrix values="0 0 0 0 0.317647 0 0 0 0 0.662745 0 0 0 0 0.882353 0 0 0 0.14 0"/><feBlend in2="effect2_dropShadow" result="effect3_dropShadow"/><feBlend in="SourceGraphic" in2="effect3_dropShadow" result="shape"/></filter><filter id="filter1_d" x="143.588" y="60.477" width="238.795" height="104.355" filterUnits="userSpaceOnUse" color-interpolation-filters="sRGB"><feFlood flood-opacity="0" result="BackgroundImageFix"/><feColorMatrix in="SourceAlpha" values="0 0 0 0 0 0 0 0 0 0 0 0 0 0 0 0 0 0 127 0"/><feOffset dy="2.004"/><feGaussianBlur stdDeviation="2.004"/><feColorMatrix values="0 0 0 0 0.882353 0 0 0 0 0.909804 0 0 0 0 0.945098 0 0 0 1 0"/><feBlend in2="BackgroundImageFix" result="effect1_dropShadow"/><feBlend in="SourceGraphic" in2="effect1_dropShadow" result="shape"/></filter><filter id="filter2_d" x="143.588" y="169.755" width="238.795" height="104.355" filterUnits="userSpaceOnUse" color-interpolation-filters="sRGB"><feFlood flood-opacity="0" result="BackgroundImageFix"/><feColorMatrix in="SourceAlpha" values="0 0 0 0 0 0 0 0 0 0 0 0 0 0 0 0 0 0 127 0"/><feOffset dy="2.004"/><feGaussianBlur stdDeviation="2.004"/><feColorMatrix values="0 0 0 0 0.882353 0 0 0 0 0.909804 0 0 0 0 0.945098 0 0 0 1 0"/><feBlend in2="BackgroundImageFix" result="effect1_dropShadow"/><feBlend in="SourceGraphic" in2="effect1_dropShadow" result="shape"/></filter><filter id="filter3_ddd" x="391.922" y="151.282" width="64.399" height="64.399" filterUnits="userSpaceOnUse" color-interpolation-filters="sRGB"><feFlood flood-opacity="0" result="BackgroundImageFix"/><feColorMatrix in="SourceAlpha" values="0 0 0 0 0 0 0 0 0 0 0 0 0 0 0 0 0 0 127 0"/><feOffset dy=".894"/><feGaussianBlur stdDeviation="4.472"/><feColorMatrix values="0 0 0 0 0.317647 0 0 0 0 0.662745 0 0 0 0 0.882353 0 0 0 0.2 0"/><feBlend in2="BackgroundImageFix" result="effect1_dropShadow"/><feColorMatrix in="SourceAlpha" values="0 0 0 0 0 0 0 0 0 0 0 0 0 0 0 0 0 0 127 0"/><feOffset dy="3.578"/><feGaussianBlur stdDeviation="2.236"/><feColorMatrix values="0 0 0 0 0.317647 0 0 0 0 0.662745 0 0 0 0 0.882353 0 0 0 0.12 0"/><feBlend in2="effect1_dropShadow" result="effect2_dropShadow"/><feColorMatrix in="SourceAlpha" values="0 0 0 0 0 0 0 0 0 0 0 0 0 0 0 0 0 0 127 0"/><feOffset dy="1.789"/><feGaussianBlur stdDeviation="1.789"/><feColorMatrix values="0 0 0 0 0.317647 0 0 0 0 0.662745 0 0 0 0 0.882353 0 0 0 0.14 0"/><feBlend in2="effect2_dropShadow" result="effect3_dropShadow"/><feBlend in="SourceGraphic" in2="effect3_dropShadow" result="shape"/></filter><filter id="filter4_ddd" x="388.915" y="61.081" width="64.399" height="64.399" filterUnits="userSpaceOnUse" color-interpolation-filters="sRGB"><feFlood flood-opacity="0" result="BackgroundImageFix"/><feColorMatrix in="SourceAlpha" values="0 0 0 0 0 0 0 0 0 0 0 0 0 0 0 0 0 0 127 0"/><feOffset dy=".894"/><feGaussianBlur stdDeviation="4.472"/><feColorMatrix values="0 0 0 0 0.317647 0 0 0 0 0.662745 0 0 0 0 0.882353 0 0 0 0.2 0"/><feBlend in2="BackgroundImageFix" result="effect1_dropShadow"/><feColorMatrix in="SourceAlpha" values="0 0 0 0 0 0 0 0 0 0 0 0 0 0 0 0 0 0 127 0"/><feOffset dy="3.578"/><feGaussianBlur stdDeviation="2.236"/><feColorMatrix values="0 0 0 0 0.317647 0 0 0 0 0.662745 0 0 0 0 0.882353 0 0 0 0.12 0"/><feBlend in2="effect1_dropShadow" result="effect2_dropShadow"/><feColorMatrix in="SourceAlpha" values="0 0 0 0 0 0 0 0 0 0 0 0 0 0 0 0 0 0 127 0"/><feOffset dy="1.789"/><feGaussianBlur stdDeviation="1.789"/><feColorMatrix values="0 0 0 0 0.317647 0 0 0 0 0.662745 0 0 0 0 0.882353 0 0 0 0.14 0"/><feBlend in2="effect2_dropShadow" result="effect3_dropShadow"/><feBlend in="SourceGraphic" in2="effect3_dropShadow" result="shape"/></filter><filter id="filter5_ddd" x="60.185" y="178.342" width="64.399" height="64.399" filterUnits="userSpaceOnUse" color-interpolation-filters="sRGB"><feFlood flood-opacity="0" result="BackgroundImageFix"/><feColorMatrix in="SourceAlpha" values="0 0 0 0 0 0 0 0 0 0 0 0 0 0 0 0 0 0 127 0"/><feOffset dy=".894"/><feGaussianBlur stdDeviation="4.472"/><feColorMatrix values="0 0 0 0 0.317647 0 0 0 0 0.662745 0 0 0 0 0.882353 0 0 0 0.2 0"/><feBlend in2="BackgroundImageFix" result="effect1_dropShadow"/><feColorMatrix in="SourceAlpha" values="0 0 0 0 0 0 0 0 0 0 0 0 0 0 0 0 0 0 127 0"/><feOffset dy="3.578"/><feGaussianBlur stdDeviation="2.236"/><feColorMatrix values="0 0 0 0 0.317647 0 0 0 0 0.662745 0 0 0 0 0.882353 0 0 0 0.12 0"/><feBlend in2="effect1_dropShadow" result="effect2_dropShadow"/><feColorMatrix in="SourceAlpha" values="0 0 0 0 0 0 0 0 0 0 0 0 0 0 0 0 0 0 127 0"/><feOffset dy="1.789"/><feGaussianBlur stdDeviation="1.789"/><feColorMatrix values="0 0 0 0 0.317647 0 0 0 0 0.662745 0 0 0 0 0.882353 0 0 0 0.14 0"/><feBlend in2="effect2_dropShadow" result="effect3_dropShadow"/><feBlend in="SourceGraphic" in2="effect3_dropShadow" result="shape"/></filter><clipPath id="clip0"><path fill="#fff" d="M11 10h450v269.599H11z"/></clipPath></defs></svg>