<svg width="575" height="349" fill="none" xmlns="http://www.w3.org/2000/svg"><g filter="url(#filter0_ddd)"><g clip-path="url(#clip0)"><rect x="14" y="67" width="204.932" height="263.616" rx="7.452" fill="#fff"/><path fill="#ECEFF4" d="M14 67h204.932v25.151H14z"/><circle cx="43.301" cy="150.329" r="18.124" fill="#EFF1F5"/><mask id="a" maskUnits="userSpaceOnUse" x="25" y="132" width="37" height="37"><circle cx="43.301" cy="150.329" r="18.124" fill="#EFF1F5"/></mask><g mask="url(#a)"><path fill-rule="evenodd" clip-rule="evenodd" d="M56.88 161.973c-1.196-1.785-4.084-3.14-6.54-3.834-2.457-.694-3.245-2.239-3.07-2.958.174-.719.712-.495 1.259-1.521.465-.874.782-2.916.782-2.916s1.12-.371 1.245-2.056c.124-1.686 0-2.306-.424-2.504-.423-.198-.598-.173-.598-.173s.277-2.398.28-2.9c.001-.637.059-1.261-.12-1.909-.646-2.329-3.323-3.321-6.43-3.272-3.108.05-3.156.992-3.8 1.686-.646.694-1.076.148-1.65 1.214-.347.645-.012 3.694-.012 3.694.104.844.22 1.487.22 1.487s-.174-.025-.597.173c-.423.198-.548.818-.423 2.504.124 1.685 1.244 2.056 1.244 2.056s.317 2.042.783 2.916c.545 1.026 1.085.802 1.26 1.521.174.719-.615 2.264-3.072 2.958-2.456.694-5.344 2.049-6.54 3.834-.902 1.349-.762 3.625-.64 4.654.036.305 4.91 1.826 13.857 1.826s13.59-1.521 13.626-1.826c.122-1.029.263-3.305-.64-4.654z" fill="#BDCCDD"/></g><rect x="76.411" y="139.658" width="108.986" height="7.452" rx="3.726" fill="#E1E8F1"/><rect x="72.99" y="137.384" width="105" height="12" rx="6" fill="#F2BE3B" fill-opacity=".2" stroke="#F2BE3B" stroke-dasharray="3.3 3.3"/><rect x="76.411" y="155.493" width="75.452" height="7.452" rx="3.726" fill="#E1E8F1"/><circle cx="43.301" cy="293.781" r="18.124" fill="#EFF1F5"/><mask id="b" maskUnits="userSpaceOnUse" x="25" y="275" width="37" height="37"><circle cx="43.301" cy="293.781" r="18.124" fill="#EFF1F5"/></mask><g mask="url(#b)"><path fill-rule="evenodd" clip-rule="evenodd" d="M56.88 305.425c-1.196-1.785-4.084-3.14-6.54-3.834-2.457-.694-3.245-2.239-3.07-2.958.174-.719.712-.495 1.259-1.521.465-.874.782-2.915.782-2.915s1.12-.372 1.245-2.057c.124-1.686 0-2.306-.424-2.504-.423-.198-.598-.173-.598-.173s.277-2.398.28-2.9c.001-.636.059-1.261-.12-1.909-.646-2.329-3.323-3.321-6.43-3.271-3.108.049-3.156.991-3.8 1.685-.646.694-1.076.149-1.65 1.215-.347.644-.012 3.693-.012 3.693.104.844.22 1.487.22 1.487s-.174-.025-.597.173c-.423.198-.548.818-.423 2.504.124 1.685 1.244 2.057 1.244 2.057s.317 2.041.783 2.915c.545 1.026 1.085.802 1.26 1.521.174.719-.615 2.264-3.072 2.958-2.456.694-5.344 2.049-6.54 3.834-.902 1.349-.762 3.625-.64 4.654.036.305 4.91 1.826 13.857 1.826s13.59-1.521 13.626-1.826c.122-1.029.263-3.305-.64-4.654z" fill="#BDCCDD"/></g><rect x="76.411" y="283.109" width="108.986" height="7.452" rx="3.726" fill="#E1E8F1"/><rect x="76.411" y="298.945" width="59.399" height="7.452" rx="3.726" fill="#E1E8F1"/><rect x="143.527" y="298.945" width="56.977" height="7.452" rx="3.726" fill="#E1E8F1"/><rect x="72.99" y="296.671" width="131.146" height="12" rx="6" fill="#26CB6D" fill-opacity=".2" stroke="#26CB6D" stroke-dasharray="3.3 3.3"/><rect x="25.178" y="186.233" width="183.507" height="66.137" rx="7.452" fill="#F5F7FA"/><path d="M121.123 242.123l30.274-30.274 40.055 40.055" stroke="#BDCCDD" stroke-width=".932"/><path d="M52.191 251.439l38.192-46.576 39.123 46.576" stroke="#BDCCDD" stroke-width=".932"/><circle cx="129.507" cy="203" r="7.918" stroke="#BDCCDD" stroke-width=".932"/><circle cx="32.165" cy="79.575" r="3.26" fill="#BDCCDD"/><circle cx="46.137" cy="79.575" r="3.26" fill="#BDCCDD"/><circle cx="60.11" cy="79.575" r="3.26" fill="#BDCCDD"/><path d="M116.569 109.712l.054.886-.909-.108c-3.307-.416-6.196-1.827-8.65-4.197l-1.199-1.176-.309.868c-.654 1.936-.236 3.98 1.127 5.355.726.76.563.868-.691.416-.436-.145-.818-.253-.854-.199-.127.127.309 1.773.654 2.424.473.904 1.436 1.791 2.49 2.315l.89.416-1.054.018c-1.017 0-1.054.019-.945.398.364 1.176 1.799 2.424 3.399 2.967l1.126.38-.981.579a10.353 10.353 0 01-4.87 1.339c-.818.018-1.491.09-1.491.144 0 .181 2.218 1.194 3.508 1.592 3.871 1.176 8.468.669 11.921-1.339 2.453-1.429 4.907-4.269 6.052-7.018.618-1.466 1.235-4.143 1.235-5.427 0-.832.055-.941 1.073-1.936.599-.579 1.163-1.212 1.272-1.393.181-.343.163-.343-.764-.036-1.544.543-1.762.471-.999-.343.563-.579 1.236-1.629 1.236-1.936 0-.054-.273.036-.582.199-.327.181-1.054.452-1.599.615l-.981.308-.891-.597c-.491-.326-1.181-.688-1.545-.796-.926-.254-2.344-.217-3.18.072-2.271.814-3.707 2.912-3.543 5.21z" fill="#3CB3F7"/></g></g><g filter="url(#filter1_ddd)"><g clip-path="url(#clip1)"><rect x="178.433" y="10" width="385.568" height="277" rx="7.561" fill="#fff"/><path fill="#ECEFF4" d="M178.117 10h386.582v25.366H178.117z"/><circle cx="196.473" cy="22.982" r="3.308" fill="#BDCCDD"/><circle cx="210.651" cy="22.982" r="3.308" fill="#BDCCDD"/><circle cx="224.829" cy="22.982" r="3.308" fill="#BDCCDD"/><circle cx="479.277" cy="210.394" r="21.815" fill="#C4C4C4"/></g></g><g filter="url(#filter2_d)"><rect x="203.562" y="46.527" width="339.311" height="105.58" rx="5.199" fill="#fff"/></g><rect x="291.667" y="62.546" width="194.412" height="10.922" rx="5.461" fill="#D3DEEB"/><rect x="291.667" y="90.944" width="206.79" height="5.825" rx="2.913" fill="#E1E8F1"/><rect x="291.667" y="104.05" width="152.18" height="5.825" rx="2.913" fill="#E1E8F1"/><rect x="290.938" y="116.429" width="187.131" height="5.825" rx="2.913" fill="#E1E8F1"/><rect x="291.667" y="132.953" width="54.585" height="12.347" rx="6.173" fill="#E1E8F1"/><rect x="302.063" y="137.502" width="32.491" height="3.249" rx="1.625" fill="#D3DEEB"/><rect x="217.209" y="62.773" width="53.935" height="70.83" rx="5.199" fill="#F7F7FB"/><path d="M240.255 75.12h7.843c0 1.378.102 3.031 9.377 6.89 1.307.459 3.921 2.066 3.921 4.822 0 3.445-1.364 4.478-1.364 6.89 0 2.411 1.364 3.789 1.364 6.2 0 2.412-1.875 3.79-1.875 7.234 0 3.445.852 2.067.852 5.857 0 3.031-1.023 4.593-1.534 4.995l-7.843-.689v-8.096h-13.64v8.096l-7.842.689c-.512-.402-1.535-1.964-1.535-4.995 0-3.79.853-2.412.853-5.857 0-3.444-1.876-4.822-1.876-7.234 0-2.411 1.364-3.789 1.364-6.2 0-2.412-1.364-3.445-1.364-6.89 0-2.756 2.614-4.363 3.921-4.823 9.276-3.858 9.378-5.511 9.378-6.89z" fill="#CEDDF9" stroke="#A5C6FA" stroke-width=".65"/><path d="M233.454 91.365l1.362 17.545h18.721l1.361-17.545" stroke="#A5C6FA" stroke-width=".65"/><circle cx="236.703" cy="140.101" r="1.949" fill="#ADACCC"/><circle cx="244.502" cy="140.101" r="1.949" fill="#E1E8F1"/><circle cx="252.299" cy="140.101" r="1.949" fill="#E1E8F1"/><g filter="url(#filter3_d)"><rect x="204.813" y="164.227" width="220.179" height="105.524" rx="5.199" fill="#fff"/></g><path stroke="url(#paint0_linear)" stroke-width="1.015" d="M237.79 182.491v77.113"/><path stroke="url(#paint1_linear)" stroke-width="1.015" d="M270.258 182.491v77.113"/><path stroke="url(#paint2_linear)" stroke-width="1.015" d="M302.727 182.491v77.113"/><path stroke="url(#paint3_linear)" stroke-width="1.015" d="M335.196 182.491v77.113"/><path stroke="url(#paint4_linear)" stroke-width="1.015" d="M367.665 182.491v77.113"/><path stroke="url(#paint5_linear)" stroke-width="1.015" d="M400.133 182.491v77.113"/><g filter="url(#filter4_d)"><rect x="436.154" y="164.227" width="105.524" height="105.524" rx="5.199" fill="#fff"/></g><path d="M488.408 175.388a26.894 26.894 0 00-24.842 16.599 26.89 26.89 0 1024.842-16.599h0z" stroke="#E1E8F1" stroke-width="4.059" stroke-linecap="round"/><path d="M467.69 219.416a26.9 26.9 0 0010.819 7.861 26.892 26.892 0 0036.734-26.689 26.893 26.893 0 00-26.835-25.2" stroke="#77BCE8" stroke-width="4.059" stroke-linecap="round"/><path d="M476.88 208.871c-1.753 0-3.068-.584-3.945-1.753-.877-1.169-1.315-2.679-1.315-4.53 0-1.887.505-3.409 1.516-4.566 1.011-1.156 2.399-1.735 4.164-1.735 1.413 0 2.612.42 3.598 1.261l-1.169 1.99c-.669-.633-1.479-.949-2.429-.949-.889 0-1.619.334-2.191 1.004-.573.658-.859 1.473-.859 2.447 0 .11.006.195.018.256.305-.438.743-.81 1.315-1.114a3.804 3.804 0 011.808-.457c1.157 0 2.137.353 2.941 1.06.804.694 1.205 1.662 1.205 2.904 0 1.205-.432 2.203-1.296 2.995-.865.791-1.985 1.187-3.361 1.187zm-.146-2.301c.657 0 1.181-.183 1.571-.548.401-.365.602-.779.602-1.242 0-.597-.219-1.047-.657-1.352-.438-.316-.974-.474-1.607-.474-.974 0-1.766.383-2.375 1.15.061.682.293 1.266.694 1.754.402.474.993.712 1.772.712zm14.253 2.082h-2.593v-2.521h-5.827v-2.045l4.84-7.616h3.58v7.378h1.571v2.283h-1.571v2.521zm-2.593-4.804v-5.077l-3.288 5.077h3.288zm8.176-1.497c-.913 0-1.656-.28-2.228-.84-.573-.573-.859-1.291-.859-2.155 0-.877.286-1.608.859-2.192.572-.584 1.315-.877 2.228-.877.925 0 1.674.293 2.246.877.573.584.859 1.315.859 2.192 0 .864-.286 1.582-.859 2.155-.572.56-1.321.84-2.246.84zm.182 6.301h-1.369l7.78-12.182h1.388l-7.799 12.182zm8.749-.639c-.572.572-1.315.858-2.228.858-.914 0-1.656-.286-2.229-.858-.572-.573-.858-1.291-.858-2.155 0-.877.286-1.608.858-2.192.573-.585 1.315-.877 2.229-.877.913 0 1.656.292 2.228.877.584.584.876 1.315.876 2.192 0 .864-.292 1.582-.876 2.155zm-8.931-7.087c.426 0 .773-.14 1.041-.42.268-.292.402-.676.402-1.15 0-.5-.134-.895-.402-1.188-.268-.292-.615-.438-1.041-.438-.426 0-.773.146-1.041.438-.268.293-.402.688-.402 1.188 0 .462.134.84.402 1.132.28.292.627.438 1.041.438zm5.662 6.1c.267.28.614.42 1.041.42.426 0 .773-.14 1.041-.42.28-.292.42-.681.42-1.168 0-.5-.14-.895-.42-1.188-.268-.292-.615-.438-1.041-.438-.427 0-.774.146-1.041.438-.268.293-.402.688-.402 1.188 0 .487.134.876.402 1.168z" fill="#77BCE8"/><rect x="451.374" y="241.341" width="76.099" height="6.088" rx="3.044" fill="#E1E8F1"/><rect x="459.491" y="255.546" width="59.864" height="6.088" rx="3.044" fill="#E1E8F1"/><rect x="291.059" y="173.359" width="59.864" height="6.088" rx="3.044" fill="#E1E8F1"/><path d="M213.945 250.472l43.035-17.886 45.3 7.666 41.903-21.974 46.999-7.155 21.635-25.081" stroke="url(#paint6_linear)" stroke-width="4.059" stroke-linecap="round"/><defs><linearGradient id="paint0_linear" x1="237.782" y1="182.998" x2="237.267" y2="259.604" gradientUnits="userSpaceOnUse"><stop stop-color="#F0F5FC" stop-opacity="0"/><stop offset=".323" stop-color="#F0F5FC"/><stop offset="1" stop-color="#F0F5FC"/></linearGradient><linearGradient id="paint1_linear" x1="270.251" y1="182.998" x2="269.736" y2="259.604" gradientUnits="userSpaceOnUse"><stop stop-color="#F0F5FC" stop-opacity="0"/><stop offset=".323" stop-color="#F0F5FC"/><stop offset="1" stop-color="#F0F5FC"/></linearGradient><linearGradient id="paint2_linear" x1="302.72" y1="182.998" x2="302.205" y2="259.604" gradientUnits="userSpaceOnUse"><stop stop-color="#F0F5FC" stop-opacity="0"/><stop offset=".323" stop-color="#F0F5FC"/><stop offset="1" stop-color="#F0F5FC"/></linearGradient><linearGradient id="paint3_linear" x1="335.188" y1="182.998" x2="334.674" y2="259.604" gradientUnits="userSpaceOnUse"><stop stop-color="#F0F5FC" stop-opacity="0"/><stop offset=".323" stop-color="#F0F5FC"/><stop offset="1" stop-color="#F0F5FC"/></linearGradient><linearGradient id="paint4_linear" x1="367.657" y1="182.998" x2="367.142" y2="259.604" gradientUnits="userSpaceOnUse"><stop stop-color="#F0F5FC" stop-opacity="0"/><stop offset=".323" stop-color="#F0F5FC"/><stop offset="1" stop-color="#F0F5FC"/></linearGradient><linearGradient id="paint5_linear" x1="400.126" y1="182.998" x2="399.611" y2="259.604" gradientUnits="userSpaceOnUse"><stop stop-color="#F0F5FC" stop-opacity="0"/><stop offset=".323" stop-color="#F0F5FC"/><stop offset="1" stop-color="#F0F5FC"/></linearGradient><linearGradient id="paint6_linear" x1="214.512" y1="250.983" x2="407.961" y2="166.947" gradientUnits="userSpaceOnUse"><stop stop-color="#FD7B68"/><stop offset=".51" stop-color="#FFC92D"/><stop offset="1" stop-color="#4DCC7E"/></linearGradient><filter id="filter0_ddd" x="0" y="56" width="232.932" height="292.616" filterUnits="userSpaceOnUse" color-interpolation-filters="sRGB"><feFlood flood-opacity="0" result="BackgroundImageFix"/><feColorMatrix in="SourceAlpha" values="0 0 0 0 0 0 0 0 0 0 0 0 0 0 0 0 0 0 127 0"/><feOffset dy="4"/><feGaussianBlur stdDeviation="2.5"/><feColorMatrix values="0 0 0 0 0.317647 0 0 0 0 0.662745 0 0 0 0 0.882353 0 0 0 0.2 0"/><feBlend in2="BackgroundImageFix" result="effect1_dropShadow"/><feColorMatrix in="SourceAlpha" values="0 0 0 0 0 0 0 0 0 0 0 0 0 0 0 0 0 0 127 0"/><feOffset dy="3"/><feGaussianBlur stdDeviation="7"/><feColorMatrix values="0 0 0 0 0.317647 0 0 0 0 0.662745 0 0 0 0 0.882353 0 0 0 0.12 0"/><feBlend in2="effect1_dropShadow" result="effect2_dropShadow"/><feColorMatrix in="SourceAlpha" values="0 0 0 0 0 0 0 0 0 0 0 0 0 0 0 0 0 0 127 0"/><feOffset dy="8"/><feGaussianBlur stdDeviation="5"/><feColorMatrix values="0 0 0 0 0.317647 0 0 0 0 0.662745 0 0 0 0 0.882353 0 0 0 0.14 0"/><feBlend in2="effect2_dropShadow" result="effect3_dropShadow"/><feBlend in="SourceGraphic" in2="effect3_dropShadow" result="shape"/></filter><filter id="filter1_ddd" x="168.286" y=".868" width="405.861" height="297.293" filterUnits="userSpaceOnUse" color-interpolation-filters="sRGB"><feFlood flood-opacity="0" result="BackgroundImageFix"/><feColorMatrix in="SourceAlpha" values="0 0 0 0 0 0 0 0 0 0 0 0 0 0 0 0 0 0 127 0"/><feOffset dy="1.015"/><feGaussianBlur stdDeviation="5.073"/><feColorMatrix values="0 0 0 0 0.317647 0 0 0 0 0.662745 0 0 0 0 0.882353 0 0 0 0.2 0"/><feBlend in2="BackgroundImageFix" result="effect1_dropShadow"/><feColorMatrix in="SourceAlpha" values="0 0 0 0 0 0 0 0 0 0 0 0 0 0 0 0 0 0 127 0"/><feOffset dy="4.059"/><feGaussianBlur stdDeviation="2.537"/><feColorMatrix values="0 0 0 0 0.317647 0 0 0 0 0.662745 0 0 0 0 0.882353 0 0 0 0.12 0"/><feBlend in2="effect1_dropShadow" result="effect2_dropShadow"/><feColorMatrix in="SourceAlpha" values="0 0 0 0 0 0 0 0 0 0 0 0 0 0 0 0 0 0 127 0"/><feOffset dy="2.029"/><feGaussianBlur stdDeviation="2.029"/><feColorMatrix values="0 0 0 0 0.317647 0 0 0 0 0.662745 0 0 0 0 0.882353 0 0 0 0.14 0"/><feBlend in2="effect2_dropShadow" result="effect3_dropShadow"/><feBlend in="SourceGraphic" in2="effect3_dropShadow" result="shape"/></filter><filter id="filter2_d" x="199.504" y="44.498" width="347.428" height="113.697" filterUnits="userSpaceOnUse" color-interpolation-filters="sRGB"><feFlood flood-opacity="0" result="BackgroundImageFix"/><feColorMatrix in="SourceAlpha" values="0 0 0 0 0 0 0 0 0 0 0 0 0 0 0 0 0 0 127 0"/><feOffset dy="2.029"/><feGaussianBlur stdDeviation="2.029"/><feColorMatrix values="0 0 0 0 0.882353 0 0 0 0 0.909804 0 0 0 0 0.945098 0 0 0 1 0"/><feBlend in2="BackgroundImageFix" result="effect1_dropShadow"/><feBlend in="SourceGraphic" in2="effect1_dropShadow" result="shape"/></filter><filter id="filter3_d" x="200.755" y="162.198" width="228.297" height="113.641" filterUnits="userSpaceOnUse" color-interpolation-filters="sRGB"><feFlood flood-opacity="0" result="BackgroundImageFix"/><feColorMatrix in="SourceAlpha" values="0 0 0 0 0 0 0 0 0 0 0 0 0 0 0 0 0 0 127 0"/><feOffset dy="2.029"/><feGaussianBlur stdDeviation="2.029"/><feColorMatrix values="0 0 0 0 0.882353 0 0 0 0 0.909804 0 0 0 0 0.945098 0 0 0 1 0"/><feBlend in2="BackgroundImageFix" result="effect1_dropShadow"/><feBlend in="SourceGraphic" in2="effect1_dropShadow" result="shape"/></filter><filter id="filter4_d" x="432.096" y="162.198" width="113.641" height="113.641" filterUnits="userSpaceOnUse" color-interpolation-filters="sRGB"><feFlood flood-opacity="0" result="BackgroundImageFix"/><feColorMatrix in="SourceAlpha" values="0 0 0 0 0 0 0 0 0 0 0 0 0 0 0 0 0 0 127 0"/><feOffset dy="2.029"/><feGaussianBlur stdDeviation="2.029"/><feColorMatrix values="0 0 0 0 0.882353 0 0 0 0 0.909804 0 0 0 0 0.945098 0 0 0 1 0"/><feBlend in2="BackgroundImageFix" result="effect1_dropShadow"/><feBlend in="SourceGraphic" in2="effect1_dropShadow" result="shape"/></filter><clipPath id="clip0"><rect x="14" y="67" width="204.932" height="263.616" rx="7.452" fill="#fff"/></clipPath><clipPath id="clip1"><rect x="178.433" y="10" width="385.568" height="277" rx="7.561" fill="#fff"/></clipPath></defs></svg>