<svg width="470" height="309" fill="none" xmlns="http://www.w3.org/2000/svg"><g filter="url(#filter0_ddd)"><rect x="10" y="9" width="449.6" height="138.876" rx="6.864" fill="#fff"/><rect x="117.904" y="29.981" width="251.776" height="14.987" rx="7.493" fill="#D3DEEB"/><rect x="117.904" y="67.948" width="267.762" height="7.993" rx="3.996" fill="#E1E8F1"/><rect x="117.904" y="84.932" width="196.825" height="7.993" rx="3.996" fill="#E1E8F1"/><rect x="117.904" y="101.917" width="242.784" height="6.994" rx="3.497" fill="#E1E8F1"/><rect x="117.904" y="123.5" width="72.077" height="16.357" rx="8.179" fill="#E1E8F1"/><rect x="131.892" y="129.526" width="42.903" height="4.305" rx="2.152" fill="#D3DEEB"/><rect x="27.984" y="30.523" width="71.219" height="93.838" rx="6.864" fill="#F7F7FB"/><path d="M58.416 46.88h10.356c0 1.825.135 4.016 12.383 9.127 1.726.609 5.178 2.739 5.178 6.39 0 4.563-1.801 5.933-1.801 9.127 0 3.195 1.8 5.02 1.8 8.215 0 3.195-2.476 5.02-2.476 9.584s1.126 2.739 1.126 7.759c0 4.016-1.35 6.085-2.026 6.617l-10.356-.913V92.061H54.589v10.725l-10.356.913c-.676-.532-2.027-2.601-2.027-6.617 0-5.02 1.126-3.195 1.126-7.759s-2.477-6.39-2.477-9.584c0-3.195 1.802-5.02 1.802-8.215 0-3.194-1.801-4.564-1.801-9.127 0-3.651 3.451-5.781 5.178-6.39 12.247-5.111 12.382-7.302 12.382-9.127z" fill="#CEDDF9" stroke="#A5C6FA" stroke-width=".858"/><path d="M49.435 68.402l1.798 23.245h24.72l1.799-23.245" stroke="#A5C6FA" stroke-width=".858"/><ellipse cx="53.727" cy="132.971" rx="2.574" ry="2.583" fill="#ADACCC"/><ellipse cx="64.022" cy="132.97" rx="2.574" ry="2.583" fill="#E1E8F1"/><ellipse cx="74.319" cy="132.97" rx="2.574" ry="2.583" fill="#E1E8F1"/></g><g filter="url(#filter1_ddd)"><rect x="165" y="163" width="140" height="110" rx="6.864" fill="#fff"/></g><rect x="187" y="237.514" width="96.103" height="7.723" rx="3.861" fill="#E1E8F1"/><rect x="198" y="253.817" width="73.793" height="7.723" rx="3.861" fill="#E1E8F1"/><path fill-rule="evenodd" clip-rule="evenodd" d="M202.081 219.463a.622.622 0 01.147-.249l2.785-2.854-3.848-.588a.56.56 0 01-.258-.11.608.608 0 01-.18-.224l-1.721-3.666-1.721 3.666a.596.596 0 01-.179.224.565.565 0 01-.258.11l-3.848.588 2.785 2.854a.634.634 0 01.167.54l-.658 4.031 3.442-1.903a.56.56 0 01.54 0l3.443 1.903-.658-4.031a.637.637 0 01.02-.291z" fill="#FFC92D"/><path fill-rule="evenodd" clip-rule="evenodd" d="M220.101 219.463a.62.62 0 01.146-.249l2.785-2.854-3.848-.588a.565.565 0 01-.258-.11.605.605 0 01-.179-.224l-1.721-3.666-1.721 3.666a.605.605 0 01-.179.224.57.57 0 01-.258.11l-3.848.588 2.784 2.854a.637.637 0 01.167.54l-.657 4.031 3.442-1.903a.557.557 0 01.54 0l3.442 1.903-.657-4.031a.637.637 0 01.02-.291zM238.12 219.463a.622.622 0 01.147-.249l2.785-2.854-3.848-.588a.565.565 0 01-.258-.11.608.608 0 01-.18-.224l-1.721-3.666-1.72 3.666a.608.608 0 01-.18.224.565.565 0 01-.258.11l-3.848.588 2.785 2.854a.622.622 0 01.167.54l-.658 4.031 3.442-1.903a.56.56 0 01.541 0l3.442 1.903-.658-4.031a.637.637 0 01.02-.291zM256.139 219.463a.61.61 0 01.147-.249l2.784-2.854-3.848-.588a.57.57 0 01-.258-.11.605.605 0 01-.179-.224l-1.721-3.666-1.721 3.666a.605.605 0 01-.179.224.565.565 0 01-.258.11l-3.848.588 2.785 2.854a.637.637 0 01.166.54l-.657 4.031 3.442-1.903a.557.557 0 01.54 0l3.442 1.903-.657-4.031a.637.637 0 01.02-.291zM274.159 219.463c.03-.094.08-.18.147-.249l2.785-2.854-3.848-.588a.565.565 0 01-.258-.11.596.596 0 01-.179-.224l-1.721-3.666-1.721 3.666a.608.608 0 01-.18.224.56.56 0 01-.258.11l-3.848.588 2.785 2.854a.622.622 0 01.167.54l-.658 4.031 3.443-1.903a.554.554 0 01.54 0l3.442 1.903-.658-4.031a.637.637 0 01.02-.291z" fill="#E1E8F1"/><circle cx="235.303" cy="187.746" r="16.303" fill="#EFF1F5"/><mask id="a" maskUnits="userSpaceOnUse" x="219" y="171" width="33" height="34"><circle cx="235.303" cy="187.746" r="16.303" fill="#E1E8F1"/></mask><g mask="url(#a)"><path fill-rule="evenodd" clip-rule="evenodd" d="M247.517 198.22c-1.075-1.606-3.673-2.825-5.883-3.448-2.21-.625-2.919-2.015-2.762-2.661.157-.647.642-.446 1.133-1.369.419-.786.703-2.622.703-2.622s1.008-.335 1.12-1.85c.112-1.517 0-2.074-.381-2.253-.381-.178-.537-.156-.537-.156s.248-2.157.25-2.608c.002-.573.054-1.134-.107-1.717-.581-2.096-2.989-2.987-5.784-2.943-2.795.045-2.838.892-3.419 1.516-.58.624-.967.134-1.484 1.093-.311.579-.011 3.322-.011 3.322.094.759.199 1.337.199 1.337s-.157-.022-.538.156c-.38.179-.492.736-.38 2.253.112 1.515 1.119 1.85 1.119 1.85s.285 1.836.704 2.622c.491.923.976.722 1.133 1.369.157.646-.552 2.036-2.762 2.661-2.21.623-4.808 1.842-5.883 3.448-.812 1.214-.686 3.261-.577 4.187.033.274 4.417 1.642 12.466 1.642 8.048 0 12.225-1.368 12.257-1.642.11-.926.237-2.973-.576-4.187z" fill="#BDCCDD"/></g><g filter="url(#filter2_ddd)"><circle cx="235.31" cy="275.551" r="22.31" fill="#fff"/></g><path d="M229.83 280.08c0 .479.2.936.552 1.261l3.581 3.307 1.033 4.104a2.442 2.442 0 002.408-2.038l.171-1.018a6.11 6.11 0 00-.013-2.094l-.5-2.771h8.213c.948 0 1.716-.768 1.716-1.716v-2.023c0-.581-.118-1.156-.347-1.69l-2.944-6.871a2.575 2.575 0 00-2.366-1.561h-9.788c-.948 0-1.716.769-1.716 1.717v11.393zM225.87 280.832h2.64v-13.861h-2.64z" fill="#FD7B68"/><g filter="url(#filter3_ddd)"><rect x="10" y="163" width="140" height="110" rx="6.864" fill="#fff"/></g><rect x="32" y="237.514" width="96.103" height="7.723" rx="3.861" fill="#E1E8F1"/><rect x="43" y="253.817" width="73.793" height="7.723" rx="3.861" fill="#E1E8F1"/><path fill-rule="evenodd" clip-rule="evenodd" d="M47.081 219.463c.03-.094.08-.18.147-.249l2.785-2.854-3.848-.588a.564.564 0 01-.258-.11.602.602 0 01-.18-.224l-1.72-3.666-1.721 3.666a.602.602 0 01-.18.224.565.565 0 01-.258.11L38 216.36l2.785 2.854a.64.64 0 01.167.54l-.658 4.031 3.442-1.903a.558.558 0 01.54 0l3.443 1.903-.658-4.031a.639.639 0 01.02-.291zM65.1 219.463c.03-.094.08-.18.148-.249l2.784-2.854-3.848-.588a.565.565 0 01-.258-.11.602.602 0 01-.18-.224l-1.72-3.666-1.721 3.666a.602.602 0 01-.18.224.564.564 0 01-.257.11l-3.849.588 2.785 2.854a.639.639 0 01.167.54l-.657 4.031 3.442-1.903a.558.558 0 01.54 0l3.442 1.903-.657-4.031a.64.64 0 01.02-.291zM83.12 219.463c.028-.094.079-.18.146-.249l2.785-2.854-3.848-.588a.564.564 0 01-.258-.11.602.602 0 01-.18-.224l-1.72-3.666-1.722 3.666a.601.601 0 01-.179.224.565.565 0 01-.258.11l-3.848.588 2.785 2.854a.639.639 0 01.167.54l-.658 4.031 3.443-1.903a.558.558 0 01.54 0l3.442 1.903-.658-4.031a.639.639 0 01.02-.291zM101.139 219.463a.61.61 0 01.147-.249l2.784-2.854-3.848-.588a.566.566 0 01-.258-.11.602.602 0 01-.179-.224l-1.72-3.666-1.722 3.666a.602.602 0 01-.18.224.565.565 0 01-.257.11l-3.848.588 2.784 2.854a.64.64 0 01.167.54l-.657 4.031 3.442-1.903a.558.558 0 01.54 0l3.442 1.903-.657-4.031a.637.637 0 01.02-.291z" fill="#FFC92D"/><path fill-rule="evenodd" clip-rule="evenodd" d="M119.159 219.463c.03-.094.08-.18.147-.249l2.785-2.854-3.848-.588a.565.565 0 01-.258-.11.596.596 0 01-.179-.224l-1.721-3.666-1.721 3.666a.608.608 0 01-.18.224.56.56 0 01-.258.11l-3.848.588 2.785 2.854a.622.622 0 01.167.54l-.658 4.031 3.443-1.903a.554.554 0 01.54 0l3.442 1.903-.658-4.031a.637.637 0 01.02-.291z" fill="#E1E8F1"/><circle cx="80.303" cy="187.746" r="16.303" fill="#EFF1F5"/><mask id="b" maskUnits="userSpaceOnUse" x="64" y="171" width="33" height="34"><circle cx="80.303" cy="187.746" r="16.303" fill="#E1E8F1"/></mask><g mask="url(#b)"><path d="M79.718 175.964c1.333 0 2.4.851 2.767 1.276 1.334-.253 4.004.491 4.004 5.498 0 5.427 1.05 7.225 2.115 8.112-.847 1.015-3.288 2.347-5.568 1.74-.13.621.332 3.489 2.166 4.089 1.835.598 3.993 1.195 4.885 2.736.674 1.162.57 2.165.48 3.052l-.001.006c-.027.263-3.495 1.577-10.178 1.577-6.683 0-10.324-1.318-10.351-1.582-.091-.887-.194-1.89.48-3.053.892-1.541 3.05-2.138 4.884-2.736 1.835-.6 2.424-3.468 2.294-4.089-2.28.607-4.721-.725-5.567-1.74 1.064-.886 2.093-2.685 2.093-8.112s3.83-6.774 5.497-6.774z" fill="#BDCCDD"/></g><g filter="url(#filter4_ddd)"><circle cx="80.31" cy="276.512" r="22.31" fill="#fff"/></g><path d="M74.831 272.313c0-.479.2-.936.552-1.261l3.58-3.307 1.034-4.104c1.192 0 2.21.862 2.408 2.038l.17 1.018a6.103 6.103 0 01-.012 2.094l-.5 2.771h8.213c.948 0 1.716.768 1.716 1.716v2.023a4.29 4.29 0 01-.347 1.69l-2.944 6.872a2.575 2.575 0 01-2.366 1.56h-9.788a1.716 1.716 0 01-1.716-1.716v-11.394zM70.871 271.562h2.64v13.861h-2.64z" fill="#4DCC7E"/><g filter="url(#filter5_ddd)"><rect x="320" y="163" width="140" height="110" rx="6.864" fill="#fff"/></g><rect x="342" y="237.514" width="96.103" height="7.723" rx="3.861" fill="#E1E8F1"/><rect x="353" y="253.817" width="73.793" height="7.723" rx="3.861" fill="#E1E8F1"/><path fill-rule="evenodd" clip-rule="evenodd" d="M357.081 219.463a.622.622 0 01.147-.249l2.785-2.854-3.848-.588a.56.56 0 01-.258-.11.608.608 0 01-.18-.224l-1.721-3.666-1.721 3.666a.596.596 0 01-.179.224.565.565 0 01-.258.11l-3.848.588 2.785 2.854a.634.634 0 01.167.54l-.658 4.031 3.442-1.903a.56.56 0 01.54 0l3.443 1.903-.658-4.031a.637.637 0 01.02-.291zM375.1 219.463a.61.61 0 01.147-.249l2.784-2.854-3.848-.588a.57.57 0 01-.258-.11.605.605 0 01-.179-.224l-1.721-3.666-1.721 3.666a.605.605 0 01-.179.224.57.57 0 01-.258.11l-3.848.588 2.784 2.854a.637.637 0 01.167.54l-.657 4.031 3.442-1.903a.557.557 0 01.54 0l3.442 1.903-.657-4.031a.637.637 0 01.02-.291zM393.119 219.463a.622.622 0 01.147-.249l2.785-2.854-3.848-.588a.565.565 0 01-.258-.11.596.596 0 01-.179-.224l-1.721-3.666-1.721 3.666a.608.608 0 01-.18.224.56.56 0 01-.258.11l-3.848.588 2.785 2.854a.622.622 0 01.167.54l-.658 4.031 3.443-1.903a.554.554 0 01.54 0l3.442 1.903-.658-4.031a.637.637 0 01.02-.291zM411.139 219.463a.61.61 0 01.147-.249l2.784-2.854-3.848-.588a.57.57 0 01-.258-.11.605.605 0 01-.179-.224l-1.721-3.666-1.721 3.666a.605.605 0 01-.179.224.565.565 0 01-.258.11l-3.848.588 2.785 2.854a.637.637 0 01.166.54l-.657 4.031 3.442-1.903a.557.557 0 01.54 0l3.442 1.903-.657-4.031a.637.637 0 01.02-.291zM429.158 219.463c.03-.094.08-.18.147-.249l2.785-2.854-3.848-.588a.565.565 0 01-.258-.11.596.596 0 01-.179-.224l-1.721-3.666-1.721 3.666a.608.608 0 01-.18.224.56.56 0 01-.258.11l-3.848.588 2.785 2.854a.622.622 0 01.167.54l-.658 4.031 3.443-1.903a.557.557 0 01.54 0l3.442 1.903-.658-4.031a.637.637 0 01.02-.291z" fill="#FFC92D"/><g filter="url(#filter6_ddd)"><circle cx="390.31" cy="276.512" r="22.31" fill="#fff"/></g><path d="M384.831 272.313c0-.479.2-.936.552-1.261l3.581-3.307 1.033-4.104c1.192 0 2.21.862 2.408 2.038l.171 1.018a6.11 6.11 0 01-.013 2.094l-.5 2.771h8.213c.948 0 1.716.768 1.716 1.716v2.023c0 .581-.118 1.156-.347 1.69l-2.944 6.872a2.576 2.576 0 01-2.366 1.56h-9.788a1.716 1.716 0 01-1.716-1.716v-11.394zM380.871 271.562h2.64v13.861h-2.64z" fill="#4DCC7E"/><circle cx="390.303" cy="187.746" r="16.303" fill="#EFF1F5"/><mask id="c" maskUnits="userSpaceOnUse" x="374" y="171" width="33" height="34"><circle cx="390.303" cy="187.746" r="16.303" fill="#E1E8F1"/></mask><g mask="url(#c)"><path d="M389.72 175.963c1.333 0 2.4.851 2.767 1.277 1.334-.254 4.004.491 4.004 5.498 0 5.426 1.05 7.225 2.115 8.112-.847 1.014-3.288 2.346-5.568 1.74-.13.621.331 3.489 2.166 4.088 1.835.599 3.992 1.195 4.885 2.736.674 1.163.571 2.165.479 3.052v.007c-.027.263-3.495 1.576-10.178 1.576-6.683 0-10.324-1.318-10.351-1.581-.091-.887-.194-1.89.479-3.054.893-1.541 3.05-2.137 4.885-2.736 1.835-.599 2.424-3.467 2.294-4.088-2.28.606-4.721-.726-5.567-1.74 1.064-.887 2.092-2.686 2.092-8.112 0-5.427 3.831-6.775 5.498-6.775z" fill="#BDCCDD"/></g><defs><filter id="filter0_ddd" x=".009" y=".008" width="469.582" height="158.859" filterUnits="userSpaceOnUse" color-interpolation-filters="sRGB"><feFlood flood-opacity="0" result="BackgroundImageFix"/><feColorMatrix in="SourceAlpha" values="0 0 0 0 0 0 0 0 0 0 0 0 0 0 0 0 0 0 127 0"/><feOffset dy=".999"/><feGaussianBlur stdDeviation="4.996"/><feColorMatrix values="0 0 0 0 0.317647 0 0 0 0 0.662745 0 0 0 0 0.882353 0 0 0 0.2 0"/><feBlend in2="BackgroundImageFix" result="effect1_dropShadow"/><feColorMatrix in="SourceAlpha" values="0 0 0 0 0 0 0 0 0 0 0 0 0 0 0 0 0 0 127 0"/><feOffset dy="3.996"/><feGaussianBlur stdDeviation="2.498"/><feColorMatrix values="0 0 0 0 0.317647 0 0 0 0 0.662745 0 0 0 0 0.882353 0 0 0 0.12 0"/><feBlend in2="effect1_dropShadow" result="effect2_dropShadow"/><feColorMatrix in="SourceAlpha" values="0 0 0 0 0 0 0 0 0 0 0 0 0 0 0 0 0 0 127 0"/><feOffset dy="1.998"/><feGaussianBlur stdDeviation="1.998"/><feColorMatrix values="0 0 0 0 0.317647 0 0 0 0 0.662745 0 0 0 0 0.882353 0 0 0 0.14 0"/><feBlend in2="effect2_dropShadow" result="effect3_dropShadow"/><feBlend in="SourceGraphic" in2="effect3_dropShadow" result="shape"/></filter><filter id="filter1_ddd" x="155.009" y="154.008" width="159.982" height="129.982" filterUnits="userSpaceOnUse" color-interpolation-filters="sRGB"><feFlood flood-opacity="0" result="BackgroundImageFix"/><feColorMatrix in="SourceAlpha" values="0 0 0 0 0 0 0 0 0 0 0 0 0 0 0 0 0 0 127 0"/><feOffset dy=".999"/><feGaussianBlur stdDeviation="4.996"/><feColorMatrix values="0 0 0 0 0.317647 0 0 0 0 0.662745 0 0 0 0 0.882353 0 0 0 0.2 0"/><feBlend in2="BackgroundImageFix" result="effect1_dropShadow"/><feColorMatrix in="SourceAlpha" values="0 0 0 0 0 0 0 0 0 0 0 0 0 0 0 0 0 0 127 0"/><feOffset dy="3.996"/><feGaussianBlur stdDeviation="2.498"/><feColorMatrix values="0 0 0 0 0.317647 0 0 0 0 0.662745 0 0 0 0 0.882353 0 0 0 0.12 0"/><feBlend in2="effect1_dropShadow" result="effect2_dropShadow"/><feColorMatrix in="SourceAlpha" values="0 0 0 0 0 0 0 0 0 0 0 0 0 0 0 0 0 0 127 0"/><feOffset dy="1.998"/><feGaussianBlur stdDeviation="1.998"/><feColorMatrix values="0 0 0 0 0.317647 0 0 0 0 0.662745 0 0 0 0 0.882353 0 0 0 0.14 0"/><feBlend in2="effect2_dropShadow" result="effect3_dropShadow"/><feBlend in="SourceGraphic" in2="effect3_dropShadow" result="shape"/></filter><filter id="filter2_ddd" x="204.419" y="245.519" width="61.781" height="61.781" filterUnits="userSpaceOnUse" color-interpolation-filters="sRGB"><feFlood flood-opacity="0" result="BackgroundImageFix"/><feColorMatrix in="SourceAlpha" values="0 0 0 0 0 0 0 0 0 0 0 0 0 0 0 0 0 0 127 0"/><feOffset dy=".858"/><feGaussianBlur stdDeviation="4.29"/><feColorMatrix values="0 0 0 0 0.317647 0 0 0 0 0.662745 0 0 0 0 0.882353 0 0 0 0.2 0"/><feBlend in2="BackgroundImageFix" result="effect1_dropShadow"/><feColorMatrix in="SourceAlpha" values="0 0 0 0 0 0 0 0 0 0 0 0 0 0 0 0 0 0 127 0"/><feOffset dy="3.432"/><feGaussianBlur stdDeviation="2.145"/><feColorMatrix values="0 0 0 0 0.317647 0 0 0 0 0.662745 0 0 0 0 0.882353 0 0 0 0.12 0"/><feBlend in2="effect1_dropShadow" result="effect2_dropShadow"/><feColorMatrix in="SourceAlpha" values="0 0 0 0 0 0 0 0 0 0 0 0 0 0 0 0 0 0 127 0"/><feOffset dy="1.716"/><feGaussianBlur stdDeviation="1.716"/><feColorMatrix values="0 0 0 0 0.317647 0 0 0 0 0.662745 0 0 0 0 0.882353 0 0 0 0.14 0"/><feBlend in2="effect2_dropShadow" result="effect3_dropShadow"/><feBlend in="SourceGraphic" in2="effect3_dropShadow" result="shape"/></filter><filter id="filter3_ddd" x=".009" y="154.008" width="159.982" height="129.982" filterUnits="userSpaceOnUse" color-interpolation-filters="sRGB"><feFlood flood-opacity="0" result="BackgroundImageFix"/><feColorMatrix in="SourceAlpha" values="0 0 0 0 0 0 0 0 0 0 0 0 0 0 0 0 0 0 127 0"/><feOffset dy=".999"/><feGaussianBlur stdDeviation="4.996"/><feColorMatrix values="0 0 0 0 0.317647 0 0 0 0 0.662745 0 0 0 0 0.882353 0 0 0 0.2 0"/><feBlend in2="BackgroundImageFix" result="effect1_dropShadow"/><feColorMatrix in="SourceAlpha" values="0 0 0 0 0 0 0 0 0 0 0 0 0 0 0 0 0 0 127 0"/><feOffset dy="3.996"/><feGaussianBlur stdDeviation="2.498"/><feColorMatrix values="0 0 0 0 0.317647 0 0 0 0 0.662745 0 0 0 0 0.882353 0 0 0 0.12 0"/><feBlend in2="effect1_dropShadow" result="effect2_dropShadow"/><feColorMatrix in="SourceAlpha" values="0 0 0 0 0 0 0 0 0 0 0 0 0 0 0 0 0 0 127 0"/><feOffset dy="1.998"/><feGaussianBlur stdDeviation="1.998"/><feColorMatrix values="0 0 0 0 0.317647 0 0 0 0 0.662745 0 0 0 0 0.882353 0 0 0 0.14 0"/><feBlend in2="effect2_dropShadow" result="effect3_dropShadow"/><feBlend in="SourceGraphic" in2="effect3_dropShadow" result="shape"/></filter><filter id="filter4_ddd" x="49.419" y="246.48" width="61.781" height="61.781" filterUnits="userSpaceOnUse" color-interpolation-filters="sRGB"><feFlood flood-opacity="0" result="BackgroundImageFix"/><feColorMatrix in="SourceAlpha" values="0 0 0 0 0 0 0 0 0 0 0 0 0 0 0 0 0 0 127 0"/><feOffset dy=".858"/><feGaussianBlur stdDeviation="4.29"/><feColorMatrix values="0 0 0 0 0.317647 0 0 0 0 0.662745 0 0 0 0 0.882353 0 0 0 0.2 0"/><feBlend in2="BackgroundImageFix" result="effect1_dropShadow"/><feColorMatrix in="SourceAlpha" values="0 0 0 0 0 0 0 0 0 0 0 0 0 0 0 0 0 0 127 0"/><feOffset dy="3.432"/><feGaussianBlur stdDeviation="2.145"/><feColorMatrix values="0 0 0 0 0.317647 0 0 0 0 0.662745 0 0 0 0 0.882353 0 0 0 0.12 0"/><feBlend in2="effect1_dropShadow" result="effect2_dropShadow"/><feColorMatrix in="SourceAlpha" values="0 0 0 0 0 0 0 0 0 0 0 0 0 0 0 0 0 0 127 0"/><feOffset dy="1.716"/><feGaussianBlur stdDeviation="1.716"/><feColorMatrix values="0 0 0 0 0.317647 0 0 0 0 0.662745 0 0 0 0 0.882353 0 0 0 0.14 0"/><feBlend in2="effect2_dropShadow" result="effect3_dropShadow"/><feBlend in="SourceGraphic" in2="effect3_dropShadow" result="shape"/></filter><filter id="filter5_ddd" x="310.009" y="154.008" width="159.982" height="129.982" filterUnits="userSpaceOnUse" color-interpolation-filters="sRGB"><feFlood flood-opacity="0" result="BackgroundImageFix"/><feColorMatrix in="SourceAlpha" values="0 0 0 0 0 0 0 0 0 0 0 0 0 0 0 0 0 0 127 0"/><feOffset dy=".999"/><feGaussianBlur stdDeviation="4.996"/><feColorMatrix values="0 0 0 0 0.317647 0 0 0 0 0.662745 0 0 0 0 0.882353 0 0 0 0.2 0"/><feBlend in2="BackgroundImageFix" result="effect1_dropShadow"/><feColorMatrix in="SourceAlpha" values="0 0 0 0 0 0 0 0 0 0 0 0 0 0 0 0 0 0 127 0"/><feOffset dy="3.996"/><feGaussianBlur stdDeviation="2.498"/><feColorMatrix values="0 0 0 0 0.317647 0 0 0 0 0.662745 0 0 0 0 0.882353 0 0 0 0.12 0"/><feBlend in2="effect1_dropShadow" result="effect2_dropShadow"/><feColorMatrix in="SourceAlpha" values="0 0 0 0 0 0 0 0 0 0 0 0 0 0 0 0 0 0 127 0"/><feOffset dy="1.998"/><feGaussianBlur stdDeviation="1.998"/><feColorMatrix values="0 0 0 0 0.317647 0 0 0 0 0.662745 0 0 0 0 0.882353 0 0 0 0.14 0"/><feBlend in2="effect2_dropShadow" result="effect3_dropShadow"/><feBlend in="SourceGraphic" in2="effect3_dropShadow" result="shape"/></filter><filter id="filter6_ddd" x="359.419" y="246.48" width="61.781" height="61.781" filterUnits="userSpaceOnUse" color-interpolation-filters="sRGB"><feFlood flood-opacity="0" result="BackgroundImageFix"/><feColorMatrix in="SourceAlpha" values="0 0 0 0 0 0 0 0 0 0 0 0 0 0 0 0 0 0 127 0"/><feOffset dy=".858"/><feGaussianBlur stdDeviation="4.29"/><feColorMatrix values="0 0 0 0 0.317647 0 0 0 0 0.662745 0 0 0 0 0.882353 0 0 0 0.2 0"/><feBlend in2="BackgroundImageFix" result="effect1_dropShadow"/><feColorMatrix in="SourceAlpha" values="0 0 0 0 0 0 0 0 0 0 0 0 0 0 0 0 0 0 127 0"/><feOffset dy="3.432"/><feGaussianBlur stdDeviation="2.145"/><feColorMatrix values="0 0 0 0 0.317647 0 0 0 0 0.662745 0 0 0 0 0.882353 0 0 0 0.12 0"/><feBlend in2="effect1_dropShadow" result="effect2_dropShadow"/><feColorMatrix in="SourceAlpha" values="0 0 0 0 0 0 0 0 0 0 0 0 0 0 0 0 0 0 127 0"/><feOffset dy="1.716"/><feGaussianBlur stdDeviation="1.716"/><feColorMatrix values="0 0 0 0 0.317647 0 0 0 0 0.662745 0 0 0 0 0.882353 0 0 0 0.14 0"/><feBlend in2="effect2_dropShadow" result="effect3_dropShadow"/><feBlend in="SourceGraphic" in2="effect3_dropShadow" result="shape"/></filter></defs></svg>