<svg width="570" height="354" viewBox="0 0 570 354" fill="none" xmlns="http://www.w3.org/2000/svg">
<path d="M166.199 290H187.574C221.884 290 254.114 273.546 274.238 245.757L305.199 203" stroke="url(#paint0_linear)" stroke-dasharray="5 5"/>
<path d="M166.199 76H187.574C221.884 76 254.114 92.4538 274.238 120.243L305.199 163" stroke="url(#paint1_linear)" stroke-dasharray="5 5"/>
<path d="M190.199 183L298.199 183" stroke="url(#paint2_linear)" stroke-dasharray="5 5"/>
<path d="M455.262 290H433.887C399.576 290 367.347 273.546 347.223 245.757L316.262 203" stroke="url(#paint3_linear)" stroke-dasharray="5 5"/>
<path d="M455.262 76H433.887C399.576 76 367.347 92.4538 347.223 120.243L316.262 163" stroke="url(#paint4_linear)" stroke-dasharray="5 5"/>
<path d="M431.262 183L323.262 183" stroke="url(#paint5_linear)" stroke-dasharray="5 5"/>
<g filter="url(#filter0_ddd)">
<rect x="10" y="242.937" width="128.233" height="84.2405" rx="6.68265" fill="white"/>
</g>
<rect x="18.4238" y="290.673" width="109.513" height="7.48805" rx="3.74402" fill="#E1E8F1"/>
<rect x="18.4238" y="290.673" width="109.513" height="7.48805" rx="3.74402" fill="#E1E8F1"/>
<rect x="58.6719" y="254.168" width="69.2644" height="7.48805" rx="3.74402" fill="#D3DEEB"/>
<rect x="18.4238" y="306.585" width="75.8165" height="7.48805" rx="3.74402" fill="#E1E8F1"/>
<path fill-rule="evenodd" clip-rule="evenodd" d="M65.4445 274.88C65.4662 274.81 65.5037 274.747 65.5539 274.695L67.6308 272.567L64.7608 272.128C64.6914 272.118 64.6254 272.089 64.5686 272.046C64.5118 272.003 64.4659 271.945 64.4348 271.879L63.1513 269.145L61.8679 271.879C61.8368 271.945 61.7909 272.003 61.7341 272.046C61.6773 272.089 61.6113 272.118 61.5418 272.128L58.6719 272.567L60.7488 274.695C60.799 274.747 60.8365 274.81 60.8582 274.88C60.8798 274.95 60.885 275.025 60.8732 275.098L60.3828 278.103L62.95 276.684C63.0121 276.65 63.0812 276.632 63.1513 276.632C63.2215 276.632 63.2906 276.65 63.3527 276.684L65.9198 278.103L65.4294 275.098C65.4176 275.025 65.4228 274.95 65.4445 274.88Z" fill="#FFC92D"/>
<path fill-rule="evenodd" clip-rule="evenodd" d="M78.883 274.88C78.9046 274.81 78.9422 274.747 78.9923 274.695L81.0693 272.567L78.1993 272.128C78.1298 272.118 78.0638 272.089 78.007 272.046C77.9502 272.003 77.9043 271.945 77.8733 271.879L76.5898 269.145L75.3063 271.879C75.2753 271.945 75.2294 272.003 75.1726 272.046C75.1158 272.089 75.0498 272.118 74.9803 272.128L72.1104 272.567L74.1873 274.695C74.2374 274.747 74.275 274.81 74.2966 274.88C74.3183 274.95 74.3235 275.025 74.3117 275.098L73.8213 278.103L76.3884 276.684C76.4505 276.65 76.5196 276.632 76.5898 276.632C76.66 276.632 76.7291 276.65 76.7912 276.684L79.3583 278.103L78.8679 275.098C78.8561 275.025 78.8613 274.95 78.883 274.88Z" fill="#FFC92D"/>
<path fill-rule="evenodd" clip-rule="evenodd" d="M92.3214 274.88C92.3431 274.81 92.3807 274.747 92.4308 274.695L94.5077 272.567L91.6378 272.128C91.5683 272.118 91.5023 272.089 91.4455 272.046C91.3887 272.003 91.3428 271.945 91.3117 271.879L90.0283 269.145L88.7448 271.879C88.7137 271.945 88.6678 272.003 88.611 272.046C88.5542 272.089 88.4882 272.118 88.4188 272.128L85.5488 272.567L87.6257 274.695C87.6759 274.747 87.7134 274.81 87.7351 274.88C87.7568 274.95 87.762 275.025 87.7502 275.098L87.2598 278.103L89.8269 276.684C89.889 276.65 89.9581 276.632 90.0283 276.632C90.0984 276.632 90.1675 276.65 90.2297 276.684L92.7968 278.103L92.3064 275.098C92.2946 275.025 92.2998 274.95 92.3214 274.88Z" fill="#FFC92D"/>
<path fill-rule="evenodd" clip-rule="evenodd" d="M105.76 274.88C105.782 274.81 105.819 274.747 105.869 274.695L107.946 272.567L105.076 272.128C105.007 272.118 104.941 272.089 104.884 272.046C104.827 272.003 104.781 271.945 104.75 271.879L103.467 269.145L102.183 271.879C102.152 271.945 102.106 272.003 102.05 272.046C101.993 272.089 101.927 272.118 101.857 272.128L98.9873 272.567L101.064 274.695C101.114 274.747 101.152 274.81 101.174 274.88C101.195 274.95 101.2 275.025 101.189 275.098L100.698 278.103L103.265 276.684C103.327 276.65 103.397 276.632 103.467 276.632C103.537 276.632 103.606 276.65 103.668 276.684L106.235 278.103L105.745 275.098C105.733 275.025 105.738 274.95 105.76 274.88Z" fill="#FFC92D"/>
<path fill-rule="evenodd" clip-rule="evenodd" d="M119.198 274.88C119.22 274.81 119.258 274.747 119.308 274.695L121.385 272.567L118.515 272.128C118.445 272.118 118.379 272.089 118.322 272.046C118.266 272.003 118.22 271.945 118.189 271.879L116.905 269.145L115.622 271.879C115.591 271.945 115.545 272.003 115.488 272.046C115.431 272.089 115.365 272.118 115.296 272.128L112.426 272.567L114.503 274.695C114.553 274.747 114.59 274.81 114.612 274.88C114.634 274.95 114.639 275.025 114.627 275.098L114.137 278.103L116.704 276.684C116.766 276.65 116.835 276.632 116.905 276.632C116.975 276.632 117.044 276.65 117.107 276.684L119.674 278.103L119.183 275.098C119.172 275.025 119.177 274.95 119.198 274.88Z" fill="#FFC92D"/>
<circle cx="34.7356" cy="266.225" r="15.8713" fill="#EFF1F5"/>
<mask id="mask0" mask-type="alpha" maskUnits="userSpaceOnUse" x="18" y="250" width="33" height="33">
<circle cx="34.7356" cy="266.225" r="15.8713" fill="#E1E8F1"/>
</mask>
<g mask="url(#mask0)">
<path d="M34.1667 254.755C35.4649 254.755 36.5033 255.584 36.8602 255.998C38.1596 255.751 40.7583 256.476 40.7583 261.35C40.7583 266.633 41.7812 268.384 42.817 269.247C41.9932 270.235 39.6162 271.531 37.3973 270.941C37.2705 271.545 37.7196 274.338 39.5059 274.921C41.2921 275.504 43.3923 276.085 44.2612 277.585C44.9169 278.716 44.8167 279.692 44.728 280.556L44.7273 280.562C44.7009 280.818 41.325 282.097 34.8189 282.097C28.3127 282.097 24.7687 280.814 24.7423 280.558C24.6535 279.694 24.5532 278.717 25.2089 277.585C26.0778 276.085 28.178 275.504 29.9642 274.921C31.7505 274.338 32.3239 271.545 32.1972 270.941C29.9782 271.531 27.6013 270.235 26.7775 269.247C27.8133 268.384 28.815 266.633 28.815 261.35C28.815 256.067 32.5441 254.755 34.1667 254.755Z" fill="#BDCCDD"/>
</g>
<g filter="url(#filter1_ddd)">
<circle cx="131.871" cy="322.687" r="21.7186" fill="white"/>
</g>
<path d="M132.149 315.259C128.777 309.203 109.713 316.335 132.149 333.729C154.585 316.335 135.521 309.203 132.149 315.259Z" fill="#6662F9"/>
<path d="M353.973 188.38L353.946 178.382C353.916 177.369 353.383 176.456 352.483 176.018L341.849 170.505L345.394 159.084C345.695 158.121 345.437 157.107 344.749 156.393L337.641 149.331C336.928 148.626 335.898 148.378 334.928 148.677L323.527 152.316L317.969 141.729C317.504 140.848 316.584 140.275 315.596 140.296L305.575 140.331C304.578 140.326 303.675 140.885 303.203 141.769L297.726 152.419L286.272 148.856C285.309 148.555 284.295 148.813 283.59 149.527L276.531 156.635C275.826 157.348 275.578 158.377 275.893 159.314L279.542 170.742L268.933 176.309C268.052 176.774 267.505 177.685 267.501 178.681L267.536 188.705C267.532 189.702 268.091 190.605 268.965 191.053L279.624 196.556L276.054 207.987C275.778 208.94 276.021 209.989 276.725 210.669L283.833 217.731C284.546 218.436 285.575 218.684 286.546 218.385L297.947 214.746L303.513 225.357C303.979 226.239 304.89 226.786 305.886 226.791L315.899 226.731C316.211 226.73 316.53 226.67 316.806 226.569C317.432 226.34 317.951 225.894 318.271 225.293L323.747 214.642L335.201 218.206C336.139 218.516 337.178 218.248 337.883 217.535L344.942 210.427C345.632 209.748 345.895 208.684 345.581 207.748L341.941 196.345L352.54 190.753C353.431 190.313 353.969 189.377 353.973 188.38Z" fill="#92C9EC"/>
<path fill-rule="evenodd" clip-rule="evenodd" d="M325.215 179.952L316.368 170.568C316.007 170.19 315.531 170 315.055 170C314.582 170 314.108 170.19 313.743 170.568C313.379 170.948 313.199 171.444 313.199 171.939V193.523L318.501 187.98C318.671 187.8 318.774 187.555 318.774 187.301V182.349C318.216 182.012 317.841 181.392 317.841 180.675C317.841 179.604 318.671 178.734 319.696 178.734C320.724 178.734 321.555 179.604 321.555 180.675C321.555 181.392 321.179 182.012 320.626 182.349V187.458V188.104C320.626 188.359 320.53 188.603 320.358 188.784L318.774 190.442L313.199 196.268V196.503V201.059C313.199 202.13 314.03 203 315.055 203C315.911 203 316.767 202.659 317.418 201.976L325.215 193.821C325.87 193.142 326.199 192.245 326.199 191.351V182.423C326.199 181.528 325.87 180.633 325.215 179.952Z" fill="white"/>
<path fill-rule="evenodd" clip-rule="evenodd" d="M308.343 161C307.865 161 307.393 161.19 307.029 161.572L298.176 171.017C297.525 171.704 297.199 172.603 297.199 173.504V191.278C297.199 192.177 297.525 193.079 298.176 193.763L305.978 201.969C306.631 202.654 307.487 203 308.343 203C308.817 203 309.293 202.808 309.655 202.426C310.017 202.047 310.199 201.546 310.199 201.046V196.462V187.629L303.038 180.099C302.868 179.917 302.771 179.67 302.771 179.414V178.762V173.426C302.22 173.089 301.843 172.465 301.843 171.745C301.843 170.667 302.675 169.791 303.7 169.791C304.725 169.791 305.557 170.667 305.557 171.745C305.557 172.465 305.18 173.089 304.629 173.426V178.604C304.629 178.864 304.725 179.11 304.895 179.29L310.199 184.866V162.955C310.199 162.455 310.017 161.955 309.655 161.572C309.293 161.19 308.817 161 308.343 161Z" fill="white"/>
<g filter="url(#filter2_ddd)">
<rect x="32.4648" y="139.104" width="128.233" height="84.2405" rx="6.68265" fill="white"/>
</g>
<rect x="40.8887" y="186.841" width="109.513" height="7.48805" rx="3.74402" fill="#E1E8F1"/>
<rect x="81.1367" y="150.336" width="69.2644" height="7.48805" rx="3.74402" fill="#D3DEEB"/>
<rect x="40.8887" y="202.753" width="75.8165" height="7.48805" rx="3.74402" fill="#E1E8F1"/>
<path fill-rule="evenodd" clip-rule="evenodd" d="M87.9093 171.048C87.931 170.978 87.9685 170.915 88.0187 170.863L90.0956 168.734L87.2257 168.296C87.1562 168.286 87.0902 168.257 87.0334 168.214C86.9766 168.171 86.9307 168.113 86.8996 168.047L85.6162 165.312L84.3327 168.047C84.3016 168.113 84.2557 168.171 84.1989 168.214C84.1421 168.257 84.0761 168.286 84.0067 168.296L81.1367 168.734L83.2136 170.863C83.2638 170.915 83.3013 170.978 83.323 171.048C83.3447 171.118 83.3499 171.193 83.3381 171.266L82.8477 174.271L85.4148 172.852C85.4769 172.818 85.546 172.8 85.6162 172.8C85.6863 172.8 85.7554 172.818 85.8175 172.852L88.3847 174.271L87.8942 171.266C87.8825 171.193 87.8877 171.118 87.9093 171.048Z" fill="#FFC92D"/>
<path fill-rule="evenodd" clip-rule="evenodd" d="M101.348 171.048C101.369 170.978 101.407 170.915 101.457 170.863L103.534 168.734L100.664 168.296C100.595 168.286 100.529 168.257 100.472 168.214C100.415 168.171 100.369 168.113 100.338 168.047L99.0546 165.312L97.7712 168.047C97.7401 168.113 97.6942 168.171 97.6374 168.214C97.5806 168.257 97.5146 168.286 97.4451 168.296L94.5752 168.734L96.6521 170.863C96.7023 170.915 96.7398 170.978 96.7615 171.048C96.7832 171.118 96.7883 171.193 96.7766 171.266L96.2861 174.271L98.8533 172.852C98.9154 172.818 98.9845 172.8 99.0546 172.8C99.1248 172.8 99.1939 172.818 99.256 172.852L101.823 174.271L101.333 171.266C101.321 171.193 101.326 171.118 101.348 171.048Z" fill="#E9EFF5"/>
<path fill-rule="evenodd" clip-rule="evenodd" d="M114.786 171.048C114.808 170.978 114.845 170.915 114.896 170.863L116.973 168.734L114.103 168.296C114.033 168.286 113.967 168.257 113.91 168.214C113.854 168.171 113.808 168.113 113.777 168.047L112.493 165.312L111.21 168.047C111.179 168.113 111.133 168.171 111.076 168.214C111.019 168.257 110.953 168.286 110.884 168.296L108.014 168.734L110.091 170.863C110.141 170.915 110.178 170.978 110.2 171.048C110.222 171.118 110.227 171.193 110.215 171.266L109.725 174.271L112.292 172.852C112.354 172.818 112.423 172.8 112.493 172.8C112.563 172.8 112.632 172.818 112.694 172.852L115.262 174.271L114.771 171.266C114.759 171.193 114.765 171.118 114.786 171.048Z" fill="#E9EFF5"/>
<path fill-rule="evenodd" clip-rule="evenodd" d="M128.225 171.048C128.246 170.978 128.284 170.915 128.334 170.863L130.411 168.734L127.541 168.296C127.472 168.286 127.406 168.257 127.349 168.214C127.292 168.171 127.246 168.113 127.215 168.047L125.932 165.312L124.648 168.047C124.617 168.113 124.571 168.171 124.514 168.214C124.458 168.257 124.392 168.286 124.322 168.296L121.452 168.734L123.529 170.863C123.579 170.915 123.617 170.978 123.638 171.048C123.66 171.118 123.665 171.193 123.654 171.266L123.163 174.271L125.73 172.852C125.792 172.818 125.861 172.8 125.932 172.8C126.002 172.8 126.071 172.818 126.133 172.852L128.7 174.271L128.21 171.266C128.198 171.193 128.203 171.118 128.225 171.048Z" fill="#E9EFF5"/>
<path fill-rule="evenodd" clip-rule="evenodd" d="M141.663 171.048C141.685 170.978 141.722 170.915 141.773 170.863L143.85 168.734L140.98 168.296C140.91 168.286 140.844 168.257 140.787 168.214C140.731 168.171 140.685 168.113 140.654 168.047L139.37 165.312L138.087 168.047C138.056 168.113 138.01 168.171 137.953 168.214C137.896 168.257 137.83 168.286 137.761 168.296L134.891 168.734L136.968 170.863C137.018 170.915 137.055 170.978 137.077 171.048C137.099 171.118 137.104 171.193 137.092 171.266L136.602 174.271L139.169 172.852C139.231 172.818 139.3 172.8 139.37 172.8C139.44 172.8 139.509 172.818 139.571 172.852L142.139 174.271L141.648 171.266C141.636 171.193 141.642 171.118 141.663 171.048Z" fill="#E9EFF5"/>
<circle cx="57.2004" cy="162.393" r="15.8713" fill="#EFF1F5"/>
<mask id="mask1" mask-type="alpha" maskUnits="userSpaceOnUse" x="41" y="146" width="33" height="33">
<circle cx="57.2004" cy="162.393" r="15.8713" fill="#E1E8F1"/>
</mask>
<g mask="url(#mask1)">
<path d="M56.6316 150.923C57.9297 150.923 58.9681 151.752 59.3251 152.166C60.6244 151.919 63.2231 152.644 63.2231 157.518C63.2231 162.801 64.246 164.552 65.2819 165.415C64.458 166.403 62.0811 167.699 59.8622 167.109C59.7354 167.713 60.1845 170.506 61.9707 171.089C63.7569 171.672 65.8571 172.253 66.726 173.753C67.3818 174.884 67.2815 175.86 67.1928 176.724L67.1922 176.73C67.1657 176.986 63.7899 178.265 57.2837 178.265C50.7776 178.265 47.2336 176.982 47.2071 176.726C47.1184 175.862 47.0181 174.885 47.6737 173.753C48.5426 172.253 50.6428 171.672 52.4291 171.089C54.2153 170.506 54.7888 167.713 54.662 167.109C52.4431 167.699 50.0661 166.403 49.2423 165.415C50.2782 164.552 51.2798 162.801 51.2798 157.518C51.2798 152.235 55.0089 150.923 56.6316 150.923Z" fill="#BDCCDD"/>
</g>
<g filter="url(#filter3_ddd)">
<circle cx="160.889" cy="193.583" r="21.7186" fill="white"/>
</g>
<path d="M155.556 197.993C155.556 198.459 155.75 198.904 156.093 199.22L159.579 202.44L160.584 206.435C161.745 206.435 162.737 205.596 162.929 204.451L163.095 203.46C163.208 202.785 163.204 202.095 163.083 201.421L162.596 198.724H170.592C171.514 198.724 172.262 197.976 172.262 197.053V195.083C172.262 194.518 172.147 193.958 171.925 193.438L169.058 186.749C168.663 185.827 167.757 185.23 166.754 185.23H157.226C156.304 185.23 155.556 185.978 155.556 186.901V197.993Z" fill="#FD7B68"/>
<rect width="2.57025" height="13.4938" transform="matrix(1 0 0 -1 151.7 198.724)" fill="#FD7B68"/>
<g filter="url(#filter4_ddd)">
<rect x="10" y="34.208" width="128.233" height="84.2405" rx="6.68265" fill="white"/>
</g>
<rect x="18.4238" y="81.9443" width="109.513" height="7.48805" rx="3.74402" fill="#E1E8F1"/>
<rect x="58.6719" y="45.4404" width="69.2644" height="7.48805" rx="3.74402" fill="#D3DEEB"/>
<rect x="18.4238" y="97.8564" width="75.8165" height="7.48805" rx="3.74402" fill="#E1E8F1"/>
<path fill-rule="evenodd" clip-rule="evenodd" d="M65.4445 66.1523C65.4662 66.0821 65.5037 66.0185 65.5539 65.967L67.6308 63.8385L64.7608 63.4001C64.6914 63.3895 64.6254 63.3613 64.5686 63.3179C64.5118 63.2745 64.4659 63.2173 64.4348 63.1511L63.1513 60.4165L61.8679 63.1511C61.8368 63.2173 61.7909 63.2745 61.7341 63.3179C61.6773 63.3613 61.6113 63.3895 61.5418 63.4001L58.6719 63.8385L60.7488 65.967C60.799 66.0185 60.8365 66.0821 60.8582 66.1523C60.8798 66.2224 60.885 66.2971 60.8732 66.3698L60.3828 69.3754L62.95 67.9564C63.0121 67.9221 63.0812 67.9041 63.1513 67.9041C63.2215 67.9041 63.2906 67.9221 63.3527 67.9564L65.9198 69.3754L65.4294 66.3698C65.4176 66.2971 65.4228 66.2224 65.4445 66.1523Z" fill="#FFC92D"/>
<path fill-rule="evenodd" clip-rule="evenodd" d="M78.883 66.1523C78.9046 66.0821 78.9422 66.0185 78.9923 65.967L81.0693 63.8385L78.1993 63.4001C78.1298 63.3895 78.0638 63.3613 78.007 63.3179C77.9502 63.2745 77.9043 63.2173 77.8733 63.1511L76.5898 60.4165L75.3063 63.1511C75.2753 63.2173 75.2294 63.2745 75.1726 63.3179C75.1158 63.3613 75.0498 63.3895 74.9803 63.4001L72.1104 63.8385L74.1873 65.967C74.2374 66.0185 74.275 66.0821 74.2966 66.1523C74.3183 66.2224 74.3235 66.2971 74.3117 66.3698L73.8213 69.3754L76.3884 67.9564C76.4505 67.9221 76.5196 67.9041 76.5898 67.9041C76.66 67.9041 76.7291 67.9221 76.7912 67.9564L79.3583 69.3754L78.8679 66.3698C78.8561 66.2971 78.8613 66.2224 78.883 66.1523Z" fill="#FFC92D"/>
<path fill-rule="evenodd" clip-rule="evenodd" d="M92.3214 66.1523C92.3431 66.0821 92.3807 66.0185 92.4308 65.967L94.5077 63.8385L91.6378 63.4001C91.5683 63.3895 91.5023 63.3613 91.4455 63.3179C91.3887 63.2745 91.3428 63.2173 91.3117 63.1511L90.0283 60.4165L88.7448 63.1511C88.7137 63.2173 88.6678 63.2745 88.611 63.3179C88.5542 63.3613 88.4882 63.3895 88.4188 63.4001L85.5488 63.8385L87.6257 65.967C87.6759 66.0185 87.7134 66.0821 87.7351 66.1523C87.7568 66.2224 87.762 66.2971 87.7502 66.3698L87.2598 69.3754L89.8269 67.9564C89.889 67.9221 89.9581 67.9041 90.0283 67.9041C90.0984 67.9041 90.1675 67.9221 90.2297 67.9564L92.7968 69.3754L92.3064 66.3698C92.2946 66.2971 92.2998 66.2224 92.3214 66.1523Z" fill="#FFC92D"/>
<path fill-rule="evenodd" clip-rule="evenodd" d="M105.76 66.1523C105.782 66.0821 105.819 66.0185 105.869 65.967L107.946 63.8385L105.076 63.4001C105.007 63.3895 104.941 63.3613 104.884 63.3179C104.827 63.2745 104.781 63.2173 104.75 63.1511L103.467 60.4165L102.183 63.1511C102.152 63.2173 102.106 63.2745 102.05 63.3179C101.993 63.3613 101.927 63.3895 101.857 63.4001L98.9873 63.8385L101.064 65.967C101.114 66.0185 101.152 66.0821 101.174 66.1523C101.195 66.2224 101.2 66.2971 101.189 66.3698L100.698 69.3754L103.265 67.9564C103.327 67.9221 103.397 67.9041 103.467 67.9041C103.537 67.9041 103.606 67.9221 103.668 67.9564L106.235 69.3754L105.745 66.3698C105.733 66.2971 105.738 66.2224 105.76 66.1523Z" fill="#FFC92D"/>
<path fill-rule="evenodd" clip-rule="evenodd" d="M119.198 66.1523C119.22 66.0821 119.258 66.0185 119.308 65.967L121.385 63.8385L118.515 63.4001C118.445 63.3895 118.379 63.3613 118.322 63.3179C118.266 63.2745 118.22 63.2173 118.189 63.1511L116.905 60.4165L115.622 63.1511C115.591 63.2173 115.545 63.2745 115.488 63.3179C115.431 63.3613 115.365 63.3895 115.296 63.4001L112.426 63.8385L114.503 65.967C114.553 66.0185 114.59 66.0821 114.612 66.1523C114.634 66.2224 114.639 66.2971 114.627 66.3698L114.137 69.3754L116.704 67.9564C116.766 67.9221 116.835 67.9041 116.905 67.9041C116.975 67.9041 117.044 67.9221 117.107 67.9564L119.674 69.3754L119.183 66.3698C119.172 66.2971 119.177 66.2224 119.198 66.1523Z" fill="#E9EFF5"/>
<circle cx="34.2951" cy="57.5676" r="15.8713" fill="#EFF1F5"/>
<mask id="mask2" mask-type="alpha" maskUnits="userSpaceOnUse" x="18" y="41" width="33" height="33">
<circle cx="34.2951" cy="57.5676" r="15.8713" fill="#EFF1F5"/>
</mask>
<g mask="url(#mask2)">
<path fill-rule="evenodd" clip-rule="evenodd" d="M46.1854 67.7641C45.1389 66.2011 42.6096 65.0145 40.4584 64.4071C38.3072 63.7992 37.6172 62.4463 37.7698 61.8168C37.9225 61.1873 38.3944 61.3829 38.8728 60.4848C39.2803 59.7194 39.5574 57.9315 39.5574 57.9315C39.5574 57.9315 40.5384 57.6059 40.6478 56.1303C40.7565 54.6541 40.6478 54.1114 40.2769 53.9379C39.906 53.7643 39.7534 53.7859 39.7534 53.7859C39.7534 53.7859 39.9956 51.6862 39.9974 51.2463C39.9992 50.6893 40.0497 50.1423 39.8928 49.5751C39.3272 47.5352 36.9831 46.6669 34.262 46.71C31.541 46.7537 31.4989 47.5783 30.9339 48.1862C30.3689 48.7936 29.992 48.3161 29.4896 49.2496C29.186 49.8138 29.4787 52.4838 29.4787 52.4838C29.5701 53.2228 29.6723 53.7859 29.6723 53.7859C29.6723 53.7859 29.5196 53.7643 29.1487 53.9379C28.7785 54.1114 28.6691 54.6541 28.7785 56.1303C28.8873 57.6059 29.8682 57.9315 29.8682 57.9315C29.8682 57.9315 30.1453 59.7194 30.5534 60.4848C31.0313 61.3829 31.5037 61.1873 31.6564 61.8168C31.8091 62.4463 31.1184 63.7992 28.9672 64.4071C26.816 65.0145 24.2867 66.2011 23.2403 67.7641C22.4493 68.9459 22.5719 70.9391 22.6789 71.8402C22.7107 72.1071 26.9783 73.4391 34.8138 73.4391C42.6493 73.4391 46.7149 72.1071 46.7468 71.8402C46.8538 70.9391 46.977 68.9459 46.1854 67.7641Z" fill="#BDCCDD"/>
</g>
<g filter="url(#filter5_ddd)">
<circle cx="131.871" cy="29.7186" r="21.7186" fill="white"/>
</g>
<path d="M126.538 25.6304C126.538 25.1643 126.733 24.7194 127.075 24.4031L130.561 21.1835L131.567 17.1885C132.728 17.1885 133.719 18.0272 133.911 19.1722L134.078 20.1632C134.191 20.8384 134.187 21.528 134.065 22.2017L133.578 24.8992H141.574C142.497 24.8992 143.245 25.6472 143.245 26.5699V28.5399C143.245 29.1055 143.13 29.6652 142.907 30.1851L140.04 36.8742C139.645 37.7956 138.739 38.3931 137.737 38.3931H128.209C127.286 38.3931 126.538 37.6451 126.538 36.7224V25.6304Z" fill="#4DCC7E"/>
<rect x="122.683" y="24.8994" width="2.57025" height="13.4938" fill="#4DCC7E"/>
<g filter="url(#filter6_ddd)">
<rect x="464" y="62" width="96" height="28" rx="4" fill="white"/>
</g>
<path d="M496.974 81H495.646V70.328H499.934C500.969 70.328 501.785 70.6373 502.382 71.256C502.98 71.8747 503.278 72.6373 503.278 73.544C503.278 74.4507 502.974 75.2133 502.366 75.832C501.769 76.4507 500.958 76.76 499.934 76.76H496.974V81ZM499.774 75.576C500.404 75.576 500.916 75.3893 501.31 75.016C501.705 74.632 501.902 74.1413 501.902 73.544C501.902 72.9467 501.705 72.4613 501.31 72.088C500.916 71.704 500.404 71.512 499.774 71.512H496.974V75.576H499.774ZM506.189 81H504.989V73.272H506.189V74.52C506.904 73.5813 507.762 73.112 508.765 73.112V74.344C508.616 74.312 508.456 74.296 508.285 74.296C507.922 74.296 507.528 74.424 507.101 74.68C506.674 74.936 506.37 75.2187 506.189 75.528V81ZM510.862 72.168C510.649 72.168 510.462 72.0933 510.302 71.944C510.142 71.784 510.062 71.592 510.062 71.368C510.062 71.144 510.142 70.952 510.302 70.792C510.462 70.632 510.649 70.552 510.862 70.552C511.086 70.552 511.278 70.632 511.438 70.792C511.598 70.952 511.678 71.144 511.678 71.368C511.678 71.592 511.598 71.784 511.438 71.944C511.278 72.0933 511.086 72.168 510.862 72.168ZM511.47 81H510.27V73.272H511.47V81ZM517.272 81.192C516.131 81.192 515.203 80.808 514.488 80.04C513.773 79.2613 513.416 78.2907 513.416 77.128C513.416 75.9653 513.773 75 514.488 74.232C515.203 73.464 516.131 73.08 517.272 73.08C518.467 73.08 519.411 73.528 520.104 74.424L519.304 75.16C518.813 74.488 518.157 74.152 517.336 74.152C516.525 74.152 515.875 74.4293 515.384 74.984C514.904 75.5387 514.664 76.2533 514.664 77.128C514.664 78.0027 514.904 78.7227 515.384 79.288C515.875 79.8427 516.525 80.12 517.336 80.12C518.147 80.12 518.803 79.784 519.304 79.112L520.104 79.848C519.411 80.744 518.467 81.192 517.272 81.192ZM525.274 81.192C524.122 81.192 523.178 80.8187 522.442 80.072C521.706 79.3147 521.338 78.3333 521.338 77.128C521.338 75.9973 521.701 75.0427 522.426 74.264C523.151 73.4747 524.058 73.08 525.146 73.08C526.287 73.08 527.189 73.4747 527.85 74.264C528.522 75.0427 528.858 76.0293 528.858 77.224V77.528H522.602C522.655 78.2853 522.933 78.92 523.434 79.432C523.935 79.944 524.586 80.2 525.386 80.2C526.346 80.2 527.141 79.8747 527.77 79.224L528.346 80.008C527.557 80.7973 526.533 81.192 525.274 81.192ZM527.674 76.648C527.663 75.9867 527.439 75.3947 527.002 74.872C526.565 74.3387 525.941 74.072 525.13 74.072C524.362 74.072 523.754 74.3333 523.306 74.856C522.869 75.3787 522.634 75.976 522.602 76.648H527.674Z" fill="#4DCC7E"/>
<g filter="url(#filter7_ddd)">
<rect x="439" y="168" width="96" height="28" rx="4" fill="white"/>
</g>
<path d="M463.201 187H459.553V176.328H463.201C464.833 176.328 466.15 176.835 467.153 177.848C468.166 178.861 468.673 180.136 468.673 181.672C468.673 183.219 468.166 184.493 467.153 185.496C466.15 186.499 464.833 187 463.201 187ZM463.201 185.816C464.459 185.816 465.457 185.421 466.193 184.632C466.929 183.843 467.297 182.856 467.297 181.672C467.297 180.477 466.934 179.485 466.209 178.696C465.483 177.907 464.481 177.512 463.201 177.512H460.881V185.816H463.201ZM474.196 187.192C473.044 187.192 472.1 186.819 471.364 186.072C470.628 185.315 470.26 184.333 470.26 183.128C470.26 181.997 470.622 181.043 471.348 180.264C472.073 179.475 472.98 179.08 474.068 179.08C475.209 179.08 476.11 179.475 476.772 180.264C477.444 181.043 477.78 182.029 477.78 183.224V183.528H471.524C471.577 184.285 471.854 184.92 472.356 185.432C472.857 185.944 473.508 186.2 474.308 186.2C475.268 186.2 476.062 185.875 476.692 185.224L477.268 186.008C476.478 186.797 475.454 187.192 474.196 187.192ZM476.596 182.648C476.585 181.987 476.361 181.395 475.924 180.872C475.486 180.339 474.862 180.072 474.052 180.072C473.284 180.072 472.676 180.333 472.228 180.856C471.79 181.379 471.556 181.976 471.524 182.648H476.596ZM480.923 187H479.723V176.328H480.923V187ZM483.909 178.168C483.696 178.168 483.509 178.093 483.349 177.944C483.189 177.784 483.109 177.592 483.109 177.368C483.109 177.144 483.189 176.952 483.349 176.792C483.509 176.632 483.696 176.552 483.909 176.552C484.133 176.552 484.325 176.632 484.485 176.792C484.645 176.952 484.725 177.144 484.725 177.368C484.725 177.592 484.645 177.784 484.485 177.944C484.325 178.093 484.133 178.168 483.909 178.168ZM484.517 187H483.317V179.272H484.517V187ZM490.287 187H488.975L485.759 179.272H487.055L489.631 185.608L492.191 179.272H493.503L490.287 187ZM498.243 187.192C497.091 187.192 496.147 186.819 495.411 186.072C494.675 185.315 494.307 184.333 494.307 183.128C494.307 181.997 494.669 181.043 495.395 180.264C496.12 179.475 497.027 179.08 498.115 179.08C499.256 179.08 500.157 179.475 500.819 180.264C501.491 181.043 501.827 182.029 501.827 183.224V183.528H495.571C495.624 184.285 495.901 184.92 496.403 185.432C496.904 185.944 497.555 186.2 498.355 186.2C499.315 186.2 500.109 185.875 500.739 185.224L501.315 186.008C500.525 186.797 499.501 187.192 498.243 187.192ZM500.643 182.648C500.632 181.987 500.408 181.395 499.971 180.872C499.533 180.339 498.909 180.072 498.099 180.072C497.331 180.072 496.723 180.333 496.275 180.856C495.837 181.379 495.603 181.976 495.571 182.648H500.643ZM504.97 187H503.77V179.272H504.97V180.52C505.685 179.581 506.544 179.112 507.546 179.112V180.344C507.397 180.312 507.237 180.296 507.066 180.296C506.704 180.296 506.309 180.424 505.882 180.68C505.456 180.936 505.152 181.219 504.97 181.528V187ZM508.62 190.024L508.812 188.936C509.004 189.021 509.222 189.064 509.468 189.064C509.745 189.064 509.974 189.005 510.156 188.888C510.337 188.771 510.492 188.557 510.62 188.248L511.132 187.08L507.9 179.272H509.196L511.772 185.608L514.332 179.272H515.644L511.772 188.568C511.345 189.592 510.588 190.115 509.5 190.136C509.18 190.136 508.886 190.099 508.62 190.024Z" fill="#FD7B68"/>
<g filter="url(#filter8_ddd)">
<rect x="464" y="275" width="96" height="28" rx="4" fill="white"/>
</g>
<path d="M501.938 294.192C500.21 294.192 498.845 293.627 497.842 292.496L498.626 291.488C499.533 292.501 500.653 293.008 501.986 293.008C502.85 293.008 503.485 292.827 503.89 292.464C504.296 292.091 504.498 291.659 504.498 291.168C504.498 290.795 504.381 290.48 504.146 290.224C503.912 289.968 503.608 289.771 503.234 289.632C502.872 289.483 502.461 289.349 502.002 289.232C501.554 289.115 501.106 288.987 500.658 288.848C500.21 288.699 499.8 288.523 499.426 288.32C499.064 288.117 498.765 287.829 498.53 287.456C498.296 287.083 498.178 286.64 498.178 286.128C498.178 285.253 498.525 284.544 499.218 284C499.912 283.445 500.786 283.168 501.842 283.168C503.432 283.168 504.696 283.664 505.634 284.656L504.834 285.632C504.056 284.779 503.026 284.352 501.746 284.352C501.106 284.352 500.578 284.512 500.162 284.832C499.757 285.141 499.554 285.547 499.554 286.048C499.554 286.421 499.709 286.731 500.018 286.976C500.338 287.221 500.728 287.403 501.186 287.52C501.656 287.637 502.162 287.787 502.706 287.968C503.261 288.139 503.768 288.325 504.226 288.528C504.696 288.72 505.085 289.035 505.394 289.472C505.714 289.909 505.874 290.437 505.874 291.056C505.874 291.931 505.549 292.672 504.898 293.28C504.258 293.888 503.272 294.192 501.938 294.192ZM508.401 285.168C508.188 285.168 508.001 285.093 507.841 284.944C507.681 284.784 507.601 284.592 507.601 284.368C507.601 284.144 507.681 283.952 507.841 283.792C508.001 283.632 508.188 283.552 508.401 283.552C508.625 283.552 508.817 283.632 508.977 283.792C509.137 283.952 509.217 284.144 509.217 284.368C509.217 284.592 509.137 284.784 508.977 284.944C508.817 285.093 508.625 285.168 508.401 285.168ZM509.009 294H507.809V286.272H509.009V294ZM516.923 294H511.035V293.072L515.291 287.328H511.035V286.272H516.859V287.184L512.571 292.96H516.923V294ZM522.438 294.192C521.286 294.192 520.342 293.819 519.606 293.072C518.87 292.315 518.502 291.333 518.502 290.128C518.502 288.997 518.865 288.043 519.59 287.264C520.315 286.475 521.222 286.08 522.31 286.08C523.451 286.08 524.353 286.475 525.014 287.264C525.686 288.043 526.022 289.029 526.022 290.224V290.528H519.766C519.819 291.285 520.097 291.92 520.598 292.432C521.099 292.944 521.75 293.2 522.55 293.2C523.51 293.2 524.305 292.875 524.934 292.224L525.51 293.008C524.721 293.797 523.697 294.192 522.438 294.192ZM524.838 289.648C524.827 288.987 524.603 288.395 524.166 287.872C523.729 287.339 523.105 287.072 522.294 287.072C521.526 287.072 520.918 287.333 520.47 287.856C520.033 288.379 519.798 288.976 519.766 289.648H524.838Z" fill="#6662F9"/>
<defs>
<filter id="filter0_ddd" x="0.639943" y="234.512" width="146.953" height="102.961" filterUnits="userSpaceOnUse" color-interpolation-filters="sRGB">
<feFlood flood-opacity="0" result="BackgroundImageFix"/>
<feColorMatrix in="SourceAlpha" type="matrix" values="0 0 0 0 0 0 0 0 0 0 0 0 0 0 0 0 0 0 127 0"/>
<feOffset dy="0.936006"/>
<feGaussianBlur stdDeviation="4.68003"/>
<feColorMatrix type="matrix" values="0 0 0 0 0.317647 0 0 0 0 0.662745 0 0 0 0 0.882353 0 0 0 0.2 0"/>
<feBlend mode="normal" in2="BackgroundImageFix" result="effect1_dropShadow"/>
<feColorMatrix in="SourceAlpha" type="matrix" values="0 0 0 0 0 0 0 0 0 0 0 0 0 0 0 0 0 0 127 0"/>
<feOffset dy="3.74402"/>
<feGaussianBlur stdDeviation="2.34001"/>
<feColorMatrix type="matrix" values="0 0 0 0 0.317647 0 0 0 0 0.662745 0 0 0 0 0.882353 0 0 0 0.12 0"/>
<feBlend mode="normal" in2="effect1_dropShadow" result="effect2_dropShadow"/>
<feColorMatrix in="SourceAlpha" type="matrix" values="0 0 0 0 0 0 0 0 0 0 0 0 0 0 0 0 0 0 127 0"/>
<feOffset dy="1.87201"/>
<feGaussianBlur stdDeviation="1.87201"/>
<feColorMatrix type="matrix" values="0 0 0 0 0.317647 0 0 0 0 0.662745 0 0 0 0 0.882353 0 0 0 0.14 0"/>
<feBlend mode="normal" in2="effect2_dropShadow" result="effect3_dropShadow"/>
<feBlend mode="normal" in="SourceGraphic" in2="effect3_dropShadow" result="shape"/>
</filter>
<filter id="filter1_ddd" x="101.799" y="293.451" width="60.1439" height="60.1439" filterUnits="userSpaceOnUse" color-interpolation-filters="sRGB">
<feFlood flood-opacity="0" result="BackgroundImageFix"/>
<feColorMatrix in="SourceAlpha" type="matrix" values="0 0 0 0 0 0 0 0 0 0 0 0 0 0 0 0 0 0 127 0"/>
<feOffset dy="0.835332"/>
<feGaussianBlur stdDeviation="4.17666"/>
<feColorMatrix type="matrix" values="0 0 0 0 0.317647 0 0 0 0 0.662745 0 0 0 0 0.882353 0 0 0 0.2 0"/>
<feBlend mode="normal" in2="BackgroundImageFix" result="effect1_dropShadow"/>
<feColorMatrix in="SourceAlpha" type="matrix" values="0 0 0 0 0 0 0 0 0 0 0 0 0 0 0 0 0 0 127 0"/>
<feOffset dy="3.34133"/>
<feGaussianBlur stdDeviation="2.08833"/>
<feColorMatrix type="matrix" values="0 0 0 0 0.317647 0 0 0 0 0.662745 0 0 0 0 0.882353 0 0 0 0.12 0"/>
<feBlend mode="normal" in2="effect1_dropShadow" result="effect2_dropShadow"/>
<feColorMatrix in="SourceAlpha" type="matrix" values="0 0 0 0 0 0 0 0 0 0 0 0 0 0 0 0 0 0 127 0"/>
<feOffset dy="1.67066"/>
<feGaussianBlur stdDeviation="1.67066"/>
<feColorMatrix type="matrix" values="0 0 0 0 0.317647 0 0 0 0 0.662745 0 0 0 0 0.882353 0 0 0 0.14 0"/>
<feBlend mode="normal" in2="effect2_dropShadow" result="effect3_dropShadow"/>
<feBlend mode="normal" in="SourceGraphic" in2="effect3_dropShadow" result="shape"/>
</filter>
<filter id="filter2_ddd" x="23.1048" y="130.68" width="146.953" height="102.961" filterUnits="userSpaceOnUse" color-interpolation-filters="sRGB">
<feFlood flood-opacity="0" result="BackgroundImageFix"/>
<feColorMatrix in="SourceAlpha" type="matrix" values="0 0 0 0 0 0 0 0 0 0 0 0 0 0 0 0 0 0 127 0"/>
<feOffset dy="0.936006"/>
<feGaussianBlur stdDeviation="4.68003"/>
<feColorMatrix type="matrix" values="0 0 0 0 0.317647 0 0 0 0 0.662745 0 0 0 0 0.882353 0 0 0 0.2 0"/>
<feBlend mode="normal" in2="BackgroundImageFix" result="effect1_dropShadow"/>
<feColorMatrix in="SourceAlpha" type="matrix" values="0 0 0 0 0 0 0 0 0 0 0 0 0 0 0 0 0 0 127 0"/>
<feOffset dy="3.74402"/>
<feGaussianBlur stdDeviation="2.34001"/>
<feColorMatrix type="matrix" values="0 0 0 0 0.317647 0 0 0 0 0.662745 0 0 0 0 0.882353 0 0 0 0.12 0"/>
<feBlend mode="normal" in2="effect1_dropShadow" result="effect2_dropShadow"/>
<feColorMatrix in="SourceAlpha" type="matrix" values="0 0 0 0 0 0 0 0 0 0 0 0 0 0 0 0 0 0 127 0"/>
<feOffset dy="1.87201"/>
<feGaussianBlur stdDeviation="1.87201"/>
<feColorMatrix type="matrix" values="0 0 0 0 0.317647 0 0 0 0 0.662745 0 0 0 0 0.882353 0 0 0 0.14 0"/>
<feBlend mode="normal" in2="effect2_dropShadow" result="effect3_dropShadow"/>
<feBlend mode="normal" in="SourceGraphic" in2="effect3_dropShadow" result="shape"/>
</filter>
<filter id="filter3_ddd" x="130.817" y="164.347" width="60.1439" height="60.1439" filterUnits="userSpaceOnUse" color-interpolation-filters="sRGB">
<feFlood flood-opacity="0" result="BackgroundImageFix"/>
<feColorMatrix in="SourceAlpha" type="matrix" values="0 0 0 0 0 0 0 0 0 0 0 0 0 0 0 0 0 0 127 0"/>
<feOffset dy="0.835332"/>
<feGaussianBlur stdDeviation="4.17666"/>
<feColorMatrix type="matrix" values="0 0 0 0 0.317647 0 0 0 0 0.662745 0 0 0 0 0.882353 0 0 0 0.2 0"/>
<feBlend mode="normal" in2="BackgroundImageFix" result="effect1_dropShadow"/>
<feColorMatrix in="SourceAlpha" type="matrix" values="0 0 0 0 0 0 0 0 0 0 0 0 0 0 0 0 0 0 127 0"/>
<feOffset dy="3.34133"/>
<feGaussianBlur stdDeviation="2.08833"/>
<feColorMatrix type="matrix" values="0 0 0 0 0.317647 0 0 0 0 0.662745 0 0 0 0 0.882353 0 0 0 0.12 0"/>
<feBlend mode="normal" in2="effect1_dropShadow" result="effect2_dropShadow"/>
<feColorMatrix in="SourceAlpha" type="matrix" values="0 0 0 0 0 0 0 0 0 0 0 0 0 0 0 0 0 0 127 0"/>
<feOffset dy="1.67066"/>
<feGaussianBlur stdDeviation="1.67066"/>
<feColorMatrix type="matrix" values="0 0 0 0 0.317647 0 0 0 0 0.662745 0 0 0 0 0.882353 0 0 0 0.14 0"/>
<feBlend mode="normal" in2="effect2_dropShadow" result="effect3_dropShadow"/>
<feBlend mode="normal" in="SourceGraphic" in2="effect3_dropShadow" result="shape"/>
</filter>
<filter id="filter4_ddd" x="0.639943" y="25.784" width="146.953" height="102.961" filterUnits="userSpaceOnUse" color-interpolation-filters="sRGB">
<feFlood flood-opacity="0" result="BackgroundImageFix"/>
<feColorMatrix in="SourceAlpha" type="matrix" values="0 0 0 0 0 0 0 0 0 0 0 0 0 0 0 0 0 0 127 0"/>
<feOffset dy="0.936006"/>
<feGaussianBlur stdDeviation="4.68003"/>
<feColorMatrix type="matrix" values="0 0 0 0 0.317647 0 0 0 0 0.662745 0 0 0 0 0.882353 0 0 0 0.2 0"/>
<feBlend mode="normal" in2="BackgroundImageFix" result="effect1_dropShadow"/>
<feColorMatrix in="SourceAlpha" type="matrix" values="0 0 0 0 0 0 0 0 0 0 0 0 0 0 0 0 0 0 127 0"/>
<feOffset dy="3.74402"/>
<feGaussianBlur stdDeviation="2.34001"/>
<feColorMatrix type="matrix" values="0 0 0 0 0.317647 0 0 0 0 0.662745 0 0 0 0 0.882353 0 0 0 0.12 0"/>
<feBlend mode="normal" in2="effect1_dropShadow" result="effect2_dropShadow"/>
<feColorMatrix in="SourceAlpha" type="matrix" values="0 0 0 0 0 0 0 0 0 0 0 0 0 0 0 0 0 0 127 0"/>
<feOffset dy="1.87201"/>
<feGaussianBlur stdDeviation="1.87201"/>
<feColorMatrix type="matrix" values="0 0 0 0 0.317647 0 0 0 0 0.662745 0 0 0 0 0.882353 0 0 0 0.14 0"/>
<feBlend mode="normal" in2="effect2_dropShadow" result="effect3_dropShadow"/>
<feBlend mode="normal" in="SourceGraphic" in2="effect3_dropShadow" result="shape"/>
</filter>
<filter id="filter5_ddd" x="101.799" y="0.482014" width="60.1439" height="60.1439" filterUnits="userSpaceOnUse" color-interpolation-filters="sRGB">
<feFlood flood-opacity="0" result="BackgroundImageFix"/>
<feColorMatrix in="SourceAlpha" type="matrix" values="0 0 0 0 0 0 0 0 0 0 0 0 0 0 0 0 0 0 127 0"/>
<feOffset dy="0.835332"/>
<feGaussianBlur stdDeviation="4.17666"/>
<feColorMatrix type="matrix" values="0 0 0 0 0.317647 0 0 0 0 0.662745 0 0 0 0 0.882353 0 0 0 0.2 0"/>
<feBlend mode="normal" in2="BackgroundImageFix" result="effect1_dropShadow"/>
<feColorMatrix in="SourceAlpha" type="matrix" values="0 0 0 0 0 0 0 0 0 0 0 0 0 0 0 0 0 0 127 0"/>
<feOffset dy="3.34133"/>
<feGaussianBlur stdDeviation="2.08833"/>
<feColorMatrix type="matrix" values="0 0 0 0 0.317647 0 0 0 0 0.662745 0 0 0 0 0.882353 0 0 0 0.12 0"/>
<feBlend mode="normal" in2="effect1_dropShadow" result="effect2_dropShadow"/>
<feColorMatrix in="SourceAlpha" type="matrix" values="0 0 0 0 0 0 0 0 0 0 0 0 0 0 0 0 0 0 127 0"/>
<feOffset dy="1.67066"/>
<feGaussianBlur stdDeviation="1.67066"/>
<feColorMatrix type="matrix" values="0 0 0 0 0.317647 0 0 0 0 0.662745 0 0 0 0 0.882353 0 0 0 0.14 0"/>
<feBlend mode="normal" in2="effect2_dropShadow" result="effect3_dropShadow"/>
<feBlend mode="normal" in="SourceGraphic" in2="effect3_dropShadow" result="shape"/>
</filter>
<filter id="filter6_ddd" x="454" y="53" width="116" height="48" filterUnits="userSpaceOnUse" color-interpolation-filters="sRGB">
<feFlood flood-opacity="0" result="BackgroundImageFix"/>
<feColorMatrix in="SourceAlpha" type="matrix" values="0 0 0 0 0 0 0 0 0 0 0 0 0 0 0 0 0 0 127 0"/>
<feOffset dy="1"/>
<feGaussianBlur stdDeviation="5"/>
<feColorMatrix type="matrix" values="0 0 0 0 0.317647 0 0 0 0 0.662745 0 0 0 0 0.882353 0 0 0 0.2 0"/>
<feBlend mode="normal" in2="BackgroundImageFix" result="effect1_dropShadow"/>
<feColorMatrix in="SourceAlpha" type="matrix" values="0 0 0 0 0 0 0 0 0 0 0 0 0 0 0 0 0 0 127 0"/>
<feOffset dy="4"/>
<feGaussianBlur stdDeviation="2.5"/>
<feColorMatrix type="matrix" values="0 0 0 0 0.317647 0 0 0 0 0.662745 0 0 0 0 0.882353 0 0 0 0.12 0"/>
<feBlend mode="normal" in2="effect1_dropShadow" result="effect2_dropShadow"/>
<feColorMatrix in="SourceAlpha" type="matrix" values="0 0 0 0 0 0 0 0 0 0 0 0 0 0 0 0 0 0 127 0"/>
<feOffset dy="2"/>
<feGaussianBlur stdDeviation="2"/>
<feColorMatrix type="matrix" values="0 0 0 0 0.317647 0 0 0 0 0.662745 0 0 0 0 0.882353 0 0 0 0.14 0"/>
<feBlend mode="normal" in2="effect2_dropShadow" result="effect3_dropShadow"/>
<feBlend mode="normal" in="SourceGraphic" in2="effect3_dropShadow" result="shape"/>
</filter>
<filter id="filter7_ddd" x="429" y="159" width="116" height="48" filterUnits="userSpaceOnUse" color-interpolation-filters="sRGB">
<feFlood flood-opacity="0" result="BackgroundImageFix"/>
<feColorMatrix in="SourceAlpha" type="matrix" values="0 0 0 0 0 0 0 0 0 0 0 0 0 0 0 0 0 0 127 0"/>
<feOffset dy="1"/>
<feGaussianBlur stdDeviation="5"/>
<feColorMatrix type="matrix" values="0 0 0 0 0.317647 0 0 0 0 0.662745 0 0 0 0 0.882353 0 0 0 0.2 0"/>
<feBlend mode="normal" in2="BackgroundImageFix" result="effect1_dropShadow"/>
<feColorMatrix in="SourceAlpha" type="matrix" values="0 0 0 0 0 0 0 0 0 0 0 0 0 0 0 0 0 0 127 0"/>
<feOffset dy="4"/>
<feGaussianBlur stdDeviation="2.5"/>
<feColorMatrix type="matrix" values="0 0 0 0 0.317647 0 0 0 0 0.662745 0 0 0 0 0.882353 0 0 0 0.12 0"/>
<feBlend mode="normal" in2="effect1_dropShadow" result="effect2_dropShadow"/>
<feColorMatrix in="SourceAlpha" type="matrix" values="0 0 0 0 0 0 0 0 0 0 0 0 0 0 0 0 0 0 127 0"/>
<feOffset dy="2"/>
<feGaussianBlur stdDeviation="2"/>
<feColorMatrix type="matrix" values="0 0 0 0 0.317647 0 0 0 0 0.662745 0 0 0 0 0.882353 0 0 0 0.14 0"/>
<feBlend mode="normal" in2="effect2_dropShadow" result="effect3_dropShadow"/>
<feBlend mode="normal" in="SourceGraphic" in2="effect3_dropShadow" result="shape"/>
</filter>
<filter id="filter8_ddd" x="454" y="266" width="116" height="48" filterUnits="userSpaceOnUse" color-interpolation-filters="sRGB">
<feFlood flood-opacity="0" result="BackgroundImageFix"/>
<feColorMatrix in="SourceAlpha" type="matrix" values="0 0 0 0 0 0 0 0 0 0 0 0 0 0 0 0 0 0 127 0"/>
<feOffset dy="1"/>
<feGaussianBlur stdDeviation="5"/>
<feColorMatrix type="matrix" values="0 0 0 0 0.317647 0 0 0 0 0.662745 0 0 0 0 0.882353 0 0 0 0.2 0"/>
<feBlend mode="normal" in2="BackgroundImageFix" result="effect1_dropShadow"/>
<feColorMatrix in="SourceAlpha" type="matrix" values="0 0 0 0 0 0 0 0 0 0 0 0 0 0 0 0 0 0 127 0"/>
<feOffset dy="4"/>
<feGaussianBlur stdDeviation="2.5"/>
<feColorMatrix type="matrix" values="0 0 0 0 0.317647 0 0 0 0 0.662745 0 0 0 0 0.882353 0 0 0 0.12 0"/>
<feBlend mode="normal" in2="effect1_dropShadow" result="effect2_dropShadow"/>
<feColorMatrix in="SourceAlpha" type="matrix" values="0 0 0 0 0 0 0 0 0 0 0 0 0 0 0 0 0 0 127 0"/>
<feOffset dy="2"/>
<feGaussianBlur stdDeviation="2"/>
<feColorMatrix type="matrix" values="0 0 0 0 0.317647 0 0 0 0 0.662745 0 0 0 0 0.882353 0 0 0 0.14 0"/>
<feBlend mode="normal" in2="effect2_dropShadow" result="effect3_dropShadow"/>
<feBlend mode="normal" in="SourceGraphic" in2="effect3_dropShadow" result="shape"/>
</filter>
<linearGradient id="paint0_linear" x1="320.699" y1="281.714" x2="164.196" y2="282.438" gradientUnits="userSpaceOnUse">
<stop stop-color="#92C9EC"/>
<stop offset="0.333962" stop-color="#92C9EC"/>
<stop offset="1" stop-color="#92C9EC" stop-opacity="0"/>
</linearGradient>
<linearGradient id="paint1_linear" x1="320.699" y1="84.2857" x2="164.196" y2="83.5616" gradientUnits="userSpaceOnUse">
<stop stop-color="#92C9EC"/>
<stop offset="0.333962" stop-color="#92C9EC"/>
<stop offset="1" stop-color="#92C9EC" stop-opacity="0"/>
</linearGradient>
<linearGradient id="paint2_linear" x1="301.699" y1="183" x2="181.699" y2="183" gradientUnits="userSpaceOnUse">
<stop stop-color="#92C9EC"/>
<stop offset="1" stop-color="#92C9EC" stop-opacity="0"/>
</linearGradient>
<linearGradient id="paint3_linear" x1="300.762" y1="281.714" x2="457.265" y2="282.438" gradientUnits="userSpaceOnUse">
<stop stop-color="#92C9EC"/>
<stop offset="0.333962" stop-color="#92C9EC"/>
<stop offset="1" stop-color="#92C9EC" stop-opacity="0"/>
</linearGradient>
<linearGradient id="paint4_linear" x1="300.762" y1="84.2857" x2="457.265" y2="83.5616" gradientUnits="userSpaceOnUse">
<stop stop-color="#92C9EC"/>
<stop offset="0.333962" stop-color="#92C9EC"/>
<stop offset="1" stop-color="#92C9EC" stop-opacity="0"/>
</linearGradient>
<linearGradient id="paint5_linear" x1="319.762" y1="183" x2="439.762" y2="183" gradientUnits="userSpaceOnUse">
<stop stop-color="#92C9EC"/>
<stop offset="1" stop-color="#92C9EC" stop-opacity="0"/>
</linearGradient>
</defs>
</svg>
