<svg width="59" height="76" fill="none" xmlns="http://www.w3.org/2000/svg"><path d="M28.66 75.32c-12.1 0-21.523-3.667-28.27-11l8.69-10.89c5.133 5.353 11.623 8.03 19.47 8.03 4.18 0 7.48-1.027 9.9-3.08 2.493-2.127 3.74-4.73 3.74-7.81 0-3.3-1.173-5.94-3.52-7.92-2.347-1.98-5.573-2.97-9.68-2.97-6.087 0-11.22 1.98-15.4 5.94L2.7 42.76V.63h50.38v13.75H18.32v17.93c4.107-4.107 9.497-6.16 16.17-6.16 6.527 0 12.063 2.163 16.61 6.49 4.62 4.327 6.93 10.083 6.93 17.27 0 7.773-2.677 13.97-8.03 18.59-5.353 4.547-12.467 6.82-21.34 6.82z" fill="#92C9EC" fill-opacity=".5"/></svg>