<svg width="61" height="77" fill="none" xmlns="http://www.w3.org/2000/svg"><path d="M32.42 76.32c-10.56 0-18.48-3.52-23.76-10.56C3.38 58.72.74 49.627.74 38.48c0-11.367 3.043-20.533 9.13-27.5C15.957 4.013 24.317.53 34.95.53c8.507 0 15.73 2.53 21.67 7.59l-7.04 11.99c-4.033-3.813-8.91-5.72-14.63-5.72-5.353 0-9.753 2.017-13.2 6.05-3.447 3.96-5.17 8.873-5.17 14.74 0 .66.037 1.173.11 1.54 1.833-2.64 4.473-4.877 7.92-6.71 3.447-1.833 7.077-2.75 10.89-2.75 6.967 0 12.87 2.127 17.71 6.38 4.84 4.18 7.26 10.01 7.26 17.49 0 7.26-2.603 13.273-7.81 18.04-5.207 4.767-11.953 7.15-20.24 7.15zm-.88-13.86c3.96 0 7.113-1.1 9.46-3.3 2.42-2.2 3.63-4.693 3.63-7.48 0-3.593-1.32-6.307-3.96-8.14-2.64-1.907-5.867-2.86-9.68-2.86-5.867 0-10.633 2.31-14.3 6.93.367 4.107 1.76 7.627 4.18 10.56 2.42 2.86 5.977 4.29 10.67 4.29z" fill="#92C9EC" fill-opacity=".5"/></svg>