<svg width="59" height="51" xmlns="http://www.w3.org/2000/svg" xmlns:xlink="http://www.w3.org/1999/xlink"><defs><path id="a" d="M0 .137h58.871V51H0"/></defs><g fill="none" fill-rule="evenodd"><g><mask id="b" fill="#fff"><use xlink:href="#a"/></mask><path d="M48.934 19.778h-.305A8.976 8.976 0 0 0 35.716 8.975C33.843 3.82 28.9.137 23.098.137c-7.412 0-13.421 6.009-13.421 13.42 0 1.323.193 2.6.55 3.806C4.579 17.37 0 21.953 0 27.603v1.807c0 5.656 4.586 10.24 10.243 10.24h38.692c5.489 0 9.938-4.447 9.938-9.935s-4.45-9.937-9.938-9.937" fill="#92C9EC" mask="url(#b)"/></g><path d="M36.653 26.958H20.986a4.333 4.333 0 1 1 0-8.667h15.667a4.333 4.333 0 1 1 0 8.667zM36.653 38.625H20.986a4.333 4.333 0 1 1 0-8.667h15.667a4.333 4.333 0 1 1 0 8.667zM36.653 50H20.986a4.333 4.333 0 1 1 0-8.667h15.667a4.333 4.333 0 1 1 0 8.667z" stroke="#103654" stroke-width="2"/><path d="M37.486 22.708a1.333 1.333 0 1 1-2.666 0 1.333 1.333 0 0 1 2.666 0M37.486 34.27a1.333 1.333 0 1 1-2.666 0 1.333 1.333 0 0 1 2.666 0M37.486 45.813a1.333 1.333 0 1 1-2.666-.001 1.333 1.333 0 0 1 2.666 0" fill="#103654"/></g></svg>
