<svg width="488" height="230" fill="none" xmlns="http://www.w3.org/2000/svg"><rect x="20" y="62" width="144" height="144" rx="36" fill="#fff" filter="url(#filter0_d)"/><path d="M69 179h59a7 7 0 0 0 7-7v-66l-24-24H69a7 7 0 0 0-7 7v83a7 7 0 0 0 7 7z" fill="#E2E5E7"/><path d="M135 121l-15-15h15v15zM119 131H66a4 4 0 0 0-4 4v33h57a4 4 0 0 0 4-4v-29a4 4 0 0 0-4-4z" fill="#CAD1D8"/><path d="M118 106h17l-24-24v17a7 7 0 0 0 7 7z" fill="#B0B7BD"/><rect x="50" y="127" width="73" height="37" rx="4" fill="#E28800"/><path d="M60.917 153.22c-1.071 0-2.046-.249-2.926-.748-.323-.191-.484-.462-.484-.814 0-.235.073-.44.22-.616a.77.77 0 0 1 .616-.286c.146 0 .278.029.396.088a4.696 4.696 0 0 0 2.046.484c.792 0 1.43-.227 1.914-.682.498-.455.748-1.313.748-2.574v-9.526c0-.279.095-.513.286-.704a.924.924 0 0 1 .704-.308c.278 0 .513.103.704.308a.923.923 0 0 1 .308.704v9.394c0 1.921-.433 3.285-1.298 4.092-.851.792-1.929 1.188-3.234 1.188zM70.593 153.11a.955.955 0 0 1-.704-.286.957.957 0 0 1-.286-.704v-13.464c0-.279.095-.513.286-.704a.924.924 0 0 1 .704-.308h5.016c1.393 0 2.53.235 3.41.704.88.469 1.51 1.071 1.892 1.804.381.733.572 1.525.572 2.376s-.19 1.643-.572 2.376c-.382.733-1.012 1.335-1.892 1.804-.88.469-2.017.704-3.41.704h-4.004v4.708a.923.923 0 0 1-.308.704.956.956 0 0 1-.704.286zm4.818-7.59c1.496 0 2.544-.286 3.146-.858.616-.572.924-1.283.924-2.134s-.308-1.562-.924-2.134c-.602-.572-1.65-.858-3.146-.858h-3.806v5.984h3.806zM85.374 153a.956.956 0 0 1-.704-.286.957.957 0 0 1-.286-.704v-13.354c0-.279.095-.513.286-.704a.924.924 0 0 1 .704-.308h8.822a.86.86 0 0 1 .66.286.86.86 0 0 1 .286.66.86.86 0 0 1-.286.66.895.895 0 0 1-.66.264h-7.81v4.862h7.018a.86.86 0 0 1 .66.286.86.86 0 0 1 .286.66.86.86 0 0 1-.286.66.895.895 0 0 1-.66.264h-7.018v4.884h7.81a.86.86 0 0 1 .66.286.86.86 0 0 1 .286.66.86.86 0 0 1-.286.66.895.895 0 0 1-.66.264h-8.822zM105.061 153.22c-1.511 0-2.853-.33-4.026-.99a7.043 7.043 0 0 1-2.728-2.794c-.645-1.203-.968-2.567-.968-4.092 0-1.555.337-2.933 1.012-4.136.675-1.203 1.591-2.134 2.75-2.794 1.173-.66 2.471-.99 3.894-.99 1.144 0 2.141.139 2.992.418.865.279 1.694.667 2.486 1.166.117.059.22.161.308.308a.924.924 0 0 1 .132.484.87.87 0 0 1-.264.638c-.161.176-.381.264-.66.264-.161 0-.315-.037-.462-.11a9.12 9.12 0 0 0-2.068-.924 7.838 7.838 0 0 0-2.244-.308c-1.115 0-2.119.235-3.014.704a5.116 5.116 0 0 0-2.112 2.068c-.499.895-.748 1.965-.748 3.212 0 1.144.235 2.171.704 3.08a5.45 5.45 0 0 0 2.068 2.134c.909.513 1.98.77 3.212.77a7.942 7.942 0 0 0 3.85-.968v-3.982h-3.63a.87.87 0 0 1-.638-.264.87.87 0 0 1-.264-.638.87.87 0 0 1 .264-.638.87.87 0 0 1 .638-.264h4.334c.293 0 .543.103.748.308.205.205.308.455.308.748v4.994c0 .308-.081.587-.242.836a1.38 1.38 0 0 1-.594.528c-1.643.821-3.322 1.232-5.038 1.232z" fill="#fff"/><path fill-rule="evenodd" clip-rule="evenodd" d="M57.736 152.902c-.462-.273-.73-.702-.73-1.244 0-.349.113-.668.337-.936l.002-.003a1.27 1.27 0 0 1 .998-.463c.213 0 .421.043.615.139a4.2 4.2 0 0 0 1.827.433c.69 0 1.198-.195 1.571-.546l.006-.006c.334-.304.585-.972.585-2.204v-9.526c0-.403.142-.764.426-1.051a1.422 1.422 0 0 1 1.064-.461c.412 0 .775.156 1.057.454.298.283.455.646.455 1.058v9.394c0 1.976-.442 3.511-1.457 4.458-.955.889-2.16 1.322-3.575 1.322-1.152 0-2.213-.269-3.173-.813l-.008-.005zm7.405-15.06a.924.924 0 0 0-.704-.308.924.924 0 0 0-.704.308.957.957 0 0 0-.286.704v9.526c0 1.261-.25 2.119-.748 2.574-.484.455-1.122.682-1.914.682-.69 0-1.372-.161-2.046-.484a.869.869 0 0 0-.396-.088.77.77 0 0 0-.616.286.932.932 0 0 0-.22.616c0 .352.161.623.484.814.88.499 1.855.748 2.926.748 1.305 0 2.383-.396 3.234-1.188.865-.807 1.298-2.171 1.298-4.092v-9.394a.923.923 0 0 0-.308-.704zm13.075 6.454c.513-.477.765-1.055.765-1.768 0-.714-.252-1.292-.764-1.768l-.005-.004c-.458-.435-1.34-.72-2.801-.72h-3.306v4.984h3.306c1.46 0 2.343-.285 2.801-.72l.004-.004zm-6.611 1.224v-5.984h3.806c1.496 0 2.544.286 3.146.858.616.572.924 1.283.924 2.134s-.308 1.562-.924 2.134c-.602.572-1.65.858-3.146.858h-3.806zm-1.012 8.09a1.46 1.46 0 0 1-1.058-.432 1.458 1.458 0 0 1-.432-1.058v-13.464c0-.403.142-.764.426-1.051a1.422 1.422 0 0 1 1.064-.461h5.016c1.444 0 2.67.243 3.645.763.95.507 1.663 1.174 2.1 2.014.42.807.629 1.678.629 2.607 0 .928-.21 1.8-.629 2.607-.436.84-1.15 1.507-2.1 2.014-.975.52-2.2.763-3.645.763h-3.504v4.208c0 .415-.16.78-.461 1.064a1.454 1.454 0 0 1-1.051.426zm.704-.786a.923.923 0 0 0 .308-.704v-4.708h4.004c1.393 0 2.53-.235 3.41-.704.88-.469 1.51-1.071 1.892-1.804a5.072 5.072 0 0 0 .572-2.376c0-.851-.19-1.643-.572-2.376-.382-.733-1.012-1.335-1.892-1.804-.88-.469-2.017-.704-3.41-.704h-5.016a.924.924 0 0 0-.704.308.957.957 0 0 0-.286.704v13.464c0 .279.095.513.286.704.19.191.425.286.704.286a.956.956 0 0 0 .704-.286zm14.077.676a1.46 1.46 0 0 1-1.057-.432 1.458 1.458 0 0 1-.433-1.058v-13.354c0-.403.142-.764.426-1.051a1.422 1.422 0 0 1 1.064-.461h8.822c.394 0 .743.147 1.014.432.285.271.432.62.432 1.014 0 .397-.15.749-.44 1.021a1.395 1.395 0 0 1-1.006.403h-7.31v3.862h6.518c.394 0 .743.147 1.014.432.285.271.432.62.432 1.014 0 .397-.15.749-.44 1.021a1.395 1.395 0 0 1-1.006.403h-6.518v3.884h7.31c.394 0 .743.147 1.014.432.285.271.432.62.432 1.014 0 .397-.15.749-.44 1.021a1.395 1.395 0 0 1-1.006.403h-8.822zm9.482-.764a.86.86 0 0 0 .286-.66.86.86 0 0 0-.286-.66.86.86 0 0 0-.66-.286h-7.81v-4.884h7.018a.895.895 0 0 0 .66-.264.86.86 0 0 0 .286-.66.86.86 0 0 0-.286-.66.86.86 0 0 0-.66-.286h-7.018v-4.862h7.81a.895.895 0 0 0 .66-.264.86.86 0 0 0 .286-.66.86.86 0 0 0-.286-.66.86.86 0 0 0-.66-.286h-8.822a.924.924 0 0 0-.704.308.957.957 0 0 0-.286.704v13.354c0 .279.095.513.286.704.19.191.425.286.704.286h8.822a.895.895 0 0 0 .66-.264zm5.934-.07l-.004-.003a7.534 7.534 0 0 1-2.918-2.988l-.002-.003c-.688-1.283-1.027-2.73-1.027-4.328 0-1.629.354-3.094 1.076-4.381.717-1.279 1.698-2.277 2.938-2.984l.003-.001c1.252-.704 2.635-1.054 4.139-1.054 1.182 0 2.234.144 3.147.442.899.29 1.759.693 2.58 1.208.212.113.37.288.488.485.136.226.203.477.203.741 0 .378-.138.715-.403.984-.271.291-.632.418-1.021.418-.24 0-.471-.055-.686-.163l-.016-.008-.016-.009a8.632 8.632 0 0 0-1.955-.875 7.33 7.33 0 0 0-2.101-.287c-1.042 0-1.966.219-2.782.647a4.622 4.622 0 0 0-1.908 1.87c-.449.805-.684 1.788-.684 2.967 0 1.072.219 2.017.646 2.846a4.952 4.952 0 0 0 1.876 1.935c.821.462 1.802.703 2.962.703a7.435 7.435 0 0 0 3.35-.772v-3.178h-3.13c-.382 0-.722-.141-.992-.41-.27-.27-.41-.61-.41-.992s.14-.722.41-.992c.27-.27.61-.41.992-.41h4.334c.424 0 .801.154 1.101.454.301.301.455.678.455 1.102v4.994c0 .399-.106.772-.32 1.104a1.88 1.88 0 0 1-.797.71c-1.706.852-3.46 1.282-5.257 1.282-1.586 0-3.014-.347-4.271-1.054zm9.309-.678a1.38 1.38 0 0 0 .594-.528c.161-.249.242-.528.242-.836v-4.994a1.02 1.02 0 0 0-.308-.748 1.02 1.02 0 0 0-.748-.308h-4.334a.87.87 0 0 0-.638.264.87.87 0 0 0-.264.638.87.87 0 0 0 .264.638.87.87 0 0 0 .638.264h3.63v3.982a7.942 7.942 0 0 1-3.85.968c-1.232 0-2.303-.257-3.212-.77a5.45 5.45 0 0 1-2.068-2.134c-.47-.909-.704-1.936-.704-3.08 0-1.247.25-2.317.748-3.212a5.116 5.116 0 0 1 2.112-2.068c.895-.469 1.899-.704 3.014-.704.807 0 1.555.103 2.244.308a9.12 9.12 0 0 1 2.068.924c.147.073.301.11.462.11.279 0 .499-.088.66-.264a.87.87 0 0 0 .264-.638.924.924 0 0 0-.132-.484.776.776 0 0 0-.308-.308 10.961 10.961 0 0 0-2.486-1.166c-.851-.279-1.848-.418-2.992-.418-1.423 0-2.721.33-3.894.99-1.159.66-2.075 1.591-2.75 2.794-.675 1.203-1.012 2.581-1.012 4.136 0 1.525.323 2.889.968 4.092a7.043 7.043 0 0 0 2.728 2.794c1.173.66 2.515.99 4.026.99 1.716 0 3.395-.411 5.038-1.232z" fill="#fff"/><rect x="148" y="16" width="144" height="144" rx="36" fill="#fff" filter="url(#filter1_d)"/><path d="M197 133h59a7 7 0 0 0 7-7V60l-24-24h-42a7 7 0 0 0-7 7v83a7 7 0 0 0 7 7z" fill="#E2E5E7"/><path d="M247 85h-53a4 4 0 0 0-4 4v33h57a4 4 0 0 0 4-4V89a4 4 0 0 0-4-4z" fill="#CAD1D8"/><path d="M246 60h17l-24-24v17a7 7 0 0 0 7 7z" fill="#B0B7BD"/><rect x="178" y="81" width="73" height="37" rx="4" fill="#F15642"/><path d="M192.28 107.11a.957.957 0 0 1-.704-.286.96.96 0 0 1-.286-.704V92.656a.96.96 0 0 1 .286-.704.925.925 0 0 1 .704-.308h5.016c1.394 0 2.53.235 3.41.704.88.47 1.511 1.07 1.892 1.804.382.733.572 1.525.572 2.376 0 .85-.19 1.643-.572 2.376-.381.733-1.012 1.335-1.892 1.804-.88.469-2.016.704-3.41.704h-4.004v4.708a.92.92 0 0 1-.308.704.954.954 0 0 1-.704.286zm4.818-7.59c1.496 0 2.545-.286 3.146-.858.616-.572.924-1.283.924-2.134 0-.85-.308-1.562-.924-2.134-.601-.572-1.65-.858-3.146-.858h-3.806v5.984h3.806zm11.964 7.48a.954.954 0 0 1-.704-.286.956.956 0 0 1-.286-.704V92.656c0-.279.095-.513.286-.704a.922.922 0 0 1 .704-.308h4.422c1.672 0 3.087.374 4.246 1.122 1.173.733 2.053 1.687 2.64 2.86a8.168 8.168 0 0 1 .88 3.696 8.166 8.166 0 0 1-.88 3.696c-.587 1.173-1.467 2.134-2.64 2.882-1.159.733-2.574 1.1-4.246 1.1h-4.422zm4.18-1.87c1.202 0 2.258-.242 3.168-.726a5.36 5.36 0 0 0 2.112-2.046c.498-.88.748-1.892.748-3.036 0-1.144-.25-2.149-.748-3.014a5.166 5.166 0 0 0-2.112-2.046c-.91-.499-1.966-.748-3.168-.748h-3.168v11.616h3.168zm14.341 1.98a.956.956 0 0 1-.704-.286.956.956 0 0 1-.286-.704V92.656c0-.279.095-.513.286-.704a.923.923 0 0 1 .704-.308h8.558a.86.86 0 0 1 .66.286.86.86 0 0 1 .286.66.86.86 0 0 1-.286.66.895.895 0 0 1-.66.264h-7.546v4.862h6.776a.86.86 0 0 1 .66.286.86.86 0 0 1 .286.66.86.86 0 0 1-.286.66.895.895 0 0 1-.66.264h-6.776v5.874a.924.924 0 0 1-.308.704.956.956 0 0 1-.704.286z" fill="#fff"/><path d="M191.576 106.824l.354-.354-.354.354zm0-14.872l.354.354.006-.007.007-.007-.367-.34zm11.022 2.2l-.443.23.443-.23zm0 4.752l-.443-.23.443.23zm-9.306 2.508v-.5h-.5v.5h.5zm-.308 5.412l-.34-.366-.007.006-.006.006.353.354zm7.26-8.162l-.34-.366-.004.004.344.362zm0-4.268l-.344.362.004.004.34-.366zm-6.952-.858v-.5h-.5v.5h.5zm0 5.984h-.5v.5h.5v-.5zm-1.012 7.09a.455.455 0 0 1-.35-.14l-.707.708c.288.287.651.432 1.057.432v-1zm-.35-.14a.455.455 0 0 1-.14-.35h-1c0 .406.145.77.433 1.058l.707-.708zm-.14-.35V92.656h-1v13.464h1zm0-13.464c0-.151.046-.257.14-.35l-.707-.708a1.456 1.456 0 0 0-.433 1.058h1zm.153-.364a.422.422 0 0 1 .337-.148v-1c-.418 0-.785.161-1.07.468l.733.68zm.337-.148h5.016v-1h-5.016v1zm5.016 0c1.342 0 2.39.227 3.175.645l.471-.882c-.976-.52-2.201-.763-3.646-.763v1zm3.175.645c.81.432 1.358.967 1.684 1.594l.887-.462c-.437-.84-1.15-1.507-2.1-2.014l-.471.882zm1.684 1.594c.343.66.515 1.372.515 2.145h1c0-.928-.209-1.8-.628-2.607l-.887.462zm.515 2.145c0 .773-.172 1.485-.515 2.145l.887.462a5.58 5.58 0 0 0 .628-2.607h-1zm-.515 2.145c-.326.627-.874 1.162-1.684 1.594l.471.882c.95-.507 1.663-1.174 2.1-2.014l-.887-.462zm-1.684 1.594c-.785.418-1.833.645-3.175.645v1c1.445 0 2.67-.243 3.646-.763l-.471-.882zm-3.175.645h-4.004v1h4.004v-1zm-4.504.5v4.708h1v-4.708h-1zm0 4.708a.426.426 0 0 1-.148.338l.68.732c.307-.284.468-.651.468-1.07h-1zm-.161.35a.459.459 0 0 1-.351.14v1c.407 0 .77-.145 1.058-.432l-.707-.708zm4.467-6.45c1.531 0 2.746-.287 3.491-.996l-.689-.724c-.458.435-1.341.72-2.802.72v1zm3.486-.992c.72-.668 1.084-1.512 1.084-2.5h-1c0 .713-.251 1.291-.764 1.768l.68.732zm1.084-2.5c0-.988-.364-1.833-1.084-2.5l-.68.732c.513.477.764 1.054.764 1.768h1zm-1.079-2.496c-.745-.709-1.96-.996-3.491-.996v1c1.461 0 2.344.285 2.802.72l.689-.724zm-3.491-.996h-3.806v1h3.806v-1zm-4.306.5v5.984h1v-5.984h-1zm.5 6.484h3.806v-1h-3.806v1zm15.066 6.694l.353-.354-.353.354zm0-14.762l.353.354.007-.007.006-.007-.366-.34zm9.371.814l-.271.42.007.004.264-.424zm2.641 2.86l-.448.224.448-.224zm0 7.392l-.448-.224.448.224zm-2.641 2.882l.268.422h.001l-.269-.422zm-1.319-1.496l.234.441.006-.003-.24-.438zm2.111-2.046l.434.25.002-.003-.436-.247zm0-6.05l-.435.246.002.004.433-.25zm-2.111-2.046l-.241.438.006.003.235-.441zm-6.337-.748v-.5h-.5v.5h.5zm0 11.616h-.5v.5h.5v-.5zm-1.011 1.37a.457.457 0 0 1-.351-.14l-.707.708a1.46 1.46 0 0 0 1.058.432v-1zm-.351-.14a.458.458 0 0 1-.139-.35h-1c0 .406.144.77.432 1.058l.707-.708zm-.139-.35V92.656h-1v13.354h1zm0-13.354a.46.46 0 0 1 .139-.35l-.707-.708a1.456 1.456 0 0 0-.432 1.058h1zm.152-.364a.426.426 0 0 1 .338-.148v-1c-.419 0-.786.161-1.071.468l.733.68zm.338-.148h4.422v-1h-4.422v1zm4.422 0c1.596 0 2.912.356 3.974 1.042l.543-.84c-1.256-.81-2.77-1.202-4.517-1.202v1zm3.981 1.046c1.099.687 1.914 1.573 2.457 2.66l.895-.448c-.63-1.26-1.576-2.28-2.823-3.06l-.529.848zm2.457 2.66a7.655 7.655 0 0 1 .828 3.472h1c0-1.37-.312-2.678-.933-3.92l-.895.448zm.828 3.472a7.652 7.652 0 0 1-.828 3.472l.895.448a8.659 8.659 0 0 0 .933-3.92h-1zm-.828 3.472c-.543 1.088-1.359 1.982-2.461 2.684l.537.844c1.245-.794 2.189-1.821 2.819-3.08l-.895-.448zm-2.46 2.684c-1.063.672-2.38 1.022-3.978 1.022v1c1.745 0 3.258-.383 4.513-1.178l-.535-.844zm-3.978 1.022h-4.422v1h4.422v-1zm-.242-.87c1.27 0 2.41-.256 3.402-.785l-.469-.882c-.826.439-1.799.667-2.933.667v1zm3.408-.788a5.857 5.857 0 0 0 2.305-2.234l-.867-.5a4.857 4.857 0 0 1-1.919 1.858l.481.876zm2.307-2.237c.546-.965.813-2.064.813-3.283h-1c0 1.069-.233 1.994-.684 2.789l.871.494zm.813-3.283c0-1.219-.267-2.312-.815-3.264l-.867.5c.449.779.682 1.695.682 2.764h1zm-.813-3.26a5.665 5.665 0 0 0-2.313-2.241l-.469.882a4.654 4.654 0 0 1 1.911 1.852l.871-.494zm-2.307-2.238c-.994-.546-2.135-.81-3.408-.81v1c1.132 0 2.102.234 2.927.686l.481-.876zm-3.408-.81h-3.169v1h3.169v-1zm-3.669.5v11.616h1V93.514h-1zm.5 12.116h3.169v-1h-3.169v1zm16.806 1.194l.354-.354-.354.354zm0-14.872l.354.354.006-.007.006-.007-.366-.34zm9.922-.022l-.367.34.013.014.015.013.339-.367zm0 1.32l-.339-.367-.007.006-.008.007.354.354zm-8.206.264v-.5h-.5v.5h.5zm0 4.862h-.5v.5h.5v-.5zm7.436.286l-.367.34.013.014.015.013.339-.367zm0 1.32l-.339-.367-.007.006-.008.007.354.354zm-7.436.264v-.5h-.5v.5h.5zm-.308 6.578l-.34-.366-.007.006-.007.006.354.354zm-.704-.214a.455.455 0 0 1-.35-.14l-.708.708c.288.287.652.432 1.058.432v-1zm-.35-.14a.455.455 0 0 1-.14-.35h-1c0 .406.145.77.432 1.058l.708-.708zm-.14-.35V92.656h-1v13.464h1zm0-13.464c0-.151.046-.257.14-.35l-.708-.708a1.46 1.46 0 0 0-.432 1.058h1zm.152-.364a.426.426 0 0 1 .338-.148v-1a1.42 1.42 0 0 0-1.07.468l.732.68zm.338-.148h8.558v-1h-8.558v1zm8.558 0c.127 0 .213.039.293.125l.734-.678a1.358 1.358 0 0 0-1.027-.447v1zm.321.153c.086.08.125.166.125.293h1c0-.4-.152-.755-.447-1.027l-.678.734zm.125.293a.363.363 0 0 1-.125.293l.678.734c.295-.272.447-.626.447-1.027h-1zm-.14.306a.397.397 0 0 1-.306.118v1c.388 0 .738-.135 1.014-.41l-.708-.708zm-.306.118h-7.546v1h7.546v-1zm-8.046.5v4.862h1v-4.862h-1zm.5 5.362h6.776v-1h-6.776v1zm6.776 0c.127 0 .213.039.293.125l.734-.678a1.358 1.358 0 0 0-1.027-.447v1zm.321.153c.086.08.125.166.125.293h1c0-.4-.152-.755-.447-1.027l-.678.734zm.125.293a.363.363 0 0 1-.125.293l.678.734a1.36 1.36 0 0 0 .447-1.027h-1zm-.14.306a.397.397 0 0 1-.306.118v1c.388 0 .738-.135 1.014-.41l-.708-.708zm-.306.118h-6.776v1h6.776v-1zm-7.276.5v5.874h1v-5.874h-1zm0 5.874a.426.426 0 0 1-.148.338l.68.732c.307-.284.468-.651.468-1.07h-1zm-.162.35a.455.455 0 0 1-.35.14v1c.406 0 .77-.145 1.058-.432l-.708-.708z" fill="#fff"/><path d="M263 75l-15-15h15v15z" fill="#CAD1D8"/><rect x="252" y="100" width="96" height="96" rx="19" fill="#fff" filter="url(#filter2_d)"/><path d="M287 178h34.667a7 7 0 0 0 7-7v-41.667l-16-16H287a7 7 0 0 0-7 7V171a7 7 0 0 0 7 7z" fill="#E2E5E7"/><path d="M316.667 146H284a4 4 0 0 0-4 4v20.667h36.667a4 4 0 0 0 4-4V150a4 4 0 0 0-4-4z" fill="#CAD1D8"/><path d="M319.667 129.333h9l-16-16v9a7 7 0 0 0 7 7z" fill="#B0B7BD"/><rect x="272" y="143.333" width="48.667" height="24.667" rx="4" fill="#275694"/><path d="M298.556 160.354a4.873 4.873 0 0 0 1.883-1.96c.451-.841.684-1.79.704-2.841v-.01c-.02-1.051-.253-1.995-.704-2.826a4.845 4.845 0 0 0-1.884-1.975c-.806-.476-1.746-.709-2.81-.709s-2.008.233-2.824.708a4.877 4.877 0 0 0-1.885 1.962c-.441.831-.669 1.78-.689 2.84v.01c.02 1.06.248 2.009.689 2.84a4.877 4.877 0 0 0 1.885 1.962c.816.475 1.76.708 2.824.708 1.064 0 2.004-.233 2.811-.709zm0 0l-.001.001-.126-.216m.127.215l-.127-.215m0 0c-.763.449-1.657.674-2.684.674-1.027 0-1.926-.225-2.699-.674a4.623 4.623 0 0 1-1.789-1.863c-.42-.792-.64-1.701-.66-2.728h10.296c-.02 1.017-.244 1.926-.675 2.728a4.623 4.623 0 0 1-1.789 1.863zm-12.991.006v-.001c.818-.521 1.437-1.195 1.85-2.02a5.691 5.691 0 0 0 .613-2.576c0-.9-.205-1.759-.613-2.576-.413-.825-1.032-1.494-1.85-2.006-.82-.529-1.813-.787-2.965-.787h-2.948a.866.866 0 0 0-.649.282.886.886 0 0 0-.261.643v8.903c0 .249.089.47.264.646a.888.888 0 0 0 .646.264h2.948c1.152 0 2.144-.253 2.965-.772zm.177-6.483v.002c.308.533.466 1.159.466 1.884 0 .725-.158 1.356-.466 1.9a3.312 3.312 0 0 1-1.31 1.268c-.564.3-1.226.454-1.993.454h-1.862v-7.244h1.862c.767 0 1.428.159 1.992.468l.003.001c.565.301.999.722 1.308 1.267zm20.589 6.739l.004.002c.822.442 1.743.66 2.758.66.684 0 1.3-.08 1.846-.245a7.795 7.795 0 0 0 1.62-.695.858.858 0 0 0 .336-.321.89.89 0 0 0 .115-.455.788.788 0 0 0-.235-.573.824.824 0 0 0-.602-.235.838.838 0 0 0-.376.085l-.004.002a6.4 6.4 0 0 1-1.214.495 4.93 4.93 0 0 1-1.354.166c-.806 0-1.479-.163-2.029-.479a3.204 3.204 0 0 1-1.238-1.318c-.274-.567-.414-1.213-.414-1.942 0-.73.14-1.37.414-1.928.282-.562.692-1 1.237-1.317l.001-.001c.551-.325 1.223-.493 2.029-.493.52 0 .971.057 1.354.166.392.112.797.277 1.214.495l.004.002a.838.838 0 0 0 .376.085c.231 0 .44-.073.602-.235l.008-.008a.82.82 0 0 0 .227-.565.893.893 0 0 0-.115-.455.849.849 0 0 0-.336-.32 7.747 7.747 0 0 0-1.62-.696c-.546-.165-1.162-.245-1.846-.245-1.016 0-1.938.223-2.76.676a4.84 4.84 0 0 0-1.931 1.93l-.001.001c-.464.835-.691 1.807-.691 2.908s.227 2.077.691 2.922h-.001l.002.003a4.978 4.978 0 0 0 1.929 1.928zm-8.551-1.576c-.531.325-1.164.492-1.908.492-.754 0-1.391-.167-1.922-.491a3.25 3.25 0 0 1-1.213-1.336c-.284-.568-.428-1.213-.428-1.942 0-.729.144-1.374.428-1.941a3.247 3.247 0 0 1 1.213-1.337c.531-.324 1.168-.491 1.922-.491.744 0 1.377.167 1.908.492a3.21 3.21 0 0 1 1.227 1.336c.284.567.428 1.212.428 1.941 0 .729-.144 1.374-.428 1.942a3.213 3.213 0 0 1-1.227 1.335z" fill="#fff" stroke="#fff" stroke-width=".5"/><path d="M328.667 139.333l-10-10h10v10z" fill="#CAD1D8"/><rect x="337" y="20" width="64" height="64" rx="12" fill="#fff" filter="url(#filter3_d)"/><path d="M362.667 72h18.444a7 7 0 0 0 7-7V39.556l-10.667-10.667h-14.777a7 7 0 0 0-7 7V65a7 7 0 0 0 7 7z" fill="#E2E5E7"/><path d="M378.778 50.667h-19.111a4 4 0 0 0-4 4V67.11h23.111a4 4 0 0 0 4-4v-8.444a4 4 0 0 0-4-4z" fill="#CAD1D8"/><path d="M380.444 39.556h7.667l-10.667-10.667v7.667a3 3 0 0 0 3 3z" fill="#B0B7BD"/><rect x="350.333" y="48.889" width="32.444" height="16.444" rx="4" fill="#207245"/><path d="M356.954 60.493a.421.421 0 0 1-.294-.117.42.42 0 0 1-.117-.293c0-.105.029-.196.088-.274l2.259-2.777-2.239-2.757a.441.441 0 0 1-.088-.274.41.41 0 0 1 .117-.303.45.45 0 0 1 .518-.078.446.446 0 0 1 .157.127l2.063 2.62 2.063-2.64a.365.365 0 0 1 .322-.156c.118 0 .219.042.304.127a.385.385 0 0 1 .127.293.4.4 0 0 1-.079.245l-2.258 2.786 2.258 2.777c.059.065.088.15.088.254a.424.424 0 0 1-.127.313.404.404 0 0 1-.313.127.42.42 0 0 1-.352-.185l-2.092-2.63-2.063 2.64a.436.436 0 0 1-.342.175zM365.126 60.444a.619.619 0 0 1-.44-.175.62.62 0 0 1-.176-.44V54.02c0-.123.042-.228.127-.312a.41.41 0 0 1 .313-.137.41.41 0 0 1 .313.137c.091.084.137.189.137.313v5.534h3.197a.41.41 0 0 1 .313.137c.091.084.137.189.137.313a.411.411 0 0 1-.137.312.426.426 0 0 1-.313.127h-3.471zM373.184 60.542a5.796 5.796 0 0 1-2.327-.469.435.435 0 0 1-.274-.4c0-.112.036-.206.107-.284a.384.384 0 0 1 .294-.128c.065 0 .127.013.185.04.6.267 1.242.4 1.927.4 1.14 0 1.711-.374 1.711-1.124a.62.62 0 0 0-.225-.489 1.483 1.483 0 0 0-.538-.303 10.99 10.99 0 0 0-.919-.274 12.724 12.724 0 0 1-1.281-.39 2.286 2.286 0 0 1-.841-.578c-.234-.254-.352-.593-.352-1.017a1.8 1.8 0 0 1 .294-1.007c.195-.306.482-.547.86-.723.385-.183.844-.274 1.379-.274.717 0 1.365.107 1.945.322.183.066.274.196.274.392a.431.431 0 0 1-.107.283.355.355 0 0 1-.284.127.448.448 0 0 1-.156-.039 4.782 4.782 0 0 0-1.575-.264c-.514 0-.935.098-1.261.293-.319.196-.479.47-.479.822a.78.78 0 0 0 .225.577c.156.143.349.257.577.342.234.078.551.163.948.254.515.124.929.248 1.242.372.319.124.59.316.812.577.228.26.342.612.342 1.056 0 .365-.104.694-.313.987a2.073 2.073 0 0 1-.88.675c-.378.163-.815.244-1.31.244z" fill="#fff"/><path fill-rule="evenodd" clip-rule="evenodd" d="M356.503 60.533l-.006-.006a.668.668 0 0 1-.044-.851l.003-.004 2.147-2.64-2.128-2.62-.002-.004a.663.663 0 0 1-.133-.407c0-.175.058-.335.183-.46l.157.157a.41.41 0 0 0-.117.303c0 .104.029.195.088.274l2.239 2.757-2.259 2.777a.442.442 0 0 0-.088.274c0 .11.039.208.117.293a.421.421 0 0 0 .294.117c.13 0 .244-.058.342-.176l2.063-2.64 2.092 2.63a.42.42 0 0 0 .352.186.404.404 0 0 0 .313-.127.424.424 0 0 0 .127-.313.364.364 0 0 0-.088-.254l-2.258-2.777 2.258-2.786a.4.4 0 0 0 .079-.245.385.385 0 0 0-.127-.293.415.415 0 0 0-.304-.127c-.143 0-.25.052-.322.156l-2.063 2.64-2.063-2.62a.445.445 0 0 0-.157-.127.45.45 0 0 0-.518.078l-.157-.157a.677.677 0 0 1 1.008.07l1.886 2.396 1.885-2.412a.587.587 0 0 1 .501-.247c.177 0 .333.066.458.19.129.12.195.277.195.453 0 .137-.04.264-.121.375l-.003.005-2.149 2.651 2.142 2.633a.589.589 0 0 1 .141.398.65.65 0 0 1-.189.467.63.63 0 0 1-.474.196.641.641 0 0 1-.528-.273l-1.914-2.407-1.892 2.42-.002.004a.642.642 0 0 1-.957.08l-.007-.007zm8.026-.107l-.004-.005a.841.841 0 0 1-.237-.593V54.02c0-.179.063-.34.189-.467a.631.631 0 0 1 .473-.205c.183 0 .344.07.47.202a.633.633 0 0 1 .202.47v5.312h2.975a.63.63 0 0 1 .47.202.63.63 0 0 1 .202.47.63.63 0 0 1-.205.473.647.647 0 0 1-.467.19h-3.471a.84.84 0 0 1-.593-.237l-.004-.004zm4.381-.734a.41.41 0 0 0-.313-.137H365.4V54.02a.411.411 0 0 0-.137-.312.41.41 0 0 0-.313-.137.41.41 0 0 0-.313.137.424.424 0 0 0-.127.312v5.808c0 .17.059.317.176.44a.619.619 0 0 0 .44.176h3.471a.425.425 0 0 0 .313-.127.411.411 0 0 0 .137-.313.411.411 0 0 0-.137-.312zm1.569.352l-.003-.004a.654.654 0 0 1-.115-.368c0-.164.055-.313.166-.434a.605.605 0 0 1 .457-.199c.095 0 .188.02.276.058.57.254 1.181.382 1.836.382.553 0 .929-.092 1.161-.245.216-.141.328-.348.328-.657a.4.4 0 0 0-.149-.321l-.004-.004a1.259 1.259 0 0 0-.458-.256l-.006-.002a10.813 10.813 0 0 0-.899-.268c-.532-.138-.967-.27-1.304-.398l-.003-.002a2.497 2.497 0 0 1-.922-.632c-.281-.304-.411-.701-.411-1.168 0-.412.109-.79.329-1.127.221-.347.543-.614.953-.805.42-.2.914-.294 1.473-.294.739 0 1.413.11 2.022.336a.63.63 0 0 1 .311.228c.077.11.108.239.108.372 0 .16-.056.305-.16.427l-.169-.144a.43.43 0 0 0 .107-.283c0-.196-.091-.326-.274-.392-.58-.215-1.228-.322-1.945-.322-.535 0-.994.091-1.379.274-.378.176-.665.417-.86.723-.196.3-.294.636-.294 1.007 0 .424.118.763.352 1.017.235.254.515.447.841.577.326.124.753.254 1.281.391.398.104.704.196.919.274.215.072.395.173.538.303.15.13.225.293.225.489 0 .75-.571 1.124-1.711 1.124a4.68 4.68 0 0 1-1.927-.4.448.448 0 0 0-.185-.04.384.384 0 0 0-.294.127.408.408 0 0 0-.107.284.435.435 0 0 0 .274.4c.723.314 1.499.47 2.327.47.495 0 .932-.081 1.31-.244.378-.163.671-.388.88-.675a1.66 1.66 0 0 0 .313-.987c0-.444-.114-.796-.342-1.056a2.002 2.002 0 0 0-.812-.577 9.565 9.565 0 0 0-1.242-.372 10.669 10.669 0 0 1-.948-.254 1.734 1.734 0 0 1-.577-.342.781.781 0 0 1-.225-.577c0-.352.16-.626.479-.822.326-.195.747-.293 1.261-.293.542 0 1.066.088 1.575.264a.355.355 0 0 0 .44-.088l.169.144a.573.573 0 0 1-.453.205.66.66 0 0 1-.234-.053 4.554 4.554 0 0 0-1.497-.25c-.487 0-.865.093-1.146.262-.258.158-.372.362-.372.63 0 .181.055.314.157.417.131.12.295.218.497.293.224.075.532.157.924.247l.002.001c.52.125.945.252 1.271.38.353.138.654.351.899.64.272.31.396.72.396 1.2 0 .411-.118.785-.354 1.117l-.001.002a2.291 2.291 0 0 1-.972.748c-.411.177-.879.262-1.398.262a6.02 6.02 0 0 1-2.414-.487.681.681 0 0 1-.289-.23l-.002-.003z" fill="#fff"/><path d="M388.111 46.222l-6.667-6.666h6.667v6.666z" fill="#CAD1D8"/><rect x="378" y="48" width="90" height="90" rx="17" fill="#fff" filter="url(#filter4_d)"/><path d="M411.25 121.125h31.625a7 7 0 0 0 7-7V75.5l-15-15H411.25a7 7 0 0 0-7 7v46.625a7 7 0 0 0 7 7z" fill="#E2E5E7"/><path d="M449.875 84.875L440.5 75.5h9.375v9.375zM438.375 91.125H408.25a4 4 0 0 0-4 4v19.125h34.125a4 4 0 0 0 4-4V95.125a4 4 0 0 0-4-4z" fill="#CAD1D8"/><path d="M441.875 75.5h8l-15-15v8a7 7 0 0 0 7 7z" fill="#B0B7BD"/><rect x="396.75" y="88.625" width="45.625" height="23.125" rx="4" fill="#4282FF"/><path d="M403.986 104.944a.599.599 0 0 1-.44-.179.598.598 0 0 1-.178-.44V95.91c0-.174.059-.32.178-.44a.577.577 0 0 1 .44-.192h3.135c.871 0 1.582.146 2.132.44.55.293.944.669 1.182 1.127.238.458.358.953.358 1.485 0 .532-.12 1.027-.358 1.485-.238.458-.632.834-1.182 1.128-.55.293-1.261.44-2.132.44h-2.502v2.942a.575.575 0 0 1-.193.44.599.599 0 0 1-.44.179zm3.012-4.744c.935 0 1.59-.179 1.966-.536.385-.358.577-.802.577-1.334s-.192-.976-.577-1.334c-.376-.357-1.031-.536-1.966-.536h-2.379v3.74h2.379zM414.475 104.944a.597.597 0 0 1-.44-.179.595.595 0 0 1-.179-.44v-8.209c0-.247.087-.458.261-.632a.84.84 0 0 1 .633-.275h.178c.294 0 .546.137.757.412l5.293 7.645v-7.425c0-.174.06-.32.179-.44a.577.577 0 0 1 .44-.192c.174 0 .321.064.44.192.128.12.193.266.193.44v8.209a.843.843 0 0 1-.275.633.864.864 0 0 1-.633.261h-.165a.908.908 0 0 1-.412-.096 1.034 1.034 0 0 1-.317-.275l-5.321-7.687v7.439a.578.578 0 0 1-.192.44.6.6 0 0 1-.44.179zM430.392 105.013c-.944 0-1.783-.207-2.516-.619a4.405 4.405 0 0 1-1.705-1.746c-.403-.752-.605-1.605-.605-2.558 0-.972.211-1.833.632-2.585a4.501 4.501 0 0 1 1.719-1.746 4.881 4.881 0 0 1 2.434-.619c.715 0 1.338.087 1.87.261a6.84 6.84 0 0 1 1.554.729c.073.037.137.1.192.193a.577.577 0 0 1-.082.7.533.533 0 0 1-.413.166.64.64 0 0 1-.289-.069 5.693 5.693 0 0 0-1.292-.578 4.895 4.895 0 0 0-1.403-.192c-.696 0-1.324.147-1.883.44a3.202 3.202 0 0 0-1.32 1.292c-.312.56-.468 1.229-.468 2.008 0 .715.147 1.357.44 1.925a3.416 3.416 0 0 0 1.293 1.334c.568.321 1.237.481 2.007.481.862 0 1.664-.202 2.406-.605v-2.489h-2.268a.544.544 0 0 1-.399-.165.543.543 0 0 1-.165-.398c0-.156.055-.29.165-.4a.544.544 0 0 1 .399-.164h2.708c.184 0 .34.064.468.192a.637.637 0 0 1 .192.468v3.121a.94.94 0 0 1-.151.523.865.865 0 0 1-.371.33c-1.027.513-2.076.77-3.149.77z" fill="#fff"/><path fill-rule="evenodd" clip-rule="evenodd" d="M408.751 99.435c.321-.298.478-.659.478-1.105 0-.446-.157-.807-.478-1.105l-.003-.002c-.286-.272-.837-.45-1.75-.45h-2.067v3.115h2.067c.913 0 1.464-.179 1.75-.45l.003-.003zm-4.132.765v-3.74h2.379c.935 0 1.59.179 1.966.536.385.358.577.802.577 1.334s-.192.976-.577 1.334c-.376.357-1.031.536-1.966.536h-2.379zm-.633 5.056a.91.91 0 0 1-.661-.27.91.91 0 0 1-.27-.661V95.91a.91.91 0 0 1 .266-.657.89.89 0 0 1 .665-.288h3.135c.903 0 1.669.152 2.279.477.594.317 1.039.734 1.312 1.259.262.504.393 1.049.393 1.629 0 .58-.131 1.125-.393 1.63-.273.524-.718.941-1.312 1.258-.61.325-1.376.477-2.279.477h-2.19v2.63c0 .26-.099.488-.288.665a.91.91 0 0 1-.657.266zm.44-.491a.575.575 0 0 0 .193-.44v-2.942h2.502c.871 0 1.582-.147 2.132-.44.55-.294.944-.67 1.182-1.128.238-.458.358-.953.358-1.485 0-.532-.12-1.027-.358-1.485-.238-.458-.632-.834-1.182-1.127-.55-.294-1.261-.44-2.132-.44h-3.135a.577.577 0 0 0-.44.192.598.598 0 0 0-.178.44v8.415c0 .174.059.321.178.44a.599.599 0 0 0 .44.179c.174 0 .321-.06.44-.179zm11.511-9.328l4.729 6.829v-6.425a.91.91 0 0 1 .266-.657.887.887 0 0 1 .665-.288c.258 0 .484.098.661.284a.889.889 0 0 1 .284.661v8.209c0 .334-.127.625-.369.856-.233.232-.522.35-.851.35h-.165c-.194 0-.379-.043-.552-.129l-.008-.004-.007-.004a1.332 1.332 0 0 1-.412-.359l-.003-.005-4.755-6.868v6.438c0 .26-.1.488-.289.665a.908.908 0 0 1-.656.266.91.91 0 0 1-.661-.27.91.91 0 0 1-.271-.661v-8.209c0-.328.119-.618.35-.85.232-.242.523-.37.857-.37h.178c.409 0 .747.199 1.005.535l.004.006zm-1.82.047a.862.862 0 0 0-.261.632v8.209c0 .174.059.321.179.44a.597.597 0 0 0 .44.179.6.6 0 0 0 .44-.179.578.578 0 0 0 .192-.44v-7.439l5.321 7.687c.083.11.188.201.317.275a.908.908 0 0 0 .412.096h.165a.864.864 0 0 0 .633-.261.843.843 0 0 0 .275-.633v-8.209a.578.578 0 0 0-.193-.44.577.577 0 0 0-.44-.192.577.577 0 0 0-.44.192.599.599 0 0 0-.179.44v7.425l-5.293-7.645c-.211-.275-.463-.412-.757-.412h-.178a.84.84 0 0 0-.633.275zm13.606 9.182l-.003-.001a4.722 4.722 0 0 1-1.824-1.868v-.002c-.431-.802-.643-1.706-.643-2.705 0-1.018.222-1.934.673-2.738a4.803 4.803 0 0 1 1.837-1.865h.001a5.19 5.19 0 0 1 2.587-.66c.739 0 1.396.09 1.967.277a7.157 7.157 0 0 1 1.612.755c.133.07.232.18.305.303a.89.89 0 0 1 .127.463.854.854 0 0 1-.252.615.842.842 0 0 1-.638.261.947.947 0 0 1-.428-.102l-.011-.005-.01-.006a5.406 5.406 0 0 0-1.221-.546 4.588 4.588 0 0 0-1.314-.18c-.651 0-1.228.137-1.738.405a2.885 2.885 0 0 0-1.193 1.169c-.28.503-.427 1.117-.427 1.854 0 .67.137 1.261.403 1.779.275.506.664.908 1.173 1.209.513.289 1.127.44 1.851.44.748 0 1.444-.161 2.094-.483v-1.986h-1.956a.855.855 0 0 1-.62-.257.853.853 0 0 1-.257-.619c0-.239.088-.451.257-.62a.856.856 0 0 1 .62-.257h2.708a.95.95 0 0 1 .689.284.946.946 0 0 1 .284.689v3.121c0 .25-.066.482-.2.69-.123.195-.29.345-.498.444-1.066.532-2.163.801-3.286.801-.991 0-1.884-.217-2.669-.659zm5.818-.423a.865.865 0 0 0 .371-.33.94.94 0 0 0 .151-.523v-3.121a.637.637 0 0 0-.192-.468.636.636 0 0 0-.468-.192h-2.708a.544.544 0 0 0-.399.165.544.544 0 0 0-.165.399c0 .155.055.288.165.398.11.11.243.165.399.165h2.268v2.489a4.962 4.962 0 0 1-2.406.605c-.77 0-1.439-.16-2.007-.481a3.416 3.416 0 0 1-1.293-1.334c-.293-.568-.44-1.21-.44-1.925 0-.78.156-1.448.468-2.008.321-.568.761-.999 1.32-1.292.559-.293 1.187-.44 1.883-.44.505 0 .972.064 1.403.193.431.128.862.32 1.292.577a.64.64 0 0 0 .289.069.533.533 0 0 0 .413-.165.577.577 0 0 0 .082-.701.485.485 0 0 0-.192-.193 6.84 6.84 0 0 0-1.554-.729c-.532-.174-1.155-.261-1.87-.261-.889 0-1.7.206-2.434.619a4.501 4.501 0 0 0-1.719 1.746c-.421.752-.632 1.613-.632 2.585 0 .953.202 1.806.605 2.558a4.405 4.405 0 0 0 1.705 1.746c.733.412 1.572.619 2.516.619 1.073 0 2.122-.257 3.149-.77z" fill="#fff"/><defs><filter id="filter0_d" x="0" y="46" width="184" height="184" filterUnits="userSpaceOnUse" color-interpolation-filters="sRGB"><feFlood flood-opacity="0" result="BackgroundImageFix"/><feColorMatrix in="SourceAlpha" values="0 0 0 0 0 0 0 0 0 0 0 0 0 0 0 0 0 0 127 0"/><feOffset dy="4"/><feGaussianBlur stdDeviation="10"/><feColorMatrix values="0 0 0 0 0 0 0 0 0 0 0 0 0 0 0 0 0 0 0.1 0"/><feBlend in2="BackgroundImageFix" result="effect1_dropShadow"/><feBlend in="SourceGraphic" in2="effect1_dropShadow" result="shape"/></filter><filter id="filter1_d" x="128" y="0" width="184" height="184" filterUnits="userSpaceOnUse" color-interpolation-filters="sRGB"><feFlood flood-opacity="0" result="BackgroundImageFix"/><feColorMatrix in="SourceAlpha" values="0 0 0 0 0 0 0 0 0 0 0 0 0 0 0 0 0 0 127 0"/><feOffset dy="4"/><feGaussianBlur stdDeviation="10"/><feColorMatrix values="0 0 0 0 0 0 0 0 0 0 0 0 0 0 0 0 0 0 0.1 0"/><feBlend in2="BackgroundImageFix" result="effect1_dropShadow"/><feBlend in="SourceGraphic" in2="effect1_dropShadow" result="shape"/></filter><filter id="filter2_d" x="232" y="84" width="136" height="136" filterUnits="userSpaceOnUse" color-interpolation-filters="sRGB"><feFlood flood-opacity="0" result="BackgroundImageFix"/><feColorMatrix in="SourceAlpha" values="0 0 0 0 0 0 0 0 0 0 0 0 0 0 0 0 0 0 127 0"/><feOffset dy="4"/><feGaussianBlur stdDeviation="10"/><feColorMatrix values="0 0 0 0 0 0 0 0 0 0 0 0 0 0 0 0 0 0 0.1 0"/><feBlend in2="BackgroundImageFix" result="effect1_dropShadow"/><feBlend in="SourceGraphic" in2="effect1_dropShadow" result="shape"/></filter><filter id="filter3_d" x="317" y="4" width="104" height="104" filterUnits="userSpaceOnUse" color-interpolation-filters="sRGB"><feFlood flood-opacity="0" result="BackgroundImageFix"/><feColorMatrix in="SourceAlpha" values="0 0 0 0 0 0 0 0 0 0 0 0 0 0 0 0 0 0 127 0"/><feOffset dy="4"/><feGaussianBlur stdDeviation="10"/><feColorMatrix values="0 0 0 0 0 0 0 0 0 0 0 0 0 0 0 0 0 0 0.1 0"/><feBlend in2="BackgroundImageFix" result="effect1_dropShadow"/><feBlend in="SourceGraphic" in2="effect1_dropShadow" result="shape"/></filter><filter id="filter4_d" x="358" y="32" width="130" height="130" filterUnits="userSpaceOnUse" color-interpolation-filters="sRGB"><feFlood flood-opacity="0" result="BackgroundImageFix"/><feColorMatrix in="SourceAlpha" values="0 0 0 0 0 0 0 0 0 0 0 0 0 0 0 0 0 0 127 0"/><feOffset dy="4"/><feGaussianBlur stdDeviation="10"/><feColorMatrix values="0 0 0 0 0 0 0 0 0 0 0 0 0 0 0 0 0 0 0.1 0"/><feBlend in2="BackgroundImageFix" result="effect1_dropShadow"/><feBlend in="SourceGraphic" in2="effect1_dropShadow" result="shape"/></filter></defs></svg>