<svg width="50" height="55" fill="none" xmlns="http://www.w3.org/2000/svg"><path d="M41 0H0v55l4.1-2.751L8.2 55l4.1-2.751L16.4 55l4.1-2.751L24.6 55l4.1-2.751L32.8 55l4.1-2.751L41 55V0z" fill="#92C9EC"/><path d="M8.09 18.81v-1.324c1.753-.284 2.826-1.704 2.91-3.407 0-3.691-4.882-3.36-4.882-5.3 0-.852.667-1.42 1.544-1.42 1.001 0 1.836.616 2.128.9.042.094.167.047.209-.048l.667-1.42c.042-.047 0-.141-.042-.188-.25-.237-1.158-.95-2.535-1.093V4.19c0-.095-.084-.19-.167-.19h-.837c-.084 0-.167.095-.167.19v1.372c-1.586.283-2.762 1.608-2.762 3.312 0 3.501 4.883 3.312 4.883 5.3 0 .946-.71 1.42-1.502 1.42-1.169 0-2.129-.805-2.462-1.137-.042-.047-.167-.047-.21.048l-.834 1.325c-.041.094-.041.189 0 .236.292.284 1.342 1.23 2.886 1.42v1.325c0 .094.083.189.167.189h.84c.083 0 .166-.095.166-.19z" fill="#3D5C74"/><path d="M17 10h20M27 15h10M4 25h9M16.964 25H37M4 31h9M16.964 31H37M4 37h9M16.964 37H37" stroke="#fff" stroke-width="2"/></svg>