<svg width="808" height="173" viewBox="0 0 808 173" fill="none" xmlns="http://www.w3.org/2000/svg">
<path d="M194.674 17V3.9446H198.359C199.495 3.9446 200.5 4.19567 201.372 4.6978C202.245 5.19993 202.918 5.91427 203.39 6.84082C203.868 7.76737 204.11 8.83141 204.116 10.0329V10.8668C204.116 12.0982 203.877 13.1772 203.399 14.1038C202.926 15.0303 202.248 15.7417 201.363 16.2378C200.485 16.734 199.459 16.988 198.288 17H194.674ZM196.396 5.36133V15.5922H198.207C199.534 15.5922 200.565 15.1798 201.301 14.3548C202.042 13.5299 202.412 12.3553 202.412 10.831V10.0688C202.412 8.58632 202.063 7.43561 201.363 6.61666C200.67 5.79173 199.684 5.37328 198.404 5.36133H196.396ZM206.026 12.0594C206.026 11.1089 206.211 10.2541 206.582 9.49494C206.958 8.73577 207.479 8.14995 208.142 7.73748C208.812 7.32502 209.574 7.11879 210.429 7.11879C211.75 7.11879 212.817 7.57608 213.63 8.49068C214.449 9.40527 214.858 10.6217 214.858 12.1401V12.2567C214.858 13.2011 214.676 14.05 214.311 14.8032C213.952 15.5504 213.435 16.1332 212.76 16.5517C212.09 16.9701 211.319 17.1793 210.446 17.1793C209.131 17.1793 208.064 16.722 207.245 15.8074C206.432 14.8928 206.026 13.6824 206.026 12.176V12.0594ZM207.694 12.2567C207.694 13.3327 207.942 14.1964 208.438 14.848C208.94 15.4996 209.61 15.8254 210.446 15.8254C211.289 15.8254 211.959 15.4966 212.455 14.839C212.951 14.1755 213.199 13.249 213.199 12.0594C213.199 10.9954 212.945 10.1346 212.437 9.47701C211.935 8.81348 211.265 8.48171 210.429 8.48171C209.61 8.48171 208.949 8.8075 208.447 9.45907C207.945 10.1106 207.694 11.0432 207.694 12.2567ZM220.83 15.8254C221.422 15.8254 221.939 15.646 222.381 15.2874C222.823 14.9287 223.069 14.4804 223.116 13.9424H224.685C224.656 14.4983 224.464 15.0273 224.112 15.5295C223.759 16.0316 223.287 16.4321 222.695 16.731C222.109 17.0299 221.487 17.1793 220.83 17.1793C219.509 17.1793 218.457 16.74 217.674 15.8612C216.896 14.9765 216.508 13.769 216.508 12.2387V11.9608C216.508 11.0163 216.681 10.1764 217.028 9.44114C217.375 8.70588 217.871 8.135 218.516 7.72852C219.168 7.32203 219.936 7.11879 220.821 7.11879C221.909 7.11879 222.811 7.44457 223.529 8.09615C224.252 8.74772 224.638 9.59357 224.685 10.6337H223.116C223.069 10.006 222.829 9.49195 222.399 9.09144C221.975 8.68496 221.449 8.48171 220.821 8.48171C219.978 8.48171 219.323 8.78658 218.857 9.39631C218.397 10.0001 218.167 10.8758 218.167 12.0235V12.3374C218.167 13.4552 218.397 14.316 218.857 14.9197C219.317 15.5235 219.975 15.8254 220.83 15.8254ZM232.54 16.0406C231.895 16.7997 230.947 17.1793 229.698 17.1793C228.664 17.1793 227.875 16.8804 227.331 16.2827C226.793 15.6789 226.521 14.7882 226.515 13.6106V7.29812H228.174V13.5658C228.174 15.0363 228.771 15.7716 229.967 15.7716C231.234 15.7716 232.077 15.2993 232.495 14.3548V7.29812H234.154V17H232.576L232.54 16.0406ZM238.243 7.29812L238.288 8.37411C238.999 7.53723 239.959 7.11879 241.166 7.11879C242.523 7.11879 243.447 7.63885 243.937 8.67898C244.26 8.21271 244.678 7.83612 245.192 7.54918C245.712 7.26225 246.325 7.11879 247.03 7.11879C249.158 7.11879 250.24 8.24559 250.276 10.4992V17H248.617V10.5978C248.617 9.90442 248.459 9.38734 248.142 9.04661C247.825 8.6999 247.293 8.52654 246.546 8.52654C245.93 8.52654 245.419 8.71186 245.013 9.08248C244.606 9.44712 244.37 9.94028 244.304 10.562V17H242.637V10.6427C242.637 9.23192 241.946 8.52654 240.565 8.52654C239.477 8.52654 238.733 8.98982 238.333 9.91637V17H236.674V7.29812H238.243ZM256.813 17.1793C255.498 17.1793 254.428 16.7489 253.603 15.8881C252.778 15.0214 252.365 13.8647 252.365 12.4181V12.1132C252.365 11.1508 252.548 10.293 252.912 9.53977C253.283 8.7806 253.797 8.1888 254.455 7.76438C255.118 7.33398 255.836 7.11879 256.607 7.11879C257.868 7.11879 258.848 7.53424 259.548 8.36515C260.247 9.19605 260.597 10.3856 260.597 11.9339V12.6243H254.024C254.048 13.5807 254.326 14.3548 254.858 14.9466C255.396 15.5325 256.078 15.8254 256.903 15.8254C257.488 15.8254 257.985 15.7058 258.391 15.4667C258.797 15.2276 259.153 14.9108 259.458 14.5162L260.471 15.3053C259.658 16.5547 258.439 17.1793 256.813 17.1793ZM256.607 8.48171C255.937 8.48171 255.375 8.7268 254.921 9.21697C254.467 9.70117 254.186 10.3826 254.078 11.2614H258.938V11.1358C258.89 10.293 258.663 9.64139 258.257 9.18111C257.85 8.71484 257.3 8.48171 256.607 8.48171ZM264.094 7.29812L264.148 8.51758C264.889 7.58505 265.857 7.11879 267.053 7.11879C269.103 7.11879 270.137 8.27548 270.155 10.5889V17H268.496V10.5799C268.49 9.8805 268.329 9.36343 268.012 9.02868C267.701 8.69392 267.214 8.52654 266.551 8.52654C266.013 8.52654 265.54 8.67001 265.134 8.95694C264.727 9.24387 264.411 9.62047 264.183 10.0867V17H262.525V7.29812H264.094ZM274.908 4.94886V7.29812H276.719V8.58034H274.908V14.5969C274.908 14.9855 274.988 15.2784 275.15 15.4757C275.311 15.667 275.586 15.7626 275.975 15.7626C276.166 15.7626 276.429 15.7267 276.764 15.655V17C276.327 17.1196 275.903 17.1793 275.49 17.1793C274.749 17.1793 274.19 16.9552 273.814 16.5068C273.437 16.0585 273.249 15.4219 273.249 14.5969V8.58034H271.482V7.29812H273.249V4.94886H274.908ZM203.632 37.8254C204.224 37.8254 204.741 37.646 205.183 37.2874C205.625 36.9287 205.871 36.4804 205.918 35.9424H207.488C207.458 36.4983 207.266 37.0273 206.914 37.5295C206.561 38.0316 206.089 38.4321 205.497 38.731C204.911 39.0299 204.289 39.1793 203.632 39.1793C202.311 39.1793 201.259 38.74 200.476 37.8612C199.699 36.9765 199.31 35.769 199.31 34.2387V33.9608C199.31 33.0163 199.483 32.1764 199.83 31.4411C200.177 30.7059 200.673 30.135 201.318 29.7285C201.97 29.322 202.738 29.1188 203.623 29.1188C204.711 29.1188 205.613 29.4446 206.331 30.0961C207.054 30.7477 207.44 31.5936 207.488 32.6337H205.918C205.871 32.006 205.631 31.492 205.201 31.0914C204.777 30.685 204.251 30.4817 203.623 30.4817C202.78 30.4817 202.125 30.7866 201.659 31.3963C201.199 32.0001 200.969 32.8758 200.969 34.0235V34.3374C200.969 35.4552 201.199 36.316 201.659 36.9197C202.119 37.5235 202.777 37.8254 203.632 37.8254ZM211.155 39H209.496V25.2273H211.155V39ZM219.808 39C219.712 38.8087 219.634 38.468 219.575 37.9778C218.803 38.7788 217.883 39.1793 216.813 39.1793C215.856 39.1793 215.07 38.9103 214.455 38.3723C213.845 37.8284 213.54 37.1409 213.54 36.31C213.54 35.2998 213.923 34.5167 214.688 33.9608C215.459 33.3989 216.541 33.1179 217.934 33.1179H219.548V32.3557C219.548 31.7759 219.374 31.3156 219.028 30.9749C218.681 30.6282 218.17 30.4548 217.494 30.4548C216.902 30.4548 216.406 30.6043 216.006 30.9031C215.605 31.202 215.405 31.5637 215.405 31.9881H213.737C213.737 31.5039 213.908 31.0376 214.248 30.5893C214.595 30.135 215.061 29.7763 215.647 29.5133C216.239 29.2503 216.888 29.1188 217.593 29.1188C218.711 29.1188 219.586 29.3997 220.22 29.9616C220.854 30.5176 221.183 31.2857 221.206 32.2661V36.7314C221.206 37.6221 221.32 38.3305 221.547 38.8565V39H219.808ZM217.055 37.7357C217.575 37.7357 218.068 37.6012 218.534 37.3322C219.001 37.0632 219.338 36.7135 219.548 36.2831V34.2925H218.247C216.215 34.2925 215.199 34.8873 215.199 36.0769C215.199 36.5969 215.372 37.0034 215.719 37.2963C216.066 37.5893 216.511 37.7357 217.055 37.7357ZM229.456 36.4266C229.456 35.9782 229.285 35.6315 228.945 35.3865C228.61 35.1354 228.021 34.9202 227.178 34.7409C226.341 34.5615 225.675 34.3463 225.179 34.0953C224.688 33.8442 224.324 33.5453 224.085 33.1986C223.852 32.8519 223.735 32.4394 223.735 31.9612C223.735 31.1662 224.07 30.4937 224.739 29.9437C225.415 29.3938 226.276 29.1188 227.322 29.1188C228.422 29.1188 229.312 29.4027 229.994 29.9706C230.681 30.5385 231.025 31.2648 231.025 32.1495H229.357C229.357 31.6952 229.163 31.3037 228.774 30.9749C228.392 30.6461 227.907 30.4817 227.322 30.4817C226.718 30.4817 226.246 30.6132 225.905 30.8762C225.564 31.1393 225.394 31.483 225.394 31.9074C225.394 32.3079 225.552 32.6098 225.869 32.813C226.186 33.0163 226.757 33.2106 227.582 33.3959C228.413 33.5812 229.085 33.8023 229.599 34.0594C230.113 34.3164 230.493 34.6273 230.738 34.9919C230.989 35.3506 231.115 35.79 231.115 36.31C231.115 37.1768 230.768 37.8732 230.074 38.3992C229.381 38.9193 228.481 39.1793 227.375 39.1793C226.598 39.1793 225.911 39.0418 225.313 38.7669C224.715 38.4919 224.246 38.1093 223.905 37.6191C223.571 37.123 223.403 36.588 223.403 36.0141H225.062C225.092 36.57 225.313 37.0124 225.726 37.3412C226.144 37.664 226.694 37.8254 227.375 37.8254C228.003 37.8254 228.505 37.6998 228.882 37.4488C229.264 37.1917 229.456 36.851 229.456 36.4266ZM238.924 36.4266C238.924 35.9782 238.754 35.6315 238.413 35.3865C238.079 35.1354 237.49 34.9202 236.647 34.7409C235.81 34.5615 235.144 34.3463 234.647 34.0953C234.157 33.8442 233.793 33.5453 233.553 33.1986C233.32 32.8519 233.204 32.4394 233.204 31.9612C233.204 31.1662 233.539 30.4937 234.208 29.9437C234.884 29.3938 235.744 29.1188 236.79 29.1188C237.89 29.1188 238.781 29.4027 239.462 29.9706C240.15 30.5385 240.494 31.2648 240.494 32.1495H238.826C238.826 31.6952 238.632 31.3037 238.243 30.9749C237.86 30.6461 237.376 30.4817 236.79 30.4817C236.187 30.4817 235.714 30.6132 235.374 30.8762C235.033 31.1393 234.863 31.483 234.863 31.9074C234.863 32.3079 235.021 32.6098 235.338 32.813C235.655 33.0163 236.226 33.2106 237.05 33.3959C237.881 33.5812 238.554 33.8023 239.068 34.0594C239.582 34.3164 239.962 34.6273 240.207 34.9919C240.458 35.3506 240.583 35.79 240.583 36.31C240.583 37.1768 240.237 37.8732 239.543 38.3992C238.85 38.9193 237.95 39.1793 236.844 39.1793C236.067 39.1793 235.38 39.0418 234.782 38.7669C234.184 38.4919 233.715 38.1093 233.374 37.6191C233.039 37.123 232.872 36.588 232.872 36.0141H234.531C234.561 36.57 234.782 37.0124 235.194 37.3412C235.613 37.664 236.163 37.8254 236.844 37.8254C237.472 37.8254 237.974 37.6998 238.351 37.4488C238.733 37.1917 238.924 36.851 238.924 36.4266ZM244.547 39H242.888V29.2981H244.547V39ZM242.753 26.7247C242.753 26.4557 242.834 26.2285 242.995 26.0432C243.163 25.8579 243.408 25.7653 243.731 25.7653C244.053 25.7653 244.298 25.8579 244.466 26.0432C244.633 26.2285 244.717 26.4557 244.717 26.7247C244.717 26.9937 244.633 27.2179 244.466 27.3972C244.298 27.5765 244.053 27.6662 243.731 27.6662C243.408 27.6662 243.163 27.5765 242.995 27.3972C242.834 27.2179 242.753 26.9937 242.753 26.7247ZM247.766 39V30.5803H246.232V29.2981H247.766V28.4732C247.766 27.3912 248.073 26.5484 248.689 25.9446C249.311 25.3409 250.187 25.039 251.316 25.039C251.986 25.039 252.832 25.2213 253.854 25.5859L253.576 26.9847C252.829 26.6858 252.117 26.5364 251.442 26.5364C250.731 26.5364 250.216 26.6978 249.9 27.0206C249.589 27.3374 249.433 27.8156 249.433 28.4553V29.2981H251.415V30.5803H249.433V39H247.766ZM254.679 39H253.011V29.2981H254.679V39ZM261.404 39.1793C260.089 39.1793 259.019 38.7489 258.194 37.8881C257.369 37.0214 256.956 35.8647 256.956 34.4181V34.1132C256.956 33.1508 257.139 32.293 257.503 31.5398C257.874 30.7806 258.388 30.1888 259.046 29.7644C259.709 29.334 260.426 29.1188 261.198 29.1188C262.459 29.1188 263.439 29.5342 264.139 30.3651C264.838 31.1961 265.188 32.3856 265.188 33.9339V34.6243H258.615C258.639 35.5807 258.917 36.3548 259.449 36.9466C259.987 37.5325 260.669 37.8254 261.493 37.8254C262.079 37.8254 262.575 37.7058 262.982 37.4667C263.388 37.2276 263.744 36.9108 264.049 36.5162L265.062 37.3053C264.249 38.5547 263.03 39.1793 261.404 39.1793ZM261.198 30.4817C260.528 30.4817 259.966 30.7268 259.512 31.217C259.058 31.7012 258.777 32.3826 258.669 33.2614H263.529V33.1358C263.481 32.293 263.254 31.6414 262.847 31.1811C262.441 30.7148 261.891 30.4817 261.198 30.4817ZM271.805 30.7866C271.554 30.7447 271.282 30.7238 270.989 30.7238C269.901 30.7238 269.163 31.1871 268.774 32.1136V39H267.116V29.2981H268.73L268.756 30.4189C269.3 29.5522 270.072 29.1188 271.07 29.1188C271.393 29.1188 271.638 29.1606 271.805 29.2443V30.7866Z" fill="black"/>
<path d="M74.3422 141.735C74.3422 143.014 74.127 144.132 73.6966 145.088C73.2662 146.039 72.6564 146.765 71.8674 147.267C71.0783 147.769 70.1577 148.02 69.1057 148.02C68.0775 148.02 67.1659 147.769 66.3708 147.267C65.5758 146.759 64.9571 146.039 64.5147 145.106C64.0784 144.168 63.8542 143.083 63.8422 141.851V140.91C63.8422 139.654 64.0604 138.546 64.4968 137.583C64.9332 136.621 65.5489 135.885 66.3439 135.377C67.1449 134.863 68.0595 134.606 69.0877 134.606C70.1338 134.606 71.0544 134.86 71.8494 135.368C72.6505 135.871 73.2662 136.603 73.6966 137.565C74.127 138.522 74.3422 139.636 74.3422 140.91V141.735ZM72.6295 140.892C72.6295 139.344 72.3187 138.157 71.697 137.332C71.0753 136.501 70.2056 136.086 69.0877 136.086C67.9998 136.086 67.142 136.501 66.5143 137.332C65.8926 138.157 65.5728 139.305 65.5549 140.775V141.735C65.5549 143.235 65.8687 144.416 66.4964 145.276C67.13 146.131 67.9998 146.559 69.1057 146.559C70.2175 146.559 71.0783 146.155 71.688 145.348C72.2978 144.535 72.6116 143.373 72.6295 141.86V140.892ZM86.5278 143.698C86.3664 145.079 85.8553 146.146 84.9945 146.899C84.1397 147.647 83.0009 148.02 81.5782 148.02C80.036 148.02 78.7986 147.467 77.866 146.361C76.9395 145.256 76.4762 143.776 76.4762 141.923V140.668C76.4762 139.454 76.6914 138.387 77.1218 137.467C77.5582 136.546 78.1739 135.841 78.9689 135.35C79.764 134.854 80.6845 134.606 81.7307 134.606C83.1175 134.606 84.2293 134.995 85.0662 135.772C85.9031 136.543 86.3903 137.613 86.5278 138.982H84.7972C84.6478 137.942 84.322 137.189 83.8199 136.722C83.3237 136.256 82.6273 136.023 81.7307 136.023C80.6307 136.023 79.767 136.429 79.1393 137.242C78.5176 138.055 78.2068 139.212 78.2068 140.712V141.977C78.2068 143.393 78.5027 144.52 79.0945 145.357C79.6863 146.194 80.5142 146.613 81.5782 146.613C82.5347 146.613 83.2669 146.397 83.775 145.967C84.2891 145.531 84.6299 144.774 84.7972 143.698H86.5278ZM93.6742 142.56H90.6076V147.841H88.877V134.786H93.199C94.6695 134.786 95.7993 135.12 96.5883 135.79C97.3834 136.459 97.7809 137.434 97.7809 138.713C97.7809 139.526 97.5597 140.234 97.1174 140.838C96.681 141.442 96.0713 141.893 95.2882 142.192L98.3548 147.733V147.841H96.5076L93.6742 142.56ZM90.6076 141.152H93.2528C94.1076 141.152 94.786 140.931 95.2882 140.488C95.7963 140.046 96.0503 139.454 96.0503 138.713C96.0503 137.906 95.8082 137.287 95.324 136.857C94.8458 136.426 94.1524 136.208 93.2438 136.202H90.6076V141.152ZM113.419 136.202H109.222V147.841H107.51V136.202H103.322V134.786H113.419V136.202ZM118.225 148.02C116.91 148.02 115.84 147.59 115.015 146.729C114.19 145.862 113.777 144.706 113.777 143.259V142.954C113.777 141.992 113.96 141.134 114.324 140.381C114.695 139.622 115.209 139.03 115.867 138.605C116.53 138.175 117.247 137.96 118.019 137.96C119.28 137.96 120.26 138.375 120.96 139.206C121.659 140.037 122.009 141.227 122.009 142.775V143.465H115.436C115.46 144.422 115.738 145.196 116.27 145.788C116.808 146.373 117.49 146.666 118.314 146.666C118.9 146.666 119.396 146.547 119.803 146.308C120.209 146.069 120.565 145.752 120.87 145.357L121.883 146.146C121.07 147.396 119.851 148.02 118.225 148.02ZM118.019 139.323C117.349 139.323 116.787 139.568 116.333 140.058C115.879 140.542 115.598 141.224 115.49 142.102H120.35V141.977C120.302 141.134 120.075 140.482 119.668 140.022C119.262 139.556 118.712 139.323 118.019 139.323ZM129.585 145.268C129.585 144.819 129.415 144.472 129.074 144.227C128.74 143.976 128.151 143.761 127.308 143.582C126.471 143.402 125.805 143.187 125.308 142.936C124.818 142.685 124.454 142.386 124.214 142.04C123.981 141.693 123.865 141.28 123.865 140.802C123.865 140.007 124.2 139.335 124.869 138.785C125.545 138.235 126.405 137.96 127.451 137.96C128.551 137.96 129.442 138.244 130.123 138.812C130.811 139.379 131.155 140.106 131.155 140.99H129.487C129.487 140.536 129.293 140.145 128.904 139.816C128.521 139.487 128.037 139.323 127.451 139.323C126.848 139.323 126.375 139.454 126.035 139.717C125.694 139.98 125.524 140.324 125.524 140.748C125.524 141.149 125.682 141.451 125.999 141.654C126.316 141.857 126.887 142.051 127.711 142.237C128.542 142.422 129.215 142.643 129.729 142.9C130.243 143.157 130.623 143.468 130.868 143.833C131.119 144.192 131.244 144.631 131.244 145.151C131.244 146.018 130.898 146.714 130.204 147.24C129.511 147.76 128.611 148.02 127.505 148.02C126.728 148.02 126.041 147.883 125.443 147.608C124.845 147.333 124.376 146.95 124.035 146.46C123.7 145.964 123.533 145.429 123.533 144.855H125.192C125.222 145.411 125.443 145.853 125.855 146.182C126.274 146.505 126.824 146.666 127.505 146.666C128.133 146.666 128.635 146.541 129.012 146.29C129.394 146.033 129.585 145.692 129.585 145.268ZM139.054 145.268C139.054 144.819 138.884 144.472 138.543 144.227C138.208 143.976 137.62 143.761 136.777 143.582C135.94 143.402 135.273 143.187 134.777 142.936C134.287 142.685 133.922 142.386 133.683 142.04C133.45 141.693 133.334 141.28 133.334 140.802C133.334 140.007 133.668 139.335 134.338 138.785C135.013 138.235 135.874 137.96 136.92 137.96C138.02 137.96 138.911 138.244 139.592 138.812C140.28 139.379 140.623 140.106 140.623 140.99H138.956C138.956 140.536 138.761 140.145 138.373 139.816C137.99 139.487 137.506 139.323 136.92 139.323C136.316 139.323 135.844 139.454 135.503 139.717C135.163 139.98 134.992 140.324 134.992 140.748C134.992 141.149 135.151 141.451 135.468 141.654C135.784 141.857 136.355 142.051 137.18 142.237C138.011 142.422 138.684 142.643 139.198 142.9C139.712 143.157 140.091 143.468 140.336 143.833C140.588 144.192 140.713 144.631 140.713 145.151C140.713 146.018 140.366 146.714 139.673 147.24C138.98 147.76 138.08 148.02 136.974 148.02C136.197 148.02 135.509 147.883 134.912 147.608C134.314 147.333 133.845 146.95 133.504 146.46C133.169 145.964 133.002 145.429 133.002 144.855H134.661C134.69 145.411 134.912 145.853 135.324 146.182C135.743 146.505 136.293 146.666 136.974 146.666C137.602 146.666 138.104 146.541 138.48 146.29C138.863 146.033 139.054 145.692 139.054 145.268ZM146.9 148.02C145.585 148.02 144.515 147.59 143.69 146.729C142.865 145.862 142.453 144.706 142.453 143.259V142.954C142.453 141.992 142.635 141.134 143 140.381C143.37 139.622 143.884 139.03 144.542 138.605C145.205 138.175 145.923 137.96 146.694 137.96C147.955 137.96 148.935 138.375 149.635 139.206C150.334 140.037 150.684 141.227 150.684 142.775V143.465H144.111C144.135 144.422 144.413 145.196 144.945 145.788C145.483 146.373 146.165 146.666 146.99 146.666C147.576 146.666 148.072 146.547 148.478 146.308C148.885 146.069 149.24 145.752 149.545 145.357L150.558 146.146C149.745 147.396 148.526 148.02 146.9 148.02ZM146.694 139.323C146.024 139.323 145.462 139.568 145.008 140.058C144.554 140.542 144.273 141.224 144.165 142.102H149.025V141.977C148.977 141.134 148.75 140.482 148.344 140.022C147.937 139.556 147.387 139.323 146.694 139.323ZM157.301 139.628C157.05 139.586 156.778 139.565 156.485 139.565C155.397 139.565 154.659 140.028 154.271 140.955V147.841H152.612V138.139H154.226L154.253 139.26C154.797 138.393 155.568 137.96 156.566 137.96C156.889 137.96 157.134 138.002 157.301 138.085V139.628ZM164.466 147.841C164.37 147.65 164.292 147.309 164.233 146.819C163.461 147.62 162.541 148.02 161.471 148.02C160.514 148.02 159.728 147.751 159.113 147.213C158.503 146.669 158.198 145.982 158.198 145.151C158.198 144.141 158.581 143.358 159.346 142.802C160.117 142.24 161.199 141.959 162.592 141.959H164.206V141.197C164.206 140.617 164.032 140.157 163.686 139.816C163.339 139.469 162.828 139.296 162.152 139.296C161.56 139.296 161.064 139.445 160.664 139.744C160.263 140.043 160.063 140.405 160.063 140.829H158.395C158.395 140.345 158.566 139.879 158.906 139.43C159.253 138.976 159.719 138.617 160.305 138.354C160.897 138.091 161.546 137.96 162.251 137.96C163.369 137.96 164.244 138.241 164.878 138.803C165.512 139.359 165.841 140.127 165.864 141.107V145.572C165.864 146.463 165.978 147.171 166.205 147.697V147.841H164.466ZM161.713 146.577C162.233 146.577 162.726 146.442 163.192 146.173C163.659 145.904 163.996 145.554 164.206 145.124V143.133H162.905C160.873 143.133 159.857 143.728 159.857 144.918C159.857 145.438 160.03 145.844 160.377 146.137C160.724 146.43 161.169 146.577 161.713 146.577ZM172.356 146.666C172.948 146.666 173.465 146.487 173.907 146.128C174.35 145.77 174.595 145.321 174.643 144.783H176.212C176.182 145.339 175.991 145.868 175.638 146.37C175.285 146.873 174.813 147.273 174.221 147.572C173.636 147.871 173.014 148.02 172.356 148.02C171.035 148.02 169.983 147.581 169.2 146.702C168.423 145.817 168.034 144.61 168.034 143.08V142.802C168.034 141.857 168.208 141.017 168.554 140.282C168.901 139.547 169.397 138.976 170.043 138.569C170.694 138.163 171.463 137.96 172.347 137.96C173.435 137.96 174.338 138.286 175.055 138.937C175.779 139.589 176.164 140.435 176.212 141.475H174.643C174.595 140.847 174.356 140.333 173.925 139.932C173.501 139.526 172.975 139.323 172.347 139.323C171.504 139.323 170.85 139.628 170.384 140.237C169.923 140.841 169.693 141.717 169.693 142.864V143.178C169.693 144.296 169.923 145.157 170.384 145.761C170.844 146.364 171.501 146.666 172.356 146.666ZM180.328 135.79V138.139H182.139V139.421H180.328V145.438C180.328 145.826 180.408 146.119 180.57 146.317C180.731 146.508 181.006 146.604 181.395 146.604C181.586 146.604 181.849 146.568 182.184 146.496V147.841C181.747 147.96 181.323 148.02 180.91 148.02C180.169 148.02 179.61 147.796 179.234 147.348C178.857 146.899 178.669 146.263 178.669 145.438V139.421H176.902V138.139H178.669V135.79H180.328Z" fill="black"/>
<path d="M5.36204 11.1807C3.88553 10.7562 2.80954 10.2362 2.13406 9.62047C1.46455 8.99879 1.12979 8.23364 1.12979 7.32502C1.12979 6.29685 1.53927 5.44801 2.35822 4.7785C3.18315 4.10301 4.25317 3.76527 5.56827 3.76527C6.46493 3.76527 7.26296 3.93862 7.96236 4.28533C8.66773 4.63204 9.21171 5.11026 9.59428 5.71999C9.98284 6.32972 10.1771 6.99624 10.1771 7.71955H8.44656C8.44656 6.93049 8.19549 6.31179 7.69336 5.86346C7.19123 5.40915 6.48287 5.182 5.56827 5.182C4.71943 5.182 4.0559 5.37029 3.57768 5.74689C3.10544 6.11751 2.86932 6.63459 2.86932 7.29812C2.86932 7.83014 3.09348 8.28146 3.54181 8.65208C3.99612 9.01672 4.76426 9.35147 5.84624 9.65634C6.93419 9.9612 7.78303 10.2989 8.39276 10.6696C9.00846 11.0342 9.46277 11.4616 9.75568 11.9518C10.0546 12.442 10.204 13.0188 10.204 13.6824C10.204 14.7404 9.79155 15.5893 8.96662 16.2289C8.14169 16.8625 7.0388 17.1793 5.65794 17.1793C4.76127 17.1793 3.92439 17.009 3.14728 16.6682C2.37018 16.3215 1.76941 15.8493 1.34499 15.2515C0.926551 14.6537 0.71733 13.9753 0.71733 13.2161H2.44789C2.44789 14.0051 2.73781 14.6298 3.31765 15.0901C3.90347 15.5444 4.68356 15.7716 5.65794 15.7716C6.56655 15.7716 7.26296 15.5863 7.74716 15.2156C8.23136 14.845 8.47346 14.3399 8.47346 13.7003C8.47346 13.0607 8.24929 12.5675 7.80096 12.2208C7.35263 11.8681 6.53965 11.5214 5.36204 11.1807ZM16.1847 17.1793C14.8696 17.1793 13.7996 16.7489 12.9747 15.8881C12.1498 15.0214 11.7373 13.8647 11.7373 12.4181V12.1132C11.7373 11.1508 11.9196 10.293 12.2843 9.53977C12.6549 8.7806 13.169 8.1888 13.8265 7.76438C14.4901 7.33398 15.2074 7.11879 15.9785 7.11879C17.2398 7.11879 18.2202 7.53424 18.9196 8.36515C19.619 9.19605 19.9687 10.3856 19.9687 11.9339V12.6243H13.3961C13.42 13.5807 13.698 14.3548 14.23 14.9466C14.768 15.5325 15.4495 15.8254 16.2744 15.8254C16.8602 15.8254 17.3564 15.7058 17.7629 15.4667C18.1694 15.2276 18.525 14.9108 18.8299 14.5162L19.8431 15.3053C19.0302 16.5547 17.8107 17.1793 16.1847 17.1793ZM15.9785 8.48171C15.309 8.48171 14.7471 8.7268 14.2928 9.21697C13.8385 9.70117 13.5575 10.3826 13.4499 11.2614H18.3098V11.1358C18.262 10.293 18.0349 9.64139 17.6284 9.18111C17.2219 8.71484 16.6719 8.48171 15.9785 8.48171ZM24.1471 4.94886V7.29812H25.9584V8.58034H24.1471V14.5969C24.1471 14.9855 24.2278 15.2784 24.3892 15.4757C24.5506 15.667 24.8256 15.7626 25.2141 15.7626C25.4054 15.7626 25.6684 15.7267 26.0032 15.655V17C25.5668 17.1196 25.1424 17.1793 24.7299 17.1793C23.9887 17.1793 23.4298 16.9552 23.0532 16.5068C22.6766 16.0585 22.4883 15.4219 22.4883 14.5969V8.58034H20.7219V7.29812H22.4883V4.94886H24.1471ZM32.0198 12.0594C32.0198 11.1089 32.2051 10.2541 32.5757 9.49494C32.9523 8.73577 33.4724 8.14995 34.1359 7.73748C34.8054 7.32502 35.5676 7.11879 36.4224 7.11879C37.7435 7.11879 38.8105 7.57608 39.6235 8.49068C40.4424 9.40527 40.8519 10.6217 40.8519 12.1401V12.2567C40.8519 13.2011 40.6696 14.05 40.305 14.8032C39.9463 15.5504 39.4292 16.1332 38.7537 16.5517C38.0842 16.9701 37.3131 17.1793 36.4403 17.1793C35.1252 17.1793 34.0582 16.722 33.2393 15.8074C32.4263 14.8928 32.0198 13.6824 32.0198 12.176V12.0594ZM33.6876 12.2567C33.6876 13.3327 33.9357 14.1964 34.4318 14.848C34.9339 15.4996 35.6035 15.8254 36.4403 15.8254C37.2832 15.8254 37.9527 15.4966 38.4489 14.839C38.945 14.1755 39.1931 13.249 39.1931 12.0594C39.1931 10.9954 38.939 10.1346 38.4309 9.47701C37.9288 8.81348 37.2593 8.48171 36.4224 8.48171C35.6035 8.48171 34.9429 8.8075 34.4408 9.45907C33.9387 10.1106 33.6876 11.0432 33.6876 12.2567ZM43.7481 17V8.58034H42.2148V7.29812H43.7481V6.30282C43.7481 5.2627 44.0261 4.45869 44.582 3.8908C45.138 3.32292 45.924 3.03897 46.9403 3.03897C47.3228 3.03897 47.7024 3.08978 48.079 3.19141L47.9893 4.5364C47.7084 4.4826 47.4095 4.4557 47.0927 4.4557C46.5547 4.4557 46.1392 4.61411 45.8463 4.93093C45.5534 5.24177 45.407 5.6901 45.407 6.27592V7.29812H47.4782V8.58034H45.407V17H43.7481ZM53.4679 12.0684C53.4679 10.5799 53.8206 9.38435 54.526 8.48171C55.2314 7.57309 56.1549 7.11879 57.2967 7.11879C58.4325 7.11879 59.3321 7.50734 59.9956 8.28445V3.22727H61.6545V17H60.1301L60.0494 15.9599C59.3859 16.7728 58.4624 17.1793 57.2788 17.1793C56.1549 17.1793 55.2374 16.719 54.526 15.7985C53.8206 14.8779 53.4679 13.6764 53.4679 12.1939V12.0684ZM55.1268 12.2567C55.1268 13.3566 55.3539 14.2174 55.8082 14.839C56.2625 15.4607 56.8902 15.7716 57.6912 15.7716C58.7433 15.7716 59.5114 15.2993 59.9956 14.3548V9.89844C59.4995 8.98384 58.7373 8.52654 57.7092 8.52654C56.8962 8.52654 56.2625 8.84038 55.8082 9.46804C55.3539 10.0957 55.1268 11.0252 55.1268 12.2567ZM63.7975 12.0594C63.7975 11.1089 63.9828 10.2541 64.3534 9.49494C64.73 8.73577 65.2501 8.14995 65.9136 7.73748C66.5831 7.32502 67.3453 7.11879 68.2001 7.11879C69.5212 7.11879 70.5882 7.57608 71.4012 8.49068C72.2201 9.40527 72.6296 10.6217 72.6296 12.1401V12.2567C72.6296 13.2011 72.4473 14.05 72.0827 14.8032C71.724 15.5504 71.2069 16.1332 70.5314 16.5517C69.8619 16.9701 69.0908 17.1793 68.218 17.1793C66.9029 17.1793 65.8359 16.722 65.017 15.8074C64.204 14.8928 63.7975 13.6824 63.7975 12.176V12.0594ZM65.4653 12.2567C65.4653 13.3327 65.7134 14.1964 66.2095 14.848C66.7116 15.4996 67.3812 15.8254 68.218 15.8254C69.0609 15.8254 69.7304 15.4966 70.2266 14.839C70.7227 14.1755 70.9708 13.249 70.9708 12.0594C70.9708 10.9954 70.7167 10.1346 70.2086 9.47701C69.7065 8.81348 69.037 8.48171 68.2001 8.48171C67.3812 8.48171 66.7206 8.8075 66.2185 9.45907C65.7164 10.1106 65.4653 11.0432 65.4653 12.2567ZM78.6014 15.8254C79.1932 15.8254 79.7103 15.646 80.1526 15.2874C80.595 14.9287 80.84 14.4804 80.8879 13.9424H82.457C82.4271 14.4983 82.2359 15.0273 81.8832 15.5295C81.5305 16.0316 81.0582 16.4321 80.4664 16.731C79.8806 17.0299 79.2589 17.1793 78.6014 17.1793C77.2803 17.1793 76.2282 16.74 75.4451 15.8612C74.668 14.9765 74.2795 13.769 74.2795 12.2387V11.9608C74.2795 11.0163 74.4528 10.1764 74.7995 9.44114C75.1462 8.70588 75.6424 8.135 76.288 7.72852C76.9396 7.32203 77.7077 7.11879 78.5924 7.11879C79.6804 7.11879 80.583 7.44457 81.3003 8.09615C82.0236 8.74772 82.4092 9.59357 82.457 10.6337H80.8879C80.84 10.006 80.6009 9.49195 80.1705 9.09144C79.7461 8.68496 79.2201 8.48171 78.5924 8.48171C77.7496 8.48171 77.095 8.78658 76.6287 9.39631C76.1684 10.0001 75.9383 10.8758 75.9383 12.0235V12.3374C75.9383 13.4552 76.1684 14.316 76.6287 14.9197C77.089 15.5235 77.7466 15.8254 78.6014 15.8254ZM90.3118 16.0406C89.6662 16.7997 88.7187 17.1793 87.4694 17.1793C86.4352 17.1793 85.6462 16.8804 85.1022 16.2827C84.5642 15.6789 84.2922 14.7882 84.2862 13.6106V7.29812H85.945V13.5658C85.945 15.0363 86.5428 15.7716 87.7384 15.7716C89.0056 15.7716 89.8485 15.2993 90.267 14.3548V7.29812H91.9258V17H90.3477L90.3118 16.0406ZM96.0146 7.29812L96.0594 8.37411C96.7707 7.53723 97.7302 7.11879 98.9377 7.11879C100.295 7.11879 101.218 7.63885 101.708 8.67898C102.031 8.21271 102.45 7.83612 102.964 7.54918C103.484 7.26225 104.096 7.11879 104.802 7.11879C106.93 7.11879 108.012 8.24559 108.048 10.4992V17H106.389V10.5978C106.389 9.90442 106.231 9.38734 105.914 9.04661C105.597 8.6999 105.065 8.52654 104.318 8.52654C103.702 8.52654 103.191 8.71186 102.784 9.08248C102.378 9.44712 102.142 9.94028 102.076 10.562V17H100.408V10.6427C100.408 9.23192 99.7178 8.52654 98.3369 8.52654C97.249 8.52654 96.5047 8.98982 96.1042 9.91637V17H94.4454V7.29812H96.0146ZM114.584 17.1793C113.269 17.1793 112.199 16.7489 111.374 15.8881C110.549 15.0214 110.137 13.8647 110.137 12.4181V12.1132C110.137 11.1508 110.319 10.293 110.684 9.53977C111.055 8.7806 111.569 8.1888 112.226 7.76438C112.89 7.33398 113.607 7.11879 114.378 7.11879C115.639 7.11879 116.62 7.53424 117.319 8.36515C118.019 9.19605 118.368 10.3856 118.368 11.9339V12.6243H111.796C111.82 13.5807 112.098 14.3548 112.63 14.9466C113.168 15.5325 113.849 15.8254 114.674 15.8254C115.26 15.8254 115.756 15.7058 116.163 15.4667C116.569 15.2276 116.925 14.9108 117.23 14.5162L118.243 15.3053C117.43 16.5547 116.21 17.1793 114.584 17.1793ZM114.378 8.48171C113.709 8.48171 113.147 8.7268 112.692 9.21697C112.238 9.70117 111.957 10.3826 111.85 11.2614H116.71V11.1358C116.662 10.293 116.435 9.64139 116.028 9.18111C115.622 8.71484 115.072 8.48171 114.378 8.48171ZM121.865 7.29812L121.919 8.51758C122.66 7.58505 123.629 7.11879 124.824 7.11879C126.875 7.11879 127.909 8.27548 127.927 10.5889V17H126.268V10.5799C126.262 9.8805 126.101 9.36343 125.784 9.02868C125.473 8.69392 124.986 8.52654 124.322 8.52654C123.784 8.52654 123.312 8.67001 122.905 8.95694C122.499 9.24387 122.182 9.62047 121.955 10.0867V17H120.296V7.29812H121.865ZM132.679 4.94886V7.29812H134.49V8.58034H132.679V14.5969C132.679 14.9855 132.76 15.2784 132.921 15.4757C133.083 15.667 133.358 15.7626 133.746 15.7626C133.937 15.7626 134.2 15.7267 134.535 15.655V17C134.099 17.1196 133.674 17.1793 133.262 17.1793C132.521 17.1793 131.962 16.9552 131.585 16.5068C131.209 16.0585 131.02 15.4219 131.02 14.5969V8.58034H129.254V7.29812H131.02V4.94886H132.679ZM6.9043 36.4266C6.9043 35.9782 6.73393 35.6315 6.3932 35.3865C6.05845 35.1354 5.46964 34.9202 4.62678 34.7409C3.78989 34.5615 3.12337 34.3463 2.62722 34.0953C2.13704 33.8442 1.7724 33.5453 1.53329 33.1986C1.30016 32.8519 1.18359 32.4394 1.18359 31.9612C1.18359 31.1662 1.51835 30.4937 2.18786 29.9437C2.86334 29.3938 3.72414 29.1188 4.77024 29.1188C5.87015 29.1188 6.76083 29.4027 7.44229 29.9706C8.12973 30.5385 8.47346 31.2648 8.47346 32.1495H6.80566C6.80566 31.6952 6.61139 31.3037 6.22283 30.9749C5.84026 30.6461 5.35606 30.4817 4.77024 30.4817C4.16649 30.4817 3.69425 30.6132 3.35352 30.8762C3.01278 31.1393 2.84242 31.483 2.84242 31.9074C2.84242 32.3079 3.00083 32.6098 3.31765 32.813C3.63447 33.0163 4.20534 33.2106 5.03027 33.3959C5.86118 33.5812 6.53368 33.8023 7.04776 34.0594C7.56185 34.3164 7.94144 34.6273 8.18652 34.9919C8.43759 35.3506 8.56312 35.79 8.56312 36.31C8.56312 37.1768 8.21641 37.8732 7.52299 38.3992C6.82957 38.9193 5.92992 39.1793 4.82404 39.1793C4.04693 39.1793 3.35949 39.0418 2.76172 38.7669C2.16394 38.4919 1.69469 38.1093 1.35396 37.6191C1.01921 37.123 0.851829 36.588 0.851829 36.0141H2.51065C2.54054 36.57 2.76172 37.0124 3.17418 37.3412C3.59263 37.664 4.14258 37.8254 4.82404 37.8254C5.4517 37.8254 5.95384 37.6998 6.33043 37.4488C6.71301 37.1917 6.9043 36.851 6.9043 36.4266ZM14.6156 37.8254C15.2074 37.8254 15.7245 37.646 16.1668 37.2874C16.6092 36.9287 16.8543 36.4804 16.9021 35.9424H18.4712C18.4413 36.4983 18.2501 37.0273 17.8974 37.5295C17.5447 38.0316 17.0724 38.4321 16.4806 38.731C15.8948 39.0299 15.2731 39.1793 14.6156 39.1793C13.2945 39.1793 12.2424 38.74 11.4593 37.8612C10.6822 36.9765 10.2937 35.769 10.2937 34.2387V33.9608C10.2937 33.0163 10.467 32.1764 10.8137 31.4411C11.1605 30.7059 11.6566 30.135 12.3022 29.7285C12.9538 29.322 13.7219 29.1188 14.6066 29.1188C15.6946 29.1188 16.5972 29.4446 17.3145 30.0961C18.0378 30.7477 18.4234 31.5936 18.4712 32.6337H16.9021C16.8543 32.006 16.6151 31.492 16.1847 31.0914C15.7603 30.685 15.2343 30.4817 14.6066 30.4817C13.7638 30.4817 13.1092 30.7866 12.6429 31.3963C12.1826 32.0001 11.9525 32.8758 11.9525 34.0235V34.3374C11.9525 35.4552 12.1826 36.316 12.6429 36.9197C13.1032 37.5235 13.7608 37.8254 14.6156 37.8254ZM26.326 39C26.2304 38.8087 26.1526 38.468 26.0929 37.9778C25.3217 38.7788 24.4012 39.1793 23.3311 39.1793C22.3747 39.1793 21.5886 38.9103 20.9729 38.3723C20.3632 37.8284 20.0583 37.1409 20.0583 36.31C20.0583 35.2998 20.4409 34.5167 21.2061 33.9608C21.9772 33.3989 23.0592 33.1179 24.452 33.1179H26.066V32.3557C26.066 31.7759 25.8926 31.3156 25.5459 30.9749C25.1992 30.6282 24.6881 30.4548 24.0126 30.4548C23.4208 30.4548 22.9247 30.6043 22.5241 30.9031C22.1236 31.202 21.9234 31.5637 21.9234 31.9881H20.2556C20.2556 31.5039 20.426 31.0376 20.7667 30.5893C21.1134 30.135 21.5797 29.7763 22.1655 29.5133C22.7573 29.2503 23.4059 29.1188 24.1112 29.1188C25.2291 29.1188 26.1048 29.3997 26.7385 29.9616C27.3721 30.5176 27.7009 31.2857 27.7248 32.2661V36.7314C27.7248 37.6221 27.8384 38.3305 28.0655 38.8565V39H26.326ZM23.5732 37.7357C24.0933 37.7357 24.5865 37.6012 25.0527 37.3322C25.519 37.0632 25.8567 36.7135 26.066 36.2831V34.2925H24.7658C22.7334 34.2925 21.7172 34.8873 21.7172 36.0769C21.7172 36.5969 21.8905 37.0034 22.2372 37.2963C22.5839 37.5893 23.0293 37.7357 23.5732 37.7357ZM31.8943 29.2981L31.9481 30.5176C32.6893 29.585 33.6577 29.1188 34.8532 29.1188C36.9036 29.1188 37.9378 30.2755 37.9557 32.5889V39H36.2969V32.5799C36.2909 31.8805 36.1295 31.3634 35.8127 31.0287C35.5018 30.6939 35.0146 30.5265 34.3511 30.5265C33.8131 30.5265 33.3409 30.67 32.9344 30.9569C32.5279 31.2439 32.2111 31.6205 31.9839 32.0867V39H30.3251V29.2981H31.8943ZM46.1064 36.4266C46.1064 35.9782 45.936 35.6315 45.5953 35.3865C45.2605 35.1354 44.6717 34.9202 43.8288 34.7409C42.9919 34.5615 42.3254 34.3463 41.8293 34.0953C41.3391 33.8442 40.9745 33.5453 40.7353 33.1986C40.5022 32.8519 40.3857 32.4394 40.3857 31.9612C40.3857 31.1662 40.7204 30.4937 41.3899 29.9437C42.0654 29.3938 42.9262 29.1188 43.9723 29.1188C45.0722 29.1188 45.9629 29.4027 46.6444 29.9706C47.3318 30.5385 47.6755 31.2648 47.6755 32.1495H46.0077C46.0077 31.6952 45.8134 31.3037 45.4249 30.9749C45.0423 30.6461 44.5581 30.4817 43.9723 30.4817C43.3685 30.4817 42.8963 30.6132 42.5556 30.8762C42.2148 31.1393 42.0445 31.483 42.0445 31.9074C42.0445 32.3079 42.2029 32.6098 42.5197 32.813C42.8365 33.0163 43.4074 33.2106 44.2323 33.3959C45.0632 33.5812 45.7357 33.8023 46.2498 34.0594C46.7639 34.3164 47.1435 34.6273 47.3886 34.9919C47.6396 35.3506 47.7652 35.79 47.7652 36.31C47.7652 37.1768 47.4185 37.8732 46.7251 38.3992C46.0316 38.9193 45.132 39.1793 44.0261 39.1793C43.249 39.1793 42.5616 39.0418 41.9638 38.7669C41.366 38.4919 40.8967 38.1093 40.556 37.6191C40.2213 37.123 40.0539 36.588 40.0539 36.0141H41.7127C41.7426 36.57 41.9638 37.0124 42.3762 37.3412C42.7947 37.664 43.3446 37.8254 44.0261 37.8254C44.6538 37.8254 45.1559 37.6998 45.5325 37.4488C45.9151 37.1917 46.1064 36.851 46.1064 36.4266Z" fill="black"/>
<path d="M322.036 147.841H320.315V134.786H322.036V147.841ZM326.502 138.139L326.556 139.359C327.297 138.426 328.265 137.96 329.461 137.96C331.511 137.96 332.545 139.116 332.563 141.43V147.841H330.904V141.421C330.898 140.721 330.737 140.204 330.42 139.87C330.109 139.535 329.622 139.367 328.959 139.367C328.421 139.367 327.948 139.511 327.542 139.798C327.135 140.085 326.819 140.461 326.591 140.928V147.841H324.933V138.139H326.502ZM338.266 145.59L340.669 138.139H342.364L338.885 147.841H337.62L334.105 138.139H335.8L338.266 145.59ZM343.377 142.9C343.377 141.95 343.562 141.095 343.933 140.336C344.309 139.577 344.829 138.991 345.493 138.578C346.163 138.166 346.925 137.96 347.78 137.96C349.101 137.96 350.168 138.417 350.981 139.332C351.8 140.246 352.209 141.463 352.209 142.981V143.098C352.209 144.042 352.027 144.891 351.662 145.644C351.303 146.391 350.786 146.974 350.111 147.393C349.441 147.811 348.67 148.02 347.797 148.02C346.482 148.02 345.415 147.563 344.596 146.648C343.783 145.734 343.377 144.523 343.377 143.017V142.9ZM345.045 143.098C345.045 144.174 345.293 145.037 345.789 145.689C346.291 146.341 346.961 146.666 347.797 146.666C348.64 146.666 349.31 146.338 349.806 145.68C350.302 145.016 350.55 144.09 350.55 142.9C350.55 141.836 350.296 140.976 349.788 140.318C349.286 139.654 348.616 139.323 347.78 139.323C346.961 139.323 346.3 139.648 345.798 140.3C345.296 140.952 345.045 141.884 345.045 143.098ZM356.092 147.841H354.433V138.139H356.092V147.841ZM354.298 135.566C354.298 135.297 354.379 135.069 354.54 134.884C354.708 134.699 354.953 134.606 355.276 134.606C355.598 134.606 355.843 134.699 356.011 134.884C356.178 135.069 356.262 135.297 356.262 135.566C356.262 135.835 356.178 136.059 356.011 136.238C355.843 136.417 355.598 136.507 355.276 136.507C354.953 136.507 354.708 136.417 354.54 136.238C354.379 136.059 354.298 135.835 354.298 135.566ZM362.646 146.666C363.238 146.666 363.755 146.487 364.197 146.128C364.64 145.77 364.885 145.321 364.933 144.783H366.502C366.472 145.339 366.281 145.868 365.928 146.37C365.575 146.873 365.103 147.273 364.511 147.572C363.925 147.871 363.304 148.02 362.646 148.02C361.325 148.02 360.273 147.581 359.49 146.702C358.713 145.817 358.324 144.61 358.324 143.08V142.802C358.324 141.857 358.498 141.017 358.844 140.282C359.191 139.547 359.687 138.976 360.333 138.569C360.984 138.163 361.752 137.96 362.637 137.96C363.725 137.96 364.628 138.286 365.345 138.937C366.068 139.589 366.454 140.435 366.502 141.475H364.933C364.885 140.847 364.646 140.333 364.215 139.932C363.791 139.526 363.265 139.323 362.637 139.323C361.794 139.323 361.14 139.628 360.673 140.237C360.213 140.841 359.983 141.717 359.983 142.864V143.178C359.983 144.296 360.213 145.157 360.673 145.761C361.134 146.364 361.791 146.666 362.646 146.666ZM372.393 148.02C371.078 148.02 370.008 147.59 369.183 146.729C368.358 145.862 367.945 144.706 367.945 143.259V142.954C367.945 141.992 368.128 141.134 368.492 140.381C368.863 139.622 369.377 139.03 370.035 138.605C370.698 138.175 371.416 137.96 372.187 137.96C373.448 137.96 374.428 138.375 375.128 139.206C375.827 140.037 376.177 141.227 376.177 142.775V143.465H369.604C369.628 144.422 369.906 145.196 370.438 145.788C370.976 146.373 371.658 146.666 372.483 146.666C373.068 146.666 373.565 146.547 373.971 146.308C374.377 146.069 374.733 145.752 375.038 145.357L376.051 146.146C375.238 147.396 374.019 148.02 372.393 148.02ZM372.187 139.323C371.517 139.323 370.955 139.568 370.501 140.058C370.047 140.542 369.766 141.224 369.658 142.102H374.518V141.977C374.47 141.134 374.243 140.482 373.836 140.022C373.43 139.556 372.88 139.323 372.187 139.323Z" fill="black"/>
<path d="M435.948 31.5528C435.948 32.8321 435.733 33.9499 435.302 34.9063C434.872 35.8568 434.262 36.5831 433.473 37.0852C432.684 37.5874 431.763 37.8384 430.711 37.8384C429.683 37.8384 428.772 37.5874 427.976 37.0852C427.181 36.5771 426.563 35.8568 426.12 34.9243C425.684 33.9858 425.46 32.9008 425.448 31.6694V30.7279C425.448 29.4726 425.666 28.3637 426.102 27.4013C426.539 26.4389 427.155 25.7036 427.95 25.1955C428.751 24.6814 429.665 24.4244 430.693 24.4244C431.739 24.4244 432.66 24.6784 433.455 25.1865C434.256 25.6887 434.872 26.4209 435.302 27.3833C435.733 28.3398 435.948 29.4546 435.948 30.7279V31.5528ZM434.235 30.71C434.235 29.1617 433.924 27.9751 433.303 27.1502C432.681 26.3193 431.811 25.9039 430.693 25.9039C429.605 25.9039 428.748 26.3193 428.12 27.1502C427.498 27.9751 427.178 29.1229 427.161 30.5934V31.5528C427.161 33.0532 427.474 34.2338 428.102 35.0946C428.736 35.9495 429.605 36.3769 430.711 36.3769C431.823 36.3769 432.684 35.9734 433.294 35.1664C433.903 34.3534 434.217 33.1907 434.235 31.6784V30.71ZM448.133 33.5165C447.972 34.8974 447.461 35.9644 446.6 36.7176C445.745 37.4648 444.607 37.8384 443.184 37.8384C441.642 37.8384 440.404 37.2855 439.472 36.1796C438.545 35.0737 438.082 33.5942 438.082 31.7411V30.4858C438.082 29.2723 438.297 28.2053 438.727 27.2847C439.164 26.3641 439.78 25.6588 440.575 25.1686C441.37 24.6724 442.29 24.4244 443.336 24.4244C444.723 24.4244 445.835 24.8129 446.672 25.59C447.509 26.3611 447.996 27.4312 448.133 28.8001H446.403C446.253 27.7599 445.928 27.0067 445.426 26.5405C444.929 26.0742 444.233 25.8411 443.336 25.8411C442.236 25.8411 441.373 26.2476 440.745 27.0605C440.123 27.8735 439.812 29.0302 439.812 30.5306V31.7949C439.812 33.2116 440.108 34.3385 440.7 35.1753C441.292 36.0122 442.12 36.4307 443.184 36.4307C444.14 36.4307 444.873 36.2155 445.381 35.7851C445.895 35.3487 446.236 34.5925 446.403 33.5165H448.133ZM455.28 32.3777H452.213V37.6591H450.483V24.6037H454.805C456.275 24.6037 457.405 24.9384 458.194 25.608C458.989 26.2775 459.387 27.2518 459.387 28.5311C459.387 29.344 459.165 30.0524 458.723 30.6562C458.287 31.2599 457.677 31.7112 456.894 32.0101L459.96 37.5515V37.6591H458.113L455.28 32.3777ZM452.213 30.97H454.858C455.713 30.97 456.392 30.7488 456.894 30.3065C457.402 29.8641 457.656 29.2723 457.656 28.5311C457.656 27.7241 457.414 27.1054 456.93 26.675C456.451 26.2446 455.758 26.0264 454.849 26.0204H452.213V30.97ZM468.353 25.608V27.9572H470.164V29.2394H468.353V35.256C468.353 35.6446 468.434 35.9375 468.595 36.1348C468.757 36.3261 469.032 36.4217 469.42 36.4217C469.611 36.4217 469.874 36.3858 470.209 36.3141V37.6591C469.773 37.7786 469.348 37.8384 468.936 37.8384C468.195 37.8384 467.636 37.6143 467.259 37.1659C466.883 36.7176 466.694 36.081 466.694 35.256V29.2394H464.928V27.9572H466.694V25.608H468.353ZM471.491 32.7185C471.491 31.768 471.677 30.9132 472.047 30.154C472.424 29.3949 472.944 28.809 473.608 28.3966C474.277 27.9841 475.039 27.7779 475.894 27.7779C477.215 27.7779 478.282 28.2352 479.095 29.1498C479.914 30.0644 480.324 31.2808 480.324 32.7992V32.9157C480.324 33.8602 480.141 34.7091 479.777 35.4623C479.418 36.2095 478.901 36.7923 478.225 37.2108C477.556 37.6292 476.785 37.8384 475.912 37.8384C474.597 37.8384 473.53 37.3811 472.711 36.4665C471.898 35.5519 471.491 34.3414 471.491 32.835V32.7185ZM473.159 32.9157C473.159 33.9917 473.407 34.8555 473.904 35.5071C474.406 36.1587 475.075 36.4845 475.912 36.4845C476.755 36.4845 477.424 36.1557 477.921 35.4981C478.417 34.8346 478.665 33.9081 478.665 32.7185C478.665 31.6544 478.411 30.7936 477.903 30.1361C477.4 29.4726 476.731 29.1408 475.894 29.1408C475.075 29.1408 474.415 29.4666 473.912 30.1182C473.41 30.7697 473.159 31.7023 473.159 32.9157ZM481.964 32.7185C481.964 31.768 482.15 30.9132 482.52 30.154C482.897 29.3949 483.417 28.809 484.081 28.3966C484.75 27.9841 485.512 27.7779 486.367 27.7779C487.688 27.7779 488.755 28.2352 489.568 29.1498C490.387 30.0644 490.797 31.2808 490.797 32.7992V32.9157C490.797 33.8602 490.614 34.7091 490.25 35.4623C489.891 36.2095 489.374 36.7923 488.698 37.2108C488.029 37.6292 487.258 37.8384 486.385 37.8384C485.07 37.8384 484.003 37.3811 483.184 36.4665C482.371 35.5519 481.964 34.3414 481.964 32.835V32.7185ZM483.632 32.9157C483.632 33.9917 483.88 34.8555 484.377 35.5071C484.879 36.1587 485.548 36.4845 486.385 36.4845C487.228 36.4845 487.897 36.1557 488.394 35.4981C488.89 34.8346 489.138 33.9081 489.138 32.7185C489.138 31.6544 488.884 30.7936 488.376 30.1361C487.873 29.4726 487.204 29.1408 486.367 29.1408C485.548 29.1408 484.888 29.4666 484.385 30.1182C483.883 30.7697 483.632 31.7023 483.632 32.9157ZM494.679 37.6591H493.02V23.8864H494.679V37.6591Z" fill="black"/>
<path d="M514.146 142.075H508.667V147.841H506.946V134.786H515.033V136.202H508.667V140.668H514.146V142.075ZM518.638 147.841H516.979V138.139H518.638V147.841ZM516.845 135.566C516.845 135.297 516.925 135.069 517.087 134.884C517.254 134.699 517.499 134.606 517.822 134.606C518.145 134.606 518.39 134.699 518.557 134.884C518.725 135.069 518.808 135.297 518.808 135.566C518.808 135.835 518.725 136.059 518.557 136.238C518.39 136.417 518.145 136.507 517.822 136.507C517.499 136.507 517.254 136.417 517.087 136.238C516.925 136.059 516.845 135.835 516.845 135.566ZM524.556 141.681L526.708 138.139H528.645L525.471 142.936L528.743 147.841H526.825L524.583 144.209L522.341 147.841H520.413L523.686 142.936L520.512 138.139H522.431L524.556 141.681ZM540.956 147.841C540.86 147.65 540.783 147.309 540.723 146.819C539.952 147.62 539.031 148.02 537.961 148.02C537.005 148.02 536.219 147.751 535.603 147.213C534.993 146.669 534.688 145.982 534.688 145.151C534.688 144.141 535.071 143.358 535.836 142.802C536.607 142.24 537.689 141.959 539.082 141.959H540.696V141.197C540.696 140.617 540.523 140.157 540.176 139.816C539.829 139.469 539.318 139.296 538.643 139.296C538.051 139.296 537.555 139.445 537.154 139.744C536.754 140.043 536.553 140.405 536.553 140.829H534.886C534.886 140.345 535.056 139.879 535.397 139.43C535.743 138.976 536.21 138.617 536.795 138.354C537.387 138.091 538.036 137.96 538.741 137.96C539.859 137.96 540.735 138.241 541.368 138.803C542.002 139.359 542.331 140.127 542.355 141.107V145.572C542.355 146.463 542.468 147.171 542.696 147.697V147.841H540.956ZM538.203 146.577C538.723 146.577 539.216 146.442 539.683 146.173C540.149 145.904 540.487 145.554 540.696 145.124V143.133H539.396C537.363 143.133 536.347 143.728 536.347 144.918C536.347 145.438 536.521 145.844 536.867 146.137C537.214 146.43 537.659 146.577 538.203 146.577ZM549.107 142.909C549.107 141.421 549.459 140.225 550.165 139.323C550.87 138.414 551.794 137.96 552.935 137.96C554.071 137.96 554.971 138.348 555.634 139.125V134.068H557.293V147.841H555.769L555.688 146.801C555.025 147.614 554.101 148.02 552.917 148.02C551.794 148.02 550.876 147.56 550.165 146.639C549.459 145.719 549.107 144.517 549.107 143.035V142.909ZM550.765 143.098C550.765 144.198 550.993 145.058 551.447 145.68C551.901 146.302 552.529 146.613 553.33 146.613C554.382 146.613 555.15 146.14 555.634 145.196V140.739C555.138 139.825 554.376 139.367 553.348 139.367C552.535 139.367 551.901 139.681 551.447 140.309C550.993 140.937 550.765 141.866 550.765 143.098ZM559.436 142.9C559.436 141.95 559.622 141.095 559.992 140.336C560.369 139.577 560.889 138.991 561.552 138.578C562.222 138.166 562.984 137.96 563.839 137.96C565.16 137.96 566.227 138.417 567.04 139.332C567.859 140.246 568.268 141.463 568.268 142.981V143.098C568.268 144.042 568.086 144.891 567.721 145.644C567.363 146.391 566.846 146.974 566.17 147.393C565.501 147.811 564.729 148.02 563.857 148.02C562.542 148.02 561.475 147.563 560.656 146.648C559.843 145.734 559.436 144.523 559.436 143.017V142.9ZM561.104 143.098C561.104 144.174 561.352 145.037 561.848 145.689C562.35 146.341 563.02 146.666 563.857 146.666C564.7 146.666 565.369 146.338 565.865 145.68C566.361 145.016 566.609 144.09 566.609 142.9C566.609 141.836 566.355 140.976 565.847 140.318C565.345 139.654 564.676 139.323 563.839 139.323C563.02 139.323 562.359 139.648 561.857 140.3C561.355 140.952 561.104 141.884 561.104 143.098ZM574.24 146.666C574.832 146.666 575.349 146.487 575.791 146.128C576.234 145.77 576.479 145.321 576.527 144.783H578.096C578.066 145.339 577.875 145.868 577.522 146.37C577.169 146.873 576.697 147.273 576.105 147.572C575.519 147.871 574.898 148.02 574.24 148.02C572.919 148.02 571.867 147.581 571.084 146.702C570.307 145.817 569.918 144.61 569.918 143.08V142.802C569.918 141.857 570.092 141.017 570.438 140.282C570.785 139.547 571.281 138.976 571.927 138.569C572.578 138.163 573.346 137.96 574.231 137.96C575.319 137.96 576.222 138.286 576.939 138.937C577.662 139.589 578.048 140.435 578.096 141.475H576.527C576.479 140.847 576.24 140.333 575.809 139.932C575.385 139.526 574.859 139.323 574.231 139.323C573.388 139.323 572.734 139.628 572.267 140.237C571.807 140.841 571.577 141.717 571.577 142.864V143.178C571.577 144.296 571.807 145.157 572.267 145.761C572.728 146.364 573.385 146.666 574.24 146.666ZM585.95 146.882C585.305 147.641 584.357 148.02 583.108 148.02C582.074 148.02 581.285 147.721 580.741 147.124C580.203 146.52 579.931 145.629 579.925 144.452V138.139H581.584V144.407C581.584 145.877 582.182 146.613 583.377 146.613C584.644 146.613 585.487 146.14 585.906 145.196V138.139H587.564V147.841H585.986L585.95 146.882ZM591.653 138.139L591.698 139.215C592.409 138.378 593.369 137.96 594.576 137.96C595.933 137.96 596.857 138.48 597.347 139.52C597.67 139.054 598.088 138.677 598.602 138.39C599.122 138.103 599.735 137.96 600.441 137.96C602.569 137.96 603.651 139.087 603.686 141.34V147.841H602.028V141.439C602.028 140.745 601.869 140.228 601.552 139.888C601.236 139.541 600.704 139.367 599.956 139.367C599.341 139.367 598.83 139.553 598.423 139.923C598.017 140.288 597.78 140.781 597.715 141.403V147.841H596.047V141.484C596.047 140.073 595.356 139.367 593.976 139.367C592.888 139.367 592.143 139.831 591.743 140.757V147.841H590.084V138.139H591.653ZM610.223 148.02C608.908 148.02 607.838 147.59 607.013 146.729C606.188 145.862 605.776 144.706 605.776 143.259V142.954C605.776 141.992 605.958 141.134 606.323 140.381C606.693 139.622 607.207 139.03 607.865 138.605C608.528 138.175 609.246 137.96 610.017 137.96C611.278 137.96 612.259 138.375 612.958 139.206C613.657 140.037 614.007 141.227 614.007 142.775V143.465H607.435C607.458 144.422 607.736 145.196 608.268 145.788C608.806 146.373 609.488 146.666 610.313 146.666C610.899 146.666 611.395 146.547 611.801 146.308C612.208 146.069 612.563 145.752 612.868 145.357L613.882 146.146C613.069 147.396 611.849 148.02 610.223 148.02ZM610.017 139.323C609.347 139.323 608.785 139.568 608.331 140.058C607.877 140.542 607.596 141.224 607.488 142.102H612.348V141.977C612.3 141.134 612.073 140.482 611.667 140.022C611.26 139.556 610.71 139.323 610.017 139.323ZM617.504 138.139L617.558 139.359C618.299 138.426 619.267 137.96 620.463 137.96C622.513 137.96 623.548 139.116 623.565 141.43V147.841H621.907V141.421C621.901 140.721 621.739 140.204 621.422 139.87C621.112 139.535 620.624 139.367 619.961 139.367C619.423 139.367 618.951 139.511 618.544 139.798C618.138 140.085 617.821 140.461 617.594 140.928V147.841H615.935V138.139H617.504ZM628.318 135.79V138.139H630.129V139.421H628.318V145.438C628.318 145.826 628.398 146.119 628.56 146.317C628.721 146.508 628.996 146.604 629.385 146.604C629.576 146.604 629.839 146.568 630.174 146.496V147.841C629.737 147.96 629.313 148.02 628.901 148.02C628.159 148.02 627.6 147.796 627.224 147.348C626.847 146.899 626.659 146.263 626.659 145.438V139.421H624.893V138.139H626.659V135.79H628.318ZM524.888 164.9C524.888 163.95 525.073 163.095 525.444 162.336C525.82 161.577 526.34 160.991 527.004 160.578C527.673 160.166 528.436 159.96 529.29 159.96C530.612 159.96 531.679 160.417 532.492 161.332C533.31 162.246 533.72 163.463 533.72 164.981V165.098C533.72 166.042 533.538 166.891 533.173 167.644C532.814 168.391 532.297 168.974 531.622 169.393C530.952 169.811 530.181 170.02 529.308 170.02C527.993 170.02 526.926 169.563 526.107 168.648C525.294 167.734 524.888 166.523 524.888 165.017V164.9ZM526.556 165.098C526.556 166.174 526.804 167.037 527.3 167.689C527.802 168.341 528.471 168.666 529.308 168.666C530.151 168.666 530.821 168.338 531.317 167.68C531.813 167.016 532.061 166.09 532.061 164.9C532.061 163.836 531.807 162.976 531.299 162.318C530.797 161.654 530.127 161.323 529.29 161.323C528.471 161.323 527.811 161.648 527.309 162.3C526.807 162.952 526.556 163.884 526.556 165.098ZM540.49 161.628C540.239 161.586 539.967 161.565 539.674 161.565C538.586 161.565 537.848 162.028 537.459 162.955V169.841H535.8V160.139H537.414L537.441 161.26C537.985 160.393 538.756 159.96 539.754 159.96C540.077 159.96 540.322 160.002 540.49 160.085V161.628ZM543.825 169.841H542.166V160.139H543.825V169.841ZM542.032 157.566C542.032 157.297 542.113 157.069 542.274 156.884C542.441 156.699 542.687 156.606 543.009 156.606C543.332 156.606 543.577 156.699 543.745 156.884C543.912 157.069 543.996 157.297 543.996 157.566C543.996 157.835 543.912 158.059 543.745 158.238C543.577 158.417 543.332 158.507 543.009 158.507C542.687 158.507 542.441 158.417 542.274 158.238C542.113 158.059 542.032 157.835 542.032 157.566ZM550.514 170.02C549.199 170.02 548.129 169.59 547.304 168.729C546.479 167.862 546.067 166.706 546.067 165.259V164.954C546.067 163.992 546.249 163.134 546.614 162.381C546.985 161.622 547.499 161.03 548.156 160.605C548.82 160.175 549.537 159.96 550.308 159.96C551.569 159.96 552.55 160.375 553.249 161.206C553.949 162.037 554.298 163.227 554.298 164.775V165.465H547.726C547.75 166.422 548.028 167.196 548.56 167.788C549.098 168.373 549.779 168.666 550.604 168.666C551.19 168.666 551.686 168.547 552.093 168.308C552.499 168.069 552.855 167.752 553.16 167.357L554.173 168.146C553.36 169.396 552.14 170.02 550.514 170.02ZM550.308 161.323C549.639 161.323 549.077 161.568 548.622 162.058C548.168 162.542 547.887 163.224 547.78 164.102H552.639V163.977C552.592 163.134 552.365 162.482 551.958 162.022C551.552 161.556 551.002 161.323 550.308 161.323ZM557.795 160.139L557.849 161.359C558.59 160.426 559.559 159.96 560.754 159.96C562.805 159.96 563.839 161.116 563.857 163.43V169.841H562.198V163.421C562.192 162.721 562.031 162.204 561.714 161.87C561.403 161.535 560.916 161.367 560.252 161.367C559.714 161.367 559.242 161.511 558.835 161.798C558.429 162.085 558.112 162.461 557.885 162.928V169.841H556.226V160.139H557.795ZM568.609 157.79V160.139H570.42V161.421H568.609V167.438C568.609 167.826 568.69 168.119 568.851 168.317C569.013 168.508 569.288 168.604 569.676 168.604C569.867 168.604 570.13 168.568 570.465 168.496V169.841C570.029 169.96 569.604 170.02 569.192 170.02C568.451 170.02 567.892 169.796 567.515 169.348C567.139 168.899 566.95 168.263 566.95 167.438V161.421H565.184V160.139H566.95V157.79H568.609ZM578.356 169.841C578.26 169.65 578.182 169.309 578.123 168.819C577.351 169.62 576.431 170.02 575.361 170.02C574.404 170.02 573.618 169.751 573.003 169.213C572.393 168.669 572.088 167.982 572.088 167.151C572.088 166.141 572.471 165.358 573.236 164.802C574.007 164.24 575.089 163.959 576.482 163.959H578.096V163.197C578.096 162.617 577.922 162.157 577.576 161.816C577.229 161.469 576.718 161.296 576.042 161.296C575.451 161.296 574.954 161.445 574.554 161.744C574.153 162.043 573.953 162.405 573.953 162.829H572.285C572.285 162.345 572.456 161.879 572.796 161.43C573.143 160.976 573.609 160.617 574.195 160.354C574.787 160.091 575.436 159.96 576.141 159.96C577.259 159.96 578.135 160.241 578.768 160.803C579.402 161.359 579.731 162.127 579.755 163.107V167.572C579.755 168.463 579.868 169.171 580.095 169.697V169.841H578.356ZM575.603 168.577C576.123 168.577 576.616 168.442 577.083 168.173C577.549 167.904 577.887 167.554 578.096 167.124V165.133H576.796C574.763 165.133 573.747 165.728 573.747 166.918C573.747 167.438 573.92 167.844 574.267 168.137C574.614 168.43 575.059 168.577 575.603 168.577ZM584.605 157.79V160.139H586.417V161.421H584.605V167.438C584.605 167.826 584.686 168.119 584.848 168.317C585.009 168.508 585.284 168.604 585.673 168.604C585.864 168.604 586.127 168.568 586.462 168.496V169.841C586.025 169.96 585.601 170.02 585.188 170.02C584.447 170.02 583.888 169.796 583.512 169.348C583.135 168.899 582.947 168.263 582.947 167.438V161.421H581.18V160.139H582.947V157.79H584.605ZM590.165 169.841H588.506V160.139H590.165V169.841ZM588.371 157.566C588.371 157.297 588.452 157.069 588.614 156.884C588.781 156.699 589.026 156.606 589.349 156.606C589.672 156.606 589.917 156.699 590.084 156.884C590.251 157.069 590.335 157.297 590.335 157.566C590.335 157.835 590.251 158.059 590.084 158.238C589.917 158.417 589.672 158.507 589.349 158.507C589.026 158.507 588.781 158.417 588.614 158.238C588.452 158.059 588.371 157.835 588.371 157.566ZM592.389 164.9C592.389 163.95 592.574 163.095 592.944 162.336C593.321 161.577 593.841 160.991 594.505 160.578C595.174 160.166 595.936 159.96 596.791 159.96C598.112 159.96 599.179 160.417 599.992 161.332C600.811 162.246 601.221 163.463 601.221 164.981V165.098C601.221 166.042 601.038 166.891 600.674 167.644C600.315 168.391 599.798 168.974 599.122 169.393C598.453 169.811 597.682 170.02 596.809 170.02C595.494 170.02 594.427 169.563 593.608 168.648C592.795 167.734 592.389 166.523 592.389 165.017V164.9ZM594.056 165.098C594.056 166.174 594.304 167.037 594.801 167.689C595.303 168.341 595.972 168.666 596.809 168.666C597.652 168.666 598.321 168.338 598.818 167.68C599.314 167.016 599.562 166.09 599.562 164.9C599.562 163.836 599.308 162.976 598.8 162.318C598.298 161.654 597.628 161.323 596.791 161.323C595.972 161.323 595.312 161.648 594.81 162.3C594.307 162.952 594.056 163.884 594.056 165.098ZM604.87 160.139L604.924 161.359C605.665 160.426 606.633 159.96 607.829 159.96C609.879 159.96 610.914 161.116 610.931 163.43V169.841H609.273V163.421C609.267 162.721 609.105 162.204 608.788 161.87C608.478 161.535 607.99 161.367 607.327 161.367C606.789 161.367 606.317 161.511 605.91 161.798C605.504 162.085 605.187 162.461 604.96 162.928V169.841H603.301V160.139H604.87Z" fill="black"/>
<path d="M624.714 37.6591V24.6037H628.399C629.535 24.6037 630.539 24.8548 631.412 25.3569C632.284 25.859 632.957 26.5734 633.429 27.4999C633.907 28.4265 634.149 29.4905 634.155 30.692V31.5259C634.155 32.7573 633.916 33.8363 633.438 34.7629C632.966 35.6894 632.287 36.4008 631.403 36.8969C630.524 37.3931 629.499 37.6471 628.327 37.6591H624.714ZM626.435 26.0204V36.2513H628.246C629.574 36.2513 630.605 35.8389 631.34 35.0139C632.081 34.189 632.452 33.0144 632.452 31.4901V30.7279C632.452 29.2454 632.102 28.0947 631.403 27.2757C630.709 26.4508 629.723 26.0324 628.444 26.0204H626.435ZM642.494 37.6591C642.399 37.4678 642.321 37.1271 642.261 36.6369C641.49 37.4379 640.57 37.8384 639.5 37.8384C638.543 37.8384 637.757 37.5694 637.141 37.0314C636.532 36.4874 636.227 35.8 636.227 34.9691C636.227 33.9589 636.609 33.1758 637.374 32.6198C638.146 32.0579 639.228 31.777 640.62 31.777H642.234V31.0148C642.234 30.435 642.061 29.9747 641.714 29.634C641.368 29.2873 640.857 29.1139 640.181 29.1139C639.589 29.1139 639.093 29.2633 638.693 29.5622C638.292 29.8611 638.092 30.2228 638.092 30.6472H636.424C636.424 30.163 636.594 29.6967 636.935 29.2484C637.282 28.7941 637.748 28.4354 638.334 28.1724C638.926 27.9094 639.574 27.7779 640.28 27.7779C641.397 27.7779 642.273 28.0588 642.907 28.6207C643.541 29.1767 643.869 29.9448 643.893 30.9252V35.3905C643.893 36.2812 644.007 36.9896 644.234 37.5156V37.6591H642.494ZM639.742 36.3948C640.262 36.3948 640.755 36.2603 641.221 35.9913C641.687 35.7223 642.025 35.3726 642.234 34.9422V32.9516H640.934C638.902 32.9516 637.886 33.5464 637.886 34.736C637.886 35.256 638.059 35.6625 638.406 35.9554C638.752 36.2483 639.198 36.3948 639.742 36.3948ZM648.744 25.608V27.9572H650.555V29.2394H648.744V35.256C648.744 35.6446 648.825 35.9375 648.986 36.1348C649.148 36.3261 649.423 36.4217 649.811 36.4217C650.002 36.4217 650.265 36.3858 650.6 36.3141V37.6591C650.164 37.7786 649.739 37.8384 649.327 37.8384C648.586 37.8384 648.027 37.6143 647.65 37.1659C647.274 36.7176 647.085 36.081 647.085 35.256V29.2394H645.319V27.9572H647.085V25.608H648.744ZM658.491 37.6591C658.395 37.4678 658.318 37.1271 658.258 36.6369C657.487 37.4379 656.566 37.8384 655.496 37.8384C654.54 37.8384 653.753 37.5694 653.138 37.0314C652.528 36.4874 652.223 35.8 652.223 34.9691C652.223 33.9589 652.606 33.1758 653.371 32.6198C654.142 32.0579 655.224 31.777 656.617 31.777H658.231V31.0148C658.231 30.435 658.057 29.9747 657.711 29.634C657.364 29.2873 656.853 29.1139 656.177 29.1139C655.586 29.1139 655.09 29.2633 654.689 29.5622C654.289 29.8611 654.088 30.2228 654.088 30.6472H652.42C652.42 30.163 652.591 29.6967 652.932 29.2484C653.278 28.7941 653.745 28.4354 654.33 28.1724C654.922 27.9094 655.571 27.7779 656.276 27.7779C657.394 27.7779 658.27 28.0588 658.903 28.6207C659.537 29.1767 659.866 29.9448 659.89 30.9252V35.3905C659.89 36.2812 660.003 36.9896 660.23 37.5156V37.6591H658.491ZM655.738 36.3948C656.258 36.3948 656.751 36.2603 657.218 35.9913C657.684 35.7223 658.022 35.3726 658.231 34.9422V32.9516H656.931C654.898 32.9516 653.882 33.5464 653.882 34.736C653.882 35.256 654.055 35.6625 654.402 35.9554C654.749 36.2483 655.194 36.3948 655.738 36.3948ZM671.071 37.8384C669.756 37.8384 668.686 37.408 667.861 36.5472C667.036 35.6805 666.624 34.5238 666.624 33.0771V32.7723C666.624 31.8099 666.806 30.9521 667.171 30.1989C667.541 29.4397 668.055 28.8479 668.713 28.4235C669.376 27.9931 670.094 27.7779 670.865 27.7779C672.126 27.7779 673.106 28.1933 673.806 29.0242C674.505 29.8551 674.855 31.0447 674.855 32.5929V33.2834H668.282C668.306 34.2398 668.584 35.0139 669.116 35.6057C669.654 36.1916 670.336 36.4845 671.161 36.4845C671.747 36.4845 672.243 36.3649 672.649 36.1258C673.056 35.8867 673.411 35.5699 673.716 35.1753L674.729 35.9644C673.916 37.2137 672.697 37.8384 671.071 37.8384ZM670.865 29.1408C670.195 29.1408 669.633 29.3859 669.179 29.8761C668.725 30.3603 668.444 31.0417 668.336 31.9205H673.196V31.7949C673.148 30.9521 672.921 30.3005 672.515 29.8402C672.108 29.3739 671.558 29.1408 670.865 29.1408ZM680.038 31.499L682.19 27.9572H684.126L680.952 32.7543L684.225 37.6591H682.306L680.065 34.0276L677.823 37.6591H675.895L679.168 32.7543L675.994 27.9572H677.913L680.038 31.499ZM688.143 25.608V27.9572H689.955V29.2394H688.143V35.256C688.143 35.6446 688.224 35.9375 688.386 36.1348C688.547 36.3261 688.822 36.4217 689.21 36.4217C689.402 36.4217 689.665 36.3858 690 36.3141V37.6591C689.563 37.7786 689.139 37.8384 688.726 37.8384C687.985 37.8384 687.426 37.6143 687.05 37.1659C686.673 36.7176 686.485 36.081 686.485 35.256V29.2394H684.718V27.9572H686.485V25.608H688.143ZM696.59 29.4457C696.339 29.4038 696.067 29.3829 695.774 29.3829C694.686 29.3829 693.948 29.8462 693.559 30.7727V37.6591H691.9V27.9572H693.514L693.541 29.078C694.085 28.2113 694.856 27.7779 695.855 27.7779C696.178 27.7779 696.423 27.8197 696.59 27.9034V29.4457ZM703.754 37.6591C703.659 37.4678 703.581 37.1271 703.521 36.6369C702.75 37.4379 701.83 37.8384 700.76 37.8384C699.803 37.8384 699.017 37.5694 698.401 37.0314C697.792 36.4874 697.487 35.8 697.487 34.9691C697.487 33.9589 697.869 33.1758 698.634 32.6198C699.406 32.0579 700.488 31.777 701.88 31.777H703.494V31.0148C703.494 30.435 703.321 29.9747 702.974 29.634C702.628 29.2873 702.116 29.1139 701.441 29.1139C700.849 29.1139 700.353 29.2633 699.953 29.5622C699.552 29.8611 699.352 30.2228 699.352 30.6472H697.684C697.684 30.163 697.854 29.6967 698.195 29.2484C698.542 28.7941 699.008 28.4354 699.594 28.1724C700.186 27.9094 700.834 27.7779 701.54 27.7779C702.657 27.7779 703.533 28.0588 704.167 28.6207C704.8 29.1767 705.129 29.9448 705.153 30.9252V35.3905C705.153 36.2812 705.267 36.9896 705.494 37.5156V37.6591H703.754ZM701.002 36.3948C701.522 36.3948 702.015 36.2603 702.481 35.9913C702.947 35.7223 703.285 35.3726 703.494 34.9422V32.9516H702.194C700.162 32.9516 699.146 33.5464 699.146 34.736C699.146 35.256 699.319 35.6625 699.666 35.9554C700.012 36.2483 700.458 36.3948 701.002 36.3948ZM711.645 36.4845C712.237 36.4845 712.754 36.3051 713.196 35.9465C713.639 35.5878 713.884 35.1395 713.931 34.6015H715.501C715.471 35.1574 715.279 35.6864 714.927 36.1886C714.574 36.6907 714.102 37.0912 713.51 37.3901C712.924 37.689 712.303 37.8384 711.645 37.8384C710.324 37.8384 709.272 37.3991 708.489 36.5203C707.712 35.6356 707.323 34.4281 707.323 32.8978V32.6198C707.323 31.6754 707.496 30.8355 707.843 30.1002C708.19 29.365 708.686 28.7941 709.332 28.3876C709.983 27.9811 710.751 27.7779 711.636 27.7779C712.724 27.7779 713.627 28.1037 714.344 28.7552C715.067 29.4068 715.453 30.2527 715.501 31.2928H713.931C713.884 30.6651 713.645 30.151 713.214 29.7505C712.79 29.344 712.264 29.1408 711.636 29.1408C710.793 29.1408 710.139 29.4457 709.672 30.0554C709.212 30.6591 708.982 31.5349 708.982 32.6826V32.9964C708.982 34.1143 709.212 34.9751 709.672 35.5788C710.133 36.1826 710.79 36.4845 711.645 36.4845ZM719.616 25.608V27.9572H721.428V29.2394H719.616V35.256C719.616 35.6446 719.697 35.9375 719.858 36.1348C720.02 36.3261 720.295 36.4217 720.683 36.4217C720.875 36.4217 721.138 36.3858 721.472 36.3141V37.6591C721.036 37.7786 720.612 37.8384 720.199 37.8384C719.458 37.8384 718.899 37.6143 718.522 37.1659C718.146 36.7176 717.957 36.081 717.957 35.256V29.2394H716.191V27.9572H717.957V25.608H719.616ZM725.176 37.6591H723.517V27.9572H725.176V37.6591ZM723.382 25.3838C723.382 25.1148 723.463 24.8876 723.624 24.7023C723.792 24.517 724.037 24.4244 724.36 24.4244C724.682 24.4244 724.928 24.517 725.095 24.7023C725.262 24.8876 725.346 25.1148 725.346 25.3838C725.346 25.6528 725.262 25.877 725.095 26.0563C724.928 26.2356 724.682 26.3253 724.36 26.3253C724.037 26.3253 723.792 26.2356 723.624 26.0563C723.463 25.877 723.382 25.6528 723.382 25.3838ZM727.399 32.7185C727.399 31.768 727.585 30.9132 727.955 30.154C728.332 29.3949 728.852 28.809 729.515 28.3966C730.185 27.9841 730.947 27.7779 731.802 27.7779C733.123 27.7779 734.19 28.2352 735.003 29.1498C735.822 30.0644 736.231 31.2808 736.231 32.7992V32.9157C736.231 33.8602 736.049 34.7091 735.684 35.4623C735.326 36.2095 734.809 36.7923 734.133 37.2108C733.464 37.6292 732.693 37.8384 731.82 37.8384C730.505 37.8384 729.438 37.3811 728.619 36.4665C727.806 35.5519 727.399 34.3414 727.399 32.835V32.7185ZM729.067 32.9157C729.067 33.9917 729.315 34.8555 729.811 35.5071C730.313 36.1587 730.983 36.4845 731.82 36.4845C732.663 36.4845 733.332 36.1557 733.828 35.4981C734.325 34.8346 734.573 33.9081 734.573 32.7185C734.573 31.6544 734.319 30.7936 733.81 30.1361C733.308 29.4726 732.639 29.1408 731.802 29.1408C730.983 29.1408 730.322 29.4666 729.82 30.1182C729.318 30.7697 729.067 31.7023 729.067 32.9157ZM739.881 27.9572L739.935 29.1767C740.676 28.2441 741.644 27.7779 742.84 27.7779C744.89 27.7779 745.924 28.9346 745.942 31.248V37.6591H744.283V31.239C744.277 30.5396 744.116 30.0225 743.799 29.6878C743.488 29.353 743.001 29.1856 742.338 29.1856C741.8 29.1856 741.327 29.3291 740.921 29.616C740.515 29.903 740.198 30.2796 739.971 30.7458V37.6591H738.312V27.9572H739.881Z" fill="black"/>
<path d="M801.069 134.786V143.662C801.063 144.894 800.674 145.901 799.903 146.684C799.138 147.467 798.098 147.907 796.783 148.002L796.325 148.02C794.897 148.02 793.758 147.635 792.909 146.864C792.06 146.092 791.63 145.031 791.618 143.68V134.786H793.322V143.627C793.322 144.571 793.582 145.306 794.102 145.832C794.622 146.352 795.363 146.613 796.325 146.613C797.3 146.613 798.044 146.352 798.558 145.832C799.078 145.312 799.338 144.58 799.338 143.636V134.786H801.069ZM805.633 147.841H803.911V134.786H805.633V147.841Z" fill="black"/>
<circle cx="10.3295" cy="83.7841" r="10.3295" fill="#92C9EC" fill-opacity="0.3"/>
<circle cx="10.33" cy="83.784" r="4.82045" fill="#92C9EC"/>
<line x1="10.3738" y1="82.2401" x2="10.3738" y2="47.6836" stroke="url(#paint0_linear)" stroke-width="2.29545"/>
<path d="M11.4773 83.7841H797.67" stroke="url(#paint1_linear)" stroke-width="2.29545"/>
<circle r="10.3295" transform="matrix(1 0 0 -1 122.807 83.7841)" fill="#92C9EC" fill-opacity="0.3"/>
<circle r="4.82045" transform="matrix(1 0 0 -1 122.807 83.7841)" fill="#92C9EC"/>
<line y1="-1.14773" x2="34.5565" y2="-1.14773" transform="matrix(-4.37114e-08 1 1 4.37114e-08 123.999 85.328)" stroke="url(#paint2_linear)" stroke-width="2.29545"/>
<circle cx="235.284" cy="83.7841" r="10.3295" fill="#92C9EC" fill-opacity="0.3"/>
<circle cx="235.284" cy="83.784" r="4.82045" fill="#92C9EC"/>
<line x1="235.328" y1="82.2401" x2="235.328" y2="47.6836" stroke="url(#paint3_linear)" stroke-width="2.29545"/>
<circle r="10.3295" transform="matrix(1 0 0 -1 347.761 83.7841)" fill="#92C9EC" fill-opacity="0.3"/>
<circle r="4.82045" transform="matrix(1 0 0 -1 347.762 83.7841)" fill="#92C9EC"/>
<line y1="-1.14773" x2="34.5565" y2="-1.14773" transform="matrix(-4.37114e-08 1 1 4.37114e-08 348.953 85.328)" stroke="url(#paint4_linear)" stroke-width="2.29545"/>
<circle cx="460.238" cy="83.7841" r="10.3295" fill="#92C9EC" fill-opacity="0.3"/>
<circle cx="460.239" cy="83.784" r="4.82045" fill="#92C9EC"/>
<line x1="460.283" y1="82.2401" x2="460.283" y2="47.6836" stroke="url(#paint5_linear)" stroke-width="2.29545"/>
<circle r="10.3295" transform="matrix(1 0 0 -1 572.716 83.7841)" fill="#92C9EC" fill-opacity="0.3"/>
<circle r="4.82045" transform="matrix(1 0 0 -1 572.716 83.7841)" fill="#92C9EC"/>
<line y1="-1.14773" x2="34.5565" y2="-1.14773" transform="matrix(-4.37114e-08 1 1 4.37114e-08 573.908 85.328)" stroke="url(#paint6_linear)" stroke-width="2.29545"/>
<circle cx="685.193" cy="83.7841" r="10.3295" fill="#92C9EC" fill-opacity="0.3"/>
<circle cx="685.194" cy="83.784" r="4.82045" fill="#92C9EC"/>
<line x1="685.238" y1="82.2401" x2="685.238" y2="47.6836" stroke="url(#paint7_linear)" stroke-width="2.29545"/>
<circle r="10.3295" transform="matrix(1 0 0 -1 797.671 83.7841)" fill="#92C9EC" fill-opacity="0.3"/>
<circle r="4.82045" transform="matrix(1 0 0 -1 797.671 83.7841)" fill="#92C9EC"/>
<line y1="-1.14773" x2="34.5565" y2="-1.14773" transform="matrix(-4.37114e-08 1 1 4.37114e-08 798.863 85.328)" stroke="url(#paint8_linear)" stroke-width="2.29545"/>
<defs>
<linearGradient id="paint0_linear" x1="11.2875" y1="82.9635" x2="12.5191" y2="45.7006" gradientUnits="userSpaceOnUse">
<stop stop-color="#92C9EC"/>
<stop offset="1" stop-color="#92C9EC" stop-opacity="0"/>
</linearGradient>
<linearGradient id="paint1_linear" x1="11.4773" y1="83.7841" x2="798.818" y2="83.7841" gradientUnits="userSpaceOnUse">
<stop stop-color="#92C9EC" stop-opacity="0"/>
<stop offset="0.0362034" stop-color="#92C9EC" stop-opacity="0.31"/>
<stop offset="0.511757" stop-color="#92C9EC"/>
<stop offset="0.965025" stop-color="#92C9EC" stop-opacity="0.31"/>
<stop offset="1" stop-color="#92C9EC" stop-opacity="0"/>
</linearGradient>
<linearGradient id="paint2_linear" x1="-0.723383" y1="-0.233945" x2="36.5396" y2="0.997617" gradientUnits="userSpaceOnUse">
<stop stop-color="#92C9EC"/>
<stop offset="1" stop-color="#92C9EC" stop-opacity="0"/>
</linearGradient>
<linearGradient id="paint3_linear" x1="236.242" y1="82.9635" x2="237.473" y2="45.7006" gradientUnits="userSpaceOnUse">
<stop stop-color="#92C9EC"/>
<stop offset="1" stop-color="#92C9EC" stop-opacity="0"/>
</linearGradient>
<linearGradient id="paint4_linear" x1="-0.723383" y1="-0.233945" x2="36.5396" y2="0.997617" gradientUnits="userSpaceOnUse">
<stop stop-color="#92C9EC"/>
<stop offset="1" stop-color="#92C9EC" stop-opacity="0"/>
</linearGradient>
<linearGradient id="paint5_linear" x1="461.196" y1="82.9635" x2="462.428" y2="45.7006" gradientUnits="userSpaceOnUse">
<stop stop-color="#92C9EC"/>
<stop offset="1" stop-color="#92C9EC" stop-opacity="0"/>
</linearGradient>
<linearGradient id="paint6_linear" x1="-0.723383" y1="-0.233945" x2="36.5396" y2="0.997617" gradientUnits="userSpaceOnUse">
<stop stop-color="#92C9EC"/>
<stop offset="1" stop-color="#92C9EC" stop-opacity="0"/>
</linearGradient>
<linearGradient id="paint7_linear" x1="686.151" y1="82.9635" x2="687.383" y2="45.7006" gradientUnits="userSpaceOnUse">
<stop stop-color="#92C9EC"/>
<stop offset="1" stop-color="#92C9EC" stop-opacity="0"/>
</linearGradient>
<linearGradient id="paint8_linear" x1="-0.723383" y1="-0.233945" x2="36.5396" y2="0.997617" gradientUnits="userSpaceOnUse">
<stop stop-color="#92C9EC"/>
<stop offset="1" stop-color="#92C9EC" stop-opacity="0"/>
</linearGradient>
</defs>
</svg>
