<?xml version="1.0" standalone="no"?>
<!DOCTYPE svg PUBLIC "-//W3C//DTD SVG 20010904//EN"
 "http://www.w3.org/TR/2001/REC-SVG-20010904/DTD/svg10.dtd">
<svg version="1.0" xmlns="http://www.w3.org/2000/svg"
 width="700.000000pt" height="700.000000pt" viewBox="0 0 700.000000 700.000000"
 preserveAspectRatio="xMidYMid meet">
<metadata>
Created by potrace 1.11, written by Peter Selinger 2001-2013
</metadata>
<g transform="translate(0.000000,700.000000) scale(0.100000,-0.100000)"
fill="#000000" stroke="none">
<path d="M2534 6985 c-131 -28 -118 -16 -858 -754 -429 -427 -703 -708 -727
-744 -78 -120 -72 42 -74 -1957 -1 -1331 2 -1803 11 -1856 16 -99 53 -163 149
-263 280 -289 1310 -1308 1351 -1336 60 -42 138 -66 226 -70 120 -6 229 37
318 125 83 83 125 177 130 290 6 144 2 6158 -4 6203 -35 249 -273 414 -522
362z"/>
<path d="M4255 4791 c-81 -23 -116 -43 -178 -101 -61 -57 -97 -118 -122 -205
-17 -55 -18 -196 -18 -2060 0 -1100 3 -2022 7 -2048 13 -97 71 -204 141 -265
42 -37 120 -80 167 -93 63 -17 169 -20 226 -5 124 33 126 35 869 779 489 490
708 715 723 746 55 109 53 92 55 836 0 380 -3 717 -7 750 -5 35 -23 90 -43
131 -32 66 -78 114 -707 744 -370 371 -696 692 -724 716 -98 79 -262 111 -389
75z"/>
</g>
</svg>
