<svg width="100" height="100" fill="none" xmlns="http://www.w3.org/2000/svg">
  <path fill-rule="evenodd" clip-rule="evenodd" d="M50 100c27.614 0 50-22.386 50-50S77.614 0 50 0 0 22.386 0 50s22.386 50 50 50Z" fill="#fff"/>
  <path fill-rule="evenodd" clip-rule="evenodd" d="M70.888 31.266c0 4.012-9.405 7.266-21.007 7.266-11.601 0-21.005-3.254-21.005-7.266 0-4.013 9.404-7.266 21.006-7.266 11.601 0 21.006 3.253 21.006 7.266Z" fill="#92C9EC"/>
  <path fill-rule="evenodd" clip-rule="evenodd" d="M49.882 42.305c-11.234 0-20.381-3.052-20.952-6.889h-.055v6.99c0 4.014 9.405 7.266 21.007 7.266 11.602 0 21.007-3.252 21.007-7.266v-6.99h-.055c-.571 3.837-9.718 6.889-20.952 6.889Z" fill="#92C9EC"/>
  <path fill-rule="evenodd" clip-rule="evenodd" d="M49.882 53.526c-11.234 0-20.381-3.052-20.952-6.888h-.055v6.99c0 4.013 9.405 7.265 21.007 7.265 11.602 0 21.007-3.252 21.007-7.266v-6.99h-.055c-.571 3.837-9.718 6.89-20.952 6.89Z" fill="#92C9EC"/>
  <path fill-rule="evenodd" clip-rule="evenodd" d="M49.882 63.994c-11.234 0-20.381-3.052-20.952-6.888h-.055v6.99c0 4.013 9.405 7.265 21.007 7.265 11.602 0 21.007-3.252 21.007-7.266v-6.99h-.055c-.571 3.837-9.718 6.89-20.952 6.89Z" fill="#92C9EC"/>
  <circle cx="64.396" cy="66.396" r="12.604" fill="#103654"/>
  <path d="M68.864 60.297c1.971 1.38 3.257 3.647 3.257 6.211 0 4.205-3.458 7.613-7.725 7.613-4.267 0-7.725-3.408-7.725-7.613a7.549 7.549 0 0 1 2.677-5.762" stroke="#fff" stroke-width="2"/>
  <path fill-rule="evenodd" clip-rule="evenodd" d="m57.565 59.605 2.982 3.044c.166.17.458.078.494-.154l.504-3.335a.432.432 0 0 0-.491-.485l-3.32.455a.28.28 0 0 0-.169.475" fill="#fff"/>
</svg>
