<svg width="100" height="100" fill="none" xmlns="http://www.w3.org/2000/svg">
  <path fill-rule="evenodd" clip-rule="evenodd" d="M50 100c27.614 0 50-22.386 50-50S77.614 0 50 0 0 22.386 0 50s22.386 50 50 50Z" fill="#fff"/>
  <path fill-rule="evenodd" clip-rule="evenodd" d="m77 49.226-9.73 13.127a2.24 2.24 0 0 1-3.207.392l-8.015-6.563 2.834-3.367 6.199 5.077 8.338-11.248L77 49.226Z" fill="#B6DAF2"/>
  <path fill-rule="evenodd" clip-rule="evenodd" d="m69.798 44.178-13.38 17.853a3.103 3.103 0 0 1-4.41.533l-11.02-8.927 3.897-4.578 8.523 6.905 11.466-15.298 4.924 3.512Z" fill="#92C9EC"/>
  <path fill-rule="evenodd" clip-rule="evenodd" d="M60.631 37.24 42.689 60.343c-.666.858-1.678 1.419-2.798 1.55a4.268 4.268 0 0 1-3.115-.86L22 49.481l5.225-5.925 11.43 8.936 15.373-19.798 6.603 4.546Z" fill="#103654"/>
</svg>
