<svg width="100" height="100" fill="none" xmlns="http://www.w3.org/2000/svg">
  <path fill-rule="evenodd" clip-rule="evenodd" d="M50 100c27.614 0 50-22.386 50-50S77.614 0 50 0 0 22.386 0 50s22.386 50 50 50Z" fill="#fff"/>
  <g clip-path="url(#a)">
    <rect x="26.124" y="29.111" width="49.653" height="35.139" rx="2" fill="#92C9EC"/>
    <path d="M23.832 24.528h53.472v4.583H23.832v-4.583Z" stroke="#92C9EC" stroke-width="2" stroke-linejoin="round"/>
    <path d="M38.15 64.883h-.574l-.29.494-6.21 10.59-.882 1.505h4.98l.29-.494 6.209-10.589.883-1.506H38.15ZM62.988 64.883h.572l.29.494 6.21 10.59.883 1.505h-4.98l-.29-.494-6.21-10.589-.882-1.506h4.407Z" stroke="#92C9EC" stroke-width="2"/>
    <path d="m35.932 49.677 11.975-8.825 6.654 4.854 10.201-10.59" stroke="#103654" stroke-width="2"/>
    <path d="m64.54 39.649.912-4.947-5.045.333" stroke="#103654" stroke-width="2"/>
    <path fill="#103654" d="M59.735 43.625h3.819v15.278h-3.819zM52.096 48.972h3.819v9.931h-3.819zM45.221 46.681h3.819v12.222h-3.819zM38.346 51.264h3.819v7.639h-3.819z"/>
    <path fill="#fff" d="M33.763 64.25h34.375v1.528H33.763z"/>
  </g>
  <defs>
    <clipPath id="a">
      <path fill="#fff" d="M23.068 23h55v55h-55z"/>
    </clipPath>
  </defs>
</svg>
