<svg width="100" height="100" fill="none" xmlns="http://www.w3.org/2000/svg">
  <path fill-rule="evenodd" clip-rule="evenodd" d="M50 100c27.614 0 50-22.386 50-50S77.614 0 50 0 0 22.386 0 50s22.386 50 50 50Z" fill="#fff"/>
  <path d="m63.186 49.761-1.405-.73.477-1.516a.582.582 0 0 0-.146-.586L61.085 45.9a.582.582 0 0 0-.587-.145l-1.515.476-.731-1.405a.579.579 0 0 0-.517-.313h-1.457a.585.585 0 0 0-.517.313l-.73 1.405-1.516-.476a.569.569 0 0 0-.58.145L51.9 46.93a.582.582 0 0 0-.145.586l.476 1.515-1.405.731a.579.579 0 0 0-.313.517v1.457c0 .215.122.418.313.517l1.405.731-.476 1.51a.576.576 0 0 0 .145.586l1.033 1.033c.151.157.378.21.58.145l1.516-.476.731 1.405a.586.586 0 0 0 .517.314h1.457c.22 0 .418-.122.517-.314l.731-1.405 1.516.476c.203.064.43.012.586-.145l1.027-1.033a.576.576 0 0 0 .145-.586l-.476-1.51 1.405-.731a.585.585 0 0 0 .314-.517v-1.457a.579.579 0 0 0-.314-.517Zm-6.176 3.884a2.643 2.643 0 0 1-2.642-2.641 2.642 2.642 0 0 1 2.642-2.636 2.641 2.641 0 0 1 2.635 2.636 2.642 2.642 0 0 1-2.635 2.641ZM53.564 43.359l.737-2.027a.575.575 0 0 0-.121-.587l-1.745-1.906 1.566-2.05a.582.582 0 0 0 .07-.593l-.916-1.957a.582.582 0 0 0-.5-.334l-2.58-.11-.34-2.556a.572.572 0 0 0-.373-.466l-2.032-.738a.578.578 0 0 0-.588.116l-1.9 1.75-2.054-1.572a.567.567 0 0 0-.593-.063l-1.957.915a.565.565 0 0 0-.328.495l-.11 2.586-2.561.34a.58.58 0 0 0-.467.373l-.736 2.033a.566.566 0 0 0 .115.581l1.75 1.906-1.572 2.05a.582.582 0 0 0-.063.593l.915 1.958a.582.582 0 0 0 .5.334l2.58.11.34 2.561a.58.58 0 0 0 .373.467l2.033.73a.585.585 0 0 0 .587-.114l1.9-1.75 2.054 1.571a.566.566 0 0 0 .593.063l1.957-.915a.568.568 0 0 0 .328-.495l.11-2.58 2.561-.345a.57.57 0 0 0 .467-.374Zm-6.862-.91a3.618 3.618 0 0 1-1.531.34 3.637 3.637 0 0 1-3.281-2.085 3.612 3.612 0 0 1 1.744-4.813 3.542 3.542 0 0 1 1.531-.346c1.399 0 2.688.824 3.281 2.09a3.625 3.625 0 0 1-1.744 4.814Z" fill="#103654"/>
  <path fill-rule="evenodd" clip-rule="evenodd" d="M72.417 24H26.583A4.589 4.589 0 0 0 22 28.583v34.375a4.589 4.589 0 0 0 4.583 4.584h45.834A4.589 4.589 0 0 0 77 62.958V28.583A4.589 4.589 0 0 0 72.417 24Zm-48.584 4.583a2.753 2.753 0 0 1 2.75-2.75h45.834a2.753 2.753 0 0 1 2.75 2.75v32.084H23.833V28.583Z" fill="#92C9EC"/>
  <path d="M51.792 69.833h-4.584v4.584h-7.791a2.753 2.753 0 0 0-2.75 2.75v.916c0 .507.41.917.916.917h23.834c.507 0 .916-.41.916-.917v-.916a2.753 2.753 0 0 0-2.75-2.75h-7.791v-4.584Z" fill="#92C9EC"/>
</svg>
