<svg width="40" height="40" fill="none" xmlns="http://www.w3.org/2000/svg">
  <g clip-path="url(#a)">
    <path d="M11.404 33.066H8.536l6.616-6.592-1.654-1.66-6.6 6.575v-2.828H4.555v6.849h6.849v-2.344ZM28.596 33.066v2.344h6.85v-6.85H33.1v2.83l-6.6-6.576-1.653 1.66 6.616 6.592h-2.868ZM6.898 8.61l6.6 6.576 1.654-1.66-6.616-6.592h2.868V4.59h-6.85v6.85h2.344V8.61ZM26.502 15.186l6.6-6.575v2.828h2.343V4.59h-6.849v2.344h2.868l-6.616 6.592 1.654 1.66Z" fill="#103654"/>
    <path d="M0 0v40h40V0H0Zm37.656 37.656H2.344V2.344h35.312v35.312Z" fill="#92C9EC"/>
  </g>
  <defs>
    <clipPath id="a">
      <path fill="#fff" d="M0 0h40v40H0z"/>
    </clipPath>
  </defs>
</svg>
