<svg width="127" height="40" fill="none" xmlns="http://www.w3.org/2000/svg">
  <g clip-path="url(#a)">
    <path d="M52.391 14.548c.722-1.991 2.248-2.676 4.24-2.648 1.773.024 3.551-.034 5.325.018 2.687.078 4.04 1.584 3.913 4.254-.02.435-.078.848-.526.963-.682.176-1.345.652-2.078.363-.357-.137-.217-.574-.217-.887-.055-1.739-.41-2.089-2.135-2.093-1.341 0-2.68-.02-4.022 0-1.17.021-1.68.491-1.691 1.648-.029 3.369 0 6.739 0 10.106 0 1.007.513 1.522 1.502 1.633 1.518.141 3.045.152 4.565.032 1.433-.098 1.74-.554 1.813-2.03.02-.452-.365-1.196.578-1.222 1.024-.028 2.155.652 2.23 1.304.3 2.594-.908 4.2-3.51 4.503-2.052.239-4.13.12-6.185.054-1.806-.052-3.097-.848-3.802-2.52V14.548ZM95.904 21.62c0-2.107-.015-3.774 0-5.435.033-2.974 1.285-4.24 4.239-4.272 1.776-.02 3.552-.041 5.326 0 2.826.076 4.168 1.609 3.913 4.415-.126 1.348-1.343 1.029-2.102 1.216-.891.217-.622-.652-.652-1.124-.1-1.509-.485-1.898-2.007-1.909-1.341 0-2.68-.015-4.021 0-1.305.018-1.842.48-1.855 1.74a652.261 652.261 0 0 0 0 9.89c0 1.06.49 1.74 1.611 1.775 1.483.04 2.97.108 4.448.028 1.478-.08 1.739-.505 1.835-2.002.028-.466-.315-1.196.576-1.25 1.087-.068 2.137.652 2.174 1.43.145 2.907-.883 4.185-3.798 4.404-2.198.166-4.415.218-6.613-.089-1.752-.25-2.722-1.21-2.954-2.96-.285-2.094-.035-4.2-.12-5.857ZM77.209 21.274c0 1.957.024 3.913-.013 5.87-.013.652.178.891.854.87 1.157-.05 2.317.015 3.478-.025.652-.021.87.2.88.87.016 1.752.046 1.752-1.66 1.752-3.441 0-6.883-.041-10.322.024-1.12.022-1.217-.51-1.22-1.396-.002-.884.168-1.35 1.196-1.256 1.028.093 2.102-.024 3.148.035.741.043.91-.242.907-.935a832.19 832.19 0 0 1 0-11.74c0-.693-.233-.869-.87-.834-1.013.046-2.028-.015-3.044.02-1.19.04-.94-.796-.982-1.494-.041-.698.074-1.15.974-1.14 3.55.043 7.1.043 10.652 0 1.033-.012.965.586.963 1.266-.002.68.098 1.424-.996 1.372-1.047-.05-2.102.02-3.15-.022-.615-.024-.815.172-.804.798.033 1.98.009 3.974.009 5.965Z" fill="#44417F"/>
    <path d="M89.578 17.59c.92.969 1.835 1.945 2.763 2.906a1.198 1.198 0 0 1 .207 1.572c-1.919 3.478-3.834 6.96-5.746 10.447-.11.2-.174.566-.513.407-.339-.159-.117-.435-.065-.672.635-2.854 1.267-5.71 1.913-8.563.121-.416.173-.85.152-1.282 0-1.522.515-2.933.855-4.383a.593.593 0 0 1 .434-.433Z" fill="#FBA226"/>
    <path d="M89.578 17.59c-.454 1.202-.604 2.48-.9 3.721-.109.37-.239.732-.389 1.087-.87-.915-1.74-1.843-2.62-2.74-.52-.52-.545-1.043-.206-1.66 1.896-3.448 3.78-6.902 5.68-10.348.107-.193.17-.585.498-.448.37.155.146.516.09.768-.707 3.21-1.431 6.42-2.153 9.62Z" fill="#E14329"/>
    <path d="M122.096 11.896a402.06 402.06 0 0 1-8.364 0c-.704 0-.954.217-.952.935.019 5.611.019 11.223 0 16.835 0 .719.283.952.968.947 2.787-.02 5.576 0 8.363-.015 1.895-.015 3.458-.628 4.193-2.567V14.552c-.672-2.047-2.215-2.676-4.208-2.656Zm1.413 14.106c-.013 1.407-.342 1.848-1.757 1.927-1.837.102-3.685.037-5.526.067-.485 0-.615-.198-.615-.652.01-4.084.01-8.168 0-12.253 0-.502.217-.595.652-.593 1.88.015 3.759-.015 5.639.015 1.113.02 1.57.48 1.593 1.611.035 1.698 0 3.398 0 5.096.018 1.602.029 3.191.014 4.782Z" fill="#44417F"/>
    <path d="m21.633 39.941 7.989-24.565H13.644l7.989 24.565Z" fill="#E24329"/>
    <path d="m21.633 39.941-7.99-24.565H2.461l19.172 24.565Z" fill="#FC6D26"/>
    <path d="M2.46 15.365.042 22.826a1.674 1.674 0 0 0 .611 1.867l20.98 15.248L2.462 15.376v-.01Z" fill="#FCA326"/>
    <path d="M2.46 15.365h11.183L8.861.563a.83.83 0 0 0-1.574 0L2.461 15.365Z" fill="#E24329"/>
    <path d="m21.632 39.941 7.99-24.565h11.182L21.632 39.941Z" fill="#FC6D26"/>
    <path d="m40.804 15.365 2.42 7.461a1.674 1.674 0 0 1-.611 1.857L21.633 39.93l19.171-24.566Z" fill="#FCA326"/>
    <path d="M40.804 15.365H29.62L34.437.563a.83.83 0 0 1 1.574 0l4.782 14.802h.011Z" fill="#E24329"/>
  </g>
  <defs>
    <clipPath id="a">
      <path fill="#fff" d="M0 0h126.304v40H0z"/>
    </clipPath>
  </defs>
</svg>
