<svg width="158" height="40" fill="none" xmlns="http://www.w3.org/2000/svg">
  <g clip-path="url(#a)">
    <path d="m43.26 7.759 1.199.867c2.082 1.68 3.28 3.577 3.54 5.744 2.24-.433 5.103-.108 6.353.759l1.146.705-.209.433c-.364.813-.468 1.03-.52 1.138-2.031 4.065-6.04 4.119-7.915 4.065-4.739 11.868-14.84 18.426-28.483 18.426-6.3 0-11.091-2.005-14.32-5.961C-.218 28.732-.218 21.957.147 19.79l.104-.434h37.648c1.978 0 3.488-.542 4.217-.975-.78-1.193-1.041-2.547-1.093-3.306-.156-2.168.364-4.444 1.406-6.07l.833-1.246Zm32.62 2.516c.42 0 .776.14 1.068.422.29.282.436.638.436 1.067v13.404c0 2.234-.782 4.125-2.348 5.671-1.585 1.566-3.475 2.349-5.671 2.349-2.215 0-4.105-.783-5.67-2.349-1.567-1.566-2.35-3.456-2.35-5.67 0-2.216.783-4.106 2.35-5.672 1.565-1.565 3.455-2.348 5.67-2.348 1.9 0 3.575.587 5.026 1.761v-7.146c0-.43.141-.785.423-1.067.282-.281.637-.422 1.067-.422Zm11.229 6.874c2.195 0 4.086.783 5.67 2.348.783.783 1.368 1.647 1.755 2.592.386.946.584 1.972.594 3.08 0 2.233-.783 4.123-2.349 5.67-1.584 1.566-3.475 2.349-5.67 2.349-2.215 0-4.106-.783-5.671-2.349-1.566-1.566-2.349-3.456-2.349-5.67 0-2.216.783-4.106 2.349-5.672 1.565-1.565 3.456-2.348 5.67-2.348Zm17.714 0c2.015 0 3.757.649 5.227 1.947.344.306.516.683.516 1.132 0 .43-.141.787-.423 1.074-.281.286-.637.43-1.066.43-.363 0-.688-.115-.974-.344a5.495 5.495 0 0 0-1.533-.931 4.735 4.735 0 0 0-1.747-.315c-.697 0-1.35.131-1.961.393a5.13 5.13 0 0 0-1.604 1.075 4.995 4.995 0 0 0-1.082 1.596 4.924 4.924 0 0 0-.393 1.962c0 .697.13 1.351.393 1.962a4.995 4.995 0 0 0 1.082 1.597c.458.453.992.811 1.604 1.074a4.91 4.91 0 0 0 1.961.394c.63 0 1.213-.103 1.747-.308a5.159 5.159 0 0 0 1.518-.924c.268-.2.583-.305.946-.315.429 0 .785.14 1.066.422.282.282.423.638.423 1.067 0 .42-.158.788-.473 1.103-1.479 1.298-3.222 1.948-5.227 1.948-2.215 0-4.105-.783-5.67-2.349-1.566-1.566-2.349-3.456-2.349-5.67 0-2.216.783-4.106 2.349-5.672 1.565-1.565 3.455-2.348 5.67-2.348Zm8.937-6.874c.41 0 .761.146 1.052.437.292.29.437.647.437 1.067v11.17l8.564-5.571c.238-.153.506-.23.802-.23.21 0 .405.039.587.115.181.077.339.184.472.323.134.138.242.298.323.48.081.18.121.372.121.572 0 .535-.191.93-.572 1.189l-6.001 3.895 6.158 6.93c.277.306.415.655.415 1.046 0 .2-.04.392-.121.573a1.653 1.653 0 0 1-.323.48 1.404 1.404 0 0 1-.472.322 1.5 1.5 0 0 1-.587.115 1.39 1.39 0 0 1-1.003-.387l-6.616-7.432-1.747 1.145v5.17c0 .41-.145.764-.437 1.06a1.423 1.423 0 0 1-1.052.444 1.44 1.44 0 0 1-1.067-.444 1.46 1.46 0 0 1-.437-1.06V11.779c0-.42.146-.776.437-1.067a1.451 1.451 0 0 1 1.067-.437Zm21.997 6.874c2.195 0 4.086.783 5.67 2.348a7.796 7.796 0 0 1 1.762 2.585c.391.95.587 1.979.587 3.086 0 .43-.146.785-.437 1.067a1.477 1.477 0 0 1-1.067.422h-11.341c.162.526.401 1.005.716 1.44a5.042 5.042 0 0 0 2.513 1.84 4.976 4.976 0 0 0 1.597.258c.63 0 1.207-.096 1.732-.287a4.75 4.75 0 0 0 1.461-.859c.286-.239.616-.363.988-.372.43 0 .785.14 1.067.422.282.282.422.637.422 1.067 0 .42-.143.778-.429 1.074-1.48 1.298-3.227 1.948-5.241 1.948-2.215 0-4.106-.783-5.671-2.349-1.566-1.566-2.349-3.456-2.349-5.67 0-2.216.783-4.106 2.349-5.672 1.565-1.565 3.456-2.348 5.671-2.348Zm17.686 0c.42 0 .871.028 1.353.086.482.057.926.16 1.332.308s.742.35 1.009.608c.268.258.401.592.401 1.003 0 .21-.04.405-.121.587a1.67 1.67 0 0 1-.322.48 1.42 1.42 0 0 1-.473.322 1.495 1.495 0 0 1-.587.114c-.182 0-.392-.052-.63-.157a5.275 5.275 0 0 0-1.962-.358c-.697 0-1.351.131-1.962.393a5.064 5.064 0 0 0-1.597 1.075 5.072 5.072 0 0 0-1.074 1.596 4.926 4.926 0 0 0-.394 1.962v6.53c0 .41-.145.762-.436 1.053a1.436 1.436 0 0 1-1.053.437c-.42 0-.776-.146-1.067-.437a1.435 1.435 0 0 1-.437-1.053v-13.06c0-.41.146-.761.437-1.052a1.451 1.451 0 0 1 1.067-.437c.411 0 .761.145 1.053.437.291.29.436.642.436 1.052v.286a8.198 8.198 0 0 1 2.335-1.317 7.814 7.814 0 0 1 2.692-.458Zm-84.078 2.993c-.706 0-1.365.133-1.976.4a5.068 5.068 0 0 0-1.59 1.082 5.12 5.12 0 0 0-1.067 1.597 4.882 4.882 0 0 0-.394 1.947c0 .688.132 1.337.394 1.948a5.12 5.12 0 0 0 1.067 1.596c.449.454.979.814 1.59 1.082.61.267 1.27.4 1.976.4.697 0 1.35-.133 1.962-.4a5.095 5.095 0 0 0 2.67-2.685 4.83 4.83 0 0 0 .394-1.94 4.83 4.83 0 0 0-.393-1.941 5.095 5.095 0 0 0-2.67-2.685 4.841 4.841 0 0 0-1.963-.401Zm17.744 0c-.707 0-1.366.133-1.977.4a5.069 5.069 0 0 0-1.59 1.082 5.117 5.117 0 0 0-1.066 1.597 4.88 4.88 0 0 0-.394 1.947c0 .688.131 1.337.394 1.948a5.117 5.117 0 0 0 1.067 1.596c.448.454.978.814 1.59 1.082.61.267 1.269.4 1.976.4.696 0 1.35-.133 1.961-.4a5.095 5.095 0 0 0 2.671-2.685 4.829 4.829 0 0 0 .394-1.94c0-.688-.131-1.335-.394-1.941a5.095 5.095 0 0 0-2.67-2.685 4.841 4.841 0 0 0-1.962-.401Zm48.648 0c-.545 0-1.074.086-1.59.258a5.232 5.232 0 0 0-1.418.723c-.429.31-.802.682-1.117 1.117a4.621 4.621 0 0 0-.701 1.439h9.652a4.813 4.813 0 0 0-.724-1.44 5.143 5.143 0 0 0-2.52-1.84 4.93 4.93 0 0 0-1.582-.257ZM10.04 12.852v5.42H4.312v-5.42h5.728Zm6.769 0v5.42H11.08v-5.42h5.728Zm6.77 0v5.42H17.85v-5.42h5.728Zm6.768 0v5.42H24.62v-5.42h5.728Zm6.77 0v5.42h-5.728v-5.42h5.728Zm-6.77-6.503v5.42H24.62v-5.42h5.728Zm-6.769 0v5.42H17.85v-5.42h5.728Zm-6.77 0v5.42h-5.727v-5.42h5.728Zm13.54-6.503v5.42h-5.729v-5.42h5.728Z" fill="#2396ED"/>
  </g>
  <defs>
    <clipPath id="a">
      <path fill="#fff" d="M0 0h157.538v40H0z"/>
    </clipPath>
  </defs>
</svg>
