<svg width="162" height="40" fill="none" xmlns="http://www.w3.org/2000/svg">
  <g clip-path="url(#a)">
    <path d="M40 0H0v40h40V0Z" fill="#3B48CC"/>
    <path d="M13.536 15.75c-4.133 0-8.533-1.254-8.533-3.574s4.39-3.573 8.533-3.573c4.144 0 8.534 1.253 8.534 3.573 0 2.32-4.406 3.573-8.534 3.573Zm0-6.08c-4.266 0-7.466 1.322-7.466 2.506 0 1.184 3.2 2.507 7.466 2.507 4.267 0 7.467-1.323 7.467-2.507 0-1.184-3.205-2.507-7.467-2.507Z" fill="#fff"/>
    <path d="M22.086 12.336h-1.067v9.067h1.067v-9.067ZM13.53 33.067c-4.127 0-8.532-1.238-8.532-3.536V12.336h1.066v17.205c0 1.174 3.2 2.48 7.467 2.48 4.267 0 7.467-1.306 7.467-2.48v-1.738h1.066v1.738c.022 2.299-4.4 3.526-8.533 3.526Z" fill="#fff"/>
    <path d="M13.536 21.776c-4.128 0-8.533-1.253-8.533-3.573H6.07c0 1.184 3.2 2.506 7.466 2.506 4.267 0 7.467-1.322 7.467-2.506h1.067c-.011 2.32-4.4 3.573-8.534 3.573ZM13.573 27.643c-4.128 0-8.533-1.254-8.533-3.574h1.067c0 1.184 3.2 2.507 7.466 2.507a16.607 16.607 0 0 0 5.152-.747l.342 1.008a17.632 17.632 0 0 1-5.494.806Z" fill="#fff"/>
    <path d="M26.053 33.53a.533.533 0 0 1-.533-.533c0-3.664-4.186-7.861-7.866-7.861a.533.533 0 1 1 0-1.067c3.674 0 7.866-4.192 7.866-7.866a.533.533 0 0 1 1.067 0c0 3.674 4.186 7.866 7.866 7.866a.533.533 0 0 1 0 1.067c-3.68 0-7.866 4.187-7.866 7.861a.533.533 0 0 1-.534.534Zm-5.786-8.927a10.944 10.944 0 0 1 5.787 5.797 10.922 10.922 0 0 1 5.802-5.797 10.933 10.933 0 0 1-5.803-5.803 10.955 10.955 0 0 1-5.786 5.803ZM29.552 11.803h-1.067v3.2h1.067v-3.2Z" fill="#fff"/>
    <path d="M30.619 12.87h-3.2v1.066h3.2v-1.067ZM23.685 6.47H22.62v3.2h1.066v-3.2Z" fill="#fff"/>
    <path d="M24.752 7.536h-3.2v1.067h3.2V7.536Z" fill="#fff"/>
  </g>
  <path d="m62.56 25-4.24-10.672h-2L52.08 25h1.76l.864-2.208h5.232L60.8 25h1.76Zm-3.088-3.632h-4.304l2.144-5.648 2.16 5.648ZM74.64 25v-5.584c0-1.552-.768-2.336-2.192-2.336-1.136 0-2.16.72-2.608 1.44-.24-.832-.928-1.44-2.096-1.44-1.152 0-2.176.8-2.496 1.28v-1.088h-1.44V25h1.44v-5.52c.384-.56 1.136-1.12 1.888-1.12.976 0 1.36.592 1.36 1.488V25h1.44v-5.536c.368-.56 1.136-1.104 1.92-1.104.944 0 1.344.592 1.344 1.488V25h1.44Zm8.501 0v-5.216c0-1.968-1.424-2.704-3.104-2.704-1.248 0-2.304.416-3.168 1.264l.624.992c.688-.688 1.44-1.024 2.32-1.024 1.104 0 1.888.576 1.888 1.536v1.28c-.592-.688-1.488-1.024-2.528-1.024-1.296 0-2.688.768-2.688 2.528 0 1.696 1.408 2.56 2.688 2.56 1.04 0 1.92-.368 2.528-1.04V25h1.44Zm-1.44-1.696c-.432.576-1.184.88-1.984.88-1.04 0-1.776-.624-1.776-1.536s.736-1.536 1.776-1.536c.8 0 1.552.304 1.984.88v1.312ZM91.081 25v-1.248h-4.128l4.064-5.408v-1.072H85.08v1.264h4.032l-4.032 5.36V25h6Zm5.37.192c2.416 0 3.904-1.824 3.904-4.064 0-2.224-1.488-4.048-3.904-4.048-2.4 0-3.904 1.824-3.904 4.048 0 2.24 1.504 4.064 3.904 4.064Zm0-1.28c-1.536 0-2.4-1.312-2.4-2.784 0-1.456.864-2.768 2.4-2.768 1.552 0 2.4 1.312 2.4 2.768 0 1.472-.848 2.784-2.4 2.784ZM108.839 25v-5.424c0-1.632-.848-2.496-2.48-2.496-1.2 0-2.224.656-2.736 1.28v-1.088h-1.44V25h1.44v-5.52c.416-.576 1.232-1.12 2.128-1.12.992 0 1.648.416 1.648 1.696V25h1.44Zm15.815 0-4.24-10.672h-2L114.174 25h1.76l.864-2.208h5.232l.864 2.208h1.76Zm-3.088-3.632h-4.304l2.144-5.648 2.16 5.648ZM132.371 25v-7.728h-1.44v5.552c-.432.576-1.248 1.088-2.145 1.088-.991 0-1.631-.384-1.631-1.664v-4.976h-1.44v5.456c0 1.632.816 2.464 2.464 2.464 1.184 0 2.16-.608 2.752-1.248V25h1.44Zm3.721 0v-5.376c.336-.576 1.312-1.12 2.032-1.12.192 0 .352.016.496.048v-1.456c-1.024 0-1.936.592-2.528 1.36v-1.184h-1.44V25h1.44Zm7.39.192c2.416 0 3.904-1.824 3.904-4.064 0-2.224-1.488-4.048-3.904-4.048-2.4 0-3.904 1.824-3.904 4.048 0 2.24 1.504 4.064 3.904 4.064Zm0-1.28c-1.536 0-2.4-1.312-2.4-2.784 0-1.456.864-2.768 2.4-2.768 1.552 0 2.4 1.312 2.4 2.768 0 1.472-.848 2.784-2.4 2.784ZM150.655 25v-5.376c.336-.576 1.312-1.12 2.032-1.12.192 0 .352.016.496.048v-1.456c-1.024 0-1.936.592-2.528 1.36v-1.184h-1.44V25h1.44Zm10.174 0v-5.216c0-1.968-1.424-2.704-3.104-2.704-1.248 0-2.304.416-3.168 1.264l.624.992c.688-.688 1.44-1.024 2.32-1.024 1.104 0 1.888.576 1.888 1.536v1.28c-.592-.688-1.488-1.024-2.528-1.024-1.296 0-2.688.768-2.688 2.528 0 1.696 1.408 2.56 2.688 2.56 1.04 0 1.92-.368 2.528-1.04V25h1.44Zm-1.44-1.696c-.432.576-1.184.88-1.984.88-1.04 0-1.776-.624-1.776-1.536s.736-1.536 1.776-1.536c.8 0 1.552.304 1.984.88v1.312Z" fill="#000"/>
  <defs>
    <clipPath id="a">
      <path fill="#fff" d="M0 0h40v40H0z"/>
    </clipPath>
  </defs>
</svg>
