<svg width="114" height="40" fill="none" xmlns="http://www.w3.org/2000/svg">
  <g clip-path="url(#a)">
    <path d="M30.542 39.959h-4.446v-20.01h4.446v1.28c.557-.785 1.991-1.537 3.56-1.537 4.253 0 6.621 3.532 6.621 7.654 0 4.12-2.343 7.62-6.594 7.62-1.571 0-3.03-.752-3.587-1.538v6.53Zm0-10.226c.557 1.014 1.467 1.701 2.645 1.701 2.191 0 3.448-1.766 3.448-4.088 0-2.355-1.23-4.122-3.422-4.122-1.21 0-2.114.72-2.67 1.701v4.808ZM55.554 34.4h-4.446v-1.102c-.556.916-2.14 1.668-3.842 1.668-3.271 0-5.052-2.158-5.052-5.396v-9.622h3.891v8.803c0 1.538.768 2.584 2.371 2.584 1.242 0 2.632-.752 2.632-2.027v-9.36h4.446v14.453ZM62.225 39.959h-3.892v-20.01h3.892v1.28c.556-.785 2.045-1.537 3.614-1.537 4.252 0 6.648 3.532 6.648 7.654 0 4.12-2.384 7.62-6.636 7.62-1.57 0-3.07-.752-3.626-1.538v6.53Zm0-10.226c.556 1.014 1.521 1.701 2.698 1.701 2.192 0 3.476-1.766 3.476-4.088 0-2.355-1.271-4.122-3.463-4.122-1.21 0-2.155.72-2.711 1.701v4.808ZM78.344 39.959h-3.891v-20.01h3.89v1.28c.557-.785 2.065-1.537 3.634-1.537 4.252 0 6.658 3.532 6.658 7.654 0 4.12-2.398 7.62-6.65 7.62-1.57 0-3.085-.752-3.641-1.538v6.53Zm0-10.226c.556 1.014 1.54 1.701 2.717 1.701 2.192 0 3.486-1.766 3.486-4.088 0-2.355-1.286-4.122-3.477-4.122-1.21 0-2.17.72-2.726 1.701v4.808ZM103.175 29.954c-.523 2.78-2.813 5.058-6.476 5.058-4.251 0-7.096-3.13-7.096-7.643 0-4.416 2.984-7.666 7.073-7.666 4.285 0 6.681 2.966 6.681 7.25v1.333h-9.83c.131 2.223 1.375 3.5 3.172 3.5 1.375 0 2.388-.72 2.716-1.832h3.76Zm-9.55-4.446h5.658c-.032-1.112-.948-2.748-2.616-2.748-1.57 0-2.683 1.08-3.042 2.748ZM106.136 23.284h-2.223v-3.335h2.223v-3.891h3.892v3.89h3.334v3.336h-3.334V29.7c0 1.145.571 1.668 1.617 1.668.622 0 1.161-.196 1.717-.49v3.597c-.556.294-1.421.458-2.501.458-2.975 0-4.725-1.471-4.725-4.71v-6.94Z" fill="#1A1918"/>
    <path d="M19.98 11.056h-8.892v8.893h8.893v-8.893ZM6.085 27.73h-2.78v-2.78h2.78v2.78Zm3.335-6.113H-.03v9.449h9.45v-9.45Z" fill="#FFA61A"/>
    <path d="M11.28 13.313 5.667 7.7 7.834 5.53l5.615 5.614-2.168 2.168ZM9.33 23.776l-2.168-2.168 4.443-4.443 2.168 2.168-4.443 4.444Z" fill="#FFA61A"/>
    <path d="M6.085 6.053h-2.78v-2.78h2.78v2.78ZM9.42-.061H-.03v9.449h9.45v-9.45Z" fill="#FFA61A"/>
  </g>
  <defs>
    <clipPath id="a">
      <path fill="#fff" d="M0 0h113.333v40H0z"/>
    </clipPath>
  </defs>
</svg>
