<svg width="73" height="72" fill="none" xmlns="http://www.w3.org/2000/svg">
  <path d="M46.193 22.96h2.197l6.257-6.258.31-2.658A28.135 28.135 0 0 0 9.181 27.77a3.39 3.39 0 0 1 2.197-.132l12.52-2.065s.632-1.054.966-.991a15.613 15.613 0 0 1 21.372-1.623h-.044Z" fill="#EA4335"/>
  <path d="M63.562 27.77a28.179 28.179 0 0 0-8.499-13.7l-8.782 8.782a15.62 15.62 0 0 1 5.733 12.387v1.56a7.822 7.822 0 0 1 0 15.639h-15.64l-1.559 1.584v9.376l1.56 1.56h15.639A20.343 20.343 0 0 0 63.56 27.77Z" fill="#4285F4"/>
  <path d="M20.71 64.863h15.64v-12.52H20.71a7.785 7.785 0 0 1-3.2-.707l-2.197.682-6.314 6.256-.55 2.198a20.204 20.204 0 0 0 12.262 4.09Z" fill="#34A853"/>
  <path d="M20.71 24.253A20.336 20.336 0 0 0 8.438 60.71l9.073-9.067A7.816 7.816 0 1 1 27.852 41.3l9.066-9.047a20.292 20.292 0 0 0-16.207-8Z" fill="#FBBC05"/>
</svg>
