<svg width="107" height="40" fill="none" xmlns="http://www.w3.org/2000/svg">
  <g clip-path="url(#a)">
    <path d="M19.927 28.91c-4.945 0-8.982-4.037-8.982-8.983 0-4.945 4.037-8.982 8.982-8.982 4.073 0 7.527 2.728 8.618 6.473h3.491c-1.163-5.636-6.145-9.854-12.109-9.854-6.8 0-12.364 5.527-12.364 12.363 0 6.8 5.528 12.364 12.364 12.364 5.964 0 10.946-4.255 12.11-9.855h-3.492c-1.09 3.71-4.545 6.473-8.618 6.473Z" fill="#435363"/>
    <path d="M13.891 25.964a8.462 8.462 0 0 0 6.036 2.509v-3.564c-1.309 0-2.581-.509-3.527-1.454l-2.509 2.509Z" fill="#435363"/>
    <path d="M11.382 19.927a8.4 8.4 0 0 0 .727 3.455l3.273-1.455a4.717 4.717 0 0 1-.437-2 4.966 4.966 0 0 1 4.982-4.982v-3.563a8.536 8.536 0 0 0-8.545 8.545Z" fill="#F38B00"/>
    <path d="m23.018 11.964-1.272 3.309c1.054.4 1.927 1.163 2.509 2.145h3.89a8.678 8.678 0 0 0-5.127-5.454Z" fill="#435363"/>
    <path d="m21.746 24.582 1.309 3.345a8.591 8.591 0 0 0 5.09-5.49h-3.89a5.363 5.363 0 0 1-2.51 2.145Z" fill="#F38B00"/>
    <path d="M4.11 24.727a2.723 2.723 0 0 1-.146-.582v-.036a3.028 3.028 0 0 0-.146-.545c-.036-.182-.073-.364-.109-.582 0-.073-.036-.146-.036-.218-.037-.11-.037-.255-.073-.364 0-.11-.036-.218-.036-.327a14.664 14.664 0 0 1-.146-2.182H0c0 .8.036 1.6.145 2.4v.036c.037.218.073.437.073.655 0 .073.037.109.037.182.036.181.072.363.109.509 0 .109.036.182.072.29.037.146.073.291.073.4.036.11.073.255.073.364.036.11.036.218.073.328l.109.436c0 .073.036.109.036.182.218.763.51 1.527.836 2.254l3.091-1.345c-.218-.618-.436-1.237-.618-1.855Z" fill="#435363"/>
    <path d="M19.927 36.473c-4.545 0-8.69-1.855-11.71-4.837l-2.4 2.4c3.6 3.6 8.583 5.855 14.074 5.855 10.145 0 18.545-7.6 19.782-17.455h-3.419c-1.163 7.928-8.036 14.037-16.327 14.037Zm0-33.091c3.71 0 7.127 1.236 9.89 3.309l2.037-2.727A19.75 19.75 0 0 0 19.927 0C11.491 0 4.254 5.273 1.345 12.69l3.164 1.237c2.4-6.182 8.4-10.545 15.418-10.545Z" fill="#F38B00"/>
    <path d="M36.291 17.455h3.418a20.12 20.12 0 0 0-2.872-8.073l-2.873 1.782c1.2 1.927 2 4.036 2.327 6.29Z" fill="#435363"/>
    <path d="M32.437 17.454h3.418c-.91-5.745-4.837-10.472-10.11-12.545L24.51 8.036c4.037 1.564 7.091 5.091 7.928 9.418Z" fill="#F38B00"/>
    <path d="M19.927 7.164V3.782A16.085 16.085 0 0 0 4.91 14.072l3.127 1.237c1.855-4.763 6.473-8.145 11.891-8.145Z" fill="#435363"/>
    <path d="M7.164 19.927H3.782C3.782 26.691 8 32.51 13.927 34.91l1.237-3.127c-4.655-1.891-8-6.51-8-11.855Z" fill="#F38B00"/>
    <path d="M19.927 32.69v3.383c8.037 0 14.727-5.928 15.928-13.637h-3.419c-1.163 5.819-6.327 10.255-12.509 10.255ZM48.364 20.145v-.036c0-3.854 2.909-7.018 7.054-7.018 2.546 0 4.073.836 5.346 2.109l-1.891 2.182c-1.055-.946-2.11-1.527-3.455-1.527-2.29 0-3.927 1.89-3.927 4.218v.036c0 2.327 1.6 4.255 3.927 4.255 1.564 0 2.51-.619 3.564-1.6l1.89 1.927c-1.381 1.49-2.945 2.436-5.563 2.436-3.963 0-6.945-3.09-6.945-6.982Zm16.436-6.8h2.982v5.382h5.49v-5.382h2.983V26.91h-2.982v-5.454h-5.491v5.454H64.8V13.346Zm16.255 0h10.4v2.691h-7.382v2.8h6.509v2.691h-6.51v2.91h7.492v2.69h-10.51V13.346Zm14.836 0h10.327v2.728h-7.345v2.872h6.473v2.728h-6.473v5.236H95.89V13.346Z" fill="#435363"/>
  </g>
  <defs>
    <clipPath id="a">
      <path fill="#fff" d="M0 0h106.182v40H0z"/>
    </clipPath>
  </defs>
</svg>
