<svg width="131" height="40" fill="none" xmlns="http://www.w3.org/2000/svg">
  <g clip-path="url(#a)">
    <path d="M28.5 19.275c0 7.925-6.281 14.35-14.03 14.35C6.723 33.624.442 27.2.442 19.274s6.28-14.35 14.028-14.35c7.749 0 14.03 6.425 14.03 14.35" fill="#D33833"/>
    <path d="M1.013 22.829S-.002 7.865 13.786 7.437l-.961-1.603-7.482 2.512-2.138 2.458-1.87 3.58-1.07 4.17.32 2.778" fill="#EF3D3A"/>
    <path d="M4.862 9.486a14.035 14.035 0 0 0-3.985 9.843c0 3.845 1.524 7.323 3.985 9.841 2.463 2.518 5.856 4.072 9.608 4.072 3.752 0 7.146-1.554 9.609-4.072a14.035 14.035 0 0 0 3.985-9.841c0-3.847-1.524-7.325-3.985-9.843-2.463-2.518-5.856-4.071-9.609-4.072-3.752 0-7.145 1.554-9.608 4.072Zm-.623 20.293A14.906 14.906 0 0 1 .006 19.33c0-4.08 1.617-7.776 4.233-10.452 2.615-2.676 6.235-4.334 10.231-4.334 3.996 0 7.617 1.658 10.231 4.334a14.905 14.905 0 0 1 4.234 10.452c0 4.078-1.617 7.775-4.233 10.45-2.615 2.676-6.236 4.335-10.232 4.335-3.996 0-7.616-1.659-10.23-4.335Z" fill="#231F20"/>
    <path d="m20.376 19.354-2.138.321-2.886.32-1.87.054-1.818-.053-1.39-.428-1.228-1.336-.962-2.725-.214-.588-1.283-.428-.748-1.23-.534-1.763.588-1.55 1.39-.48 1.121.534.535 1.176.641-.107.214-.268-.214-1.229-.053-1.55.32-2.137-.012-1.221.974-1.558 1.71-1.23L15.513.597l3.314.48 2.886 2.085L23.048 5.3l.855 1.55.214 3.848-.642 3.313-1.175 2.94-1.123 1.55" fill="#F0D6B7"/>
    <path d="m18.559 28.6-7.643.32v1.283l.642 4.49-.32.374-5.345-1.817-.374-.642-.535-6.039-1.229-3.634-.267-.855 4.275-2.94 1.336-.534 1.176 1.443 1.016.909 1.175.374.535.16.641 2.78.481.587 1.23-.427-.856 1.656 4.65 2.192-.588.32" fill="#335061"/>
    <path d="m5.892 9.948 1.39-.48 1.122.534.535 1.176.641-.107.16-.642L9.42 9.2l.32-2.94-.267-1.603.962-1.122 2.084-1.657-.587-.801-2.94 1.443-1.229.962-.695 1.496L6 6.421l-.32 1.71.213 1.817Z" fill="#6D6B6D"/>
    <path d="M8.084 4.925s.801-1.978 4.008-2.94.16-.695.16-.695L8.778 2.627 7.442 3.963l-.588 1.069 1.23-.107ZM6.48 9.575S5.358 5.832 9.633 5.298l-.16-.642-2.94.695-.854 2.78.213 1.816.588-.374Z" fill="#DCD9D8"/>
    <path d="m8.19 14.544.7-.678s.316.037.37.411c.053.375.213 3.741 2.511 5.559.21.165-1.71-.268-1.71-.268l-1.71-2.672m9.673-3.367s.125-1.62.561-1.495c.437.124.437.56.437.56s-1.06.686-.998.935Zm4.436-5.932s-.881.186-.962.962c-.081.776.962.16 1.122.107M15.993 7.65s-1.175.16-1.175.909c0 .748 1.336.695 1.71.374m-7.803 2.191s-2.031-1.23-2.245-.053c-.214 1.175-.695 2.03.32 3.26l-.694-.214-.641-1.657-.214-1.603 1.23-1.283 1.389.107.801.641.054.802m.962-3.367s.908-4.703 5.505-5.611c3.784-.748 5.771.16 6.52 1.015 0 0-3.367-4.008-6.574-2.779C11.931 1.612 9.58 3.856 9.633 5.3c.091 2.457.054 2.458.054 2.458Zm12.399-4.062s-1.55-.053-1.603 1.337c0 0 0 .213.107.427 0 0 1.229-1.39 1.977-.641" fill="#F7E4CD"/>
    <path d="M15.3 5.604s-.268-2.133-2.086-.893c-1.176.802-1.069 1.924-.855 2.138.214.214.156.644.318.349.163-.296.11-1.258.697-1.525.588-.267 1.552-.566 1.925-.07Z" fill="#F7E4CD"/>
    <path d="m10.275 20.05-5.024 2.244s2.085 8.284 1.016 10.849l-.748-.267-.054-3.153-1.39-5.986-.587-1.657 5.237-3.527 1.55 1.496Zm.517 4.581.712.87v3.206h-.855s-.107-2.245-.107-2.512c0-.267.107-1.229.107-1.229m.16 4.222-2.404.107.694.48 1.71.268" fill="#49728B"/>
    <path d="m19.04 28.654 1.977-.054.481 4.917-2.03.267-.428-5.13Z" fill="#335061"/>
    <path d="m19.574 28.654 2.993-.16s1.23-3.1 1.23-3.26c0-.161 1.068-4.49 1.068-4.49l-2.405-2.512-.48-.427-1.284 1.282v4.97l-1.122 4.597Z" fill="#335061"/>
    <path d="m20.91 28.28-1.87.374.267 1.496c.695.32 1.87-.534 1.87-.534m-.213-10.689 3.74 2.78.108-1.284-2.833-2.618-1.015 1.122Z" fill="#49728B"/>
    <path d="m12.664 39.183-1.106-4.49-.55-3.313-.091-2.46 5.007-.266h3.116l-.283 5.612.48 4.328-.053.802-4.061.32-2.459-.533Z" fill="#fff"/>
    <path d="M18.345 28.6s-.267 5.558.534 9.513c0 0-1.603 1.016-3.955 1.283l4.49-.16.534-.321-.641-8.765-.16-1.87" fill="#DCD9D8"/>
    <path d="m21.59 33.09 2.083-.588 3.955-.214.588-1.817-1.069-3.153-1.229-.16-1.71.534-1.641.801-.871-.16-.679.267" fill="#fff"/>
    <path d="M21.552 32.02s1.39-.64 1.603-.587l-.588-2.94.695-.267s.48 2.78.48 3.1c0 0 2.994.16 3.261.16 0 0 .641-1.229.481-2.512l.588 1.71.053.963-.855 1.282-.962.214-1.603-.053-.535-.695-1.87.267-.588.214" fill="#DCD9D8"/>
    <path d="m19.451 28.227-1.175-2.993-1.23-1.764s.268-.748.642-.748h1.229l1.176.428-.107 1.977-.535 3.1Z" fill="#fff"/>
    <path d="M19.681 27.21s-1.496-2.885-1.496-3.313c0 0 .267-.641.641-.48.374.16 1.176.587 1.176.587V22.99l-1.817-.375-1.23.16 2.085 4.918.428.053" fill="#DCD9D8"/>
    <path d="m13.145 20.157-1.48-.161-1.39-.428v.481l.679.749 2.138.962" fill="#fff"/>
    <path d="M10.756 20.317s1.657.695 2.191.534l.053.641-1.496-.32-.908-.641.16-.214Z" fill="#DCD9D8"/>
    <path d="M21.584 22.904c-.907-.027-1.726-.134-2.444-.337.049-.294-.043-.582.03-.794.2-.144.536-.142.838-.176a1.457 1.457 0 0 0-.93-.105c-.007-.204-.099-.33-.154-.49.51-.182 1.713-1.375 2.39-.98.323.188.46 1.26.485 1.783.021.433-.039.87-.215 1.099" fill="#D33833"/>
    <path d="M21.584 22.904c-.907-.027-1.726-.134-2.444-.337.049-.294-.043-.582.03-.794.2-.144.536-.142.838-.176a1.457 1.457 0 0 0-.93-.105c-.007-.204-.099-.33-.154-.49.51-.182 1.713-1.375 2.39-.98.323.188.46 1.26.485 1.783.021.433-.039.87-.215 1.099Z" stroke="#D33833" stroke-width="6.141"/>
    <path d="m17.247 21.421-.008.207c-.283.186-.74.184-1.051.34.458.02.819.13 1.13.286l-.02.519c-.519.355-.993.884-1.604 1.217-.289.158-1.303.564-1.61.492-.174-.04-.19-.256-.26-.46-.147-.435-.489-1.129-.518-1.785-.038-.828-.122-2.216.77-2.045.72.137 1.558.469 2.116.773.34.186.538.417 1.055.456Z" fill="#D33833"/>
    <path d="m17.247 21.421-.008.207c-.283.186-.74.184-1.051.34.458.02.819.13 1.13.286l-.02.519c-.519.355-.993.884-1.604 1.217-.289.158-1.303.564-1.61.492-.174-.04-.19-.256-.26-.46-.147-.435-.489-1.129-.518-1.785-.038-.828-.122-2.216.77-2.045.72.137 1.558.469 2.116.773.34.186.538.417 1.055.456Z" stroke="#D33833" stroke-width="6.141"/>
    <path d="M17.763 22.41c-.08-.451-.171-.58-.136-.974 1.204-.802 1.43 1.378.135.974" fill="#D33833"/>
    <path d="M17.763 22.41c-.08-.451-.171-.58-.136-.974 1.204-.802 1.43 1.378.135.974Z" stroke="#D33833" stroke-width="6.141"/>
    <path d="M19.505 22.775s-.374-.534-.107-.694c.267-.16.535 0 .695-.268.16-.267 0-.427.053-.748.054-.32.321-.374.588-.427.267-.054 1.016-.16 1.123.107l-.321-.962-.641-.214-2.031 1.176-.107.587v1.176m-4.864 2.031c-.064-.834-.132-1.667-.208-2.5-.113-1.244.3-1.027 1.378-1.027.165 0 1.014.196 1.075.32.291.596-.488.463.336.912.695.38 1.922-.23 1.642-1.072-.158-.187-.82-.058-1.056-.181l-1.253-.65c-.531-.275-1.759-.677-2.325-.292-1.435.977.09 3.415.602 4.433" fill="#EF3D3A"/>
    <path d="M15.3 5.604c-1.457-.34-2.181.61-2.623 1.594-.394-.096-.237-.632-.137-.905.26-.717 1.311-1.672 2.17-1.542.37.055.869.393.59.853Zm7.097 1.659.069.002c.329.684.614 1.409 1.029 2.012-.278.648-2.106 1.221-2.078.058.395-.173 1.077-.035 1.428-.256-.203-.556-.495-1.03-.448-1.816Zm-6.352.017c.313.573.414 1.175.858 1.607.2.195.589.433.396.974-.045.128-.374.413-.564.469-.694.205-2.312.042-1.764-.823.574.027 1.346.373 1.775-.044-.33-.527-.917-1.569-.7-2.183Zm6.091 5.82c-1.045.671-2.21 1.4-3.923 1.232-.366-.319-.505-1.027-.15-1.494.186.318.07.903.585.991.971.166 2.102-.594 2.801-.86.434-.73-.037-1-.428-1.47-.799-.963-1.87-2.157-1.832-3.6.323-.234.351.358.397.466.418.976 1.468 2.226 2.235 3.061.188.206.498.404.532.54.1.396-.258.87-.217 1.134M8.36 12.393c-.327-.187-.405-1.01-.79-1.034-.55-.034-.45 1.068-.447 1.712-.378-.343-.445-1.4-.167-1.943-.317-.156-.458.171-.634.286.226-1.64 2.4-.76 2.038.979m14.443 1.39c-.487.926-1.175 1.945-2.602 1.975-.03-.3-.052-.754.001-.934 1.091-.105 1.765-.66 2.6-1.041Zm-6.84.6c.911.479 2.584.53 3.822.494.066.27.065.606.067.936-1.59.08-3.471-.314-3.888-1.43Zm-.172.893c.63 1.58 2.793 1.398 4.618 1.355-.08.205-.255.447-.47.535-.586.238-2.198.418-3.01-.013-.515-.273-.846-.892-1.128-1.254-.136-.175-.815-.623-.01-.624" fill="#231F20"/>
    <path d="M22.06 23.994c-.739 1.266-1.445 2.566-2.322 3.682.367-1.08.524-2.89.58-4.268.769-.36 1.427.081 1.742.586Z" fill="#81B0C4"/>
    <path d="M26.036 28.543c-.828.165-1.409.97-2.216.917.444-.625 1.22-.888 2.216-.918Zm.364 1.294c-.674.071-1.466.18-2.15.124.324-.494 1.572-.324 2.15-.124Zm.234 1.116c-.758.017-1.7.001-2.42-.059.426-.457 1.929-.17 2.42.06Z" fill="#231F20"/>
    <path d="M20.635 34.007c.108.952.485 1.916.438 2.958-.419.141-.66.265-1.22.264-.04-.885-.159-2.24-.123-3.084.276.019.683-.197.905-.138Z" fill="#DCD9D8"/>
    <path d="M19.413 19.983c-.38.248-.705.558-1.07.823-.81.04-1.253-.056-1.848-.52.01-.038.07-.021.072-.067.867.386 1.97-.158 2.846-.236" fill="#F0D6B7"/>
    <path d="M14.86 25.895c.238-1.032 1.172-1.567 2.02-2.136.875 1.11 1.407 2.54 1.993 3.918-1.385-.418-2.8-1.095-4.014-1.782Z" fill="#81B0C4"/>
    <path d="M19.73 34.145c-.036.845.083 2.199.122 3.084.562.001.802-.122 1.221-.264.048-1.042-.33-2.006-.438-2.958-.222-.059-.63.157-.905.138Zm-8.74-4.801c.37 3.402.906 6.263 1.889 9.276 2.182.662 4.813.72 6.742.122-.354-1.7-.2-3.77-.406-5.586-.156-1.364-.077-2.736-.29-4.128-2.338-.486-5.642-.113-7.936.316Zm8.487-.294c-.02 1.46.065 2.902.177 4.366.561-.085.942-.14 1.463-.255-.17-1.409-.148-2.994-.493-4.24-.399.004-.75-.005-1.147.129Zm2.847-.236c-.267-.061-.577-.003-.831.003.12 1.19.41 2.506.512 3.756.4.012.614-.176.943-.24.018-1.098-.096-2.61-.624-3.519Zm4.31 3.938c.834-.202 1.359-1.225 1.126-2.274-.157-.706-.436-2.034-.735-2.485-.22-.334-.818-.771-1.296-.465-.777.497-2.146.642-2.712 1.244.284.946.372 2.245.49 3.444.97.06 2.164-.267 2.971.08-.563.183-1.295.184-1.781.45.398.192 1.33.154 1.937.006Zm-7.76-5.075c-.587-1.378-1.12-2.807-1.994-3.918-.848.57-1.782 1.104-2.02 2.136 1.213.687 2.628 1.364 4.013 1.782Zm1.444-4.269c-.055 1.379-.213 3.187-.58 4.268.877-1.116 1.584-2.416 2.322-3.681-.315-.506-.973-.947-1.742-.587Zm-1.638-.582c-.332-.036-.613.382-1.046.201-.098.11-.188.228-.289.335.954 1.15 1.387 2.78 2.123 4.13.396-1.297.35-2.718.437-4.134-.543.034-.844-.491-1.225-.532Zm-1.053-1.39c-.035.394.056.523.136.974 1.293.404 1.067-1.776-.136-.974Zm-1.435-.47c-.557-.305-1.395-.637-2.115-.775-.893-.17-.809 1.218-.77 2.046.029.656.37 1.35.518 1.785.07.203.085.42.26.46.306.071 1.32-.334 1.61-.492.61-.333 1.085-.862 1.604-1.217l.02-.519a2.737 2.737 0 0 0-1.13-.286c.31-.156.767-.154 1.05-.34l.008-.207c-.517-.04-.714-.27-1.055-.456Zm-5.325-.968c-.463.47 1.298 1.11 1.859 1.144-.004-.297.169-.577.134-.79-.666-.117-1.54-.04-1.993-.354Zm5.7.22c-.002.046-.062.03-.072.067.596.465 1.038.561 1.848.521.366-.265.69-.575 1.07-.823-.876.078-1.978.622-2.846.235Zm5.232 1.587c-.025-.522-.162-1.595-.485-1.783-.677-.395-1.88.798-2.39.98.056.16.147.286.154.49.302-.074.669-.023.93.105-.302.034-.637.032-.837.176-.073.212.018.5-.03.794.716.203 1.536.31 2.443.337.176-.23.236-.666.215-1.1v.001Zm-11.71-1.353c-.146-.104-1.129-1.382-1.263-1.33-1.78.702-3.442 1.915-4.928 3.062 1.417 3.04 1.989 6.766 2.09 10.356 1.623.76 3.049 1.854 5.251 1.968-.255-1.803-.488-3.412-.632-5.11-.554-.234-1.348.01-1.865-.073-.005-.624.79-.273.857-.693.05-.317-.438-.341-.28-.841.406.147.618.472 1.05.594.395-.863-.005-2.39.052-3.112.01-.135.067-.75.37-.642.27.095-.015 1.635.015 2.318.027.63-.076 1.238.179 1.633a60.755 60.755 0 0 1 6.594-.54c-.507-.218-1.109-.423-1.769-.795-.357-.202-1.485-.622-1.588-.961-.165-.542.432-.83.534-1.294-1.075.586-1.284-.562-1.538-1.375-.23-.736-.362-1.286-.418-1.711-.926-.441-1.915-.888-2.712-1.454Zm10.77-1.175c1.482-.718 1.75 2.686 1.168 3.783.09.327.399.452.525.746-.827 1.482-1.745 2.864-2.59 4.328.628-.39 1.525-.07 2.264-.362.27-.107.465-.725.67-1.22.562-1.36 1.152-3.075 1.415-4.373.059-.295.22-.94.184-1.203-.064-.472-.704-.821-1.03-1.113-.599-.538-.976-1.012-1.601-1.515-.253.374-.797.625-1.005.93ZM6.7 6.136c-.706.776-.558 2.232-.473 3.268 1.277-.803 2.97.063 2.955 1.43.609-.017.227-.762.117-1.242-.36-1.567.607-3.27.044-4.703-1.093.083-1.991.529-2.643 1.247Zm5.053-4.51c-1.599.453-3.648 1.615-4.305 3.05.51-.073.862-.33 1.364-.361.19-.013.438.08.656.025.434-.108.8-1.082 1.128-1.444.32-.354.704-.505.967-.828.168-.081.418-.075.428-.329-.074-.078-.15-.138-.238-.113Zm8.321.426c-1.659-.936-4.468-1.64-6.232-.76-1.425.71-3.35 1.885-4.006 3.374.613 1.437-.182 2.753-.232 4.212-.027.776.365 1.453.395 2.298-.21.346-.85.389-1.295.365-.149-.747-.41-1.587-1.18-1.672-1.09-.119-1.885.783-1.935 1.725-.059 1.107.85 2.943 2.14 2.816.497-.05.62-.548 1.162-.543.294.586-.453.77-.53 1.19-.02.108.062.532.11.73.234.968.755 2.22 1.27 2.956.651.935 1.932 1.075 3.31 1.167.246-.53 1.153-.487 1.744-.348-.708-.28-1.367-.96-1.912-1.562-.627-.69-1.261-1.43-1.293-2.333 1.184 1.642 2.162 3.077 4.315 3.8 1.63.546 3.532-.25 4.784-1.13.52-.365.83-.945 1.199-1.476 1.381-1.987 2.026-4.824 1.884-7.573-.058-1.134-.056-2.264-.436-3.026-.398-.798-1.742-1.512-2.53-.79-.145-.776.655-1.256 1.595-.976-.67-.866-1.374-1.906-2.327-2.444Zm3.092 25.584c1.296-.645 3.719-1.735 4.532.002.3.64.652 1.723.807 2.384.22.933-.238 2.893-1.197 3.206-.846.276-1.834.26-2.854.055-.12-.1-.254-.274-.347-.456-.729-.028-1.41.04-1.986.339.055.538-.31.625-.651.736-.253 1.003.506 2.315.325 3.23-.13.652-.932.753-1.522.875-.02.362.026.665.066.971-.135.497-.74.78-1.313.85-1.885.225-4.748.328-6.561-.325-.506-1.241-.905-2.751-1.326-4.168-1.769.189-3.2-.763-4.548-1.387-.467-.216-1.113-.336-1.287-.707-.17-.36-.1-1.05-.142-1.701-.107-1.664-.198-3.269-.637-4.972-.198-.765-.542-1.44-.782-2.176-.221-.682-.608-1.526-.71-2.207-.15-1.009.8-1.065 1.408-1.502.94-.676 1.676-1.05 2.693-1.66.302-.181 1.21-.639 1.313-.85.206-.417-.352-1.006-.501-1.333-.236-.518-.36-.958-.393-1.469a2.833 2.833 0 0 1-1.89-1.215c-.647-.947-1.095-2.7-.536-4.034.044-.105.262-.311.295-.473.063-.317-.12-.74-.131-1.077-.06-1.733.293-3.227 1.46-3.75.473-1.887 2.168-2.514 3.766-3.452.597-.35 1.255-.574 1.935-.824 2.438-.898 6.179-.729 8.203.802.858.649 2.23 2.02 2.72 3.011 1.296 2.62 1.204 6.997.298 10.183-.122.428-.3 1.057-.546 1.571-.172.359-.707 1.077-.642 1.394.067.327 1.22 1.202 1.466 1.44.446.43 1.29 1 1.36 1.54.073.577-.255 1.366-.42 1.922-.555 1.856-1.096 3.572-1.725 5.227Z" fill="#231F20"/>
    <path d="M14.514 14.787c.07-.094.457-.236.998.025 0 0-.64.107-.587 1.176l-.268-.054s-.276-.969-.143-1.147Z" fill="#F7E4CD"/>
    <path d="M19.2 23.977a.293.293 0 1 1-.587 0 .293.293 0 0 1 .587 0Zm.294 1.363a.294.294 0 1 1-.588 0 .294.294 0 0 1 .588 0" fill="#1D1919"/>
    <path d="M50.3 13.384c-.3.038-.557.075-.767.113a9.897 9.897 0 0 0-.71.158c-.309.083-.506.23-.592.44-.086.21-.13.451-.13.722v8.822c0 .813-.163 1.557-.49 2.234a4.871 4.871 0 0 1-1.347 1.703 6.212 6.212 0 0 1-1.94 1.021 7.442 7.442 0 0 1-2.288.344c-1.405 0-2.538-.338-3.399-1.014-.86-.677-1.29-1.605-1.29-2.785 0-.699.197-1.277.591-1.736.395-.458.938-.687 1.63-.687.653 0 1.174.191 1.56.575.388.383.581.856.581 1.42 0 .481-.167.926-.501 1.336-.335.41-.716.787-1.145 1.133v.146c.068.15.215.279.441.384.226.105.456.157.69.157.904 0 1.614-.323 2.13-.97.517-.646.775-1.624.775-2.933V14.93c0-.27-.041-.496-.124-.677-.084-.18-.284-.338-.6-.474-.227-.098-.501-.18-.822-.248-.321-.068-.587-.117-.799-.147v-.879H50.3v.88Zm13.37 12.424c-.264.428-.58.832-.953 1.212-.372.379-.795.704-1.268.975a6.96 6.96 0 0 1-1.528.648c-.515.146-1.107.22-1.776.22-1.112 0-2.072-.158-2.88-.474-.808-.315-1.475-.74-2-1.274a5.096 5.096 0 0 1-1.179-1.888 6.967 6.967 0 0 1-.389-2.361 5.914 5.914 0 0 1 1.623-4.08c.512-.535 1.156-.967 1.934-1.298.778-.33 1.648-.496 2.61-.496 1.052 0 1.916.128 2.593.383.676.256 1.236.61 1.68 1.06.428.429.74.934.935 1.516a5.72 5.72 0 0 1 .293 1.832v.733h-7.62c0 1.54.297 2.713.89 3.517.594.804 1.537 1.206 2.83 1.206.706 0 1.341-.193 1.905-.58a5.433 5.433 0 0 0 1.443-1.471l.857.62Zm-4.307-4.284c0-.451-.022-.914-.067-1.387-.045-.473-.124-.86-.237-1.16-.128-.354-.303-.621-.524-.801-.222-.18-.502-.271-.84-.271-.579 0-1.041.293-1.387.88-.346.585-.533 1.514-.564 2.784l3.62-.045Zm20.27 6.978h-6.776v-.823l.519-.057c.203-.022.357-.06.462-.112a.716.716 0 0 0 .338-.361c.068-.158.102-.39.102-.699v-5.276c0-.766-.142-1.343-.424-1.73-.283-.387-.7-.58-1.25-.58-.301 0-.582.044-.842.134-.26.09-.514.222-.763.395-.218.15-.393.304-.525.462-.115.136-.226.276-.334.418v6.053c0 .263.038.483.113.66.075.176.199.31.372.4.12.067.27.128.45.18.181.053.358.09.53.113v.823h-6.854v-.823c.19-.015.38-.036.57-.062.191-.027.355-.062.49-.107.24-.083.406-.21.496-.384.09-.172.136-.398.136-.676v-6.561c0-.233-.06-.462-.18-.688a1.612 1.612 0 0 0-.474-.552 1.871 1.871 0 0 0-.513-.226 3.63 3.63 0 0 0-.682-.124v-.823l5.377-.293.17.17v1.634h.044c.255-.227.51-.452.767-.676.3-.263.579-.477.834-.643.278-.18.643-.334 1.094-.462.45-.128.931-.192 1.443-.192 1.225 0 2.143.348 2.756 1.043.612.695.919 1.618.919 2.768v5.524c0 .278.04.5.123.665.083.165.237.297.463.394.12.053.268.106.445.158.177.053.377.09.603.113v.823Zm15.511 0h-5.313a45.131 45.131 0 0 0-1.79-2.918 150.046 150.046 0 0 0-1.533-2.22l-.664.56v2.458c0 .271.04.493.118.665.08.173.231.301.457.384a3.386 3.386 0 0 0 1.015.248v.823h-7.001v-.823a9.47 9.47 0 0 0 .567-.062c.19-.027.356-.063.5-.108.242-.082.406-.21.493-.383.088-.173.13-.398.13-.676V13.88a2.04 2.04 0 0 0-.163-.772 1.257 1.257 0 0 0-.479-.603c-.142-.09-.357-.165-.642-.226a5.56 5.56 0 0 0-.778-.112v-.823l5.613-.293.17.18v11.633a97.938 97.938 0 0 0 1.874-1.724 61.546 61.546 0 0 0 1.673-1.623c.248-.256.384-.45.41-.58.027-.132.04-.213.04-.243 0-.136-.118-.248-.355-.338-.238-.09-.595-.17-1.072-.237v-.8h5.727v.777c-.75.21-1.323.408-1.717.592-.393.184-.823.43-1.288.738-.306.202-.604.415-.894.638-.289.223-.62.5-.995.831.735 1.067 1.414 2.055 2.037 2.964.622.909 1.275 1.87 1.958 2.884.232.353.521.59.866.71.346.12.691.196 1.036.226v.823Zm7.249 0h-7.125v-.823c.196-.015.388-.034.575-.057.188-.022.35-.06.485-.112.24-.09.41-.22.507-.39.098-.169.147-.392.147-.67v-6.561c0-.263-.06-.494-.18-.694a1.5 1.5 0 0 0-.451-.479c-.136-.09-.34-.176-.615-.259a3.988 3.988 0 0 0-.75-.158v-.823l5.524-.293.17.17v8.95c0 .263.056.487.169.671.113.184.274.322.485.412a3.705 3.705 0 0 0 1.059.293v.823Zm-1.646-15.377c0 .572-.22 1.058-.659 1.46-.44.402-.96.603-1.561.603a2.251 2.251 0 0 1-1.573-.603c-.44-.402-.66-.889-.66-1.46 0-.57.22-1.06.66-1.465.44-.406.964-.61 1.572-.61.61 0 1.132.204 1.567.61.436.406.654.894.654 1.465Zm17.564 15.377h-6.775v-.823l.518-.057c.203-.022.357-.06.463-.112a.721.721 0 0 0 .338-.361c.067-.158.101-.39.101-.699v-5.276c0-.766-.141-1.343-.424-1.73-.282-.387-.699-.58-1.249-.58-.302 0-.582.044-.842.134-.26.09-.515.222-.763.395-.219.15-.394.304-.526.462a9.748 9.748 0 0 0-.333.418v6.053c0 .263.037.483.112.66.075.176.199.31.372.4.12.067.271.128.451.18.181.053.357.09.53.113v.823h-6.854v-.823c.19-.015.38-.036.569-.062a2.76 2.76 0 0 0 .491-.107c.24-.083.405-.21.496-.384.09-.172.135-.398.135-.676v-6.561c0-.233-.06-.462-.18-.688a1.616 1.616 0 0 0-.474-.552 1.862 1.862 0 0 0-.513-.226 3.633 3.633 0 0 0-.682-.124v-.823l5.378-.293.169.17v1.634h.045c.254-.227.51-.452.766-.676.301-.263.579-.477.835-.643.277-.18.642-.334 1.093-.462a5.275 5.275 0 0 1 1.443-.192c1.225 0 2.144.348 2.756 1.043.613.695.919 1.618.919 2.768v5.524c0 .278.041.5.124.665.083.165.237.297.462.394.12.053.269.106.445.158.177.053.378.09.603.113v.823h.001Zm6.268.383a7.215 7.215 0 0 1-2.136-.321c-.696-.214-1.235-.442-1.618-.682l-.338.766h-.879l-.147-4.205h.823c.113.338.3.72.564 1.145.263.424.563.806.902 1.144.353.338.757.624 1.211.857.455.233.942.35 1.46.35.684 0 1.193-.134 1.528-.4.334-.268.502-.68.502-1.235 0-.3-.076-.549-.226-.744a1.923 1.923 0 0 0-.62-.508 5.722 5.722 0 0 0-.964-.383c-.349-.105-.78-.233-1.291-.383-.511-.15-.949-.303-1.313-.457-.365-.154-.742-.396-1.133-.727a3.31 3.31 0 0 1-.811-1.06c-.203-.413-.305-.905-.305-1.477 0-1.06.446-1.916 1.336-2.57.891-.654 2.058-.98 3.501-.98.683 0 1.313.069 1.888.208.575.14 1.058.291 1.448.457l.237-.665h.857l.18 3.844h-.789a4.658 4.658 0 0 0-1.353-2.024c-.639-.567-1.326-.85-2.063-.85-.578 0-1.033.12-1.364.36-.331.24-.496.575-.496 1.003 0 .571.242.985.726 1.24.484.256 1.161.496 2.031.722 1.343.346 2.326.817 2.949 1.414.623.598.934 1.359.934 2.283 0 1.233-.483 2.187-1.449 2.863-.966.677-2.226 1.015-3.782 1.015Z" fill="#000"/>
  </g>
  <defs>
    <clipPath id="a">
      <path fill="#fff" d="M0 0h130.548v40H0z"/>
    </clipPath>
  </defs>
</svg>
