<svg width="40" height="40" fill="none" xmlns="http://www.w3.org/2000/svg">
  <g clip-path="url(#a)">
    <path d="M14.378.92A7.814 7.814 0 0 0 12.65.296C4.62-1.61-1.346 6.264 1.934 13.418c.032.032 5.842 12.778 6.78 14.8 0 0 10.686-4.906 12.872-9.936C23.612 13.6 20.2 5.05 19.572 3.766L14.378.92Z" fill="url(#b)"/>
    <path d="M38.52 15.14a7.612 7.612 0 0 0-2.686-2.5c-.032 0-7.53-4.124-7.53-4.124S2.558 23.442 2.53 23.482C-.376 26.8-1.032 32.042 2.312 36.6a7.88 7.88 0 0 0 4.062 2.874c3.03.938 5.718.562 7.968-.624.062-.032 21.152-11.216 21.214-11.28 4.122-2.156 6.03-7.654 2.966-12.436l-.002.006Z" fill="#0CB0F2"/>
    <path d="m12.036 11.862-6.874 8.436-2.666 3.184C-.4 26.8-1.066 32.042 2.278 36.6a7.88 7.88 0 0 0 4.062 2.878c3.03.938 5.748.562 8-.624 0 0 .532-.282 1.438-.782 2.856-1.544 6.8-11.92 9.482-19.944l-13.224-6.266Z" fill="url(#c)"/>
    <path d="m22.84 19.982 5.464-11.538a.032.032 0 0 1 .032-.032 57.89 57.89 0 0 1 .5-1.282 5.312 5.312 0 0 0-.562-4.968A4.464 4.464 0 0 0 25.492.2a5.124 5.124 0 0 0-5.342 1.78c-.032.032-1.218 1.4-1.218 1.4l-8.75 10.782 12.658 5.82Z" fill="url(#d)"/>
    <path d="M7.526 7.484h25v25h-25v-25Z" fill="url(#e)"/>
    <path d="M13.4 13.014h-3.374v-2.186h9.154v2.186h-3.342v8.62H13.4v-8.62Zm5.78 3.24c0-3.124 2.312-5.654 5.656-5.654 2.03 0 3.28.688 4.28 1.688l-1.53 1.75c-.844-.75-1.688-1.218-2.78-1.218-1.812 0-3.156 1.53-3.156 3.374v.032c0 1.874 1.282 3.4 3.156 3.4 1.25 0 2-.5 2.844-1.282l1.53 1.53c-1.124 1.188-2.344 1.938-4.436 1.938a5.44 5.44 0 0 1-5.564-5.31v-.246m-9.154 11.226h9.154v1.656h-9.154v-1.656Z" fill="#fff"/>
  </g>
  <defs>
    <linearGradient id="b" x1="20.867" y1="24.394" x2="8.251" y2="8.809" gradientUnits="userSpaceOnUse">
      <stop offset=".06" stop-color="#0CB0F2"/>
      <stop offset=".21" stop-color="#10ADF2"/>
      <stop offset=".37" stop-color="#1EA5F3"/>
      <stop offset=".54" stop-color="#3497F5"/>
      <stop offset=".71" stop-color="#5283F7"/>
      <stop offset=".88" stop-color="#796AF9"/>
      <stop offset=".97" stop-color="#905CFB"/>
    </linearGradient>
    <linearGradient id="c" x1="6.532" y1="37.987" x2="12.859" y2="23.379" gradientUnits="userSpaceOnUse">
      <stop offset=".06" stop-color="#0CB0F2"/>
      <stop offset=".2" stop-color="#0DB2EE"/>
      <stop offset=".35" stop-color="#12B7E0"/>
      <stop offset=".51" stop-color="#19C0CA"/>
      <stop offset=".68" stop-color="#23CCAC"/>
      <stop offset=".85" stop-color="#30DC85"/>
      <stop offset=".97" stop-color="#3BEA62"/>
    </linearGradient>
    <linearGradient id="d" x1="15.203" y1="18.809" x2="27.546" y2="2.95" gradientUnits="userSpaceOnUse">
      <stop offset=".06" stop-color="#0CB0F2"/>
      <stop offset=".2" stop-color="#0DB2EE"/>
      <stop offset=".35" stop-color="#12B7E0"/>
      <stop offset=".51" stop-color="#19C0CA"/>
      <stop offset=".68" stop-color="#23CCAC"/>
      <stop offset=".85" stop-color="#30DC85"/>
      <stop offset=".97" stop-color="#3BEA62"/>
    </linearGradient>
    <linearGradient id="e" x1="20.007" y1="7.872" x2="20.007" y2="32.87" gradientUnits="userSpaceOnUse">
      <stop/>
      <stop offset="1"/>
    </linearGradient>
    <clipPath id="a">
      <path fill="#fff" d="M0 0h40v40H0z"/>
    </clipPath>
  </defs>
</svg>
