<svg width="145" height="40" fill="none" xmlns="http://www.w3.org/2000/svg">
  <g clip-path="url(#a)">
    <path d="M40 0H0v40h40V0Z" fill="url(#b)"/>
    <path d="M25.84 15.056c0-1.547-3.035-2.261-5.867-2.261s-5.867.714-5.867 2.261a.795.795 0 0 0 .027.23v9.626c-.027 1.6 3.013 2.283 5.867 2.283 2.853 0 5.866-.704 5.866-2.251v-9.888h-.026Zm-5.856-1.19c3.109 0 4.8.849 4.8 1.195 0 .347-1.68 1.195-4.8 1.195s-4.8-.843-4.8-1.195c0-.352 1.69-1.194 4.8-1.194Zm4.8 11.083c0 .342-1.686 1.184-4.8 1.184-3.115 0-4.8-.842-4.8-1.184v-1.685c1.125.613 3.013.907 4.8.907 1.786 0 3.658-.288 4.8-.891v1.67Zm0-3.034c0 .341-1.68 1.194-4.8 1.194s-4.8-.853-4.8-1.194h.016v-2.038c1.125.608 3.013.902 4.8.902 1.786 0 3.658-.288 4.8-.891l-.016 2.027Zm0-3.398c0 .347-1.68 1.2-4.8 1.2s-4.8-.853-4.8-1.2h.016v-2.08c1.136.603 3.002.88 4.8.88 1.797 0 3.685-.288 4.8-.901l-.016 2.101ZM8.485 32.272H12v1.067H7.2a.533.533 0 0 1-.534-.534v-4.8h1.067v3.504l4-3.994.747.752-3.995 4.005ZM33.333 28.005v4.8a.533.533 0 0 1-.533.534H28v-1.067h3.515l-3.942-3.952.752-.747 3.942 3.936v-3.504h1.066ZM33.333 7.205v4.8h-1.066v-3.52l-3.942 3.942-.752-.752 3.936-3.936H28V6.672h4.8a.533.533 0 0 1 .534.533ZM12.48 11.733l-.747.747-4-3.995v3.51H6.667v-4.8A.533.533 0 0 1 7.2 6.66H12v1.067H8.485l3.995 4.005ZM11.819 24.779c-3.259-1.174-5.126-2.966-5.126-4.912 0-1.947 1.867-3.734 5.126-4.912l.362 1.002c-2.768.998-4.421 2.459-4.421 3.91 0 1.45 1.653 2.912 4.421 3.909l-.362 1.003ZM27.882 24.896l-.341-1.013c2.96-.998 4.725-2.502 4.725-4.016 0-1.515-1.765-3.019-4.725-4.022l.341-1.008c3.462 1.163 5.451 3.008 5.451 5.03 0 2.021-1.99 3.856-5.45 5.029Z" fill="#fff"/>
  </g>
  <path d="m62.56 25-4.24-10.672h-2L52.08 25h1.76l.864-2.208h5.232L60.8 25h1.76Zm-3.088-3.632h-4.304l2.144-5.648 2.16 5.648ZM74.64 25v-5.584c0-1.552-.768-2.336-2.192-2.336-1.136 0-2.16.72-2.608 1.44-.24-.832-.928-1.44-2.096-1.44-1.152 0-2.176.8-2.496 1.28v-1.088h-1.44V25h1.44v-5.52c.384-.56 1.136-1.12 1.888-1.12.976 0 1.36.592 1.36 1.488V25h1.44v-5.536c.368-.56 1.136-1.104 1.92-1.104.944 0 1.344.592 1.344 1.488V25h1.44Zm8.501 0v-5.216c0-1.968-1.424-2.704-3.104-2.704-1.248 0-2.304.416-3.168 1.264l.624.992c.688-.688 1.44-1.024 2.32-1.024 1.104 0 1.888.576 1.888 1.536v1.28c-.592-.688-1.488-1.024-2.528-1.024-1.296 0-2.688.768-2.688 2.528 0 1.696 1.408 2.56 2.688 2.56 1.04 0 1.92-.368 2.528-1.04V25h1.44Zm-1.44-1.696c-.432.576-1.184.88-1.984.88-1.04 0-1.776-.624-1.776-1.536s.736-1.536 1.776-1.536c.8 0 1.552.304 1.984.88v1.312ZM91.081 25v-1.248h-4.128l4.064-5.408v-1.072H85.08v1.264h4.032l-4.032 5.36V25h6Zm5.37.192c2.416 0 3.904-1.824 3.904-4.064 0-2.224-1.488-4.048-3.904-4.048-2.4 0-3.904 1.824-3.904 4.048 0 2.24 1.504 4.064 3.904 4.064Zm0-1.28c-1.536 0-2.4-1.312-2.4-2.784 0-1.456.864-2.768 2.4-2.768 1.552 0 2.4 1.312 2.4 2.768 0 1.472-.848 2.784-2.4 2.784ZM108.839 25v-5.424c0-1.632-.848-2.496-2.48-2.496-1.2 0-2.224.656-2.736 1.28v-1.088h-1.44V25h1.44v-5.52c.416-.576 1.232-1.12 2.128-1.12.992 0 1.648.416 1.648 1.696V25h1.44Zm14.439 0-2.736-4.272c1.36-.176 2.656-1.2 2.656-3.12 0-1.968-1.392-3.28-3.424-3.28h-4.496V25h1.6v-4.112h2L121.422 25h1.856Zm-1.728-7.392c0 1.12-.832 1.872-1.984 1.872h-2.688v-3.744h2.688c1.152 0 1.984.752 1.984 1.872ZM128.976 25c3.328 0 5.536-2.24 5.536-5.328 0-3.072-2.208-5.344-5.536-5.344h-3.808V25h3.808Zm-2.208-9.264h2.208c2.512 0 3.888 1.744 3.888 3.936 0 2.16-1.424 3.92-3.888 3.92h-2.208v-7.856Zm9.026 7.76c.912 1.008 2.304 1.696 4.208 1.696 2.88 0 4.032-1.552 4.032-3.216 0-2.272-2.032-2.816-3.776-3.28-1.328-.336-2.48-.64-2.48-1.6 0-.896.816-1.504 2-1.504 1.152 0 2.272.384 3.088 1.248l.928-1.184c-.944-.96-2.24-1.488-3.888-1.488-2.224 0-3.776 1.28-3.776 3.04 0 2.176 1.984 2.672 3.696 3.12 1.36.352 2.576.672 2.576 1.792 0 .768-.608 1.648-2.336 1.648a4.5 4.5 0 0 1-3.36-1.504l-.912 1.232Z" fill="#000"/>
  <defs>
    <linearGradient id="b" x1="-8.283" y1="48.283" x2="48.288" y2="-8.288" gradientUnits="userSpaceOnUse">
      <stop stop-color="#2E27AD"/>
      <stop offset="1" stop-color="#527FFF"/>
    </linearGradient>
    <clipPath id="a">
      <path fill="#fff" d="M0 0h40v40H0z"/>
    </clipPath>
  </defs>
</svg>
