<svg width="73" height="72" fill="none" xmlns="http://www.w3.org/2000/svg">
  <path d="M24.506 2h21.322L23.692 67.526a3.402 3.402 0 0 1-3.217 2.316H3.892A3.392 3.392 0 0 1 .5 66.45c0-.369.058-.735.174-1.085L21.28 4.307A3.412 3.412 0 0 1 24.506 2Z" fill="url(#a)"/>
  <path d="M55.462 45.952H21.677a1.562 1.562 0 0 0-1.56 1.6 1.579 1.579 0 0 0 .493 1.153L42.32 68.96a3.402 3.402 0 0 0 2.326.97h19.132l-8.316-23.978Z" fill="#0078D4"/>
  <path d="M24.507 2a3.353 3.353 0 0 0-3.228 2.355L.704 65.307a3.382 3.382 0 0 0 2.045 4.332c.369.135.76.204 1.153.203h17.009a3.634 3.634 0 0 0 2.791-2.374l4.1-12.086 14.654 13.666a3.528 3.528 0 0 0 2.18.794H63.7l-8.364-23.89H30.971L45.887 2h-21.38Z" fill="url(#b)"/>
  <path d="M51.711 4.307A3.392 3.392 0 0 0 48.503 2H24.73a3.392 3.392 0 0 1 3.207 2.307l20.615 61.058a3.382 3.382 0 0 1-3.189 4.477h23.745A3.392 3.392 0 0 0 72.5 66.45c0-.369-.058-.735-.174-1.085L51.71 4.307Z" fill="url(#c)"/>
  <defs>
    <linearGradient id="a" x1="34.748" y1="7.074" x2="12.659" y2="72.328" gradientUnits="userSpaceOnUse">
      <stop stop-color="#114A8B"/>
      <stop offset="1" stop-color="#0669BC"/>
    </linearGradient>
    <linearGradient id="b" x1="41.642" y1="37.493" x2="36.532" y2="39.217" gradientUnits="userSpaceOnUse">
      <stop stop-opacity=".3"/>
      <stop offset=".07" stop-opacity=".2"/>
      <stop offset=".32" stop-opacity=".1"/>
      <stop offset=".62" stop-opacity=".05"/>
      <stop offset="1" stop-opacity="0"/>
    </linearGradient>
    <linearGradient id="c" x1="38.996" y1="5.108" x2="63.248" y2="69.712" gradientUnits="userSpaceOnUse">
      <stop stop-color="#3CCBF4"/>
      <stop offset="1" stop-color="#2892DF"/>
    </linearGradient>
  </defs>
</svg>
