<svg width="153" height="40" fill="none" xmlns="http://www.w3.org/2000/svg">
  <g clip-path="url(#a)">
    <path d="M39.856 19.885c0 10.993-8.892 19.885-19.885 19.885C8.98 39.77.086 30.878.086 19.885.086 8.892 8.98 0 19.971 0c10.964 0 19.885 8.892 19.885 19.885Z" fill="#1A1918"/>
    <path d="m20.288 12.144 5.151 12.69-7.77-6.129 2.619-6.561Zm9.151 15.626L21.525 8.72c-.23-.547-.69-.835-1.237-.835-.547 0-1.036.288-1.266.834L10.36 29.611h2.964l3.453-8.604 10.273 8.288c.403.345.72.49 1.094.49.777 0 1.439-.576 1.439-1.41 0-.145-.058-.375-.144-.605Z" fill="#fff"/>
    <path d="M74.998 26.399c-.229 0-.457-.077-.61-.305l-7.16-9.446v9.598h-1.676V14.363c0-.457.381-.838.838-.838.229 0 .457.076.686.305l7.16 9.446v-9.598h1.6v11.806c0 .534-.381.915-.838.915ZM88.557 26.475c-1.6 0-3.352-.305-4.951-.914l.38-1.371c1.448.457 3.047.837 4.57.837 2.058 0 3.124-.761 3.124-1.752 0-.914-.838-1.447-3.733-2.742-2.894-1.371-4.037-2.209-4.037-3.96 0-2.134 1.6-2.972 4.723-2.972 1.295 0 3.276.229 4.418.61l-.228 1.37c-1.22-.304-2.819-.532-4.114-.532-2.209 0-3.047.38-3.047 1.447 0 .99.686 1.447 3.733 2.895 3.199 1.523 4.037 2.209 4.037 3.808-.076 2.21-2.133 3.276-4.875 3.276ZM101.125 13.754h1.676v12.568h-1.676V13.754ZM117.199 20.61h-4.19v4.265h4.19c1.447 0 2.285-.914 2.285-2.133 0-1.219-.914-2.133-2.285-2.133Zm-.838-5.409h-3.352v4.037h3.352c1.371 0 2.361-.838 2.361-2.056 0-1.295-.838-1.981-2.361-1.981Zm.838 11.121h-5.028a.845.845 0 0 1-.838-.837V14.591c0-.458.381-.838.838-.838h4.19c2.59 0 4.113 1.295 4.113 3.275 0 1.067-.609 2.057-1.599 2.666 1.447.457 2.361 1.6 2.361 3.047 0 1.98-1.676 3.58-4.037 3.58ZM129.386 26.322a.845.845 0 0 1-.838-.837V13.754h1.676v11.045h6.704v1.523h-7.542ZM148.507 26.475c-3.428 0-5.561-1.295-5.561-3.885 0-1.219.685-2.361 2.057-2.97-1.067-.687-1.6-1.677-1.6-2.667 0-2.361 1.828-3.428 5.18-3.428 1.142 0 2.742.152 4.037.457l-.152 1.371c-1.448-.228-2.743-.38-4.038-.38-2.209 0-3.351.609-3.351 2.056 0 1.143 1.066 2.057 2.513 2.057h2.895c.381 0 .762.305.762.685 0 .381-.305.762-.762.762h-3.123c-1.6 0-2.666.838-2.666 2.057 0 1.828 1.676 2.361 3.809 2.361 1.142 0 2.742-.152 3.961-.457l.228 1.371c-1.219.381-2.818.61-4.189.61ZM52.984 16.115l2.97 7.389-4.494-3.58 1.524-3.809Zm5.256 9.141-4.57-11.122c-.153-.304-.382-.457-.686-.457a.838.838 0 0 0-.762.457l-5.028 12.188h1.676l1.98-5.027 5.942 4.875c.229.229.381.305.61.305.457 0 .838-.305.838-.838.076-.152.076-.305 0-.381Z" fill="#1A1918"/>
  </g>
  <defs>
    <clipPath id="a">
      <path fill="#fff" d="M0 0h152.518v40H0z"/>
    </clipPath>
  </defs>
</svg>
