<svg width="172" height="40" fill="none" xmlns="http://www.w3.org/2000/svg">
  <g clip-path="url(#a)">
    <path d="M40 0H0v40h40V0Z" fill="#3B48CC"/>
    <path d="M20 33.333c-4.395 0-9.067-1.274-9.067-3.637V10.304H12v19.392c0 1.067 3.045 2.57 8 2.57 4.954 0 8-1.493 8-2.57V10.304h1.066v19.392c0 2.363-4.672 3.637-9.066 3.637Z" fill="#fff"/>
    <path d="M20 33.333c-4.395 0-9.067-1.274-9.067-3.637V10.304H12v19.392c0 1.067 3.045 2.57 8 2.57 4.954 0 8-1.493 8-2.57V10.304h1.066v19.392c0 2.363-4.672 3.637-9.066 3.637Z" fill="#fff"/>
    <path d="M20 13.936c-4.395 0-9.067-1.275-9.067-3.632S15.605 6.667 20 6.667c4.394 0 9.066 1.274 9.066 3.637S24.394 13.936 20 13.936Zm0-6.203c-4.955 0-8 1.494-8 2.571 0 1.077 3.045 2.565 8 2.565 4.954 0 8-1.493 8-2.565 0-1.072-3.046-2.57-8-2.57ZM18.488 21.044l-.236 1.04 3.234.736.237-1.04-3.235-.736ZM24.225 17.858l-1.233 3.125.992.392 1.233-3.126-.992-.391ZM16.057 22.296l-1.088 2.55.98.42 1.09-2.551-.982-.419Z" fill="#fff"/>
    <path d="M14.933 28.144a1.867 1.867 0 1 1 0-3.734 1.867 1.867 0 0 1 0 3.734Zm0-2.667a.8.8 0 1 0 0 1.6.8.8 0 0 0 0-1.6ZM17.066 23.141a1.867 1.867 0 1 1 0-3.733 1.867 1.867 0 0 1 0 3.733Zm0-2.666a.8.8 0 1 0 0 1.6.8.8 0 0 0 0-1.6ZM22.933 24.267a1.867 1.867 0 1 1 0-3.734 1.867 1.867 0 0 1 0 3.734Zm0-2.667a.8.8 0 1 0 0 1.6.8.8 0 0 0 0-1.6ZM25.066 18.667a1.867 1.867 0 1 1 1.867-1.867v.027a1.872 1.872 0 0 1-1.867 1.84Zm0-2.667a.8.8 0 1 0 .001 1.6.8.8 0 0 0 0-1.6Z" fill="#fff"/>
  </g>
  <path d="m62.56 25-4.24-10.672h-2L52.08 25h1.76l.864-2.208h5.232L60.8 25h1.76Zm-3.088-3.632h-4.304l2.144-5.648 2.16 5.648ZM74.64 25v-5.584c0-1.552-.768-2.336-2.192-2.336-1.136 0-2.16.72-2.608 1.44-.24-.832-.928-1.44-2.096-1.44-1.152 0-2.176.8-2.496 1.28v-1.088h-1.44V25h1.44v-5.52c.384-.56 1.136-1.12 1.888-1.12.976 0 1.36.592 1.36 1.488V25h1.44v-5.536c.368-.56 1.136-1.104 1.92-1.104.944 0 1.344.592 1.344 1.488V25h1.44Zm8.501 0v-5.216c0-1.968-1.424-2.704-3.104-2.704-1.248 0-2.304.416-3.168 1.264l.624.992c.688-.688 1.44-1.024 2.32-1.024 1.104 0 1.888.576 1.888 1.536v1.28c-.592-.688-1.488-1.024-2.528-1.024-1.296 0-2.688.768-2.688 2.528 0 1.696 1.408 2.56 2.688 2.56 1.04 0 1.92-.368 2.528-1.04V25h1.44Zm-1.44-1.696c-.432.576-1.184.88-1.984.88-1.04 0-1.776-.624-1.776-1.536s.736-1.536 1.776-1.536c.8 0 1.552.304 1.984.88v1.312ZM91.081 25v-1.248h-4.128l4.064-5.408v-1.072H85.08v1.264h4.032l-4.032 5.36V25h6Zm5.37.192c2.416 0 3.904-1.824 3.904-4.064 0-2.224-1.488-4.048-3.904-4.048-2.4 0-3.904 1.824-3.904 4.048 0 2.24 1.504 4.064 3.904 4.064Zm0-1.28c-1.536 0-2.4-1.312-2.4-2.784 0-1.456.864-2.768 2.4-2.768 1.552 0 2.4 1.312 2.4 2.768 0 1.472-.848 2.784-2.4 2.784ZM108.839 25v-5.424c0-1.632-.848-2.496-2.48-2.496-1.2 0-2.224.656-2.736 1.28v-1.088h-1.44V25h1.44v-5.52c.416-.576 1.232-1.12 2.128-1.12.992 0 1.648.416 1.648 1.696V25h1.44Zm14.439 0-2.736-4.272c1.36-.176 2.656-1.2 2.656-3.12 0-1.968-1.392-3.28-3.424-3.28h-4.496V25h1.6v-4.112h2L121.422 25h1.856Zm-1.728-7.392c0 1.12-.832 1.872-1.984 1.872h-2.688v-3.744h2.688c1.152 0 1.984.752 1.984 1.872Zm2.622 3.52c0 2.432 1.696 4.064 4 4.064 1.248 0 2.336-.4 3.104-1.152l-.672-.944c-.576.592-1.472.912-2.288.912-1.552 0-2.512-1.088-2.624-2.4h6.112v-.352c0-2.368-1.44-4.176-3.76-4.176-2.256 0-3.872 1.808-3.872 4.048Zm3.872-2.864c1.632 0 2.32 1.28 2.352 2.304h-4.72c.08-1.056.816-2.304 2.368-2.304ZM140.549 25V14.328h-1.44v4.064c-.624-.832-1.536-1.312-2.528-1.312-2.016 0-3.456 1.584-3.456 4.064 0 2.528 1.44 4.048 3.456 4.048 1.024 0 1.952-.528 2.528-1.296V25h1.44Zm-1.44-2.208c-.4.624-1.264 1.12-2.144 1.12-1.44 0-2.336-1.168-2.336-2.768 0-1.616.896-2.784 2.336-2.784.88 0 1.744.512 2.144 1.136v3.296Zm3.074 1.2c.784.8 1.92 1.2 3.216 1.2 2.032 0 3.12-1.04 3.12-2.368 0-1.776-1.6-2.144-2.944-2.448-.96-.224-1.792-.448-1.792-1.12 0-.624.608-1.008 1.584-1.008.976 0 1.84.4 2.288.944l.64-1.008c-.656-.624-1.616-1.104-2.944-1.104-1.888 0-2.944 1.056-2.944 2.288 0 1.664 1.536 2.016 2.848 2.32.992.224 1.872.48 1.872 1.248 0 .656-.576 1.104-1.664 1.104-1.04 0-2.064-.528-2.592-1.104l-.688 1.056ZM156.996 25v-5.456c0-1.632-.832-2.464-2.48-2.464-1.184 0-2.224.656-2.736 1.28v-4.032h-1.44V25h1.44v-5.52c.416-.576 1.232-1.12 2.128-1.12.992 0 1.648.384 1.648 1.664V25h1.44Zm3.001-9.024c.512 0 .928-.4.928-.912a.929.929 0 0 0-.928-.928.94.94 0 0 0-.928.928c0 .512.432.912.928.912Zm.736 9.024v-7.728h-1.44V25h1.44Zm5.654-6.464v-1.264h-1.568v-.512c0-.928.432-1.408 1.152-1.408.256 0 .496.064.688.176l.336-1.072c-.336-.192-.768-.288-1.264-.288-1.376 0-2.352.928-2.352 2.592v.512h-1.28v1.264h1.28V25h1.44v-6.464h1.568Zm3.502 6.656c.752 0 1.2-.208 1.504-.496l-.368-1.088c-.144.16-.448.304-.784.304-.496 0-.752-.4-.752-.944v-4.432h1.568v-1.264h-1.568V15.16h-1.44v2.112h-1.28v1.264h1.28v4.752c0 1.216.624 1.904 1.84 1.904Z" fill="#000"/>
  <defs>
    <clipPath id="a">
      <path fill="#fff" d="M0 0h40v40H0z"/>
    </clipPath>
  </defs>
</svg>
