<svg width="149" height="40" fill="none" xmlns="http://www.w3.org/2000/svg">
  <g clip-path="url(#a)">
    <path d="M37.607 8.886a3.06 3.06 0 0 0-1.514-1.747L21.672.238c-.37-.17-.775-.25-1.182-.238a4.991 4.991 0 0 0-1.182.094L4.893 7.045a2.522 2.522 0 0 0-1.42 1.748L-.075 24.346a2.984 2.984 0 0 0 .519 2.27l9.978 12.339c.58.578 1.347.93 2.163.995h15.884a2.356 2.356 0 0 0 2.162-.995l9.975-12.339c.465-.66.666-1.47.566-2.27l-3.604-15.46h.04Z" fill="#326DE6"/>
    <path d="M35.405 23.733c-.047 0-.093 0-.093-.047 0-.046-.094-.046-.188-.046a2.302 2.302 0 0 0-.566-.047.598.598 0 0 1-.284-.047h-.04a9.552 9.552 0 0 1-1.607-.285.57.57 0 0 1-.332-.331l-.36-.094c.162-1.39.087-2.797-.223-4.162a12.806 12.806 0 0 0-1.655-3.878l.285-.284v-.047a.66.66 0 0 1 .144-.41c.41-.357.853-.673 1.323-.945l.284-.14c.188-.094.332-.188.52-.285.046-.047.093-.047.14-.094.047-.047 0-.047 0-.094a.926.926 0 0 0 .187-1.322.904.904 0 0 0-.663-.332c-.24.007-.473.09-.663.238l-.047.047c-.047.047-.093.094-.14.094a3.06 3.06 0 0 0-.36.425c-.047.094-.141.14-.188.187a6.218 6.218 0 0 1-1.182 1.042.67.67 0 0 1-.285.093.285.285 0 0 1-.187-.046h-.047l-.36.237c-.36-.36-.804-.756-1.182-1.135a12.115 12.115 0 0 0-6.18-2.475l-.047-.36v.046a.649.649 0 0 1-.238-.36c-.018-.55.012-1.1.09-1.644v-.046c0-.094.047-.188.047-.285.047-.187.047-.36.094-.566V6.05a.937.937 0 0 0-.797-1.005.948.948 0 0 0-.785.36.933.933 0 0 0-.285.663v.238c.005.183.032.364.08.54.038.09.054.188.046.286v.046a8.9 8.9 0 0 1 .094 1.608.649.649 0 0 1-.238.36v.094l-.047.36c-.519.047-1.041.14-1.607.238a11.269 11.269 0 0 0-5.813 3.351l-.285-.187h-.046c-.047 0-.094.047-.188.047a.671.671 0 0 1-.284-.094 8.718 8.718 0 0 1-1.182-1.081c-.047-.094-.14-.14-.188-.188-.14-.14-.238-.284-.36-.425-.047-.046-.094-.046-.14-.093l-.048-.047a1.128 1.128 0 0 0-.68-.249.72.72 0 0 0-.664.332 1.016 1.016 0 0 0 .188 1.322.047.047 0 0 1 .047.047s.093.094.14.094c.168.104.34.2.519.284l.285.14c.48.266.925.59 1.326.963a.476.476 0 0 1 .14.425v-.064l.285.284c-.047.094-.094.14-.14.238a11.225 11.225 0 0 0-1.658 7.766l-.36.093a.047.047 0 0 1-.047.047.746.746 0 0 1-.332.332 8.781 8.781 0 0 1-1.607.284.599.599 0 0 0-.285.047c-.187 0-.36.047-.566.047-.046 0-.093.047-.187.047s-.047 0-.094.047a.923.923 0 0 0-.756 1.081.88.88 0 0 0 .944.663.426.426 0 0 0 .238-.047c.046 0 .046 0 .046-.047s.141 0 .188 0c.187-.047.36-.14.519-.187a.67.67 0 0 1 .284-.094h.047a8.423 8.423 0 0 1 1.56-.425h.048c.133 0 .261.05.36.14a.047.047 0 0 1 .047.047l.425-.046a11.412 11.412 0 0 0 3.877 5.538c.396.327.823.612 1.276.85l-.238.332a.047.047 0 0 0 .047.047.557.557 0 0 1 .047.472c-.206.481-.459.94-.757 1.37v.046a.828.828 0 0 1-.187.238c-.094.094-.188.285-.332.472-.047.047-.047.094-.093.14a.047.047 0 0 1-.047.048.973.973 0 0 0 .36 1.275.876.876 0 0 0 .332.094 1.059 1.059 0 0 0 .9-.573.047.047 0 0 1 .047-.047c0-.047.047-.093.094-.14.047-.188.14-.332.188-.52l.093-.284c.156-.508.363-1 .616-1.467a.72.72 0 0 1 .36-.284c.048 0 .048 0 .048-.047l.187-.36c1.31.51 2.706.766 4.112.756a9.466 9.466 0 0 0 2.551-.331 14.13 14.13 0 0 0 1.514-.425l.187.331c.047 0 .047 0 .047.047a.721.721 0 0 1 .36.285c.254.467.46.958.616 1.466v.047l.094.285c.034.182.097.357.187.519.047.047.047.093.094.14a.047.047 0 0 0 .047.047 1.059 1.059 0 0 0 .897.566c.125-.01.247-.043.36-.094a.792.792 0 0 0 .426-.519c.057-.24.041-.49-.047-.72a.047.047 0 0 0-.047-.047c0-.047-.047-.094-.093-.14a1.698 1.698 0 0 0-.332-.473.829.829 0 0 0-.187-.238v-.093a5.586 5.586 0 0 1-.757-1.37.559.559 0 0 1 .047-.472.047.047 0 0 1 .046-.047l-.14-.36a11.687 11.687 0 0 0 5.106-6.429l.36.047a.047.047 0 0 0 .047-.047.536.536 0 0 1 .36-.14h.17a7.943 7.943 0 0 1 1.514.425h.047a.671.671 0 0 0 .284.093c.164.1.338.179.52.238.046 0 .093.047.187.047.093 0 .046 0 .093.047a.426.426 0 0 0 .238.047 1.028 1.028 0 0 0 .944-.663 1.113 1.113 0 0 0-.85-.995l-.004-.029ZM21.74 22.267l-1.275.616-1.276-.616-.332-1.366.898-1.135h1.42l.897 1.135-.332 1.366Zm7.705-3.074c.227.976.29 1.983.187 2.98l-4.486-1.272a.776.776 0 0 1-.566-.944.762.762 0 0 1 .187-.332l3.546-3.214a9.62 9.62 0 0 1 1.135 2.782h-.003Zm-2.552-4.537-3.877 2.742a.803.803 0 0 1-1.034-.19.428.428 0 0 1-.14-.332l-.285-4.775a8.898 8.898 0 0 1 5.34 2.551l-.003.004Zm-8.555-2.404.945-.187-.238 4.728a.79.79 0 0 1-.804.757 1.116 1.116 0 0 1-.36-.094l-3.943-2.8a9.388 9.388 0 0 1 4.4-2.404Zm-5.765 4.162 3.499 3.121a.76.76 0 0 1 .094 1.081.533.533 0 0 1-.36.238L11.2 22.173a9.953 9.953 0 0 1 1.37-5.77l.003.012Zm-.808 7.982 4.685-.803a.774.774 0 0 1 .804.616.559.559 0 0 1-.047.472l-1.802 4.35a9.302 9.302 0 0 1-3.64-4.635Zm10.732 5.874a9.563 9.563 0 0 1-2.032.238 10.592 10.592 0 0 1-2.98-.472l2.335-4.223a.72.72 0 0 1 .944-.188c.131.098.252.21.36.332l2.27 4.111c-.302.05-.602.117-.897.202Zm5.766-4.111a9.028 9.028 0 0 1-2.836 2.836l-1.845-4.444a.768.768 0 0 1 .425-.897 1.38 1.38 0 0 1 .425-.094l4.728.804a7.098 7.098 0 0 1-.894 1.78l-.003.015Z" fill="#fff"/>
    <path d="M144.243 25.295c.373.026.746-.028 1.096-.16a.579.579 0 0 0 .313-.548.662.662 0 0 0-.417-.547 5.641 5.641 0 0 0-1.283-.548c-.411-.158-.812-.34-1.2-.549a3.544 3.544 0 0 1-.915-.624 2.466 2.466 0 0 1-.548-.888 3.296 3.296 0 0 1-.209-1.228 2.736 2.736 0 0 1 1.047-2.225 4.508 4.508 0 0 1 2.851-.811 7.994 7.994 0 0 1 1.754.18c.452.077.898.19 1.332.34l-.499 2.226c-.368-.132-.707-.209-1.097-.313a5.323 5.323 0 0 0-1.282-.131c-.888 0-1.332.235-1.332.734.005.106.024.211.055.313a.743.743 0 0 0 .235.263c.144.095.292.183.444.263.242.127.496.231.757.312a9.93 9.93 0 0 1 1.518.68c.363.175.684.426.943.734.235.241.406.537.499.86.104.357.157.726.159 1.097a2.51 2.51 0 0 1-1.124 2.247 5.556 5.556 0 0 1-3.135.756 7.946 7.946 0 0 1-2.226-.236 15.398 15.398 0 0 1-1.2-.367l.471-2.302c.475.188.965.336 1.464.444.548 0 1.019.077 1.54.077m-14.411-2.877a6.277 6.277 0 0 1 .395-2.302 4.949 4.949 0 0 1 1.096-1.672 4.135 4.135 0 0 1 1.519-.992 4.668 4.668 0 0 1 1.776-.34 4.387 4.387 0 0 1 3.349 1.31c.811.86 1.228 2.143 1.228 3.837.011.182.011.365 0 .548v.548h-6.468a1.88 1.88 0 0 0 .811 1.387 3.376 3.376 0 0 0 1.935.547 9.895 9.895 0 0 0 1.518-.131c.424-.08.837-.212 1.228-.395l.395 2.302a4.173 4.173 0 0 1-.603.236 5.079 5.079 0 0 1-.861.18c-.312.056-.625.105-.992.16-.367.054-.707.054-1.096.054a6.032 6.032 0 0 1-2.352-.394 4.231 4.231 0 0 1-2.615-2.74 8.458 8.458 0 0 1-.285-2.094m6.616-1.096a2.216 2.216 0 0 0-.131-.707 1.643 1.643 0 0 0-.313-.603 1.777 1.777 0 0 0-.548-.444 1.884 1.884 0 0 0-1.644 0 1.8 1.8 0 0 0-.548.417 1.864 1.864 0 0 0-.367.624c-.078.23-.132.467-.159.707h3.71m-14.251-6.483 2.823-.444v2.927h3.398v2.35h-3.398v3.503c-.031.491.077.981.312 1.414a1.389 1.389 0 0 0 1.283.548 5.174 5.174 0 0 0 1.803-.313l.395 2.193c-.375.15-.759.272-1.151.367a7.538 7.538 0 0 1-1.54.159 4.732 4.732 0 0 1-1.908-.313 3.08 3.08 0 0 1-1.2-.86 3.654 3.654 0 0 1-.653-1.36 6.629 6.629 0 0 1-.159-1.753v-8.49m-11.428 7.558a6.276 6.276 0 0 1 .394-2.302 4.937 4.937 0 0 1 1.097-1.671 4.13 4.13 0 0 1 1.518-.992 4.668 4.668 0 0 1 1.776-.34 4.386 4.386 0 0 1 3.278 1.283c.811.86 1.228 2.143 1.228 3.836.011.182.011.366 0 .548a3.856 3.856 0 0 0 0 .548h-6.43a1.878 1.878 0 0 0 .811 1.387 3.375 3.375 0 0 0 1.935.548 9.896 9.896 0 0 0 1.518-.132 5.796 5.796 0 0 0 1.256-.394l.394 2.302a4.085 4.085 0 0 1-.603.235 5.088 5.088 0 0 1-.86.181c-.313.055-.625.104-.992.159-.368.055-.707.055-1.097.055a6.03 6.03 0 0 1-2.351-.395 4.229 4.229 0 0 1-2.615-2.74 6.538 6.538 0 0 1-.285-2.094m6.616-1.096a2.244 2.244 0 0 0-.131-.707 1.645 1.645 0 0 0-.313-.603 1.79 1.79 0 0 0-.548-.444 1.883 1.883 0 0 0-1.644 0c-.209.1-.396.242-.548.417a1.885 1.885 0 0 0-.368.625c-.078.23-.131.466-.159.707h3.689m-17.305-3.656a22.246 22.246 0 0 1 1.859-.394 14.58 14.58 0 0 1 2.379-.181 5.758 5.758 0 0 1 2.094.34c.519.176.98.493 1.331.915.338.421.58.911.708 1.436.148.608.218 1.232.208 1.858v5.623h-2.796v-5.256a3.866 3.866 0 0 0-.367-1.935 1.477 1.477 0 0 0-1.332-.548 5.673 5.673 0 0 0-.652 0 3.955 3.955 0 0 0-.603.055v7.673h-2.829v-9.586Zm-1.99 2.192c-.262-.054-.547-.131-.887-.18a5.213 5.213 0 0 0-1.097-.105 5.958 5.958 0 0 0-1.2.16v7.606h-2.828v-9.508a13.77 13.77 0 0 1 1.776-.5 8.614 8.614 0 0 1 2.302-.235h.548c.22.002.438.027.652.077.209 0 .417.055.653.104.188.029.373.082.548.159l-.472 2.351m-17.54 2.565a6.268 6.268 0 0 1 .394-2.302 4.933 4.933 0 0 1 1.097-1.671 4.133 4.133 0 0 1 1.518-.992 4.674 4.674 0 0 1 1.776-.34 4.386 4.386 0 0 1 3.322 1.332c.811.86 1.228 2.143 1.228 3.792.011.183.011.366 0 .548a3.855 3.855 0 0 0 0 .548h-6.457a1.878 1.878 0 0 0 .81 1.387c.575.375 1.25.566 1.936.548a9.904 9.904 0 0 0 1.518-.132c.42-.082.831-.205 1.228-.367l.395 2.302a4.103 4.103 0 0 1-.603.236c-.281.085-.57.145-.861.18-.313.055-.625.105-.992.16-.367.054-.707.054-1.096.054a6.03 6.03 0 0 1-2.352-.394 4.226 4.226 0 0 1-2.615-2.74 9.535 9.535 0 0 1-.263-2.094m6.644-1.096a2.245 2.245 0 0 0-.132-.707 1.645 1.645 0 0 0-.312-.603 1.793 1.793 0 0 0-.548-.444 1.885 1.885 0 0 0-1.645 0 1.806 1.806 0 0 0-.548.416 1.885 1.885 0 0 0-.367.625 3.43 3.43 0 0 0-.16.707h3.712m-11.22.915c0-1.83-.68-2.74-2.012-2.74-.29-.004-.58.031-.86.104-.242.056-.472.153-.68.285v5.125c.13 0 .312.054.547.076.236.015.472.015.708 0a1.995 1.995 0 0 0 1.754-.783c.388-.635.58-1.372.548-2.116m2.877.104c.011.747-.113 1.49-.367 2.193a4.418 4.418 0 0 1-.992 1.644 4.742 4.742 0 0 1-1.644 1.096 6.255 6.255 0 0 1-2.193.367c-.34 0-.707 0-1.096-.055-.39-.055-.735-.077-1.096-.104-.362-.027-.68-.104-1.02-.18a3.418 3.418 0 0 1-.86-.236v-13.96l2.822-.443v4.965c.322-.131.654-.236.993-.312.36-.074.728-.109 1.096-.104a4.276 4.276 0 0 1 1.88.394c.546.232 1.03.589 1.414 1.041.391.484.677 1.044.839 1.645.16.693.239 1.403.236 2.115m-11.923 4.604c-.61.162-1.231.285-1.858.367-.787.125-1.582.186-2.379.18a5.803 5.803 0 0 1-2.116-.339 3.446 3.446 0 0 1-1.332-.943 3.919 3.919 0 0 1-.707-1.49 7.555 7.555 0 0 1-.208-1.88v-5.514h2.823v5.201a3.99 3.99 0 0 0 .367 1.963 1.431 1.431 0 0 0 1.332.602c.218.013.435.013.652 0a3.73 3.73 0 0 0 .603-.076v-7.673h2.823v9.624m-16.471-6.029c.285-.312.548-.625.86-.943.313-.317.548-.652.861-.97.312-.317.548-.624.784-.915.235-.29.471-.548.652-.756h3.333c-.68.756-1.332 1.518-1.963 2.225a50.03 50.03 0 0 1-2.093 2.192c.419.383.812.793 1.178 1.228.395.471.784.942 1.178 1.463.395.52.735 1.02 1.047 1.518.313.499.549.97.784 1.387H53.79c-.209-.34-.444-.68-.707-1.096-.263-.417-.549-.784-.812-1.2a12.925 12.925 0 0 0-.942-1.151 6.216 6.216 0 0 0-.943-.916v4.385h-2.818V13.056l2.823-.443v8.341" fill="#000"/>
  </g>
  <defs>
    <clipPath id="a">
      <path fill="#fff" d="M0 0h148.468v40H0z"/>
    </clipPath>
  </defs>
</svg>
