<svg width="702" height="226" fill="none" xmlns="http://www.w3.org/2000/svg"><path fill="#fff" d="M0 0h702v226H0z"/><g filter="url(#filter0_ddd)"><rect x="15.997" y="12" width="672.006" height="202" rx="7" fill="#fff"/></g><path d="M61.345 47.168c2.73 0 4.536-2.1 4.536-4.83s-1.806-4.83-4.536-4.83c-2.744 0-4.536 2.1-4.536 4.83s1.792 4.83 4.536 4.83zm0-.728c-2.268 0-3.696-1.75-3.696-4.102 0-2.38 1.428-4.102 3.696-4.102 2.24 0 3.696 1.722 3.696 4.102 0 2.352-1.456 4.102-3.696 4.102zm7.205.56v-4.928c.308-.588 1.232-1.204 1.918-1.204.14 0 .238 0 .364.028v-.798c-.938 0-1.708.546-2.282 1.302v-1.162h-.728V47h.728zm6.39 2.744c1.652 0 3.052-.742 3.052-2.814v-6.692h-.742v1.092c-.546-.77-1.386-1.26-2.352-1.26-1.792 0-3.024 1.4-3.024 3.542 0 2.17 1.232 3.528 3.024 3.528 1.008 0 1.876-.574 2.352-1.26v1.064c0 1.554-1.078 2.17-2.31 2.17-1.008 0-1.652-.252-2.24-.952l-.42.56c.798.812 1.526 1.022 2.66 1.022zm.084-3.262c-1.498 0-2.366-1.232-2.366-2.87 0-1.638.868-2.884 2.366-2.884.938 0 1.834.574 2.226 1.232v3.29c-.392.658-1.288 1.232-2.226 1.232zM85.276 47v-4.76c0-1.512-1.092-2.17-2.464-2.17-1.12 0-1.904.378-2.604 1.134l.406.504c.616-.7 1.274-.994 2.114-.994 1.008 0 1.82.546 1.82 1.554v1.372c-.588-.658-1.358-.966-2.296-.966-1.176 0-2.366.77-2.366 2.24 0 1.456 1.204 2.254 2.366 2.254.938 0 1.694-.308 2.296-.966V47h.728zm-2.772-.406c-1.12 0-1.848-.714-1.848-1.666 0-.966.728-1.68 1.848-1.68.812 0 1.568.322 2.044.938v1.484c-.476.616-1.232.924-2.044.924zM92.843 47v-4.732c0-1.526-.756-2.198-2.128-2.198-.98 0-1.946.602-2.436 1.19v-1.022h-.728V47h.728v-5.11c.434-.616 1.33-1.162 2.198-1.162.98 0 1.638.392 1.638 1.694V47h.728zm2.632-7.826c.308 0 .56-.252.56-.56a.55.55 0 00-.56-.546.559.559 0 00-.56.546c0 .308.266.56.56.56zM95.84 47v-6.762h-.728V47h.728zm6.915 0v-.644h-4.103l4.047-5.53v-.588h-4.942v.644h4.004l-4.005 5.516V47h4.999zm4.91.168c1.12 0 1.974-.392 2.646-1.092l-.378-.476c-.574.616-1.358.938-2.212.938-1.596 0-2.576-1.218-2.646-2.688h5.656v-.196c0-1.946-1.134-3.584-3.192-3.584-1.876 0-3.262 1.582-3.262 3.542 0 2.086 1.414 3.556 3.388 3.556zm2.324-3.892h-4.914c.056-1.176.854-2.576 2.45-2.576 1.694 0 2.45 1.428 2.464 2.576zM118.337 47v-9.338h-.742v3.668c-.546-.77-1.386-1.26-2.352-1.26-1.792 0-3.024 1.414-3.024 3.556 0 2.17 1.232 3.542 3.024 3.542a2.88 2.88 0 002.352-1.246V47h.742zm-2.968-.49c-1.498 0-2.366-1.246-2.366-2.884s.868-2.898 2.366-2.898c.952 0 1.834.574 2.226 1.232v3.346c-.392.644-1.274 1.204-2.226 1.204zm9.591.49v-4.928c.308-.588 1.232-1.204 1.918-1.204.14 0 .238 0 .364.028v-.798c-.938 0-1.708.546-2.282 1.302v-1.162h-.728V47h.728zm6.712.168c1.12 0 1.974-.392 2.646-1.092l-.378-.476c-.574.616-1.358.938-2.212.938-1.596 0-2.576-1.218-2.646-2.688h5.656v-.196c0-1.946-1.134-3.584-3.192-3.584-1.876 0-3.262 1.582-3.262 3.542 0 2.086 1.414 3.556 3.388 3.556zm2.324-3.892h-4.914c.056-1.176.854-2.576 2.45-2.576 1.694 0 2.45 1.428 2.464 2.576zm4.093 3.892c.56 0 .882-.168 1.148-.42l-.28-.56a1.056 1.056 0 01-.756.322c-.476 0-.7-.378-.7-.924v-4.704h1.372v-.644h-1.372V38.39h-.742v1.848h-1.12v.644h1.12v4.816c0 .924.434 1.47 1.33 1.47zm7.412-.168v-4.76c0-1.512-1.092-2.17-2.464-2.17-1.12 0-1.904.378-2.604 1.134l.406.504c.616-.7 1.274-.994 2.114-.994 1.008 0 1.82.546 1.82 1.554v1.372c-.588-.658-1.358-.966-2.296-.966-1.176 0-2.366.77-2.366 2.24 0 1.456 1.204 2.254 2.366 2.254.938 0 1.694-.308 2.296-.966V47h.728zm-2.772-.406c-1.12 0-1.848-.714-1.848-1.666 0-.966.728-1.68 1.848-1.68.812 0 1.568.322 2.044.938v1.484c-.476.616-1.232.924-2.044.924zm5.41-7.42c.308 0 .56-.252.56-.56a.55.55 0 00-.56-.546.559.559 0 00-.56.546c0 .308.266.56.56.56zm.364 7.826v-6.762h-.728V47h.728zm2.995 0v-9.338h-.728V47h.728zm8.787.168c1.176 0 1.848-.462 2.394-1.162l-.504-.448c-.49.672-1.106.952-1.848.952-1.582 0-2.548-1.274-2.548-2.898s.966-2.884 2.548-2.884c.742 0 1.358.266 1.848.938l.504-.448c-.546-.686-1.218-1.148-2.394-1.148-1.988 0-3.29 1.568-3.29 3.542 0 1.974 1.302 3.556 3.29 3.556zm4.748-.168v-4.928c.308-.588 1.232-1.204 1.918-1.204.14 0 .238 0 .364.028v-.798c-.938 0-1.708.546-2.282 1.302v-1.162h-.728V47h.728zm4.079-7.826c.308 0 .56-.252.56-.56a.55.55 0 00-.56-.546.559.559 0 00-.56.546c0 .308.266.56.56.56zm.364 7.826v-6.762h-.728V47h.728zm11.044 0v-4.872c0-1.358-.602-2.058-1.848-2.058-.952 0-1.862.644-2.24 1.274-.168-.658-.728-1.274-1.778-1.274-.98 0-1.904.756-2.184 1.19v-1.022h-.728V47h.728v-5.11c.406-.616 1.218-1.162 1.932-1.162.966 0 1.358.588 1.358 1.54V47h.742v-5.124c.378-.616 1.204-1.148 1.932-1.148.952 0 1.358.588 1.358 1.54V47h.728zm5.265.168c1.12 0 1.974-.392 2.646-1.092l-.378-.476c-.574.616-1.358.938-2.212.938-1.596 0-2.576-1.218-2.646-2.688h5.656v-.196c0-1.946-1.134-3.584-3.192-3.584-1.876 0-3.262 1.582-3.262 3.542 0 2.086 1.414 3.556 3.388 3.556zm2.324-3.892h-4.914c.056-1.176.854-2.576 2.45-2.576 1.694 0 2.45 1.428 2.464 2.576zm9.145 3.892c1.176 0 1.848-.462 2.394-1.162l-.504-.448c-.49.672-1.106.952-1.848.952-1.582 0-2.548-1.274-2.548-2.898s.966-2.884 2.548-2.884c.742 0 1.358.266 1.848.938l.504-.448c-.546-.686-1.218-1.148-2.394-1.148-1.988 0-3.29 1.568-3.29 3.542 0 1.974 1.302 3.556 3.29 3.556zm6.875 0c2.002 0 3.262-1.582 3.262-3.556s-1.26-3.542-3.262-3.542c-1.974 0-3.248 1.568-3.248 3.542 0 1.974 1.274 3.556 3.248 3.556zm0-.658c-1.568 0-2.464-1.386-2.464-2.898 0-1.498.896-2.884 2.464-2.884 1.596 0 2.478 1.386 2.478 2.884 0 1.512-.882 2.898-2.478 2.898zm7.159.658c1.694 0 2.534-.896 2.534-1.988 0-2.604-4.27-1.568-4.27-3.262 0-.7.644-1.232 1.694-1.232.896 0 1.624.364 2.016.896l.406-.518c-.49-.546-1.26-.994-2.422-.994-1.526 0-2.408.84-2.408 1.876 0 2.422 4.27 1.386 4.27 3.234 0 .784-.672 1.372-1.806 1.372-.952 0-1.75-.448-2.184-.994l-.434.546c.672.742 1.512 1.064 2.604 1.064zm5.879 0c.56 0 .882-.168 1.148-.42l-.28-.56a1.056 1.056 0 01-.756.322c-.476 0-.7-.378-.7-.924v-4.704h1.372v-.644h-1.372V38.39h-.742v1.848h-1.12v.644h1.12v4.816c0 .924.434 1.47 1.33 1.47zm6.737-.168v-4.928c.308-.588 1.232-1.204 1.918-1.204.14 0 .238 0 .364.028v-.798c-.938 0-1.708.546-2.282 1.302v-1.162h-.728V47h.728zm6.711.168c1.12 0 1.974-.392 2.646-1.092l-.378-.476c-.574.616-1.358.938-2.212.938-1.596 0-2.576-1.218-2.646-2.688h5.656v-.196c0-1.946-1.134-3.584-3.192-3.584-1.876 0-3.262 1.582-3.262 3.542 0 2.086 1.414 3.556 3.388 3.556zm2.324-3.892h-4.914c.056-1.176.854-2.576 2.45-2.576 1.694 0 2.45 1.428 2.464 2.576zm4.094 3.892c.56 0 .882-.168 1.148-.42l-.28-.56a1.056 1.056 0 01-.756.322c-.476 0-.7-.378-.7-.924v-4.704h1.372v-.644h-1.372V38.39h-.742v1.848h-1.12v.644h1.12v4.816c0 .924.434 1.47 1.33 1.47zm7.411-.168v-4.76c0-1.512-1.092-2.17-2.464-2.17-1.12 0-1.904.378-2.604 1.134l.406.504c.616-.7 1.274-.994 2.114-.994 1.008 0 1.82.546 1.82 1.554v1.372c-.588-.658-1.358-.966-2.296-.966-1.176 0-2.366.77-2.366 2.24 0 1.456 1.204 2.254 2.366 2.254.938 0 1.694-.308 2.296-.966V47h.728zm-2.772-.406c-1.12 0-1.848-.714-1.848-1.666 0-.966.728-1.68 1.848-1.68.812 0 1.568.322 2.044.938v1.484c-.476.616-1.232.924-2.044.924zm5.411-7.42c.308 0 .56-.252.56-.56a.55.55 0 00-.56-.546.559.559 0 00-.56.546c0 .308.266.56.56.56zm.364 7.826v-6.762h-.728V47h.728zm2.994 0v-9.338h-.728V47h.728zm5.262.168c1.12 0 1.974-.392 2.646-1.092l-.378-.476c-.574.616-1.358.938-2.212.938-1.596 0-2.576-1.218-2.646-2.688h5.656v-.196c0-1.946-1.134-3.584-3.192-3.584-1.876 0-3.262 1.582-3.262 3.542 0 2.086 1.414 3.556 3.388 3.556zm2.324-3.892h-4.914c.056-1.176.854-2.576 2.45-2.576 1.694 0 2.45 1.428 2.464 2.576zM261.378 47v-4.928c.308-.588 1.232-1.204 1.918-1.204.14 0 .238 0 .364.028v-.798c-.938 0-1.708.546-2.282 1.302v-1.162h-.728V47h.728zm5.732.168c1.694 0 2.534-.896 2.534-1.988 0-2.604-4.27-1.568-4.27-3.262 0-.7.644-1.232 1.694-1.232.896 0 1.624.364 2.016.896l.406-.518c-.49-.546-1.26-.994-2.422-.994-1.526 0-2.408.84-2.408 1.876 0 2.422 4.27 1.386 4.27 3.234 0 .784-.672 1.372-1.806 1.372-.952 0-1.75-.448-2.184-.994l-.434.546c.672.742 1.512 1.064 2.604 1.064zM280.169 47v-4.76c0-1.512-1.092-2.17-2.464-2.17-1.12 0-1.904.378-2.604 1.134l.406.504c.616-.7 1.274-.994 2.114-.994 1.008 0 1.82.546 1.82 1.554v1.372c-.588-.658-1.358-.966-2.296-.966-1.176 0-2.366.77-2.366 2.24 0 1.456 1.204 2.254 2.366 2.254.938 0 1.694-.308 2.296-.966V47h.728zm-2.772-.406c-1.12 0-1.848-.714-1.848-1.666 0-.966.728-1.68 1.848-1.68.812 0 1.568.322 2.044.938v1.484c-.476.616-1.232.924-2.044.924zm10.338.406v-4.732c0-1.526-.756-2.198-2.128-2.198-.98 0-1.946.602-2.436 1.19v-1.022h-.728V47h.728v-5.11c.434-.616 1.33-1.162 2.198-1.162.98 0 1.638.392 1.638 1.694V47h.728zm10.918 0v-4.76c0-1.512-1.092-2.17-2.464-2.17-1.12 0-1.904.378-2.604 1.134l.406.504c.616-.7 1.274-.994 2.114-.994 1.008 0 1.82.546 1.82 1.554v1.372c-.588-.658-1.358-.966-2.296-.966-1.176 0-2.366.77-2.366 2.24 0 1.456 1.204 2.254 2.366 2.254.938 0 1.694-.308 2.296-.966V47h.728zm-2.772-.406c-1.12 0-1.848-.714-1.848-1.666 0-.966.728-1.68 1.848-1.68.812 0 1.568.322 2.044.938v1.484c-.476.616-1.232.924-2.044.924zm7.693.406l2.856-6.762h-.826l-2.436 5.908-2.464-5.908h-.812L302.748 47h.826zm7.09.168c1.12 0 1.974-.392 2.646-1.092l-.378-.476c-.574.616-1.358.938-2.212.938-1.596 0-2.576-1.218-2.646-2.688h5.656v-.196c0-1.946-1.134-3.584-3.192-3.584-1.876 0-3.262 1.582-3.262 3.542 0 2.086 1.414 3.556 3.388 3.556zm2.324-3.892h-4.914c.056-1.176.854-2.576 2.45-2.576 1.694 0 2.45 1.428 2.464 2.576zM316.339 47v-4.928c.308-.588 1.232-1.204 1.918-1.204.14 0 .238 0 .364.028v-.798c-.938 0-1.708.546-2.282 1.302v-1.162h-.728V47h.728zm8.742 0v-4.76c0-1.512-1.092-2.17-2.464-2.17-1.12 0-1.904.378-2.604 1.134l.406.504c.616-.7 1.274-.994 2.114-.994 1.008 0 1.82.546 1.82 1.554v1.372c-.588-.658-1.358-.966-2.296-.966-1.176 0-2.366.77-2.366 2.24 0 1.456 1.204 2.254 2.366 2.254.938 0 1.694-.308 2.296-.966V47h.728zm-2.772-.406c-1.12 0-1.848-.714-1.848-1.666 0-.966.728-1.68 1.848-1.68.812 0 1.568.322 2.044.938v1.484c-.476.616-1.232.924-2.044.924zm7.721 3.15c1.652 0 3.052-.742 3.052-2.814v-6.692h-.742v1.092c-.546-.77-1.386-1.26-2.352-1.26-1.792 0-3.024 1.4-3.024 3.542 0 2.17 1.232 3.528 3.024 3.528 1.008 0 1.876-.574 2.352-1.26v1.064c0 1.554-1.078 2.17-2.31 2.17-1.008 0-1.652-.252-2.24-.952l-.42.56c.798.812 1.526 1.022 2.66 1.022zm.084-3.262c-1.498 0-2.366-1.232-2.366-2.87 0-1.638.868-2.884 2.366-2.884.938 0 1.834.574 2.226 1.232v3.29c-.392.658-1.288 1.232-2.226 1.232zm8.222.686c1.12 0 1.974-.392 2.646-1.092l-.378-.476c-.574.616-1.358.938-2.212.938-1.596 0-2.576-1.218-2.646-2.688h5.656v-.196c0-1.946-1.134-3.584-3.192-3.584-1.876 0-3.262 1.582-3.262 3.542 0 2.086 1.414 3.556 3.388 3.556zm2.324-3.892h-4.914c.056-1.176.854-2.576 2.45-2.576 1.694 0 2.45 1.428 2.464 2.576zm8.934 5.124h.644v-1.246c2.212-.14 2.94-1.484 2.94-2.632 0-1.792-1.498-2.324-2.94-2.73v-3.528c.854.098 1.624.462 2.198 1.148l.532-.588c-.658-.728-1.554-1.204-2.73-1.302v-1.274h-.644v1.274c-1.596.07-2.856 1.022-2.856 2.478 0 1.652 1.428 2.1 2.856 2.506v3.92a3.78 3.78 0 01-2.632-1.344l-.518.602c.672.826 1.736 1.4 3.15 1.47V48.4zm2.744-3.822c0 .742-.476 1.722-2.1 1.848v-3.738c1.134.336 2.1.756 2.1 1.89zm-4.76-4.62c0-.952.854-1.652 2.016-1.708v3.36c-1.092-.308-2.016-.672-2.016-1.652zm8.96 7.042l3.99-8.778v-.56h-6.118v.728h5.166l-3.92 8.61h.882zm7.587 0v-9.338h-.728l-2.058 2.17.49.518 1.498-1.596V47h.798zm4.951.154c2.576 0 3.57-2.422 3.57-4.816 0-2.506-.91-4.83-3.43-4.83-1.988 0-3.136 1.456-3.136 2.982 0 1.988 1.33 2.968 3.01 2.968 1.26 0 2.338-.924 2.744-1.568v.434c0 1.96-.7 4.102-2.758 4.102-1.022 0-1.596-.434-2.044-1.036l-.462.574c.546.7 1.288 1.19 2.506 1.19zm.154-4.424c-1.33 0-2.338-.728-2.338-2.254 0-1.008.756-2.24 2.352-2.24 1.75 0 2.422 1.624 2.534 2.898-.532.938-1.526 1.596-2.548 1.596zm5.948 4.074c0-.574-.336-.896-.714-.896a.606.606 0 00-.602.602c0 .336.238.588.574.588.042 0 .14-.014.14-.014-.028.434-.364.98-.812 1.288l.406.35c.546-.392 1.008-1.134 1.008-1.918zm5.022.364c1.722 0 3.15-1.148 3.15-3.01 0-1.946-1.414-2.982-2.982-2.982-.966 0-1.764.42-2.226.868V38.39h4.592v-.728h-5.39v4.9l.602.252c.686-.63 1.414-.91 2.268-.91 1.344 0 2.324.868 2.324 2.282 0 1.274-.994 2.254-2.338 2.254-1.204 0-2.016-.476-2.618-1.33l-.532.532c.644.924 1.596 1.526 3.15 1.526zm9.675-.168v-2.548h1.372v-.728h-1.372v-6.062h-1.078l-4.144 6.076v.714h4.424V47h.798zm-.798-3.276h-3.598l3.598-5.264v5.264zm6.664 3.444c1.792 0 3.164-.994 3.164-2.506 0-1.302-1.12-2.156-2.31-2.478 1.106-.294 2.17-1.008 2.17-2.254 0-1.652-1.568-2.408-3.024-2.408-1.484 0-3.024.756-3.024 2.408 0 1.246 1.064 1.96 2.17 2.254-1.19.322-2.324 1.176-2.324 2.478 0 1.526 1.372 2.506 3.178 2.506zm0-5.32c-.56-.112-2.212-.532-2.212-1.834 0-1.12.98-1.764 2.212-1.764 1.218 0 2.212.644 2.212 1.764 0 1.302-1.638 1.722-2.212 1.834zm0 4.592c-1.246 0-2.366-.7-2.366-1.834 0-1.428 1.792-1.988 2.366-2.058.56.07 2.366.63 2.366 2.058 0 1.134-1.148 1.834-2.366 1.834zm11.831.728c1.806 0 3.024-1.4 3.024-3.556 0-2.17-1.218-3.542-3.024-3.542a2.906 2.906 0 00-2.352 1.232v-1.064h-.728v9.338h.728v-3.668c.546.77 1.4 1.26 2.352 1.26zm-.126-.658c-.938 0-1.834-.588-2.226-1.232v-3.346c.392-.644 1.288-1.204 2.226-1.204 1.512 0 2.366 1.246 2.366 2.884s-.854 2.898-2.366 2.898zm7.986.658c1.12 0 1.974-.392 2.646-1.092l-.378-.476c-.574.616-1.358.938-2.212.938-1.596 0-2.576-1.218-2.646-2.688h5.656v-.196c0-1.946-1.134-3.584-3.192-3.584-1.876 0-3.262 1.582-3.262 3.542 0 2.086 1.414 3.556 3.388 3.556zm2.324-3.892h-4.914c.056-1.176.854-2.576 2.45-2.576 1.694 0 2.45 1.428 2.464 2.576zM421.107 47v-4.928c.308-.588 1.232-1.204 1.918-1.204.14 0 .238 0 .364.028v-.798c-.938 0-1.708.546-2.282 1.302v-1.162h-.728V47h.728zm10.026 1.4h.644v-1.246c2.212-.14 2.94-1.484 2.94-2.632 0-1.792-1.498-2.324-2.94-2.73v-3.528c.854.098 1.624.462 2.198 1.148l.532-.588c-.658-.728-1.554-1.204-2.73-1.302v-1.274h-.644v1.274c-1.596.07-2.856 1.022-2.856 2.478 0 1.652 1.428 2.1 2.856 2.506v3.92a3.78 3.78 0 01-2.632-1.344l-.518.602c.672.826 1.736 1.4 3.15 1.47V48.4zm2.744-3.822c0 .742-.476 1.722-2.1 1.848v-3.738c1.134.336 2.1.756 2.1 1.89zm-4.76-4.62c0-.952.854-1.652 2.016-1.708v3.36c-1.092-.308-2.016-.672-2.016-1.652zm9.52 7.042v-9.338h-.728l-2.058 2.17.49.518 1.498-1.596V47h.798zm6.642-1.694V41.96c.392-.644 1.288-1.232 2.226-1.232 1.512 0 2.366 1.26 2.366 2.898 0 1.638-.854 2.884-2.366 2.884-.938 0-1.834-.56-2.226-1.204zm0 1.694v-1.078a2.88 2.88 0 002.352 1.246c1.792 0 3.024-1.372 3.024-3.542 0-2.142-1.218-3.556-3.024-3.556-.952 0-1.806.49-2.352 1.26v-3.668h-.728V47h.728zm7.634-7.826c.308 0 .56-.252.56-.56a.55.55 0 00-.56-.546.559.559 0 00-.56.546c0 .308.266.56.56.56zm.364 7.826v-6.762h-.728V47h.728zm2.994 0v-9.338h-.728V47h.728zm2.994 0v-9.338h-.728V47h.728zm2.63-7.826c.308 0 .56-.252.56-.56a.55.55 0 00-.56-.546.559.559 0 00-.56.546c0 .308.266.56.56.56zm.364 7.826v-6.762h-.728V47h.728zm5.122.168c2.002 0 3.262-1.582 3.262-3.556s-1.26-3.542-3.262-3.542c-1.974 0-3.248 1.568-3.248 3.542 0 1.974 1.274 3.556 3.248 3.556zm0-.658c-1.568 0-2.464-1.386-2.464-2.898 0-1.498.896-2.884 2.464-2.884 1.596 0 2.478 1.386 2.478 2.884 0 1.512-.882 2.898-2.478 2.898zm10.434.49v-4.732c0-1.526-.756-2.198-2.128-2.198-.98 0-1.946.602-2.436 1.19v-1.022h-.728V47h.728v-5.11c.434-.616 1.33-1.162 2.198-1.162.98 0 1.638.392 1.638 1.694V47h.728zm6.256-7.826c.308 0 .56-.252.56-.56a.55.55 0 00-.56-.546.559.559 0 00-.56.546c0 .308.266.56.56.56zm.364 7.826v-6.762h-.728V47h.728zm7.558 0v-4.732c0-1.526-.756-2.198-2.128-2.198-.98 0-1.946.602-2.436 1.19v-1.022h-.728V47h.728v-5.11c.434-.616 1.33-1.162 2.198-1.162.98 0 1.638.392 1.638 1.694V47h.728zm7.908.168c1.694 0 2.534-.896 2.534-1.988 0-2.604-4.27-1.568-4.27-3.262 0-.7.644-1.232 1.694-1.232.896 0 1.624.364 2.016.896l.406-.518c-.49-.546-1.26-.994-2.422-.994-1.526 0-2.408.84-2.408 1.876 0 2.422 4.27 1.386 4.27 3.234 0 .784-.672 1.372-1.806 1.372-.952 0-1.75-.448-2.184-.994l-.434.546c.672.742 1.512 1.064 2.604 1.064zm9.436-.168v-4.76c0-1.512-1.092-2.17-2.464-2.17-1.12 0-1.904.378-2.604 1.134l.406.504c.616-.7 1.274-.994 2.114-.994 1.008 0 1.82.546 1.82 1.554v1.372c-.588-.658-1.358-.966-2.296-.966-1.176 0-2.366.77-2.366 2.24 0 1.456 1.204 2.254 2.366 2.254.938 0 1.694-.308 2.296-.966V47h.728zm-2.772-.406c-1.12 0-1.848-.714-1.848-1.666 0-.966.728-1.68 1.848-1.68.812 0 1.568.322 2.044.938v1.484c-.476.616-1.232.924-2.044.924zm5.774.406v-9.338h-.728V47h.728zm5.263.168c1.12 0 1.974-.392 2.646-1.092l-.378-.476c-.574.616-1.358.938-2.212.938-1.596 0-2.576-1.218-2.646-2.688h5.656v-.196c0-1.946-1.134-3.584-3.192-3.584-1.876 0-3.262 1.582-3.262 3.542 0 2.086 1.414 3.556 3.388 3.556zm2.324-3.892h-4.914c.056-1.176.854-2.576 2.45-2.576 1.694 0 2.45 1.428 2.464 2.576zm4.639 3.892c1.694 0 2.534-.896 2.534-1.988 0-2.604-4.27-1.568-4.27-3.262 0-.7.644-1.232 1.694-1.232.896 0 1.624.364 2.016.896l.406-.518c-.49-.546-1.26-.994-2.422-.994-1.526 0-2.408.84-2.408 1.876 0 2.422 4.27 1.386 4.27 3.234 0 .784-.672 1.372-1.806 1.372-.952 0-1.75-.448-2.184-.994l-.434.546c.672.742 1.512 1.064 2.604 1.064zm5.502-.364c0-.574-.336-.896-.714-.896a.606.606 0 00-.602.602c0 .336.238.588.574.588.042 0 .14-.014.14-.014-.028.434-.364.98-.812 1.288l.406.35c.546-.392 1.008-1.134 1.008-1.918zM62.423 75v-6.762h-.728v5.152c-.448.602-1.33 1.12-2.198 1.12-.98 0-1.638-.364-1.638-1.68v-4.592h-.728v4.76c0 1.526.742 2.17 2.128 2.17.98 0 1.876-.546 2.436-1.162V75h.728zm5.349.168c1.805 0 3.023-1.4 3.023-3.556 0-2.17-1.218-3.542-3.023-3.542a2.906 2.906 0 00-2.353 1.232v-1.064h-.727v9.338h.728v-3.668c.546.77 1.4 1.26 2.352 1.26zm-.127-.658c-.938 0-1.834-.588-2.225-1.232v-3.346c.391-.644 1.287-1.204 2.225-1.204 1.513 0 2.367 1.246 2.367 2.884s-.855 2.898-2.367 2.898zm9.579.49v-6.118h1.372v-.644h-1.372v-.616c0-.938.406-1.47 1.176-1.47.364 0 .644.14.868.35l.35-.504c-.434-.378-.812-.476-1.288-.476-1.134 0-1.834.784-1.834 2.1v.616h-1.12v.644h1.12V75h.728zm3.467 0v-4.928c.308-.588 1.232-1.204 1.918-1.204.14 0 .238 0 .364.028v-.798c-.938 0-1.708.546-2.282 1.302v-1.162h-.728V75h.728zm6.571.168c2.002 0 3.262-1.582 3.262-3.556s-1.26-3.542-3.262-3.542c-1.974 0-3.248 1.568-3.248 3.542 0 1.974 1.274 3.556 3.248 3.556zm0-.658c-1.568 0-2.464-1.386-2.464-2.898 0-1.498.896-2.884 2.464-2.884 1.596 0 2.478 1.386 2.478 2.884 0 1.512-.882 2.898-2.478 2.898zm13.92.49v-4.872c0-1.358-.602-2.058-1.848-2.058-.952 0-1.862.644-2.24 1.274-.168-.658-.728-1.274-1.778-1.274-.98 0-1.904.756-2.184 1.19v-1.022h-.728V75h.728v-5.11c.406-.616 1.218-1.162 1.932-1.162.966 0 1.358.588 1.358 1.54V75h.742v-5.124c.378-.616 1.204-1.148 1.932-1.148.952 0 1.358.588 1.358 1.54V75h.728zm8.58 1.4h.644v-1.246c2.212-.14 2.94-1.484 2.94-2.632 0-1.792-1.498-2.324-2.94-2.73v-3.528c.854.098 1.624.462 2.198 1.148l.532-.588c-.658-.728-1.554-1.204-2.73-1.302v-1.274h-.644v1.274c-1.596.07-2.856 1.022-2.856 2.478 0 1.652 1.428 2.1 2.856 2.506v3.92a3.78 3.78 0 01-2.632-1.344l-.518.602c.672.826 1.736 1.4 3.15 1.47V76.4zm2.744-3.822c0 .742-.476 1.722-2.1 1.848v-3.738c1.134.336 2.1.756 2.1 1.89zm-4.76-4.62c0-.952.854-1.652 2.016-1.708v3.36c-1.092-.308-2.016-.672-2.016-1.652zm8.96 7.042l3.99-8.778v-.56h-6.118v.728h5.166l-3.92 8.61h.882zm8.707.168c2.492 0 3.444-2.618 3.444-4.83 0-2.226-.952-4.816-3.444-4.816-2.52 0-3.458 2.59-3.458 4.816 0 2.212.938 4.83 3.458 4.83zm0-.728c-1.974 0-2.618-2.184-2.618-4.102 0-1.932.644-4.088 2.618-4.088 1.96 0 2.59 2.156 2.59 4.088 0 1.918-.644 4.102-2.59 4.102zm7.874.728c1.988 0 3.15-1.134 3.15-2.674s-1.33-2.24-2.142-2.324c.798-.14 2.002-.756 2.002-2.184 0-1.582-1.386-2.464-3.01-2.464-1.358 0-2.394.616-3.052 1.414l.504.504c.686-.77 1.442-1.19 2.506-1.19 1.204 0 2.24.644 2.24 1.806 0 1.246-1.134 1.778-2.366 1.778-.378 0-.728 0-.868-.014v.756c.14-.014.49-.014.868-.014 1.4 0 2.506.546 2.506 1.89 0 1.232-.91 1.988-2.352 1.988-1.19 0-2.1-.56-2.618-1.302l-.546.476c.532.84 1.652 1.554 3.178 1.554zm6.215-.364c0-.574-.336-.896-.714-.896a.606.606 0 00-.602.602c0 .336.238.588.574.588.042 0 .14-.014.14-.014-.028.434-.364.98-.812 1.288l.406.35c.546-.392 1.008-1.134 1.008-1.918zm4.463.364c1.988 0 3.15-1.134 3.15-2.674s-1.33-2.24-2.142-2.324c.798-.14 2.002-.756 2.002-2.184 0-1.582-1.386-2.464-3.01-2.464-1.358 0-2.394.616-3.052 1.414l.504.504c.686-.77 1.442-1.19 2.506-1.19 1.204 0 2.24.644 2.24 1.806 0 1.246-1.134 1.778-2.366 1.778-.378 0-.728 0-.868-.014v.756c.14-.014.49-.014.868-.014 1.4 0 2.506.546 2.506 1.89 0 1.232-.91 1.988-2.352 1.988-1.19 0-2.1-.56-2.618-1.302l-.546.476c.532.84 1.652 1.554 3.178 1.554zM154.898 75v-.728h-4.914c2.702-2.184 4.872-4.06 4.872-6.118 0-1.848-1.568-2.632-2.94-2.632-1.316 0-2.45.546-3.108 1.442l.546.504c.504-.714 1.4-1.218 2.562-1.218 1.022 0 2.128.56 2.128 1.904 0 1.806-2.128 3.626-5.306 6.188V75h6.16zm5.474.168c2.492 0 3.444-2.618 3.444-4.83 0-2.226-.952-4.816-3.444-4.816-2.52 0-3.458 2.59-3.458 4.816 0 2.212.938 4.83 3.458 4.83zm0-.728c-1.974 0-2.618-2.184-2.618-4.102 0-1.932.644-4.088 2.618-4.088 1.96 0 2.59 2.156 2.59 4.088 0 1.918-.644 4.102-2.59 4.102zm9.369-7.266c.308 0 .56-.252.56-.56a.55.55 0 00-.56-.546.559.559 0 00-.56.546c0 .308.266.56.56.56zm.364 7.826v-6.762h-.728V75h.728zm7.558 0v-4.732c0-1.526-.756-2.198-2.128-2.198-.98 0-1.946.602-2.436 1.19v-1.022h-.728V75h.728v-5.11c.434-.616 1.33-1.162 2.198-1.162.98 0 1.638.392 1.638 1.694V75h.728zm11.702 0v-.728h-4.914c2.702-2.184 4.872-4.06 4.872-6.118 0-1.848-1.568-2.632-2.94-2.632-1.316 0-2.45.546-3.108 1.442l.546.504c.504-.714 1.4-1.218 2.562-1.218 1.022 0 2.128.56 2.128 1.904 0 1.806-2.128 3.626-5.306 6.188V75h6.16zm5.474.168c2.492 0 3.444-2.618 3.444-4.83 0-2.226-.952-4.816-3.444-4.816-2.52 0-3.458 2.59-3.458 4.816 0 2.212.938 4.83 3.458 4.83zm0-.728c-1.974 0-2.618-2.184-2.618-4.102 0-1.932.644-4.088 2.618-4.088 1.96 0 2.59 2.156 2.59 4.088 0 1.918-.644 4.102-2.59 4.102zm7.398.56v-9.338h-.728l-2.058 2.17.49.518 1.498-1.596V75h.798zm4.95.154c2.576 0 3.57-2.422 3.57-4.816 0-2.506-.91-4.83-3.43-4.83-1.988 0-3.136 1.456-3.136 2.982 0 1.988 1.33 2.968 3.01 2.968 1.26 0 2.338-.924 2.744-1.568v.434c0 1.96-.7 4.102-2.758 4.102-1.022 0-1.596-.434-2.044-1.036l-.462.574c.546.7 1.288 1.19 2.506 1.19zm.154-4.424c-1.33 0-2.338-.728-2.338-2.254 0-1.008.756-2.24 2.352-2.24 1.75 0 2.422 1.624 2.534 2.898-.532.938-1.526 1.596-2.548 1.596zm5.248 4.41c.336 0 .63-.294.63-.63 0-.322-.294-.602-.63-.602a.619.619 0 00-.616.602c0 .336.28.63.616.63zm8.1 2.324c-.882-1.792-1.484-3.444-1.484-5.866 0-2.436.602-4.074 1.484-5.88l-.434-.308a11.13 11.13 0 00-1.862 6.188c0 2.254.658 4.368 1.862 6.188l.434-.322zm4.292-2.296c2.52 0 3.318-1.442 3.318-2.646 0-3.486-5.6-2.17-5.6-4.564 0-1.008.938-1.722 2.184-1.722 1.05 0 2.002.364 2.674 1.176l.532-.588c-.728-.826-1.764-1.316-3.164-1.316-1.694 0-3.066.966-3.066 2.492 0 3.262 5.6 1.834 5.6 4.578 0 .798-.546 1.862-2.464 1.862-1.33 0-2.31-.658-2.912-1.358l-.518.602c.714.868 1.876 1.484 3.416 1.484zm8.065 0c2.002 0 3.262-1.582 3.262-3.556s-1.26-3.542-3.262-3.542c-1.974 0-3.248 1.568-3.248 3.542 0 1.974 1.274 3.556 3.248 3.556zm0-.658c-1.568 0-2.464-1.386-2.464-2.898 0-1.498.896-2.884 2.464-2.884 1.596 0 2.478 1.386 2.478 2.884 0 1.512-.882 2.898-2.478 2.898zm10.434.49v-6.762h-.728v5.152c-.448.602-1.33 1.12-2.198 1.12-.98 0-1.638-.364-1.638-1.68v-4.592h-.728v4.76c0 1.526.742 2.17 2.128 2.17.98 0 1.876-.546 2.436-1.162V75h.728zm2.996 0v-4.928c.308-.588 1.232-1.204 1.918-1.204.14 0 .238 0 .364.028v-.798c-.938 0-1.708.546-2.282 1.302v-1.162h-.728V75h.728zm6.613.168c1.176 0 1.848-.462 2.394-1.162l-.504-.448c-.49.672-1.106.952-1.848.952-1.582 0-2.548-1.274-2.548-2.898s.966-2.884 2.548-2.884c.742 0 1.358.266 1.848.938l.504-.448c-.546-.686-1.218-1.148-2.394-1.148-1.988 0-3.29 1.568-3.29 3.542 0 1.974 1.302 3.556 3.29 3.556zm7.016 0c1.12 0 1.974-.392 2.646-1.092l-.378-.476c-.574.616-1.358.938-2.212.938-1.596 0-2.576-1.218-2.646-2.688h5.656v-.196c0-1.946-1.134-3.584-3.192-3.584-1.876 0-3.262 1.582-3.262 3.542 0 2.086 1.414 3.556 3.388 3.556zm2.324-3.892h-4.914c.056-1.176.854-2.576 2.45-2.576 1.694 0 2.45 1.428 2.464 2.576zm3.016-1.918c.336 0 .63-.28.63-.602a.634.634 0 00-.63-.616.621.621 0 00-.616.616c0 .322.28.602.616.602zm0 5.782c.336 0 .63-.294.63-.63 0-.322-.294-.602-.63-.602a.619.619 0 00-.616.602c0 .336.28.63.616.63zm13.783-.14v-9.338h-.798v7.91l-5.852-7.91h-.812V75h.798v-8.022l5.88 8.022h.784zm8.767 0l-2.702-3.92c1.386-.056 2.59-.994 2.59-2.688 0-1.708-1.232-2.73-2.842-2.73h-3.486V75h.798v-3.864h2.058L287.029 75h.966zm-3.024-4.592h-2.618V66.39h2.618c1.232 0 2.072.826 2.072 2.002 0 1.176-.84 2.016-2.072 2.016zM290.666 75v-4.424h5.026v-.728h-5.026V66.39h5.124v-.728h-5.922V75h.798zm6.3 2.786a11.143 11.143 0 000-12.376l-.434.308c.896 1.806 1.484 3.444 1.484 5.88 0 2.422-.588 4.074-1.484 5.866l.434.322zM57.956 103v-9.338h-.797V103h.798zm7.584 0v-4.732c0-1.526-.756-2.198-2.128-2.198-.98 0-1.946.602-2.436 1.19v-1.022h-.728V103h.728v-5.11c.434-.616 1.33-1.162 2.198-1.162.98 0 1.638.392 1.638 1.694V103h.728zm4.915 0l2.856-6.762h-.826l-2.436 5.908-2.464-5.908h-.812L69.629 103h.826zm7.09.168c1.12 0 1.974-.392 2.646-1.092l-.378-.476c-.574.616-1.358.938-2.212.938-1.596 0-2.576-1.218-2.646-2.688h5.656v-.196c0-1.946-1.134-3.584-3.192-3.584-1.876 0-3.262 1.582-3.262 3.542 0 2.086 1.414 3.556 3.388 3.556zm2.324-3.892h-4.914c.056-1.176.854-2.576 2.45-2.576 1.694 0 2.45 1.428 2.464 2.576zM87.784 103v-4.732c0-1.526-.756-2.198-2.128-2.198-.98 0-1.946.602-2.436 1.19v-1.022h-.728V103h.728v-5.11c.434-.616 1.33-1.162 2.198-1.162.98 0 1.638.392 1.638 1.694V103h.728zm3.739.168c.56 0 .882-.168 1.148-.42l-.28-.56a1.056 1.056 0 01-.756.322c-.476 0-.7-.378-.7-.924v-4.704h1.372v-.644h-1.372V94.39h-.742v1.848h-1.12v.644h1.12v4.816c0 .924.434 1.47 1.33 1.47zm5.241 0c2.002 0 3.262-1.582 3.262-3.556s-1.26-3.542-3.262-3.542c-1.974 0-3.248 1.568-3.248 3.542 0 1.974 1.274 3.556 3.248 3.556zm0-.658c-1.568 0-2.464-1.386-2.464-2.898 0-1.498.896-2.884 2.464-2.884 1.596 0 2.478 1.386 2.478 2.884 0 1.512-.882 2.898-2.478 2.898zm5.87.49v-4.928c.308-.588 1.232-1.204 1.918-1.204.14 0 .238 0 .364.028v-.798c-.938 0-1.708.546-2.282 1.302v-1.162h-.728V103h.728zm3.268 2.646c.182.056.49.098.714.098.798 0 1.372-.406 1.736-1.26l3.5-8.246h-.826l-2.436 5.908-2.464-5.908h-.812l2.856 6.818-.532 1.204c-.266.644-.574.826-1.022.826-.168 0-.434-.042-.588-.112l-.126.672zm12.827-2.478c1.694 0 2.534-.896 2.534-1.988 0-2.604-4.27-1.568-4.27-3.262 0-.7.644-1.232 1.694-1.232.896 0 1.624.364 2.016.896l.406-.518c-.49-.546-1.26-.994-2.422-.994-1.526 0-2.408.84-2.408 1.876 0 2.422 4.27 1.386 4.27 3.234 0 .784-.672 1.372-1.806 1.372-.952 0-1.75-.448-2.184-.994l-.434.546c.672.742 1.512 1.064 2.604 1.064zm9.702-.168v-4.76c0-1.526-.756-2.17-2.128-2.17-.98 0-1.946.602-2.436 1.19v-3.598h-.728V103h.728v-5.11c.434-.616 1.33-1.162 2.198-1.162.98 0 1.638.364 1.638 1.666V103h.728zm2.996 0v-4.928c.308-.588 1.232-1.204 1.918-1.204.14 0 .238 0 .364.028v-.798c-.938 0-1.708.546-2.282 1.302v-1.162h-.728V103h.728zm4.08-7.826c.308 0 .56-.252.56-.56a.55.55 0 00-.56-.546.559.559 0 00-.56.546c0 .308.266.56.56.56zm.364 7.826v-6.762h-.728V103h.728zm7.558 0v-4.732c0-1.526-.756-2.198-2.128-2.198-.98 0-1.946.602-2.436 1.19v-1.022h-.728V103h.728v-5.11c.434-.616 1.33-1.162 2.198-1.162.98 0 1.638.392 1.638 1.694V103h.728zm7.938 0l-3.136-3.71 3.15-3.052h-.966l-3.99 3.864v-6.44h-.728V103h.728v-2.03l1.26-1.19 2.702 3.22h.98zm7.92.168c1.176 0 1.848-.462 2.394-1.162l-.504-.448c-.49.672-1.106.952-1.848.952-1.582 0-2.548-1.274-2.548-2.898s.966-2.884 2.548-2.884c.742 0 1.358.266 1.848.938l.504-.448c-.546-.686-1.218-1.148-2.394-1.148-1.988 0-3.29 1.568-3.29 3.542 0 1.974 1.302 3.556 3.29 3.556zm6.876 0c2.002 0 3.262-1.582 3.262-3.556s-1.26-3.542-3.262-3.542c-1.974 0-3.248 1.568-3.248 3.542 0 1.974 1.274 3.556 3.248 3.556zm0-.658c-1.568 0-2.464-1.386-2.464-2.898 0-1.498.896-2.884 2.464-2.884 1.596 0 2.478 1.386 2.478 2.884 0 1.512-.882 2.898-2.478 2.898zm7.158.658c1.694 0 2.534-.896 2.534-1.988 0-2.604-4.27-1.568-4.27-3.262 0-.7.644-1.232 1.694-1.232.896 0 1.624.364 2.016.896l.406-.518c-.49-.546-1.26-.994-2.422-.994-1.526 0-2.408.84-2.408 1.876 0 2.422 4.27 1.386 4.27 3.234 0 .784-.672 1.372-1.806 1.372-.952 0-1.75-.448-2.184-.994l-.434.546c.672.742 1.512 1.064 2.604 1.064zm5.88 0c.56 0 .882-.168 1.148-.42l-.28-.56a1.056 1.056 0 01-.756.322c-.476 0-.7-.378-.7-.924v-4.704h1.372v-.644h-1.372V94.39h-.742v1.848h-1.12v.644h1.12v4.816c0 .924.434 1.47 1.33 1.47zm7.478 0c.56 0 .882-.168 1.148-.42l-.28-.56a1.056 1.056 0 01-.756.322c-.476 0-.7-.378-.7-.924v-4.704h1.372v-.644h-1.372V94.39h-.742v1.848h-1.12v.644h1.12v4.816c0 .924.434 1.47 1.33 1.47zm7.678-.168v-4.76c0-1.526-.756-2.17-2.128-2.17-.98 0-1.946.602-2.436 1.19v-3.598h-.728V103h.728v-5.11c.434-.616 1.33-1.162 2.198-1.162.98 0 1.638.364 1.638 1.666V103h.728zm5.264.168c1.12 0 1.974-.392 2.646-1.092l-.378-.476c-.574.616-1.358.938-2.212.938-1.596 0-2.576-1.218-2.646-2.688h5.656v-.196c0-1.946-1.134-3.584-3.192-3.584-1.876 0-3.262 1.582-3.262 3.542 0 2.086 1.414 3.556 3.388 3.556zm2.324-3.892h-4.914c.056-1.176.854-2.576 2.45-2.576 1.694 0 2.45 1.428 2.464 2.576zm9.914 3.892c2.408 0 3.64-1.442 3.64-3.752v-5.754h-.812v5.74c0 1.89-.98 3.038-2.828 3.038-1.834 0-2.828-1.148-2.828-3.038v-5.74h-.812v5.754c0 2.296 1.246 3.752 3.64 3.752zm8.856 0c2.52 0 3.318-1.442 3.318-2.646 0-3.486-5.6-2.17-5.6-4.564 0-1.008.938-1.722 2.184-1.722 1.05 0 2.002.364 2.674 1.176l.532-.588c-.728-.826-1.764-1.316-3.164-1.316-1.694 0-3.066.966-3.066 2.492 0 3.262 5.6 1.834 5.6 4.578 0 .798-.546 1.862-2.464 1.862-1.33 0-2.31-.658-2.912-1.358l-.518.602c.714.868 1.876 1.484 3.416 1.484zm9.56-.168v-4.928c.308-.588 1.232-1.204 1.918-1.204.14 0 .238 0 .364.028v-.798c-.938 0-1.708.546-2.282 1.302v-1.162h-.728V103h.728zm6.711.168c1.12 0 1.974-.392 2.646-1.092l-.378-.476c-.574.616-1.358.938-2.212.938-1.596 0-2.576-1.218-2.646-2.688h5.656v-.196c0-1.946-1.134-3.584-3.192-3.584-1.876 0-3.262 1.582-3.262 3.542 0 2.086 1.414 3.556 3.388 3.556zm2.324-3.892h-4.914c.056-1.176.854-2.576 2.45-2.576 1.694 0 2.45 1.428 2.464 2.576zm4.094 3.892c.56 0 .882-.168 1.148-.42l-.28-.56a1.056 1.056 0 01-.756.322c-.476 0-.7-.378-.7-.924v-4.704h1.372v-.644h-1.372V94.39h-.742v1.848h-1.12v.644h1.12v4.816c0 .924.434 1.47 1.33 1.47zm7.411-.168v-4.76c0-1.512-1.092-2.17-2.464-2.17-1.12 0-1.904.378-2.604 1.134l.406.504c.616-.7 1.274-.994 2.114-.994 1.008 0 1.82.546 1.82 1.554v1.372c-.588-.658-1.358-.966-2.296-.966-1.176 0-2.366.77-2.366 2.24 0 1.456 1.204 2.254 2.366 2.254.938 0 1.694-.308 2.296-.966V103h.728zm-2.772-.406c-1.12 0-1.848-.714-1.848-1.666 0-.966.728-1.68 1.848-1.68.812 0 1.568.322 2.044.938v1.484c-.476.616-1.232.924-2.044.924zm5.411-7.42c.308 0 .56-.252.56-.56a.55.55 0 00-.56-.546.559.559 0 00-.56.546c0 .308.266.56.56.56zm.364 7.826v-6.762h-.728V103h.728zm2.994 0v-9.338h-.728V103h.728zm6.253-7.826c.308 0 .56-.252.56-.56a.55.55 0 00-.56-.546.559.559 0 00-.56.546c0 .308.266.56.56.56zm.364 7.826v-6.762h-.728V103h.728zm7.558 0v-4.732c0-1.526-.756-2.198-2.128-2.198-.98 0-1.946.602-2.436 1.19v-1.022h-.728V103h.728v-5.11c.434-.616 1.33-1.162 2.198-1.162.98 0 1.638.392 1.638 1.694V103h.728zm7.995 0v-9.338h-.742v3.668c-.546-.77-1.386-1.26-2.352-1.26-1.792 0-3.024 1.414-3.024 3.556 0 2.17 1.232 3.542 3.024 3.542a2.88 2.88 0 002.352-1.246V103h.742zm-2.968-.49c-1.498 0-2.366-1.246-2.366-2.884s.868-2.898 2.366-2.898c.952 0 1.834.574 2.226 1.232v3.346c-.392.644-1.274 1.204-2.226 1.204zm10.532.49v-6.762h-.728v5.152c-.448.602-1.33 1.12-2.198 1.12-.98 0-1.638-.364-1.638-1.68v-4.592h-.728v4.76c0 1.526.742 2.17 2.128 2.17.98 0 1.876-.546 2.436-1.162V103h.728zm4.285.168c1.694 0 2.534-.896 2.534-1.988 0-2.604-4.27-1.568-4.27-3.262 0-.7.644-1.232 1.694-1.232.896 0 1.624.364 2.016.896l.406-.518c-.49-.546-1.26-.994-2.422-.994-1.526 0-2.408.84-2.408 1.876 0 2.422 4.27 1.386 4.27 3.234 0 .784-.672 1.372-1.806 1.372-.952 0-1.75-.448-2.184-.994l-.434.546c.672.742 1.512 1.064 2.604 1.064zm5.879 0c.56 0 .882-.168 1.148-.42l-.28-.56a1.056 1.056 0 01-.756.322c-.476 0-.7-.378-.7-.924v-4.704h1.372v-.644h-1.372V94.39h-.742v1.848h-1.12v.644h1.12v4.816c0 .924.434 1.47 1.33 1.47zm3.114-.168v-4.928c.308-.588 1.232-1.204 1.918-1.204.14 0 .238 0 .364.028v-.798c-.938 0-1.708.546-2.282 1.302v-1.162h-.728V103h.728zm3.267 2.646c.182.056.49.098.714.098.798 0 1.372-.406 1.736-1.26l3.5-8.246h-.826l-2.436 5.908-2.464-5.908h-.812l2.856 6.818-.532 1.204c-.266.644-.574.826-1.022.826-.168 0-.434-.042-.588-.112l-.126.672zm13.499-1.246h.644v-1.246c2.212-.14 2.94-1.484 2.94-2.632 0-1.792-1.498-2.324-2.94-2.73v-3.528c.854.098 1.624.462 2.198 1.148l.532-.588c-.658-.728-1.554-1.204-2.73-1.302v-1.274h-.644v1.274c-1.596.07-2.856 1.022-2.856 2.478 0 1.652 1.428 2.1 2.856 2.506v3.92a3.78 3.78 0 01-2.632-1.344l-.518.602c.672.826 1.736 1.4 3.15 1.47v1.246zm2.744-3.822c0 .742-.476 1.722-2.1 1.848v-3.738c1.134.336 2.1.756 2.1 1.89zm-4.76-4.62c0-.952.854-1.652 2.016-1.708v3.36c-1.092-.308-2.016-.672-2.016-1.652zM326.656 103v-2.548h1.372v-.728h-1.372v-6.062h-1.078l-4.144 6.076v.714h4.424V103h.798zm-.798-3.276h-3.598l3.598-5.264v5.264zm6.902 3.444c1.988 0 3.136-1.456 3.136-2.982 0-1.988-1.33-2.954-3.01-2.954-1.26 0-2.338.91-2.73 1.554-.014-.14-.014-.294-.014-.434 0-1.988.742-4.102 2.758-4.102 1.022 0 1.596.434 2.044 1.05l.476-.588c-.56-.7-1.302-1.19-2.52-1.19-2.576 0-3.57 2.422-3.57 4.816 0 2.506.91 4.83 3.43 4.83zm-.028-.728c-1.75 0-2.422-1.624-2.534-2.898.532-.938 1.526-1.596 2.548-1.596 1.344 0 2.338.728 2.338 2.254 0 1.008-.756 2.24-2.352 2.24zm5.488.7c.336 0 .63-.294.63-.63 0-.322-.294-.602-.63-.602a.619.619 0 00-.616.602c0 .336.28.63.616.63zm5.541.028c1.792 0 3.164-.994 3.164-2.506 0-1.302-1.12-2.156-2.31-2.478 1.106-.294 2.17-1.008 2.17-2.254 0-1.652-1.568-2.408-3.024-2.408-1.484 0-3.024.756-3.024 2.408 0 1.246 1.064 1.96 2.17 2.254-1.19.322-2.324 1.176-2.324 2.478 0 1.526 1.372 2.506 3.178 2.506zm0-5.32c-.56-.112-2.212-.532-2.212-1.834 0-1.12.98-1.764 2.212-1.764 1.218 0 2.212.644 2.212 1.764 0 1.302-1.638 1.722-2.212 1.834zm0 4.592c-1.246 0-2.366-.7-2.366-1.834 0-1.428 1.792-1.988 2.366-2.058.56.07 2.366.63 2.366 2.058 0 1.134-1.148 1.834-2.366 1.834zm9.479-1.134V97.96c.392-.644 1.288-1.232 2.226-1.232 1.512 0 2.366 1.26 2.366 2.898 0 1.638-.854 2.884-2.366 2.884-.938 0-1.834-.56-2.226-1.204zm0 1.694v-1.078a2.88 2.88 0 002.352 1.246c1.792 0 3.024-1.372 3.024-3.542 0-2.142-1.218-3.556-3.024-3.556-.952 0-1.806.49-2.352 1.26v-3.668h-.728V103h.728zm7.634-7.826c.308 0 .56-.252.56-.56a.55.55 0 00-.56-.546.559.559 0 00-.56.546c0 .308.266.56.56.56zm.364 7.826v-6.762h-.728V103h.728zm2.994 0v-9.338h-.728V103h.728zm2.994 0v-9.338h-.728V103h.728zm2.63-7.826c.308 0 .56-.252.56-.56a.55.55 0 00-.56-.546.559.559 0 00-.56.546c0 .308.266.56.56.56zm.364 7.826v-6.762h-.728V103h.728zm5.122.168c2.002 0 3.262-1.582 3.262-3.556s-1.26-3.542-3.262-3.542c-1.974 0-3.248 1.568-3.248 3.542 0 1.974 1.274 3.556 3.248 3.556zm0-.658c-1.568 0-2.464-1.386-2.464-2.898 0-1.498.896-2.884 2.464-2.884 1.596 0 2.478 1.386 2.478 2.884 0 1.512-.882 2.898-2.478 2.898zm10.434.49v-4.732c0-1.526-.756-2.198-2.128-2.198-.98 0-1.946.602-2.436 1.19v-1.022h-.728V103h.728v-5.11c.434-.616 1.33-1.162 2.198-1.162.98 0 1.638.392 1.638 1.694V103h.728zm2.661.14c.336 0 .63-.294.63-.63 0-.322-.294-.602-.63-.602a.619.619 0 00-.616.602c0 .336.28.63.616.63zm8.1 2.324c-.882-1.792-1.484-3.444-1.484-5.866 0-2.436.602-4.074 1.484-5.88l-.434-.308a11.13 11.13 0 00-1.862 6.188c0 2.254.658 4.368 1.862 6.188l.434-.322zm4.291-2.296c2.52 0 3.318-1.442 3.318-2.646 0-3.486-5.6-2.17-5.6-4.564 0-1.008.938-1.722 2.184-1.722 1.05 0 2.002.364 2.674 1.176l.532-.588c-.728-.826-1.764-1.316-3.164-1.316-1.694 0-3.066.966-3.066 2.492 0 3.262 5.6 1.834 5.6 4.578 0 .798-.546 1.862-2.464 1.862-1.33 0-2.31-.658-2.912-1.358l-.518.602c.714.868 1.876 1.484 3.416 1.484zm8.065 0c2.002 0 3.262-1.582 3.262-3.556s-1.26-3.542-3.262-3.542c-1.974 0-3.248 1.568-3.248 3.542 0 1.974 1.274 3.556 3.248 3.556zm0-.658c-1.568 0-2.464-1.386-2.464-2.898 0-1.498.896-2.884 2.464-2.884 1.596 0 2.478 1.386 2.478 2.884 0 1.512-.882 2.898-2.478 2.898zm10.434.49v-6.762h-.728v5.152c-.448.602-1.33 1.12-2.198 1.12-.98 0-1.638-.364-1.638-1.68v-4.592h-.728v4.76c0 1.526.742 2.17 2.128 2.17.98 0 1.876-.546 2.436-1.162V103h.728zm2.997 0v-4.928c.308-.588 1.232-1.204 1.918-1.204.14 0 .238 0 .364.028v-.798c-.938 0-1.708.546-2.282 1.302v-1.162h-.728V103h.728zm6.613.168c1.176 0 1.848-.462 2.394-1.162l-.504-.448c-.49.672-1.106.952-1.848.952-1.582 0-2.548-1.274-2.548-2.898s.966-2.884 2.548-2.884c.742 0 1.358.266 1.848.938l.504-.448c-.546-.686-1.218-1.148-2.394-1.148-1.988 0-3.29 1.568-3.29 3.542 0 1.974 1.302 3.556 3.29 3.556zm7.016 0c1.12 0 1.974-.392 2.646-1.092l-.378-.476c-.574.616-1.358.938-2.212.938-1.596 0-2.576-1.218-2.646-2.688h5.656v-.196c0-1.946-1.134-3.584-3.192-3.584-1.876 0-3.262 1.582-3.262 3.542 0 2.086 1.414 3.556 3.388 3.556zm2.324-3.892h-4.914c.056-1.176.854-2.576 2.45-2.576 1.694 0 2.45 1.428 2.464 2.576zm3.015-1.918c.336 0 .63-.28.63-.602a.634.634 0 00-.63-.616.621.621 0 00-.616.616c0 .322.28.602.616.602zm0 5.782c.336 0 .63-.294.63-.63 0-.322-.294-.602-.63-.602a.619.619 0 00-.616.602c0 .336.28.63.616.63zm13.784-.14v-9.338h-.798v7.91l-5.852-7.91h-.812V103h.798v-8.022l5.88 8.022h.784zm8.767 0l-2.702-3.92c1.386-.056 2.59-.994 2.59-2.688 0-1.708-1.232-2.73-2.842-2.73h-3.486V103h.798v-3.864h2.058l2.618 3.864h.966zm-3.024-4.592h-2.618V94.39h2.618c1.232 0 2.072.826 2.072 2.002 0 1.176-.84 2.016-2.072 2.016zm5.695 4.592v-4.424h5.026v-.728h-5.026V94.39h5.124v-.728h-5.922V103h.798zm13.31.168c2.52 0 3.318-1.442 3.318-2.646 0-3.486-5.6-2.17-5.6-4.564 0-1.008.938-1.722 2.184-1.722 1.05 0 2.002.364 2.674 1.176l.532-.588c-.728-.826-1.764-1.316-3.164-1.316-1.694 0-3.066.966-3.066 2.492 0 3.262 5.6 1.834 5.6 4.578 0 .798-.546 1.862-2.464 1.862-1.33 0-2.31-.658-2.912-1.358l-.518.602c.714.868 1.876 1.484 3.416 1.484zm10.501-.168v-6.762h-.728v5.152c-.448.602-1.33 1.12-2.198 1.12-.98 0-1.638-.364-1.638-1.68v-4.592h-.728v4.76c0 1.526.742 2.17 2.128 2.17.98 0 1.876-.546 2.436-1.162V103h.728zm2.997 0v-4.928c.308-.588 1.232-1.204 1.918-1.204.14 0 .238 0 .364.028v-.798c-.938 0-1.708.546-2.282 1.302v-1.162h-.728V103h.728zm6.361 0l2.856-6.762h-.826l-2.436 5.908-2.464-5.908h-.812l2.856 6.762h.826zm7.09.168c1.12 0 1.974-.392 2.646-1.092l-.378-.476c-.574.616-1.358.938-2.212.938-1.596 0-2.576-1.218-2.646-2.688h5.656v-.196c0-1.946-1.134-3.584-3.192-3.584-1.876 0-3.262 1.582-3.262 3.542 0 2.086 1.414 3.556 3.388 3.556zm2.324-3.892h-4.914c.056-1.176.854-2.576 2.45-2.576 1.694 0 2.45 1.428 2.464 2.576zm2.176 6.37c.182.056.49.098.714.098.798 0 1.372-.406 1.736-1.26l3.5-8.246h-.826l-2.436 5.908-2.464-5.908h-.812l2.856 6.818-.532 1.204c-.266.644-.574.826-1.022.826-.168 0-.434-.042-.588-.112l-.126.672zm6.726.14a11.143 11.143 0 000-12.376l-.434.308c.896 1.806 1.484 3.444 1.484 5.88 0 2.422-.588 4.074-1.484 5.866l.434.322zM60.351 131v-8.61h3.052v-.728h-6.916v.728h3.052V131h.812zm9.974 0v-4.76c0-1.526-.756-2.17-2.128-2.17-.98 0-1.946.602-2.436 1.19v-3.598h-.728V131h.728v-5.11c.434-.616 1.33-1.162 2.198-1.162.98 0 1.638.364 1.638 1.666V131h.728zm5.265.168c1.12 0 1.974-.392 2.646-1.092l-.378-.476c-.574.616-1.358.938-2.212.938-1.596 0-2.576-1.218-2.646-2.688h5.656v-.196c0-1.946-1.134-3.584-3.192-3.584-1.876 0-3.262 1.582-3.262 3.542 0 2.086 1.414 3.556 3.388 3.556zm2.324-3.892H73c.056-1.176.854-2.576 2.45-2.576 1.694 0 2.45 1.428 2.464 2.576zM89.186 131v-4.76c0-1.512-1.092-2.17-2.464-2.17-1.12 0-1.904.378-2.604 1.134l.406.504c.616-.7 1.274-.994 2.114-.994 1.008 0 1.82.546 1.82 1.554v1.372c-.588-.658-1.358-.966-2.296-.966-1.176 0-2.366.77-2.366 2.24 0 1.456 1.204 2.254 2.366 2.254.938 0 1.694-.308 2.296-.966V131h.728zm-2.772-.406c-1.12 0-1.848-.714-1.848-1.666 0-.966.728-1.68 1.848-1.68.812 0 1.568.322 2.044.938v1.484c-.476.616-1.232.924-2.044.924zm7.693.406l2.856-6.762h-.826l-2.436 5.908-2.464-5.908h-.812L93.281 131h.826zm7.09.168c1.12 0 1.974-.392 2.646-1.092l-.378-.476c-.574.616-1.358.938-2.212.938-1.596 0-2.576-1.218-2.646-2.688h5.656v-.196c0-1.946-1.134-3.584-3.192-3.584-1.876 0-3.262 1.582-3.262 3.542 0 2.086 1.414 3.556 3.388 3.556zm2.324-3.892h-4.914c.056-1.176.854-2.576 2.45-2.576 1.694 0 2.45 1.428 2.464 2.576zm3.352 3.724v-4.928c.308-.588 1.232-1.204 1.918-1.204.14 0 .238 0 .364.028v-.798c-.938 0-1.708.546-2.282 1.302v-1.162h-.728V131h.728zm8.741 0v-4.76c0-1.512-1.092-2.17-2.464-2.17-1.12 0-1.904.378-2.604 1.134l.406.504c.616-.7 1.274-.994 2.114-.994 1.008 0 1.82.546 1.82 1.554v1.372c-.588-.658-1.358-.966-2.296-.966-1.176 0-2.366.77-2.366 2.24 0 1.456 1.204 2.254 2.366 2.254.938 0 1.694-.308 2.296-.966V131h.728zm-2.772-.406c-1.12 0-1.848-.714-1.848-1.666 0-.966.728-1.68 1.848-1.68.812 0 1.568.322 2.044.938v1.484c-.476.616-1.232.924-2.044.924zm7.721 3.15c1.652 0 3.052-.742 3.052-2.814v-6.692h-.742v1.092c-.546-.77-1.386-1.26-2.352-1.26-1.792 0-3.024 1.4-3.024 3.542 0 2.17 1.232 3.528 3.024 3.528 1.008 0 1.876-.574 2.352-1.26v1.064c0 1.554-1.078 2.17-2.31 2.17-1.008 0-1.652-.252-2.24-.952l-.42.56c.798.812 1.526 1.022 2.66 1.022zm.084-3.262c-1.498 0-2.366-1.232-2.366-2.87 0-1.638.868-2.884 2.366-2.884.938 0 1.834.574 2.226 1.232v3.29c-.392.658-1.288 1.232-2.226 1.232zm8.222.686c1.12 0 1.974-.392 2.646-1.092l-.378-.476c-.574.616-1.358.938-2.212.938-1.596 0-2.576-1.218-2.646-2.688h5.656v-.196c0-1.946-1.134-3.584-3.192-3.584-1.876 0-3.262 1.582-3.262 3.542 0 2.086 1.414 3.556 3.388 3.556zm2.324-3.892h-4.914c.056-1.176.854-2.576 2.45-2.576 1.694 0 2.45 1.428 2.464 2.576zm9.145 3.892c1.176 0 1.848-.462 2.394-1.162l-.504-.448c-.49.672-1.106.952-1.848.952-1.582 0-2.548-1.274-2.548-2.898s.966-2.884 2.548-2.884c.742 0 1.358.266 1.848.938l.504-.448c-.546-.686-1.218-1.148-2.394-1.148-1.988 0-3.29 1.568-3.29 3.542 0 1.974 1.302 3.556 3.29 3.556zm6.875 0c2.002 0 3.262-1.582 3.262-3.556s-1.26-3.542-3.262-3.542c-1.974 0-3.248 1.568-3.248 3.542 0 1.974 1.274 3.556 3.248 3.556zm0-.658c-1.568 0-2.464-1.386-2.464-2.898 0-1.498.896-2.884 2.464-2.884 1.596 0 2.478 1.386 2.478 2.884 0 1.512-.882 2.898-2.478 2.898zm7.159.658c1.694 0 2.534-.896 2.534-1.988 0-2.604-4.27-1.568-4.27-3.262 0-.7.644-1.232 1.694-1.232.896 0 1.624.364 2.016.896l.406-.518c-.49-.546-1.26-.994-2.422-.994-1.526 0-2.408.84-2.408 1.876 0 2.422 4.27 1.386 4.27 3.234 0 .784-.672 1.372-1.806 1.372-.952 0-1.75-.448-2.184-.994l-.434.546c.672.742 1.512 1.064 2.604 1.064zm5.879 0c.56 0 .882-.168 1.148-.42l-.28-.56a1.056 1.056 0 01-.756.322c-.476 0-.7-.378-.7-.924v-4.704h1.372v-.644h-1.372v-1.848h-.742v1.848h-1.12v.644h1.12v4.816c0 .924.434 1.47 1.33 1.47zm9.089 0c1.806 0 3.024-1.4 3.024-3.556 0-2.17-1.218-3.542-3.024-3.542a2.906 2.906 0 00-2.352 1.232v-1.064h-.728v9.338h.728v-3.668c.546.77 1.4 1.26 2.352 1.26zm-.126-.658c-.938 0-1.834-.588-2.226-1.232v-3.346c.392-.644 1.288-1.204 2.226-1.204 1.512 0 2.366 1.246 2.366 2.884s-.854 2.898-2.366 2.898zm7.985.658c1.12 0 1.974-.392 2.646-1.092l-.378-.476c-.574.616-1.358.938-2.212.938-1.596 0-2.576-1.218-2.646-2.688h5.656v-.196c0-1.946-1.134-3.584-3.192-3.584-1.876 0-3.262 1.582-3.262 3.542 0 2.086 1.414 3.556 3.388 3.556zm2.324-3.892h-4.914c.056-1.176.854-2.576 2.45-2.576 1.694 0 2.45 1.428 2.464 2.576zm3.352 3.724v-4.928c.308-.588 1.232-1.204 1.918-1.204.14 0 .238 0 .364.028v-.798c-.938 0-1.708.546-2.282 1.302v-1.162h-.728V131h.728zm9.354.168c1.694 0 2.534-.896 2.534-1.988 0-2.604-4.27-1.568-4.27-3.262 0-.7.644-1.232 1.694-1.232.896 0 1.624.364 2.016.896l.406-.518c-.49-.546-1.26-.994-2.422-.994-1.526 0-2.408.84-2.408 1.876 0 2.422 4.27 1.386 4.27 3.234 0 .784-.672 1.372-1.806 1.372-.952 0-1.75-.448-2.184-.994l-.434.546c.672.742 1.512 1.064 2.604 1.064zm9.702-.168v-4.76c0-1.526-.756-2.17-2.128-2.17-.98 0-1.946.602-2.436 1.19v-3.598h-.728V131h.728v-5.11c.434-.616 1.33-1.162 2.198-1.162.98 0 1.638.364 1.638 1.666V131h.728zm5.124.168c2.002 0 3.262-1.582 3.262-3.556s-1.26-3.542-3.262-3.542c-1.974 0-3.248 1.568-3.248 3.542 0 1.974 1.274 3.556 3.248 3.556zm0-.658c-1.568 0-2.464-1.386-2.464-2.898 0-1.498.896-2.884 2.464-2.884 1.596 0 2.478 1.386 2.478 2.884 0 1.512-.882 2.898-2.478 2.898zm8.222.658c1.806 0 3.024-1.4 3.024-3.556 0-2.17-1.218-3.542-3.024-3.542a2.906 2.906 0 00-2.352 1.232v-1.064h-.728v9.338h.728v-3.668c.546.77 1.4 1.26 2.352 1.26zm-.126-.658c-.938 0-1.834-.588-2.226-1.232v-3.346c.392-.644 1.288-1.204 2.226-1.204 1.512 0 2.366 1.246 2.366 2.884s-.854 2.898-2.366 2.898zm5.718.49v-9.338h-.728V131h.728zm2.63-7.826c.308 0 .56-.252.56-.56a.55.55 0 00-.56-.546.559.559 0 00-.56.546c0 .308.266.56.56.56zm.364 7.826v-6.762h-.728V131h.728zm3.232 0v-6.118h1.372v-.644h-1.372v-.616c0-.938.406-1.47 1.176-1.47.364 0 .644.14.868.35l.35-.504c-.434-.378-.812-.476-1.288-.476-1.134 0-1.834.784-1.834 2.1v.616h-1.12v.644h1.12V131h.728zm4.209.168c.56 0 .882-.168 1.148-.42l-.28-.56a1.056 1.056 0 01-.756.322c-.476 0-.7-.378-.7-.924v-4.704h1.372v-.644h-1.372v-1.848h-.742v1.848h-1.12v.644h1.12v4.816c0 .924.434 1.47 1.33 1.47zm2.75-7.994c.308 0 .56-.252.56-.56a.55.55 0 00-.56-.546.559.559 0 00-.56.546c0 .308.266.56.56.56zm.364 7.826v-6.762h-.728V131h.728zm7.558 0v-4.732c0-1.526-.756-2.198-2.128-2.198-.98 0-1.946.602-2.436 1.19v-1.022h-.728V131h.728v-5.11c.434-.616 1.33-1.162 2.198-1.162.98 0 1.638.392 1.638 1.694V131h.728zm4.942 2.744c1.652 0 3.052-.742 3.052-2.814v-6.692h-.742v1.092c-.546-.77-1.386-1.26-2.352-1.26-1.792 0-3.024 1.4-3.024 3.542 0 2.17 1.232 3.528 3.024 3.528 1.008 0 1.876-.574 2.352-1.26v1.064c0 1.554-1.078 2.17-2.31 2.17-1.008 0-1.652-.252-2.24-.952l-.42.56c.798.812 1.526 1.022 2.66 1.022zm.084-3.262c-1.498 0-2.366-1.232-2.366-2.87 0-1.638.868-2.884 2.366-2.884.938 0 1.834.574 2.226 1.232v3.29c-.392.658-1.288 1.232-2.226 1.232zm9.214-7.308c.308 0 .56-.252.56-.56a.55.55 0 00-.56-.546.559.559 0 00-.56.546c0 .308.266.56.56.56zm.364 7.826v-6.762h-.728V131h.728zm7.558 0v-4.732c0-1.526-.756-2.198-2.128-2.198-.98 0-1.946.602-2.436 1.19v-1.022h-.728V131h.728v-5.11c.434-.616 1.33-1.162 2.198-1.162.98 0 1.638.392 1.638 1.694V131h.728zm5.166.168c1.176 0 1.848-.462 2.394-1.162l-.504-.448c-.49.672-1.106.952-1.848.952-1.582 0-2.548-1.274-2.548-2.898s.966-2.884 2.548-2.884c.742 0 1.358.266 1.848.938l.504-.448c-.546-.686-1.218-1.148-2.394-1.148-1.988 0-3.29 1.568-3.29 3.542 0 1.974 1.302 3.556 3.29 3.556zm4.384-7.994c.308 0 .56-.252.56-.56a.55.55 0 00-.56-.546.559.559 0 00-.56.546c0 .308.266.56.56.56zm.364 7.826v-6.762h-.728V131h.728zm7.992 0v-9.338h-.742v3.668c-.546-.77-1.386-1.26-2.352-1.26-1.792 0-3.024 1.414-3.024 3.556 0 2.17 1.232 3.542 3.024 3.542a2.88 2.88 0 002.352-1.246V131h.742zm-2.968-.49c-1.498 0-2.366-1.246-2.366-2.884s.868-2.898 2.366-2.898c.952 0 1.834.574 2.226 1.232v3.346c-.392.644-1.274 1.204-2.226 1.204zm8.236.658c1.12 0 1.974-.392 2.646-1.092l-.378-.476c-.574.616-1.358.938-2.212.938-1.596 0-2.576-1.218-2.646-2.688h5.656v-.196c0-1.946-1.134-3.584-3.192-3.584-1.876 0-3.262 1.582-3.262 3.542 0 2.086 1.414 3.556 3.388 3.556zm2.324-3.892h-4.914c.056-1.176.854-2.576 2.45-2.576 1.694 0 2.45 1.428 2.464 2.576zm7.916 3.724v-4.732c0-1.526-.756-2.198-2.128-2.198-.98 0-1.946.602-2.436 1.19v-1.022h-.728V131h.728v-5.11c.434-.616 1.33-1.162 2.198-1.162.98 0 1.638.392 1.638 1.694V131h.728zm3.738.168c.56 0 .882-.168 1.148-.42l-.28-.56a1.056 1.056 0 01-.756.322c-.476 0-.7-.378-.7-.924v-4.704h1.372v-.644h-1.372v-1.848h-.742v1.848h-1.12v.644h1.12v4.816c0 .924.434 1.47 1.33 1.47zm11.735-.168v-9.338h-.742v3.668c-.546-.77-1.386-1.26-2.352-1.26-1.792 0-3.024 1.414-3.024 3.556 0 2.17 1.232 3.542 3.024 3.542a2.88 2.88 0 002.352-1.246V131h.742zm-2.968-.49c-1.498 0-2.366-1.246-2.366-2.884s.868-2.898 2.366-2.898c.952 0 1.834.574 2.226 1.232v3.346c-.392.644-1.274 1.204-2.226 1.204zm8.096.658c2.002 0 3.262-1.582 3.262-3.556s-1.26-3.542-3.262-3.542c-1.974 0-3.248 1.568-3.248 3.542 0 1.974 1.274 3.556 3.248 3.556zm0-.658c-1.568 0-2.464-1.386-2.464-2.898 0-1.498.896-2.884 2.464-2.884 1.596 0 2.478 1.386 2.478 2.884 0 1.512-.882 2.898-2.478 2.898zm10.434.49v-6.762h-.728v5.152c-.448.602-1.33 1.12-2.198 1.12-.98 0-1.638-.364-1.638-1.68v-4.592h-.728v4.76c0 1.526.742 2.17 2.128 2.17.98 0 1.876-.546 2.436-1.162V131h.728zm2.997-1.694v-3.346c.392-.644 1.288-1.232 2.226-1.232 1.512 0 2.366 1.26 2.366 2.898 0 1.638-.854 2.884-2.366 2.884-.938 0-1.834-.56-2.226-1.204zm0 1.694v-1.078a2.88 2.88 0 002.352 1.246c1.792 0 3.024-1.372 3.024-3.542 0-2.142-1.218-3.556-3.024-3.556-.952 0-1.806.49-2.352 1.26v-3.668h-.728V131h.728zm7.998 0v-9.338h-.728V131h.728zm5.262.168c1.12 0 1.974-.392 2.646-1.092l-.378-.476c-.574.616-1.358.938-2.212.938-1.596 0-2.576-1.218-2.646-2.688h5.656v-.196c0-1.946-1.134-3.584-3.192-3.584-1.876 0-3.262 1.582-3.262 3.542 0 2.086 1.414 3.556 3.388 3.556zm2.324-3.892h-4.914c.056-1.176.854-2.576 2.45-2.576 1.694 0 2.45 1.428 2.464 2.576zm8.349 3.724v-9.338h-.742v3.668c-.546-.77-1.386-1.26-2.352-1.26-1.792 0-3.024 1.414-3.024 3.556 0 2.17 1.232 3.542 3.024 3.542a2.88 2.88 0 002.352-1.246V131h.742zm-2.968-.49c-1.498 0-2.366-1.246-2.366-2.884s.868-2.898 2.366-2.898c.952 0 1.834.574 2.226 1.232v3.346c-.392.644-1.274 1.204-2.226 1.204zm10.333.658c.56 0 .882-.168 1.148-.42l-.28-.56a1.056 1.056 0 01-.756.322c-.476 0-.7-.378-.7-.924v-4.704h1.372v-.644h-1.372v-1.848h-.742v1.848h-1.12v.644h1.12v4.816c0 .924.434 1.47 1.33 1.47zm5.242 0c2.002 0 3.262-1.582 3.262-3.556s-1.26-3.542-3.262-3.542c-1.974 0-3.248 1.568-3.248 3.542 0 1.974 1.274 3.556 3.248 3.556zm0-.658c-1.568 0-2.464-1.386-2.464-2.898 0-1.498.896-2.884 2.464-2.884 1.596 0 2.478 1.386 2.478 2.884 0 1.512-.882 2.898-2.478 2.898zm11.453 1.89h.644v-1.246c2.212-.14 2.94-1.484 2.94-2.632 0-1.792-1.498-2.324-2.94-2.73v-3.528c.854.098 1.624.462 2.198 1.148l.532-.588c-.658-.728-1.554-1.204-2.73-1.302v-1.274h-.644v1.274c-1.596.07-2.856 1.022-2.856 2.478 0 1.652 1.428 2.1 2.856 2.506v3.92a3.78 3.78 0 01-2.632-1.344l-.518.602c.672.826 1.736 1.4 3.15 1.47v1.246zm2.744-3.822c0 .742-.476 1.722-2.1 1.848v-3.738c1.134.336 2.1.756 2.1 1.89zm-4.76-4.62c0-.952.854-1.652 2.016-1.708v3.36c-1.092-.308-2.016-.672-2.016-1.652zm10.556 7.21c1.722 0 3.15-1.148 3.15-3.01 0-1.946-1.414-2.982-2.982-2.982-.966 0-1.764.42-2.226.868v-3.654h4.592v-.728h-5.39v4.9l.602.252c.686-.63 1.414-.91 2.268-.91 1.344 0 2.324.868 2.324 2.282 0 1.274-.994 2.254-2.338 2.254-1.204 0-2.016-.476-2.618-1.33l-.532.532c.644.924 1.596 1.526 3.15 1.526zm8.148 0c1.722 0 3.15-1.148 3.15-3.01 0-1.946-1.414-2.982-2.982-2.982-.966 0-1.764.42-2.226.868v-3.654h4.592v-.728h-5.39v4.9l.602.252c.686-.63 1.414-.91 2.268-.91 1.344 0 2.324.868 2.324 2.282 0 1.274-.994 2.254-2.338 2.254-1.204 0-2.016-.476-2.618-1.33l-.532.532c.644.924 1.596 1.526 3.15 1.526zm7.756-.014c2.576 0 3.57-2.422 3.57-4.816 0-2.506-.91-4.83-3.43-4.83-1.988 0-3.136 1.456-3.136 2.982 0 1.988 1.33 2.968 3.01 2.968 1.26 0 2.338-.924 2.744-1.568v.434c0 1.96-.7 4.102-2.758 4.102-1.022 0-1.596-.434-2.044-1.036l-.462.574c.546.7 1.288 1.19 2.506 1.19zm.154-4.424c-1.33 0-2.338-.728-2.338-2.254 0-1.008.756-2.24 2.352-2.24 1.75 0 2.422 1.624 2.534 2.898-.532.938-1.526 1.596-2.548 1.596zm5.248 4.41c.336 0 .63-.294.63-.63 0-.322-.294-.602-.63-.602a.619.619 0 00-.616.602c0 .336.28.63.616.63zm8.1 2.324c-.882-1.792-1.484-3.444-1.484-5.866 0-2.436.602-4.074 1.484-5.88l-.434-.308a11.13 11.13 0 00-1.862 6.188c0 2.254.658 4.368 1.862 6.188l.434-.322zm4.292-2.296c2.52 0 3.318-1.442 3.318-2.646 0-3.486-5.6-2.17-5.6-4.564 0-1.008.938-1.722 2.184-1.722 1.05 0 2.002.364 2.674 1.176l.532-.588c-.728-.826-1.764-1.316-3.164-1.316-1.694 0-3.066.966-3.066 2.492 0 3.262 5.6 1.834 5.6 4.578 0 .798-.546 1.862-2.464 1.862-1.33 0-2.31-.658-2.912-1.358l-.518.602c.714.868 1.876 1.484 3.416 1.484zm8.064 0c2.002 0 3.262-1.582 3.262-3.556s-1.26-3.542-3.262-3.542c-1.974 0-3.248 1.568-3.248 3.542 0 1.974 1.274 3.556 3.248 3.556zm0-.658c-1.568 0-2.464-1.386-2.464-2.898 0-1.498.896-2.884 2.464-2.884 1.596 0 2.478 1.386 2.478 2.884 0 1.512-.882 2.898-2.478 2.898zm10.435.49v-6.762h-.728v5.152c-.448.602-1.33 1.12-2.198 1.12-.98 0-1.638-.364-1.638-1.68v-4.592h-.728v4.76c0 1.526.742 2.17 2.128 2.17.98 0 1.876-.546 2.436-1.162V131h.728zm2.996 0v-4.928c.308-.588 1.232-1.204 1.918-1.204.14 0 .238 0 .364.028v-.798c-.938 0-1.708.546-2.282 1.302v-1.162h-.728V131h.728zm6.613.168c1.176 0 1.848-.462 2.394-1.162l-.504-.448c-.49.672-1.106.952-1.848.952-1.582 0-2.548-1.274-2.548-2.898s.966-2.884 2.548-2.884c.742 0 1.358.266 1.848.938l.504-.448c-.546-.686-1.218-1.148-2.394-1.148-1.988 0-3.29 1.568-3.29 3.542 0 1.974 1.302 3.556 3.29 3.556zm7.016 0c1.12 0 1.974-.392 2.646-1.092l-.378-.476c-.574.616-1.358.938-2.212.938-1.596 0-2.576-1.218-2.646-2.688h5.656v-.196c0-1.946-1.134-3.584-3.192-3.584-1.876 0-3.262 1.582-3.262 3.542 0 2.086 1.414 3.556 3.388 3.556zm2.324-3.892h-4.914c.056-1.176.854-2.576 2.45-2.576 1.694 0 2.45 1.428 2.464 2.576zm3.016-1.918c.336 0 .63-.28.63-.602a.634.634 0 00-.63-.616.621.621 0 00-.616.616c0 .322.28.602.616.602zm0 5.782c.336 0 .63-.294.63-.63 0-.322-.294-.602-.63-.602a.619.619 0 00-.616.602c0 .336.28.63.616.63zm13.783-.14v-9.338h-.798v7.91l-5.852-7.91h-.812V131h.798v-8.022l5.88 8.022h.784zm8.767 0l-2.702-3.92c1.386-.056 2.59-.994 2.59-2.688 0-1.708-1.232-2.73-2.842-2.73h-3.486V131h.798v-3.864h2.058l2.618 3.864h.966zm-3.024-4.592h-2.618v-4.018h2.618c1.232 0 2.072.826 2.072 2.002 0 1.176-.84 2.016-2.072 2.016zM487.5 131v-4.424h5.026v-.728H487.5v-3.458h5.124v-.728h-5.922V131h.798zm13.311.168c2.52 0 3.318-1.442 3.318-2.646 0-3.486-5.6-2.17-5.6-4.564 0-1.008.938-1.722 2.184-1.722 1.05 0 2.002.364 2.674 1.176l.532-.588c-.728-.826-1.764-1.316-3.164-1.316-1.694 0-3.066.966-3.066 2.492 0 3.262 5.6 1.834 5.6 4.578 0 .798-.546 1.862-2.464 1.862-1.33 0-2.31-.658-2.912-1.358l-.518.602c.714.868 1.876 1.484 3.416 1.484zm10.501-.168v-6.762h-.728v5.152c-.448.602-1.33 1.12-2.198 1.12-.98 0-1.638-.364-1.638-1.68v-4.592h-.728v4.76c0 1.526.742 2.17 2.128 2.17.98 0 1.876-.546 2.436-1.162V131h.728zm2.996 0v-4.928c.308-.588 1.232-1.204 1.918-1.204.14 0 .238 0 .364.028v-.798c-.938 0-1.708.546-2.282 1.302v-1.162h-.728V131h.728zm6.361 0l2.856-6.762h-.826l-2.436 5.908-2.464-5.908h-.812l2.856 6.762h.826zm7.091.168c1.12 0 1.974-.392 2.646-1.092l-.378-.476c-.574.616-1.358.938-2.212.938-1.596 0-2.576-1.218-2.646-2.688h5.656v-.196c0-1.946-1.134-3.584-3.192-3.584-1.876 0-3.262 1.582-3.262 3.542 0 2.086 1.414 3.556 3.388 3.556zm2.324-3.892h-4.914c.056-1.176.854-2.576 2.45-2.576 1.694 0 2.45 1.428 2.464 2.576zm2.175 6.37c.182.056.49.098.714.098.798 0 1.372-.406 1.736-1.26l3.5-8.246h-.826l-2.436 5.908-2.464-5.908h-.812l2.856 6.818-.532 1.204c-.266.644-.574.826-1.022.826-.168 0-.434-.042-.588-.112l-.126.672zm6.726.14a11.143 11.143 0 000-12.376l-.434.308c.896 1.806 1.484 3.444 1.484 5.88 0 2.422-.588 4.074-1.484 5.866l.434.322zM62.941 159v-.728h-4.914c2.702-2.184 4.872-4.06 4.872-6.118 0-1.848-1.568-2.632-2.94-2.632-1.316 0-2.45.546-3.108 1.442l.546.504c.504-.714 1.4-1.218 2.562-1.218 1.022 0 2.128.56 2.128 1.904 0 1.806-2.128 3.626-5.306 6.188V159h6.16zm4.998.154c2.576 0 3.57-2.422 3.57-4.816 0-2.506-.91-4.83-3.43-4.83-1.988 0-3.136 1.456-3.136 2.982 0 1.988 1.33 2.968 3.01 2.968 1.26 0 2.338-.924 2.744-1.568v.434c0 1.96-.7 4.102-2.758 4.102-1.022 0-1.596-.434-2.044-1.036l-.462.574c.546.7 1.288 1.19 2.506 1.19zm.154-4.424c-1.33 0-2.338-.728-2.338-2.254 0-1.008.756-2.24 2.352-2.24 1.75 0 2.422 1.624 2.534 2.898-.532.938-1.526 1.596-2.548 1.596zm5.248 4.41c.336 0 .63-.294.63-.63 0-.322-.294-.602-.63-.602a.619.619 0 00-.616.602c0 .336.28.63.616.63zm5.163.028c1.988 0 3.15-1.134 3.15-2.674s-1.33-2.24-2.142-2.324c.798-.14 2.002-.756 2.002-2.184 0-1.582-1.386-2.464-3.01-2.464-1.358 0-2.394.616-3.052 1.414l.504.504c.686-.77 1.442-1.19 2.506-1.19 1.204 0 2.24.644 2.24 1.806 0 1.246-1.134 1.778-2.366 1.778-.378 0-.728 0-.868-.014v.756c.14-.014.49-.014.868-.014 1.4 0 2.506.546 2.506 1.89 0 1.232-.91 1.988-2.352 1.988-1.19 0-2.1-.56-2.618-1.302l-.546.476c.532.84 1.652 1.554 3.178 1.554zm6.649-5.068c1.302 0 2.198-.966 2.198-2.268 0-1.316-.896-2.31-2.198-2.31-1.288 0-2.184.994-2.184 2.31 0 1.302.896 2.268 2.184 2.268zm-.238 4.9l5.978-9.338h-.644L84.285 159h.63zm4.998.168c1.288 0 2.198-.98 2.198-2.282 0-1.316-.91-2.31-2.198-2.31-1.288 0-2.198.994-2.198 2.31 0 1.302.91 2.282 2.198 2.282zm-4.76-5.6c-.91 0-1.54-.798-1.54-1.736 0-.98.63-1.764 1.54-1.764.924 0 1.554.784 1.554 1.764 0 .938-.63 1.736-1.554 1.736zm4.76 5.054c-.924 0-1.554-.784-1.554-1.736 0-.966.63-1.764 1.554-1.764s1.54.798 1.54 1.764c0 .952-.616 1.736-1.54 1.736zm9.43.546c1.693 0 2.533-.896 2.533-1.988 0-2.604-4.27-1.568-4.27-3.262 0-.7.644-1.232 1.694-1.232.896 0 1.624.364 2.016.896l.406-.518c-.49-.546-1.26-.994-2.422-.994-1.526 0-2.408.84-2.408 1.876 0 2.422 4.27 1.386 4.27 3.234 0 .784-.672 1.372-1.806 1.372-.952 0-1.75-.448-2.184-.994l-.434.546c.672.742 1.512 1.064 2.604 1.064zm9.701-.168v-6.762h-.728v5.152c-.448.602-1.33 1.12-2.198 1.12-.98 0-1.638-.364-1.638-1.68v-4.592h-.728v4.76c0 1.526.742 2.17 2.128 2.17.98 0 1.876-.546 2.436-1.162V159h.728zm2.997 0v-4.928c.308-.588 1.232-1.204 1.918-1.204.14 0 .238 0 .364.028v-.798c-.938 0-1.708.546-2.282 1.302v-1.162h-.728V159h.728zm6.361 0l2.856-6.762h-.826l-2.436 5.908-2.464-5.908h-.812l2.856 6.762h.826zm7.09.168c1.12 0 1.974-.392 2.646-1.092l-.378-.476c-.574.616-1.358.938-2.212.938-1.596 0-2.576-1.218-2.646-2.688h5.656v-.196c0-1.946-1.134-3.584-3.192-3.584-1.876 0-3.262 1.582-3.262 3.542 0 2.086 1.414 3.556 3.388 3.556zm2.324-3.892h-4.914c.056-1.176.854-2.576 2.45-2.576 1.694 0 2.45 1.428 2.464 2.576zm2.176 6.37c.182.056.49.098.714.098.798 0 1.372-.406 1.736-1.26l3.5-8.246h-.826l-2.436 5.908-2.464-5.908h-.812l2.856 6.818-.532 1.204c-.266.644-.574.826-1.022.826-.168 0-.434-.042-.588-.112l-.126.672zm10.184-2.478c1.12 0 1.974-.392 2.646-1.092l-.378-.476c-.574.616-1.358.938-2.212.938-1.596 0-2.576-1.218-2.646-2.688h5.656v-.196c0-1.946-1.134-3.584-3.192-3.584-1.876 0-3.262 1.582-3.262 3.542 0 2.086 1.414 3.556 3.388 3.556zm2.324-3.892h-4.914c.056-1.176.854-2.576 2.45-2.576 1.694 0 2.45 1.428 2.464 2.576zm8.349 3.724v-9.338h-.742v3.668c-.546-.77-1.386-1.26-2.352-1.26-1.792 0-3.024 1.414-3.024 3.556 0 2.17 1.232 3.542 3.024 3.542a2.88 2.88 0 002.352-1.246V159h.742zm-2.968-.49c-1.498 0-2.366-1.246-2.366-2.884s.868-2.898 2.366-2.898c.952 0 1.834.574 2.226 1.232v3.346c-.392.644-1.274 1.204-2.226 1.204zm10.879.658c1.694 0 2.534-.896 2.534-1.988 0-2.604-4.27-1.568-4.27-3.262 0-.7.644-1.232 1.694-1.232.896 0 1.624.364 2.016.896l.406-.518c-.49-.546-1.26-.994-2.422-.994-1.526 0-2.408.84-2.408 1.876 0 2.422 4.27 1.386 4.27 3.234 0 .784-.672 1.372-1.806 1.372-.952 0-1.75-.448-2.184-.994l-.434.546c.672.742 1.512 1.064 2.604 1.064zm9.436-.168v-4.76c0-1.512-1.092-2.17-2.464-2.17-1.12 0-1.904.378-2.604 1.134l.406.504c.616-.7 1.274-.994 2.114-.994 1.008 0 1.82.546 1.82 1.554v1.372c-.588-.658-1.358-.966-2.296-.966-1.176 0-2.366.77-2.366 2.24 0 1.456 1.204 2.254 2.366 2.254.938 0 1.694-.308 2.296-.966V159h.728zm-2.772-.406c-1.12 0-1.848-.714-1.848-1.666 0-.966.728-1.68 1.848-1.68.812 0 1.568.322 2.044.938v1.484c-.476.616-1.232.924-2.044.924zm5.411-7.42c.308 0 .56-.252.56-.56a.55.55 0 00-.56-.546.559.559 0 00-.56.546c0 .308.266.56.56.56zm.364 7.826v-6.762h-.728V159h.728zm7.992 0v-9.338h-.742v3.668c-.546-.77-1.386-1.26-2.352-1.26-1.792 0-3.024 1.414-3.024 3.556 0 2.17 1.232 3.542 3.024 3.542a2.88 2.88 0 002.352-1.246V159h.742zm-2.968-.49c-1.498 0-2.366-1.246-2.366-2.884s.868-2.898 2.366-2.898c.952 0 1.834.574 2.226 1.232v3.346c-.392.644-1.274 1.204-2.226 1.204zm10.333.658c.56 0 .882-.168 1.148-.42l-.28-.56a1.056 1.056 0 01-.756.322c-.476 0-.7-.378-.7-.924v-4.704h1.372v-.644h-1.372v-1.848h-.742v1.848h-1.12v.644h1.12v4.816c0 .924.434 1.47 1.33 1.47zm7.677-.168v-4.76c0-1.526-.756-2.17-2.128-2.17-.98 0-1.946.602-2.436 1.19v-3.598h-.728V159h.728v-5.11c.434-.616 1.33-1.162 2.198-1.162.98 0 1.638.364 1.638 1.666V159h.728zm5.265.168c1.12 0 1.974-.392 2.646-1.092l-.378-.476c-.574.616-1.358.938-2.212.938-1.596 0-2.576-1.218-2.646-2.688h5.656v-.196c0-1.946-1.134-3.584-3.192-3.584-1.876 0-3.262 1.582-3.262 3.542 0 2.086 1.414 3.556 3.388 3.556zm2.324-3.892h-4.914c.056-1.176.854-2.576 2.45-2.576 1.694 0 2.45 1.428 2.464 2.576zm2.175 6.37c.182.056.49.098.714.098.798 0 1.372-.406 1.736-1.26l3.5-8.246h-.826l-2.436 5.908-2.464-5.908h-.812l2.856 6.818-.532 1.204c-.266.644-.574.826-1.022.826-.168 0-.434-.042-.588-.112l-.126.672zM221.305 159l2.198-6.762h-.784l-1.792 5.74-1.904-5.74h-.63l-1.904 5.74-1.792-5.74h-.784l2.198 6.762h.7l1.904-5.782 1.89 5.782h.7zm6.562.168c1.12 0 1.974-.392 2.646-1.092l-.378-.476c-.574.616-1.358.938-2.212.938-1.596 0-2.576-1.218-2.646-2.688h5.656v-.196c0-1.946-1.134-3.584-3.192-3.584-1.876 0-3.262 1.582-3.262 3.542 0 2.086 1.414 3.556 3.388 3.556zm2.324-3.892h-4.914c.056-1.176.854-2.576 2.45-2.576 1.694 0 2.45 1.428 2.464 2.576zm3.352 3.724v-4.928c.308-.588 1.232-1.204 1.918-1.204.14 0 .238 0 .364.028v-.798c-.938 0-1.708.546-2.282 1.302v-1.162h-.728V159h.728zm6.711.168c1.12 0 1.974-.392 2.646-1.092l-.378-.476c-.574.616-1.358.938-2.212.938-1.596 0-2.576-1.218-2.646-2.688h5.656v-.196c0-1.946-1.134-3.584-3.192-3.584-1.876 0-3.262 1.582-3.262 3.542 0 2.086 1.414 3.556 3.388 3.556zm2.324-3.892h-4.914c.056-1.176.854-2.576 2.45-2.576 1.694 0 2.45 1.428 2.464 2.576zM253.85 159v-4.76c0-1.512-1.092-2.17-2.464-2.17-1.12 0-1.904.378-2.604 1.134l.406.504c.616-.7 1.274-.994 2.114-.994 1.008 0 1.82.546 1.82 1.554v1.372c-.588-.658-1.358-.966-2.296-.966-1.176 0-2.366.77-2.366 2.24 0 1.456 1.204 2.254 2.366 2.254.938 0 1.694-.308 2.296-.966V159h.728zm-2.772-.406c-1.12 0-1.848-.714-1.848-1.666 0-.966.728-1.68 1.848-1.68.812 0 1.568.322 2.044.938v1.484c-.476.616-1.232.924-2.044.924zm5.775.406v-9.338h-.728V159h.728zm2.994 0v-9.338h-.728V159h.728zm5.122.168c2.002 0 3.262-1.582 3.262-3.556s-1.26-3.542-3.262-3.542c-1.974 0-3.248 1.568-3.248 3.542 0 1.974 1.274 3.556 3.248 3.556zm0-.658c-1.568 0-2.464-1.386-2.464-2.898 0-1.498.896-2.884 2.464-2.884 1.596 0 2.478 1.386 2.478 2.884 0 1.512-.882 2.898-2.478 2.898zm8.04.658c1.176 0 1.848-.462 2.394-1.162l-.504-.448c-.49.672-1.106.952-1.848.952-1.582 0-2.548-1.274-2.548-2.898s.966-2.884 2.548-2.884c.742 0 1.358.266 1.848.938l.504-.448c-.546-.686-1.218-1.148-2.394-1.148-1.988 0-3.29 1.568-3.29 3.542 0 1.974 1.302 3.556 3.29 3.556zm9.046-.168v-4.76c0-1.512-1.092-2.17-2.464-2.17-1.12 0-1.904.378-2.604 1.134l.406.504c.616-.7 1.274-.994 2.114-.994 1.008 0 1.82.546 1.82 1.554v1.372c-.588-.658-1.358-.966-2.296-.966-1.176 0-2.366.77-2.366 2.24 0 1.456 1.204 2.254 2.366 2.254.938 0 1.694-.308 2.296-.966V159h.728zm-2.772-.406c-1.12 0-1.848-.714-1.848-1.666 0-.966.728-1.68 1.848-1.68.812 0 1.568.322 2.044.938v1.484c-.476.616-1.232.924-2.044.924zm6.517.574c.56 0 .882-.168 1.148-.42l-.28-.56a1.056 1.056 0 01-.756.322c-.476 0-.7-.378-.7-.924v-4.704h1.372v-.644h-1.372v-1.848h-.742v1.848h-1.12v.644h1.12v4.816c0 .924.434 1.47 1.33 1.47zm2.75-7.994c.308 0 .56-.252.56-.56a.55.55 0 00-.56-.546.559.559 0 00-.56.546c0 .308.266.56.56.56zm.364 7.826v-6.762h-.728V159h.728zm7.558 0v-4.732c0-1.526-.756-2.198-2.128-2.198-.98 0-1.946.602-2.436 1.19v-1.022h-.728V159h.728v-5.11c.434-.616 1.33-1.162 2.198-1.162.98 0 1.638.392 1.638 1.694V159h.728zm4.942 2.744c1.652 0 3.052-.742 3.052-2.814v-6.692h-.742v1.092c-.546-.77-1.386-1.26-2.352-1.26-1.792 0-3.024 1.4-3.024 3.542 0 2.17 1.232 3.528 3.024 3.528 1.008 0 1.876-.574 2.352-1.26v1.064c0 1.554-1.078 2.17-2.31 2.17-1.008 0-1.652-.252-2.24-.952l-.42.56c.798.812 1.526 1.022 2.66 1.022zm.084-3.262c-1.498 0-2.366-1.232-2.366-2.87 0-1.638.868-2.884 2.366-2.884.938 0 1.834.574 2.226 1.232v3.29c-.392.658-1.288 1.232-2.226 1.232zm14.142.518v-4.732c0-1.526-.756-2.198-2.128-2.198-.98 0-1.946.602-2.436 1.19v-1.022h-.728V159h.728v-5.11c.434-.616 1.33-1.162 2.198-1.162.98 0 1.638.392 1.638 1.694V159h.728zm5.264.168c1.12 0 1.974-.392 2.646-1.092l-.378-.476c-.574.616-1.358.938-2.212.938-1.596 0-2.576-1.218-2.646-2.688h5.656v-.196c0-1.946-1.134-3.584-3.192-3.584-1.876 0-3.262 1.582-3.262 3.542 0 2.086 1.414 3.556 3.388 3.556zm2.324-3.892h-4.914c.056-1.176.854-2.576 2.45-2.576 1.694 0 2.45 1.428 2.464 2.576zm9.12 3.724l2.198-6.762h-.784l-1.792 5.74-1.904-5.74h-.63l-1.904 5.74-1.792-5.74h-.784l2.198 6.762h.7l1.904-5.782 1.89 5.782h.7zm7.917 0v-4.928c.308-.588 1.232-1.204 1.918-1.204.14 0 .238 0 .364.028v-.798c-.938 0-1.708.546-2.282 1.302v-1.162h-.728V159h.728zm6.712.168c1.12 0 1.974-.392 2.646-1.092l-.378-.476c-.574.616-1.358.938-2.212.938-1.596 0-2.576-1.218-2.646-2.688h5.656v-.196c0-1.946-1.134-3.584-3.192-3.584-1.876 0-3.262 1.582-3.262 3.542 0 2.086 1.414 3.556 3.388 3.556zm2.324-3.892h-4.914c.056-1.176.854-2.576 2.45-2.576 1.694 0 2.45 1.428 2.464 2.576zm4.639 3.892c1.694 0 2.534-.896 2.534-1.988 0-2.604-4.27-1.568-4.27-3.262 0-.7.644-1.232 1.694-1.232.896 0 1.624.364 2.016.896l.406-.518c-.49-.546-1.26-.994-2.422-.994-1.526 0-2.408.84-2.408 1.876 0 2.422 4.27 1.386 4.27 3.234 0 .784-.672 1.372-1.806 1.372-.952 0-1.75-.448-2.184-.994l-.434.546c.672.742 1.512 1.064 2.604 1.064zm7.266 0c2.002 0 3.262-1.582 3.262-3.556s-1.26-3.542-3.262-3.542c-1.974 0-3.248 1.568-3.248 3.542 0 1.974 1.274 3.556 3.248 3.556zm0-.658c-1.568 0-2.464-1.386-2.464-2.898 0-1.498.896-2.884 2.464-2.884 1.596 0 2.478 1.386 2.478 2.884 0 1.512-.882 2.898-2.478 2.898zm10.434.49v-6.762h-.728v5.152c-.448.602-1.33 1.12-2.198 1.12-.98 0-1.638-.364-1.638-1.68v-4.592h-.728v4.76c0 1.526.742 2.17 2.128 2.17.98 0 1.876-.546 2.436-1.162V159h.728zm2.996 0v-4.928c.308-.588 1.232-1.204 1.918-1.204.14 0 .238 0 .364.028v-.798c-.938 0-1.708.546-2.282 1.302v-1.162h-.728V159h.728zm6.614.168c1.176 0 1.848-.462 2.394-1.162l-.504-.448c-.49.672-1.106.952-1.848.952-1.582 0-2.548-1.274-2.548-2.898s.966-2.884 2.548-2.884c.742 0 1.358.266 1.848.938l.504-.448c-.546-.686-1.218-1.148-2.394-1.148-1.988 0-3.29 1.568-3.29 3.542 0 1.974 1.302 3.556 3.29 3.556zm7.016 0c1.12 0 1.974-.392 2.646-1.092l-.378-.476c-.574.616-1.358.938-2.212.938-1.596 0-2.576-1.218-2.646-2.688h5.656v-.196c0-1.946-1.134-3.584-3.192-3.584-1.876 0-3.262 1.582-3.262 3.542 0 2.086 1.414 3.556 3.388 3.556zm2.324-3.892h-4.914c.056-1.176.854-2.576 2.45-2.576 1.694 0 2.45 1.428 2.464 2.576zm4.639 3.892c1.694 0 2.534-.896 2.534-1.988 0-2.604-4.27-1.568-4.27-3.262 0-.7.644-1.232 1.694-1.232.896 0 1.624.364 2.016.896l.406-.518c-.49-.546-1.26-.994-2.422-.994-1.526 0-2.408.84-2.408 1.876 0 2.422 4.27 1.386 4.27 3.234 0 .784-.672 1.372-1.806 1.372-.952 0-1.75-.448-2.184-.994l-.434.546c.672.742 1.512 1.064 2.604 1.064zm9.503 0c.56 0 .882-.168 1.148-.42l-.28-.56a1.056 1.056 0 01-.756.322c-.476 0-.7-.378-.7-.924v-4.704h1.372v-.644h-1.372v-1.848h-.742v1.848h-1.12v.644h1.12v4.816c0 .924.434 1.47 1.33 1.47zm5.241 0c2.002 0 3.262-1.582 3.262-3.556s-1.26-3.542-3.262-3.542c-1.974 0-3.248 1.568-3.248 3.542 0 1.974 1.274 3.556 3.248 3.556zm0-.658c-1.568 0-2.464-1.386-2.464-2.898 0-1.498.896-2.884 2.464-2.884 1.596 0 2.478 1.386 2.478 2.884 0 1.512-.882 2.898-2.478 2.898zm10.235.658c.56 0 .882-.168 1.148-.42l-.28-.56a1.056 1.056 0 01-.756.322c-.476 0-.7-.378-.7-.924v-4.704h1.372v-.644h-1.372v-1.848h-.742v1.848h-1.12v.644h1.12v4.816c0 .924.434 1.47 1.33 1.47zm5.382 0c1.12 0 1.974-.392 2.646-1.092l-.378-.476c-.574.616-1.358.938-2.212.938-1.596 0-2.576-1.218-2.646-2.688h5.656v-.196c0-1.946-1.134-3.584-3.192-3.584-1.876 0-3.262 1.582-3.262 3.542 0 2.086 1.414 3.556 3.388 3.556zm2.324-3.892H423c.056-1.176.854-2.576 2.45-2.576 1.694 0 2.45 1.428 2.464 2.576zm5.521 3.892c1.176 0 1.848-.462 2.394-1.162l-.504-.448c-.49.672-1.106.952-1.848.952-1.582 0-2.548-1.274-2.548-2.898s.966-2.884 2.548-2.884c.742 0 1.358.266 1.848.938l.504-.448c-.546-.686-1.218-1.148-2.394-1.148-1.988 0-3.29 1.568-3.29 3.542 0 1.974 1.302 3.556 3.29 3.556zm9.312-.168v-4.76c0-1.526-.756-2.17-2.128-2.17-.98 0-1.946.602-2.436 1.19v-3.598h-.728V159h.728v-5.11c.434-.616 1.33-1.162 2.198-1.162.98 0 1.638.364 1.638 1.666V159h.728zm7.561 0v-4.732c0-1.526-.756-2.198-2.128-2.198-.98 0-1.946.602-2.436 1.19v-1.022h-.728V159h.728v-5.11c.434-.616 1.33-1.162 2.198-1.162.98 0 1.638.392 1.638 1.694V159h.728zm5.124.168c2.002 0 3.262-1.582 3.262-3.556s-1.26-3.542-3.262-3.542c-1.974 0-3.248 1.568-3.248 3.542 0 1.974 1.274 3.556 3.248 3.556zm0-.658c-1.568 0-2.464-1.386-2.464-2.898 0-1.498.896-2.884 2.464-2.884 1.596 0 2.478 1.386 2.478 2.884 0 1.512-.882 2.898-2.478 2.898zm5.87.49v-9.338h-.728V159h.728zm5.122.168c2.002 0 3.262-1.582 3.262-3.556s-1.26-3.542-3.262-3.542c-1.974 0-3.248 1.568-3.248 3.542 0 1.974 1.274 3.556 3.248 3.556zm0-.658c-1.568 0-2.464-1.386-2.464-2.898 0-1.498.896-2.884 2.464-2.884 1.596 0 2.478 1.386 2.478 2.884 0 1.512-.882 2.898-2.478 2.898zm7.816 3.234c1.652 0 3.052-.742 3.052-2.814v-6.692h-.742v1.092c-.546-.77-1.386-1.26-2.352-1.26-1.792 0-3.024 1.4-3.024 3.542 0 2.17 1.232 3.528 3.024 3.528 1.008 0 1.876-.574 2.352-1.26v1.064c0 1.554-1.078 2.17-2.31 2.17-1.008 0-1.652-.252-2.24-.952l-.42.56c.798.812 1.526 1.022 2.66 1.022zm.084-3.262c-1.498 0-2.366-1.232-2.366-2.87 0-1.638.868-2.884 2.366-2.884.938 0 1.834.574 2.226 1.232v3.29c-.392.658-1.288 1.232-2.226 1.232zm4.779 3.164c.182.056.49.098.714.098.798 0 1.372-.406 1.736-1.26l3.5-8.246h-.826l-2.436 5.908-2.464-5.908h-.812l2.856 6.818-.532 1.204c-.266.644-.574.826-1.022.826-.168 0-.434-.042-.588-.112l-.126.672zm7.46-2.842c0-.574-.336-.896-.714-.896a.606.606 0 00-.602.602c0 .336.238.588.574.588.042 0 .14-.014.14-.014-.028.434-.364.98-.812 1.288l.406.35c.546-.392 1.008-1.134 1.008-1.918zm12.089.196l2.198-6.762h-.784l-1.792 5.74-1.904-5.74h-.63l-1.904 5.74-1.792-5.74h-.784l2.198 6.762h.7l1.904-5.782 1.89 5.782h.7zm8.859 0v-4.76c0-1.526-.756-2.17-2.128-2.17-.98 0-1.946.602-2.436 1.19v-3.598h-.728V159h.728v-5.11c.434-.616 1.33-1.162 2.198-1.162.98 0 1.638.364 1.638 1.666V159h.728zm2.632-7.826c.308 0 .56-.252.56-.56a.55.55 0 00-.56-.546.559.559 0 00-.56.546c0 .308.266.56.56.56zm.364 7.826v-6.762h-.728V159h.728zm2.994 0v-9.338h-.728V159h.728zm5.263.168c1.12 0 1.974-.392 2.646-1.092l-.378-.476c-.574.616-1.358.938-2.212.938-1.596 0-2.576-1.218-2.646-2.688h5.656v-.196c0-1.946-1.134-3.584-3.192-3.584-1.876 0-3.262 1.582-3.262 3.542 0 2.086 1.414 3.556 3.388 3.556zm2.324-3.892h-4.914c.056-1.176.854-2.576 2.45-2.576 1.694 0 2.45 1.428 2.464 2.576zm9.102 3.892c2.002 0 3.262-1.582 3.262-3.556s-1.26-3.542-3.262-3.542c-1.974 0-3.248 1.568-3.248 3.542 0 1.974 1.274 3.556 3.248 3.556zm0-.658c-1.568 0-2.464-1.386-2.464-2.898 0-1.498.896-2.884 2.464-2.884 1.596 0 2.478 1.386 2.478 2.884 0 1.512-.882 2.898-2.478 2.898zm10.434.49v-4.732c0-1.526-.756-2.198-2.128-2.198-.98 0-1.946.602-2.436 1.19v-1.022h-.728V159h.728v-5.11c.434-.616 1.33-1.162 2.198-1.162.98 0 1.638.392 1.638 1.694V159h.728zm2.997 0v-9.338h-.728V159h.728zm1.818 2.646c.182.056.49.098.714.098.798 0 1.372-.406 1.736-1.26l3.5-8.246h-.826l-2.436 5.908-2.464-5.908h-.812l2.856 6.818-.532 1.204c-.266.644-.574.826-1.022.826-.168 0-.434-.042-.588-.112l-.126.672zM558.266 159v-9.338h-.728l-2.058 2.17.49.518 1.498-1.596V159h.798zm3.747 0l3.99-8.778v-.56h-6.118v.728h5.166l-3.92 8.61h.882zm4.582.14c.336 0 .63-.294.63-.63 0-.322-.294-.602-.63-.602a.619.619 0 00-.616.602c0 .336.28.63.616.63zm5.163.028c1.988 0 3.15-1.134 3.15-2.674s-1.33-2.24-2.142-2.324c.798-.14 2.002-.756 2.002-2.184 0-1.582-1.386-2.464-3.01-2.464-1.358 0-2.394.616-3.052 1.414l.504.504c.686-.77 1.442-1.19 2.506-1.19 1.204 0 2.24.644 2.24 1.806 0 1.246-1.134 1.778-2.366 1.778-.378 0-.728 0-.868-.014v.756c.14-.014.49-.014.868-.014 1.4 0 2.506.546 2.506 1.89 0 1.232-.91 1.988-2.352 1.988-1.19 0-2.1-.56-2.618-1.302l-.546.476c.532.84 1.652 1.554 3.178 1.554zm6.649-5.068c1.302 0 2.198-.966 2.198-2.268 0-1.316-.896-2.31-2.198-2.31-1.288 0-2.184.994-2.184 2.31 0 1.302.896 2.268 2.184 2.268zm-.238 4.9l5.978-9.338h-.644L577.539 159h.63zm4.998.168c1.288 0 2.198-.98 2.198-2.282 0-1.316-.91-2.31-2.198-2.31-1.288 0-2.198.994-2.198 2.31 0 1.302.91 2.282 2.198 2.282zm-4.76-5.6c-.91 0-1.54-.798-1.54-1.736 0-.98.63-1.764 1.54-1.764.924 0 1.554.784 1.554 1.764 0 .938-.63 1.736-1.554 1.736zm4.76 5.054c-.924 0-1.554-.784-1.554-1.736 0-.966.63-1.764 1.554-1.764s1.54.798 1.54 1.764c0 .952-.616 1.736-1.54 1.736zm9.429.546c1.694 0 2.534-.896 2.534-1.988 0-2.604-4.27-1.568-4.27-3.262 0-.7.644-1.232 1.694-1.232.896 0 1.624.364 2.016.896l.406-.518c-.49-.546-1.26-.994-2.422-.994-1.526 0-2.408.84-2.408 1.876 0 2.422 4.27 1.386 4.27 3.234 0 .784-.672 1.372-1.806 1.372-.952 0-1.75-.448-2.184-.994l-.434.546c.672.742 1.512 1.064 2.604 1.064zm9.436-.168v-4.76c0-1.512-1.092-2.17-2.464-2.17-1.12 0-1.904.378-2.604 1.134l.406.504c.616-.7 1.274-.994 2.114-.994 1.008 0 1.82.546 1.82 1.554v1.372c-.588-.658-1.358-.966-2.296-.966-1.176 0-2.366.77-2.366 2.24 0 1.456 1.204 2.254 2.366 2.254.938 0 1.694-.308 2.296-.966V159h.728zm-2.772-.406c-1.12 0-1.848-.714-1.848-1.666 0-.966.728-1.68 1.848-1.68.812 0 1.568.322 2.044.938v1.484c-.476.616-1.232.924-2.044.924zm5.411-7.42c.308 0 .56-.252.56-.56a.55.55 0 00-.56-.546.559.559 0 00-.56.546c0 .308.266.56.56.56zm.364 7.826v-6.762h-.728V159h.728zm7.992 0v-9.338h-.742v3.668c-.546-.77-1.386-1.26-2.352-1.26-1.792 0-3.024 1.414-3.024 3.556 0 2.17 1.232 3.542 3.024 3.542a2.88 2.88 0 002.352-1.246V159h.742zm-2.968-.49c-1.498 0-2.366-1.246-2.366-2.884s.868-2.898 2.366-2.898c.952 0 1.834.574 2.226 1.232v3.346c-.392.644-1.274 1.204-2.226 1.204zM58.601 187.168c.56 0 .882-.168 1.148-.42l-.28-.56a1.056 1.056 0 01-.756.322c-.476 0-.7-.378-.7-.924v-4.704h1.372v-.644h-1.372v-1.848h-.742v1.848h-1.12v.644h1.12v4.816c0 .924.434 1.47 1.33 1.47zm7.677-.168v-4.76c0-1.526-.756-2.17-2.128-2.17-.98 0-1.946.602-2.436 1.19v-3.598h-.728V187h.728v-5.11c.434-.616 1.33-1.162 2.198-1.162.98 0 1.638.364 1.638 1.666V187h.728zm5.265.168c1.12 0 1.974-.392 2.646-1.092l-.378-.476c-.574.616-1.358.938-2.212.938-1.596 0-2.576-1.218-2.646-2.688h5.656v-.196c0-1.946-1.134-3.584-3.192-3.584-1.876 0-3.262 1.582-3.262 3.542 0 2.086 1.414 3.556 3.388 3.556zm2.324-3.892h-4.914c.056-1.176.854-2.576 2.45-2.576 1.694 0 2.45 1.428 2.464 2.576zm2.175 6.37c.182.056.49.098.714.098.798 0 1.372-.406 1.736-1.26l3.5-8.246h-.826l-2.436 5.908-2.464-5.908h-.812l2.856 6.818-.532 1.204c-.266.644-.574.826-1.022.826-.168 0-.434-.042-.588-.112l-.126.672zM93.35 187l2.198-6.762h-.784l-1.792 5.74-1.904-5.74h-.63l-1.904 5.74-1.792-5.74h-.784L88.156 187h.7l1.904-5.782L92.65 187h.7zm6.562.168c1.12 0 1.974-.392 2.646-1.092l-.378-.476c-.574.616-1.358.938-2.212.938-1.596 0-2.576-1.218-2.646-2.688h5.656v-.196c0-1.946-1.134-3.584-3.192-3.584-1.876 0-3.262 1.582-3.262 3.542 0 2.086 1.414 3.556 3.388 3.556zm2.324-3.892h-4.914c.056-1.176.854-2.576 2.45-2.576 1.694 0 2.45 1.428 2.464 2.576zm3.351 3.724v-4.928c.308-.588 1.232-1.204 1.918-1.204.14 0 .238 0 .364.028v-.798c-.938 0-1.708.546-2.282 1.302v-1.162h-.728V187h.728zm6.712.168c1.12 0 1.974-.392 2.646-1.092l-.378-.476c-.574.616-1.358.938-2.212.938-1.596 0-2.576-1.218-2.646-2.688h5.656v-.196c0-1.946-1.134-3.584-3.192-3.584-1.876 0-3.262 1.582-3.262 3.542 0 2.086 1.414 3.556 3.388 3.556zm2.324-3.892h-4.914c.056-1.176.854-2.576 2.45-2.576 1.694 0 2.45 1.428 2.464 2.576zM126.161 187v-4.76c0-1.526-.756-2.17-2.128-2.17-.98 0-1.946.602-2.436 1.19v-3.598h-.728V187h.728v-5.11c.434-.616 1.33-1.162 2.198-1.162.98 0 1.638.364 1.638 1.666V187h.728zm2.633-7.826c.308 0 .56-.252.56-.56a.55.55 0 00-.56-.546.559.559 0 00-.56.546c0 .308.266.56.56.56zm.364 7.826v-6.762h-.728V187h.728zm2.994 0v-4.928c.308-.588 1.232-1.204 1.918-1.204.14 0 .238 0 .364.028v-.798c-.938 0-1.708.546-2.282 1.302v-1.162h-.728V187h.728zm4.079-7.826c.308 0 .56-.252.56-.56a.55.55 0 00-.56-.546.559.559 0 00-.56.546c0 .308.266.56.56.56zm.364 7.826v-6.762h-.728V187h.728zm7.558 0v-4.732c0-1.526-.756-2.198-2.128-2.198-.98 0-1.946.602-2.436 1.19v-1.022h-.728V187h.728v-5.11c.434-.616 1.33-1.162 2.198-1.162.98 0 1.638.392 1.638 1.694V187h.728zm4.943 2.744c1.652 0 3.052-.742 3.052-2.814v-6.692h-.742v1.092c-.546-.77-1.386-1.26-2.352-1.26-1.792 0-3.024 1.4-3.024 3.542 0 2.17 1.232 3.528 3.024 3.528 1.008 0 1.876-.574 2.352-1.26v1.064c0 1.554-1.078 2.17-2.31 2.17-1.008 0-1.652-.252-2.24-.952l-.42.56c.798.812 1.526 1.022 2.66 1.022zm.084-3.262c-1.498 0-2.366-1.232-2.366-2.87 0-1.638.868-2.884 2.366-2.884.938 0 1.834.574 2.226 1.232v3.29c-.392.658-1.288 1.232-2.226 1.232zm13.875.518v-4.76c0-1.512-1.092-2.17-2.464-2.17-1.12 0-1.904.378-2.604 1.134l.406.504c.616-.7 1.274-.994 2.114-.994 1.008 0 1.82.546 1.82 1.554v1.372c-.588-.658-1.358-.966-2.296-.966-1.176 0-2.366.77-2.366 2.24 0 1.456 1.204 2.254 2.366 2.254.938 0 1.694-.308 2.296-.966V187h.728zm-2.772-.406c-1.12 0-1.848-.714-1.848-1.666 0-.966.728-1.68 1.848-1.68.812 0 1.568.322 2.044.938v1.484c-.476.616-1.232.924-2.044.924zm10.773.406v-9.338h-.742v3.668c-.546-.77-1.386-1.26-2.352-1.26-1.792 0-3.024 1.414-3.024 3.556 0 2.17 1.232 3.542 3.024 3.542a2.88 2.88 0 002.352-1.246V187h.742zm-2.968-.49c-1.498 0-2.366-1.246-2.366-2.884s.868-2.898 2.366-2.898c.952 0 1.834.574 2.226 1.232v3.346c-.392.644-1.274 1.204-2.226 1.204zm10.966.49v-9.338h-.742v3.668c-.546-.77-1.386-1.26-2.352-1.26-1.792 0-3.024 1.414-3.024 3.556 0 2.17 1.232 3.542 3.024 3.542a2.88 2.88 0 002.352-1.246V187h.742zm-2.968-.49c-1.498 0-2.366-1.246-2.366-2.884s.868-2.898 2.366-2.898c.952 0 1.834.574 2.226 1.232v3.346c-.392.644-1.274 1.204-2.226 1.204zm5.604-7.336c.308 0 .56-.252.56-.56a.55.55 0 00-.56-.546.559.559 0 00-.56.546c0 .308.266.56.56.56zm.364 7.826v-6.762h-.728V187h.728zm3.736.168c.56 0 .882-.168 1.148-.42l-.28-.56a1.056 1.056 0 01-.756.322c-.476 0-.7-.378-.7-.924v-4.704h1.372v-.644h-1.372v-1.848h-.742v1.848h-1.12v.644h1.12v4.816c0 .924.434 1.47 1.33 1.47zm2.75-7.994c.308 0 .56-.252.56-.56a.55.55 0 00-.56-.546.559.559 0 00-.56.546c0 .308.266.56.56.56zm.364 7.826v-6.762h-.728V187h.728zm5.122.168c2.002 0 3.262-1.582 3.262-3.556s-1.26-3.542-3.262-3.542c-1.974 0-3.248 1.568-3.248 3.542 0 1.974 1.274 3.556 3.248 3.556zm0-.658c-1.568 0-2.464-1.386-2.464-2.898 0-1.498.896-2.884 2.464-2.884 1.596 0 2.478 1.386 2.478 2.884 0 1.512-.882 2.898-2.478 2.898zm10.434.49v-4.732c0-1.526-.756-2.198-2.128-2.198-.98 0-1.946.602-2.436 1.19v-1.022h-.728V187h.728v-5.11c.434-.616 1.33-1.162 2.198-1.162.98 0 1.638.392 1.638 1.694V187h.728zm7.295 0v-4.76c0-1.512-1.092-2.17-2.464-2.17-1.12 0-1.904.378-2.604 1.134l.406.504c.616-.7 1.274-.994 2.114-.994 1.008 0 1.82.546 1.82 1.554v1.372c-.588-.658-1.358-.966-2.296-.966-1.176 0-2.366.77-2.366 2.24 0 1.456 1.204 2.254 2.366 2.254.938 0 1.694-.308 2.296-.966V187h.728zm-2.772-.406c-1.12 0-1.848-.714-1.848-1.666 0-.966.728-1.68 1.848-1.68.812 0 1.568.322 2.044.938v1.484c-.476.616-1.232.924-2.044.924zm5.774.406v-9.338h-.728V187h.728zm7.906.168c1.694 0 2.534-.896 2.534-1.988 0-2.604-4.27-1.568-4.27-3.262 0-.7.644-1.232 1.694-1.232.896 0 1.624.364 2.016.896l.406-.518c-.49-.546-1.26-.994-2.422-.994-1.526 0-2.408.84-2.408 1.876 0 2.422 4.27 1.386 4.27 3.234 0 .784-.672 1.372-1.806 1.372-.952 0-1.75-.448-2.184-.994l-.434.546c.672.742 1.512 1.064 2.604 1.064zm5.879 0c.56 0 .882-.168 1.148-.42l-.28-.56a1.056 1.056 0 01-.756.322c-.476 0-.7-.378-.7-.924v-4.704h1.372v-.644h-1.372v-1.848h-.742v1.848h-1.12v.644h1.12v4.816c0 .924.434 1.47 1.33 1.47zm7.412-.168v-4.76c0-1.512-1.092-2.17-2.464-2.17-1.12 0-1.904.378-2.604 1.134l.406.504c.616-.7 1.274-.994 2.114-.994 1.008 0 1.82.546 1.82 1.554v1.372c-.588-.658-1.358-.966-2.296-.966-1.176 0-2.366.77-2.366 2.24 0 1.456 1.204 2.254 2.366 2.254.938 0 1.694-.308 2.296-.966V187h.728zm-2.772-.406c-1.12 0-1.848-.714-1.848-1.666 0-.966.728-1.68 1.848-1.68.812 0 1.568.322 2.044.938v1.484c-.476.616-1.232.924-2.044.924zm6.013.406v-6.118h1.372v-.644h-1.372v-.616c0-.938.406-1.47 1.176-1.47.364 0 .644.14.868.35l.35-.504c-.434-.378-.812-.476-1.288-.476-1.134 0-1.834.784-1.834 2.1v.616h-1.12v.644h1.12V187h.728zm3.71 0v-6.118h1.372v-.644h-1.372v-.616c0-.938.406-1.47 1.176-1.47.364 0 .644.14.868.35l.35-.504c-.434-.378-.812-.476-1.288-.476-1.134 0-1.834.784-1.834 2.1v.616h-1.12v.644h1.12V187h.728zm12.096 0v-9.338h-.742v3.668c-.546-.77-1.386-1.26-2.352-1.26-1.792 0-3.024 1.414-3.024 3.556 0 2.17 1.232 3.542 3.024 3.542a2.88 2.88 0 002.352-1.246V187h.742zm-2.968-.49c-1.498 0-2.366-1.246-2.366-2.884s.868-2.898 2.366-2.898c.952 0 1.834.574 2.226 1.232v3.346c-.392.644-1.274 1.204-2.226 1.204zm8.236.658c1.12 0 1.974-.392 2.646-1.092l-.378-.476c-.574.616-1.358.938-2.212.938-1.596 0-2.576-1.218-2.646-2.688h5.656v-.196c0-1.946-1.134-3.584-3.192-3.584-1.876 0-3.262 1.582-3.262 3.542 0 2.086 1.414 3.556 3.388 3.556zm2.324-3.892h-4.914c.056-1.176.854-2.576 2.45-2.576 1.694 0 2.45 1.428 2.464 2.576zm8.35 3.724v-9.338h-.742v3.668c-.546-.77-1.386-1.26-2.352-1.26-1.792 0-3.024 1.414-3.024 3.556 0 2.17 1.232 3.542 3.024 3.542a2.88 2.88 0 002.352-1.246V187h.742zm-2.968-.49c-1.498 0-2.366-1.246-2.366-2.884s.868-2.898 2.366-2.898c.952 0 1.834.574 2.226 1.232v3.346c-.392.644-1.274 1.204-2.226 1.204zm5.604-7.336c.308 0 .56-.252.56-.56a.55.55 0 00-.56-.546.559.559 0 00-.56.546c0 .308.266.56.56.56zm.364 7.826v-6.762h-.728V187h.728zm5.164.168c1.176 0 1.848-.462 2.394-1.162l-.504-.448c-.49.672-1.106.952-1.848.952-1.582 0-2.548-1.274-2.548-2.898s.966-2.884 2.548-2.884c.742 0 1.358.266 1.848.938l.504-.448c-.546-.686-1.218-1.148-2.394-1.148-1.988 0-3.29 1.568-3.29 3.542 0 1.974 1.302 3.556 3.29 3.556zm9.046-.168v-4.76c0-1.512-1.092-2.17-2.464-2.17-1.12 0-1.904.378-2.604 1.134l.406.504c.616-.7 1.274-.994 2.114-.994 1.008 0 1.82.546 1.82 1.554v1.372c-.588-.658-1.358-.966-2.296-.966-1.176 0-2.366.77-2.366 2.24 0 1.456 1.204 2.254 2.366 2.254.938 0 1.694-.308 2.296-.966V187h.728zm-2.772-.406c-1.12 0-1.848-.714-1.848-1.666 0-.966.728-1.68 1.848-1.68.812 0 1.568.322 2.044.938v1.484c-.476.616-1.232.924-2.044.924zm6.517.574c.56 0 .882-.168 1.148-.42l-.28-.56a1.056 1.056 0 01-.756.322c-.476 0-.7-.378-.7-.924v-4.704h1.372v-.644h-1.372v-1.848h-.742v1.848h-1.12v.644h1.12v4.816c0 .924.434 1.47 1.33 1.47zm5.381 0c1.12 0 1.974-.392 2.646-1.092l-.378-.476c-.574.616-1.358.938-2.212.938-1.596 0-2.576-1.218-2.646-2.688h5.656v-.196c0-1.946-1.134-3.584-3.192-3.584-1.876 0-3.262 1.582-3.262 3.542 0 2.086 1.414 3.556 3.388 3.556zm2.324-3.892h-4.914c.056-1.176.854-2.576 2.45-2.576 1.694 0 2.45 1.428 2.464 2.576zm8.35 3.724v-9.338h-.742v3.668c-.546-.77-1.386-1.26-2.352-1.26-1.792 0-3.024 1.414-3.024 3.556 0 2.17 1.232 3.542 3.024 3.542a2.88 2.88 0 002.352-1.246V187h.742zm-2.968-.49c-1.498 0-2.366-1.246-2.366-2.884s.868-2.898 2.366-2.898c.952 0 1.834.574 2.226 1.232v3.346c-.392.644-1.274 1.204-2.226 1.204zm10.333.658c.56 0 .882-.168 1.148-.42l-.28-.56a1.056 1.056 0 01-.756.322c-.476 0-.7-.378-.7-.924v-4.704h1.372v-.644h-1.372v-1.848h-.742v1.848h-1.12v.644h1.12v4.816c0 .924.434 1.47 1.33 1.47zm5.241 0c2.002 0 3.262-1.582 3.262-3.556s-1.26-3.542-3.262-3.542c-1.974 0-3.248 1.568-3.248 3.542 0 1.974 1.274 3.556 3.248 3.556zm0-.658c-1.568 0-2.464-1.386-2.464-2.898 0-1.498.896-2.884 2.464-2.884 1.596 0 2.478 1.386 2.478 2.884 0 1.512-.882 2.898-2.478 2.898zm11.663.658c1.176 0 1.848-.462 2.394-1.162l-.504-.448c-.49.672-1.106.952-1.848.952-1.582 0-2.548-1.274-2.548-2.898s.966-2.884 2.548-2.884c.742 0 1.358.266 1.848.938l.504-.448c-.546-.686-1.218-1.148-2.394-1.148-1.988 0-3.29 1.568-3.29 3.542 0 1.974 1.302 3.556 3.29 3.556zm6.876 0c2.002 0 3.262-1.582 3.262-3.556s-1.26-3.542-3.262-3.542c-1.974 0-3.248 1.568-3.248 3.542 0 1.974 1.274 3.556 3.248 3.556zm0-.658c-1.568 0-2.464-1.386-2.464-2.898 0-1.498.896-2.884 2.464-2.884 1.596 0 2.478 1.386 2.478 2.884 0 1.512-.882 2.898-2.478 2.898zm13.92.49v-4.872c0-1.358-.602-2.058-1.848-2.058-.952 0-1.862.644-2.24 1.274-.168-.658-.728-1.274-1.778-1.274-.98 0-1.904.756-2.184 1.19v-1.022h-.728V187h.728v-5.11c.406-.616 1.218-1.162 1.932-1.162.966 0 1.358.588 1.358 1.54V187H349v-5.124c.378-.616 1.204-1.148 1.932-1.148.952 0 1.358.588 1.358 1.54V187h.728zm2.997-1.694v-3.346c.392-.644 1.288-1.232 2.226-1.232 1.512 0 2.366 1.26 2.366 2.898 0 1.638-.854 2.884-2.366 2.884-.938 0-1.834-.56-2.226-1.204zm0 1.694v-1.078a2.88 2.88 0 002.352 1.246c1.792 0 3.024-1.372 3.024-3.542 0-2.142-1.218-3.556-3.024-3.556-.952 0-1.806.49-2.352 1.26v-3.668h-.728V187h.728zm12.296 0v-4.76c0-1.512-1.092-2.17-2.464-2.17-1.12 0-1.904.378-2.604 1.134l.406.504c.616-.7 1.274-.994 2.114-.994 1.008 0 1.82.546 1.82 1.554v1.372c-.588-.658-1.358-.966-2.296-.966-1.176 0-2.366.77-2.366 2.24 0 1.456 1.204 2.254 2.366 2.254.938 0 1.694-.308 2.296-.966V187h.728zm-2.772-.406c-1.12 0-1.848-.714-1.848-1.666 0-.966.728-1.68 1.848-1.68.812 0 1.568.322 2.044.938v1.484c-.476.616-1.232.924-2.044.924zm6.517.574c.56 0 .882-.168 1.148-.42l-.28-.56a1.056 1.056 0 01-.756.322c-.476 0-.7-.378-.7-.924v-4.704h1.372v-.644h-1.372v-1.848h-.742v1.848h-1.12v.644h1.12v4.816c0 .924.434 1.47 1.33 1.47zm2.749-7.994c.308 0 .56-.252.56-.56a.55.55 0 00-.56-.546.559.559 0 00-.56.546c0 .308.266.56.56.56zm.364 7.826v-6.762h-.728V187h.728zm7.559 0v-4.732c0-1.526-.756-2.198-2.128-2.198-.98 0-1.946.602-2.436 1.19v-1.022h-.728V187h.728v-5.11c.434-.616 1.33-1.162 2.198-1.162.98 0 1.638.392 1.638 1.694V187h.728zm4.942 2.744c1.652 0 3.052-.742 3.052-2.814v-6.692h-.742v1.092c-.546-.77-1.386-1.26-2.352-1.26-1.792 0-3.024 1.4-3.024 3.542 0 2.17 1.232 3.528 3.024 3.528 1.008 0 1.876-.574 2.352-1.26v1.064c0 1.554-1.078 2.17-2.31 2.17-1.008 0-1.652-.252-2.24-.952l-.42.56c.798.812 1.526 1.022 2.66 1.022zm.084-3.262c-1.498 0-2.366-1.232-2.366-2.87 0-1.638.868-2.884 2.366-2.884.938 0 1.834.574 2.226 1.232v3.29c-.392.658-1.288 1.232-2.226 1.232zm13.064.686c2.73 0 4.536-2.1 4.536-4.83s-1.806-4.83-4.536-4.83c-2.744 0-4.536 2.1-4.536 4.83s1.792 4.83 4.536 4.83zm0-.728c-2.268 0-3.696-1.75-3.696-4.102 0-2.38 1.428-4.102 3.696-4.102 2.24 0 3.696 1.722 3.696 4.102 0 2.352-1.456 4.102-3.696 4.102zm12.945.56l-2.702-3.92c1.386-.056 2.59-.994 2.59-2.688 0-1.708-1.232-2.73-2.842-2.73h-3.486V187h.798v-3.864h2.058l2.618 3.864h.966zm-3.024-4.592h-2.618v-4.018h2.618c1.232 0 2.072.826 2.072 2.002 0 1.176-.84 2.016-2.072 2.016zm9.278 4.76c1.484 0 2.576-.644 3.402-1.666l-.672-.42c-.588.812-1.61 1.358-2.73 1.358-2.198 0-3.892-1.694-3.892-4.102 0-2.436 1.694-4.102 3.892-4.102 1.12 0 2.142.546 2.73 1.358l.672-.434c-.798-.994-1.918-1.652-3.402-1.652-2.646 0-4.732 1.96-4.732 4.83s2.086 4.83 4.732 4.83zm10.426 2.296c-.882-1.792-1.484-3.444-1.484-5.866 0-2.436.602-4.074 1.484-5.88l-.434-.308a11.13 11.13 0 00-1.862 6.188c0 2.254.658 4.368 1.862 6.188l.434-.322zm4.292-2.296c2.52 0 3.318-1.442 3.318-2.646 0-3.486-5.6-2.17-5.6-4.564 0-1.008.938-1.722 2.184-1.722 1.05 0 2.002.364 2.674 1.176l.532-.588c-.728-.826-1.764-1.316-3.164-1.316-1.694 0-3.066.966-3.066 2.492 0 3.262 5.6 1.834 5.6 4.578 0 .798-.546 1.862-2.464 1.862-1.33 0-2.31-.658-2.912-1.358l-.518.602c.714.868 1.876 1.484 3.416 1.484zm8.064 0c2.002 0 3.262-1.582 3.262-3.556s-1.26-3.542-3.262-3.542c-1.974 0-3.248 1.568-3.248 3.542 0 1.974 1.274 3.556 3.248 3.556zm0-.658c-1.568 0-2.464-1.386-2.464-2.898 0-1.498.896-2.884 2.464-2.884 1.596 0 2.478 1.386 2.478 2.884 0 1.512-.882 2.898-2.478 2.898zm10.434.49v-6.762h-.728v5.152c-.448.602-1.33 1.12-2.198 1.12-.98 0-1.638-.364-1.638-1.68v-4.592h-.728v4.76c0 1.526.742 2.17 2.128 2.17.98 0 1.876-.546 2.436-1.162V187h.728zm2.997 0v-4.928c.308-.588 1.232-1.204 1.918-1.204.14 0 .238 0 .364.028v-.798c-.938 0-1.708.546-2.282 1.302v-1.162h-.728V187h.728zm6.613.168c1.176 0 1.848-.462 2.394-1.162l-.504-.448c-.49.672-1.106.952-1.848.952-1.582 0-2.548-1.274-2.548-2.898s.966-2.884 2.548-2.884c.742 0 1.358.266 1.848.938l.504-.448c-.546-.686-1.218-1.148-2.394-1.148-1.988 0-3.29 1.568-3.29 3.542 0 1.974 1.302 3.556 3.29 3.556zm7.016 0c1.12 0 1.974-.392 2.646-1.092l-.378-.476c-.574.616-1.358.938-2.212.938-1.596 0-2.576-1.218-2.646-2.688h5.656v-.196c0-1.946-1.134-3.584-3.192-3.584-1.876 0-3.262 1.582-3.262 3.542 0 2.086 1.414 3.556 3.388 3.556zm2.324-3.892h-4.914c.056-1.176.854-2.576 2.45-2.576 1.694 0 2.45 1.428 2.464 2.576zm3.016-1.918c.336 0 .63-.28.63-.602a.634.634 0 00-.63-.616.621.621 0 00-.616.616c0 .322.28.602.616.602zm0 5.782c.336 0 .63-.294.63-.63 0-.322-.294-.602-.63-.602a.619.619 0 00-.616.602c0 .336.28.63.616.63zm13.783-.14v-9.338h-.798v7.91l-5.852-7.91h-.812V187h.798v-8.022l5.88 8.022h.784zm8.767 0l-2.702-3.92c1.386-.056 2.59-.994 2.59-2.688 0-1.708-1.232-2.73-2.842-2.73h-3.486V187h.798v-3.864h2.058l2.618 3.864h.966zm-3.024-4.592h-2.618v-4.018h2.618c1.232 0 2.072.826 2.072 2.002 0 1.176-.84 2.016-2.072 2.016zM500.42 187v-4.424h5.026v-.728h-5.026v-3.458h5.124v-.728h-5.922V187h.798zm13.311.168c2.52 0 3.318-1.442 3.318-2.646 0-3.486-5.6-2.17-5.6-4.564 0-1.008.938-1.722 2.184-1.722 1.05 0 2.002.364 2.674 1.176l.532-.588c-.728-.826-1.764-1.316-3.164-1.316-1.694 0-3.066.966-3.066 2.492 0 3.262 5.6 1.834 5.6 4.578 0 .798-.546 1.862-2.464 1.862-1.33 0-2.31-.658-2.912-1.358l-.518.602c.714.868 1.876 1.484 3.416 1.484zm10.501-.168v-6.762h-.728v5.152c-.448.602-1.33 1.12-2.198 1.12-.98 0-1.638-.364-1.638-1.68v-4.592h-.728v4.76c0 1.526.742 2.17 2.128 2.17.98 0 1.876-.546 2.436-1.162V187h.728zm2.996 0v-4.928c.308-.588 1.232-1.204 1.918-1.204.14 0 .238 0 .364.028v-.798c-.938 0-1.708.546-2.282 1.302v-1.162h-.728V187h.728zm6.361 0l2.856-6.762h-.826l-2.436 5.908-2.464-5.908h-.812l2.856 6.762h.826zm7.091.168c1.12 0 1.974-.392 2.646-1.092l-.378-.476c-.574.616-1.358.938-2.212.938-1.596 0-2.576-1.218-2.646-2.688h5.656v-.196c0-1.946-1.134-3.584-3.192-3.584-1.876 0-3.262 1.582-3.262 3.542 0 2.086 1.414 3.556 3.388 3.556zm2.324-3.892h-4.914c.056-1.176.854-2.576 2.45-2.576 1.694 0 2.45 1.428 2.464 2.576zm2.175 6.37c.182.056.49.098.714.098.798 0 1.372-.406 1.736-1.26l3.5-8.246h-.826l-2.436 5.908-2.464-5.908h-.812l2.856 6.818-.532 1.204c-.266.644-.574.826-1.022.826-.168 0-.434-.042-.588-.112l-.126.672zm6.726.14a11.143 11.143 0 000-12.376l-.434.308c.896 1.806 1.484 3.444 1.484 5.88 0 2.422-.588 4.074-1.484 5.866l.434.322z" fill="#000"/><circle cx="46.997" cy="42" r="2" fill="#77BCE8"/><circle cx="46.997" cy="98" r="2" fill="#77BCE8"/><circle cx="46.997" cy="126" r="2" fill="#77BCE8"/><circle cx="46.997" cy="154" r="2" fill="#77BCE8"/><defs><filter id="filter0_ddd" x="5.997" y="3" width="692.006" height="222" filterUnits="userSpaceOnUse" color-interpolation-filters="sRGB"><feFlood flood-opacity="0" result="BackgroundImageFix"/><feColorMatrix in="SourceAlpha" values="0 0 0 0 0 0 0 0 0 0 0 0 0 0 0 0 0 0 127 0"/><feOffset dy="1"/><feGaussianBlur stdDeviation="5"/><feColorMatrix values="0 0 0 0 0.317647 0 0 0 0 0.662745 0 0 0 0 0.882353 0 0 0 0.2 0"/><feBlend in2="BackgroundImageFix" result="effect1_dropShadow"/><feColorMatrix in="SourceAlpha" values="0 0 0 0 0 0 0 0 0 0 0 0 0 0 0 0 0 0 127 0"/><feOffset dy="4"/><feGaussianBlur stdDeviation="2.5"/><feColorMatrix values="0 0 0 0 0.317647 0 0 0 0 0.662745 0 0 0 0 0.882353 0 0 0 0.12 0"/><feBlend in2="effect1_dropShadow" result="effect2_dropShadow"/><feColorMatrix in="SourceAlpha" values="0 0 0 0 0 0 0 0 0 0 0 0 0 0 0 0 0 0 127 0"/><feOffset dy="2"/><feGaussianBlur stdDeviation="2"/><feColorMatrix values="0 0 0 0 0.317647 0 0 0 0 0.662745 0 0 0 0 0.882353 0 0 0 0.14 0"/><feBlend in2="effect2_dropShadow" result="effect3_dropShadow"/><feBlend in="SourceGraphic" in2="effect3_dropShadow" result="shape"/></filter></defs></svg>