<svg width="72" height="72" fill="none" xmlns="http://www.w3.org/2000/svg"><path fill-rule="evenodd" clip-rule="evenodd" d="M66 0H6C2.692 0 0 2.692 0 6v45c0 3.308 2.692 6 6 6h60c3.308 0 6-2.692 6-6V6c0-3.308-2.692-6-6-6zM2.4 6c0-1.985 1.615-3.6 3.6-3.6h60c1.985 0 3.6 1.615 3.6 3.6v42H2.4V6z" fill="#92C9EC"/><path d="M39 60h-6v6H22.8a3.604 3.604 0 00-3.6 3.6v1.2c0 .664.536 1.2 1.2 1.2h31.2c.664 0 1.2-.536 1.2-1.2v-1.2c0-1.985-1.615-3.6-3.6-3.6H39v-6z" fill="#92C9EC"/><path d="M18 41h21M43 41h11M18 33h36M18 25h36M34 17h20M18 17h12M18 9h36" stroke="#103654" stroke-width="2"/></svg>