<svg width="798" height="114" fill="none" xmlns="http://www.w3.org/2000/svg">
  <g clip-path="url(#a)">
    <path fill-rule="evenodd" clip-rule="evenodd" d="M792.137.195 797.942 6l-5.805 5.805-.943-.943 4.195-4.195h-15.057V5.333h15.057l-4.195-4.195.943-.943Z" fill="#103654"/>
  </g>
  <path opacity=".6" d="m728 34.562-4.232 5.078a1 1 0 1 1-1.536-1.28l5-6a1 1 0 0 1 1.536 0l5 6a1 1 0 1 1-1.536 1.28L728 34.562Z" fill="#51A9E1"/>
  <path fill-rule="evenodd" clip-rule="evenodd" d="M719.282 39a1 1 0 0 0-.97 1.242l2.121 8.486a3 3 0 0 0 2.91 2.272h9.316a3 3 0 0 0 2.91-2.272l2.121-8.486a1 1 0 0 0-.97-1.242h-17.438Zm8.719 3a1 1 0 0 0-1 1v4a1 1 0 0 0 2 0v-4a1 1 0 0 0-1-1Zm-5.742 1.361a1 1 0 1 1 1.931-.518l1.036 3.864a1 1 0 0 1-1.932.518l-1.035-3.864Zm10.777-1.225a1 1 0 0 0-1.225.707l-1.035 3.864a1 1 0 0 0 1.932.518l1.035-3.864a1 1 0 0 0-.707-1.225Z" fill="#51A9E1"/>
  <path d="m728 4.562-4.232 5.078a1 1 0 1 1-1.536-1.28l5-6a1 1 0 0 1 1.536 0l5 6a1 1 0 1 1-1.536 1.28L728 4.562Z" fill="#CBE6F6"/>
  <path fill-rule="evenodd" clip-rule="evenodd" d="M719.282 9a1 1 0 0 0-.97 1.242l2.121 8.486a3 3 0 0 0 2.91 2.272h9.316a3 3 0 0 0 2.91-2.272l2.121-8.486A1 1 0 0 0 736.72 9h-17.438Zm8.719 3a1 1 0 0 0-1 1v4a1 1 0 0 0 2 0v-4a1 1 0 0 0-1-1Zm-5.742 1.361a1 1 0 1 1 1.931-.518l1.036 3.864a1 1 0 0 1-1.932.518l-1.035-3.864Zm10.777-1.225a1 1 0 0 0-1.225.707l-1.035 3.864a1 1 0 0 0 1.932.518l1.035-3.864a1 1 0 0 0-.707-1.225Z" fill="#82C1E9"/>
  <path d="M695.746 94h6.022c.438.011.705.274.731.709V102.12c.002.124-.009.247-.033.368a.616.616 0 0 1-.499.492c-.1.02-.202.031-.304.03h-11.848a1.424 1.424 0 0 1-.325-.034.65.65 0 0 1-.488-.579c-.005-.065 0-.131 0-.196v-7.497c.007-.4.239-.656.638-.696.08-.008.161-.004.24-.004l5.866-.004Z" fill="#51A9E1"/>
  <path d="M694.01 104.237H701.732a1.9 1.9 0 0 0 .951-.203c.653-.358 1.029-.9 1.034-1.653.011-1.617 0-3.236.005-4.853 0-.328 0-.329.32-.329.277 0 .555.012.832 0 .546-.03 1.037.134 1.497.406a7.281 7.281 0 0 1 2.154 1.927c.112.154.213.314.304.48.112.197.171.42.169.646-.004 1.822-.004 3.643 0 5.465 0 .244-.064.453-.271.586a.864.864 0 0 1-.365.122 6.522 6.522 0 0 1-.656.006c-.169 0-.175-.006-.219-.176a3.204 3.204 0 0 0-3.087-2.396 3.202 3.202 0 0 0-3.102 2.378c-.053.196-.054.198-.263.198h-4.182c-.208 0-.204 0-.263-.205-.36-1.213-1.154-1.977-2.382-2.292-.067-.018-.134-.041-.2-.062l.002-.045Zm10.817-3.841v1.422c0 .183 0 .187.175.187h2.737c.175 0 .187-.004.175-.186-.035-.665-.19-1.296-.56-1.859a2.387 2.387 0 0 0-1.402-1.019 3.117 3.117 0 0 0-.886-.114c-.244 0-.245 0-.246.236l.007 1.333Z" fill="#51A9E1"/>
  <path d="M704.412 105.499a1.912 1.912 0 0 1 1.371.569 1.916 1.916 0 0 1 .557 1.377c.007 1.129-.871 1.96-1.965 1.952-1.234-.009-1.951-1.051-1.941-1.98.008-.887.753-1.932 1.978-1.918ZM693.517 105.499a1.952 1.952 0 0 1 1.883 2.353 1.955 1.955 0 0 1-1.549 1.513 1.953 1.953 0 0 1-2.308-1.939 1.954 1.954 0 0 1 1.974-1.927ZM692.999 104.276c-.067.021-.133.045-.201.063-1.226.317-2.02 1.076-2.38 2.287-.062.207-.06.209-.282.21h-.503a.63.63 0 0 1-.629-.624c-.008-.633 0-1.266 0-1.899 0-.167.005-.158.175-.131.186.032.374.051.562.055 1.006.005 2.011 0 3.017 0h.235l.006.039Z" fill="#51A9E1"/>
  <path d="M695.746 64h6.022c.438.011.705.274.731.709V72.12c.002.123-.009.247-.033.368a.615.615 0 0 1-.499.492c-.1.02-.202.03-.304.03h-11.848c-.109.001-.218-.01-.325-.034a.655.655 0 0 1-.488-.58c-.005-.064 0-.13 0-.195v-7.497c.007-.4.239-.656.638-.696.08-.008.161-.004.24-.004l5.866-.004Z" fill="#82C1E9"/>
  <path d="M694.01 74.237H701.732c.329.016.657-.054.951-.203.653-.358 1.029-.9 1.034-1.653.011-1.618 0-3.236.005-4.853 0-.328 0-.329.32-.329.277 0 .555.012.832 0 .546-.03 1.037.134 1.497.406a7.281 7.281 0 0 1 2.154 1.927c.112.154.213.314.304.48.112.197.171.42.169.646-.004 1.822-.004 3.644 0 5.465 0 .244-.064.453-.271.586a.857.857 0 0 1-.365.121 6.294 6.294 0 0 1-.656.007c-.169 0-.175-.007-.219-.176a3.2 3.2 0 0 0-6.189-.018c-.053.196-.054.198-.263.198h-4.182c-.208 0-.204 0-.263-.205-.36-1.213-1.154-1.977-2.382-2.292-.067-.018-.134-.041-.2-.062l.002-.045Zm10.817-3.84v1.42c0 .184 0 .188.175.188h2.737c.175 0 .187-.004.175-.186-.035-.665-.19-1.296-.56-1.859a2.387 2.387 0 0 0-1.402-1.019 3.117 3.117 0 0 0-.886-.114c-.244 0-.245 0-.246.236l.007 1.333Z" fill="#51A9E1"/>
  <path d="M704.412 75.499a1.921 1.921 0 0 1 1.928 1.946c.007 1.13-.871 1.96-1.965 1.952-1.234-.009-1.951-1.052-1.941-1.98.008-.887.753-1.932 1.978-1.918ZM693.517 75.499a1.95 1.95 0 1 1-.048 3.899 1.95 1.95 0 0 1 .048-3.9ZM692.999 74.276c-.067.021-.133.045-.201.063-1.226.317-2.02 1.076-2.38 2.287-.062.207-.06.209-.282.21h-.503a.631.631 0 0 1-.629-.624c-.008-.633 0-1.266 0-1.899 0-.167.005-.158.175-.131.186.032.374.05.562.055 1.006.005 2.011 0 3.017 0h.235l.006.04Z" fill="#51A9E1"/>
  <rect opacity=".6" x="689" y="35" width="20" height="14" rx="2" fill="#51A9E1"/>
  <path fill="#51A9E1" d="M689 38h20v3h-20z"/>
  <rect x="703" y="44" width="4" height="2" rx="1" fill="#51A9E1"/>
  <rect opacity=".3" x="689" y="5" width="20" height="14" rx="2" fill="#51A9E1"/>
  <path fill="#51A9E1" d="M689 8h20v3h-20z"/>
  <rect opacity=".3" x="703" y="14" width="4" height="2" rx="1" fill="#51A9E1"/>
  <path opacity=".6" fill-rule="evenodd" clip-rule="evenodd" d="M662.809 101a.5.5 0 0 1-.447-.724l.5-1a.5.5 0 0 1 .447-.276h9.882a.5.5 0 0 1 .447.724l-.5 1a.499.499 0 0 1-.447.276h-9.882Zm9.382 2a.5.5 0 0 1 .447.724l-.5 1a.499.499 0 0 1-.447.276h-8.882a.5.5 0 0 1-.447-.724l.5-1a.5.5 0 0 1 .447-.276h8.882Z" fill="#51A9E1"/>
  <path fill-rule="evenodd" clip-rule="evenodd" d="M675.371 97.618a3.388 3.388 0 0 0-1.533-1.166 5.079 5.079 0 0 0-1.848-.367c-.77 0-1.47.14-2.1.42-.63.28-1.173.665-1.628 1.155a5.132 5.132 0 0 0-1.05 1.722 6.092 6.092 0 0 0-.367 2.142c0 .812.119 1.554.357 2.226a5.017 5.017 0 0 0 1.018 1.732c.441.483.97.858 1.586 1.124.616.266 1.309.399 2.079.399.798 0 1.505-.158 2.121-.473a4.145 4.145 0 0 0 1.491-1.249l2.121 1.491a6.794 6.794 0 0 1-2.415 1.921c-.952.455-2.065.683-3.339.683-1.162 0-2.23-.193-3.203-.578a7.376 7.376 0 0 1-2.509-1.617 7.361 7.361 0 0 1-1.638-2.478c-.392-.959-.588-2.019-.588-3.181 0-1.19.206-2.265.619-3.224a7.179 7.179 0 0 1 1.701-2.446 7.554 7.554 0 0 1 2.552-1.554c.98-.364 2.044-.546 3.192-.546.476 0 .973.045 1.491.136a7.585 7.585 0 0 1 1.491.42c.476.19.924.424 1.344.704.42.28.777.616 1.071 1.008l-2.016 1.596Z" fill="#51A9E1"/>
  <path opacity=".3" fill-rule="evenodd" clip-rule="evenodd" d="M662.809 71a.5.5 0 0 1-.447-.724l.5-1a.5.5 0 0 1 .447-.276h9.882a.5.5 0 0 1 .447.724l-.5 1a.498.498 0 0 1-.447.276h-9.882Zm9.382 2a.5.5 0 0 1 .447.724l-.5 1a.498.498 0 0 1-.447.276h-8.882a.5.5 0 0 1-.447-.724l.5-1a.5.5 0 0 1 .447-.276h8.882Z" fill="#51A9E1"/>
  <path fill-rule="evenodd" clip-rule="evenodd" d="M675.371 67.618a3.388 3.388 0 0 0-1.533-1.166 5.079 5.079 0 0 0-1.848-.367c-.77 0-1.47.14-2.1.42-.63.28-1.173.665-1.628 1.155a5.132 5.132 0 0 0-1.05 1.722 6.091 6.091 0 0 0-.367 2.142c0 .812.119 1.554.357 2.226a5.02 5.02 0 0 0 1.018 1.732c.441.483.97.858 1.586 1.124.616.266 1.309.399 2.079.399.798 0 1.505-.158 2.121-.473a4.146 4.146 0 0 0 1.491-1.25l2.121 1.492a6.796 6.796 0 0 1-2.415 1.921c-.952.455-2.065.683-3.339.683-1.162 0-2.23-.193-3.203-.578a7.376 7.376 0 0 1-2.509-1.617 7.361 7.361 0 0 1-1.638-2.478c-.392-.959-.588-2.02-.588-3.181 0-1.19.206-2.265.619-3.224a7.179 7.179 0 0 1 1.701-2.446 7.554 7.554 0 0 1 2.552-1.554c.98-.364 2.044-.546 3.192-.546.476 0 .973.045 1.491.136a7.585 7.585 0 0 1 1.491.42c.476.19.924.424 1.344.704.42.28.777.616 1.071 1.008l-2.016 1.596Z" fill="#51A9E1"/>
  <path d="M669.977 32a10.002 10.002 0 0 1 9.836 11.926 10.005 10.005 0 0 1-7.836 7.877A9.998 9.998 0 0 1 660 42.03c-.012-5.548 4.462-10.03 9.977-10.03Zm6.802 7.857c-.667-2.444-3.246-5.11-7.02-4.993-3.557.108-5.945 2.716-6.539 4.993.739 0 1.475 0 2.21-.005a.302.302 0 0 0 .191-.119c.159-.196.302-.406.46-.603a1.766 1.766 0 0 1 1.429-.7c1.652-.003 3.303-.003 4.954 0a1.775 1.775 0 0 1 1.465.723c.145.188.292.376.427.571a.294.294 0 0 0 .279.136c.498-.006.996 0 1.494 0l.65-.003ZM671.8 48.91a7.058 7.058 0 0 0 3.681-2.343 6.957 6.957 0 0 0 1.496-3.115c-2.856.018-5.305 2.548-5.177 5.458Zm-8.786-5.454a7.147 7.147 0 0 0 5.179 5.455c.111-3.026-2.438-5.465-5.179-5.455Zm9.124-.732a2.14 2.14 0 0 0-2.543-2.114 2.142 2.142 0 1 0 2.543 2.114Z" fill="#51A9E1"/>
  <path d="M671.424 42.714a1.427 1.427 0 0 1-.88 1.32 1.431 1.431 0 0 1-1.949-1.036 1.428 1.428 0 1 1 2.829-.284Z" fill="#51A9E1"/>
  <path d="M669.977 2a10.002 10.002 0 0 1 7.113 17.052A10.002 10.002 0 0 1 660 12.03C659.988 6.482 664.462 2 669.977 2Zm6.802 7.857c-.667-2.444-3.246-5.11-7.02-4.993-3.557.108-5.945 2.716-6.539 4.993.739 0 1.475 0 2.21-.005a.303.303 0 0 0 .191-.119c.159-.196.302-.406.46-.604a1.766 1.766 0 0 1 1.429-.699c1.652-.003 3.303-.003 4.954 0a1.775 1.775 0 0 1 1.465.723c.145.188.292.376.427.571a.294.294 0 0 0 .279.136c.498-.006.996 0 1.494 0l.65-.003ZM671.8 18.91a7.058 7.058 0 0 0 3.681-2.343 6.957 6.957 0 0 0 1.496-3.115c-2.856.018-5.305 2.548-5.177 5.458Zm-8.786-5.454a7.147 7.147 0 0 0 5.179 5.455c.111-3.026-2.438-5.465-5.179-5.456Zm9.124-.732a2.14 2.14 0 0 0-2.543-2.114 2.142 2.142 0 1 0 2.543 2.114Z" fill="#82C1E9"/>
  <path d="M671.424 12.714a1.427 1.427 0 0 1-.88 1.32 1.431 1.431 0 0 1-1.949-1.036 1.428 1.428 0 1 1 2.829-.284ZM640.996 95.794 636 93.534l4.996-1.28 4.636 1.142-4.636 2.398ZM637.293 106.515l1.482 4.454-4.391-2.255-2.635-4.067 5.544 1.868ZM644.699 106.515l-1.416 4.622 3.796-2.061 3.258-4.512-5.638 1.951ZM640.994 97.618c1.417.838 2.765 1.8 4.017 2.869a27.873 27.873 0 0 1-1.534 4.643 29.203 29.203 0 0 1-4.966 0 27.873 27.873 0 0 1-1.534-4.643 28.742 28.742 0 0 1 4.017-2.87ZM635.015 100.081l-1.083-4.987-2.209 4.039v5.013l3.292-4.065ZM646.977 100.128l1.239-4.392 1.521 3.726.173 4.322-2.933-3.656Z" fill="#51A9E1"/>
  <path d="M650.23 101.831c0 4.992-4.12 9.061-9.23 9.061s-9.23-4.069-9.23-9.061 4.12-9.061 9.23-9.061 9.23 4.069 9.23 9.061Z" stroke="#82C1E9" stroke-width="1.539"/>
  <path d="M640.996 65.794 636 63.534l4.996-1.28 4.636 1.142-4.636 2.398ZM637.293 76.515l1.482 4.454-4.391-2.255-2.635-4.067 5.544 1.868ZM644.699 76.515l-1.416 4.622 3.796-2.061 3.258-4.512-5.638 1.951ZM640.994 67.618c1.417.838 2.765 1.8 4.017 2.87a27.884 27.884 0 0 1-1.534 4.642c-1.652.141-3.314.141-4.966 0a27.884 27.884 0 0 1-1.534-4.643 28.727 28.727 0 0 1 4.017-2.87ZM635.015 70.08l-1.083-4.986-2.209 4.039v5.013l3.292-4.065ZM646.977 70.128l1.239-4.392 1.521 3.726.173 4.322-2.933-3.656Z" fill="#82C1E9"/>
  <path d="M650.23 71.83c0 4.993-4.12 9.062-9.23 9.062s-9.23-4.07-9.23-9.061c0-4.992 4.12-9.061 9.23-9.061s9.23 4.069 9.23 9.06Z" stroke="#CBE6F6" stroke-width="1.539"/>
  <path opacity=".6" d="m641.948 38.316-1.897-.632c.764-2.294 1.991-3.725 3.706-4.154.893-.223 2.242-1.66 2.242-2.53h2c0 1.797-1.983 4.027-3.757 4.47-.952.238-1.725 1.14-2.294 2.846Z" fill="#51A9E1"/>
  <path fill-rule="evenodd" clip-rule="evenodd" d="M636.817 37h8.384a3 3 0 0 1 3.324 1.72l3.424 7.674a3 3 0 0 1-.666 3.39l-.178.17a3 3 0 0 1-4.307-.166l-2.5-2.788h-6.435l-2.499 2.788a3 3 0 0 1-4.307.166l-.2-.191a3 3 0 0 1-.684-3.352l3.287-7.655A3 3 0 0 1 636.817 37Zm.182 7a2 2 0 1 0 0-4 2 2 0 0 0 0 4Zm10-3a1 1 0 1 1-2 0 1 1 0 0 1 2 0Zm-3 3a1 1 0 1 0 0-2 1 1 0 0 0 0 2Z" fill="#51A9E1"/>
  <path opacity=".3" d="m641.948 8.316-1.897-.632c.764-2.294 1.991-3.725 3.706-4.154.893-.223 2.242-1.66 2.242-2.53h2c0 1.797-1.983 4.027-3.757 4.47-.952.238-1.725 1.14-2.294 2.846Z" fill="#51A9E1"/>
  <path fill-rule="evenodd" clip-rule="evenodd" d="M645.201 7h-8.384a3.001 3.001 0 0 0-3.357 1.756l-3.287 7.655a3 3 0 0 0 .684 3.352l.2.191a3 3 0 0 0 4.307-.166L637.863 17h6.435l2.5 2.788a3 3 0 0 0 4.307.166l.178-.17a3 3 0 0 0 .666-3.39l-3.424-7.674A3 3 0 0 0 645.201 7Z" fill="#82C1E9"/>
  <circle cx="646" cy="11" r="1" fill="#fff"/>
  <circle cx="644" cy="13" r="1" fill="#fff"/>
  <circle cx="637" cy="12" r="2" fill="#CBE6F6"/>
  <path d="m619.507 99.802-8.269-8.27a1.247 1.247 0 0 0-1.758 0 1.246 1.246 0 0 0 0 1.758l8.27 8.269a1.243 1.243 0 0 0 1.757-1.757ZM608.867 94.433l-.063.312c-.438 2.193-1.504 4.276-2.945 5.965l4.499 4.499c1.689-1.441 3.743-2.535 5.936-2.974l.313-.062-7.74-7.74ZM605.035 101.642l-3.075 3.074a1.863 1.863 0 0 0 0 2.635l1.757 1.757a1.863 1.863 0 0 0 2.635 0l3.075-3.075-4.392-4.391Zm.439 4.831a.62.62 0 1 1-.878-.878l.878-.879a.622.622 0 0 1 .878.879l-.878.878ZM612.017 109.438l.845-.844a1.863 1.863 0 0 0 0-2.635l-.628-.628c-.347.233-.678.486-1 .756l.749.751a.619.619 0 0 1 0 .877l-.859.859-1.262-1.223-1.757 1.757 2.819 2.731a1.243 1.243 0 0 0 1.756-1.758l-.663-.643Z" fill="#51A9E1"/>
  <path d="M614.621 90a.62.62 0 0 0-.621.621v1.242a.62.62 0 1 0 1.242 0v-1.242a.62.62 0 0 0-.621-.621ZM619.496 95.969h-1.242a.62.62 0 1 0 0 1.242h1.242a.62.62 0 1 0 0-1.242ZM618.606 92.206a.702.702 0 0 0-.994 0l-1.406 1.406a.702.702 0 1 0 .994.995l1.406-1.407a.702.702 0 0 0 0-.994Z" fill="#97CBED"/>
  <path d="m619.507 69.802-8.269-8.27a1.247 1.247 0 0 0-1.758 0 1.246 1.246 0 0 0 0 1.758l8.27 8.27a1.244 1.244 0 0 0 1.757 0 1.24 1.24 0 0 0 0-1.758ZM608.867 64.433l-.063.312c-.438 2.193-1.504 4.276-2.945 5.965l4.499 4.499c1.689-1.441 3.743-2.535 5.936-2.974l.313-.063-7.74-7.74ZM605.035 71.642l-3.075 3.074a1.864 1.864 0 0 0 0 2.635l1.757 1.757c.726.726 1.906.73 2.635 0l3.075-3.075-4.392-4.391Zm.439 4.831a.62.62 0 1 1-.878-.878l.878-.879a.62.62 0 1 1 .878.879l-.878.878ZM612.017 79.439l.845-.845a1.862 1.862 0 0 0 0-2.635l-.628-.628c-.347.233-.678.486-1 .756l.749.75a.62.62 0 0 1 0 .878l-.859.86-1.262-1.224-1.757 1.757 2.819 2.73a1.244 1.244 0 0 0 1.756-1.757l-.663-.642Z" fill="#82C1E9"/>
  <path d="M614.621 60a.62.62 0 0 0-.621.621v1.242a.62.62 0 1 0 1.242 0v-1.242a.62.62 0 0 0-.621-.621ZM619.496 65.969h-1.242a.62.62 0 1 0 0 1.242h1.242a.62.62 0 1 0 0-1.242ZM618.606 62.206a.702.702 0 0 0-.994 0l-1.406 1.406a.702.702 0 1 0 .994.994l1.406-1.406a.702.702 0 0 0 0-.994Z" fill="#CBE6F6"/>
  <path opacity=".6" d="M607.5 33c3 0 4 2 4 3 0-1 1-3 4-3 3.5 0 5.5 2.5 5.5 5.5 0 6.5-6.5 11-9.5 12.5-3-1.5-9.5-6-9.5-12.5 0-3 2-5.5 5.5-5.5Z" fill="#51A9E1"/>
  <path d="M602.554 41.75c-.167-.485-.3-.985-.394-1.5h1.634c.332 0 .65.132.884.366l.707.707 1.974-2.962a1.25 1.25 0 0 1 2.194.213l1.602 3.844 1.074-1.611a1.25 1.25 0 0 1 1.04-.557h3.233v1.5h-3.099l-1.259 1.889a1.25 1.25 0 0 1-2.194-.213l-1.602-3.844-1.884 2.826a1.25 1.25 0 0 1-1.924.19l-.849-.848h-1.137Z" fill="#51A9E1"/>
  <circle cx="616" cy="41" r="2" fill="#51A9E1"/>
  <path d="M607.5 3c3 0 4 2 4 3 0-1 1-3 4-3 3.5 0 5.5 2.5 5.5 5.5 0 6.5-6.5 11-9.5 12.5-3-1.5-9.5-6-9.5-12.5 0-3 2-5.5 5.5-5.5Z" fill="#CBE6F6"/>
  <path opacity=".6" d="M602.554 11.75c-.167-.485-.3-.985-.394-1.5h1.634c.332 0 .65.132.884.366l.707.707 1.974-2.962a1.25 1.25 0 0 1 2.194.213l1.602 3.844 1.074-1.611a1.25 1.25 0 0 1 1.04-.557h3.233v1.5h-3.099l-1.259 1.889a1.25 1.25 0 0 1-2.194-.213l-1.602-3.844-1.884 2.826a1.25 1.25 0 0 1-1.924.19l-.849-.848h-1.137Z" fill="#51A9E1"/>
  <circle cx="616" cy="11" r="2" fill="#82C1E9"/>
  <path fill-rule="evenodd" clip-rule="evenodd" d="M555 94a2 2 0 0 1 2-2h10.667a2 2 0 0 1 2 2v16a2 2 0 0 1-2 2H557a2 2 0 0 1-2-2V94Zm5.333 14h4v-1.333h-4V108Z" fill="#82C1E9"/>
  <path fill-rule="evenodd" clip-rule="evenodd" d="M555 64a2 2 0 0 1 2-2h10.667a2 2 0 0 1 2 2v16a2 2 0 0 1-2 2H557a2 2 0 0 1-2-2V64Zm5.333 14h4v-1.333h-4V78Z" fill="#CBE6F6"/>
  <path d="M554 32a2 2 0 0 0-2 2v10.667a2 2 0 0 0 2 2h7.333v4h-6.666V52h14.666v-1.333h-6.666v-4H570a2 2 0 0 0 2-2V34a2 2 0 0 0-2-2h-16Z" fill="#82C1E9"/>
  <path d="M554 2a2 2 0 0 0-2 2v10.667a2 2 0 0 0 2 2h7.333v4h-6.666V22h14.666v-1.333h-6.666v-4H570a2 2 0 0 0 2-2V4a2 2 0 0 0-2-2h-16Z" fill="#CBE6F6"/>
  <path opacity=".6" d="m511.503 107.568-2.54 1.246a.8.8 0 0 1-.744-1.417l1.936-1.086a2.957 2.957 0 0 0 1.12-1.111l.841-1.472c.395-.69.655-1.45.767-2.237l.115-.817a.631.631 0 0 0-.709-.715l-.035.005a3.04 3.04 0 0 0-1.592.719l-1.591 1.384a.758.758 0 0 1-1.035-1.105l1.818-1.833c.403-.405.903-.7 1.452-.856l1.216-.346a7.413 7.413 0 0 1 2.028-.282h.451c1.277 0 2.52-.405 3.552-1.157l.457-.332c.292-.213.543-.477.74-.78l1.169-1.796a.724.724 0 0 1 1.241.745l-1.358 2.46a3.624 3.624 0 0 1-1.036 1.175c-.471.346-1.018.748-1.47 1.085a3.44 3.44 0 0 0-.222.173 1.98 1.98 0 0 0-.657 1.169c-.013.076-.022.174-.04.37-.046.487-.106.928-.167 1.305-.129.784-.245 1.575-.245 2.371v1.275c0 .801-.227 1.585-.655 2.263l-1.82 2.877a.783.783 0 0 1-1.353-.784l1.206-2.278a3.423 3.423 0 0 0 .291-2.446.342.342 0 0 0-.583-.147l-1.408 1.524a3.87 3.87 0 0 1-1.14.851Z" fill="#51A9E1"/>
  <circle cx="515.5" cy="94.5" r="1.5" fill="#51A9E1"/>
  <path opacity=".3" d="m511.503 77.568-2.54 1.246a.8.8 0 0 1-.744-1.417l1.936-1.086a2.959 2.959 0 0 0 1.12-1.111l.841-1.472c.395-.69.655-1.45.767-2.237l.115-.817a.631.631 0 0 0-.709-.715l-.035.005a3.042 3.042 0 0 0-1.592.719l-1.591 1.384a.758.758 0 0 1-1.035-1.105l1.818-1.833c.403-.405.903-.7 1.452-.856l1.216-.346a7.413 7.413 0 0 1 2.028-.282h.451c1.277 0 2.52-.405 3.552-1.157l.457-.332c.292-.213.543-.477.74-.78l1.169-1.796a.724.724 0 0 1 1.241.745l-1.358 2.46a3.624 3.624 0 0 1-1.036 1.175c-.471.346-1.018.748-1.47 1.085a3.44 3.44 0 0 0-.222.173 1.98 1.98 0 0 0-.657 1.169 5.468 5.468 0 0 0-.04.37c-.046.487-.106.928-.167 1.305-.129.784-.245 1.575-.245 2.37v1.276c0 .8-.227 1.585-.655 2.263l-1.82 2.877a.782.782 0 0 1-1.353-.784l1.206-2.278a3.42 3.42 0 0 0 .291-2.446.342.342 0 0 0-.583-.147l-1.408 1.524c-.324.352-.711.64-1.14.85Z" fill="#51A9E1"/>
  <circle cx="515.5" cy="64.5" r="1.5" fill="#51A9E1"/>
  <rect opacity=".6" x="505" y="34" width="20" height="16" rx="2" fill="#51A9E1"/>
  <path opacity=".6" fill-rule="evenodd" clip-rule="evenodd" d="m507 50 6.5-9 6.5 9h-13Z" fill="#51A9E1"/>
  <path fill-rule="evenodd" clip-rule="evenodd" d="m514 50 4.5-6 4.5 6h-9Z" fill="#51A9E1"/>
  <circle cx="521.5" cy="38.5" r="1.5" fill="#51A9E1"/>
  <rect opacity=".3" x="505" y="4" width="20" height="16" rx="2" fill="#51A9E1"/>
  <path opacity=".3" fill-rule="evenodd" clip-rule="evenodd" d="m507 20 6.5-9 6.5 9h-13Z" fill="#51A9E1"/>
  <path fill-rule="evenodd" clip-rule="evenodd" d="m514 20 4.5-6 4.5 6h-9Z" fill="#51A9E1"/>
  <circle cx="521.5" cy="8.5" r="1.5" fill="#51A9E1"/>
  <path opacity=".6" d="M479 94a2 2 0 0 1 2-2h12a2 2 0 0 1 2 2v16a2 2 0 0 1-2 2h-12a2 2 0 0 1-2-2V94Z" fill="#51A9E1"/>
  <rect opacity=".6" x="482" y="99.003" width="10" height="2" rx="1" fill="#51A9E1"/>
  <rect x="482" y="95.002" width="10" height="2" rx="1" fill="#51A9E1"/>
  <rect opacity=".6" x="482" y="103.004" width="10" height="2" rx="1" fill="#51A9E1"/>
  <rect opacity=".6" x="482" y="107.005" width="10" height="2" rx="1" fill="#51A9E1"/>
  <path opacity=".3" d="M479 64a2 2 0 0 1 2-2h12a2 2 0 0 1 2 2v16a2 2 0 0 1-2 2h-12a2 2 0 0 1-2-2V64Z" fill="#51A9E1"/>
  <rect opacity=".3" x="482" y="69.003" width="10" height="2" rx="1" fill="#51A9E1"/>
  <rect x="482" y="65.002" width="10" height="2" rx="1" fill="#51A9E1"/>
  <rect opacity=".3" x="482" y="73.004" width="10" height="2" rx="1" fill="#51A9E1"/>
  <rect opacity=".3" x="482" y="77.005" width="10" height="2" rx="1" fill="#51A9E1"/>
  <path opacity=".6" d="M479.012 35.676a1.6 1.6 0 0 1 1.6-1.6h9.8a1.6 1.6 0 0 1 1.6 1.6v12.8a1.6 1.6 0 0 1-1.6 1.6h-9.8a1.6 1.6 0 0 1-1.6-1.6v-12.8Z" fill="#51A9E1"/>
  <rect opacity=".6" x="481.012" y="36.076" width="9" height="2" rx="1" fill="#51A9E1"/>
  <rect opacity=".6" x="484.012" y="39.076" width="6" height="1" rx=".5" fill="#51A9E1"/>
  <rect opacity=".6" x="481.012" y="39.076" width="2" height="1" rx=".5" fill="#51A9E1"/>
  <rect opacity=".6" x="484.012" y="41.076" width="6" height="1" rx=".5" fill="#51A9E1"/>
  <rect opacity=".6" x="481.012" y="41.076" width="2" height="1" rx=".5" fill="#51A9E1"/>
  <rect opacity=".6" x="484.012" y="43.076" width="6" height="1" rx=".5" fill="#51A9E1"/>
  <rect opacity=".6" x="481.012" y="43.076" width="2" height="1" rx=".5" fill="#51A9E1"/>
  <rect opacity=".6" x="481.012" y="46.076" width="5" height="1" rx=".5" fill="#51A9E1"/>
  <path d="M496.012 36.076v-3a1 1 0 0 0-1-1h-3M496.012 48.076v3a1 1 0 0 1-1 1h-3M476.012 36.076v-3a1 1 0 0 1 1-1h3M476.012 48.076v3a1 1 0 0 0 1 1h3" stroke="#51A9E1" stroke-width="2" stroke-linecap="round"/>
  <path opacity=".3" d="M479.012 5.676a1.6 1.6 0 0 1 1.6-1.6h9.8a1.6 1.6 0 0 1 1.6 1.6v12.8a1.6 1.6 0 0 1-1.6 1.6h-9.8a1.6 1.6 0 0 1-1.6-1.6v-12.8Z" fill="#51A9E1"/>
  <rect opacity=".3" x="481.012" y="6.076" width="9" height="2" rx="1" fill="#51A9E1"/>
  <rect opacity=".3" x="484.012" y="9.076" width="6" height="1" rx=".5" fill="#51A9E1"/>
  <rect opacity=".3" x="481.012" y="9.076" width="2" height="1" rx=".5" fill="#51A9E1"/>
  <rect opacity=".3" x="484.012" y="11.076" width="6" height="1" rx=".5" fill="#51A9E1"/>
  <rect opacity=".3" x="481.012" y="11.076" width="2" height="1" rx=".5" fill="#51A9E1"/>
  <rect opacity=".3" x="484.012" y="13.076" width="6" height="1" rx=".5" fill="#51A9E1"/>
  <rect opacity=".3" x="481.012" y="13.076" width="2" height="1" rx=".5" fill="#51A9E1"/>
  <rect opacity=".3" x="481.012" y="16.076" width="5" height="1" rx=".5" fill="#51A9E1"/>
  <path d="M496.012 6.076v-3a1 1 0 0 0-1-1h-3M496.012 18.076v3a1 1 0 0 1-1 1h-3M476.012 6.076v-3a1 1 0 0 1 1-1h3M476.012 18.076v3a1 1 0 0 0 1 1h3" stroke="#51A9E1" stroke-width="2" stroke-linecap="round"/>
  <path d="M460.29 106.256c-4.1 2.736-8.752 1.041-10.79-1.801-2.243-3.13-1.949-7.362.738-10.123 2.603-2.677 6.913-3.108 9.975-.988 1.777 1.232 2.894 2.914 3.287 5.042.391 2.123-.049 4.09-1.26 5.905.48.092.791.404 1.104.719 1.365 1.371 2.734 2.736 4.101 4.105.503.504.681 1.092.454 1.782-.342 1.036-1.665 1.444-2.53.779a3.323 3.323 0 0 1-.319-.286c-1.396-1.394-2.79-2.791-4.187-4.183-.269-.267-.491-.555-.573-.951Zm-10.309-6.444c-.003 3.192 2.529 5.849 5.836 5.847 3.241-.001 5.827-2.552 5.837-5.828.009-3.283-2.619-5.832-5.818-5.846a5.827 5.827 0 0 0-5.856 5.828h.001Z" fill="#82C1E9"/>
  <path d="M460.29 76.256c-4.1 2.736-8.752 1.041-10.79-1.801-2.243-3.13-1.949-7.362.738-10.123 2.603-2.677 6.913-3.108 9.975-.988 1.777 1.232 2.894 2.914 3.287 5.042.391 2.123-.049 4.09-1.26 5.905.48.092.791.404 1.104.719 1.365 1.37 2.734 2.736 4.101 4.105.503.504.681 1.092.454 1.782-.342 1.036-1.665 1.444-2.53.78a3.324 3.324 0 0 1-.319-.287c-1.396-1.394-2.79-2.791-4.187-4.183-.269-.267-.491-.555-.573-.95Zm-10.309-6.444c-.003 3.192 2.529 5.849 5.836 5.847 3.241-.002 5.827-2.552 5.837-5.828.009-3.283-2.619-5.832-5.818-5.846a5.827 5.827 0 0 0-5.856 5.828h.001Z" fill="#CBE6F6"/>
  <path opacity=".6" d="M448 42s2.455-6 9-6c4.909 0 9 6 9 6s-4.091 6-9 6c-6.545 0-9-6-9-6Z" fill="#51A9E1"/>
  <path fill-rule="evenodd" clip-rule="evenodd" d="M457 45a3 3 0 1 1 0-6 3 3 0 0 1 0 6Z" fill="#51A9E1"/>
  <path opacity=".3" d="M448 12s2.455-6 9-6c4.909 0 9 6 9 6s-4.091 6-9 6c-6.545 0-9-6-9-6Z" fill="#51A9E1"/>
  <path fill-rule="evenodd" clip-rule="evenodd" d="M457 15a3 3 0 1 1 0-6 3 3 0 0 1 0 6Z" fill="#51A9E1"/>
  <rect x="420" y="95.002" width="16" height="3" rx="1.5" fill="#51A9E1"/>
  <path opacity=".6" fill-rule="evenodd" clip-rule="evenodd" d="M421.5 100a1.5 1.5 0 0 0 0 3h13a1.5 1.5 0 0 0 0-3h-13Zm0 5a1.5 1.5 0 0 0 0 3h13a1.5 1.5 0 0 0 0-3h-13Z" fill="#51A9E1"/>
  <rect x="420" y="65.002" width="16" height="3" rx="1.5" fill="#51A9E1"/>
  <path opacity=".3" fill-rule="evenodd" clip-rule="evenodd" d="M421.5 70a1.5 1.5 0 0 0 0 3h13a1.5 1.5 0 0 0 0-3h-13Zm0 5a1.5 1.5 0 0 0 0 3h13a1.5 1.5 0 0 0 0-3h-13Z" fill="#51A9E1"/>
  <circle opacity=".6" cx="428" cy="42" r="10" fill="#51A9E1"/>
  <path fill-rule="evenodd" clip-rule="evenodd" d="M425.964 40.355c.068.283-.165.534-.457.534h-2.427c-.292 0-.525-.25-.457-.534.238-.982.896-1.688 1.671-1.688.774 0 1.432.706 1.67 1.688ZM433.378 40.355c.068.283-.165.534-.456.534h-2.428c-.292 0-.525-.25-.457-.534.238-.982.896-1.688 1.671-1.688.774 0 1.432.706 1.67 1.688Z" fill="#51A9E1"/>
  <path d="M424 45.5c.858 1.205 2.329 2 4 2 1.671 0 3.142-.795 4-2" stroke="#51A9E1" stroke-width="1.5" stroke-linecap="round"/>
  <circle opacity=".3" cx="428" cy="12" r="10" fill="#51A9E1"/>
  <path fill-rule="evenodd" clip-rule="evenodd" d="M425.964 10.355c.068.283-.165.534-.457.534h-2.427c-.292 0-.525-.25-.457-.534.238-.982.896-1.689 1.671-1.689.774 0 1.432.707 1.67 1.69ZM433.378 10.355c.068.283-.165.534-.456.534h-2.428c-.292 0-.525-.25-.457-.534.238-.982.896-1.689 1.671-1.689.774 0 1.432.707 1.67 1.69Z" fill="#51A9E1"/>
  <path d="M424 15.5c.858 1.205 2.329 2 4 2 1.671 0 3.142-.795 4-2" stroke="#51A9E1" stroke-width="1.5" stroke-linecap="round"/>
  <path d="m402.172 101.483-.837.183c-.628-.393-1.293-.313-1.936-.203-.553.093-.919.693-.852 1.245.074.611.543 1.056 1.14 1.07.353.008.707.002 1.093.002-.005.096-.006.186-.013.275-.023.349.101.641.406.805.418.225.85.426 1.288.609 1.075.449 2.137.917 3.036 1.684.834.711 1.105 1.612.914 2.667-.084.459-.373.79-.747 1.049-.607.42-1.299.62-2.009.767-1.487.307-2.996.356-4.507.362-1.417.006-2.834.007-4.241-.188-.86-.119-1.711-.281-2.504-.657-.604-.287-1.127-.677-1.31-1.359-.223-.832-.047-1.589.535-2.237.474-.529 1.061-.919 1.68-1.248.828-.438 1.68-.832 2.521-1.247.161-.079.33-.15.479-.25.443-.296.582-.798.338-1.275-.113-.223-.271-.426-.424-.625-.731-.954-1.28-1.994-1.499-3.185-.21-1.148-.213-2.29.271-3.382.603-1.357 1.67-2.101 3.131-2.29 1.016-.131 1.993-.013 2.886.525.989.594 1.539 1.5 1.775 2.609.317 1.495.046 2.91-.613 4.291l-.001.003Z" fill="#82C1E9"/>
  <path d="M393.417 98.027c.41.24.577.594.569 1.053-.01.665.004 1.33-.009 1.996a1.014 1.014 0 0 1-.693.954c-.426.151-.916.049-1.178-.307a1.304 1.304 0 0 1-.258-.667c-.033-.701-.017-1.403-.009-2.103.004-.43.229-.734.585-.94A6.344 6.344 0 0 1 398.776 92c3.251.02 6.074 2.566 6.27 6.015.492.258.613.704.595 1.234-.019.556-.003 1.113-.004 1.67-.002.927-.751 1.414-1.602 1.042-.02-.008-.041-.013-.07-.023-.843.59-1.801.852-2.846.952-.171.323-.488.353-.828.336-.194-.009-.39.004-.585-.005a.614.614 0 0 1-.596-.553c-.035-.324.151-.635.475-.672.37-.041.749-.031 1.121 0 .141.011.272.142.443.238.894-.068 1.855-.388 2.349-.778 0-.886-.01-1.744.004-2.602.007-.378.239-.639.548-.827-.064-2.444-2.111-4.921-5.091-5.042-3.086-.125-5.435 2.33-5.541 5.042h-.001Z" fill="#51A9E1"/>
  <path d="m402.172 71.483-.837.183c-.628-.393-1.293-.313-1.936-.203-.553.093-.919.693-.852 1.245.074.611.543 1.056 1.14 1.07.353.008.707.002 1.093.002-.005.096-.006.186-.013.275-.023.349.101.641.406.805.418.225.85.426 1.288.61 1.075.448 2.137.915 3.036 1.683.834.711 1.105 1.612.914 2.667-.084.459-.373.79-.747 1.049-.607.42-1.299.62-2.009.767-1.487.307-2.996.356-4.507.362-1.417.006-2.834.007-4.241-.188-.86-.119-1.711-.281-2.504-.657-.604-.287-1.127-.677-1.31-1.36-.223-.832-.047-1.588.535-2.236.474-.53 1.061-.919 1.68-1.248.828-.438 1.68-.832 2.521-1.247.161-.08.33-.15.479-.25.443-.296.582-.798.338-1.275-.113-.223-.271-.426-.424-.626-.731-.953-1.28-1.993-1.499-3.184-.21-1.148-.213-2.29.271-3.382.603-1.357 1.67-2.101 3.131-2.29 1.016-.131 1.993-.013 2.886.525.989.594 1.539 1.5 1.775 2.609.317 1.495.046 2.91-.613 4.29l-.001.004Z" fill="#CBE6F6"/>
  <path d="M393.417 68.027c.41.24.577.594.569 1.053-.01.665.004 1.33-.009 1.996-.008.449-.283.81-.693.954-.426.151-.916.049-1.178-.307a1.303 1.303 0 0 1-.258-.667c-.033-.7-.017-1.403-.009-2.103.004-.43.229-.734.585-.94A6.344 6.344 0 0 1 398.776 62c3.251.02 6.074 2.566 6.27 6.015.492.258.613.704.595 1.234-.019.556-.003 1.113-.004 1.67-.002.927-.751 1.414-1.602 1.042-.02-.008-.041-.013-.07-.023-.843.59-1.801.852-2.846.952-.171.323-.488.353-.828.337-.194-.01-.39.003-.585-.006a.615.615 0 0 1-.596-.553c-.035-.324.151-.635.475-.672.37-.041.749-.031 1.121 0 .141.011.272.142.443.238.894-.068 1.855-.388 2.349-.777 0-.887-.01-1.745.004-2.603.007-.378.239-.639.548-.827-.064-2.444-2.111-4.922-5.091-5.042-3.086-.125-5.435 2.33-5.541 5.042h-.001Z" fill="#82C1E9"/>
  <path d="m407.778 46.435.663 2.224c.153.513.313 1.024.455 1.542.123.447-.219.866-.64.79-.111-.02-.217-.079-.319-.133-1.038-.562-2.075-1.126-3.113-1.69-.05-.028-.103-.05-.113-.056-.528.163-1.011.357-1.511.457-3.016.605-5.614-.219-7.656-2.71-1.144-1.397-1.648-3.076-1.526-4.929.147-2.234 1.135-3.999 2.811-5.316 1.589-1.249 3.391-1.756 5.354-1.58 1.967.176 3.657 1.004 5.011 2.545 1.283 1.462 1.892 3.209 1.796 5.214a7.077 7.077 0 0 1-1.091 3.45l-.121.192Zm-8.051-4.05c0-.323-.256-.602-.56-.609-.308-.007-.579.277-.58.608 0 .322.257.602.56.609.309.007.579-.276.58-.608Zm1.745.607c.303-.006.56-.284.561-.608 0-.33-.27-.615-.579-.609-.303.006-.561.285-.561.608 0 .33.27.615.579.61Zm2.867-.616c-.004-.323-.265-.598-.568-.6-.309-.003-.577.284-.572.614.004.323.264.6.567.601.31.002.577-.285.573-.616v.001Z" fill="#51A9E1"/>
  <path d="m393.832 46.562-.425-.153c-.461.235-.929.473-1.398.71-.648.33-1.299.656-1.943.99-.265.138-.519.183-.762-.022-.241-.205-.243-.46-.151-.746.354-1.093.698-2.188 1.046-3.283.018-.055.034-.111.039-.13-.242-.457-.51-.87-.689-1.318-.997-2.505-.636-4.828 1.079-6.894 1.366-1.645 3.181-2.489 5.299-2.681 1.664-.152 3.228.193 4.689 1.006.066.037.13.078.189.155-.175.02-.352.036-.527.059-2.851.391-5.096 1.736-6.605 4.218-.606.997-.932 2.093-1.025 3.26-.136 1.686.245 3.247 1.116 4.694.019.031.034.065.069.134l-.001.001ZM407.778 16.435l.663 2.224c.153.513.313 1.024.455 1.542.123.447-.219.866-.64.79-.111-.02-.217-.079-.319-.133-1.038-.562-2.075-1.126-3.113-1.69-.05-.028-.103-.05-.113-.055-.528.162-1.011.356-1.511.456-3.016.605-5.614-.219-7.656-2.71-1.144-1.397-1.648-3.076-1.526-4.929.147-2.234 1.135-3.999 2.811-5.316 1.589-1.249 3.391-1.756 5.354-1.58 1.967.176 3.657 1.004 5.011 2.545 1.283 1.461 1.892 3.209 1.796 5.214a7.077 7.077 0 0 1-1.091 3.45l-.121.192Zm-8.051-4.05c0-.323-.256-.602-.56-.609-.308-.007-.579.277-.58.608 0 .322.257.601.56.609.309.007.579-.277.58-.608Zm1.745.607c.303-.006.56-.285.561-.608 0-.33-.27-.615-.579-.609-.303.006-.561.285-.561.608 0 .33.27.615.579.61Zm2.867-.616c-.004-.323-.265-.598-.568-.6-.309-.002-.577.284-.572.614.004.323.264.6.567.601.31.002.577-.285.573-.616v.001Z" fill="#82C1E9"/>
  <path d="m393.832 16.562-.425-.153c-.461.235-.929.473-1.398.71-.648.33-1.299.655-1.943.99-.265.138-.519.183-.762-.022-.241-.205-.243-.46-.151-.746.354-1.093.698-2.188 1.046-3.283.018-.055.034-.111.039-.13-.242-.457-.51-.87-.689-1.318-.997-2.505-.636-4.828 1.079-6.894 1.366-1.645 3.181-2.489 5.299-2.681 1.664-.152 3.228.193 4.689 1.006.066.037.13.077.189.155-.175.02-.352.036-.527.06-2.851.39-5.096 1.735-6.605 4.217-.606.997-.932 2.093-1.025 3.26-.136 1.686.245 3.247 1.116 4.694.019.031.034.065.069.134l-.001.001Z" fill="#CBE6F6"/>
  <path d="M364.803 113.974c-.922.003-1.837-.059-2.744-.239-1.359-.271-2.184-1.165-2.38-2.53-.16-1.111-.126-2.225-.126-3.34 0-.665-.163-.897-.801-1.111l-.132-.046c-.567-.202-.768-.669-.507-1.211.354-.737.697-1.481 1.084-2.2.357-.664.482-1.371.539-2.108.15-1.927.61-3.766 1.645-5.422.749-1.2 1.751-2.152 2.959-2.879a12.883 12.883 0 0 1 5.128-1.772c2.972-.357 5.821.104 8.512 1.45 1.998 1 3.188 2.623 3.677 4.774.642 2.818.385 5.56-.799 8.199-.471 1.051-1.13 1.971-2.072 2.668-.678.502-1.447.741-2.273.84a10.645 10.645 0 0 0-5.648 2.431c-.658.547-1.335 1.083-2.053 1.546-1.162.749-2.479.975-3.846.951h-.163v-.001Zm4.014-11.279c-.11.104-.258.232-.389.374-.268.29-.273.59-.006.873.256.273.522.538.797.791.264.244.544.241.818.007.125-.106.226-.241.355-.339a.282.282 0 0 1 .233-.034c.225.087.438.203.659.297.156.067.386.071.463.186.086.124.035.342.042.519.014.433.237.66.669.668.242.005.484.001.726.001.788 0 .931-.135.924-.919-.001-.218.041-.35.28-.388.143-.023.282-.088.416-.147.192-.085.396-.276.563-.246.18.031.322.266.484.41.243.219.564.223.801-.002.282-.269.558-.546.827-.828.235-.246.233-.559.002-.816-.104-.116-.231-.214-.321-.339-.047-.064-.071-.182-.045-.253.125-.343.265-.68.418-1.011.031-.069.133-.135.21-.148.191-.029.39-.011.581-.038a.517.517 0 0 0 .466-.526c.01-.398.01-.796 0-1.194a.528.528 0 0 0-.473-.52 2.924 2.924 0 0 0-.373-.022c-.363-.003-.361-.002-.473-.34-.041-.126-.069-.265-.143-.369-.294-.413-.266-.74.162-1.06.247-.186.23-.549.018-.775-.271-.29-.552-.573-.845-.843-.254-.234-.552-.226-.82.002a3.208 3.208 0 0 0-.316.312c-.092.105-.175.121-.302.049a5.67 5.67 0 0 0-.569-.27c-.169-.073-.415-.085-.499-.21-.092-.14-.039-.375-.044-.569-.008-.373-.235-.616-.609-.626-.351-.008-.702-.009-1.052 0-.432.01-.652.241-.661.677-.002.124.022.253-.002.372a.326.326 0 0 1-.154.205c-.189.088-.417.11-.585.224-.398.27-.693.25-1.007-.147-.227-.285-.575-.254-.845.003-.272.258-.536.524-.794.794-.243.253-.234.577.01.835.108.113.231.212.325.336a.29.29 0 0 1 .034.233c-.077.204-.185.395-.269.595-.072.171-.082.418-.206.504-.135.093-.372.041-.564.048-.362.012-.61.235-.622.593-.013.383-.012.765 0 1.147.011.314.186.504.499.549.176.025.358.009.535.031.07.008.171.055.194.11.164.393.311.793.479 1.234h-.002Z" fill="#82C1E9"/>
  <path d="M372.93 101.838a1.65 1.65 0 0 1-1.629-1.646c.006-.889.769-1.645 1.646-1.632.892.012 1.644.772 1.633 1.65a1.66 1.66 0 0 1-1.65 1.628Z" fill="#82C1E9"/>
  <path d="M364.803 83.974c-.922.003-1.837-.06-2.744-.239-1.359-.27-2.184-1.165-2.38-2.53-.16-1.111-.126-2.225-.126-3.34 0-.665-.163-.897-.801-1.111l-.132-.046c-.567-.201-.768-.669-.507-1.211.354-.737.697-1.48 1.084-2.2.357-.664.482-1.371.539-2.108.15-1.927.61-3.766 1.645-5.422.749-1.2 1.751-2.152 2.959-2.878a12.883 12.883 0 0 1 5.128-1.773c2.972-.357 5.821.104 8.512 1.45 1.998 1 3.188 2.623 3.677 4.774.642 2.818.385 5.56-.799 8.199-.471 1.05-1.13 1.971-2.072 2.668-.678.502-1.447.741-2.273.84a10.64 10.64 0 0 0-5.648 2.43c-.658.548-1.335 1.084-2.053 1.547-1.162.75-2.479.975-3.846.95h-.163Zm4.014-11.28c-.11.105-.258.233-.389.375-.268.29-.273.59-.006.873.256.273.522.538.797.792.264.243.544.24.818.006.125-.106.226-.24.355-.339a.28.28 0 0 1 .233-.034c.225.087.438.203.659.297.156.067.386.071.463.186.086.124.035.342.042.52.014.432.237.659.669.667.242.005.484.001.726.001.788 0 .931-.135.924-.919-.001-.218.041-.35.28-.388.143-.023.282-.088.416-.147.192-.085.396-.276.563-.246.18.031.322.266.484.41.243.219.564.223.801-.002.282-.27.558-.546.827-.828.235-.246.233-.56.002-.816-.104-.116-.231-.214-.321-.34a.314.314 0 0 1-.045-.252c.125-.343.265-.68.418-1.011.031-.069.133-.135.21-.147.191-.03.39-.012.581-.039.28-.04.46-.242.466-.526.01-.398.01-.796 0-1.194a.528.528 0 0 0-.473-.52 2.924 2.924 0 0 0-.373-.022c-.363-.003-.361-.002-.473-.34-.041-.126-.069-.265-.143-.369-.294-.413-.266-.74.162-1.06.247-.186.23-.549.018-.775-.271-.29-.552-.573-.845-.843-.254-.234-.552-.226-.82.002a3.208 3.208 0 0 0-.316.312c-.092.105-.175.121-.302.049a5.67 5.67 0 0 0-.569-.27c-.169-.073-.415-.085-.499-.21-.092-.14-.039-.375-.044-.569-.008-.373-.235-.616-.609-.626-.351-.008-.702-.009-1.052 0-.432.01-.652.241-.661.677-.002.124.022.253-.002.372a.326.326 0 0 1-.154.205c-.189.088-.417.11-.585.224-.398.27-.693.25-1.007-.147-.227-.285-.575-.254-.845.003-.272.258-.536.524-.794.794-.243.253-.234.577.01.835.108.113.231.212.325.336a.29.29 0 0 1 .034.233c-.077.204-.185.395-.269.595-.072.171-.082.418-.206.504-.135.093-.372.041-.564.048-.362.012-.61.235-.622.593-.013.383-.012.765 0 1.147.011.314.186.504.499.549.176.025.358.009.535.03.07.009.171.056.194.111.164.393.311.793.479 1.234h-.002Z" fill="#CBE6F6"/>
  <path d="M372.93 71.838a1.65 1.65 0 0 1-1.629-1.646c.006-.889.769-1.645 1.646-1.632.892.012 1.644.772 1.633 1.65a1.66 1.66 0 0 1-1.65 1.629Z" fill="#CBE6F6"/>
  <path fill-rule="evenodd" clip-rule="evenodd" d="M367 40v9l2.076.692a6.005 6.005 0 0 0 1.898.308h5.796a1.5 1.5 0 0 0 1.471-1.206l1.375-6.873a1.5 1.5 0 0 0-1.571-1.79l-5.545.369.321-3.53a1.805 1.805 0 0 0-3.347-1.093L367 40Z" fill="#51A9E1"/>
  <rect opacity=".3" x="360" y="39" width="5" height="11" rx=".5" fill="#51A9E1"/>
  <rect opacity=".3" x="360" y="39" width="5" height="11" rx=".5" fill="#51A9E1"/>
  <rect opacity=".3" x="360" y="39" width="5" height="11" rx=".5" fill="#51A9E1"/>
  <path fill-rule="evenodd" clip-rule="evenodd" d="M367 10v9l2.076.692a6.005 6.005 0 0 0 1.898.308h5.796a1.5 1.5 0 0 0 1.471-1.206l1.375-6.873a1.5 1.5 0 0 0-1.571-1.79l-5.545.369.321-3.53a1.805 1.805 0 0 0-3.347-1.093L367 10Z" fill="#51A9E1"/>
  <rect opacity=".3" x="360" y="9" width="5" height="11" rx=".5" fill="#51A9E1"/>
  <path d="M338.466 92.978h6.635c.472 0 .702.23.703.707v3.336c0 .464-.231.696-.694.697h-6.642v1.901h.268l11.474.001c.103 0 .209.002.31.024.291.06.478.284.478.579.003 1.183.004 2.367 0 3.551 0 .329-.231.565-.572.601-.077.008-.156.004-.234.004h-11.721v1.902H347.002c.544 0 .754.21.754.752v3.258c0 .505-.223.73-.721.73h-8.565c-.011.164-.012.318-.033.469a.583.583 0 0 1-1.088.209c-.05-.095-.067-.208-.089-.315-.012-.056-.003-.116-.003-.175l.001-18.42c0-.11.004-.222.027-.329a.579.579 0 0 1 .594-.46c.283.01.518.217.557.504.021.147.021.296.031.471l-.001.003Z" fill="#82C1E9"/>
  <path d="M333.603 93.583c.619 0 1.236-.002 1.854.001.11 0 .224.006.328.036.237.068.41.318.407.562a.595.595 0 0 1-.415.557 1.125 1.125 0 0 1-.307.038c-1.249.002-2.498.003-3.747 0a1.06 1.06 0 0 1-.344-.05.59.59 0 0 1-.375-.62.59.59 0 0 1 .512-.511c.083-.011.169-.013.253-.013h1.834ZM333.586 108.075c-.643 0-1.285.004-1.928-.001-.387-.003-.645-.238-.654-.575-.009-.353.262-.615.654-.617.773-.005 1.546-.002 2.319-.002.526 0 1.052-.004 1.578.002.259.004.467.107.579.355a.564.564 0 0 1-.081.62c-.142.181-.341.221-.557.221-.636-.002-1.273 0-1.91-.001v-.002ZM333.599 101.421h-1.949c-.385 0-.649-.247-.646-.599.003-.342.265-.584.641-.584h3.897c.379 0 .657.258.651.599-.006.337-.277.584-.646.585h-1.948v-.001ZM334.392 95.935c.423 0 .846-.01 1.268.004.236.007.397.151.485.367.088.217.062.444-.109.594-.126.111-.315.206-.479.211-.787.021-1.574.014-2.361.008-.372-.003-.634-.263-.633-.601 0-.34.257-.583.639-.59.396-.007.794-.002 1.19-.002v.01-.001ZM334.375 110.408c-.429 0-.859.011-1.287-.005-.26-.01-.459-.209-.516-.459a.574.574 0 0 1 .271-.618.818.818 0 0 1 .37-.099c.774-.009 1.548-.008 2.322-.004.387.003.659.26.657.603-.003.338-.263.582-.645.589-.39.007-.781.002-1.171.002v-.009h-.001ZM334.374 102.579h1.171c.369.002.641.249.645.587.004.335-.27.596-.635.597h-2.361c-.371 0-.633-.251-.631-.596.001-.344.263-.585.64-.587h1.171v-.001Z" fill="#51A9E1"/>
  <path d="M338.466 62.978h6.635c.472 0 .702.23.703.707v3.336c0 .464-.231.696-.694.697h-6.642v1.901h.268l11.474.001c.103 0 .209.002.31.024.291.06.478.284.478.579.003 1.183.004 2.368 0 3.55 0 .33-.231.566-.572.602-.077.008-.156.004-.234.004h-11.721v1.901H347.002c.544 0 .754.21.754.753v3.258c0 .505-.223.73-.721.73h-8.565c-.011.164-.012.318-.033.469a.583.583 0 0 1-1.088.21c-.05-.095-.067-.209-.089-.316-.012-.056-.003-.116-.003-.174l.001-18.421c0-.11.004-.222.027-.329a.579.579 0 0 1 .594-.46c.283.01.518.217.557.504.021.147.021.297.031.471l-.001.003Z" fill="#CBE6F6"/>
  <path d="M333.603 63.583c.619 0 1.236-.002 1.854.001.11 0 .224.006.328.036.237.068.41.318.407.562a.595.595 0 0 1-.415.557 1.125 1.125 0 0 1-.307.038c-1.249.002-2.498.003-3.747 0a1.06 1.06 0 0 1-.344-.05.59.59 0 0 1-.375-.62.59.59 0 0 1 .512-.511c.083-.011.169-.013.253-.013h1.834ZM333.586 78.075c-.643 0-1.285.004-1.928-.001-.387-.003-.645-.238-.654-.575-.009-.353.262-.615.654-.617.773-.005 1.546-.002 2.319-.002.526 0 1.052-.004 1.578.002.259.004.467.107.579.355a.565.565 0 0 1-.081.62c-.142.18-.341.22-.557.22h-1.91v-.002ZM333.599 71.421h-1.949c-.385 0-.649-.247-.646-.599.003-.342.265-.584.641-.584h3.897c.379 0 .657.258.651.6-.006.336-.277.583-.646.584h-1.948v-.001ZM334.392 65.935c.423 0 .846-.01 1.268.004.236.007.397.151.485.367.088.217.062.444-.109.594-.126.111-.315.206-.479.211-.787.021-1.574.014-2.361.008-.372-.003-.634-.263-.633-.601 0-.34.257-.583.639-.59.396-.007.794-.002 1.19-.002v.01-.001ZM334.375 80.408c-.429 0-.859.011-1.287-.005-.26-.01-.459-.21-.516-.459a.575.575 0 0 1 .271-.618.835.835 0 0 1 .37-.1c.774-.008 1.548-.007 2.322-.003.387.003.659.26.657.603-.003.338-.263.582-.645.59-.39.007-.781.001-1.171.001v-.01h-.001ZM334.374 72.58h1.171c.369.001.641.249.645.586.004.335-.27.596-.635.597h-2.361c-.371 0-.633-.25-.631-.596.001-.344.263-.585.64-.587h1.171Z" fill="#82C1E9"/>
  <path opacity=".6" fill-rule="evenodd" clip-rule="evenodd" d="M334 33a3 3 0 0 0-3 3v9a3 3 0 0 0 3 3h4.017l2.072 3.126a1 1 0 0 0 1.708-.07L343.486 48H348a3 3 0 0 0 3-3v-9a3 3 0 0 0-3-3h-14Z" fill="#51A9E1"/>
  <path fill-rule="evenodd" clip-rule="evenodd" d="M335 37h9a1 1 0 0 1 0 2h-9a1 1 0 0 1 0-2Zm0 4h5a1 1 0 0 1 0 2h-5a1 1 0 0 1 0-2Z" fill="#51A9E1"/>
  <path opacity=".3" fill-rule="evenodd" clip-rule="evenodd" d="M334 3a3 3 0 0 0-3 3v9a3 3 0 0 0 3 3h4.017l2.072 3.125a1 1 0 0 0 1.708-.068L343.486 18H348a3 3 0 0 0 3-3V6a3 3 0 0 0-3-3h-14Z" fill="#51A9E1"/>
  <path opacity=".6" fill-rule="evenodd" clip-rule="evenodd" d="M335 7h9a1 1 0 0 1 0 2h-9a1 1 0 0 1 0-2Z" fill="#51A9E1"/>
  <path opacity=".3" fill-rule="evenodd" clip-rule="evenodd" d="M335 11h5a1 1 0 0 1 0 2h-5a1 1 0 0 1 0-2Z" fill="#51A9E1"/>
  <path d="M311.216 109.047h-1.562c0 .164.003.323 0 .481-.006.325.009.653-.031.973-.049.393-.409.661-.796.64a.79.79 0 0 1-.727-.727c-.017-.349-.007-.7-.008-1.049v-.326c-.113 0-.207.002-.3 0-.617-.013-1.239.017-1.851-.051-.613-.068-1.048-.629-1.055-1.248-.007-.626-.002-1.252-.002-1.916-.39 0-.77.015-1.147-.007a1.032 1.032 0 0 1-.494-.16.71.71 0 0 1-.276-.818.823.823 0 0 1 .766-.576c.373-.009.746-.002 1.135-.002v-1.602h-.259c-.594 0-1.188.004-1.782-.001-.491-.004-.826-.321-.827-.768-.001-.435.348-.782.821-.791.577-.01 1.155-.003 1.733-.003h.272v-1.591c-.36 0-.714.004-1.069 0-.4-.005-.691-.19-.814-.508a.778.778 0 0 1 .692-1.046c.389-.019.778-.004 1.204-.004 0-.126-.002-.229 0-.33.013-.585-.015-1.175.051-1.753.067-.593.584-1.015 1.181-1.036.561-.02 1.123-.007 1.684-.01h.298c0-.371.021-.719-.005-1.064-.041-.57.417-.903.786-.889.46.017.779.377.781.908v.99h1.551c.004-.08.011-.166.011-.25.001-.562-.002-1.124.001-1.685.003-.478.335-.829.774-.828.424.001.782.37.787.83.006.65.002 1.3.002 1.97h1.562c0-.38-.002-.744 0-1.108.003-.487.319-.825.768-.826.435 0 .783.353.792.82.007.354.001.71.001 1.093.634 0 1.243-.018 1.85.008.241.011.501.08.714.194.388.209.605.565.619 1.012.016.537.007 1.074.01 1.611v.3c.37 0 .718.02 1.063-.005.559-.04.903.401.89.785-.015.46-.375.781-.906.782h-1.045c0 .512-.005.998.01 1.483.001.041.138.111.212.112.569.01 1.139.013 1.708.003.348-.006.59.152.764.435.33.536.013 1.137-.621 1.155-.577.016-1.155.005-1.733.005h-.284v1.601c.37 0 .741-.004 1.112.001.446.007.792.309.818.709a.785.785 0 0 1-.774.85c-.381.007-.762.001-1.176.001v.403c0 .488.004.976-.001 1.465-.007.777-.559 1.332-1.339 1.345-.529.009-1.057.001-1.587.002-.079 0-.159.007-.264.011 0 .41.015.806-.007 1.201a1.288 1.288 0 0 1-.151.551c-.162.281-.514.397-.805.316-.324-.089-.577-.371-.591-.697-.016-.365-.006-.732-.008-1.098v-.273h-1.562v.587c0 .505.005 1.01-.002 1.514-.008.493-.348.855-.785.852-.438-.003-.772-.369-.776-.861-.003-.603-.001-1.205-.001-1.806v-.29.004Zm-3.163-7.183c0 .846-.002 1.693 0 2.539.002.833.533 1.376 1.37 1.379 1.701.007 3.401.007 5.102 0 .813-.003 1.363-.524 1.372-1.334a257.61 257.61 0 0 0 0-5.2c-.008-.823-.568-1.342-1.387-1.343-1.701-.002-3.402-.003-5.103 0-.799 0-1.349.55-1.353 1.346-.004.871 0 1.742-.001 2.613Z" fill="#51A9E1"/>
  <path d="M309.633 99.48h4.657v4.69h-4.657v-4.69ZM311.216 79.047h-1.562c0 .164.003.323 0 .48-.006.326.009.654-.031.974-.049.393-.409.661-.796.64a.79.79 0 0 1-.727-.727c-.017-.35-.007-.7-.008-1.05v-.325c-.113 0-.207.002-.3 0-.617-.013-1.239.017-1.851-.051-.613-.068-1.048-.629-1.055-1.248-.007-.625-.002-1.252-.002-1.916-.39 0-.77.015-1.147-.007a1.032 1.032 0 0 1-.494-.16.709.709 0 0 1-.276-.818.824.824 0 0 1 .766-.576c.373-.01.746-.002 1.135-.002v-1.602h-.259c-.594 0-1.188.004-1.782-.002-.491-.003-.826-.32-.827-.767-.001-.435.348-.782.821-.79.577-.011 1.155-.004 1.733-.004h.272v-1.591c-.36 0-.714.004-1.069 0-.4-.005-.691-.19-.814-.508a.778.778 0 0 1 .692-1.046c.389-.019.778-.004 1.204-.004 0-.126-.002-.229 0-.33.013-.585-.015-1.175.051-1.753.067-.593.584-1.015 1.181-1.036.561-.02 1.123-.007 1.684-.01h.298c0-.371.021-.719-.005-1.063-.041-.572.417-.904.786-.89.46.017.779.377.781.908v.99h1.551c.004-.08.011-.166.011-.25.001-.562-.002-1.124.001-1.685.003-.478.335-.829.774-.828.424.001.782.37.787.83.006.65.002 1.3.002 1.97h1.562c0-.38-.002-.744 0-1.108.003-.487.319-.825.768-.826.435 0 .783.353.792.82.007.354.001.71.001 1.093.634 0 1.243-.018 1.85.008.241.011.501.08.714.194.388.209.605.565.619 1.012.016.537.007 1.074.01 1.611v.3c.37 0 .718.02 1.063-.005.559-.04.903.401.89.785-.015.46-.375.781-.906.782h-1.045c0 .512-.005.998.01 1.483.001.041.138.111.212.112.569.01 1.139.013 1.708.003.348-.006.59.152.764.435.33.536.013 1.137-.621 1.155-.577.016-1.155.005-1.733.005h-.284v1.6c.37 0 .741-.003 1.112.002.446.007.792.31.818.71a.784.784 0 0 1-.774.849c-.381.007-.762 0-1.176 0v.404c0 .488.004.976-.001 1.465-.007.777-.559 1.332-1.339 1.345-.529.009-1.057 0-1.587.002-.079 0-.159.007-.264.01 0 .41.015.807-.007 1.203a1.29 1.29 0 0 1-.151.55.72.72 0 0 1-.805.316c-.324-.09-.577-.37-.591-.697-.016-.365-.006-.732-.008-1.098v-.273h-1.562v.587c0 .505.005 1.01-.002 1.514-.008.493-.348.855-.785.852-.438-.003-.772-.37-.776-.861-.003-.602-.001-1.205-.001-1.806v-.29.004Zm-3.163-7.183c0 .846-.002 1.693 0 2.54.002.832.533 1.375 1.37 1.378 1.701.007 3.401.007 5.102 0 .813-.003 1.363-.523 1.372-1.334a257.62 257.62 0 0 0 0-5.2c-.008-.823-.568-1.342-1.387-1.343-1.701-.002-3.402-.003-5.103 0-.799 0-1.349.55-1.353 1.346-.004.871 0 1.742-.001 2.613Z" fill="#82C1E9"/>
  <path d="M309.633 69.48h4.657v4.69h-4.657v-4.69Z" fill="#CBE6F6"/>
  <path opacity=".6" fill-rule="evenodd" clip-rule="evenodd" d="M313 34.51v15.204a4.751 4.751 0 0 1-7.989-3.132A4.986 4.986 0 0 1 303.5 43a4.998 4.998 0 0 1 2.589-4.381 4.25 4.25 0 0 1 6.911-4.11Z" fill="#51A9E1"/>
  <path d="M313 38.75h2.25a1 1 0 0 0 1-1v-2M313 46.5h2.25a1 1 0 0 1 1 1v2M313 42.75h4.5" stroke="#51A9E1" stroke-width="1.5"/>
  <circle cx="316.25" cy="36" r="2" fill="#97CBED"/>
  <circle cx="2" cy="2" r="2" transform="matrix(1 0 0 -1 314.25 52)" fill="#97CBED"/>
  <circle cx="319" cy="43" r="2" fill="#97CBED"/>
  <path opacity=".3" fill-rule="evenodd" clip-rule="evenodd" d="M313 4.51v15.204a4.751 4.751 0 0 1-7.989-3.132A4.986 4.986 0 0 1 303.5 13a4.998 4.998 0 0 1 2.589-4.381A4.25 4.25 0 0 1 313 4.509Z" fill="#51A9E1"/>
  <path d="M313 8.75h2.25a1 1 0 0 0 1-1v-2M313 16.5h2.25a1 1 0 0 1 1 1v2M313 12.75h4.5" stroke="#51A9E1" stroke-width="1.5"/>
  <circle cx="317" cy="6" r="2" fill="#CBE6F6"/>
  <circle cx="2" cy="2" r="2" transform="matrix(1 0 0 -1 315 22)" fill="#CBE6F6"/>
  <circle cx="319" cy="13" r="2" fill="#CBE6F6"/>
  <path d="M256.998 50.204c-2.45 0-4.9-.013-7.35.006-1.268.01-2.302-.818-2.57-1.938a3.142 3.142 0 0 1-.075-.712c-.003-3.983-.005-7.967 0-11.95 0-1.51 1.101-2.604 2.614-2.607 1.49-.004 2.981.003 4.471-.003.954-.004 1.692.39 2.231 1.17.235.34.482.674.709 1.02.276.422.662.605 1.158.605 2.043-.004 4.085.004 6.128-.004.658-.003 1.249.161 1.755.585.575.482.911 1.1.917 1.852.016 2.064.009 4.129.01 6.194 0 1.112.014 2.224-.009 3.336-.027 1.331-1.11 2.426-2.443 2.437-2.514.02-5.029.006-7.544.006v.004h-.002Z" fill="#82C1E9"/>
  <path d="M258.823 39.661c-.133-.127-.219-.204-.298-.287a.767.767 0 0 1 .037-1.11c.339-.316.896-.363 1.248-.061a60.855 60.855 0 0 1 1.956 1.763c.318.298.312.779-.017 1.089a56.077 56.077 0 0 1-1.915 1.727c-.367.316-.931.277-1.272-.043-.342-.322-.342-.803.003-1.15.07-.07.143-.138.273-.264h-.353c-1.2 0-2.401.003-3.602-.004a.879.879 0 0 1-.839-.569c-.119-.335.006-.74.342-.916.196-.103.449-.163.677-.167 1.123-.016 2.247-.007 3.371-.007h.39-.001ZM255.178 46.338c.129.123.208.195.282.272a.77.77 0 0 1-.044 1.15c-.347.304-.9.328-1.251.022a79.062 79.062 0 0 1-1.916-1.73c-.348-.326-.327-.812.037-1.15a97.852 97.852 0 0 1 1.835-1.655.988.988 0 0 1 1.298-.008c.362.321.37.81.018 1.17-.069.07-.142.139-.269.264h.353c1.202 0 2.403-.004 3.604.005.441.003.805.3.864.672a.81.81 0 0 1-.57.918c-.16.05-.339.067-.508.068-1.115.006-2.23.003-3.345.003h-.389.001Z" fill="#51A9E1"/>
  <path d="M256.998 20.204c-2.45 0-4.9-.013-7.35.006-1.268.01-2.302-.818-2.57-1.938a3.142 3.142 0 0 1-.075-.712c-.003-3.983-.005-7.967 0-11.95 0-1.51 1.101-2.604 2.614-2.607 1.49-.004 2.981.003 4.471-.003.954-.003 1.692.39 2.231 1.17.235.34.482.674.709 1.02.276.422.662.605 1.158.605 2.043-.003 4.085.004 6.128-.004.658-.003 1.249.161 1.755.585.575.482.911 1.1.917 1.852.016 2.064.009 4.129.01 6.194 0 1.112.014 2.224-.009 3.336-.027 1.332-1.11 2.426-2.443 2.437-2.514.02-5.029.006-7.544.006v.004h-.002Z" fill="#CBE6F6"/>
  <path d="M258.823 9.661c-.133-.127-.219-.204-.298-.287a.767.767 0 0 1 .037-1.11c.339-.316.896-.363 1.248-.061a60.904 60.904 0 0 1 1.956 1.763c.318.298.312.779-.017 1.089a56.077 56.077 0 0 1-1.915 1.728c-.367.315-.931.276-1.272-.044-.342-.322-.342-.803.003-1.15.07-.07.143-.138.273-.264h-.353c-1.2 0-2.401.003-3.602-.004a.879.879 0 0 1-.839-.569c-.119-.335.006-.74.342-.916.196-.103.449-.164.677-.167 1.123-.016 2.247-.007 3.371-.007h.39-.001ZM255.178 16.338c.129.123.208.195.282.272a.77.77 0 0 1-.044 1.15c-.347.304-.9.328-1.251.022a79.062 79.062 0 0 1-1.916-1.73c-.348-.326-.327-.812.037-1.15a97.852 97.852 0 0 1 1.835-1.655.988.988 0 0 1 1.298-.008c.362.321.37.81.018 1.17-.069.07-.142.139-.269.263h.353c1.202 0 2.403-.003 3.604.006.441.003.805.3.864.672a.81.81 0 0 1-.57.918c-.16.05-.339.067-.508.068-1.115.006-2.23.003-3.345.003h-.389.001Z" fill="#82C1E9"/>
  <path d="M230.678 106.148a6.842 6.842 0 0 0-.683-2.365h5.434c.065 0 .131.004.195-.003.306-.033.541-.282.543-.568.001-.293-.245-.546-.558-.572-.065-.005-.131-.002-.195-.002h-6.178c-.682-.802-1.5-1.43-2.479-1.838a6.49 6.49 0 0 0-3.06-.476c-.005-.088-.012-.157-.012-.227 0-2.119-.003-4.239 0-6.358.001-.941.789-1.736 1.724-1.737 2.743-.003 5.488-.002 8.231 0 .058 0 .116.004.199.008.005.086.012.167.012.249v4.076c0 .525.209.737.729.737h4.328c.005.086.014.154.014.222v12.971c0 .948-.793 1.733-1.747 1.734-2.991.002-5.982 0-8.973 0h-.173l-.034-.035c1.56-1.169 2.464-2.713 2.684-4.67h4.742c.064 0 .13.004.195-.003.313-.031.557-.291.549-.581a.593.593 0 0 0-.551-.559c-.065-.007-.13-.003-.195-.003h-4.742.001Zm.615-5.876h4.133c.065 0 .13.004.195-.003.306-.032.541-.277.546-.564.004-.291-.241-.547-.554-.576-.045-.004-.091-.003-.136-.003h-8.344c-.053 0-.105-.002-.156.004a.585.585 0 0 0-.524.476.54.54 0 0 0 .276.575c.118.057.26.086.392.087 1.39.006 2.782.004 4.172.004Z" fill="#51A9E1"/>
  <path d="M219 106.727c-.026-2.903 2.389-5.286 5.273-5.29 2.894-.004 5.301 2.385 5.287 5.297a5.283 5.283 0 0 1-5.294 5.266 5.276 5.276 0 0 1-5.266-5.273Zm4.509.903c-.114-.106-.163-.149-.208-.193-.198-.197-.394-.397-.594-.592-.142-.139-.31-.215-.512-.173-.468.098-.631.612-.298.962.336.353.686.691 1.031 1.036.397.397.664.4 1.057.008l2.508-2.509c.051-.05.102-.1.145-.157a.56.56 0 0 0-.302-.887c-.242-.07-.43.025-.595.191-.698.698-1.397 1.396-2.093 2.096-.054.055-.086.132-.139.219v-.001Z" fill="#82C1E9"/>
  <path d="M238.508 95.913h-3.496v-3.495l3.496 3.496Z" fill="#51A9E1"/>
  <path d="M230.678 76.148a6.839 6.839 0 0 0-.683-2.365h5.434c.065 0 .131.004.195-.003.306-.034.541-.282.543-.568.001-.293-.245-.546-.558-.572-.065-.005-.131-.002-.195-.002h-6.178c-.682-.802-1.5-1.43-2.479-1.838a6.492 6.492 0 0 0-3.06-.476c-.005-.088-.012-.157-.012-.227 0-2.119-.003-4.239 0-6.358.001-.941.789-1.736 1.724-1.737 2.743-.003 5.488-.002 8.231 0 .058 0 .116.004.199.008.005.086.012.167.012.249v4.076c0 .525.209.737.729.737h4.328c.005.086.014.154.014.222v12.97c0 .949-.793 1.734-1.747 1.735-2.991.002-5.982 0-8.973 0h-.173l-.034-.035c1.56-1.17 2.464-2.713 2.684-4.67h4.742c.064 0 .13.004.195-.004.313-.03.557-.29.549-.58a.594.594 0 0 0-.551-.56c-.065-.006-.13-.002-.195-.002h-4.742.001Zm.615-5.876h4.133c.065 0 .13.004.195-.003.306-.032.541-.277.546-.564.004-.291-.241-.547-.554-.576-.045-.004-.091-.003-.136-.003h-8.344c-.053 0-.105-.002-.156.004a.585.585 0 0 0-.524.476.54.54 0 0 0 .276.575.94.94 0 0 0 .392.087c1.39.006 2.782.004 4.172.004Z" fill="#CBE6F6"/>
  <path d="M219 76.727c-.026-2.903 2.389-5.286 5.273-5.29 2.894-.004 5.301 2.385 5.287 5.297A5.283 5.283 0 0 1 224.266 82 5.276 5.276 0 0 1 219 76.727Zm4.509.903c-.114-.106-.163-.149-.208-.194-.198-.196-.394-.396-.594-.59-.142-.14-.31-.216-.512-.174-.468.098-.631.612-.298.962.336.353.686.691 1.031 1.036.397.397.664.4 1.057.008l2.508-2.509c.051-.05.102-.1.145-.157a.56.56 0 0 0-.302-.887c-.242-.07-.43.025-.595.19-.698.7-1.397 1.397-2.093 2.097-.054.055-.086.132-.139.219v-.001ZM238.508 65.913h-3.496V62.42l3.496 3.495Z" fill="#82C1E9"/>
  <path d="M228.284 51.994c-2.274 0-4.548.015-6.821-.006-1.309-.012-2.446-1.158-2.452-2.468a1144.95 1144.95 0 0 1-.001-9.807c.002-.829.395-1.486 1.043-1.99 2.188-1.703 4.377-3.406 6.568-5.106 1.058-.82 2.281-.825 3.347 0 2.238 1.734 4.474 3.47 6.699 5.22.594.468.911 1.117.914 1.876.009 3.277.012 6.553-.003 9.83-.006 1.28-1.15 2.434-2.427 2.446-2.288.02-4.577.006-6.865.006l-.002-.001Zm.016-12.7a6.78 6.78 0 0 0-2.019.277 7.193 7.193 0 0 0-3.098 1.818c-.21.207-.287.454-.202.734.08.266.272.425.542.478.296.059.507-.096.713-.286 1.581-1.458 3.428-1.928 5.515-1.444 1.028.238 1.905.762 2.657 1.497.189.184.402.287.667.231a.66.66 0 0 0 .528-.465c.089-.289.01-.54-.209-.753-1.421-1.375-3.12-2.068-5.095-2.087h.001Zm.141 3.282c-1.175-.002-2.203.418-2.925 1.137-.298.297-.32.726-.049 1.011.266.282.698.279 1.013-.007 1.1-.999 2.536-.998 3.631.001.312.285.745.287 1.013.005.269-.285.249-.716-.053-1.012-.769-.749-1.7-1.11-2.63-1.135Zm.776 4.24a.926.926 0 0 0-.922-.927.925.925 0 0 0-.923.924.928.928 0 0 0 .932.94.928.928 0 0 0 .913-.938Z" fill="#51A9E1"/>
  <path d="M228.301 39.293c1.975.02 3.675.712 5.096 2.087.219.212.297.465.208.753a.66.66 0 0 1-.527.466c-.266.055-.479-.05-.667-.232-.753-.734-1.63-1.258-2.657-1.497-2.088-.484-3.934-.013-5.515 1.444-.207.19-.417.345-.714.286-.27-.053-.462-.212-.542-.477-.084-.281-.009-.528.202-.735a7.196 7.196 0 0 1 3.099-1.818 6.746 6.746 0 0 1 2.019-.278l-.002.001Z" fill="#CBE6F6"/>
  <path d="M228.441 42.576c.93.025 1.861.386 2.63 1.135.303.296.323.727.053 1.012-.268.283-.701.28-1.013-.005-1.094-.999-2.531-1-3.631-.001-.316.286-.746.29-1.013.007-.27-.285-.25-.714.05-1.011.722-.72 1.75-1.138 2.924-1.137ZM229.216 46.815a.928.928 0 0 1-.913.939.929.929 0 0 1-.932-.941.924.924 0 0 1 .924-.925c.508 0 .919.415.921.927ZM228.284 21.994c-2.274 0-4.548.015-6.821-.006-1.309-.012-2.446-1.158-2.452-2.468-.015-3.269-.014-6.538-.001-9.807.002-.829.395-1.485 1.043-1.99a5018.42 5018.42 0 0 1 6.568-5.106c1.058-.82 2.281-.825 3.347 0 2.238 1.734 4.474 3.47 6.699 5.22.594.468.911 1.117.914 1.876.009 3.277.012 6.553-.003 9.83-.006 1.28-1.15 2.434-2.427 2.446-2.288.02-4.577.006-6.865.006l-.002-.001Zm.016-12.7a6.78 6.78 0 0 0-2.019.277 7.192 7.192 0 0 0-3.098 1.818c-.21.207-.287.454-.202.735.08.265.272.424.542.477.296.059.507-.096.713-.286 1.581-1.458 3.428-1.928 5.515-1.444 1.028.238 1.905.762 2.657 1.497.189.184.402.287.667.232a.66.66 0 0 0 .528-.466c.089-.289.01-.54-.209-.753-1.421-1.375-3.12-2.068-5.095-2.087h.001Zm.141 3.282c-1.175-.002-2.203.418-2.925 1.137-.298.297-.32.726-.049 1.012.266.281.698.278 1.013-.008 1.1-.999 2.536-.998 3.631.001.312.286.745.287 1.013.005.269-.285.249-.716-.053-1.012-.769-.749-1.7-1.11-2.63-1.135Zm.776 4.24a.926.926 0 0 0-.922-.927.925.925 0 0 0-.923.924.928.928 0 0 0 .932.94.928.928 0 0 0 .913-.938Z" fill="#CBE6F6"/>
  <path d="M228.301 9.293c1.975.02 3.675.712 5.096 2.088.219.211.297.464.208.752a.66.66 0 0 1-.527.466c-.266.055-.479-.05-.667-.232-.753-.735-1.63-1.258-2.657-1.497-2.088-.484-3.934-.013-5.515 1.444-.207.19-.417.345-.714.286-.27-.053-.462-.211-.542-.477-.084-.281-.009-.528.202-.735a7.196 7.196 0 0 1 3.099-1.818 6.748 6.748 0 0 1 2.019-.278l-.002.001Z" fill="#fff"/>
  <path d="M228.441 12.576c.93.025 1.861.386 2.63 1.135.303.296.323.727.053 1.012-.268.283-.701.28-1.013-.005-1.094-.999-2.531-1-3.631-.001-.316.286-.746.29-1.013.007-.27-.285-.25-.714.05-1.011.722-.72 1.75-1.138 2.924-1.137ZM229.216 16.815a.928.928 0 0 1-.913.939.929.929 0 0 1-.932-.941.924.924 0 0 1 .924-.925c.508 0 .919.415.921.927Z" fill="#fff"/>
  <path d="M200.011 94.004c3.694.037 6.873 1.347 9.532 3.947.409.4.556.879.39 1.423-.149.48-.499.778-.987.88-.498.104-.895-.093-1.248-.439-1.407-1.388-3.048-2.377-4.97-2.829-3.904-.916-7.357-.024-10.316 2.73-.386.36-.779.652-1.334.541-.506-.1-.864-.4-1.015-.903-.158-.531-.016-.998.379-1.388 1.647-1.637 3.575-2.793 5.795-3.438 1.231-.357 2.489-.553 3.777-.525l-.003.001Z" fill="#82C1E9"/>
  <path d="M200.273 100.211c1.741.048 3.481.73 4.92 2.146.567.559.603 1.375.099 1.913-.501.535-1.311.53-1.895-.009-2.047-1.889-4.733-1.891-6.792-.003-.59.541-1.396.547-1.895.015-.506-.539-.467-1.35.093-1.912 1.35-1.36 3.273-2.152 5.47-2.15Z" fill="#82C1E9"/>
  <path d="M201.725 108.226c.003.973-.752 1.757-1.708 1.774-.959.016-1.747-.788-1.744-1.779.004-.969.775-1.749 1.728-1.747.951 0 1.72.783 1.724 1.752Z" fill="#51A9E1"/>
  <path d="M200.011 64.004c3.694.037 6.873 1.347 9.532 3.947.409.4.556.879.39 1.423-.149.48-.499.778-.987.88-.498.104-.895-.093-1.248-.439-1.407-1.388-3.048-2.377-4.97-2.829-3.904-.916-7.357-.024-10.316 2.73-.386.36-.779.652-1.334.541-.506-.1-.864-.4-1.015-.903-.158-.531-.016-.998.379-1.388 1.647-1.637 3.575-2.793 5.795-3.438 1.231-.357 2.489-.553 3.777-.525l-.003.001Z" fill="#CBE6F6"/>
  <path d="M200.273 70.21c1.741.049 3.481.731 4.92 2.147.567.56.603 1.375.099 1.913-.501.535-1.311.53-1.895-.009-2.047-1.889-4.733-1.89-6.792-.003-.59.54-1.396.547-1.895.015-.506-.54-.467-1.35.093-1.912 1.35-1.36 3.273-2.152 5.47-2.15Z" fill="#CBE6F6"/>
  <path d="M201.725 78.226c.003.973-.752 1.757-1.708 1.774-.959.016-1.747-.788-1.744-1.779.004-.97.775-1.749 1.728-1.747.951 0 1.72.783 1.724 1.752Z" fill="#82C1E9"/>
  <path d="M192.035 36.032c.208-3.567 4.31-5.308 6.995-2.958 2.85-1.598 6.304.035 7.024 2.986a4.16 4.16 0 0 1 1.376.738c.871.718 1.387 1.63 1.532 2.754.249 1.926-.921 3.836-2.856 4.468a4.08 4.08 0 0 1-1.283.2c-3.93-.003-7.86.017-11.79-.014-1.445-.01-2.57-.706-3.369-1.907-.461-.695-.669-1.471-.664-2.305.013-1.747 1.183-3.352 2.842-3.9l.192-.062h.001Z" fill="#51A9E1"/>
  <path d="M204.763 47.686h-1.684c-.306 0-.612.005-.917-.002-.389-.009-.628-.255-.63-.641-.002-.545 0-1.09 0-1.649h1.175v1.096h2.066c.233-.682.678-1.188 1.381-1.432a2.066 2.066 0 0 1 1.376-.006c.938.319 1.523 1.202 1.465 2.198-.054.935-.795 1.772-1.735 1.954-.85.165-2.033-.203-2.496-1.517l-.001-.001ZM193.234 47.686c-.473 1.356-1.738 1.7-2.552 1.502-.992-.242-1.677-1.084-1.682-2.074a2.15 2.15 0 0 1 1.634-2.113 2.097 2.097 0 0 1 1.598.232c.491.288.813.716.989 1.26h2.055v-1.097h1.18c.003.058.009.12.01.183.001.48.002.962 0 1.443-.001.422-.239.662-.667.664-.813.003-1.625 0-2.438 0h-.127ZM198.41 47.744v-2.347h1.168v2.348c.621.207 1.088.578 1.362 1.16.223.475.27.969.135 1.48-.246.932-1.148 1.616-2.109 1.593-1.005-.025-1.883-.752-2.077-1.713-.19-.944.265-2.1 1.521-2.521ZM192.035 6.032c.208-3.567 4.31-5.308 6.995-2.958 2.85-1.598 6.304.035 7.024 2.986a4.16 4.16 0 0 1 1.376.738c.871.718 1.387 1.63 1.532 2.754.249 1.926-.921 3.836-2.856 4.468a4.08 4.08 0 0 1-1.283.2c-3.93-.003-7.86.016-11.79-.014-1.445-.01-2.57-.706-3.369-1.907-.461-.695-.669-1.471-.664-2.305.013-1.747 1.183-3.352 2.842-3.9l.192-.062h.001Z" fill="#82C1E9"/>
  <path d="M204.763 17.686h-1.684c-.306 0-.612.005-.917-.002-.389-.009-.628-.255-.63-.641-.002-.545 0-1.09 0-1.649h1.175v1.096h2.066c.233-.682.678-1.188 1.381-1.432a2.066 2.066 0 0 1 1.376-.006c.938.319 1.523 1.202 1.465 2.198-.054.936-.795 1.771-1.735 1.954-.85.165-2.033-.203-2.496-1.517l-.001-.001ZM193.234 17.686c-.473 1.356-1.738 1.7-2.552 1.502-.992-.242-1.677-1.084-1.682-2.074a2.15 2.15 0 0 1 1.634-2.113 2.097 2.097 0 0 1 1.598.232c.491.287.813.716.989 1.26h2.055v-1.097h1.18c.003.058.009.12.01.183.001.48.002.962 0 1.443-.001.422-.239.662-.667.664-.813.003-1.625 0-2.438 0h-.127ZM198.41 17.744v-2.348h1.168v2.35c.621.206 1.088.577 1.362 1.16.223.474.27.968.135 1.48-.246.931-1.148 1.615-2.109 1.591-1.005-.024-1.883-.751-2.077-1.712-.19-.944.265-2.1 1.521-2.521Z" fill="#CBE6F6"/>
  <path d="M164.366 109.477c.504 0 1.008-.007 1.511.002.635.013 1.143.478 1.242 1.121.084.555-.278 1.131-.843 1.32-.13.044-.272.072-.409.073-1.637.005-3.275.004-4.913.002-.554 0-.952-.399-.953-.952v-4.892c0-.714.554-1.28 1.249-1.287.676-.006 1.257.573 1.268 1.277.008.496.002.993.002 1.541.079-.074.132-.12.181-.17 1.253-1.251 2.503-2.505 3.757-3.754.523-.52 1.282-.538 1.789-.053.529.507.532 1.294-.005 1.833-1.135 1.141-2.275 2.278-3.413 3.415-.162.161-.328.319-.492.478l.029.047v-.001ZM162.522 96.297c0 .559.004 1.053-.001 1.547a1.285 1.285 0 0 1-1.069 1.267c-.729.123-1.441-.446-1.446-1.187-.01-1.68-.006-3.359 0-5.039a.897.897 0 0 1 .872-.879c1.687-.007 3.374-.01 5.06.001.624.005 1.119.51 1.191 1.168.062.567-.374 1.159-.969 1.3a1.82 1.82 0 0 1-.394.045c-.454.006-.91.003-1.364.004-.013 0-.025.007-.061.019.054.06.101.115.152.166 1.247 1.248 2.496 2.494 3.74 3.742.528.53.548 1.295.054 1.804-.503.519-1.285.523-1.818-.004-.865-.857-1.724-1.72-2.584-2.581-.44-.44-.878-.883-1.364-1.372l.001-.001ZM177.476 107.638c0-.494-.004-.989.001-1.483a1.285 1.285 0 0 1 1.068-1.266c.732-.123 1.441.442 1.446 1.186.01 1.679.007 3.36 0 5.039a.897.897 0 0 1-.873.879 449.19 449.19 0 0 1-5.06 0c-.624-.005-1.12-.514-1.192-1.169-.061-.566.376-1.158.97-1.3.128-.03.262-.042.394-.044.467-.005.935-.002 1.445-.002-.074-.08-.12-.135-.171-.186-1.252-1.253-2.507-2.501-3.755-3.757-.701-.705-.426-1.848.507-2.122.494-.145.925-.011 1.285.349 1.243 1.241 2.485 2.483 3.726 3.727.055.054.099.117.149.177l.058-.027.002-.001ZM175.686 94.52c-.555 0-1.059.01-1.562 0-.635-.013-1.145-.48-1.244-1.12-.085-.556.278-1.133.842-1.321.136-.046.287-.072.43-.072 1.631-.006 3.262-.005 4.892-.003.554 0 .954.399.955.951.001 1.63.002 3.261 0 4.892a1.27 1.27 0 0 1-1.248 1.289c-.67.012-1.259-.575-1.269-1.276-.007-.496-.002-.993-.002-1.541-.079.074-.132.12-.182.17-1.252 1.251-2.501 2.505-3.756 3.754-.637.633-1.64.491-2.04-.281-.266-.511-.167-1.077.271-1.515 1.241-1.244 2.484-2.484 3.726-3.727.053-.053.103-.108.188-.198l-.001-.001Z" fill="#82C1E9"/>
  <path d="M164.366 79.477c.504 0 1.008-.007 1.511.002.635.013 1.143.478 1.242 1.12.084.556-.278 1.132-.843 1.321-.13.044-.272.072-.409.073-1.637.005-3.275.004-4.913.002-.554 0-.952-.399-.953-.952v-4.892c0-.714.554-1.28 1.249-1.287.676-.006 1.257.573 1.268 1.276.008.497.002.993.002 1.542.079-.074.132-.12.181-.17 1.253-1.251 2.503-2.505 3.757-3.754.523-.52 1.282-.538 1.789-.053.529.507.532 1.294-.005 1.833-1.135 1.141-2.275 2.278-3.413 3.415-.162.162-.328.319-.492.478l.029.047ZM162.522 66.297c0 .559.004 1.053-.001 1.547a1.285 1.285 0 0 1-1.069 1.267c-.729.123-1.441-.446-1.446-1.187-.01-1.68-.006-3.359 0-5.039a.897.897 0 0 1 .872-.878c1.687-.008 3.374-.01 5.06 0 .624.005 1.119.51 1.191 1.168.062.567-.374 1.159-.969 1.3a1.82 1.82 0 0 1-.394.045c-.454.006-.91.003-1.364.004-.013 0-.025.007-.061.019.054.06.101.115.152.166 1.247 1.248 2.496 2.494 3.74 3.742.528.53.548 1.295.054 1.804-.503.519-1.285.523-1.818-.004-.865-.857-1.724-1.72-2.584-2.581-.44-.44-.878-.883-1.364-1.372l.001-.001ZM177.476 77.638c0-.495-.004-.99.001-1.483a1.285 1.285 0 0 1 1.068-1.266c.732-.123 1.441.442 1.446 1.186.01 1.68.007 3.36 0 5.039a.898.898 0 0 1-.873.88c-1.687.007-3.373.01-5.06-.001-.624-.005-1.12-.514-1.192-1.169-.061-.566.376-1.158.97-1.3.128-.03.262-.042.394-.044.467-.005.935-.002 1.445-.002-.074-.08-.12-.135-.171-.186-1.252-1.253-2.507-2.501-3.755-3.757-.701-.705-.426-1.848.507-2.121.494-.146.925-.012 1.285.348 1.243 1.241 2.485 2.484 3.726 3.727.055.054.099.117.149.177l.058-.027.002-.001ZM175.686 64.52c-.555 0-1.059.01-1.562 0-.635-.013-1.145-.48-1.244-1.12-.085-.556.278-1.133.842-1.321.136-.046.287-.072.43-.072 1.631-.005 3.262-.005 4.892-.003.554 0 .954.399.955.951.001 1.63.002 3.261 0 4.892a1.27 1.27 0 0 1-1.248 1.289c-.67.012-1.259-.575-1.269-1.276-.007-.496-.002-.993-.002-1.541-.079.074-.132.12-.182.17-1.252 1.251-2.501 2.505-3.756 3.754-.637.633-1.64.491-2.04-.281-.266-.511-.167-1.077.271-1.515 1.241-1.244 2.484-2.484 3.726-3.727.053-.053.103-.108.188-.198l-.001-.001Z" fill="#CBE6F6"/>
  <path d="M163.075 49.474c-.353.356-.693.706-1.041 1.046-.273.266-.658.266-.876-.009a.641.641 0 0 1-.139-.369 677.67 677.67 0 0 1-.005-4.94c0-.345.249-.584.598-.584 1.627-.003 3.253-.002 4.881-.001.267 0 .464.12.569.366.108.25.034.473-.15.66-.333.337-.673.67-1.021 1.014.556.466 1.158.825 1.829 1.035 2.452.767 4.605.257 6.414-1.577.697-.706 1.146-1.567 1.414-2.523.388-1.383 1.95-1.94 3.094-1.11.645.466.963 1.309.736 2.093-.998 3.452-3.203 5.778-6.6 6.943-1.351.463-2.752.574-4.175.411-2.048-.234-3.848-1.026-5.411-2.366-.028-.025-.06-.047-.116-.089h-.001Z" fill="#51A9E1"/>
  <path d="M176.392 34.512c.341-.344.676-.69 1.019-1.027.274-.27.653-.277.876-.005a.64.64 0 0 1 .145.367c.009 1.653.008 3.306.005 4.959a.558.558 0 0 1-.569.573c-1.646.005-3.293.004-4.939 0a.558.558 0 0 1-.536-.357c-.106-.24-.049-.463.128-.646.289-.3.586-.592.883-.884.05-.05.118-.081.191-.13-.857-.693-1.765-1.134-2.794-1.3-2.121-.342-3.946.25-5.451 1.784-.705.719-1.173 1.58-1.444 2.55-.254.912-1.012 1.503-1.924 1.509-.891.005-1.674-.604-1.914-1.492a1.809 1.809 0 0 1 0-.981c.898-3.155 2.855-5.387 5.867-6.682 1.332-.572 2.739-.804 4.186-.74 2.274.102 4.295.877 6.042 2.344.055.046.11.091.167.136.009.008.023.008.062.022ZM163.075 19.474c-.353.356-.693.706-1.041 1.046-.273.266-.658.266-.876-.009a.641.641 0 0 1-.139-.369 677.67 677.67 0 0 1-.005-4.94c0-.345.249-.584.598-.584 1.627-.003 3.253-.002 4.881-.001.267 0 .464.12.569.366.108.25.034.473-.15.66-.333.337-.673.67-1.021 1.014.556.466 1.158.825 1.829 1.035 2.452.767 4.605.257 6.414-1.577.697-.706 1.146-1.567 1.414-2.523.388-1.383 1.95-1.94 3.094-1.11.645.466.963 1.309.736 2.093-.998 3.452-3.203 5.778-6.6 6.943-1.351.463-2.752.574-4.175.412-2.048-.235-3.848-1.027-5.411-2.367-.028-.025-.06-.046-.116-.089h-.001Z" fill="#82C1E9"/>
  <path d="M176.392 4.512c.341-.344.676-.69 1.019-1.027.274-.27.653-.277.876-.005a.64.64 0 0 1 .145.367c.009 1.653.008 3.306.005 4.959a.558.558 0 0 1-.569.573c-1.646.005-3.293.004-4.939 0a.558.558 0 0 1-.536-.357c-.106-.24-.049-.463.128-.646.289-.3.586-.592.883-.884.05-.05.118-.082.191-.13-.857-.693-1.765-1.134-2.794-1.3-2.121-.342-3.946.25-5.451 1.784-.705.719-1.173 1.58-1.444 2.55-.254.912-1.012 1.503-1.924 1.509-.891.005-1.674-.604-1.914-1.492a1.809 1.809 0 0 1 0-.981c.898-3.155 2.855-5.387 5.867-6.682 1.332-.573 2.739-.804 4.186-.74 2.274.102 4.295.877 6.042 2.344.055.046.11.091.167.136.009.008.023.008.062.022Z" fill="#CBE6F6"/>
  <path d="M140.279 93.437v9.263h9.269c.087 4.358-3.286 8.769-8.394 9.247-5.67.529-10.398-4.061-10.144-9.643.246-5.408 4.803-8.945 9.269-8.867Z" fill="#82C1E9"/>
  <path d="M141.734 101.244v-9.238c4.534-.18 9.291 3.743 9.265 9.239h-9.265v-.001Z" fill="#51A9E1"/>
  <path d="M140.279 63.437V72.7h9.269c.087 4.358-3.286 8.77-8.394 9.247-5.67.529-10.398-4.06-10.144-9.643.246-5.408 4.803-8.945 9.269-8.867Z" fill="#CBE6F6"/>
  <path d="M141.734 71.244v-9.238c4.534-.18 9.291 3.743 9.265 9.239h-9.265v-.001Z" fill="#82C1E9"/>
  <path d="m133 46.5 4-7.5 7 3.5 5-7.5M132 51h18" stroke="#51A9E1" stroke-width="1.5" stroke-linecap="round"/>
  <circle cx="133" cy="46" r="2" fill="#82C1E9"/>
  <circle cx="137" cy="39" r="2" fill="#82C1E9"/>
  <circle cx="144" cy="42" r="2" fill="#82C1E9"/>
  <circle cx="149" cy="35" r="2" fill="#82C1E9"/>
  <path d="m133 16.5 4-7.5 7 3.5 5-7.5M132 21h18" stroke="#82C1E9" stroke-width="1.5" stroke-linecap="round"/>
  <circle cx="133" cy="16" r="2" fill="#CBE6F6"/>
  <circle cx="137" cy="9" r="2" fill="#CBE6F6"/>
  <circle cx="144" cy="12" r="2" fill="#CBE6F6"/>
  <circle cx="149" cy="5" r="2" fill="#CBE6F6"/>
  <path d="M103.3 99.616c-.439-1.028-.38-1.995.281-2.878.655-.873 1.555-1.219 2.639-1.096.34-1.369 1.16-2.267 2.54-2.566.98-.213 1.877.027 2.653.653v4.076h-3.84v1.628h-.938v1.129h.913v1.102h-.912v1.149h.915v1.103h-.918v1.129h.928v1.628h3.851v4.092c-.873.685-1.864.901-2.946.574-1.076-.325-1.772-1.069-2.15-2.119-.996-.148-1.792-.618-2.362-1.442-.572-.825-.714-1.739-.501-2.713-.9-.68-1.418-1.562-1.451-2.688-.034-1.127.424-2.039 1.298-2.761ZM120.549 105.062c.208.966.073 1.881-.497 2.708-.569.825-1.362 1.298-2.361 1.448-.47 1.248-1.339 2.043-2.678 2.236-.901.129-1.722-.117-2.427-.695v-4.078h3.846v-1.622h.933v-1.135h-.918v-1.097h.918v-1.155h-.913v-1.085c.296-.057.601.006.915-.039v-1.107h-.924v-1.628h-3.852v-4.087c.772-.625 1.668-.84 2.66-.653a3.08 3.08 0 0 1 1.651.901c.452.462.735 1.016.867 1.666 1.093-.12 2.001.222 2.656 1.104.658.884.715 1.852.277 2.868.865.717 1.329 1.627 1.298 2.754-.031 1.126-.543 2.011-1.45 2.696h-.001Z" fill="#82C1E9"/>
  <path d="M108.723 105.517v-6.544h6.548v6.544h-6.548Zm5.448-5.444h-4.345v4.345h4.345v-4.345Z" fill="#51A9E1"/>
  <path d="M110.945 101.194h2.072c.055.148.066 1.866.013 2.095h-2.083a66.447 66.447 0 0 1-.002-2.095Z" fill="#51A9E1"/>
  <path d="M103.3 69.616c-.439-1.028-.38-1.995.281-2.878.655-.873 1.555-1.219 2.639-1.096.34-1.369 1.16-2.267 2.54-2.566.98-.213 1.877.027 2.653.653v4.076h-3.84v1.628h-.938v1.129h.913v1.103h-.912v1.148h.915v1.103h-.918v1.129h.928v1.628h3.851v4.092c-.873.685-1.864.901-2.946.574-1.076-.326-1.772-1.07-2.15-2.12-.996-.147-1.792-.617-2.362-1.44-.572-.826-.714-1.74-.501-2.714-.9-.68-1.418-1.562-1.451-2.688-.034-1.127.424-2.04 1.298-2.761ZM120.549 75.062c.208.966.073 1.881-.497 2.708-.569.825-1.362 1.298-2.361 1.448-.47 1.248-1.339 2.043-2.678 2.236-.901.13-1.722-.117-2.427-.695v-4.078h3.846v-1.622h.933v-1.135h-.918v-1.097h.918v-1.155h-.913v-1.085c.296-.057.601.006.915-.039v-1.107h-.924v-1.628h-3.852v-4.087c.772-.625 1.668-.84 2.66-.654a3.08 3.08 0 0 1 1.651.902c.452.462.735 1.016.867 1.666 1.093-.12 2.001.222 2.656 1.104.658.884.715 1.852.277 2.868.865.717 1.329 1.627 1.298 2.754-.031 1.126-.543 2.01-1.45 2.696h-.001Z" fill="#CBE6F6"/>
  <path d="M108.723 75.517v-6.544h6.548v6.544h-6.548Zm5.448-5.444h-4.345v4.345h4.345v-4.345Z" fill="#82C1E9"/>
  <path d="M110.945 71.194h2.072c.055.148.066 1.866.013 2.095h-2.083a66.445 66.445 0 0 1-.002-2.095Z" fill="#82C1E9"/>
  <path d="M112.468 48.953c-1.855 0-3.712.017-5.568-.005-2.275-.028-4.193-1.568-4.751-3.774-.711-2.81 1.196-5.684 4.061-6.107.206-.03.265-.105.299-.304a4.518 4.518 0 0 1 4.24-3.758c2.056-.101 3.954 1.29 4.498 3.311.049.179.13.25.302.292 1.252.296 2.097 1.063 2.551 2.26.065.17.137.24.324.257 2.037.179 3.643 1.986 3.574 4.01a3.93 3.93 0 0 1-3.835 3.818c-.053.001-.104.004-.157.004h-5.536v-.004h-.002Z" fill="#97CBED"/>
  <path d="M112.468 18.953c-1.855 0-3.712.018-5.568-.005-2.275-.028-4.193-1.568-4.751-3.774-.711-2.81 1.196-5.684 4.061-6.107.206-.03.265-.105.299-.304a4.518 4.518 0 0 1 4.24-3.758c2.056-.101 3.954 1.29 4.498 3.311.049.179.13.25.302.292 1.252.296 2.097 1.063 2.551 2.26.065.17.137.24.324.257 2.037.179 3.643 1.986 3.574 4.01a3.93 3.93 0 0 1-3.835 3.818c-.053.001-.104.004-.157.004h-5.536v-.004h-.002Z" fill="#CBE6F6"/>
  <path d="m63.664 109.656 3.89-3.886c1.283.771 2.701.95 4.163.389 1.499-.574 2.25-1.812 2.745-3.27H80c-.189 1.393-.552 2.709-1.236 3.921a9.95 9.95 0 0 1-5.035 4.454c-3.837 1.561-7.986.384-10.065-1.608ZM66.215 104.43l-3.888 3.888c-1.865-1.934-3.161-5.96-1.692-9.837a10.03 10.03 0 0 1 8.46-6.445v5.473c-1.43.507-2.66 1.281-3.253 2.754-.588 1.453-.405 2.861.373 4.167Z" fill="#51A9E1"/>
  <path d="M80 101.078h-5.558c-.484-1.858-1.698-3.01-3.528-3.54V92c2.317.314 4.342 1.166 6.023 2.78 1.788 1.714 2.731 3.831 3.063 6.298Z" fill="#82C1E9"/>
  <path d="m63.664 79.656 3.89-3.886c1.283.771 2.701.95 4.163.39 1.499-.575 2.25-1.813 2.745-3.27H80c-.189 1.391-.552 2.707-1.236 3.92a9.95 9.95 0 0 1-5.035 4.454c-3.837 1.561-7.986.384-10.065-1.608Z" fill="#51A9E1"/>
  <path d="m66.215 74.43-3.888 3.888c-1.865-1.934-3.161-5.96-1.692-9.837a10.03 10.03 0 0 1 8.46-6.445v5.473c-1.43.507-2.66 1.281-3.253 2.754-.588 1.453-.405 2.86.373 4.167Z" fill="#82C1E9"/>
  <path d="M80 71.078h-5.558c-.484-1.858-1.698-3.01-3.528-3.54V62c2.317.314 4.342 1.166 6.023 2.78 1.788 1.714 2.731 3.831 3.063 6.298Z" fill="#CBE6F6"/>
  <path d="M70.014 32.001c2.702 0 5.403-.003 8.104.002.767.001 1.363.328 1.693 1.033.12.256.18.56.188.844.023.865.011 1.731.008 2.597-.003 1.09-.79 1.88-1.881 1.888-.801.005-1.602 0-2.402 0H61.938c-.78 0-1.394-.317-1.732-1.037-.12-.255-.18-.56-.188-.844-.024-.857-.01-1.718-.009-2.577.003-1.116.787-1.904 1.902-1.905C64.61 32 67.313 32 70.014 32Zm2.727 3.172c-.002.501.396.91.895.92a.907.907 0 0 0 .91-.903.908.908 0 0 0-.894-.92.916.916 0 0 0-.911.903Zm4.535.01a.914.914 0 0 0-.902-.912.909.909 0 0 0-.904.91c0 .503.404.911.902.912a.915.915 0 0 0 .904-.91Zm-11.83.015c0-.331.017-.663-.007-.992-.018-.244-.205-.38-.44-.377-.223.003-.385.14-.425.374-.019.108-.024.22-.023.33.004.538-.001 1.078.025 1.616.011.247.2.387.43.387.232 0 .416-.138.434-.384.024-.317.007-.636.007-.954Zm-2.706-.014v.839c.003.322.178.517.457.514.27-.003.443-.198.444-.509.003-.565.003-1.131 0-1.696-.001-.308-.18-.504-.448-.505-.27 0-.45.194-.453.5-.003.286 0 .572 0 .858Zm3.635-.02c0 .286-.002.572 0 .858.002.322.179.518.457.515.272-.003.443-.196.444-.508.003-.566.003-1.131 0-1.696-.001-.309-.176-.503-.446-.505-.27-.002-.45.192-.454.498-.004.28 0 .559-.001.838ZM69.988 52c-2.695 0-5.39.002-8.084-.002-.777-.001-1.375-.336-1.707-1.046a2.181 2.181 0 0 1-.18-.846c-.023-.853-.01-1.706-.008-2.558.002-1.126.787-1.913 1.916-1.913 2.98-.002 5.962 0 8.943 0 2.409 0 4.816-.003 7.225.001.782.002 1.39.33 1.725 1.049.118.25.174.548.18.826.023.865.011 1.731.009 2.597-.003 1.102-.792 1.89-1.896 1.891-2.708.002-5.416 0-8.123 0Zm4.558-3.183a.906.906 0 0 0-.904-.909.915.915 0 0 0-.902.913c0 .497.412.91.905.909a.909.909 0 0 0 .901-.913Zm2.729-.004a.915.915 0 0 0-.909-.906c-.5.005-.899.412-.897.916.001.5.411.91.907.906a.913.913 0 0 0 .898-.916Zm-12.704.004h-.022c0 .267-.003.534 0 .8.001.172.027.338.173.456.14.112.3.13.459.065.214-.087.282-.275.283-.49.003-.513.002-1.028 0-1.542 0-.09-.007-.181-.024-.27-.042-.23-.206-.37-.428-.372-.232-.003-.42.136-.437.38-.023.322-.005.648-.005.972v.001Zm-1.831-.004c0 .292-.004.585 0 .877.005.291.186.483.45.483.262 0 .448-.19.45-.482.005-.578.004-1.157 0-1.735-.002-.304-.187-.496-.46-.492-.263.005-.437.194-.44.49-.004.287-.001.573-.001.859Zm4.536.016c0-.292.003-.585 0-.877-.005-.295-.18-.485-.444-.488-.264-.003-.454.186-.457.476-.005.585-.004 1.17 0 1.755.003.29.19.48.454.478.264-.002.442-.193.446-.486.004-.286.001-.572.001-.858Z" fill="#82C1E9"/>
  <path d="M70.006 38.82h8.006c.355 0 .7.038 1.017.213.63.349.958.89.972 1.6.018.911.014 1.823.002 2.734-.014 1-.794 1.828-1.952 1.819-2.057-.017-4.113-.005-6.17-.005h-9.88c-.354 0-.699-.038-1.017-.214-.629-.349-.958-.89-.972-1.6a81.936 81.936 0 0 1-.001-2.733c.013-1 .793-1.825 1.951-1.819 2.681.015 5.363.005 8.045.005Zm3.638 4.082c.505 0 .9-.397.9-.902a.893.893 0 0 0-.902-.902.896.896 0 0 0-.903.903c0 .503.4.901.904.901Zm2.73-1.804a.892.892 0 0 0-.905.897.893.893 0 0 0 .896.907.896.896 0 0 0 .909-.897.895.895 0 0 0-.898-.907h-.001Zm-11.826.903c0 .26-.005.52.002.78a.947.947 0 0 0 .058.322.427.427 0 0 0 .461.249c.241-.046.386-.203.391-.484a53.81 53.81 0 0 0 0-1.738c-.002-.207-.087-.38-.299-.458-.318-.118-.599.104-.612.489-.01.28-.002.559-.003.84h.002Zm-1.81.003c0 .293-.003.586.001.88.005.275.189.47.44.478.249.009.456-.198.46-.479.005-.586.004-1.17 0-1.757-.003-.285-.198-.49-.451-.49-.256 0-.445.203-.45.49-.004.293 0 .586 0 .88v-.002ZM67.275 42c0-.287.003-.573 0-.86-.003-.3-.193-.507-.454-.504-.254.004-.444.208-.446.495a129 129 0 0 0 0 1.737c.002.287.192.491.446.495.261.004.45-.203.454-.504.003-.286 0-.573 0-.86Z" fill="#51A9E1"/>
  <path d="M70.014 2.001c2.702 0 5.403-.003 8.104.002.767.001 1.363.328 1.693 1.033.12.256.18.56.188.844.023.865.011 1.731.008 2.597-.003 1.09-.79 1.88-1.881 1.888-.801.005-1.602 0-2.402 0H61.938c-.78 0-1.394-.317-1.732-1.037-.12-.255-.18-.56-.188-.844-.024-.857-.01-1.717-.009-2.577.003-1.116.787-1.904 1.902-1.905C64.61 2 67.313 2 70.014 2Zm2.727 3.173c-.002.5.396.909.895.918a.907.907 0 0 0 .91-.902.908.908 0 0 0-.894-.92.916.916 0 0 0-.911.904Zm4.535.009a.914.914 0 0 0-.902-.912.909.909 0 0 0-.904.91c0 .503.404.911.902.912a.915.915 0 0 0 .904-.91Zm-11.83.015c0-.331.017-.663-.007-.992-.018-.244-.205-.38-.44-.377-.223.003-.385.14-.425.374-.019.108-.024.22-.023.33.004.538-.001 1.078.025 1.616.011.247.2.387.43.387.232 0 .416-.138.434-.384.024-.317.007-.636.007-.954Zm-2.706-.014v.839c.003.322.178.517.457.514.27-.003.443-.198.444-.509.003-.565.003-1.131 0-1.696-.001-.308-.18-.504-.448-.504-.27-.001-.45.192-.453.499-.003.286 0 .572 0 .857Zm3.635-.02c0 .286-.002.572 0 .858.002.322.179.518.457.515.272-.003.443-.196.444-.508.003-.566.003-1.131 0-1.696-.001-.309-.176-.503-.446-.506-.27-.001-.45.193-.454.499-.004.28 0 .558-.001.838ZM69.988 22c-2.695 0-5.39.002-8.084-.002-.777-.001-1.375-.336-1.707-1.046a2.181 2.181 0 0 1-.18-.846c-.023-.853-.01-1.706-.008-2.558.002-1.126.787-1.912 1.916-1.913 2.98-.002 5.962 0 8.943 0 2.409 0 4.816-.003 7.225.001.782.002 1.39.33 1.725 1.049.118.25.174.548.18.826.023.865.011 1.731.009 2.597-.003 1.102-.792 1.89-1.896 1.891-2.708.002-5.416 0-8.123 0Zm4.558-3.183a.906.906 0 0 0-.904-.909.915.915 0 0 0-.902.912c0 .498.412.911.905.91a.909.909 0 0 0 .901-.913Zm2.729-.003a.915.915 0 0 0-.909-.907c-.5.005-.899.412-.897.916.001.5.411.91.907.906a.913.913 0 0 0 .898-.915Zm-12.704.003h-.022c0 .267-.003.534 0 .8.001.172.027.338.173.456.14.112.3.13.459.065.214-.087.282-.275.283-.49.003-.513.002-1.027 0-1.541 0-.091-.007-.183-.024-.27-.042-.231-.206-.371-.428-.373-.232-.003-.42.136-.437.38-.023.322-.005.648-.005.972v.001Zm-1.831-.004c0 .292-.004.585 0 .877.005.291.186.483.45.483.262 0 .448-.19.45-.482.005-.578.004-1.157 0-1.735-.002-.304-.187-.496-.46-.492-.263.005-.437.194-.44.49-.004.287-.001.573-.001.859Zm4.536.016c0-.292.003-.585 0-.877-.005-.296-.18-.485-.444-.488-.264-.003-.454.186-.457.476-.005.585-.004 1.17 0 1.755.003.29.19.48.454.478.264-.002.442-.193.446-.486.004-.286.001-.572.001-.858Z" fill="#CBE6F6"/>
  <path d="M70.006 8.82h8.006c.355 0 .7.038 1.017.213.63.349.958.89.972 1.6.018.911.014 1.823.002 2.734-.014 1-.794 1.828-1.952 1.818-2.057-.016-4.113-.004-6.17-.004h-9.88c-.354 0-.699-.038-1.017-.214-.629-.349-.958-.89-.972-1.6a81.936 81.936 0 0 1-.001-2.733c.013-1 .793-1.825 1.951-1.819 2.681.015 5.363.005 8.045.005Zm3.638 4.082c.505 0 .9-.397.9-.902a.893.893 0 0 0-.902-.902.896.896 0 0 0-.903.902c0 .504.4.902.904.902Zm2.73-1.804a.892.892 0 0 0-.905.897.893.893 0 0 0 .896.907.896.896 0 0 0 .909-.897.895.895 0 0 0-.898-.907h-.001ZM64.549 12c0 .26-.005.521.002.782a.947.947 0 0 0 .058.32.427.427 0 0 0 .461.25c.241-.046.386-.203.391-.484a53.81 53.81 0 0 0 0-1.738c-.002-.207-.087-.38-.299-.458-.318-.118-.599.103-.612.489-.01.28-.002.559-.003.84h.002Zm-1.81.004c0 .293-.003.586.001.88.005.275.189.47.44.478.249.009.456-.198.46-.479.005-.586.004-1.17 0-1.757-.003-.285-.198-.49-.451-.49-.256 0-.445.203-.45.49-.004.293 0 .586 0 .88v-.002ZM67.275 12c0-.287.003-.573 0-.86-.003-.3-.193-.507-.454-.504-.254.004-.444.208-.446.495a129 129 0 0 0 0 1.737c.002.287.192.491.446.495.261.004.45-.203.454-.504.003-.286 0-.573 0-.86Z" fill="#82C1E9"/>
  <rect x="32" y="103.5" width="5.04" height="7.5" rx="1" fill="#82C1E9"/>
  <rect x="38.48" y="93" width="5.04" height="18" rx="1" fill="#51A9E1"/>
  <rect x="44.961" y="98.25" width="5.04" height="12.75" rx="1" fill="#82C1E9"/>
  <rect x="32" y="73.5" width="5.04" height="7.5" rx="1" fill="#CBE6F6"/>
  <rect x="38.48" y="63" width="5.04" height="18" rx="1" fill="#82C1E9"/>
  <rect x="44.961" y="68.25" width="5.04" height="12.75" rx="1" fill="#CBE6F6"/>
  <path d="M40.903 52.014c-.358-.029-.799-.058-1.237-.102a.57.57 0 0 1-.517-.69c.097-.52.013-.994-.303-1.42-.652-.88-2.026-.88-2.679 0-.05.067-.095.14-.146.206-.216.283-.534.342-.823.134a9.198 9.198 0 0 1-1.48-1.293c-.209-.232-.402-.478-.611-.708-.346-.381-.23-.783.118-1.01.356-.233.584-.565.685-.984a1.673 1.673 0 0 0-1.595-2.067 2.578 2.578 0 0 0-.463.047c-.38.063-.671-.145-.727-.518a11.074 11.074 0 0 1-.114-2.157c.013-.278.043-.557.084-.832.047-.324.284-.509.614-.503.065.002.13.006.194.016.932.154 1.82-.514 1.918-1.446.072-.68-.172-1.22-.733-1.61-.212-.148-.365-.322-.326-.594a.754.754 0 0 1 .125-.32 9.916 9.916 0 0 1 2.056-2.118c.307-.234.635-.195.868.117.257.345.57.598.993.71.922.242 1.899-.354 2.066-1.29.041-.23.019-.48-.013-.715-.054-.398.155-.69.551-.746a10.78 10.78 0 0 1 2-.112c.317.015.635.042.95.083.335.044.54.336.496.672-.058.442-.023.866.222 1.259a1.688 1.688 0 0 0 2.814.058 2.89 2.89 0 0 1 .08-.11c.218-.277.542-.328.828-.118.546.4 1.067.83 1.517 1.338.185.21.357.43.548.634.32.342.284.735-.11 1.011-.35.245-.574.58-.659 1.001-.155.765.19 1.461.805 1.813.383.22.79.272 1.221.185.4-.081.689.129.75.532.113.728.152 1.46.119 2.195a8.318 8.318 0 0 1-.078.774c-.051.356-.355.557-.732.493a1.665 1.665 0 0 0-2.001 1.696c.022.563.257 1.01.721 1.333.032.023.065.044.096.067.329.242.377.567.139.896a10.337 10.337 0 0 1-2.024 2.097c-.329.256-.66.218-.91-.122-.205-.277-.44-.512-.764-.644-1.167-.476-2.348.415-2.321 1.534.003.162.027.323.053.482.051.322-.117.604-.439.676a5.89 5.89 0 0 1-.75.108c-.33.028-.661.04-1.076.062Zm.14-14.293c-2.39.02-4.318 1.844-4.31 4.305.006 2.372 1.863 4.222 4.223 4.243 2.403.021 4.317-1.844 4.311-4.296-.006-2.364-1.86-4.189-4.225-4.252h.001Z" fill="#82C1E9"/>
  <path d="M44.195 42.01c-.065 1.899-1.513 3.189-3.187 3.176-1.928-.014-3.215-1.531-3.195-3.197.02-1.865 1.47-3.183 3.177-3.176 1.88.009 3.177 1.48 3.205 3.198Z" fill="#51A9E1"/>
  <path d="M40.903 22.014c-.358-.029-.799-.058-1.237-.102a.57.57 0 0 1-.517-.69c.097-.52.013-.994-.303-1.42-.652-.88-2.026-.88-2.679 0-.05.067-.095.14-.146.206-.216.283-.534.342-.823.134a9.198 9.198 0 0 1-1.48-1.293c-.209-.232-.402-.478-.611-.708-.346-.381-.23-.783.118-1.01.356-.233.584-.565.685-.984a1.673 1.673 0 0 0-1.595-2.067 2.578 2.578 0 0 0-.463.047c-.38.063-.671-.145-.727-.518a11.074 11.074 0 0 1-.114-2.157c.013-.278.043-.557.084-.832.047-.324.284-.509.614-.503.065.002.13.006.194.016.932.154 1.82-.514 1.918-1.446.072-.68-.172-1.22-.733-1.61-.212-.148-.365-.322-.326-.594a.754.754 0 0 1 .125-.32 9.917 9.917 0 0 1 2.056-2.118c.307-.234.635-.195.868.118.257.344.57.597.993.709.922.242 1.899-.354 2.066-1.29.041-.23.019-.48-.013-.715-.054-.398.155-.69.551-.746.663-.093 1.33-.143 2-.112.317.015.635.042.95.083.335.044.54.336.496.672-.058.442-.023.866.222 1.259a1.688 1.688 0 0 0 2.814.058l.08-.11c.218-.277.542-.328.828-.118.546.4 1.067.83 1.517 1.339.185.209.357.43.548.633.32.343.284.735-.11 1.011-.35.245-.574.58-.659 1.001-.155.765.19 1.461.805 1.813.383.22.79.272 1.221.185.4-.081.689.129.75.532.113.728.152 1.46.119 2.195a8.318 8.318 0 0 1-.078.774c-.051.356-.355.557-.732.493a1.665 1.665 0 0 0-2.001 1.696c.022.563.257 1.01.721 1.333.032.023.065.044.096.067.329.242.377.567.139.896a10.337 10.337 0 0 1-2.024 2.097c-.329.256-.66.218-.91-.122-.205-.277-.44-.512-.764-.644-1.167-.476-2.348.415-2.321 1.534.003.162.027.323.053.482.051.322-.117.604-.439.676a5.89 5.89 0 0 1-.75.107c-.33.03-.661.04-1.076.063Zm.14-14.293c-2.39.02-4.318 1.844-4.31 4.305.006 2.372 1.863 4.222 4.223 4.243 2.403.021 4.317-1.844 4.311-4.296-.006-2.363-1.86-4.189-4.225-4.252h.001Z" fill="#CBE6F6"/>
  <path d="M44.195 12.01c-.065 1.899-1.513 3.188-3.187 3.176-1.928-.014-3.215-1.531-3.195-3.197.02-1.865 1.47-3.183 3.177-3.176 1.88.009 3.177 1.48 3.205 3.198Z" fill="#82C1E9"/>
  <rect x="9.668" y="92" width="6.667" height="6.667" rx="1" fill="#82C1E9"/>
  <rect x="3" y="105.333" width="6.667" height="6.667" rx="1" fill="#82C1E9"/>
  <rect x="16.332" y="105.333" width="6.667" height="6.667" rx="1" fill="#82C1E9"/>
  <path d="M12.999 99.407V102m0 0H7.332a1 1 0 0 0-1 1v1.593M12.999 102h5.666a1 1 0 0 1 1 1v1.593" stroke="#51A9E1" stroke-width="1.5"/>
  <rect x="9.668" y="62" width="6.667" height="6.667" rx="1" fill="#CBE6F6"/>
  <rect x="3" y="75.333" width="6.667" height="6.667" rx="1" fill="#CBE6F6"/>
  <rect x="16.332" y="75.333" width="6.667" height="6.667" rx="1" fill="#CBE6F6"/>
  <path d="M12.999 69.407V72m0 0H7.332a1 1 0 0 0-1 1v1.593M12.999 72h5.666a1 1 0 0 1 1 1v1.593" stroke="#82C1E9" stroke-width="1.5"/>
  <path fill-rule="evenodd" clip-rule="evenodd" d="M20.647 35.068c0 1.695-3.95 3.069-8.824 3.069C6.95 38.136 3 36.762 3 35.067 3 33.374 6.95 32 11.823 32s8.824 1.374 8.824 3.068" fill="#97CBED"/>
  <path fill-rule="evenodd" clip-rule="evenodd" d="M11.823 39.73c-4.718 0-8.56-1.289-8.8-2.909H3v2.952c0 1.694 3.95 3.068 8.823 3.068 4.874 0 8.824-1.373 8.824-3.068V36.82h-.023c-.24 1.62-4.082 2.909-8.8 2.909" fill="#97CBED"/>
  <path fill-rule="evenodd" clip-rule="evenodd" d="M11.823 44.468c-4.718 0-8.56-1.288-8.8-2.908H3v2.951c0 1.695 3.95 3.068 8.823 3.068 4.874 0 8.824-1.373 8.824-3.068V41.56h-.023c-.24 1.62-4.082 2.908-8.8 2.908" fill="#97CBED"/>
  <path fill-rule="evenodd" clip-rule="evenodd" d="M11.823 48.89c-4.718 0-8.56-1.29-8.8-2.91H3v2.952C3 50.627 6.95 52 11.823 52c4.874 0 8.824-1.373 8.824-3.068V45.98h-.023c-.24 1.62-4.082 2.91-8.8 2.91" fill="#97CBED"/>
  <path fill-rule="evenodd" clip-rule="evenodd" d="M20.647 5.068c0 1.695-3.95 3.068-8.824 3.068C6.95 8.136 3 6.763 3 5.068 3 3.374 6.95 2 11.823 2s8.824 1.374 8.824 3.068" fill="#CBE6F6"/>
  <path fill-rule="evenodd" clip-rule="evenodd" d="M11.823 9.73c-4.718 0-8.56-1.289-8.8-2.909H3v2.952c0 1.694 3.95 3.068 8.823 3.068 4.874 0 8.824-1.373 8.824-3.068V6.82h-.023c-.24 1.62-4.082 2.909-8.8 2.909" fill="#CBE6F6"/>
  <path fill-rule="evenodd" clip-rule="evenodd" d="M11.823 14.469c-4.718 0-8.56-1.29-8.8-2.91H3v2.952c0 1.695 3.95 3.068 8.823 3.068 4.874 0 8.824-1.373 8.824-3.068V11.56h-.023c-.24 1.62-4.082 2.909-8.8 2.909" fill="#CBE6F6"/>
  <path fill-rule="evenodd" clip-rule="evenodd" d="M11.823 18.89c-4.718 0-8.56-1.29-8.8-2.91H3v2.952C3 20.627 6.95 22 11.823 22c4.874 0 8.824-1.373 8.824-3.068V15.98h-.023c-.24 1.62-4.082 2.91-8.8 2.91" fill="#CBE6F6"/>
  <defs>
    <clipPath id="a">
      <path fill="#fff" d="M780 0h18v12h-18z"/>
    </clipPath>
  </defs>
</svg>
